<?xml version="1.0" encoding="utf-8"?>
<!-- Generator: Adobe Illustrator 21.0.2, SVG Export Plug-In . SVG Version: 6.00 Build 0)  -->
<svg version="1.1" id="Ebene_1" xmlns="http://www.w3.org/2000/svg" xmlns:xlink="http://www.w3.org/1999/xlink" x="0px" y="0px"
	 viewBox="0 0 61 69" style="enable-background:new 0 0 61 69;" xml:space="preserve">
<style type="text/css">
	.st0{fill:#FFFFFF;}
</style>
<circle class="st0" cx="32.9" cy="5.5" r="1.3"/>
<g>
	<path class="st0" d="M48.8,20.1c-0.5-2.5-2.4-3.7-2.8-3.9c-0.1-0.3,0-4.4-0.8-6.4c-0.8-1.7-4.7-6.7-7.9-8.1c-1.4-0.7-3-1.1-4.5-1.1
		c-1.7,0-2.9,0.6-3.2,1.5c0,0.1,0,0.3,0,0.4c0.2,0.4,1.1,0.6,3.4,0.9c0.2,0,0.3,0,0.4,0.1c1.7,0.3,3,1.5,4.3,2.6l0.3,0.2
		c2.1,1.9,6.3,7.9,6.9,9.2c1.1,2.4,1.2,4.9,0.3,7.1c-0.9,2.1-2.6,3.7-4.9,4.5c-0.6,0.2-1.2,0.3-1.9,0.3c-7.4,0.3-8.3-10.3-8.3-10.3
		c-0.8,1.3-1.7,2.5-2.6,3.7c-1.5,2-3.1,4.1-4.2,6.8c-1.5,3.8-2.8,9.3-0.7,13.8c0.1,0.2,0.2,0.4,0.3,0.5c0.1,0.2,0.2,0.3,0.1,0.6
		l17.9-2.4C46.5,35.5,50.2,27,48.8,20.1z"/>
	<path class="st0" d="M12.8,64.5c0.1,1.9,2.6,2.2,4.2,2.1c2.3-0.2,5.8,0.5,6.8,0.9c1,0.4,1.9,0.7,2.7,0.7c1,0,1.7-0.5,2.1-1.5
		c0.5-1,2.2-13.2,3.1-20.1l-11.2,0.4C17.7,52.8,12.8,63,12.8,64.5z"/>
	<path class="st0" d="M12.4,20.1C12.4,20.1,12.4,20,12.4,20.1c0.2-0.4,1.8-1.7,3.1-1.9c0.5-0.1,4.6-1.1,9.1-2.5c3-0.8,7-2.5,7.4-3.3
		c0.3-0.6-0.1-2.6-0.7-4.1c0,0,0,0-0.1,0c-3,0.8-5.8,2-8.6,3.1C18.3,13.1,11.9,13.8,12.4,20.1z"/>
	<path class="st0" d="M10.4,20.2c0.3,0,0.6-0.2,0.8-0.5c-0.5-3.7,0.5-5.7,4.1-7.3c4.7-2.2,10-4.1,15.1-5.4c0,0,0,0,0,0
		c-0.1-0.3-0.2-0.5-0.3-0.7c-0.5-0.9-0.5-1.7-0.5-2.3c0-0.4,0-0.7-0.1-0.9c-0.2-0.5-0.9-0.7-1.9-0.7c-2.4,0-6.4,1.2-9.4,2.8
		c-2,1.1-8.1,4-8.6,8c-0.5,4-0.2,4.6,0.1,6.1C9.8,20,10.2,20.2,10.4,20.2z"/>
	<path class="st0" d="M59.1,37.4l-1.8-0.7c-0.1,0-0.1-0.1-0.2-0.1l-0.8-1c-0.1-0.1-0.3-0.2-0.5-0.1L47.8,39c0,0-0.1,0-0.1,0
		l-6.8,0.9L23,42.3l-1.3,0.2c0,0,0,0-0.1,0L8.2,41.8c-0.3,0-0.5-0.1-0.8-0.1l-4.7-1.5c-0.2-0.1-0.4,0-0.5,0.2l-1.2,3
		c-0.1,0.2,0,0.4,0.2,0.5c0.5,0.2,1.5,0.7,2.7,1c1.7,0.4,11.5,2.1,12.7,2.3c0.1,0,0.2,0,0.3,0l3.7-0.1l11.2-0.4l3.9-0.2
		c0,0,10.1-0.6,14.6-2.2c4.4-1.6,6.4-2.4,7.6-3.6c0.5-0.5,1.1-1.1,1.6-1.6C60,38.5,59.8,37.7,59.1,37.4z"/>
</g>
</svg>
