<?xml version="1.0" encoding="utf-8"?>
<!-- Generator: Adobe Illustrator 25.0.1, SVG Export Plug-In . SVG Version: 6.00 Build 0)  -->
<svg version="1.1" id="Ebene_1" xmlns="http://www.w3.org/2000/svg" xmlns:xlink="http://www.w3.org/1999/xlink" x="0px" y="0px"
	 viewBox="0 0 866.8 478.6" style="enable-background:new 0 0 866.8 478.6;" xml:space="preserve">
<style type="text/css">
	.st0{fill:#E2E2E2;}
	.st1{fill-rule:evenodd;clip-rule:evenodd;fill:#EDEDEC;}
	.st2{fill:#010101;}
	.st3{fill:#52A0D8;stroke:#52A0D8;stroke-miterlimit:10;}
	.st4{fill:none;stroke:#52A0D8;stroke-miterlimit:10;}
	.st5{fill:none;stroke:#578433;stroke-width:2;stroke-miterlimit:10;stroke-dasharray:3,3;}
	.st6{fill:none;stroke:#578433;stroke-width:2;stroke-miterlimit:3.8637;}
	.st7{fill:#1F1F1E;}
	.st8{fill:#1D1D1B;}
	.st9{fill:#52A0D8;}
	.st10{fill:#FFFFFF;}
	.st11{fill:#578433;}
</style>
<path class="st0" d="M463.5,235.1c0,0,3.4,1.8,9.9,8.3c6.5,6.5,11.4,13.1,18,14c6.6,0.8,12.3-3.4,8.3,1.6c-4.2,5.2-5.8,6.7-3.9,10.2
	c1.8,3.3,1.4,7.3-1,10.1c-0.8,0.9-0.7,2.3,0.9,5.2c3.2,5.8,5.8,10.7,11.5,8.3c3.6-1.5,8.6-2.4,11.7-2.9c0.5-0.1,0.7,0.6,0.2,0.8
	c-3.2,1.4-7.9,3.9-7.9,6.2c0,3.4,3.2,6.8,1.6,12.5c-1.6,5.7-1.8,8.8,3.2,9.7c5,1,13.3,0.1,14.9,3.4c1.6,3.2,2.3,5.7,7.3,6.5
	c5,0.8,12.5-5.7,14.1-3.2c1.6,2.4,6.4,4.9,9.7,4.1c3.4-0.8,1.8-4.1,6.6-4.1c4.9,0,9.9,5.7,13.1,2.4c3.2-3.2,1-10.7-3.2-11.5
	c-4.2-0.8-4.2-7.5-8.3-9.9c-4.1-2.4-8.1-3.2-6.5-4.9c1.6-1.6,6.5-3.2,6.5-3.2l5.8,3.2c0,0-0.8,5,1.6,8.3c2.4,3.2,9.1,0.7,11.5,6.5
	c2.4,5.8,22.2,35.2,37,37.8c14.8,2.6,48.5,4.1,60-0.8c11.5-4.9,22.4-8.8,28.1-9.7c5.7-1,9.9,0.7,13.1-3.4c3.2-4.1,3.1-12.3,8.1-14.8
	c5-2.4,34.6-17.4,42.8-19.8c8.3-2.4,28.9-1.8,39.6-9.9c10.7-8.1,48.5-36.2,48.5-36.2l-2.4,130.1c0,0-10.7,7.5-18.2,12.3
	c-7.5,4.9-13,17.1-28.7,21.3c-15.7,4.2-27.1-0.7-32.9,2.6c-5.8,3.2-14.1,16.5-14.1,22.2s0,8.1,9.9,15.6c9.9,7.5,21.4,14.8,21.4,14.8
	l-190-2.4c0,0-2.6-7.5-6.6-7.5c-4.1,0-2.3-4.1-5.7-5.7c-3.4-1.6-4.2-2.6-4.2-8.3c0-5.7-6.6-18-9.9-17.2c-3.2,0.8,2.4,8.1-4.1,6.5
	c-6.5-1.6-25.5-10.7-33.7-10.7c-8.3,0-10.7-1-14,0.8c-3.2,1.8-4.1,6.6-4.1,6.6s-7.5-2.6-8.3-6.6c-0.8-4.1-3.2-6.4-0.8-10.6
	c2.4-4.2,4.9-10.7,0.8-9.9c-4.1,0.8-5.8,8.1-9.1,6.5c-3.2-1.6-3.4-3.2-9.1-3.2c-5.7,0-8.3,4.1-11.5,4.1c-3.2,0-7.3,0-7.3,0
	s0.7,7.5-2.6,5.8c-3.2-1.6-20.5-11.5-31.2-9.9c-10.7,1.6-21.3,1-24.7,6.6c-3.4,5.7-5.8,9.9-4.2,14c1.6,4.1,5,9.1,5,12.3
	c0,3.2-2.6,8.9-5,6.5c-2.4-2.4-7.3-27.9-7.3-27.9l-15.7-9.9l5-14.8l23-27.2l-12.3-39.4l2.4-11.5l-8.3-55.2l10.7-30.4l8.3-14.1
	l23,5.8L463.5,235.1L463.5,235.1z"/>
<path class="st1" d="M35,36.3c-2.1-3.4-10.2-8.1-8.1-8.9c2.2-0.9,7.2,3.4,8.9,0.4c1.7-3,0.3-8.5-1.7-8.5c-2.1,0,3.4-7.6,6-10.7
	c2.6-3,3.8-8.2,6.4-8.6c2.6-0.4,3.9,2.2,6,4.3c2.2,2.2,9,7.2,14.5,8.5c5.5,1.3,11,0,17,3.4c6,3.4,56.7,23.5,56.7,23.5l34.1-18
	c0,0,4.2,5.6,10.2,6.5c6,0.9,10.2,0.5,12.4,3.4c2.2,2.9,8.1,8.5,10.2,8.5s12-6.9,12.4-5.6c0.4,1.3,1,9.4,6,11.1
	c5.1,1.7,15.3,2.7,14.9,6c-0.4,3.3-6.8,7.2-3.8,10.7c3,3.4,12.4-2.6,13.2,0.4c0.9,3,0.3,5.9,4.2,6.4c3.9,0.4,6.8-3.3,9.4-3.3
	c2.6,0,12.4,8.1,14.1,9.8c1.7,1.7,7.6-2.2,12.4-3.4c4.7-1.3,23.9-5.5,25.2-7.6c1.3-2.2,0.9-10.7,2.2-10.7c1.3,0,5.5,8.1,5.9,10.2
	c0.4,2.2-0.9,8.9,0.9,9.4c1.7,0.4,4.3-0.9,4.3,1.3c0,2.2,12,37,22.2,49.9c10.2,12.8,38.3,48.7,39.6,49.5c1.3,0.9,10.2,0.4,11.1,2.6
	c0.9,2.2-1.7,5.1,0.9,7.6c2.6,2.6,17.5,20.9,18.8,23.5c1.3,2.6,12,9.4,12,9.4s0.8,7.4,7.2,9.5c6.5,2.1,13.3,3.8,16.7,3.8
	c3.3,0,5.5,3,5.5,3l9.4,8.9c0,0-4.7-3.8-6.8-0.8c-2.2,3-0.5,6-4.3,6c-3.8,0-9.4-0.4-10.2-3c-0.9-2.6-9.9-11.1-12.8-11.1
	c-2.9,0-7.2-4.7-10.2-1.7c-3,3-3.4,8.9-1.7,11.1c1.7,2.2,3.4,3,2.2,4.7c-1.3,1.7-9.4,1-10.2,3c-0.9,2.1-2.2,54.3-0.9,56.3
	c1.3,2.1,3-2.2,4.3-1.3c1.3,0.9,11.2,10.7,13.7,12c2.5,1.3,11.5,3.3,11.5,8.5c0,5.2-5.2,10.2-7.7,10.7c-2.6,0.4-12,2.2-13.7,5.2
	c-1.6,2.9-1.6,7.6-1.6,7.6s-1.7-0.8-3,3c-1.3,3.8-0.8,6.8,1.7,8.5c2.5,1.7,9.4,8.6,9.4,14.5c0,5.9,0,17.9-3,20.9
	c-3,3-9.8,2.1-12.4,4.6c-2.6,2.6-13.2,9.4-13.7,12.4c-0.4,3-2.5,4.4,4.4,7.7c6.9,3.3,7.8,3.5,8.6,6.1c0.3,0.9,0.7,3.1,1.6,7.7
	c0.7,3.5,3.2,10.6,3.8,14.1c1,5.4,1.1,7.9,1.1,7.9s-1.6-0.1-3.2-5.4c-2.7-8.9-5.7-23-5.7-23s-6.9-2.9-10.2-5.1
	c-3.3-2.2-16.6-12-15.3-14.5c1.3-2.6,7.2-7.2,7.2-10.7c0-3.4-6.8-8.5-5.9-11.1c0.9-2.6,2.6-3.9,0.9-4.3c-1.7-0.4-6-1.8-6.5-4.3
	c-0.4-2.5,1.7-4.2,0-5.9c-1.7-1.7-6.4,2.2-8.9,0c-2.6-2.2-3.8-3-7.6-4.3c-3.9-1.3-6.5-3.3-5.2-5.9c1.3-2.6,0.3-5.2-4.3-5.6
	c-4.6-0.4-5.5,1.7-8.5,2.2c-3,0.4-8.9-0.4-9.8,1.3c-0.9,1.7,7.6,6.4,7.6,8.5c0,2.2,0.4,5.3,4.3,7.7c3.9,2.5,11.5,3.8,12.8,6.4
	c1.3,2.6,4.6,6.8,4.2,9.8c-0.4,3-1.5,3.9-1.2,5.2c0.3,1.3,3.8,3.3,2.9,4.6c-0.9,1.3-1.7,4.3-2.2,6c-0.4,1.7-6.5-4.3-11.5-6
	c-5.1-1.7-13.7-6.8-19.2-6.8c-5.5,0-8.5,3-10.7,1.3c-2.2-1.7-12.5-15-15.8-17.1c-3.3-2.2-9.4-3.3-7.6-5.5c1.7-2.2,4.3-4,5.2-6.5
	c0.9-2.5,2.5-3.3,4.6-3.3c2.2,0,6.9-4.7,7.3-6.9c0.4-2.2,0.3-6.8,2.5-7.6c2.2-0.9-3.8,0-5.1,0.4c-1.3,0.4,0.5-3.4,2.6-3.4
	c2.1,0,3.8-1.8,3.8-3.9c0-2.1-3-4.2-1.7-5.1c1.3-0.9,3.9-1.3,6.9-0.4c3,0.9,6.8,1.7,6.8,0c0-1.7-2.5-4.3-5.5-3.9
	c-3,0.4-6.5,2.2-7.7,0c-1.3-2.2,0-6-0.4-11.1c-0.4-5.1-1.6-8.2-5.1-12.4c-3.4-4.2-9.4-12.9-11.5-13.2c-2.2-0.3-4.7,2.9-5.2,0.9
	c-0.4-2.1-1.7-7.2-1.7-7.2s-5.2-3.3-9.8-6.8c-4.6-3.4-9.4-8.9-17.9-12c-8.5-3-17.9-10.2-22.2-10.2c-4.3,0-1.7-1.3-4.7-4.3
	c-3-3-15.4-9.4-26.5-12c-11.1-2.6-14.4-4.7-17-4.7c-2.6,0-2.7,2.6-5.2,3c-2.5,0.4-2.9-3.8-5.1-5.1c-2.2-1.3-6.8-4-10.7-8.2
	c-3.9-4.2-7.3-8.9-5.6-11.1c1.7-2.2,6.5-5.1,6.9-8.5c0.4-3.4-3.9-11.1-6-13.2c-2.2-2.2-6.8-2.1-6.4-5.1c0.4-3,0.9-8.3-1.3-9.9
	c-2.2-1.6-6.4-3.8-11.1-4.6c-4.7-0.9-11.5-3.5-15.4-6.9c-3.9-3.3-6.4-5.5-7.6-7.6c-1.3-2.2-3.1-7.6-7.3-7.6c-4.2,0-5.9,3-7.2,0.4
	c-1.3-2.6-0.5-7.3-3.9-7.7c-3.3-0.4-3.4,2.2-8.9,0.9c-5.5-1.3-8.5-6.8-10.7-9.4c-2.2-2.6-2.6-3.4-2.6-3.4s0.9,9.4,1.3,12.8
	c0.4,3.4,2.2,4,1.3,6.9c-0.9,2.9-1.7,3.8,0.9,5.5c2.6,1.7,8.1,1.8,8.9,5.6c0.9,3.8,0.9,9.4,4.7,10.2c3.9,0.9,13.6-0.3,15.7,2.6
	c2.2,2.9,0.9,4.6,4.7,6.4c3.9,1.7,10.2-0.9,9.4,1.7c-0.9,2.6-3.4,12-0.4,12c3,0,8.2-1.7,6.9-0.4c-1.3,1.3-9.8,7.2-11.1,8.9
	c-1.3,1.7-2.2,4.3-3.9,3.9c-1.7-0.4-4-3.9-5.2-1.3c-1.2,2.6,1.6,2.5,0.4,5.9c-1.2,3.4-8.1,3.4-8.9,6.5c-0.9,3-1,9.8-2.6,12
	c-1.6,2.2-4.6,2.2-5.1,0.4c-0.4-1.7-1.7-8.9-3.9-10.7c-2.2-1.7-9.5-12.9-13.7-18.4c-4.2-5.5-11-11.6-25.5-13.7
	c-14.5-2.1-24.9-0.9-30.4-7.6c-5.5-6.8-21.3-27.3-23.5-38c-2.2-10.7,0.3-16.6-1.3-19.6c-1.6-3-5-5.1-2.5-7.2
	c2.5-2.2,8.5-2.2,10.2-5.6c1.7-3.3,1.3-8.9,0.9-11.5c-0.4-2.6-1-7.2,1.6-7.2s5.3,1.7,8.6-0.9c3.3-2.6,4.2-6.4,5.9-6.4
	c1.7,0,1.3,0,3.9-3c2.6-3-1.7-3-4.3-3c-2.6,0,2.2-2.5,3-7.6c0.9-5.2,1.6-13.2-3.4-15.8c-5.1-2.6-13.1-1.7-15.3-2.6
	C18,56.4,21,53.4,18,53c-3-0.4-18-7.7-18-7.7l8.2-3.3l1.7-3c0,0,6.8-0.9,6.8,0.9s-0.9,4.6,1.3,4.6c2.2,0-1.2-3.8,3-3.8
	c4.2,0,6.6-0.9,8.1,0C31.2,41.9,35,36.3,35,36.3L35,36.3z"/>
<g>
	<g>
		<path class="st2" d="M409.9,160.6h4c2.3,0,3.1,1.7,3.1,3.4c0,2.4-1.5,3.4-3.6,3.4h-1.2v4.6h-2.3V160.6z M412.2,165.7h1
			c0.9,0,1.5-0.5,1.5-1.7c0-1.1-0.4-1.8-1.6-1.8h-1V165.7z"/>
		<path class="st2" d="M419.2,160.9h2.2v2.5h1.3v1.5h-1.3v4.7c0,0.7,0.1,0.9,0.8,0.9c0.2,0,0.4,0,0.5,0v1.5c-0.5,0-0.9,0.1-1.4,0.1
			c-1.7,0-2-0.5-2-2.3v-4.9h-1.1v-1.5h1.1V160.9z"/>
		<path class="st2" d="M427.2,163.1c2.7,0,3.4,1.5,3.4,4.5c0,2.9-0.9,4.5-3.4,4.5c-2.7,0-3.4-1.5-3.4-4.5
			C423.8,164.7,424.7,163.1,427.2,163.1z M427.2,170.7c0.9,0,1.2-0.9,1.2-3s-0.3-3-1.2-3c-1.1,0-1.2,1.3-1.2,3
			S426.1,170.7,427.2,170.7z"/>
		<path class="st2" d="M434.7,169.5v2.5h-2.1v-2.5H434.7z"/>
		<path class="st2" d="M441.5,172v-11.4h2.3v9.5h4.1v1.9H441.5z"/>
		<path class="st2" d="M449.5,160.4h2.2v1.9h-2.2V160.4z M449.5,163.4h2.2v8.6h-2.2V163.4z"/>
		<path class="st2" d="M453.9,163.4h2.1v0.9h0c0.6-0.8,1.2-1.1,2.2-1.1c1,0,1.7,0.5,2,1.4h0c0.3-0.9,1.1-1.4,2.2-1.4
			c1.5,0,2.1,0.9,2.1,2.6v6.3h-2.2v-6c0-0.7-0.2-1.1-0.9-1.1c-0.7,0-1.2,0.5-1.2,1.5v5.7h-2.2v-6c0-0.7-0.2-1.1-0.9-1.1
			c-0.7,0-1.2,0.5-1.2,1.5v5.7h-2.2V163.4z"/>
		<path class="st2" d="M469.8,163.1c2.7,0,3.4,1.5,3.4,4.5c0,2.9-0.9,4.5-3.4,4.5c-2.7,0-3.4-1.5-3.4-4.5
			C466.4,164.7,467.3,163.1,469.8,163.1z M469.8,170.7c0.9,0,1.2-0.9,1.2-3s-0.3-3-1.2-3c-1.1,0-1.2,1.3-1.2,3
			S468.7,170.7,469.8,170.7z"/>
		<path class="st2" d="M475,163.4h2.1v1h0c0.5-0.8,1.3-1.2,2.2-1.2c1.4,0,2.2,0.8,2.2,2.4v6.4h-2.2V166c0-0.9-0.3-1.2-0.9-1.2
			c-0.8,0-1.2,0.5-1.2,1.4v5.7H475V163.4z"/>
	</g>
</g>
<g>
	<g>
		<path class="st2" d="M439.4,200.6c0-1.7-0.3-2.4-1.4-2.4c-1.2,0-1.4,1.2-1.4,4.4c0,3.5,0.5,4.1,1.5,4.1c0.8,0,1.4-0.4,1.4-2.9h2.3
			c0,2.5-0.6,4.6-3.6,4.6c-3.5,0-3.9-2.5-3.9-5.9c0-3.5,0.4-5.9,3.9-5.9c3.3,0,3.5,2.4,3.5,4.1H439.4z"/>
		<path class="st2" d="M443.7,202.2V202c0-2,1.4-2.7,3-2.7c2.6,0,3.1,1.1,3.1,2.6v4.5c0,0.8,0,1.2,0.3,1.7H448
			c-0.1-0.3-0.2-0.6-0.3-0.9h0c-0.5,0.9-1.1,1.1-2.2,1.1c-1.5,0-2.1-1.3-2.1-2.5c0-1.6,0.7-2.3,2.2-2.7l1.2-0.3
			c0.7-0.2,0.9-0.4,0.9-1c0-0.7-0.3-1.1-1-1.1c-0.7,0-1,0.4-1,1.1v0.2H443.7z M447.7,203.8c-0.3,0.2-0.7,0.4-0.9,0.4
			c-0.9,0.2-1.2,0.6-1.2,1.4c0,0.7,0.2,1.2,0.8,1.2c0.6,0,1.4-0.4,1.4-1.3V203.8z"/>
		<path class="st2" d="M452,196.7h2.2v3.7h0c0.4-0.7,1.2-1.1,2.1-1.1c1.4,0,2.2,0.8,2.2,2.4v6.4h-2.2v-5.9c0-0.9-0.3-1.2-0.9-1.2
			c-0.8,0-1.2,0.5-1.2,1.4v5.7H452V196.7z"/>
		<path class="st2" d="M465.1,207.1L465.1,207.1c-0.5,0.8-1.3,1.2-2.2,1.2c-1.4,0-2.2-0.8-2.2-2.4v-6.4h2.2v5.9
			c0,0.9,0.3,1.2,0.9,1.2c0.8,0,1.2-0.5,1.2-1.4v-5.7h2.2v8.6h-2.1V207.1z"/>
		<path class="st2" d="M469.4,196.6h2.2v1.9h-2.2V196.6z M469.4,199.5h2.2v8.6h-2.2V199.5z"/>
		<path class="st2" d="M474.3,197.1h2.2v2.5h1.3v1.5h-1.3v4.7c0,0.7,0.1,0.9,0.8,0.9c0.2,0,0.4,0,0.5,0v1.5c-0.5,0-0.9,0.1-1.4,0.1
			c-1.7,0-2-0.5-2-2.3V201h-1.1v-1.5h1.1V197.1z"/>
		<path class="st2" d="M479.2,202.2V202c0-2,1.4-2.7,3-2.7c2.6,0,3.1,1.1,3.1,2.6v4.5c0,0.8,0,1.2,0.3,1.7h-2.1
			c-0.1-0.3-0.2-0.6-0.3-0.9h0c-0.5,0.9-1.1,1.1-2.2,1.1c-1.5,0-2.1-1.3-2.1-2.5c0-1.6,0.7-2.3,2.2-2.7l1.2-0.3
			c0.7-0.2,0.9-0.4,0.9-1c0-0.7-0.3-1.1-1-1.1c-0.7,0-1,0.4-1,1.1v0.2H479.2z M483.2,203.8c-0.3,0.2-0.7,0.4-0.9,0.4
			c-0.9,0.2-1.2,0.6-1.2,1.4c0,0.7,0.2,1.2,0.8,1.2c0.6,0,1.4-0.4,1.4-1.3V203.8z"/>
	</g>
</g>
<g>
	<g>
		<path class="st2" d="M388.7,394.7h4c2.3,0,3.1,1.7,3.1,3.4c0,2.4-1.5,3.4-3.6,3.4H391v4.6h-2.3V394.7z M391,399.9h1
			c0.9,0,1.5-0.5,1.5-1.7c0-1.1-0.4-1.8-1.6-1.8h-1V399.9z"/>
		<path class="st2" d="M397.6,400.2V400c0-2,1.4-2.7,3-2.7c2.6,0,3.1,1.1,3.1,2.6v4.5c0,0.8,0,1.2,0.3,1.7h-2.1
			c-0.1-0.3-0.2-0.6-0.3-0.9h0c-0.5,0.9-1.1,1.1-2.2,1.1c-1.5,0-2.1-1.3-2.1-2.5c0-1.6,0.7-2.3,2.2-2.7l1.2-0.3
			c0.7-0.2,0.9-0.4,0.9-1c0-0.7-0.3-1.1-1-1.1c-0.7,0-1,0.4-1,1.1v0.2H397.6z M401.6,401.9c-0.3,0.2-0.7,0.4-0.9,0.4
			c-0.9,0.2-1.2,0.6-1.2,1.4c0,0.7,0.2,1.2,0.8,1.2c0.6,0,1.4-0.4,1.4-1.3V401.9z"/>
		<path class="st2" d="M407.5,403.3v0.3c0,0.8,0.4,1.2,1.2,1.2c0.7,0,1.1-0.3,1.1-1c0-0.6-0.4-0.8-0.8-1l-1.6-0.6
			c-1.2-0.4-1.8-1.2-1.8-2.4c0-1.4,0.9-2.6,3.2-2.6c2,0,2.9,0.9,2.9,2.4v0.4h-2c0-0.9-0.3-1.3-1-1.3c-0.6,0-1,0.3-1,0.9
			c0,0.4,0.2,0.8,1,1l1.3,0.4c1.4,0.5,1.9,1.2,1.9,2.5c0,1.8-1.3,2.7-3.2,2.7c-2.5,0-3.2-1.1-3.2-2.7v-0.3H407.5z"/>
		<path class="st2" d="M416.8,397.3c2.7,0,3.4,1.5,3.4,4.5c0,2.9-0.9,4.5-3.4,4.5c-2.7,0-3.4-1.5-3.4-4.5
			C413.4,398.9,414.2,397.3,416.8,397.3z M416.8,404.9c0.9,0,1.2-0.9,1.2-3s-0.3-3-1.2-3c-1.1,0-1.2,1.3-1.2,3
			S415.7,404.9,416.8,404.9z"/>
		<path class="st2" d="M376.3,414.6c0-1.7-0.3-2.4-1.4-2.4c-1.2,0-1.4,1.2-1.4,4.4c0,3.5,0.5,4.1,1.5,4.1c0.8,0,1.4-0.4,1.4-2.9h2.3
			c0,2.5-0.6,4.6-3.6,4.6c-3.5,0-3.9-2.5-3.9-5.9c0-3.5,0.4-5.9,3.9-5.9c3.3,0,3.5,2.4,3.5,4.1H376.3z"/>
		<path class="st2" d="M380.6,416.2V416c0-2,1.4-2.7,3-2.7c2.6,0,3.1,1.1,3.1,2.6v4.5c0,0.8,0,1.2,0.3,1.7h-2.1
			c-0.1-0.3-0.2-0.6-0.3-0.9h0c-0.5,0.9-1.1,1.1-2.2,1.1c-1.5,0-2.1-1.3-2.1-2.5c0-1.6,0.7-2.3,2.2-2.7l1.2-0.3
			c0.7-0.2,0.9-0.4,0.9-1c0-0.7-0.3-1.1-1-1.1c-0.7,0-1,0.4-1,1.1v0.2H380.6z M384.6,417.9c-0.3,0.2-0.7,0.4-0.9,0.4
			c-0.9,0.2-1.2,0.6-1.2,1.4c0,0.7,0.2,1.2,0.8,1.2c0.6,0,1.4-0.4,1.4-1.3V417.9z"/>
		<path class="st2" d="M388.9,413.5h2.1v1h0c0.5-0.8,1.3-1.2,2.2-1.2c1.4,0,2.2,0.8,2.2,2.4v6.4h-2.2v-5.9c0-0.9-0.3-1.2-0.9-1.2
			c-0.8,0-1.2,0.5-1.2,1.4v5.7h-2.2V413.5z"/>
		<path class="st2" d="M400.7,413.3c2.7,0,3.4,1.5,3.4,4.5c0,2.9-0.9,4.5-3.4,4.5c-2.7,0-3.4-1.5-3.4-4.5
			C397.3,414.9,398.2,413.3,400.7,413.3z M400.7,420.9c0.9,0,1.2-0.9,1.2-3s-0.3-3-1.2-3c-1.1,0-1.2,1.3-1.2,3
			S399.6,420.9,400.7,420.9z"/>
		<path class="st2" d="M405.9,416.2V416c0-2,1.4-2.7,3-2.7c2.6,0,3.1,1.1,3.1,2.6v4.5c0,0.8,0,1.2,0.3,1.7h-2.1
			c-0.1-0.3-0.2-0.6-0.3-0.9h0c-0.5,0.9-1.1,1.1-2.2,1.1c-1.5,0-2.1-1.3-2.1-2.5c0-1.6,0.7-2.3,2.2-2.7l1.2-0.3
			c0.7-0.2,0.9-0.4,0.9-1c0-0.7-0.3-1.1-1-1.1c-0.7,0-1,0.4-1,1.1v0.2H405.9z M409.9,417.9c-0.3,0.2-0.7,0.4-0.9,0.4
			c-0.9,0.2-1.2,0.6-1.2,1.4c0,0.7,0.2,1.2,0.8,1.2c0.6,0,1.4-0.4,1.4-1.3V417.9z"/>
		<path class="st2" d="M415.9,419.3v0.3c0,0.8,0.4,1.2,1.2,1.2c0.7,0,1.1-0.3,1.1-1c0-0.6-0.4-0.8-0.8-1l-1.6-0.6
			c-1.2-0.4-1.8-1.2-1.8-2.4c0-1.4,0.9-2.6,3.2-2.6c2,0,2.9,0.9,2.9,2.4v0.4h-2c0-0.9-0.3-1.3-1-1.3c-0.6,0-1,0.3-1,0.9
			c0,0.4,0.2,0.8,1,1l1.3,0.4c1.4,0.5,1.9,1.2,1.9,2.5c0,1.8-1.3,2.7-3.2,2.7c-2.5,0-3.2-1.1-3.2-2.7v-0.3H415.9z"/>
	</g>
</g>
<g>
	<g>
		<path class="st2" d="M208.7,278h3.4l1.6,8.1h0l1.6-8.1h3.4v11.4h-2.1v-9.1h0l-2,9.1h-1.8l-2-9.1h0v9.1h-2.1V278z"/>
		<path class="st2" d="M221.1,283.4v-0.2c0-2,1.4-2.7,3-2.7c2.6,0,3.1,1.1,3.1,2.6v4.5c0,0.8,0,1.2,0.3,1.7h-2.1
			c-0.1-0.3-0.2-0.6-0.3-0.9h0c-0.5,0.9-1.1,1.1-2.2,1.1c-1.5,0-2.1-1.3-2.1-2.5c0-1.6,0.7-2.3,2.2-2.7l1.2-0.3
			c0.7-0.2,0.9-0.4,0.9-1c0-0.7-0.3-1.1-1-1.1c-0.7,0-1,0.4-1,1.1v0.2H221.1z M225.1,285.1c-0.3,0.2-0.7,0.4-0.9,0.4
			c-0.9,0.2-1.2,0.6-1.2,1.4c0,0.7,0.2,1.2,0.8,1.2s1.4-0.4,1.4-1.3V285.1z"/>
		<path class="st2" d="M229.9,278.3h2.2v2.5h1.3v1.5h-1.3v4.7c0,0.7,0.1,0.9,0.8,0.9c0.2,0,0.4,0,0.5,0v1.5c-0.5,0-0.9,0.1-1.4,0.1
			c-1.7,0-2-0.5-2-2.3v-4.9h-1.1v-1.5h1.1V278.3z"/>
		<path class="st2" d="M234.8,283.4v-0.2c0-2,1.4-2.7,3-2.7c2.6,0,3.1,1.1,3.1,2.6v4.5c0,0.8,0,1.2,0.3,1.7h-2.1
			c-0.1-0.3-0.2-0.6-0.3-0.9h0c-0.5,0.9-1.1,1.1-2.2,1.1c-1.5,0-2.1-1.3-2.1-2.5c0-1.6,0.7-2.3,2.2-2.7l1.2-0.3
			c0.7-0.2,0.9-0.4,0.9-1c0-0.7-0.3-1.1-1-1.1c-0.7,0-1,0.4-1,1.1v0.2H234.8z M238.8,285.1c-0.3,0.2-0.7,0.4-0.9,0.4
			c-0.9,0.2-1.2,0.6-1.2,1.4c0,0.7,0.2,1.2,0.8,1.2s1.4-0.4,1.4-1.3V285.1z"/>
		<path class="st2" d="M243.1,280.8h2.1v0.9h0c0.5-0.8,1.1-1.1,2-1.1c1.8,0,2.6,1.3,2.6,4.5s-0.8,4.5-2.6,4.5c-0.8,0-1.4-0.3-1.9-1
			h0v3.6h-2.2V280.8z M246.5,287.9c1,0,1.2-1,1.2-2.8s-0.2-2.8-1.2-2.8c-1,0-1.2,1-1.2,2.8S245.5,287.9,246.5,287.9z"/>
		<path class="st2" d="M251.7,283.4v-0.2c0-2,1.4-2.7,3-2.7c2.6,0,3.1,1.1,3.1,2.6v4.5c0,0.8,0,1.2,0.3,1.7H256
			c-0.1-0.3-0.2-0.6-0.3-0.9h0c-0.5,0.9-1.1,1.1-2.2,1.1c-1.5,0-2.1-1.3-2.1-2.5c0-1.6,0.7-2.3,2.2-2.7l1.2-0.3
			c0.7-0.2,0.9-0.4,0.9-1c0-0.7-0.3-1.1-1-1.1c-0.7,0-1,0.4-1,1.1v0.2H251.7z M255.8,285.1c-0.3,0.2-0.7,0.4-0.9,0.4
			c-0.9,0.2-1.2,0.6-1.2,1.4c0,0.7,0.2,1.2,0.8,1.2s1.4-0.4,1.4-1.3V285.1z"/>
		<path class="st2" d="M260.2,278h2.2v11.4h-2.2V278z"/>
		<path class="st2" d="M267.7,280.6c2.7,0,3.4,1.5,3.4,4.5c0,2.9-0.9,4.5-3.4,4.5c-2.7,0-3.4-1.5-3.4-4.5
			C264.3,282.2,265.1,280.6,267.7,280.6z M267.7,288.1c0.9,0,1.2-0.9,1.2-3s-0.3-3-1.2-3c-1.1,0-1.2,1.3-1.2,3
			S266.6,288.1,267.7,288.1z"/>
	</g>
</g>
<g>
	<g>
		<path class="st2" d="M191.3,265.7l-1.4-1.4c-0.2,0.1-0.4,0.1-0.7,0.2c-0.2,0-0.5,0-0.8,0c-3.5,0-3.9-2.5-3.9-5.9
			c0-3.5,0.4-5.9,3.9-5.9s3.9,2.5,3.9,5.9c0,1.9-0.1,3.6-0.9,4.6l1.2,1.2L191.3,265.7z M188.4,262.9c1.4,0,1.6-1.2,1.6-4.2
			c0-3.1-0.2-4.2-1.6-4.2c-1.4,0-1.6,1.2-1.6,4.2C186.8,261.7,187,262.9,188.4,262.9z"/>
		<path class="st2" d="M198.6,263.3L198.6,263.3c-0.5,0.8-1.3,1.2-2.2,1.2c-1.4,0-2.2-0.8-2.2-2.4v-6.4h2.2v5.9
			c0,0.9,0.3,1.2,0.9,1.2c0.8,0,1.2-0.5,1.2-1.4v-5.7h2.2v8.6h-2.1V263.3z"/>
		<path class="st2" d="M204.7,260.4v0.7c0,1,0.3,2,1.1,2c0.7,0,1-0.6,1.2-1.6h2c-0.1,2-1,3.1-3.1,3.1c-3.2,0-3.3-2.5-3.3-4.6
			c0-2.3,0.4-4.5,3.4-4.5c2.6,0,3.2,1.7,3.2,4.4v0.5H204.7z M207,259.1c0-1.3-0.2-2-1.1-2c-0.9,0-1.1,0.9-1.1,1.7v0.3H207z"/>
		<path class="st2" d="M210.9,255.7h2.1v0.9h0c0.5-0.8,1.1-1.1,2-1.1c1.8,0,2.6,1.3,2.6,4.5s-0.8,4.5-2.6,4.5c-0.8,0-1.4-0.3-1.9-1
			h0v3.6h-2.2V255.7z M214.3,262.9c1,0,1.2-1,1.2-2.8s-0.2-2.8-1.2-2.8c-1,0-1.2,1-1.2,2.8S213.3,262.9,214.3,262.9z"/>
		<path class="st2" d="M222.6,255.5c2.7,0,3.4,1.5,3.4,4.5c0,2.9-0.9,4.5-3.4,4.5c-2.7,0-3.4-1.5-3.4-4.5
			C219.2,257.1,220.1,255.5,222.6,255.5z M222.6,263.1c0.9,0,1.2-0.9,1.2-3s-0.3-3-1.2-3c-1.1,0-1.2,1.3-1.2,3
			S221.6,263.1,222.6,263.1z"/>
		<path class="st2" d="M229.5,261.5v0.3c0,0.8,0.4,1.2,1.2,1.2c0.7,0,1.1-0.3,1.1-1c0-0.6-0.4-0.8-0.8-1l-1.6-0.6
			c-1.2-0.4-1.8-1.2-1.8-2.4c0-1.4,0.9-2.6,3.2-2.6c2,0,2.9,0.9,2.9,2.4v0.4h-2c0-0.9-0.3-1.3-1-1.3c-0.6,0-1,0.3-1,0.9
			c0,0.4,0.2,0.8,1,1l1.3,0.4c1.4,0.5,1.9,1.2,1.9,2.5c0,1.8-1.3,2.7-3.2,2.7c-2.5,0-3.2-1.1-3.2-2.7v-0.3H229.5z"/>
	</g>
</g>
<g>
	<g>
		<path class="st2" d="M192,131.3v-11.4h2.3v9.5h4.1v1.9H192z"/>
		<path class="st2" d="M199.9,125.3v-0.2c0-2,1.4-2.7,3-2.7c2.6,0,3.1,1.1,3.1,2.6v4.5c0,0.8,0,1.2,0.3,1.7h-2.1
			c-0.1-0.3-0.2-0.6-0.3-0.9h0c-0.5,0.9-1.1,1.1-2.2,1.1c-1.5,0-2.1-1.3-2.1-2.5c0-1.6,0.7-2.3,2.2-2.7l1.2-0.3
			c0.7-0.2,0.9-0.4,0.9-1c0-0.7-0.3-1.1-1-1.1c-0.7,0-1,0.4-1,1.1v0.2H199.9z M204,127c-0.3,0.2-0.7,0.4-0.9,0.4
			c-0.9,0.2-1.2,0.6-1.2,1.4c0,0.7,0.2,1.2,0.8,1.2s1.4-0.4,1.4-1.3V127z"/>
		<path class="st2" d="M192,135.9h6.4v1.9h-4.1v2.7h3.8v1.9h-3.8v5H192V135.9z"/>
		<path class="st2" d="M203,138.5c2.7,0,3.4,1.5,3.4,4.5c0,2.9-0.9,4.5-3.4,4.5c-2.7,0-3.4-1.5-3.4-4.5
			C199.6,140.1,200.5,138.5,203,138.5z M203,146c0.9,0,1.2-0.9,1.2-3s-0.3-3-1.2-3c-1.1,0-1.2,1.3-1.2,3S202,146,203,146z"/>
		<path class="st2" d="M208.3,138.7h2.1v1.2h0c0.4-0.8,1.1-1.4,2-1.4c0.1,0,0.3,0,0.4,0v2.1c-0.2,0-0.5,0-0.7,0
			c-0.8,0-1.6,0.4-1.6,1.6v5.2h-2.2V138.7z"/>
		<path class="st2" d="M214.7,136.2h2.2v2.5h1.3v1.5h-1.3v4.7c0,0.7,0.1,0.9,0.8,0.9c0.2,0,0.4,0,0.5,0v1.5c-0.5,0-0.9,0.1-1.4,0.1
			c-1.7,0-2-0.5-2-2.3v-4.9h-1.1v-1.5h1.1V136.2z"/>
		<path class="st2" d="M224,146.3L224,146.3c-0.5,0.8-1.3,1.2-2.2,1.2c-1.4,0-2.2-0.8-2.2-2.4v-6.4h2.2v5.9c0,0.9,0.3,1.2,0.9,1.2
			c0.8,0,1.2-0.5,1.2-1.4v-5.7h2.2v8.6H224V146.3z"/>
		<path class="st2" d="M228.2,138.7h2.1v1h0c0.5-0.8,1.3-1.2,2.2-1.2c1.4,0,2.2,0.8,2.2,2.4v6.4h-2.2v-5.9c0-0.9-0.3-1.2-0.9-1.2
			c-0.8,0-1.2,0.5-1.2,1.4v5.7h-2.2V138.7z"/>
		<path class="st2" d="M236.9,141.3v-0.2c0-2,1.4-2.7,3-2.7c2.6,0,3.1,1.1,3.1,2.6v4.5c0,0.8,0,1.2,0.3,1.7h-2.1
			c-0.1-0.3-0.2-0.6-0.3-0.9h0c-0.5,0.9-1.1,1.1-2.2,1.1c-1.5,0-2.1-1.3-2.1-2.5c0-1.6,0.7-2.3,2.2-2.7l1.2-0.3
			c0.7-0.2,0.9-0.4,0.9-1c0-0.7-0.3-1.1-1-1.1c-0.7,0-1,0.4-1,1.1v0.2H236.9z M240.9,143c-0.3,0.2-0.7,0.4-0.9,0.4
			c-0.9,0.2-1.2,0.6-1.2,1.4c0,0.7,0.2,1.2,0.8,1.2s1.4-0.4,1.4-1.3V143z"/>
	</g>
</g>
<g>
	<g>
		<path class="st2" d="M70,180.3h4c2.3,0,3.1,1.7,3.1,3.4c0,2.4-1.5,3.4-3.6,3.4h-1.2v4.6H70V180.3z M72.3,185.5h1
			c0.9,0,1.5-0.5,1.5-1.7c0-1.1-0.4-1.8-1.6-1.8h-1V185.5z"/>
		<path class="st2" d="M83.3,190.8L83.3,190.8c-0.5,0.8-1.3,1.2-2.2,1.2c-1.4,0-2.2-0.8-2.2-2.4v-6.4H81v5.9c0,0.9,0.3,1.2,0.9,1.2
			c0.8,0,1.2-0.5,1.2-1.4v-5.7h2.2v8.6h-2.1V190.8z"/>
		<path class="st2" d="M87.5,183.1h2.1v1h0c0.5-0.8,1.3-1.2,2.2-1.2c1.4,0,2.2,0.8,2.2,2.4v6.4h-2.2v-5.9c0-0.9-0.3-1.2-0.9-1.2
			c-0.8,0-1.2,0.5-1.2,1.4v5.7h-2.2V183.1z"/>
		<path class="st2" d="M96.6,180.7h2.2v2.5h1.3v1.5h-1.3v4.7c0,0.7,0.1,0.9,0.8,0.9c0.2,0,0.4,0,0.5,0v1.5c-0.5,0-0.9,0.1-1.4,0.1
			c-1.7,0-2-0.5-2-2.3v-4.9h-1.1v-1.5h1.1V180.7z"/>
		<path class="st2" d="M101.5,185.8v-0.2c0-2,1.4-2.7,3-2.7c2.6,0,3.1,1.1,3.1,2.6v4.5c0,0.8,0,1.2,0.3,1.7h-2.1
			c-0.1-0.3-0.2-0.6-0.3-0.9h0c-0.5,0.9-1.1,1.1-2.2,1.1c-1.5,0-2.1-1.3-2.1-2.5c0-1.6,0.7-2.3,2.2-2.7l1.2-0.3
			c0.7-0.2,0.9-0.4,0.9-1c0-0.7-0.3-1.1-1-1.1c-0.7,0-1,0.4-1,1.1v0.2H101.5z M105.5,187.5c-0.3,0.2-0.7,0.4-0.9,0.4
			c-0.9,0.2-1.2,0.6-1.2,1.4c0,0.7,0.2,1.2,0.8,1.2s1.4-0.4,1.4-1.3V187.5z"/>
		<path class="st2" d="M109.8,183.1h2.1v1.2h0c0.4-0.8,1.1-1.4,2-1.4c0.1,0,0.3,0,0.4,0v2.1c-0.2,0-0.5,0-0.7,0
			c-0.8,0-1.6,0.4-1.6,1.6v5.2h-2.2V183.1z"/>
		<path class="st2" d="M117.7,187.8v0.7c0,1,0.3,2,1.1,2c0.7,0,1-0.6,1.2-1.6h2c-0.1,2-1,3.1-3.1,3.1c-3.2,0-3.3-2.5-3.3-4.6
			c0-2.3,0.4-4.4,3.4-4.4c2.6,0,3.2,1.7,3.2,4.4v0.5H117.7z M119.9,186.5c0-1.3-0.2-2-1.1-2c-0.9,0-1.1,0.9-1.1,1.7v0.3H119.9z"/>
		<path class="st2" d="M123.8,183.1h2.1v1h0c0.5-0.8,1.3-1.2,2.2-1.2c1.4,0,2.2,0.8,2.2,2.4v6.4h-2.2v-5.9c0-0.9-0.3-1.2-0.9-1.2
			c-0.8,0-1.2,0.5-1.2,1.4v5.7h-2.2V183.1z"/>
		<path class="st2" d="M132.5,185.8v-0.2c0-2,1.4-2.7,3-2.7c2.6,0,3.1,1.1,3.1,2.6v4.5c0,0.8,0,1.2,0.3,1.7h-2.1
			c-0.1-0.3-0.2-0.6-0.3-0.9h0c-0.5,0.9-1.1,1.1-2.2,1.1c-1.5,0-2.1-1.3-2.1-2.5c0-1.6,0.7-2.3,2.2-2.7l1.2-0.3
			c0.7-0.2,0.9-0.4,0.9-1c0-0.7-0.3-1.1-1-1.1c-0.7,0-1,0.4-1,1.1v0.2H132.5z M136.5,187.5c-0.3,0.2-0.7,0.4-0.9,0.4
			c-0.9,0.2-1.2,0.6-1.2,1.4c0,0.7,0.2,1.2,0.8,1.2s1.4-0.4,1.4-1.3V187.5z"/>
		<path class="st2" d="M142.4,188.9v0.3c0,0.8,0.4,1.2,1.2,1.2c0.7,0,1.1-0.3,1.1-1c0-0.6-0.4-0.8-0.8-1l-1.6-0.6
			c-1.2-0.4-1.8-1.2-1.8-2.4c0-1.4,0.9-2.6,3.2-2.6c2,0,2.9,0.9,2.9,2.4v0.4h-2c0-0.9-0.3-1.3-1-1.3c-0.6,0-1,0.3-1,0.9
			c0,0.4,0.2,0.8,1,1l1.3,0.4c1.4,0.5,1.9,1.2,1.9,2.5c0,1.8-1.3,2.7-3.2,2.7c-2.5,0-3.2-1.1-3.2-2.7v-0.3H142.4z"/>
	</g>
</g>
<g>
	<g>
		<path class="st2" d="M85.5,130.5v0.3c0,1.1,0.3,1.8,1.5,1.8c0.7,0,1.4-0.4,1.4-1.4c0-1-0.5-1.4-2-2c-2-0.7-3-1.6-3-3.5
			c0-2.2,1.4-3.4,3.5-3.4c2,0,3.5,0.9,3.5,3.1v0.3h-2.2c0-1.1-0.4-1.7-1.2-1.7c-1,0-1.3,0.7-1.3,1.3c0,0.7,0.2,1.1,1.2,1.6l1.8,0.8
			c1.7,0.8,2.2,1.6,2.2,3c0,2.4-1.5,3.5-4,3.5c-2.6,0-3.6-1.2-3.6-3.3v-0.5H85.5z"/>
		<path class="st2" d="M93,123h2.2v2.5h1.3v1.5h-1.3v4.7c0,0.7,0.1,0.9,0.8,0.9c0.2,0,0.4,0,0.5,0v1.5c-0.5,0-0.9,0.1-1.4,0.1
			c-1.7,0-2-0.5-2-2.3V127h-1.1v-1.5H93V123z"/>
		<path class="st2" d="M97.8,128.1v-0.2c0-2,1.4-2.7,3-2.7c2.6,0,3.1,1.1,3.1,2.6v4.5c0,0.8,0,1.2,0.3,1.7h-2.1
			c-0.1-0.3-0.2-0.6-0.3-0.9h0c-0.5,0.9-1.1,1.1-2.2,1.1c-1.5,0-2.1-1.3-2.1-2.5c0-1.6,0.7-2.3,2.2-2.7l1.2-0.3
			c0.7-0.2,0.9-0.4,0.9-1c0-0.7-0.3-1.1-1-1.1c-0.7,0-1,0.4-1,1.1v0.2H97.8z M101.9,129.8c-0.3,0.2-0.7,0.4-0.9,0.4
			c-0.9,0.2-1.2,0.6-1.2,1.4c0,0.7,0.2,1.2,0.8,1.2s1.4-0.4,1.4-1.3V129.8z"/>
		<path class="st2" d="M108.4,131.6v2.5h-2.1v-2.5H108.4z"/>
		<path class="st2" d="M121.6,122.7v1.9h-4.1v2.7h3.8v1.9h-3.8v3.1h4.2v1.9h-6.5v-11.4H121.6z"/>
		<path class="st2" d="M123.6,122.7h2.2v11.4h-2.2V122.7z"/>
		<path class="st2" d="M129.9,130.1v0.7c0,1,0.3,2,1.1,2c0.7,0,1-0.6,1.2-1.6h2c-0.1,2-1,3.1-3.1,3.1c-3.2,0-3.3-2.5-3.3-4.6
			c0-2.3,0.4-4.4,3.4-4.4c2.6,0,3.2,1.7,3.2,4.4v0.5H129.9z M132.1,128.8c0-1.3-0.2-2-1.1-2c-0.9,0-1.1,0.9-1.1,1.7v0.3H132.1z"/>
		<path class="st2" d="M136,125.5h2.1v1h0c0.5-0.8,1.3-1.2,2.2-1.2c1.4,0,2.2,0.8,2.2,2.4v6.4h-2.2v-5.9c0-0.9-0.3-1.2-0.9-1.2
			c-0.8,0-1.2,0.5-1.2,1.4v5.7H136V125.5z"/>
		<path class="st2" d="M144.6,128.1v-0.2c0-2,1.4-2.7,3-2.7c2.6,0,3.1,1.1,3.1,2.6v4.5c0,0.8,0,1.2,0.3,1.7H149
			c-0.1-0.3-0.2-0.6-0.3-0.9h0c-0.5,0.9-1.1,1.1-2.2,1.1c-1.5,0-2.1-1.3-2.1-2.5c0-1.6,0.7-2.3,2.2-2.7l1.2-0.3
			c0.7-0.2,0.9-0.4,0.9-1c0-0.7-0.3-1.1-1-1.1c-0.7,0-1,0.4-1,1.1v0.2H144.6z M148.7,129.8c-0.3,0.2-0.7,0.4-0.9,0.4
			c-0.9,0.2-1.2,0.6-1.2,1.4c0,0.7,0.2,1.2,0.8,1.2s1.4-0.4,1.4-1.3V129.8z"/>
	</g>
</g>
<g>
	<g>
		<path class="st2" d="M258.4,207v0.3c0,1.1,0.3,1.8,1.5,1.8c0.7,0,1.4-0.4,1.4-1.4c0-1-0.5-1.4-2-2c-2-0.7-3-1.6-3-3.5
			c0-2.2,1.4-3.4,3.5-3.4c2,0,3.5,0.9,3.5,3.1v0.3h-2.2c0-1.1-0.4-1.7-1.2-1.7c-1,0-1.3,0.7-1.3,1.3c0,0.7,0.2,1.1,1.2,1.6l1.8,0.8
			c1.7,0.8,2.2,1.6,2.2,3c0,2.4-1.5,3.5-4,3.5c-2.6,0-3.6-1.2-3.6-3.3V207H258.4z"/>
		<path class="st2" d="M265.4,204.6v-0.2c0-2,1.4-2.7,3-2.7c2.6,0,3.1,1.1,3.1,2.6v4.5c0,0.8,0,1.2,0.3,1.7h-2.1
			c-0.1-0.3-0.2-0.6-0.3-0.9h0c-0.5,0.9-1.1,1.1-2.2,1.1c-1.5,0-2.1-1.3-2.1-2.5c0-1.6,0.7-2.3,2.2-2.7l1.2-0.3
			c0.7-0.2,0.9-0.4,0.9-1c0-0.7-0.3-1.1-1-1.1c-0.7,0-1,0.4-1,1.1v0.2H265.4z M269.4,206.2c-0.3,0.2-0.7,0.4-0.9,0.4
			c-0.9,0.2-1.2,0.6-1.2,1.4c0,0.7,0.2,1.2,0.8,1.2s1.4-0.4,1.4-1.3V206.2z"/>
		<path class="st2" d="M273.7,201.9h2.1v1h0c0.5-0.8,1.3-1.2,2.2-1.2c1.4,0,2.2,0.8,2.2,2.4v6.4h-2.2v-5.9c0-0.9-0.3-1.2-0.9-1.2
			c-0.8,0-1.2,0.5-1.2,1.4v5.7h-2.2V201.9z"/>
		<path class="st2" d="M292.8,199.1v8.2c0,2.4-1.1,3.4-3.4,3.4c-2.4,0-3-1.6-3-3.3v-0.5h2.1v0.4c0,1.2,0.2,1.8,1,1.8
			c0.8,0,1-0.6,1-1.8v-8.2H292.8z"/>
		<path class="st2" d="M298,201.7c2.7,0,3.4,1.5,3.4,4.5c0,2.9-0.9,4.5-3.4,4.5c-2.7,0-3.4-1.5-3.4-4.5
			C294.6,203.3,295.5,201.7,298,201.7z M298,209.3c0.9,0,1.2-0.9,1.2-3s-0.3-3-1.2-3c-1.1,0-1.2,1.3-1.2,3S296.9,209.3,298,209.3z"
			/>
		<path class="st2" d="M304.8,207.7v0.3c0,0.8,0.4,1.2,1.2,1.2c0.7,0,1.1-0.3,1.1-1c0-0.6-0.4-0.8-0.8-1l-1.6-0.6
			c-1.2-0.4-1.8-1.2-1.8-2.4c0-1.4,0.9-2.6,3.2-2.6c2,0,2.9,0.9,2.9,2.4v0.4h-2c0-0.9-0.3-1.3-1-1.3c-0.6,0-1,0.3-1,0.9
			c0,0.4,0.2,0.8,1,1l1.3,0.4c1.4,0.5,1.9,1.2,1.9,2.5c0,1.8-1.3,2.7-3.2,2.7c-2.5,0-3.2-1.1-3.2-2.7v-0.3H304.8z"/>
		<path class="st2" d="M312.9,206.6v0.7c0,1,0.3,2,1.1,2c0.7,0,1-0.6,1.2-1.6h2c-0.1,2-1,3.1-3.1,3.1c-3.2,0-3.3-2.5-3.3-4.6
			c0-2.3,0.4-4.4,3.4-4.4c2.6,0,3.2,1.7,3.2,4.4v0.5H312.9z M315.1,205.3c0-1.3-0.2-2-1.1-2c-0.9,0-1.1,0.9-1.1,1.7v0.3H315.1z
			 M313.8,198.6h2.2l-1.6,2.3h-1.5L313.8,198.6z"/>
	</g>
</g>
<g>
	<g>
		<path class="st2" d="M518.8,269h3.9c1.9,0,3.2,0.7,3.2,2.9c0,1.2-0.6,2.2-1.7,2.5v0c1.3,0.2,2.1,1.1,2.1,2.7
			c0,1.8-0.9,3.3-3.6,3.3h-3.9V269z M521.1,273.7h0.7c1.3,0,1.8-0.4,1.8-1.5c0-1.1-0.5-1.5-1.7-1.5h-0.8V273.7z M521.1,278.7h0.9
			c1.1,0,1.9-0.4,1.9-1.7c0-1.3-0.8-1.7-1.8-1.7h-1V278.7z"/>
		<path class="st2" d="M531.4,271.6c2.7,0,3.4,1.5,3.4,4.5c0,2.9-0.9,4.5-3.4,4.5c-2.7,0-3.4-1.5-3.4-4.5
			C528,273.2,528.8,271.6,531.4,271.6z M531.4,279.2c0.9,0,1.2-0.9,1.2-3s-0.3-3-1.2-3c-1.1,0-1.2,1.3-1.2,3
			S530.3,279.2,531.4,279.2z"/>
		<path class="st2" d="M540.7,274.9c0-0.8-0.2-1.7-1-1.7c-1.1,0-1.3,1-1.3,2.9c0,2.1,0.2,3,1.2,3c0.7,0,1.1-0.6,1.1-2h2.1
			c0,2.3-0.9,3.5-3.3,3.5c-2.2,0-3.3-1.1-3.3-4.5c0-3.5,1.5-4.5,3.5-4.5c2,0,3.1,1.3,3.1,3.3H540.7z"/>
		<path class="st2" d="M544.6,274.5v-0.2c0-2,1.4-2.7,3-2.7c2.6,0,3.1,1.1,3.1,2.6v4.5c0,0.8,0,1.2,0.3,1.7h-2.1
			c-0.1-0.3-0.2-0.6-0.3-0.9h0c-0.5,0.9-1.1,1.1-2.2,1.1c-1.5,0-2.1-1.3-2.1-2.5c0-1.6,0.7-2.3,2.2-2.7l1.2-0.3
			c0.7-0.2,0.9-0.4,0.9-1c0-0.7-0.3-1.1-1-1.1c-0.7,0-1,0.4-1,1.1v0.2H544.6z M548.7,276.1c-0.3,0.2-0.7,0.4-0.9,0.4
			c-0.9,0.2-1.2,0.6-1.2,1.4c0,0.7,0.2,1.2,0.8,1.2c0.6,0,1.4-0.4,1.4-1.3V276.1z"/>
		<path class="st2" d="M554.6,277.6v0.3c0,0.8,0.4,1.2,1.2,1.2c0.7,0,1.1-0.3,1.1-1c0-0.6-0.4-0.8-0.8-1l-1.6-0.6
			c-1.2-0.4-1.8-1.2-1.8-2.4c0-1.4,0.9-2.6,3.2-2.6c2,0,2.9,0.9,2.9,2.4v0.4h-2c0-0.9-0.3-1.3-1-1.3c-0.6,0-1,0.3-1,0.9
			c0,0.4,0.2,0.8,1,1l1.3,0.4c1.4,0.5,1.9,1.2,1.9,2.5c0,1.8-1.3,2.7-3.2,2.7c-2.5,0-3.2-1.1-3.2-2.7v-0.3H554.6z"/>
		<path class="st2" d="M569.6,279.5L569.6,279.5c-0.5,0.8-1.1,1.1-2,1.1c-1.8,0-2.6-1.3-2.6-4.5s0.8-4.5,2.6-4.5
			c0.8,0,1.4,0.3,1.9,1h0V269h2.2v11.4h-2.1V279.5z M568.4,279c1,0,1.2-1,1.2-2.8s-0.2-2.8-1.2-2.8c-1,0-1.2,1-1.2,2.8
			S567.4,279,568.4,279z"/>
		<path class="st2" d="M575.7,276.5v0.7c0,1,0.3,2,1.1,2c0.7,0,1-0.6,1.2-1.6h2c-0.1,2-1,3.1-3.1,3.1c-3.2,0-3.3-2.5-3.3-4.6
			c0-2.3,0.4-4.5,3.4-4.5c2.6,0,3.2,1.7,3.2,4.4v0.5H575.7z M578,275.2c0-1.3-0.2-2-1.1-2c-0.9,0-1.1,0.9-1.1,1.7v0.3H578z"/>
		<path class="st2" d="M582,269h2.2v11.4H582V269z"/>
		<path class="st2" d="M597.6,269v1.9h-2.5v9.5h-2.3v-9.5h-2.5V269H597.6z"/>
		<path class="st2" d="M602.3,271.6c2.7,0,3.4,1.5,3.4,4.5c0,2.9-0.9,4.5-3.4,4.5c-2.7,0-3.4-1.5-3.4-4.5
			C598.9,273.2,599.7,271.6,602.3,271.6z M602.3,279.2c0.9,0,1.2-0.9,1.2-3s-0.3-3-1.2-3c-1.1,0-1.2,1.3-1.2,3
			S601.2,279.2,602.3,279.2z"/>
		<path class="st2" d="M607.5,271.8h2.1v1.2h0c0.4-0.8,1.1-1.4,2-1.4c0.1,0,0.3,0,0.4,0v2.1c-0.2,0-0.5,0-0.7,0
			c-0.8,0-1.6,0.4-1.6,1.6v5.2h-2.2V271.8z"/>
		<path class="st2" d="M616.6,271.6c2.7,0,3.4,1.5,3.4,4.5c0,2.9-0.9,4.5-3.4,4.5c-2.7,0-3.4-1.5-3.4-4.5
			C613.2,273.2,614,271.6,616.6,271.6z M616.6,279.2c0.9,0,1.2-0.9,1.2-3s-0.3-3-1.2-3c-1.1,0-1.2,1.3-1.2,3
			S615.5,279.2,616.6,279.2z"/>
	</g>
</g>
<g>
	<g>
		<path class="st2" d="M480.9,426.2h3.8c3.2,0,3.8,2.2,3.8,5.6c0,4-0.9,5.9-3.9,5.9h-3.6V426.2z M483.2,436h1c1.6,0,1.9-1,1.9-4.1
			c0-2.6-0.2-3.9-2-3.9h-1V436z"/>
		<path class="st2" d="M490.5,431.7v-0.2c0-2,1.4-2.7,3-2.7c2.6,0,3.1,1.1,3.1,2.6v4.5c0,0.8,0,1.2,0.3,1.7h-2.1
			c-0.1-0.3-0.2-0.6-0.3-0.9h0c-0.5,0.9-1.1,1.1-2.2,1.1c-1.5,0-2.1-1.3-2.1-2.5c0-1.6,0.7-2.3,2.2-2.7l1.2-0.3
			c0.7-0.2,0.9-0.4,0.9-1c0-0.7-0.3-1.1-1-1.1c-0.7,0-1,0.4-1,1.1v0.2H490.5z M494.6,433.3c-0.3,0.2-0.7,0.4-0.9,0.4
			c-0.9,0.2-1.2,0.6-1.2,1.4c0,0.7,0.2,1.2,0.8,1.2c0.6,0,1.4-0.4,1.4-1.3V433.3z"/>
		<path class="st2" d="M503,429h2.2l-2.2,8.6h-2.6l-2.2-8.6h2.3l1.2,6.2h0L503,429z"/>
		<path class="st2" d="M506.7,426.1h2.2v1.9h-2.2V426.1z M506.7,429h2.2v8.6h-2.2V429z"/>
		<path class="st2" d="M515.5,436.7L515.5,436.7c-0.5,0.8-1.1,1.1-2,1.1c-1.8,0-2.6-1.3-2.6-4.5s0.8-4.5,2.6-4.5
			c0.8,0,1.4,0.3,1.9,1h0v-3.6h2.2v11.4h-2.1V436.7z M514.3,436.2c1,0,1.2-1,1.2-2.8s-0.2-2.8-1.2-2.8c-1,0-1.2,1-1.2,2.8
			S513.3,436.2,514.3,436.2z"/>
	</g>
</g>
<g>
	<g>
		<path class="st2" d="M178.5,163.6h2.8l3,11.4h-2.4l-0.5-2.4h-3l-0.5,2.4h-2.4L178.5,163.6z M178.8,170.7h2.2l-1.1-5.1h0
			L178.8,170.7z"/>
		<path class="st2" d="M185.8,163.6h2.2V175h-2.2V163.6z"/>
		<path class="st2" d="M190.2,169v-0.2c0-2,1.4-2.7,3-2.7c2.6,0,3.1,1.1,3.1,2.6v4.5c0,0.8,0,1.2,0.3,1.7h-2.1
			c-0.1-0.3-0.2-0.6-0.3-0.9h0c-0.5,0.9-1.1,1.1-2.2,1.1c-1.5,0-2.1-1.3-2.1-2.5c0-1.6,0.7-2.3,2.2-2.7l1.2-0.3
			c0.7-0.2,0.9-0.4,0.9-1c0-0.7-0.3-1.1-1-1.1c-0.7,0-1,0.4-1,1.1v0.2H190.2z M194.2,170.7c-0.3,0.2-0.7,0.4-0.9,0.4
			c-0.9,0.2-1.2,0.6-1.2,1.4c0,0.7,0.2,1.2,0.8,1.2s1.4-0.4,1.4-1.3V170.7z"/>
		<path class="st2" d="M198.6,166.4h2.2v9.2c0,1.4-0.5,2.2-2.5,2.2c-0.3,0-0.6,0-0.9,0v-1.6c0.1,0,0.2,0,0.4,0
			c0.8,0,0.9-0.4,0.9-1.4V166.4z M198.6,163.4h2.2v1.9h-2.2V163.4z"/>
		<path class="st2" d="M207.4,174L207.4,174c-0.5,0.8-1.3,1.2-2.2,1.2c-1.4,0-2.2-0.8-2.2-2.4v-6.4h2.2v5.9c0,0.9,0.3,1.2,0.9,1.2
			c0.8,0,1.2-0.5,1.2-1.4v-5.7h2.2v8.6h-2.1V174z"/>
		<path class="st2" d="M213.5,171v0.7c0,1,0.3,2,1.1,2c0.7,0,1-0.6,1.2-1.6h2c-0.1,2-1,3.1-3.1,3.1c-3.2,0-3.3-2.5-3.3-4.6
			c0-2.3,0.4-4.4,3.4-4.4c2.6,0,3.2,1.7,3.2,4.4v0.5H213.5z M215.8,169.7c0-1.3-0.2-2-1.1-2c-0.9,0-1.1,0.9-1.1,1.7v0.3H215.8z"/>
		<path class="st2" d="M219.8,163.6h2.2V175h-2.2V163.6z"/>
		<path class="st2" d="M224.1,169v-0.2c0-2,1.4-2.7,3-2.7c2.6,0,3.1,1.1,3.1,2.6v4.5c0,0.8,0,1.2,0.3,1.7h-2.1
			c-0.1-0.3-0.2-0.6-0.3-0.9h0c-0.5,0.9-1.1,1.1-2.2,1.1c-1.5,0-2.1-1.3-2.1-2.5c0-1.6,0.7-2.3,2.2-2.7l1.2-0.3
			c0.7-0.2,0.9-0.4,0.9-1c0-0.7-0.3-1.1-1-1.1c-0.7,0-1,0.4-1,1.1v0.2H224.1z M228.2,170.7c-0.3,0.2-0.7,0.4-0.9,0.4
			c-0.9,0.2-1.2,0.6-1.2,1.4c0,0.7,0.2,1.2,0.8,1.2s1.4-0.4,1.4-1.3V170.7z"/>
	</g>
</g>
<path class="st3" d="M152.9,103.3c0,0,2.5,2.5,5.9,3.9c3.4,1.5,8.6,0.8,11.5,1c3,0.2,4.4,3.1,10.5,3.6c6.1,0.5,11.5-0.3,10-2
	c-1.5-1.7-10.3-2.7-13.5-4.1c-3.1-1.5-5.9-2.5-11.5-3c-5.6-0.5-13.7-5.4-16.1-4.4C147.3,99.4,152.9,103.3,152.9,103.3L152.9,103.3z"
	/>
<path class="st4" d="M317.7,54.5c0,0-0.3,8.2-2,9.5c-1.7,1.3-3.4,1.8-9.5,3.4c-6.1,1.7-17.7,5.7-21.4,7.1c-3.7,1.3-6.1,2.8-11.2,5.1
	c-5,2.4-1.7,6.1-3,6.7c-1.3,0.7-6.8,1.8-8.5,3.4c-1.7,1.7-3.7,6.7-4.7,8.8c-1,2-5.1,2.8-5.8,4.1c-0.7,1.3-3.4,7-3.4,9.4
	c0,2.4-1.3,12.6-1.3,17.3c0,4.7-0.7,9.2-0.7,9.2"/>
<path class="st4" d="M254.9,69.9l-1.1,9.8c0,0-3.5,1.7-6.4,2.3c-2.9,0.6-3.5,0-6.9,0c-3.4,0-8.6,2.3-8.6,5.7c0,4.1,0.1,6.9-2.3,5.2
	c-2.4-1.7-4.1,0.6-4.1,2.9c0,2.3,1.1,2.8-0.6,4c-1.7,1.2-1.7,4.1-5.7,6.4c-4.1,2.3-9.7,6.6-16.7,6.9c-5.5,0.3-13.8-2.9-13.8-2.9
	 M262.7,89.3c0,0-2.2,8.3-0.4,11.7c1.8,3.4,0.6,12.7,4.6,14.4c4,1.7,9.2-2.3,11.5-0.6c2.3,1.7,1.7,4,4,7.4c2.3,3.5,9.2,6.9,9.8,10.4
	c0.6,3.5,2.3,8.1,2.3,8.1"/>
<path class="st5" d="M866.7,45.4C504.5,4.5,252.2,188.9,252.2,188.9"/>
<g>
	<g>
		<path class="st2" d="M269.2,84.3h3.9c1.9,0,3.2,0.7,3.2,2.9c0,1.2-0.6,2.2-1.7,2.5v0c1.3,0.2,2.1,1.1,2.1,2.7
			c0,1.8-0.9,3.3-3.6,3.3h-3.9V84.3z M271.5,88.9h0.7c1.3,0,1.8-0.4,1.8-1.5c0-1.1-0.5-1.5-1.7-1.5h-0.8V88.9z M271.5,94h0.9
			c1.1,0,1.9-0.4,1.9-1.7s-0.8-1.7-1.8-1.7h-1V94z"/>
		<path class="st2" d="M281.8,86.8c2.7,0,3.4,1.5,3.4,4.5c0,2.9-0.9,4.5-3.4,4.5c-2.7,0-3.4-1.5-3.4-4.5
			C278.4,88.4,279.3,86.8,281.8,86.8z M281.8,94.4c0.9,0,1.2-0.9,1.2-3s-0.3-3-1.2-3c-1.1,0-1.2,1.3-1.2,3S280.7,94.4,281.8,94.4z"
			/>
		<path class="st2" d="M291.1,90.2c0-0.8-0.2-1.7-1-1.7c-1.1,0-1.3,1-1.3,2.9c0,2.1,0.2,3,1.2,3c0.7,0,1.1-0.6,1.1-2h2.1
			c0,2.3-0.9,3.5-3.3,3.5c-2.2,0-3.3-1.1-3.3-4.5c0-3.5,1.5-4.5,3.5-4.5c2,0,3.1,1.3,3.1,3.3H291.1z"/>
		<path class="st2" d="M295,89.7v-0.2c0-2,1.4-2.7,3-2.7c2.6,0,3.1,1.1,3.1,2.6V94c0,0.8,0,1.2,0.3,1.7h-2.1
			c-0.1-0.3-0.2-0.6-0.3-0.9h0c-0.5,0.9-1.1,1.1-2.2,1.1c-1.5,0-2.1-1.3-2.1-2.5c0-1.6,0.7-2.3,2.2-2.7l1.2-0.3
			c0.7-0.2,0.9-0.4,0.9-1c0-0.7-0.3-1.1-1-1.1c-0.7,0-1,0.4-1,1.1v0.2H295z M299.1,91.4c-0.3,0.2-0.7,0.4-0.9,0.4
			c-0.9,0.2-1.2,0.6-1.2,1.4c0,0.7,0.2,1.2,0.8,1.2s1.4-0.4,1.4-1.3V91.4z"/>
		<path class="st2" d="M275.9,100.3v1.9h-2.5v9.5h-2.3v-9.5h-2.5v-1.9H275.9z"/>
		<path class="st2" d="M277.4,105.7v-0.2c0-2,1.4-2.7,3-2.7c2.6,0,3.1,1.1,3.1,2.6v4.5c0,0.8,0,1.2,0.3,1.7h-2.1
			c-0.1-0.3-0.2-0.6-0.3-0.9h0c-0.5,0.9-1.1,1.1-2.2,1.1c-1.5,0-2.1-1.3-2.1-2.5c0-1.6,0.7-2.3,2.2-2.7l1.2-0.3
			c0.7-0.2,0.9-0.4,0.9-1c0-0.7-0.3-1.1-1-1.1c-0.7,0-1,0.4-1,1.1v0.2H277.4z M281.5,107.4c-0.3,0.2-0.7,0.4-0.9,0.4
			c-0.9,0.2-1.2,0.6-1.2,1.4c0,0.7,0.2,1.2,0.8,1.2s1.4-0.4,1.4-1.3V107.4z"/>
		<path class="st2" d="M285.8,103.1h2.1v0.9h0c0.5-0.8,1.1-1.1,2-1.1c1.8,0,2.6,1.3,2.6,4.5s-0.8,4.5-2.6,4.5c-0.8,0-1.4-0.3-1.9-1
			h0v3.6h-2.2V103.1z M289.2,110.2c1,0,1.2-1,1.2-2.8c0-1.9-0.2-2.8-1.2-2.8c-1,0-1.2,1-1.2,2.8C288,109.3,288.2,110.2,289.2,110.2z
			"/>
		<path class="st2" d="M294.4,105.7v-0.2c0-2,1.4-2.7,3-2.7c2.6,0,3.1,1.1,3.1,2.6v4.5c0,0.8,0,1.2,0.3,1.7h-2.1
			c-0.1-0.3-0.2-0.6-0.3-0.9h0c-0.5,0.9-1.1,1.1-2.2,1.1c-1.5,0-2.1-1.3-2.1-2.5c0-1.6,0.7-2.3,2.2-2.7l1.2-0.3
			c0.7-0.2,0.9-0.4,0.9-1c0-0.7-0.3-1.1-1-1.1c-0.7,0-1,0.4-1,1.1v0.2H294.4z M298.5,107.4c-0.3,0.2-0.7,0.4-0.9,0.4
			c-0.9,0.2-1.2,0.6-1.2,1.4c0,0.7,0.2,1.2,0.8,1.2s1.4-0.4,1.4-1.3V107.4z"/>
		<path class="st2" d="M307.2,110.8L307.2,110.8c-0.5,0.8-1.1,1.1-2,1.1c-1.8,0-2.6-1.3-2.6-4.5s0.8-4.5,2.6-4.5
			c0.8,0,1.4,0.3,1.9,1h0v-3.6h2.2v11.4h-2.1V110.8z M305.9,110.2c1,0,1.2-1,1.2-2.8c0-1.9-0.2-2.8-1.2-2.8c-1,0-1.2,1-1.2,2.8
			C304.8,109.3,305,110.2,305.9,110.2z"/>
		<path class="st2" d="M311.4,105.7v-0.2c0-2,1.4-2.7,3-2.7c2.6,0,3.1,1.1,3.1,2.6v4.5c0,0.8,0,1.2,0.3,1.7h-2.1
			c-0.1-0.3-0.2-0.6-0.3-0.9h0c-0.5,0.9-1.1,1.1-2.2,1.1c-1.5,0-2.1-1.3-2.1-2.5c0-1.6,0.7-2.3,2.2-2.7l1.2-0.3
			c0.7-0.2,0.9-0.4,0.9-1c0-0.7-0.3-1.1-1-1.1c-0.7,0-1,0.4-1,1.1v0.2H311.4z M315.4,107.4c-0.3,0.2-0.7,0.4-0.9,0.4
			c-0.9,0.2-1.2,0.6-1.2,1.4c0,0.7,0.2,1.2,0.8,1.2s1.4-0.4,1.4-1.3V107.4z"/>
	</g>
</g>
<path class="st6" d="M252.2,188.9l3.4-103 M157.6,140.8l38.4-29.2L255.6,86 M157.6,140.8l-6.3,34.6l93.3,80.3l30.8,16.4"/>
<g>
	<g>
		<path class="st2" d="M347.1,324.9v0.3c0,1.1,0.3,1.8,1.5,1.8c0.7,0,1.4-0.4,1.4-1.4c0-1-0.5-1.4-2-2c-2-0.7-3-1.6-3-3.5
			c0-2.2,1.4-3.4,3.5-3.4c2,0,3.5,0.9,3.5,3.1v0.3h-2.2c0-1.1-0.4-1.7-1.2-1.7c-1,0-1.3,0.7-1.3,1.3c0,0.7,0.2,1.1,1.2,1.6l1.8,0.8
			c1.7,0.8,2.2,1.6,2.2,3c0,2.4-1.5,3.5-4,3.5c-2.6,0-3.6-1.2-3.6-3.3v-0.5H347.1z"/>
		<path class="st2" d="M354.2,316.9h2.2v1.9h-2.2V316.9z M354.2,319.9h2.2v8.6h-2.2V319.9z"/>
		<path class="st2" d="M360.5,324.5v0.7c0,1,0.3,2,1.1,2c0.7,0,1-0.6,1.2-1.6h2c-0.1,2-1,3.1-3.1,3.1c-3.2,0-3.3-2.5-3.3-4.6
			c0-2.3,0.4-4.5,3.4-4.5c2.6,0,3.2,1.7,3.2,4.4v0.5H360.5z M362.7,323.2c0-1.3-0.2-2-1.1-2c-0.9,0-1.1,0.9-1.1,1.7v0.3H362.7z"/>
		<path class="st2" d="M366.6,319.9h2.1v1.2h0c0.4-0.8,1.1-1.4,2-1.4c0.1,0,0.3,0,0.4,0v2.1c-0.2,0-0.5,0-0.7,0
			c-0.8,0-1.6,0.4-1.6,1.6v5.2h-2.2V319.9z"/>
		<path class="st2" d="M372.6,319.9h2.1v0.9h0c0.5-0.8,1.1-1.1,2-1.1c1.8,0,2.6,1.3,2.6,4.5s-0.8,4.5-2.6,4.5c-0.8,0-1.4-0.3-1.9-1
			h0v3.6h-2.2V319.9z M376,327c1,0,1.2-1,1.2-2.8s-0.2-2.8-1.2-2.8c-1,0-1.2,1-1.2,2.8S375,327,376,327z"/>
		<path class="st2" d="M383.1,324.5v0.7c0,1,0.3,2,1.1,2c0.7,0,1-0.6,1.2-1.6h2c-0.1,2-1,3.1-3.1,3.1c-3.2,0-3.3-2.5-3.3-4.6
			c0-2.3,0.4-4.5,3.4-4.5c2.6,0,3.2,1.7,3.2,4.4v0.5H383.1z M385.4,323.2c0-1.3-0.2-2-1.1-2c-0.9,0-1.1,0.9-1.1,1.7v0.3H385.4z"/>
	</g>
</g>
<g>
	<g>
		<path class="st7" d="M321.9,372.5c0-1.2-0.3-1.8-1-1.8c-0.9,0-1.1,0.9-1.1,3.3c0,2.6,0.4,3.1,1.1,3.1c0.6,0,1.1-0.3,1.1-2.2h1.7
			c0,1.8-0.5,3.4-2.7,3.4c-2.6,0-2.9-1.8-2.9-4.4s0.3-4.5,2.9-4.5c2.5,0,2.7,1.8,2.7,3.1H321.9z"/>
		<path class="st7" d="M327.5,371.5c2,0,2.5,1.2,2.5,3.4c0,2.2-0.6,3.4-2.5,3.4c-2,0-2.5-1.2-2.5-3.4
			C324.9,372.7,325.6,371.5,327.5,371.5z M327.5,377.2c0.7,0,0.9-0.7,0.9-2.3c0-1.6-0.2-2.3-0.9-2.3c-0.8,0-0.9,0.9-0.9,2.3
			S326.7,377.2,327.5,377.2z"/>
		<path class="st7" d="M331.4,371.7h1.6v0.9h0c0.3-0.6,0.8-1,1.5-1c0.1,0,0.2,0,0.3,0v1.6c-0.2,0-0.3,0-0.5,0
			c-0.6,0-1.2,0.3-1.2,1.2v3.9h-1.7V371.7z"/>
		<path class="st7" d="M339,374c0-0.6-0.1-1.3-0.7-1.3c-0.8,0-0.9,0.7-0.9,2.2c0,1.6,0.1,2.3,0.9,2.3c0.6,0,0.8-0.5,0.8-1.5h1.6
			c0,1.7-0.7,2.6-2.5,2.6c-1.7,0-2.5-0.8-2.5-3.4c0-2.7,1.1-3.4,2.6-3.4c1.5,0,2.3,1,2.3,2.5H339z"/>
		<path class="st7" d="M344.2,371.5c2,0,2.5,1.2,2.5,3.4c0,2.2-0.6,3.4-2.5,3.4c-2,0-2.5-1.2-2.5-3.4
			C341.7,372.7,342.3,371.5,344.2,371.5z M344.2,377.2c0.7,0,0.9-0.7,0.9-2.3c0-1.6-0.2-2.3-0.9-2.3c-0.8,0-0.9,0.9-0.9,2.3
			S343.4,377.2,344.2,377.2z"/>
		<path class="st7" d="M351.2,371.7h1.7l-1.6,6.5h-1.9l-1.7-6.5h1.7l0.9,4.6h0L351.2,371.7z"/>
		<path class="st7" d="M353.9,373.7v-0.2c0-1.5,1-2,2.3-2c2,0,2.3,0.8,2.3,2v3.4c0,0.6,0,0.9,0.2,1.2h-1.6c-0.1-0.2-0.2-0.5-0.2-0.7
			h0c-0.4,0.7-0.9,0.8-1.6,0.8c-1.2,0-1.6-1-1.6-1.8c0-1.2,0.5-1.7,1.6-2l0.9-0.3c0.5-0.1,0.7-0.3,0.7-0.8c0-0.5-0.2-0.8-0.8-0.8
			c-0.5,0-0.8,0.3-0.8,0.8v0.2H353.9z M357,374.9c-0.2,0.2-0.5,0.3-0.7,0.3c-0.7,0.1-0.9,0.5-0.9,1c0,0.5,0.2,0.9,0.6,0.9
			c0.4,0,1-0.3,1-1V374.9z"/>
		<path class="st7" d="M363.5,377.5L363.5,377.5c-0.4,0.6-0.8,0.9-1.5,0.9c-1.4,0-2-1-2-3.4c0-2.4,0.6-3.4,2-3.4
			c0.6,0,1,0.3,1.4,0.8h0v-2.7h1.7v8.6h-1.6V377.5z M362.6,377.1c0.7,0,0.9-0.7,0.9-2.1s-0.1-2.1-0.9-2.1c-0.7,0-0.9,0.7-0.9,2.1
			S361.8,377.1,362.6,377.1z"/>
		<path class="st7" d="M369,371.5c2,0,2.5,1.2,2.5,3.4c0,2.2-0.6,3.4-2.5,3.4c-2,0-2.5-1.2-2.5-3.4
			C366.5,372.7,367.1,371.5,369,371.5z M369,377.2c0.7,0,0.9-0.7,0.9-2.3c0-1.6-0.2-2.3-0.9-2.3c-0.8,0-0.9,0.9-0.9,2.3
			S368.2,377.2,369,377.2z"/>
		<path class="st7" d="M314.1,381.6l2.1,5.9h0v-5.9h1.6v8.6h-2l-2.1-6h0v6h-1.6v-8.6H314.1z"/>
		<path class="st7" d="M319.4,385.7v-0.2c0-1.5,1-2,2.3-2c2,0,2.3,0.8,2.3,2v3.4c0,0.6,0,0.9,0.2,1.2h-1.6c-0.1-0.2-0.2-0.5-0.2-0.7
			h0c-0.4,0.7-0.9,0.8-1.6,0.8c-1.2,0-1.6-1-1.6-1.8c0-1.2,0.5-1.7,1.6-2l0.9-0.3c0.5-0.1,0.7-0.3,0.7-0.8c0-0.5-0.2-0.8-0.8-0.8
			c-0.5,0-0.8,0.3-0.8,0.8v0.2H319.4z M322.4,386.9c-0.2,0.2-0.5,0.3-0.7,0.3c-0.7,0.1-0.9,0.5-0.9,1c0,0.5,0.2,0.9,0.6,0.9
			s1-0.3,1-1V386.9z"/>
		<path class="st7" d="M326,381.9h1.7v1.8h1v1.1h-1v3.5c0,0.5,0.1,0.7,0.6,0.7c0.1,0,0.3,0,0.4,0v1.2c-0.4,0-0.7,0.1-1.1,0.1
			c-1.3,0-1.5-0.4-1.5-1.7v-3.7h-0.8v-1.1h0.8V381.9z"/>
		<path class="st7" d="M329.8,381.5h1.7v1.4h-1.7V381.5z M329.8,383.7h1.7v6.5h-1.7V383.7z"/>
		<path class="st7" d="M335.4,383.5c2,0,2.5,1.2,2.5,3.4c0,2.2-0.6,3.4-2.5,3.4c-2,0-2.5-1.2-2.5-3.4
			C332.9,384.7,333.5,383.5,335.4,383.5z M335.4,389.2c0.7,0,0.9-0.7,0.9-2.3c0-1.6-0.2-2.3-0.9-2.3c-0.8,0-0.9,0.9-0.9,2.3
			S334.6,389.2,335.4,389.2z"/>
		<path class="st7" d="M339.3,383.7h1.6v0.8h0c0.3-0.6,0.9-0.9,1.6-0.9c1,0,1.6,0.6,1.6,1.8v4.8h-1.7v-4.4c0-0.6-0.2-0.9-0.7-0.9
			c-0.6,0-0.9,0.3-0.9,1.1v4.3h-1.7V383.7z"/>
		<path class="st7" d="M345.8,385.7v-0.2c0-1.5,1-2,2.3-2c2,0,2.3,0.8,2.3,2v3.4c0,0.6,0,0.9,0.2,1.2H349c-0.1-0.2-0.2-0.5-0.2-0.7
			h0c-0.4,0.7-0.9,0.8-1.6,0.8c-1.2,0-1.6-1-1.6-1.8c0-1.2,0.5-1.7,1.6-2l0.9-0.3c0.5-0.1,0.7-0.3,0.7-0.8c0-0.5-0.2-0.8-0.8-0.8
			c-0.5,0-0.8,0.3-0.8,0.8v0.2H345.8z M348.8,386.9c-0.2,0.2-0.5,0.3-0.7,0.3c-0.7,0.1-0.9,0.5-0.9,1c0,0.5,0.2,0.9,0.6,0.9
			c0.4,0,1-0.3,1-1V386.9z"/>
		<path class="st7" d="M352.1,381.6h1.7v8.6h-1.7V381.6z"/>
		<path class="st7" d="M355.4,383.7h1.6v0.7h0c0.4-0.6,0.8-0.9,1.5-0.9c1.4,0,2,1,2,3.4c0,2.4-0.6,3.4-2,3.4c-0.6,0-1-0.3-1.4-0.8h0
			v2.7h-1.7V383.7z M357.9,389.1c0.7,0,0.9-0.7,0.9-2.1s-0.1-2.1-0.9-2.1c-0.7,0-0.9,0.7-0.9,2.1S357.2,389.1,357.9,389.1z"/>
		<path class="st7" d="M361.9,385.7v-0.2c0-1.5,1-2,2.3-2c2,0,2.3,0.8,2.3,2v3.4c0,0.6,0,0.9,0.2,1.2h-1.6c-0.1-0.2-0.2-0.5-0.2-0.7
			h0c-0.4,0.7-0.9,0.8-1.6,0.8c-1.2,0-1.6-1-1.6-1.8c0-1.2,0.5-1.7,1.6-2l0.9-0.3c0.5-0.1,0.7-0.3,0.7-0.8c0-0.5-0.2-0.8-0.8-0.8
			c-0.5,0-0.8,0.3-0.8,0.8v0.2H361.9z M364.9,386.9c-0.2,0.2-0.5,0.3-0.7,0.3c-0.7,0.1-0.9,0.5-0.9,1c0,0.5,0.2,0.9,0.6,0.9
			c0.4,0,1-0.3,1-1V386.9z"/>
		<path class="st7" d="M368.1,383.7h1.6v0.9h0c0.3-0.6,0.8-1,1.5-1c0.1,0,0.2,0,0.3,0v1.6c-0.2,0-0.3,0-0.5,0
			c-0.6,0-1.2,0.3-1.2,1.2v3.9h-1.7V383.7z"/>
		<path class="st7" d="M374.3,381.6v4.5h0l1.7-2.4h1.8l-1.9,2.5l2.1,3.9h-1.8l-1.4-2.7l-0.6,0.8v1.9h-1.7v-8.6H374.3z"/>
	</g>
</g>
<line class="st6" x1="275.4" y1="272.2" x2="337.4" y2="331.9"/>
<path class="st5" d="M337.4,331.9c0,0-27.6,1.1-25.3,32.6"/>
<polyline class="st6" points="337.4,331.9 425.2,389.4 484.9,414.6 472.5,254.1 "/>
<g>
	<g>
		<path class="st2" d="M387.8,265.8c0-1.7-0.3-2.4-1.4-2.4c-1.2,0-1.4,1.2-1.4,4.4c0,3.5,0.5,4.1,1.5,4.1c0.8,0,1.4-0.4,1.4-2.9h2.3
			c0,2.5-0.6,4.6-3.6,4.6c-3.5,0-3.9-2.5-3.9-5.9c0-3.5,0.4-5.9,3.9-5.9c3.3,0,3.5,2.4,3.5,4.1H387.8z"/>
		<path class="st2" d="M392,261.9h2.2v3.7h0c0.4-0.7,1.2-1.1,2.1-1.1c1.4,0,2.2,0.8,2.2,2.4v6.4h-2.2v-5.9c0-0.9-0.3-1.2-0.9-1.2
			c-0.8,0-1.2,0.5-1.2,1.4v5.7H392V261.9z"/>
		<path class="st2" d="M400.7,267.4v-0.2c0-2,1.4-2.7,3-2.7c2.6,0,3.1,1.1,3.1,2.6v4.5c0,0.8,0,1.2,0.3,1.7H405
			c-0.1-0.3-0.2-0.6-0.3-0.9h0c-0.5,0.9-1.1,1.1-2.2,1.1c-1.5,0-2.1-1.3-2.1-2.5c0-1.6,0.7-2.3,2.2-2.7l1.2-0.3
			c0.7-0.2,0.9-0.4,0.9-1c0-0.7-0.3-1.1-1-1.1c-0.7,0-1,0.4-1,1.1v0.2H400.7z M404.7,269.1c-0.3,0.2-0.7,0.4-0.9,0.4
			c-0.9,0.2-1.2,0.6-1.2,1.4c0,0.7,0.2,1.2,0.8,1.2c0.6,0,1.4-0.4,1.4-1.3V269.1z"/>
		<path class="st2" d="M409,264.8h2.1v1h0c0.5-0.8,1.3-1.2,2.2-1.2c1.4,0,2.2,0.8,2.2,2.4v6.4h-2.2v-5.9c0-0.9-0.3-1.2-0.9-1.2
			c-0.8,0-1.2,0.5-1.2,1.4v5.7H409V264.8z"/>
		<path class="st2" d="M424.1,264.8v8.2c0,2.3-1,3.4-3.6,3.4c-1.9,0-2.9-0.8-2.9-2.3h2.1c0,0.3,0.1,0.5,0.3,0.7
			c0.2,0.1,0.5,0.2,0.7,0.2c0.9,0,1.2-0.7,1.2-1.6v-1.1h0c-0.4,0.6-1.1,1.1-1.8,1.1c-1.8,0-2.6-1.2-2.6-4.4c0-2,0.3-4.4,2.7-4.4
			c0.6,0,1.4,0.3,1.8,1.2h0v-1H424.1z M420.8,271.6c0.9,0,1.2-1,1.2-2.5c0-2.1-0.3-2.9-1.2-2.9c-1,0-1.2,0.8-1.2,3.1
			C419.7,270.5,419.9,271.6,420.8,271.6z"/>
		<path class="st2" d="M430.7,272.4L430.7,272.4c-0.5,0.8-1.3,1.2-2.2,1.2c-1.4,0-2.2-0.8-2.2-2.4v-6.4h2.2v5.9
			c0,0.9,0.3,1.2,0.9,1.2c0.8,0,1.2-0.5,1.2-1.4v-5.7h2.2v8.6h-2.1V272.4z"/>
		<path class="st2" d="M435,261.8h2.2v1.9H435V261.8z M435,264.8h2.2v8.6H435V264.8z"/>
		<path class="st2" d="M439.4,264.8h2.1v1h0c0.5-0.8,1.3-1.2,2.2-1.2c1.4,0,2.2,0.8,2.2,2.4v6.4h-2.2v-5.9c0-0.9-0.3-1.2-0.9-1.2
			c-0.8,0-1.2,0.5-1.2,1.4v5.7h-2.2V264.8z"/>
		<path class="st2" d="M451.2,264.5c2.7,0,3.4,1.5,3.4,4.5c0,2.9-0.9,4.5-3.4,4.5c-2.7,0-3.4-1.5-3.4-4.5
			C447.8,266.1,448.6,264.5,451.2,264.5z M451.2,272.1c0.9,0,1.2-0.9,1.2-3s-0.3-3-1.2-3c-1.1,0-1.2,1.3-1.2,3
			S450.1,272.1,451.2,272.1z"/>
		<path class="st2" d="M456.5,261.9h2.2v11.4h-2.2V261.9z"/>
		<path class="st2" d="M460.8,267.4v-0.2c0-2,1.4-2.7,3-2.7c2.6,0,3.1,1.1,3.1,2.6v4.5c0,0.8,0,1.2,0.3,1.7h-2.1
			c-0.1-0.3-0.2-0.6-0.3-0.9h0c-0.5,0.9-1.1,1.1-2.2,1.1c-1.5,0-2.1-1.3-2.1-2.5c0-1.6,0.7-2.3,2.2-2.7l1.2-0.3
			c0.7-0.2,0.9-0.4,0.9-1c0-0.7-0.3-1.1-1-1.1c-0.7,0-1,0.4-1,1.1v0.2H460.8z M464.9,269.1c-0.3,0.2-0.7,0.4-0.9,0.4
			c-0.9,0.2-1.2,0.6-1.2,1.4c0,0.7,0.2,1.2,0.8,1.2c0.6,0,1.4-0.4,1.4-1.3V269.1z"/>
	</g>
</g>
<path class="st5" d="M472.5,254.1c0,0,23.4-15.6,36.3,10.6"/>
<polyline class="st6" points="469.4,252.2 425.3,212.6 404.2,182.6 252.2,188.9 232.6,184.2 "/>
<path class="st8" d="M191.7,112c0-2.3,1.9-4.3,4.3-4.3c2.3,0,4.3,1.9,4.3,4.3c0,2.3-1.9,4.3-4.3,4.3S191.7,114.4,191.7,112
	L191.7,112z"/>
<path class="st8" d="M147.4,175c0-2.3,1.9-4.3,4.3-4.3c2.3,0,4.3,1.9,4.3,4.3c0,2.3-1.9,4.3-4.3,4.3
	C149.3,179.2,147.4,177.3,147.4,175L147.4,175z"/>
<path class="st8" d="M153.9,140.4c0-2.3,1.9-4.3,4.3-4.3c2.3,0,4.3,1.9,4.3,4.3c0,2.3-1.9,4.3-4.3,4.3
	C155.8,144.7,153.9,142.8,153.9,140.4L153.9,140.4z"/>
<path class="st8" d="M251.5,86.4c0-2.3,1.9-4.3,4.3-4.3c2.3,0,4.3,1.9,4.3,4.3c0,2.3-1.9,4.3-4.3,4.3
	C253.4,90.6,251.5,88.7,251.5,86.4L251.5,86.4z"/>
<path class="st8" d="M240.4,255.6c0-2.3,1.9-4.3,4.3-4.3c2.3,0,4.3,1.9,4.3,4.3c0,2.3-1.9,4.3-4.3,4.3
	C242.3,259.9,240.4,258,240.4,255.6L240.4,255.6z"/>
<path class="st8" d="M270.7,272.2c0-2.3,1.9-4.3,4.3-4.3s4.3,1.9,4.3,4.3s-1.9,4.3-4.3,4.3C272.6,276.4,270.7,274.5,270.7,272.2
	L270.7,272.2z"/>
<path class="st8" d="M333.2,331.5c0-2.3,1.9-4.3,4.3-4.3c2.3,0,4.3,1.9,4.3,4.3c0,2.3-1.9,4.3-4.3,4.3
	C335.1,335.8,333.2,333.9,333.2,331.5L333.2,331.5z"/>
<path class="st8" d="M307.9,364.7c0-2.3,1.9-4.3,4.3-4.3c2.3,0,4.3,1.9,4.3,4.3c0,2.3-1.9,4.3-4.3,4.3
	C309.8,368.9,307.9,367,307.9,364.7L307.9,364.7z"/>
<path class="st8" d="M421.2,388.8c0-2.3,1.9-4.3,4.3-4.3c2.3,0,4.3,1.9,4.3,4.3c0,2.3-1.9,4.3-4.3,4.3
	C423.1,393,421.2,391.1,421.2,388.8L421.2,388.8z"/>
<path class="st8" d="M480.5,414.5c0-2.3,1.9-4.3,4.3-4.3s4.3,1.9,4.3,4.3c0,2.3-1.9,4.3-4.3,4.3S480.5,416.8,480.5,414.5
	L480.5,414.5z"/>
<path class="st8" d="M504.5,264.7c0-2.3,1.9-4.3,4.3-4.3s4.3,1.9,4.3,4.3c0,2.3-1.9,4.3-4.3,4.3C506.4,269,504.5,267.1,504.5,264.7
	L504.5,264.7z"/>
<path class="st8" d="M468.2,254.1c0-2.3,1.9-4.3,4.3-4.3s4.3,1.9,4.3,4.3c0,2.3-1.9,4.3-4.3,4.3S468.2,256.4,468.2,254.1
	L468.2,254.1z"/>
<path class="st8" d="M399,182.6c0-2.3,1.9-4.3,4.3-4.3c2.3,0,4.3,1.9,4.3,4.3c0,2.3-1.9,4.3-4.3,4.3
	C400.9,186.8,399,184.9,399,182.6L399,182.6z"/>
<path class="st8" d="M421.5,212.8c0-2.3,1.9-4.3,4.3-4.3c2.3,0,4.3,1.9,4.3,4.3c0,2.3-1.9,4.3-4.3,4.3
	C423.4,217,421.5,215.1,421.5,212.8L421.5,212.8z"/>
<path class="st8" d="M229.6,184.2c0-2.3,1.9-4.3,4.3-4.3c2.3,0,4.3,1.9,4.3,4.3c0,2.3-1.9,4.3-4.3,4.3
	C231.6,188.4,229.6,186.5,229.6,184.2L229.6,184.2z"/>
<path class="st8" d="M247.7,188.9c0-2.3,1.9-4.3,4.3-4.3c2.3,0,4.3,1.9,4.3,4.3c0,2.3-1.9,4.3-4.3,4.3
	C249.6,193.2,247.7,191.3,247.7,188.9L247.7,188.9z"/>
<g>
	<g>
		<path class="st9" d="M93.4,363.1h5.2c2.8,0,4,1.8,4,3.7c0,1.9-1.1,3.7-4,3.7h-2.6v4.1h-2.5V363.1z M95.9,368.5h2
			c1.2,0,2.2-0.3,2.2-1.7c0-1.5-1-1.7-2.2-1.7h-2V368.5z"/>
		<path class="st9" d="M110.4,363.1h2.6l4.3,11.4h-2.6l-0.9-2.5h-4.3l-0.9,2.5h-2.5L110.4,363.1z M110.2,370.1h3l-1.4-4.2h0
			L110.2,370.1z"/>
		<path class="st9" d="M120.7,372.5l6.1-7.3h-5.7v-2.1h9v2l-6.1,7.3h6.3v2.1h-9.6V372.5z"/>
		<path class="st9" d="M135,363.1h2.5v11.4H135V363.1z"/>
		<path class="st9" d="M142.9,363.1h8v2.1h-5.5v2.6h4.8v2h-4.8v4.7h-2.5V363.1z"/>
		<path class="st9" d="M155.6,363.1h2.5v11.4h-2.5V363.1z"/>
		<path class="st9" d="M163.5,363.1h2.5v4.7l4.5-4.7h3.1l-4.5,4.5l4.9,6.9h-3.2l-3.4-5.1l-1.4,1.5v3.7h-2.5V363.1z"/>
	</g>
</g>
<g>
	<g>
		<path class="st9" d="M602.1,173.3h2.6l4.3,11.4h-2.6l-0.9-2.5h-4.3l-0.9,2.5h-2.5L602.1,173.3z M601.9,180.3h3l-1.4-4.2h0
			L601.9,180.3z"/>
		<path class="st9" d="M615.7,175.4h-3.4v-2.1h9.4v2.1h-3.4v9.3h-2.5V175.4z"/>
		<path class="st9" d="M626.1,173.3h2.5v9.3h5.6v2.1h-8.1V173.3z"/>
		<path class="st9" d="M641.9,173.3h2.6l4.3,11.4h-2.6l-0.9-2.5h-4.3l-0.9,2.5h-2.5L641.9,173.3z M641.7,180.3h3l-1.4-4.2h0
			L641.7,180.3z"/>
		<path class="st9" d="M653,173.3h2.5l4.8,7.7h0v-7.7h2.4v11.4h-2.5l-4.8-7.7h0v7.7H653V173.3z"/>
		<path class="st9" d="M670.6,175.4h-3.4v-2.1h9.4v2.1h-3.4v9.3h-2.5V175.4z"/>
		<path class="st9" d="M681,173.3h2.5v11.4H681V173.3z"/>
		<path class="st9" d="M688.9,173.3h2.5v4.7l4.5-4.7h3.1l-4.5,4.5l4.9,6.9h-3.2l-3.4-5.1l-1.4,1.5v3.7h-2.5V173.3z"/>
	</g>
</g>
<g>
	<g>
		<path class="st2" d="M316.9,236c-0.2-1.1-1.2-2-2.5-2c-2.3,0-3.1,1.9-3.1,3.9c0,1.9,0.8,3.8,3.1,3.8c1.5,0,2.4-1.1,2.6-2.6h2.4
			c-0.3,2.8-2.2,4.7-5,4.7c-3.5,0-5.6-2.6-5.6-5.9c0-3.4,2.1-6,5.6-6c2.5,0,4.6,1.5,4.9,4.1H316.9z"/>
		<path class="st2" d="M329.4,231.9c3.5,0,5.6,2.6,5.6,6c0,3.3-2.1,5.9-5.6,5.9s-5.6-2.6-5.6-5.9
			C323.8,234.5,325.9,231.9,329.4,231.9z M329.4,241.7c2.3,0,3.1-1.9,3.1-3.8c0-2-0.8-3.9-3.1-3.9s-3.1,1.9-3.1,3.9
			C326.3,239.8,327.2,241.7,329.4,241.7z"/>
		<path class="st2" d="M341.7,239.8c0,1.5,1.2,2.1,2.5,2.1c0.9,0,2.2-0.3,2.2-1.4c0-1.2-1.7-1.4-3.4-1.9c-1.7-0.4-3.4-1.1-3.4-3.2
			c0-2.3,2.2-3.5,4.3-3.5c2.4,0,4.6,1,4.6,3.7h-2.4c-0.1-1.4-1.1-1.7-2.3-1.7c-0.8,0-1.7,0.3-1.7,1.3c0,0.9,0.5,1,3.4,1.7
			c0.8,0.2,3.4,0.7,3.4,3.3c0,2.1-1.6,3.7-4.8,3.7c-2.5,0-4.9-1.2-4.9-4.1H341.7z"/>
		<path class="st2" d="M356.1,234.3h-3.4v-2.1h9.4v2.1h-3.4v9.3h-2.5V234.3z"/>
		<path class="st2" d="M369.7,232.1h2.6l4.3,11.4h-2.6L373,241h-4.3l-0.9,2.5h-2.5L369.7,232.1z M369.4,239.2h3l-1.4-4.2h0
			L369.4,239.2z"/>
		<path class="st2" d="M319,251.3h6.2c2,0,3.3,1.4,3.3,3.2c0,1.3-0.5,2.4-1.8,2.9v0c1.2,0.3,1.6,1.5,1.7,2.7c0,0.7,0,2.1,0.5,2.7
			h-2.5c-0.3-0.7-0.3-1.8-0.4-2.7c-0.2-1.2-0.6-1.7-1.9-1.7h-2.5v4.5H319V251.3z M321.6,256.5h2.8c1.1,0,1.7-0.5,1.7-1.6
			c0-1.1-0.6-1.6-1.7-1.6h-2.8V256.5z"/>
		<path class="st2" d="M333.8,251.3h2.5v11.4h-2.5V251.3z"/>
		<path class="st2" d="M349.3,255.2c-0.2-1.1-1.2-2-2.5-2c-2.3,0-3.1,1.9-3.1,3.9c0,1.9,0.8,3.8,3.1,3.8c1.5,0,2.4-1.1,2.6-2.6h2.4
			c-0.3,2.8-2.2,4.7-5,4.7c-3.5,0-5.6-2.6-5.6-5.9c0-3.4,2.1-6,5.6-6c2.5,0,4.6,1.5,4.9,4.1H349.3z"/>
		<path class="st2" d="M359.9,251.3h2.6l4.3,11.4h-2.6l-0.9-2.5H359l-0.9,2.5h-2.5L359.9,251.3z M359.6,258.4h3l-1.4-4.2h0
			L359.6,258.4z"/>
	</g>
</g>
<g>
	<g>
		<path class="st2" d="M627,409.2h5.2c2.8,0,4,1.8,4,3.7c0,1.9-1.1,3.7-4,3.7h-2.6v4.1H627V409.2z M629.5,414.6h2
			c1.2,0,2.2-0.3,2.2-1.7c0-1.5-1-1.7-2.2-1.7h-2V414.6z"/>
		<path class="st2" d="M644,409.2h2.6l4.3,11.4h-2.6l-0.9-2.5h-4.3l-0.9,2.5h-2.5L644,409.2z M643.8,416.2h3l-1.4-4.2h0L643.8,416.2
			z"/>
		<path class="st2" d="M655.1,409.2h2.5l4.8,7.7h0v-7.7h2.4v11.4h-2.5l-4.8-7.7h0v7.7h-2.4V409.2z"/>
		<path class="st2" d="M673.2,409.2h2.6l4.3,11.4h-2.6l-0.9-2.5h-4.3l-0.9,2.5h-2.5L673.2,409.2z M673,416.2h3l-1.4-4.2h0L673,416.2
			z"/>
		<path class="st2" d="M684.3,409.2h3.5l2.7,7.9h0l2.5-7.9h3.5v11.4h-2.4v-8.1h0l-2.8,8.1h-1.9l-2.8-8h0v8h-2.4V409.2z"/>
		<path class="st2" d="M705.1,409.2h2.6l4.3,11.4h-2.6l-0.9-2.5h-4.3l-0.9,2.5h-2.5L705.1,409.2z M704.9,416.2h3l-1.4-4.2h0
			L704.9,416.2z"/>
	</g>
</g>
<g>
	<path class="st9" d="M148.6,79.9v-8.6h1.7v7.1h3.1v1.4H148.6z"/>
	<path class="st9" d="M154.6,75.5v-0.2c0-1.5,1-2,2.3-2c2,0,2.3,0.8,2.3,2v3.4c0,0.6,0,0.9,0.2,1.2h-1.6c-0.1-0.2-0.2-0.5-0.2-0.7h0
		c-0.4,0.7-0.9,0.8-1.6,0.8c-1.2,0-1.6-1-1.6-1.8c0-1.2,0.5-1.7,1.6-2l0.9-0.3c0.5-0.1,0.7-0.3,0.7-0.8c0-0.5-0.2-0.8-0.8-0.8
		c-0.5,0-0.8,0.3-0.8,0.8v0.2H154.6z M157.6,76.7c-0.2,0.2-0.5,0.3-0.7,0.3c-0.7,0.1-0.9,0.5-0.9,1c0,0.5,0.2,0.9,0.6,0.9s1-0.3,1-1
		V76.7z"/>
	<path class="st9" d="M165.7,73.5v6.1c0,1.7-0.8,2.5-2.7,2.5c-1.4,0-2.2-0.6-2.2-1.7h1.6c0,0.2,0.1,0.4,0.3,0.5
		c0.2,0.1,0.3,0.2,0.6,0.2c0.7,0,0.9-0.5,0.9-1.2v-0.9h0c-0.3,0.5-0.9,0.8-1.4,0.8c-1.3,0-2-0.9-2-3.3c0-1.5,0.2-3.3,2-3.3
		c0.5,0,1,0.2,1.3,0.9h0v-0.7H165.7z M163.2,78.6c0.7,0,0.9-0.8,0.9-1.8c0-1.6-0.2-2.2-0.9-2.2c-0.7,0-0.9,0.6-0.9,2.3
		C162.4,77.8,162.5,78.6,163.2,78.6z"/>
	<path class="st9" d="M170.6,79.2L170.6,79.2c-0.4,0.6-1,0.9-1.7,0.9c-1,0-1.6-0.6-1.6-1.8v-4.8h1.7v4.4c0,0.6,0.2,0.9,0.7,0.9
		c0.6,0,0.9-0.3,0.9-1.1v-4.3h1.7v6.5h-1.6V79.2z"/>
	<path class="st9" d="M173.8,73.5h1.6v0.8h0c0.3-0.6,0.9-0.9,1.6-0.9c1,0,1.6,0.6,1.6,1.8v4.8H177v-4.4c0-0.6-0.2-0.9-0.7-0.9
		c-0.6,0-0.9,0.3-0.9,1.1v4.3h-1.7V73.5z"/>
	<path class="st9" d="M180.3,75.5v-0.2c0-1.5,1-2,2.3-2c2,0,2.3,0.8,2.3,2v3.4c0,0.6,0,0.9,0.2,1.2h-1.6c-0.1-0.2-0.2-0.5-0.2-0.7h0
		c-0.4,0.7-0.9,0.8-1.6,0.8c-1.2,0-1.6-1-1.6-1.8c0-1.2,0.5-1.7,1.6-2l0.9-0.3c0.5-0.1,0.7-0.3,0.7-0.8c0-0.5-0.2-0.8-0.8-0.8
		c-0.5,0-0.8,0.3-0.8,0.8v0.2H180.3z M183.3,76.7c-0.2,0.2-0.5,0.3-0.7,0.3c-0.7,0.1-0.9,0.5-0.9,1c0,0.5,0.2,0.9,0.6,0.9s1-0.3,1-1
		V76.7z"/>
	<path class="st9" d="M146,91.2L146,91.2c-0.4,0.6-0.8,0.9-1.5,0.9c-1.4,0-2-1-2-3.4c0-2.4,0.6-3.4,2-3.4c0.6,0,1,0.3,1.4,0.8h0
		v-2.7h1.7v8.6H146V91.2z M145.1,90.8c0.7,0,0.9-0.7,0.9-2.1s-0.1-2.1-0.9-2.1c-0.7,0-0.9,0.7-0.9,2.1S144.4,90.8,145.1,90.8z"/>
	<path class="st9" d="M150.6,89v0.5c0,0.8,0.2,1.5,0.8,1.5c0.6,0,0.8-0.4,0.9-1.2h1.5c-0.1,1.5-0.8,2.3-2.3,2.3
		c-2.4,0-2.5-1.8-2.5-3.5c0-1.7,0.3-3.3,2.6-3.3c1.9,0,2.4,1.3,2.4,3.3V89H150.6z M152.3,88c0-1-0.2-1.5-0.8-1.5
		c-0.7,0-0.9,0.7-0.9,1.3V88H152.3z"/>
	<path class="st9" d="M160.3,83.4h2.1l2.3,8.6h-1.8l-0.4-1.8h-2.3l-0.4,1.8h-1.8L160.3,83.4z M160.6,88.7h1.7l-0.8-3.9h0L160.6,88.7
		z"/>
	<path class="st9" d="M165.8,85.5h1.6v0.9h0c0.3-0.6,0.8-1,1.5-1c0.1,0,0.2,0,0.3,0v1.6c-0.2,0-0.3,0-0.5,0c-0.6,0-1.2,0.3-1.2,1.2
		v3.9h-1.7V85.5z"/>
	<path class="st9" d="M171.7,89v0.5c0,0.8,0.2,1.5,0.8,1.5c0.6,0,0.8-0.4,0.9-1.2h1.5c-0.1,1.5-0.8,2.3-2.3,2.3
		c-2.4,0-2.5-1.8-2.5-3.5c0-1.7,0.3-3.3,2.6-3.3c1.9,0,2.4,1.3,2.4,3.3V89H171.7z M173.3,88c0-1-0.2-1.5-0.8-1.5
		c-0.7,0-0.9,0.7-0.9,1.3V88H173.3z"/>
	<path class="st9" d="M176.3,85.5h1.6v0.8h0c0.3-0.6,0.9-0.9,1.6-0.9c1,0,1.6,0.6,1.6,1.8v4.8h-1.7v-4.4c0-0.6-0.2-0.9-0.7-0.9
		c-0.6,0-0.9,0.3-0.9,1.1v4.3h-1.7V85.5z"/>
	<path class="st9" d="M182.7,87.5v-0.2c0-1.5,1-2,2.3-2c2,0,2.3,0.8,2.3,2v3.4c0,0.6,0,0.9,0.2,1.2H186c-0.1-0.2-0.2-0.5-0.2-0.7h0
		c-0.4,0.7-0.9,0.8-1.6,0.8c-1.2,0-1.6-1-1.6-1.8c0-1.2,0.5-1.7,1.6-2l0.9-0.3c0.5-0.1,0.7-0.3,0.7-0.8c0-0.5-0.2-0.8-0.8-0.8
		c-0.5,0-0.8,0.3-0.8,0.8v0.2H182.7z M185.8,88.7c-0.2,0.2-0.5,0.3-0.7,0.3c-0.7,0.1-0.9,0.5-0.9,1c0,0.5,0.2,0.9,0.6,0.9s1-0.3,1-1
		V88.7z"/>
	<path class="st9" d="M189.1,83.4h1.7v8.6h-1.7V83.4z"/>
</g>
<g>
	<g>
		<path class="st2" d="M263.7,339h3.9c1.9,0,3.2,0.7,3.2,2.9c0,1.2-0.6,2.2-1.7,2.5v0c1.3,0.2,2.1,1.1,2.1,2.7
			c0,1.8-0.9,3.3-3.6,3.3h-3.9V339z M266,343.7h0.7c1.3,0,1.8-0.4,1.8-1.5c0-1.1-0.5-1.5-1.7-1.5H266V343.7z M266,348.7h0.9
			c1.1,0,1.9-0.4,1.9-1.7c0-1.3-0.8-1.7-1.8-1.7h-1V348.7z"/>
		<path class="st2" d="M273.1,344.5v-0.2c0-2,1.4-2.7,3-2.7c2.6,0,3.1,1.1,3.1,2.6v4.5c0,0.8,0,1.2,0.3,1.7h-2.1
			c-0.1-0.3-0.2-0.6-0.3-0.9h0c-0.5,0.9-1.1,1.1-2.2,1.1c-1.5,0-2.1-1.3-2.1-2.5c0-1.6,0.7-2.3,2.2-2.7l1.2-0.3
			c0.7-0.2,0.9-0.4,0.9-1c0-0.7-0.3-1.1-1-1.1c-0.7,0-1,0.4-1,1.1v0.2H273.1z M277.2,346.1c-0.3,0.2-0.7,0.4-0.9,0.4
			c-0.9,0.2-1.2,0.6-1.2,1.4c0,0.7,0.2,1.2,0.8,1.2s1.4-0.4,1.4-1.3V346.1z"/>
		<path class="st2" d="M281.5,339h2.2v3.7h0c0.4-0.7,1.2-1.1,2.1-1.1c1.4,0,2.2,0.8,2.2,2.4v6.4h-2.2v-5.9c0-0.9-0.3-1.2-0.9-1.2
			c-0.8,0-1.2,0.5-1.2,1.4v5.7h-2.2V339z"/>
		<path class="st2" d="M290.2,338.9h2.2v1.9h-2.2V338.9z M290.2,341.8h2.2v8.6h-2.2V341.8z"/>
		<path class="st2" d="M294.6,344.5v-0.2c0-2,1.4-2.7,3-2.7c2.6,0,3.1,1.1,3.1,2.6v4.5c0,0.8,0,1.2,0.3,1.7h-2.1
			c-0.1-0.3-0.2-0.6-0.3-0.9h0c-0.5,0.9-1.1,1.1-2.2,1.1c-1.5,0-2.1-1.3-2.1-2.5c0-1.6,0.7-2.3,2.2-2.7l1.2-0.3
			c0.7-0.2,0.9-0.4,0.9-1c0-0.7-0.3-1.1-1-1.1c-0.7,0-1,0.4-1,1.1v0.2H294.6z M298.6,346.1c-0.3,0.2-0.7,0.4-0.9,0.4
			c-0.9,0.2-1.2,0.6-1.2,1.4c0,0.7,0.2,1.2,0.8,1.2s1.4-0.4,1.4-1.3V346.1z"/>
		<path class="st2" d="M263.8,355h3.8c3.2,0,3.8,2.2,3.8,5.6c0,4-0.9,5.9-3.9,5.9h-3.6V355z M266.1,364.7h1c1.6,0,1.9-1,1.9-4.1
			c0-2.6-0.2-3.9-2-3.9h-1V364.7z"/>
		<path class="st2" d="M273.5,357.8h2.1v1.2h0c0.4-0.8,1.1-1.4,2-1.4c0.1,0,0.3,0,0.4,0v2.1c-0.2,0-0.5,0-0.7,0
			c-0.8,0-1.6,0.4-1.6,1.6v5.2h-2.2V357.8z"/>
		<path class="st2" d="M279.4,360.5v-0.2c0-2,1.4-2.7,3-2.7c2.6,0,3.1,1.1,3.1,2.6v4.5c0,0.8,0,1.2,0.3,1.7h-2.1
			c-0.1-0.3-0.2-0.6-0.3-0.9h0c-0.5,0.9-1.1,1.1-2.2,1.1c-1.5,0-2.1-1.3-2.1-2.5c0-1.6,0.7-2.3,2.2-2.7l1.2-0.3
			c0.7-0.2,0.9-0.4,0.9-1c0-0.7-0.3-1.1-1-1.1c-0.7,0-1,0.4-1,1.1v0.2H279.4z M283.4,362.1c-0.3,0.2-0.7,0.4-0.9,0.4
			c-0.9,0.2-1.2,0.6-1.2,1.4c0,0.7,0.2,1.2,0.8,1.2s1.4-0.4,1.4-1.3V362.1z"/>
		<path class="st2" d="M290,355v6h0l2.2-3.2h2.4l-2.5,3.4l2.8,5.2h-2.4l-1.8-3.5l-0.8,1v2.5h-2.2V355H290z"/>
		<path class="st2" d="M298.3,362.5v0.7c0,1,0.3,2,1.1,2c0.7,0,1-0.6,1.2-1.6h2c-0.1,2-1,3.1-3.1,3.1c-3.2,0-3.3-2.5-3.3-4.6
			c0-2.3,0.4-4.5,3.4-4.5c2.6,0,3.2,1.7,3.2,4.4v0.5H298.3z M300.5,361.1c0-1.3-0.2-2-1.1-2c-0.9,0-1.1,0.9-1.1,1.7v0.3H300.5z"/>
	</g>
</g>
<g>
	<circle class="st10" cx="252" cy="171.9" r="6.4"/>
	<path class="st11" d="M252,162.4c-5,0-9,4-9,9c0,2,1.3,5.3,3.9,10c1.9,3.3,3.7,6.1,3.8,6.2l1.3,2l1.3-2c0.1-0.1,1.9-2.9,3.8-6.2
		c2.6-4.7,3.9-8,3.9-10C261,166.4,256.9,162.4,252,162.4z M252,176c-2.6,0-4.7-2.1-4.7-4.7s2.1-4.7,4.7-4.7c2.6,0,4.7,2.1,4.7,4.7
		C256.6,173.9,254.6,176,252,176z"/>
</g>
</svg>
