<?xml version="1.0" encoding="utf-8"?>
<svg version="1.1" xmlns="http://www.w3.org/2000/svg" 
	 viewBox="0 0 258.5 180" style="enable-background:new 0 0 258.5 180;" xml:space="preserve">
<style type="text/css">
	.st0{display:none;}
	.st1{display:inline;}
	.st2{fill-rule:evenodd;clip-rule:evenodd;}
	.st3{fill:#FFFFFF;}
</style>
<g id="Ebene_3" class="st0">
	<rect x="-41.3" y="-379.1" class="st1" width="386.1" height="196"/>
</g>
<g id="Ebene_2">
	<g>
		<path d="M0,28.1h7.1v22.8h0.1l10.4-22.8h7.1l-9.7,20l11.6,29.9h-7.6L11,55.8L7.1,63v14.9H0V28.1z"/>
		<path d="M28.6,39.8c0-8.1,6.2-12.2,12-12.2s12,4.1,12,12.2v26.3c0,8.1-6.2,12.2-12,12.2s-12-4.1-12-12.2V39.8z M35.7,66.2
			c0,3.4,2.2,5,4.8,5s4.8-1.6,4.8-5V39.8c0-3.4-2.2-5-4.8-5s-4.8,1.6-4.8,5V66.2z"/>
		<path d="M58.8,28.1h7.1v42.7h14.1v7.1H58.8V28.1z"/>
		<path d="M107.8,66.7c0,6.5-5.2,11.6-11.6,11.6c-6.4,0-11.6-5.1-11.6-11.6V28.1h7.1V66c0,3.5,1.9,5.2,4.4,5.2
			c2.5,0,4.4-1.7,4.4-5.2V28.1h7.1V66.7z"/>
		<path d="M114.5,28.1h6.9l9.2,26.4h0.1l9.1-26.4h6.9v49.8h-7.1V47.6h-0.1L132.4,69h-3.6l-7-21.4h-0.1v30.3h-7.1V28.1z"/>
		<path d="M153.4,28.1h10.4c9.2,0,12.7,6.1,12.7,12.6v1.8c0,5.3-1.8,7.3-4.9,9.2c3.4,1.6,4.9,4.6,4.9,9.8v2.8
			c0,8.7-4.1,13.6-13.4,13.6h-9.7V28.1z M160.6,48.5h3.2c4.8,0,6-2.5,6-7c0-4.4-1.6-6.7-6.3-6.7h-2.9V48.5z M160.6,70.8h3.1
			c5.7,0,6.2-3.5,6.2-8.4c0-5-0.9-7.6-6.1-7.6h-3.2V70.8z"/>
		<path d="M183.5,28.1h7.1v49.8h-7.1V28.1z"/>
		<path d="M197.5,28.1h21.3v6.7h-14.1v14.6H217v6.7h-12.3v14.6h14.1v7.1h-21.3V28.1z"/>
		<path d="M223.2,28.1h6.9l10.8,30h0.1v-30h7.1v49.8h-6.7l-10.9-30h-0.1v30h-7.1V28.1z"/>
	</g>
	<rect x="0" y="89.8" class="st2" width="119.1" height="17"/>
	<rect x="0" y="108.9" class="st2" width="121.8" height="17"/>
	<g>
		<path class="st3" d="M5.7,100c-0.2,0.2-0.3,0.5-0.3,0.7c0.4-0.4,0.8-0.6,1.3-0.6c0.5,0,0.9,0.2,1.5,0.6c0.6,0.4,1,0.7,1.3,0.7
			c0.2,0,0.4-0.1,0.5-0.2c0.1-0.1,0.2-0.3,0.2-0.6c0-0.1,0-0.2,0-0.3c-0.1,0.1-0.3,0.2-0.4,0.2c-0.3,0-0.5-0.2-0.5-0.5
			c0-0.2,0.1-0.3,0.2-0.4c0.1-0.1,0.3-0.2,0.5-0.2c0.3,0,0.5,0.1,0.7,0.3c0.2,0.2,0.3,0.5,0.3,0.8c0,0.5-0.2,0.9-0.5,1.2
			c-0.3,0.3-0.7,0.5-1.1,0.5c-0.4,0-0.9-0.2-1.5-0.7c-0.6-0.4-1.1-0.7-1.5-0.7c-0.4,0-0.7,0.2-0.8,0.5c0.1,0,0.1,0,0.1,0
			c0.2,0,0.3,0.1,0.3,0.3c0,0.4-0.2,0.5-0.6,0.5c-0.3,0-0.5-0.1-0.6-0.3c-0.2-0.2-0.2-0.5-0.2-0.9c0-1.4,0.9-2.4,2.8-3L8.2,98
			c0.9-0.3,1.4-0.8,1.4-1.5c0-0.5-0.2-0.9-0.5-1.2c-0.3-0.3-0.8-0.4-1.4-0.4c-0.5,0-1,0.1-1.3,0.3C6,95.4,5.8,95.7,5.8,96
			c0.4,0,0.6,0.2,0.6,0.6c0,0.2-0.1,0.4-0.2,0.5c-0.1,0.1-0.3,0.2-0.6,0.2c-0.3,0-0.5-0.1-0.6-0.3c-0.2-0.2-0.2-0.4-0.2-0.7
			c0-0.6,0.3-1.2,0.9-1.6c0.6-0.4,1.3-0.6,2.2-0.6c0.8,0,1.5,0.2,2,0.7c0.5,0.4,0.8,1,0.8,1.7c0,0.5-0.1,0.9-0.4,1.2
			C10,98,9.6,98.3,9.2,98.5C9,98.5,8.5,98.7,7.7,99c-0.6,0.2-1,0.4-1.4,0.6C6.1,99.7,5.9,99.8,5.7,100z"/>
		<path class="st3" d="M14.1,99.5l0-3.4c0-0.4,0-0.7-0.1-0.8c-0.1-0.1-0.2-0.2-0.4-0.2c-0.1,0-0.2,0-0.3,0c-0.1,0-0.3,0-0.3,0
			c-0.3,0-0.5-0.1-0.5-0.4c0-0.3,0.1-0.4,0.4-0.4c0.1,0,0.2,0,0.4,0c0.2,0,0.4,0,0.5,0c0.3,0,0.5,0,0.6,0c0.2,0,0.4,0,0.4,0
			c0.2,0,0.3,0.1,0.3,0.2c0,0.1,0,0.2,0,0.4c0,0,0,0.1,0,0.3c0,0.8-0.1,1.6-0.1,2.3v1.3c0,0.2,0,0.6,0,1c0,0.5,0,0.8,0,1
			c0,0.5,0.2,0.8,0.5,0.8c0.1,0,0.2,0,0.4,0c0.2,0,0.3,0,0.4,0c0.4,0,0.6,0.1,0.6,0.4c0,0.3-0.2,0.4-0.5,0.4c-0.1,0-0.3,0-0.4,0
			c-0.7-0.1-1.2-0.1-1.5-0.1c-0.3,0-0.8,0-1.3,0.1c-0.3,0-0.5,0.1-0.6,0.1c-0.3,0-0.5-0.1-0.5-0.4c0-0.3,0.2-0.4,0.6-0.4
			c0.1,0,0.2,0,0.4,0c0.2,0,0.3,0,0.4,0c0.3,0,0.4-0.1,0.5-0.3C14.1,100.9,14.1,100.4,14.1,99.5z"/>
		<path class="st3" d="M19.3,102.4c-0.2,0-0.4-0.1-0.5-0.2c-0.1-0.1-0.2-0.3-0.2-0.5s0.1-0.4,0.2-0.5c0.1-0.1,0.3-0.2,0.5-0.2
			s0.4,0.1,0.5,0.2c0.1,0.1,0.2,0.3,0.2,0.5s-0.1,0.4-0.2,0.5C19.6,102.3,19.5,102.4,19.3,102.4z"/>
		<path class="st3" d="M25.6,95.9c0-0.6-0.2-0.9-0.6-0.9c-0.1,0-0.2,0-0.2,0c-0.1,0-0.2,0-0.3,0c-0.2,0-0.4-0.1-0.4-0.4
			c0-0.3,0.2-0.4,0.5-0.4c0,0,0.1,0,0.2,0l0.6,0.1c0.2,0,0.5,0,0.8,0c0.2,0,0.4,0,0.7,0l0.8-0.1c0.1,0,0.3,0,0.6,0
			c0.7,0,1.3,0.1,1.8,0.3c0.6,0.3,1.1,0.7,1.5,1.4c0.4,0.7,0.5,1.4,0.5,2.3c0,0.8-0.1,1.5-0.4,2.1c-0.3,0.6-0.7,1.1-1.2,1.4
			c-0.6,0.4-1.3,0.5-2.2,0.5c-0.2,0-0.3,0-0.5,0l-0.8-0.1c-0.3,0-0.6,0-0.9,0c-0.3,0-0.5,0-0.6,0l-0.6,0.1c0,0,0,0-0.1,0
			c0,0-0.1,0-0.1,0c-0.3,0-0.5-0.1-0.5-0.4c0-0.1,0-0.2,0.1-0.3c0.1-0.1,0.2-0.1,0.3-0.1c0.1,0,0.2,0,0.3,0c0.1,0,0.1,0,0.2,0
			c0.4,0,0.6-0.3,0.6-0.9V95.9z M26.6,95.8v5c0,0.4,0.2,0.6,0.5,0.7c0.1,0,0.4,0,1,0c0.9,0,1.6-0.3,2-0.8c0.5-0.6,0.8-1.4,0.8-2.4
			c0-0.8-0.2-1.4-0.5-2c-0.3-0.5-0.7-0.9-1.3-1c-0.3-0.1-0.8-0.2-1.2-0.2c-0.6,0-1,0-1.1,0.1C26.6,95.3,26.6,95.5,26.6,95.8z"/>
		<path class="st3" d="M38.4,98.7c0,0.3,0,0.5-0.1,0.5c0,0.1-0.2,0.1-0.3,0.1h-3.7c-0.1,0-0.2,0-0.2,0c0,0,0,0.1,0,0.1
			c0,0.6,0.2,1.1,0.5,1.5s0.8,0.6,1.3,0.6c0.3,0,0.7-0.1,0.9-0.3c0.3-0.2,0.5-0.4,0.6-0.7l0.1-0.3c0.1-0.2,0.2-0.3,0.4-0.3
			c0.3,0,0.4,0.1,0.4,0.4c0,0.5-0.3,1-0.8,1.4c-0.5,0.4-1.1,0.6-1.8,0.6c-0.8,0-1.5-0.3-2-0.8c-0.5-0.6-0.7-1.3-0.7-2.2
			c0-1,0.3-1.7,0.8-2.3c0.5-0.6,1.2-0.9,2-0.9c0.7,0,1.3,0.2,1.8,0.7C38.2,97.3,38.4,98,38.4,98.7z M34.2,98.4
			c0,0.1,0.1,0.2,0.3,0.2h2.8c0.2,0,0.2-0.1,0.2-0.2c0-0.4-0.2-0.8-0.5-1.1c-0.3-0.3-0.7-0.5-1.1-0.5c-0.4,0-0.8,0.2-1.2,0.5
			C34.3,97.7,34.2,98,34.2,98.4z"/>
		<path class="st3" d="M39.8,101l3.8-3.9h-1.8c-0.6,0-1,0-1.1,0.1c-0.1,0-0.2,0.1-0.2,0.3c0,0.1,0,0.1,0,0.2c0,0.2,0.1,0.4,0.1,0.6
			c0,0.3-0.1,0.4-0.4,0.4c-0.3,0-0.4-0.2-0.4-0.5c0-0.1,0-0.3,0-0.3c0-0.2,0-0.4,0-0.5c0-0.1,0-0.2,0-0.3c0-0.2,0-0.3,0-0.3
			c0-0.2,0.2-0.4,0.6-0.4c0.1,0,0.3,0,0.5,0c0.2,0,0.4,0,0.5,0h0.7h2c0.5,0,0.7,0.2,0.7,0.5c0,0.2-0.1,0.4-0.4,0.7l-3.8,3.9h2.8
			c0.5,0,0.7-0.1,0.7-0.4v-0.2c0-0.1,0-0.3,0-0.3c0-0.3,0-0.4,0-0.4c0-0.1,0-0.2,0.1-0.3c0.1-0.1,0.2-0.1,0.3-0.1
			c0.3,0,0.4,0.1,0.4,0.4c0,0.1,0,0.3,0,0.4c0,0.3,0,0.5,0,0.6c0,0.1,0,0.2,0,0.4c0,0.2,0,0.3,0,0.4c0,0.3-0.2,0.5-0.5,0.4h-0.7
			h-3.4c-0.2,0-0.4-0.1-0.5-0.2c-0.1-0.1-0.2-0.3-0.2-0.4C39.5,101.4,39.6,101.2,39.8,101z"/>
		<path class="st3" d="M51.3,98.7c0,0.3,0,0.5-0.1,0.5c0,0.1-0.2,0.1-0.3,0.1h-3.7c-0.1,0-0.2,0-0.2,0c0,0,0,0.1,0,0.1
			c0,0.6,0.2,1.1,0.5,1.5s0.8,0.6,1.3,0.6c0.3,0,0.7-0.1,0.9-0.3c0.3-0.2,0.5-0.4,0.6-0.7l0.1-0.3c0.1-0.2,0.2-0.3,0.4-0.3
			c0.3,0,0.4,0.1,0.4,0.4c0,0.5-0.3,1-0.8,1.4c-0.5,0.4-1.1,0.6-1.8,0.6c-0.8,0-1.5-0.3-2-0.8c-0.5-0.6-0.7-1.3-0.7-2.2
			c0-1,0.3-1.7,0.8-2.3c0.5-0.6,1.2-0.9,2-0.9c0.7,0,1.3,0.2,1.8,0.7C51.1,97.3,51.3,98,51.3,98.7z M47.1,98.4
			c0,0.1,0.1,0.2,0.3,0.2h2.8c0.2,0,0.2-0.1,0.2-0.2c0-0.4-0.2-0.8-0.5-1.1c-0.3-0.3-0.7-0.5-1.1-0.5c-0.4,0-0.8,0.2-1.2,0.5
			C47.2,97.7,47.1,98,47.1,98.4z"/>
		<path class="st3" d="M54.2,96.7V97c0.3-0.3,0.5-0.6,0.8-0.7c0.3-0.1,0.6-0.2,0.9-0.2c0.8,0,1.3,0.3,1.7,0.9
			c0.3-0.3,0.5-0.6,0.8-0.7c0.3-0.1,0.6-0.2,1.1-0.2c0.4,0,0.8,0.1,1.2,0.3c0.4,0.2,0.7,0.5,0.8,0.9c0.1,0.3,0.2,0.7,0.2,1.2v1.1
			v0.9c0,0.3,0,0.5,0,0.6c0,0.3,0.1,0.4,0.3,0.4c0.1,0,0.1,0,0.2,0c0.1,0,0.2,0,0.2,0c0.3,0,0.4,0.1,0.4,0.4c0,0.3-0.2,0.4-0.5,0.4
			c-0.1,0-0.3,0-0.5,0c-0.2,0-0.4,0-0.5,0c-0.1,0-0.3,0-0.6,0c-0.3,0-0.4,0-0.6,0c-0.3,0-0.5-0.1-0.5-0.4c0-0.2,0.1-0.4,0.4-0.4
			c0,0,0.1,0,0.2,0c0,0,0.1,0,0.2,0c0.1,0,0.2-0.1,0.3-0.2c0-0.1,0.1-0.5,0.1-1v-0.7v-0.8c0-0.5,0-0.9-0.1-1.2
			c-0.1-0.2-0.2-0.4-0.5-0.6c-0.2-0.1-0.5-0.2-0.8-0.2c-0.6,0-0.9,0.2-1.2,0.6C58.1,97.7,58,98.3,58,99v0.8c0,0.7,0,1.2,0.1,1.4
			s0.1,0.3,0.3,0.3c0,0,0.1,0,0.2,0c0.1,0,0.2,0,0.2,0c0.1,0,0.2,0,0.3,0.1c0.1,0.1,0.1,0.2,0.1,0.3c0,0.3-0.2,0.4-0.6,0.4
			c-0.1,0-0.3,0-0.5,0s-0.4,0-0.5,0c-0.2,0-0.3,0-0.5,0c-0.2,0-0.4,0-0.5,0c-0.3,0-0.5-0.1-0.5-0.4c0-0.2,0.1-0.4,0.4-0.4
			c0.1,0,0.2,0,0.2,0c0.1,0,0.2,0,0.2,0c0.2,0,0.3-0.2,0.3-0.6l0-0.6c0-0.2,0-0.3,0-0.5c0-0.1,0-0.2,0-0.2v-1c0-0.7-0.1-1.2-0.3-1.4
			s-0.5-0.4-1-0.4c-0.5,0-0.9,0.2-1.2,0.6c-0.2,0.3-0.3,0.8-0.3,1.6v1.6c0,0.3,0,0.5,0,0.6c0,0.3,0.1,0.4,0.3,0.4c0,0,0.1,0,0.2-0.1
			c0,0,0,0,0.1,0c0,0,0.1,0,0.1,0c0.3,0,0.5,0.1,0.5,0.4c0,0.3-0.2,0.4-0.5,0.4c-0.1,0-0.3,0-0.5,0c-0.3,0-0.5,0-0.7,0
			c-0.1,0-0.3,0-0.5,0c-0.3,0-0.5,0-0.6,0c-0.3,0-0.5-0.1-0.5-0.4c0-0.2,0.2-0.4,0.5-0.4c0,0,0,0,0.1,0c0,0,0.1,0,0.1,0l0.3,0.1
			c0,0,0,0,0,0c0.2,0,0.3-0.2,0.3-0.6v-0.7v-1.8c0-0.7,0-1.1-0.1-1.2c0-0.2-0.1-0.2-0.3-0.2c0,0-0.1,0-0.3,0.1c-0.1,0-0.1,0-0.2,0
			c-0.3,0-0.4-0.1-0.4-0.4c0-0.3,0.2-0.4,0.5-0.4c0.1,0,0.2,0,0.4,0c0.1,0,0.3,0,0.4,0c0,0,0.1,0,0.1,0c0,0,0.1,0,0.1,0l0.3,0h0
			C54.1,96.3,54.2,96.4,54.2,96.7z"/>
		<path class="st3" d="M65.1,94.7C65.1,95.3,65,96.1,65,97c0.3-0.3,0.5-0.6,0.8-0.7c0.3-0.1,0.6-0.2,1-0.2c0.8,0,1.4,0.3,1.9,0.8
			c0.5,0.5,0.7,1.3,0.7,2.2c0,1-0.2,1.8-0.7,2.4c-0.5,0.6-1.2,0.9-2,0.9c-0.8,0-1.4-0.3-1.8-0.9c0,0.2,0,0.4,0,0.4
			c0,0.3-0.1,0.4-0.4,0.4c-0.3,0-0.4-0.2-0.4-0.6c0-0.1,0-0.2,0-0.2c0-0.2,0-0.4,0-0.6l0.1-0.9v-1.2v-3.1c0-0.3,0-0.5-0.1-0.6
			c-0.1-0.1-0.1-0.2-0.3-0.2c0,0-0.1,0-0.3,0c-0.1,0-0.2,0-0.2,0c-0.3,0-0.4-0.1-0.4-0.4c0-0.3,0.2-0.4,0.5-0.4c0.1,0,0.2,0,0.2,0
			l0.3,0c0.1,0,0.2,0,0.3,0c0.1,0,0.2,0,0.4,0c0.2,0,0.3,0,0.4,0c0.2,0,0.3,0.1,0.3,0.3V94.7z M65.1,98.1c-0.1,0.3-0.1,0.6-0.1,1.1
			c0,0.8,0.1,1.3,0.2,1.6c0.2,0.6,0.7,0.9,1.4,0.9c0.5,0,1-0.2,1.3-0.6c0.3-0.4,0.5-1,0.5-1.7c0-0.7-0.2-1.3-0.5-1.7
			c-0.3-0.4-0.7-0.6-1.3-0.6c-0.4,0-0.7,0.1-1,0.3C65.4,97.5,65.2,97.7,65.1,98.1z"/>
		<path class="st3" d="M75.8,98.7c0,0.3,0,0.5-0.1,0.5c0,0.1-0.2,0.1-0.3,0.1h-3.7c-0.1,0-0.2,0-0.2,0c0,0,0,0.1,0,0.1
			c0,0.6,0.2,1.1,0.5,1.5s0.8,0.6,1.3,0.6c0.3,0,0.7-0.1,0.9-0.3c0.3-0.2,0.5-0.4,0.6-0.7l0.1-0.3c0.1-0.2,0.2-0.3,0.4-0.3
			c0.3,0,0.4,0.1,0.4,0.4c0,0.5-0.3,1-0.8,1.4c-0.5,0.4-1.1,0.6-1.8,0.6c-0.8,0-1.5-0.3-2-0.8c-0.5-0.6-0.7-1.3-0.7-2.2
			c0-1,0.3-1.7,0.8-2.3c0.5-0.6,1.2-0.9,2-0.9c0.7,0,1.3,0.2,1.8,0.7C75.6,97.3,75.8,98,75.8,98.7z M71.6,98.4
			c0,0.1,0.1,0.2,0.3,0.2h2.8c0.2,0,0.2-0.1,0.2-0.2c0-0.4-0.2-0.8-0.5-1.1c-0.3-0.3-0.7-0.5-1.1-0.5c-0.4,0-0.8,0.2-1.2,0.5
			C71.7,97.7,71.6,98,71.6,98.4z"/>
		<path class="st3" d="M78.7,96.6V97c0.4-0.6,1-0.9,1.6-0.9c0.5,0,1,0.2,1.3,0.5c0.3,0.3,0.5,0.7,0.5,1.2c0,0.3-0.1,0.6-0.3,0.8
			c-0.2,0.2-0.4,0.3-0.7,0.3c-0.2,0-0.3-0.1-0.5-0.2c-0.1-0.1-0.2-0.2-0.2-0.4c0-0.1,0-0.2,0.1-0.3c0.1-0.1,0.2-0.1,0.3-0.1
			c0,0,0.1,0,0.2,0c0-0.1,0.1-0.2,0.1-0.3c0-0.2-0.1-0.4-0.3-0.6c-0.2-0.2-0.4-0.2-0.7-0.2c-0.6,0-1,0.3-1.2,0.8
			c-0.1,0.3-0.2,0.8-0.2,1.5v0.8c0,0.5,0,0.8,0,0.9c0,0.4,0.2,0.7,0.4,0.7c0.1,0,0.2,0,0.3,0c0.1,0,0.2,0,0.2,0
			c0.3,0,0.4,0.1,0.4,0.4c0,0.3-0.2,0.4-0.5,0.4h0c-0.1,0-0.3,0-0.5,0c-0.2,0-0.4,0-0.5,0c-0.3,0-0.6,0-0.7,0l-0.7,0.1
			c-0.3,0-0.5-0.1-0.5-0.4c0-0.2,0.2-0.4,0.5-0.4c0.1,0,0.1,0,0.2,0l0.2,0c0.1,0,0.1,0,0.2,0c0.2,0,0.3-0.2,0.3-0.5v-0.6l0-2.7
			c0-0.5-0.1-0.7-0.4-0.7c-0.1,0-0.1,0-0.3,0c-0.1,0-0.2,0-0.3,0c-0.3,0-0.4-0.1-0.4-0.4c0-0.3,0.2-0.4,0.5-0.4c0.1,0,0.2,0,0.4,0
			c0.2,0,0.3,0,0.4,0c0.1,0,0.2,0,0.3,0c0.1,0,0.1,0,0.2,0C78.6,96.3,78.7,96.4,78.7,96.6z"/>
		<path class="st3" d="M87.2,100c-0.2,0.2-0.3,0.5-0.3,0.7c0.4-0.4,0.8-0.6,1.3-0.6c0.5,0,0.9,0.2,1.5,0.6c0.6,0.4,1,0.7,1.3,0.7
			c0.2,0,0.4-0.1,0.5-0.2c0.1-0.1,0.2-0.3,0.2-0.6c0-0.1,0-0.2,0-0.3c-0.1,0.1-0.3,0.2-0.4,0.2c-0.3,0-0.5-0.2-0.5-0.5
			c0-0.2,0.1-0.3,0.2-0.4c0.1-0.1,0.3-0.2,0.5-0.2c0.3,0,0.5,0.1,0.7,0.3c0.2,0.2,0.3,0.5,0.3,0.8c0,0.5-0.2,0.9-0.5,1.2
			c-0.3,0.3-0.7,0.5-1.1,0.5c-0.4,0-0.9-0.2-1.5-0.7c-0.6-0.4-1.1-0.7-1.5-0.7c-0.4,0-0.7,0.2-0.8,0.5c0.1,0,0.1,0,0.1,0
			c0.2,0,0.3,0.1,0.3,0.3c0,0.4-0.2,0.5-0.6,0.5c-0.3,0-0.5-0.1-0.6-0.3c-0.2-0.2-0.2-0.5-0.2-0.9c0-1.4,0.9-2.4,2.8-3l0.8-0.3
			c0.9-0.3,1.4-0.8,1.4-1.5c0-0.5-0.2-0.9-0.5-1.2c-0.3-0.3-0.8-0.4-1.4-0.4c-0.5,0-1,0.1-1.3,0.3c-0.3,0.2-0.5,0.5-0.6,0.9
			c0.4,0,0.6,0.2,0.6,0.6c0,0.2-0.1,0.4-0.2,0.5c-0.1,0.1-0.3,0.2-0.6,0.2c-0.3,0-0.5-0.1-0.6-0.3c-0.2-0.2-0.2-0.4-0.2-0.7
			c0-0.6,0.3-1.2,0.9-1.6c0.6-0.4,1.3-0.6,2.2-0.6c0.8,0,1.5,0.2,2,0.7c0.5,0.4,0.8,1,0.8,1.7c0,0.5-0.1,0.9-0.4,1.2
			c-0.3,0.4-0.6,0.6-1.1,0.8c-0.1,0.1-0.6,0.2-1.4,0.5c-0.6,0.2-1,0.4-1.4,0.6C87.6,99.7,87.4,99.8,87.2,100z"/>
		<path class="st3" d="M96.6,102.4c-1,0-1.8-0.4-2.3-1.1c-0.6-0.7-0.9-1.7-0.9-3c0-1.3,0.3-2.3,0.9-3.1c0.6-0.8,1.4-1.1,2.4-1.1
			c1,0,1.8,0.4,2.3,1.1c0.6,0.7,0.9,1.7,0.9,2.9c0,1.3-0.3,2.4-0.9,3.2C98.5,102.1,97.7,102.4,96.6,102.4z M96.7,94.9
			c-1.4,0-2.2,1.1-2.2,3.2v0.2c0,1,0.2,1.8,0.6,2.4c0.4,0.6,0.9,0.8,1.6,0.8c0.7,0,1.3-0.3,1.7-0.9c0.4-0.6,0.6-1.5,0.6-2.5
			c0-1-0.2-1.8-0.6-2.4C98,95.2,97.4,94.9,96.7,94.9z"/>
		<path class="st3" d="M102.7,99.5l0-3.4c0-0.4,0-0.7-0.1-0.8c-0.1-0.1-0.2-0.2-0.4-0.2c-0.1,0-0.2,0-0.3,0c-0.1,0-0.3,0-0.3,0
			c-0.3,0-0.5-0.1-0.5-0.4c0-0.3,0.1-0.4,0.4-0.4c0.1,0,0.2,0,0.4,0c0.2,0,0.4,0,0.5,0c0.3,0,0.5,0,0.6,0c0.2,0,0.4,0,0.4,0
			c0.2,0,0.3,0.1,0.3,0.2c0,0.1,0,0.2,0,0.4c0,0,0,0.1,0,0.3c0,0.8-0.1,1.6-0.1,2.3v1.3c0,0.2,0,0.6,0,1c0,0.5,0,0.8,0,1
			c0,0.5,0.2,0.8,0.5,0.8c0.1,0,0.2,0,0.4,0c0.2,0,0.3,0,0.4,0c0.4,0,0.6,0.1,0.6,0.4c0,0.3-0.2,0.4-0.5,0.4c-0.1,0-0.3,0-0.4,0
			c-0.7-0.1-1.2-0.1-1.5-0.1c-0.3,0-0.8,0-1.3,0.1c-0.3,0-0.5,0.1-0.6,0.1c-0.3,0-0.5-0.1-0.5-0.4c0-0.3,0.2-0.4,0.6-0.4
			c0.1,0,0.2,0,0.4,0c0.2,0,0.3,0,0.4,0c0.3,0,0.4-0.1,0.5-0.3C102.7,100.9,102.7,100.4,102.7,99.5z"/>
		<path class="st3" d="M108.3,95.6l-0.1,1.9c0.6-0.4,1.3-0.6,2-0.6c0.9,0,1.6,0.2,2.1,0.7c0.5,0.5,0.8,1.1,0.8,1.9
			c0,0.9-0.3,1.6-0.9,2.1c-0.6,0.5-1.4,0.8-2.4,0.8c-0.8,0-1.5-0.2-2.1-0.6c-0.6-0.4-0.8-0.9-0.8-1.5c0-0.3,0.1-0.5,0.3-0.7
			c0.2-0.2,0.4-0.3,0.7-0.3c0.2,0,0.4,0.1,0.5,0.2c0.1,0.1,0.2,0.3,0.2,0.5c0,0.1,0,0.2-0.1,0.3c-0.1,0.1-0.2,0.1-0.3,0.1
			c-0.1,0-0.1,0-0.1,0.1c0,0.3,0.2,0.5,0.6,0.7c0.4,0.2,0.9,0.3,1.4,0.3c0.6,0,1.1-0.2,1.5-0.6c0.4-0.4,0.6-0.9,0.6-1.5
			c0-0.6-0.2-1-0.5-1.4s-0.8-0.5-1.4-0.5c-0.7,0-1.3,0.2-1.7,0.6c-0.2,0.2-0.3,0.3-0.4,0.3c-0.1,0.1-0.2,0.1-0.3,0.1h0
			c-0.3,0-0.5-0.2-0.5-0.5c0,0,0,0,0,0l0.2-2.3c0-0.1,0-0.3,0-0.6c0-0.4,0-0.7,0.1-0.8c0.1-0.1,0.2-0.1,0.4-0.1c0.1,0,0.2,0,0.2,0
			h0.6h0.7h1.4c0.2,0,0.4,0,0.5,0c0.2,0,0.4,0,0.5,0c0.3,0,0.5,0.2,0.5,0.7l0,0.1c0,0.2,0,0.4,0.1,0.7c0,0.1,0,0.2,0,0.3
			c0,0.3-0.1,0.4-0.4,0.4c-0.3,0-0.4-0.2-0.4-0.6c0-0.4-0.2-0.7-0.6-0.7h-2.5C108.4,95.2,108.3,95.3,108.3,95.6z"/>
		<path class="st3" d="M6,114c-0.1,0.6-0.1,1.4-0.1,2.3c0.3-0.3,0.5-0.6,0.8-0.7c0.3-0.1,0.6-0.2,1-0.2c0.8,0,1.4,0.3,1.9,0.8
			c0.5,0.5,0.7,1.3,0.7,2.2c0,1-0.2,1.8-0.7,2.4c-0.5,0.6-1.2,0.9-2,0.9c-0.8,0-1.4-0.3-1.8-0.9c0,0.2,0,0.4,0,0.4
			c0,0.3-0.1,0.4-0.4,0.4c-0.3,0-0.4-0.2-0.4-0.6c0-0.1,0-0.2,0-0.2c0-0.2,0-0.4,0-0.6l0.1-0.9v-1.2v-3.1c0-0.3,0-0.5-0.1-0.6
			c-0.1-0.1-0.1-0.2-0.3-0.2c0,0-0.1,0-0.3,0c-0.1,0-0.2,0-0.2,0c-0.3,0-0.4-0.1-0.4-0.4c0-0.3,0.2-0.4,0.5-0.4c0.1,0,0.2,0,0.2,0
			l0.3,0c0.1,0,0.2,0,0.3,0c0.1,0,0.2,0,0.4,0c0.2,0,0.3,0,0.4,0c0.2,0,0.3,0.1,0.3,0.3V114z M5.9,117.4c-0.1,0.3-0.1,0.6-0.1,1.1
			c0,0.8,0.1,1.3,0.2,1.6c0.2,0.6,0.7,0.9,1.4,0.9c0.5,0,1-0.2,1.3-0.6c0.3-0.4,0.5-1,0.5-1.7c0-0.7-0.2-1.3-0.5-1.7
			c-0.3-0.4-0.7-0.6-1.3-0.6c-0.4,0-0.7,0.1-1,0.3C6.2,116.8,6,117,5.9,117.4z"/>
		<path class="st3" d="M13,118.1v1.5c0,0.4,0,0.6,0,0.7c0,0.4,0.1,0.5,0.3,0.5c0,0,0.1,0,0.3-0.1c0,0,0.1,0,0.2,0
			c0.3,0,0.4,0.1,0.4,0.4c0,0.1,0,0.2-0.1,0.3c-0.1,0.1-0.2,0.1-0.4,0.1c-0.1,0-0.3,0-0.6-0.1c-0.3,0-0.4-0.1-0.6-0.1
			c-0.2,0-0.4,0-0.7,0c-0.3,0-0.5,0.1-0.6,0.1c-0.3,0-0.5-0.1-0.5-0.4c0-0.3,0.1-0.4,0.4-0.4c0.1,0,0.2,0,0.3,0c0.1,0,0.2,0,0.3,0
			c0.2,0,0.3-0.3,0.3-0.8c0,0,0-0.4,0-1v-1c0-0.7,0-1,0-1c0-0.5-0.2-0.7-0.4-0.7c-0.1,0-0.2,0-0.3,0c-0.1,0-0.2,0-0.3,0
			c-0.3,0-0.4-0.1-0.4-0.4c0-0.3,0.2-0.4,0.5-0.4c0.1,0,0.3,0,0.3,0c0.3,0,0.4,0,0.5,0c0.1,0,0.2,0,0.3,0s0.2,0,0.3,0
			c0.2,0,0.3,0.2,0.3,0.5c0,0,0,0.1,0,0.1c0,0.1,0,0.1,0,0.1c0,0.1,0,0.3,0,0.7C13,117.4,13,117.7,13,118.1z M12.3,115
			c-0.2,0-0.3-0.1-0.5-0.2s-0.2-0.3-0.2-0.5s0.1-0.3,0.2-0.5c0.1-0.1,0.3-0.2,0.5-0.2c0.2,0,0.3,0.1,0.5,0.2
			c0.1,0.1,0.2,0.3,0.2,0.5s-0.1,0.3-0.2,0.5S12.5,115,12.3,115z"/>
		<path class="st3" d="M17.2,115.4c0.5,0,1,0.1,1.3,0.4v0c0-0.3,0.1-0.4,0.4-0.4c0.3,0,0.4,0.1,0.4,0.4c0,0,0,0.2,0,0.4
			c0,0.2,0,0.3,0,0.5c0,0.1,0,0.2,0,0.4c0,0.2,0,0.3,0,0.4c0,0.3-0.1,0.4-0.4,0.4c-0.2,0-0.4-0.1-0.4-0.4V117c0-0.2-0.1-0.4-0.4-0.6
			c-0.3-0.2-0.6-0.3-0.9-0.3c-0.4,0-0.7,0.1-0.9,0.3c-0.2,0.2-0.4,0.4-0.4,0.7c0,0.5,0.3,0.8,1,0.9l0.7,0.1c1.3,0.2,2,0.7,2,1.7
			c0,0.6-0.2,1-0.6,1.4c-0.4,0.3-1,0.5-1.7,0.5c-0.6,0-1.2-0.2-1.7-0.6c0,0.1,0,0.2,0,0.2c0,0.3-0.1,0.4-0.4,0.4
			c-0.3,0-0.4-0.2-0.4-0.5c0,0.1,0-0.1,0.1-0.6c0-0.1,0-0.2,0-0.3c0-0.2,0-0.4,0-0.5c0-0.2,0-0.3,0-0.4c0-0.3,0.1-0.4,0.4-0.4
			c0.2,0,0.3,0,0.3,0.1c0,0.1,0.1,0.3,0.1,0.6c0,0.3,0.2,0.6,0.5,0.8c0.3,0.2,0.8,0.3,1.3,0.3c0.4,0,0.7-0.1,1-0.3
			c0.3-0.2,0.4-0.4,0.4-0.7c0-0.5-0.4-0.8-1.3-0.9c-0.8-0.1-1.4-0.2-1.8-0.5c-0.4-0.2-0.6-0.6-0.6-1.2c0-0.5,0.2-1,0.6-1.3
			C16,115.6,16.5,115.4,17.2,115.4z"/>
		<path class="st3" d="M26.3,118.8l0-3.4c0-0.4,0-0.7-0.1-0.8c-0.1-0.1-0.2-0.2-0.4-0.2c-0.1,0-0.2,0-0.3,0c-0.1,0-0.3,0-0.3,0
			c-0.3,0-0.5-0.1-0.5-0.4c0-0.3,0.1-0.4,0.4-0.4c0.1,0,0.2,0,0.4,0c0.2,0,0.4,0,0.5,0c0.3,0,0.5,0,0.6,0c0.2,0,0.4,0,0.4,0
			c0.2,0,0.3,0.1,0.3,0.2c0,0.1,0,0.2,0,0.4c0,0,0,0.1,0,0.3c0,0.8-0.1,1.6-0.1,2.3v1.3c0,0.2,0,0.6,0,1c0,0.5,0,0.8,0,1
			c0,0.5,0.2,0.8,0.5,0.8c0.1,0,0.2,0,0.4,0c0.2,0,0.3,0,0.4,0c0.4,0,0.6,0.1,0.6,0.4c0,0.3-0.2,0.4-0.5,0.4c-0.1,0-0.3,0-0.4,0
			c-0.7-0.1-1.2-0.1-1.5-0.1c-0.3,0-0.8,0-1.3,0.1c-0.3,0-0.5,0.1-0.6,0.1c-0.3,0-0.5-0.1-0.5-0.4c0-0.3,0.2-0.4,0.6-0.4
			c0.1,0,0.2,0,0.4,0c0.2,0,0.3,0,0.4,0c0.3,0,0.4-0.1,0.5-0.3C26.3,120.2,26.3,119.7,26.3,118.8z"/>
		<path class="st3" d="M31.1,117.5c0.2-0.2,0.5-0.3,0.8-0.4c-0.4-0.2-0.7-0.5-0.9-0.7c-0.2-0.2-0.2-0.5-0.2-0.9
			c0-0.6,0.3-1.1,0.8-1.5c0.5-0.4,1.1-0.6,1.9-0.6s1.4,0.2,1.9,0.6c0.5,0.4,0.8,0.9,0.8,1.5c0,0.4-0.1,0.6-0.2,0.9
			c-0.2,0.2-0.5,0.5-0.9,0.7c0.3,0.1,0.6,0.3,0.8,0.4c0.5,0.4,0.8,1,0.8,1.7c0,0.8-0.3,1.4-0.9,1.8c-0.6,0.5-1.3,0.7-2.2,0.7
			c-1,0-1.7-0.2-2.3-0.7c-0.6-0.5-0.9-1.1-0.9-1.8C30.2,118.5,30.5,117.9,31.1,117.5z M33.4,117.5c-0.7,0-1.2,0.2-1.6,0.5
			s-0.6,0.7-0.6,1.2c0,0.5,0.2,0.9,0.6,1.2c0.4,0.3,0.9,0.5,1.5,0.5c0.6,0,1.1-0.2,1.5-0.5c0.4-0.3,0.6-0.7,0.6-1.2
			c0-0.5-0.2-0.9-0.6-1.2C34.6,117.7,34.1,117.5,33.4,117.5z M33.4,114.2c-0.5,0-0.9,0.1-1.2,0.4c-0.3,0.2-0.5,0.5-0.5,0.9
			c0,0.3,0.1,0.6,0.4,0.8c0.3,0.2,0.7,0.3,1.2,0.3s0.9-0.1,1.2-0.3c0.3-0.2,0.4-0.5,0.4-0.8c0-0.4-0.2-0.7-0.5-0.9
			C34.2,114.3,33.9,114.2,33.4,114.2z"/>
		<path class="st3" d="M38.7,121.7c-0.2,0-0.4-0.1-0.5-0.2c-0.1-0.1-0.2-0.3-0.2-0.5s0.1-0.4,0.2-0.5c0.1-0.1,0.3-0.2,0.5-0.2
			c0.2,0,0.4,0.1,0.5,0.2c0.1,0.1,0.2,0.3,0.2,0.5s-0.1,0.4-0.2,0.5C39.1,121.6,39,121.7,38.7,121.7z"/>
		<path class="st3" d="M45.1,118.9c0-0.1,0.1-0.2,0.2-0.3c-0.1,0-0.1-0.1-0.2-0.1c-0.2,0-0.3,0.1-0.5,0.3c-0.1,0.2-0.2,0.4-0.2,0.6
			c0,0.4,0.2,0.8,0.5,1.1c0.3,0.3,0.8,0.4,1.3,0.4c1.2,0,1.8-0.5,2-1.6c0.1-0.4,0.1-1.1,0.1-1.8v-0.4v-1.9c0-0.6-0.2-0.9-0.6-0.9
			c-0.1,0-0.2,0-0.2,0c-0.1,0-0.2,0-0.3,0c-0.1,0-0.2,0-0.3-0.1c-0.1-0.1-0.1-0.2-0.1-0.3c0-0.3,0.2-0.4,0.5-0.4c0,0,0.1,0,0.2,0
			l0.6,0.1c0.2,0,0.5,0,0.7,0c0.2,0,0.5,0,0.8-0.1l0.5-0.1c0,0,0.1,0,0.2,0c0.3,0,0.5,0.1,0.5,0.4c0,0.3-0.1,0.4-0.4,0.4
			c-0.1,0-0.2,0-0.3,0c-0.1,0-0.1,0-0.2,0c-0.4,0-0.6,0.3-0.6,0.9v2.2c0,1.2,0,2-0.1,2.4c-0.1,0.4-0.3,0.7-0.5,1
			c-0.6,0.6-1.4,1-2.3,1c-0.8,0-1.5-0.2-2-0.6c-0.5-0.4-0.8-1-0.8-1.7c0-0.5,0.2-0.9,0.5-1.3c0.3-0.3,0.7-0.5,1.2-0.5
			c0.3,0,0.6,0.1,0.8,0.3c0.2,0.2,0.3,0.4,0.3,0.7c0,0.2-0.1,0.4-0.2,0.5c-0.1,0.1-0.3,0.2-0.4,0.2c-0.1,0-0.3,0-0.4-0.1
			C45.2,119.1,45.1,119,45.1,118.9z"/>
		<path class="st3" d="M56.4,121.6c-0.6,0-1-0.3-1.2-0.8c-0.4,0.6-1,0.9-1.9,0.9c-0.6,0-1.1-0.2-1.5-0.5c-0.4-0.3-0.6-0.7-0.6-1.3
			c0-0.7,0.3-1.1,0.8-1.4c0.2-0.1,0.4-0.2,0.5-0.2c0.2,0,0.5-0.1,0.9-0.1c0.7-0.1,1.1-0.2,1.3-0.3c0.2-0.1,0.3-0.4,0.3-0.7
			c0-0.3-0.1-0.6-0.3-0.8c-0.2-0.2-0.5-0.3-0.9-0.3c-0.4,0-0.7,0.1-1,0.3c-0.1,0.1-0.2,0.2-0.2,0.2c0,0,0,0.1,0.1,0.1
			c0.1,0.1,0.2,0.2,0.2,0.4c0,0.2-0.1,0.3-0.2,0.4c-0.1,0.1-0.3,0.2-0.4,0.2c-0.2,0-0.4-0.1-0.5-0.2c-0.1-0.1-0.2-0.3-0.2-0.5
			c0-0.4,0.2-0.8,0.7-1.1c0.4-0.3,1-0.5,1.6-0.5c1.4,0,2.1,0.7,2.1,2.1v2.4c0,0.4,0,0.6,0,0.7c0,0.3,0.2,0.4,0.4,0.4
			c0.3,0,0.4-0.2,0.4-0.7v-0.6c0-0.2,0.1-0.4,0.4-0.4c0.3,0,0.4,0.2,0.4,0.6v0.1v0.7C57.5,121.3,57.1,121.6,56.4,121.6z M55,119.3
			v-0.8c-0.2,0.2-0.4,0.3-0.5,0.3c-0.2,0.1-0.5,0.1-1,0.2c-0.9,0.1-1.3,0.4-1.3,1c0,0.3,0.1,0.5,0.3,0.7c0.2,0.2,0.5,0.3,0.9,0.3
			c0.5,0,0.9-0.1,1.2-0.4C54.9,120.2,55,119.8,55,119.3z"/>
		<path class="st3" d="M60,116v0.3c0.5-0.6,1.1-0.9,1.9-0.9c0.4,0,0.8,0.1,1.2,0.3c0.4,0.2,0.6,0.5,0.8,0.8c0.1,0.3,0.2,0.6,0.2,1
			v2.2c0,0.3,0,0.5,0,0.6c0,0.3,0.1,0.4,0.3,0.4c0.1,0,0.2,0,0.3,0c0.1,0,0.2,0,0.2,0c0.1,0,0.2,0,0.3,0.1c0.1,0.1,0.1,0.2,0.1,0.3
			c0,0.1,0,0.2-0.1,0.3c-0.1,0.1-0.2,0.1-0.3,0.1c-0.1,0-0.3,0-0.5,0c-0.3,0-0.5,0-0.7,0c-0.2,0-0.4,0-0.5,0c-0.4,0-0.6,0.1-0.6,0.1
			c-0.3,0-0.5-0.1-0.5-0.4c0-0.2,0.1-0.4,0.4-0.4c0.1,0,0.1,0,0.2,0c0.2,0,0.2,0,0.3,0c0.2,0,0.3-0.2,0.3-0.6v-0.6v-0.7V118
			c0-0.4,0-0.7-0.1-0.9c-0.1-0.3-0.2-0.5-0.5-0.7c-0.3-0.2-0.6-0.3-0.9-0.3c-0.6,0-1.1,0.2-1.3,0.7c-0.2,0.3-0.3,0.8-0.3,1.6v1.6
			c0,0.3,0,0.6,0.1,0.7c0,0.1,0.1,0.2,0.3,0.2c0.1,0,0.1,0,0.3,0c0.1,0,0.2,0,0.3,0c0.2,0,0.4,0.1,0.4,0.4c0,0.3-0.2,0.4-0.5,0.4
			c-0.1,0-0.3,0-0.6-0.1c-0.2,0-0.4,0-0.6,0c-0.2,0-0.4,0-0.7,0c-0.3,0-0.5,0.1-0.6,0.1c-0.3,0-0.5-0.1-0.5-0.4
			c0-0.3,0.1-0.4,0.4-0.4c0,0,0.1,0,0.2,0c0.1,0,0.2,0,0.3,0c0.2,0,0.4-0.2,0.4-0.7v-1.3v-1.4V117c0-0.3-0.1-0.5-0.1-0.5
			c-0.1-0.1-0.1-0.1-0.3-0.1c-0.1,0-0.1,0-0.2,0c-0.1,0-0.2,0-0.2,0c-0.3,0-0.4-0.1-0.4-0.4c0-0.3,0.2-0.4,0.5-0.4c0,0,0.1,0,0.1,0
			l0.4,0c0.1,0,0.2,0,0.3,0c0.2,0,0.3,0,0.3,0C59.9,115.6,60,115.7,60,116z"/>
		<path class="st3" d="M70.7,121.2v-0.4c-0.4,0.6-1,0.9-1.8,0.9c-0.9,0-1.6-0.3-1.9-0.9c-0.2-0.3-0.2-0.5-0.3-0.9c0-0.2,0-0.5,0-1
			v-1c0-1.1-0.1-1.6-0.3-1.6c0,0-0.1,0-0.2,0c-0.1,0-0.2,0-0.2,0c-0.3,0-0.4-0.1-0.4-0.4c0-0.2,0.2-0.4,0.5-0.4c0.1,0,0.2,0,0.3,0
			c0.2,0,0.3,0,0.3,0c0.1,0,0.2,0,0.4,0c0.1,0,0.2,0,0.2,0c0.2,0,0.4,0.1,0.4,0.4v0.2v0.8l0,0.9v0.8c0,0.7,0.1,1.2,0.2,1.5
			c0.2,0.5,0.6,0.7,1.3,0.7c0.3,0,0.6-0.1,0.9-0.2c0.3-0.2,0.4-0.4,0.5-0.6c0.1-0.3,0.2-0.9,0.2-1.7v-0.6c0-0.5,0-0.7,0-0.8
			c0-0.4-0.1-0.6-0.3-0.6c-0.1,0-0.2,0-0.2,0H70c-0.3,0-0.4-0.1-0.4-0.4c0-0.3,0.2-0.4,0.5-0.4c0.1,0,0.2,0,0.3,0c0.1,0,0.3,0,0.3,0
			c0.1,0,0.2,0,0.3,0c0.1,0,0.2,0,0.3,0c0.2,0,0.4,0.1,0.4,0.4c0,0.1,0,0.2,0,0.3c0,0.3-0.1,0.7-0.1,1.3v1.8c0,0.5,0,0.7,0,0.8
			c0,0.4,0.1,0.6,0.3,0.6c0.1,0,0.1,0,0.2,0s0.2,0,0.2,0c0.3,0,0.4,0.1,0.4,0.4c0,0.3-0.2,0.4-0.5,0.4c-0.1,0-0.2,0-0.3,0
			c-0.2,0-0.3,0-0.4,0c0,0-0.1,0-0.2,0c-0.1,0-0.2,0-0.2,0C70.8,121.5,70.7,121.4,70.7,121.2z"/>
		<path class="st3" d="M78.5,121.6c-0.6,0-1-0.3-1.2-0.8c-0.4,0.6-1,0.9-1.9,0.9c-0.6,0-1.1-0.2-1.5-0.5c-0.4-0.3-0.6-0.7-0.6-1.3
			c0-0.7,0.3-1.1,0.8-1.4c0.2-0.1,0.4-0.2,0.5-0.2c0.2,0,0.5-0.1,0.9-0.1c0.7-0.1,1.1-0.2,1.3-0.3c0.2-0.1,0.3-0.4,0.3-0.7
			c0-0.3-0.1-0.6-0.3-0.8c-0.2-0.2-0.5-0.3-0.9-0.3c-0.4,0-0.7,0.1-1,0.3c-0.1,0.1-0.2,0.2-0.2,0.2c0,0,0,0.1,0.1,0.1
			c0.1,0.1,0.2,0.2,0.2,0.4c0,0.2-0.1,0.3-0.2,0.4c-0.1,0.1-0.3,0.2-0.4,0.2c-0.2,0-0.4-0.1-0.5-0.2c-0.1-0.1-0.2-0.3-0.2-0.5
			c0-0.4,0.2-0.8,0.7-1.1c0.4-0.3,1-0.5,1.6-0.5c1.4,0,2.1,0.7,2.1,2.1v2.4c0,0.4,0,0.6,0,0.7c0,0.3,0.2,0.4,0.4,0.4
			c0.3,0,0.4-0.2,0.4-0.7v-0.6c0-0.2,0.1-0.4,0.4-0.4c0.3,0,0.4,0.2,0.4,0.6v0.1v0.7C79.7,121.3,79.3,121.6,78.5,121.6z M77.2,119.3
			v-0.8c-0.2,0.2-0.4,0.3-0.5,0.3c-0.2,0.1-0.5,0.1-1,0.2c-0.9,0.1-1.3,0.4-1.3,1c0,0.3,0.1,0.5,0.3,0.7c0.2,0.2,0.5,0.3,0.9,0.3
			c0.5,0,0.9-0.1,1.2-0.4C77,120.2,77.2,119.8,77.2,119.3z"/>
		<path class="st3" d="M82.1,115.9v0.3c0.4-0.6,1-0.9,1.6-0.9c0.5,0,1,0.2,1.3,0.5c0.3,0.3,0.5,0.7,0.5,1.2c0,0.3-0.1,0.6-0.3,0.8
			c-0.2,0.2-0.4,0.3-0.7,0.3c-0.2,0-0.3-0.1-0.5-0.2c-0.1-0.1-0.2-0.2-0.2-0.4c0-0.1,0-0.2,0.1-0.3c0.1-0.1,0.2-0.1,0.3-0.1
			c0,0,0.1,0,0.2,0c0-0.1,0.1-0.2,0.1-0.3c0-0.2-0.1-0.4-0.3-0.6c-0.2-0.2-0.4-0.2-0.7-0.2c-0.6,0-1,0.3-1.2,0.8
			c-0.1,0.3-0.2,0.8-0.2,1.5v0.8c0,0.5,0,0.8,0,0.9c0,0.4,0.2,0.7,0.4,0.7c0.1,0,0.2,0,0.3,0c0.1,0,0.2,0,0.2,0
			c0.3,0,0.4,0.1,0.4,0.4c0,0.3-0.2,0.4-0.5,0.4h0c-0.1,0-0.3,0-0.5,0c-0.2,0-0.4,0-0.5,0c-0.3,0-0.6,0-0.7,0l-0.7,0.1
			c-0.3,0-0.5-0.1-0.5-0.4c0-0.2,0.2-0.4,0.5-0.4c0.1,0,0.1,0,0.2,0l0.2,0c0.1,0,0.1,0,0.2,0c0.2,0,0.3-0.2,0.3-0.5v-0.6l0-2.7
			c0-0.5-0.1-0.7-0.4-0.7c-0.1,0-0.1,0-0.3,0c-0.1,0-0.2,0-0.3,0c-0.3,0-0.4-0.1-0.4-0.4c0-0.3,0.2-0.4,0.5-0.4c0.1,0,0.2,0,0.4,0
			c0.2,0,0.3,0,0.4,0c0.1,0,0.2,0,0.3,0c0.1,0,0.1,0,0.2,0C82,115.6,82.1,115.7,82.1,115.9z"/>
		<path class="st3" d="M90.8,119.3c-0.2,0.2-0.3,0.5-0.3,0.7c0.4-0.4,0.8-0.6,1.3-0.6c0.5,0,0.9,0.2,1.5,0.6c0.6,0.4,1,0.7,1.3,0.7
			c0.2,0,0.4-0.1,0.5-0.2c0.1-0.1,0.2-0.3,0.2-0.6c0-0.1,0-0.2,0-0.3c-0.1,0.1-0.3,0.2-0.4,0.2c-0.3,0-0.5-0.2-0.5-0.5
			c0-0.2,0.1-0.3,0.2-0.4c0.1-0.1,0.3-0.2,0.5-0.2c0.3,0,0.5,0.1,0.7,0.3c0.2,0.2,0.3,0.5,0.3,0.8c0,0.5-0.2,0.9-0.5,1.2
			c-0.3,0.3-0.7,0.5-1.1,0.5c-0.4,0-0.9-0.2-1.5-0.7c-0.6-0.4-1.1-0.7-1.5-0.7c-0.4,0-0.7,0.2-0.8,0.5c0.1,0,0.1,0,0.1,0
			c0.2,0,0.3,0.1,0.3,0.3c0,0.4-0.2,0.5-0.6,0.5c-0.3,0-0.5-0.1-0.6-0.3c-0.2-0.2-0.2-0.5-0.2-0.9c0-1.4,0.9-2.4,2.8-3l0.8-0.3
			c0.9-0.3,1.4-0.8,1.4-1.5c0-0.5-0.2-0.9-0.5-1.2c-0.3-0.3-0.8-0.4-1.4-0.4c-0.5,0-1,0.1-1.3,0.3c-0.3,0.2-0.5,0.5-0.6,0.9
			c0.4,0,0.6,0.2,0.6,0.6c0,0.2-0.1,0.4-0.2,0.5c-0.1,0.1-0.3,0.2-0.6,0.2c-0.3,0-0.5-0.1-0.6-0.3c-0.2-0.2-0.2-0.4-0.2-0.7
			c0-0.6,0.3-1.2,0.9-1.6c0.6-0.4,1.3-0.6,2.2-0.6c0.8,0,1.5,0.2,2,0.7c0.5,0.4,0.8,1,0.8,1.7c0,0.5-0.1,0.9-0.4,1.2
			c-0.3,0.4-0.6,0.6-1.1,0.8c-0.1,0.1-0.6,0.2-1.4,0.5c-0.6,0.2-1,0.4-1.4,0.6C91.2,119,91,119.1,90.8,119.3z"/>
		<path class="st3" d="M100.2,121.7c-1,0-1.8-0.4-2.3-1.1c-0.6-0.7-0.9-1.7-0.9-3c0-1.3,0.3-2.3,0.9-3.1c0.6-0.8,1.4-1.1,2.4-1.1
			c1,0,1.8,0.4,2.3,1.1c0.6,0.7,0.9,1.7,0.9,2.9c0,1.3-0.3,2.4-0.9,3.2C102.1,121.4,101.3,121.7,100.2,121.7z M100.3,114.2
			c-1.4,0-2.2,1.1-2.2,3.2v0.2c0,1,0.2,1.8,0.6,2.4c0.4,0.6,0.9,0.8,1.6,0.8c0.7,0,1.3-0.3,1.7-0.9c0.4-0.6,0.6-1.5,0.6-2.5
			c0-1-0.2-1.8-0.6-2.4C101.6,114.5,101,114.2,100.3,114.2z"/>
		<path class="st3" d="M106.3,118.8l0-3.4c0-0.4,0-0.7-0.1-0.8c-0.1-0.1-0.2-0.2-0.4-0.2c-0.1,0-0.2,0-0.3,0c-0.1,0-0.3,0-0.3,0
			c-0.3,0-0.5-0.1-0.5-0.4c0-0.3,0.1-0.4,0.4-0.4c0.1,0,0.2,0,0.4,0c0.2,0,0.4,0,0.5,0c0.3,0,0.5,0,0.6,0c0.2,0,0.4,0,0.4,0
			c0.2,0,0.3,0.1,0.3,0.2c0,0.1,0,0.2,0,0.4c0,0,0,0.1,0,0.3c0,0.8-0.1,1.6-0.1,2.3v1.3c0,0.2,0,0.6,0,1c0,0.5,0,0.8,0,1
			c0,0.5,0.2,0.8,0.5,0.8c0.1,0,0.2,0,0.4,0c0.2,0,0.3,0,0.4,0c0.4,0,0.6,0.1,0.6,0.4c0,0.3-0.2,0.4-0.5,0.4c-0.1,0-0.3,0-0.4,0
			c-0.7-0.1-1.2-0.1-1.5-0.1c-0.3,0-0.8,0-1.3,0.1c-0.3,0-0.5,0.1-0.6,0.1c-0.3,0-0.5-0.1-0.5-0.4c0-0.3,0.2-0.4,0.6-0.4
			c0.1,0,0.2,0,0.4,0c0.2,0,0.3,0,0.4,0c0.3,0,0.4-0.1,0.5-0.3C106.3,120.2,106.3,119.7,106.3,118.8z"/>
		<path class="st3" d="M113.5,114.2c-0.7,0-1.3,0.3-1.7,0.9c-0.4,0.6-0.7,1.4-0.7,2.4c0.5-0.9,1.3-1.3,2.4-1.3
			c0.9,0,1.6,0.3,2.1,0.8c0.5,0.5,0.8,1.1,0.8,1.9c0,0.8-0.3,1.5-0.9,2.1c-0.6,0.5-1.3,0.8-2.2,0.8c-1,0-1.8-0.3-2.4-1
			s-0.9-1.6-0.9-2.7c0-1.4,0.3-2.5,1-3.4c0.6-0.8,1.5-1.3,2.6-1.3c0.7,0,1.2,0.2,1.7,0.5s0.7,0.7,0.7,1.2c0,0.2-0.1,0.4-0.2,0.6
			c-0.2,0.2-0.3,0.2-0.5,0.2c-0.2,0-0.3-0.1-0.4-0.2c-0.1-0.1-0.2-0.3-0.2-0.4c0-0.2,0.1-0.4,0.3-0.5
			C114.7,114.4,114.2,114.2,113.5,114.2z M113.3,117c-0.6,0-1.1,0.2-1.5,0.5c-0.4,0.3-0.6,0.8-0.6,1.4c0,0.6,0.2,1.1,0.6,1.5
			c0.4,0.4,0.9,0.5,1.5,0.5c0.6,0,1.1-0.2,1.5-0.6c0.4-0.4,0.6-0.9,0.6-1.5c0-0.6-0.2-1-0.6-1.4C114.4,117.2,113.9,117,113.3,117z"
			/>
	</g>
	<polygon points="210.5,84 205.4,91.9 198.5,85.5 195.6,94.4 187.3,90 186.7,99.3 177.6,97.1 179.2,106.3 169.9,106.4 173.8,114.9 
		164.8,117.3 170.7,124.6 162.5,129.2 170,134.8 163.3,141.2 171.9,144.8 167,152.7 176.2,154 173.4,162.9 182.7,161.8 182.2,171.2 
		191,167.8 192.8,177 200.4,171.6 204.5,180 210.5,172.8 216.5,180 220.6,171.6 228.2,177 230,167.8 238.8,171.2 238.3,161.8 
		247.5,162.9 244.7,154 254,152.7 249.1,144.8 257.7,141.2 251,134.8 258.5,129.2 250.3,124.6 256.2,117.3 247.2,114.9 251.1,106.4 
		241.7,106.3 243.4,97.1 234.3,99.3 233.7,90 225.4,94.4 222.4,85.5 215.6,91.9 	"/>
	<path class="st3" d="M204.4,132.2h-0.9V132c0-0.4-0.2-0.8-0.6-0.8c-0.5,0-0.6,0.4-0.6,0.8c0,0.5,0,0.7,0.5,0.9l0.7,0.3
		c0.8,0.3,1,0.8,1,1.8c0,1.1-0.4,1.9-1.6,1.9c-0.9,0-1.6-0.7-1.6-1.5v-0.3h0.9v0.3c0,0.3,0.2,0.7,0.6,0.7c0.6,0,0.7-0.4,0.7-1
		c0-0.7-0.1-0.8-0.5-1l-0.7-0.3c-0.8-0.3-1-0.8-1-1.6c0-1,0.5-1.8,1.6-1.8c0.9,0,1.5,0.7,1.5,1.4V132.2z"/>
	<path class="st3" d="M207.8,130.3h2.7v0.9h-1.8v1.9h1.6v0.9h-1.6v1.9h1.8v0.9h-2.7V130.3z"/>
	<path class="st3" d="M213.8,130.3h0.9v6.4h-0.9V130.3z"/>
	<path class="st3" d="M218.9,131.2h-1.1v-0.9h3v0.9h-1.1v5.5h-0.9V131.2z"/>
	<path class="st3" d="M238.8,126.2c-0.4-0.3-0.7-0.6-1.1-0.8c-0.3,1.1-0.5,2.1-0.8,3.1c-0.2,0.5-0.5,1-0.8,1.4
		c-0.4,0.5-0.9,0.6-1.5,0.5c-1.4-0.5-2.5-1.3-2.9-2.7c-0.2-0.9,0.1-1.7,0.8-2.2c0.8-0.6,1.8-0.8,2.8-0.9c0.4,0,0.8,0,1.3,0
		c0.2-0.9,0.3-1.8,0.4-2.6c0,0-0.1,0-0.1,0c-0.1,0.2-0.2,0.4-0.3,0.7c-0.1,0.2-0.2,0.4-0.3,0.5c-0.3,0.5-0.7,0.9-1.3,0.9
		c-0.7-0.1-1-0.6-1.2-1.2c0-0.2-0.1-0.4-0.1-0.5c-0.3,0.4-0.5,0.8-0.8,1.2c-0.3,0.4-0.7,0.7-1.3,0.6c-0.7-0.1-1.1-0.6-1.2-1.5
		c-0.2-1.3,0.1-2.5,0.5-3.6c0-0.1,0.1-0.2,0.1-0.4c-0.1,0.1-0.2,0.2-0.2,0.3c-1,1.6-1.8,3.2-2.1,5c-0.1,0.3-0.5,0.4-0.8,0.1
		c-0.3-0.3-0.4-0.7-0.3-1.1c0.1-0.6,0.2-1.1,0.2-1.7c0-0.1,0-0.3,0-0.4c-0.1,0.3-0.2,0.6-0.4,0.9c-0.3,0.5-0.5,1-0.9,1.4
		c-0.7,0.8-1.5,0.6-1.9-0.4c-0.1-0.3-0.2-0.6-0.3-1c-0.1,0.2-0.1,0.4-0.2,0.5c-0.2,0.4-0.4,0.9-0.7,1.2c-0.5,0.7-1.4,0.6-1.9-0.1
		c-0.2-0.3-0.3-0.7-0.4-1.1c-0.1,0.2-0.2,0.4-0.3,0.6c-0.2,0.3-0.4,0.6-0.7,0.8c-0.7,0.6-1.6,0.4-2-0.4c-0.4-0.7-0.4-1.6-0.3-2.3
		c0.1-0.8,0.3-1.6,0.5-2.5c-0.4-0.1-0.8-0.3-1.3-0.5c-0.2,0.8-0.4,1.6-0.6,2.4c-0.3,0.9-0.6,1.7-1.2,2.4c-0.1,0.2-0.3,0.3-0.5,0.5
		c-0.8,0.6-1.6,0.5-2-0.5c-0.1-0.3-0.2-0.6-0.3-0.9c-0.3,0.6-0.5,1.2-0.9,1.7c-0.5,0.7-1.3,0.8-1.9,0.2c-0.3-0.3-0.4-0.8-0.6-1.2
		c0-0.1,0-0.1,0-0.3c-0.2,0.3-0.3,0.5-0.4,0.7c-0.5,0.8-1.1,1-1.7,0.8c-0.8-0.2-1-0.9-1.1-1.5c-0.2-1.2,0.1-2.4,0.5-3.6
		c0-0.1,0.1-0.3,0.1-0.4c-0.1,0.1-0.2,0.2-0.3,0.4c-1,1.6-1.8,3.2-2.1,5c0,0.2-0.1,0.3-0.3,0.3c-0.5,0-0.8-0.3-0.8-0.8
		c0-0.6,0.1-1.1,0.2-1.7c0-0.3,0.1-0.6,0.1-0.9c-0.2,0.5-0.3,1.1-0.5,1.6c-0.2,0.5-0.4,0.9-0.7,1.3c-0.6,0.8-1.8,0.6-2.1-0.3
		c-0.2-0.5-0.3-1.1-0.3-1.6c0-1.1,0.2-2.1,0.6-3.2c-0.5-0.2-0.9-0.3-1.4-0.5c-0.2,0.6-0.3,1.2-0.5,1.7c-0.4,0.9-0.7,1.9-1.2,2.7
		c-0.4,0.8-1.1,1.3-2,1.4c-1.3,0.2-2.3-0.5-2.5-1.8c-0.3-1.6,0.1-3,1.1-4.3c0.6-0.7,1.1-0.9,1.9-0.3c0.1,0,0.1,0.1,0.2,0.1
		c0.7,0.3,1,0.6,0.8,1.4c-0.1,0.6-0.3,1.2-0.6,1.7c-0.5,0.9-1.1,1.1-2.1,0.9c0,0.5,0.1,0.9,0.6,1.2c0.4,0.3,0.8,0.2,1.2,0
		c0.6-0.3,1-0.9,1.3-1.5c0.6-1,0.9-2.1,1.1-3.2c0-0.1,0-0.4-0.2-0.5c-0.5-0.6-0.6-1.3-0.2-1.9c0.3-0.4,0.9-0.5,1.3-0.2
		c0.1,0.1,0.1,0.3,0.1,0.4c-0.1,0.5-0.2,1-0.3,1.6c0.3,0.1,0.6,0.2,0.9,0.3c0.2,0.1,0.5,0.1,0.7,0.2c1,0.3,1,0.4,0.8,1.4
		c-0.2,0.8-0.3,1.6-0.3,2.4c0,0.4,0,0.8,0.4,1c0.5,0.1,0.6-0.4,0.8-0.7c0.7-1.4,1.1-2.9,1.3-4.4c0-0.2,0.1-0.4,0.1-0.6
		c0.6-0.2,1.2,0.1,1.2,0.8c0,0.8-0.1,1.6-0.2,2.4c0,0.1,0,0.2,0,0.3c0.1-0.1,0.1-0.3,0.2-0.4c0.5-0.8,1-1.6,1.5-2.3
		c0.2-0.3,0.5-0.5,0.9-0.3c0.5,0.3,0.7,0.7,0.6,1.2c-0.2,0.9-0.4,1.9-0.5,2.8c0,0.2,0,0.4,0,0.6c0.1,0.6,0.5,0.7,1,0.4
		c0.5-0.4,0.8-1,0.9-1.6c0.2-0.9,0.5-1.8,1-2.6c0.7-0.9,1.5-1.1,2.6-0.5c0.2-0.9,0.4-1.7,0.6-2.5c0.1-0.5,0.3-1,0.4-1.5
		c0.1-0.3,0.2-0.3,0.4-0.2c0.5,0.2,0.8,0.6,0.8,1.2c0,1-0.4,1.9-0.7,2.7c-0.5,1.2-0.7,2.4-0.7,3.7c0,0.4,0,0.8,0.4,0.9
		c0.4,0.1,0.6-0.2,0.9-0.5c0.8-1.1,1.3-2.4,1.6-3.8c0-0.1-0.1-0.3-0.2-0.3c-0.6-0.6-0.7-1.3-0.2-1.9c0.3-0.4,0.9-0.5,1.3-0.1
		c0.1,0.1,0.1,0.2,0.1,0.3c-0.1,0.5-0.2,1.1-0.3,1.6c0.5,0.1,1,0.3,1.5,0.4c0.2,0.1,0.5,0.2,0.7,0.2c0.3,0.1,0.4,0.3,0.3,0.7
		c-0.2,1-0.3,2-0.4,2.9c0,0.3,0,0.8,0.4,0.9c0.4,0.1,0.7-0.2,0.9-0.5c0.3-0.5,0.5-1.1,0.8-1.7c0.3-0.7,0.5-1.4,0.8-2.1
		c0.7-1.1,1.6-1.2,2.7-0.5c0-0.1,0.1-0.2,0.1-0.3c0,0,0,0,0.1,0c0.9,0.1,1.2,0.6,1,1.5c-0.2,0.8-0.5,1.7-0.3,2.6
		c0,0.2,0.2,0.5,0.3,0.7c0.2-0.1,0.5-0.3,0.6-0.4c0.8-1.2,1.2-2.6,1.5-4c0-0.2,0.1-0.3,0.1-0.5c0.1-0.5,0.4-0.7,0.8-0.4
		c0.4,0.2,0.5,0.6,0.4,1c-0.1,0.7-0.2,1.4-0.3,2.2c0,0.1,0,0.3,0,0.4c0-0.1,0.1-0.2,0.1-0.3c0.4-0.9,0.9-1.9,1.6-2.6
		c0.2-0.2,0.5-0.5,0.9-0.3c0.5,0.3,0.7,0.7,0.6,1.2c-0.2,0.8-0.4,1.7-0.5,2.5c-0.1,0.3,0,0.7,0.1,1.1c0.1,0.4,0.5,0.6,0.9,0.3
		c0.2-0.2,0.5-0.4,0.6-0.7c0.3-0.5,0.4-1.1,0.6-1.7c0.2-0.6,0.4-1.2,0.7-1.7c0.7-1.1,1.6-1.3,2.7-0.5c0-0.2,0.1-0.4,0.1-0.5
		c0.8,0,1.2,0.4,1.2,1.1c0,0.2,0,0.3-0.1,0.5c-0.6,1.8-0.6,3.6-0.9,5.5c0,0,0,0.1,0,0.1c0.3,0.1,0.7,0.2,1,0.4
		c0.2,0.1,0.4,0.4,0.4,0.6C239.2,125.9,239,126.2,238.8,126.2z M236.4,125.3c-1-0.1-1.9,0-2.7,0.4c-0.5,0.2-0.9,0.5-1.2,1
		c-0.3,0.6-0.3,1.2,0,1.8c0.3,0.5,0.8,0.8,1.4,0.7c0.6-0.1,1-0.4,1.3-0.9C235.8,127.4,236.1,126.4,236.4,125.3z M235.1,121.7
		c0,0.1,0,0.3,0,0.4c0.1,0.5,0.4,0.6,0.8,0.3c0.2-0.2,0.4-0.4,0.5-0.7c0.5-0.9,0.8-1.9,0.9-3c0-0.3-0.1-0.4-0.4-0.5
		c-0.4-0.1-0.7,0-1,0.5C235.4,119.7,235.2,120.7,235.1,121.7z M210.4,122.1c0,0.1,0,0.3,0.1,0.4c0.1,0.5,0.4,0.6,0.8,0.2
		c0.1-0.1,0.2-0.3,0.3-0.4c0.8-1.1,0.9-2.4,1-3.7c0-0.1-0.1-0.2-0.2-0.2c-0.4-0.1-0.7,0.1-0.9,0.4
		C210.9,119.7,210.5,120.8,210.4,122.1z M222.5,121.7c0,0.1,0,0.3,0,0.4c0.1,0.2,0.2,0.4,0.3,0.5c0.2,0,0.5-0.1,0.6-0.2
		c0.2-0.2,0.4-0.5,0.5-0.8c0.3-0.9,0.5-1.9,0.8-2.9c0-0.1-0.1-0.3-0.3-0.4c-0.4-0.2-0.7,0-1,0.5
		C222.8,119.7,222.6,120.7,222.5,121.7z M193.8,121.1c0.4,0.1,0.6-0.1,0.8-0.4c0.5-0.7,0.8-1.5,0.8-2.4c0-0.2-0.1-0.3-0.2-0.5
		c-0.2,0.1-0.4,0.1-0.4,0.3C194.2,119,193.9,120,193.8,121.1z"/>
	<path class="st3" d="M185.5,113c-1,0-2.1-0.1-3,0.4c0,0,0,0.1,0,0.1c0.2,0,0.5,0.1,0.7,0.1c1.2-0.1,2.4-0.3,3.6-0.4
		c2.3-0.2,4.5-0.5,6.8-0.7c0.5,0,1.1,0,1.7,0.1c0.5,0.1,1.1,0.3,1.3,0.9c0.2,0.6-0.2,1.1-0.6,1.6c-0.2-0.6-0.7-0.8-1.1-0.8
		c-1,0-2.1,0-3.1,0c-0.7,0-1.3,0.1-1.9,0.2c-0.2,0.7-0.4,1.3-0.5,1.9c-0.1,0.4-0.2,0.9-0.3,1.3c0.5,0,1,0,1.5,0
		c0.9,0,1.1,0.2,1.2,1.2c-0.8,0.1-1.7,0.1-2.5,0.2c-0.3,0-0.5,0.1-0.5,0.5c-0.1,1-0.3,1.9-0.3,2.8c-0.1,0.6,0,1.3,0,2
		c-0.5,0.3-1.5-0.2-1.5-1c0-0.6,0.1-1.3,0.2-1.9c0.1-0.8,0.4-1.5,0.6-2.3c-0.9,0-1.6-0.2-1.8-1.3c0.6,0,1.3-0.1,1.9-0.1
		c0.2,0,0.4-0.1,0.5-0.3c0.3-1,0.6-1.9,0.9-2.9c-0.9,0.1-1.7,0.2-2.5,0.2c-1.1,0-2.2,0-3.3,0c-0.3,0-0.5-0.1-0.8-0.3
		c-0.7-0.4-0.7-1.2,0-1.6c0.7-0.4,1.5-0.5,2.2-0.4c0.3,0,0.7,0.1,1,0.2C185.6,112.9,185.6,113,185.5,113z"/>
	<g>
		<path d="M13.5,9.8c-0.6,0-1.2,0.1-1.8,0.1c-0.2,0-0.4,0.2-0.5,0.4c-1.1,2.1-2.2,4.2-3.7,6c-0.6,0.7-1.3,1.4-2.1,2
			c-2.1,1.5-3.9,0.7-4.4-1.8c-0.3-1.6,0-3.1,1-4.5c0.3-0.5,0.8-0.8,1.4-0.5c-0.6,1-1,2.1-1.2,3.2c0,0.1,0,0.2,0,0.2
			c0,0.5,0,1.1,0.4,1.4c0.5,0.3,1.1,0.1,1.5-0.2c0.8-0.7,1.7-1.3,2.4-2.1c1.1-1.3,2.1-2.7,3.2-4.1c-2.3-0.2-4.5,0.2-6.5-0.8
			C3.1,9.2,3,9,2.8,8.7c0.9-0.1,1.7-0.2,2.5-0.3C7,8.2,8.8,8.1,10.6,7.9c0.2,0,0.5-0.2,0.6-0.4c1.1-2.1,2.2-4.2,3.3-6.3
			c0.1-0.2,0.2-0.3,0.3-0.6c0.5,0.2,0.9,0.4,1.3,0.7c0.4,0.3,0.5,0.8,0.4,1.3c-0.3,1.7-0.6,3.4-0.9,5.2c0.5,0.1,0.9,0.1,1.2,0.2
			c0.5,0.1,0.7,0.4,0.6,0.9c-0.1,0.5-0.3,0.7-0.8,0.7c-0.4,0-0.7,0-1.1,0c-0.1,2-0.3,3.9,0.1,5.7c0.1,0.6,0.3,1.1,1,1.2
			c-0.2,0.7-0.7,1.1-1.3,1.3c-0.7,0.3-1.3,0-1.7-0.6c-0.5-0.9-0.6-1.9-0.5-2.9c0-1.2,0.2-2.5,0.3-3.7C13.5,10.4,13.5,10.1,13.5,9.8z
			 M14.6,3.2c0,0-0.1,0-0.1,0c-0.6,1.5-1.3,3.1-1.9,4.6c0.5,0,0.9,0,1.3,0C14.1,6.2,14.3,4.7,14.6,3.2z"/>
		<path d="M38.8,16.6c0.7,1,1.3,1.5,2.3,1.7c0,0.7-0.7,1.2-1.5,0.9c-0.4-0.2-0.8-0.5-1.2-0.8c-0.3-0.2-0.5-0.5-0.6-0.8
			c-0.2-0.4-0.4-0.3-0.7-0.3c-0.6,0.1-1.3,0.3-1.9,0.2c-1.6-0.2-2.4-1.7-1.9-3.4c0.3-1.2,1.1-2.1,2-2.9c0.3-0.3,0.3-0.5,0.4-0.9
			c0-0.8,0-1.7,0.2-2.5c0.4-1.7,2.3-2.5,3.8-1.6c0.1,0.1,0.2,0.2,0.2,0.4c0.1,1-0.1,2-0.8,2.7c-0.5,0.5-1,1-1.6,1.4
			c-0.3,0.2-0.4,0.4-0.3,0.8c0.2,1.3,0.6,2.6,1.1,3.8c0,0.1,0.1,0.2,0.2,0.4c0.7-0.8,1.1-1.7,0.8-2.7c-0.1-0.7-0.6-0.9-1.4-0.9
			c-0.2-0.6,0-1,0.6-1.2c0.4-0.1,0.9-0.2,1.4-0.2c0.7-0.1,1.3-0.2,2-0.2c0.4,1,0,1.6-1.1,1.7c-0.3,0-0.6,0-0.9,0.1
			c0.9,0.9,1,1.7,0.3,2.8C39.7,15.7,39.3,16.1,38.8,16.6z M37.2,16.7c-0.5-1.5-1-2.9-1.5-4.4c-0.8,0.9-1.1,1.9-0.9,3.1
			C35.1,16.7,36.1,17.3,37.2,16.7z M36.9,9.8c0,0,0.1,0.1,0.1,0.1c0.6-0.6,1.2-1.2,1.7-1.8c0.2-0.2,0.3-0.5,0.4-0.8
			c0.1-0.2,0-0.3-0.3-0.4c-0.6-0.1-1,0.1-1.4,0.5C37,8.1,36.9,9,36.9,9.8z"/>
		<path d="M65.1,18.2c-0.3,0.9,3.2,1.6,2.5,1.6c-0.9,0-5.7-0.6-6.1-1.3c-0.5-1.1-0.6-2.3-0.7-3.5c0-0.3,0-0.6,0-0.8
			c-0.5,0.6-1,1.2-1.6,1.7c-2.1,1.6-4.7,0.5-5-2.1c-0.3-2,0.2-3.9,1.4-5.6c0.8-1,1.7-1.4,2.9-0.6c0.1,0.1,0.2,0.1,0.4,0.2
			c0.6,0.1,0.9,0.5,1,1.1c0.2,1.5-0.3,2.9-1.4,4c-0.6,0.6-1.1,0.7-2.3,0.4c0,0.7,0.3,1.4,0.9,1.8c0.6,0.4,1.2,0.2,1.8-0.1
			c0.9-0.5,1.5-1.3,1.8-2.2c0.3-0.8,0.4-1.7,0.5-2.6c0.2-0.9,0.3-1.8,0.5-2.7c0.4-1.9,1-3.7,1.9-5.4c0.3-0.5,0.6-1,1-1.4
			c0.8-0.8,1.8-0.6,2.1,0.5C66.9,1.7,67,2.5,67,3.2c-0.2,2.9-0.9,5.7-2.6,8.1c-0.3,0.4-0.6,0.7-0.9,1c-0.3,0.2-0.4,0.5-0.4,0.8
			c0.1,0.9,0,1.9,0.2,2.8C63.3,17,63.8,17.9,65.1,18.2z M63.2,11.3c1.5-1.1,3.4-8.5,2.6-9.9C64.9,2,63.4,7.7,63.2,11.3z M56.2,12.8
			c0.4-0.2,0.8-0.3,1-0.5c1-1,1.4-2.3,1.3-3.7c0-0.2-0.1-0.4-0.2-0.5c-0.2,0-0.4,0.1-0.5,0.2C56.7,9.5,56.3,11,56.2,12.8z"/>
		<path d="M44.6,8.3c0.9-0.1,1.8-0.1,2.7-0.2c0.2,0,0.4-0.1,0.5-0.2c0.5-1.4,0.9-2.8,1.4-4.3c-0.7,0.1-1.3,0.1-1.9,0.2
			C45.2,4,43.1,4.3,41,3.9c-1.1-0.2-1.7-0.7-1.7-1.4c0-0.6,0.5-1.2,1.6-1.5c1-0.3,2.1-0.3,3.1-0.1c0.2,0,0.4,0.2,0.6,0.3
			c-1.5,0-3-0.1-4.3,0.7c0,0.1,0,0.2,0,0.2c0.4,0,0.8,0.1,1.1,0.1c1.9-0.2,3.8-0.4,5.7-0.7c3.3-0.4,6.6-1,9.9-0.9
			c0.6,0,1.3,0.2,1.9,0.4c1.1,0.4,1.4,1.3,0.9,2.4c-0.2,0.3-0.4,0.5-0.6,0.9c-0.3-1-1.1-1.1-1.9-1.2c-2.3-0.2-4.6,0.1-6.8,0.4
			c-0.1,0.4-0.1,0.7-0.2,1.1c-0.3,1.1-0.6,2.3-1,3.5c0.7,0,1.4,0,2,0c1.4,0,1.6,0.2,1.8,1.7c-1.4,0.1-2.8,0.2-4.2,0.3
			c-0.4,2.4-0.9,4.8-0.5,7.3c-1.3,0.5-2.6-0.6-2.3-2.2c0.2-1.5,0.6-2.9,0.9-4.3c0.1-0.2,0.1-0.5,0.2-0.8
			C45.8,10.2,44.9,9.8,44.6,8.3z"/>
		<path d="M25.9,7.4c1.4,0.1,1.9,0.7,1.7,2c-0.2,1.3-0.5,2.6-0.7,3.9c0,0.2,0,0.5,0,0.7c0.2,0.8,0.8,1,1.4,0.5
			c0.4-0.3,0.6-0.8,0.9-1.3c0.3-0.5,0.4-1.1,0.8-1.6c0,0.2,0.1,0.4,0.1,0.5c-0.2,1.4-0.8,2.6-1.6,3.7c-0.4,0.5-1,0.9-1.8,0.8
			c-0.8-0.2-1.2-0.7-1.4-1.4c-0.1-0.3-0.2-0.7-0.2-1c-0.5,0.7-0.9,1.5-1.5,2.2c-0.4,0.4-0.9,0.8-1.4,1c-1.2,0.6-2.3,0.2-3-0.9
			c-0.2-0.3-0.3-0.6-0.5-1c-0.2,0-0.4,0.1-0.7,0.1c-0.3,0-0.5-0.1-0.7-0.2c-0.1,0-0.1-0.3-0.1-0.4c0-0.1,0.2-0.1,0.3-0.2
			c0.1,0,0.2,0,0.2,0c0.8-0.1,0.8-0.2,0.8-1c-0.1-3.7,0.6-7.2,2-10.6c0.3-0.8,0.8-1.5,1.3-2.1c0.3-0.5,0.8-0.8,1.4-0.6
			c0.6,0.2,0.8,0.7,1,1.2c0.3,1.2,0.2,2.5,0,3.7c-0.5,3.1-1.5,6.1-3.5,8.6c-0.1,0.1-0.1,0.3-0.1,0.5c0.1,0.6,0.2,1.2,0.9,1.4
			c0.6,0.3,1.1-0.1,1.6-0.5c1.3-1.2,2-2.7,2.2-4.4C25.4,9.7,25.6,8.6,25.9,7.4z M23.2,1.6c-1.1,0.9-2.9,8.8-2.6,11
			C22.5,9.1,23.3,5.6,23.2,1.6z"/>
		<path d="M73.1,14.8c-0.8,1.3-1.5,2.4-2.2,3.6c-0.6-0.3-0.9-0.9-0.5-1.6c0.5-0.9,1.2-1.7,1.9-2.6c0.3-0.3,0.4-0.6,0.2-1
			c-0.3-0.9-0.5-1.8-0.7-2.6c-0.3,1.1-0.5,2.3-0.9,3.5c-0.2,0.7-0.6,1.4-1.1,1.9c-1,1.1-2.5,0.8-3-0.6c-0.1-0.4-0.2-0.9-0.3-1.3
			c-0.1-2.3,0.5-4.5,0.9-6.7c1.4,0.1,1.9,0.7,1.6,1.9c-0.2,1.3-0.5,2.6-0.7,4c0,0.2-0.1,0.5,0,0.7c0.1,0.3,0.4,0.7,0.6,0.7
			c0.2,0.1,0.7-0.2,0.8-0.4c0.4-0.7,0.7-1.5,0.9-2.3c0.3-1.4,0.5-2.9,0.7-4.4c1.3,0,1.8,0.3,2.1,1.6c0.2,0.9,0.4,1.7,0.6,2.6
			c0.1,0,0.1,0,0.2,0.1c1.2-1.7,2.3-3.4,3.5-5.1c0.6,0.6,0.7,1.1,0.2,1.9c-0.9,1.2-1.8,2.4-2.7,3.6c-0.2,0.3-0.9,0.5-0.5,1.2
			c0.5,0.8,1.1,1.2,1.9,1.1c0.7-0.1,1.3-0.5,1.7-1.1c0.3-0.4,0.4-0.9,0.6-1.4c0.1-0.1,0.1-0.3,0.2-0.4c0.1,0,0.1,0,0.2,0
			c0,0.2,0.1,0.5,0,0.7c-0.3,1.4-0.9,2.7-2,3.6c-1.5,1.3-2.9,1.1-4-0.6C73.4,15.2,73.3,15,73.1,14.8z"/>
		<path d="M26.2,4.5c0,0,0-0.1,0-0.1c0-0.6,0-1.2,0.6-1.4c0.7-0.2,1.3,0.1,1.8,0.6c0.2,0.2,0.2,0.5,0.2,0.8
			c-0.1,0.5-0.3,1.1-0.6,1.6c-0.4,0.8-1.2,0.8-1.6,0.1c-0.2-0.4-0.3-1-0.5-1.5C26.2,4.5,26.2,4.5,26.2,4.5z"/>
		<path d="M67.8,4.4c0-0.1,0-0.1,0-0.2c0-0.5,0-1.2,0.7-1.4c0.5-0.2,1.5,0.3,1.8,0.8c0,0,0.1,0.1,0.1,0.1c0.2,0.4-0.5,2.5-0.9,2.7
			c-0.3,0.2-1-0.1-1.2-0.5c-0.2-0.5-0.3-1-0.5-1.5C67.7,4.5,67.7,4.4,67.8,4.4z"/>
	</g>
	<g>
		<path class="st3" d="M193,150c-0.2,0.3-0.4,0.6-0.4,1c0.5-0.5,1.1-0.8,1.7-0.8c0.6,0,1.3,0.3,2,0.8c0.8,0.6,1.4,0.9,1.8,0.9
			c0.3,0,0.5-0.1,0.7-0.3c0.2-0.2,0.3-0.5,0.3-0.8c0-0.1,0-0.2-0.1-0.4c-0.2,0.2-0.4,0.3-0.6,0.3c-0.5,0-0.7-0.2-0.7-0.7
			c0-0.2,0.1-0.4,0.3-0.6c0.2-0.2,0.4-0.2,0.7-0.2c0.4,0,0.7,0.1,1,0.4c0.2,0.3,0.4,0.7,0.4,1.1c0,0.7-0.2,1.2-0.6,1.7
			c-0.4,0.5-0.9,0.7-1.5,0.7c-0.6,0-1.2-0.3-2-0.9c-0.8-0.6-1.5-0.9-2.1-0.9s-1,0.2-1.1,0.6c0.1,0,0.2,0,0.2,0
			c0.3,0,0.5,0.2,0.5,0.5c0,0.5-0.3,0.7-0.8,0.7c-0.4,0-0.6-0.2-0.9-0.5c-0.2-0.3-0.3-0.7-0.3-1.2c0-1.9,1.3-3.2,3.9-4l1.2-0.4
			c1.3-0.4,1.9-1.1,1.9-2.1c0-0.7-0.2-1.2-0.7-1.6c-0.5-0.4-1.1-0.6-1.9-0.6c-0.7,0-1.3,0.1-1.8,0.4c-0.5,0.3-0.7,0.7-0.8,1.2
			c0.6,0,0.9,0.3,0.9,0.8c0,0.3-0.1,0.5-0.3,0.7c-0.2,0.2-0.5,0.3-0.8,0.3c-0.4,0-0.7-0.1-0.9-0.4s-0.3-0.6-0.3-1
			c0-0.9,0.4-1.6,1.2-2.2c0.8-0.6,1.8-0.9,2.9-0.9c1.1,0,2.1,0.3,2.8,0.9s1.1,1.4,1.1,2.3c0,0.6-0.2,1.2-0.5,1.7
			c-0.3,0.5-0.8,0.9-1.4,1.1c-0.2,0.1-0.8,0.3-1.9,0.7c-0.8,0.3-1.4,0.5-1.9,0.8C193.6,149.5,193.3,149.7,193,150z"/>
		<path class="st3" d="M222.4,150c-0.2,0.3-0.4,0.6-0.4,1c0.5-0.5,1.1-0.8,1.7-0.8c0.6,0,1.3,0.3,2,0.8c0.8,0.6,1.4,0.9,1.8,0.9
			c0.3,0,0.5-0.1,0.7-0.3c0.2-0.2,0.3-0.5,0.3-0.8c0-0.1,0-0.2-0.1-0.4c-0.2,0.2-0.4,0.3-0.6,0.3c-0.5,0-0.7-0.2-0.7-0.7
			c0-0.2,0.1-0.4,0.3-0.6c0.2-0.2,0.4-0.2,0.7-0.2c0.4,0,0.7,0.1,1,0.4c0.2,0.3,0.4,0.7,0.4,1.1c0,0.7-0.2,1.2-0.6,1.7
			c-0.4,0.5-0.9,0.7-1.5,0.7c-0.6,0-1.2-0.3-2-0.9c-0.8-0.6-1.5-0.9-2.1-0.9s-1,0.2-1.1,0.6c0.1,0,0.2,0,0.2,0
			c0.3,0,0.5,0.2,0.5,0.5c0,0.5-0.3,0.7-0.8,0.7c-0.4,0-0.6-0.2-0.9-0.5c-0.2-0.3-0.3-0.7-0.3-1.2c0-1.9,1.3-3.2,3.9-4l1.2-0.4
			c1.3-0.4,1.9-1.1,1.9-2.1c0-0.7-0.2-1.2-0.7-1.6c-0.5-0.4-1.1-0.6-1.9-0.6c-0.7,0-1.3,0.1-1.8,0.4c-0.5,0.3-0.7,0.7-0.8,1.2
			c0.6,0,0.9,0.3,0.9,0.8c0,0.3-0.1,0.5-0.3,0.7c-0.2,0.2-0.5,0.3-0.8,0.3c-0.4,0-0.7-0.1-0.9-0.4s-0.3-0.6-0.3-1
			c0-0.9,0.4-1.6,1.2-2.2c0.8-0.6,1.8-0.9,2.9-0.9c1.1,0,2.1,0.3,2.8,0.9s1.1,1.4,1.1,2.3c0,0.6-0.2,1.2-0.5,1.7
			c-0.3,0.5-0.8,0.9-1.4,1.1c-0.2,0.1-0.8,0.3-1.9,0.7c-0.8,0.3-1.4,0.5-1.9,0.8C223,149.5,222.7,149.7,222.4,150z"/>
		<path class="st3" d="M205.4,153.2c-1.4,0-2.4-0.5-3.2-1.5c-0.8-1-1.2-2.4-1.2-4.1c0-1.8,0.4-3.2,1.2-4.2c0.8-1,1.9-1.5,3.3-1.5
			c1.3,0,2.4,0.5,3.2,1.5c0.8,1,1.2,2.3,1.2,4c0,1.8-0.4,3.3-1.2,4.3C207.9,152.7,206.8,153.2,205.4,153.2z M205.6,143.1
			c-2,0-3,1.5-3.1,4.4v0.2c0,1.4,0.3,2.5,0.8,3.2s1.2,1.1,2.2,1.1c1,0,1.7-0.4,2.3-1.2s0.8-2,0.8-3.4c0-1.4-0.3-2.5-0.8-3.2
			C207.2,143.4,206.5,143.1,205.6,143.1z"/>
		<path class="st3" d="M215.4,153.2c-1.4,0-2.4-0.5-3.2-1.5c-0.8-1-1.2-2.4-1.2-4.1c0-1.8,0.4-3.2,1.2-4.2c0.8-1,1.9-1.5,3.3-1.5
			c1.3,0,2.4,0.5,3.2,1.5c0.8,1,1.2,2.3,1.2,4c0,1.8-0.4,3.3-1.2,4.3C217.9,152.7,216.8,153.2,215.4,153.2z M215.5,143.1
			c-2,0-3,1.5-3.1,4.4v0.2c0,1.4,0.3,2.5,0.8,3.2s1.2,1.1,2.2,1.1c1,0,1.7-0.4,2.3-1.2s0.8-2,0.8-3.4c0-1.4-0.3-2.5-0.8-3.2
			C217.2,143.4,216.5,143.1,215.5,143.1z"/>
	</g>
</g>
</svg>
