<?xml version="1.0" encoding="utf-8"?>
<svg version="1.1" id="Ebene_1" xmlns="http://www.w3.org/2000/svg" xmlns:xlink="http://www.w3.org/1999/xlink" x="0px" y="0px"
	 viewBox="0 0 389.5 590.1" style="enable-background:new 0 0 529.5 590.1;" xml:space="preserve">
<style type="text/css">
	.st1{fill:#FFFFFF;stroke: lightgrey;}
	.st2{fill:none;stroke:#000000;stroke-miterlimit:10;}
</style>
<g id="Landesgrenze">
	<path class="st1" d="M40.5,172.3l2.6-7.4h3.5c0,0-4.8-6.2-3-7.2s3-2.5,3-2.5l4.5,7l8.2-4l-1.8-4.5l1.8-5.8h5c0,0-0.5-4.2-2.8-6.5
		s-1.2-0.5-2.2-2.2s-1.8-5.5-1.8-5.5l-4-2.5l1.8-5.5h4.8l0.8,1.8l1,4.5l4.8,1.2l2.2,5l1.2,0.2l1.8,1.5v7.2l2,4.2l3.8-1.2
		c0,0,1.8-1.8,1.5-6.2s-1.5-6-1.5-6s1.2-4.6-0.4-5.9c-1.7-1.3-3.8-3.2-3.8-3.2l1-1.7l8-1.5c0,0-0.8-2.5,1.2-3s3-0.7,3-0.7l6.2-5.3
		c0,0,4.8-6,5.2-6.7c0.3-0.7,0.7-4,0.7-4l3.5-3l5.7-3h2.5l8.3-1l1.8-5.2l-6.8-3L116,88c0,0,4.5-7.7,4.3-10.5s0-4,0-4
		s-5.7,3.3-5.5,2.8s3.5-4.3,3.5-4.3l2-1.2l-1.2-2.5l2-3.5h2.3l-1.5-3.8l8.2-4l2.7-4l3-0.7l7-8.5l12,4.7c0,0,1,2.3,0,2.3
		s-3.5,1.8-3.5,1.8l2.7,3.3l2.3-2.2l1.2,2h2.7l2.2-7.5c0,0,3.3-4.8,3.3-5.3s0-7.7,0-7.7l4.7-2.2l7.3,5.7l17.7,0.5
		c0,0,14-13.5,18.2-14.2c4-0.5,14.2-4.3,14.2-4.3l4.8-6.5V7.4l5.8-0.8c0,0-2.3,3.2-1,3.8c1.3,0.7,4-1.2,4-1.2V6.5l-1.6-1.8l1.7-1.2
		c0,0,2,3,3.5,1.2s1.5-1.8,1.5-1.8s2.3,0.7,2.5-0.7c0.2-1.3-2.8-2.2-2.8-2.2h7.5l2.7,2.5l2.2,0.3l4.5,2.2l4,9.2l-7,6l-22.5,6.3
		l-8.8,16.7l-8,1.3c0,0,0.2,2.8-1.8,5.2s-4,3.5-4,3.5s-0.8,6.2-3.2,8.5c-2.4,2.3-5.4,4-5.4,4s1.3,3.8,0.5,8.5s-1.7,14-1.7,14
		s-2.3,1.8-2.8,3.5s-0.5,3.8-0.5,3.8s-4.2,3.8-6.5,6.2s-4.3,7.8-4.3,7.8l7.2,0.3l6-5.2l1,7.5l3.2-0.5l3.4-1.2l3.7,17.7l9.8,9l1,10.2
		l-5.5,4.5c0,0-0.3,14.3,0.8,15.3c1.2,1,9.5,2,9.5,2s1.7,9.8,6.2,11s9.2-2.5,10.7-1.8s13,1.2,13,1.2s2.3,2.8,6.7,2
		c4.3-0.8,8-3.7,8-3.7l11,0.2c0,0,0.5,3.3,4.7,3.7s7,0,7,0l24,30.1c0,0,0.8-3.9,3.8-2.9s4,2.9,4,2.9s3.5-4.6,6-4.2
		c2.5,0.3,11,1,11,1s3.5-0.7,7.5-0.3s8.3-2.7,11-2.2s2.3,1.2,4.3,0.8c2-0.3,3-3.7,6.5-3.2s8.3-0.3,11.2,2.5c2.8,2.8,4.5,5.7,3.7,8.7
		s-6.3,6.7-6.7,9.3c-0.3,2.7,1.8,6.7-1,9.7s-6.7,3-6,6s1.5,8.7,1.5,11.3s-3.5,11.7-2.7,12.8c0.8,1.2,3.3,3.3,3.2,5.3
		c-0.2,2,0,8,1.7,9.2s-1.3,5.8,1.7,8.7s6.3,4.5,6.3,4.5l2.2,7.2c0,0,3.8,0.5,3.6,2.8s-1.8,4.5-3.8,5.5s-4.2,2-4.2,2l-11,10.8
		c0,0,7-1.7,8.8,0.8s5.3,6.8,8,9s6.7,3.7,7,6.3c0.3,2.7,0,3.5,0,5.3s2.5,2.3,3.2,4.8s3.5,13,5.5,18.8s1.2,10.3,1.2,10.3l-8.8,2.2
		c0,0,2.5-12,1.2-15.7s-7.5-11.8-7.5-12.3s0.5-6.2-3.5-5.7s-9.7,10-12.3,11.5s-5.3,2.8-7,1.7s-5.2-9.3-7.3-7.8c-2.2,1.5,0.5,9,0.5,9
		l-39.7-0.2l-6.2-2.5l-9.7,2.8l0.2,19.2c0,0,1.8-0.8,3.7,0s7.2,0.5,10,1.3s6-0.3,8.2,2s2.8,6.3,2.5,7.9s1.5,5.7,0.3,6.7
		s-4.3,1.3-7.7-0.8c-3.3-2.2-4-5.5-5.8-4s-6.2,2.5-6.2,2.5l-13,3.1l0.7,25.2l9.7,9.3c0,0,5.7-0.7,6.7,1.8s-2.3,7.8-2.3,7.8
		s9.2,8.3,8.7,11.8s0.7,6.8-1,9.2c-1.7,2.3-3.3,6.7-3.3,6.7l-14.5,85.8c0,0-3.3-1.7-6.3-3.7c-6.4-4.3-3.8-8.7-5.7-8.3
		c-3.5,0.6-6.2,2.3-6.2,2.3s-1.5-0.8-4.5,0.1c-3,0.8-5-2.1-5-2.1l21.7-34.5c0,0-3-0.2-3.7-1.9c-0.7-1.8-2.3-3.4-2.3-3.4
		s-1.7,1-3-0.3s-2.3-1.8-2.3-1.8l-1.8-1.2c0,0-2,3.3-3.8,2.3s-1.7-6.3-4.2-7s-4.5-4.2-6.2-3.3c-1.7,0.8-1.2,1.2-2.7,2.3
		s-0.8,4.9-4.2,4.4c-3.3-0.5-8.3,0.2-8.5-1s-3-3.3-4.7-3.4s-3.2-2.4-5.5-2.4s-3.8,3.5-5.5,5.2s-4.2,0.3-6.2,1.7s-1.5,3.2-5.2,3.3
		c-3.7,0.2-6-2.8-9.5-2.3s-4.8,2.7-6.3,2.3c-1.5-0.3-1.3-2.3-2.9-1.7s-4.1,1.5-5.4,0.7s-3.2-2.3-3.2-2.3s-6.2-2.5-6.5-5.8
		s3.2-3.5,2.2-6.3s-2.3-8.3-2.3-8.3s-3,3-7.5,0s-3.2-9.2-3.2-9.2s-1.5-5.2-4-6.8c-2.5-1.7-3.7-1.3-5.5-1.3s-4.7-4.5-4.7-4.5
		s-4-0.2-3.8-2s-5.2,1.7-6.7-2.7c-1.5-4.3-2.2-7.7-2.2-7.7s-3.5-3.8-3.8-6.3s-0.3-2.5-0.3-2.5s-5.2-1.5-5.8-3.5
		c-0.7-2-5,0.3-5.2-1.5s1-5-0.8-4.8s-4.3,1.5-5.3,0.3s-5.5-7.5-7-6.3s-1,3.2-2.8,3.2s-4.7-1.2-7.5-2.8c-2.8-1.7-4.3-3.3-4.3-3.3
		s-3.8,1.5-6.3,0.2s-11.7-11.3-14.7-12s-2.7,2.5-5,1.1s-0.5,2.8-4.5,2.9c-4,0.2-5.7-2.2-8.3-1.3c-2.7,0.8-4.8,1.5-8.8-0.7
		s-9,0.5-12.5-2s-0.5-6.5-2.8-8.7s-6.5-3.5-6.5-3.5s0.5-5.7-2-5.2s-5.2,2.4-5.2,2.4s-0.8-4.1-3.8-3.8s-7.5,0.5-11.3-3.8
		s-3.5-6.7-6.3-6.7s-5.2-2-7.5-4.3s-3.7-3-3.7-3s0.2-3.4-1.8-4.4s-6.6,0.1-5.2-2.4s4-7,7.2-6.1s7.2,1,7.8,1.6s3-1.6,1.9-4.5
		s-2.4-3.2-3.6-5.9s-1-8.2,1.8-9.8c2.8-1.7,6-3.5,6-3.5s2,2,3.3,1.2s0.8-2.3,3.2-2.2c2.3,0.2,4.2,1.5,5.5,0.7s3,0.5,4.7-1.5
		s0-4.5,2.3-6s5.5-5.3,6.8-7.7c1.3-2.3,1.7-4.2,0.7-4.5s1.5-3.3,3.8-6s4-1.3,5.3-3.3s2-3.2,4.5-6.8s2.2-7.5,4.5-8.8
		c2.3-1.3,4.3-3.3,1.7-3.3c-2.7,0-5.8,3.8-7,2.7c-1.2-1.2,5.2-4.4,3.3-6.2c-1.9-1.8-5.3-2.9-6,0s-1.8,1.3-3.7-1.2
		c-1.8-2.5-3.7-6.1-2.7-7.5c1-1.3,5.3,1.2,5.7-0.3c0.3-1.5-1.5-2.3-0.3-3.8s1.8-0.3,2-4.8s1.5-7.2,1.5-7.2s-3.7-3.2-3-8.5
		s2-12.2-0.5-13.7s-6.5-1.3-5.8-2.8s1.7-4,4.5-3.7s6.2-1,6.3-2.8s-1.2-7.8-4-10.8s-5.8-7.5-4.5-8.5s2.3,1.7,3.5,0.7s-1.2-3.7,0.3-4
		s3.3-3.8,1.3-7s-4.7-3.3-6.3-3c-1.7,0.3,1.7-2.7-1-4.3c-2.7-1.7-5.7-1.5-4.8-3c0.9-1.5,4-2.7,0.8-5.8
		C43.5,175.2,40.5,172.3,40.5,172.3z"/>
</g>
<g id="Flüsse">
	<path class="st2" d="M529.5,489.7c0,0-6.2,17.5-11.2,18.5s-9.3-9.5-13.7-14.6c-4.3-5.1-11.5,11.7-16,12.5s-1.8-4.1-4-6.1
		s-2.7,4.7-4.2,6.8c-1.5,2.2-6.5-6.2-10.5-6.7s-10.3,3.7-16.5,3.5s-8-1.7-8-1.7s-3.7-5-6-4s-4.3,2.3-5.7,0s-4,4.7-6.7,4s-3-7.7-6-6
		s-1,9.5-4.7,10.1s-3.7-1.9-6.5,0s-5.2,3.2-6.5,2.2s0.3-4.7-2.7-4.3c-3,0.3,0-0.7-3,0.3s-1.3-2.2-4-2.1c-2.7,0.1-2.5,5.8-5.4,6.5
		s-10.9,0.7-12.9,5.3c-2,4.7,0,10.7-4,12s-8.7,0.3-11.7,1.7s-10.7,1.3-15,2.3s-7.8-2-10.8,0c-2.9,2-7.2,0.7-8.6,2.7
		c-1.3,2-3.9,4.2-3.4,7s0.6,5.5-0.2,8.4c-0.6,1.9-2.5,1.9-0.8,4.1s2.2,3.5-0.5,4.8s-9.5,5.2-12.2,3.5s1.3-2.8-2.9-6.2
		s-6.1-3.3-8.4-6.3c-2.2-3-0.1-6.8-3.7-5.6s-6.3,2.5-6.3,2.5s-0.5-0.9-4.5,0s-11.8,7.2-15.2,5.3s-1-5.9-6-5.3
		c-5,0.7-7.2,1.4-12.2-3.8s1-13.2-5.5-12.6c-6.5,0.6-10,5.9-17,5.9s-5.8-3.2-10-3s-8.2-0.2-13,1.5s-8,5.2-8,6.8s-0.2,1.2,0,3.8
		s0.5,5.2,1,6.9s2.3,4.9-1.1,4.1s-2.4-2.2-5.1,0s2.5,1.5,0,3.8s-0.2,5.8-2.8,6.5l-13.6,10c0,0-15-1.4-15,2.3s4.3,10.1,0,13.1"/>
	<path class="st2" d="M308.3,560.5c0,0,0,0-2.9,0.8c-2.9,0.8-1.1-0.5-4.3-2.8c-3.1-2.2-0.9,4.5-5.1,6s-1.2-6.8-2.2-10.2
		s-10,0.8-12.5,0s-3.2,1.8-7,5.5s-5.2,3-9,2s-4.8,3.5-8,2.8s-4.5,2.2-11,2s-6.2,2-9,3.2c0,0-7.5,3.6-8.8,7.3s1.3,9.4-3.3,10.4
		c-4.7,1-20.3,2.7-20.5,6.7"/>
	<path class="st2" d="M374.4,519.7c0,0-5.8,1.8-6.3,0s0.5-3.1-2.5-2.8s-2.8,1-5.5-2s-0.8-2.5-8.2-3s-8.8-1-9.5,1.5s-2.5,3.4-4,2.6
		c-1.5-0.8-2,0.1-4.2,0s-0.5-1.3-6.2-2.6s-7.8,3-10.2,1s-2.9-2.6-3.9-4.5c-1.1-2,0.4-3.2-3.3-2.7s0-0.9-4.9-1.1s-6.6,3.4-9,0
		c-2.3-3.4-2.6-1.5-4.8-3.3c-2.2-1.8-4.7-3.4-4.7-3.4s-2.4,3.2-3.4,2.5s-2.5-5.8-3.6-6.5c-1-0.7-4.9-4.6-6.4-4.1s-3.7,2.3-4.1,3.2
		c-0.4,1,0.1,3.7-2.5,3.5c-2.6-0.1-8.1,1-8.8,0s-3.5-4.6-5.4-4.4c-1.9,0.2-3.1-3.7-5.5-2.4s-4.1,5.7-6.8,5.9
		c-2.7,0.3-3.4-0.7-4.9,0.9c-1.5,1.6-0.1,3.5-4,3.2s-6.9-2.9-9.8-2.2c-2.9,0.6-6,3.3-7.2,2.4c-1.2-0.9-1.6-2.1-2.9-1.7
		s-2.9,2-4.7,0.9s-7.8-4.6-9.4-6.3s-0.6-3,0-5.1c0.6-2,2.4,1,1.3-2.7s-2.5-9.1-2.5-9.1s-4.4,4.7-7.5,0s-1.9-5.9-3.2-9.2
		s-0.6-5.7-4.7-7.3c-4.1-1.6-5.7,1-7.1-1.6s-1.4-2.2-3.8-4c-2.3-1.8,0.4-2.4-3.2-2.4c-3.6,0.1-4.4,1.3-5.3-1.2
		c-1-2.5-1.7-8-3.8-11.6s-0.2-4.4-3.7-6s-3.8-4.2-6.3-4.1s-2.9,0.7-3.5,0c-0.5-0.7,2.1-5.1-0.5-5.1s-4.9,1.2-5.7,0.3
		c-0.9-0.9-6.9-7.3-7.4-6.7s1.1,3.2-2,3s-6.3-1.1-8.9-3s-3.7-3-3.7-3s-3.6,2.3-6.3,0.2c-2.7-2.2-10.7-9.9-12.7-10.9
		s-2.7-1.5-4.4-0.6c-1.7,0.9-2.9,2.2-3.9,0.6s-3.8-1.9-4.5-6.6s-0.2-5.4-4.5-8.1s-7.2-5.5-8.9-8.2s-2.1-4.5,0-5.5s2.5-3.6,2.5-3.6"
		/>
</g>
<g id="Städte">
	<g>
		<path d="M120.5,258.9h2c1.8,0,2.4,1.2,2.4,2.4v0.4c0,1-0.3,1.4-0.9,1.8c0.6,0.3,0.9,0.9,0.9,1.9v0.5c0,1.7-0.8,2.6-2.6,2.6h-1.9
			v-9.6H120.5z M121.9,262.8h0.6c0.9,0,1.2-0.5,1.2-1.4s-0.3-1.3-1.2-1.3h-0.6V262.8z M121.9,267.1h0.6c1.1,0,1.2-0.7,1.2-1.6
			c0-1-0.2-1.5-1.2-1.5h-0.6V267.1z"/>
		<path d="M127.8,261.1c0-1.6,1.2-2.3,2.3-2.3c1.1,0,2.3,0.8,2.3,2.3v5.1c0,1.6-1.2,2.3-2.3,2.3c-1.1,0-2.3-0.8-2.3-2.3V261.1z
			 M129.2,266.2c0,0.7,0.4,1,0.9,1s0.9-0.3,0.9-1v-5.1c0-0.7-0.4-1-0.9-1s-0.9,0.3-0.9,1V266.2z"/>
		<path d="M135.1,261.1c0-1.6,1.2-2.3,2.3-2.3c1.1,0,2.3,0.8,2.3,2.3v0.5h-1.4v-0.5c0-0.7-0.4-1-0.9-1s-0.9,0.3-0.9,1v5.1
			c0,0.7,0.4,1,0.9,1s0.9-0.3,0.9-1v-1.8h-1.1v-1.2h2.5v3c0,1.6-1.2,2.3-2.3,2.3c-1.1,0-2.3-0.8-2.3-2.3V261.1z"/>
		<path d="M142.5,261.1c0-1.6,1.2-2.3,2.3-2.3c1.1,0,2.3,0.8,2.3,2.3v5.1c0,1.6-1.2,2.3-2.3,2.3c-1.1,0-2.3-0.8-2.3-2.3V261.1z
			 M143.9,266.2c0,0.7,0.4,1,0.9,1s0.9-0.3,0.9-1v-5.1c0-0.7-0.4-1-0.9-1s-0.9,0.3-0.9,1V266.2z"/>
		<path d="M150.7,260.2h-1.6v-1.3h4.6v1.3h-1.6v8.3h-1.4V260.2z"/>
		<path d="M157.4,258.9h1.1l2.1,9.6h-1.4l-0.4-2.1h-1.9l-0.4,2.1h-1.4L157.4,258.9z M158.4,256.5h1.5l-1.8,1.9h-0.9L158.4,256.5z
			 M158,261.6L158,261.6l-0.7,3.5h1.4L158,261.6z"/>
	</g>
	<g>
		<path d="M285.9,383.5h1.3l1.8,5.1l0,0l1.8-5.1h1.3v9.6h-1.4v-5.8l0,0l-1.4,4.1h-0.7l-1.4-4.1l0,0v5.8h-1.4v-9.6H285.9z"/>
		<path d="M295,383.5h1.4v9.6H295V383.5z"/>
		<path d="M300.3,384.8h-1.6v-1.3h4.6v1.3h-1.6v8.3h-1.4V384.8z"/>
		<path d="M309.9,390.9c0,1.3-1,2.2-2.2,2.2s-2.2-1-2.2-2.2v-7.5h1.4v7.3c0,0.7,0.4,1,0.9,1s0.9-0.3,0.9-1v-7.3h1.4v7.5H309.9z"/>
	</g>
	<g>
		<path d="M101.6,200.6h2c1.8,0,2.4,1.2,2.4,2.4v0.4c0,1-0.3,1.4-0.9,1.8c0.6,0.3,0.9,0.9,0.9,1.9v0.5c0,1.7-0.8,2.6-2.6,2.6h-1.9
			v-9.6H101.6z M103,204.5h0.6c0.9,0,1.2-0.5,1.2-1.4s-0.3-1.3-1.2-1.3H103V204.5z M103,208.8h0.6c1.1,0,1.2-0.7,1.2-1.6
			c0-1-0.2-1.5-1.2-1.5H103V208.8z"/>
		<path d="M110.3,200.6h1.1l2.1,9.6h-1.4l-0.4-2.1h-1.9l-0.4,2.1H108L110.3,200.6z M110.9,203.4L110.9,203.4l-0.7,3.5h1.4
			L110.9,203.4z"/>
		<path d="M115.9,200.6h2.2c1.6,0,2.4,1,2.4,2.8c0,1.1-0.3,1.9-1.2,2.4l1.5,4.4h-1.5l-1.3-4.1h-0.8v4.1h-1.4L115.9,200.6
			L115.9,200.6z M117.3,204.9h0.8c1,0,1.1-0.5,1.1-1.5s-0.2-1.5-1.2-1.5h-0.7L117.3,204.9L117.3,204.9z"/>
		<path d="M123.3,200.6h1.4v9.6h-1.4V200.6z"/>
		<path d="M132,208.1c0,1.2-1,2.2-2.2,2.2c-1.1,0-2.3-0.5-2.3-2.3v-5.3c0-1.3,0.9-2.2,2.2-2.2c1.3,0,2.2,1,2.2,2.3v0.5h-1.4v-0.5
			c0-0.5-0.3-1-0.9-1c-0.7,0-0.9,0.5-0.9,1.1v4.9c0,0.6,0.2,1,0.8,1c0.4,0,0.9-0.2,0.9-1v-0.5h1.4v0.8H132z"/>
		<path d="M134.8,200.6h1.4v4.1h1.7v-4.1h1.4v9.6h-1.4v-4.3h-1.7v4.3h-1.4V200.6z"/>
		<path d="M143.7,200.6h1.1l2.1,9.6h-1.4l-0.4-2.1h-1.9l-0.4,2.1h-1.4L143.7,200.6z M144.3,203.4L144.3,203.4l-0.7,3.5h1.4
			L144.3,203.4z"/>
		<path d="M149.3,200.6h2.2c1.6,0,2.4,1,2.4,2.8c0,1.1-0.3,1.9-1.2,2.4l1.5,4.4h-1.5l-1.3-4.1h-0.8v4.1h-1.4L149.3,200.6
			L149.3,200.6z M150.6,204.9h0.8c1,0,1.1-0.5,1.1-1.5s-0.2-1.5-1.2-1.5h-0.7L150.6,204.9L150.6,204.9z"/>
		<path d="M158.2,200.6h1.1l2.1,9.6H160l-0.4-2.1h-1.8l-0.4,2.1H156L158.2,200.6z M158.7,203.4L158.7,203.4l-0.7,3.5h1.4
			L158.7,203.4z"/>
	</g>
	<g>
		<path d="M57.7,342h2.1c0.8,0,1.3,0.2,1.8,0.7s0.6,1.1,0.6,2.3c0,0.8-0.1,1.4-0.4,1.9c-0.4,0.6-1,1-2,1h-0.7v3.8h-1.4V342z
			 M59.1,346.6h0.7c1.1,0,1.1-0.7,1.1-1.6s0-1.6-1.1-1.6h-0.7V346.6z"/>
		<path d="M64.7,344.3c0-1.6,1.2-2.3,2.3-2.3c1.1,0,2.3,0.8,2.3,2.3v5.1c0,1.6-1.2,2.3-2.3,2.3c-1.1,0-2.3-0.8-2.3-2.3V344.3z
			 M66.1,349.4c0,0.7,0.4,1,0.9,1s0.9-0.3,0.9-1v-5.1c0-0.7-0.4-1-0.9-1s-0.9,0.3-0.9,1V349.4z"/>
		<path d="M72.2,342h2.1c0.8,0,1.3,0.2,1.8,0.7s0.6,1.1,0.6,2.3c0,0.8-0.1,1.4-0.4,1.9c-0.4,0.6-1,1-2,1h-0.7v3.8h-1.4V342z
			 M73.6,346.6h0.7c1.1,0,1.1-0.7,1.1-1.6s0-1.6-1.1-1.6h-0.7V346.6z"/>
		<path d="M80.3,342h1.1l2.1,9.6h-1.4l-0.4-2.1h-1.9l-0.4,2.1H78L80.3,342z M80.9,344.8L80.9,344.8l-0.7,3.5h1.4L80.9,344.8z"/>
		<path d="M86.5,347.6l-1.9-5.5h1.5l1.1,3.8l0,0l1.1-3.8h1.5l-1.9,5.5v4.1h-1.4L86.5,347.6L86.5,347.6z"/>
		<path d="M93.6,342h1.1l2.1,9.6h-1.4l-0.4-2.1h-1.9l-0.4,2.1h-1.4L93.6,342z M94.5,339.7H96l-1.8,1.9h-0.9L94.5,339.7z M94.1,344.8
			L94.1,344.8l-0.7,3.5h1.4L94.1,344.8z"/>
		<path d="M99.1,342h1.3l2.1,5.8l0,0V342h1.4v9.6h-1.3l-2.1-5.8l0,0v5.8h-1.4V342z"/>
	</g>
	<g>
		<path d="M111.5,173.9h2c1.8,0,2.4,1.2,2.4,2.4v0.4c0,1-0.3,1.4-0.9,1.8c0.6,0.3,0.9,0.9,0.9,1.9v0.5c0,1.7-0.8,2.6-2.6,2.6h-1.9
			v-9.6H111.5z M112.9,177.9h0.6c0.9,0,1.2-0.5,1.2-1.4s-0.3-1.3-1.2-1.3h-0.6V177.9z M112.9,182.2h0.6c1.1,0,1.2-0.7,1.2-1.6
			c0-1-0.2-1.5-1.2-1.5h-0.6V182.2z"/>
		<path d="M123.3,181.4c0,1.3-1,2.2-2.2,2.2s-2.2-1-2.2-2.2v-7.5h1.4v7.3c0,0.7,0.4,1,0.9,1s0.9-0.3,0.9-1v-7.3h1.4v7.5H123.3z"/>
		<path d="M130.6,181.4c0,1.2-1,2.2-2.2,2.2c-1.1,0-2.3-0.5-2.3-2.3V176c0-1.3,0.9-2.2,2.2-2.2c1.3,0,2.2,1,2.2,2.3v0.5h-1.4v-0.5
			c0-0.5-0.3-1-0.9-1c-0.7,0-0.9,0.5-0.9,1.1v4.9c0,0.6,0.2,1,0.8,1c0.4,0,0.9-0.2,0.9-1v-0.5h1.4v0.8H130.6z"/>
		<path d="M134.9,173.9h1.1l2.1,9.6h-1.3l-0.4-2.1h-1.9l-0.4,2.1h-1.4L134.9,173.9z M135.5,176.7L135.5,176.7l-0.7,3.5h1.4
			L135.5,176.7z"/>
		<path d="M140.5,173.9h2.2c1.6,0,2.4,1,2.4,2.8c0,1.1-0.3,1.9-1.2,2.4l1.5,4.4h-1.5l-1.3-4.1h-0.8v4.1h-1.4v-9.6H140.5z
			 M141.8,178.2h0.8c1,0,1.1-0.5,1.1-1.5s-0.2-1.5-1.2-1.5h-0.7V178.2z"/>
		<path d="M149.4,173.9h1.1l2.1,9.6h-1.4l-0.4-2.1h-1.9l-0.4,2.1h-1.4L149.4,173.9z M149.9,176.7L149.9,176.7l-0.7,3.5h1.4
			L149.9,176.7z"/>
		<path d="M155,173.9h1.3l1.8,5.1l0,0l1.8-5.1h1.3v9.6h-1.4v-5.8l0,0l-1.4,4.1h-0.7l-1.4-4.1l0,0v5.8h-1.4v-9.6H155z"/>
		<path d="M165.6,173.9h1.1l2.1,9.6h-1.4l-0.4-2.1h-1.9l-0.4,2.1h-1.4L165.6,173.9z M166.2,176.7L166.2,176.7l-0.7,3.5h1.4
			L166.2,176.7z"/>
		<path d="M171.1,173.9h1.3l2.1,5.8l0,0v-5.8h1.4v9.6h-1.3l-2.1-5.8l0,0v5.8h-1.4V173.9z"/>
		<path d="M178.7,176.2c0-1.6,1.2-2.3,2.3-2.3c1.1,0,2.3,0.8,2.3,2.3v0.5h-1.4v-0.5c0-0.7-0.4-1-0.9-1s-0.9,0.3-0.9,1v5.1
			c0,0.7,0.4,1,0.9,1s0.9-0.3,0.9-1v-1.8h-1.1v-1.2h2.5v3c0,1.6-1.2,2.3-2.3,2.3c-1.1,0-2.3-0.8-2.3-2.3V176.2z"/>
		<path d="M187.7,173.9h1.1l2.1,9.6h-1.4l-0.4-2.1h-1.9l-0.4,2.1h-1.4L187.7,173.9z M188.3,176.7L188.3,176.7l-0.7,3.5h1.4
			L188.3,176.7z"/>
	</g>
	<g>
		<path d="M55.7,71c0,1.2-1,2.2-2.2,2.2c-1.1,0-2.3-0.5-2.3-2.3v-5.3c0-1.3,0.9-2.2,2.2-2.2c1.3,0,2.2,1,2.2,2.3v0.5h-1.4v-0.5
			c0-0.5-0.3-1-0.9-1c-0.7,0-0.9,0.5-0.9,1.1v4.9c0,0.6,0.2,1,0.8,1c0.4,0,0.9-0.2,0.9-1v-0.5h1.4V71H55.7z"/>
		<path d="M59.9,63.5H61l2.1,9.6h-1.3L61.4,71h-1.9l-0.4,2.1h-1.3L59.9,63.5z M60.5,66.3L60.5,66.3l-0.7,3.4h1.4L60.5,66.3z"/>
		<path d="M65.5,63.5h2.2c1.6,0,2.4,1,2.4,2.8c0,1.1-0.3,1.9-1.2,2.4l1.5,4.4h-1.5L67.6,69h-0.8v4.1h-1.4L65.5,63.5L65.5,63.5z
			 M66.9,67.8h0.8c1,0,1.1-0.5,1.1-1.5s-0.2-1.5-1.2-1.5h-0.7L66.9,67.8L66.9,67.8z"/>
		<path d="M73.6,64.8H72v-1.3h4.6v1.3H75v8.3h-1.4V64.8z"/>
		<path d="M79.5,63.5h1.1l2.1,9.6h-1.4L80.9,71H79l-0.4,2.1h-1.4L79.5,63.5z M80.1,66.3L80.1,66.3l-0.7,3.5h1.4L80.1,66.3z"/>
		<path d="M85,65.8c0-1.6,1.2-2.3,2.3-2.3c1.1,0,2.3,0.8,2.3,2.3v0.5h-1.4v-0.5c0-0.7-0.4-1-0.9-1s-0.9,0.3-0.9,1v5.1
			c0,0.7,0.4,1,0.9,1s0.9-0.3,0.9-1v-1.8h-1.1v-1.2h2.5v3c0,1.6-1.2,2.3-2.3,2.3c-1.1,0-2.3-0.8-2.3-2.3V65.8z"/>
		<path d="M92.5,63.5h4.1v1.3h-2.7v2.8h2.4v1.3h-2.4v2.8h2.7v1.4h-4.1V63.5z"/>
		<path d="M99.1,63.5h1.3l2.1,5.8l0,0v-5.8h1.4v9.6h-1.3l-2.1-5.8l0,0v5.8h-1.4V63.5z"/>
		<path d="M108.2,63.5h1.1l2.1,9.6H110l-0.4-2.1h-1.9l-0.4,2.1h-1.4L108.2,63.5z M108.8,66.3L108.8,66.3l-0.7,3.5h1.4L108.8,66.3z"
			/>
	</g>
	<g>
		<path d="M51.3,42.6h2c1.8,0,2.4,1.2,2.4,2.4v0.4c0,1-0.3,1.4-0.9,1.8c0.6,0.3,0.9,0.9,0.9,1.9v0.5c0,1.7-0.8,2.6-2.6,2.6h-1.9
			v-9.6H51.3z M52.7,46.5h0.6c0.9,0,1.2-0.5,1.2-1.4s-0.3-1.3-1.2-1.3h-0.6V46.5z M52.7,50.8h0.6c1.1,0,1.2-0.7,1.2-1.6
			c0-1-0.2-1.5-1.2-1.5h-0.6V50.8z"/>
		<path d="M60,42.6h1.1l2.1,9.6h-1.4l-0.4-2.1h-1.9l-0.4,2.1h-1.4L60,42.6z M60.6,45.3L60.6,45.3l-0.7,3.5h1.4L60.6,45.3z"/>
		<path d="M65.6,42.6h2.2c1.6,0,2.4,1,2.4,2.8c0,1.1-0.3,1.9-1.2,2.4l1.5,4.4H69l-1.3-4.1h-0.8v4.1h-1.4L65.6,42.6L65.6,42.6z
			 M67,46.9h0.8c1,0,1.1-0.5,1.1-1.5s-0.2-1.5-1.2-1.5H67L67,46.9L67,46.9z"/>
		<path d="M73,42.6h2.2c1.6,0,2.4,1,2.4,2.8c0,1.1-0.3,1.9-1.2,2.4l1.5,4.4h-1.5l-1.3-4.1h-0.8v4.1h-1.4L73,42.6L73,42.6z
			 M74.4,46.9h0.8c1,0,1.1-0.5,1.1-1.5s-0.2-1.5-1.2-1.5h-0.7L74.4,46.9L74.4,46.9z"/>
		<path d="M81.9,42.6H83l2.1,9.6h-1.3l-0.4-2.1h-1.9l-0.4,2.1h-1.4L81.9,42.6z M82.5,45.3L82.5,45.3l-0.7,3.5h1.4L82.5,45.3z"/>
		<path d="M87.4,42.6h1.3l2.1,5.8l0,0v-5.8h1.4v9.6h-1.3l-2.1-5.8l0,0v5.8h-1.4V42.6z"/>
		<path d="M95,44.8c0-1.6,1.2-2.3,2.3-2.3c1.1,0,2.3,0.8,2.3,2.3v5.1c0,0.4-0.1,0.7-0.2,1l0.9,0.7l-0.7,0.8l-0.8-0.7
			c-0.4,0.3-0.9,0.5-1.4,0.5c-1.1,0-2.3-0.8-2.3-2.3L95,44.8L95,44.8z M96.4,49.9c0,0.7,0.4,1,0.9,1c0.1,0,0.2,0,0.3-0.1L97,50.3
			l0.7-0.8l0.6,0.4l0,0v-5.1c0-0.7-0.4-1-0.9-1s-0.9,0.3-0.9,1v5.1H96.4z"/>
		<path d="M106.9,50c0,1.3-1,2.2-2.2,2.2s-2.2-1-2.2-2.2v-7.5h1.4v7.3c0,0.7,0.4,1,0.9,1s0.9-0.3,0.9-1v-7.3h1.4V50H106.9z"/>
		<path d="M109.9,42.6h1.4v9.6h-1.4V42.6z"/>
		<path d="M114.2,42.6h1.4v8.2h2.7v1.4h-4.1V42.6z"/>
		<path d="M120.8,42.6h1.4v8.2h2.7v1.4h-4.1V42.6z"/>
		<path d="M129,42.6h1.1l2.1,9.6h-1.4l-0.4-2.1h-1.9l-0.4,2.1h-1.3L129,42.6z M129.5,45.3L129.5,45.3l-0.7,3.5h1.4L129.5,45.3z"/>
	</g>
	<g>
		<path d="M170.1,46.8h2.1c0.8,0,1.3,0.2,1.8,0.7s0.6,1.1,0.6,2.3c0,0.8-0.1,1.4-0.4,1.9c-0.4,0.6-1,1-2,1h-0.7v3.8h-1.4V46.8z
			 M171.5,51.4h0.7c1.1,0,1.1-0.7,1.1-1.6s0-1.6-1.1-1.6h-0.7V51.4z"/>
		<path d="M178.3,46.8h1.1l2.1,9.6h-1.4l-0.4-2.1h-1.9l-0.4,2.1H176L178.3,46.8z M178.9,49.6L178.9,49.6l-0.7,3.5h1.4L178.9,49.6z"
			/>
		<path d="M183.9,46.8h1.4V55h2.7v1.4h-4.1V46.8z"/>
		<path d="M190.4,49.1c0-1.6,1.2-2.3,2.3-2.3c1.1,0,2.3,0.8,2.3,2.3v5.1c0,1.6-1.2,2.3-2.3,2.3c-1.1,0-2.3-0.8-2.3-2.3V49.1z
			 M191.8,54.2c0,0.7,0.4,1,0.9,1s0.9-0.3,0.9-1v-5.1c0-0.7-0.4-1-0.9-1s-0.9,0.3-0.9,1V54.2z"/>
		<path d="M197.9,46.8h1.3l1.8,5.1l0,0l1.8-5.1h1.3v9.6h-1.4v-5.8l0,0l-1.4,4.1h-0.7l-1.4-4.1l0,0v5.8h-1.4v-9.6H197.9z"/>
		<path d="M207,46.8h1.4v9.6H207V46.8z"/>
		<path d="M211.3,46.8h1.3l2.1,5.8l0,0v-5.8h1.4v9.6h-1.3l-2.1-5.8l0,0v5.8h-1.4V46.8z"/>
		<path d="M218.9,49.1c0-1.6,1.2-2.3,2.3-2.3s2.3,0.8,2.3,2.3v5.1c0,1.6-1.2,2.3-2.3,2.3s-2.3-0.8-2.3-2.3V49.1z M220.3,54.2
			c0,0.7,0.4,1,0.9,1s0.9-0.3,0.9-1v-5.1c0-0.7-0.4-1-0.9-1s-0.9,0.3-0.9,1V54.2z"/>
	</g>
	<g>
		<g>
			<path d="M310.1,541.5h1.4v8.2h2.7v1.4h-4.1L310.1,541.5L310.1,541.5z"/>
			<path d="M316.7,541.5h4.1v1.3h-2.7v2.8h2.4v1.3h-2.4v2.8h2.7v1.4h-4.1V541.5z"/>
			<path d="M324.3,542.8h-1.6v-1.3h4.6v1.3h-1.6v8.3h-1.4V542.8z"/>
			<path d="M329.5,541.5h1.4v9.6h-1.4V541.5z"/>
			<path d="M338.2,549c0,1.2-1,2.2-2.2,2.2c-1.1,0-2.3-0.5-2.3-2.3v-5.3c0-1.3,0.9-2.2,2.2-2.2s2.2,1,2.2,2.3v0.5h-1.3v-0.5
				c0-0.5-0.3-1-0.9-1c-0.7,0-0.9,0.5-0.9,1.1v4.9c0,0.6,0.2,1,0.8,1c0.4,0,0.9-0.2,0.9-1v-0.5h1.4v0.8H338.2z"/>
			<path d="M341,541.5h1.4v9.6H341V541.5z"/>
			<path d="M346.8,541.5h1.1l2.1,9.6h-1.2l-0.4-2.1h-1.9l-0.4,2.1h-1.4L346.8,541.5z M347.4,544.3L347.4,544.3l-0.7,3.5h1.4
				L347.4,544.3z"/>
		</g>
	</g>
	<circle cx="168" cy="262.3" r="2.1"/>
	<circle cx="199.8" cy="179.3" r="2.1"/>
	<circle cx="187.8" cy="41.9" r="2.1"/>
	<circle cx="122.9" cy="68.8" r="2.1"/>
	<circle cx="141.6" cy="50" r="2.1"/>
	<circle cx="303.8" cy="548.9" r="2.1"/>
	<circle cx="80.5" cy="334.3" r="2.1"/>
	<circle cx="296.8" cy="377.8" r="2.1"/>
	<circle cx="168" cy="205.7" r="2.1"/>
	<circle cx="234.1" cy="207.8" r="2.1"/>
	<circle cx="187.5" cy="226.3" r="2.1"/>
	<g>
		<path d="M198.7,232.3h-1.2l-2-9.6h1.5l1.1,6.7l0,0l1.1-6.7h1.5L198.7,232.3z"/>
		<path d="M203.1,222.7h1.4v9.6h-1.4V222.7z"/>
		<path d="M207.5,222.7h1.4v8.2h2.7v1.4h-4.1V222.7z"/>
		<path d="M214.1,222.7h1.4v8.2h2.7v1.4h-4.1V222.7z"/>
		<path d="M222.2,222.7h1.1l2.1,9.6H224l-0.4-2.1h-1.9l-0.4,2.1h-1.4L222.2,222.7z M222.8,225.5L222.8,225.5l-0.7,3.5h1.4
			L222.8,225.5z"/>
		<path d="M196,237.7h2c1.6,0,2.4,0.9,2.4,2.5v4.5c0,1.8-0.9,2.6-2.5,2.6H196V237.7z M197.4,246h0.6c0.8,0,1.1-0.4,1.1-1.2v-4.6
			c0-0.8-0.3-1.2-1.1-1.2h-0.6V246z"/>
		<path d="M203.4,237.7h4.1v1.3h-2.7v2.8h2.4v1.3h-2.4v2.8h2.7v1.4h-4.1V237.7z"/>
		<path d="M214.1,237.7h1.4v8.2h2.7v1.4h-4.1V237.7z"/>
		<path d="M220.7,237.7h4.1v1.3h-2.7v2.8h2.4v1.3h-2.4v2.8h2.7v1.4h-4.1V237.7z"/>
		<path d="M228.6,243.3l-1.9-5.6h1.5l1.1,3.8l0,0l1.1-3.8h1.5l-1.9,5.6v4.1h-1.4L228.6,243.3L228.6,243.3z"/>
		<path d="M236.9,247.3h-1.2l-2-9.6h1.5l1.1,6.7l0,0l1.1-6.7h1.5L236.9,247.3z"/>
		<path d="M242.3,237.7h1.1l2.1,9.6h-1.4l-0.4-2.1h-1.9l-0.4,2.1H240L242.3,237.7z M242.9,240.5L242.9,240.5l-0.7,3.5h1.4
			L242.9,240.5z"/>
	</g>
	<g>
		<path d="M264.5,199.3h1.8c0.7,0,1.2,0.2,1.6,0.6c0.4,0.4,0.6,1,0.6,2c0,0.7-0.1,1.2-0.3,1.7c-0.3,0.6-0.9,0.9-1.8,0.9h-0.6v3.3
			h-1.2v-8.5H264.5z M265.7,203.3h0.6c1,0,1-0.6,1-1.4c0-0.8,0-1.5-1-1.5h-0.6V203.3z"/>
		<path d="M271.7,199.3h1l1.9,8.5h-1.2L273,206h-1.7l-0.4,1.8h-1.1L271.7,199.3z M272.2,201.7L272.2,201.7l-0.6,3.1h1.2L272.2,201.7
			z"/>
		<path d="M276.7,199.3h2c1.5,0,2.2,0.9,2.2,2.5c0,1-0.3,1.7-1.1,2.1l1.3,3.9h-1.3l-1.1-3.6H278v3.6h-1.2L276.7,199.3L276.7,199.3z
			 M277.9,203.1h0.7c0.9,0,1-0.5,1-1.3c0-0.9-0.1-1.3-1-1.3H278v2.6H277.9z"/>
		<path d="M283.1,201.3c0-1.4,1.1-2.1,2.1-2.1s2.1,0.7,2.1,2.1v4.5c0,0.3-0.1,0.6-0.2,0.9l0.8,0.6l-0.6,0.7l-0.7-0.6
			c-0.4,0.3-0.8,0.4-1.3,0.4c-1,0-2.1-0.7-2.1-2.1L283.1,201.3L283.1,201.3z M284.4,205.8c0,0.6,0.4,0.9,0.8,0.9c0.1,0,0.2,0,0.3,0
			l-0.6-0.4l0.6-0.7l0.5,0.4l0,0v-4.5c0-0.6-0.4-0.9-0.8-0.9s-0.8,0.3-0.8,0.9V205.8z"/>
		<path d="M293.7,205.9c0,1.1-0.9,2-2,2s-2-0.9-2-2v-6.6h1.2v6.5c0,0.6,0.3,0.9,0.8,0.9s0.8-0.3,0.8-0.9v-6.5h1.2V205.9z"/>
		<path d="M296.3,199.3h3.6v1.2h-2.4v2.5h2.1v1.2h-2.1v2.5h2.4v1.2h-3.6V199.3z"/>
		<path d="M264.4,213.7h1.2l1.8,5.1l0,0v-5.1h1.2v8.5h-1.2l-1.9-5.1l0,0v5.1h-1.2v-8.5H264.4z"/>
		<path d="M272.6,213.7h1l1.9,8.5h-1.2l-0.4-1.8h-1.7l-0.4,1.8h-1.2L272.6,213.7z M273.1,216.1L273.1,216.1l-0.6,3.1h1.2
			L273.1,216.1z"/>
		<path d="M281.4,220.3c0,1.1-0.9,2-1.9,2c-0.9,0-2-0.5-2-2v-4.7c0-1.1,0.8-2,2-2c1.1,0,2,0.9,2,2v0.5h-1.2v-0.4
			c0-0.5-0.3-0.9-0.8-0.9c-0.6,0-0.8,0.4-0.8,1v4.4c0,0.5,0.2,0.9,0.7,0.9c0.3,0,0.8-0.2,0.8-0.9v-0.4h1.2L281.4,220.3L281.4,220.3z
			"/>
		<path d="M283.9,213.7h1.2v8.5h-1.2V213.7z"/>
		<path d="M287.7,215.7c0-1.4,1.1-2.1,2.1-2.1s2.1,0.7,2.1,2.1v4.5c0,1.4-1.1,2.1-2.1,2.1s-2.1-0.7-2.1-2.1V215.7z M288.9,220.2
			c0,0.6,0.4,0.9,0.8,0.9s0.8-0.3,0.8-0.9v-4.5c0-0.6-0.4-0.9-0.8-0.9s-0.8,0.3-0.8,0.9V220.2z"/>
		<path d="M294.3,213.7h1.2l1.8,5.1l0,0v-5.1h1.2v8.5h-1.2l-1.9-5.1l0,0v5.1h-1.2v-8.5H294.3z"/>
		<path d="M302.4,213.7h1l1.9,8.5h-1.2l-0.4-1.8H302l-0.4,1.8h-1.2L302.4,213.7z M303,216.1L303,216.1l-0.6,3.1h1.2L303,216.1z"/>
		<path d="M307.4,213.7h1.2v7.3h2.4v1.2h-3.6L307.4,213.7L307.4,213.7z"/>
		<path d="M264.4,228.1h1.2l1.8,5.1l0,0v-5.1h1.2v8.5h-1.2l-1.9-5.1l0,0v5.1h-1.2v-8.5H264.4z"/>
		<path d="M272.6,228.1h1l1.9,8.5h-1.2l-0.4-1.8h-1.7l-0.4,1.8h-1.2L272.6,228.1z M273.1,230.5L273.1,230.5l-0.6,3.1h1.2
			L273.1,230.5z"/>
		<path d="M277.7,229.2h-1.4V228h4.1v1.2H279v7.4h-1.2v-7.4H277.7z"/>
		<path d="M286.3,234.7c0,1.1-0.9,2-2,2s-2-0.9-2-2v-6.6h1.2v6.5c0,0.6,0.3,0.9,0.8,0.9s0.8-0.3,0.8-0.9v-6.5h1.2V234.7z"/>
		<path d="M288.9,228.1h2c1.5,0,2.2,0.9,2.2,2.5c0,1-0.3,1.7-1.1,2.1l1.3,3.9H292l-1.1-3.6h-0.7v3.6H289L288.9,228.1L288.9,228.1z
			 M290.1,231.9h0.7c0.9,0,1-0.5,1-1.3c0-0.9-0.1-1.3-1-1.3h-0.6v2.6H290.1z"/>
		<path d="M296.8,228.1h1l1.9,8.5h-1.2l-0.4-1.8h-1.7l-0.4,1.8h-1.2L296.8,228.1z M297.3,230.5L297.3,230.5l-0.6,3.1h1.2
			L297.3,230.5z"/>
		<path d="M301.7,228.1h1.2v7.3h2.4v1.2h-3.6V228.1z"/>
		<path d="M264.5,242.5h3.6v1.2h-2.4v2.5h2.1v1.2h-2.1v2.5h2.4v1.2h-3.6V242.5z"/>
		<path d="M270.3,242.5h1.2v7.3h2.4v1.2h-3.6V242.5z"/>
		<path d="M283.8,249.1c0,1.1-0.9,2-1.9,2c-0.9,0-2-0.5-2-2v-4.7c0-1.1,0.8-2,2-2c1.1,0,2,0.9,2,2v0.5h-1.2v-0.4
			c0-0.5-0.3-0.9-0.8-0.9c-0.6,0-0.8,0.4-0.8,1v4.4c0,0.5,0.2,0.9,0.7,0.9c0.3,0,0.8-0.2,0.8-0.9v-0.4h1.2L283.8,249.1L283.8,249.1z
			"/>
		<path d="M286.1,244.5c0-1.4,1.1-2.1,2.1-2.1s2.1,0.7,2.1,2.1v4.5c0,1.4-1.1,2.1-2.1,2.1s-2.1-0.7-2.1-2.1V244.5z M287.4,249
			c0,0.6,0.4,0.9,0.8,0.9s0.8-0.3,0.8-0.9v-4.5c0-0.6-0.4-0.9-0.8-0.9s-0.8,0.3-0.8,0.9V249z"/>
		<path d="M296.7,249.1c0,1.1-0.9,2-1.9,2c-0.9,0-2-0.5-2-2v-4.7c0-1.1,0.8-2,2-2c1.1,0,2,0.9,2,2v0.5h-1.2v-0.4
			c0-0.5-0.3-0.9-0.8-0.9c-0.6,0-0.8,0.4-0.8,1v4.4c0,0.5,0.2,0.9,0.7,0.9c0.3,0,0.8-0.2,0.8-0.9v-0.4h1.2L296.7,249.1L296.7,249.1z
			"/>
		<path d="M303,249.1c0,1.1-0.9,2-2,2s-2-0.9-2-2v-6.6h1.2v6.5c0,0.6,0.3,0.9,0.8,0.9s0.8-0.3,0.8-0.9v-6.5h1.2V249.1z"/>
		<path d="M306.8,247.4l-1.7-4.9h1.3l1,3.4l0,0l1-3.4h1.3l-1.7,4.9v3.6h-1.2V247.4z"/>
	</g>
	<g>
		<path d="M390.5,515.3h0.8l1.6,7.1h-1l-0.3-1.5h-1.4l-0.3,1.5h-1L390.5,515.3z M390.9,517.4L390.9,517.4l-0.5,2.6h1L390.9,517.4z"
			/>
		<path d="M393.9,515.3h1l1.3,3.8l0,0l1.3-3.8h1v7.1h-1v-4.3l0,0l-1,3.1H396l-1-3.1l0,0v4.3h-1L393.9,515.3L393.9,515.3z"/>
		<path d="M401.1,515.3h0.8l1.6,7.1h-1l-0.3-1.5h-1.4l-0.3,1.5h-1L401.1,515.3z M401.6,517.4L401.6,517.4l-0.5,2.6h1L401.6,517.4z"
			/>
		<path d="M404.2,521.5l1.9-5.3h-1.8v-1h2.9v0.8l-2,5.3h2v1h-3L404.2,521.5L404.2,521.5z"/>
		<path d="M408.3,517c0-1.2,0.9-1.7,1.7-1.7s1.7,0.6,1.7,1.7v3.8c0,1.2-0.9,1.7-1.7,1.7s-1.7-0.6-1.7-1.7V517z M409.4,520.8
			c0,0.5,0.3,0.7,0.7,0.7s0.7-0.2,0.7-0.7V517c0-0.5-0.3-0.7-0.7-0.7s-0.7,0.2-0.7,0.7V520.8z"/>
		<path d="M413.1,515.3h1l1.5,4.3l0,0v-4.3h1v7.1h-1l-1.6-4.3l0,0v4.3h-1L413.1,515.3L413.1,515.3z"/>
		<path d="M419.2,515.3h0.8l1.6,7.1h-1l-0.3-1.5h-1.4l-0.3,1.5h-1L419.2,515.3z M419.7,517.4L419.7,517.4l-0.5,2.6h1L419.7,517.4z"
			/>
		<path d="M426,517.4h-1v-0.2c0-0.5-0.2-0.9-0.7-0.9c-0.6,0-0.7,0.5-0.7,0.9c0,0.5,0,0.7,0.6,0.9l0.8,0.3c0.9,0.3,1.1,0.9,1.1,1.9
			c0,1.2-0.4,2.1-1.8,2.1c-1,0-1.7-0.7-1.7-1.7v-0.4h1v0.3c0,0.4,0.2,0.7,0.7,0.7c0.7,0,0.7-0.4,0.7-1.1c0-0.8-0.1-0.9-0.6-1.1
			l-0.7-0.3c-0.9-0.4-1.1-0.9-1.1-1.8c0-1.1,0.6-1.9,1.7-1.9c1,0,1.7,0.8,1.7,1.6V517.4z"/>
	</g>
	<g>
		<path d="M206.2,536.7h0.8l1.6,7.1h-1l-0.3-1.5h-1.4l-0.3,1.5h-1L206.2,536.7z M206.7,538.8L206.7,538.8l-0.5,2.6h1L206.7,538.8z"
			/>
		<path d="M209.7,536.7h1l1.3,3.8l0,0l1.3-3.8h1v7.1h-1v-4.3l0,0l-1,3.1h-0.5l-1-3.1l0,0v4.3h-1L209.7,536.7L209.7,536.7z"/>
		<path d="M216.9,536.7h0.8l1.6,7.1h-1l-0.3-1.5h-1.4l-0.3,1.5h-1L216.9,536.7z M217.3,538.8L217.3,538.8l-0.5,2.6h1L217.3,538.8z"
			/>
		<path d="M220,542.9l1.9-5.3h-1.8v-1h2.9v0.8l-2,5.3h2v1h-3V542.9z"/>
		<path d="M224.1,538.4c0-1.2,0.9-1.7,1.7-1.7c0.8,0,1.7,0.6,1.7,1.7v3.8c0,1.2-0.9,1.7-1.7,1.7c-0.8,0-1.7-0.6-1.7-1.7V538.4z
			 M225.1,542.1c0,0.5,0.3,0.7,0.7,0.7s0.7-0.2,0.7-0.7v-3.8c0-0.5-0.3-0.7-0.7-0.7s-0.7,0.2-0.7,0.7V542.1z"/>
		<path d="M228.9,536.7h1l1.5,4.3l0,0v-4.3h1v7.1h-1l-1.6-4.3l0,0v4.3h-1v-7.1H228.9z"/>
		<path d="M235,536.7h0.8l1.6,7.1h-1l-0.3-1.5h-1.4l-0.3,1.5h-1L235,536.7z M235.4,538.8L235.4,538.8l-0.5,2.6h1L235.4,538.8z"/>
		<path d="M241.7,538.8h-1v-0.2c0-0.5-0.2-0.9-0.7-0.9c-0.6,0-0.7,0.5-0.7,0.9c0,0.5,0,0.7,0.6,0.9l0.8,0.3c0.9,0.3,1.1,0.9,1.1,1.9
			c0,1.2-0.4,2.1-1.8,2.1c-1,0-1.7-0.7-1.7-1.7v-0.4h1v0.3c0,0.4,0.2,0.7,0.7,0.7c0.7,0,0.7-0.4,0.7-1.1c0-0.8-0.1-0.9-0.6-1.1
			l-0.7-0.3c-0.9-0.4-1.1-0.9-1.1-1.8c0-1.1,0.6-1.9,1.7-1.9c1,0,1.7,0.8,1.7,1.6V538.8z"/>
	</g>
	<g>
		<path d="M242,559.6c0,0.9-0.6,1.7-1.7,1.7c-0.7,0-1.1-0.4-1.3-0.6l0.8-0.6c0.1,0.1,0.3,0.3,0.6,0.3c0.2,0,0.7-0.2,0.7-0.9v-5.3h1
			v5.4H242z"/>
		<path d="M244.6,554.1h0.8l1.6,7.1h-1l-0.3-1.5h-1.4l-0.3,1.5h-1L244.6,554.1z M245,556.2L245,556.2l-0.5,2.6h1L245,556.2z"/>
		<path d="M249.6,561.2h-0.9l-1.4-7.1h1.1l0.8,5l0,0l0.8-5h1.1L249.6,561.2z"/>
		<path d="M253,554.1h0.8l1.6,7.1h-1l-0.3-1.5h-1.4l-0.3,1.5h-1L253,554.1z M253.4,556.2L253.4,556.2l-0.5,2.6h1L253.4,556.2z"/>
		<path d="M256.4,554.1h1.6c1.2,0,1.8,0.7,1.8,2.1c0,0.8-0.2,1.4-0.9,1.8l1.1,3.2h-1.1l-1-3h-0.6v3h-1v-7.1H256.4z M257.4,557.3h0.6
			c0.7,0,0.8-0.4,0.8-1.1c0-0.7-0.1-1.1-0.9-1.1h-0.5V557.3z"/>
		<path d="M261.2,554.1h1v7.1h-1V554.1z"/>
	</g>
	<g>
		<path d="M215.8,195c0-1.6,1.2-2.3,2.3-2.3s2.3,0.8,2.3,2.3v0.5H219V195c0-0.7-0.4-1-0.9-1s-0.9,0.3-0.9,1v5.1c0,0.7,0.4,1,0.9,1
			s0.9-0.3,0.9-1v-1.8h-1.1v-1.2h2.5v3c0,1.6-1.2,2.3-2.3,2.3s-2.3-0.8-2.3-2.3V195z"/>
		<path d="M227.7,200.2c0,1.3-1,2.2-2.2,2.2s-2.2-1-2.2-2.2v-7.5h1.4v7.3c0,0.7,0.4,1,0.9,1s0.9-0.3,0.9-1v-7.3h1.4v7.5H227.7z
			 M223.8,190.8h1.2v1.4h-1.2V190.8z M226,190.8h1.2v1.4H226V190.8z"/>
		<path d="M230.7,192.7h1.4v9.6h-1.4V192.7z"/>
		<path d="M239.4,200.2c0,1.2-1,2.2-2.2,2.2c-1.1,0-2.3-0.5-2.3-2.3v-5.3c0-1.3,0.9-2.2,2.2-2.2c1.3,0,2.2,1,2.2,2.3v0.5h-1.4v-0.5
			c0-0.5-0.3-1-0.9-1c-0.7,0-0.9,0.5-0.9,1.1v4.9c0,0.6,0.2,1,0.8,1c0.4,0,0.9-0.2,0.9-1v-0.5h1.4v0.8H239.4z"/>
		<path d="M243.6,192.7h1.1l2.1,9.6h-1.4l-0.4-2.1h-1.9l-0.4,2.1h-1.4L243.6,192.7z M244.6,190.4h1.5l-1.8,1.9h-0.9L244.6,190.4z
			 M244.2,195.5L244.2,195.5l-0.7,3.5h1.4L244.2,195.5z"/>
		<path d="M249.2,192.7h1.3l2.1,5.8l0,0v-5.8h1.4v9.6h-1.3l-2.1-5.8l0,0v5.8h-1.4V192.7z"/>
	</g>
	<g>
		<g>
			<path d="M229.3,294.8h3.1v9.8h0.1l4.5-9.8h3.1l-4.2,8.5l5,12.8h-3.2l-3.5-9.5l-1.7,3.1v6.4h-3.1L229.3,294.8L229.3,294.8z"/>
			<path d="M242.1,299.8c0-3.5,2.6-5.2,5.1-5.2s5.1,1.7,5.1,5.2v11.3c0,3.5-2.6,5.2-5.1,5.2s-5.1-1.7-5.1-5.2V299.8z M245.2,311.1
				c0,1.5,1,2.2,2.1,2.2s2.1-0.7,2.1-2.2v-11.3c0-1.5-1-2.2-2.1-2.2s-2.1,0.7-2.1,2.2V311.1z"/>
			<path d="M255.7,294.8h3.1v18.3h6.1v3.1h-9.1v-21.4H255.7z"/>
			<path d="M277.3,311.4c0,2.8-2.2,5-5,5c-2.7,0-4.9-2.2-4.9-5v-16.6h3.1v16.3c0,1.5,0.8,2.2,1.9,2.2s1.9-0.7,1.9-2.2v-16.3h3.1
				v16.6H277.3z"/>
			<path d="M280.8,294.8h2.9l3.9,11.3h0.1l3.9-11.3h3v21.4h-3.1v-13h-0.1l-3,9.2h-1.5l-3-9.2h-0.1v13h-3V294.8z"/>
			<path d="M298.1,294.8h4.5c4,0,5.4,2.6,5.4,5.4v0.8c0,2.3-0.8,3.1-2.1,4c1.4,0.7,2.1,2,2.1,4.2v1.2c0,3.7-1.8,5.8-5.7,5.8h-4.2
				V294.8z M301.1,303.6h1.4c2,0,2.6-1,2.6-3c0-1.9-0.7-2.9-2.7-2.9h-1.3V303.6z M301.1,313.1h1.3c2.5,0,2.6-1.5,2.6-3.6
				s-0.4-3.2-2.6-3.2h-1.3L301.1,313.1L301.1,313.1z"/>
			<path d="M311.5,294.8h3.1v21.4h-3.1V294.8z"/>
			<path d="M318.2,294.8h9.1v2.9h-6.1v6.3h5.3v2.9h-5.3v6.3h6.1v3.1h-9.1V294.8z"/>
			<path d="M329.7,294.8h2.9l4.6,12.9h0.1v-12.9h3.1v21.4h-2.9l-4.7-12.8h0v12.8h-3.1V294.8z"/>
		</g>
	</g>
	<g>
		<g>
			<path d="M355.2,444.7h3.6c3.2,0,4.3,2.1,4.3,4.3v0.6c0,1.8-0.6,2.5-1.7,3.2c1.2,0.6,1.7,1.6,1.7,3.4v1c0,3-1.4,4.7-4.6,4.7h-3.3
				V444.7z M357.6,451.7h1.1c1.6,0,2.1-0.8,2.1-2.4c0-1.5-0.6-2.3-2.2-2.3h-1L357.6,451.7L357.6,451.7z M357.6,459.4h1.1
				c2,0,2.1-1.2,2.1-2.9c0-1.7-0.3-2.6-2.1-2.6h-1.1V459.4z"/>
			<path d="M365.9,444.7h3.9c2.9,0,4.3,1.7,4.3,5c0,2-0.6,3.4-2.1,4.3l2.6,7.8H372l-2.3-7.3h-1.5v7.3h-2.4L365.9,444.7L365.9,444.7z
				 M368.3,452.4h1.4c1.7,0,2-1,2-2.7s-0.3-2.7-2.1-2.7h-1.3L368.3,452.4L368.3,452.4z"/>
			<path d="M379.3,444.7h2l3.8,17.1h-2.4l-0.7-3.7h-3.3l-0.7,3.7h-2.4L379.3,444.7z M380.3,449.7L380.3,449.7l-1.2,6.2h2.4
				L380.3,449.7z"/>
			<path d="M394.7,449.7h-2.4v-0.6c0-1.1-0.5-2.1-1.7-2.1c-1.3,0-1.7,1.1-1.7,2.2c0,1.3,0.1,1.8,1.4,2.3l1.9,0.7
				c2.2,0.8,2.6,2.2,2.6,4.7c0,2.9-1.1,5-4.2,5c-2.4,0-4.2-1.8-4.2-4.1v-0.9h2.4v0.8c0,0.9,0.5,1.8,1.7,1.8c1.7,0,1.8-1,1.8-2.5
				c0-1.8-0.2-2.1-1.4-2.6l-1.8-0.7c-2.1-0.9-2.7-2.3-2.7-4.4c0-2.6,1.4-4.7,4.2-4.7c2.4,0,4.1,2,4.1,3.9L394.7,449.7L394.7,449.7z"
				/>
			<path d="M397.1,444.7h2.4v17.1h-2.4V444.7z"/>
			<path d="M402.4,444.7h2.4v14.6h4.8v2.4h-7.3L402.4,444.7L402.4,444.7z"/>
			<path d="M411.8,444.7h2.4v17.1h-2.4V444.7z"/>
			<path d="M417.1,444.7h7.3v2.3h-4.8v5h4.2v2.3h-4.2v5h4.8v2.4h-7.3V444.7z"/>
			<path d="M426.4,444.7h2.4l3.7,10.3l0,0v-10.3h2.4v17.1h-2.3l-3.7-10.3l0,0v10.3h-2.4v-17.1H426.4z"/>
		</g>
	</g>
	<g>
		<g>
			<path d="M118.9,508.3h3.7c1.3,0,2.3,0.3,3.2,1.2c0.8,0.9,1.1,2,1.1,4c0,1.5-0.1,2.5-0.7,3.4c-0.7,1.1-1.8,1.8-3.6,1.8h-1.2v6.7
				H119v-17.1H118.9z M121.4,516.4h1.2c2,0,2-1.2,2-2.9c0-1.6,0-2.9-1.9-2.9h-1.3L121.4,516.4L121.4,516.4z"/>
			<path d="M129.2,508.3h7.3v2.3h-4.8v5h4.2v2.3h-4.2v5h4.8v2.4h-7.3V508.3z"/>
			<path d="M138.5,508.3h3.9c2.9,0,4.3,1.7,4.3,5c0,2-0.6,3.4-2.1,4.3l2.6,7.8h-2.6l-2.3-7.3h-1.5v7.3h-2.4v-17.1H138.5z M141,515.9
				h1.4c1.7,0,2-1,2-2.7s-0.3-2.7-2.1-2.7H141V515.9z"/>
			<path d="M157.2,521.6c0,2.2-1.8,4-4,4s-4-1.8-4-4v-13.2h2.4v13c0,1.2,0.6,1.8,1.5,1.8s1.5-0.6,1.5-1.8v-13h2.4v13.2H157.2z"/>
		</g>
	</g>
</g>
</svg>
