<?xml version="1.0" encoding="utf-8"?>
<!-- Generator: Adobe Illustrator 16.0.0, SVG Export Plug-In . SVG Version: 6.00 Build 0)  -->
<!DOCTYPE svg PUBLIC "-//W3C//DTD SVG 1.1//EN" "http://www.w3.org/Graphics/SVG/1.1/DTD/svg11.dtd">
<svg version="1.1" id="Ebene_1" xmlns="http://www.w3.org/2000/svg" xmlns:xlink="http://www.w3.org/1999/xlink" x="0px" y="0px"
	 width="289.728px" height="272.24px" viewBox="0 -1.607 289.728 272.24" enable-background="new 0 -1.607 289.728 272.24"
	 xml:space="preserve">
<g>
	<path fill="#FFFFFF" d="M246.957,133.632l-77.544,18.259l-19.358,78.094l-18.259-77.654l-78.094-19.248l77.654-18.258
		l19.248-78.204l18.259,77.764L246.957,133.632z M145.215,132.863l-13.749-13.529l-59.505,13.529H145.215z M149.615,210.957v-73.254
		l-13.528,13.748L149.615,210.957z M164.573,115.264l-13.419-59.505v73.254L164.573,115.264z M228.698,133.853h-73.144
		l13.639,13.529L228.698,133.853z"/>
</g>
<g>
	<path fill="#FFFFFF" d="M140.116-0.423c0-0.184-0.059-0.335-0.178-0.454c-0.118-0.118-0.428-0.203-0.927-0.256v-0.474h9.51v0.474
		c-0.447,0.026-0.744,0.085-0.888,0.178c-0.146,0.092-0.218,0.204-0.218,0.335c0,0.053,0.172,0.29,0.514,0.71
		c0.342,0.421,0.789,0.947,1.342,1.579s1.177,1.335,1.874,2.111c0.696,0.776,1.401,1.552,2.111,2.328
		c0.71,0.776,1.394,1.513,2.052,2.21c0.658,0.697,1.224,1.296,1.697,1.795V-0.423c0-0.447-0.276-0.684-0.828-0.71v-0.474h7.221
		v0.474c-0.5,0.053-0.809,0.138-0.928,0.256c-0.117,0.119-0.178,0.27-0.178,0.454v18.389c0,0.185,0.061,0.335,0.178,0.454
		c0.119,0.118,0.428,0.204,0.928,0.256v0.474h-7.498v-0.474c0.369,0,0.612-0.04,0.73-0.118c0.119-0.079,0.178-0.184,0.178-0.316
		c0-0.079-0.039-0.177-0.119-0.296c-0.078-0.118-0.25-0.322-0.512-0.612c-0.264-0.289-0.652-0.703-1.164-1.243
		c-0.514-0.539-1.191-1.263-2.033-2.17s-1.881-2.039-3.117-3.394c-1.236-1.354-2.723-3.005-4.459-4.952v12.391
		c0,0.185,0.059,0.335,0.178,0.454c0.118,0.118,0.427,0.204,0.927,0.256v0.474h-7.498v-0.474c0.5-0.052,0.809-0.138,0.927-0.256
		c0.119-0.119,0.178-0.27,0.178-0.454V-0.423z"/>
</g>
<g>
	<path fill="#FFFFFF" d="M142.256,260.897c-0.053,0.157-0.079,0.435-0.079,0.829c0,0.263,0.243,0.559,0.73,0.888
		c0.486,0.329,1.118,0.638,1.894,0.927c0.775,0.29,1.664,0.533,2.664,0.73c0.999,0.197,2.012,0.296,3.038,0.296
		c1.974,0,3.419-0.229,4.341-0.69c0.92-0.46,1.381-1.125,1.381-1.992c0-0.475-0.401-0.81-1.203-1.007
		c-0.803-0.197-1.809-0.355-3.02-0.474c-1.21-0.119-2.512-0.25-3.906-0.395s-2.697-0.408-3.907-0.789
		c-1.21-0.381-2.216-0.934-3.019-1.658c-0.803-0.723-1.204-1.717-1.204-2.979c0-1,0.23-1.907,0.69-2.723
		c0.46-0.815,1.105-1.514,1.934-2.092s1.835-1.032,3.019-1.361s2.5-0.494,3.946-0.494c1.342,0,2.591,0.086,3.749,0.258
		c1.157,0.171,2.184,0.361,3.078,0.571c0.895,0.211,1.644,0.401,2.249,0.572c0.604,0.171,1.039,0.257,1.302,0.257
		c0.264,0,0.475-0.06,0.632-0.178c0.158-0.119,0.302-0.256,0.435-0.414l0.434,0.158l-2.723,5.484l-0.474-0.236v-0.435
		c0-0.237-0.257-0.479-0.77-0.729s-1.164-0.475-1.953-0.672c-0.79-0.197-1.671-0.361-2.644-0.492
		c-0.975-0.132-1.922-0.197-2.842-0.197c-1.711,0-2.907,0.197-3.591,0.592c-0.685,0.395-1.026,0.815-1.026,1.262
		c0,0.448,0.236,0.783,0.711,1.007c0.473,0.224,1.091,0.389,1.854,0.493c0.763,0.105,1.631,0.191,2.604,0.257
		c0.973,0.065,1.973,0.165,2.999,0.296c1.026,0.132,2.025,0.315,2.999,0.553c0.973,0.236,1.841,0.586,2.604,1.045
		c0.763,0.461,1.381,1.066,1.854,1.816c0.474,0.749,0.711,1.689,0.711,2.82c0,0.869-0.178,1.724-0.533,2.565
		c-0.355,0.843-0.961,1.599-1.815,2.269c-0.854,0.672-1.999,1.204-3.433,1.599c-1.435,0.395-3.217,0.592-5.348,0.592
		c-1.657,0-3.084-0.079-4.281-0.236c-1.197-0.158-2.217-0.349-3.059-0.572c-0.842-0.224-1.506-0.427-1.993-0.612
		c-0.487-0.184-0.848-0.275-1.085-0.275c-0.158,0-0.296,0.053-0.415,0.158c-0.118,0.105-0.244,0.223-0.375,0.354l-0.473-0.118
		l2.92-7.024L142.256,260.897z"/>
</g>
<g>
	<path fill="#FFFFFF" d="M277.531,121.544c1.683,0,3.268,0.231,4.755,0.691c1.485,0.46,2.788,1.138,3.906,2.032
		c1.118,0.895,2.006,2,2.664,3.314c0.657,1.316,0.986,2.841,0.986,4.578s-0.329,3.262-0.986,4.578
		c-0.658,1.315-1.546,2.421-2.664,3.315s-2.421,1.552-3.906,1.973c-1.487,0.421-3.072,0.631-4.755,0.631
		c-1.685,0-3.27-0.21-4.756-0.631s-2.789-1.078-3.906-1.973c-1.119-0.895-2.006-2-2.664-3.315s-0.986-2.841-0.986-4.578
		s0.328-3.262,0.986-4.578c0.658-1.315,1.545-2.42,2.664-3.314c1.117-0.894,2.42-1.572,3.906-2.032
		C274.262,121.775,275.847,121.544,277.531,121.544z M277.531,126.358c-0.869,0-1.691,0.132-2.467,0.395
		c-0.776,0.263-1.46,0.638-2.053,1.125c-0.592,0.487-1.064,1.092-1.42,1.815c-0.355,0.724-0.533,1.546-0.533,2.466
		c0,0.921,0.178,1.743,0.533,2.466c0.355,0.724,0.828,1.329,1.42,1.815c0.593,0.486,1.276,0.861,2.053,1.125
		c0.775,0.263,1.598,0.395,2.467,0.395c0.867,0,1.689-0.132,2.466-0.395c0.776-0.264,1.46-0.639,2.052-1.125
		s1.066-1.091,1.421-1.815c0.354-0.723,0.532-1.545,0.532-2.466c0-0.92-0.178-1.743-0.532-2.466
		c-0.354-0.723-0.829-1.328-1.421-1.815c-0.592-0.486-1.275-0.861-2.052-1.125C279.221,126.49,278.399,126.358,277.531,126.358z"/>
</g>
<g>
	<path fill="#FFFFFF" d="M6.906,139.449c0.21-0.053,0.395-0.111,0.552-0.178c0.158-0.064,0.237-0.229,0.237-0.493
		c0-0.052-0.085-0.341-0.256-0.868c-0.171-0.525-0.401-1.217-0.69-2.072c-0.29-0.854-0.612-1.828-0.967-2.919
		c-0.355-1.091-0.724-2.203-1.105-3.334c-0.382-1.131-0.757-2.25-1.125-3.354c-0.369-1.104-0.698-2.098-0.987-2.979
		c-0.29-0.881-0.526-1.611-0.71-2.19c-0.184-0.578-0.29-0.907-0.315-0.986c-0.079-0.289-0.211-0.434-0.395-0.434v-0.474h7.221v0.474
		c-0.237,0.053-0.434,0.112-0.592,0.178c-0.158,0.066-0.237,0.204-0.237,0.414c0,0.079,0.072,0.355,0.217,0.829
		c0.144,0.474,0.335,1.079,0.572,1.815c0.237,0.737,0.5,1.546,0.79,2.427c0.289,0.882,0.578,1.763,0.868,2.644
		c0.289,0.882,0.559,1.717,0.809,2.506c0.25,0.789,0.454,1.447,0.611,1.973h0.079c0.158-0.5,0.355-1.138,0.592-1.914
		c0.237-0.775,0.493-1.604,0.77-2.486s0.552-1.769,0.829-2.664c0.276-0.894,0.526-1.709,0.75-2.446
		c0.223-0.736,0.401-1.348,0.533-1.835c0.131-0.487,0.197-0.77,0.197-0.849c0-0.21-0.099-0.348-0.296-0.414
		c-0.197-0.065-0.375-0.125-0.533-0.178v-0.474h9.392v0.474c-0.184,0.053-0.342,0.112-0.474,0.178
		c-0.132,0.066-0.197,0.204-0.197,0.414c0,0.026,0.065,0.29,0.197,0.79c0.131,0.5,0.302,1.131,0.513,1.894
		c0.21,0.763,0.447,1.612,0.71,2.545c0.263,0.935,0.513,1.842,0.75,2.723c0.237,0.882,0.46,1.704,0.671,2.466
		c0.21,0.763,0.368,1.355,0.474,1.776h0.079c0.079-0.316,0.23-0.822,0.454-1.52c0.223-0.697,0.479-1.479,0.77-2.348
		c0.289-0.868,0.585-1.769,0.888-2.703c0.302-0.934,0.585-1.796,0.849-2.585c0.263-0.789,0.479-1.46,0.651-2.013
		c0.171-0.552,0.257-0.868,0.257-0.947c0-0.237-0.086-0.395-0.257-0.474c-0.171-0.079-0.362-0.144-0.572-0.197v-0.474h6.63v0.474
		c-0.211,0.026-0.362,0.105-0.454,0.237c-0.092,0.132-0.165,0.303-0.217,0.513c-0.026,0.079-0.132,0.402-0.316,0.967
		c-0.184,0.566-0.421,1.276-0.71,2.131c-0.29,0.855-0.619,1.829-0.987,2.92c-0.369,1.092-0.75,2.197-1.145,3.315
		c-0.395,1.118-0.769,2.216-1.125,3.295c-0.355,1.079-0.678,2.046-0.967,2.901c-0.29,0.855-0.52,1.553-0.69,2.091
		c-0.171,0.54-0.256,0.835-0.256,0.888c0,0.237,0.085,0.382,0.256,0.435c0.171,0.053,0.348,0.093,0.533,0.118v0.474h-8.208v-0.474
		c0.526-0.078,0.789-0.263,0.789-0.553c0-0.315-0.132-0.967-0.395-1.953c-0.263-0.986-0.586-2.137-0.967-3.453
		c-0.382-1.315-0.789-2.716-1.223-4.203s-0.835-2.887-1.204-4.203h-0.079c-0.315,1.158-0.71,2.493-1.184,4.005
		c-0.474,1.513-0.934,2.966-1.381,4.36c-0.448,1.395-0.829,2.604-1.145,3.631c-0.315,1.025-0.473,1.631-0.473,1.814
		c0,0.369,0.289,0.553,0.868,0.553v0.474H6.906V139.449z"/>
</g>
</svg>
