<svg version="1.1" xmlns="http://www.w3.org/2000/svg" viewBox="0 0 45.02 65.92">
<style type="text/css">
	path {fill:white;}
</style>
<path class="st0" d="M31.7,15.64l5.75-4.19c0.68-0.46,0.96-1.22,1.07-1.78c0.29,0.05,0.59,0.09,0.91,0.09
	c1.05,0,1.96-0.31,2.53-0.79c1.69-0.01,3.06-0.84,3.06-1.87c0-1.03-1.39-1.87-3.1-1.87c-0.76,0-1.45,0.17-1.99,0.45
	c0.06-0.14,0.1-0.29,0.1-0.45c0-1.03-1.39-1.87-3.1-1.87c-1.71,0-3.1,0.84-3.1,1.87c0,0.1,0.02,0.2,0.05,0.3
	c-1.26,0.38-2.12,1.11-2.12,1.95c0,0.29,0.11,0.57,0.29,0.82c-0.9,0.75-2.23,1.95-3.33,3.3l-0.9,1.27c-0.3,0.43-0.79,0.68-1.31,0.68
	H26l3.65-6.15c1.51-0.45,2.48-1.16,2.48-1.96c0-1.13-1.93-2.07-4.54-2.36c0.21-0.26,0.32-0.54,0.32-0.84C27.91,1,25.95,0,23.54,0
	c-2.19,0-3.98,0.83-4.3,1.9c-0.33-0.04-0.68-0.07-1.04-0.07c-2.41,0-4.37,1-4.37,2.24c0,1.12,1.61,2.04,3.7,2.21
	c-0.11,0.19-0.19,0.39-0.19,0.59c0,0.55,0.42,1.04,1.1,1.43l-1.95,2.62c-0.2,0.27-0.19,0.63,0.01,0.89l1.73,2.23h-3.9
	c-0.42,0-0.74-0.37-0.68-0.78l0.44-4.73c0.55-0.31,0.87-0.67,0.87-1.05c0-0.62-0.84-1.18-2.2-1.59c0.13-0.21,0.22-0.43,0.22-0.66
	c0-1.24-1.96-2.24-4.37-2.24c-2.41,0-4.37,1-4.37,2.24c0,0.08,0.03,0.15,0.04,0.23C1.75,5.82,0,6.59,0,7.48
	c0,0.68,1.01,1.29,2.6,1.7C2.52,9.35,2.46,9.53,2.46,9.72c0,1.24,1.96,2.24,4.37,2.24c0.48,0,0.93-0.05,1.35-0.12l2.69,3.38
	c0.62,0.78,1.56,1.24,2.56,1.24h3.93c-1.43,3.93-5.48,16.19-5.33,29.06c0.09,8.13,1.12,14.22,1.56,16.51
	c-7.83,0.64-13.33,2.14-13.33,3.89h43.52c0-1.68-5.04-3.13-12.35-3.81c0.51-3.97,2.42-19.9,1.21-27.46
	c-1.43-8.97-4.1-16.2-5.07-18.63h2.97C30.96,16.02,31.36,15.89,31.7,15.64z M11.27,12.49l-1.02-1.39c0.59-0.38,0.95-0.86,0.95-1.38
	c0-0.1-0.03-0.19-0.06-0.29c0.41-0.07,0.79-0.15,1.14-0.24l-0.33,3.11C11.92,12.65,11.47,12.77,11.27,12.49z M25.68,10.83
	c-0.1,0.16-0.34,0.1-0.36-0.08l-0.29-2.18c0.47-0.19,0.85-0.42,1.14-0.69c0.5-0.01,0.98-0.04,1.44-0.09L25.68,10.83z M22.02,9.11
	c0.37,0,0.72-0.03,1.06-0.06l0.55,5.15c0.03,0.28-0.3,0.47-0.52,0.29l-3.72-2.87c-0.25-0.19-0.3-0.55-0.11-0.8L20.65,9
	C21.09,9.07,21.54,9.11,22.02,9.11z M36.14,10.82l-0.77,0.53V9.69c0.17,0.01,0.34,0.03,0.52,0.03c0.43,0,0.83-0.04,1.21-0.11
	C36.92,10.09,36.55,10.54,36.14,10.82z M29.85,12.34c0.18-0.24,2.03-2.13,3.14-3.27c0.34,0.18,0.74,0.33,1.18,0.44v2.66l-2.74,1.88
	c-0.43,0.3-1.02,0.26-1.4-0.1C29.77,13.72,29.41,12.91,29.85,12.34z"/>
</svg>
