<?xml version="1.0" encoding="utf-8"?>
<!-- Generator: Adobe Illustrator 25.0.1, SVG Export Plug-In . SVG Version: 6.00 Build 0)  -->
<svg version="1.1" xmlns="http://www.w3.org/2000/svg" xmlns:xlink="http://www.w3.org/1999/xlink" x="0px" y="0px"
	 viewBox="0 0 661.1 958.4" style="enable-background:new 0 0 661.1 958.4;" xml:space="preserve">
<style type="text/css">
	.st0{fill:#F2F2F2;}
	.st1{fill:#E9E9E9;}
	.st2{fill:#DADADA;}
	.st3{fill:none;stroke:#6592B4;stroke-width:1.4;}
	.st4{fill:#6592B4;}
	.st5{fill:#1A171B;}
	.st6{fill:none;stroke:#F9B000;stroke-width:2;stroke-miterlimit:10;stroke-dasharray:4.2,4.2;}
	.st7{fill:none;stroke:#F9B000;stroke-width:2;stroke-miterlimit:10;}
	.st8{fill:#FFFFFF;}
	.st9{fill:#F9B000;}
	.st10{fill:#A3A2A4;}
</style>
<g id="Ebene_2">
</g>
<g id="Städte">
	<g>
		<path class="st0" d="M304.4,603.6c0,0,21.2-15.3,25-30.2c3.8-14.9,4.8-27.8,5.8-42.7c1-14.9,19.2-27.7,11.2-34.1
			c-2.1-1.7-8.6-3.5-11.9-6.3c-3.6-3-3.7-7.4-2-15.6c0,0-12.8-0.9-20.1-7.2c-7.1-6.1-18.4-20.1-21.8-28.4c-5.6-13.4,6.7-51.6,0-57.4
			c-3.5-3-15.2-9.9-23.8-21c-8.2-10.5-13.1-25.2-20.8-30.8c-15.9-11.5-32.4-15.6-44.1-10c-11.7,5.6-37,35-43.8,33.6
			c-17.1-3.5-11.5-11.8-28.8-20.2c-6.1-3-60.9,51.4-74.3,46.4c-12-4.5,8.6-28.1,5.6-41.3c-4-17.5,7.1-40.5,10.3-52.4
			c1.6-5.9-0.9-32.7-3.2-46.8c-1.5-9.2-41.7,8.1-46,0c-11.9-22.2,8.1-34.5-1.2-46.2c-5.9-7.4-3.5-10.8-7.5-9.9
			c-5.1,1.2-9.2,14-10.6,8.3c-3.3-14.3-1.7-19.5,3.6-26.8c0.5-0.7,10.6-4.4,14.5-4.4c6.6,0,24.5,0.4,15.5-4.6
			c-5.5-3-4.1-9.1-3.8-10.3c2.8-10.6,3.3-14.8,5.6-17.7c1.2-1.6,18.7-5.9,21.6-7.9c7.5-5.1,7.7-14.9,8.3-11.5
			C70.6,125,96,137.7,104.7,133c8.7-4.8,0-1.6-1.6-15.9c-1.6-14.3-13.5-42.1-13.5-49.2c0-7.1-0.1-18.6,20.6-19.8
			c13.5-0.8,48.5,23.5,70.3,28c18.5,3.9,35.3,6.9,35.3,6.9l97.6,128.4l6.7,81.4L419.8,429l110.1,103.4l-68.8,85.5l-74.4,19
			L304.4,603.6z"/>
		<path class="st1" d="M467.5,561.6c0,0-9.7,13.9-14.3,10.6s-3.4-8.7-7.3-3.3c-3.8,5.4-4,5.3-11.9,9.9c-7.9,4.6-14.2,7.9-20.5,1.3
			c-6.4-6.6-9.9-10.6-17.2-8.6c-7.3,2-25.7,4.1-26.5,10.6c-0.8,6.5,10.6,17.6,3.3,23.1c-7.3,5.6-29.8,1.3-37.7-4
			c-7.9-5.3-7.1-7.3-14.8-9.3c-7.7-2-9.8-0.3-12.7-2.6c-2.9-2.4,6-8.6-12.7-9.3c-18.7-0.7-28.3,1.3-43.1,2
			c-14.8,0.7-37.2-3.8-51.3,1.3c-14.2,5.2-22.8,9.9-30.7,21.8c-7.9,11.9-16.9,30.2-22.5,29.4c-5.6-0.8-7.9-7.5-9.3,3.7
			c-1.3,11.2,4,20.5,5.3,29.8c1.3,9.3,1.3,20.8,7.3,25.8c6,5,7.9,17.5,7.9,27.3c0,9.8,0.9,13.1,4,23c3,9.9,10.2,11.9,13.4,21.2
			s4,8.2,3.2,15.3c-0.8,7.1-2,27.6,2.6,28.3c4.6,0.7,2.5-1.3,6.9-1.3c4.4,0,7.9,6.6,10.3,1.3c2.4-5.3,8.2-25.1,12.7-17.2
			c4.5,7.9,12.4,18.5,5.2,23.2s-15.2,12.3-6.6,15.7c8.6,3.4,14.9,0,20.5-0.8c5.6-0.8,17.7-1.7,23.2,2.2c5.4,4,15.2,8.9,15.2,8.9
			l105.8-4.2l74.7-68l49.6-82.1l1.3-70.1l-11.9-46.3L467.5,561.6z"/>
		<path class="st2" d="M484.9,116.4c0,0,0-5.7-7.1-5.7c-7.1,0-11.4,2.4-16.7,2.4c-5.3,0-4-5.6-7.9-4.8c-4,0.8-2.4,5.6-5.6,4
			c-3.2-1.6,2-9.5-3.2-9.5c-5.2,0-11.1,0.5-14.3-2.9c-3.2-3.4-8.7-13-16.7-13c-7.9,0-3.7-12.8-8.6-17.5c-4.9-4.6-7.8-15.3-4.9-18.3
			c2.9-2.9,14.3-11.6,10.3-15.9c-4-4.2-4.8-7.9-11.9-7.9c-7.1,0-11.9,4.8-15.9,1.6c-4-3.2-3.4-7.9-12-7.1
			c-8.6,0.8-11.5,7.1-15.2,3.2c-3.7-4-8.9-4.4-14-8.7c-5.2-4.4-5.7-14.3-12.7-15.9c-7-1.6-5,1.6-14.3,3.2c-9.3,1.6-19,7.1-19.8,13.5
			c-0.8,6.4,2.6,10.6-4.6,14c-7.3,3.4-5.2-2.9-12.8,0.7c-7.7,3.6-4,12.3-12.7,7.5c-8.7-4.8-8.7-14.3-14.3-4.8
			c-5.6,9.5-0.9,18.3-6.3,17.5S233.6,36.1,227,36.9c-6.6,0.8-1.6,6.1-7.9,8.7c-6.4,2.6-8.2-14.8-12.7-12.6
			c-4.5,2.2-11.1,11.5-13.5,15.2c-2.4,3.7-0.3,8.5-6.9,6.1c-6.6-2.4-25.4-24.6-33.1-19.8c-7.7,4.8-7.3,11.1-13.2,18.3
			c-6,7.1-10.6,7.1-5.3,12.7c5.3,5.6,17.7,9.5,19.8,19c2.1,9.5,5.3,14.3,8.5,19.8c3.2,5.6,4.8-1.9,8.7-3.2c4-1.3,12.7-4.8,11.1,2.4
			c-1.6,7.1-6.3,20.6-4.8,31c1.6,10.3,14.8,30.2,24.1,31.5s13.8,6.6,19.8,7.4c6.1,0.8,8.5-12.7,21.2-14.3s19.8,1.9,25.8,6.9
			c6,5,17.1,2.8,13.1,9c-4,6.2-2.4,2.9-8.7,8.2c-6.4,5.3-7.1,8.5-0.8,8.5s13.5-0.1,13.5,4c0,4.1-5.6,7.1,0,7.9
			c5.6,0.8,13.5-4.8,15.1,2.4c1.6,7.1-4,10.3-7.1,17.5c-3.2,7.1-1.6,7.4-7.1,12c-5.6,4.6-5,4.6-11.1,4.6c-6.1,0-16.4-3.2-23.3-2.4
			c-6.9,0.8-8.5,2.4-6.1,9.5c2.4,7.1,1.6,5.6-4.8,10.3c-6.4,4.8-6.5,5,3.2,9.7c9.7,4.6,32.5,17.3,39.7,22.9
			c7.1,5.6,27.8,6.6,28.6,10.8c0.8,4.2-7.1,7.8,1.6,20.1c8.7,12.3,23,15.1,27,25.4c4,10.3,11.9,13.5,19,29.4
			c7.1,15.9,15.1,21.4,18.3,21.4c3.2,0,5.6-7,6.4-2.4c0.8,4.6,7.1,15.9,10.3,17.5c3.2,1.6,7.9,1.1,4.8,9.7
			c-3.2,8.6,5.6,24.5,10.3,24.5c4.8,0,10.3-2.4,15.9,6c5.6,8.3,29.6,12.3,29.6,17.9c0,5.6-14.6,10.8-15.2,16.5
			c-0.7,5.7,7.3,16,15.9,21.6c8.6,5.6,16.5,8.7,13.4,15.9c-3.2,7.1-5.6,7.4-7.9,12.8c-2.4,5.4-0.8,2.5,0.8,10.2
			c1.6,7.7-1.3,15.9-4.8,24.2c-3.4,8.3-11.1,6.2-9.5,17.2c1.6,11,15.9,26.9,16.7,34.4c0.8,7.5,5.6,14.7,4,21
			c-1.6,6.4-10.3,15.9-7.9,26.6c2.4,10.7,6.4,32.9,2.4,39.3c-4,6.3-5.6,7.1-13.5,6.3c-7.9-0.8-19,9.5-26.6,11.9
			c-7.5,2.4-11.8,7.9-19.2,8.7c-7.4,0.8-9.8-2.4-10.6,3.2c-0.8,5.6,3.7,13-0.8,15.1c-4.5,2.1-14.3-2.4-23-1.6
			c-8.7,0.8-12.6,0.8-12.6,7.9c0,7.1-0.9,13.1,3.8,20.6c4.8,7.5,16.7,9.5,15.9,15.9c-0.8,6.3,4.2,10.1-0.8,12.2
			c-5,2.1-9.5,1.1-15.9-2c-6.3-3-2.8-7.8-13.5-7c-10.7,0.8-22,2.4-27.2,4c-5.3,1.6-13.2-11.6-15.2-4c-2,7.7,5.2,13.9-2,19
			c-7.1,5.2-9.8,9.5-15.2,9.5c-5.4,0-7.9-5.6-12.6,0c-4.6,5.6-9.1,9.1-9.1,9.1s4.8,1.5,6.7,6.7c2.2,6,4,10.3,7.1,9.5
			c3.2-0.8,4.5-7.1,7.8-4.8c3.3,2.4,17.9,5.6,17.9,10.3c0,4.8-10.6,12.7-12.2,23.8c-1.6,11.1-1.7,51.2-2.4,55.6
			c-0.7,4.4,8.7,4,4.8,7.1c-4,3.2-18,11.1-12.7,11.1c5.3,0,27.6,0,33.3-10.3s12.4-26.2,20.9-27.8c8.5-1.6,32.3-5.6,35.1-11.5
			c2.8-6,1.2-13.2,6-15.2c4.8-2,16.7,4.5,19.8-2.6c3.2-7.1-4.8-21.4-4.8-21.4s15.9,7.1,17.5,4c1.6-3.2-4.8-10.3-4.8-10.3
			s11.1-3.2,9.5-8.7c-1.6-5.6,0-18.3,0-18.3s11.1-7.1,15.9-2.4c4.8,4.8,20.6,4.2,28.6-2.4c7.9-6.6,20.6-11.1,31.4-18.3
			c10.7-7.1,21.8-12.7,28.2-15.9c6.3-3.2,8.5-9.5,22.1-15.1c13.6-5.6,15.2-7.9,16.5-15.1c1.3-7.1,12.2-7.9,12.2-15.1
			c0-7.1-0.8-24.1,0-31.1c0.8-7-4.4-24.7,0-31.7c4.4-7,4-0.7,8.7-5.4c4.8-4.8-3-22.5-3.7-30.3c-0.7-7.8-13-84.8-20.1-102.3
			c-7.1-17.5-5.6-27-7.9-31.4c-2.4-4.4-3.2-10.7-6.3-7.5c-3.2,3.2-20-21.4-26.2-28.6c-6.2-7.1-11.5-19.8-17.5-24.6
			c-6-4.8-16.7-7.9-21.8-11.9c-5.2-4-33.7-34.7-48.8-47.1c-15.1-12.4-34.1-34.7-32.5-42.6c1.6-7.9,4-9.5,0.8-14.3
			c-3.2-4.8-11.1-7.1-20.6-13.5c-9.5-6.3-28.6-35.5-30.2-42.7c-1.6-7.3,6.3-13.8,7.9-24.7c1.6-11,4.8-28.3,9.5-36.5
			c4.8-8.2,12.7-5.6,21.4-14.3c8.7-8.7,14.3-7.9,15.1-15.9c0.8-7.9,4.8-24.6,10.3-25.4c5.6-0.8,2.4-2.4,4.8-7.1
			c2.4-4.8,5-1.1,10.1,2.2c5,3.3,1.9-4.6,4.2-10.2c2.4-5.6,8.7,2,14.3-3.2c5.6-5.2,4.2-21,13.2-21.7c9-0.7,10.6,2.6,14.6-4.5
			c4-7.1,0-8.7,6-7.1c6,1.6,9.9,5.4,11.5,1.6C488.1,116.4,484.9,116.4,484.9,116.4"/>
	</g>
	<path class="st2" d="M238.4,838.4c-2.7,2-3.7,4.2-6,4.2s-4.4-2-2.7,1.8c1.7,3.8,2.2,1.5,5.2,8.9c3,7.4-1,8.2,3.5,10.3
		c4.5,2.1,0.2-0.4,2.1-6.3c1.9-6,3.4-8.4,2.4-12.9S238.4,838.4,238.4,838.4"/>
	<path class="st3" d="M304.4,803.7c0,0,4.6-3.3,6,2.6c1.3,6,0.3,9.3,3.3,9.3s7.9-2.6,9.9,4c2,6.6,6.6,12.2,12.6,16.7
		c6,4.5,5.7,5.8,14.6,7.8c8.9,2,11.2,2.6,16.5,2c5.3-0.7,13.2-4,19.2-2c6,2,11.9,4.6,15.2,4.6s12.5,0.1,12.5,0.1"/>
	<path class="st3" d="M405.5,863.8c0,0-7.9,2.1-14.6-5.2c-6.6-7.3-3.3-9.9-8.6-9.9c-5.3,0-8.6-3.3-8.6-3.3"/>
	<path class="st3" d="M392.8,870.3c0,0-9.7-12.4-18.3-16.3c-8.6-4-15.7-7.9-15.7-7.9"/>
	<path class="st3" d="M66.2,110.8c-1,9.5-20.8,13.3-26.6,16.3c-5.8,3-4.2,11.9-7.9,18.8c-3.8,6.9,7.1,8.9,7.1,12.9
		c0,4-25.2-1-32.1,5.2c-6.9,6.2-6.7,22.6-5,28.6c1.8,6,1-3,9.3-7.9s3.6,1,8.7,7.9c5.2,6.9,10.3,8.7,9.5,14.9
		c-0.8,6.2-0.8,16.9,7.1,13.9c7.9-3,11.9,0,20.8-1c8.9-1,17.7,5.2,30.1,3.2c0,0,40.3-21.4,42.3-13.8c2,7.6-0.7,6.6-8.3,13
		c-16.6,13.7-18.6,22.2-14.3,30.2c4.3,7.9,0.5,31.2-3.2,48.4c-3.6,17.2-38.1,37.4-17.2,54c13.5,10.7,32.1-29.2,45-20.6
		c12.9,8.6,18,20.9,28.6,18.3c10.6-2.6,37.6-36.2,49.2-34.9c11.6,1.3,37.2,6.6,42.9,19.5c5.6,12.9,18.5,29.8,23.8,34.7
		c5.3,5,18.5,6.6,17.2,17.2c-1.3,10.6-7.9,39.7-1.3,51.6c6.6,11.9,19,34.9,38.1,33.3c6.9-0.6-1.7,5.1,1.3,12.7
		c3,7.6,19.5,5.3,16.5,15.9c-3,10.6-14.6,19,6,28.6c8,3.7,10.6,20.9,10.6,34.1c0,13.2-4.4,28.2-0.7,34.1c3.7,6,6.2,24.1,1.3,30.7
		c-4.9,6.6-6.2,8.6-4.1,17.2c2.1,8.6,4.8,12.6,2.8,22.5c-2,9.9,9.9,45.6,1.3,48.3c-8.6,2.6-23.8-4-27.8,1.3c-4,5.3-6,20.5-11.2,22.5
		c-5.3,2-16.5-3.3-21.8,4.6c-5.3,7.9-8.6,14.6-6,21.8c2.6,7.3,6,20.5,6.6,29.8c0.7,9.3-1.3,9.3,2.6,17.2c4,7.9,8.6,9.3,15.2,19.8
		c6.6,10.6,13.2,11.9,17.9,17.9c4.6,6,14.3,12.6,20.4,19.2c6.1,6.6,8.1,7.9,9.4,13.2c1.3,5.3,4,11.2,4,11.2"/>
	<g>
		<path class="st3" d="M292.8,722.7c0,0,2.6-0.3,2.1,7.1c-0.5,7.4,0.5,6.9,0,13.9c-0.5,6.9,4,12.8,4,12.8"/>
	</g>
	<g>
		<path class="st4" d="M222.5,655.3c0,0,2,8.9,4,13.4c2,4.5,3,12.4,8.4,14.4c5.5,2,13.4-1,14.9,5s-1.8,5,4.3,10.4
			c6.1,5.5,11.1,2,16.5,6.4c5.5,4.5,6.6,5,11.2,9.9c4.6,5,5.6,6.9,11.1,8.4c5.5,1.5-4-3.5-5.5-10.9c-1.5-7.4-3-8.9-6.9-9.9
			c-4-1-5.6-4-7.4-9.9c-1.8-6-2.5-2.5-6.9-6c-4.5-3.5-6.4-5-10.4-9.9c-4-5-5-10.9-10.4-15.4c-5.5-4.5-4.3-4-11.1-5.5
			C227.5,654.3,222.5,655.3,222.5,655.3"/>
	</g>
	<g>
		<g>
			<path d="M449.2,755.2h-2.8l-3.7-11.4h2.6l2.5,8h0l2.6-8h2.6L449.2,755.2z"/>
			<path d="M457.2,743.8h2.5v11.4h-2.5V743.8z"/>
			<path d="M465.1,743.8h8.5v2.1h-6v2.4h5.5v2h-5.5v2.8h6.2v2.1h-8.7V743.8z"/>
			<path d="M481.2,745.9h-3.4v-2.1h9.4v2.1h-3.4v9.3h-2.5V745.9z"/>
			<path d="M491.6,743.8h2.5l4.8,7.7h0v-7.7h2.4v11.4h-2.5l-4.8-7.7h0v7.7h-2.4V743.8z"/>
			<path d="M509.8,743.8h2.6l4.3,11.4h-2.6l-0.9-2.5h-4.3l-0.9,2.5h-2.5L509.8,743.8z M509.6,750.8h3l-1.4-4.2h0L509.6,750.8z"/>
			<path d="M520.9,743.8h3.5l2.7,7.9h0l2.5-7.9h3.5v11.4h-2.4v-8.1h0l-2.8,8.1H526l-2.8-8h0v8h-2.4V743.8z"/>
		</g>
	</g>
	<g>
		<g>
			<path d="M156.2,225.2h2.5v9.3h5.6v2.1h-8.1V225.2z"/>
			<path d="M172,225.2h2.6l4.3,11.4h-2.6l-0.9-2.5h-4.3l-0.9,2.5h-2.5L172,225.2z M171.8,232.2h3l-1.4-4.2h0L171.8,232.2z"/>
			<path d="M188.2,225c3.5,0,5.6,2.6,5.6,6c0,3.3-2.1,5.9-5.6,5.9s-5.6-2.6-5.6-5.9C182.6,227.6,184.6,225,188.2,225z M188.2,234.8
				c2.3,0,3.1-1.9,3.1-3.8c0-2-0.8-3.9-3.1-3.9s-3.1,1.9-3.1,3.9C185.1,232.9,185.9,234.8,188.2,234.8z"/>
			<path d="M200.4,232.9c0,1.5,1.2,2.1,2.5,2.1c0.9,0,2.2-0.3,2.2-1.4c0-1.2-1.7-1.4-3.4-1.9c-1.7-0.4-3.4-1.1-3.4-3.2
				c0-2.3,2.2-3.5,4.3-3.5c2.4,0,4.6,1,4.6,3.7h-2.4c-0.1-1.4-1.1-1.7-2.3-1.7c-0.8,0-1.7,0.3-1.7,1.3c0,0.9,0.5,1,3.4,1.7
				c0.8,0.2,3.4,0.7,3.4,3.3c0,2.1-1.6,3.7-4.8,3.7c-2.5,0-4.9-1.2-4.9-4.1H200.4z"/>
		</g>
	</g>
	<g>
		<g>
			<path d="M288.7,668.4h2.5v4.7l4.5-4.7h3.1l-4.5,4.5l4.9,6.9H296l-3.4-5.1l-1.4,1.5v3.7h-2.5V668.4z"/>
			<path d="M306.5,668.4h2.6l4.3,11.4h-2.6l-0.9-2.5h-4.3l-0.9,2.5h-2.5L306.5,668.4z M306.3,675.4h3l-1.4-4.2h0L306.3,675.4z"/>
			<path d="M317.6,668.4h3.5l2.7,7.9h0l2.5-7.9h3.5v11.4h-2.4v-8.1h0l-2.8,8.1h-1.9l-2.8-8h0v8h-2.4V668.4z"/>
			<path d="M335.3,668.4h5.4c2.2,0,3.6,0.7,3.6,2.8c0,1.1-0.6,1.9-1.6,2.4c1.4,0.4,2.1,1.5,2.1,2.9c0,2.3-2,3.3-4,3.3h-5.5V668.4z
				 M337.8,673h2.5c0.9,0,1.5-0.4,1.5-1.4c0-1.1-0.8-1.3-1.7-1.3h-2.4V673z M337.8,677.9h2.7c1,0,1.9-0.3,1.9-1.5
				c0-1.2-0.7-1.6-1.8-1.6h-2.7V677.9z"/>
			<path d="M354.9,668.1c3.5,0,5.6,2.6,5.6,6c0,3.3-2.1,5.9-5.6,5.9c-3.5,0-5.6-2.6-5.6-5.9C349.2,670.8,351.3,668.1,354.9,668.1z
				 M354.9,678c2.3,0,3.1-1.9,3.1-3.8c0-2-0.8-3.9-3.1-3.9s-3.1,1.9-3.1,3.9C351.8,676.1,352.6,678,354.9,678z"/>
			<path d="M365.4,668.4h4.9c3,0,5.2,1.9,5.2,5.7c0,3.3-1.7,5.8-5.2,5.8h-4.9V668.4z M367.9,677.7h2.2c1.5,0,2.8-0.9,2.8-3.4
				c0-2.3-0.8-3.8-3.3-3.8h-1.8V677.7z"/>
			<path d="M382.2,676c0,1.5,1.2,2.1,2.5,2.1c0.9,0,2.2-0.3,2.2-1.4c0-1.2-1.7-1.4-3.4-1.9c-1.7-0.4-3.4-1.1-3.4-3.2
				c0-2.3,2.2-3.5,4.3-3.5c2.4,0,4.6,1,4.6,3.7h-2.4c-0.1-1.4-1.1-1.7-2.3-1.7c-0.8,0-1.7,0.3-1.7,1.3c0,0.9,0.5,1,3.4,1.7
				c0.8,0.2,3.4,0.7,3.4,3.3c0,2.1-1.6,3.7-4.8,3.7c-2.5,0-4.9-1.2-4.9-4.1H382.2z"/>
			<path d="M401.6,672.3c-0.2-1.1-1.2-2-2.5-2c-2.3,0-3.1,1.9-3.1,3.9c0,1.9,0.8,3.8,3.1,3.8c1.5,0,2.4-1.1,2.6-2.6h2.4
				c-0.3,2.8-2.2,4.7-5,4.7c-3.5,0-5.6-2.6-5.6-5.9c0-3.4,2.1-6,5.6-6c2.5,0,4.6,1.5,4.9,4.1H401.6z"/>
			<path d="M409.1,668.4h2.5v4.4h4.6v-4.4h2.5v11.4h-2.5v-4.9h-4.6v4.9h-2.5V668.4z"/>
			<path d="M427.3,668.4h2.6l4.3,11.4h-2.6l-0.9-2.5h-4.3l-0.9,2.5h-2.5L427.3,668.4z M427,675.4h3l-1.4-4.2h0L427,675.4z"/>
		</g>
	</g>
	<g>
		<g>
			<path class="st5" d="M430.6,165.4h2.3v4.4h2.7v-4.4h2.3v11.4h-2.3v-5.1h-2.7v5.1h-2.3V165.4z"/>
			<path class="st5" d="M440,170.9v-0.2c0-2,1.4-2.7,3-2.7c2.6,0,3.1,1.1,3.1,2.6v4.5c0,0.8,0,1.2,0.3,1.7h-2.1
				c-0.1-0.3-0.2-0.6-0.3-0.9h0c-0.5,0.9-1.1,1.1-2.2,1.1c-1.5,0-2.1-1.3-2.1-2.5c0-1.6,0.7-2.3,2.2-2.7l1.2-0.3
				c0.7-0.2,0.9-0.4,0.9-1c0-0.7-0.3-1.1-1-1.1c-0.7,0-1,0.4-1,1.1v0.2H440z M444.1,172.6c-0.3,0.2-0.7,0.4-0.9,0.4
				c-0.9,0.2-1.2,0.6-1.2,1.4c0,0.7,0.2,1.2,0.8,1.2c0.6,0,1.4-0.4,1.4-1.3V172.6z"/>
			<path class="st5" d="M448.5,165.4h2.2v11.4h-2.2V165.4z"/>
			<path class="st5" d="M456,168c2.7,0,3.4,1.5,3.4,4.5c0,2.9-0.9,4.5-3.4,4.5c-2.7,0-3.4-1.5-3.4-4.5
				C452.6,169.6,453.4,168,456,168z M456,175.6c0.9,0,1.2-0.9,1.2-3s-0.3-3-1.2-3c-1.1,0-1.2,1.3-1.2,3S454.9,175.6,456,175.6z"/>
			<path class="st5" d="M461.2,168.3h2.1v1h0c0.5-0.8,1.3-1.2,2.2-1.2c1.4,0,2.2,0.8,2.2,2.4v6.4h-2.2v-5.9c0-0.9-0.3-1.2-0.9-1.2
				c-0.8,0-1.2,0.5-1.2,1.4v5.7h-2.2V168.3z"/>
			<path class="st5" d="M476.3,168.3v8.2c0,2.3-1,3.4-3.6,3.4c-1.9,0-2.9-0.8-2.9-2.3h2.1c0,0.3,0.1,0.5,0.3,0.7
				c0.2,0.1,0.5,0.2,0.7,0.2c0.9,0,1.2-0.7,1.2-1.6v-1.1h0c-0.4,0.6-1.1,1.1-1.8,1.1c-1.8,0-2.6-1.2-2.6-4.4c0-2,0.3-4.4,2.7-4.4
				c0.6,0,1.4,0.3,1.8,1.2h0v-1H476.3z M473,175.1c0.9,0,1.2-1,1.2-2.5c0-2.1-0.3-2.9-1.2-2.9c-1,0-1.2,0.8-1.2,3.1
				C471.8,174,472,175.1,473,175.1z"/>
		</g>
	</g>
	<g>
		<g>
			<path class="st5" d="M474,426.8h2.3v4.4h2.7v-4.4h2.3v11.4H479v-5.1h-2.7v5.1H474V426.8z"/>
			<path class="st5" d="M487.9,437.2L487.9,437.2c-0.5,0.8-1.3,1.2-2.2,1.2c-1.4,0-2.2-0.8-2.2-2.4v-6.4h2.2v5.9
				c0,0.9,0.3,1.2,0.9,1.2c0.8,0,1.2-0.5,1.2-1.4v-5.7h2.2v8.6h-2.1V437.2z"/>
			<path class="st5" d="M494,434.2v0.7c0,1,0.3,2,1.1,2c0.7,0,1-0.6,1.2-1.6h2c-0.1,2-1,3.1-3.1,3.1c-3.2,0-3.3-2.5-3.3-4.6
				c0-2.3,0.4-4.5,3.4-4.5c2.6,0,3.2,1.7,3.2,4.4v0.5H494z M496.2,432.9c0-1.3-0.2-2-1.1-2c-0.9,0-1.1,0.9-1.1,1.7v0.3H496.2z"/>
		</g>
	</g>
	<g>
		<g>
			<path class="st5" d="M148.7,661v0.3c0,1.1,0.3,1.8,1.5,1.8c0.7,0,1.4-0.4,1.4-1.4c0-1-0.5-1.4-2-2c-2-0.7-3-1.6-3-3.5
				c0-2.2,1.4-3.4,3.5-3.4c2,0,3.5,0.9,3.5,3.1v0.3h-2.2c0-1.1-0.4-1.7-1.2-1.7c-1,0-1.3,0.7-1.3,1.3c0,0.7,0.2,1.1,1.2,1.6l1.8,0.8
				c1.7,0.8,2.2,1.6,2.2,3c0,2.4-1.5,3.5-4,3.5c-2.6,0-3.6-1.2-3.6-3.3V661H148.7z"/>
			<path class="st5" d="M155.8,653h2.2v1.9h-2.2V653z M155.8,655.9h2.2v8.6h-2.2V655.9z"/>
			<path class="st5" d="M162.1,660.6v0.7c0,1,0.3,2,1.1,2c0.7,0,1-0.6,1.2-1.6h2c-0.1,2-1,3.1-3.1,3.1c-3.2,0-3.3-2.5-3.3-4.6
				c0-2.3,0.4-4.5,3.4-4.5c2.6,0,3.2,1.7,3.2,4.4v0.5H162.1z M164.3,659.2c0-1.3-0.2-2-1.1-2c-0.9,0-1.1,0.9-1.1,1.7v0.3H164.3z"/>
			<path class="st5" d="M168.2,655.9h2.1v0.9h0c0.6-0.8,1.2-1.1,2.2-1.1c1,0,1.7,0.5,2,1.4h0c0.3-0.9,1.1-1.4,2.2-1.4
				c1.5,0,2.1,0.9,2.1,2.6v6.3h-2.2v-6c0-0.7-0.2-1.1-0.9-1.1c-0.7,0-1.2,0.5-1.2,1.5v5.7h-2.2v-6c0-0.7-0.2-1.1-0.9-1.1
				c-0.7,0-1.2,0.5-1.2,1.5v5.7h-2.2V655.9z"/>
			<path class="st5" d="M185.5,653.1h4.3c1.9,0,3,1,3,2.9c0,1.5-0.6,2.5-1.9,2.8v0c1.6,0.2,1.8,1.1,1.8,3.5c0,1.2,0.1,1.8,0.5,2v0.1
				h-2.5c-0.2-0.3-0.3-0.8-0.3-1.2l-0.1-2.2c0-0.9-0.4-1.4-1.4-1.4h-1.2v4.8h-2.3V653.1z M187.8,658.1h1c1.1,0,1.7-0.5,1.7-1.7
				c0-1.1-0.6-1.6-1.6-1.6h-1.1V658.1z"/>
			<path class="st5" d="M196.9,660.6v0.7c0,1,0.3,2,1.1,2c0.7,0,1-0.6,1.2-1.6h2c-0.1,2-1,3.1-3.1,3.1c-3.2,0-3.3-2.5-3.3-4.6
				c0-2.3,0.4-4.5,3.4-4.5c2.6,0,3.2,1.7,3.2,4.4v0.5H196.9z M199.2,659.2c0-1.3-0.2-2-1.1-2c-0.9,0-1.1,0.9-1.1,1.7v0.3H199.2z"/>
			<path class="st5" d="M203,658.6v-0.2c0-2,1.4-2.7,3-2.7c2.6,0,3.1,1.1,3.1,2.6v4.5c0,0.8,0,1.2,0.3,1.7h-2.1
				c-0.1-0.3-0.2-0.6-0.3-0.9h0c-0.5,0.9-1.1,1.1-2.2,1.1c-1.5,0-2.1-1.3-2.1-2.5c0-1.6,0.7-2.3,2.2-2.7l1.2-0.3
				c0.7-0.2,0.9-0.4,0.9-1c0-0.7-0.3-1.1-1-1.1c-0.7,0-1,0.4-1,1.1v0.2H203z M207.1,660.2c-0.3,0.2-0.7,0.4-0.9,0.4
				c-0.9,0.2-1.2,0.6-1.2,1.4c0,0.7,0.2,1.2,0.8,1.2s1.4-0.4,1.4-1.3V660.2z"/>
			<path class="st5" d="M211.4,655.9h2.1v0.9h0c0.5-0.8,1.1-1.1,2-1.1c1.8,0,2.6,1.3,2.6,4.5s-0.8,4.5-2.6,4.5c-0.8,0-1.4-0.3-1.9-1
				h0v3.6h-2.2V655.9z M214.8,663c1,0,1.2-1,1.2-2.8s-0.2-2.8-1.2-2.8c-1,0-1.2,1-1.2,2.8S213.8,663,214.8,663z"/>
		</g>
	</g>
	<g>
		<g>
			<path class="st5" d="M211.1,772.9h4c2.3,0,3.1,1.7,3.1,3.4c0,2.4-1.5,3.4-3.6,3.4h-1.2v4.6h-2.3V772.9z M213.4,778h1
				c0.9,0,1.5-0.5,1.5-1.7c0-1.1-0.4-1.8-1.6-1.8h-1V778z"/>
			<path class="st5" d="M220,772.9h2.2v3.7h0c0.4-0.7,1.2-1.1,2.1-1.1c1.4,0,2.2,0.8,2.2,2.4v6.4h-2.2v-5.9c0-0.9-0.3-1.2-0.9-1.2
				c-0.8,0-1.2,0.5-1.2,1.4v5.7H220V772.9z"/>
			<path class="st5" d="M228.6,775.7h2.1v1h0c0.5-0.8,1.3-1.2,2.2-1.2c1.4,0,2.2,0.8,2.2,2.4v6.4h-2.2v-5.9c0-0.9-0.3-1.2-0.9-1.2
				c-0.8,0-1.2,0.5-1.2,1.4v5.7h-2.2V775.7z"/>
			<path class="st5" d="M240.3,775.5c2.7,0,3.4,1.5,3.4,4.5c0,2.9-0.9,4.5-3.4,4.5c-2.7,0-3.4-1.5-3.4-4.5
				C236.9,777,237.8,775.5,240.3,775.5z M240.3,783c0.9,0,1.2-0.9,1.2-3s-0.3-3-1.2-3c-1.1,0-1.2,1.3-1.2,3S239.2,783,240.3,783z"/>
			<path class="st5" d="M245.6,775.7h2.1v0.9h0c0.6-0.8,1.2-1.1,2.2-1.1c1,0,1.7,0.5,2,1.4h0c0.3-0.9,1.1-1.4,2.2-1.4
				c1.5,0,2.1,0.9,2.1,2.6v6.3H254v-6c0-0.7-0.2-1.1-0.9-1.1c-0.7,0-1.2,0.5-1.2,1.5v5.7h-2.2v-6c0-0.7-0.2-1.1-0.9-1.1
				c-0.7,0-1.2,0.5-1.2,1.5v5.7h-2.2V775.7z"/>
			<path class="st5" d="M262.9,772.9h4c2.3,0,3.1,1.7,3.1,3.4c0,2.4-1.5,3.4-3.6,3.4h-1.2v4.6h-2.3V772.9z M265.2,778h1
				c0.9,0,1.5-0.5,1.5-1.7c0-1.1-0.4-1.8-1.6-1.8h-1V778z"/>
			<path class="st5" d="M273.6,780.3v0.7c0,1,0.3,2,1.1,2c0.7,0,1-0.6,1.2-1.6h2c-0.1,2-1,3.1-3.1,3.1c-3.2,0-3.3-2.5-3.3-4.6
				c0-2.3,0.4-4.5,3.4-4.5c2.6,0,3.2,1.7,3.2,4.4v0.5H273.6z M275.9,779c0-1.3-0.2-2-1.1-2c-0.9,0-1.1,0.9-1.1,1.7v0.3H275.9z"/>
			<path class="st5" d="M279.8,775.7h2.1v1h0c0.5-0.8,1.3-1.2,2.2-1.2c1.4,0,2.2,0.8,2.2,2.4v6.4h-2.2v-5.9c0-0.9-0.3-1.2-0.9-1.2
				c-0.8,0-1.2,0.5-1.2,1.4v5.7h-2.2V775.7z"/>
			<path class="st5" d="M288.4,772.9h2.2v3.7h0c0.4-0.7,1.2-1.1,2.1-1.1c1.4,0,2.2,0.8,2.2,2.4v6.4h-2.2v-5.9c0-0.9-0.3-1.2-0.9-1.2
				c-0.8,0-1.2,0.5-1.2,1.4v5.7h-2.2V772.9z"/>
		</g>
	</g>
	<g>
		<g>
			<path class="st5" d="M296.4,872.6c0-1.7-0.3-2.4-1.4-2.4c-1.2,0-1.4,1.2-1.4,4.4c0,3.5,0.5,4.1,1.5,4.1c0.8,0,1.4-0.4,1.4-2.9
				h2.3c0,2.5-0.6,4.6-3.6,4.6c-3.5,0-3.9-2.5-3.9-5.9c0-3.5,0.4-5.9,3.9-5.9c3.3,0,3.5,2.4,3.5,4.1H296.4z"/>
			<path class="st5" d="M300.7,874.2V874c0-2,1.4-2.7,3-2.7c2.6,0,3.1,1.1,3.1,2.6v4.5c0,0.8,0,1.2,0.3,1.7H305
				c-0.1-0.3-0.2-0.6-0.3-0.9h0c-0.5,0.9-1.1,1.1-2.2,1.1c-1.5,0-2.1-1.3-2.1-2.5c0-1.6,0.7-2.3,2.2-2.7l1.2-0.3
				c0.7-0.2,0.9-0.4,0.9-1c0-0.7-0.3-1.1-1-1.1c-0.7,0-1,0.4-1,1.1v0.2H300.7z M304.7,875.8c-0.3,0.2-0.7,0.4-0.9,0.4
				c-0.9,0.2-1.2,0.6-1.2,1.4c0,0.7,0.2,1.2,0.8,1.2s1.4-0.4,1.4-1.3V875.8z"/>
			<path class="st5" d="M309.1,871.5h2.1v1h0c0.5-0.8,1.3-1.2,2.2-1.2c1.4,0,2.2,0.8,2.2,2.4v6.4h-2.2v-5.9c0-0.9-0.3-1.2-0.9-1.2
				c-0.8,0-1.2,0.5-1.2,1.4v5.7h-2.2V871.5z"/>
			<path class="st5" d="M328.9,868.7v1.9h-2.5v9.5h-2.3v-9.5h-2.5v-1.9H328.9z"/>
			<path class="st5" d="M330.5,868.7h2.2v3.7h0c0.4-0.7,1.2-1.1,2.1-1.1c1.4,0,2.2,0.8,2.2,2.4v6.4h-2.2v-5.9c0-0.9-0.3-1.2-0.9-1.2
				c-0.8,0-1.2,0.5-1.2,1.4v5.7h-2.2V868.7z"/>
			<path class="st5" d="M342.2,871.3c2.7,0,3.4,1.5,3.4,4.5c0,2.9-0.9,4.5-3.4,4.5c-2.7,0-3.4-1.5-3.4-4.5
				C338.9,872.9,339.7,871.3,342.2,871.3z M342.2,878.9c0.9,0,1.2-0.9,1.2-3s-0.3-3-1.2-3c-1.1,0-1.2,1.3-1.2,3
				S341.2,878.9,342.2,878.9z"/>
		</g>
	</g>
	<g>
		<g>
			<path class="st5" d="M143.6,870h3.8c3.2,0,3.8,2.2,3.8,5.6c0,4-0.9,5.9-3.9,5.9h-3.6V870z M145.9,879.7h1c1.6,0,1.9-1,1.9-4.1
				c0-2.6-0.2-3.9-2-3.9h-1V879.7z"/>
			<path class="st5" d="M153.3,875.4v-0.2c0-2,1.4-2.7,3-2.7c2.6,0,3.1,1.1,3.1,2.6v4.5c0,0.8,0,1.2,0.3,1.7h-2.1
				c-0.1-0.3-0.2-0.6-0.3-0.9h0c-0.5,0.9-1.1,1.1-2.2,1.1c-1.5,0-2.1-1.3-2.1-2.5c0-1.6,0.7-2.3,2.2-2.7l1.2-0.3
				c0.7-0.2,0.9-0.4,0.9-1c0-0.7-0.3-1.1-1-1.1c-0.7,0-1,0.4-1,1.1v0.2H153.3z M157.3,877.1c-0.3,0.2-0.7,0.4-0.9,0.4
				c-0.9,0.2-1.2,0.6-1.2,1.4c0,0.7,0.2,1.2,0.8,1.2s1.4-0.4,1.4-1.3V877.1z"/>
			<path class="st5" d="M164.7,872.6c2.7,0,3.4,1.5,3.4,4.5c0,2.9-0.9,4.5-3.4,4.5c-2.7,0-3.4-1.5-3.4-4.5
				C161.3,874.1,162.2,872.6,164.7,872.6z M164.7,880.1c0.9,0,1.2-0.9,1.2-3s-0.3-3-1.2-3c-1.1,0-1.2,1.3-1.2,3
				S163.6,880.1,164.7,880.1z"/>
			<path class="st5" d="M174.5,870h4c2.3,0,3.1,1.7,3.1,3.4c0,2.4-1.5,3.4-3.6,3.4h-1.2v4.6h-2.3V870z M176.8,875.1h1
				c0.9,0,1.5-0.5,1.5-1.7c0-1.1-0.4-1.8-1.6-1.8h-1V875.1z"/>
			<path class="st5" d="M183.3,870h2.2v3.7h0c0.4-0.7,1.2-1.1,2.1-1.1c1.4,0,2.2,0.8,2.2,2.4v6.4h-2.2v-5.9c0-0.9-0.3-1.2-0.9-1.2
				c-0.8,0-1.2,0.5-1.2,1.4v5.7h-2.2V870z"/>
			<path class="st5" d="M196.4,880.4L196.4,880.4c-0.5,0.8-1.3,1.2-2.2,1.2c-1.4,0-2.2-0.8-2.2-2.4v-6.4h2.2v5.9
				c0,0.9,0.3,1.2,0.9,1.2c0.8,0,1.2-0.5,1.2-1.4v-5.7h2.2v8.6h-2.1V880.4z"/>
			<path class="st5" d="M211.7,882.8l-1.4-1.4c-0.2,0.1-0.4,0.1-0.7,0.2c-0.2,0-0.5,0-0.8,0c-3.5,0-3.9-2.5-3.9-5.9
				c0-3.5,0.4-5.9,3.9-5.9s3.9,2.5,3.9,5.9c0,1.9-0.1,3.6-0.9,4.6l1.2,1.2L211.7,882.8z M208.8,879.9c1.4,0,1.6-1.2,1.6-4.2
				c0-3.1-0.2-4.2-1.6-4.2c-1.4,0-1.6,1.2-1.6,4.2C207.2,878.8,207.5,879.9,208.8,879.9z"/>
			<path class="st5" d="M219.1,880.4L219.1,880.4c-0.5,0.8-1.3,1.2-2.2,1.2c-1.4,0-2.2-0.8-2.2-2.4v-6.4h2.2v5.9
				c0,0.9,0.3,1.2,0.9,1.2c0.8,0,1.2-0.5,1.2-1.4v-5.7h2.2v8.6h-2.1V880.4z"/>
			<path class="st5" d="M226.4,872.6c2.7,0,3.4,1.5,3.4,4.5c0,2.9-0.9,4.5-3.4,4.5c-2.7,0-3.4-1.5-3.4-4.5
				C223,874.1,223.9,872.6,226.4,872.6z M226.4,880.1c0.9,0,1.2-0.9,1.2-3s-0.3-3-1.2-3c-1.1,0-1.2,1.3-1.2,3
				S225.3,880.1,226.4,880.1z"/>
			<path class="st5" d="M235.7,875.9c0-0.8-0.2-1.7-1-1.7c-1.1,0-1.3,1-1.3,2.9c0,2.1,0.2,3,1.2,3c0.7,0,1.1-0.6,1.1-2h2.1
				c0,2.3-0.9,3.5-3.3,3.5c-2.2,0-3.3-1.1-3.3-4.5c0-3.5,1.5-4.5,3.5-4.5c2,0,3.1,1.3,3.1,3.3H235.7z"/>
		</g>
	</g>
	<g>
		<g>
			<path class="st5" d="M422.4,800.7h2.3v4.4h2.7v-4.4h2.3v11.4h-2.3V807h-2.7v5.1h-2.3V800.7z"/>
			<path class="st5" d="M435,803.3c2.7,0,3.4,1.5,3.4,4.5c0,2.9-0.9,4.5-3.4,4.5c-2.7,0-3.4-1.5-3.4-4.5
				C431.6,804.9,432.4,803.3,435,803.3z M435,810.8c0.9,0,1.2-0.9,1.2-3s-0.3-3-1.2-3c-1.1,0-1.2,1.3-1.2,3S433.9,810.8,435,810.8z"
				/>
			<path class="st5" d="M449.6,804.5c0-1.7-0.3-2.4-1.4-2.4c-1.2,0-1.4,1.2-1.4,4.4c0,3.5,0.5,4.1,1.5,4.1c0.8,0,1.4-0.4,1.4-2.9
				h2.3c0,2.5-0.6,4.6-3.6,4.6c-3.5,0-3.9-2.5-3.9-5.9c0-3.5,0.4-5.9,3.9-5.9c3.3,0,3.5,2.4,3.5,4.1H449.6z"/>
			<path class="st5" d="M453.9,800.7h2.2v3.7h0c0.4-0.7,1.2-1.1,2.1-1.1c1.4,0,2.2,0.8,2.2,2.4v6.4h-2.2v-5.9c0-0.9-0.3-1.2-0.9-1.2
				c-0.8,0-1.2,0.5-1.2,1.4v5.7h-2.2V800.7z"/>
			<path class="st5" d="M462.6,800.5h2.2v1.9h-2.2V800.5z M462.6,803.5h2.2v8.6h-2.2V803.5z"/>
			<path class="st5" d="M471.6,800.7h3.4l1.6,8.1h0l1.6-8.1h3.4v11.4h-2.1V803h0l-2,9.1h-1.8l-2-9.1h0v9.1h-2.1V800.7z"/>
			<path class="st5" d="M484.1,800.5h2.2v1.9h-2.2V800.5z M484.1,803.5h2.2v8.6h-2.2V803.5z"/>
			<path class="st5" d="M488.5,803.5h2.1v1h0c0.5-0.8,1.3-1.2,2.2-1.2c1.4,0,2.2,0.8,2.2,2.4v6.4h-2.2v-5.9c0-0.9-0.3-1.2-0.9-1.2
				c-0.8,0-1.2,0.5-1.2,1.4v5.7h-2.2V803.5z"/>
			<path class="st5" d="M497.1,800.7h2.2v3.7h0c0.4-0.7,1.2-1.1,2.1-1.1c1.4,0,2.2,0.8,2.2,2.4v6.4h-2.2v-5.9c0-0.9-0.3-1.2-0.9-1.2
				c-0.8,0-1.2,0.5-1.2,1.4v5.7h-2.2V800.7z"/>
			<path class="st5" d="M515.2,804.5c0-1.7-0.3-2.4-1.4-2.4c-1.2,0-1.4,1.2-1.4,4.4c0,3.5,0.5,4.1,1.5,4.1c0.8,0,1.4-0.4,1.4-2.9
				h2.3c0,2.5-0.6,4.6-3.6,4.6c-3.5,0-3.9-2.5-3.9-5.9c0-3.5,0.4-5.9,3.9-5.9c3.3,0,3.5,2.4,3.5,4.1H515.2z"/>
			<path class="st5" d="M519.5,800.5h2.2v1.9h-2.2V800.5z M519.5,803.5h2.2v8.6h-2.2V803.5z"/>
			<path class="st5" d="M524.4,801h2.2v2.5h1.3v1.5h-1.3v4.7c0,0.7,0.1,0.9,0.8,0.9c0.2,0,0.4,0,0.5,0v1.5c-0.5,0-0.9,0.1-1.4,0.1
				c-1.7,0-2-0.5-2-2.3V805h-1.1v-1.5h1.1V801z"/>
			<path class="st5" d="M529.3,813.3c0.2,0,0.4,0,0.6,0c0.8,0,1.1-0.4,1.2-1.2l-2.4-8.6h2.3l1.3,6h0l1.1-6h2.2l-2.1,8
				c-0.8,3-1.3,3.4-3.3,3.4h-0.9V813.3z"/>
		</g>
	</g>
	<g>
		<g>
			<path class="st5" d="M510,457.4h3.8c3.2,0,3.8,2.2,3.8,5.6c0,4-0.9,5.9-3.9,5.9H510V457.4z M512.3,467.1h1c1.6,0,1.9-1,1.9-4.1
				c0-2.6-0.2-3.9-2-3.9h-1V467.1z"/>
			<path class="st5" d="M519.7,462.8v-0.2c0-2,1.4-2.7,3-2.7c2.6,0,3.1,1.1,3.1,2.6v4.5c0,0.8,0,1.2,0.3,1.7H524
				c-0.1-0.3-0.2-0.6-0.3-0.9h0c-0.5,0.9-1.1,1.1-2.2,1.1c-1.5,0-2.1-1.3-2.1-2.5c0-1.6,0.7-2.3,2.2-2.7l1.2-0.3
				c0.7-0.2,0.9-0.4,0.9-1c0-0.7-0.3-1.1-1-1.1c-0.7,0-1,0.4-1,1.1v0.2H519.7z M523.7,464.5c-0.3,0.2-0.7,0.4-0.9,0.4
				c-0.9,0.2-1.2,0.6-1.2,1.4c0,0.7,0.2,1.2,0.8,1.2c0.6,0,1.4-0.4,1.4-1.3V464.5z"/>
			<path class="st5" d="M535.2,457.4l2.8,7.8h0v-7.8h2.1v11.4h-2.6l-2.8-8h0v8h-2.1v-11.4H535.2z"/>
			<path class="st5" d="M542.3,462.8v-0.2c0-2,1.4-2.7,3-2.7c2.6,0,3.1,1.1,3.1,2.6v4.5c0,0.8,0,1.2,0.3,1.7h-2.1
				c-0.1-0.3-0.2-0.6-0.3-0.9h0c-0.5,0.9-1.1,1.1-2.2,1.1c-1.5,0-2.1-1.3-2.1-2.5c0-1.6,0.7-2.3,2.2-2.7l1.2-0.3
				c0.7-0.2,0.9-0.4,0.9-1c0-0.7-0.3-1.1-1-1.1c-0.7,0-1,0.4-1,1.1v0.2H542.3z M546.3,464.5c-0.3,0.2-0.7,0.4-0.9,0.4
				c-0.9,0.2-1.2,0.6-1.2,1.4c0,0.7,0.2,1.2,0.8,1.2c0.6,0,1.4-0.4,1.4-1.3V464.5z"/>
			<path class="st5" d="M550.7,460.2h2.1v1h0c0.5-0.8,1.3-1.2,2.2-1.2c1.4,0,2.2,0.8,2.2,2.4v6.4H555v-5.9c0-0.9-0.3-1.2-0.9-1.2
				c-0.8,0-1.2,0.5-1.2,1.4v5.7h-2.2V460.2z"/>
			<path class="st5" d="M565.8,460.2v8.2c0,2.3-1,3.4-3.6,3.4c-1.9,0-2.9-0.8-2.9-2.3h2.1c0,0.3,0.1,0.5,0.3,0.7
				c0.2,0.1,0.5,0.2,0.7,0.2c0.9,0,1.2-0.7,1.2-1.6v-1.1h0c-0.4,0.6-1.1,1.1-1.8,1.1c-1.8,0-2.6-1.2-2.6-4.4c0-2,0.3-4.4,2.7-4.4
				c0.6,0,1.4,0.3,1.8,1.2h0v-1H565.8z M562.4,467c0.9,0,1.2-1,1.2-2.5c0-2.1-0.3-2.9-1.2-2.9c-1,0-1.2,0.8-1.2,3.1
				C561.3,466,561.5,467,562.4,467z"/>
		</g>
	</g>
	<g>
		<g>
			<path class="st5" d="M528.2,480.3h2.3v4.4h2.7v-4.4h2.3v11.4h-2.3v-5.1h-2.7v5.1h-2.3V480.3z"/>
			<path class="st5" d="M540.8,482.9c2.7,0,3.4,1.5,3.4,4.5c0,2.9-0.9,4.5-3.4,4.5c-2.7,0-3.4-1.5-3.4-4.5
				C537.4,484.4,538.2,482.9,540.8,482.9z M540.8,490.4c0.9,0,1.2-0.9,1.2-3s-0.3-3-1.2-3c-1.1,0-1.2,1.3-1.2,3
				S539.7,490.4,540.8,490.4z"/>
			<path class="st5" d="M546.1,480.1h2.2v1.9h-2.2V480.1z M546.1,483.1h2.2v8.6h-2.2V483.1z"/>
			<path class="st5" d="M557.2,480.3h2.8l3,11.4h-2.4l-0.5-2.4h-3l-0.5,2.4h-2.4L557.2,480.3z M557.5,487.4h2.2l-1.1-5.1h0
				L557.5,487.4z"/>
			<path class="st5" d="M564.5,483.1h2.1v1h0c0.5-0.8,1.3-1.2,2.2-1.2c1.4,0,2.2,0.8,2.2,2.4v6.4h-2.2v-5.9c0-0.9-0.3-1.2-0.9-1.2
				c-0.8,0-1.2,0.5-1.2,1.4v5.7h-2.2V483.1z"/>
		</g>
	</g>
	<g>
		<g>
			<path class="st5" d="M309.7,151.1h2.3v4.4h2.7v-4.4h2.3v11.4h-2.3v-5.1H312v5.1h-2.3V151.1z"/>
			<path class="st5" d="M319.2,156.6v-0.2c0-2,1.4-2.7,3-2.7c2.6,0,3.1,1.1,3.1,2.6v4.5c0,0.8,0,1.2,0.3,1.7h-2.1
				c-0.1-0.3-0.2-0.6-0.3-0.9h0c-0.5,0.9-1.1,1.1-2.2,1.1c-1.5,0-2.1-1.3-2.1-2.5c0-1.6,0.7-2.3,2.2-2.7l1.2-0.3
				c0.7-0.2,0.9-0.4,0.9-1c0-0.7-0.3-1.1-1-1.1c-0.7,0-1,0.4-1,1.1v0.2H319.2z M323.2,158.2c-0.3,0.2-0.7,0.4-0.9,0.4
				c-0.9,0.2-1.2,0.6-1.2,1.4c0,0.7,0.2,1.2,0.8,1.2c0.6,0,1.4-0.4,1.4-1.3V158.2z"/>
			<path class="st5" d="M327.6,153.9h2.1v1h0c0.5-0.8,1.3-1.2,2.2-1.2c1.4,0,2.2,0.8,2.2,2.4v6.4h-2.2v-5.9c0-0.9-0.3-1.2-0.9-1.2
				c-0.8,0-1.2,0.5-1.2,1.4v5.7h-2.2V153.9z"/>
			<path class="st5" d="M339.3,153.7c2.7,0,3.4,1.5,3.4,4.5c0,2.9-0.9,4.5-3.4,4.5c-2.7,0-3.4-1.5-3.4-4.5
				C335.9,155.3,336.8,153.7,339.3,153.7z M339.3,161.3c0.9,0,1.2-0.9,1.2-3s-0.3-3-1.2-3c-1.1,0-1.2,1.3-1.2,3
				S338.2,161.3,339.3,161.3z"/>
			<path class="st5" d="M344.6,151h2.2v1.9h-2.2V151z M344.6,153.9h2.2v8.6h-2.2V153.9z"/>
		</g>
	</g>
	<path class="st6" d="M1.1,136.5c0,0,172.3-104,355.2,10.1"/>
	<polyline class="st7" points="423.5,158.3 356.2,146.6 340.4,295.7 397.1,376.3 468,444.5 502.3,473.1 519.1,495.2 	"/>
	<path class="st6" d="M227.9,650.9c150.4-124.3,291.3-155.7,291.3-155.7"/>
	<polyline class="st7" points="227.9,650.9 303.3,770.7 349,864.3 413.9,819.9 	"/>
	<path class="st6" d="M238.4,863.6c0,0,102.3-52.5,175.5-43.7"/>
	<path class="st5" d="M419.2,158.3c0-2.3,1.9-4.3,4.3-4.3c2.3,0,4.3,1.9,4.3,4.3c0,2.3-1.9,4.3-4.3,4.3
		C421.1,162.5,419.2,160.6,419.2,158.3L419.2,158.3z"/>
	<path class="st5" d="M352,146.6c0-2.3,1.9-4.3,4.3-4.3c2.3,0,4.3,1.9,4.3,4.3c0,2.3-1.9,4.3-4.3,4.3
		C353.9,150.8,352,148.9,352,146.6L352,146.6z"/>
	<path class="st5" d="M463.7,444.5c0-2.3,1.9-4.3,4.3-4.3c2.3,0,4.3,1.9,4.3,4.3c0,2.3-1.9,4.3-4.3,4.3
		C465.6,448.8,463.7,446.9,463.7,444.5L463.7,444.5z"/>
	<path class="st5" d="M498,473.1c0-2.3,1.9-4.3,4.3-4.3c2.3,0,4.3,1.9,4.3,4.3c0,2.3-1.9,4.3-4.3,4.3
		C499.9,477.3,498,475.4,498,473.1L498,473.1z"/>
	<path class="st5" d="M514.9,495.2c0-2.3,1.9-4.3,4.3-4.3c2.3,0,4.3,1.9,4.3,4.3c0,2.3-1.9,4.3-4.3,4.3
		C516.8,499.4,514.9,497.5,514.9,495.2L514.9,495.2z"/>
	<path class="st5" d="M223.6,650.9c0-2.3,1.9-4.3,4.3-4.3c2.3,0,4.3,1.9,4.3,4.3c0,2.3-1.9,4.3-4.3,4.3
		C225.5,655.1,223.6,653.2,223.6,650.9L223.6,650.9z"/>
	<path class="st5" d="M299,770.7c0-2.3,1.9-4.3,4.3-4.3c2.3,0,4.3,1.9,4.3,4.3s-1.9,4.3-4.3,4.3C300.9,775,299,773.1,299,770.7
		L299,770.7z"/>
	<path class="st5" d="M344.7,863.7c0-2.3,1.9-4.3,4.3-4.3c2.3,0,4.3,1.9,4.3,4.3c0,2.3-1.9,4.3-4.3,4.3
		C346.7,867.9,344.7,866,344.7,863.7L344.7,863.7z"/>
	<path class="st5" d="M234.9,863.7c0-2.3,1.9-4.3,4.3-4.3c2.3,0,4.3,1.9,4.3,4.3c0,2.3-1.9,4.3-4.3,4.3
		C236.8,867.9,234.9,866,234.9,863.7L234.9,863.7z"/>
	<path class="st5" d="M409.6,819.9c0-2.3,1.9-4.3,4.3-4.3c2.3,0,4.3,1.9,4.3,4.3s-1.9,4.3-4.3,4.3
		C411.5,824.2,409.6,822.3,409.6,819.9L409.6,819.9z"/>
	<g>
		<path class="st4" d="M20.7,933c-0.9,1.1-2,1.6-3.1,1.6c-3.5,0-5.6-2.6-5.6-5.9c0-3.4,2.1-6,5.6-6c2.3,0,4.5,1.4,4.8,4H20
			c-0.3-1.3-1.2-1.9-2.4-1.9c-2.3,0-3.1,1.9-3.1,3.9c0,1.9,0.8,3.8,3.1,3.8c1.6,0,2.6-0.9,2.7-2.5h-2.5v-1.9h4.8v6.2H21L20.7,933z"
			/>
		<path class="st4" d="M32.9,922.6c3.5,0,5.6,2.6,5.6,6c0,3.3-2.1,5.9-5.6,5.9s-5.6-2.6-5.6-5.9C27.3,925.2,29.4,922.6,32.9,922.6z
			 M32.9,932.4c2.3,0,3.1-1.9,3.1-3.8c0-2-0.8-3.9-3.1-3.9s-3.1,1.9-3.1,3.9C29.8,930.5,30.7,932.4,32.9,932.4z"/>
		<path class="st4" d="M43.5,922.8H46v9.3h5.6v2.1h-8.1V922.8z"/>
		<path class="st4" d="M56.1,922.8h8v2.1h-5.5v2.6h4.8v2h-4.8v4.7h-2.5V922.8z"/>
		<path class="st4" d="M81.8,934.3H79l-3.7-11.4h2.6l2.5,8h0l2.6-8h2.6L81.8,934.3z"/>
		<path class="st4" d="M94.9,922.6c3.5,0,5.6,2.6,5.6,6c0,3.3-2.1,5.9-5.6,5.9s-5.6-2.6-5.6-5.9C89.3,925.2,91.3,922.6,94.9,922.6z
			 M94.9,932.4c2.3,0,3.1-1.9,3.1-3.8c0-2-0.8-3.9-3.1-3.9s-3.1,1.9-3.1,3.9C91.8,930.5,92.6,932.4,94.9,932.4z"/>
		<path class="st4" d="M105.4,922.8h2.5l4.8,7.7h0v-7.7h2.4v11.4h-2.5l-4.8-7.7h0v7.7h-2.4V922.8z"/>
		<path class="st4" d="M15.5,944.1H12V942h9.4v2.1H18v9.3h-2.5V944.1z"/>
		<path class="st4" d="M25.9,942h2.5v4.4H33V942h2.5v11.4H33v-4.9h-4.6v4.9h-2.5V942z"/>
		<path class="st4" d="M44.1,942h2.6l4.3,11.4h-2.6l-0.9-2.5h-4.3l-0.9,2.5h-2.5L44.1,942z M43.8,949h3l-1.4-4.2h0L43.8,949z"/>
		<path class="st4" d="M55.1,942h2.5v11.4h-2.5V942z"/>
		<path class="st4" d="M63,942h2.5v9.3h5.6v2.1H63V942z"/>
		<path class="st4" d="M78.9,942h2.6l4.3,11.4h-2.6l-0.9-2.5H78l-0.9,2.5h-2.5L78.9,942z M78.6,949h3l-1.4-4.2h0L78.6,949z"/>
		<path class="st4" d="M89.9,942h2.5l4.8,7.7h0V942h2.4v11.4H97l-4.8-7.7h0v7.7h-2.4V942z"/>
		<path class="st4" d="M104.9,942h4.9c3,0,5.2,1.9,5.2,5.7c0,3.3-1.7,5.8-5.2,5.8h-4.9V942z M107.5,951.4h2.2c1.5,0,2.8-0.9,2.8-3.4
			c0-2.3-0.8-3.8-3.3-3.8h-1.8V951.4z"/>
	</g>
	<g>
		<path class="st4" d="M463.8,930.5c0,1.5,1.2,2.1,2.5,2.1c0.9,0,2.2-0.3,2.2-1.4c0-1.2-1.7-1.4-3.4-1.9c-1.7-0.4-3.4-1.1-3.4-3.2
			c0-2.3,2.2-3.5,4.3-3.5c2.4,0,4.6,1,4.6,3.7h-2.4c-0.1-1.4-1.1-1.7-2.3-1.7c-0.8,0-1.7,0.3-1.7,1.3c0,0.9,0.5,1,3.4,1.7
			c0.8,0.2,3.4,0.7,3.4,3.3c0,2.1-1.6,3.7-4.8,3.7c-2.5,0-4.9-1.2-4.9-4.1H463.8z"/>
		<path class="st4" d="M485.4,929.9c0,3.1-1.8,4.6-4.9,4.6c-3.1,0-4.9-1.5-4.9-4.6v-7.1h2.5v7.1c0,1.2,0.3,2.5,2.4,2.5
			c1.8,0,2.4-0.8,2.4-2.5v-7.1h2.5V929.9z M477.8,919.7h2.2v1.9h-2.2V919.7z M481.1,919.7h2.2v1.9h-2.2V919.7z"/>
		<path class="st4" d="M490.8,922.8h4.9c3,0,5.2,1.9,5.2,5.7c0,3.3-1.7,5.8-5.2,5.8h-4.9V922.8z M493.3,932.2h2.2
			c1.5,0,2.8-0.9,2.8-3.4c0-2.3-0.8-3.8-3.3-3.8h-1.8V932.2z"/>
		<path class="st4" d="M513.4,926.7c-0.2-1.1-1.2-2-2.5-2c-2.3,0-3.1,1.9-3.1,3.9c0,1.9,0.8,3.8,3.1,3.8c1.5,0,2.4-1.1,2.6-2.6h2.4
			c-0.3,2.8-2.2,4.7-5,4.7c-3.5,0-5.6-2.6-5.6-5.9c0-3.4,2.1-6,5.6-6c2.5,0,4.6,1.5,4.9,4.1H513.4z"/>
		<path class="st4" d="M520.9,922.8h2.5v4.4h4.6v-4.4h2.5v11.4H528v-4.9h-4.6v4.9h-2.5V922.8z"/>
		<path class="st4" d="M535.9,922.8h2.5v11.4h-2.5V922.8z"/>
		<path class="st4" d="M543.8,922.8h2.5l4.8,7.7h0v-7.7h2.4v11.4H551l-4.8-7.7h0v7.7h-2.4V922.8z"/>
		<path class="st4" d="M558.9,922.8h8.5v2.1h-6v2.4h5.5v2h-5.5v2.8h6.2v2.1h-8.7V922.8z"/>
		<path class="st4" d="M574.2,930.5c0,1.5,1.2,2.1,2.5,2.1c0.9,0,2.2-0.3,2.2-1.4c0-1.2-1.7-1.4-3.4-1.9c-1.7-0.4-3.4-1.1-3.4-3.2
			c0-2.3,2.2-3.5,4.3-3.5c2.4,0,4.6,1,4.6,3.7h-2.4c-0.1-1.4-1.1-1.7-2.3-1.7c-0.8,0-1.7,0.3-1.7,1.3c0,0.9,0.5,1,3.4,1.7
			c0.8,0.2,3.4,0.7,3.4,3.3c0,2.1-1.6,3.7-4.8,3.7c-2.5,0-4.9-1.2-4.9-4.1H574.2z"/>
		<path class="st4" d="M586,922.8h2.5v11.4H586V922.8z"/>
		<path class="st4" d="M595.7,930.5c0,1.5,1.2,2.1,2.5,2.1c0.9,0,2.2-0.3,2.2-1.4c0-1.2-1.7-1.4-3.4-1.9c-1.7-0.4-3.4-1.1-3.4-3.2
			c0-2.3,2.2-3.5,4.3-3.5c2.4,0,4.6,1,4.6,3.7H600c-0.1-1.4-1.1-1.7-2.3-1.7c-0.8,0-1.7,0.3-1.7,1.3c0,0.9,0.5,1,3.4,1.7
			c0.8,0.2,3.4,0.7,3.4,3.3c0,2.1-1.6,3.7-4.8,3.7c-2.5,0-4.9-1.2-4.9-4.1H595.7z"/>
		<path class="st4" d="M615.2,926.7c-0.2-1.1-1.2-2-2.5-2c-2.3,0-3.1,1.9-3.1,3.9c0,1.9,0.8,3.8,3.1,3.8c1.5,0,2.4-1.1,2.6-2.6h2.4
			c-0.3,2.8-2.2,4.7-5,4.7c-3.5,0-5.6-2.6-5.6-5.9c0-3.4,2.1-6,5.6-6c2.5,0,4.6,1.5,4.9,4.1H615.2z"/>
		<path class="st4" d="M622.6,922.8h2.5v4.4h4.6v-4.4h2.5v11.4h-2.5v-4.9h-4.6v4.9h-2.5V922.8z"/>
		<path class="st4" d="M637.7,922.8h8.5v2.1h-6v2.4h5.5v2h-5.5v2.8h6.2v2.1h-8.7V922.8z"/>
		<path class="st4" d="M652.9,930.5c0,1.5,1.2,2.1,2.5,2.1c0.9,0,2.2-0.3,2.2-1.4c0-1.2-1.7-1.4-3.4-1.9c-1.7-0.4-3.4-1.1-3.4-3.2
			c0-2.3,2.2-3.5,4.3-3.5c2.4,0,4.6,1,4.6,3.7h-2.4c-0.1-1.4-1.1-1.7-2.3-1.7c-0.8,0-1.7,0.3-1.7,1.3c0,0.9,0.5,1,3.4,1.7
			c0.8,0.2,3.4,0.7,3.4,3.3c0,2.1-1.6,3.7-4.8,3.7c-2.5,0-4.9-1.2-4.9-4.1H652.9z"/>
		<path class="st4" d="M533.7,942h3.5l2.7,7.9h0l2.5-7.9h3.5v11.4h-2.4v-8.1h0l-2.8,8.1h-1.9l-2.8-8h0v8h-2.4V942z"/>
		<path class="st4" d="M551.4,942h8.5v2.1h-6v2.4h5.5v2h-5.5v2.8h6.2v2.1h-8.7V942z"/>
		<path class="st4" d="M564.9,942h8.5v2.1h-6v2.4h5.5v2h-5.5v2.8h6.2v2.1h-8.7V942z"/>
		<path class="st4" d="M578.5,942h6.2c2,0,3.3,1.4,3.3,3.2c0,1.3-0.5,2.4-1.8,2.9v0c1.2,0.3,1.6,1.5,1.7,2.7c0,0.7,0,2.1,0.5,2.7
			h-2.5c-0.3-0.7-0.3-1.8-0.4-2.7c-0.2-1.2-0.6-1.7-1.9-1.7H581v4.5h-2.5V942z M581,947.2h2.8c1.1,0,1.7-0.5,1.7-1.6
			c0-1.1-0.6-1.6-1.7-1.6H581V947.2z"/>
	</g>
	<g>
		<ellipse class="st8" cx="356.5" cy="128.9" rx="6.9" ry="6.1"/>
		<path class="st9" d="M356.2,133.4c-2.6,0-4.7-2.1-4.7-4.7c0-2.6,2.1-4.7,4.7-4.7c2.6,0,4.7,2.1,4.7,4.7
			C360.8,131.3,358.8,133.4,356.2,133.4z M356.2,119.8c-5,0-9,4-9,9c0,2,1.3,5.3,3.9,10c1.9,3.3,3.7,6.1,3.8,6.2l1.3,2l1.3-2
			c0.1-0.1,1.9-2.9,3.8-6.2c2.6-4.7,3.9-8,3.9-10C365.2,123.8,361.1,119.8,356.2,119.8z"/>
	</g>
	<g>
		<path class="st4" d="M475.2,300.2c-0.9,1.1-2,1.6-3.1,1.6c-3.5,0-5.6-2.6-5.6-5.9c0-3.4,2.1-6,5.6-6c2.3,0,4.5,1.4,4.8,4h-2.4
			c-0.3-1.3-1.2-1.9-2.4-1.9c-2.3,0-3.1,1.9-3.1,3.9c0,1.9,0.8,3.8,3.1,3.8c1.6,0,2.6-0.9,2.7-2.5h-2.5v-1.9h4.8v6.2h-1.6
			L475.2,300.2z"/>
		<path class="st4" d="M487.4,289.8c3.5,0,5.6,2.6,5.6,6c0,3.3-2.1,5.9-5.6,5.9s-5.6-2.6-5.6-5.9
			C481.8,292.4,483.8,289.8,487.4,289.8z M487.4,299.7c2.3,0,3.1-1.9,3.1-3.8c0-2-0.8-3.9-3.1-3.9s-3.1,1.9-3.1,3.9
			C484.3,297.7,485.1,299.7,487.4,299.7z"/>
		<path class="st4" d="M497.9,290.1h2.5v9.3h5.6v2.1h-8.1V290.1z"/>
		<path class="st4" d="M510.6,290.1h8v2.1h-5.5v2.6h4.8v2h-4.8v4.7h-2.5V290.1z"/>
		<path class="st4" d="M536.2,301.5h-2.8l-3.7-11.4h2.6l2.5,8h0l2.6-8h2.6L536.2,301.5z"/>
		<path class="st4" d="M549.3,289.8c3.5,0,5.6,2.6,5.6,6c0,3.3-2.1,5.9-5.6,5.9s-5.6-2.6-5.6-5.9
			C543.7,292.4,545.8,289.8,549.3,289.8z M549.3,299.7c2.3,0,3.1-1.9,3.1-3.8c0-2-0.8-3.9-3.1-3.9s-3.1,1.9-3.1,3.9
			C546.2,297.7,547.1,299.7,549.3,299.7z"/>
		<path class="st4" d="M559.9,290.1h2.5l4.8,7.7h0v-7.7h2.4v11.4H567l-4.8-7.7h0v7.7h-2.4V290.1z"/>
		<path class="st4" d="M585.1,292.2h-3.4v-2.1h9.4v2.1h-3.4v9.3h-2.5V292.2z"/>
		<path class="st4" d="M600.7,289.8c3.5,0,5.6,2.6,5.6,6c0,3.3-2.1,5.9-5.6,5.9s-5.6-2.6-5.6-5.9C595,292.4,597.1,289.8,600.7,289.8
			z M600.7,299.7c2.3,0,3.1-1.9,3.1-3.8c0-2-0.8-3.9-3.1-3.9s-3.1,1.9-3.1,3.9C597.6,297.7,598.4,299.7,600.7,299.7z"/>
		<path class="st4" d="M611.2,290.1h2.5l4.8,7.7h0v-7.7h2.4v11.4h-2.5l-4.8-7.7h0v7.7h-2.4V290.1z"/>
		<path class="st4" d="M626.2,290.1h2.5v4.7l4.5-4.7h3.1l-4.5,4.5l4.9,6.9h-3.2l-3.4-5.1l-1.4,1.5v3.7h-2.5V290.1z"/>
		<path class="st4" d="M641,290.1h2.5v11.4H641V290.1z"/>
		<path class="st4" d="M648.9,290.1h2.5l4.8,7.7h0v-7.7h2.4v11.4h-2.5l-4.8-7.7h0v7.7h-2.4V290.1z"/>
	</g>
	<g>
		<path class="st10" d="M113.2,478h-3.4v-2.1h9.4v2.1h-3.4v9.3h-2.5V478z"/>
		<path class="st10" d="M123.6,475.9h2.5v4.4h4.6v-4.4h2.5v11.4h-2.5v-4.9h-4.6v4.9h-2.5V475.9z"/>
		<path class="st10" d="M141.8,475.9h2.6l4.3,11.4h-2.6l-0.9-2.5h-4.3l-0.9,2.5h-2.5L141.8,475.9z M141.6,482.9h3l-1.4-4.2h0
			L141.6,482.9z"/>
		<path class="st10" d="M152.9,475.9h2.5v11.4h-2.5V475.9z"/>
		<path class="st10" d="M160.8,475.9h2.5v9.3h5.6v2.1h-8.1V475.9z"/>
		<path class="st10" d="M176.6,475.9h2.6l4.3,11.4h-2.6l-0.9-2.5h-4.3l-0.9,2.5h-2.5L176.6,475.9z M176.4,482.9h3l-1.4-4.2h0
			L176.4,482.9z"/>
		<path class="st10" d="M187.6,475.9h2.5l4.8,7.7h0v-7.7h2.4v11.4h-2.5l-4.8-7.7h0v7.7h-2.4V475.9z"/>
		<path class="st10" d="M202.7,475.9h4.9c3,0,5.2,1.9,5.2,5.7c0,3.3-1.7,5.8-5.2,5.8h-4.9V475.9z M205.2,485.3h2.2
			c1.5,0,2.8-0.9,2.8-3.4c0-2.3-0.8-3.8-3.3-3.8h-1.8V485.3z"/>
	</g>
</g>
</svg>
