<svg version="1.1" xmlns="http://www.w3.org/2000/svg" viewBox="0 0 67.3 62.6">
<style type="text/css">
	.st0{fill:#FFFFFF;}
</style>
<g>
	<path class="st0" d="M37.2,9.6c0-5.3-4.9-9.6-11-9.6c-3.4,0-6.5,1.4-8.5,3.5c-1.8-0.7-4.3-0.4-6.6,0.9c-2.1,1.2-3.5,3-4,4.7h5.4
		c-2.7,3.4-4.7,8.5-5.3,14.2C6.5,28.8,7.3,33.9,9,37.8h3.7c0.5-1.8,1.2-3.7,2.1-5.6c3-6.3,5.8-9.8,9.4-11.2l0,5.2
		c1.7-0.5,3.5-1.9,4.7-4c0.7-1.3,1.1-2.6,1.3-3.8C34.2,17.1,37.2,13.6,37.2,9.6z"/>
	<path class="st0" d="M12.6,39.5l-3.6,0L0.1,50c-0.3,0.4,0,1,0.5,0.9L9.5,49l0.2-4.2l1.2,0.1l-0.2,4.2l8,3.6c0.5,0.2,1-0.3,0.7-0.8
		L12.6,39.5z"/>
</g>
<g>
	<path class="st0" d="M30.2,53c0,5.3,4.9,9.6,11,9.6c3.4,0,6.5-1.4,8.5-3.5c1.8,0.7,4.3,0.4,6.6-0.9c2.1-1.2,3.5-3,4-4.7H55
		c2.7-3.4,4.7-8.5,5.3-14.2c0.6-5.5-0.2-10.6-1.9-14.4h-3.7c-0.5,1.8-1.2,3.7-2.1,5.6c-3,6.3-5.8,9.8-9.4,11.2l0-5.2
		c-1.7,0.5-3.5,1.9-4.7,4c-0.7,1.3-1.1,2.6-1.3,3.8C33.1,45.5,30.2,49,30.2,53z"/>
	<path class="st0" d="M54.8,23.1l3.6,0l8.9-10.5c0.3-0.4,0-1-0.5-0.9l-8.9,1.9l-0.2,4.2l-1.2-0.1l0.2-4.2l-8-3.6
		c-0.5-0.2-1,0.3-0.7,0.8L54.8,23.1z"/>
</g>
</svg>
