<?xml version="1.0" encoding="utf-8"?>
<!-- Generator: Adobe Illustrator 25.0.1, SVG Export Plug-In . SVG Version: 6.00 Build 0)  -->
<svg version="1.1" id="Ebene_5" xmlns="http://www.w3.org/2000/svg" xmlns:xlink="http://www.w3.org/1999/xlink" x="0px" y="0px"
	 viewBox="0 0 726.4 979.4" style="enable-background:new 0 0 726.4 979.4;" xml:space="preserve">
<style type="text/css">
	.st0{fill:#E2E2E3;}
	.st1{fill:#39A9DC;}
	.st2{fill:none;stroke:#ED0031;stroke-width:2;stroke-miterlimit:10;stroke-dasharray:4,4;}
	.st3{fill:none;stroke:#ED0031;stroke-width:2;stroke-miterlimit:10;}
	.st4{fill:#FFFFFF;}
	.st5{fill:#ED0031;}
</style>
<path class="st0" d="M474.3,150.1c4.7-3.3,18.7,6,23.3,4s8.7-5.7,11-4.3s9.7,4.7,11.7-2s0.3-14-1-20.7c-1.3-6.7-4.7-14,0-17.7
	c4.7-3.7,10.3-6,9.7-12.3c-0.7-6.3-5.3-16.3-3.7-21.3c1.7-5,3-17-0.3-27.7s-12-20.7-12-27.3s2-12.3,6-13s2.3-8.7,6.7-7.7
	c4.3,1,30.7,27.7,38.7,34.3s29.3,28,46.3,31.3c17,3.3,34.3,0.7,36.7,4.7c2.3,4,2.3,10,10.7,9.7c8.3-0.3,21.3-9,26-17.7
	s6.3-16.3,9.3-15c3,1.3-2.3,22.7-4.3,29c-2,6.3,0,12.3,4.3,14.3c4.3,2,8,1.7,8,4s-3.3,5-1.3,9s1.7,10,5.3,10.3
	c3.7,0.3,10.7-5.3,12.7-8c2-2.7,7-6.7,8.3-4.3c1.3,2.3-6.7,6.3-7.7,9.7c-1,3.3-1.3,9.7-4.7,9.7s-8.7,2.7-11.3,3
	c-2.7,0.3-0.7,6-5.3,9c-4.7,3-10.2,6-9.2,2.6s-3.7-6.7-4.4-2.1s0.5,8.8-1.8,8.4c-2.3-0.3-17.7-3.7-24.7-0.7s-21,20.3-26.7,30.7
	c-5.7,10.3-7.3,19.3-6,26c1.3,6.7,1.7,16.3-0.7,17c-2.3,0.7-7-8.3-16.3-8.3c-9.3,0-14.2-2.3-22.5-6.3s-17-6-21-9.2s-7.5-8.8-15.5-8
	s-16.2,4.8-22,10.8s-7.8,13.8-12.2,14c-4.5,0.2-18.5-23.2-26.8-12.5s-6,21.2,0.8,23.5s15.2,0.2,18.5,3.5s7.8,11.2,12.5,12
	s11,1.2,9.2,4s-7.8,8.8-11.8,9s-10.3-3.8-13.8-1.2s-3.2,3.2-5.2,4.5s-0.2,11-4,13s-3,9-8.8,9s-15.8-4.2-13-15s6.8-15,5-21
	s-20-11.2-20-16.5s2.5-12,1.8-16s-2.2-11,0.8-12s6.8-0.8,7.8-3.5s5-7.2,7-7.2s5-3.5,6-7s4-3.5,4.5-6.5s-9.8-6.8-10.8-10.2
	S474.3,150.1,474.3,150.1z"/>
<path class="st0" d="M519.1,260.4c-1.5,3.5-4,24-2.2,25s5-5.5,9.2-5s5.5-4.2,8.5-3.8s5.2,7.2,4,13.2s-2,9.5-5.2,9.8s-6.8-8.8-10.2-6
	s-1,10.2-4,11.2s-5.2-18.2-8.8-20.2c-3.5-2-7.2,0.2-11.8,0.5s-8,3.5-5.5,6.2s3.5,6.5,2.2,8.5s-1,11-6,13s-11.8,3.5-10.5,10.8
	s10,12.2,9.8,19s-1.5,14.2-4.8,19s-2.2,8.2-6.2,8.5s-3.2,6,0.2,6.8s6.8-0.5,7.8-2.8s0.2-15.2,4-15.5s6,7,4.5,9.5s-4,10.2-1,16.2
	s5.5,7.2,4,12.2s-5.2,18.5-6,26.8s-1.2,16.8-4.8,23.5s-7.2,19.5-6.8,26s-4.5,18.2-12.8,23s-12.2,8.2-15.5,16.5
	c-3.2,8.2-11.5,32.5-28.8,43.2s-24.8,14-29,17s-7.2,15.8-13.5,15s-12.8-2.2-12-8s2-5.8,0.2-8.2s-6.2-6-5.5-7.8s3.2-4.5,7.5-6.5
	s2.2-6.2,4.8-8.5s6-3.8,4.2-6.8s-14.8,4.5-20,7s-13,9.8-10,14.2s8.5,16.2,7,20s-8.5,23.2-13,29.5s-14,13.2-14.8,16.5
	s-0.8,10.5-2.8,12.5s-5.8,2-5.8,4.5s9.2,10,8,12.5s-5.2,0.2-6.2,3.5s0,3.8-3.8,6.2s-4.2,4.2-8.2,5.5s-6.8,2.2-10.2,1.2
	s-7.5-0.5-9,1.2s-6.8-3-5.2-5.8s1-8.8-3.8-6.8s-12.8,9-21.2,8.2s-17.8,0-29.2,6s-16.5,10-25.5,9.5s-13.2,1.5-16,2.2s-1-5-6.2-4
	s-6-2.2-12.2,1s-23,7.5-22,9.8s4,5.8,2.2,7.5s-17.2,17.8-25,24.8s-16,17.5-18.2,18s-3-1.5-6.2,2s-10.5,16-14.8,18s-13.8-2.5-16.2,0
	s-5,7.8-3.8,12.2s0.8,5.8-0.8,9.2s1.2,5.8,5.2,4s10.2-3.8,12.2-2s4.2,4.8,6.5,4.8s10.2-7,20.8-7s16.8,8,19.2,7.5s1.8-6,4.2-6.8
	s2.8-8,3-11.8s4.5-4.5,4.5-6.2s-3-7,3.2-7s5.2,10.5,12.8,8.5s6.5-6,13.8-7.2s14.2-6.5,16-5.8s5.5,3.5,7.2,0.5s2-6.2,7-6.5
	s6.2-4.5,8.2-3.8s3.5,3.2,7.5,1.8s0.8-9.8,5.2-10s8.8,2.5,12.8-1.8s7.5-9,17-9.8s20.5,3.8,23.5,4.8s10.5,0,13.5-2.5
	s7.5-4.2,10.2-1.2s1.2,9-4.2,14.5s-10.5,10-10.2,14.2s6.2,8,4.8,12s-0.8,12,2.8,13.5s8.5,1.5,10,5s8.5,12.5,14.8,12.8
	s17.2-0.5,17.5-6s3.5-16,7.2-18.8s4.8-18.2,14-22s10.5-9.8,16.8-9.8s9,4,11,2.2s-1-7.2-1-9.5s3.8-6.8,0.2-6.5s-17.5-0.5-18.8-7.8
	s1.5-13.5,2.2-17s4-9.8,6.5-8.8s2.2,12.5,3.8,16.8s3.2,8.2,6,7s-3.8-12.8-1.8-13s5.8,4.8,8.5,4.2s10.5,0,10.5,2s-10.8,6.8-10.2,9
	s10.8-2.8,16.5-4.8s22.8-4.5,28-3.8s13.8,2,13.8,2l0.5-8.8c0,0,3-11,6.8-13.8s9.2-14.8,14.8-14s9,2.2,6.2,5s-4.5,0.8-3.8,7
	s2.2,20,5.8,19.8s12.5-12,14.5-16.8s-3.5-11.8-2.2-15.2s3-4.2,3.5-7.8s5.2-10.5,11.8-10c6.5,0.5,10.3,10,13,9s5-7,4-9.5
	s-7.2-4.8-6.8-7.2s6.8-7,6.8-8.8s-5-5-2.8-6.2s13-1.8,15,0.8s-4.2,8-6,13.2s-0.2,14.2-1,19.2s-3.5,12.5-1,12.5s9.8-1.5,10-3.2
	s1.2-11.5,7.2-14.5s10-8,10.8-14.8s1.5-14.2,5-17.5s12.2-4.2,12.2-7.8s-18.2-24.5-17.8-34.8s5.2-40.2,8.8-42.5s7.8-5.2,5.2-19.8
	s-16-48.2-14.8-55.5s5.8-9.5,5.8-13.5s0.2-5.2,3.2-5s4-7.5,8.5-6s7,8,8.5,6s1.2-11.5-1.2-14.5s-3.2-11.2,0.2-15.2s3.2-11.5,4.2-14.2
	s4.8,0.8,6-3s0.5-10.2,1.2-15.2s2.8-17.2-0.8-23.5s-6-15.5-6.2-21.2s-4.2-6-5-9.8s-18.8-18.5-23.2-28.5s-7.5-24-7.2-33.5
	s3.5-16.8,0-17s-7.8,7-10.5,6s-8.8-5.5-12.8-6.5S519.1,260.4,519.1,260.4z"/>
<path class="st0" d="M177.6,778.2c-6.5,0.5-10.5,6-12.8,11.5s-2.5,13.2-7.2,17.8s-3.5,6.5-10.8,9.5s-14.8,4.5-13.8,7.5
	s5.8,0.2,10-0.2s2.8,3.8,6.8,5.2s7.2,0.5,7.5,3s-2.8,2.5-3.8,7.2s0.5,13,3.5,13.2s10.2-0.5,10.8,2s-5,6.8-2.5,7.8s21.2-0.5,20.8-2.2
	s-1.5-14,1-15.2s2-5.8,6.2-9.2s-0.8-10.8,6.2-16s15.5-11,22.2-9.5s14.8,10.8,17,12.5s7.8-1.8,7.2-6.8s7.8-17.8,11-19
	s2.5-7.2,5.2-8.8s9.5-3,5.8-6.5s-10-7-8.5-11.5s3.8-8.5-2-9s-4.2,4-8.5,2s-9.2-9-15-9s-9.8,2-14.2,4.5s-10.8,5-10.8,12
	s-6.8,11.2-11.5,12.2s-10.2,1-12.2,3s-2.2-2-4.2-4.2S177.6,778.2,177.6,778.2z"/>
<path class="st0" d="M0.1,843.4c-0.5-5.5,0.5-10.5,4.8-8.8s8,5.2,9,2.5s-3.2-12.5,0.8-12.8s7.8,6.5,10.2,2.8s2-9,7-9s8.8-2,9.5-7.5
	s4.2-7,8.5-9.5s7.2-4.5,11-3.5c3.7,1,9.5-4.8,12.7-2s-2.2,16.8,5.2,20s31-7.2,32.5-4.2s4.5,15.2,1.2,16.5s-11.8,0.8-10.8,5
	s8.5,4.2,11.2,4.2s7.8-2.8,8.2,0s-4,6.8-3,8s10.8,1,10,2.8s-5.2,5.8-3.2,6.5s10-1,9,2s0.2,4.8-2.8,7.8s-13.8,12.2-14.2,18.5
	s0,9-1.8,15.2s-6.5,25-5.8,31.5s2,13.8-2.5,17s-5,10-9,10.5s-2.8-3.8-5.2-4.2s-3.2-0.2-4.8,1.2s-2,4.8-0.2,5.2s4,4.5,1,8.5
	s-4.5,10.5-9.2,10.2s-5.2-1.2-7,0.2s-5,2-4.2-1s5-5,5-10.2s-8-15.5-6-17.5s5.8-7.5,2.8-10.2s-5.5-2.5-7.5,0.8
	c-2,3.2-0.8,5.5-2.2,8.2s-0.8,9.5,1.5,12.2c2.2,2.8,5.7,7,3,10c-2.7,3-8.2-3.2-12-2.8s-11,4-11.2-0.5s-5.8-9-1.8-9.2s4-5.5,5.8-8
	s-8-11.5-7.2-15.8s-3-14.2-1-17.8s10-6.5,12-11.5s5.8-5.8,6.5-8.8s5.5-15.8,3.2-16s-8.8-0.8-6.8-3.2s5.2-5.5,4.2-7.8
	s-8.2-0.2-8.8-6.8s-0.5-12.2-4-13s-7-5.2-9.8-3s-2.3,4.8-0.5,8.2c1.8,3.5,7.2,5.2,9.2,13s2,12.2-2.8,14s-10.3,3.2-8.8-0.8
	c1.5-4,4.5-10.5-0.5-9s-10.5,9.5-13.2,11s-0.2-6.5-3-8s-12.2-12.8-9.5-15.5s15,10,15.8,6.2s0.8-10.2-3.8-10.8s-6-0.2-8.8-3.5
	s-4.2-1.8-6.5-3.8S0.1,843.4,0.1,843.4z"/>
<path class="st0" d="M32,887.6c2.2,0.3,2.3,3.8,3.3,7.2c1,3.3,3.3,5,0.2,7.3s-4.7,7-8,7s-3.5-3.3-3-9.2c0.5-5.8,2.7-9.7,4.2-10.5
	C30.1,888.6,32,887.6,32,887.6z"/>
<path class="st0" d="M42.3,887.3c-2.8,1.3-3,2-2.5,5.2c0.5,3.2,4.5,3.8,7,3c2.5-0.8,4.7-4.7,3.5-6.2
	C49.1,887.8,42.3,887.3,42.3,887.3z"/>
<path class="st0" d="M277.6,739.4c3.2,0.7,3.5,2.2,1.3,7.2c-2.2,5-3.2,7.8-2,8.5c1.2,0.7,3.2,2.2,2.3,4.2c-0.8,2-1.8,1.5-4.7,3.7
	c-2.8,2.2-7.5,3.3-8.8-0.8c-1.3-4.2,3.2-9,4-11.7C270.6,747.8,277.6,739.4,277.6,739.4z"/>
<path class="st0" d="M424.1,482c2.8,0.6,4.2,6.6,3.2,10.3c-1,3.7-0.2,5.6,1.7,5.6s4.2,2.7,3.1,4.9c-1.1,2.2-7.9,10.1-10.2,11.2
	c-2.3,1.1-4.3,0.1-3.6-2.2c0.7-2.3,3.2-7.7,2.1-7.9c-1.1-0.1-6.6,1.2-6.6-0.1s5.9-17.4,7.9-19.8C423.6,481.8,424.1,482,424.1,482z"
	/>
<path class="st0" d="M147.4,772.7c-2.3,0.8-2.8,8.2-0.2,8.8s7,2.8,7.2,0.5s0.5-4.8-2.5-6.8S149.7,771.8,147.4,772.7z"/>
<path class="st0" d="M138.1,791.6c-1.1,0.9-0.4,5.6,1.5,6.2c1.9,0.7,5.4,0.6,6.1-0.3s1.5-3.3,0.7-4.5c-0.8-1.3-1.1-2.2-3.9-2.4
	S138.1,791.6,138.1,791.6z"/>
<g>
	<path d="M162.3,727c0,1.5-0.4,3.9-3.8,3.9c-1.9,0-3.8-1-3.8-3.5v-1h2.3v0.5c0,1.1,0.3,1.9,1.5,1.9c1.3,0,1.3-1.1,1.3-1.9v-7.7h2.5
		V727z"/>
	<path d="M170.8,719.2h2.6l4.3,11.4h-2.6l-0.9-2.5h-4.3l-0.9,2.5h-2.5L170.8,719.2z M170.6,726.2h3l-1.4-4.2h0L170.6,726.2z"/>
	<path d="M181.9,719.2h5.2c2.8,0,4,1.8,4,3.7c0,1.9-1.1,3.7-4,3.7h-2.6v4.1h-2.5V719.2z M184.4,724.5h2c1.2,0,2.2-0.3,2.2-1.7
		c0-1.5-1-1.7-2.2-1.7h-2V724.5z"/>
	<path d="M198.9,719.2h2.6l4.3,11.4h-2.6l-0.9-2.5H198l-0.9,2.5h-2.5L198.9,719.2z M198.6,726.2h3l-1.4-4.2h0L198.6,726.2z"/>
	<path d="M209.9,719.2h2.5l4.8,7.7h0v-7.7h2.4v11.4H217l-4.8-7.7h0v7.7h-2.4V719.2z"/>
</g>
<g>
	<path class="st1" d="M64.2,536.2c0,1.5-0.4,3.9-3.8,3.9c-1.9,0-3.8-1-3.8-3.5v-1h2.3v0.5c0,1.1,0.3,1.9,1.5,1.9
		c1.3,0,1.3-1.1,1.3-1.9v-7.7h2.5V536.2z"/>
	<path class="st1" d="M72.7,528.3h2.6l4.3,11.4h-2.6l-0.9-2.5h-4.3l-0.9,2.5h-2.5L72.7,528.3z M72.4,535.3h3l-1.4-4.2h0L72.4,535.3z
		"/>
	<path class="st1" d="M83.7,528.3h5.2c2.8,0,4,1.8,4,3.7c0,1.9-1.1,3.7-4,3.7h-2.6v4.1h-2.5V528.3z M86.2,533.7h2
		c1.2,0,2.2-0.3,2.2-1.7c0-1.5-1-1.7-2.2-1.7h-2V533.7z"/>
	<path class="st1" d="M100.7,528.3h2.6l4.3,11.4H105l-0.9-2.5h-4.3l-0.9,2.5h-2.5L100.7,528.3z M100.5,535.3h3l-1.4-4.2h0
		L100.5,535.3z"/>
	<path class="st1" d="M111.7,528.3h2.5l4.8,7.7h0v-7.7h2.4v11.4h-2.5l-4.8-7.7h0v7.7h-2.4V528.3z"/>
	<path class="st1" d="M126.8,528.3h2.5v11.4h-2.5V528.3z"/>
	<path class="st1" d="M136.4,536c0,1.5,1.2,2.1,2.5,2.1c0.9,0,2.2-0.3,2.2-1.4c0-1.2-1.7-1.4-3.4-1.9c-1.7-0.4-3.4-1.1-3.4-3.2
		c0-2.3,2.2-3.5,4.3-3.5c2.4,0,4.6,1,4.6,3.7h-2.4c-0.1-1.4-1.1-1.7-2.3-1.7c-0.8,0-1.7,0.3-1.7,1.3c0,0.9,0.5,1,3.4,1.7
		c0.8,0.2,3.4,0.7,3.4,3.3c0,2.1-1.6,3.7-4.8,3.7c-2.5,0-4.9-1.2-4.9-4.1H136.4z"/>
	<path class="st1" d="M155.9,532.2c-0.2-1.1-1.2-2-2.5-2c-2.3,0-3.1,1.9-3.1,3.9c0,1.9,0.8,3.8,3.1,3.8c1.5,0,2.4-1.1,2.6-2.6h2.4
		c-0.3,2.8-2.2,4.7-5,4.7c-3.5,0-5.6-2.6-5.6-5.9c0-3.4,2.1-6,5.6-6c2.5,0,4.6,1.5,4.9,4.1H155.9z"/>
	<path class="st1" d="M163.4,528.3h2.5v4.4h4.6v-4.4h2.5v11.4h-2.5v-4.9h-4.6v4.9h-2.5V528.3z"/>
	<path class="st1" d="M178.4,528.3h8.5v2.1h-6v2.4h5.5v2h-5.5v2.8h6.2v2.1h-8.7V528.3z"/>
	<path class="st1" d="M193.7,536c0,1.5,1.2,2.1,2.5,2.1c0.9,0,2.2-0.3,2.2-1.4c0-1.2-1.7-1.4-3.4-1.9c-1.7-0.4-3.4-1.1-3.4-3.2
		c0-2.3,2.2-3.5,4.3-3.5c2.4,0,4.6,1,4.6,3.7h-2.4c-0.1-1.4-1.1-1.7-2.3-1.7c-0.8,0-1.7,0.3-1.7,1.3c0,0.9,0.5,1,3.4,1.7
		c0.8,0.2,3.4,0.7,3.4,3.3c0,2.1-1.6,3.7-4.8,3.7c-2.5,0-4.9-1.2-4.9-4.1H193.7z"/>
	<path class="st1" d="M101.7,547.5h3.5l2.7,7.9h0l2.5-7.9h3.5V559h-2.4v-8.1h0l-2.8,8.1h-1.9l-2.8-8h0v8h-2.4V547.5z"/>
	<path class="st1" d="M119.4,547.5h8.5v2.1h-6v2.4h5.5v2h-5.5v2.8h6.2v2.1h-8.7V547.5z"/>
	<path class="st1" d="M133,547.5h8.5v2.1h-6v2.4h5.5v2h-5.5v2.8h6.2v2.1H133V547.5z"/>
	<path class="st1" d="M146.6,547.5h6.2c2,0,3.3,1.4,3.3,3.2c0,1.3-0.5,2.4-1.8,2.9v0c1.2,0.3,1.6,1.5,1.7,2.7c0,0.7,0,2.1,0.5,2.7
		h-2.5c-0.3-0.7-0.3-1.8-0.4-2.7c-0.2-1.2-0.6-1.7-1.9-1.7h-2.5v4.5h-2.5V547.5z M149.1,552.7h2.8c1.1,0,1.7-0.5,1.7-1.6
		c0-1.1-0.6-1.6-1.7-1.6h-2.8V552.7z"/>
</g>
<g>
	<path d="M319.2,763v4.6h0l2.9-4.6h2.5l-3.1,4.9l3.5,6.5h-2.6l-2.4-4.7l-0.8,1.3v3.4h-2.3V763H319.2z"/>
	<path d="M329.2,765.6c2.7,0,3.4,1.5,3.4,4.5c0,2.9-0.9,4.5-3.4,4.5c-2.7,0-3.4-1.5-3.4-4.5C325.8,767.2,326.6,765.6,329.2,765.6z
		 M329.2,773.2c0.9,0,1.2-0.9,1.2-3s-0.3-3-1.2-3c-1.1,0-1.2,1.3-1.2,3S328.1,773.2,329.2,773.2z"/>
	<path d="M334.4,775.6c0.2,0,0.4,0,0.6,0c0.8,0,1.1-0.4,1.2-1.2l-2.4-8.6h2.3l1.3,6h0l1.1-6h2.2l-2.1,8c-0.8,3-1.3,3.4-3.3,3.4h-0.9
		V775.6z"/>
	<path d="M342.1,768.5v-0.2c0-2,1.4-2.7,3-2.7c2.6,0,3.1,1.1,3.1,2.6v4.5c0,0.8,0,1.2,0.3,1.7h-2.1c-0.1-0.3-0.2-0.6-0.3-0.9h0
		c-0.5,0.9-1.1,1.1-2.2,1.1c-1.5,0-2.1-1.3-2.1-2.5c0-1.6,0.7-2.3,2.2-2.7l1.2-0.3c0.7-0.2,0.9-0.4,0.9-1c0-0.7-0.3-1.1-1-1.1
		c-0.7,0-1,0.4-1,1.1v0.2H342.1z M346.1,770.1c-0.3,0.2-0.7,0.4-0.9,0.4c-0.9,0.2-1.2,0.6-1.2,1.4c0,0.7,0.2,1.2,0.8,1.2
		s1.4-0.4,1.4-1.3V770.1z"/>
	<path d="M352.1,771.6v0.3c0,0.8,0.4,1.2,1.2,1.2c0.7,0,1.1-0.3,1.1-1c0-0.6-0.4-0.8-0.8-1l-1.6-0.6c-1.2-0.4-1.8-1.2-1.8-2.4
		c0-1.4,0.9-2.6,3.2-2.6c2,0,2.9,0.9,2.9,2.4v0.4h-2c0-0.9-0.3-1.3-1-1.3c-0.6,0-1,0.3-1,0.9c0,0.4,0.2,0.8,1,1l1.3,0.4
		c1.4,0.5,1.9,1.2,1.9,2.5c0,1.8-1.3,2.7-3.2,2.7c-2.5,0-3.2-1.1-3.2-2.7v-0.3H352.1z"/>
	<path d="M358.2,768.5v-0.2c0-2,1.4-2.7,3-2.7c2.6,0,3.1,1.1,3.1,2.6v4.5c0,0.8,0,1.2,0.3,1.7h-2.1c-0.1-0.3-0.2-0.6-0.3-0.9h0
		c-0.5,0.9-1.1,1.1-2.2,1.1c-1.5,0-2.1-1.3-2.1-2.5c0-1.6,0.7-2.3,2.2-2.7l1.2-0.3c0.7-0.2,0.9-0.4,0.9-1c0-0.7-0.3-1.1-1-1.1
		c-0.7,0-1,0.4-1,1.1v0.2H358.2z M362.2,770.1c-0.3,0.2-0.7,0.4-0.9,0.4c-0.9,0.2-1.2,0.6-1.2,1.4c0,0.7,0.2,1.2,0.8,1.2
		s1.4-0.4,1.4-1.3V770.1z"/>
	<path d="M366.5,765.8h2.1v1h0c0.5-0.8,1.3-1.2,2.2-1.2c1.4,0,2.2,0.8,2.2,2.4v6.4h-2.2v-5.9c0-0.9-0.3-1.2-0.9-1.2
		c-0.8,0-1.2,0.5-1.2,1.4v5.7h-2.2V765.8z"/>
</g>
<g>
	<path d="M256.8,720.5c3.5,0,3.9,2.5,3.9,5.9c0,3.5-0.4,5.9-3.9,5.9s-3.9-2.5-3.9-5.9C252.9,722.9,253.4,720.5,256.8,720.5z
		 M256.8,730.7c1.4,0,1.6-1.2,1.6-4.2c0-3.1-0.2-4.2-1.6-4.2c-1.4,0-1.6,1.2-1.6,4.2C255.2,729.5,255.5,730.7,256.8,730.7z"/>
	<path d="M264.3,729.3v0.3c0,0.8,0.4,1.2,1.2,1.2c0.7,0,1.1-0.3,1.1-1c0-0.6-0.4-0.8-0.8-1l-1.6-0.6c-1.2-0.4-1.8-1.2-1.8-2.4
		c0-1.4,0.9-2.6,3.2-2.6c2,0,2.9,0.9,2.9,2.4v0.4h-2c0-0.9-0.3-1.3-1-1.3c-0.6,0-1,0.3-1,0.9c0,0.4,0.2,0.8,1,1l1.3,0.4
		c1.4,0.5,1.9,1.2,1.9,2.5c0,1.8-1.3,2.7-3.2,2.7c-2.5,0-3.2-1.1-3.2-2.7v-0.3H264.3z"/>
	<path d="M270.4,726.2V726c0-2,1.4-2.7,3-2.7c2.6,0,3.1,1.1,3.1,2.6v4.5c0,0.8,0,1.2,0.3,1.7h-2.1c-0.1-0.3-0.2-0.6-0.3-0.9h0
		c-0.5,0.9-1.1,1.1-2.2,1.1c-1.5,0-2.1-1.3-2.1-2.5c0-1.6,0.7-2.3,2.2-2.7l1.2-0.3c0.7-0.2,0.9-0.4,0.9-1c0-0.7-0.3-1.1-1-1.1
		c-0.7,0-1,0.4-1,1.1v0.2H270.4z M274.4,727.8c-0.3,0.2-0.7,0.4-0.9,0.4c-0.9,0.2-1.2,0.6-1.2,1.4c0,0.7,0.2,1.2,0.8,1.2
		s1.4-0.4,1.4-1.3V727.8z"/>
	<path d="M281,720.7v6h0l2.2-3.2h2.4l-2.5,3.4l2.8,5.2h-2.4l-1.8-3.5l-0.8,1v2.5h-2.2v-11.4H281z"/>
	<path d="M287.3,726.2V726c0-2,1.4-2.7,3-2.7c2.6,0,3.1,1.1,3.1,2.6v4.5c0,0.8,0,1.2,0.3,1.7h-2.1c-0.1-0.3-0.2-0.6-0.3-0.9h0
		c-0.5,0.9-1.1,1.1-2.2,1.1c-1.5,0-2.1-1.3-2.1-2.5c0-1.6,0.7-2.3,2.2-2.7l1.2-0.3c0.7-0.2,0.9-0.4,0.9-1c0-0.7-0.3-1.1-1-1.1
		c-0.7,0-1,0.4-1,1.1v0.2H287.3z M291.4,727.8c-0.3,0.2-0.7,0.4-0.9,0.4c-0.9,0.2-1.2,0.6-1.2,1.4c0,0.7,0.2,1.2,0.8,1.2
		s1.4-0.4,1.4-1.3V727.8z"/>
</g>
<g>
	<path d="M283.4,688v4.6h0l2.9-4.6h2.5l-3.1,4.9l3.5,6.5h-2.6l-2.4-4.7l-0.8,1.3v3.4h-2.3V688H283.4z"/>
	<path d="M290.3,700.6c0.2,0,0.4,0,0.6,0c0.8,0,1.1-0.4,1.2-1.2l-2.4-8.6h2.3l1.3,6h0l1.1-6h2.2l-2.1,8c-0.8,3-1.3,3.4-3.3,3.4h-0.9
		V700.6z"/>
	<path d="M301.1,690.6c2.7,0,3.4,1.5,3.4,4.5c0,2.9-0.9,4.5-3.4,4.5c-2.7,0-3.4-1.5-3.4-4.5C297.8,692.2,298.6,690.6,301.1,690.6z
		 M301.1,698.1c0.9,0,1.2-0.9,1.2-3s-0.3-3-1.2-3c-1.1,0-1.2,1.3-1.2,3C300,696.9,300.1,698.1,301.1,698.1z"/>
	<path d="M306.8,688.3h2.2v2.5h1.3v1.5h-1.3v4.7c0,0.7,0.1,0.9,0.8,0.9c0.2,0,0.4,0,0.5,0v1.5c-0.5,0-0.9,0.1-1.4,0.1
		c-1.7,0-2-0.5-2-2.3v-4.9h-1.1v-1.5h1.1V688.3z"/>
	<path d="M314.8,690.6c2.7,0,3.4,1.5,3.4,4.5c0,2.9-0.9,4.5-3.4,4.5c-2.7,0-3.4-1.5-3.4-4.5C311.5,692.2,312.3,690.6,314.8,690.6z
		 M314.8,698.1c0.9,0,1.2-0.9,1.2-3s-0.3-3-1.2-3c-1.1,0-1.2,1.3-1.2,3C313.7,696.9,313.8,698.1,314.8,698.1z"/>
</g>
<g>
	<path d="M299.7,612.6v1.9h-2.5v9.5h-2.3v-9.5h-2.5v-1.9H299.7z"/>
	<path d="M301.2,618.1v-0.2c0-2,1.4-2.7,3-2.7c2.6,0,3.1,1.1,3.1,2.6v4.5c0,0.8,0,1.2,0.3,1.7h-2.1c-0.1-0.3-0.2-0.6-0.3-0.9h0
		c-0.5,0.9-1.1,1.1-2.2,1.1c-1.5,0-2.1-1.3-2.1-2.5c0-1.6,0.7-2.3,2.2-2.7l1.2-0.3c0.7-0.2,0.9-0.4,0.9-1c0-0.7-0.3-1.1-1-1.1
		c-0.7,0-1,0.4-1,1.1v0.2H301.2z M305.2,619.7c-0.3,0.2-0.7,0.4-0.9,0.4c-0.9,0.2-1.2,0.6-1.2,1.4c0,0.7,0.2,1.2,0.8,1.2
		s1.4-0.4,1.4-1.3V619.7z"/>
	<path d="M311.8,612.6v6h0l2.2-3.2h2.4l-2.5,3.4l2.8,5.2h-2.4l-1.8-3.5l-0.8,1v2.5h-2.2v-11.4H311.8z"/>
	<path d="M318.2,618.1v-0.2c0-2,1.4-2.7,3-2.7c2.6,0,3.1,1.1,3.1,2.6v4.5c0,0.8,0,1.2,0.3,1.7h-2.1c-0.1-0.3-0.2-0.6-0.3-0.9h0
		c-0.5,0.9-1.1,1.1-2.2,1.1c-1.5,0-2.1-1.3-2.1-2.5c0-1.6,0.7-2.3,2.2-2.7l1.2-0.3c0.7-0.2,0.9-0.4,0.9-1c0-0.7-0.3-1.1-1-1.1
		c-0.7,0-1,0.4-1,1.1v0.2H318.2z M322.2,619.7c-0.3,0.2-0.7,0.4-0.9,0.4c-0.9,0.2-1.2,0.6-1.2,1.4c0,0.7,0.2,1.2,0.8,1.2
		s1.4-0.4,1.4-1.3V619.7z"/>
	<path d="M326.5,625.2c0.2,0,0.4,0,0.6,0c0.8,0,1.1-0.4,1.2-1.2l-2.4-8.6h2.3l1.3,6h0l1.1-6h2.2l-2.1,8c-0.8,3-1.3,3.4-3.3,3.4h-0.9
		V625.2z"/>
	<path d="M334.3,618.1v-0.2c0-2,1.4-2.7,3-2.7c2.6,0,3.1,1.1,3.1,2.6v4.5c0,0.8,0,1.2,0.3,1.7h-2.1c-0.1-0.3-0.2-0.6-0.3-0.9h0
		c-0.5,0.9-1.1,1.1-2.2,1.1c-1.5,0-2.1-1.3-2.1-2.5c0-1.6,0.7-2.3,2.2-2.7l1.2-0.3c0.7-0.2,0.9-0.4,0.9-1c0-0.7-0.3-1.1-1-1.1
		c-0.7,0-1,0.4-1,1.1v0.2H334.3z M338.3,619.7c-0.3,0.2-0.7,0.4-0.9,0.4c-0.9,0.2-1.2,0.6-1.2,1.4c0,0.7,0.2,1.2,0.8,1.2
		s1.4-0.4,1.4-1.3V619.7z"/>
	<path d="M342.6,615.4h2.1v0.9h0c0.6-0.8,1.2-1.1,2.2-1.1c1,0,1.7,0.5,2,1.4h0c0.3-0.9,1.1-1.4,2.2-1.4c1.5,0,2.1,0.9,2.1,2.6v6.3
		h-2.2v-6c0-0.7-0.2-1.1-0.9-1.1c-0.7,0-1.2,0.5-1.2,1.5v5.7h-2.2v-6c0-0.7-0.2-1.1-0.9-1.1c-0.7,0-1.2,0.5-1.2,1.5v5.7h-2.2V615.4z
		"/>
	<path d="M355.4,618.1v-0.2c0-2,1.4-2.7,3-2.7c2.6,0,3.1,1.1,3.1,2.6v4.5c0,0.8,0,1.2,0.3,1.7h-2.1c-0.1-0.3-0.2-0.6-0.3-0.9h0
		c-0.5,0.9-1.1,1.1-2.2,1.1c-1.5,0-2.1-1.3-2.1-2.5c0-1.6,0.7-2.3,2.2-2.7l1.2-0.3c0.7-0.2,0.9-0.4,0.9-1c0-0.7-0.3-1.1-1-1.1
		c-0.7,0-1,0.4-1,1.1v0.2H355.4z M359.4,619.7c-0.3,0.2-0.7,0.4-0.9,0.4c-0.9,0.2-1.2,0.6-1.2,1.4c0,0.7,0.2,1.2,0.8,1.2
		s1.4-0.4,1.4-1.3V619.7z"/>
</g>
<g>
	<path d="M497.4,509.7l1.5,4.4h0l1.6-4.4h2.5l-3,6.9v4.5h-2.3v-4.5l-3-6.9H497.4z"/>
	<path d="M508.9,520.2L508.9,520.2c-0.5,0.8-1.3,1.2-2.2,1.2c-1.4,0-2.2-0.8-2.2-2.4v-6.4h2.2v5.9c0,0.9,0.3,1.2,0.9,1.2
		c0.8,0,1.2-0.5,1.2-1.4v-5.7h2.2v8.6h-2.1V520.2z"/>
	<path d="M513.1,512.6h2.1v1h0c0.5-0.8,1.3-1.2,2.2-1.2c1.4,0,2.2,0.8,2.2,2.4v6.4h-2.2v-5.9c0-0.9-0.3-1.2-0.9-1.2
		c-0.8,0-1.2,0.5-1.2,1.4v5.7h-2.2V512.6z"/>
	<path d="M521.9,509.6h2.2v1.9h-2.2V509.6z M521.9,512.6h2.2v8.6h-2.2V512.6z"/>
	<path d="M527.9,518.4v0.3c0,0.8,0.4,1.2,1.2,1.2c0.7,0,1.1-0.3,1.1-1c0-0.6-0.4-0.8-0.8-1l-1.6-0.6c-1.2-0.4-1.8-1.2-1.8-2.4
		c0-1.4,0.9-2.6,3.2-2.6c2,0,2.9,0.9,2.9,2.4v0.4h-2c0-0.9-0.3-1.3-1-1.3c-0.6,0-1,0.3-1,0.9c0,0.4,0.2,0.8,1,1l1.3,0.4
		c1.4,0.5,1.9,1.2,1.9,2.5c0,1.8-1.3,2.7-3.2,2.7c-2.5,0-3.2-1.1-3.2-2.7v-0.3H527.9z"/>
	<path d="M534,509.7h2.2v3.7h0c0.4-0.7,1.2-1.1,2.1-1.1c1.4,0,2.2,0.8,2.2,2.4v6.4h-2.2v-5.9c0-0.9-0.3-1.2-0.9-1.2
		c-0.8,0-1.2,0.5-1.2,1.4v5.7H534V509.7z"/>
	<path d="M542.7,509.6h2.2v1.9h-2.2V509.6z M542.7,512.6h2.2v8.6h-2.2V512.6z"/>
	<path d="M553.6,512.6v8.2c0,2.3-1,3.4-3.6,3.4c-1.9,0-2.9-0.8-2.9-2.3h2.1c0,0.3,0.1,0.5,0.3,0.7c0.2,0.1,0.5,0.2,0.7,0.2
		c0.9,0,1.2-0.7,1.2-1.6V520h0c-0.4,0.6-1.1,1.1-1.8,1.1c-1.8,0-2.6-1.2-2.6-4.4c0-2,0.3-4.4,2.7-4.4c0.6,0,1.4,0.3,1.8,1.2h0v-1
		H553.6z M550.3,519.4c0.9,0,1.2-1,1.2-2.5c0-2.1-0.3-2.9-1.2-2.9c-1,0-1.2,0.8-1.2,3.1C549.2,518.3,549.3,519.4,550.3,519.4z"/>
	<path d="M555.8,515.2V515c0-2,1.4-2.7,3-2.7c2.6,0,3.1,1.1,3.1,2.6v4.5c0,0.8,0,1.2,0.3,1.7h-2.1c-0.1-0.3-0.2-0.6-0.3-0.9h0
		c-0.5,0.9-1.1,1.1-2.2,1.1c-1.5,0-2.1-1.3-2.1-2.5c0-1.6,0.7-2.3,2.2-2.7l1.2-0.3c0.7-0.2,0.9-0.4,0.9-1c0-0.7-0.3-1.1-1-1.1
		c-0.7,0-1,0.4-1,1.1v0.2H555.8z M559.8,516.9c-0.3,0.2-0.7,0.4-0.9,0.4c-0.9,0.2-1.2,0.6-1.2,1.4c0,0.7,0.2,1.2,0.8,1.2
		s1.4-0.4,1.4-1.3V516.9z"/>
	<path d="M563.5,512.6h2.2l1,6.1h0l1.1-6.1h2.4l1.1,6.1h0l1-6.1h2.1l-1.9,8.6h-2.5l-1.1-6.1h0l-1.1,6.1h-2.6L563.5,512.6z"/>
	<path d="M576,515.2V515c0-2,1.4-2.7,3-2.7c2.6,0,3.1,1.1,3.1,2.6v4.5c0,0.8,0,1.2,0.3,1.7h-2.1c-0.1-0.3-0.2-0.6-0.3-0.9h0
		c-0.5,0.9-1.1,1.1-2.2,1.1c-1.5,0-2.1-1.3-2.1-2.5c0-1.6,0.7-2.3,2.2-2.7l1.2-0.3c0.7-0.2,0.9-0.4,0.9-1c0-0.7-0.3-1.1-1-1.1
		c-0.7,0-1,0.4-1,1.1v0.2H576z M580,516.9c-0.3,0.2-0.7,0.4-0.9,0.4c-0.9,0.2-1.2,0.6-1.2,1.4c0,0.7,0.2,1.2,0.8,1.2
		s1.4-0.4,1.4-1.3V516.9z"/>
	<path d="M499.3,525.5c3.5,0,3.9,2.5,3.9,5.9c0,3.5-0.4,5.9-3.9,5.9s-3.9-2.5-3.9-5.9C495.4,528,495.8,525.5,499.3,525.5z
		 M499.3,535.7c1.4,0,1.6-1.2,1.6-4.2c0-3.1-0.2-4.2-1.6-4.2c-1.4,0-1.6,1.2-1.6,4.2C497.7,534.5,497.9,535.7,499.3,535.7z"/>
	<path d="M505.1,528.6h2.1v1h0c0.5-0.8,1.3-1.2,2.2-1.2c1.4,0,2.2,0.8,2.2,2.4v6.4h-2.2v-5.9c0-0.9-0.3-1.2-0.9-1.2
		c-0.8,0-1.2,0.5-1.2,1.4v5.7h-2.2V528.6z"/>
	<path d="M515.3,534.4v0.3c0,0.8,0.4,1.2,1.2,1.2c0.7,0,1.1-0.3,1.1-1c0-0.6-0.4-0.8-0.8-1l-1.6-0.6c-1.2-0.4-1.8-1.2-1.8-2.4
		c0-1.4,0.9-2.6,3.2-2.6c2,0,2.9,0.9,2.9,2.4v0.4h-2c0-0.9-0.3-1.3-1-1.3c-0.6,0-1,0.3-1,0.9c0,0.4,0.2,0.8,1,1l1.3,0.4
		c1.4,0.5,1.9,1.2,1.9,2.5c0,1.8-1.3,2.7-3.2,2.7c-2.5,0-3.2-1.1-3.2-2.7v-0.3H515.3z"/>
	<path d="M523.4,533.2v0.7c0,1,0.3,2,1.1,2c0.7,0,1-0.6,1.2-1.6h2c-0.1,2-1,3.1-3.1,3.1c-3.2,0-3.3-2.5-3.3-4.6
		c0-2.3,0.4-4.5,3.4-4.5c2.6,0,3.2,1.7,3.2,4.4v0.5H523.4z M525.6,531.9c0-1.3-0.2-2-1.1-2c-0.9,0-1.1,0.9-1.1,1.7v0.3H525.6z"/>
	<path d="M529.5,528.6h2.1v1h0c0.5-0.8,1.3-1.2,2.2-1.2c1.4,0,2.2,0.8,2.2,2.4v6.4h-2.2v-5.9c0-0.9-0.3-1.2-0.9-1.2
		c-0.8,0-1.2,0.5-1.2,1.4v5.7h-2.2V528.6z"/>
</g>
<g>
	<path d="M417.1,577.8h3.4l1.6,8.1h0l1.6-8.1h3.4v11.4h-2.1v-9.1h0l-2,9.1h-1.8l-2-9.1h0v9.1h-2.1V577.8z"/>
	<path d="M429.4,583.2V583c0-2,1.4-2.7,3-2.7c2.6,0,3.1,1.1,3.1,2.6v4.5c0,0.8,0,1.2,0.3,1.7h-2.1c-0.1-0.3-0.2-0.6-0.3-0.9h0
		c-0.5,0.9-1.1,1.1-2.2,1.1c-1.5,0-2.1-1.3-2.1-2.5c0-1.6,0.7-2.3,2.2-2.7l1.2-0.3c0.7-0.2,0.9-0.4,0.9-1c0-0.7-0.3-1.1-1-1.1
		c-0.7,0-1,0.4-1,1.1v0.2H429.4z M433.4,584.9c-0.3,0.2-0.7,0.4-0.9,0.4c-0.9,0.2-1.2,0.6-1.2,1.4c0,0.7,0.2,1.2,0.8,1.2
		s1.4-0.4,1.4-1.3V584.9z"/>
	<path d="M438.2,578.1h2.2v2.5h1.3v1.5h-1.3v4.7c0,0.7,0.1,0.9,0.8,0.9c0.2,0,0.4,0,0.5,0v1.5c-0.5,0-0.9,0.1-1.4,0.1
		c-1.7,0-2-0.5-2-2.3v-4.9h-1.1v-1.5h1.1V578.1z"/>
	<path d="M444.8,586.4v0.3c0,0.8,0.4,1.2,1.2,1.2c0.7,0,1.1-0.3,1.1-1c0-0.6-0.4-0.8-0.8-1l-1.6-0.6c-1.2-0.4-1.8-1.2-1.8-2.4
		c0-1.4,0.9-2.6,3.2-2.6c2,0,2.9,0.9,2.9,2.4v0.4h-2c0-0.9-0.3-1.3-1-1.3c-0.6,0-1,0.3-1,0.9c0,0.4,0.2,0.8,1,1l1.3,0.4
		c1.4,0.5,1.9,1.2,1.9,2.5c0,1.8-1.3,2.7-3.2,2.7c-2.5,0-3.2-1.1-3.2-2.7v-0.3H444.8z"/>
	<path d="M455.3,588.2L455.3,588.2c-0.5,0.8-1.3,1.2-2.2,1.2c-1.4,0-2.2-0.8-2.2-2.4v-6.4h2.2v5.9c0,0.9,0.3,1.2,0.9,1.2
		c0.8,0,1.2-0.5,1.2-1.4v-5.7h2.2v8.6h-2.1V588.2z"/>
	<path d="M464,583.6v1.9h-4.5v-1.9H464z"/>
	<path d="M416.9,596.6h2.1v0.9h0c0.6-0.8,1.2-1.1,2.2-1.1c1,0,1.7,0.5,2,1.4h0c0.3-0.9,1.1-1.4,2.2-1.4c1.5,0,2.1,0.9,2.1,2.6v6.3
		h-2.2v-6c0-0.7-0.2-1.1-0.9-1.1c-0.7,0-1.2,0.5-1.2,1.5v5.7h-2.2v-6c0-0.7-0.2-1.1-0.9-1.1c-0.7,0-1.2,0.5-1.2,1.5v5.7h-2.2V596.6z
		"/>
	<path d="M432.8,596.4c2.7,0,3.4,1.5,3.4,4.5c0,2.9-0.9,4.5-3.4,4.5c-2.7,0-3.4-1.5-3.4-4.5C429.4,598,430.3,596.4,432.8,596.4z
		 M432.8,603.9c0.9,0,1.2-0.9,1.2-3s-0.3-3-1.2-3c-1.1,0-1.2,1.3-1.2,3S431.7,603.9,432.8,603.9z"/>
	<path d="M438.5,594.1h2.2v2.5h1.3v1.5h-1.3v4.7c0,0.7,0.1,0.9,0.8,0.9c0.2,0,0.4,0,0.5,0v1.5c-0.5,0-0.9,0.1-1.4,0.1
		c-1.7,0-2-0.5-2-2.3v-4.9h-1.1v-1.5h1.1V594.1z"/>
	<path d="M446.5,596.4c2.7,0,3.4,1.5,3.4,4.5c0,2.9-0.9,4.5-3.4,4.5c-2.7,0-3.4-1.5-3.4-4.5C443.1,598,444,596.4,446.5,596.4z
		 M446.5,603.9c0.9,0,1.2-0.9,1.2-3s-0.3-3-1.2-3c-1.1,0-1.2,1.3-1.2,3S445.4,603.9,446.5,603.9z"/>
</g>
<g>
	<path d="M405.1,629.6v4.6h0l2.9-4.6h2.5l-3.1,4.9l3.5,6.5h-2.6l-2.4-4.7l-0.8,1.3v3.4h-2.3v-11.4H405.1z"/>
	<path d="M411.7,635v-0.2c0-2,1.4-2.7,3-2.7c2.6,0,3.1,1.1,3.1,2.6v4.5c0,0.8,0,1.2,0.3,1.7H416c-0.1-0.3-0.2-0.6-0.3-0.9h0
		c-0.5,0.9-1.1,1.1-2.2,1.1c-1.5,0-2.1-1.3-2.1-2.5c0-1.6,0.7-2.3,2.2-2.7l1.2-0.3c0.7-0.2,0.9-0.4,0.9-1c0-0.7-0.3-1.1-1-1.1
		c-0.7,0-1,0.4-1,1.1v0.2H411.7z M415.7,636.7c-0.3,0.2-0.7,0.4-0.9,0.4c-0.9,0.2-1.2,0.6-1.2,1.4c0,0.7,0.2,1.2,0.8,1.2
		s1.4-0.4,1.4-1.3V636.7z"/>
	<path d="M419.7,632.4h2.1v0.9h0c0.6-0.8,1.2-1.1,2.2-1.1c1,0,1.7,0.5,2,1.4h0c0.3-0.9,1.1-1.4,2.2-1.4c1.5,0,2.1,0.9,2.1,2.6v6.3
		h-2.2v-6c0-0.7-0.2-1.1-0.9-1.1c-0.7,0-1.2,0.5-1.2,1.5v5.7h-2.2v-6c0-0.7-0.2-1.1-0.9-1.1c-0.7,0-1.2,0.5-1.2,1.5v5.7h-2.2V632.4z
		"/>
	<path d="M432.2,629.4h2.2v1.9h-2.2V629.4z M432.2,632.4h2.2v8.6h-2.2V632.4z"/>
	<path d="M438.6,629.6v6h0l2.2-3.2h2.4l-2.5,3.4l2.8,5.2h-2.4l-1.8-3.5l-0.8,1v2.5h-2.2v-11.4H438.6z"/>
	<path d="M447.7,632.2c2.7,0,3.4,1.5,3.4,4.5c0,2.9-0.9,4.5-3.4,4.5c-2.7,0-3.4-1.5-3.4-4.5C444.3,633.7,445.2,632.2,447.7,632.2z
		 M447.7,639.7c0.9,0,1.2-0.9,1.2-3s-0.3-3-1.2-3c-1.1,0-1.2,1.3-1.2,3S446.6,639.7,447.7,639.7z"/>
	<path d="M456.8,635.5c0-0.8-0.2-1.7-1-1.7c-1.1,0-1.3,1-1.3,2.9c0,2.1,0.2,3,1.2,3c0.7,0,1.1-0.6,1.1-2h2.1c0,2.3-0.9,3.5-3.3,3.5
		c-2.2,0-3.3-1.1-3.3-4.5c0-3.5,1.5-4.5,3.5-4.5c2,0,3.1,1.3,3.1,3.3H456.8z"/>
	<path d="M460.3,629.6h2.2v3.7h0c0.4-0.7,1.2-1.1,2.1-1.1c1.4,0,2.2,0.8,2.2,2.4v6.4h-2.2v-5.9c0-0.9-0.3-1.2-0.9-1.2
		c-0.8,0-1.2,0.5-1.2,1.4v5.7h-2.2V629.6z"/>
	<path d="M468.7,629.4h2.2v1.9h-2.2V629.4z M468.7,632.4h2.2v8.6h-2.2V632.4z"/>
</g>
<g>
	<path d="M534.2,625.3v1.9h-2.5v9.5h-2.3v-9.5h-2.5v-1.9H534.2z"/>
	<path d="M538.8,627.9c2.7,0,3.4,1.5,3.4,4.5c0,2.9-0.9,4.5-3.4,4.5c-2.7,0-3.4-1.5-3.4-4.5C535.4,629.5,536.3,627.9,538.8,627.9z
		 M538.8,635.4c0.9,0,1.2-0.9,1.2-3s-0.3-3-1.2-3c-1.1,0-1.2,1.3-1.2,3S537.8,635.4,538.8,635.4z"/>
	<path d="M546.3,625.3v6h0l2.2-3.2h2.4l-2.5,3.4l2.8,5.2H549l-1.8-3.5l-0.8,1v2.5h-2.2v-11.4H546.3z"/>
	<path d="M552.8,625.2h2.2v1.9h-2.2V625.2z M552.8,628.1h2.2v8.6h-2.2V628.1z"/>
	<path d="M560.3,627.9c2.7,0,3.4,1.5,3.4,4.5c0,2.9-0.9,4.5-3.4,4.5c-2.7,0-3.4-1.5-3.4-4.5C556.9,629.5,557.8,627.9,560.3,627.9z
		 M560.3,635.4c0.9,0,1.2-0.9,1.2-3s-0.3-3-1.2-3c-1.1,0-1.2,1.3-1.2,3S559.2,635.4,560.3,635.4z"/>
</g>
<g>
	<path d="M476.2,669.1h6.4v1.9h-4.1v2.7h3.8v1.9h-3.8v5h-2.3V669.1z"/>
	<path d="M488.6,679.5L488.6,679.5c-0.5,0.8-1.3,1.2-2.2,1.2c-1.4,0-2.2-0.8-2.2-2.4v-6.4h2.2v5.9c0,0.9,0.3,1.2,0.9,1.2
		c0.8,0,1.2-0.5,1.2-1.4v-5.7h2.2v8.6h-2.1V679.5z"/>
	<path d="M492.9,671.9h2.2v9.2c0,1.4-0.5,2.2-2.5,2.2c-0.3,0-0.6,0-0.9,0v-1.6c0.1,0,0.2,0,0.4,0c0.8,0,0.9-0.4,0.9-1.4V671.9z
		 M492.9,668.9h2.2v1.9h-2.2V668.9z"/>
	<path d="M497.4,668.9h2.2v1.9h-2.2V668.9z M497.4,671.9h2.2v8.6h-2.2V671.9z"/>
	<path d="M503.4,677.7v0.3c0,0.8,0.4,1.2,1.2,1.2c0.7,0,1.1-0.3,1.1-1c0-0.6-0.4-0.8-0.8-1l-1.6-0.6c-1.2-0.4-1.8-1.2-1.8-2.4
		c0-1.4,0.9-2.6,3.2-2.6c2,0,2.9,0.9,2.9,2.4v0.4h-2c0-0.9-0.3-1.3-1-1.3c-0.6,0-1,0.3-1,0.9c0,0.4,0.2,0.8,1,1l1.3,0.4
		c1.4,0.5,1.9,1.2,1.9,2.5c0,1.8-1.3,2.7-3.2,2.7c-2.5,0-3.2-1.1-3.2-2.7v-0.3H503.4z"/>
	<path d="M509.5,674.5v-0.2c0-2,1.4-2.7,3-2.7c2.6,0,3.1,1.1,3.1,2.6v4.5c0,0.8,0,1.2,0.3,1.7h-2.1c-0.1-0.3-0.2-0.6-0.3-0.9h0
		c-0.5,0.9-1.1,1.1-2.2,1.1c-1.5,0-2.1-1.3-2.1-2.5c0-1.6,0.7-2.3,2.2-2.7l1.2-0.3c0.7-0.2,0.9-0.4,0.9-1c0-0.7-0.3-1.1-1-1.1
		c-0.7,0-1,0.4-1,1.1v0.2H509.5z M513.6,676.2c-0.3,0.2-0.7,0.4-0.9,0.4c-0.9,0.2-1.2,0.6-1.2,1.4c0,0.7,0.2,1.2,0.8,1.2
		c0.6,0,1.4-0.4,1.4-1.3V676.2z"/>
	<path d="M517.9,671.9h2.1v1h0c0.5-0.8,1.3-1.2,2.2-1.2c1.4,0,2.2,0.8,2.2,2.4v6.4h-2.2v-5.9c0-0.9-0.3-1.2-0.9-1.2
		c-0.8,0-1.2,0.5-1.2,1.4v5.7h-2.2V671.9z"/>
</g>
<g>
	<path d="M514.6,569.2l2.8,7.8h0v-7.8h2.1v11.4h-2.6l-2.8-8h0v8h-2.1v-11.4H514.6z"/>
	<path d="M521.8,569h2.2v1.9h-2.2V569z M521.8,572h2.2v8.6h-2.2V572z"/>
	<path d="M528.4,569.2v6h0l2.2-3.2h2.4l-2.5,3.4l2.8,5.2h-2.4l-1.8-3.5l-0.8,1v2.5h-2.2v-11.4H528.4z"/>
	<path d="M537.1,569.2v6h0l2.2-3.2h2.4l-2.5,3.4l2.8,5.2h-2.4l-1.8-3.5l-0.8,1v2.5h-2.2v-11.4H537.1z"/>
	<path d="M546.5,571.8c2.7,0,3.4,1.5,3.4,4.5c0,2.9-0.9,4.5-3.4,4.5c-2.7,0-3.4-1.5-3.4-4.5C543.1,573.3,544,571.8,546.5,571.8z
		 M546.5,579.3c0.9,0,1.2-0.9,1.2-3s-0.3-3-1.2-3c-1.1,0-1.2,1.3-1.2,3S545.5,579.3,546.5,579.3z"/>
</g>
<g>
	<path d="M321.8,586.3v1.9h-2.5v9.5H317v-9.5h-2.5v-1.9H321.8z"/>
	<path d="M326.5,588.9c2.7,0,3.4,1.5,3.4,4.5c0,2.9-0.9,4.5-3.4,4.5c-2.7,0-3.4-1.5-3.4-4.5C323.1,590.5,324,588.9,326.5,588.9z
		 M326.5,596.5c0.9,0,1.2-0.9,1.2-3s-0.3-3-1.2-3c-1.1,0-1.2,1.3-1.2,3S325.4,596.5,326.5,596.5z"/>
	<path d="M331.7,598.9c0.2,0,0.4,0,0.6,0c0.8,0,1.1-0.4,1.2-1.2l-2.4-8.6h2.3l1.3,6h0l1.1-6h2.2l-2.1,8c-0.8,3-1.3,3.4-3.3,3.4h-0.9
		V598.9z"/>
	<path d="M339.5,591.8v-0.2c0-2,1.4-2.7,3-2.7c2.6,0,3.1,1.1,3.1,2.6v4.5c0,0.8,0,1.2,0.3,1.7h-2.1c-0.1-0.3-0.2-0.6-0.3-0.9h0
		c-0.5,0.9-1.1,1.1-2.2,1.1c-1.5,0-2.1-1.3-2.1-2.5c0-1.6,0.7-2.3,2.2-2.7l1.2-0.3c0.7-0.2,0.9-0.4,0.9-1c0-0.7-0.3-1.1-1-1.1
		c-0.7,0-1,0.4-1,1.1v0.2H339.5z M343.5,593.5c-0.3,0.2-0.7,0.4-0.9,0.4c-0.9,0.2-1.2,0.6-1.2,1.4c0,0.7,0.2,1.2,0.8,1.2
		s1.4-0.4,1.4-1.3V593.5z"/>
	<path d="M347.8,589.2h2.1v0.9h0c0.6-0.8,1.2-1.1,2.2-1.1c1,0,1.7,0.5,2,1.4h0c0.3-0.9,1.1-1.4,2.2-1.4c1.5,0,2.1,0.9,2.1,2.6v6.3
		h-2.2v-6c0-0.7-0.2-1.1-0.9-1.1c-0.7,0-1.2,0.5-1.2,1.5v5.7H352v-6c0-0.7-0.2-1.1-0.9-1.1c-0.7,0-1.2,0.5-1.2,1.5v5.7h-2.2V589.2z"
		/>
	<path d="M360.6,591.8v-0.2c0-2,1.4-2.7,3-2.7c2.6,0,3.1,1.1,3.1,2.6v4.5c0,0.8,0,1.2,0.3,1.7h-2.1c-0.1-0.3-0.2-0.6-0.3-0.9h0
		c-0.5,0.9-1.1,1.1-2.2,1.1c-1.5,0-2.1-1.3-2.1-2.5c0-1.6,0.7-2.3,2.2-2.7l1.2-0.3c0.7-0.2,0.9-0.4,0.9-1c0-0.7-0.3-1.1-1-1.1
		c-0.7,0-1,0.4-1,1.1v0.2H360.6z M364.6,593.5c-0.3,0.2-0.7,0.4-0.9,0.4c-0.9,0.2-1.2,0.6-1.2,1.4c0,0.7,0.2,1.2,0.8,1.2
		s1.4-0.4,1.4-1.3V593.5z"/>
</g>
<path class="st2" d="M0,343.9c0,0,337.1,7.9,515.4,292.9"/>
<polyline class="st3" points="468.7,664.5 515.4,636.7 502.3,567.3 "/>
<polyline class="st3" points="515.4,636.7 416.2,615.1 379.1,593.5 371.9,627.9 323.4,706.4 305,732.1 309.9,756.3 "/>
<circle cx="515.4" cy="636.7" r="4.3"/>
<g>
	<path class="st4" d="M522.9,619.9c0,3.4-3.1,6.1-6.9,6.1c-3.8,0-6.9-2.7-6.9-6.1c0-3.4,3.1-6.1,6.9-6.1
		C519.8,613.8,522.9,616.6,522.9,619.9z"/>
	<path class="st5" d="M515.7,624.5c-2.6,0-4.7-2.1-4.7-4.7c0-2.6,2.1-4.7,4.7-4.7s4.7,2.1,4.7,4.7
		C520.3,622.4,518.3,624.5,515.7,624.5z M515.7,610.9c-5,0-9,4-9,9c0,2,1.3,5.3,3.9,10c1.9,3.3,3.7,6.1,3.8,6.2l1.3,2l1.3-2
		c0.1-0.1,1.9-2.9,3.8-6.2c2.6-4.7,3.9-8,3.9-10C524.7,614.9,520.6,610.9,515.7,610.9z"/>
</g>
<circle cx="379.1" cy="593.5" r="4.3"/>
<circle cx="468.7" cy="664.5" r="4.3"/>
<circle cx="323.4" cy="706.4" r="4.3"/>
<circle cx="305" cy="732.1" r="4.3"/>
<circle cx="309.9" cy="756.3" r="4.3"/>
<line class="st3" x1="416.2" y1="615.1" x2="402" y2="619.8"/>
<circle cx="402" cy="619.8" r="4.3"/>
<circle cx="416.2" cy="615.1" r="4.3"/>
<line class="st3" x1="389.9" y1="625.2" x2="371.9" y2="628.1"/>
<circle cx="371.9" cy="627.9" r="4.3"/>
<circle cx="389.8" cy="625.2" r="4.3"/>
<line class="st3" x1="502.3" y1="567.3" x2="494.8" y2="547.5"/>
<circle cx="502.3" cy="567.3" r="4.3"/>
<circle cx="494.8" cy="547.5" r="4.3"/>
<rect x="354.3" y="635.1" class="st0" width="19.7" height="14.4"/>
<g>
	<path d="M305.8,635.6h6.4v1.9h-4.1v2.7h3.8v1.9h-3.8v5h-2.3V635.6z"/>
	<path d="M317.9,646L317.9,646c-0.5,0.8-1.3,1.2-2.2,1.2c-1.4,0-2.2-0.8-2.2-2.4v-6.4h2.2v5.9c0,0.9,0.3,1.2,0.9,1.2
		c0.8,0,1.2-0.5,1.2-1.4v-5.7h2.2v8.6h-2.1V646z"/>
	<path d="M324,635.6v6h0l2.2-3.2h2.4l-2.5,3.4l2.8,5.2h-2.4l-1.8-3.5l-0.8,1v2.5h-2.2v-11.4H324z"/>
	<path d="M334.5,646L334.5,646c-0.5,0.8-1.3,1.2-2.2,1.2c-1.4,0-2.2-0.8-2.2-2.4v-6.4h2.2v5.9c0,0.9,0.3,1.2,0.9,1.2
		c0.8,0,1.2-0.5,1.2-1.4v-5.7h2.2v8.6h-2.1V646z"/>
	<path d="M338.5,638.4h2.2v9.2c0,1.4-0.5,2.2-2.5,2.2c-0.3,0-0.6,0-0.9,0v-1.6c0.1,0,0.2,0,0.4,0c0.8,0,0.9-0.4,0.9-1.4V638.4z
		 M338.5,635.5h2.2v1.9h-2.2V635.5z"/>
	<path d="M342.6,635.5h2.2v1.9h-2.2V635.5z M342.6,638.4h2.2v8.6h-2.2V638.4z"/>
	<path d="M354.6,635.4c3.5,0,3.9,2.5,3.9,5.9c0,3.5-0.4,5.9-3.9,5.9s-3.9-2.5-3.9-5.9C350.7,637.8,351.1,635.4,354.6,635.4z
		 M354.6,645.6c1.4,0,1.6-1.2,1.6-4.2c0-3.1-0.2-4.2-1.6-4.2c-1.4,0-1.6,1.2-1.6,4.2C353,644.4,353.2,645.6,354.6,645.6z"/>
	<path d="M360.1,638.4h2.1v1h0c0.5-0.8,1.3-1.2,2.2-1.2c1.4,0,2.2,0.8,2.2,2.4v6.4h-2.2v-5.9c0-0.9-0.3-1.2-0.9-1.2
		c-0.8,0-1.2,0.5-1.2,1.4v5.7h-2.2V638.4z"/>
	<path d="M370,644.2v0.3c0,0.8,0.4,1.2,1.2,1.2c0.7,0,1.1-0.3,1.1-1c0-0.6-0.4-0.8-0.8-1l-1.6-0.6c-1.2-0.4-1.8-1.2-1.8-2.4
		c0-1.4,0.9-2.6,3.2-2.6c2,0,2.9,0.9,2.9,2.4v0.4h-2c0-0.9-0.3-1.3-1-1.3c-0.6,0-1,0.3-1,0.9c0,0.4,0.2,0.8,1,1l1.3,0.4
		c1.4,0.5,1.9,1.2,1.9,2.5c0,1.8-1.3,2.7-3.2,2.7c-2.5,0-3.2-1.1-3.2-2.7v-0.3H370z"/>
	<path d="M377.7,643.1v0.7c0,1,0.3,2,1.1,2c0.7,0,1-0.6,1.2-1.6h2c-0.1,2-1,3.1-3.1,3.1c-3.2,0-3.3-2.5-3.3-4.6
		c0-2.3,0.4-4.5,3.4-4.5c2.6,0,3.2,1.7,3.2,4.4v0.5H377.7z M380,641.7c0-1.3-0.2-2-1.1-2c-0.9,0-1.1,0.9-1.1,1.7v0.3H380z"/>
	<path d="M383.6,638.4h2.1v1h0c0.5-0.8,1.3-1.2,2.2-1.2c1.4,0,2.2,0.8,2.2,2.4v6.4h-2.2v-5.9c0-0.9-0.3-1.2-0.9-1.2
		c-0.8,0-1.2,0.5-1.2,1.4v5.7h-2.2V638.4z"/>
</g>
</svg>
