<?xml version="1.0" encoding="UTF-8"?>
<!DOCTYPE svg PUBLIC "-//W3C//DTD SVG 1.1//EN" "http://www.w3.org/Graphics/SVG/1.1/DTD/svg11.dtd">
<svg xmlns="http://www.w3.org/2000/svg" version="1.1" viewBox="0 0 778.3 983.6">
  <style type="text/css">
#pin path {
    stroke: #ED0031;
    fill: #ED0031;
}   

path.land, path.air { 
 fill: none;
 stroke: #ED0031;
 stroke-width: 2px;
 stroke-linecap: round;
}

.land {  }
.air { stroke-dasharray: 4 6;}

</style>
  <defs>
    <marker id="pin" markerWidth="13px" markerHeight="13px" refX="250" refY="500" viewBox="0 0 466 466">
      <path d="M233.292,0c-85.1,0-154.334,69.234-154.334,154.333c0,34.275,21.887,90.155,66.908,170.834         c31.846,57.063,63.168,104.643,64.484,106.64l22.942,34.775l22.941-34.774c1.317-1.998,32.641-49.577,64.483-106.64         c45.023-80.68,66.908-136.559,66.908-170.834C387.625,69.234,318.391,0,233.292,0z M233.292,233.291c-44.182,0-80-35.817-80-80         s35.818-80,80-80c44.182,0,80,35.817,80,80S277.473,233.291,233.292,233.291z"/>
    </marker>
  </defs>
  <svg version="1.1" viewBox="0 0 778.3 983.6">
    <style type="text/css">
	.st0{stroke:#000000;stroke-width:2;stroke-miterlimit:10;}
	.st1{fill:#1A171B;}
	.st2{stroke:#000000;stroke-miterlimit:10;}
	.st3{fill:#FFFFFF;}
	.st4{fill:#ED0031;}
</style>
    <g id="Ebene_5">
      <g>
        <path class="st0" d="M526.1,154.3c4.7-3.3,18.7,6,23.3,4c4.7-2,8.7-5.7,11-4.3c2.3,1.3,9.7,4.7,11.7-2c2-6.7,0.3-14-1-20.7    c-1.3-6.7-4.7-14,0-17.7s10.3-6,9.7-12.3c-0.7-6.3-5.3-16.3-3.7-21.3s3-17-0.3-27.7c-3.3-10.7-12-20.7-12-27.3s2-12.3,6-13    c4-0.7,2.3-8.7,6.7-7.7c4.3,1,30.7,27.7,38.7,34.3s29.3,28,46.3,31.3c17,3.3,34.3,0.7,36.7,4.7s2.3,10,10.7,9.7    c8.3-0.3,21.3-9,26-17.7c4.7-8.7,6.3-16.3,9.3-15c3,1.3-2.3,22.7-4.3,29s0,12.3,4.3,14.3s8,1.7,8,4c0,2.3-3.3,5-1.3,9    s1.7,10,5.3,10.3c3.7,0.3,10.7-5.3,12.7-8c2-2.7,7-6.7,8.3-4.3c1.3,2.3-6.7,6.3-7.7,9.7s-1.3,9.7-4.7,9.7c-3.3,0-8.7,2.7-11.3,3    c-2.7,0.3-0.7,6-5.3,9s-10.2,6-9.2,2.6c1-3.3-3.7-6.7-4.4-2.1c-0.7,4.7,0.5,8.8-1.8,8.4c-2.3-0.3-17.7-3.7-24.7-0.7    s-21,20.3-26.7,30.7c-5.7,10.3-7.3,19.3-6,26c1.3,6.7,1.7,16.3-0.7,17c-2.3,0.7-7-8.3-16.3-8.3c-9.3,0-14.2-2.3-22.5-6.3    s-17-6-21-9.2s-7.5-8.8-15.5-8s-16.2,4.8-22,10.8s-7.8,13.8-12.2,14s-18.5-23.2-26.8-12.5s-6,21.2,0.8,23.5s15.2,0.2,18.5,3.5    s7.8,11.2,12.5,12s11,1.2,9.2,4s-7.8,8.8-11.8,9s-10.2-3.8-13.8-1.2s-3.2,3.2-5.2,4.5s-0.2,11-4,13s-3,9-8.8,9s-15.8-4.2-13-15    s6.8-15,5-21s-20-11.2-20-16.5s2.5-12,1.8-16s-2.2-11,0.8-12c3-1,6.7-0.8,7.7-3.5s5-7.2,7-7.2s5-3.5,6-7s4-3.5,4.5-6.5    s-9.8-6.8-10.8-10.2S526.1,154.3,526.1,154.3z"/>
        <path class="st0" d="M571,264.6c-1.5,3.5-4,24-2.2,25s5-5.5,9.2-5s5.5-4.2,8.5-3.8s5.2,7.2,4,13.2s-2,9.5-5.2,9.8s-6.8-8.8-10.2-6    s-1,10.2-4,11.2s-5.2-18.2-8.8-20.2s-7.2,0.2-11.8,0.5s-8,3.5-5.5,6.2s3.5,6.5,2.2,8.5s-1,11-6,13s-11.8,3.5-10.5,10.8    s10,12.2,9.8,19s-1.5,14.2-4.8,19s-2.2,8.2-6.2,8.5s-3.2,6,0.2,6.8s6.8-0.5,7.8-2.8s0.2-15.2,4-15.5s6,7,4.5,9.5s-4,10.2-1,16.2    s5.5,7.2,4,12.2s-5.2,18.5-6,26.8s-1.2,16.8-4.8,23.5s-7.2,19.5-6.8,26s-4.5,18.2-12.8,23c-8.2,4.8-12.2,8.2-15.5,16.5    s-11.5,32.5-28.8,43.2s-24.8,14-29,17s-7.2,15.8-13.5,15s-12.8-2.2-12-8s2-5.8,0.2-8.2s-6.2-6-5.5-7.8s3.2-4.5,7.5-6.5    s2.2-6.2,4.8-8.5s6-3.8,4.2-6.8s-14.8,4.5-20,7s-13,9.8-10,14.2s8.5,16.2,7,20s-8.5,23.2-13,29.5s-14,13.2-14.8,16.5    s-0.8,10.5-2.8,12.5s-5.8,2-5.8,4.5s9.2,10,8,12.5s-5.2,0.2-6.2,3.5s0,3.8-3.8,6.2s-4.2,4.2-8.2,5.5s-6.8,2.2-10.2,1.2    s-7.5-0.5-9,1.2s-6.8-3-5.2-5.8s1-8.8-3.8-6.8s-12.8,9-21.2,8.2s-17.8,0-29.2,6s-16.5,10-25.5,9.5c-9-0.5-13.3,1.5-16,2.2    s-1-5-6.2-4s-6-2.2-12.2,1s-23,7.5-22,9.8s4,5.8,2.2,7.5s-17.2,17.8-25,24.8s-16,17.5-18.2,18s-3-1.5-6.2,2s-10.5,16-14.8,18    s-13.8-2.5-16.2,0s-5,7.8-3.8,12.2s0.8,5.8-0.8,9.2s1.2,5.8,5.2,4s10.2-3.8,12.2-2s4.2,4.8,6.5,4.8s10.2-7,20.8-7s16.8,8,19.2,7.5    s1.8-6,4.2-6.8s2.8-8,3-11.8s4.5-4.5,4.5-6.2s-3-7,3.2-7s5.2,10.5,12.8,8.5s6.5-6,13.8-7.2s14.2-6.5,16-5.8s5.5,3.5,7.2,0.5    s2-6.2,7-6.5c5-0.2,6.3-4.5,8.3-3.8s3.5,3.2,7.5,1.8s0.8-9.8,5.2-10s8.8,2.5,12.8-1.8s7.5-9,17-9.8s20.5,3.8,23.5,4.8    s10.5,0,13.5-2.5s7.5-4.2,10.2-1.2s1.2,9-4.2,14.5s-10.5,10-10.2,14.2s6.2,8,4.8,12s-0.8,12,2.8,13.5s8.5,1.5,10,5    s8.5,12.5,14.8,12.8s17.2-0.5,17.5-6s3.5-16,7.2-18.8s4.8-18.2,14-22s10.5-9.8,16.8-9.8s9,4,11,2.2s-1-7.2-1-9.5s3.8-6.8,0.2-6.5    s-17.5-0.5-18.8-7.8s1.5-13.5,2.2-17s4-9.8,6.5-8.8s2.2,12.5,3.8,16.8s3.2,8.2,6,7s-3.8-12.8-1.8-13s5.8,4.8,8.5,4.2    s10.5,0,10.5,2s-10.8,6.8-10.2,9s10.8-2.8,16.5-4.8s22.8-4.5,28-3.8s13.8,2,13.8,2l0.5-8.8c0,0,3-11,6.8-13.8s9.2-14.8,14.7-14    s9,2.2,6.2,5s-4.5,0.8-3.8,7s2.2,20,5.8,19.8s12.5-12,14.5-16.8s-3.5-11.8-2.2-15.2s3-4.2,3.5-7.8s5.2-10.5,11.8-10s10.2,10,13,9    s5-7,4-9.5s-7.2-4.8-6.8-7.2s6.8-7,6.8-8.8s-5-5-2.8-6.2s13-1.8,15,0.8s-4.2,8-6,13.2s-0.2,14.2-1,19.2s-3.5,12.5-1,12.5    s9.8-1.5,10-3.2s1.2-11.5,7.2-14.5s10-8,10.8-14.8s1.5-14.2,5-17.5s12.2-4.2,12.2-7.8s-18.2-24.5-17.8-34.8s5.2-40.2,8.8-42.5    s7.8-5.2,5.2-19.8s-16-48.2-14.8-55.5s5.8-9.5,5.8-13.5s0.2-5.2,3.2-5s4-7.5,8.5-6s7,8,8.5,6s1.2-11.5-1.2-14.5    s-3.2-11.2,0.2-15.2s3.2-11.5,4.2-14.2s4.8,0.8,6-3s0.5-10.2,1.2-15.2s2.8-17.2-0.8-23.5s-6-15.5-6.2-21.2s-4.2-6-5-9.8    s-18.8-18.5-23.2-28.5s-7.5-24-7.2-33.5s3.5-16.8,0-17s-7.8,7-10.5,6s-8.8-5.5-12.8-6.5S571,264.6,571,264.6z"/>
        <path class="st0" d="M229.5,782.4c-6.5,0.5-10.5,6-12.8,11.5s-2.5,13.2-7.2,17.8s-3.5,6.5-10.8,9.5s-14.8,4.5-13.8,7.5    s5.8,0.2,10-0.2s2.8,3.8,6.8,5.2s7.2,0.5,7.5,3s-2.8,2.5-3.8,7.2s0.5,13,3.5,13.2s10.2-0.5,10.8,2s-5,6.8-2.5,7.8    s21.2-0.5,20.8-2.2s-1.5-14,1-15.2s2-5.8,6.2-9.2s-0.8-10.8,6.2-16c7-5.2,15.5-11,22.3-9.5s14.8,10.8,17,12.5s7.8-1.8,7.2-6.8    s7.8-17.8,11-19s2.5-7.2,5.2-8.8s9.5-3,5.8-6.5s-10-7-8.5-11.5s3.8-8.5-2-9s-4.2,4-8.5,2s-9.2-9-15-9s-9.8,2-14.2,4.5    s-10.8,5-10.8,12s-6.8,11.2-11.5,12.2s-10.2,1-12.2,3s-2.2-2-4.2-4.2S229.5,782.4,229.5,782.4z"/>
        <path class="st0" d="M52,847.6c-0.5-5.5,0.5-10.5,4.8-8.8s8,5.2,9,2.5s-3.2-12.5,0.8-12.8s7.8,6.5,10.2,2.8s2-9,7-9s8.8-2,9.5-7.5    s4.2-7,8.5-9.5s7.2-4.5,11-3.5s9.5-4.8,12.8-2s-2.2,16.8,5.2,20s31-7.2,32.5-4.2s4.5,15.2,1.2,16.5s-11.8,0.8-10.8,5    s8.5,4.2,11.2,4.2s7.8-2.8,8.2,0s-4,6.8-3,8s10.8,1,10,2.8s-5.2,5.8-3.2,6.5s10-1,9,2s0.2,4.8-2.8,7.8s-13.8,12.2-14.2,18.5    s0,9-1.8,15.2s-6.5,25-5.8,31.5s2,13.8-2.5,17s-5,10-9,10.5s-2.8-3.8-5.2-4.2s-3.2-0.2-4.8,1.2s-2,4.8-0.2,5.2s4,4.5,1,8.5    s-4.5,10.5-9.2,10.2s-5.2-1.2-7,0.2s-5,2-4.2-1s5-5,5-10.2s-8-15.5-6-17.5s5.8-7.5,2.8-10.2s-5.5-2.5-7.5,0.8s-0.8,5.5-2.2,8.2    s-0.8,9.5,1.5,12.2s5.8,7,3,10s-8.2-3.2-12-2.8s-11,4-11.2-0.5s-5.8-9-1.8-9.2s4-5.5,5.8-8s-8-11.5-7.2-15.8s-3-14.2-1-17.8    s10-6.5,12-11.5s5.8-5.8,6.5-8.8s5.5-15.8,3.2-16s-8.8-0.8-6.8-3.2s5.2-5.5,4.2-7.8s-8.2-0.2-8.8-6.8s-0.5-12.2-4-13s-7-5.2-9.8-3    s-2.2,4.8-0.5,8.2s7.2,5.2,9.2,13s2,12.2-2.8,14s-10.2,3.2-8.8-0.8s4.5-10.5-0.5-9s-10.5,9.5-13.2,11s-0.2-6.5-3-8    c-2.7-1.5-12.2-12.8-9.5-15.5s15,10,15.7,6.2s0.8-10.2-3.8-10.8s-6-0.2-8.7-3.5s-4.2-1.8-6.5-3.8S52,847.6,52,847.6z"/>
        <path class="st1" d="M83.8,891.8c2.2,0.3,2.3,3.8,3.3,7.2c1,3.3,3.3,5,0.2,7.3c-3.2,2.3-4.7,7-8,7s-3.5-3.3-3-9.2    s2.7-9.7,4.2-10.5S83.8,891.8,83.8,891.8z"/>
        <path class="st1" d="M94.1,891.4c-2.8,1.3-3,2-2.5,5.2s4.5,3.8,7,3s4.7-4.7,3.5-6.2C101,891.9,94.1,891.4,94.1,891.4z"/>
        <path class="st2" d="M329.5,743.6c3.2,0.7,3.5,2.2,1.3,7.2c-2.2,5-3.2,7.8-2,8.5c1.2,0.7,3.2,2.2,2.3,4.2s-1.8,1.5-4.7,3.7    c-2.8,2.2-7.5,3.3-8.8-0.8c-1.3-4.2,3.2-9,4-11.7S329.5,743.6,329.5,743.6z"/>
        <path class="st2" d="M476,486.2c2.8,0.6,4.2,6.6,3.2,10.3c-1,3.7-0.2,5.6,1.7,5.6c2,0,4.2,2.7,3.1,4.9s-7.9,10.1-10.2,11.2    c-2.3,1.1-4.3,0.1-3.6-2.2c0.7-2.3,3.2-7.7,2.1-7.9c-1.1-0.1-6.6,1.2-6.6-0.1s5.9-17.4,7.9-19.8C475.5,486,476,486.2,476,486.2z"/>
        <path class="st2" d="M199.2,776.9c-2.3,0.8-2.8,8.2-0.2,8.8s7,2.8,7.2,0.5s0.5-4.8-2.5-6.8S201.5,776,199.2,776.9z"/>
        <path class="st2" d="M189.9,795.7c-1.1,0.9-0.4,5.6,1.5,6.2s5.4,0.6,6.1-0.3c0.7-0.9,1.5-3.3,0.7-4.5c-0.8-1.3-1.1-2.2-3.9-2.4    S189.9,795.7,189.9,795.7z"/>
        <g>
          <path class="st3" d="M573.1,626.5h-2.4v-1.5h6.4v1.5h-2.4v6.4h-1.7V626.5z"/>
          <path class="st3" d="M582,624.9c2.4,0,3.9,1.8,3.9,4.1c0,2.3-1.4,4.1-3.9,4.1s-3.9-1.8-3.9-4.1     C578.2,626.7,579.6,624.9,582,624.9z M582,631.6c1.6,0,2.1-1.3,2.1-2.6c0-1.4-0.6-2.7-2.1-2.7c-1.6,0-2.1,1.3-2.1,2.7     C579.9,630.3,580.5,631.6,582,631.6z"/>
          <path class="st3" d="M587.5,625.1h1.7v3.3l3.1-3.3h2.2l-3.1,3.1l3.4,4.8h-2.2l-2.4-3.5l-1,1v2.5h-1.7V625.1z"/>
          <path class="st3" d="M595.9,625.1h1.7v7.9h-1.7V625.1z"/>
          <path class="st3" d="M603.1,624.9c2.4,0,3.9,1.8,3.9,4.1c0,2.3-1.4,4.1-3.9,4.1c-2.4,0-3.9-1.8-3.9-4.1     C599.2,626.7,600.7,624.9,603.1,624.9z M603.1,631.6c1.6,0,2.1-1.3,2.1-2.6c0-1.4-0.6-2.7-2.1-2.7c-1.6,0-2.1,1.3-2.1,2.7     C601,630.3,601.5,631.6,603.1,631.6z"/>
        </g>
        <g>
          <path class="st3" d="M480.8,668.7h5.5v1.5h-3.8v1.8h3.3v1.3h-3.3v3.2h-1.7V668.7z"/>
          <path class="st3" d="M494.4,673.6c0,2.1-1.3,3.2-3.4,3.2c-2.1,0-3.3-1-3.3-3.2v-4.9h1.7v4.9c0,0.9,0.2,1.7,1.6,1.7     c1.2,0,1.6-0.5,1.6-1.7v-4.9h1.7V673.6z"/>
          <path class="st3" d="M500.9,674.1c0,1-0.3,2.7-2.6,2.7c-1.3,0-2.6-0.7-2.6-2.4v-0.7h1.6v0.4c0,0.8,0.2,1.3,1,1.3     c0.9,0,0.9-0.7,0.9-1.3v-5.3h1.7V674.1z"/>
          <path class="st3" d="M502.9,668.7h1.7v7.9h-1.7V668.7z"/>
          <path class="st3" d="M506.4,672.9h3.3v1.3h-3.3V672.9z"/>
          <path class="st3" d="M481.9,687.2c0,1,0.8,1.5,1.7,1.5c0.6,0,1.5-0.2,1.5-1c0-0.8-1.2-1-2.3-1.3c-1.2-0.3-2.3-0.8-2.3-2.2     c0-1.6,1.5-2.4,2.9-2.4c1.6,0,3.1,0.7,3.1,2.5h-1.7c-0.1-0.9-0.7-1.2-1.6-1.2c-0.6,0-1.2,0.2-1.2,0.9c0,0.6,0.4,0.7,2.3,1.2     c0.6,0.1,2.3,0.5,2.3,2.3c0,1.4-1.1,2.5-3.3,2.5c-1.7,0-3.4-0.9-3.3-2.8H481.9z"/>
          <path class="st3" d="M490.5,681.9h1.8l2.9,7.9h-1.8l-0.6-1.7h-2.9l-0.6,1.7h-1.7L490.5,681.9z M490.3,686.7h2l-1-2.9h0     L490.3,686.7z"/>
          <path class="st3" d="M496.3,681.9h1.7l3.3,5.3h0v-5.3h1.6v7.9h-1.7l-3.3-5.3h0v5.3h-1.6V681.9z"/>
        </g>
        <g>
          <path class="st3" d="M560.3,555.4h1.7l3.3,5.3h0v-5.3h1.6v7.9h-1.7l-3.3-5.3h0v5.3h-1.6V555.4z"/>
          <path class="st3" d="M568.9,555.4h1.7v7.9h-1.7V555.4z"/>
          <path class="st3" d="M572.6,555.4h1.7v3.3l3.1-3.3h2.2l-3.1,3.1l3.4,4.8h-2.2l-2.4-3.5l-1,1v2.5h-1.7V555.4z"/>
          <path class="st3" d="M580.9,555.4h1.7v3.3l3.1-3.3h2.2l-3.1,3.1l3.4,4.8H586l-2.4-3.5l-1,1v2.5h-1.7V555.4z"/>
          <path class="st3" d="M592.8,555.3c2.4,0,3.9,1.8,3.9,4.1c0,2.3-1.4,4.1-3.9,4.1c-2.4,0-3.9-1.8-3.9-4.1     C589,557.1,590.4,555.3,592.8,555.3z M592.8,562c1.6,0,2.1-1.3,2.1-2.6c0-1.4-0.6-2.7-2.1-2.7s-2.1,1.3-2.1,2.7     C590.7,560.7,591.3,562,592.8,562z"/>
        </g>
        <g>
          <path class="st3" d="M480.8,614.7h2.4l1.8,5.4h0l1.7-5.4h2.4v7.9h-1.6v-5.6h0l-1.9,5.6h-1.3l-1.9-5.5h0v5.5h-1.6V614.7z"/>
          <path class="st3" d="M493.3,614.7h1.8l2.9,7.9h-1.8l-0.6-1.7h-2.9l-0.6,1.7h-1.7L493.3,614.7z M493.2,619.5h2l-1-2.9h0     L493.2,619.5z"/>
          <path class="st3" d="M500.9,616.1h-2.4v-1.5h6.4v1.5h-2.4v6.4h-1.7V616.1z"/>
          <path class="st3" d="M507.5,619.9c0,1,0.8,1.5,1.7,1.5c0.6,0,1.5-0.2,1.5-1c0-0.8-1.2-1-2.3-1.3c-1.2-0.3-2.3-0.8-2.3-2.2     c0-1.6,1.5-2.4,2.9-2.4c1.6,0,3.1,0.7,3.1,2.5h-1.7c-0.1-0.9-0.7-1.2-1.6-1.2c-0.6,0-1.2,0.2-1.2,0.9c0,0.6,0.4,0.7,2.3,1.2     c0.6,0.1,2.3,0.5,2.3,2.3c0,1.4-1.1,2.5-3.3,2.5c-1.7,0-3.4-0.9-3.3-2.8H507.5z"/>
          <path class="st3" d="M520.6,619.5c0,2.1-1.3,3.2-3.4,3.2c-2.1,0-3.3-1-3.3-3.2v-4.9h1.7v4.9c0,0.9,0.2,1.7,1.6,1.7     c1.2,0,1.6-0.5,1.6-1.7v-4.9h1.7V619.5z"/>
          <path class="st3" d="M522.5,614.7h2.4l1.8,5.4h0l1.7-5.4h2.4v7.9h-1.6v-5.6h0l-1.9,5.6h-1.3l-1.9-5.5h0v5.5h-1.6V614.7z"/>
          <path class="st3" d="M536.4,614.5c2.4,0,3.9,1.8,3.9,4.1c0,2.3-1.4,4.1-3.9,4.1c-2.4,0-3.9-1.8-3.9-4.1     C532.6,616.3,534,614.5,536.4,614.5z M536.4,621.2c1.6,0,2.1-1.3,2.1-2.6c0-1.4-0.6-2.7-2.1-2.7s-2.1,1.3-2.1,2.7     C534.3,619.9,534.9,621.2,536.4,621.2z"/>
          <path class="st3" d="M543.6,616.1h-2.4v-1.5h6.4v1.5h-2.4v6.4h-1.7V616.1z"/>
          <path class="st3" d="M552.6,614.5c2.4,0,3.9,1.8,3.9,4.1c0,2.3-1.4,4.1-3.9,4.1c-2.4,0-3.9-1.8-3.9-4.1     C548.7,616.3,550.2,614.5,552.6,614.5z M552.6,621.2c1.6,0,2.1-1.3,2.1-2.6c0-1.4-0.6-2.7-2.1-2.7c-1.6,0-2.1,1.3-2.1,2.7     C550.5,619.9,551,621.2,552.6,621.2z"/>
        </g>
        <g>
          <path class="st3" d="M391,642.4h-2.4V641h6.4v1.5h-2.4v6.4H391V642.4z"/>
          <path class="st3" d="M398.6,641h1.8l2.9,7.9h-1.8l-0.6-1.7H398l-0.6,1.7h-1.7L398.6,641z M398.4,645.8h2l-1-2.9h0L398.4,645.8z"/>
          <path class="st3" d="M404.4,641h1.7v3.3l3.1-3.3h2.2l-3.1,3.1l3.4,4.8h-2.2l-2.4-3.5l-1,1v2.5h-1.7V641z"/>
          <path class="st3" d="M414.9,641h1.8l2.9,7.9h-1.8l-0.6-1.7h-2.9l-0.6,1.7h-1.7L414.9,641z M414.8,645.8h2l-1-2.9h0L414.8,645.8z"/>
          <path class="st3" d="M420.6,645.1h3.3v1.3h-3.3V645.1z"/>
          <path class="st3" d="M391.3,657.7l-2.9-4.8h1.9l1.8,3.1l1.8-3.1h1.9l-2.9,4.8v3h-1.7V657.7z"/>
          <path class="st3" d="M399.2,653h1.8l2.9,7.9h-1.8l-0.6-1.7h-2.9l-0.6,1.7h-1.7L399.2,653z M399,657.8h2l-1-2.9h0L399,657.8z"/>
          <path class="st3" d="M405,653h2.4l1.8,5.4h0l1.7-5.4h2.4v7.9h-1.6v-5.6h0l-1.9,5.6h-1.3l-1.9-5.5h0v5.5H405V653z"/>
          <path class="st3" d="M417.6,653h1.8l2.9,7.9h-1.8l-0.6-1.7H417l-0.6,1.7h-1.7L417.6,653z M417.4,657.8h2l-1-2.9h0L417.4,657.8z"/>
        </g>
        <g>
          <path class="st3" d="M443.1,593h-2.4v-1.5h6.4v1.5h-2.4v6.4h-1.7V593z"/>
          <path class="st3" d="M452.1,591.4c2.4,0,3.9,1.8,3.9,4.1c0,2.3-1.4,4.1-3.9,4.1c-2.4,0-3.9-1.8-3.9-4.1     C448.2,593.2,449.6,591.4,452.1,591.4z M452.1,598.1c1.6,0,2.1-1.3,2.1-2.6c0-1.4-0.6-2.7-2.1-2.7s-2.1,1.3-2.1,2.7     C449.9,596.8,450.5,598.1,452.1,598.1z"/>
          <path class="st3" d="M459.6,596.3l-2.9-4.8h1.9l1.8,3.1l1.8-3.1h1.9l-2.9,4.8v3h-1.7V596.3z"/>
          <path class="st3" d="M467,591.5h1.8l2.9,7.9h-1.8l-0.6-1.7h-2.9l-0.6,1.7H464L467,591.5z M466.9,596.4h2l-1-2.9h0L466.9,596.4z"/>
          <path class="st3" d="M472.9,591.5h2.4l1.8,5.4h0l1.7-5.4h2.4v7.9h-1.6v-5.6h0l-1.9,5.6h-1.3l-1.9-5.5h0v5.5h-1.6V591.5z"/>
          <path class="st3" d="M485.4,591.5h1.8l2.9,7.9h-1.8l-0.6-1.7h-2.9l-0.6,1.7h-1.7L485.4,591.5z M485.3,596.4h2l-1-2.9h0     L485.3,596.4z"/>
        </g>
        <g>
          <path class="st3" d="M333.1,692.3h1.7v3.3l3.1-3.3h2.2l-3.1,3.1l3.4,4.8h-2.2l-2.4-3.5l-1,1v2.5h-1.7V692.3z"/>
          <path class="st3" d="M343.5,697.1l-2.9-4.8h1.9l1.8,3.1l1.8-3.1h1.9l-2.9,4.8v3h-1.7V697.1z"/>
          <path class="st3" d="M352.7,692.1c2.4,0,3.9,1.8,3.9,4.1c0,2.3-1.4,4.1-3.9,4.1c-2.4,0-3.9-1.8-3.9-4.1     C348.9,693.9,350.3,692.1,352.7,692.1z M352.7,698.9c1.6,0,2.1-1.3,2.1-2.6c0-1.4-0.6-2.7-2.1-2.7s-2.1,1.3-2.1,2.7     C350.6,697.5,351.2,698.9,352.7,698.9z"/>
          <path class="st3" d="M360,693.7h-2.4v-1.5h6.4v1.5h-2.4v6.4H360V693.7z"/>
          <path class="st3" d="M368.9,692.1c2.4,0,3.9,1.8,3.9,4.1c0,2.3-1.4,4.1-3.9,4.1c-2.4,0-3.9-1.8-3.9-4.1     C365,693.9,366.5,692.1,368.9,692.1z M368.9,698.9c1.6,0,2.1-1.3,2.1-2.6c0-1.4-0.6-2.7-2.1-2.7s-2.1,1.3-2.1,2.7     C366.8,697.5,367.4,698.9,368.9,698.9z"/>
        </g>
        <g>
          <path class="st3" d="M171.3,746.3h1.7v3h3.2v-3h1.7v7.9h-1.7v-3.4H173v3.4h-1.7V746.3z"/>
          <path class="st3" d="M179.9,746.3h1.7v7.9h-1.7V746.3z"/>
          <path class="st3" d="M183.6,746.3h4.2c1.4,0,2.3,1,2.3,2.2c0,0.9-0.4,1.6-1.2,2v0c0.8,0.2,1.1,1,1.1,1.8c0,0.5,0,1.4,0.3,1.9     h-1.7c-0.2-0.5-0.2-1.3-0.3-1.9c-0.1-0.8-0.4-1.2-1.3-1.2h-1.7v3.1h-1.7V746.3z M185.3,749.8h1.9c0.8,0,1.2-0.3,1.2-1.1     c0-0.8-0.4-1.1-1.2-1.1h-1.9V749.8z"/>
          <path class="st3" d="M195.5,746.1c2.4,0,3.9,1.8,3.9,4.1c0,2.3-1.4,4.1-3.9,4.1c-2.4,0-3.9-1.8-3.9-4.1     C191.6,747.9,193.1,746.1,195.5,746.1z M195.5,752.8c1.6,0,2.1-1.3,2.1-2.6c0-1.4-0.6-2.7-2.1-2.7s-2.1,1.3-2.1,2.7     C193.3,751.5,193.9,752.8,195.5,752.8z"/>
          <path class="st3" d="M202.1,751.5c0,1,0.8,1.5,1.7,1.5c0.6,0,1.5-0.2,1.5-1c0-0.8-1.2-1-2.3-1.3c-1.2-0.3-2.3-0.8-2.3-2.2     c0-1.6,1.5-2.4,2.9-2.4c1.6,0,3.1,0.7,3.1,2.5h-1.7c-0.1-0.9-0.7-1.2-1.6-1.2c-0.6,0-1.2,0.2-1.2,0.9c0,0.6,0.4,0.7,2.3,1.2     c0.6,0.1,2.3,0.5,2.3,2.3c0,1.4-1.1,2.5-3.3,2.5c-1.7,0-3.4-0.9-3.3-2.8H202.1z"/>
          <path class="st3" d="M208.5,746.3h1.7v3h3.2v-3h1.7v7.9h-1.7v-3.4h-3.2v3.4h-1.7V746.3z"/>
          <path class="st3" d="M217.1,746.3h1.7v7.9h-1.7V746.3z"/>
          <path class="st3" d="M220.8,746.3h2.4l1.8,5.4h0l1.7-5.4h2.4v7.9h-1.6v-5.6h0l-1.9,5.6h-1.3l-1.9-5.5h0v5.5h-1.6V746.3z"/>
          <path class="st3" d="M233.4,746.3h1.8l2.9,7.9h-1.8l-0.6-1.7h-2.9l-0.6,1.7h-1.7L233.4,746.3z M233.2,751.1h2l-1-2.9h0     L233.2,751.1z"/>
        </g>
        <g>
          <path class="st1" d="M23.9,809.4h5.5v1.5h-3.8v1.8h3.3v1.3h-3.3v3.2h-1.7V809.4z"/>
          <path class="st1" d="M37.5,814.2c0,2.1-1.3,3.2-3.4,3.2c-2.1,0-3.3-1-3.3-3.2v-4.9h1.7v4.9c0,0.9,0.2,1.7,1.6,1.7     c1.2,0,1.6-0.5,1.6-1.7v-4.9h1.7V814.2z"/>
          <path class="st1" d="M39.4,809.4h1.7v3.3l3.1-3.3h2.2l-3.1,3.1l3.4,4.8h-2.2l-2.4-3.5l-1,1v2.5h-1.7V809.4z"/>
          <path class="st1" d="M54.5,814.2c0,2.1-1.3,3.2-3.4,3.2c-2.1,0-3.3-1-3.3-3.2v-4.9h1.7v4.9c0,0.9,0.2,1.7,1.6,1.7     c1.2,0,1.6-0.5,1.6-1.7v-4.9h1.7V814.2z"/>
          <path class="st1" d="M59.9,809.2c2.4,0,3.9,1.8,3.9,4.1c0,2.3-1.4,4.1-3.9,4.1c-2.4,0-3.9-1.8-3.9-4.1     C56,811,57.5,809.2,59.9,809.2z M59.9,816c1.6,0,2.1-1.3,2.1-2.6c0-1.4-0.6-2.7-2.1-2.7s-2.1,1.3-2.1,2.7     C57.8,814.6,58.3,816,59.9,816z"/>
          <path class="st1" d="M65.4,809.4h1.7v3.3l3.1-3.3h2.2l-3.1,3.1l3.4,4.8h-2.2l-2.4-3.5l-1,1v2.5h-1.7V809.4z"/>
          <path class="st1" d="M75.9,809.4h1.8l2.9,7.9h-1.8l-0.6-1.7h-2.9l-0.6,1.7h-1.7L75.9,809.4z M75.7,814.2h2l-1-2.9h0L75.7,814.2z"/>
        </g>
        <g>
          <path class="st1" d="M0.8,881.8h1.7l3.3,5.3h0v-5.3h1.6v7.9H5.7l-3.3-5.3h0v5.3H0.8V881.8z"/>
          <path class="st1" d="M11.5,881.8h1.8l2.9,7.9h-1.8l-0.6-1.7h-2.9l-0.6,1.7H8.5L11.5,881.8z M11.3,886.6h2l-1-2.9h0L11.3,886.6z"/>
          <path class="st1" d="M23,888.8c-0.6,0.8-1.4,1.1-2.2,1.1c-2.4,0-3.9-1.8-3.9-4.1c0-2.3,1.4-4.1,3.9-4.1c1.6,0,3.1,1,3.3,2.8h-1.7     c-0.2-0.9-0.8-1.3-1.7-1.3c-1.6,0-2.1,1.3-2.1,2.7c0,1.3,0.6,2.6,2.1,2.6c1.1,0,1.8-0.6,1.9-1.7H21v-1.3h3.3v4.2h-1.1L23,888.8z"/>
          <path class="st1" d="M28.3,881.8H30l2.9,7.9h-1.8l-0.6-1.7h-2.9l-0.6,1.7h-1.7L28.3,881.8z M28.1,886.6h2l-1-2.9h0L28.1,886.6z"/>
          <path class="st1" d="M35.3,887c0,1,0.8,1.5,1.7,1.5c0.6,0,1.5-0.2,1.5-1c0-0.8-1.2-1-2.3-1.3c-1.2-0.3-2.3-0.8-2.3-2.2     c0-1.6,1.5-2.4,2.9-2.4c1.6,0,3.1,0.7,3.1,2.5h-1.7c-0.1-0.9-0.7-1.2-1.6-1.2c-0.6,0-1.2,0.2-1.2,0.9c0,0.6,0.4,0.7,2.3,1.2     c0.6,0.1,2.3,0.5,2.3,2.3c0,1.4-1.1,2.5-3.3,2.5c-1.7,0-3.4-0.9-3.3-2.8H35.3z"/>
          <path class="st1" d="M43.8,881.8h1.8l2.9,7.9h-1.8l-0.6-1.7h-2.9l-0.6,1.7h-1.7L43.8,881.8z M43.6,886.6h2l-1-2.9h0L43.6,886.6z"/>
          <path class="st1" d="M49.6,881.8h1.7v3.3l3.1-3.3h2.2l-3.1,3.1l3.4,4.8h-2.2l-2.4-3.5l-1,1v2.5h-1.7V881.8z"/>
          <path class="st1" d="M58,881.8h1.7v7.9H58V881.8z"/>
        </g>
        <g>
          <path class="st3" d="M318,719.1c2.4,0,3.9,1.8,3.9,4.1c0,2.3-1.4,4.1-3.9,4.1c-2.4,0-3.9-1.8-3.9-4.1     C314.2,720.9,315.6,719.1,318,719.1z M318,725.9c1.6,0,2.1-1.3,2.1-2.6c0-1.4-0.6-2.7-2.1-2.7s-2.1,1.3-2.1,2.7     C315.9,724.6,316.5,725.9,318,725.9z"/>
          <path class="st3" d="M324.7,724.5c0,1,0.8,1.5,1.7,1.5c0.6,0,1.5-0.2,1.5-1c0-0.8-1.2-1-2.3-1.3c-1.2-0.3-2.3-0.8-2.3-2.2     c0-1.6,1.5-2.4,2.9-2.4c1.6,0,3.1,0.7,3.1,2.5h-1.7c-0.1-0.9-0.7-1.2-1.6-1.2c-0.6,0-1.2,0.2-1.2,0.9c0,0.6,0.4,0.7,2.3,1.2     c0.6,0.1,2.3,0.5,2.3,2.3c0,1.4-1.1,2.5-3.3,2.5c-1.7,0-3.4-0.9-3.3-2.8H324.7z"/>
          <path class="st3" d="M333.2,719.3h1.8l2.9,7.9h-1.8l-0.6-1.7h-2.9l-0.6,1.7h-1.7L333.2,719.3z M333,724.1h2l-1-2.9h0L333,724.1z"/>
          <path class="st3" d="M339,719.3h1.7v3.3l3.1-3.3h2.2l-3.1,3.1l3.4,4.8h-2.2l-2.4-3.5l-1,1v2.5H339V719.3z"/>
          <path class="st3" d="M349.6,719.3h1.8l2.9,7.9h-1.8l-0.6-1.7H349l-0.6,1.7h-1.7L349.6,719.3z M349.4,724.1h2l-1-2.9h0     L349.4,724.1z"/>
        </g>
        <g>
          <path class="st3" d="M355.9,770.2h1.7v3.3l3.1-3.3h2.2l-3.1,3.1l3.4,4.8H361l-2.4-3.5l-1,1v2.5h-1.7V770.2z"/>
          <path class="st3" d="M367.6,770c2.4,0,3.9,1.8,3.9,4.1c0,2.3-1.4,4.1-3.9,4.1c-2.4,0-3.9-1.8-3.9-4.1     C363.7,771.8,365.1,770,367.6,770z M367.6,776.8c1.6,0,2.1-1.3,2.1-2.6c0-1.4-0.6-2.7-2.1-2.7s-2.1,1.3-2.1,2.7     C365.4,775.5,366,776.8,367.6,776.8z"/>
          <path class="st3" d="M374.9,775l-2.9-4.8h1.9l1.8,3.1l1.8-3.1h1.9l-2.9,4.8v3h-1.7V775z"/>
          <path class="st3" d="M382.5,770.2h1.8l2.9,7.9h-1.8l-0.6-1.7h-2.9l-0.6,1.7h-1.7L382.5,770.2z M382.4,775h2l-1-2.9h0L382.4,775z"/>
          <path class="st3" d="M388,774.4h3.3v1.3H388V774.4z"/>
          <path class="st3" d="M357.1,787.4c0,1,0.8,1.5,1.7,1.5c0.6,0,1.5-0.2,1.5-1c0-0.8-1.2-1-2.3-1.3c-1.2-0.3-2.3-0.8-2.3-2.2     c0-1.6,1.5-2.4,2.9-2.4c1.6,0,3.1,0.7,3.1,2.5h-1.7c-0.1-0.9-0.7-1.2-1.6-1.2c-0.6,0-1.2,0.2-1.2,0.9c0,0.6,0.4,0.7,2.3,1.2     c0.6,0.1,2.3,0.5,2.3,2.3c0,1.4-1.1,2.5-3.3,2.5c-1.7,0-3.4-0.9-3.3-2.8H357.1z"/>
          <path class="st3" d="M365.4,782.2h1.8l2.9,7.9h-1.8l-0.6-1.7h-2.9l-0.6,1.7h-1.7L365.4,782.2z M365.2,787h2l-1-2.9h0L365.2,787z"/>
          <path class="st3" d="M371,782.2h1.7l3.3,5.3h0v-5.3h1.6v7.9h-1.7l-3.3-5.3h0v5.3H371V782.2z"/>
        </g>
        <g>
          <path class="st3" d="M381.1,730.5h1.7l3.3,5.3h0v-5.3h1.6v7.9H386l-3.3-5.3h0v5.3h-1.6V730.5z"/>
          <path class="st3" d="M391.8,730.5h1.8l2.9,7.9h-1.8l-0.6-1.7h-2.9l-0.6,1.7h-1.7L391.8,730.5z M391.7,735.3h2l-1-2.9h0     L391.7,735.3z"/>
          <path class="st3" d="M397.7,730.5h4.2c1.4,0,2.3,1,2.3,2.2c0,0.9-0.4,1.6-1.2,2v0c0.8,0.2,1.1,1,1.1,1.8c0,0.5,0,1.4,0.3,1.9     h-1.7c-0.2-0.5-0.2-1.3-0.3-1.9c-0.1-0.8-0.4-1.2-1.3-1.2h-1.7v3.1h-1.7V730.5z M399.4,734.1h1.9c0.8,0,1.2-0.3,1.2-1.1     c0-0.8-0.4-1.1-1.2-1.1h-1.9V734.1z"/>
          <path class="st3" d="M408.2,730.5h1.8l2.9,7.9h-1.8l-0.6-1.7h-2.9l-0.6,1.7h-1.7L408.2,730.5z M408,735.3h2l-1-2.9h0L408,735.3z"/>
        </g>
        <path class="st4" d="M151.5,477.5"/>
        <circle class="st4" cx="567.3" cy="640.9" r="4.3"/>
        <circle class="st4" cx="554.1" cy="571.5" r="4.3"/>
        <circle class="st4" cx="431" cy="597.7" r="4.3"/>
        <circle class="st4" cx="375.3" cy="710.6" r="4.3"/>
        <circle class="st4" cx="356.8" cy="736.3" r="4.3"/>
        <circle class="st4" cx="361.7" cy="760.5" r="4.3"/>
        <circle class="st4" cx="374.6" cy="726.3" r="4.3"/>
        <circle class="st4" cx="520.6" cy="668.7" r="4.3"/>
        <circle class="st4" cx="193.4" cy="763.4" r="4.3"/>
        <circle class="st4" cx="468.1" cy="619.3" r="4.3"/>
        <circle class="st4" cx="423.7" cy="632.1" r="4.3"/>
        <circle class="st4" cx="91.1" cy="824.4" r="4.3"/>
        <circle class="st4" cx="71.7" cy="877.9" r="4.3"/>
      </g>
    </g>
  </svg>
  <svg xmlns:svg="http://www.w3.org/2000/svg" foo="bar" id="routepath" x="0" y="0" width="778" height="983">
    <path class="air" d="M424,435L569,639"/>
    <path class="land" d="M569,639L554,571"/>
    <path class="land" d="M569,639L523,667"/>
    <path class="land" d="M569,639L469,620"/>
    <path class="land" d="M469,620L431,599"/>
    <path class="land" d="M431,599L424,632"/>
    <path class="land" d="M424,632L444,626"/>
    <path class="land" d="M444,626L443,690"/>
    <path class="land" d="M443,690L376,710"/>
    <path class="land" d="M376,710L358,736"/>
    <path class="land" d="M358,736L362,759"/>
  </svg>
</svg>
