<svg version="1.1" xmlns="http://www.w3.org/2000/svg" viewBox="0 0 44.05 66.11">
<style type="text/css">
	.st0{fill:#FFFFFF;}
</style>
<g>
	<path class="st0" d="M41.96,8.69l-9.04,18.12l5.75,11.1c1.34-1.16,2.25-2.81,2.44-4.69l2.51-24.53H41.96z"/>
	<polygon class="st0" points="23.53,8.69 31.78,24.61 39.72,8.69"/>
	<polygon class="st0" points="5.12,8.69 12.89,24.27 20.96,8.69"/>
	<polygon class="st0" points="24.26,39.67 30.67,26.83 22.25,10.56 14,26.49 20.58,39.67"/>
	<path class="st0" d="M31.81,29.03L26.5,39.67h7.46c1.08,0,2.1-0.24,3.02-0.67L31.81,29.03z"/>
	<path class="st0" d="M44.03,4.6C44.28,2.14,42.34,0,39.87,0H4.18C1.7,0-0.24,2.15,0.02,4.62l0.22,2.07h43.57L44.03,4.6z"/>
	<path class="st0" d="M5.73,38.11l6.03-11.64L2.88,8.69H0.45l2.59,24.55C3.25,35.23,4.26,36.95,5.73,38.11z"/>
	<path class="st0" d="M4.72,60.54c-0.31,2.98,2.03,5.57,5.03,5.57h24.54c3,0,5.33-2.59,5.03-5.57l-0.57-5.56H5.29L4.72,60.54z"/>
	<path class="st0" d="M38.03,48.02h-2.78c-0.55,0-1-0.45-1-1s0.45-1,1-1h2.57l-0.51-4.98c-1.04,0.41-2.17,0.63-3.36,0.63H25.5
		l-0.03,0.06l-0.13-0.06H19.5l-0.13,0.06l-0.03-0.06h-9.16c-1.22,0-2.38-0.24-3.45-0.67l-0.52,5.03H8.8c0.55,0,1,0.45,1,1
		s-0.45,1-1,1H6.01L5.5,52.97h33.04L38.03,48.02z M19.35,48.02h-5.2c-0.55,0-1-0.45-1-1s0.45-1,1-1h5.2c0.55,0,1,0.45,1,1
		S19.9,48.02,19.35,48.02z M29.9,48.02H24.7c-0.55,0-1-0.45-1-1s0.45-1,1-1h5.19c0.55,0,1,0.45,1,1S30.45,48.02,29.9,48.02z"/>
	<path class="st0" d="M7.45,39.13c0.84,0.35,1.77,0.54,2.73,0.54h8.16l-5.48-10.99L7.45,39.13z"/>
</g>
</svg>
