<svg xmlns="http://www.w3.org/2000/svg" version="1.1" viewBox="0 0 771.55 816.98">
  <defs>
    <style>
      .cls-1 {
        stroke-dasharray: 0 0 4.89 5.87;
      }

      .cls-1, .cls-2, .cls-3 {
        fill: none;
        stroke: #999;
        stroke-miterlimit: 10;
        stroke-width: 2px;
      }

      .cls-4 {
        fill: #e2e2e3;
      }

      .cls-4, .cls-5, .cls-6, .cls-7 {
        stroke-width: 0px;
      }

      .cls-5 {
        fill: #00a9cb;
      }

      .cls-6 {
        fill: #1d1d1b;
      }

      .cls-7 {
        fill: #000;
      }

      .cls-3 {
        stroke-dasharray: 0 0 0 0 4.89 5.87 4.89 5.87;
      }

      .cls-8 {
        display: none;
      }
    </style>
  </defs>
  <g>
    <path class="cls-4" d="M231.36,47.64c3.52-3.52,3.52,4.11,7.05,0s11.16-1.33,16.45-.96,14.68,3.9,19.38,6.24,11.16,4.11,17.62,0,12.33-6.8,10.57-2.52c-1.76,4.28,0,18.38,7.64,20.73s19.38-.59,28.78,0,12.92,2.35,14.68,4.7,5.29,1.76,9.4,0,12.92,1.92,16.45,1.55-3.92,4.52,10.96,2.95,14.49-.55,19.97.31,32.5,18.88,36.41,18.48,3.52-5.09,2.35-6.66,5.09.39,7.05-1.96,6.26-5.48,6.26-5.48c0,0,19.97,7.44,20.75,5.48.78-1.96-5.09-5.48-2.74-6.26s5.09.78,6.66.39,2.74-3.13,4.7-3.13-6.26,8.22,11.36,8.22,34.85,3.13,45.03,3.92,27.41-1.96,32.11-5.09c4.7-3.13,6.26-7.05,12.92-7.44s7.83-3.92,8.61-6.66c.78-2.74,4.31-4.7,6.26-7.83s-.39-7.05,3.13-7.05,11.75-.78,16.45-2.74c4.7-1.96,10.57-6.66,6.66-6.26s-14.1-1.17-7.05-8.61c7.05-7.44,9.01-3.52,10.57-2.74s7.44,3.2,10.96-1.73c3.52-4.93,4.7-9.24,9.79-8.45s-3.92-3.92,0-8.61c3.92-4.7,8.22-10.18,12.14-13.7s-.39-8.22,4.31-6.26c4.7,1.96,7.83,8.61,11.36,8.22s9.79-5.87,9.01-1.57c-.78,4.31-4.96,10.96.07,12.53,5.02,1.57,6.98,3.92,5.41,7.44s-8.22,3.52-10.18,5.87-6.26,8.22-7.05,12.14c-.78,3.92-4.31,20.36-9.01,26.23s-15.27,13.7-18.01,15.27c-2.74,1.57-2.35,3.13-3.92,5.09-1.57,1.96-4.7,1.96-5.87,2.74s1.96,4.32,0,4.7-7.05,2.73-10.57,7.82-9.4,12.14-8.61,14.88c.78,2.74,1.96,5.48-1.17,5.87s-7.44,3.52-6.26,6.66c1.17,3.13.39,6.26-10.18,8.22s-37.2,8.61-48.55,10.18c-11.36,1.57-21.93,3.13-26.63,5.87-4.7,2.74-7.83,1.96-11.36,0s-6.66.39-9.4-.39-2.35-5.87-5.48-4.31-6.26,5.87-13.7,3.92c-7.44-1.96-9.79-7.83-12.92-9.01-3.13-1.17-7.05-10.57-10.96-12.14s-2.74,1.57-6.66,1.57-15.27.78-19.58-.39-3.92-.78-8.61-.39-7.44-3.92-10.18-3.13-2.35,2.74-8.22,2.74-14.88-3.92-25.06-1.57c-10.18,2.35-9.79,3.92-14.88,4.31s-10.18-3.13-14.49-1.57c-4.31,1.57-21.54,8.22-25.45,8.22s-10.18-13.7-22.32-14.49-10.96,6.66-15.66,7.05-15.27-2.35-22.32,0c-7.05,2.35-7.83,7.83-13.7,8.22s-11.75-3.52-14.49-3.52-3.92,4.7-8.22,4.31-4.7-5.87-9.79-5.87-10.96-.78-13.7-2.74-3.13-3.92-10.57-3.52-12.14,3.52-15.66,5.09-13.31,3.92-18.01,10.18-8.61,12.53-11.36,14.88-8.22,12.92-7.44,17.23c.78,4.31,4.16,10.18-.08,12.14-4.23,1.96-6.58,4.7-6.19,8.61.39,3.92-3.92,9.79-3.52,13.7s3.52,19.97,4.31,25.06-.39,19.97,2.35,23.1c2.74,3.13,9.01,14.49,13.7,19.97s7.05,9.79,9.79,9.79,5.48-4.31,9.79-2.35,3.13,7.05,7.05,8.61,5.87,3.52,9.01,7.83c3.13,4.31,3.52,10.18,1.57,13.31-1.96,3.13,4.7,6.66,5.87,11.36,1.17,4.7-1.96,9.4,3.52,7.44s12.92-7.83,15.66-5.09c2.74,2.74,1.17,4.83,7.83,5.55s9.01-1.11,11.36,0c2.35,1.11,9.79,6.28,12.53.17,2.74-6.11,4.7-16.29,8.61-19.81,3.92-3.52,1.57-3.92,6.26-9.79,4.7-5.87,14.88-8.61,16.84-13.7,1.96-5.09,3.52-14.49,8.61-14.1s6.66-5.48,12.14-5.87,0,9.79,7.05,12.14c7.05,2.35,18.01,1.57,21.54,3.52s11.75-1.96,16.84-1.57,7.83-14.1,16.05-15.66,29.37-8.22,33.67-6.26,10.96-1.96,13.31.78,5.09,5.48,9.79,3.92c4.7-1.57,19.97-3.13,20.75-4.7.78-1.57-11.75-5.48-16.84-6.26s-1.17-3.52,4.7-4.7,16.45-.39,20.75-3.52,16.84-6.26,23.49-5.09,17.23,6.26,19.58,8.22.78,6.66,2.74,7.05,4.31,3.13,1.96,10.18-5.09,20.36-8.61,23.89c-3.52,3.52-7.44,3.13-15.27-2.74-7.83-5.87-5.09-18.4-10.18-17.23-5.09,1.17-1.57,4.31-5.48,6.26s-12.92,3.92-18.79,4.7-10.18,1.57-11.36,7.44c-1.17,5.87-7.05,10.18-9.79,12.92-2.74,2.74-8.61,5.48-8.61,9.79s-3.13,9.4-7.83,12.92-11.75,9.79-14.1,12.14-1.57,5.48-5.09,7.44-16.05,10.96-21.93,11.75-11.75-2.35-15.27,0-1.17,5.48-7.05,7.05c-5.87,1.57-10.57-2.74-11.36,0-.78,2.74-5.09-.39-6.26,5.48-1.17,5.87-5.87,20.75-12.92,23.1s-8.22-1.17-15.66-4.31c-7.44-3.13-5.09-6.66-7.44-9.79s-4.7.39-7.05-.39-6.66-2.35-9.01.78c-2.35,3.13-3.13,7.83.39,6.26s5.87,0,4.31,1.96c-1.57,1.96-6.26,10.96-2.35,10.96s3.52-10.96,6.66-8.22,13.31,9.79,14.88,13.7,1.57,14.1,5.87,15.27,16.05,2.35,19.58,8.22c3.52,5.87,16.84,22.32,20.36,30.54,3.52,8.22,3.92,18.79,8.22,23.89s9.01,4.31,12.14,8.61c3.13,4.31-3.13,2.35,7.05,5.87s7.44,10.18,5.09,12.53c-2.35,2.35-5.09,4.7.39,7.05,5.48,2.35,13.7,7.44,16.45,9.79,2.74,2.35-2.74,6.26-1.96,10.18.78,3.92,1.17,8.22-3.13,5.09s-11.75-2.35-12.14,3.13c-.39,5.48-1.17,10.57-2.35,13.31-1.17,2.74,2.74,1.17,1.57,7.05s-5.48,7.05-7.83,9.01,1.17,9.01,3.92,9.79,13.7,3.52,19.19,8.61c5.48,5.09,3.13,11.75,5.48,14.49s15.27,1.17,17.62,2.35,8.22.52.78,4.76c-7.44,4.24-17.62,4.24-12.53,5.81,5.09,1.57,13.31-2.35,13.31,3.92s1.68,16.45,4.17,13.7c2.49-2.74,1.32.53,6.41.46s12.53.32,9.79-3.59c-2.74-3.92-7.05-9.79-3.13-9.01s12.14,6.66,10.57,15.66c-1.57,9.01,1.57,19.58-1.96,22.71-3.52,3.13-3.13,8.61-10.57,3.13-7.44-5.48-12.14-9.79-12.92-7.44-.78,2.35,7.83,6.63,7.83,9.77s1.57,7.45-3.92,6.67-6.66-10.18-12.92-9.4-3.52,3.13-13.7,3.52-18.79,4.31-23.1,4.31-5.09-2.35-12.53,4.31c-7.44,6.66-12.53,19.58-9.4,25.45,3.13,5.87,8.22,2.74,2.35,9.79-5.87,7.05-12.92,5.48-22.32,2.74-9.4-2.74-15.66-3.52-24.67-8.22s-21.14-3.13-15.66-25.45c5.48-22.32,1.96-34.07,4.7-35.63,2.74-1.57,7.05-.78,8.22-5.48,1.17-4.7,4.7-15.27-1.96-16.45s-15.27-4.31-21.54-5.48c-6.26-1.17-1.17-6.26-6.26-8.61-5.09-2.35-6.26.39-7.44,1.17s.78-11.36-3.13-11.36-7.05,3.13-9.01-1.57c-1.96-4.7-25.45-22.32-26.23-28.19-.78-5.87-4.31-14.88,1.96-19.19,6.26-4.31,3.92-10.18,8.22-11.36,4.31-1.17,7.05-8.22,8.61-16.84,1.57-8.61,4.11-18.6,3.33-21.34-.78-2.74-.39-8.03-3.13-8.22s-8.22,2.15-8.42-.78-3.72-2.74,1.96-5.09,11.36-6.26,10.18-8.22c-1.17-1.96-3.52-10.38-6.26-9.01s-5.48,2.74-8.03,1.96-7.24-2.15-14.1-3.13-14.88,1.37-15.47,3.92-7.05,2.94-9.2,4.11-11.16,12.92-16.45,15.66c-5.29,2.74-20.17,12.33-24.47,13.9s4.11,6.26,4.5,10.18-2.55,8.81-.2,9.79,11.36,2.74,13.31,8.03c1.96,5.29,2.55,10.77,2.55,17.62s-2.35,16.25-.98,20.56c1.37,4.31,3.13,8.22,2.94,15.07s.39,5.48-2.94,9.98c-3.33,4.5-6.26,9.13-5.68,15.14.59,6.01-.2,7.57.59,14.03.78,6.46-.59,20.56-.2,22.71s2.74,2.15,2.35,6.26-3.92,8.81-2.94,12.73c.98,3.92,3.72,13.12,4.31,16.64.59,3.52,6.07,6.07,5.09,8.61-.98,2.55-6.26,2.15-6.46,6.85s2.15,7.64,1.76,9.4-2.94,2.74-5.48,3.72-6.07,2.94-6.26,6.07-2.55,23.49-1.17,28.98,1.37,4.11,3.52,9.4,8.03,9.2,9.59,17.23c1.57,8.03,4.89,9.59,4.89,13.9s3.33,11.16.39,10.18c-2.94-.98-1.57,3.72-7.24-3.72-5.68-7.44-9.2-8.03-10.96-6.85s-8.22,3.72-13.9,4.89c-5.68,1.17-27.41-2.74-28.19-.59s-1.17,10.77-14.29,13.12c-13.12,2.35-24.28-1.57-23.69-5.29s-.78-6.85-4.11-7.64.39,4.31-2.74,4.5l-3.13.2s-8.81-8.42-5.48-9.2-3.33-8.22-4.7-12.33c-1.37-4.11-.2-15.86,1.57-22.12,1.76-6.26,9.59-12.53,11.16-19.97,1.57-7.44,1.96-7.64,3.13-9.79,1.17-2.15-4.89-21.14-3.33-22.71,1.57-1.57.98,1.96,4.31-3.33,3.33-5.29,6.85-12.92,9.59-23.1,2.74-10.18,3.52-21.54,3.33-22.71s-4.7-1.57-2.74-4.5c1.96-2.94,4.11,2.74,3.72-8.42-.39-11.16.2-16.45.2-18.99s-1.76-3.72-2.35-1.17c-.59,2.55-2.55,5.87-2.55,2.35s1.96-9.47-1.37-9.33-2.94-7.11-5.48-10.44-8.03-16.84-5.48-19.58,8.81-9.98,5.68-13.51-9.01-10.77-14.68-11.75-12.92,3.72-15.27,5.29-6.46-1.17-8.03-.78-.59,1.37-4.89,2.35-9.01,0-10.57,3.13c-1.57,3.13-1.17,4.11-4.89,4.11s-4.5,2.55-5.48,1.76-6.07-21.93-7.24-28.58c-1.17-6.66-.39-15.07-3.13-19.19-2.74-4.11-6.46-6.26-3.13-7.05s4.31-.2,5.87-4.7,3.13-11.94,4.31-14.29,1.76-7.24-5.48-6.85-6.35-5.87-6.01-10.38,1.51-13.12,4.64-13.9,12.33,2.35,15.86,0c3.52-2.35,5.68-10.57,9.79-12.33s10.18-8.22,9.98-13.12.78-18.6,2.15-22.12c1.37-3.52,7.44-12.14,7.05-15.86s2.15-6.26,5.87-8.42,9.98-6.66,10.57-10.77c.59-4.11-8.42-17.82-6.46-23.69,1.96-5.87,5.29-9.79,3.92-13.31-1.37-3.52-7.05-8.22-4.11-12.73,2.94-4.5,5.09-10.18,3.33-14.29s-4.31-6.26-1.76-8.61,15.86-10.57,16.45-12.73,7.83-12.73,8.22-16.84.2-9.4,7.44-13.31c7.24-3.92,9.98-6.66,9.79-9.4s-1.17-5.29,2.15-4.5,10.57,2.35,10.96,5.48,5.48,14.29,6.07,15.07,2.94-3.72,2.55-7.64l-.39-3.92s-14.68-30.93-12.33-40.53,6.07-20.75,7.05-23.89c.98-3.13.98-7.64-4.89-5.29-5.87,2.35-10.57.59-13.12-6.46-2.55-7.05-5.29-8.61-1.96-8.61s7.24-4.31,8.81-1.17c1.57,3.13,8.22,12.73,11.16,11.55,2.94-1.17,6.26-7.64,6.07-10.38-.2-2.74,3.33-10.38,1.37-12.14s-6.85-6.26-8.61-7.44-1.57-6.85,4.7-6.07,7.05.2,4.89-6.46-2.35-9.2-.59-11.16c1.76-1.96,0-7.24,3.92-8.61,3.92-1.37,12.53-2.94,13.12-5.29.59-2.35-1.37-12.73-.78-16.45s2.35-6.85,12.33-9.01,11.75-5.68,11.94-10.96,0-15.47,7.64-14.88,3.92,5.68,3.52,9.59-1.76,7.44,1.57,7.24,2.94,4.31,3.13,5.29,12.33,0,13.9-.2.2,5.09,4.11,5.09,2.15-2.15,4.89-10.96c2.74-8.81,2.15-12.33,8.03-13.12s10.77-3.13,11.36-7.44c.59-4.31-.39-5.48-1.37-6.85-.98-1.37-1.37-6.85,1.57-8.42,2.94-1.57,1.57-1.57,1.17-7.05s-.39-7.64-.39-7.64Z"/>
    <path class="cls-4" d="M704.9,26c-.69,2.71-1.5,7.6-4.05,8.6-2.55,1-9.16,5.55-4.46,4.52s8.08-2.55,9.98-6.49,1.91-6.58,1.62-8.78c-.29-2.2-2.17-1.45-3.08,2.15Z"/>
    <path class="cls-4" d="M317.99,245.28c-1.55,1.73-3.23,8.52.73,7.05,3.96-1.47,5.73-6.75,9.1-7.05s4.7,3.23,6.31,2.79,1.62-4.26,3.08-4.55,3.08,5.51,5.14,4.51c2.06-.99,5.43-4.51,3.82-6.42-1.62-1.91-8.22-10.57-10.57-9.25-2.35,1.32-.29,3.67-1.91,4.99-1.62,1.32-2.94-.29-4.26-.73s-1.91,1.17-1.76,2.5c.15,1.32-2.5,1.17-3.96,1.47s-4.41,3.23-5.73,4.7Z"/>
    <path class="cls-4" d="M340.67,227.78c0-1.06,1.27-1.62,2.04-.89s1.38,1.46,2.3,1.21c1.62-.44-.62-3.67,1.6-3.52s4.49,4.41,6.51,4.55,3.34-.88,4.67,0,2.2,2.79,1.17,4.11c-1.03,1.32-2.06,2.5-3.82,2.5s-3.96-.73-5.87,0-4.85.73-6.17-1.03-2.64-1.89-2.5-4.32c.06-.94.07-1.85.06-2.61Z"/>
    <path class="cls-4" d="M364.69,221.2c-2.06.29-3.96,3.52-3.67,5.43.29,1.91-.03,12.48,1.82,11.89s-.65-1.72,1.85-2.33,6.61-1.03,5.87-3.98c-.73-2.95-1.32-3.83-3.38-4.42s-1.62.14-2.06-3.24l-.44-3.37Z"/>
    <path class="cls-4" d="M360.99,216.65c-1.59.29-1.35,2.06,0,2.06s2.38-.15,2.38-1.03-2.38-1.03-2.38-1.03Z"/>
    <path class="cls-4" d="M372.76,213.71c-1.76,1.17-.15-.29-1.76,1.17-1.62,1.47-1.32,4.26,0,3.82s1.91,1.03,2.94,2.5,3.67,1.47,4.85.73.59-3.67-1.32-4.26-3.14-.73-2.82-2.35c.32-1.62-1.88-1.62-1.88-1.62Z"/>
    <path class="cls-4" d="M377.9,212.83c1.32-.15,3.23.15,4.11.88s1.76,4.26,0,3.96-1.29-1.63-2.63-2.43-1.49-2.41-1.49-2.41Z"/>
    <path class="cls-4" d="M388.18,215.92c2.06.29,4.26,1.76,5.58,5.29s1.91,10.13.88,10.28-2.79-8.43-4.7-9.06-3.82-1.8-3.82-3.71,2.06-2.79,2.06-2.79Z"/>
    <path class="cls-4" d="M310.95,204.46c-3.82,2.5-4.11,4.26-2.64,5.87s6.11,2.79,7.97,1.76,2.45-4.55,2.16-6.75-3.67-3.38-7.49-.88Z"/>
  </g>
  <g>
    <polyline class="cls-2" points="75.76 755.44 101.15 702.95 116.49 505.23 203.02 378.37 224.44 340.37 249.37 347.31 261.03 347.31 300.52 289.29"/>
    <g>
      <line class="cls-2" x1="300.52" y1="289.29" x2="302.01" y2="287.28"/>
      <line class="cls-1" x1="305.52" y1="282.57" x2="310.19" y2="276.3"/>
      <polyline class="cls-3" points="311.94 273.94 356.79 213.71 470.3 136.62"/>
      <line class="cls-2" x1="472.73" y1="134.97" x2="474.8" y2="133.56"/>
    </g>
    <polyline class="cls-2" points="710.25 30.95 697.07 26 664.26 30.3 474.8 133.56"/>
  </g>
  <g>
    <circle class="cls-6" cx="474.8" cy="133.56" r="4.3"/>
    <circle class="cls-6" cx="357.42" cy="212.48" r="4.3"/>
    <circle class="cls-6" cx="664.26" cy="30.3" r="4.3"/>
    <circle class="cls-6" cx="697.07" cy="25.14" r="4.3"/>
    <circle class="cls-6" cx="710.25" cy="30.95" r="4.3"/>
    <circle class="cls-6" cx="224.44" cy="340.37" r="4.3"/>
    <circle class="cls-6" cx="203.02" cy="378.37" r="4.3"/>
    <circle class="cls-6" cx="116.49" cy="505.23" r="4.3"/>
    <circle class="cls-6" cx="75.76" cy="755.44" r="4.3"/>
    <circle class="cls-6" cx="101.15" cy="702.95" r="4.3"/>
    <circle class="cls-6" cx="300.52" cy="289.29" r="4.3"/>
    <g>
      <path class="cls-7" d="M48.02,493.96v5.17h-2.24v-12h4.24c1.94,0,3.41.67,3.41,2.88,0,1.31-.34,2.69-1.84,2.9v.03c1.33.18,1.73,1.02,1.73,2.18,0,.5-.06,3.44.48,3.79v.22h-2.46c-.27-.77-.22-2.24-.24-3.04-.02-.74,0-1.75-.77-1.97-.61-.18-1.26-.16-1.9-.16h-.4ZM48.02,492.2h1.76c.74-.05,1.31-.53,1.31-1.73,0-1.34-.56-1.57-1.41-1.58h-1.67v3.31Z"/>
      <path class="cls-7" d="M60.22,499.13c-.14-.29-.16-.61-.13-.93h-.03c-.24.37-.51.67-.83.86-.3.19-.64.3-.99.3-1.68,0-2.42-.85-2.42-2.71,0-2.07,1.46-2.56,3.09-3.23.88-.37,1.2-.77,1.02-1.5-.1-.4-.42-.46-.98-.46-.94,0-1.1.5-1.09,1.31h-1.98c-.02-1.71.54-2.91,3.15-2.91,2.83,0,3.01,1.49,2.98,2.67v5.33c0,.43.06.85.18,1.26h-1.97ZM59.93,494.37c-.51.35-1.14.7-1.68,1.15-.3.26-.35.7-.35,1.09,0,.69.21,1.15.98,1.15,1.23,0,1.01-1.55,1.06-2.42v-.98Z"/>
      <path class="cls-7" d="M66.84,491.03h.03c.46-1.04,1.39-1.17,1.87-1.17,1.18,0,2.14.69,2.08,2.3v6.96h-2.08v-6.02c0-.88-.1-1.46-.88-1.49s-1.06.7-1.02,1.66v5.84h-2.08v-9.03h2.08v.93Z"/>
      <path class="cls-7" d="M76.46,499.16c-1.23.14-2.96.26-2.96-1.42v-6.11h-.85v-1.52h.83v-2.48h2.1v2.48h.88v1.52h-.88v5.6c.05.38.62.34.88.3v1.63Z"/>
      <path class="cls-7" d="M78.36,493.21c-.1-2.13.99-3.34,3.04-3.34,2.9,0,3.2,1.5,3.2,3.97v1.22h-4.16v1.31c.02,1.18.46,1.41,1.09,1.41.77,0,.99-.56.96-1.7h2.08c.08,2.02-.75,3.3-2.88,3.3-2.4,0-3.38-1.14-3.33-3.79v-2.37ZM82.52,493.45v-.78c-.02-.91-.26-1.2-1.09-1.2-1.04,0-.99.8-.99,1.62v.37h2.08Z"/>
      <path class="cls-7" d="M89.16,491.04h.03c.38-.88.94-1.2,1.81-1.18,1.34.03,2.11.75,2.16,3.23v3.26c-.05,1.44-.4,3.01-2.16,3.01-.82-.05-1.39-.26-1.9-1.17h-.03v3.95h-1.99v-12.05h2.08v.94ZM89.16,496.17c0,1.04.34,1.6,1.01,1.6s.86-.69.91-1.55v-3.01c-.06-.9.03-1.74-.94-1.74s-1.01,1.28-.98,2v2.71Z"/>
      <path class="cls-7" d="M99.86,499.13c-.14-.29-.16-.61-.13-.93h-.03c-.24.37-.51.67-.83.86-.3.19-.64.3-.99.3-1.68,0-2.42-.85-2.42-2.71,0-2.07,1.46-2.56,3.09-3.23.88-.37,1.2-.77,1.02-1.5-.1-.4-.42-.46-.98-.46-.94,0-1.1.5-1.09,1.31h-1.99c-.02-1.71.54-2.91,3.15-2.91,2.83,0,3.01,1.49,2.98,2.67v5.33c0,.43.06.85.18,1.26h-1.97ZM99.58,494.37c-.51.35-1.14.7-1.68,1.15-.3.26-.35.7-.35,1.09,0,.69.21,1.15.98,1.15,1.23,0,1.01-1.55,1.06-2.42v-.98Z"/>
      <path class="cls-7" d="M104.28,494.93c.02-3.09.05-5.07,3.19-5.07s3.11,1.98,3.12,5.07c.02,3.14-.43,4.48-3.12,4.43-2.74.05-3.2-1.3-3.19-4.43ZM106.36,496.18c0,1.1.1,1.58,1.1,1.58s1.04-.48,1.04-1.58v-3.01c0-.85,0-1.71-1.04-1.71-1.1,0-1.1.86-1.1,1.71v3.01Z"/>
    </g>
    <g>
      <path class="cls-7" d="M136.62,366.36h7.47v1.76h-2.61v10.24h-2.24v-10.24h-2.62v-1.76Z"/>
      <path class="cls-7" d="M145.84,372.44c-.1-2.13.99-3.34,3.04-3.34,2.9,0,3.2,1.5,3.2,3.97v1.22h-4.16v1.31c.02,1.18.46,1.41,1.09,1.41.77,0,.99-.56.96-1.7h2.08c.08,2.02-.75,3.3-2.88,3.3-2.4,0-3.38-1.14-3.33-3.79v-2.37ZM150,372.68v-.78c-.02-.91-.26-1.2-1.09-1.2-1.04,0-.99.8-.99,1.62v.37h2.08Z"/>
      <path class="cls-7" d="M156.68,370.27h.03c.46-1.04,1.39-1.17,1.87-1.17,1.18,0,2.15.69,2.08,2.3v6.96h-2.08v-6.02c0-.88-.1-1.46-.88-1.49-.79-.03-1.06.7-1.03,1.66v5.84h-2.08v-9.03h2.08v.93Z"/>
      <path class="cls-7" d="M166.3,378.4c-1.23.14-2.96.26-2.96-1.42v-6.11h-.85v-1.52h.83v-2.48h2.1v2.48h.88v1.52h-.88v5.6c.05.38.62.34.88.3v1.63Z"/>
      <path class="cls-7" d="M168.2,372.44c-.1-2.13.99-3.34,3.04-3.34,2.9,0,3.2,1.5,3.2,3.97v1.22h-4.16v1.31c.02,1.18.46,1.41,1.09,1.41.77,0,.99-.56.96-1.7h2.08c.08,2.02-.75,3.3-2.88,3.3-2.4,0-3.38-1.14-3.33-3.79v-2.37ZM172.37,372.68v-.78c-.02-.91-.26-1.2-1.09-1.2-1.04,0-.99.8-.99,1.62v.37h2.08Z"/>
      <path class="cls-7" d="M179.05,370.27h.03c.46-1.04,1.39-1.17,1.87-1.17,1.18,0,2.14.69,2.08,2.3v6.96h-2.08v-6.02c0-.88-.1-1.46-.88-1.49-.78-.03-1.06.7-1.02,1.66v5.84h-2.08v-9.03h2.08v.93Z"/>
      <path class="cls-7" d="M189.71,378.37c-.14-.29-.16-.61-.13-.93h-.03c-.24.37-.51.67-.83.86-.3.19-.64.3-.99.3-1.68,0-2.42-.85-2.42-2.71,0-2.07,1.46-2.56,3.09-3.23.88-.37,1.2-.77,1.03-1.5-.1-.4-.42-.46-.98-.46-.95,0-1.11.5-1.09,1.31h-1.99c-.02-1.71.54-2.91,3.15-2.91,2.83,0,3.01,1.49,2.98,2.67v5.33c0,.43.06.85.18,1.26h-1.97ZM189.42,373.61c-.51.35-1.14.7-1.68,1.15-.3.26-.35.7-.35,1.09,0,.69.21,1.15.98,1.15,1.23,0,1.01-1.55,1.06-2.42v-.98Z"/>
    </g>
    <g>
      <path class="cls-7" d="M229.05,359.31v-12.01h4.58c2.14,0,2.8,1.73,2.8,3.41,0,1.02-.27,2.18-1.12,2.85-.7.56-1.65.74-2.51.72h-1.5v5.03h-2.24ZM231.29,352.52h1.2c.98,0,1.63-.42,1.63-1.87,0-1.38-.54-1.58-1.81-1.58h-1.02v3.46Z"/>
      <path class="cls-7" d="M238.34,355.11c.02-3.09.05-5.07,3.19-5.07s3.11,1.98,3.12,5.07c.02,3.14-.43,4.48-3.12,4.43-2.74.05-3.2-1.3-3.19-4.43ZM240.42,356.36c0,1.1.1,1.58,1.1,1.58s1.04-.48,1.04-1.58v-3.01c0-.85,0-1.71-1.04-1.71-1.1,0-1.1.87-1.1,1.71v3.01Z"/>
      <path class="cls-7" d="M248.68,356.33c-.16,1.67.48,1.62.96,1.62.59,0,1.01-.43.86-1.01-.03-.51-.62-.8-1.02-1.07l-1.14-.79c-1.04-.72-1.71-1.55-1.71-2.85,0-1.39,1.1-2.19,3.11-2.19s2.95,1.06,2.9,2.99h-2.08c.05-1.01-.24-1.39-.96-1.39-.5,0-.88.22-.88.74s.38.77.78,1.04l1.7,1.15c.53.3,1.36,1.17,1.42,1.78.18,1.57-.21,3.2-3.09,3.2-1.1,0-3.17-.46-2.93-3.22h2.08Z"/>
      <path class="cls-7" d="M254.73,355.11c.02-3.09.05-5.07,3.19-5.07s3.11,1.98,3.12,5.07c.02,3.14-.43,4.48-3.12,4.43-2.74.05-3.2-1.3-3.19-4.43ZM256.81,356.36c0,1.1.1,1.58,1.1,1.58s1.04-.48,1.04-1.58v-3.01c0-.85,0-1.71-1.04-1.71-1.1,0-1.1.87-1.1,1.71v3.01Z"/>
    </g>
    <g>
      <path class="cls-7" d="M238.93,282.27l2.87-12h3.03l2.72,12h-2.4l-.59-3.04h-2.62l-.59,3.04h-2.4ZM242.27,277.47h1.92l-.61-3.41c-.11-.56-.16-1.1-.22-1.67-.02-.27-.05-.54-.08-.8h-.03c-.03.26-.06.53-.08.8-.06.56-.11,1.1-.22,1.67l-.67,3.41Z"/>
      <path class="cls-7" d="M251.46,274.17h.03c.46-.99,1.31-1.14,1.99-1.17.77-.02,1.79.32,1.92,1.17h.03c.4-.78,1.06-1.17,2.08-1.17,1.54,0,2.21.96,2.21,1.92v7.35h-2.08v-6.1c0-.82-.08-1.62-.99-1.57-.9.05-1.06.67-1.06,1.73v5.94h-2.08v-6.21c0-.8-.06-1.47-1.02-1.46-.98.02-1.02.74-1.02,1.73v5.94h-2.08v-9.03h2.08v.93Z"/>
      <path class="cls-7" d="M264.42,274.19h.03c.38-.88.94-1.2,1.81-1.18,1.34.03,2.11.75,2.16,3.23v3.26c-.05,1.44-.4,3.01-2.16,3.01-.82-.05-1.39-.26-1.9-1.17h-.03v3.95h-1.99v-12.05h2.08v.94ZM264.42,279.31c0,1.04.34,1.6,1.01,1.6s.86-.69.91-1.55v-3.01c-.06-.9.03-1.74-.94-1.74s-1.01,1.28-.98,2v2.71Z"/>
      <path class="cls-7" d="M275.12,282.27c-.14-.29-.16-.61-.13-.93h-.03c-.24.37-.51.67-.83.86-.3.19-.64.3-.99.3-1.68,0-2.42-.85-2.42-2.71,0-2.07,1.46-2.56,3.09-3.23.88-.37,1.2-.77,1.02-1.5-.1-.4-.42-.46-.98-.46-.94,0-1.1.5-1.09,1.31h-1.99c-.02-1.71.54-2.91,3.15-2.91,2.83,0,3.01,1.49,2.98,2.67v5.33c0,.43.06.85.18,1.26h-1.97ZM274.83,277.52c-.51.35-1.14.7-1.68,1.15-.3.26-.35.7-.35,1.09,0,.69.21,1.15.98,1.15,1.23,0,1.01-1.55,1.06-2.42v-.98Z"/>
      <path class="cls-7" d="M281.74,274.17h.03c.46-1.04,1.39-1.17,1.87-1.17,1.18,0,2.15.69,2.08,2.3v6.96h-2.08v-6.02c0-.88-.1-1.46-.88-1.49s-1.06.7-1.02,1.66v5.84h-2.08v-9.03h2.08v.93Z"/>
      <path class="cls-7" d="M292.4,282.27c-.14-.29-.16-.61-.13-.93h-.03c-.24.37-.51.67-.83.86-.3.19-.64.3-.99.3-1.68,0-2.42-.85-2.42-2.71,0-2.07,1.46-2.56,3.09-3.23.88-.37,1.2-.77,1.02-1.5-.1-.4-.42-.46-.98-.46-.94,0-1.1.5-1.09,1.31h-1.98c-.02-1.71.54-2.91,3.15-2.91,2.83,0,3.01,1.49,2.98,2.67v5.33c0,.43.06.85.18,1.26h-1.97ZM292.11,277.52c-.51.35-1.14.7-1.68,1.15-.3.26-.35.7-.35,1.09,0,.69.21,1.15.98,1.15,1.23,0,1.01-1.55,1.06-2.42v-.98Z"/>
    </g>
    <g>
      <path class="cls-7" d="M400.86,212.57h7.48v1.76h-2.61v10.24h-2.24v-10.24h-2.62v-1.76Z"/>
      <path class="cls-7" d="M410.08,220.38c.02-3.09.05-5.07,3.19-5.07s3.1,1.98,3.12,5.07c.02,3.14-.43,4.48-3.12,4.43-2.74.05-3.2-1.3-3.19-4.43ZM412.16,221.63c0,1.1.1,1.58,1.1,1.58s1.04-.48,1.04-1.58v-3.01c0-.85,0-1.71-1.04-1.71-1.1,0-1.1.86-1.1,1.71v3.01Z"/>
      <path class="cls-7" d="M420.89,225.58c0,.19.1.32.24.4.16.1.38.13.64.13.88,0,1.04-.7,1.04-1.41v-1.04l-.03-.03c-.42.86-1.01,1.14-1.9,1.18-1.76,0-2.11-1.58-2.16-3.03v-3.27c.05-2.48.82-3.18,2.16-3.22.94-.02,1.52.35,1.81,1.17h.03v-.93h2.08v8.75c0,1.84-.51,3.31-3.36,3.31-1.38,0-2.51-.51-2.62-2.03h2.08ZM421.74,216.91c-.98,0-.88.85-.94,1.74v3.01c.05.86.27,1.55.91,1.55s1.01-.56,1.01-1.6v-2.71c.03-.72,0-2-.98-2Z"/>
      <path class="cls-7" d="M427.69,214.46v-1.89h2.08v1.89h-2.08ZM427.69,224.57v-9.03h2.08v9.03h-2.08Z"/>
      <path class="cls-7" d="M436.67,224.57c-.14-.29-.16-.61-.13-.93h-.03c-.24.37-.51.67-.83.86-.3.19-.64.3-.99.3-1.68,0-2.42-.85-2.42-2.71,0-2.07,1.46-2.56,3.09-3.23.88-.37,1.2-.77,1.02-1.5-.1-.4-.42-.46-.98-.46-.94,0-1.1.5-1.09,1.31h-1.98c-.02-1.71.54-2.91,3.15-2.91,2.83,0,3.01,1.49,2.98,2.67v5.33c0,.43.06.85.18,1.26h-1.97ZM436.38,219.82c-.51.35-1.14.7-1.68,1.15-.3.26-.35.7-.35,1.09,0,.69.21,1.15.98,1.15,1.23,0,1.01-1.55,1.06-2.42v-.98Z"/>
      <path class="cls-7" d="M443.29,216.47h.03c.46-1.04,1.39-1.17,1.87-1.17,1.18,0,2.15.69,2.08,2.3v6.96h-2.08v-6.02c0-.88-.1-1.46-.88-1.49s-1.06.7-1.02,1.66v5.84h-2.08v-9.03h2.08v.93Z"/>
      <path class="cls-7" d="M454.62,224.57v-12h2.24v12h-2.24Z"/>
      <path class="cls-7" d="M461.15,221.6c-.16,1.67.48,1.62.96,1.62.59,0,1.01-.43.86-1.01-.03-.51-.62-.8-1.02-1.07l-1.14-.78c-1.04-.72-1.71-1.55-1.71-2.85,0-1.39,1.1-2.19,3.11-2.19s2.95,1.06,2.9,2.99h-2.08c.05-1.01-.24-1.39-.96-1.39-.5,0-.88.22-.88.74s.38.77.78,1.04l1.7,1.15c.53.3,1.36,1.17,1.42,1.78.18,1.57-.21,3.2-3.09,3.2-1.1,0-3.17-.46-2.93-3.22h2.08Z"/>
      <path class="cls-7" d="M467.53,224.57v-12h2.08v12h-2.08Z"/>
      <path class="cls-7" d="M476.51,224.57c-.14-.29-.16-.61-.13-.93h-.03c-.24.37-.51.67-.83.86-.3.19-.64.3-.99.3-1.68,0-2.42-.85-2.42-2.71,0-2.07,1.46-2.56,3.09-3.23.88-.37,1.2-.77,1.02-1.5-.1-.4-.42-.46-.98-.46-.94,0-1.1.5-1.09,1.31h-1.98c-.02-1.71.54-2.91,3.15-2.91,2.83,0,3.01,1.49,2.98,2.67v5.33c0,.43.06.85.18,1.26h-1.97ZM476.22,219.82c-.51.35-1.14.7-1.68,1.15-.3.26-.35.7-.35,1.09,0,.69.21,1.15.98,1.15,1.23,0,1.01-1.55,1.06-2.42v-.98Z"/>
      <path class="cls-7" d="M483.13,216.47h.03c.46-1.04,1.39-1.17,1.87-1.17,1.18,0,2.15.69,2.08,2.3v6.96h-2.08v-6.02c0-.88-.1-1.46-.88-1.49s-1.06.7-1.02,1.66v5.84h-2.08v-9.03h2.08v.93Z"/>
      <path class="cls-7" d="M493.57,223.61h-.03c-.4.91-.98,1.15-1.79,1.2-1.76,0-2.13-1.6-2.18-3.04v-3.27c.05-2.48.83-3.17,2.18-3.2.88-.02,1.44.29,1.86,1.15h.03c-.05-.27-.06-.53-.06-.8v-3.09h2.08v12h-2.08v-.96ZM493.57,218.91c.03-.72,0-2-.98-2s-.88.85-.94,1.74v3.01c.05.86.27,1.55.91,1.55s1.01-.56,1.01-1.6v-2.71Z"/>
      <path class="cls-7" d="M499.9,221.6c-.16,1.67.48,1.62.96,1.62.59,0,1.01-.43.86-1.01-.03-.51-.62-.8-1.02-1.07l-1.14-.78c-1.04-.72-1.71-1.55-1.71-2.85,0-1.39,1.1-2.19,3.11-2.19s2.95,1.06,2.9,2.99h-2.08c.05-1.01-.24-1.39-.96-1.39-.5,0-.88.22-.88.74s.38.77.78,1.04l1.7,1.15c.53.3,1.36,1.17,1.42,1.78.18,1.57-.21,3.2-3.09,3.2-1.1,0-3.17-.46-2.93-3.22h2.08Z"/>
    </g>
    <g>
      <path class="cls-7" d="M408.76,118.9c.1-3.06.34-5.33,3.92-5.33,1.92.02,3.25.51,3.76,2.59.11.48.1.98.11,1.46h-2.24c-.03-1.22-.11-2.18-1.63-2.24-1.76,0-1.62,2.1-1.62,3.03v3.33c0,.99.08,2.61,1.62,2.61,1.28,0,1.7-1.36,1.65-3.17h-1.55v-1.76h3.73v6.45h-1.68v-1.38h-.03c-.45,1.25-1.3,1.6-2.11,1.67-3.68,0-3.92-2.34-3.92-5.54v-1.71Z"/>
      <path class="cls-7" d="M419.14,121.67c.02-3.09.05-5.07,3.19-5.07s3.11,1.98,3.12,5.07c.02,3.14-.43,4.48-3.12,4.43-2.74.05-3.2-1.3-3.19-4.43ZM421.22,122.92c0,1.1.1,1.58,1.1,1.58s1.04-.48,1.04-1.58v-3.01c0-.85,0-1.71-1.04-1.71-1.1,0-1.1.86-1.1,1.71v3.01Z"/>
      <path class="cls-7" d="M429.89,118.44h.03c.26-.66.51-1.02.82-1.28.59-.5.99-.46,1.3-.48v2.46c-1.15-.11-2.03.18-2.07,1.5v5.22h-2.08v-9.03h2v1.6Z"/>
      <path class="cls-7" d="M433.75,121.67c.02-3.09.05-5.07,3.19-5.07s3.1,1.98,3.12,5.07c.02,3.14-.43,4.48-3.12,4.43-2.74.05-3.2-1.3-3.19-4.43ZM435.83,122.92c0,1.1.1,1.58,1.1,1.58s1.04-.48,1.04-1.58v-3.01c0-.85,0-1.71-1.04-1.71-1.1,0-1.1.86-1.1,1.71v3.01Z"/>
      <path class="cls-7" d="M444.6,117.77h.03c.46-1.04,1.39-1.17,1.87-1.17,1.19,0,2.15.69,2.08,2.3v6.96h-2.08v-6.02c0-.88-.1-1.46-.88-1.49s-1.06.7-1.02,1.66v5.84h-2.08v-9.03h2.08v.93Z"/>
      <path class="cls-7" d="M454.21,125.9c-1.23.14-2.96.26-2.96-1.42v-6.11h-.85v-1.52h.83v-2.48h2.1v2.48h.88v1.52h-.88v5.6c.05.38.62.34.88.3v1.63Z"/>
      <path class="cls-7" d="M460.34,125.86c-.14-.29-.16-.61-.13-.93h-.03c-.24.37-.51.67-.83.86-.3.19-.64.3-.99.3-1.68,0-2.42-.85-2.42-2.71,0-2.07,1.46-2.56,3.09-3.23.88-.37,1.2-.77,1.02-1.5-.1-.4-.42-.46-.98-.46-.94,0-1.1.5-1.09,1.31h-1.99c-.02-1.71.54-2.91,3.15-2.91,2.83,0,3.01,1.49,2.98,2.67v5.33c0,.43.06.85.18,1.26h-1.97ZM460.05,121.11c-.51.35-1.14.7-1.68,1.15-.3.26-.35.7-.35,1.09,0,.69.21,1.15.98,1.15,1.23,0,1.01-1.55,1.06-2.42v-.98Z"/>
      <path class="cls-7" d="M465.09,125.86v-12h2.08v12h-2.08Z"/>
      <path class="cls-7" d="M469.84,121.67c.02-3.09.05-5.07,3.19-5.07s3.1,1.98,3.12,5.07c.02,3.14-.43,4.48-3.12,4.43-2.74.05-3.2-1.3-3.19-4.43ZM471.92,122.92c0,1.1.1,1.58,1.1,1.58s1.04-.48,1.04-1.58v-3.01c0-.85,0-1.71-1.04-1.71-1.1,0-1.1.86-1.1,1.71v3.01Z"/>
    </g>
    <g>
      <path class="cls-7" d="M601.17,26.24h-2.24v-12h3.57l1.2,5.57c.19.91.32,1.84.42,2.77h.03c.11-1.18.19-1.99.35-2.77l1.2-5.57h3.55v12h-2.24v-3.78c0-2.38.05-4.77.19-7.16h-.03l-2.4,10.93h-1.36l-2.35-10.93h-.08c.14,2.38.19,4.77.19,7.16v3.78Z"/>
      <path class="cls-7" d="M616.02,26.24c-.14-.29-.16-.61-.13-.93h-.03c-.24.37-.51.67-.83.86-.3.19-.64.3-.99.3-1.68,0-2.42-.85-2.42-2.71,0-2.07,1.46-2.56,3.09-3.23.88-.37,1.2-.77,1.02-1.5-.1-.4-.42-.46-.98-.46-.94,0-1.1.5-1.09,1.31h-1.99c-.02-1.71.54-2.91,3.15-2.91,2.83,0,3.01,1.49,2.98,2.67v5.33c0,.43.06.85.18,1.26h-1.97ZM615.73,21.49c-.51.35-1.14.7-1.68,1.15-.3.26-.35.7-.35,1.09,0,.69.21,1.15.98,1.15,1.23,0,1.01-1.55,1.06-2.42v-.98Z"/>
      <path class="cls-7" d="M622.64,18.14h.03c.46-1.04,1.39-1.17,1.87-1.17,1.18,0,2.14.69,2.08,2.3v6.96h-2.08v-6.02c0-.88-.1-1.46-.88-1.49s-1.06.7-1.02,1.66v5.84h-2.08v-9.03h2.08v.93Z"/>
      <path class="cls-7" d="M633.3,26.24c-.14-.29-.16-.61-.13-.93h-.03c-.24.37-.51.67-.83.86-.3.19-.64.3-.99.3-1.68,0-2.42-.85-2.42-2.71,0-2.07,1.46-2.56,3.09-3.23.88-.37,1.2-.77,1.02-1.5-.1-.4-.42-.46-.98-.46-.94,0-1.1.5-1.09,1.31h-1.99c-.02-1.71.54-2.91,3.15-2.91,2.83,0,3.01,1.49,2.98,2.67v5.33c0,.43.06.85.18,1.26h-1.97ZM633.01,21.49c-.51.35-1.14.7-1.68,1.15-.3.26-.35.7-.35,1.09,0,.69.21,1.15.98,1.15,1.23,0,1.01-1.55,1.06-2.42v-.98Z"/>
      <path class="cls-7" d="M641.71,25.28h-.03c-.4.91-.98,1.15-1.79,1.2-1.76,0-2.13-1.6-2.18-3.04v-3.27c.05-2.48.83-3.17,2.18-3.2.88-.02,1.44.29,1.86,1.15h.03c-.05-.27-.06-.53-.06-.8v-3.09h2.08v12h-2.08v-.96ZM641.71,20.58c.03-.72,0-2-.98-2s-.88.85-.94,1.74v3.01c.05.86.27,1.55.91,1.55s1.01-.56,1.01-1.6v-2.71Z"/>
      <path class="cls-7" d="M646.35,22.05c.02-3.09.05-5.07,3.19-5.07s3.11,1.98,3.12,5.07c.02,3.14-.43,4.48-3.12,4.43-2.74.05-3.2-1.3-3.19-4.43ZM648.43,23.3c0,1.1.1,1.58,1.1,1.58s1.04-.48,1.04-1.58v-3.01c0-.85,0-1.71-1.04-1.71-1.1,0-1.1.86-1.1,1.71v3.01Z"/>
    </g>
    <g>
      <path class="cls-7" d="M700.85,15.67V3.67h3.62c.96,0,1.9.06,2.54.88.51.66.59,1.34.59,2.16,0,1.04-.22,2.07-1.44,2.51v.03c1.26.18,1.75,1.23,1.75,2.79,0,.5-.03.99-.16,1.47-.48,1.52-1.34,2.16-2.95,2.16h-3.95ZM703.5,8.52c.54,0,1.25.03,1.6-.42.21-.3.24-.72.24-1.3,0-.9-.19-1.34-1.22-1.38h-1.04v3.09h.42ZM703.57,13.91c.46,0,.94.05,1.34-.13.61-.27.69-1.06.69-1.67,0-1.3-.26-1.84-1.65-1.84h-.86v3.63h.48Z"/>
      <path class="cls-7" d="M710.53,5.56v-1.89h2.08v1.89h-2.08ZM710.53,15.67V6.64h2.08v9.03h-2.08Z"/>
      <path class="cls-7" d="M718.47,15.7c-1.23.14-2.96.26-2.96-1.42v-6.11h-.85v-1.52h.83v-2.48h2.1v2.48h.88v1.52h-.88v5.6c.05.38.62.34.88.3v1.63Z"/>
      <path class="cls-7" d="M724.43,14.33h-.03c-.32,1.07-.93,1.57-1.94,1.58-1.65,0-2.02-.85-2.02-2.35v-6.91h2.08v6.18c0,.4-.02.85.21,1.2.18.19.37.29.64.29.98,0,.96-1.1.96-1.81v-5.86h2.08v9.03h-1.99v-1.34Z"/>
      <path class="cls-7" d="M731.22,7.57h.03c.46-1.04,1.39-1.17,1.87-1.17,1.18,0,2.14.69,2.08,2.3v6.96h-2.08v-6.02c0-.88-.1-1.46-.88-1.49s-1.06.7-1.02,1.66v5.84h-2.08V6.64h2.08v.93Z"/>
      <path class="cls-7" d="M739.83,16.68c0,.19.1.32.24.4.16.1.38.13.64.13.88,0,1.04-.7,1.04-1.41v-1.04l-.03-.03c-.42.86-1.01,1.14-1.9,1.18-1.76,0-2.11-1.58-2.16-3.03v-3.27c.05-2.48.82-3.18,2.16-3.22.94-.02,1.52.35,1.81,1.17h.03v-.93h2.08v8.75c0,1.84-.51,3.31-3.36,3.31-1.38,0-2.51-.51-2.62-2.03h2.08ZM740.67,8.01c-.98,0-.88.85-.94,1.74v3.01c.05.86.27,1.55.91,1.55s1.01-.56,1.01-1.6v-2.71c.03-.72,0-2-.98-2Z"/>
    </g>
    <g>
      <path class="cls-7" d="M716.99,48.77v-12h2.24v10.24h4.16v1.76h-6.4Z"/>
      <path class="cls-7" d="M725.39,42.85c-.1-2.13.99-3.34,3.04-3.34,2.9,0,3.2,1.5,3.2,3.97v1.22h-4.16v1.31c.02,1.18.46,1.41,1.09,1.41.77,0,.99-.56.96-1.7h2.08c.08,2.02-.75,3.3-2.88,3.3-2.4,0-3.38-1.14-3.33-3.79v-2.37ZM729.55,43.09v-.78c-.02-.91-.26-1.2-1.09-1.2-1.04,0-.99.8-.99,1.62v.37h2.08Z"/>
      <path class="cls-7" d="M736.32,40.67h.03c.46-.99,1.31-1.14,1.99-1.17.77-.02,1.79.32,1.92,1.17h.03c.4-.78,1.06-1.17,2.08-1.17,1.54,0,2.21.96,2.21,1.92v7.35h-2.08v-6.1c0-.82-.08-1.62-.99-1.57-.9.05-1.06.67-1.06,1.73v5.94h-2.08v-6.21c0-.8-.06-1.47-1.03-1.46-.98.02-1.02.74-1.02,1.73v5.94h-2.08v-9.03h2.08v.93Z"/>
      <path class="cls-7" d="M747.3,36.77h2.08v2.88c0,.29-.03.58-.05,1.01h.03c.42-.86.98-1.17,1.86-1.15,1.34.03,2.11.72,2.16,3.2v3.27c-.05,1.44-.4,3.04-2.16,3.04-.86-.05-1.44-.3-1.9-1.2h-.03v.96h-1.99v-12ZM749.38,45.81c0,1.04.34,1.6,1.01,1.6s.86-.69.91-1.55v-3.01c-.06-.9.03-1.74-.94-1.74s-1.01,1.28-.98,2v2.71Z"/>
      <path class="cls-7" d="M755.76,42.85c-.1-2.13.99-3.34,3.04-3.34,2.9,0,3.2,1.5,3.2,3.97v1.22h-4.16v1.31c.02,1.18.46,1.41,1.09,1.41.77,0,.99-.56.96-1.7h2.08c.08,2.02-.75,3.3-2.88,3.3-2.4,0-3.38-1.14-3.33-3.79v-2.37ZM759.92,43.09v-.78c-.02-.91-.26-1.2-1.09-1.2-1.04,0-.99.8-.99,1.62v.37h2.08Z"/>
      <path class="cls-7" d="M764.53,48.77v-12h2.08v3.91h.03c.59-1.06,1.42-1.17,1.87-1.17,1.18,0,2.15.69,2.08,2.3v6.96h-2.08v-6.18c0-.88-.1-1.46-.88-1.49-.79-.03-1.06.7-1.03,1.67v6h-2.08Z"/>
    </g>
    <g>
      <path class="cls-7" d="M3.31,751.14H1.07v-12h3.57l1.2,5.57c.19.91.32,1.84.42,2.77h.03c.11-1.18.19-1.99.35-2.77l1.2-5.57h3.55v12h-2.24v-3.78c0-2.38.05-4.77.19-7.16h-.03l-2.4,10.93h-1.36l-2.35-10.93h-.08c.14,2.38.19,4.77.19,7.16v3.78Z"/>
      <path class="cls-7" d="M18.16,751.14c-.14-.29-.16-.61-.13-.93h-.03c-.24.37-.51.67-.83.86-.3.19-.64.3-.99.3-1.68,0-2.42-.85-2.42-2.71,0-2.07,1.46-2.56,3.09-3.23.88-.37,1.2-.77,1.02-1.5-.1-.4-.42-.46-.98-.46-.94,0-1.1.5-1.09,1.31h-1.99c-.02-1.71.54-2.91,3.15-2.91,2.83,0,3.01,1.49,2.98,2.67v5.33c0,.43.06.85.18,1.26h-1.97ZM17.87,746.38c-.51.35-1.14.7-1.68,1.15-.3.26-.35.7-.35,1.09,0,.69.21,1.15.98,1.15,1.23,0,1.01-1.55,1.06-2.42v-.98Z"/>
      <path class="cls-7" d="M22.5,751.14v-12h2.08v5.43c0,.38-.02.75-.03,1.14h.03l1.97-3.58h2.27l-2.27,3.63,2.21,5.39h-2.32l-1.3-3.68-.56.93v2.75h-2.08Z"/>
      <path class="cls-7" d="M34.55,751.14c-.14-.29-.16-.61-.13-.93h-.03c-.24.37-.51.67-.83.86-.3.19-.64.3-.99.3-1.68,0-2.42-.85-2.42-2.71,0-2.07,1.46-2.56,3.09-3.23.88-.37,1.2-.77,1.02-1.5-.1-.4-.42-.46-.98-.46-.94,0-1.1.5-1.09,1.31h-1.99c-.02-1.71.54-2.91,3.15-2.91,2.83,0,3.01,1.49,2.98,2.67v5.33c0,.43.06.85.18,1.26h-1.97ZM34.26,746.38c-.51.35-1.14.7-1.68,1.15-.3.26-.35.7-.35,1.09,0,.69.21,1.15.98,1.15,1.23,0,1.01-1.55,1.06-2.42v-.98Z"/>
      <path class="cls-7" d="M40.66,748.16c-.16,1.67.48,1.62.96,1.62.59,0,1.01-.43.86-1.01-.03-.51-.62-.8-1.02-1.07l-1.14-.78c-1.04-.72-1.71-1.55-1.71-2.85,0-1.39,1.1-2.19,3.11-2.19s2.95,1.06,2.9,2.99h-2.08c.05-1.01-.24-1.39-.96-1.39-.5,0-.88.22-.88.74s.38.77.78,1.04l1.7,1.15c.53.3,1.36,1.17,1.42,1.78.18,1.57-.21,3.2-3.09,3.2-1.1,0-3.17-.46-2.93-3.22h2.08Z"/>
      <path class="cls-7" d="M48.4,748.16c-.16,1.67.48,1.62.96,1.62.59,0,1.01-.43.86-1.01-.03-.51-.62-.8-1.02-1.07l-1.14-.78c-1.04-.72-1.71-1.55-1.71-2.85,0-1.39,1.1-2.19,3.11-2.19s2.95,1.06,2.9,2.99h-2.08c.05-1.01-.24-1.39-.96-1.39-.5,0-.88.22-.88.74s.38.77.78,1.04l1.7,1.15c.53.3,1.36,1.17,1.42,1.78.18,1.57-.21,3.2-3.09,3.2-1.1,0-3.17-.46-2.93-3.22h2.08Z"/>
      <path class="cls-7" d="M58.67,751.14c-.14-.29-.16-.61-.13-.93h-.03c-.24.37-.51.67-.83.86-.3.19-.64.3-.99.3-1.68,0-2.42-.85-2.42-2.71,0-2.07,1.46-2.56,3.09-3.23.88-.37,1.2-.77,1.02-1.5-.1-.4-.42-.46-.98-.46-.94,0-1.1.5-1.09,1.31h-1.98c-.02-1.71.54-2.91,3.15-2.91,2.83,0,3.01,1.49,2.98,2.67v5.33c0,.43.06.85.18,1.26h-1.97ZM58.39,746.38c-.51.35-1.14.7-1.68,1.15-.3.26-.35.7-.35,1.09,0,.69.21,1.15.98,1.15,1.23,0,1.01-1.55,1.06-2.42v-.98Z"/>
      <path class="cls-7" d="M65.2,743.71h.03c.26-.66.51-1.02.82-1.28.59-.5.99-.46,1.3-.48v2.46c-1.15-.11-2.03.18-2.07,1.5v5.22h-2.08v-9.03h2v1.6Z"/>
    </g>
    <g>
      <path class="cls-7" d="M111.77,712.92v5.17h-2.24v-12h4.24c1.94,0,3.41.67,3.41,2.88,0,1.31-.34,2.69-1.84,2.9v.03c1.33.18,1.73,1.02,1.73,2.18,0,.5-.06,3.44.48,3.79v.22h-2.46c-.27-.77-.22-2.24-.24-3.04-.02-.74,0-1.75-.77-1.97-.61-.18-1.26-.16-1.91-.16h-.4ZM111.77,711.16h1.76c.74-.05,1.31-.53,1.31-1.73,0-1.34-.56-1.57-1.41-1.58h-1.66v3.31Z"/>
      <path class="cls-7" d="M123.96,718.09c-.14-.29-.16-.61-.13-.93h-.03c-.24.37-.51.67-.83.86-.3.19-.64.3-.99.3-1.68,0-2.42-.85-2.42-2.71,0-2.07,1.46-2.56,3.09-3.23.88-.37,1.2-.77,1.02-1.5-.1-.4-.42-.46-.98-.46-.94,0-1.1.5-1.09,1.31h-1.99c-.02-1.71.54-2.91,3.15-2.91,2.83,0,3.01,1.49,2.98,2.67v5.33c0,.43.06.85.18,1.26h-1.97ZM123.68,713.33c-.51.35-1.14.7-1.68,1.15-.3.26-.35.7-.35,1.09,0,.69.21,1.15.98,1.15,1.23,0,1.01-1.55,1.06-2.42v-.98Z"/>
      <path class="cls-7" d="M130.67,709.99h.03c.46-.99,1.31-1.14,1.98-1.17.77-.02,1.79.32,1.92,1.17h.03c.4-.78,1.06-1.17,2.08-1.17,1.54,0,2.21.96,2.21,1.92v7.35h-2.08v-6.1c0-.82-.08-1.62-.99-1.57-.9.05-1.06.67-1.06,1.73v5.94h-2.08v-6.21c0-.8-.06-1.47-1.02-1.46-.98.02-1.03.74-1.03,1.73v5.94h-2.08v-9.03h2.08v.93Z"/>
      <path class="cls-7" d="M143.76,709.99h.03c.46-.99,1.31-1.14,1.98-1.17.77-.02,1.79.32,1.92,1.17h.03c.4-.78,1.06-1.17,2.08-1.17,1.54,0,2.21.96,2.21,1.92v7.35h-2.08v-6.1c0-.82-.08-1.62-.99-1.57-.9.05-1.06.67-1.06,1.73v5.94h-2.08v-6.21c0-.8-.06-1.47-1.02-1.46-.98.02-1.02.74-1.02,1.73v5.94h-2.08v-9.03h2.08v.93Z"/>
      <path class="cls-7" d="M158.78,718.09c-.14-.29-.16-.61-.13-.93h-.03c-.24.37-.51.67-.83.86-.3.19-.64.3-.99.3-1.68,0-2.42-.85-2.42-2.71,0-2.07,1.46-2.56,3.09-3.23.88-.37,1.2-.77,1.03-1.5-.1-.4-.42-.46-.98-.46-.95,0-1.11.5-1.09,1.31h-1.99c-.02-1.71.54-2.91,3.15-2.91,2.83,0,3.01,1.49,2.98,2.67v5.33c0,.43.06.85.18,1.26h-1.97ZM158.49,713.33c-.51.35-1.14.7-1.68,1.15-.3.26-.35.7-.35,1.09,0,.69.21,1.15.98,1.15,1.23,0,1.01-1.55,1.06-2.42v-.98Z"/>
      <path class="cls-7" d="M165.4,709.99h.03c.46-1.04,1.39-1.17,1.87-1.17,1.18,0,2.15.69,2.08,2.3v6.96h-2.08v-6.02c0-.88-.1-1.46-.88-1.49-.79-.03-1.06.7-1.03,1.66v5.84h-2.08v-9.03h2.08v.93Z"/>
      <path class="cls-7" d="M174.01,719.1c0,.19.1.32.24.4.16.1.38.13.64.13.88,0,1.04-.7,1.04-1.41v-1.04l-.03-.03c-.42.86-1.01,1.14-1.91,1.18-1.76,0-2.11-1.58-2.16-3.03v-3.27c.05-2.48.82-3.18,2.16-3.22.95-.02,1.52.35,1.81,1.17h.03v-.93h2.08v8.75c0,1.84-.51,3.31-3.36,3.31-1.38,0-2.51-.51-2.62-2.03h2.08ZM174.86,710.42c-.98,0-.88.85-.95,1.74v3.01c.05.86.27,1.55.91,1.55s1.01-.56,1.01-1.6v-2.71c.03-.72,0-2-.98-2Z"/>
      <path class="cls-7" d="M111.77,732.12v5.17h-2.24v-12h4.24c1.94,0,3.41.67,3.41,2.88,0,1.31-.34,2.69-1.84,2.9v.03c1.33.18,1.73,1.02,1.73,2.18,0,.5-.06,3.44.48,3.79v.22h-2.46c-.27-.77-.22-2.24-.24-3.04-.02-.74,0-1.75-.77-1.97-.61-.18-1.26-.16-1.91-.16h-.4ZM111.77,730.36h1.76c.74-.05,1.31-.53,1.31-1.73,0-1.34-.56-1.57-1.41-1.58h-1.66v3.31Z"/>
      <path class="cls-7" d="M123.96,737.29c-.14-.29-.16-.61-.13-.93h-.03c-.24.37-.51.67-.83.86-.3.19-.64.3-.99.3-1.68,0-2.42-.85-2.42-2.71,0-2.07,1.46-2.56,3.09-3.23.88-.37,1.2-.77,1.02-1.5-.1-.4-.42-.46-.98-.46-.94,0-1.1.5-1.09,1.31h-1.99c-.02-1.71.54-2.91,3.15-2.91,2.83,0,3.01,1.49,2.98,2.67v5.33c0,.43.06.85.18,1.26h-1.97ZM123.68,732.54c-.51.35-1.14.7-1.68,1.15-.3.26-.35.7-.35,1.09,0,.69.21,1.15.98,1.15,1.23,0,1.01-1.55,1.06-2.42v-.98Z"/>
      <path class="cls-7" d="M130.67,729.19h.03c.46-.99,1.31-1.14,1.98-1.17.77-.02,1.79.32,1.92,1.17h.03c.4-.78,1.06-1.17,2.08-1.17,1.54,0,2.21.96,2.21,1.92v7.35h-2.08v-6.1c0-.82-.08-1.62-.99-1.57-.9.05-1.06.67-1.06,1.73v5.94h-2.08v-6.21c0-.8-.06-1.47-1.02-1.46-.98.02-1.03.74-1.03,1.73v5.94h-2.08v-9.03h2.08v.93Z"/>
      <path class="cls-7" d="M143.76,729.19h.03c.46-.99,1.31-1.14,1.98-1.17.77-.02,1.79.32,1.92,1.17h.03c.4-.78,1.06-1.17,2.08-1.17,1.54,0,2.21.96,2.21,1.92v7.35h-2.08v-6.1c0-.82-.08-1.62-.99-1.57-.9.05-1.06.67-1.06,1.73v5.94h-2.08v-6.21c0-.8-.06-1.47-1.02-1.46-.98.02-1.02.74-1.02,1.73v5.94h-2.08v-9.03h2.08v.93Z"/>
      <path class="cls-7" d="M158.78,737.29c-.14-.29-.16-.61-.13-.93h-.03c-.24.37-.51.67-.83.86-.3.19-.64.3-.99.3-1.68,0-2.42-.85-2.42-2.71,0-2.07,1.46-2.56,3.09-3.23.88-.37,1.2-.77,1.03-1.5-.1-.4-.42-.46-.98-.46-.95,0-1.11.5-1.09,1.31h-1.99c-.02-1.71.54-2.91,3.15-2.91,2.83,0,3.01,1.49,2.98,2.67v5.33c0,.43.06.85.18,1.26h-1.97ZM158.49,732.54c-.51.35-1.14.7-1.68,1.15-.3.26-.35.7-.35,1.09,0,.69.21,1.15.98,1.15,1.23,0,1.01-1.55,1.06-2.42v-.98Z"/>
      <path class="cls-7" d="M165.4,729.19h.03c.46-1.04,1.39-1.17,1.87-1.17,1.18,0,2.15.69,2.08,2.3v6.96h-2.08v-6.02c0-.88-.1-1.46-.88-1.49-.79-.03-1.06.7-1.03,1.66v5.84h-2.08v-9.03h2.08v.93Z"/>
      <path class="cls-7" d="M174.01,738.3c0,.19.1.32.24.4.16.1.38.13.64.13.88,0,1.04-.71,1.04-1.41v-1.04l-.03-.03c-.42.86-1.01,1.14-1.91,1.18-1.76,0-2.11-1.58-2.16-3.03v-3.27c.05-2.48.82-3.18,2.16-3.22.95-.02,1.52.35,1.81,1.17h.03v-.93h2.08v8.75c0,1.84-.51,3.31-3.36,3.31-1.38,0-2.51-.51-2.62-2.03h2.08ZM174.86,729.62c-.98,0-.88.85-.95,1.74v3.01c.05.86.27,1.55.91,1.55s1.01-.56,1.01-1.6v-2.71c.03-.72,0-2-.98-2Z"/>
    </g>
    <g>
      <path class="cls-7" d="M190.96,445.03c0,1.52,1.18,2.11,2.53,2.11.88,0,2.23-.26,2.23-1.42,0-1.23-1.71-1.44-3.39-1.89-1.7-.45-3.41-1.1-3.41-3.25,0-2.34,2.21-3.46,4.27-3.46,2.38,0,4.58,1.04,4.58,3.68h-2.43c-.08-1.38-1.06-1.73-2.26-1.73-.8,0-1.73.34-1.73,1.3,0,.88.54.99,3.41,1.73.83.21,3.39.74,3.39,3.33,0,2.1-1.65,3.67-4.75,3.67-2.53,0-4.9-1.25-4.87-4.07h2.43Z"/>
      <path class="cls-7" d="M211.73,444.5c0,3.09-1.82,4.59-4.88,4.59s-4.87-1.49-4.87-4.59v-7.11h2.51v7.11c0,1.25.32,2.48,2.35,2.48,1.79,0,2.37-.78,2.37-2.48v-7.11h2.51v7.11Z"/>
      <path class="cls-7" d="M216.29,437.39h2.51v9.32h5.57v2.11h-8.08v-11.43Z"/>
      <path class="cls-7" d="M231.29,437.39h2.58l4.27,11.43h-2.61l-.86-2.54h-4.27l-.9,2.54h-2.54l4.34-11.43ZM231.05,444.41h2.96l-1.44-4.19h-.03l-1.49,4.19Z"/>
      <path class="cls-7" d="M252.42,448.82h-2.5l-1.94-7.78h-.03l-1.91,7.78h-2.54l-3.03-11.43h2.51l1.81,7.78h.03l1.99-7.78h2.35l1.95,7.88h.03l1.87-7.88h2.47l-3.07,11.43Z"/>
      <path class="cls-7" d="M259.04,437.39h8.55v2.11h-6.04v2.45h5.54v1.95h-5.54v2.8h6.16v2.11h-8.68v-11.43Z"/>
      <path class="cls-7" d="M273.52,445.03c0,1.52,1.18,2.11,2.53,2.11.88,0,2.23-.26,2.23-1.42,0-1.23-1.71-1.44-3.39-1.89-1.7-.45-3.41-1.1-3.41-3.25,0-2.34,2.21-3.46,4.27-3.46,2.38,0,4.58,1.04,4.58,3.68h-2.43c-.08-1.38-1.06-1.73-2.26-1.73-.8,0-1.73.34-1.73,1.3,0,.88.54.99,3.41,1.73.83.21,3.39.74,3.39,3.33,0,2.1-1.65,3.67-4.75,3.67-2.53,0-4.9-1.25-4.87-4.07h2.43Z"/>
      <path class="cls-7" d="M284.59,437.39h2.51v11.43h-2.51v-11.43Z"/>
    </g>
    <g>
      <path class="cls-5" d="M651.65,224.67h-2.24v-12h3.57l1.2,5.57c.19.91.32,1.84.42,2.77h.03c.11-1.18.19-1.99.35-2.77l1.2-5.57h3.55v12h-2.24v-3.78c0-2.38.05-4.77.19-7.16h-.03l-2.4,10.93h-1.36l-2.35-10.93h-.08c.14,2.38.19,4.77.19,7.16v3.78Z"/>
      <path class="cls-5" d="M662.27,220.48c.02-3.09.05-5.07,3.19-5.07s3.11,1.98,3.12,5.07c.02,3.14-.43,4.48-3.12,4.43-2.74.05-3.2-1.3-3.19-4.43ZM664.35,221.73c0,1.1.1,1.58,1.1,1.58s1.04-.48,1.04-1.58v-3.01c0-.85,0-1.71-1.04-1.71-1.1,0-1.1.86-1.1,1.71v3.01Z"/>
      <path class="cls-5" d="M671.25,224.67v-12h2.08v12h-2.08Z"/>
      <path class="cls-5" d="M680.07,223.33h-.03c-.32,1.07-.93,1.57-1.94,1.58-1.65,0-2.02-.85-2.02-2.35v-6.91h2.08v6.18c0,.4-.02.85.21,1.2.18.19.37.29.64.29.98,0,.96-1.1.96-1.81v-5.86h2.08v9.03h-1.99v-1.34Z"/>
      <path class="cls-5" d="M684.56,224.67v-12h2.08v5.43c0,.38-.02.75-.03,1.14h.03l1.97-3.58h2.27l-2.27,3.63,2.21,5.39h-2.32l-1.3-3.68-.56.93v2.75h-2.08Z"/>
      <path class="cls-5" d="M692.3,224.67v-12h2.08v5.43c0,.38-.02.75-.03,1.14h.03l1.97-3.58h2.27l-2.27,3.63,2.21,5.39h-2.32l-1.3-3.68-.56.93v2.75h-2.08Z"/>
      <path class="cls-5" d="M700.13,218.75c-.1-2.13.99-3.34,3.04-3.34,2.9,0,3.2,1.5,3.2,3.97v1.22h-4.16v1.31c.02,1.18.46,1.41,1.09,1.41.77,0,.99-.56.96-1.7h2.08c.08,2.02-.75,3.3-2.88,3.3-2.4,0-3.38-1.14-3.33-3.79v-2.37ZM704.29,218.99v-.78c-.02-.91-.26-1.2-1.09-1.2-1.04,0-.99.8-.99,1.62v.37h2.08Z"/>
      <path class="cls-5" d="M710.98,216.57h.03c.46-1.04,1.39-1.17,1.87-1.17,1.18,0,2.14.69,2.08,2.3v6.96h-2.08v-6.02c0-.88-.1-1.46-.88-1.49-.78-.03-1.06.7-1.02,1.66v5.84h-2.08v-9.03h2.08v.93Z"/>
      <path class="cls-5" d="M719.1,221.7c-.16,1.67.48,1.62.96,1.62.59,0,1.01-.43.86-1.01-.03-.51-.62-.8-1.02-1.07l-1.14-.78c-1.04-.72-1.71-1.55-1.71-2.85,0-1.39,1.11-2.19,3.11-2.19s2.95,1.06,2.9,2.99h-2.08c.05-1.01-.24-1.39-.96-1.39-.5,0-.88.22-.88.74s.38.77.78,1.04l1.7,1.15c.53.3,1.36,1.17,1.42,1.78.18,1.57-.21,3.2-3.09,3.2-1.11,0-3.17-.46-2.93-3.22h2.08Z"/>
      <path class="cls-5" d="M725.15,218.75c-.1-2.13.99-3.34,3.04-3.34,2.9,0,3.2,1.5,3.2,3.97v1.22h-4.16v1.31c.02,1.18.46,1.41,1.09,1.41.77,0,.99-.56.96-1.7h2.08c.08,2.02-.75,3.3-2.88,3.3-2.4,0-3.38-1.14-3.33-3.79v-2.37ZM729.31,218.99v-.78c-.02-.91-.26-1.2-1.09-1.2-1.04,0-.99.8-.99,1.62v.37h2.08Z"/>
      <path class="cls-5" d="M733.79,218.75c-.1-2.13.99-3.34,3.04-3.34,2.9,0,3.2,1.5,3.2,3.97v1.22h-4.16v1.31c.02,1.18.46,1.41,1.09,1.41.77,0,.99-.56.96-1.7h2.08c.08,2.02-.75,3.3-2.88,3.3-2.4,0-3.38-1.14-3.33-3.79v-2.37ZM737.95,218.99v-.78c-.02-.91-.26-1.2-1.09-1.2-1.04,0-.99.8-.99,1.62v.37h2.08Z"/>
    </g>
    <g>
      <path class="cls-5" d="M198.48,211.74c.1-3.06.34-5.33,3.92-5.33,1.92.02,3.25.51,3.76,2.59.11.48.1.98.11,1.46h-2.24c-.03-1.22-.11-2.18-1.63-2.24-1.76,0-1.62,2.1-1.62,3.03v3.33c0,.99.08,2.61,1.62,2.61,1.28,0,1.7-1.36,1.65-3.17h-1.55v-1.76h3.73v6.45h-1.68v-1.38h-.03c-.45,1.25-1.3,1.6-2.11,1.67-3.68,0-3.92-2.34-3.92-5.54v-1.71Z"/>
      <path class="cls-5" d="M208.86,214.51c.02-3.09.05-5.07,3.19-5.07s3.11,1.98,3.12,5.07c.02,3.14-.43,4.48-3.12,4.43-2.74.05-3.2-1.3-3.19-4.43ZM210.94,215.76c0,1.1.1,1.58,1.1,1.58s1.04-.48,1.04-1.58v-3.01c0-.85,0-1.71-1.04-1.71-1.1,0-1.1.86-1.1,1.71v3.01Z"/>
      <path class="cls-5" d="M217.84,218.71v-12h2.08v12h-2.08Z"/>
      <path class="cls-5" d="M222.08,211.2v-1.52h.8v-.9c0-1.63.67-2.08,2.19-2.08h.79v1.67c-.16-.05-.34-.1-.46-.1-.3,0-.43.14-.43.35v1.06h.9v1.52h-.9v7.51h-2.08v-7.51h-.8Z"/>
      <path class="cls-5" d="M231.63,209.68h2.24l.88,5.06c.18.82.26,2.24.29,2.67h.03c.03-.43.11-1.86.29-2.67l.9-5.06h2.16l-2.08,9.03h-2.59l-2.11-9.03Z"/>
      <path class="cls-5" d="M240.06,214.51c.02-3.09.05-5.07,3.19-5.07s3.1,1.98,3.12,5.07c.02,3.14-.43,4.48-3.12,4.43-2.74.05-3.2-1.3-3.19-4.43ZM242.14,215.76c0,1.1.1,1.58,1.1,1.58s1.04-.48,1.04-1.58v-3.01c0-.85,0-1.71-1.04-1.71-1.1,0-1.1.86-1.1,1.71v3.01Z"/>
      <path class="cls-5" d="M250.91,210.61h.03c.46-1.04,1.39-1.17,1.87-1.17,1.18,0,2.14.69,2.08,2.3v6.96h-2.08v-6.02c0-.88-.1-1.46-.88-1.49s-1.06.7-1.02,1.66v5.84h-2.08v-9.03h2.08v.93Z"/>
      <path class="cls-5" d="M205.05,225.9h7.48v1.76h-2.61v10.24h-2.24v-10.24h-2.62v-1.76Z"/>
      <path class="cls-5" d="M214.26,233.71c.02-3.09.05-5.07,3.19-5.07s3.1,1.98,3.12,5.07c.02,3.14-.43,4.48-3.12,4.43-2.74.05-3.2-1.3-3.19-4.43ZM216.34,234.96c0,1.1.1,1.58,1.1,1.58s1.04-.48,1.04-1.58v-3.01c0-.85,0-1.71-1.04-1.71-1.1,0-1.1.86-1.1,1.71v3.01Z"/>
      <path class="cls-5" d="M225.19,229.81h.03c.46-.99,1.31-1.14,1.98-1.17.77-.02,1.79.32,1.92,1.17h.03c.4-.78,1.06-1.17,2.08-1.17,1.54,0,2.21.96,2.21,1.92v7.35h-2.08v-6.1c0-.82-.08-1.62-.99-1.57-.9.05-1.06.67-1.06,1.73v5.94h-2.08v-6.21c0-.8-.06-1.47-1.02-1.46-.98.02-1.02.74-1.02,1.73v5.94h-2.08v-9.03h2.08v.93Z"/>
      <path class="cls-5" d="M236.33,227.79v-1.89h2.08v1.89h-2.08ZM236.33,237.91v-9.03h2.08v9.03h-2.08Z"/>
      <path class="cls-5" d="M243.29,229.81h.03c.46-1.04,1.39-1.17,1.87-1.17,1.18,0,2.14.69,2.08,2.3v6.96h-2.08v-6.02c0-.88-.1-1.46-.88-1.49s-1.06.7-1.02,1.66v5.84h-2.08v-9.03h2.08v.93Z"/>
      <path class="cls-5" d="M250.06,227.79v-1.89h2.08v1.89h-2.08ZM250.06,237.91v-9.03h2.08v9.03h-2.08Z"/>
    </g>
    <g>
      <path class="cls-5" d="M529.7,716.62v-12h3.62c.96,0,1.9.06,2.54.88.51.66.59,1.34.59,2.16,0,1.04-.22,2.07-1.44,2.51v.03c1.26.18,1.74,1.23,1.74,2.79,0,.5-.03.99-.16,1.47-.48,1.52-1.34,2.16-2.95,2.16h-3.95ZM532.35,709.46c.54,0,1.25.03,1.6-.42.21-.3.24-.72.24-1.3,0-.9-.19-1.34-1.22-1.38h-1.04v3.09h.42ZM532.42,714.86c.46,0,.95.05,1.34-.13.61-.27.69-1.06.69-1.67,0-1.3-.26-1.84-1.65-1.84h-.87v3.63h.48Z"/>
      <path class="cls-5" d="M543.27,716.62c-.14-.29-.16-.61-.13-.93h-.03c-.24.37-.51.67-.83.86-.3.19-.64.3-.99.3-1.68,0-2.42-.85-2.42-2.71,0-2.07,1.46-2.56,3.09-3.23.88-.37,1.2-.77,1.02-1.5-.1-.4-.42-.46-.98-.46-.94,0-1.1.5-1.09,1.31h-1.98c-.02-1.71.54-2.91,3.15-2.91,2.83,0,3.01,1.49,2.98,2.67v5.33c0,.43.06.85.18,1.26h-1.97ZM542.98,711.87c-.51.35-1.14.7-1.68,1.15-.3.26-.35.7-.35,1.09,0,.69.21,1.15.98,1.15,1.23,0,1.01-1.55,1.06-2.42v-.98Z"/>
      <path class="cls-5" d="M549.89,708.52h.03c.46-1.04,1.39-1.17,1.87-1.17,1.18,0,2.14.69,2.08,2.3v6.96h-2.08v-6.02c0-.88-.1-1.46-.88-1.49s-1.06.7-1.02,1.66v5.84h-2.08v-9.03h2.08v.93Z"/>
      <path class="cls-5" d="M560.32,715.66h-.03c-.4.91-.98,1.15-1.79,1.2-1.76,0-2.13-1.6-2.18-3.04v-3.27c.05-2.48.83-3.17,2.18-3.2.88-.02,1.44.29,1.86,1.15h.03c-.05-.27-.06-.53-.06-.8v-3.09h2.08v12h-2.08v-.96ZM560.32,710.95c.03-.72,0-2-.98-2s-.88.85-.94,1.74v3.01c.05.86.27,1.55.91,1.55s1.01-.56,1.01-1.6v-2.71Z"/>
      <path class="cls-5" d="M569.19,716.62c-.14-.29-.16-.61-.13-.93h-.03c-.24.37-.51.67-.83.86-.3.19-.64.3-.99.3-1.68,0-2.42-.85-2.42-2.71,0-2.07,1.46-2.56,3.09-3.23.88-.37,1.2-.77,1.02-1.5-.1-.4-.42-.46-.98-.46-.94,0-1.1.5-1.09,1.31h-1.98c-.02-1.71.54-2.91,3.15-2.91,2.83,0,3.01,1.49,2.98,2.67v5.33c0,.43.06.85.18,1.26h-1.97ZM568.9,711.87c-.51.35-1.14.7-1.68,1.15-.3.26-.35.7-.35,1.09,0,.69.21,1.15.98,1.15,1.23,0,1.01-1.55,1.06-2.42v-.98Z"/>
      <path class="cls-5" d="M578.42,708.26c.02-1.07-.08-2.13-1.31-2.13-.75,0-1.23.3-1.23,1.12,0,.91.58,1.26,1.28,1.71.74.46,2.1,1.36,2.72,1.97.77.75,1.01,1.47,1.01,2.51,0,2.27-1.51,3.46-3.7,3.46-2.69,0-3.65-1.5-3.65-3.65v-.88h2.24v.71c-.05,1.17.3,2.02,1.41,2.02.94,0,1.39-.5,1.39-1.41,0-.71-.32-1.18-.9-1.58-1.17-.91-2.63-1.57-3.54-2.77-.37-.54-.58-1.2-.58-1.84,0-2.05,1.15-3.17,3.52-3.17,3.57,0,3.47,2.75,3.49,3.94h-2.16Z"/>
      <path class="cls-5" d="M583.14,710.7c-.1-2.13.99-3.34,3.04-3.34,2.9,0,3.2,1.5,3.2,3.97v1.22h-4.16v1.31c.02,1.18.46,1.41,1.09,1.41.77,0,.99-.56.96-1.7h2.08c.08,2.02-.75,3.3-2.88,3.3-2.4,0-3.38-1.14-3.33-3.79v-2.37ZM587.3,710.94v-.78c-.02-.91-.26-1.2-1.09-1.2-1.04,0-.99.8-.99,1.62v.37h2.08Z"/>
      <path class="cls-5" d="M591.78,710.7c-.1-2.13.99-3.34,3.04-3.34,2.9,0,3.2,1.5,3.2,3.97v1.22h-4.16v1.31c.02,1.18.46,1.41,1.09,1.41.77,0,.99-.56.96-1.7h2.08c.08,2.02-.75,3.3-2.88,3.3-2.4,0-3.38-1.14-3.33-3.79v-2.37ZM595.94,710.94v-.78c-.02-.91-.26-1.2-1.09-1.2-1.04,0-.99.8-.99,1.62v.37h2.08Z"/>
    </g>
  </g>
</svg>
