<svg version="1.1" xmlns="http://www.w3.org/2000/svg" viewBox="0 0 206 220">
<style type="text/css">
	path {fill:#fff}
</style>
<g>
	<path d="M39.7,109.9L39.7,109.9l-3.7,0c-5.1,0-9.7,3.4-10.8,8.4c-1.4,6.8,3.8,12.9,10.4,12.9h133.7
		c5.1,0,9.7-3.5,10.7-8.4c1.4-6.9-3.8-12.9-10.5-12.9h-4.4v0c-9.6,0.3-17.7-7-22.7-15H61.2C56.5,102.2,48.9,109.6,39.7,109.9"/>
	<path d="M48.5,89.3h15.8c0,0,0,0,0,0h75.1v0h14.9c5.4,0,10.4-3.8,11.1-9.2c0.8-5.7-3-10.7-8.2-11.9l0,0
		c-18.1-0.8-41.9-26.3-50.7-37.4V11.5c0-2.5-2-4.5-4.5-4.5s-4.5,2-4.5,4.5v19.4c-9,11.3-33.4,37.3-51.6,37.3v0
		c-5.3,1.1-9.2,6.1-8.4,11.9C38.1,85.5,43.1,89.3,48.5,89.3"/>
	<path d="M33.9,179.3V218h58.8v-16.3c0-5.1,4.1-9.2,9.2-9.2c5.1,0,9.2,4.1,9.2,9.2V218H170v-38.7H33.9z"/>
	<path d="M198,160.8c-1-5-5.7-8.4-10.8-8.4h-4c-13.4-0.6-23.5-7.4-29.5-15.5H50.2c-6.4,9-16.7,14.9-29.5,15.5H18
		c-5.1,0-9.7,3.4-10.8,8.4c-1.4,6.9,3.8,12.9,10.4,12.9h16.3v0H170v0h17.6C194.2,173.7,199.5,167.6,198,160.8"/>
</g>
</svg>
