<svg version="1.1" xmlns="http://www.w3.org/2000/svg" viewBox="0 0 75 75" style="transform: scale(-1,1);">
<style type="text/css">
	.st0{fill:#FFFFFF;}
</style>
<g>
	<path class="st0" d="M70.8,53.6c-1.3,2-10.8,12.5-16.1-7.3c-7.5-28.4-29.5-17-33.6-16.6s-7.8-8.4-7.8-8.4s3-1.9,6.3-4.8
		s0.7-4.1-3-2c-4.8,2.8-3.4,1-0.9-2.6c1.9-2.8-1.1-3.1-2.9-1.4c-1.8,1.7-2.4,2.2-4,4.1c-1.6,2-2.1,1.2-4,2.5c-2,1.3-2.3,3.1-4.1,5.6
		c-1.8,2.5-0.7,3.3,4,2.5c2.6-0.5,5.8,2.4,6.2,5.7c0.2,1.9,0.5,2.8,1.2,4.5c1.1,2.6,3.2,4.3,2.9,5.6c-0.2,0.9-1.7,5.3-1.7,6
		c0,1,0,4.9,0.1,6.7c0,0.5,0.9,0.8,1.3,0.6l1-0.4c0.3-0.1,0.5-0.4,0.5-0.7c0,0,0-2.5,0.1-2.8l0.4-1.9c0.7-2.1,2.3-3.6,2.3-3.6
		c0.1-0.2,0.4-0.2,0.5-0.1l5.5,4c2.5,1.8,4.6,4.2,6.2,6.9l2.7,4.6c0.1,0.3-0.1,0.5-0.4,0.5c-7.6-2.2-13.6,1.6-16,3.4
		c-0.4,0.3-0.2,0.9,0.3,0.9h26.8c0.4,0,0.6-0.4,0.5-0.7c-0.7-1.8-2.6-6.8-4.2-9.7c-2-3.6,2.8-5,5.1-1.5c2.3,3.5,7.8,12,15.5,12.2
		c8,0.2,11.5-6,13-10.8C76.1,49.8,72.5,51.1,70.8,53.6z"/>
</g>
</svg>
