<svg version="1.1" xmlns="http://www.w3.org/2000/svg" viewBox="0 0 1273.9 581.2">
<style type="text/css">
	.st0{display:none;}
	.st1{fill-rule:evenodd;clip-rule:evenodd;fill:none;stroke:#D2D2D2;stroke-width:1.5;stroke-miterlimit:10;}
	.st2{fill-rule:evenodd;clip-rule:evenodd;fill:#E2E2E3;}
	.st3{fill:none;stroke:#FFFFFF;stroke-width:1.5;stroke-miterlimit:10;}
	.st4{fill:none;stroke:#FFFFFF;stroke-width:1.5;stroke-miterlimit:10;stroke-dasharray:3.9662,3.9662;}
	.st5{fill-rule:evenodd;clip-rule:evenodd;fill:none;stroke:#000000;stroke-miterlimit:10;}
	.st6{fill:#4EA1E1;}
	.st7{fill:none;stroke:#4EA1E1;stroke-miterlimit:10;}
	.st8{fill:none;stroke:#6E6E6D;stroke-miterlimit:10;}
	.st9{fill:none;stroke:#6E6E6D;stroke-miterlimit:10;stroke-dasharray:4.0128,4.0128;}
	.st10{fill-rule:evenodd;clip-rule:evenodd;fill:none;stroke:#6E6E6D;stroke-miterlimit:10;}
	.st11{fill:#1D1D1B;}
	.st12{fill:#20201E;}
	.st13{fill:#6E6E6D;}
	.st14{fill:none;stroke:#000000;stroke-width:1.5;stroke-miterlimit:10;}
</style>
<g id="Vorlage" class="st0">
</g>
<g id="Australien">
	<g>
		<path class="st1" d="M61.8,479.7l-10.2,7.2c-0.4,0.3-0.8,0.5-1.3,0.6l-17,3.6c-0.8,0.2-1.7,0.1-2.4-0.3l-14-7.5
			c-1.1-0.6-1.9-1.8-1.9-3.1v-7.5c0-1.3,0.7-2.5,1.9-3.1l3.5-1.8v-11.9l-13-35.6l-3.2-11.6c-0.3-1.2,0-2.5,0.9-3.4l3.7-3.8
			l-8.1-10.9c-0.7-0.9-0.9-2.1-0.5-3.1l6.6-21c0.2-0.8,0.7-1.4,1.4-1.9l22.5-14.8c0.2-0.1,7.3-2.5,21.3-7.2
			c0.2-0.1,4.3-0.3,12.2-0.8l9.1-14.4v-6.8c0-1,0.4-2,1.2-2.6l4.9-4.4c0.6-0.5,1.3-0.8,2.1-0.9l7.3-0.6l12.4-16.9
			c0.4-0.6,1-1,1.7-1.3l12.1-4c1.2-0.4,2.4-0.1,3.4,0.6l9.2,7.7h6.2l7.8-18.2c0.3-0.7,0.8-1.2,1.4-1.6l15-9.4c1-0.6,2.2-0.7,3.3-0.2
			l20.6,8.9l14.8-3.1c2.7-0.6,5,2.1,4,4.7l-8.6,22.1l13.1,12.9l18.9,9.1l5.4-8.5l1.3-22l6.1-29.2c0.7-3.1,4.8-3.8,6.4-1.1l10.1,16.5
			c0.2,0.3,0.3,0.6,0.4,0.9l4.3,14.6l8,3.8c0.9,0.4,1.6,1.2,1.9,2.2l5.3,18.8l3.9,13.8l19.7,13.2c0.7,0.5,1.2,1.2,1.4,2.1l1.9,7.5
			l11.8,9.8c0.4,0.3,0.7,0.7,0.9,1.2l6.4,13.6l12.8,12.5c0.5,0.5,0.9,1.2,1,2l4.1,27.9c0.1,0.4,0.1,0.7,0,1.1l-4.8,29.8
			c-0.1,0.5-0.3,1-0.6,1.5l-13.3,18.8l-9.1,25.5l-1.4,12.7c-0.2,1.5-1.3,2.8-2.8,3.1l-17.8,3.4l-11,10.1c-1.2,1.1-3,1.2-4.3,0.4
			l-6.8-4.5c-1.4-0.9-3.3-0.8-4.5,0.5l-4,3.9c-1.1,1.1-2.7,1.3-4,0.7l-13.6-6.7l-14.8-2.4c-1.3-0.2-2.4-1.1-2.8-2.4l-7-22.2H210
			c-1.8,0-3.3-1.3-3.5-3.1l-0.5-4.7c-0.1-0.7-0.9-1-1.4-0.6l-3,2.5c-2.6,2.1-6.4-0.3-5.6-3.5l1.2-5.2c0.2-0.9-0.9-1.4-1.5-0.8
			l-5.2,5.5c-1.6,1.7-4.4,1.4-5.6-0.7l-9.8-17.1l-8.3-9h-7c-0.4,0-0.8-0.1-1.1-0.2l-7.9-2.6h-14.1l-15.1,5.8
			c-0.4,0.2-0.8,0.2-1.3,0.2H108L95.6,469l-1.4,7.8c-0.3,1.7-1.8,2.9-3.5,2.9L61.8,479.7z M291,542.1c2.4-0.5,4.5,1.5,4.2,3.9
			l-3.6,25.5c-0.1,0.9-0.6,1.8-1.4,2.3l-8.3,6.1c-0.6,0.4-1.3,0.7-2.1,0.7h-8.6c-1.3,0-2.5-0.7-3.1-1.9l-5.8-11.5
			c-0.1-0.3-0.2-0.6-0.3-0.9l-4.1-20.2c-0.5-2.5,1.7-4.7,4.2-4.1l10.5,2.3c2.6,0.6,5.3,0.6,7.9,0L291,542.1z"/>
	</g>
	<path class="st1" d="M1273.9,54.6c-0.6-1-1.2-1.8-1.7-2.4c-2.6-3.3-4-1-10.2,2.6c-6.3,3.6-12.9,0-18.2-2.3
		c-5.3-2.3-5.3,5.9-8.6,6.3c-3.3,0.3-2-9.2-3.6-12.2s-2.6-2-8.9,0s-7.3-4.3-5-7.6c2.3-3.3,2.3-3-2.6-4.3s-7.9,6.3-15.5,6.6
		c-7.6,0.3-14.2-5.9-16.8-7.3s-3,3.6-9.6-0.7c-6.6-4.3-9.6-18.8-13.2-21.8c-3.6-3-6.6,6.9-11.6,10.2c-5,3.3-4.6-1.7-5.9-5.6
		c-1.3-4-9.6-11.2-9.6-11.2l-6.3-4c0,0-11.2-4-7.6,3.3c3.6,7.3-1,9.2-4,8.9c-3-0.3-3.3-9.2-5-10.2c-1.7-1-5-4-5,0.3s-3,0.3-5.3-1
		c-2.3-1.3-5.9,3.6-2,4c4,0.3,7.6,6.6,10.2,9.6c2.6,3-0.3,5.3,3.6,5.9c4,0.7,8.9-5,17.5-6.6s7.9,8.6,5.6,13.5
		c-2.3,5,5.6,0.7,10.2,9.2c4.6,8.6,0,23.1-5.9,22.5c-5.9-0.7-11.2,1.3-20.5,6.6s-9.9,2.6-19.2-0.7c-9.2-3.3-16.5,3.3-24.4,4
		c-7.9,0.7-11.9-11.9-23.8-9.9c-11.9,2,0.7,9.9-5.9,12.6c-6.6,2.6-8.4,7.5-8.4,7.5c-3.7-2.4-6.4-10.6-11-11.2
		c-4.6-0.7-2.4,5.5-1.8,13c0.7,7.5,3.3,9-3.3,8.6c-6.6-0.4-2-4-5.7-5.3s-3.3,9.7-3.7,13.7c-0.4,4-14.1,6.8-15.9,11.2
		c-1.8,4.4,12.1,20.3,12.3,22.5c0.2,2.2-3.7,0.7-7.5,0.2c-3.7-0.4-4.8,6.8-11.9,10.8s-6.4-2.9-9.5-3.3c-3.1-0.4-0.9,12.6-1.1,19.6
		c-0.2,7-3.5,2.6-5.5,7.9s0.9,9.5-4.2,10.8c-5.1,1.3-12.1,9.7-16.5,19.8s9.7,10.6,17.2,10.3c7.5-0.2,6.8,0.7,3.1,6.2
		c-3.7,5.5-2.2,11,4,13.2c6.2,2.2,8.6-7,12.1-6.6c3.5,0.4-3.1,6.4-6.2,6.4c-3.1,0-0.7,8.4-2.4,9.9c-1.8,1.5-8.6-5.9-11.2-5.5
		s2.4,16.3,8.8,23.6s11.2,8.8,20.7,10.1c9.5,1.3-0.2,4-4.2,3.3s-8.8,0.4-15.6,0.9c-6.8,0.4-0.9-11.9-1.8-13.7
		c-0.9-1.8-3.1,0.7-4.8,1.1c-1.8,0.4-1.8-5.1-4.4-6.2c-2.6-1.1-3.3,5.3-6.6,2.4c-3.3-2.9-1.1-11.2-2.2-13.9s-2.9-1.3-3.5-0.2
		c-0.7,1.1-6.4-5.3-9-7.5c-2.6-2.2-3.1,15.2-3.5,21.6c-0.4,6.4-4,0-4.8-7.5c-0.9-7.5-4.2-8.6-14.1-13.2c-9.9-4.6-26.9-6.4-28.8-4.8
		s1.8,8.8,2.4,14.3c0.7,5.5-2.6,3.7-4.8,1.3c-2.2-2.4-2.9-0.4-2,2.6c0.9,3.1-1.5,1.8-3.3-0.7c-1.8-2.4-3.3-7.5-5.5-4.4
		s2.4,16.5,6.2,24.7s0.2,9.9-2,4.8c-2.2-5.1-5.7-14.3-8.1-16.1c-2.4-1.8-2,3.7-1.5,8.6c0.4,4.8-6.4,13.4-13.9,17.6s-1.5-1.8,4-6.2
		c5.5-4.4,5.3-10.1,6.6-16.3c1.3-6.2-0.9-16.5-0.4-21.8s3.6-8.5,6.1-11s2.5-3,0.2-4.1c-2.3-1.2-16.3-13.7-24.3-21
		s-21.3-27.7-25.9-31s-11.4,2.8-14.4,2.1c-3-0.7-6.1-11.1-8.4-14.4c-2.3-3.3-9.4-0.5-13,1.8s6.4,9.2,8.9,12.6s-5.9,3-8.4,2.3
		c-2.5-0.7-4.1,0.2-3.1,2.3c1,2.1,0.3,8.3-0.5,8.9c-0.8,0.7-2.3-4.3-3.6-5.9s-1.8,6.4-3.5,10.6c-1.7,4.1-2.1-3.6-2.1-5.9
		c0-2.3-3.6,0.3-5.3-1.7s2.1-9.6,2.8-12.2c0.7-2.6-8.1,3-10.2,8.3c-2.1,5.3-5.3,11.4-8.6,11.9c-3.3,0.5-1.3-13.5-1.5-18.3
		c-0.2-4.8-7.8-5.3-9.6-4.1s2.8,7.8,2.3,9.2c-0.5,1.5-7.1,2.1-4.3,3.1c2.8,1,6.4,0.2,7.9,4c1.5,3.8-5.1,10.9-6.9,13.7
		c-1.8,2.8,1,8.9-0.8,10.7c-1.8,1.8-5.8,0.3-5.8,2s0.5,6.3-1.2,6.8c-1.7,0.5-2.1-5.4-2.8-11.2c-0.7-5.8-1.7-3.1-4.8,3.5
		c-3.1,6.6-6.3,7.1-7.6,4c-1.3-3.1,2.1-13,3.6-18.3c1.5-5.3-3.1-5.1-5-4.1c-1.8,1-1.2,13-1.8,17.8c-0.7,4.8-2.5,4.8-4,2
		c-1.5-2.8-1-3.1-3.5-0.3c-2.5,2.8-3.3,5.3-5.6,3.6c-2.3-1.7-3.6-3.3-5.6-2.3c-2,1-1.5,3.5,0.7,5.1c2.1,1.7-2.6,3.3-6.4,5.3
		c-3.8,2-2,4.5,0.8,6.1s7.4,3.3,7.4,5.1c0,1.8-7.1,3.8-3.8,7.6c3.3,3.8,3.8-1.5,6.1-2c2.3-0.5,6.6,7.9,5.8,11.1
		c-0.8,3.1-8.3,2.8-11.4,0.8c-3.1-2-3-0.5-6.6-0.2c-3.6,0.3-2.3-2.6-2.1-6.9c0.2-4.3-2.1-3.8-4.3-0.5s-6.6,4.3-11.4,5.3
		c-4.8,1,4.8,3.5,8.6,2.6s3.5,0.5-2.3,5.8s1,4.8,4.3,4s5.3,0.7,4,4.1c-1.3,3.5-0.7,5.9,4,8.9c4.6,3,7.1,7.1,5.1,9.2
		s-9.9-8.3-14.4-12.7c-4.5-4.5-17-8.6-19.7-9.7c-2.6-1.2-1.2,3.1,0,3.3c1.2,0.2,1.7,3.1,1.7,6.4s-5.1,4.4-9.7,3.1s-9,4.8-10.1,13.9
		c-1.1,9,2.2,10.1,3.5,7.9c1.3-2.2,1.8,3.1,1.3,8.4c-0.4,5.3,2.9,3.5,3.5,0.9c0.7-2.6,0.9-5.9,1.8-7.9c0.9-2,6.2-2.9,8.1-5.7
		c2-2.9,4.6-3.3,4.4,0.7c-0.2,4-3.5,7.3-7.7,11.4s-4,9.2-3.7,13.9c0.2,4.6-1.3,6.6-3.7,5.9s-1.8-3.3-3.1-7.5c-1.3-4.2-3.1,1.3-4,7
		c-0.9,5.7,0.9,8.6,3.3,8.6c2.4,0,15.9,0.7,25.5,2.2s1.1,4.2-4.2,4c-5.3-0.2-14.8-0.7-21.6-1.1s-3.7,1.3,0.2,4.2
		c4,2.9-0.7,3.7-4.8,1.8s-17.2-13.7-20.9-16.5c-3.7-2.9,1.3,3.3,3.3,6.4s-3.5,2.6-5.7,0.9c-2.2-1.8-3.7-1.3-4,2.2
		c-0.2,3.5-2.9,6.2-2.9,3.5c0-2.6-0.9-9.2-3.1-14.3s-7-5.3-9.7-4.6s0.2,7,2.4,5.7s4.6,0.7,4.4,4c-0.2,3.3-2.9,4.6-5.3,5.1
		c-2.4,0.4,0.4,6.6-1.5,7.5c-2,0.9,0,4-2,6.8c-2,2.9,0.1,6.1,4.4,11.7s8.6,3,12.9,1.7c4.3-1.3,7.9,2,5.6,4.3
		c-2.3,2.3-7.9,5.3-7.6,9.2s-2,10.6-4.6,10.6s-10.9-9.9-11.9-7.9c-1,2,4.6,8.9,6.9,11.2c2.3,2.3-3.6,5.3-5.6,8.9
		c-2,3.6,0,13.5,3,21.8s4.3,13.2,1,11.2s-6.6-12.9-8.9-22.8c-2.3-9.9-7.6-19.5-13.9-28.1s-7.9-11.9-6.6-14.2
		c1.3-2.3-2.3-1.7-3.3-3.3c-1-1.7,1.3-6.3-1.3-6.6c-2.6-0.3-5.9-0.3-5-2.3s-1.7-2.6-4.6-2.6s-1-5.3,2.6-9.6c3.6-4.3-0.3-6.3-3.3-4.3
		c-3,2-6.3,5.3-8.9,8.6c-2.6,3.3-2.3,8.6,2.3,13.5s-6.9,1.7-10.6,0.3c-3.6-1.3-4.3-0.3-4,3.3c0.3,3.6,0.3,8.6-1.7,10.2
		c-2,1.7-5.9-4-7.9-1.3c-2,2.6-6.6,5.6-14.2,18.8s1,29.4,1.3,38.3c0.3,8.9,0.3,12.2,6.3,10.6s8.6,1.7,7.3,6.9S503,476.7,498.1,477
		c-5,0.3-6.6-0.3-5.9,4.6c0.7,5,0.1,9.6-3.4,9.1c-3.5-0.4,2-2.5-5.3,10.1c-33,57-113.2,80.1-113.2,80.1"/>
	<g>
		<line class="st2" x1="932.6" y1="232" x2="937.4" y2="581"/>
		<g>
			<line class="st3" x1="932.6" y1="232" x2="932.7" y2="234"/>
			<line class="st4" x1="932.7" y1="238" x2="937.3" y2="577.1"/>
			<line class="st3" x1="937.4" y1="579" x2="937.4" y2="581"/>
		</g>
	</g>
	<rect x="46.6" y="233.6" class="st5" width="142.7" height="130.8"/>
</g>
<g id="Meer">
	<g>
		<path class="st6" d="M487.4,194.4h2.5v11.4h-2.5V194.4z"/>
		<path class="st6" d="M495.3,194.4h2.5l4.8,7.7h0v-7.7h2.4v11.4h-2.5l-4.8-7.7h0v7.7h-2.4V194.4z"/>
		<path class="st6" d="M510.4,194.4h4.9c3,0,5.2,1.9,5.2,5.7c0,3.3-1.7,5.8-5.2,5.8h-4.9V194.4z M512.9,203.7h2.2
			c1.5,0,2.8-0.9,2.8-3.4c0-2.3-0.8-3.8-3.3-3.8h-1.8V203.7z"/>
		<path class="st6" d="M525.5,194.4h2.5v11.4h-2.5V194.4z"/>
		<path class="st6" d="M535.1,202.1c0,1.5,1.2,2.1,2.5,2.1c0.9,0,2.2-0.3,2.2-1.4c0-1.2-1.7-1.4-3.4-1.9c-1.7-0.4-3.4-1.1-3.4-3.2
			c0-2.3,2.2-3.5,4.3-3.5c2.4,0,4.6,1,4.6,3.7h-2.4c-0.1-1.4-1.1-1.7-2.3-1.7c-0.8,0-1.7,0.3-1.7,1.3c0,0.9,0.5,1,3.4,1.7
			c0.8,0.2,3.4,0.7,3.4,3.3c0,2.1-1.6,3.7-4.8,3.7c-2.5,0-4.9-1.2-4.9-4.1H535.1z"/>
		<path class="st6" d="M554.6,198.3c-0.2-1.1-1.2-2-2.5-2c-2.3,0-3.1,1.9-3.1,3.9c0,1.9,0.8,3.8,3.1,3.8c1.5,0,2.4-1.1,2.6-2.6h2.4
			c-0.3,2.8-2.2,4.7-5,4.7c-3.5,0-5.6-2.6-5.6-5.9c0-3.4,2.1-6,5.6-6c2.5,0,4.6,1.5,4.9,4.1H554.6z"/>
		<path class="st6" d="M562,194.4h2.5v4.4h4.6v-4.4h2.5v11.4h-2.5v-4.9h-4.6v4.9H562V194.4z"/>
		<path class="st6" d="M577.1,194.4h8.5v2.1h-6v2.4h5.5v2h-5.5v2.8h6.2v2.1h-8.7V194.4z"/>
		<path class="st6" d="M590.6,194.4h6.2c2,0,3.3,1.4,3.3,3.2c0,1.3-0.5,2.4-1.8,2.9v0c1.2,0.3,1.6,1.5,1.7,2.7c0,0.7,0,2.1,0.5,2.7
			H598c-0.3-0.7-0.3-1.8-0.4-2.7c-0.2-1.2-0.6-1.7-1.9-1.7h-2.5v4.5h-2.5V194.4z M593.2,199.6h2.8c1.1,0,1.7-0.5,1.7-1.6
			c0-1.1-0.6-1.6-1.7-1.6h-2.8V199.6z"/>
		<path class="st6" d="M518.4,213.3c3.5,0,5.6,2.6,5.6,6c0,3.3-2.1,5.9-5.6,5.9s-5.6-2.6-5.6-5.9C512.7,216,514.8,213.3,518.4,213.3
			z M518.4,223.2c2.3,0,3.1-1.9,3.1-3.8c0-2-0.8-3.9-3.1-3.9s-3.1,1.9-3.1,3.9C515.3,221.3,516.1,223.2,518.4,223.2z"/>
		<path class="st6" d="M528.1,223.1l6.1-7.3h-5.7v-2.1h9v2l-6.1,7.3h6.3v2.1h-9.6V223.1z"/>
		<path class="st6" d="M542.4,213.6h2.5V225h-2.5V213.6z"/>
		<path class="st6" d="M553.5,213.6h2.6l4.3,11.4h-2.6l-0.9-2.5h-4.3l-0.9,2.5h-2.5L553.5,213.6z M553.3,220.6h3l-1.4-4.2h0
			L553.3,220.6z"/>
		<path class="st6" d="M564.5,213.6h2.5l4.8,7.7h0v-7.7h2.4V225h-2.5l-4.8-7.7h0v7.7h-2.4V213.6z"/>
	</g>
	<g>
		<path class="st6" d="M835.6,121.3h-3.4v-2.1h9.4v2.1h-3.4v9.3h-2.5V121.3z"/>
		<path class="st6" d="M846.1,119.2h2.5v11.4h-2.5V119.2z"/>
		<path class="st6" d="M854,119.2h3.5l2.7,7.9h0l2.5-7.9h3.5v11.4h-2.4v-8.1h0l-2.8,8.1h-1.9l-2.8-8h0v8H854V119.2z"/>
		<path class="st6" d="M876.8,118.9c3.5,0,5.6,2.6,5.6,6c0,3.3-2.1,5.9-5.6,5.9c-3.5,0-5.6-2.6-5.6-5.9
			C871.2,121.6,873.3,118.9,876.8,118.9z M876.8,128.8c2.3,0,3.1-1.9,3.1-3.8c0-2-0.8-3.9-3.1-3.9s-3.1,1.9-3.1,3.9
			C873.7,126.9,874.6,128.8,876.8,128.8z"/>
		<path class="st6" d="M887.3,119.2h6.2c2,0,3.3,1.4,3.3,3.2c0,1.3-0.5,2.4-1.8,2.9v0c1.2,0.3,1.6,1.5,1.7,2.7c0,0.7,0,2.1,0.5,2.7
			h-2.5c-0.3-0.7-0.3-1.8-0.4-2.7c-0.2-1.2-0.6-1.7-1.9-1.7h-2.5v4.5h-2.5V119.2z M889.8,124.4h2.8c1.1,0,1.7-0.5,1.7-1.6
			c0-1.1-0.6-1.6-1.7-1.6h-2.8V124.4z"/>
		<path class="st6" d="M903.8,126.8c0,1.5,1.2,2.1,2.5,2.1c0.9,0,2.2-0.3,2.2-1.4c0-1.2-1.7-1.4-3.4-1.9c-1.7-0.4-3.4-1.1-3.4-3.2
			c0-2.3,2.2-3.5,4.3-3.5c2.4,0,4.6,1,4.6,3.7h-2.4c-0.1-1.4-1.1-1.7-2.3-1.7c-0.8,0-1.7,0.3-1.7,1.3c0,0.9,0.5,1,3.4,1.7
			c0.8,0.2,3.4,0.7,3.4,3.3c0,2.1-1.6,3.7-4.8,3.7c-2.5,0-4.9-1.2-4.9-4.1H903.8z"/>
		<path class="st6" d="M915.7,119.2h8.5v2.1h-6v2.4h5.5v2h-5.5v2.8h6.2v2.1h-8.7V119.2z"/>
		<path class="st6" d="M929.2,119.2h8.5v2.1h-6v2.4h5.5v2h-5.5v2.8h6.2v2.1h-8.7V119.2z"/>
	</g>
</g>
<g id="Flüsse">
	<path class="st7" d="M603.4,429.6c0,0-0.7,5.4,2.5,12.2c3.1,6.8,11.9,24.3,17.7,23c5.8-1.3,8.4-5.3,11.7-3c3.3,2.3,4.5,4.3,9.9,5.3
		s8.9,0.3,10.1,5.1c1.2,4.8,4.5,3.6,4.6,7.3c0.2,3.6-1.8,9.2-0.3,15.9c1.5,6.6,5.1,10.1,5.4,14.4c0.3,4.3-0.8,11.6,5.4,12.4
		c6.3,0.8,9.2,5.9,13.9,8.9s17.8,3.3,24.8,6.3s15.4,8.4,21.3,4.1c5.9-4.3,8.8-3,15.4-4.6c6.6-1.7,14-15.4,13.4-27.4
		c-0.7-12.1,0-19.5-1.3-24.9s-2.5-7.1,0-11.2c2.5-4.1,2.1-9.7-0.2-12.2"/>
	<path class="st7" d="M780.4,191.1c0,0-3.7,3.7-1.4,7.6c2.3,3.9,4.6,2.7,4.1,7c-0.5,4.4-2.9,4.6-2.5,8c0.3,3.3,0.2,6.1-2.3,6.5
		c-2.5,0.3-8.9-4.8-13.8-1.2c-5,3.7-12.2,8.2-13.3,10c-1,1.8,0.1,3.9,1.8,6.9s1.6,5.4-0.2,7c-1.8,1.6-1.4,2.3-2.1,5
		c-0.7,2.7-2.5,4.1-4,5.1c-1.5,0.9-2.1,2.2-1.5,7.6c0.6,5.4,2.7,6.8-0.7,7.4s-5.5-0.9-6.9,0.8c-1.4,1.7-1.6,4.7-3.7,5.8
		c-2.1,1-3,0.9-3,0.9"/>
	<path class="st7" d="M798.7,185.5c0,0,5.4,6.9,2.3,11.4c-3.1,4.5-6.6,8.1-8.4,8.3c-1.8,0.2-2.4,0.6-1.2,3.7
		c1.3,3.1,1.2,3.9-0.5,5.4c-1.6,1.5-2.4,4.7-2.4,8.9s-1,5.1-3.3,7.4c-2.3,2.3-4.3,4.1-3.8,14.2c0.5,10,0.8,13.4-1.6,15.8
		c-2.4,2.4-2.7,1.5-4.3,6.5c-1.6,5-2.3,9.8-6.6,13.7s-7.1,6.2-7.3,9.3s1.6,7.6-0.6,9.8c-2.2,2.2-5.5,2.8-7.4,5.8
		c-1.8,3-4.7,6-4.3,9.3c0.5,3.3,2.5,5.6,2.5,5.6"/>
	<path class="st6" d="M909.9,302.5c0,0-0.2,5.8,2,6.4c2.1,0.7,4.6-1.2,6.1,1c1.5,2.1,2.1,5.1,4.1,3.8s3.3-4.6,5.4-3s4.1,1.2,1.7,6.6
		c-2.5,5.4-1.2,6.6-3.1,10.7c-2,4.1-4,5.4-5.3,3.1s-2-4.6-4.1-3s-5.9,1.3-2.6,3s7.1,0.8,5.3,2.6c-1.8,1.8-3.6,1.8-4,3.6
		c-0.3,1.8-2.8,6.6-5.9,8.4c-3.1,1.8-6.8,0.7-4.6-1.8s5-5.9,2.8-5.8c-2.1,0.2-9.7-0.5-6.9-3.3c2.8-2.8,6.1-3.5,5.4-7.3
		c-0.7-3.8-0.5-7.4,2.8-8.1s3.3-0.7,3.3-0.7s2.6-0.8-0.2-3c-2.8-2.1-5.8-4-5-7.3C907.9,305.4,909.9,302.5,909.9,302.5z"/>
</g>
<g id="Straße">
	<g>
		<g>
			<path class="st8" d="M604.6,404c0,0,0.5,0.6,1.3,1.5"/>
			<path class="st9" d="M608.8,408.4c2.5,2.2,5.4,4.2,7.3,3.2c3.6-2,8.9-6.2,12.8-4.6c3.9,1.6,10.8,3.3,15.4,2
				c4.6-1.3,7.2-0.7,9.8,1.3s10.2,1.3,12.8-1.6c2.6-3,4.9-12.8,8.5-15.4c3.6-2.6,8.5-4.3,11.1-4.3s5.9-5.9,7.9-3.9
				c2,2,3.9,5.9,5.9,5.9s4.3-4.9,6.9-4.3c2.6,0.7,4.3,3,6.2,1.6c2-1.3,3.6-13.4,6.6-15.1c3-1.6,7.9,0.7,12.1-6.9
				c4.3-7.5,13.8-17.7,19-19c5.2-1.3,15.1-7.5,16.7-12.1s-2.3-6.9-2.6-9.8c-0.3-3,2.6-5.6,7.5-8.9c4.9-3.3,14.8-10.5,17.4-9.8
				s6.2,5.2,10.8,3c4.6-2.3,13.8-10.8,19-13.1c5.2-2.3,13.8-2,18.7-4.3s10.2-4.9,13.8-1.3c3.6,3.6,7.9,6.6,20,4.3s16.1-5.2,20.7-5.9
				c4.6-0.7,9.8-1.6,19.3,2c1.5,0.6,2.7,1,3.7,1.3"/>
			<path class="st8" d="M918.1,293.2c2.3,0.6,0.7-0.3,0.7-0.3"/>
		</g>
	</g>
	<path class="st8" d="M614.7,430.4c0,0,41.3,37,58.5,39c17.2,2,33,4.3,35.7,7.3c2.6,3,3,6.6,8.3,7.3c5.3,0.7,15.2,0.3,17.8,4.3
		s5,10.9,7.9,13.2s7.5,1.4,7.7,5.8c0.2,4.4-3.3,11.7,0.9,13.4s23.1,7.9,32.6,7.7c9.5-0.2,31.3-3.1,34.3-7c3.1-4,4.2-6.6,8.1-6.4
		c4,0.2,5.1-1.3,6.4-4s5.1,0,8.1-1.3s23.1-21.6,26.2-26.6s6.6-17.6,6.6-25.5c0-7.9,3.1-7.7,4.4-9.2s-0.2-2.9-1.5-7.3
		c-1.3-4.4,2-6.6,0.2-10.8c-1.8-4.2-7.9-10.3-7.5-15.9s7-8.6,8.8-15.2c1.8-6.6,0-12.1,2-16.3c2-4.2,4-2.4,3.5-8.6s-2-9,1.1-11.9
		c3.1-2.9,7-5.1,7-13.2c0-8.1,0.9-13.7,1.3-17.8s-5.1-8.4-6.8-11.7c-1.8-3.3-2.2-7.9,0.9-11.7c3.1-3.7,7.9-11.4,5.7-14.8
		c-2.2-3.3-8.1-7.5-9.9-13.9c-1.8-6.4-4.8-10.6-4.8-10.6"/>
	<path class="st8" d="M604.8,403.5c0,0,1,14,3,15c2,1,1.7-3.6,5.9-1.7c4.3,2,5.6,5,3,10.2s-10.9,17.2-15.2,15.9s-3.9-10.3-6.6-8.9
		c-6.3,3.3-11.7-1.7-14.7-2.5c-8.6-2.1-9.9,5-16.2,8.3c-6.3,3.3-14.4-1.5-23.6,1.2c-9.2,2.6-11.1,4-11.1,4"/>
	<path class="st8" d="M1045.3,77.7c0,0-1.7,54.2,7.9,59.8c9.6,5.6,20.1,10.2,22.8,14.5s9.9,3.3,10.2,9.9c0.3,6.6-1.3,11.6,7.9,12.2
		c9.2,0.7,12.9,5,14.5,12.2s9.6,19.5,9.6,19.5s-9.9,13.2-14.9,20.1c-5,6.9-16.8,27.4-19.5,33.4s-19.8,12.2-27.4,13.2
		c-7.6,1-11.2,1-13.5,5c-2.3,4-14.9,8.6-21.5,8.6c-6.6,0-8.6-9.2-18.5-9.6c-9.9-0.3-19.5,12.9-28.7,19.2c-9.2,6.3-29.1,8.9-37,9.6
		s-17.8-13.9-17.8-13.9"/>
	<path class="st8" d="M1120.3,206.2c0,0,11.6,1.3,12.9,3.6c1.3,2.3-4,5.6,7.6,7.9c11.6,2.3,25.4,8.6,30.7,23.1
		c5.3,14.5,11.9,25.4,15.5,40c3.6,14.5,4.6,17.5,4.6,24.1c0,6.6-2.6,10.2,0.3,35c3,24.8-2.3,35.3,0,40.6s10.9,32.4,15.2,46.2
		c4.3,13.9,8.9,25.1,12.6,36c3.6,10.9,8.6,8.3,12.6,15.9c4,7.6,6.3,10.9,6.6,19.2c0.3,8.3-7.3,11.9-6.6,26.4
		c0.7,14.5,9.4,56.9,9.4,56.9"/>
	<path class="st10" d="M1025.1,285.7c0,0,1.2,11.6,6.4,14.6c5.2,3.1,12.3,9.2,14.1,14.1c1.7,4.8,9,12.1,17.3,10.6
		c8.3-1.5,21.8-0.8,27.1,2.9c5.4,3.7,16.4,5.4,24.4,8.3c8.1,2.9,22.1,6,33.7,4.8c11.6-1.2,18.3,1.2,23.5-5
		c5.2-6.2,10.5-13.4,13.3-13.9c2.9-0.4,5.5-1.8,5.5-1.8"/>
	<path class="st10" d="M1045.4,96.8c0,0,10.7-0.4,12.5,0.7s6.4,7.7,10.8,7.7s10.8,2.4,13.4,5.7c2.6,3.3,10.6,4,15.6,1.8
		s11.7-5.9,19.6-6.4c7.9-0.4,7.7-6.2,13.2-6.2c5.5,0,6.8,0.4,11-1.5c4.2-2,9.2-1.1,9.2-1.1"/>
	<path class="st10" d="M1087.5,171.5c0,0,13.5-7.7,18.8-8.4c5.3-0.7,13.9-6.2,15.6-14.5c1.8-8.4,4.8-22,5.9-25.3s0.7-8.6,5.5-9.7
		c4.8-1.1,11.2-2.2,12.6-6.6c1.3-4.4,5.3-14.3,7.7-15.6c2.4-1.3,5.7,0.4,7.5-3.5s3.1-9.5,3.1-9.5"/>
</g>
<g id="Text">
	<g>
		<path d="M122.1,399.9h2.6l4.3,11.4h-2.6l-0.9-2.5h-4.3l-0.9,2.5h-2.5L122.1,399.9z M121.9,406.9h3l-1.4-4.2h0L121.9,406.9z"/>
		<path d="M142.9,407c0,3.1-1.8,4.6-4.9,4.6c-3.1,0-4.9-1.5-4.9-4.6v-7.1h2.5v7.1c0,1.2,0.3,2.5,2.4,2.5c1.8,0,2.4-0.8,2.4-2.5v-7.1
			h2.5V407z"/>
		<path d="M149.9,407.5c0,1.5,1.2,2.1,2.5,2.1c0.9,0,2.2-0.3,2.2-1.4c0-1.2-1.7-1.4-3.4-1.9c-1.7-0.4-3.4-1.1-3.4-3.2
			c0-2.3,2.2-3.5,4.3-3.5c2.4,0,4.6,1,4.6,3.7h-2.4c-0.1-1.4-1.1-1.7-2.3-1.7c-0.8,0-1.7,0.3-1.7,1.3c0,0.9,0.5,1,3.4,1.7
			c0.8,0.2,3.4,0.7,3.4,3.3c0,2.1-1.6,3.7-4.8,3.7c-2.5,0-4.9-1.2-4.9-4.1H149.9z"/>
		<path d="M164.3,402h-3.4v-2.1h9.4v2.1h-3.4v9.3h-2.5V402z"/>
		<path d="M174.8,399.9h6.2c2,0,3.3,1.4,3.3,3.2c0,1.3-0.5,2.4-1.8,2.9v0c1.2,0.3,1.6,1.5,1.7,2.7c0,0.7,0,2.1,0.5,2.7h-2.5
			c-0.3-0.7-0.3-1.8-0.4-2.7c-0.2-1.2-0.6-1.7-1.9-1.7h-2.5v4.5h-2.5V399.9z M177.3,405h2.8c1.1,0,1.7-0.5,1.7-1.6
			c0-1.1-0.6-1.6-1.7-1.6h-2.8V405z"/>
		<path d="M192.7,399.9h2.6l4.3,11.4h-2.6l-0.9-2.5h-4.3l-0.9,2.5h-2.5L192.7,399.9z M192.4,406.9h3l-1.4-4.2h0L192.4,406.9z"/>
		<path d="M203.7,399.9h2.5v9.3h5.6v2.1h-8.1V399.9z"/>
		<path d="M216.4,399.9h2.5v11.4h-2.5V399.9z"/>
		<path d="M224.3,399.9h8.5v2.1h-6v2.4h5.5v2h-5.5v2.8h6.2v2.1h-8.7V399.9z"/>
		<path d="M237.9,399.9h2.5l4.8,7.7h0v-7.7h2.4v11.4H245l-4.8-7.7h0v7.7h-2.4V399.9z"/>
	</g>
	<circle class="st11" cx="311.7" cy="480.7" r="4.3"/>
	<circle class="st11" cx="529.3" cy="445.5" r="4.3"/>
	<circle class="st11" cx="562.3" cy="340.5" r="4.3"/>
	<circle class="st11" cx="702.8" cy="400.6" r="4.3"/>
	<circle class="st11" cx="760.9" cy="521.7" r="4.3"/>
	<circle class="st11" cx="744.2" cy="241.2" r="4.3"/>
	<circle class="st11" cx="918.6" cy="292.7" r="4.3"/>
	<circle class="st11" cx="1045.9" cy="78.2" r="4.3"/>
	<circle class="st11" cx="1118.6" cy="205.9" r="4.3"/>
	<circle class="st11" cx="1151.2" cy="97.6" r="4.3"/>
	<circle class="st11" cx="877.9" cy="268.6" r="4.3"/>
	<circle class="st11" cx="871.1" cy="302.8" r="4.3"/>
	<circle class="st11" cx="906.2" cy="379.4" r="4.3"/>
	<circle class="st11" cx="732.7" cy="437.1" r="4.3"/>
	<circle class="st11" cx="76.1" cy="330" r="4.3"/>
	<circle class="st11" cx="145.2" cy="281.5" r="4.3"/>
	<g>
		<path class="st12" d="M321.9,494.8v0.3c0,1.1,0.3,1.8,1.5,1.8c0.7,0,1.4-0.4,1.4-1.4c0-1-0.5-1.4-2-2c-2-0.7-3-1.6-3-3.5
			c0-2.2,1.4-3.4,3.5-3.4c2,0,3.5,0.9,3.5,3.1v0.3h-2.2c0-1.1-0.4-1.7-1.2-1.7c-1,0-1.3,0.7-1.3,1.3c0,0.7,0.2,1.1,1.2,1.6l1.8,0.8
			c1.7,0.8,2.2,1.6,2.2,3c0,2.4-1.5,3.5-4,3.5c-2.6,0-3.6-1.2-3.6-3.3v-0.5H321.9z"/>
		<path class="st12" d="M328.9,499.5c0.2,0,0.4,0,0.6,0c0.8,0,1.1-0.4,1.2-1.2l-2.4-8.6h2.3l1.3,6h0l1.1-6h2.2l-2.1,8
			c-0.8,3-1.3,3.4-3.3,3.4h-0.9V499.5z"/>
		<path class="st12" d="M341.1,497.4L341.1,497.4c-0.5,0.8-1.1,1.1-2,1.1c-1.8,0-2.6-1.3-2.6-4.5s0.8-4.5,2.6-4.5
			c0.8,0,1.4,0.3,1.9,1h0v-3.6h2.2v11.4h-2.1V497.4z M339.8,496.9c1,0,1.2-1,1.2-2.8s-0.2-2.8-1.2-2.8c-1,0-1.2,1-1.2,2.8
			S338.9,496.9,339.8,496.9z"/>
		<path class="st12" d="M345.3,489.7h2.1v1h0c0.5-0.8,1.3-1.2,2.2-1.2c1.4,0,2.2,0.8,2.2,2.4v6.4h-2.2v-5.9c0-0.9-0.3-1.2-0.9-1.2
			c-0.8,0-1.2,0.5-1.2,1.4v5.7h-2.2V489.7z"/>
		<path class="st12" d="M355.8,494.4v0.7c0,1,0.3,2,1.1,2c0.7,0,1-0.6,1.2-1.6h2c-0.1,2-1,3.1-3.1,3.1c-3.2,0-3.3-2.5-3.3-4.6
			c0-2.3,0.4-4.4,3.4-4.4c2.6,0,3.2,1.7,3.2,4.4v0.5H355.8z M358.1,493.1c0-1.3-0.2-2-1.1-2c-0.9,0-1.1,0.9-1.1,1.7v0.3H358.1z"/>
		<path class="st12" d="M362,499.5c0.2,0,0.4,0,0.6,0c0.8,0,1.1-0.4,1.2-1.2l-2.4-8.6h2.3l1.3,6h0l1.1-6h2.2l-2.1,8
			c-0.8,3-1.3,3.4-3.3,3.4H362V499.5z"/>
	</g>
	<g>
		<path class="st12" d="M471.1,443.8h3.9c1.9,0,3.2,0.7,3.2,2.9c0,1.2-0.6,2.2-1.7,2.5v0c1.3,0.2,2.1,1.1,2.1,2.7
			c0,1.8-0.9,3.3-3.6,3.3h-3.9V443.8z M473.4,448.5h0.7c1.3,0,1.8-0.4,1.8-1.5c0-1.1-0.5-1.5-1.7-1.5h-0.8V448.5z M473.4,453.6h0.9
			c1.1,0,1.9-0.4,1.9-1.7c0-1.3-0.8-1.7-1.8-1.7h-1V453.6z"/>
		<path class="st12" d="M480.6,446.6h2.1v1.2h0c0.4-0.8,1.1-1.4,2-1.4c0.1,0,0.3,0,0.4,0v2.1c-0.2,0-0.5,0-0.7,0
			c-0.8,0-1.6,0.4-1.6,1.6v5.2h-2.2V446.6z"/>
		<path class="st12" d="M489.7,446.4c2.7,0,3.4,1.5,3.4,4.5c0,2.9-0.9,4.5-3.4,4.5c-2.7,0-3.4-1.5-3.4-4.5
			C486.3,448,487.1,446.4,489.7,446.4z M489.7,454c0.9,0,1.2-0.9,1.2-3c0-2.1-0.3-3-1.2-3c-1.1,0-1.2,1.3-1.2,3S488.6,454,489.7,454
			z"/>
		<path class="st12" d="M498,446.4c2.7,0,3.4,1.5,3.4,4.5c0,2.9-0.9,4.5-3.4,4.5c-2.7,0-3.4-1.5-3.4-4.5
			C494.6,448,495.5,446.4,498,446.4z M498,454c0.9,0,1.2-0.9,1.2-3c0-2.1-0.3-3-1.2-3c-1.1,0-1.2,1.3-1.2,3S496.9,454,498,454z"/>
		<path class="st12" d="M503.2,446.6h2.1v0.9h0c0.6-0.8,1.2-1.1,2.2-1.1c1,0,1.7,0.5,2,1.4h0c0.3-0.9,1.1-1.4,2.2-1.4
			c1.5,0,2.1,0.9,2.1,2.6v6.3h-2.2v-6c0-0.7-0.2-1.1-0.9-1.1c-0.7,0-1.2,0.5-1.2,1.5v5.7h-2.2v-6c0-0.7-0.2-1.1-0.9-1.1
			c-0.7,0-1.2,0.5-1.2,1.5v5.7h-2.2V446.6z"/>
		<path class="st12" d="M517.9,451.3v0.7c0,1,0.3,2,1.1,2c0.7,0,1-0.6,1.2-1.6h2c-0.1,2-1,3.1-3.1,3.1c-3.2,0-3.3-2.5-3.3-4.6
			c0-2.3,0.4-4.4,3.4-4.4c2.6,0,3.2,1.7,3.2,4.4v0.5H517.9z M520.1,450c0-1.3-0.2-2-1.1-2c-0.9,0-1.1,0.9-1.1,1.7v0.3H520.1z"/>
	</g>
	<g>
		<path class="st12" d="M465.7,328.7c0-1.7-0.3-2.4-1.4-2.4c-1.2,0-1.4,1.2-1.4,4.4c0,3.5,0.5,4.1,1.5,4.1c0.8,0,1.4-0.4,1.4-2.9
			h2.3c0,2.5-0.6,4.6-3.6,4.6c-3.5,0-3.9-2.5-3.9-5.9s0.4-5.9,3.9-5.9c3.3,0,3.5,2.4,3.5,4.1H465.7z"/>
		<path class="st12" d="M469.9,330.3v-0.2c0-2,1.4-2.7,3-2.7c2.6,0,3.1,1.1,3.1,2.6v4.5c0,0.8,0,1.2,0.3,1.7h-2.1
			c-0.1-0.3-0.2-0.6-0.3-0.9h0c-0.5,0.9-1.1,1.1-2.2,1.1c-1.5,0-2.1-1.3-2.1-2.5c0-1.6,0.7-2.3,2.2-2.7l1.2-0.3
			c0.7-0.2,0.9-0.4,0.9-1c0-0.7-0.3-1.1-1-1.1c-0.7,0-1,0.4-1,1.1v0.2H469.9z M474,331.9c-0.3,0.2-0.7,0.4-0.9,0.4
			c-0.9,0.2-1.2,0.6-1.2,1.4c0,0.7,0.2,1.2,0.8,1.2s1.4-0.4,1.4-1.3V331.9z"/>
		<path class="st12" d="M478.3,327.6h2.1v0.9h0c0.5-0.8,1.1-1.1,2-1.1c1.8,0,2.6,1.3,2.6,4.5s-0.8,4.5-2.6,4.5c-0.8,0-1.4-0.3-1.9-1
			h0v3.6h-2.2V327.6z M481.7,334.8c1,0,1.2-1,1.2-2.8s-0.2-2.8-1.2-2.8c-1,0-1.2,1-1.2,2.8S480.7,334.8,481.7,334.8z"/>
		<path class="st12" d="M488.8,332.3v0.7c0,1,0.3,2,1.1,2c0.7,0,1-0.6,1.2-1.6h2c-0.1,2-1,3.1-3.1,3.1c-3.2,0-3.3-2.5-3.3-4.6
			c0-2.3,0.4-4.4,3.4-4.4c2.6,0,3.2,1.7,3.2,4.4v0.5H488.8z M491.1,331c0-1.3-0.2-2-1.1-2c-0.9,0-1.1,0.9-1.1,1.7v0.3H491.1z"/>
		<path class="st12" d="M499.5,336.2v-11.4h2.3v9.5h4.1v1.9H499.5z"/>
		<path class="st12" d="M509.4,332.3v0.7c0,1,0.3,2,1.1,2c0.7,0,1-0.6,1.2-1.6h2c-0.1,2-1,3.1-3.1,3.1c-3.2,0-3.3-2.5-3.3-4.6
			c0-2.3,0.4-4.4,3.4-4.4c2.6,0,3.2,1.7,3.2,4.4v0.5H509.4z M511.6,331c0-1.3-0.2-2-1.1-2c-0.9,0-1.1,0.9-1.1,1.7v0.3H511.6z"/>
		<path class="st12" d="M519.6,327.6h2.2l-2.2,8.6h-2.6l-2.2-8.6h2.3l1.2,6.2h0L519.6,327.6z"/>
		<path class="st12" d="M525.2,332.3v0.7c0,1,0.3,2,1.1,2c0.7,0,1-0.6,1.2-1.6h2c-0.1,2-1,3.1-3.1,3.1c-3.2,0-3.3-2.5-3.3-4.6
			c0-2.3,0.4-4.4,3.4-4.4c2.6,0,3.2,1.7,3.2,4.4v0.5H525.2z M527.4,331c0-1.3-0.2-2-1.1-2c-0.9,0-1.1,0.9-1.1,1.7v0.3H527.4z"/>
		<path class="st12" d="M535.7,335.4L535.7,335.4c-0.5,0.7-1.1,1-1.9,1c-1.8,0-2.6-1.3-2.6-4.5s0.8-4.5,2.6-4.5c0.9,0,1.5,0.3,2,1.1
			h0v-0.9h2.1v11.4h-2.2V335.4z M534.5,329.1c-1,0-1.2,1-1.2,2.8s0.2,2.8,1.2,2.8c1,0,1.2-1,1.2-2.8S535.5,329.1,534.5,329.1z"/>
		<path class="st12" d="M544.4,335.2L544.4,335.2c-0.5,0.8-1.3,1.2-2.2,1.2c-1.4,0-2.2-0.8-2.2-2.4v-6.4h2.2v5.9
			c0,0.9,0.3,1.2,0.9,1.2c0.8,0,1.2-0.5,1.2-1.4v-5.7h2.2v8.6h-2.1V335.2z"/>
		<path class="st12" d="M550.5,332.3v0.7c0,1,0.3,2,1.1,2c0.7,0,1-0.6,1.2-1.6h2c-0.1,2-1,3.1-3.1,3.1c-3.2,0-3.3-2.5-3.3-4.6
			c0-2.3,0.4-4.4,3.4-4.4c2.6,0,3.2,1.7,3.2,4.4v0.5H550.5z M552.8,331c0-1.3-0.2-2-1.1-2c-0.9,0-1.1,0.9-1.1,1.7v0.3H552.8z"/>
	</g>
	<g>
		<path class="st13" d="M533.9,390.9h2.8c2.4,0,2.8,1.6,2.8,4.2c0,3-0.6,4.4-2.9,4.4h-2.7V390.9z M535.6,398.2h0.8
			c1.2,0,1.4-0.8,1.4-3.1c0-1.9-0.2-2.9-1.5-2.9h-0.7V398.2z"/>
		<path class="st13" d="M541.1,395v-0.2c0-1.5,1-2,2.3-2c2,0,2.3,0.8,2.3,2v3.4c0,0.6,0,0.9,0.2,1.2h-1.6c-0.1-0.2-0.2-0.5-0.2-0.7
			h0c-0.4,0.7-0.9,0.8-1.6,0.8c-1.2,0-1.6-1-1.6-1.8c0-1.2,0.5-1.7,1.6-2l0.9-0.3c0.5-0.1,0.7-0.3,0.7-0.8c0-0.5-0.2-0.8-0.8-0.8
			c-0.5,0-0.8,0.3-0.8,0.8v0.2H541.1z M544.2,396.2c-0.2,0.2-0.5,0.3-0.7,0.3c-0.7,0.1-0.9,0.5-0.9,1c0,0.5,0.2,0.9,0.6,0.9
			s1-0.3,1-1V396.2z"/>
		<path class="st13" d="M547.4,393h1.6v0.7h0c0.4-0.6,0.9-0.8,1.6-0.8c0.8,0,1.3,0.4,1.5,1h0c0.3-0.7,0.9-1,1.6-1
			c1.1,0,1.6,0.7,1.6,1.9v4.7h-1.7V395c0-0.5-0.2-0.8-0.6-0.8c-0.5,0-0.9,0.4-0.9,1.1v4.2h-1.7V395c0-0.5-0.2-0.8-0.6-0.8
			c-0.5,0-0.9,0.4-0.9,1.1v4.2h-1.7V393z"/>
		<path class="st13" d="M557,393h1.6v0.7h0c0.4-0.6,0.8-0.9,1.5-0.9c1.4,0,2,1,2,3.4c0,2.4-0.6,3.4-2,3.4c-0.6,0-1-0.3-1.4-0.8h0
			v2.7H557V393z M559.5,398.4c0.7,0,0.9-0.7,0.9-2.1s-0.1-2.1-0.9-2.1c-0.7,0-0.9,0.7-0.9,2.1S558.8,398.4,559.5,398.4z"/>
		<path class="st13" d="M563.5,390.8h1.7v1.4h-1.7V390.8z M563.5,393h1.7v6.5h-1.7V393z"/>
		<path class="st13" d="M568.2,396.5v0.5c0,0.8,0.2,1.5,0.8,1.5c0.6,0,0.8-0.4,0.9-1.2h1.5c-0.1,1.5-0.8,2.3-2.3,2.3
			c-2.4,0-2.5-1.8-2.5-3.5c0-1.7,0.3-3.3,2.6-3.3c1.9,0,2.4,1.3,2.4,3.3v0.4H568.2z M569.9,395.5c0-1-0.2-1.5-0.8-1.5
			c-0.7,0-0.9,0.7-0.9,1.3v0.3H569.9z"/>
		<path class="st13" d="M572.9,393h1.6v0.9h0c0.3-0.6,0.8-1,1.5-1c0.1,0,0.2,0,0.3,0v1.6c-0.2,0-0.3,0-0.5,0c-0.6,0-1.2,0.3-1.2,1.2
			v3.9h-1.7V393z"/>
		<path class="st13" d="M530.1,402.9h3c1.8,0,2.4,1.3,2.4,2.6c0,1.8-1.1,2.6-2.7,2.6h-0.9v3.4h-1.7V402.9z M531.9,406.8h0.8
			c0.7,0,1.2-0.4,1.2-1.3c0-0.8-0.3-1.3-1.2-1.3h-0.7V406.8z"/>
		<path class="st13" d="M538.2,408.5v0.5c0,0.8,0.2,1.5,0.8,1.5c0.6,0,0.8-0.4,0.9-1.2h1.5c-0.1,1.5-0.8,2.3-2.3,2.3
			c-2.4,0-2.5-1.8-2.5-3.5c0-1.7,0.3-3.3,2.6-3.3c1.9,0,2.4,1.3,2.4,3.3v0.4H538.2z M539.9,407.5c0-1-0.2-1.5-0.8-1.5
			c-0.7,0-0.9,0.7-0.9,1.3v0.3H539.9z"/>
		<path class="st13" d="M542.8,405h1.6v0.8h0c0.3-0.6,0.9-0.9,1.6-0.9c1,0,1.6,0.6,1.6,1.8v4.8h-1.7V407c0-0.6-0.2-0.9-0.7-0.9
			c-0.6,0-0.9,0.3-0.9,1.1v4.3h-1.7V405z"/>
		<path class="st13" d="M549.4,402.8h1.7v1.4h-1.7V402.8z M549.4,405h1.7v6.5h-1.7V405z"/>
		<path class="st13" d="M552.7,405h1.6v0.8h0c0.3-0.6,0.9-0.9,1.6-0.9c1,0,1.6,0.6,1.6,1.8v4.8h-1.7V407c0-0.6-0.2-0.9-0.7-0.9
			c-0.6,0-0.9,0.3-0.9,1.1v4.3h-1.7V405z"/>
		<path class="st13" d="M560.4,409.4v0.2c0,0.6,0.3,0.9,0.9,0.9c0.5,0,0.8-0.3,0.8-0.8c0-0.4-0.3-0.6-0.6-0.7l-1.2-0.4
			c-0.9-0.3-1.4-0.9-1.4-1.8c0-1.1,0.7-1.9,2.4-1.9c1.5,0,2.2,0.7,2.2,1.8v0.3H562c0-0.6-0.2-1-0.7-1c-0.4,0-0.8,0.2-0.8,0.7
			c0,0.3,0.2,0.6,0.7,0.8l1,0.3c1,0.3,1.4,0.9,1.4,1.8c0,1.4-1,2-2.4,2c-1.9,0-2.4-0.8-2.4-2.1v-0.2H560.4z"/>
		<path class="st13" d="M568.3,410.7L568.3,410.7c-0.4,0.6-1,0.9-1.7,0.9c-1,0-1.6-0.6-1.6-1.8V405h1.7v4.4c0,0.6,0.2,0.9,0.7,0.9
			c0.6,0,0.9-0.3,0.9-1.1V405h1.7v6.5h-1.6V410.7z"/>
		<path class="st13" d="M571.5,402.9h1.7v8.6h-1.7V402.9z"/>
		<path class="st13" d="M574.8,407v-0.2c0-1.5,1-2,2.3-2c2,0,2.3,0.8,2.3,2v3.4c0,0.6,0,0.9,0.2,1.2H578c-0.1-0.2-0.2-0.5-0.2-0.7h0
			c-0.4,0.7-0.9,0.8-1.6,0.8c-1.2,0-1.6-1-1.6-1.8c0-1.2,0.5-1.7,1.6-2l0.9-0.3c0.5-0.1,0.7-0.3,0.7-0.8c0-0.5-0.2-0.8-0.8-0.8
			c-0.5,0-0.8,0.3-0.8,0.8v0.2H574.8z M577.8,408.2c-0.2,0.2-0.5,0.3-0.7,0.3c-0.7,0.1-0.9,0.5-0.9,1c0,0.5,0.2,0.9,0.6,0.9
			s1-0.3,1-1V408.2z"/>
	</g>
	<g>
		<path class="st13" d="M1147.7,127.7v3.4h0l2.2-3.4h1.9l-2.3,3.7l2.6,4.9h-1.9l-1.8-3.5l-0.6,1v2.5h-1.7v-8.6H1147.7z"/>
		<path class="st13" d="M1152.9,131.8v-0.2c0-1.5,1-2,2.3-2c2,0,2.3,0.8,2.3,2v3.4c0,0.6,0,0.9,0.2,1.2h-1.6
			c-0.1-0.2-0.2-0.5-0.2-0.7h0c-0.4,0.7-0.9,0.8-1.6,0.8c-1.2,0-1.6-1-1.6-1.8c0-1.2,0.5-1.7,1.6-2l0.9-0.3c0.5-0.1,0.7-0.3,0.7-0.8
			c0-0.5-0.2-0.8-0.8-0.8c-0.5,0-0.8,0.3-0.8,0.8v0.2H1152.9z M1155.9,133c-0.2,0.2-0.5,0.3-0.7,0.3c-0.7,0.1-0.9,0.5-0.9,1
			c0,0.5,0.2,0.9,0.6,0.9s1-0.3,1-1V133z"/>
		<path class="st13" d="M1160.8,127.7v4.5h0l1.7-2.4h1.8l-1.9,2.5l2.1,3.9h-1.8l-1.4-2.7l-0.6,0.8v1.9h-1.7v-8.6H1160.8z"/>
		<path class="st13" d="M1165.6,131.8v-0.2c0-1.5,1-2,2.3-2c2,0,2.3,0.8,2.3,2v3.4c0,0.6,0,0.9,0.2,1.2h-1.6
			c-0.1-0.2-0.2-0.5-0.2-0.7h0c-0.4,0.7-0.9,0.8-1.6,0.8c-1.2,0-1.6-1-1.6-1.8c0-1.2,0.5-1.7,1.6-2l0.9-0.3c0.5-0.1,0.7-0.3,0.7-0.8
			c0-0.5-0.2-0.8-0.8-0.8c-0.5,0-0.8,0.3-0.8,0.8v0.2H1165.6z M1168.6,133c-0.2,0.2-0.5,0.3-0.7,0.3c-0.7,0.1-0.9,0.5-0.9,1
			c0,0.5,0.2,0.9,0.6,0.9c0.4,0,1-0.3,1-1V133z"/>
		<path class="st13" d="M1175.2,135.6L1175.2,135.6c-0.4,0.6-0.8,0.9-1.5,0.9c-1.4,0-2-1-2-3.4s0.6-3.4,2-3.4c0.6,0,1,0.3,1.4,0.8h0
			v-2.7h1.7v8.6h-1.6V135.6z M1174.2,135.2c0.7,0,0.9-0.7,0.9-2.1s-0.1-2.1-0.9-2.1c-0.7,0-0.9,0.7-0.9,2.1
			S1173.5,135.2,1174.2,135.2z"/>
		<path class="st13" d="M1181.6,135.5L1181.6,135.5c-0.4,0.6-1,0.9-1.7,0.9c-1,0-1.6-0.6-1.6-1.8v-4.8h1.7v4.5
			c0,0.6,0.2,0.9,0.7,0.9c0.6,0,0.9-0.3,0.9-1.1v-4.3h1.7v6.5h-1.6V135.5z"/>
		<path class="st13" d="M1133.8,139.7l2.1,5.9h0v-5.9h1.6v8.6h-2l-2.1-6h0v6h-1.6v-8.6H1133.8z"/>
		<path class="st13" d="M1139.1,143.8v-0.2c0-1.5,1-2,2.3-2c2,0,2.3,0.8,2.3,2v3.4c0,0.6,0,0.9,0.2,1.2h-1.6
			c-0.1-0.2-0.2-0.5-0.2-0.7h0c-0.4,0.7-0.9,0.8-1.6,0.8c-1.2,0-1.6-1-1.6-1.8c0-1.2,0.5-1.7,1.6-2l0.9-0.3c0.5-0.1,0.7-0.3,0.7-0.8
			c0-0.5-0.2-0.8-0.8-0.8c-0.5,0-0.8,0.3-0.8,0.8v0.2H1139.1z M1142.1,145c-0.2,0.2-0.5,0.3-0.7,0.3c-0.7,0.1-0.9,0.5-0.9,1
			c0,0.5,0.2,0.9,0.6,0.9s1-0.3,1-1V145z"/>
		<path class="st13" d="M1145.7,140h1.7v1.8h1v1.1h-1v3.5c0,0.5,0.1,0.7,0.6,0.7c0.1,0,0.3,0,0.4,0v1.2c-0.4,0-0.7,0.1-1.1,0.1
			c-1.3,0-1.5-0.4-1.5-1.7v-3.7h-0.8v-1.1h0.8V140z"/>
		<path class="st13" d="M1149.5,139.6h1.7v1.4h-1.7V139.6z M1149.5,141.8h1.7v6.5h-1.7V141.8z"/>
		<path class="st13" d="M1155.1,141.7c2,0,2.5,1.2,2.5,3.4c0,2.2-0.6,3.4-2.5,3.4c-2,0-2.5-1.2-2.5-3.4
			C1152.5,142.8,1153.2,141.7,1155.1,141.7z M1155.1,147.3c0.7,0,0.9-0.7,0.9-2.3s-0.2-2.3-0.9-2.3c-0.8,0-0.9,0.9-0.9,2.3
			S1154.3,147.3,1155.1,147.3z"/>
		<path class="st13" d="M1159,141.8h1.6v0.8h0c0.3-0.6,0.9-0.9,1.6-0.9c1,0,1.6,0.6,1.6,1.8v4.8h-1.7v-4.5c0-0.6-0.2-0.9-0.7-0.9
			c-0.6,0-0.9,0.3-0.9,1.1v4.3h-1.7V141.8z"/>
		<path class="st13" d="M1165.5,143.8v-0.2c0-1.5,1-2,2.3-2c2,0,2.3,0.8,2.3,2v3.4c0,0.6,0,0.9,0.2,1.2h-1.6
			c-0.1-0.2-0.2-0.5-0.2-0.7h0c-0.4,0.7-0.9,0.8-1.6,0.8c-1.2,0-1.6-1-1.6-1.8c0-1.2,0.5-1.7,1.6-2l0.9-0.3c0.5-0.1,0.7-0.3,0.7-0.8
			c0-0.5-0.2-0.8-0.8-0.8c-0.5,0-0.8,0.3-0.8,0.8v0.2H1165.5z M1168.5,145c-0.2,0.2-0.5,0.3-0.7,0.3c-0.7,0.1-0.9,0.5-0.9,1
			c0,0.5,0.2,0.9,0.6,0.9s1-0.3,1-1V145z"/>
		<path class="st13" d="M1171.8,139.7h1.7v8.6h-1.7V139.7z"/>
		<path class="st13" d="M1178.5,139.7h3c1.8,0,2.3,1.3,2.3,2.6c0,1.8-1.1,2.6-2.7,2.6h-0.9v3.4h-1.7V139.7z M1180.2,143.6h0.8
			c0.7,0,1.2-0.4,1.2-1.3c0-0.8-0.3-1.3-1.2-1.3h-0.7V143.6z"/>
		<path class="st13" d="M1185.2,143.8v-0.2c0-1.5,1-2,2.3-2c2,0,2.3,0.8,2.3,2v3.4c0,0.6,0,0.9,0.2,1.2h-1.6
			c-0.1-0.2-0.2-0.5-0.2-0.7h0c-0.4,0.7-0.9,0.8-1.6,0.8c-1.2,0-1.6-1-1.6-1.8c0-1.2,0.5-1.7,1.6-2l0.9-0.3c0.5-0.1,0.7-0.3,0.7-0.8
			c0-0.5-0.2-0.8-0.8-0.8c-0.5,0-0.8,0.3-0.8,0.8v0.2H1185.2z M1188.2,145c-0.2,0.2-0.5,0.3-0.7,0.3c-0.7,0.1-0.9,0.5-0.9,1
			c0,0.5,0.2,0.9,0.6,0.9s1-0.3,1-1V145z"/>
		<path class="st13" d="M1191.4,141.8h1.6v0.9h0c0.3-0.6,0.8-1,1.5-1c0.1,0,0.2,0,0.3,0v1.6c-0.2,0-0.3,0-0.5,0
			c-0.6,0-1.2,0.3-1.2,1.2v3.9h-1.7V141.8z"/>
		<path class="st13" d="M1197.6,139.7v4.5h0l1.7-2.4h1.8l-1.9,2.5l2.1,3.9h-1.8l-1.4-2.7l-0.6,0.8v1.9h-1.7v-8.6H1197.6z"/>
	</g>
	<g>
		<path class="st13" d="M1132.4,173.7l2.1,5.9h0v-5.9h1.6v8.6h-2l-2.1-6h0v6h-1.6v-8.6H1132.4z"/>
		<path class="st13" d="M1137.8,173.6h1.7v1.4h-1.7V173.6z M1137.8,175.8h1.7v6.5h-1.7V175.8z"/>
		<path class="st13" d="M1141.5,174h1.7v1.8h1v1.1h-1v3.5c0,0.5,0.1,0.7,0.6,0.7c0.1,0,0.3,0,0.4,0v1.2c-0.4,0-0.7,0.1-1.1,0.1
			c-1.3,0-1.5-0.4-1.5-1.7v-3.7h-0.8v-1.1h0.8V174z"/>
		<path class="st13" d="M1145.2,175.8h1.6v0.7h0c0.4-0.6,0.9-0.8,1.6-0.8c0.8,0,1.3,0.4,1.5,1h0c0.3-0.7,0.9-1,1.6-1
			c1.1,0,1.6,0.7,1.6,1.9v4.7h-1.7v-4.5c0-0.5-0.2-0.8-0.6-0.8c-0.5,0-0.9,0.4-0.9,1.1v4.2h-1.7v-4.5c0-0.5-0.2-0.8-0.6-0.8
			c-0.5,0-0.9,0.4-0.9,1.1v4.2h-1.7V175.8z"/>
		<path class="st13" d="M1154.8,173.6h1.7v1.4h-1.7V173.6z M1154.8,175.8h1.7v6.5h-1.7V175.8z"/>
		<path class="st13" d="M1158.2,173.7h1.7v8.6h-1.7V173.7z"/>
		<path class="st13" d="M1164.8,181.5L1164.8,181.5c-0.4,0.6-1,0.9-1.7,0.9c-1,0-1.6-0.6-1.6-1.8v-4.8h1.7v4.4
			c0,0.6,0.2,0.9,0.7,0.9c0.6,0,0.9-0.3,0.9-1.1v-4.3h1.7v6.5h-1.6V181.5z"/>
		<path class="st13" d="M1169.7,173.7v4.5h0l1.7-2.4h1.8l-1.9,2.5l2.1,3.9h-1.8l-1.4-2.7l-0.6,0.8v1.9h-1.7v-8.6H1169.7z"/>
		<path class="st13" d="M1120.8,185.7l2.1,5.9h0v-5.9h1.6v8.6h-2l-2.1-6h0v6h-1.6v-8.6H1120.8z"/>
		<path class="st13" d="M1126.1,189.8v-0.2c0-1.5,1-2,2.3-2c2,0,2.3,0.8,2.3,2v3.4c0,0.6,0,0.9,0.2,1.2h-1.6
			c-0.1-0.2-0.2-0.5-0.2-0.7h0c-0.4,0.7-0.9,0.8-1.6,0.8c-1.2,0-1.6-1-1.6-1.8c0-1.2,0.5-1.7,1.6-2l0.9-0.3c0.5-0.1,0.7-0.3,0.7-0.8
			c0-0.5-0.2-0.8-0.8-0.8c-0.5,0-0.8,0.3-0.8,0.8v0.2H1126.1z M1129.2,191c-0.2,0.2-0.5,0.3-0.7,0.3c-0.7,0.1-0.9,0.5-0.9,1
			c0,0.5,0.2,0.9,0.6,0.9c0.4,0,1-0.3,1-1V191z"/>
		<path class="st13" d="M1132.8,186h1.7v1.8h1v1.1h-1v3.5c0,0.5,0.1,0.7,0.6,0.7c0.1,0,0.3,0,0.4,0v1.2c-0.4,0-0.7,0.1-1.1,0.1
			c-1.3,0-1.5-0.4-1.5-1.7v-3.7h-0.8v-1.1h0.8V186z"/>
		<path class="st13" d="M1136.5,185.6h1.7v1.4h-1.7V185.6z M1136.5,187.8h1.7v6.5h-1.7V187.8z"/>
		<path class="st13" d="M1142.1,187.6c2,0,2.5,1.2,2.5,3.4c0,2.2-0.6,3.4-2.5,3.4c-2,0-2.5-1.2-2.5-3.4
			C1139.6,188.8,1140.2,187.6,1142.1,187.6z M1142.1,193.3c0.7,0,0.9-0.7,0.9-2.3c0-1.6-0.2-2.3-0.9-2.3c-0.8,0-0.9,0.9-0.9,2.3
			S1141.3,193.3,1142.1,193.3z"/>
		<path class="st13" d="M1146,187.8h1.6v0.8h0c0.3-0.6,0.9-0.9,1.6-0.9c1,0,1.6,0.6,1.6,1.8v4.8h-1.7v-4.4c0-0.6-0.2-0.9-0.7-0.9
			c-0.6,0-0.9,0.3-0.9,1.1v4.3h-1.7V187.8z"/>
		<path class="st13" d="M1152.5,189.8v-0.2c0-1.5,1-2,2.3-2c2,0,2.3,0.8,2.3,2v3.4c0,0.6,0,0.9,0.2,1.2h-1.6
			c-0.1-0.2-0.2-0.5-0.2-0.7h0c-0.4,0.7-0.9,0.8-1.6,0.8c-1.2,0-1.6-1-1.6-1.8c0-1.2,0.5-1.7,1.6-2l0.9-0.3c0.5-0.1,0.7-0.3,0.7-0.8
			c0-0.5-0.2-0.8-0.8-0.8c-0.5,0-0.8,0.3-0.8,0.8v0.2H1152.5z M1155.5,191c-0.2,0.2-0.5,0.3-0.7,0.3c-0.7,0.1-0.9,0.5-0.9,1
			c0,0.5,0.2,0.9,0.6,0.9c0.4,0,1-0.3,1-1V191z"/>
		<path class="st13" d="M1158.8,185.7h1.7v8.6h-1.7V185.7z"/>
		<path class="st13" d="M1165.5,185.7h3c1.8,0,2.4,1.3,2.4,2.6c0,1.8-1.1,2.6-2.7,2.6h-0.9v3.4h-1.7V185.7z M1167.3,189.6h0.8
			c0.7,0,1.2-0.4,1.2-1.3c0-0.8-0.3-1.3-1.2-1.3h-0.7V189.6z"/>
		<path class="st13" d="M1172.2,189.8v-0.2c0-1.5,1-2,2.3-2c2,0,2.3,0.8,2.3,2v3.4c0,0.6,0,0.9,0.2,1.2h-1.6
			c-0.1-0.2-0.2-0.5-0.2-0.7h0c-0.4,0.7-0.9,0.8-1.6,0.8c-1.2,0-1.6-1-1.6-1.8c0-1.2,0.5-1.7,1.6-2l0.9-0.3c0.5-0.1,0.7-0.3,0.7-0.8
			c0-0.5-0.2-0.8-0.8-0.8c-0.5,0-0.8,0.3-0.8,0.8v0.2H1172.2z M1175.2,191c-0.2,0.2-0.5,0.3-0.7,0.3c-0.7,0.1-0.9,0.5-0.9,1
			c0,0.5,0.2,0.9,0.6,0.9c0.4,0,1-0.3,1-1V191z"/>
		<path class="st13" d="M1178.5,187.8h1.6v0.9h0c0.3-0.6,0.8-1,1.5-1c0.1,0,0.2,0,0.3,0v1.6c-0.2,0-0.3,0-0.5,0
			c-0.6,0-1.2,0.3-1.2,1.2v3.9h-1.7V187.8z"/>
		<path class="st13" d="M1184.6,185.7v4.5h0l1.7-2.4h1.8l-1.9,2.5l2.1,3.9h-1.8l-1.4-2.7l-0.6,0.8v1.9h-1.7v-8.6H1184.6z"/>
	</g>
	<g>
		<path class="st13" d="M881.9,393h3c1.8,0,2.4,1.3,2.4,2.6c0,1.8-1.1,2.6-2.7,2.6h-0.9v3.4h-1.7V393z M883.6,396.9h0.8
			c0.7,0,1.2-0.4,1.2-1.3c0-0.8-0.3-1.3-1.2-1.3h-0.7V396.9z"/>
		<path class="st13" d="M891.9,400.8L891.9,400.8c-0.4,0.6-1,0.9-1.7,0.9c-1,0-1.6-0.6-1.6-1.8v-4.8h1.7v4.5c0,0.6,0.2,0.9,0.7,0.9
			c0.6,0,0.9-0.3,0.9-1.1v-4.3h1.7v6.5h-1.6V400.8z"/>
		<path class="st13" d="M895.1,395.1h1.6v0.9h0c0.3-0.6,0.8-1,1.5-1c0.1,0,0.2,0,0.3,0v1.6c-0.2,0-0.3,0-0.5,0
			c-0.6,0-1.2,0.3-1.2,1.2v3.9h-1.7V395.1z"/>
		<path class="st13" d="M899.5,395.1h1.6v0.8h0c0.3-0.6,0.9-0.9,1.6-0.9c1,0,1.6,0.6,1.6,1.8v4.8h-1.7v-4.4c0-0.6-0.2-0.9-0.7-0.9
			c-0.6,0-0.9,0.3-0.9,1.1v4.3h-1.7V395.1z"/>
		<path class="st13" d="M909.3,400.8L909.3,400.8c-0.4,0.6-1,0.9-1.7,0.9c-1,0-1.6-0.6-1.6-1.8v-4.8h1.7v4.5c0,0.6,0.2,0.9,0.7,0.9
			c0.6,0,0.9-0.3,0.9-1.1v-4.3h1.7v6.5h-1.6V400.8z"/>
		<path class="st13" d="M912.5,393h1.7v8.6h-1.7V393z"/>
		<path class="st13" d="M919.2,400.8L919.2,400.8c-0.4,0.6-1,0.9-1.7,0.9c-1,0-1.6-0.6-1.6-1.8v-4.8h1.7v4.5c0,0.6,0.2,0.9,0.7,0.9
			c0.6,0,0.9-0.3,0.9-1.1v-4.3h1.7v6.5h-1.6V400.8z"/>
		<path class="st13" d="M922.4,393h1.7v8.6h-1.7V393z"/>
		<path class="st13" d="M929,400.8L929,400.8c-0.4,0.6-1,0.9-1.7,0.9c-1,0-1.6-0.6-1.6-1.8v-4.8h1.7v4.5c0,0.6,0.2,0.9,0.7,0.9
			c0.6,0,0.9-0.3,0.9-1.1v-4.3h1.7v6.5H929V400.8z"/>
		<path class="st13" d="M885.7,405l2.1,5.9h0V405h1.6v8.6h-2l-2.1-6h0v6h-1.6V405H885.7z"/>
		<path class="st13" d="M891,409.1V409c0-1.5,1-2,2.3-2c2,0,2.3,0.8,2.3,2v3.4c0,0.6,0,0.9,0.2,1.2h-1.6c-0.1-0.2-0.2-0.5-0.2-0.7h0
			c-0.4,0.7-0.9,0.8-1.6,0.8c-1.2,0-1.6-1-1.6-1.8c0-1.2,0.5-1.7,1.6-2l0.9-0.3c0.5-0.1,0.7-0.3,0.7-0.8c0-0.5-0.2-0.8-0.8-0.8
			c-0.5,0-0.8,0.3-0.8,0.8v0.2H891z M894,410.4c-0.2,0.2-0.5,0.3-0.7,0.3c-0.7,0.1-0.9,0.5-0.9,1c0,0.5,0.2,0.9,0.6,0.9
			c0.4,0,1-0.3,1-1V410.4z"/>
		<path class="st13" d="M897.6,405.3h1.7v1.8h1v1.1h-1v3.5c0,0.5,0.1,0.7,0.6,0.7c0.1,0,0.3,0,0.4,0v1.2c-0.4,0-0.7,0.1-1.1,0.1
			c-1.3,0-1.5-0.4-1.5-1.7v-3.7h-0.8v-1.1h0.8V405.3z"/>
		<path class="st13" d="M901.4,404.9h1.7v1.4h-1.7V404.9z M901.4,407.1h1.7v6.5h-1.7V407.1z"/>
		<path class="st13" d="M907,407c2,0,2.5,1.2,2.5,3.4c0,2.2-0.6,3.4-2.5,3.4c-2,0-2.5-1.2-2.5-3.4C904.5,408.1,905.1,407,907,407z
			 M907,412.6c0.7,0,0.9-0.7,0.9-2.3c0-1.6-0.2-2.3-0.9-2.3c-0.8,0-0.9,0.9-0.9,2.3S906.2,412.6,907,412.6z"/>
		<path class="st13" d="M910.9,407.1h1.6v0.8h0c0.3-0.6,0.9-0.9,1.6-0.9c1,0,1.6,0.6,1.6,1.8v4.8h-1.7v-4.4c0-0.6-0.2-0.9-0.7-0.9
			c-0.6,0-0.9,0.3-0.9,1.1v4.3h-1.7V407.1z"/>
		<path class="st13" d="M917.4,409.1V409c0-1.5,1-2,2.3-2c2,0,2.3,0.8,2.3,2v3.4c0,0.6,0,0.9,0.2,1.2h-1.6c-0.1-0.2-0.2-0.5-0.2-0.7
			h0c-0.4,0.7-0.9,0.8-1.6,0.8c-1.2,0-1.6-1-1.6-1.8c0-1.2,0.5-1.7,1.6-2l0.9-0.3c0.5-0.1,0.7-0.3,0.7-0.8c0-0.5-0.2-0.8-0.8-0.8
			c-0.5,0-0.8,0.3-0.8,0.8v0.2H917.4z M920.4,410.4c-0.2,0.2-0.5,0.3-0.7,0.3c-0.7,0.1-0.9,0.5-0.9,1c0,0.5,0.2,0.9,0.6,0.9
			c0.4,0,1-0.3,1-1V410.4z"/>
		<path class="st13" d="M923.7,405h1.7v8.6h-1.7V405z"/>
		<path class="st13" d="M895.1,417h3c1.8,0,2.4,1.3,2.4,2.6c0,1.8-1.1,2.6-2.7,2.6h-0.9v3.4h-1.7V417z M896.8,420.9h0.8
			c0.7,0,1.2-0.4,1.2-1.3c0-0.8-0.3-1.3-1.2-1.3h-0.7V420.9z"/>
		<path class="st13" d="M901.8,421.1V421c0-1.5,1-2,2.3-2c2,0,2.3,0.8,2.3,2v3.4c0,0.6,0,0.9,0.2,1.2H905c-0.1-0.2-0.2-0.5-0.2-0.7
			h0c-0.4,0.7-0.9,0.8-1.6,0.8c-1.2,0-1.6-1-1.6-1.8c0-1.2,0.5-1.7,1.6-2l0.9-0.3c0.5-0.1,0.7-0.3,0.7-0.8c0-0.5-0.2-0.8-0.8-0.8
			c-0.5,0-0.8,0.3-0.8,0.8v0.2H901.8z M904.8,422.4c-0.2,0.2-0.5,0.3-0.7,0.3c-0.7,0.1-0.9,0.5-0.9,1c0,0.5,0.2,0.9,0.6,0.9
			c0.4,0,1-0.3,1-1V422.4z"/>
		<path class="st13" d="M908,419.1h1.6v0.9h0c0.3-0.6,0.8-1,1.5-1c0.1,0,0.2,0,0.3,0v1.6c-0.2,0-0.3,0-0.5,0c-0.6,0-1.2,0.3-1.2,1.2
			v3.9H908V419.1z"/>
		<path class="st13" d="M914.2,417v4.5h0l1.7-2.4h1.8l-1.9,2.5l2.1,3.9h-1.8l-1.4-2.7l-0.6,0.8v1.9h-1.7V417H914.2z"/>
	</g>
	<g>
		<path class="st13" d="M1000.2,152.3v-8.6h1.7v7.1h3.1v1.4H1000.2z"/>
		<path class="st13" d="M1006.3,143.7h1.7v1.4h-1.7V143.7z M1006.3,145.9h1.7v6.5h-1.7V145.9z"/>
		<path class="st13" d="M1009.9,144h1.7v1.8h1v1.1h-1v3.5c0,0.5,0.1,0.7,0.6,0.7c0.1,0,0.3,0,0.4,0v1.2c-0.4,0-0.7,0.1-1.1,0.1
			c-1.3,0-1.5-0.4-1.5-1.7V147h-0.8v-1.1h0.8V144z"/>
		<path class="st13" d="M1016.7,148.2c0-0.6-0.1-1.3-0.7-1.3c-0.8,0-0.9,0.7-0.9,2.2c0,1.6,0.1,2.3,0.9,2.3c0.6,0,0.8-0.5,0.8-1.5
			h1.6c0,1.7-0.7,2.6-2.5,2.6c-1.7,0-2.5-0.8-2.5-3.4c0-2.7,1.1-3.4,2.6-3.4s2.3,1,2.3,2.5H1016.7z"/>
		<path class="st13" d="M1019.6,143.8h1.7v2.8h0c0.3-0.6,0.9-0.8,1.6-0.8c1,0,1.6,0.6,1.6,1.8v4.8h-1.7v-4.5c0-0.6-0.2-0.9-0.7-0.9
			c-0.6,0-0.9,0.3-0.9,1.1v4.3h-1.7V143.8z"/>
		<path class="st13" d="M1026.5,147h-0.8v-1.1h0.8v-0.7c0-1.2,0.7-1.5,1.7-1.5c0.3,0,0.6,0,0.9,0v1.2c-0.1,0-0.2,0-0.3,0
			c-0.5,0-0.6,0.1-0.6,0.5v0.6h1v1.1h-1v5.3h-1.7V147z"/>
		<path class="st13" d="M1030.2,143.7h1.7v1.4h-1.7V143.7z M1030.2,145.9h1.7v6.5h-1.7V145.9z"/>
		<path class="st13" d="M1034.9,149.4v0.5c0,0.8,0.2,1.5,0.8,1.5c0.6,0,0.8-0.4,0.9-1.2h1.5c-0.1,1.5-0.8,2.3-2.3,2.3
			c-2.4,0-2.5-1.8-2.5-3.5c0-1.7,0.3-3.3,2.6-3.3c1.9,0,2.4,1.3,2.4,3.3v0.4H1034.9z M1036.6,148.4c0-1-0.2-1.5-0.8-1.5
			c-0.7,0-0.9,0.7-0.9,1.3v0.3H1036.6z"/>
		<path class="st13" d="M1039.6,143.8h1.7v8.6h-1.7V143.8z"/>
		<path class="st13" d="M1046.2,151.7L1046.2,151.7c-0.4,0.6-0.8,0.9-1.5,0.9c-1.4,0-2-1-2-3.4s0.6-3.4,2-3.4c0.6,0,1,0.3,1.4,0.8h0
			v-2.7h1.7v8.6h-1.6V151.7z M1045.3,151.2c0.7,0,0.9-0.7,0.9-2.1s-0.1-2.1-0.9-2.1c-0.7,0-0.9,0.7-0.9,2.1
			S1044.6,151.2,1045.3,151.2z"/>
		<path class="st13" d="M993.2,155.8l2.1,5.9h0v-5.9h1.6v8.6h-2l-2.1-6h0v6h-1.6v-8.6H993.2z"/>
		<path class="st13" d="M998.5,159.9v-0.2c0-1.5,1-2,2.3-2c2,0,2.3,0.8,2.3,2v3.4c0,0.6,0,0.9,0.2,1.2h-1.6
			c-0.1-0.2-0.2-0.5-0.2-0.7h0c-0.4,0.7-0.9,0.8-1.6,0.8c-1.2,0-1.6-1-1.6-1.8c0-1.2,0.5-1.7,1.6-2l0.9-0.3c0.5-0.1,0.7-0.3,0.7-0.8
			c0-0.5-0.2-0.8-0.8-0.8c-0.5,0-0.8,0.3-0.8,0.8v0.2H998.5z M1001.5,161.1c-0.2,0.2-0.5,0.3-0.7,0.3c-0.7,0.1-0.9,0.5-0.9,1
			c0,0.5,0.2,0.9,0.6,0.9c0.4,0,1-0.3,1-1V161.1z"/>
		<path class="st13" d="M1005.1,156h1.7v1.8h1v1.1h-1v3.5c0,0.5,0.1,0.7,0.6,0.7c0.1,0,0.3,0,0.4,0v1.2c-0.4,0-0.7,0.1-1.1,0.1
			c-1.3,0-1.5-0.4-1.5-1.7V159h-0.8v-1.1h0.8V156z"/>
		<path class="st13" d="M1008.9,155.7h1.7v1.4h-1.7V155.7z M1008.9,157.9h1.7v6.5h-1.7V157.9z"/>
		<path class="st13" d="M1014.5,157.7c2,0,2.5,1.2,2.5,3.4c0,2.2-0.6,3.4-2.5,3.4c-2,0-2.5-1.2-2.5-3.4
			C1011.9,158.9,1012.6,157.7,1014.5,157.7z M1014.5,163.4c0.7,0,0.9-0.7,0.9-2.3s-0.2-2.3-0.9-2.3c-0.8,0-0.9,0.9-0.9,2.3
			S1013.7,163.4,1014.5,163.4z"/>
		<path class="st13" d="M1018.4,157.9h1.6v0.8h0c0.3-0.6,0.9-0.9,1.6-0.9c1,0,1.6,0.6,1.6,1.8v4.8h-1.7v-4.5c0-0.6-0.2-0.9-0.7-0.9
			c-0.6,0-0.9,0.3-0.9,1.1v4.3h-1.7V157.9z"/>
		<path class="st13" d="M1024.9,159.9v-0.2c0-1.5,1-2,2.3-2c2,0,2.3,0.8,2.3,2v3.4c0,0.6,0,0.9,0.2,1.2h-1.6
			c-0.1-0.2-0.2-0.5-0.2-0.7h0c-0.4,0.7-0.9,0.8-1.6,0.8c-1.2,0-1.6-1-1.6-1.8c0-1.2,0.5-1.7,1.6-2l0.9-0.3c0.5-0.1,0.7-0.3,0.7-0.8
			c0-0.5-0.2-0.8-0.8-0.8c-0.5,0-0.8,0.3-0.8,0.8v0.2H1024.9z M1027.9,161.1c-0.2,0.2-0.5,0.3-0.7,0.3c-0.7,0.1-0.9,0.5-0.9,1
			c0,0.5,0.2,0.9,0.6,0.9c0.4,0,1-0.3,1-1V161.1z"/>
		<path class="st13" d="M1031.2,155.8h1.7v8.6h-1.7V155.8z"/>
		<path class="st13" d="M1037.9,155.8h3c1.8,0,2.4,1.3,2.4,2.6c0,1.8-1.1,2.6-2.7,2.6h-0.9v3.4h-1.7V155.8z M1039.6,159.7h0.8
			c0.7,0,1.2-0.4,1.2-1.3c0-0.8-0.3-1.3-1.2-1.3h-0.7V159.7z"/>
		<path class="st13" d="M1044.6,159.9v-0.2c0-1.5,1-2,2.3-2c2,0,2.3,0.8,2.3,2v3.4c0,0.6,0,0.9,0.2,1.2h-1.6
			c-0.1-0.2-0.2-0.5-0.2-0.7h0c-0.4,0.7-0.9,0.8-1.6,0.8c-1.2,0-1.6-1-1.6-1.8c0-1.2,0.5-1.7,1.6-2l0.9-0.3c0.5-0.1,0.7-0.3,0.7-0.8
			c0-0.5-0.2-0.8-0.8-0.8c-0.5,0-0.8,0.3-0.8,0.8v0.2H1044.6z M1047.6,161.1c-0.2,0.2-0.5,0.3-0.7,0.3c-0.7,0.1-0.9,0.5-0.9,1
			c0,0.5,0.2,0.9,0.6,0.9c0.4,0,1-0.3,1-1V161.1z"/>
		<path class="st13" d="M1050.8,157.9h1.6v0.9h0c0.3-0.6,0.8-1,1.5-1c0.1,0,0.2,0,0.3,0v1.6c-0.2,0-0.3,0-0.5,0
			c-0.6,0-1.2,0.3-1.2,1.2v3.9h-1.7V157.9z"/>
		<path class="st13" d="M1057,155.8v4.5h0l1.7-2.4h1.8l-1.9,2.5l2.1,3.9h-1.8l-1.4-2.7l-0.6,0.8v1.9h-1.7v-8.6H1057z"/>
	</g>
	<g>
		<path class="st13" d="M627,417.7c0-0.6-0.3-1.4-1-1.4c-0.8,0-1.2,0.9-1.2,3c0,2.1,0.2,3.4,1.2,3.4c0.4,0,1.1-0.4,1.1-1.4v-0.9
			h-1.1v-1.3h2.8v4.6h-1.3V423h0c-0.4,0.7-1,1-1.8,1c-2.1,0-2.5-1.6-2.5-4.5c0-2.9,0.7-4.4,2.9-4.4c1.9,0,2.7,1,2.7,2.7H627z"/>
		<path class="st13" d="M630.3,415.1h1.7v1.4h-1.7V415.1z M630.3,417.3h1.7v6.5h-1.7V417.3z"/>
		<path class="st13" d="M633.6,415.2h1.7v2.7h0c0.3-0.5,0.8-0.8,1.4-0.8c1.4,0,2,1,2,3.4c0,2.4-0.6,3.4-2,3.4
			c-0.6,0-1.1-0.3-1.5-0.9h0v0.7h-1.6V415.2z M636.2,422.7c0.7,0,0.9-0.7,0.9-2.1s-0.1-2.1-0.9-2.1c-0.7,0-0.9,0.7-0.9,2.1
			S635.4,422.7,636.2,422.7z"/>
		<path class="st13" d="M640.1,415.2h1.7v2.7h0c0.3-0.5,0.8-0.8,1.4-0.8c1.4,0,2,1,2,3.4c0,2.4-0.6,3.4-2,3.4
			c-0.6,0-1.1-0.3-1.5-0.9h0v0.7h-1.6V415.2z M642.6,422.7c0.7,0,0.9-0.7,0.9-2.1s-0.1-2.1-0.9-2.1c-0.7,0-0.9,0.7-0.9,2.1
			S641.9,422.7,642.6,422.7z"/>
		<path class="st13" d="M650,415.2h3.2c1.4,0,2.3,0.7,2.3,2.2c0,1.1-0.5,1.9-1.4,2.1v0c1.2,0.2,1.4,0.8,1.4,2.6
			c0,0.9,0.1,1.4,0.4,1.5v0.1h-1.9c-0.2-0.2-0.2-0.6-0.2-0.9l0-1.6c0-0.7-0.3-1.1-1-1.1h-0.9v3.6H650V415.2z M651.7,418.9h0.7
			c0.8,0,1.3-0.4,1.3-1.3c0-0.8-0.4-1.2-1.2-1.2h-0.8V418.9z"/>
		<path class="st13" d="M657.2,415.1h1.7v1.4h-1.7V415.1z M657.2,417.3h1.7v6.5h-1.7V417.3z"/>
		<path class="st13" d="M663.5,417.3h1.7l-1.6,6.5h-1.9l-1.7-6.5h1.7l0.9,4.6h0L663.5,417.3z"/>
		<path class="st13" d="M667.7,420.8v0.5c0,0.8,0.2,1.5,0.8,1.5c0.6,0,0.8-0.4,0.9-1.2h1.5c-0.1,1.5-0.8,2.3-2.3,2.3
			c-2.4,0-2.5-1.8-2.5-3.5c0-1.7,0.3-3.3,2.6-3.3c1.9,0,2.4,1.3,2.4,3.3v0.4H667.7z M669.4,419.8c0-1-0.2-1.5-0.8-1.5
			c-0.7,0-0.9,0.7-0.9,1.3v0.3H669.4z"/>
		<path class="st13" d="M672.3,417.3h1.6v0.9h0c0.3-0.6,0.8-1,1.5-1c0.1,0,0.2,0,0.3,0v1.6c-0.2,0-0.3,0-0.5,0
			c-0.6,0-1.2,0.3-1.2,1.2v3.9h-1.7V417.3z"/>
		<path class="st13" d="M680.2,415.2h3.2c1.4,0,2.3,0.7,2.3,2.2c0,1.1-0.5,1.9-1.4,2.1v0c1.2,0.2,1.4,0.8,1.4,2.6
			c0,0.9,0.1,1.4,0.4,1.5v0.1h-1.9c-0.2-0.2-0.2-0.6-0.2-0.9l0-1.6c0-0.7-0.3-1.1-1-1.1h-0.9v3.6h-1.7V415.2z M681.9,418.9h0.7
			c0.8,0,1.3-0.4,1.3-1.3c0-0.8-0.4-1.2-1.2-1.2h-0.8V418.9z"/>
		<path class="st13" d="M690.6,423.1L690.6,423.1c-0.4,0.6-0.8,0.9-1.5,0.9c-1.4,0-2-1-2-3.4c0-2.4,0.6-3.4,2-3.4
			c0.6,0,1,0.3,1.4,0.8h0v-2.7h1.7v8.6h-1.6V423.1z M689.6,422.7c0.7,0,0.9-0.7,0.9-2.1s-0.1-2.1-0.9-2.1c-0.7,0-0.9,0.7-0.9,2.1
			S688.9,422.7,689.6,422.7z"/>
		<path class="st13" d="M695.4,421.9v1.9h-1.6v-1.9H695.4z"/>
	</g>
	<g>
		<path class="st12" d="M611.2,389.3h3.8c3.2,0,3.8,2.2,3.8,5.6c0,4-0.9,5.9-3.9,5.9h-3.6V389.3z M613.5,399.1h1
			c1.6,0,1.9-1,1.9-4.1c0-2.6-0.2-3.9-2-3.9h-1V399.1z"/>
		<path class="st12" d="M622.7,396.8v0.7c0,1,0.3,2,1.1,2c0.7,0,1-0.6,1.2-1.6h2c-0.1,2-1,3.1-3.1,3.1c-3.2,0-3.3-2.5-3.3-4.6
			c0-2.3,0.4-4.5,3.4-4.5c2.6,0,3.2,1.7,3.2,4.4v0.5H622.7z M625,395.5c0-1.3-0.2-2-1.1-2c-0.9,0-1.1,0.9-1.1,1.7v0.3H625z"/>
		<path class="st12" d="M628.9,392.2h2.1v1.2h0c0.4-0.8,1.1-1.4,2-1.4c0.1,0,0.3,0,0.4,0v2.1c-0.2,0-0.5,0-0.7,0
			c-0.8,0-1.6,0.4-1.6,1.6v5.2h-2.2V392.2z"/>
		<path class="st12" d="M634.9,389.3h2.2v3.6h0c0.5-0.7,1-1,1.9-1c1.8,0,2.6,1.3,2.6,4.5s-0.8,4.5-2.6,4.5c-0.9,0-1.5-0.3-2-1.1h0
			v0.9h-2.1V389.3z M638.2,399.3c1,0,1.2-1,1.2-2.8c0-1.9-0.2-2.8-1.2-2.8c-1,0-1.2,1-1.2,2.8C637.1,398.3,637.3,399.3,638.2,399.3z
			"/>
		<path class="st12" d="M643.5,401.9c0.2,0,0.4,0,0.6,0c0.8,0,1.1-0.4,1.2-1.2l-2.4-8.6h2.3l1.3,6h0l1.1-6h2.2l-2.1,8
			c-0.8,3-1.3,3.4-3.3,3.4h-0.9V401.9z"/>
	</g>
	<g>
		<path class="st12" d="M631.4,366.5h3.9c1.9,0,3.2,0.7,3.2,2.9c0,1.2-0.6,2.2-1.7,2.5v0c1.3,0.2,2.1,1.1,2.1,2.7
			c0,1.8-0.9,3.3-3.6,3.3h-3.9V366.5z M633.7,371.2h0.7c1.3,0,1.8-0.4,1.8-1.5c0-1.1-0.5-1.5-1.7-1.5h-0.8V371.2z M633.7,376.2h0.9
			c1.1,0,1.9-0.4,1.9-1.7c0-1.3-0.8-1.7-1.8-1.7h-1V376.2z"/>
		<path class="st12" d="M642.7,373.9v0.7c0,1,0.3,2,1.1,2c0.7,0,1-0.6,1.2-1.6h2c-0.1,2-1,3.1-3.1,3.1c-3.2,0-3.3-2.5-3.3-4.6
			c0-2.3,0.4-4.5,3.4-4.5c2.6,0,3.2,1.7,3.2,4.4v0.5H642.7z M645,372.6c0-1.3-0.2-2-1.1-2c-0.9,0-1.1,0.9-1.1,1.7v0.3H645z"/>
		<path class="st12" d="M649,366.5h2.2v11.4H649V366.5z"/>
		<path class="st12" d="M653.5,366.5h2.2v11.4h-2.2V366.5z"/>
		<path class="st12" d="M667.5,369.9c0-0.8-0.4-1.9-1.3-1.9c-1.1,0-1.6,1.2-1.6,4c0,2.8,0.3,4.5,1.6,4.5c0.5,0,1.4-0.6,1.4-1.8v-1.2
			h-1.5v-1.7h3.7v6.2h-1.7v-1.1h0c-0.5,0.9-1.3,1.3-2.4,1.3c-2.8,0-3.4-2.1-3.4-6.1c0-3.8,0.9-5.8,3.8-5.8c2.5,0,3.6,1.3,3.6,3.6
			H667.5z"/>
		<path class="st12" d="M675,369.1c2.7,0,3.4,1.5,3.4,4.5c0,2.9-0.9,4.5-3.4,4.5c-2.7,0-3.4-1.5-3.4-4.5
			C671.6,370.7,672.4,369.1,675,369.1z M675,376.6c0.9,0,1.2-0.9,1.2-3c0-2.1-0.3-3-1.2-3c-1.1,0-1.2,1.3-1.2,3
			S673.9,376.6,675,376.6z"/>
		<path class="st12" d="M680.2,369.3h2.1v1.2h0c0.4-0.8,1.1-1.4,2-1.4c0.1,0,0.3,0,0.4,0v2.1c-0.2,0-0.5,0-0.7,0
			c-0.8,0-1.6,0.4-1.6,1.6v5.2h-2.2V369.3z"/>
		<path class="st12" d="M692.6,369.3v8.2c0,2.3-1,3.4-3.6,3.4c-1.9,0-2.9-0.8-2.9-2.3h2.1c0,0.3,0.1,0.5,0.3,0.7
			c0.2,0.1,0.5,0.2,0.7,0.2c0.9,0,1.2-0.7,1.2-1.6v-1.1h0c-0.4,0.6-1.1,1.1-1.8,1.1c-1.8,0-2.6-1.2-2.6-4.4c0-2,0.3-4.4,2.7-4.4
			c0.6,0,1.4,0.3,1.8,1.2h0v-1H692.6z M689.3,376.1c0.9,0,1.2-1,1.2-2.5c0-2.1-0.3-2.9-1.2-2.9c-1,0-1.2,0.8-1.2,3.1
			C688.2,375.1,688.4,376.1,689.3,376.1z"/>
		<path class="st12" d="M696.7,373.9v0.7c0,1,0.3,2,1.1,2c0.7,0,1-0.6,1.2-1.6h2c-0.1,2-1,3.1-3.1,3.1c-3.2,0-3.3-2.5-3.3-4.6
			c0-2.3,0.4-4.5,3.4-4.5c2.6,0,3.2,1.7,3.2,4.4v0.5H696.7z M698.9,372.6c0-1.3-0.2-2-1.1-2c-0.9,0-1.1,0.9-1.1,1.7v0.3H698.9z"/>
	</g>
	<g>
		<path class="st12" d="M691.4,318.9h3.4l1.6,8.1h0l1.6-8.1h3.4v11.4h-2.1v-9.1h0l-2,9.1h-1.8l-2-9.1h0v9.1h-2.1V318.9z"/>
		<path class="st12" d="M703.7,324.4v-0.2c0-2,1.4-2.7,3-2.7c2.6,0,3.1,1.1,3.1,2.6v4.5c0,0.8,0,1.2,0.3,1.7H708
			c-0.1-0.3-0.2-0.6-0.3-0.9h0c-0.5,0.9-1.1,1.1-2.2,1.1c-1.5,0-2.1-1.3-2.1-2.5c0-1.6,0.7-2.3,2.2-2.7l1.2-0.3
			c0.7-0.2,0.9-0.4,0.9-1c0-0.7-0.3-1.1-1-1.1c-0.7,0-1,0.4-1,1.1v0.2H703.7z M707.8,326.1c-0.3,0.2-0.7,0.4-0.9,0.4
			c-0.9,0.2-1.2,0.6-1.2,1.4c0,0.7,0.2,1.2,0.8,1.2c0.6,0,1.4-0.4,1.4-1.3V326.1z"/>
		<path class="st12" d="M712.1,321.8h2.1v1h0c0.5-0.8,1.3-1.2,2.2-1.2c1.4,0,2.2,0.8,2.2,2.4v6.4h-2.2v-5.9c0-0.9-0.3-1.2-0.9-1.2
			c-0.8,0-1.2,0.5-1.2,1.4v5.7h-2.2V321.8z"/>
		<path class="st12" d="M720.7,321.8h2.1v1h0c0.5-0.8,1.3-1.2,2.2-1.2c1.4,0,2.2,0.8,2.2,2.4v6.4H725v-5.9c0-0.9-0.3-1.2-0.9-1.2
			c-0.8,0-1.2,0.5-1.2,1.4v5.7h-2.2V321.8z"/>
		<path class="st12" d="M729.4,318.8h2.2v1.9h-2.2V318.8z M729.4,321.8h2.2v8.6h-2.2V321.8z"/>
		<path class="st12" d="M733.8,321.8h2.1v1h0c0.5-0.8,1.3-1.2,2.2-1.2c1.4,0,2.2,0.8,2.2,2.4v6.4h-2.2v-5.9c0-0.9-0.3-1.2-0.9-1.2
			c-0.8,0-1.2,0.5-1.2,1.4v5.7h-2.2V321.8z"/>
		<path class="st12" d="M748.9,321.8v8.2c0,2.3-1,3.4-3.6,3.4c-1.9,0-2.9-0.8-2.9-2.3h2.1c0,0.3,0.1,0.5,0.3,0.7
			c0.2,0.1,0.5,0.2,0.7,0.2c0.9,0,1.2-0.7,1.2-1.6v-1.1h0c-0.4,0.6-1.1,1.1-1.8,1.1c-1.8,0-2.6-1.2-2.6-4.4c0-2,0.3-4.4,2.7-4.4
			c0.6,0,1.4,0.3,1.8,1.2h0v-1H748.9z M745.6,328.6c0.9,0,1.2-1,1.2-2.5c0-2.1-0.3-2.9-1.2-2.9c-1,0-1.2,0.8-1.2,3.1
			C744.5,327.5,744.7,328.6,745.6,328.6z"/>
		<path class="st12" d="M696.4,338.3c0-0.8-0.4-1.9-1.3-1.9c-1.1,0-1.6,1.2-1.6,4c0,2.8,0.3,4.5,1.6,4.5c0.5,0,1.4-0.6,1.4-1.8v-1.2
			H695v-1.7h3.7v6.2H697v-1.1h0c-0.5,0.9-1.3,1.3-2.4,1.3c-2.8,0-3.4-2.1-3.4-6.1c0-3.8,0.9-5.8,3.8-5.8c2.5,0,3.6,1.3,3.6,3.6
			H696.4z"/>
		<path class="st12" d="M703.9,337.5c2.7,0,3.4,1.5,3.4,4.5c0,2.9-0.9,4.5-3.4,4.5c-2.7,0-3.4-1.5-3.4-4.5
			C700.5,339.1,701.4,337.5,703.9,337.5z M703.9,345.1c0.9,0,1.2-0.9,1.2-3c0-2.1-0.3-3-1.2-3c-1.1,0-1.2,1.3-1.2,3
			S702.8,345.1,703.9,345.1z"/>
		<path class="st12" d="M709.1,337.8h2.1v1.2h0c0.4-0.8,1.1-1.4,2-1.4c0.1,0,0.3,0,0.4,0v2.1c-0.2,0-0.5,0-0.7,0
			c-0.8,0-1.6,0.4-1.6,1.6v5.2h-2.2V337.8z"/>
		<path class="st12" d="M721.5,337.8v8.2c0,2.3-1,3.4-3.6,3.4c-1.9,0-2.9-0.8-2.9-2.3h2.1c0,0.3,0.1,0.5,0.3,0.7
			c0.2,0.1,0.5,0.2,0.7,0.2c0.9,0,1.2-0.7,1.2-1.6v-1.1h0c-0.4,0.6-1.1,1.1-1.8,1.1c-1.8,0-2.6-1.2-2.6-4.4c0-2,0.3-4.4,2.7-4.4
			c0.6,0,1.4,0.3,1.8,1.2h0v-1H721.5z M718.2,344.6c0.9,0,1.2-1,1.2-2.5c0-2.1-0.3-2.9-1.2-2.9c-1,0-1.2,0.8-1.2,3.1
			C717.1,343.5,717.3,344.6,718.2,344.6z"/>
		<path class="st12" d="M725.6,342.4v0.7c0,1,0.3,2,1.1,2c0.7,0,1-0.6,1.2-1.6h2c-0.1,2-1,3.1-3.1,3.1c-3.2,0-3.3-2.5-3.3-4.6
			c0-2.3,0.4-4.4,3.4-4.4c2.6,0,3.2,1.7,3.2,4.4v0.5H725.6z M727.9,341.1c0-1.3-0.2-2-1.1-2c-0.9,0-1.1,0.9-1.1,1.7v0.3H727.9z"/>
	</g>
	<g>
		<path class="st12" d="M712.5,402.8h2.2l1.3,8.5h0l1.3-8.5h2.2l1.3,8.5h0l1.3-8.5h2.2l-2.1,11.4h-2.6l-1.3-8.3h0l-1.3,8.3h-2.6
			L712.5,402.8z"/>
		<path class="st12" d="M725.9,402.7h2.2v1.9h-2.2V402.7z M725.9,405.6h2.2v8.6h-2.2V405.6z"/>
		<path class="st12" d="M730.3,405.6h2.1v1h0c0.5-0.8,1.3-1.2,2.2-1.2c1.4,0,2.2,0.8,2.2,2.4v6.4h-2.2v-5.9c0-0.9-0.3-1.2-0.9-1.2
			c-0.8,0-1.2,0.5-1.2,1.4v5.7h-2.2V405.6z"/>
		<path class="st12" d="M743.4,413.3L743.4,413.3c-0.5,0.8-1.1,1.1-2,1.1c-1.8,0-2.6-1.3-2.6-4.5s0.8-4.5,2.6-4.5
			c0.8,0,1.4,0.3,1.9,1h0v-3.6h2.2v11.4h-2.1V413.3z M742.1,412.8c1,0,1.2-1,1.2-2.8s-0.2-2.8-1.2-2.8c-1,0-1.2,1-1.2,2.8
			S741.2,412.8,742.1,412.8z"/>
		<path class="st12" d="M747.7,405.6h2.2v9.2c0,1.4-0.5,2.2-2.5,2.2c-0.3,0-0.6,0-0.9,0v-1.6c0.1,0,0.2,0,0.4,0
			c0.8,0,0.9-0.4,0.9-1.4V405.6z M747.7,402.7h2.2v1.9h-2.2V402.7z"/>
		<path class="st12" d="M752.1,408.3v-0.2c0-2,1.4-2.7,3-2.7c2.6,0,3.1,1.1,3.1,2.6v4.5c0,0.8,0,1.2,0.3,1.7h-2.1
			c-0.1-0.3-0.2-0.6-0.3-0.9h0c-0.5,0.9-1.1,1.1-2.2,1.1c-1.5,0-2.1-1.3-2.1-2.5c0-1.6,0.7-2.3,2.2-2.7l1.2-0.3
			c0.7-0.2,0.9-0.4,0.9-1c0-0.7-0.3-1.1-1-1.1c-0.7,0-1,0.4-1,1.1v0.2H752.1z M756.1,409.9c-0.3,0.2-0.7,0.4-0.9,0.4
			c-0.9,0.2-1.2,0.6-1.2,1.4c0,0.7,0.2,1.2,0.8,1.2s1.4-0.4,1.4-1.3V409.9z"/>
		<path class="st12" d="M760.4,405.6h2.1v1h0c0.5-0.8,1.3-1.2,2.2-1.2c1.4,0,2.2,0.8,2.2,2.4v6.4h-2.2v-5.9c0-0.9-0.3-1.2-0.9-1.2
			c-0.8,0-1.2,0.5-1.2,1.4v5.7h-2.2V405.6z"/>
		<path class="st12" d="M769.1,408.3v-0.2c0-2,1.4-2.7,3-2.7c2.6,0,3.1,1.1,3.1,2.6v4.5c0,0.8,0,1.2,0.3,1.7h-2.1
			c-0.1-0.3-0.2-0.6-0.3-0.9h0c-0.5,0.9-1.1,1.1-2.2,1.1c-1.5,0-2.1-1.3-2.1-2.5c0-1.6,0.7-2.3,2.2-2.7l1.2-0.3
			c0.7-0.2,0.9-0.4,0.9-1c0-0.7-0.3-1.1-1-1.1c-0.7,0-1,0.4-1,1.1v0.2H769.1z M773.1,409.9c-0.3,0.2-0.7,0.4-0.9,0.4
			c-0.9,0.2-1.2,0.6-1.2,1.4c0,0.7,0.2,1.2,0.8,1.2s1.4-0.4,1.4-1.3V409.9z"/>
		<path class="st12" d="M787,406.2c0-0.8-0.4-1.9-1.3-1.9c-1.1,0-1.6,1.2-1.6,4c0,2.8,0.3,4.5,1.6,4.5c0.5,0,1.4-0.6,1.4-1.8v-1.2
			h-1.5v-1.7h3.7v6.2h-1.7v-1.1h0c-0.5,0.9-1.3,1.3-2.4,1.3c-2.8,0-3.4-2.1-3.4-6.1c0-3.8,0.9-5.8,3.8-5.8c2.5,0,3.6,1.3,3.6,3.6
			H787z"/>
		<path class="st12" d="M794.5,405.4c2.7,0,3.4,1.5,3.4,4.5c0,2.9-0.9,4.5-3.4,4.5c-2.7,0-3.4-1.5-3.4-4.5
			C791.1,407,792,405.4,794.5,405.4z M794.5,413c0.9,0,1.2-0.9,1.2-3c0-2.1-0.3-3-1.2-3c-1.1,0-1.2,1.3-1.2,3
			C793.3,411.7,793.4,413,794.5,413z"/>
		<path class="st12" d="M799.7,405.6h2.1v1.2h0c0.4-0.8,1.1-1.4,2-1.4c0.1,0,0.3,0,0.4,0v2.1c-0.2,0-0.5,0-0.7,0
			c-0.8,0-1.6,0.4-1.6,1.6v5.2h-2.2V405.6z"/>
		<path class="st12" d="M812.2,405.6v8.2c0,2.3-1,3.4-3.6,3.4c-1.9,0-2.9-0.8-2.9-2.3h2.1c0,0.3,0.1,0.5,0.3,0.7
			c0.2,0.1,0.5,0.2,0.7,0.2c0.9,0,1.2-0.7,1.2-1.6v-1.1h0c-0.4,0.6-1.1,1.1-1.8,1.1c-1.8,0-2.6-1.2-2.6-4.4c0-2,0.3-4.4,2.7-4.4
			c0.6,0,1.4,0.3,1.8,1.2h0v-1H812.2z M808.9,412.5c0.9,0,1.2-1,1.2-2.5c0-2.1-0.3-2.9-1.2-2.9c-1,0-1.2,0.8-1.2,3.1
			C807.8,411.4,807.9,412.5,808.9,412.5z"/>
		<path class="st12" d="M816.2,410.3v0.7c0,1,0.3,2,1.1,2c0.7,0,1-0.6,1.2-1.6h2c-0.1,2-1,3.1-3.1,3.1c-3.2,0-3.3-2.5-3.3-4.6
			c0-2.3,0.4-4.4,3.4-4.4c2.6,0,3.2,1.7,3.2,4.4v0.5H816.2z M818.5,409c0-1.3-0.2-2-1.1-2c-0.9,0-1.1,0.9-1.1,1.7v0.3H818.5z"/>
	</g>
	<g>
		<path class="st12" d="M646.5,242.4h3.4l1.6,8.1h0l1.6-8.1h3.4v11.4h-2.1v-9.1h0l-2,9.1h-1.8l-2-9.1h0v9.1h-2.1V242.4z"/>
		<path class="st12" d="M658.9,242.3h2.2v1.9h-2.2V242.3z M658.9,245.2h2.2v8.6h-2.2V245.2z"/>
		<path class="st12" d="M663.8,242.8h2.2v2.5h1.3v1.5H666v4.7c0,0.7,0.1,0.9,0.8,0.9c0.2,0,0.4,0,0.5,0v1.5c-0.5,0-0.9,0.1-1.4,0.1
			c-1.7,0-2-0.5-2-2.3v-4.9h-1.1v-1.5h1.1V242.8z"/>
		<path class="st12" d="M672.8,248.3c0-0.8-0.2-1.7-1-1.7c-1.1,0-1.3,1-1.3,2.9c0,2.1,0.2,3,1.2,3c0.7,0,1.1-0.6,1.1-2h2.1
			c0,2.3-0.9,3.5-3.3,3.5c-2.2,0-3.3-1.1-3.3-4.5c0-3.5,1.5-4.5,3.5-4.5c2,0,3.1,1.3,3.1,3.3H672.8z"/>
		<path class="st12" d="M676.7,242.4h2.2v3.7h0c0.4-0.7,1.2-1.1,2.1-1.1c1.4,0,2.2,0.8,2.2,2.4v6.4H681v-5.9c0-0.9-0.3-1.2-0.9-1.2
			c-0.8,0-1.2,0.5-1.2,1.4v5.7h-2.2V242.4z"/>
		<path class="st12" d="M687.3,249.9v0.7c0,1,0.3,2,1.1,2c0.7,0,1-0.6,1.2-1.6h2c-0.1,2-1,3.1-3.1,3.1c-3.2,0-3.3-2.5-3.3-4.6
			c0-2.3,0.4-4.5,3.4-4.5c2.6,0,3.2,1.7,3.2,4.4v0.5H687.3z M689.5,248.5c0-1.3-0.2-2-1.1-2c-0.9,0-1.1,0.9-1.1,1.7v0.3H689.5z"/>
		<path class="st12" d="M693.5,242.4h2.2v11.4h-2.2V242.4z"/>
		<path class="st12" d="M698,242.4h2.2v11.4H698V242.4z"/>
		<path class="st12" d="M706.9,242.4h6.4v1.9h-4.1v2.7h3.8v1.9h-3.8v5h-2.3V242.4z"/>
		<path class="st12" d="M714.9,247.9v-0.2c0-2,1.4-2.7,3-2.7c2.6,0,3.1,1.1,3.1,2.6v4.5c0,0.8,0,1.2,0.3,1.7h-2.1
			c-0.1-0.3-0.2-0.6-0.3-0.9h0c-0.5,0.9-1.1,1.1-2.2,1.1c-1.5,0-2.1-1.3-2.1-2.5c0-1.6,0.7-2.3,2.2-2.7l1.2-0.3
			c0.7-0.2,0.9-0.4,0.9-1c0-0.7-0.3-1.1-1-1.1c-0.7,0-1,0.4-1,1.1v0.2H714.9z M718.9,249.5c-0.3,0.2-0.7,0.4-0.9,0.4
			c-0.9,0.2-1.2,0.6-1.2,1.4c0,0.7,0.2,1.2,0.8,1.2s1.4-0.4,1.4-1.3V249.5z"/>
		<path class="st12" d="M723.3,242.4h2.2v11.4h-2.2V242.4z"/>
		<path class="st12" d="M727.8,242.4h2.2v11.4h-2.2V242.4z"/>
		<path class="st12" d="M733.8,251v0.3c0,0.8,0.4,1.2,1.2,1.2c0.7,0,1.1-0.3,1.1-1c0-0.6-0.4-0.8-0.8-1l-1.6-0.6
			c-1.2-0.4-1.8-1.2-1.8-2.4c0-1.4,0.9-2.6,3.2-2.6c2,0,2.9,0.9,2.9,2.4v0.4h-2c0-0.9-0.3-1.3-1-1.3c-0.6,0-1,0.3-1,0.9
			c0,0.4,0.2,0.8,1,1l1.3,0.4c1.4,0.5,1.9,1.2,1.9,2.5c0,1.8-1.3,2.7-3.2,2.7c-2.5,0-3.2-1.1-3.2-2.7V251H733.8z"/>
	</g>
	<g>
		<path class="st12" d="M882.9,255.1h2.2l1.3,8.5h0l1.3-8.5h2.2l1.3,8.5h0l1.3-8.5h2.2l-2.1,11.4h-2.6l-1.3-8.3h0l-1.3,8.3H885
			L882.9,255.1z"/>
		<path class="st12" d="M896.3,267.7c0.2,0,0.4,0,0.6,0c0.8,0,1.1-0.4,1.2-1.2l-2.4-8.6h2.3l1.3,6h0l1.1-6h2.2l-2.1,8
			c-0.8,3-1.3,3.4-3.3,3.4h-0.9V267.7z"/>
		<path class="st12" d="M904.1,257.9h2.1v1h0c0.5-0.8,1.3-1.2,2.2-1.2c1.4,0,2.2,0.8,2.2,2.4v6.4h-2.2v-5.9c0-0.9-0.3-1.2-0.9-1.2
			c-0.8,0-1.2,0.5-1.2,1.4v5.7h-2.2V257.9z"/>
		<path class="st12" d="M917.1,265.6L917.1,265.6c-0.5,0.8-1.1,1.1-2,1.1c-1.8,0-2.6-1.3-2.6-4.5s0.8-4.5,2.6-4.5
			c0.8,0,1.4,0.3,1.9,1h0v-3.6h2.2v11.4h-2.1V265.6z M915.9,265.1c1,0,1.2-1,1.2-2.8s-0.2-2.8-1.2-2.8c-1,0-1.2,1-1.2,2.8
			S914.9,265.1,915.9,265.1z"/>
		<path class="st12" d="M921.4,255.1h2.2v3.7h0c0.4-0.7,1.2-1.1,2.1-1.1c1.4,0,2.2,0.8,2.2,2.4v6.4h-2.2v-5.9c0-0.9-0.3-1.2-0.9-1.2
			c-0.8,0-1.2,0.5-1.2,1.4v5.7h-2.2V255.1z"/>
		<path class="st12" d="M930,260.6v-0.2c0-2,1.4-2.7,3-2.7c2.6,0,3.1,1.1,3.1,2.6v4.5c0,0.8,0,1.2,0.3,1.7h-2.1
			c-0.1-0.3-0.2-0.6-0.3-0.9h0c-0.5,0.9-1.1,1.1-2.2,1.1c-1.5,0-2.1-1.3-2.1-2.5c0-1.6,0.7-2.3,2.2-2.7l1.2-0.3
			c0.7-0.2,0.9-0.4,0.9-1c0-0.7-0.3-1.1-1-1.1c-0.7,0-1,0.4-1,1.1v0.2H930z M934,262.2c-0.3,0.2-0.7,0.4-0.9,0.4
			c-0.9,0.2-1.2,0.6-1.2,1.4c0,0.7,0.2,1.2,0.8,1.2c0.6,0,1.4-0.4,1.4-1.3V262.2z"/>
		<path class="st12" d="M938.3,257.9h2.1v0.9h0c0.6-0.8,1.2-1.1,2.2-1.1c1,0,1.7,0.5,2,1.4h0c0.3-0.9,1.1-1.4,2.2-1.4
			c1.5,0,2.1,0.9,2.1,2.6v6.3h-2.2v-6c0-0.7-0.2-1.1-0.9-1.1c-0.7,0-1.2,0.5-1.2,1.5v5.7h-2.2v-6c0-0.7-0.2-1.1-0.9-1.1
			c-0.7,0-1.2,0.5-1.2,1.5v5.7h-2.2V257.9z"/>
	</g>
	<g>
		<path class="st12" d="M993.3,56.9h3.8c3.2,0,3.8,2.2,3.8,5.6c0,4-0.9,5.9-3.9,5.9h-3.6V56.9z M995.6,66.6h1c1.6,0,1.9-1,1.9-4.1
			c0-2.6-0.2-3.9-2-3.9h-1V66.6z"/>
		<path class="st12" d="M1002.9,62.3v-0.2c0-2,1.4-2.7,3-2.7c2.6,0,3.1,1.1,3.1,2.6v4.5c0,0.8,0,1.2,0.3,1.7h-2.1
			c-0.1-0.3-0.2-0.6-0.3-0.9h0c-0.5,0.9-1.1,1.1-2.2,1.1c-1.5,0-2.1-1.3-2.1-2.5c0-1.6,0.7-2.3,2.2-2.7l1.2-0.3
			c0.7-0.2,0.9-0.4,0.9-1c0-0.7-0.3-1.1-1-1.1c-0.7,0-1,0.4-1,1.1v0.2H1002.9z M1006.9,64c-0.3,0.2-0.7,0.4-0.9,0.4
			c-0.9,0.2-1.2,0.6-1.2,1.4c0,0.7,0.2,1.2,0.8,1.2c0.6,0,1.4-0.4,1.4-1.3V64z"/>
		<path class="st12" d="M1011.2,59.7h2.1v1.2h0c0.4-0.8,1.1-1.4,2-1.4c0.1,0,0.3,0,0.4,0v2.1c-0.2,0-0.5,0-0.7,0
			c-0.8,0-1.6,0.4-1.6,1.6v5.2h-2.2V59.7z"/>
		<path class="st12" d="M1016.6,59.7h2.2l1,6.1h0l1.1-6.1h2.4l1.1,6.1h0l1-6.1h2.1l-1.9,8.6h-2.5l-1.1-6.1h0l-1.1,6.1h-2.6
			L1016.6,59.7z"/>
		<path class="st12" d="M1029.2,56.8h2.2v1.9h-2.2V56.8z M1029.2,59.7h2.2v8.6h-2.2V59.7z"/>
		<path class="st12" d="M1033.6,59.7h2.1v1h0c0.5-0.8,1.3-1.2,2.2-1.2c1.4,0,2.2,0.8,2.2,2.4v6.4h-2.2v-5.9c0-0.9-0.3-1.2-0.9-1.2
			c-0.8,0-1.2,0.5-1.2,1.4v5.7h-2.2V59.7z"/>
	</g>
	<g>
		<path class="st12" d="M1046.5,199.1v4.6h0l2.9-4.6h2.5l-3.1,4.9l3.5,6.5h-2.6l-2.4-4.7l-0.8,1.3v3.4h-2.3v-11.4H1046.5z"/>
		<path class="st12" d="M1053.4,204.6v-0.2c0-2,1.4-2.7,3-2.7c2.6,0,3.1,1.1,3.1,2.6v4.5c0,0.8,0,1.2,0.3,1.7h-2.1
			c-0.1-0.3-0.2-0.6-0.3-0.9h0c-0.5,0.9-1.1,1.1-2.2,1.1c-1.5,0-2.1-1.3-2.1-2.5c0-1.6,0.7-2.3,2.2-2.7l1.2-0.3
			c0.7-0.2,0.9-0.4,0.9-1c0-0.7-0.3-1.1-1-1.1c-0.7,0-1,0.4-1,1.1v0.2H1053.4z M1057.4,206.2c-0.3,0.2-0.7,0.4-0.9,0.4
			c-0.9,0.2-1.2,0.6-1.2,1.4c0,0.7,0.2,1.2,0.8,1.2c0.6,0,1.4-0.4,1.4-1.3V206.2z"/>
		<path class="st12" d="M1062.2,199.5h2.2v2.5h1.3v1.5h-1.3v4.7c0,0.7,0.1,0.9,0.8,0.9c0.2,0,0.4,0,0.5,0v1.5
			c-0.5,0-0.9,0.1-1.4,0.1c-1.7,0-2-0.5-2-2.3v-4.9h-1.1v-1.5h1.1V199.5z"/>
		<path class="st12" d="M1067.1,199.1h2.2v3.7h0c0.4-0.7,1.2-1.1,2.1-1.1c1.4,0,2.2,0.8,2.2,2.4v6.4h-2.2v-5.9
			c0-0.9-0.3-1.2-0.9-1.2c-0.8,0-1.2,0.5-1.2,1.4v5.7h-2.2V199.1z"/>
		<path class="st12" d="M1077.6,206.6v0.7c0,1,0.3,2,1.1,2c0.7,0,1-0.6,1.2-1.6h2c-0.1,2-1,3.1-3.1,3.1c-3.2,0-3.3-2.5-3.3-4.6
			c0-2.3,0.4-4.4,3.4-4.4c2.6,0,3.2,1.7,3.2,4.4v0.5H1077.6z M1079.9,205.3c0-1.3-0.2-2-1.1-2c-0.9,0-1.1,0.9-1.1,1.7v0.3H1079.9z"
			/>
		<path class="st12" d="M1083.8,201.9h2.1v1.2h0c0.4-0.8,1.1-1.4,2-1.4c0.1,0,0.3,0,0.4,0v2.1c-0.2,0-0.5,0-0.7,0
			c-0.8,0-1.6,0.4-1.6,1.6v5.2h-2.2V201.9z"/>
		<path class="st12" d="M1089.8,199h2.2v1.9h-2.2V199z M1089.8,201.9h2.2v8.6h-2.2V201.9z"/>
		<path class="st12" d="M1094.2,201.9h2.1v1h0c0.5-0.8,1.3-1.2,2.2-1.2c1.4,0,2.2,0.8,2.2,2.4v6.4h-2.2v-5.9c0-0.9-0.3-1.2-0.9-1.2
			c-0.8,0-1.2,0.5-1.2,1.4v5.7h-2.2V201.9z"/>
		<path class="st12" d="M1104.8,206.6v0.7c0,1,0.3,2,1.1,2c0.7,0,1-0.6,1.2-1.6h2c-0.1,2-1,3.1-3.1,3.1c-3.2,0-3.3-2.5-3.3-4.6
			c0-2.3,0.4-4.4,3.4-4.4c2.6,0,3.2,1.7,3.2,4.4v0.5H1104.8z M1107,205.3c0-1.3-0.2-2-1.1-2c-0.9,0-1.1,0.9-1.1,1.7v0.3H1107z"/>
	</g>
	<g>
		<path class="st12" d="M1180.7,521.1h2.8l3,11.4h-2.4l-0.5-2.4h-3l-0.5,2.4h-2.4L1180.7,521.1z M1181,528.2h2.2l-1.1-5.1h0
			L1181,528.2z"/>
		<path class="st12" d="M1188,521.1h2.2v11.4h-2.2V521.1z"/>
		<path class="st12" d="M1192.5,521h2.2v1.9h-2.2V521z M1192.5,523.9h2.2v8.6h-2.2V523.9z"/>
		<path class="st12" d="M1201,527c0-0.8-0.2-1.7-1-1.7c-1.1,0-1.3,1-1.3,2.9c0,2.1,0.2,3,1.2,3c0.7,0,1.1-0.6,1.1-2h2.1
			c0,2.3-0.9,3.5-3.3,3.5c-2.2,0-3.3-1.1-3.3-4.5c0-3.5,1.5-4.5,3.5-4.5c2,0,3.1,1.3,3.1,3.3H1201z"/>
		<path class="st12" d="M1206.8,528.6v0.7c0,1,0.3,2,1.1,2c0.7,0,1-0.6,1.2-1.6h2c-0.1,2-1,3.1-3.1,3.1c-3.2,0-3.3-2.5-3.3-4.6
			c0-2.3,0.4-4.4,3.4-4.4c2.6,0,3.2,1.7,3.2,4.4v0.5H1206.8z M1209.1,527.3c0-1.3-0.2-2-1.1-2c-0.9,0-1.1,0.9-1.1,1.7v0.3H1209.1z"
			/>
		<path class="st12" d="M1173.3,545v0.3c0,1.1,0.3,1.8,1.5,1.8c0.7,0,1.4-0.4,1.4-1.4c0-1-0.5-1.4-2-2c-2-0.7-3-1.6-3-3.5
			c0-2.2,1.4-3.4,3.5-3.4c2,0,3.5,0.9,3.5,3.1v0.3h-2.2c0-1.1-0.4-1.7-1.2-1.7c-1,0-1.3,0.7-1.3,1.3c0,0.7,0.2,1.1,1.2,1.6l1.8,0.8
			c1.7,0.8,2.2,1.6,2.2,3c0,2.4-1.5,3.5-4,3.5c-2.6,0-3.6-1.2-3.6-3.3V545H1173.3z"/>
		<path class="st12" d="M1180.4,539.9h2.1v0.9h0c0.5-0.8,1.1-1.1,2-1.1c1.8,0,2.6,1.3,2.6,4.5s-0.8,4.5-2.6,4.5
			c-0.8,0-1.4-0.3-1.9-1h0v3.6h-2.2V539.9z M1183.7,547.1c1,0,1.2-1,1.2-2.8s-0.2-2.8-1.2-2.8c-1,0-1.2,1-1.2,2.8
			S1182.8,547.1,1183.7,547.1z"/>
		<path class="st12" d="M1189,539.9h2.1v1.2h0c0.4-0.8,1.1-1.4,2-1.4c0.1,0,0.3,0,0.4,0v2.1c-0.2,0-0.5,0-0.7,0
			c-0.8,0-1.6,0.4-1.6,1.6v5.2h-2.2V539.9z"/>
		<path class="st12" d="M1195,537h2.2v1.9h-2.2V537z M1195,539.9h2.2v8.6h-2.2V539.9z"/>
		<path class="st12" d="M1199.4,539.9h2.1v1h0c0.5-0.8,1.3-1.2,2.2-1.2c1.4,0,2.2,0.8,2.2,2.4v6.4h-2.2v-5.9c0-0.9-0.3-1.2-0.9-1.2
			c-0.8,0-1.2,0.5-1.2,1.4v5.7h-2.2V539.9z"/>
		<path class="st12" d="M1214.5,539.9v8.2c0,2.3-1,3.4-3.6,3.4c-1.9,0-2.9-0.8-2.9-2.3h2.1c0,0.3,0.1,0.5,0.3,0.7
			c0.2,0.1,0.5,0.2,0.7,0.2c0.9,0,1.2-0.7,1.2-1.6v-1.1h0c-0.4,0.6-1.1,1.1-1.8,1.1c-1.8,0-2.6-1.2-2.6-4.4c0-2,0.3-4.4,2.7-4.4
			c0.6,0,1.4,0.3,1.8,1.2h0v-1H1214.5z M1211.2,546.8c0.9,0,1.2-1,1.2-2.5c0-2.1-0.3-2.9-1.2-2.9c-1,0-1.2,0.8-1.2,3.1
			C1210.1,545.7,1210.3,546.8,1211.2,546.8z"/>
		<path class="st12" d="M1218.3,545.7v0.3c0,0.8,0.4,1.2,1.2,1.2c0.7,0,1.1-0.3,1.1-1c0-0.6-0.4-0.8-0.8-1l-1.6-0.6
			c-1.2-0.4-1.8-1.2-1.8-2.4c0-1.4,0.9-2.6,3.2-2.6c2,0,2.9,0.9,2.9,2.4v0.4h-2c0-0.9-0.3-1.3-1-1.3c-0.6,0-1,0.3-1,0.9
			c0,0.4,0.2,0.8,1,1l1.3,0.4c1.4,0.5,1.9,1.2,1.9,2.5c0,1.8-1.3,2.7-3.2,2.7c-2.5,0-3.2-1.1-3.2-2.7v-0.3H1218.3z"/>
	</g>
	<g>
		<path class="st12" d="M1163.5,101.4v8.2c0,2.4-1.1,3.4-3.4,3.4c-2.4,0-3-1.6-3-3.3v-0.5h2.1v0.4c0,1.2,0.2,1.8,1,1.8s1-0.6,1-1.8
			v-8.2H1163.5z"/>
		<path class="st12" d="M1165.5,106.8v-0.2c0-2,1.4-2.7,3-2.7c2.6,0,3.1,1.1,3.1,2.6v4.5c0,0.8,0,1.2,0.3,1.7h-2.1
			c-0.1-0.3-0.2-0.6-0.3-0.9h0c-0.5,0.9-1.1,1.1-2.2,1.1c-1.5,0-2.1-1.3-2.1-2.5c0-1.6,0.7-2.3,2.2-2.7l1.2-0.3
			c0.7-0.2,0.9-0.4,0.9-1c0-0.7-0.3-1.1-1-1.1c-0.7,0-1,0.4-1,1.1v0.2H1165.5z M1169.6,108.5c-0.3,0.2-0.7,0.4-0.9,0.4
			c-0.9,0.2-1.2,0.6-1.2,1.4c0,0.7,0.2,1.2,0.8,1.2c0.6,0,1.4-0.4,1.4-1.3V108.5z"/>
		<path class="st12" d="M1173.9,101.4h2.2v3.6h0c0.5-0.7,1-1,1.9-1c1.8,0,2.6,1.3,2.6,4.5s-0.8,4.5-2.6,4.5c-0.9,0-1.5-0.3-2-1.1h0
			v0.9h-2.1V101.4z M1177.3,111.3c1,0,1.2-1,1.2-2.8c0-1.9-0.2-2.8-1.2-2.8c-1,0-1.2,1-1.2,2.8
			C1176.1,110.4,1176.3,111.3,1177.3,111.3z"/>
		<path class="st12" d="M1182.6,101.2h2.2v1.9h-2.2V101.2z M1182.6,104.2h2.2v8.6h-2.2V104.2z"/>
		<path class="st12" d="M1187,104.2h2.1v1.2h0c0.4-0.8,1.1-1.4,2-1.4c0.1,0,0.3,0,0.4,0v2.1c-0.2,0-0.5,0-0.7,0
			c-0.8,0-1.6,0.4-1.6,1.6v5.2h-2.2V104.2z"/>
		<path class="st12" d="M1197.4,111.8L1197.4,111.8c-0.5,0.8-1.3,1.2-2.2,1.2c-1.4,0-2.2-0.8-2.2-2.4v-6.4h2.2v5.9
			c0,0.9,0.3,1.2,0.9,1.2c0.8,0,1.2-0.5,1.2-1.4v-5.7h2.2v8.6h-2.1V111.8z"/>
	</g>
	<g>
		<path class="st12" d="M929.5,278.1v4.6h0l2.9-4.6h2.5l-3.1,4.9l3.5,6.5h-2.6l-2.4-4.7l-0.8,1.3v3.4h-2.3v-11.4H929.5z"/>
		<path class="st12" d="M940.8,288.5L940.8,288.5c-0.5,0.8-1.3,1.2-2.2,1.2c-1.4,0-2.2-0.8-2.2-2.4v-6.4h2.2v5.9
			c0,0.9,0.3,1.2,0.9,1.2c0.8,0,1.2-0.5,1.2-1.4v-5.7h2.2v8.6h-2.1V288.5z"/>
		<path class="st12" d="M945,280.9h2.1v1h0c0.5-0.8,1.3-1.2,2.2-1.2c1.4,0,2.2,0.8,2.2,2.4v6.4h-2.2v-5.9c0-0.9-0.3-1.2-0.9-1.2
			c-0.8,0-1.2,0.5-1.2,1.4v5.7H945V280.9z"/>
		<path class="st12" d="M958.1,288.5L958.1,288.5c-0.5,0.8-1.3,1.2-2.2,1.2c-1.4,0-2.2-0.8-2.2-2.4v-6.4h2.2v5.9
			c0,0.9,0.3,1.2,0.9,1.2c0.8,0,1.2-0.5,1.2-1.4v-5.7h2.2v8.6h-2.1V288.5z"/>
		<path class="st12" d="M962.3,280.9h2.1v1h0c0.5-0.8,1.3-1.2,2.2-1.2c1.4,0,2.2,0.8,2.2,2.4v6.4h-2.2v-5.9c0-0.9-0.3-1.2-0.9-1.2
			c-0.8,0-1.2,0.5-1.2,1.4v5.7h-2.2V280.9z"/>
		<path class="st12" d="M975.3,288.5L975.3,288.5c-0.5,0.8-1.3,1.2-2.2,1.2c-1.4,0-2.2-0.8-2.2-2.4v-6.4h2.2v5.9
			c0,0.9,0.3,1.2,0.9,1.2c0.8,0,1.2-0.5,1.2-1.4v-5.7h2.2v8.6h-2.1V288.5z"/>
		<path class="st12" d="M979.6,280.9h2.1v1.2h0c0.4-0.8,1.1-1.4,2-1.4c0.1,0,0.3,0,0.4,0v2.1c-0.2,0-0.5,0-0.7,0
			c-0.8,0-1.6,0.4-1.6,1.6v5.2h-2.2V280.9z"/>
		<path class="st12" d="M985.5,280.9h2.1v1.2h0c0.4-0.8,1.1-1.4,2-1.4c0.1,0,0.3,0,0.4,0v2.1c-0.2,0-0.5,0-0.7,0
			c-0.8,0-1.6,0.4-1.6,1.6v5.2h-2.2V280.9z"/>
		<path class="st12" d="M991.5,283.5v-0.2c0-2,1.4-2.7,3-2.7c2.6,0,3.1,1.1,3.1,2.6v4.5c0,0.8,0,1.2,0.3,1.7h-2.1
			c-0.1-0.3-0.2-0.6-0.3-0.9h0c-0.5,0.9-1.1,1.1-2.2,1.1c-1.5,0-2.1-1.3-2.1-2.5c0-1.6,0.7-2.3,2.2-2.7l1.2-0.3
			c0.7-0.2,0.9-0.4,0.9-1c0-0.7-0.3-1.1-1-1.1c-0.7,0-1,0.4-1,1.1v0.2H991.5z M995.5,285.2c-0.3,0.2-0.7,0.4-0.9,0.4
			c-0.9,0.2-1.2,0.6-1.2,1.4c0,0.7,0.2,1.2,0.8,1.2c0.6,0,1.4-0.4,1.4-1.3V285.2z"/>
	</g>
	<g>
		<path class="st12" d="M818.9,311.5v1.9h-4.1v2.7h3.8v1.9h-3.8v3.1h4.2v1.9h-6.5v-11.4H818.9z"/>
		<path class="st12" d="M820.9,311.5h2.2v11.4h-2.2V311.5z"/>
		<path class="st12" d="M836.4,324.3l-1.4-1.4c-0.2,0.1-0.4,0.1-0.7,0.2c-0.2,0-0.5,0-0.8,0c-3.5,0-3.9-2.5-3.9-5.9
			c0-3.5,0.4-5.9,3.9-5.9c3.5,0,3.9,2.5,3.9,5.9c0,1.9-0.1,3.6-0.9,4.6l1.2,1.2L836.4,324.3z M833.5,321.5c1.4,0,1.6-1.2,1.6-4.2
			c0-3.1-0.2-4.2-1.6-4.2c-1.4,0-1.6,1.2-1.6,4.2C831.9,320.3,832.1,321.5,833.5,321.5z"/>
		<path class="st12" d="M843.7,321.9L843.7,321.9c-0.5,0.8-1.3,1.2-2.2,1.2c-1.4,0-2.2-0.8-2.2-2.4v-6.4h2.2v5.9
			c0,0.9,0.3,1.2,0.9,1.2c0.8,0,1.2-0.5,1.2-1.4v-5.7h2.2v8.6h-2.1V321.9z"/>
		<path class="st12" d="M849.8,319v0.7c0,1,0.3,2,1.1,2c0.7,0,1-0.6,1.2-1.6h2c-0.1,2-1,3.1-3.1,3.1c-3.2,0-3.3-2.5-3.3-4.6
			c0-2.3,0.4-4.5,3.4-4.5c2.6,0,3.2,1.7,3.2,4.4v0.5H849.8z M852.1,317.7c0-1.3-0.2-2-1.1-2c-0.9,0-1.1,0.9-1.1,1.7v0.3H852.1z"/>
		<path class="st12" d="M857.6,320.1v0.3c0,0.8,0.4,1.2,1.2,1.2c0.7,0,1.1-0.3,1.1-1c0-0.6-0.4-0.8-0.8-1l-1.6-0.6
			c-1.2-0.4-1.8-1.2-1.8-2.4c0-1.4,0.9-2.6,3.2-2.6c2,0,2.9,0.9,2.9,2.4v0.4h-2c0-0.9-0.3-1.3-1-1.3c-0.6,0-1,0.3-1,0.9
			c0,0.4,0.2,0.8,1,1l1.3,0.4c1.4,0.5,1.9,1.2,1.9,2.5c0,1.8-1.3,2.7-3.2,2.7c-2.5,0-3.2-1.1-3.2-2.7v-0.3H857.6z"/>
		<path class="st12" d="M864.2,311.9h2.2v2.5h1.3v1.5h-1.3v4.7c0,0.7,0.1,0.9,0.8,0.9c0.2,0,0.4,0,0.5,0v1.5c-0.5,0-0.9,0.1-1.4,0.1
			c-1.7,0-2-0.5-2-2.3v-4.9h-1.1v-1.5h1.1V311.9z"/>
		<path class="st12" d="M869.1,314.3h2.1v1.2h0c0.4-0.8,1.1-1.4,2-1.4c0.1,0,0.3,0,0.4,0v2.1c-0.2,0-0.5,0-0.7,0
			c-0.8,0-1.6,0.4-1.6,1.6v5.2h-2.2V314.3z"/>
		<path class="st12" d="M878.2,314.1c2.7,0,3.4,1.5,3.4,4.5c0,2.9-0.9,4.5-3.4,4.5c-2.7,0-3.4-1.5-3.4-4.5
			C874.8,315.7,875.7,314.1,878.2,314.1z M878.2,321.7c0.9,0,1.2-0.9,1.2-3c0-2.1-0.3-3-1.2-3c-1.1,0-1.2,1.3-1.2,3
			S877.1,321.7,878.2,321.7z"/>
	</g>
	<g>
		<path class="st12" d="M919.4,366.5h3.9c1.9,0,3.2,0.7,3.2,2.9c0,1.2-0.6,2.2-1.7,2.5v0c1.3,0.2,2.1,1.1,2.1,2.7
			c0,1.8-0.9,3.3-3.6,3.3h-3.9V366.5z M921.7,371.2h0.7c1.3,0,1.8-0.4,1.8-1.5c0-1.1-0.5-1.5-1.7-1.5h-0.8V371.2z M921.7,376.2h0.9
			c1.1,0,1.9-0.4,1.9-1.7c0-1.3-0.8-1.7-1.8-1.7h-1V376.2z"/>
		<path class="st12" d="M933.2,376.9L933.2,376.9c-0.5,0.8-1.3,1.2-2.2,1.2c-1.4,0-2.2-0.8-2.2-2.4v-6.4h2.2v5.9
			c0,0.9,0.3,1.2,0.9,1.2c0.8,0,1.2-0.5,1.2-1.4v-5.7h2.2v8.6h-2.1V376.9z"/>
		<path class="st12" d="M937.5,369.3h2.1v1h0c0.5-0.8,1.3-1.2,2.2-1.2c1.4,0,2.2,0.8,2.2,2.4v6.4h-2.2V372c0-0.9-0.3-1.2-0.9-1.2
			c-0.8,0-1.2,0.5-1.2,1.4v5.7h-2.2V369.3z"/>
		<path class="st12" d="M952.6,369.3v8.2c0,2.3-1,3.4-3.6,3.4c-1.9,0-2.9-0.8-2.9-2.3h2.1c0,0.3,0.1,0.5,0.3,0.7
			c0.2,0.1,0.5,0.2,0.7,0.2c0.9,0,1.2-0.7,1.2-1.6v-1.1h0c-0.4,0.6-1.1,1.1-1.8,1.1c-1.8,0-2.6-1.2-2.6-4.4c0-2,0.3-4.4,2.7-4.4
			c0.6,0,1.4,0.3,1.8,1.2h0v-1H952.6z M949.2,376.1c0.9,0,1.2-1,1.2-2.5c0-2.1-0.3-2.9-1.2-2.9c-1,0-1.2,0.8-1.2,3.1
			C948.1,375.1,948.3,376.1,949.2,376.1z"/>
		<path class="st12" d="M954.8,366.5h2.2v11.4h-2.2V366.5z"/>
		<path class="st12" d="M961.1,373.9v0.7c0,1,0.3,2,1.1,2c0.7,0,1-0.6,1.2-1.6h2c-0.1,2-1,3.1-3.1,3.1c-3.2,0-3.3-2.5-3.3-4.6
			c0-2.3,0.4-4.4,3.4-4.4c2.6,0,3.2,1.7,3.2,4.4v0.5H961.1z M963.4,372.6c0-1.3-0.2-2-1.1-2c-0.9,0-1.1,0.9-1.1,1.7v0.3H963.4z"/>
		<path class="st12" d="M971.8,366.5h3.9c1.9,0,3.2,0.7,3.2,2.9c0,1.2-0.6,2.2-1.7,2.5v0c1.3,0.2,2.1,1.1,2.1,2.7
			c0,1.8-0.9,3.3-3.6,3.3h-3.9V366.5z M974.1,371.2h0.7c1.3,0,1.8-0.4,1.8-1.5c0-1.1-0.5-1.5-1.7-1.5h-0.8V371.2z M974.1,376.2h0.9
			c1.1,0,1.9-0.4,1.9-1.7c0-1.3-0.8-1.7-1.8-1.7h-1V376.2z"/>
		<path class="st12" d="M985.7,376.9L985.7,376.9c-0.5,0.8-1.3,1.2-2.2,1.2c-1.4,0-2.2-0.8-2.2-2.4v-6.4h2.2v5.9
			c0,0.9,0.3,1.2,0.9,1.2c0.8,0,1.2-0.5,1.2-1.4v-5.7h2.2v8.6h-2.1V376.9z"/>
		<path class="st12" d="M989.9,369.3h2.1v1h0c0.5-0.8,1.3-1.2,2.2-1.2c1.4,0,2.2,0.8,2.2,2.4v6.4h-2.2V372c0-0.9-0.3-1.2-0.9-1.2
			c-0.8,0-1.2,0.5-1.2,1.4v5.7h-2.2V369.3z"/>
		<path class="st12" d="M1005,369.3v8.2c0,2.3-1,3.4-3.6,3.4c-1.9,0-2.9-0.8-2.9-2.3h2.1c0,0.3,0.1,0.5,0.3,0.7
			c0.2,0.1,0.5,0.2,0.7,0.2c0.9,0,1.2-0.7,1.2-1.6v-1.1h0c-0.4,0.6-1.1,1.1-1.8,1.1c-1.8,0-2.6-1.2-2.6-4.4c0-2,0.3-4.4,2.7-4.4
			c0.6,0,1.4,0.3,1.8,1.2h0v-1H1005z M1001.7,376.1c0.9,0,1.2-1,1.2-2.5c0-2.1-0.3-2.9-1.2-2.9c-1,0-1.2,0.8-1.2,3.1
			C1000.6,375.1,1000.8,376.1,1001.7,376.1z"/>
		<path class="st12" d="M1007.3,366.5h2.2v11.4h-2.2V366.5z"/>
		<path class="st12" d="M1013.6,373.9v0.7c0,1,0.3,2,1.1,2c0.7,0,1-0.6,1.2-1.6h2c-0.1,2-1,3.1-3.1,3.1c-3.2,0-3.3-2.5-3.3-4.6
			c0-2.3,0.4-4.4,3.4-4.4c2.6,0,3.2,1.7,3.2,4.4v0.5H1013.6z M1015.8,372.6c0-1.3-0.2-2-1.1-2c-0.9,0-1.1,0.9-1.1,1.7v0.3H1015.8z"
			/>
	</g>
	<g>
		<path class="st12" d="M747.9,441.1v1.9h-2.5v9.5h-2.3V443h-2.5v-1.9H747.9z"/>
		<path class="st12" d="M753.9,451.5L753.9,451.5c-0.5,0.8-1.3,1.2-2.2,1.2c-1.4,0-2.2-0.8-2.2-2.4v-6.4h2.2v5.9
			c0,0.9,0.3,1.2,0.9,1.2c0.8,0,1.2-0.5,1.2-1.4v-5.7h2.2v8.6h-2.1V451.5z"/>
		<path class="st12" d="M758.1,443.9h2.1v1h0c0.5-0.8,1.3-1.2,2.2-1.2c1.4,0,2.2,0.8,2.2,2.4v6.4h-2.2v-5.9c0-0.9-0.3-1.2-0.9-1.2
			c-0.8,0-1.2,0.5-1.2,1.4v5.7h-2.2V443.9z"/>
		<path class="st12" d="M766.7,443.9h2.1v1h0c0.5-0.8,1.3-1.2,2.2-1.2c1.4,0,2.2,0.8,2.2,2.4v6.4h-2.2v-5.9c0-0.9-0.3-1.2-0.9-1.2
			c-0.8,0-1.2,0.5-1.2,1.4v5.7h-2.2V443.9z"/>
		<path class="st12" d="M777.3,448.5v0.7c0,1,0.3,2,1.1,2c0.7,0,1-0.6,1.2-1.6h2c-0.1,2-1,3.1-3.1,3.1c-3.2,0-3.3-2.5-3.3-4.6
			c0-2.3,0.4-4.4,3.4-4.4c2.6,0,3.2,1.7,3.2,4.4v0.5H777.3z M779.5,447.2c0-1.3-0.2-2-1.1-2c-0.9,0-1.1,0.9-1.1,1.7v0.3H779.5z"/>
		<path class="st12" d="M783.5,441.1h2.2v11.4h-2.2V441.1z"/>
		<path class="st12" d="M797.3,444.9c0-1.7-0.3-2.4-1.4-2.4c-1.2,0-1.4,1.2-1.4,4.4c0,3.5,0.5,4.1,1.5,4.1c0.8,0,1.4-0.4,1.4-2.9
			h2.3c0,2.5-0.6,4.6-3.6,4.6c-3.5,0-3.9-2.5-3.9-5.9s0.4-5.9,3.9-5.9c3.3,0,3.5,2.4,3.5,4.1H797.3z"/>
		<path class="st12" d="M801.6,443.9h2.1v1.2h0c0.4-0.8,1.1-1.4,2-1.4c0.1,0,0.3,0,0.4,0v2.1c-0.2,0-0.5,0-0.7,0
			c-0.8,0-1.6,0.4-1.6,1.6v5.2h-2.2V443.9z"/>
		<path class="st12" d="M809.5,448.5v0.7c0,1,0.3,2,1.1,2c0.7,0,1-0.6,1.2-1.6h2c-0.1,2-1,3.1-3.1,3.1c-3.2,0-3.3-2.5-3.3-4.6
			c0-2.3,0.4-4.4,3.4-4.4c2.6,0,3.2,1.7,3.2,4.4v0.5H809.5z M811.7,447.2c0-1.3-0.2-2-1.1-2c-0.9,0-1.1,0.9-1.1,1.7v0.3H811.7z"/>
		<path class="st12" d="M819.8,447c0-0.8-0.2-1.7-1-1.7c-1.1,0-1.3,1-1.3,2.9c0,2.1,0.2,3,1.2,3c0.7,0,1.1-0.6,1.1-2h2.1
			c0,2.3-0.9,3.5-3.3,3.5c-2.2,0-3.3-1.1-3.3-4.5c0-3.5,1.5-4.5,3.5-4.5c2,0,3.1,1.3,3.1,3.3H819.8z"/>
		<path class="st12" d="M826,441.1v6h0l2.2-3.2h2.4l-2.5,3.4l2.8,5.2h-2.4l-1.8-3.5l-0.8,1v2.5h-2.2v-11.4H826z"/>
	</g>
	<g>
		<path class="st12" d="M765.5,531.1h6.4v1.9h-4.1v2.7h3.8v1.9h-3.8v5h-2.3V531.1z"/>
		<path class="st12" d="M773.6,531h2.2v1.9h-2.2V531z M773.6,533.9h2.2v8.6h-2.2V533.9z"/>
		<path class="st12" d="M778.5,531.5h2.2v2.5h1.3v1.5h-1.3v4.7c0,0.7,0.1,0.9,0.8,0.9c0.2,0,0.4,0,0.5,0v1.5c-0.5,0-0.9,0.1-1.4,0.1
			c-1.7,0-2-0.5-2-2.3v-4.9h-1.1v-1.5h1.1V531.5z"/>
		<path class="st12" d="M783,540.8l3.4-5.1h-3.3v-1.8h5.9v1.7l-3.4,5.1h3.4v1.8H783V540.8z"/>
		<path class="st12" d="M790.8,533.9h2.1v1.2h0c0.4-0.8,1.1-1.4,2-1.4c0.1,0,0.3,0,0.4,0v2.1c-0.2,0-0.5,0-0.7,0
			c-0.8,0-1.6,0.4-1.6,1.6v5.2h-2.2V533.9z"/>
		<path class="st12" d="M799.9,533.7c2.7,0,3.4,1.5,3.4,4.5c0,2.9-0.9,4.5-3.4,4.5c-2.7,0-3.4-1.5-3.4-4.5
			C796.5,535.3,797.3,533.7,799.9,533.7z M799.9,541.3c0.9,0,1.2-0.9,1.2-3c0-2.1-0.3-3-1.2-3c-1.1,0-1.2,1.3-1.2,3
			C798.7,540,798.8,541.3,799.9,541.3z"/>
		<path class="st12" d="M805.1,543.7c0.2,0,0.4,0,0.6,0c0.8,0,1.1-0.4,1.2-1.2l-2.4-8.6h2.3l1.3,6h0l1.1-6h2.2l-2.1,8
			c-0.8,3-1.3,3.4-3.3,3.4h-0.9V543.7z"/>
		<path class="st12" d="M822.3,535c0-1.7-0.3-2.4-1.4-2.4c-1.2,0-1.4,1.2-1.4,4.4c0,3.5,0.5,4.1,1.5,4.1c0.8,0,1.4-0.4,1.4-2.9h2.3
			c0,2.5-0.6,4.6-3.6,4.6c-3.5,0-3.9-2.5-3.9-5.9s0.4-5.9,3.9-5.9c3.3,0,3.5,2.4,3.5,4.1H822.3z"/>
		<path class="st12" d="M826.5,533.9h2.1v1.2h0c0.4-0.8,1.1-1.4,2-1.4c0.1,0,0.3,0,0.4,0v2.1c-0.2,0-0.5,0-0.7,0
			c-0.8,0-1.6,0.4-1.6,1.6v5.2h-2.2V533.9z"/>
		<path class="st12" d="M835.6,533.7c2.7,0,3.4,1.5,3.4,4.5c0,2.9-0.9,4.5-3.4,4.5c-2.7,0-3.4-1.5-3.4-4.5
			C832.2,535.3,833.1,533.7,835.6,533.7z M835.6,541.3c0.9,0,1.2-0.9,1.2-3c0-2.1-0.3-3-1.2-3c-1.1,0-1.2,1.3-1.2,3
			C834.4,540,834.5,541.3,835.6,541.3z"/>
		<path class="st12" d="M842.5,539.7v0.3c0,0.8,0.4,1.2,1.2,1.2c0.7,0,1.1-0.3,1.1-1c0-0.6-0.4-0.8-0.8-1l-1.6-0.6
			c-1.2-0.4-1.8-1.2-1.8-2.4c0-1.4,0.9-2.6,3.2-2.6c2,0,2.9,0.9,2.9,2.4v0.4h-2c0-0.9-0.3-1.3-1-1.3c-0.6,0-1,0.3-1,0.9
			c0,0.4,0.2,0.8,1,1l1.3,0.4c1.4,0.5,1.9,1.2,1.9,2.5c0,1.8-1.3,2.7-3.2,2.7c-2.5,0-3.2-1.1-3.2-2.7v-0.3H842.5z"/>
		<path class="st12" d="M850.2,539.7v0.3c0,0.8,0.4,1.2,1.2,1.2c0.7,0,1.1-0.3,1.1-1c0-0.6-0.4-0.8-0.8-1l-1.6-0.6
			c-1.2-0.4-1.8-1.2-1.8-2.4c0-1.4,0.9-2.6,3.2-2.6c2,0,2.9,0.9,2.9,2.4v0.4h-2c0-0.9-0.3-1.3-1-1.3c-0.6,0-1,0.3-1,0.9
			c0,0.4,0.2,0.8,1,1l1.3,0.4c1.4,0.5,1.9,1.2,1.9,2.5c0,1.8-1.3,2.7-3.2,2.7c-2.5,0-3.2-1.1-3.2-2.7v-0.3H850.2z"/>
		<path class="st12" d="M856.4,531h2.2v1.9h-2.2V531z M856.4,533.9h2.2v8.6h-2.2V533.9z"/>
		<path class="st12" d="M860.8,533.9h2.1v1h0c0.5-0.8,1.3-1.2,2.2-1.2c1.4,0,2.2,0.8,2.2,2.4v6.4h-2.2v-5.9c0-0.9-0.3-1.2-0.9-1.2
			c-0.8,0-1.2,0.5-1.2,1.4v5.7h-2.2V533.9z"/>
		<path class="st12" d="M875.9,533.9v8.2c0,2.3-1,3.4-3.6,3.4c-1.9,0-2.9-0.8-2.9-2.3h2.1c0,0.3,0.1,0.5,0.3,0.7s0.5,0.2,0.7,0.2
			c0.9,0,1.2-0.7,1.2-1.6v-1.1h0c-0.4,0.6-1.1,1.1-1.8,1.1c-1.8,0-2.6-1.2-2.6-4.4c0-2,0.3-4.4,2.7-4.4c0.6,0,1.4,0.3,1.8,1.2h0v-1
			H875.9z M872.6,540.7c0.9,0,1.2-1,1.2-2.5c0-2.1-0.3-2.9-1.2-2.9c-1,0-1.2,0.8-1.2,3.1C871.5,539.7,871.7,540.7,872.6,540.7z"/>
	</g>
	<g>
		<path class="st12" d="M85,337.2h3.9c1.9,0,3.2,0.7,3.2,2.9c0,1.2-0.6,2.2-1.7,2.5v0c1.3,0.2,2.1,1.1,2.1,2.7
			c0,1.8-0.9,3.3-3.6,3.3H85V337.2z M87.3,341.9h0.7c1.3,0,1.8-0.4,1.8-1.5c0-1.1-0.5-1.5-1.7-1.5h-0.8V341.9z M87.3,346.9h0.9
			c1.1,0,1.9-0.4,1.9-1.7c0-1.3-0.8-1.7-1.8-1.7h-1V346.9z"/>
		<path class="st12" d="M94.5,340h2.1v1.2h0c0.4-0.8,1.1-1.4,2-1.4c0.1,0,0.3,0,0.4,0v2.1c-0.2,0-0.5,0-0.7,0
			c-0.8,0-1.6,0.4-1.6,1.6v5.2h-2.2V340z"/>
		<path class="st12" d="M103.5,339.8c2.7,0,3.4,1.5,3.4,4.5c0,2.9-0.9,4.5-3.4,4.5c-2.7,0-3.4-1.5-3.4-4.5
			C100.1,341.3,101,339.8,103.5,339.8z M103.5,347.3c0.9,0,1.2-0.9,1.2-3c0-2.1-0.3-3-1.2-3c-1.1,0-1.2,1.3-1.2,3
			S102.4,347.3,103.5,347.3z"/>
		<path class="st12" d="M111.8,339.8c2.7,0,3.4,1.5,3.4,4.5c0,2.9-0.9,4.5-3.4,4.5c-2.7,0-3.4-1.5-3.4-4.5
			C108.5,341.3,109.3,339.8,111.8,339.8z M111.8,347.3c0.9,0,1.2-0.9,1.2-3c0-2.1-0.3-3-1.2-3c-1.1,0-1.2,1.3-1.2,3
			S110.8,347.3,111.8,347.3z"/>
		<path class="st12" d="M117.1,340h2.1v0.9h0c0.6-0.8,1.2-1.1,2.2-1.1c1,0,1.7,0.5,2,1.4h0c0.3-0.9,1.1-1.4,2.2-1.4
			c1.5,0,2.1,0.9,2.1,2.6v6.3h-2.2v-6c0-0.7-0.2-1.1-0.9-1.1c-0.7,0-1.2,0.5-1.2,1.5v5.7h-2.2v-6c0-0.7-0.2-1.1-0.9-1.1
			c-0.7,0-1.2,0.5-1.2,1.5v5.7h-2.2V340z"/>
		<path class="st12" d="M131.7,344.6v0.7c0,1,0.3,2,1.1,2c0.7,0,1-0.6,1.2-1.6h2c-0.1,2-1,3.1-3.1,3.1c-3.2,0-3.3-2.5-3.3-4.6
			c0-2.3,0.4-4.5,3.4-4.5c2.6,0,3.2,1.7,3.2,4.4v0.5H131.7z M134,343.3c0-1.3-0.2-2-1.1-2c-0.9,0-1.1,0.9-1.1,1.7v0.3H134z"/>
	</g>
	<g>
		<path class="st12" d="M91.3,266.6H95c3.2,0,3.8,2.2,3.8,5.6c0,4-0.9,5.9-3.9,5.9h-3.6V266.6z M93.6,276.4h1c1.6,0,1.9-1,1.9-4.1
			c0-2.6-0.2-3.9-2-3.9h-1V276.4z"/>
		<path class="st12" d="M100.9,272.1v-0.2c0-2,1.4-2.7,3-2.7c2.6,0,3.1,1.1,3.1,2.6v4.5c0,0.8,0,1.2,0.3,1.7h-2.1
			c-0.1-0.3-0.2-0.6-0.3-0.9h0c-0.5,0.9-1.1,1.1-2.2,1.1c-1.5,0-2.1-1.3-2.1-2.5c0-1.6,0.7-2.3,2.2-2.7l1.2-0.3
			c0.7-0.2,0.9-0.4,0.9-1c0-0.7-0.3-1.1-1-1.1c-0.7,0-1,0.4-1,1.1v0.2H100.9z M104.9,273.8c-0.3,0.2-0.7,0.4-0.9,0.4
			c-0.9,0.2-1.2,0.6-1.2,1.4c0,0.7,0.2,1.2,0.8,1.2s1.4-0.4,1.4-1.3V273.8z"/>
		<path class="st12" d="M109.2,269.4h2.1v1.2h0c0.4-0.8,1.1-1.4,2-1.4c0.1,0,0.3,0,0.4,0v2.1c-0.2,0-0.5,0-0.7,0
			c-0.8,0-1.6,0.4-1.6,1.6v5.2h-2.2V269.4z"/>
		<path class="st12" d="M114.6,269.4h2.2l1,6.1h0l1.1-6.1h2.4l1.1,6.1h0l1-6.1h2.1l-1.9,8.6h-2.5l-1.1-6.1h0l-1.1,6.1h-2.6
			L114.6,269.4z"/>
		<path class="st12" d="M127.2,266.5h2.2v1.9h-2.2V266.5z M127.2,269.4h2.2v8.6h-2.2V269.4z"/>
		<path class="st12" d="M131.6,269.4h2.1v1h0c0.5-0.8,1.3-1.2,2.2-1.2c1.4,0,2.2,0.8,2.2,2.4v6.4h-2.2v-5.9c0-0.9-0.3-1.2-0.9-1.2
			c-0.8,0-1.2,0.5-1.2,1.4v5.7h-2.2V269.4z"/>
	</g>
	<circle class="st11" cx="604.6" cy="403.2" r="4.3"/>
	<circle class="st11" cx="709.3" cy="371.3" r="4.3"/>
	<circle class="st11" cx="751.9" cy="338.6" r="4.3"/>
	<g>
		<path class="st6" d="M922.8,345.7v-8.6h1.7v7.1h3.1v1.4H922.8z"/>
		<path class="st6" d="M928.8,341.2v-0.2c0-1.5,1-2,2.3-2c2,0,2.3,0.8,2.3,2v3.4c0,0.6,0,0.9,0.2,1.2H932c-0.1-0.2-0.2-0.5-0.2-0.7
			h0c-0.4,0.7-0.9,0.8-1.6,0.8c-1.2,0-1.6-1-1.6-1.8c0-1.2,0.5-1.7,1.6-2l0.9-0.3c0.5-0.1,0.7-0.3,0.7-0.8c0-0.5-0.2-0.8-0.8-0.8
			c-0.5,0-0.8,0.3-0.8,0.8v0.2H928.8z M931.8,342.5c-0.2,0.2-0.5,0.3-0.7,0.3c-0.7,0.1-0.9,0.5-0.9,1c0,0.5,0.2,0.9,0.6,0.9
			c0.4,0,1-0.3,1-1V342.5z"/>
		<path class="st6" d="M936.8,337.1v4.5h0l1.7-2.4h1.8l-1.9,2.5l2.1,3.9h-1.8l-1.4-2.7l-0.6,0.8v1.9h-1.7v-8.6H936.8z"/>
		<path class="st6" d="M943,342.7v0.5c0,0.8,0.2,1.5,0.8,1.5c0.6,0,0.8-0.4,0.9-1.2h1.5c-0.1,1.5-0.8,2.3-2.3,2.3
			c-2.4,0-2.5-1.8-2.5-3.5c0-1.7,0.3-3.3,2.6-3.3c1.9,0,2.4,1.3,2.4,3.3v0.4H943z M944.7,341.7c0-1-0.2-1.5-0.8-1.5
			c-0.7,0-0.9,0.7-0.9,1.3v0.3H944.7z"/>
		<path class="st6" d="M952.7,337.1h2.1l2.3,8.6h-1.8l-0.4-1.8h-2.3l-0.4,1.8h-1.8L952.7,337.1z M952.9,342.5h1.7l-0.8-3.8h0
			L952.9,342.5z"/>
		<path class="st6" d="M958.1,339.3h1.6v0.9h0c0.3-0.6,0.8-1,1.5-1c0.1,0,0.2,0,0.3,0v1.6c-0.2,0-0.3,0-0.5,0
			c-0.6,0-1.2,0.3-1.2,1.2v3.9h-1.7V339.3z"/>
		<path class="st6" d="M967.4,339.3v6.1c0,1.7-0.8,2.5-2.7,2.5c-1.4,0-2.2-0.6-2.2-1.7h1.6c0,0.2,0.1,0.4,0.3,0.5
			c0.2,0.1,0.3,0.2,0.6,0.2c0.7,0,0.9-0.5,0.9-1.2v-0.9h0c-0.3,0.5-0.9,0.8-1.4,0.8c-1.3,0-2-0.9-2-3.3c0-1.5,0.2-3.3,2-3.3
			c0.5,0,1,0.2,1.3,0.9h0v-0.7H967.4z M964.9,344.4c0.7,0,0.9-0.8,0.9-1.8c0-1.6-0.2-2.2-0.9-2.2c-0.7,0-0.9,0.6-0.9,2.3
			C964.1,343.6,964.2,344.4,964.9,344.4z"/>
		<path class="st6" d="M969.1,346.6c0.1,0,0.3,0,0.4,0c0.6,0,0.8-0.3,0.9-0.9l-1.8-6.5h1.7l1,4.5h0l0.8-4.5h1.7l-1.6,6
			c-0.6,2.2-0.9,2.5-2.5,2.5h-0.7V346.6z"/>
		<path class="st6" d="M974.9,337.1h1.7v8.6h-1.7V337.1z"/>
		<path class="st6" d="M979.6,342.7v0.5c0,0.8,0.2,1.5,0.8,1.5c0.6,0,0.8-0.4,0.9-1.2h1.5c-0.1,1.5-0.8,2.3-2.3,2.3
			c-2.4,0-2.5-1.8-2.5-3.5c0-1.7,0.3-3.3,2.6-3.3c1.9,0,2.4,1.3,2.4,3.3v0.4H979.6z M981.3,341.7c0-1-0.2-1.5-0.8-1.5
			c-0.7,0-0.9,0.7-0.9,1.3v0.3H981.3z"/>
	</g>
	<path class="st8" d="M669.5,407.2c0,0,3.7-1.6,8.2,0.9c4.4,2.6,7.2-1.4,13.1-0.7c5.8,0.7,11.4,7,11.9,12.1c0.5,5.1,3,7.2,7.2,6.3
		c4.2-0.9,6.3,5.1,8.2,9.3c1.9,4.2,16.6,7.9,16.3,14.5c-0.2,6.5,0.5,11.7-7.2,15.2s-9.1,4.2-11.9,7.7c-2.8,3.5-4.9,6.2-4.9,6.2"/>
	<g>
		<path class="st13" d="M531.9,518h-2.5l-1.9-7.8h0l-1.9,7.8h-2.5l-3-11.4h2.5l1.8,7.8h0l2-7.8h2.4l2,7.9h0l1.9-7.9h2.5L531.9,518z"
			/>
		<path class="st13" d="M539.3,506.6h8.5v2.1h-6v2.4h5.5v2h-5.5v2.8h6.2v2.1h-8.7V506.6z"/>
		<path class="st13" d="M554.6,514.2c0,1.5,1.2,2.1,2.5,2.1c0.9,0,2.2-0.3,2.2-1.4c0-1.2-1.7-1.4-3.4-1.9c-1.7-0.4-3.4-1.1-3.4-3.2
			c0-2.3,2.2-3.5,4.3-3.5c2.4,0,4.6,1,4.6,3.7h-2.4c-0.1-1.4-1.1-1.7-2.3-1.7c-0.8,0-1.7,0.3-1.7,1.3c0,0.9,0.5,1,3.4,1.7
			c0.8,0.2,3.4,0.7,3.4,3.3c0,2.1-1.6,3.7-4.8,3.7c-2.5,0-4.9-1.2-4.9-4.1H554.6z"/>
		<path class="st13" d="M569,508.7h-3.4v-2.1h9.4v2.1h-3.4v9.3H569V508.7z"/>
		<path class="st13" d="M579.4,506.6h8.5v2.1h-6v2.4h5.5v2h-5.5v2.8h6.2v2.1h-8.7V506.6z"/>
		<path class="st13" d="M593,506.6h6.2c2,0,3.3,1.4,3.3,3.2c0,1.3-0.5,2.4-1.8,2.9v0c1.2,0.3,1.6,1.5,1.7,2.7c0,0.7,0,2.1,0.5,2.7
			h-2.5c-0.3-0.7-0.3-1.8-0.4-2.7c-0.2-1.2-0.6-1.7-1.9-1.7h-2.5v4.5H593V506.6z M595.5,511.7h2.8c1.1,0,1.7-0.5,1.7-1.6
			c0-1.1-0.6-1.6-1.7-1.6h-2.8V511.7z"/>
		<path class="st13" d="M607.7,506.6h2.5l4.8,7.7h0v-7.7h2.4V518h-2.5l-4.8-7.7h0v7.7h-2.4V506.6z"/>
		<path class="st13" d="M519.1,525.8h2.6l4.3,11.4h-2.6l-0.9-2.5h-4.3l-0.9,2.5h-2.5L519.1,525.8z M518.9,532.8h3l-1.4-4.2h0
			L518.9,532.8z"/>
		<path class="st13" d="M539.8,532.9c0,3.1-1.8,4.6-4.9,4.6c-3.1,0-4.9-1.5-4.9-4.6v-7.1h2.5v7.1c0,1.2,0.3,2.5,2.4,2.5
			c1.8,0,2.4-0.8,2.4-2.5v-7.1h2.5V532.9z"/>
		<path class="st13" d="M546.9,533.4c0,1.5,1.2,2.1,2.5,2.1c0.9,0,2.2-0.3,2.2-1.4c0-1.2-1.7-1.4-3.4-1.9c-1.7-0.4-3.4-1.1-3.4-3.2
			c0-2.3,2.2-3.5,4.3-3.5c2.4,0,4.6,1,4.6,3.7h-2.4c-0.1-1.4-1.1-1.7-2.3-1.7c-0.8,0-1.7,0.3-1.7,1.3c0,0.9,0.5,1,3.4,1.7
			c0.8,0.2,3.4,0.7,3.4,3.3c0,2.1-1.6,3.7-4.8,3.7c-2.5,0-4.9-1.2-4.9-4.1H546.9z"/>
		<path class="st13" d="M561.3,527.9h-3.4v-2.1h9.4v2.1h-3.4v9.3h-2.5V527.9z"/>
		<path class="st13" d="M571.8,525.8h6.2c2,0,3.3,1.4,3.3,3.2c0,1.3-0.5,2.4-1.8,2.9v0c1.2,0.3,1.6,1.5,1.7,2.7c0,0.7,0,2.1,0.5,2.7
			h-2.5c-0.3-0.7-0.3-1.8-0.4-2.7c-0.2-1.2-0.6-1.7-1.9-1.7h-2.5v4.5h-2.5V525.8z M574.3,530.9h2.8c1.1,0,1.7-0.5,1.7-1.6
			c0-1.1-0.6-1.6-1.7-1.6h-2.8V530.9z"/>
		<path class="st13" d="M589.6,525.8h2.6l4.3,11.4h-2.6l-0.9-2.5h-4.3l-0.9,2.5h-2.5L589.6,525.8z M589.4,532.8h3l-1.4-4.2h0
			L589.4,532.8z"/>
		<path class="st13" d="M600.7,525.8h2.5v9.3h5.6v2.1h-8.1V525.8z"/>
		<path class="st13" d="M613.4,525.8h2.5v11.4h-2.5V525.8z"/>
		<path class="st13" d="M624.4,525.8h2.6l4.3,11.4h-2.6l-0.9-2.5h-4.3l-0.9,2.5h-2.5L624.4,525.8z M624.2,532.8h3l-1.4-4.2h0
			L624.2,532.8z"/>
	</g>
	<g>
		<path class="st13" d="M1011.8,449.9h2.5l4.8,7.7h0v-7.7h2.4v11.4h-2.5l-4.8-7.7h0v7.7h-2.4V449.9z"/>
		<path class="st13" d="M1032,449.7c3.5,0,5.6,2.6,5.6,6c0,3.3-2.1,5.9-5.6,5.9c-3.5,0-5.6-2.6-5.6-5.9
			C1026.4,452.3,1028.5,449.7,1032,449.7z M1032,459.5c2.3,0,3.1-1.9,3.1-3.8c0-2-0.8-3.9-3.1-3.9s-3.1,1.9-3.1,3.9
			C1028.9,457.6,1029.8,459.5,1032,459.5z"/>
		<path class="st13" d="M1045.1,452h-3.4v-2.1h9.4v2.1h-3.4v9.3h-2.5V452z"/>
		<path class="st13" d="M1055.5,449.9h2.5v4.4h4.6v-4.4h2.5v11.4h-2.5v-4.9h-4.6v4.9h-2.5V449.9z"/>
		<path class="st13" d="M1070.6,449.9h8.5v2.1h-6v2.4h5.5v2h-5.5v2.8h6.2v2.1h-8.7V449.9z"/>
		<path class="st13" d="M1084.1,449.9h6.2c2,0,3.3,1.4,3.3,3.2c0,1.3-0.5,2.4-1.8,2.9v0c1.2,0.3,1.6,1.5,1.7,2.7
			c0,0.7,0,2.1,0.5,2.7h-2.5c-0.3-0.7-0.3-1.8-0.4-2.7c-0.2-1.2-0.6-1.7-1.9-1.7h-2.5v4.5h-2.5V449.9z M1086.7,455.1h2.8
			c1.1,0,1.7-0.5,1.7-1.6c0-1.1-0.6-1.6-1.7-1.6h-2.8V455.1z"/>
		<path class="st13" d="M1098.9,449.9h2.5l4.8,7.7h0v-7.7h2.4v11.4h-2.5l-4.8-7.7h0v7.7h-2.4V449.9z"/>
		<path class="st13" d="M1008.6,471.3h-3.4v-2.1h9.4v2.1h-3.4v9.3h-2.5V471.3z"/>
		<path class="st13" d="M1019.1,469.1h8.5v2.1h-6v2.4h5.5v2h-5.5v2.8h6.2v2.1h-8.7V469.1z"/>
		<path class="st13" d="M1032.6,469.1h6.2c2,0,3.3,1.4,3.3,3.2c0,1.3-0.5,2.4-1.8,2.9v0c1.2,0.3,1.6,1.5,1.7,2.7
			c0,0.7,0,2.1,0.5,2.7h-2.5c-0.3-0.7-0.3-1.8-0.4-2.7c-0.2-1.2-0.6-1.7-1.9-1.7h-2.5v4.5h-2.5V469.1z M1035.2,474.3h2.8
			c1.1,0,1.7-0.5,1.7-1.6c0-1.1-0.6-1.6-1.7-1.6h-2.8V474.3z"/>
		<path class="st13" d="M1047.4,469.1h6.2c2,0,3.3,1.4,3.3,3.2c0,1.3-0.5,2.4-1.8,2.9v0c1.2,0.3,1.6,1.5,1.7,2.7
			c0,0.7,0,2.1,0.5,2.7h-2.5c-0.3-0.7-0.3-1.8-0.4-2.7c-0.2-1.2-0.6-1.7-1.9-1.7h-2.5v4.5h-2.5V469.1z M1049.9,474.3h2.8
			c1.1,0,1.7-0.5,1.7-1.6c0-1.1-0.6-1.6-1.7-1.6h-2.8V474.3z"/>
		<path class="st13" d="M1062.2,469.1h2.5v11.4h-2.5V469.1z"/>
		<path class="st13" d="M1072.6,471.3h-3.4v-2.1h9.4v2.1h-3.4v9.3h-2.5V471.3z"/>
		<path class="st13" d="M1088.2,468.9c3.5,0,5.6,2.6,5.6,6c0,3.3-2.1,5.9-5.6,5.9c-3.5,0-5.6-2.6-5.6-5.9
			C1082.6,471.5,1084.6,468.9,1088.2,468.9z M1088.2,478.7c2.3,0,3.1-1.9,3.1-3.8c0-2-0.8-3.9-3.1-3.9s-3.1,1.9-3.1,3.9
			C1085.1,476.8,1085.9,478.7,1088.2,478.7z"/>
		<path class="st13" d="M1098.7,469.1h6.2c2,0,3.3,1.4,3.3,3.2c0,1.3-0.5,2.4-1.8,2.9v0c1.2,0.3,1.6,1.5,1.7,2.7
			c0,0.7,0,2.1,0.5,2.7h-2.5c-0.3-0.7-0.3-1.8-0.4-2.7c-0.2-1.2-0.6-1.7-1.9-1.7h-2.5v4.5h-2.5V469.1z M1101.2,474.3h2.8
			c1.1,0,1.7-0.5,1.7-1.6c0-1.1-0.6-1.6-1.7-1.6h-2.8V474.3z"/>
		<path class="st13" d="M1116.4,476.1l-4.2-7h2.8l2.7,4.5l2.7-4.5h2.8l-4.2,7v4.4h-2.5V476.1z"/>
	</g>
	<g>
		<g>
			<line class="st14" x1="1197.2" y1="556.9" x2="1197.2" y2="571.8"/>
			<g>
				<polygon points="1191.1,566.9 1192.2,565.9 1197.2,571.3 1202.2,565.9 1203.3,566.9 1197.2,573.5 				"/>
			</g>
		</g>
	</g>
</g>
</svg>
