<?xml version="1.0" encoding="utf-8"?>
<!-- Generator: Adobe Illustrator 25.0.1, SVG Export Plug-In . SVG Version: 6.00 Build 0)  -->
<svg version="1.1" xmlns="http://www.w3.org/2000/svg" xmlns:xlink="http://www.w3.org/1999/xlink" x="0px" y="0px"
	 viewBox="0 0 912.3 631.8" style="enable-background:new 0 0 912.3 631.8;" xml:space="preserve">
<style type="text/css">
	.st0{opacity:0.2;fill:#CBBB9D;}
	.st1{opacity:0.6;fill:#CBBB9D;}
	.st2{fill:#B0D5EE;}
	.st3{fill:#CBBB9D;}
	.st4{fill:none;stroke:#947E50;stroke-width:2;stroke-miterlimit:10;stroke-dasharray:4,4;}
	.st5{fill:none;stroke:#947E50;stroke-width:2;stroke-miterlimit:10;}
</style>
<g id="Karte">
	<path class="st0" d="M340.1,556l134,25c0,0,52.3-40,52.7-41s31-51.3,31-51.3l92.7-19.7l20-46l40.3-24L588.1,260.3L827.4,191
		l37.7-35l-5.7-16.3l-24.7,7.3l-8-22.7l8.7-3.3L802.1,0l-228,145l-2,3.7l-12.7-3.8l-2.6,1.7c0,0-3.7-2.9-4.3-3.1s-19.9-2.3-19.9-2.3
		s-2.5-2.3-3.2-2.3s-9.4-0.4-9.4-0.4s-7.2-9.8-10.6-11.9c-3.4-2.1-13-9.4-13-9.4l-3.6,2.1c0,0-1.6-2-3.9-1.8s-5.9,1.9-5.9,1.9
		s-1.1-8-3-9.8s-3.2-2.8-3.2-3.4s0.1-7,0.1-7s-6,0.6-6.9-0.2s-2.6-1.8-1.6-2.6s0.8-2.2,0.8-2.2s-1.9-0.6-2.4-0.6s-0.4-3.1-0.8-3.1
		s-5.4,0.2-5.4,0.2l-3.1-2.1c0,0-2.9,0.5-3.8,0.1s-4.9-3-4.9-3l-3.8,1c0,0-3.9,4.1-5.4,4.1s-3-0.4-4.1,1.6s1.2,3.1-1.5,3
		s-3.9-1-5.5,0.4s-3.2,5.2-4.4,4.8s-2.9,0.4-2.9,0.4s0.8,4.2,0.8,6.6s-0.3,6.2-1,8.5s1.5,6,1.5,6s-2,4-1.7,4.8
		c0.3,0.8-2,6.3-1.5,8.2s1.3,10,1,11.7c-0.3,1.7,0,8.7,0.3,10c0.3,1.3,0.3,6.7-0.7,8.2s-0.2,4.3-0.2,4.3s-2.3,0.5-2,1.3
		c0.3,0.8,0.8,3.5-0.2,4s-0.3,1.7-0.7,3s-2.7,3.2-2.7,4.8c0,1.7-0.8,6.8,0.7,7.8s2,4.5,2,6.3s-2.8,4.5-2,6.8c0.8,2.3,3,3,2.7,5.8
		c-0.3,2.8-1.3,8.5-0.7,11s1.7,3.2,1.7,3.2s-4,3.3-6.8,14.3s-2.5,25.2-3.5,29.2s-0.5,7.8-3,11.8s-5.5,9.2-6.2,11.8s-0.5,5.2-0.5,5.2
		s6.8,6.2,7,10.2s-1.8,10-3.5,13.8s-5,8-4.8,10.8s1.2,4-0.2,5.8s-4.8,1.2-6,4s-2,8.8-2,10.8s-0.2,2.5-2.5,5.2s-1.2,10.8-3.2,12.2
		s-8.5,12-9.8,16.5s-2,9.8-3,12.8s-4,6.8-3.2,9.5s3,5,2.5,8.2s-3.8,5.5-3.8,7.8s2,2.5,0.8,5.2s-2.5,4.5-2,6.5s3.5,11.2,2.5,13.8
		s-7,6.8-7.8,10.2s-0.8,9-2,11s-3.2,3-3,5.8s1.5,8.2,0.5,11s-5,10.8-6.2,16.5s-1.2,11-2.5,13s-4.2,5.8-4.2,7.8s-0.2,4.5-0.2,4.5
		s2.4-0.1,2.6,2.2c0.2,2.3,0.2,5-1.5,7.2c-1.7,2.2-3,2.5-2.7,5.5c0.3,3,0.5,5.3-0.3,7.3S340.1,556,340.1,556z"/>
	<path class="st1" d="M394.7,511.7c-3.7,3-4.3,6-5.7,10.7c-1.3,4.7-2.7,7.7-1.3,10.3c1.3,2.7,4,8.7,13,10.7s17.7,0.7,19.3-2
		c1.7-2.7-0.7-11.9-0.5-13.8s1.4-5-0.5-7.8s-7.1-3.6-8.1-4.6s-6-4.6-8.6-4.8S394.7,511.7,394.7,511.7z"/>
	<path class="st1" d="M404.7,359c-1.5,0.3-2.2,9.3-2.3,13c-0.2,3.7-0.2,7,1.7,8.8c1.8,1.8,5.3,2.8,9,2.8c3.7,0,16.8,1.2,17.7,0.3
		s-0.7-4.8-2.5-5.8s-1.7-2.3-3.3-3.3c-1.7-1,0.3-1.8-0.7-3.3s-17.5-13.3-18.7-13C404.4,358.8,404.7,359,404.7,359z"/>
	<path class="st1" d="M418.1,246.9c0.8-0.3,3.5,0.9,4.3,2.9c0.7,2,0.3,7.2,0.5,9.7c0.2,2.5,2.2,7,4.5,6.8c2.3-0.2,5.2-1.2,5.5,0.3
		c0.3,1.5,0.5,4,0.2,6.3c-0.3,2.3,0.5,6.5-1.3,7.8c-1.8,1.3-4.5,2.8-7.2,1.2c-2.7-1.7-5-3.3-6.5-2.8s-3.8,2.2-2.8,0.2
		s3-8.8,2.2-11.5c-0.8-2.7-1.7-8.7-1.3-12.8C416.4,250.8,417.3,247.2,418.1,246.9z"/>
</g>
<g id="Wasser">
	<path class="st2" d="M417.9,223.7c-3.7-0.5-5,0.5-8.2,3.5s-3,4.7-4.5,7.7s-4.2,5.8-4.5,9.3s-0.5,5.8-1.3,8.5
		c-0.8,2.7,1.3,10.3,0,12.5c-1.3,2.2-3,2.5-1.2,6.3s0.2,12.2,2.7,12.7s4.5-0.2,5.8-2.7s3.8-6,4.7-4.3c0.8,1.7-1.8,8.7-0.2,9.2
		s5-0.7,5-4.8s1.7-12.3,2.3-14.7c0.7-2.3,2.5-5,1.5-6.3s-3.5-8.2-2.2-13.3c1.3-5.2,0.7-10.3,2.7-14.2s3.5-7.5,1.7-8.3
		C420.4,223.8,417.9,223.7,417.9,223.7z"/>
	<path class="st2" d="M394.8,295.8c-0.9,0.2-1.5,0.9-1.4,1.8c0.2,2.8,1.5,6.9,1.8,8.4c0.4,1.9,2.5,1.5,2.6,3.2s-2.1,5.6,0.1,6
		c1.4,0.2,3.3,0.4,4.5,0.5c0.8,0.1,1.5-0.4,1.7-1.1c1-2.5,3-8.5,1-11.3c-2.5-3.6-3.6-7.1-6.2-7.5l-2.4-0.3c-0.2,0-0.4,0-0.5,0
		L394.8,295.8z"/>
	<path class="st2" d="M314.2,560.3c0,0,0-2,1.7-2.3c1.7-0.3,1.5-4.2,2.5-4.5c1-0.3,1.5,0.2,2-1c0.5-1.2-0.3-2.2,0.8-2.7
		c1.2-0.5,0.5-2.3,2.3-3.5c1.8-1.2,2.7,1,3-2.5s0.3-6,2-6.2s4.3,1.7,5.2,0.5c0.8-1.2,5.3-9.5,7-9.7c1.7-0.2,3-0.2,3.5,1.5
		c0.5,1.7,0.6,2.8,0.3,4.5c-0.8,4.6-4,5.2-4.2,6.8c-0.2,1.7,1.3,4.8,0.7,6.8s-1.2,4-1.3,5.7c-0.2,1.7-1.5,3.5-1.5,5.7
		c0,2.2,1.2,4,0,4.3c-1.2,0.3-4,0.5-3.3,2c0.7,1.5,3,4.3,1.7,5.2c-1.3,0.8-2.7,0.7-3.3,2c-0.7,1.3,0.8,2.3-0.2,3.2s-1.5,0.7-1.7,2.2
		c-0.2,1.5,0.7,4-0.2,5.2c-0.8,1.2-2.3,1.3-2.5,2.5c-0.2,1.2,2.3,4.2,0.8,5.7s-0.5,2.8-1.7,4.2c-1.2,1.3-2.8,1.7-2.8,3.7
		s2,2.2,1.8,4c-0.2,1.8-2.3,4-2.3,6s0.8,3-0.5,4.5s-4,3.5-3.2,5.2c0.8,1.7,4,2.3,3.2,3.8s-2,6.2-1.7,7.5c0.3,1.3,0.3,1.3,0.3,1.3
		h-10.2L314.2,560.3z"/>
</g>
<g id="Text">
	<g>
		<g>
			<path class="st3" d="M538.9,34c0,1.5,1.2,2.1,2.5,2.1c0.9,0,2.2-0.3,2.2-1.4c0-1.2-1.7-1.4-3.4-1.9c-1.7-0.4-3.4-1.1-3.4-3.2
				c0-2.3,2.2-3.5,4.3-3.5c2.4,0,4.6,1,4.6,3.7h-2.4c-0.1-1.4-1.1-1.7-2.3-1.7c-0.8,0-1.7,0.3-1.7,1.3c0,0.9,0.5,1,3.4,1.7
				c0.8,0.2,3.4,0.7,3.4,3.3c0,2.1-1.6,3.7-4.8,3.7c-2.5,0-4.9-1.2-4.9-4.1H538.9z"/>
			<path class="st3" d="M553.7,33.3l-4.2-7h2.8l2.7,4.5l2.7-4.5h2.8l-4.2,7v4.4h-2.5V33.3z"/>
			<path class="st3" d="M564.6,26.3h6.2c2,0,3.3,1.4,3.3,3.2c0,1.3-0.5,2.4-1.8,2.9v0c1.2,0.3,1.6,1.5,1.7,2.7c0,0.7,0,2.1,0.5,2.7
				h-2.5c-0.3-0.7-0.3-1.8-0.4-2.7c-0.2-1.2-0.6-1.7-1.9-1.7h-2.5v4.5h-2.5V26.3z M567.1,31.5h2.8c1.1,0,1.7-0.5,1.7-1.6
				c0-1.1-0.6-1.6-1.7-1.6h-2.8V31.5z"/>
			<path class="st3" d="M579.4,26.3h2.5v11.4h-2.5V26.3z"/>
			<path class="st3" d="M587.3,26.3h8.5v2.1h-6v2.4h5.5v2h-5.5v2.8h6.2v2.1h-8.7V26.3z"/>
			<path class="st3" d="M600.9,26.3h2.5l4.8,7.7h0v-7.7h2.4v11.4H608l-4.8-7.7h0v7.7h-2.4V26.3z"/>
		</g>
	</g>
	<g>
		<g>
			<path class="st3" d="M293.2,326.3h2.5v11.4h-2.5V326.3z"/>
			<path class="st3" d="M302.8,334c0,1.5,1.2,2.1,2.5,2.1c0.9,0,2.2-0.3,2.2-1.4c0-1.2-1.7-1.4-3.4-1.9c-1.7-0.4-3.4-1.1-3.4-3.2
				c0-2.3,2.2-3.5,4.3-3.5c2.4,0,4.6,1,4.6,3.7h-2.4c-0.1-1.4-1.1-1.7-2.3-1.7c-0.8,0-1.7,0.3-1.7,1.3c0,0.9,0.5,1,3.4,1.7
				c0.8,0.2,3.4,0.7,3.4,3.3c0,2.1-1.6,3.7-4.8,3.7c-2.5,0-4.9-1.2-4.9-4.1H302.8z"/>
			<path class="st3" d="M314.7,326.3h6.2c2,0,3.3,1.4,3.3,3.2c0,1.3-0.5,2.4-1.8,2.9v0c1.2,0.3,1.6,1.5,1.7,2.7c0,0.7,0,2.1,0.5,2.7
				H322c-0.3-0.7-0.3-1.8-0.4-2.7c-0.2-1.2-0.6-1.7-1.9-1.7h-2.5v4.5h-2.5V326.3z M317.2,331.5h2.8c1.1,0,1.7-0.5,1.7-1.6
				c0-1.1-0.6-1.6-1.7-1.6h-2.8V331.5z"/>
			<path class="st3" d="M332.5,326.3h2.6l4.3,11.4h-2.6l-0.9-2.5h-4.3l-0.9,2.5h-2.5L332.5,326.3z M332.3,333.3h3l-1.4-4.2h0
				L332.3,333.3z"/>
			<path class="st3" d="M343.6,326.3h8.5v2.1h-6v2.4h5.5v2h-5.5v2.8h6.2v2.1h-8.7V326.3z"/>
			<path class="st3" d="M357.1,326.3h2.5v9.3h5.6v2.1h-8.1V326.3z"/>
		</g>
	</g>
	<g>
		<g>
			<path d="M515.5,376.1c0,1.7-0.5,4.4-4.3,4.4c-2.1,0-4.2-1.2-4.2-4v-1.1h2.6v0.6c0,1.2,0.3,2.1,1.6,2.1c1.5,0,1.5-1.2,1.5-2.1
				v-8.7h2.8V376.1z"/>
			<path d="M527.3,366.9c4,0,6.3,3,6.3,6.8c0,3.7-2.3,6.7-6.3,6.7c-4,0-6.3-3-6.3-6.7C521,369.9,523.4,366.9,527.3,366.9z
				 M527.3,378c2.5,0,3.5-2.2,3.5-4.3c0-2.2-1-4.4-3.5-4.4c-2.5,0-3.5,2.2-3.5,4.4C523.8,375.9,524.8,378,527.3,378z"/>
			<path d="M539.2,367.2h6.9c2.3,0,3.8,1.6,3.8,3.5c0,1.5-0.6,2.6-2,3.2v0c1.4,0.4,1.8,1.7,1.9,3c0.1,0.8,0,2.3,0.5,3h-2.8
				c-0.3-0.8-0.3-2.1-0.5-3.1c-0.2-1.3-0.7-1.9-2.1-1.9H542v5h-2.8V367.2z M542,373.1h3.1c1.3,0,1.9-0.5,1.9-1.8
				c0-1.2-0.7-1.8-1.9-1.8H542V373.1z"/>
			<path d="M555.8,367.2h5.5c3.3,0,5.8,2.1,5.8,6.4c0,3.7-1.9,6.5-5.8,6.5h-5.5V367.2z M558.6,377.7h2.5c1.6,0,3.2-1,3.2-3.9
				c0-2.6-0.9-4.2-3.7-4.2h-2V377.7z"/>
			<path d="M576.2,367.2h2.9l4.8,12.9H581l-1-2.9h-4.8l-1,2.9h-2.9L576.2,367.2z M575.9,375.1h3.3l-1.6-4.7h0L575.9,375.1z"/>
			<path d="M588.6,367.2h2.8l5.4,8.6h0v-8.6h2.6v12.9h-2.8l-5.3-8.6h0v8.6h-2.6V367.2z"/>
			<path d="M605.6,367.2h2.8v12.9h-2.8V367.2z"/>
			<path d="M614.5,367.2h9.6v2.4h-6.8v2.8h6.2v2.2h-6.2v3.2h6.9v2.4h-9.8V367.2z"/>
			<path d="M629.7,367.2h2.8l5.4,8.6h0v-8.6h2.6v12.9h-2.8l-5.3-8.6h0v8.6h-2.6V367.2z"/>
		</g>
	</g>
	<g>
		<g>
			<path d="M472.7,203h2.8l3,11.4h-2.4l-0.5-2.4h-3l-0.5,2.4h-2.4L472.7,203z M473,210.1h2.2l-1.1-5.1h0L473,210.1z"/>
			<path d="M480,205.8h2.1v0.9h0c0.6-0.8,1.2-1.1,2.2-1.1c1,0,1.7,0.5,2,1.4h0c0.3-0.9,1.1-1.4,2.2-1.4c1.5,0,2.1,0.9,2.1,2.6v6.3
				h-2.2v-6c0-0.7-0.2-1.1-0.9-1.1c-0.7,0-1.2,0.5-1.2,1.5v5.7h-2.2v-6c0-0.7-0.2-1.1-0.9-1.1c-0.7,0-1.2,0.5-1.2,1.5v5.7H480V205.8
				z"/>
			<path d="M492.8,205.8h2.1v0.9h0c0.6-0.8,1.2-1.1,2.2-1.1c1,0,1.7,0.5,2,1.4h0c0.3-0.9,1.1-1.4,2.2-1.4c1.5,0,2.1,0.9,2.1,2.6v6.3
				h-2.2v-6c0-0.7-0.2-1.1-0.9-1.1c-0.7,0-1.2,0.5-1.2,1.5v5.7H497v-6c0-0.7-0.2-1.1-0.9-1.1c-0.7,0-1.2,0.5-1.2,1.5v5.7h-2.2V205.8
				z"/>
			<path d="M505.5,208.5v-0.2c0-2,1.4-2.7,3-2.7c2.6,0,3.1,1.1,3.1,2.6v4.5c0,0.8,0,1.2,0.3,1.7h-2.1c-0.1-0.3-0.2-0.6-0.3-0.9h0
				c-0.5,0.9-1.1,1.1-2.2,1.1c-1.5,0-2.1-1.3-2.1-2.5c0-1.6,0.7-2.3,2.2-2.7l1.2-0.3c0.7-0.2,0.9-0.4,0.9-1c0-0.7-0.3-1.1-1-1.1
				c-0.7,0-1,0.4-1,1.1v0.2H505.5z M509.5,210.1c-0.3,0.2-0.7,0.4-0.9,0.4c-0.9,0.2-1.2,0.6-1.2,1.4c0,0.7,0.2,1.2,0.8,1.2
				s1.4-0.4,1.4-1.3V210.1z"/>
			<path d="M513.9,205.8h2.1v1h0c0.5-0.8,1.3-1.2,2.2-1.2c1.4,0,2.2,0.8,2.2,2.4v6.4h-2.2v-5.9c0-0.9-0.3-1.2-0.9-1.2
				c-0.8,0-1.2,0.5-1.2,1.4v5.7h-2.2V205.8z"/>
		</g>
	</g>
	<g>
		<g>
			<path d="M454.1,236.3h3.4l1.6,8.1h0l1.6-8.1h3.4v11.4h-2.1v-9.1h0l-2,9.1h-1.8l-2-9.1h0v9.1h-2.1V236.3z"/>
			<path d="M466.4,241.8v-0.2c0-2,1.4-2.7,3-2.7c2.6,0,3.1,1.1,3.1,2.6v4.5c0,0.8,0,1.2,0.3,1.7h-2.1c-0.1-0.3-0.2-0.6-0.3-0.9h0
				c-0.5,0.9-1.1,1.1-2.2,1.1c-1.5,0-2.1-1.3-2.1-2.5c0-1.6,0.7-2.3,2.2-2.7l1.2-0.3c0.7-0.2,0.9-0.4,0.9-1c0-0.7-0.3-1.1-1-1.1
				c-0.7,0-1,0.4-1,1.1v0.2H466.4z M470.5,243.5c-0.3,0.2-0.7,0.4-0.9,0.4c-0.9,0.2-1.2,0.6-1.2,1.4c0,0.7,0.2,1.2,0.8,1.2
				s1.4-0.4,1.4-1.3V243.5z"/>
			<path d="M479.2,246.8L479.2,246.8c-0.5,0.8-1.1,1.1-2,1.1c-1.8,0-2.6-1.3-2.6-4.5s0.8-4.5,2.6-4.5c0.8,0,1.4,0.3,1.9,1h0v-3.6
				h2.2v11.4h-2.1V246.8z M477.9,246.3c1,0,1.2-1,1.2-2.8c0-1.9-0.2-2.8-1.2-2.8c-1,0-1.2,1-1.2,2.8
				C476.8,245.3,477,246.3,477.9,246.3z"/>
			<path d="M483.4,241.8v-0.2c0-2,1.4-2.7,3-2.7c2.6,0,3.1,1.1,3.1,2.6v4.5c0,0.8,0,1.2,0.3,1.7h-2.1c-0.1-0.3-0.2-0.6-0.3-0.9h0
				c-0.5,0.9-1.1,1.1-2.2,1.1c-1.5,0-2.1-1.3-2.1-2.5c0-1.6,0.7-2.3,2.2-2.7l1.2-0.3c0.7-0.2,0.9-0.4,0.9-1c0-0.7-0.3-1.1-1-1.1
				c-0.7,0-1,0.4-1,1.1v0.2H483.4z M487.4,243.5c-0.3,0.2-0.7,0.4-0.9,0.4c-0.9,0.2-1.2,0.6-1.2,1.4c0,0.7,0.2,1.2,0.8,1.2
				s1.4-0.4,1.4-1.3V243.5z"/>
			<path d="M491.7,236.3h2.2v3.6h0c0.5-0.7,1-1,1.9-1c1.8,0,2.6,1.3,2.6,4.5s-0.8,4.5-2.6,4.5c-0.9,0-1.5-0.3-2-1.1h0v0.9h-2.1
				V236.3z M495.1,246.3c1,0,1.2-1,1.2-2.8c0-1.9-0.2-2.8-1.2-2.8c-1,0-1.2,1-1.2,2.8C494,245.3,494.1,246.3,495.1,246.3z"/>
			<path d="M500.4,241.8v-0.2c0-2,1.4-2.7,3-2.7c2.6,0,3.1,1.1,3.1,2.6v4.5c0,0.8,0,1.2,0.3,1.7h-2.1c-0.1-0.3-0.2-0.6-0.3-0.9h0
				c-0.5,0.9-1.1,1.1-2.2,1.1c-1.5,0-2.1-1.3-2.1-2.5c0-1.6,0.7-2.3,2.2-2.7l1.2-0.3c0.7-0.2,0.9-0.4,0.9-1c0-0.7-0.3-1.1-1-1.1
				c-0.7,0-1,0.4-1,1.1v0.2H500.4z M504.4,243.5c-0.3,0.2-0.7,0.4-0.9,0.4c-0.9,0.2-1.2,0.6-1.2,1.4c0,0.7,0.2,1.2,0.8,1.2
				s1.4-0.4,1.4-1.3V243.5z"/>
		</g>
	</g>
	<g>
		<g>
			<path d="M350.2,275.1h2.2l1.3,8.5h0l1.3-8.5h2.2l1.3,8.5h0l1.3-8.5h2.2l-2.1,11.4h-2.6l-1.3-8.3h0l-1.3,8.3h-2.6L350.2,275.1z"/>
			<path d="M363.6,280.5v-0.2c0-2,1.4-2.7,3-2.7c2.6,0,3.1,1.1,3.1,2.6v4.5c0,0.8,0,1.2,0.3,1.7h-2.1c-0.1-0.3-0.2-0.6-0.3-0.9h0
				c-0.5,0.9-1.1,1.1-2.2,1.1c-1.5,0-2.1-1.3-2.1-2.5c0-1.6,0.7-2.3,2.2-2.7l1.2-0.3c0.7-0.2,0.9-0.4,0.9-1c0-0.7-0.3-1.1-1-1.1
				c-0.7,0-1,0.4-1,1.1v0.2H363.6z M367.6,282.2c-0.3,0.2-0.7,0.4-0.9,0.4c-0.9,0.2-1.2,0.6-1.2,1.4c0,0.7,0.2,1.2,0.8,1.2
				s1.4-0.4,1.4-1.3V282.2z"/>
			<path d="M376.3,285.6L376.3,285.6c-0.5,0.8-1.1,1.1-2,1.1c-1.8,0-2.6-1.3-2.6-4.5s0.8-4.5,2.6-4.5c0.8,0,1.4,0.3,1.9,1h0v-3.6
				h2.2v11.4h-2.1V285.6z M375.1,285c1,0,1.2-1,1.2-2.8c0-1.9-0.2-2.8-1.2-2.8c-1,0-1.2,1-1.2,2.8C373.9,284.1,374.1,285,375.1,285z
				"/>
			<path d="M380.6,275h2.2v1.9h-2.2V275z M380.6,277.9h2.2v8.6h-2.2V277.9z"/>
			<path d="M389.6,275.1h3.4l1.6,8.1h0l1.6-8.1h3.4v11.4h-2.1v-9.1h0l-2,9.1h-1.8l-2-9.1h0v9.1h-2.1V275.1z"/>
			<path d="M406.4,285.5L406.4,285.5c-0.5,0.8-1.3,1.2-2.2,1.2c-1.4,0-2.2-0.8-2.2-2.4v-6.4h2.2v5.9c0,0.9,0.3,1.2,0.9,1.2
				c0.8,0,1.2-0.5,1.2-1.4v-5.7h2.2v8.6h-2.1V285.5z"/>
			<path d="M410.7,277.9h2.2v9.2c0,1.4-0.5,2.2-2.5,2.2c-0.3,0-0.6,0-0.9,0v-1.6c0.1,0,0.2,0,0.4,0c0.8,0,0.9-0.4,0.9-1.4V277.9z
				 M410.7,275h2.2v1.9h-2.2V275z"/>
			<path d="M415.2,275h2.2v1.9h-2.2V275z M415.2,277.9h2.2v8.6h-2.2V277.9z"/>
			<path d="M419.6,275.1h2.2v3.6h0c0.5-0.7,1-1,1.9-1c1.8,0,2.6,1.3,2.6,4.5s-0.8,4.5-2.6,4.5c-0.9,0-1.5-0.3-2-1.1h0v0.9h-2.1
				V275.1z M423,285c1,0,1.2-1,1.2-2.8c0-1.9-0.2-2.8-1.2-2.8c-1,0-1.2,1-1.2,2.8C421.8,284.1,422,285,423,285z"/>
		</g>
	</g>
	<g>
		<g>
			<path d="M426.6,384.2h3.8c3.2,0,3.8,2.2,3.8,5.6c0,4-0.9,5.9-3.9,5.9h-3.6V384.2z M428.9,394h1c1.6,0,1.9-1,1.9-4.1
				c0-2.6-0.2-3.9-2-3.9h-1V394z"/>
			<path d="M436.2,389.7v-0.2c0-2,1.4-2.7,3-2.7c2.6,0,3.1,1.1,3.1,2.6v4.5c0,0.8,0,1.2,0.3,1.7h-2.1c-0.1-0.3-0.2-0.6-0.3-0.9h0
				c-0.5,0.9-1.1,1.1-2.2,1.1c-1.5,0-2.1-1.3-2.1-2.5c0-1.6,0.7-2.3,2.2-2.7l1.2-0.3c0.7-0.2,0.9-0.4,0.9-1c0-0.7-0.3-1.1-1-1.1
				c-0.7,0-1,0.4-1,1.1v0.2H436.2z M440.3,391.4c-0.3,0.2-0.7,0.4-0.9,0.4c-0.9,0.2-1.2,0.6-1.2,1.4c0,0.7,0.2,1.2,0.8,1.2
				s1.4-0.4,1.4-1.3V391.4z"/>
			<path d="M444.6,387.1h2.1v1h0c0.5-0.8,1.3-1.2,2.2-1.2c1.4,0,2.2,0.8,2.2,2.4v6.4h-2.2v-5.9c0-0.9-0.3-1.2-0.9-1.2
				c-0.8,0-1.2,0.5-1.2,1.4v5.7h-2.2V387.1z"/>
			<path d="M453.2,389.7v-0.2c0-2,1.4-2.7,3-2.7c2.6,0,3.1,1.1,3.1,2.6v4.5c0,0.8,0,1.2,0.3,1.7h-2.1c-0.1-0.3-0.2-0.6-0.3-0.9h0
				c-0.5,0.9-1.1,1.1-2.2,1.1c-1.5,0-2.1-1.3-2.1-2.5c0-1.6,0.7-2.3,2.2-2.7l1.2-0.3c0.7-0.2,0.9-0.4,0.9-1c0-0.7-0.3-1.1-1-1.1
				c-0.7,0-1,0.4-1,1.1v0.2H453.2z M457.2,391.4c-0.3,0.2-0.7,0.4-0.9,0.4c-0.9,0.2-1.2,0.6-1.2,1.4c0,0.7,0.2,1.2,0.8,1.2
				s1.4-0.4,1.4-1.3V391.4z"/>
		</g>
	</g>
	<g>
		<g>
			<path class="st2" d="M322.4,246.2v1.9h-2.5v9.5h-2.3v-9.5h-2.5v-1.9H322.4z"/>
			<path class="st2" d="M327.1,248.8c2.7,0,3.4,1.5,3.4,4.5c0,2.9-0.9,4.5-3.4,4.5c-2.7,0-3.4-1.5-3.4-4.5
				C323.7,250.3,324.6,248.8,327.1,248.8z M327.1,256.3c0.9,0,1.2-0.9,1.2-3c0-2.1-0.3-3-1.2-3c-1.1,0-1.2,1.3-1.2,3
				S326,256.3,327.1,256.3z"/>
			<path class="st2" d="M332.8,246.5h2.2v2.5h1.3v1.5H335v4.7c0,0.7,0.1,0.9,0.8,0.9c0.2,0,0.4,0,0.5,0v1.5c-0.5,0-0.9,0.1-1.4,0.1
				c-1.7,0-2-0.5-2-2.3v-4.9h-1.1V249h1.1V246.5z"/>
			<path class="st2" d="M339.6,253.6v0.7c0,1,0.3,2,1.1,2c0.7,0,1-0.6,1.2-1.6h2c-0.1,2-1,3.1-3.1,3.1c-3.2,0-3.3-2.5-3.3-4.6
				c0-2.3,0.4-4.4,3.4-4.4c2.6,0,3.2,1.7,3.2,4.4v0.5H339.6z M341.8,252.3c0-1.3-0.2-2-1.1-2c-0.9,0-1.1,0.9-1.1,1.7v0.3H341.8z"/>
			<path class="st2" d="M347.4,254.8v0.3c0,0.8,0.4,1.2,1.2,1.2c0.7,0,1.1-0.3,1.1-1c0-0.6-0.4-0.8-0.8-1l-1.6-0.6
				c-1.2-0.4-1.8-1.2-1.8-2.4c0-1.4,0.9-2.6,3.2-2.6c2,0,2.9,0.9,2.9,2.4v0.4h-2c0-0.9-0.3-1.3-1-1.3c-0.6,0-1,0.3-1,0.9
				c0,0.4,0.2,0.8,1,1l1.3,0.4c1.4,0.5,1.9,1.2,1.9,2.5c0,1.8-1.3,2.7-3.2,2.7c-2.5,0-3.2-1.1-3.2-2.7v-0.3H347.4z"/>
			<path class="st2" d="M358.1,246.2h3.4l1.6,8.1h0l1.6-8.1h3.4v11.4h-2.1v-9.1h0l-2,9.1h-1.8l-2-9.1h0v9.1h-2.1V246.2z"/>
			<path class="st2" d="M372.3,253.6v0.7c0,1,0.3,2,1.1,2c0.7,0,1-0.6,1.2-1.6h2c-0.1,2-1,3.1-3.1,3.1c-3.2,0-3.3-2.5-3.3-4.6
				c0-2.3,0.4-4.4,3.4-4.4c2.6,0,3.2,1.7,3.2,4.4v0.5H372.3z M374.6,252.3c0-1.3-0.2-2-1.1-2c-0.9,0-1.1,0.9-1.1,1.7v0.3H374.6z"/>
			<path class="st2" d="M380.4,253.6v0.7c0,1,0.3,2,1.1,2c0.7,0,1-0.6,1.2-1.6h2c-0.1,2-1,3.1-3.1,3.1c-3.2,0-3.3-2.5-3.3-4.6
				c0-2.3,0.4-4.4,3.4-4.4c2.6,0,3.2,1.7,3.2,4.4v0.5H380.4z M382.6,252.3c0-1.3-0.2-2-1.1-2c-0.9,0-1.1,0.9-1.1,1.7v0.3H382.6z"/>
			<path class="st2" d="M386.5,249h2.1v1.2h0c0.4-0.8,1.1-1.4,2-1.4c0.1,0,0.3,0,0.4,0v2.1c-0.2,0-0.5,0-0.7,0
				c-0.8,0-1.6,0.4-1.6,1.6v5.2h-2.2V249z"/>
		</g>
	</g>
	<g>
		<g>
			<path class="st2" d="M226.6,574h4.3c1.9,0,3,1,3,2.9c0,1.5-0.6,2.5-1.9,2.8v0c1.6,0.2,1.8,1.1,1.8,3.5c0,1.2,0.1,1.8,0.5,2v0.1
				h-2.5c-0.2-0.3-0.3-0.8-0.3-1.2l-0.1-2.2c0-0.9-0.4-1.4-1.4-1.4h-1.2v4.8h-2.3V574z M228.9,579h1c1.1,0,1.7-0.5,1.7-1.7
				c0-1.1-0.6-1.6-1.6-1.6h-1.1V579z"/>
			<path class="st2" d="M239.2,576.6c2.7,0,3.4,1.5,3.4,4.5c0,2.9-0.9,4.5-3.4,4.5c-2.7,0-3.4-1.5-3.4-4.5
				C235.8,578.2,236.7,576.6,239.2,576.6z M239.2,584.2c0.9,0,1.2-0.9,1.2-3c0-2.1-0.3-3-1.2-3c-1.1,0-1.2,1.3-1.2,3
				S238.1,584.2,239.2,584.2z"/>
			<path class="st2" d="M244.9,574.4h2.2v2.5h1.3v1.5h-1.3v4.7c0,0.7,0.1,0.9,0.8,0.9c0.2,0,0.4,0,0.5,0v1.5c-0.5,0-0.9,0.1-1.4,0.1
				c-1.7,0-2-0.5-2-2.3v-4.9h-1.1v-1.5h1.1V574.4z"/>
			<path class="st2" d="M251.7,581.5v0.7c0,1,0.3,2,1.1,2c0.7,0,1-0.6,1.2-1.6h2c-0.1,2-1,3.1-3.1,3.1c-3.2,0-3.3-2.5-3.3-4.6
				c0-2.3,0.4-4.5,3.4-4.5c2.6,0,3.2,1.7,3.2,4.4v0.5H251.7z M253.9,580.1c0-1.3-0.2-2-1.1-2c-0.9,0-1.1,0.9-1.1,1.7v0.3H253.9z"/>
			<path class="st2" d="M259.5,582.6v0.3c0,0.8,0.4,1.2,1.2,1.2c0.7,0,1.1-0.3,1.1-1c0-0.6-0.4-0.8-0.8-1l-1.6-0.6
				c-1.2-0.4-1.8-1.2-1.8-2.4c0-1.4,0.9-2.6,3.2-2.6c2,0,2.9,0.9,2.9,2.4v0.4h-2c0-0.9-0.3-1.3-1-1.3c-0.6,0-1,0.3-1,0.9
				c0,0.4,0.2,0.8,1,1l1.3,0.4c1.4,0.5,1.9,1.2,1.9,2.5c0,1.8-1.3,2.7-3.2,2.7c-2.5,0-3.2-1.1-3.2-2.7v-0.3H259.5z"/>
			<path class="st2" d="M270.2,574h3.4l1.6,8.1h0l1.6-8.1h3.4v11.4h-2.1v-9.1h0l-2,9.1h-1.8l-2-9.1h0v9.1h-2.1V574z"/>
			<path class="st2" d="M284.4,581.5v0.7c0,1,0.3,2,1.1,2c0.7,0,1-0.6,1.2-1.6h2c-0.1,2-1,3.1-3.1,3.1c-3.2,0-3.3-2.5-3.3-4.6
				c0-2.3,0.4-4.5,3.4-4.5c2.6,0,3.2,1.7,3.2,4.4v0.5H284.4z M286.7,580.1c0-1.3-0.2-2-1.1-2c-0.9,0-1.1,0.9-1.1,1.7v0.3H286.7z"/>
			<path class="st2" d="M292.5,581.5v0.7c0,1,0.3,2,1.1,2c0.7,0,1-0.6,1.2-1.6h2c-0.1,2-1,3.1-3.1,3.1c-3.2,0-3.3-2.5-3.3-4.6
				c0-2.3,0.4-4.5,3.4-4.5c2.6,0,3.2,1.7,3.2,4.4v0.5H292.5z M294.7,580.1c0-1.3-0.2-2-1.1-2c-0.9,0-1.1,0.9-1.1,1.7v0.3H294.7z"/>
			<path class="st2" d="M298.6,576.8h2.1v1.2h0c0.4-0.8,1.1-1.4,2-1.4c0.1,0,0.3,0,0.4,0v2.1c-0.2,0-0.5,0-0.7,0
				c-0.8,0-1.6,0.4-1.6,1.6v5.2h-2.2V576.8z"/>
		</g>
	</g>
	<g>
		<g>
			<path d="M441.2,309.3h2.8l3,11.4h-2.4l-0.5-2.4h-3l-0.5,2.4h-2.4L441.2,309.3z M441.5,316.5h2.2l-1.1-5.1h0L441.5,316.5z"/>
			<path d="M448.6,309.3h2.2v11.4h-2.2V309.3z"/>
			<path d="M459.8,309.3v4.6h0l2.9-4.6h2.5l-3.1,4.9l3.5,6.5H463l-2.4-4.7l-0.8,1.3v3.4h-2.3v-11.4H459.8z"/>
			<path d="M466.7,314.8v-0.2c0-2,1.4-2.7,3-2.7c2.6,0,3.1,1.1,3.1,2.6v4.5c0,0.8,0,1.2,0.3,1.7H471c-0.1-0.3-0.2-0.6-0.3-0.9h0
				c-0.5,0.9-1.1,1.1-2.2,1.1c-1.5,0-2.1-1.3-2.1-2.5c0-1.6,0.7-2.3,2.2-2.7l1.2-0.3c0.7-0.2,0.9-0.4,0.9-1c0-0.7-0.3-1.1-1-1.1
				c-0.7,0-1,0.4-1,1.1v0.2H466.7z M470.7,316.5c-0.3,0.2-0.7,0.4-0.9,0.4c-0.9,0.2-1.2,0.6-1.2,1.4c0,0.7,0.2,1.2,0.8,1.2
				s1.4-0.4,1.4-1.3V316.5z"/>
			<path d="M475,312.1h2.1v1.2h0c0.4-0.8,1.1-1.4,2-1.4c0.1,0,0.3,0,0.4,0v2.1c-0.2,0-0.5,0-0.7,0c-0.8,0-1.6,0.4-1.6,1.6v5.2H475
				V312.1z"/>
			<path d="M481,314.8v-0.2c0-2,1.4-2.7,3-2.7c2.6,0,3.1,1.1,3.1,2.6v4.5c0,0.8,0,1.2,0.3,1.7h-2.1c-0.1-0.3-0.2-0.6-0.3-0.9h0
				c-0.5,0.9-1.1,1.1-2.2,1.1c-1.5,0-2.1-1.3-2.1-2.5c0-1.6,0.7-2.3,2.2-2.7l1.2-0.3c0.7-0.2,0.9-0.4,0.9-1c0-0.7-0.3-1.1-1-1.1
				c-0.7,0-1,0.4-1,1.1v0.2H481z M485,316.5c-0.3,0.2-0.7,0.4-0.9,0.4c-0.9,0.2-1.2,0.6-1.2,1.4c0,0.7,0.2,1.2,0.8,1.2
				s1.4-0.4,1.4-1.3V316.5z"/>
			<path d="M491.6,309.3v6h0l2.2-3.2h2.4l-2.5,3.4l2.8,5.2h-2.4l-1.8-3.5l-0.8,1v2.5h-2.2v-11.4H491.6z"/>
		</g>
	</g>
	<g>
		<g>
			<path d="M362.7,405h4c2.3,0,3.1,1.7,3.1,3.4c0,2.4-1.5,3.4-3.6,3.4H365v4.6h-2.3V405z M365,410.2h1c0.9,0,1.5-0.5,1.5-1.7
				c0-1.1-0.4-1.8-1.6-1.8h-1V410.2z"/>
			<path d="M373.5,412.5v0.7c0,1,0.3,2,1.1,2c0.7,0,1-0.6,1.2-1.6h2c-0.1,2-1,3.1-3.1,3.1c-3.2,0-3.3-2.5-3.3-4.6
				c0-2.3,0.4-4.4,3.4-4.4c2.6,0,3.2,1.7,3.2,4.4v0.5H373.5z M375.7,411.1c0-1.3-0.2-2-1.1-2c-0.9,0-1.1,0.9-1.1,1.7v0.3H375.7z"/>
			<path d="M380.1,405.3h2.2v2.5h1.3v1.5h-1.3v4.7c0,0.7,0.1,0.9,0.8,0.9c0.2,0,0.4,0,0.5,0v1.5c-0.5,0-0.9,0.1-1.4,0.1
				c-1.7,0-2-0.5-2-2.3v-4.9H379v-1.5h1.1V405.3z"/>
			<path d="M385,407.8h2.1v1.2h0c0.4-0.8,1.1-1.4,2-1.4c0.1,0,0.3,0,0.4,0v2.1c-0.2,0-0.5,0-0.7,0c-0.8,0-1.6,0.4-1.6,1.6v5.2H385
				V407.8z"/>
			<path d="M390.9,410.5v-0.2c0-2,1.4-2.7,3-2.7c2.6,0,3.1,1.1,3.1,2.6v4.5c0,0.8,0,1.2,0.3,1.7h-2.1c-0.1-0.3-0.2-0.6-0.3-0.9h0
				c-0.5,0.9-1.1,1.1-2.2,1.1c-1.5,0-2.1-1.3-2.1-2.5c0-1.6,0.7-2.3,2.2-2.7l1.2-0.3c0.7-0.2,0.9-0.4,0.9-1c0-0.7-0.3-1.1-1-1.1
				c-0.7,0-1,0.4-1,1.1v0.2H390.9z M395,412.1c-0.3,0.2-0.7,0.4-0.9,0.4c-0.9,0.2-1.2,0.6-1.2,1.4c0,0.7,0.2,1.2,0.8,1.2
				s1.4-0.4,1.4-1.3V412.1z"/>
		</g>
	</g>
	<g>
		<g>
			<path d="M416.3,545.1h2.2l1.3,8.5h0l1.3-8.5h2.2l1.3,8.5h0l1.3-8.5h2.2l-2.1,11.4h-2.6l-1.3-8.3h0l-1.3,8.3h-2.6L416.3,545.1z"/>
			<path d="M429.7,550.5v-0.2c0-2,1.4-2.7,3-2.7c2.6,0,3.1,1.1,3.1,2.6v4.5c0,0.8,0,1.2,0.3,1.7H434c-0.1-0.3-0.2-0.6-0.3-0.9h0
				c-0.5,0.9-1.1,1.1-2.2,1.1c-1.5,0-2.1-1.3-2.1-2.5c0-1.6,0.7-2.3,2.2-2.7l1.2-0.3c0.7-0.2,0.9-0.4,0.9-1c0-0.7-0.3-1.1-1-1.1
				c-0.7,0-1,0.4-1,1.1v0.2H429.7z M433.7,552.2c-0.3,0.2-0.7,0.4-0.9,0.4c-0.9,0.2-1.2,0.6-1.2,1.4c0,0.7,0.2,1.2,0.8,1.2
				s1.4-0.4,1.4-1.3V552.2z"/>
			<path d="M442.4,555.6L442.4,555.6c-0.5,0.8-1.1,1.1-2,1.1c-1.8,0-2.6-1.3-2.6-4.5s0.8-4.5,2.6-4.5c0.8,0,1.4,0.3,1.9,1h0v-3.6
				h2.2v11.4h-2.1V555.6z M441.2,555c1,0,1.2-1,1.2-2.8s-0.2-2.8-1.2-2.8c-1,0-1.2,1-1.2,2.8S440.2,555,441.2,555z"/>
			<path d="M446.7,544.9h2.2v1.9h-2.2V544.9z M446.7,547.9h2.2v8.6h-2.2V547.9z"/>
			<path d="M455.7,545.1h4.3c1.9,0,3,1,3,2.9c0,1.5-0.6,2.5-1.9,2.8v0c1.6,0.2,1.8,1.1,1.8,3.5c0,1.2,0.1,1.8,0.5,2v0.1h-2.5
				c-0.2-0.3-0.3-0.8-0.3-1.2l-0.1-2.2c0-0.9-0.4-1.4-1.4-1.4H458v4.8h-2.3V545.1z M458,550.1h1c1.1,0,1.7-0.5,1.7-1.7
				c0-1.1-0.6-1.6-1.6-1.6H458V550.1z"/>
			<path d="M469.6,555.5L469.6,555.5c-0.5,0.8-1.3,1.2-2.2,1.2c-1.4,0-2.2-0.8-2.2-2.4v-6.4h2.2v5.9c0,0.9,0.3,1.2,0.9,1.2
				c0.8,0,1.2-0.5,1.2-1.4v-5.7h2.2v8.6h-2.1V555.5z"/>
			<path d="M473.8,547.9h2.1v0.9h0c0.6-0.8,1.2-1.1,2.2-1.1c1,0,1.7,0.5,2,1.4h0c0.3-0.9,1.1-1.4,2.2-1.4c1.5,0,2.1,0.9,2.1,2.6v6.3
				h-2.2v-6c0-0.7-0.2-1.1-0.9-1.1c-0.7,0-1.2,0.5-1.2,1.5v5.7H478v-6c0-0.7-0.2-1.1-0.9-1.1c-0.7,0-1.2,0.5-1.2,1.5v5.7h-2.2V547.9
				z"/>
		</g>
	</g>
	<g>
		<g>
			<path d="M350.5,538.2h2.8l3,11.4H354l-0.5-2.4h-3l-0.5,2.4h-2.4L350.5,538.2z M350.8,545.3h2.2l-1.1-5.1h0L350.8,545.3z"/>
			<path d="M362.1,548.8L362.1,548.8c-0.5,0.7-1.1,1-1.9,1c-1.8,0-2.6-1.3-2.6-4.5s0.8-4.5,2.6-4.5c0.9,0,1.5,0.3,2,1.1h0V541h2.1
				v11.4h-2.2V548.8z M360.9,542.5c-1,0-1.2,1-1.2,2.8c0,1.9,0.2,2.8,1.2,2.8c1,0,1.2-1,1.2-2.8
				C362.1,543.4,361.9,542.5,360.9,542.5z"/>
			<path d="M366.4,543.6v-0.2c0-2,1.4-2.7,3-2.7c2.6,0,3.1,1.1,3.1,2.6v4.5c0,0.8,0,1.2,0.3,1.7h-2.1c-0.1-0.3-0.2-0.6-0.3-0.9h0
				c-0.5,0.9-1.1,1.1-2.2,1.1c-1.5,0-2.1-1.3-2.1-2.5c0-1.6,0.7-2.3,2.2-2.7l1.2-0.3c0.7-0.2,0.9-0.4,0.9-1c0-0.7-0.3-1.1-1-1.1
				c-0.7,0-1,0.4-1,1.1v0.2H366.4z M370.4,545.3c-0.3,0.2-0.7,0.4-0.9,0.4c-0.9,0.2-1.2,0.6-1.2,1.4c0,0.7,0.2,1.2,0.8,1.2
				s1.4-0.4,1.4-1.3V545.3z"/>
			<path d="M374.7,538.2h2.2v3.6h0c0.5-0.7,1-1,1.9-1c1.8,0,2.6,1.3,2.6,4.5s-0.8,4.5-2.6,4.5c-0.9,0-1.5-0.3-2-1.1h0v0.9h-2.1
				V538.2z M378.1,548.1c1,0,1.2-1,1.2-2.8c0-1.9-0.2-2.8-1.2-2.8c-1,0-1.2,1-1.2,2.8C376.9,547.2,377.1,548.1,378.1,548.1z"/>
			<path d="M383.3,543.6v-0.2c0-2,1.4-2.7,3-2.7c2.6,0,3.1,1.1,3.1,2.6v4.5c0,0.8,0,1.2,0.3,1.7h-2.1c-0.1-0.3-0.2-0.6-0.3-0.9h0
				c-0.5,0.9-1.1,1.1-2.2,1.1c-1.5,0-2.1-1.3-2.1-2.5c0-1.6,0.7-2.3,2.2-2.7l1.2-0.3c0.7-0.2,0.9-0.4,0.9-1c0-0.7-0.3-1.1-1-1.1
				c-0.7,0-1,0.4-1,1.1v0.2H383.3z M387.4,545.3c-0.3,0.2-0.7,0.4-0.9,0.4c-0.9,0.2-1.2,0.6-1.2,1.4c0,0.7,0.2,1.2,0.8,1.2
				s1.4-0.4,1.4-1.3V545.3z"/>
		</g>
	</g>
	<g>
		<g>
			<path d="M472.8,156.5v8.2c0,2.4-1.1,3.4-3.4,3.4c-2.4,0-3-1.6-3-3.3v-0.5h2.1v0.4c0,1.2,0.2,1.8,1,1.8c0.8,0,1-0.6,1-1.8v-8.2
				H472.8z"/>
			<path d="M476.8,164v0.7c0,1,0.3,2,1.1,2c0.7,0,1-0.6,1.2-1.6h2c-0.1,2-1,3.1-3.1,3.1c-3.2,0-3.3-2.5-3.3-4.6
				c0-2.3,0.4-4.4,3.4-4.4c2.6,0,3.2,1.7,3.2,4.4v0.5H476.8z M479.1,162.6c0-1.3-0.2-2-1.1-2c-0.9,0-1.1,0.9-1.1,1.7v0.3H479.1z"/>
			<path d="M483,159.3h2.1v1.2h0c0.4-0.8,1.1-1.4,2-1.4c0.1,0,0.3,0,0.4,0v2.1c-0.2,0-0.5,0-0.7,0c-0.8,0-1.6,0.4-1.6,1.6v5.2H483
				V159.3z"/>
			<path d="M488.9,162v-0.2c0-2,1.4-2.7,3-2.7c2.6,0,3.1,1.1,3.1,2.6v4.5c0,0.8,0,1.2,0.3,1.7h-2.1c-0.1-0.3-0.2-0.6-0.3-0.9h0
				c-0.5,0.9-1.1,1.1-2.2,1.1c-1.5,0-2.1-1.3-2.1-2.5c0-1.6,0.7-2.3,2.2-2.7l1.2-0.3c0.7-0.2,0.9-0.4,0.9-1c0-0.7-0.3-1.1-1-1.1
				c-0.7,0-1,0.4-1,1.1v0.2H488.9z M493,163.6c-0.3,0.2-0.7,0.4-0.9,0.4c-0.9,0.2-1.2,0.6-1.2,1.4c0,0.7,0.2,1.2,0.8,1.2
				s1.4-0.4,1.4-1.3V163.6z"/>
			<path d="M498.9,165.1v0.3c0,0.8,0.4,1.2,1.2,1.2c0.7,0,1.1-0.3,1.1-1c0-0.6-0.4-0.8-0.8-1l-1.6-0.6c-1.2-0.4-1.8-1.2-1.8-2.4
				c0-1.4,0.9-2.6,3.2-2.6c2,0,2.9,0.9,2.9,2.4v0.4h-2c0-0.9-0.3-1.3-1-1.3c-0.6,0-1,0.3-1,0.9c0,0.4,0.2,0.8,1,1l1.3,0.4
				c1.4,0.5,1.9,1.2,1.9,2.5c0,1.8-1.3,2.7-3.2,2.7c-2.5,0-3.2-1.1-3.2-2.7v-0.3H498.9z"/>
			<path d="M505,156.5h2.2v3.7h0c0.4-0.7,1.2-1.1,2.1-1.1c1.4,0,2.2,0.8,2.2,2.4v6.4h-2.2V162c0-0.9-0.3-1.2-0.9-1.2
				c-0.8,0-1.2,0.5-1.2,1.4v5.7H505V156.5z"/>
		</g>
	</g>
	<g>
		<g>
			<path d="M397.7,124.3h2.8l3,11.4h-2.4l-0.5-2.4h-3l-0.5,2.4h-2.4L397.7,124.3z M398,131.4h2.2l-1.1-5.1h0L398,131.4z"/>
			<path d="M405,127.1h2.2v9.2c0,1.4-0.5,2.2-2.5,2.2c-0.3,0-0.6,0-0.9,0v-1.6c0.1,0,0.2,0,0.4,0c0.8,0,0.9-0.4,0.9-1.4V127.1z
				 M405,124.2h2.2v1.9H405V124.2z"/>
			<path d="M409.5,124.3h2.2v11.4h-2.2V124.3z"/>
			<path d="M417,126.9c2.7,0,3.4,1.5,3.4,4.5c0,2.9-0.9,4.5-3.4,4.5c-2.7,0-3.4-1.5-3.4-4.5C413.6,128.5,414.5,126.9,417,126.9z
				 M417,134.5c0.9,0,1.2-0.9,1.2-3s-0.3-3-1.2-3c-1.1,0-1.2,1.3-1.2,3S415.9,134.5,417,134.5z"/>
			<path d="M426.6,134.7L426.6,134.7c-0.5,0.8-1.3,1.2-2.2,1.2c-1.4,0-2.2-0.8-2.2-2.4v-6.4h2.2v5.9c0,0.9,0.3,1.2,0.9,1.2
				c0.8,0,1.2-0.5,1.2-1.4v-5.7h2.2v8.6h-2.1V134.7z"/>
			<path d="M430.9,127.1h2.1v1h0c0.5-0.8,1.3-1.2,2.2-1.2c1.4,0,2.2,0.8,2.2,2.4v6.4h-2.2v-5.9c0-0.9-0.3-1.2-0.9-1.2
				c-0.8,0-1.2,0.5-1.2,1.4v5.7h-2.2V127.1z"/>
		</g>
	</g>
	<g>
		<path class="st3" d="M861.8,63.1h2.5v11.4h-2.5V63.1z"/>
		<path class="st3" d="M869.7,63.1h6.2c2,0,3.3,1.4,3.3,3.2c0,1.3-0.5,2.4-1.8,2.9v0c1.2,0.3,1.6,1.5,1.7,2.7c0,0.7,0,2.1,0.5,2.7
			H877c-0.3-0.7-0.3-1.8-0.4-2.7c-0.2-1.2-0.6-1.7-1.9-1.7h-2.5v4.5h-2.5V63.1z M872.2,68.3h2.8c1.1,0,1.7-0.5,1.7-1.6
			c0-1.1-0.6-1.6-1.7-1.6h-2.8V68.3z"/>
		<path class="st3" d="M887.6,63.1h2.6l4.3,11.4h-2.6L891,72h-4.3l-0.9,2.5h-2.5L887.6,63.1z M887.3,70.1h3l-1.4-4.2h0L887.3,70.1z"
			/>
		<path class="st3" d="M898.6,63.1h2.5v4.7l4.5-4.7h3.1l-4.5,4.5l4.9,6.9H906l-3.4-5.1l-1.4,1.5v3.7h-2.5V63.1z"/>
	</g>
	<g>
		<path class="st3" d="M722.8,294c0,1.5,1.2,2.1,2.5,2.1c0.9,0,2.2-0.3,2.2-1.4c0-1.2-1.7-1.4-3.4-1.9c-1.7-0.4-3.4-1.1-3.4-3.2
			c0-2.3,2.2-3.5,4.3-3.5c2.4,0,4.6,1,4.6,3.7h-2.4c-0.1-1.4-1.1-1.7-2.3-1.7c-0.8,0-1.7,0.3-1.7,1.3c0,0.9,0.5,1,3.4,1.7
			c0.8,0.2,3.4,0.7,3.4,3.3c0,2.1-1.6,3.7-4.8,3.7c-2.5,0-4.9-1.2-4.9-4.1H722.8z"/>
		<path class="st3" d="M737.7,286.4h2.6l4.3,11.4H742l-0.9-2.5h-4.3l-0.9,2.5h-2.5L737.7,286.4z M737.5,293.4h3l-1.4-4.2h0
			L737.5,293.4z"/>
		<path class="st3" d="M758.5,293.5c0,3.1-1.8,4.6-4.9,4.6c-3.1,0-4.9-1.5-4.9-4.6v-7.1h2.5v7.1c0,1.2,0.3,2.5,2.4,2.5
			c1.8,0,2.4-0.8,2.4-2.5v-7.1h2.5V293.5z"/>
		<path class="st3" d="M763.8,286.4h4.9c3,0,5.2,1.9,5.2,5.7c0,3.3-1.7,5.8-5.2,5.8h-4.9V286.4z M766.4,295.7h2.2
			c1.5,0,2.8-0.9,2.8-3.4c0-2.3-0.8-3.8-3.3-3.8h-1.8V295.7z"/>
		<path class="st3" d="M778.9,286.4h2.5v11.4h-2.5V286.4z"/>
		<path class="st3" d="M724.2,305.6h2.6L731,317h-2.6l-0.9-2.5h-4.3l-0.9,2.5h-2.5L724.2,305.6z M723.9,312.6h3l-1.4-4.2h0
			L723.9,312.6z"/>
		<path class="st3" d="M735.2,305.6h6.2c2,0,3.3,1.4,3.3,3.2c0,1.3-0.5,2.4-1.8,2.9v0c1.2,0.3,1.6,1.5,1.7,2.7c0,0.7,0,2.1,0.5,2.7
			h-2.5c-0.3-0.7-0.3-1.8-0.4-2.7c-0.2-1.2-0.6-1.7-1.9-1.7h-2.5v4.5h-2.5V305.6z M737.7,310.8h2.8c1.1,0,1.7-0.5,1.7-1.6
			c0-1.1-0.6-1.6-1.7-1.6h-2.8V310.8z"/>
		<path class="st3" d="M753.1,305.6h2.6l4.3,11.4h-2.6l-0.9-2.5h-4.3l-0.9,2.5h-2.5L753.1,305.6z M752.8,312.6h3l-1.4-4.2h0
			L752.8,312.6z"/>
		<path class="st3" d="M764.1,305.6h5.4c2.2,0,3.6,0.7,3.6,2.8c0,1.1-0.6,1.9-1.6,2.4c1.4,0.4,2.1,1.5,2.1,2.9c0,2.3-2,3.3-4,3.3
			h-5.5V305.6z M766.6,310.2h2.5c0.9,0,1.5-0.4,1.5-1.4c0-1.1-0.8-1.3-1.7-1.3h-2.4V310.2z M766.6,315.1h2.7c1,0,1.9-0.3,1.9-1.5
			c0-1.2-0.7-1.6-1.8-1.6h-2.7V315.1z"/>
		<path class="st3" d="M778.6,305.6h2.5V317h-2.5V305.6z"/>
		<path class="st3" d="M786.5,305.6h8.5v2.1h-6v2.4h5.5v2H789v2.8h6.2v2.1h-8.7V305.6z"/>
		<path class="st3" d="M800.1,305.6h2.5l4.8,7.7h0v-7.7h2.4V317h-2.5l-4.8-7.7h0v7.7h-2.4V305.6z"/>
	</g>
</g>
<g id="Punkte">
	<path class="st4" d="M0.3,89.9c0,0,242.3-75.6,464.2,108.6"/>
	<path class="st5" d="M464.5,198.5l-4-46.7l-17-8.5l4.5,86c0,0-20.4-1.6-23.9,2c-3.1,3.3,4.9,3.3,4.3,6.1c-0.6,2.9-7.5-1.6-7.9,4
		c-0.2,2.5,6.4,2.1,5.8,3.8c-0.7,2-6.8,0.3-7,5.3c-0.3,8.4,7.2,9.4,7,12c-0.4,4.4-0.7,6-0.7,6"/>
	<polyline class="st5" points="448,229.3 433.7,303 420.7,376.8 399.3,424.7 414.7,536.3 345.6,530.9 	"/>
	<circle cx="345.6" cy="530.9" r="4.3"/>
	<circle cx="399.3" cy="424.7" r="4.3"/>
	<circle cx="433.7" cy="303" r="4.3"/>
	<circle cx="448" cy="229.3" r="4.3"/>
	<circle cx="464.5" cy="198.5" r="4.3"/>
	<circle cx="460.5" cy="151.8" r="4.3"/>
	<circle cx="443.5" cy="143.3" r="4.3"/>
	<circle cx="420.7" cy="376.8" r="4.3"/>
	<circle cx="425.7" cy="268.7" r="4.3"/>
	<circle cx="414.7" cy="536.3" r="4.3"/>
</g>
</svg>
