<svg version="1.1" xmlns="http://www.w3.org/2000/svg" viewBox="0 0 75 75">
<style type="text/css">
	.st0{fill:#FFFFFF;}
</style>
<g>
	<path class="st0" d="M30.4,54.2c0.5,0.1,1.2,0.3,1.9,0.4c3.1,0.6,7.8,1.3,13.3,1.3c2,0,4.6-0.3,7.4-0.9c2.9-0.5,6-1.3,9.1-2
		c4.5-1.1,8.8-2.4,11.9-3.4L74,49.6c0,0-2.2-6.5-6.8-6.8c-2.2-0.2-7.6-0.5-13.3-1.6c-1.5,3.1-4.4,6.4-9.9,6.4c-0.1,0-0.2,0-0.3,0
		c-8.6-0.2-14.9-6.8-18.3-19.1c-0.1-0.4-0.2-0.9-0.3-1.3L3.1,33v20.7h23.6C27.9,53.7,29.2,53.9,30.4,54.2z"/>
	<path class="st0" d="M43.6,45.9c0.1,0,0.2,0,0.3,0c4.4,0,6.8-2.5,8.2-5.1c-6-1.4-12-3.7-14.7-7.9c-4.5-6.9-3.9-15-4.5-19
		c-0.1-0.8-0.8-1.4-1.7-1.4h-4.5c-1,0-2.2,0.4-2.1,1.7C25.3,23.2,28.6,45.5,43.6,45.9z M27.9,17.2c0-0.8,0.6-1.4,1.4-1.4
		c0.8,0,1.4,0.6,1.4,1.4c0,0.8-0.6,1.4-1.4,1.4C28.5,18.6,27.9,18,27.9,17.2z M28.6,23.3c0-0.8,0.6-1.4,1.4-1.4
		c0.8,0,1.4,0.6,1.4,1.4c0,0.8-0.6,1.4-1.4,1.4C29.2,24.7,28.6,24.1,28.6,23.3z M31.4,31c-0.8,0-1.4-0.6-1.4-1.4
		c0-0.8,0.6-1.4,1.4-1.4c0.8,0,1.4,0.6,1.4,1.4C32.8,30.3,32.2,31,31.4,31z M43.6,40.9c0.8,0,1.4,0.6,1.4,1.4c0,0.8-0.6,1.4-1.4,1.4
		c-0.8,0-1.4-0.6-1.4-1.4C42.2,41.6,42.9,40.9,43.6,40.9z M38.2,38.1c0.8,0,1.4,0.6,1.4,1.4c0,0.8-0.6,1.4-1.4,1.4
		c-0.8,0-1.4-0.6-1.4-1.4C36.8,38.8,37.4,38.1,38.2,38.1z M32.9,35c0-0.8,0.6-1.4,1.4-1.4s1.4,0.6,1.4,1.4s-0.6,1.4-1.4,1.4
		S32.9,35.8,32.9,35z"/>
	<path class="st0" d="M45.7,57.6c-7.1,0-12.8-1.1-15.7-1.8c-1.1-0.3-2.2-0.4-3.3-0.4h-25l0,0C0.6,56.8,0,58.4,0,60.1v2.5h3.1v-1.7
		h4.4v1.7h7v-1.5h3.8v1.5h4.5v-3.8l4.1-0.2c0.4,0,0.8,0,1.2,0l12.1,1.5l0,1.8l4.6,0.1v-1.5l4.4,0l0.3,1.5h5.2l0.4-1.6l3.3-0.9
		l1.2,1.2l6.7-2v-1.7l2.1-0.8l1.2,1.2l5.4-2.5v-3.7l-0.1-0.2C67.8,53.4,53.1,57.6,45.7,57.6z"/>
	<path class="st0" d="M37.1,24.6c0.6-0.1,1-0.7,0.9-1.4L37.9,23c-0.1-0.6-0.7-1-1.4-0.9l-1.4,0.3l0.5,2.5L37.1,24.6z"/>
	<path class="st0" d="M36.5,27l0.9,2.4l1.3-0.5c0.6-0.2,0.9-0.9,0.7-1.5l-0.1-0.3c-0.2-0.6-0.9-0.9-1.5-0.7L36.5,27z"/>
	<path class="st0" d="M3.2,31.2l21.3-5.7c-0.8-3.4-1.2-6.7-1.5-9.3l-15.4,5V20c0-1-1-1.7-1.9-1.5c-2.5,0.7-3.7,2.2-3.7,5.8l1.1,6.9
		L3.2,31.2z"/>
</g>
</svg>
