<?xml version="1.0" encoding="utf-8"?>
<!-- Generator: Adobe Illustrator 21.0.2, SVG Export Plug-In . SVG Version: 6.00 Build 0)  -->
<svg version="1.1" id="Ebene_1" xmlns="http://www.w3.org/2000/svg" xmlns:xlink="http://www.w3.org/1999/xlink" x="0px" y="0px"
	 viewBox="0 0 64 36" style="enable-background:new 0 0 64 36;" xml:space="preserve">
<style type="text/css">
	.st0{fill:#FFFFFF;}
</style>
<g>
	<g>
		<path class="st0" d="M63,24l-8.7-10.3L44.9,2.3c-0.5-0.6-1.5-0.6-2,0l-4.4,5.3l6.7,8l8.8,10.5H62C63.1,26.2,63.8,24.8,63,24z"/>
	</g>
	<g>
		<path class="st0" d="M55.1,32.2l-5-6l-7.2-8.6L36.5,10l-7-8.3c-0.1-0.2-0.3-0.3-0.5-0.4c-0.2-0.1-0.4-0.2-0.6-0.2
			c-0.1,0-0.3,0-0.4,0c-0.1,0-0.3,0-0.4,0c-0.2,0-0.4,0.1-0.6,0.2c-0.2,0.1-0.3,0.2-0.5,0.4L13.3,17.6L1.1,32.2
			c-0.3,0.3-0.4,0.6-0.4,1c-0.1,0.5,0.1,1,0.4,1.4C1.3,34.8,1.6,35,2,35.1c0.2,0.1,0.4,0.1,0.6,0.1h25.6h25.6c0.2,0,0.4,0,0.6-0.1
			c0.3-0.1,0.6-0.3,0.9-0.6c0.3-0.4,0.5-0.9,0.4-1.4C55.5,32.8,55.3,32.5,55.1,32.2z"/>
	</g>
</g>
</svg>
