<svg version="1.1" xmlns="http://www.w3.org/2000/svg" viewBox="0 0 595.28 841.89">
<style type="text/css">
	.st0{fill:#E3E3E4;}
	.st1{fill:#E3E3E4;stroke:#E3E3E4;stroke-width:2;stroke-miterlimit:10;}
	.st2{fill:none;stroke:#588333;stroke-width:2;stroke-miterlimit:10;}
	.st3{fill:none;stroke:#588333;stroke-width:2;stroke-miterlimit:10;stroke-dasharray:3,3;}
	.st4{fill:#0A0A0D;}
	.st5{fill:#FFFFFF;}
	.st6{fill:#588333;}
</style>
<g>
	<path class="st0" d="M298.95,217.66c0.48-0.6,3.36-4.81,3.36-4.81s1.8,0.24,4.45-2.88c2.64-3.12,1.92-6.25,5.17-6.85
		c3.24-0.6,5.29-1.32,5.41-2.64c0.12-1.32-2.04-1.08-3-0.24c-0.96,0.84-2.64-0.84-1.56-2.04c1.08-1.2,3.24-5.89,6.01-7.45
		c2.76-1.56,4.45-2.28,4.09-2.16c-0.36,0.12,0.72,2.76,0.72,2.76s-1.68,1.56-0.72,3.6c0.96,2.04,2.16,2.4,2.16,2.4l-6.37,9.13
		c0,0-1.08,6.73,0.12,7.21c1.2,0.48,3.72-1.68,5.41-4.57c1.68-2.88,3.24-2.52,3.12-2.88s-1.44-2.04-0.96-2.04
		c0.48,0,4.81-5.53,4.81-6.13c0-0.6,0.84-3.36,1.2-4.09c0.36-0.72,2.16-3.85,2.16-3.85s1.2-1.32,3.12-3
		c1.92-1.68,4.45-3.97,2.4-3.12c-2.04,0.84-4.09,2.52-3.97-1.32c0.12-3.85-1.68-8.53-0.72-10.33c0.96-1.8,3.24-3.6,3.24-3.6
		s0.48-2.64,0.48-3s1.92-1.44,1.92-1.44s1.32,2.64,3.24,2.16c1.92-0.48,3.85-0.36,3.85-0.36l0.84-5.17c0,0-3.48-2.76-2.28-3.12
		c1.2-0.36,4.33,0.48,4.45,1.92c0.12,1.44-1.32,8.41-1.2,9.73s1.44,2.52,1.92-0.6c0.48-3.12-0.12-5.89,0.96-6.61
		c1.08-0.72,1.32-3,0.96-4.33s-1.44-3.48-3.72-3.97c-2.28-0.48-2.76-1.92-2.76-1.92s4.57-0.12,4.81-1.56
		c0.24-1.44-1.56-2.76-3.48-3.12c-1.92-0.36-4.45-4.81-3.97-9.37c0.48-4.57,0.72-7.81,1.56-8.29c0.84-0.48,2.4-0.12,3-0.84
		s0.72-4.45,1.56-4.21c0.84,0.24-0.96,2.52,0.24,3.12s3.72,0.96,3.24-0.36c-0.48-1.32-0.72-2.52,0.24-2.04s4.21,2.16,4.81,4.57
		c0.6,2.4,2.04,8.41,3.72,10.21c1.68,1.8,2.04,1.56,4.09,0.24c2.04-1.32,1.32-5.89,1.8-7.33c0.48-1.44,2.16-1.68,1.44-3.85
		c-0.72-2.16-4.69-9.73-4.69-9.73l-3-1.68l-0.72-4.57l3.36-1.44c0,0-0.96-3.36,0.84-3.97c1.8-0.6,2.64,0.72,2.28,2.4
		s0.96,2.64,0.96,2.64l0.24,3.6c0,0,1.44,1.56,4.09,1.2s4.93,0,4.93-0.96c0-0.96-0.84-4.93,0.12-2.52c0.96,2.4,2.16,8.41,6.01,8.05
		s8.29-1.8,9.13-2.88c0.84-1.08,0.6-3.12,0.6-3.12s2.16-3.85,1.8-5.05s0.72-11.54,3.72-14.06c3-2.52,4.69-6.73,3.36-9.49
		c-1.32-2.76-2.16-5.77-2.52-7.45s-2.28-3.72-1.2-5.65c1.08-1.92,0.24-2.16-1.08-2.04c-1.32,0.12-1.68-2.04-2.76-3.12
		c-1.08-1.08-4.09-2.88-3.36-4.21c0.72-1.32,0.96-1.56,3-0.96c2.04,0.6,3.48-0.12,4.21,1.32c0.72,1.44,0.6,4.69,2.28,4.33
		c1.68-0.36,3-4.09,3.12-6.01c0.12-1.92,2.64-4.57,3.85-4.93c1.2-0.36,0.96,1.32,2.64,0.24c1.68-1.08,2.88-0.48,3.24-3.12
		s0.72-3.97,1.8-3.97c1.08,0,1.44-1.32,0.72-2.04s-3.85-1.44-4.69-1.56c-0.84-0.12,1.08-2.76,2.04-2.4
		c0.96,0.36,3.48,2.64,3.48,2.64s-0.72-3.36-1.32-3.72c-0.6-0.36,3-5.05,4.57-5.05s3,4.21,3.36,5.41c0.36,1.2,0.96,3.6,1.2,4.93
		c0.24,1.32,0.36,3.6,0.36,3.6s-1.44-0.6-3.36-0.6s-2.04-2.28-3.12-1.32c-1.08,0.96-0.12,2.28-0.72,3.36
		c-0.6,1.08-2.76,4.93-1.08,4.45c1.68-0.48,1.32-3.24,2.52-3.6c1.2-0.36,1.44,1.92,3.12,2.64c1.68,0.72,2.64,0.96,2.88-0.96
		c0.24-1.92,1.2-2.64,1.8-0.72c0.6,1.92,1.68,6.85,2.64,6.97c0.96,0.12,1.92-1.56,3.36-0.96c1.44,0.6,2.4,2.76,3.36,5.77
		c0.96,3,1.2,3.97,0.24,4.33c-0.96,0.36-1.56,2.64-1.44,3.85c0.12,1.2-0.24,2.64,1.32,2.76s3.24,0.96,3.72,2.64
		c0.48,1.68-0.24,3.97,0.84,4.93s1.44-3.12,2.76-2.76c1.32,0.36,3.97,3,4.09,4.45s0.36,4.09,1.68,4.21c1.32,0.12,1.8-0.48,2.16,0.24
		s-0.72,2.04-0.24,2.88c0.48,0.84,0.72-0.24,2.16,2.28s2.04,2.52,1.8,4.69c-0.24,2.16-0.6,6.01,0.6,8.77
		c1.2,2.76,0.72,2.28,2.16,4.93c1.44,2.64,2.04,0.6,2.16,3.12c0.12,2.52-0.6,6.61,0.36,8.29c0.96,1.68,1.56,1.92,2.52,5.05
		c0.96,3.12,1.08,5.77,2.04,7.33c0.96,1.56,1.32,5.65,1.2,10.21c-0.12,4.57,1.08,5.89,0.84,8.41c-0.24,2.52-0.6,4.09-2.4,4.69
		s1.8-0.72,1.8,1.44c0,2.16,0.72,5.29,2.04,5.89c1.32,0.6-0.36,4.33-0.6,7.33c-0.24,3-0.84,7.45,0.36,10.45s1.08,5.77,1.44,8.17
		c0.36,2.4,1.68,6.01,2.88,8.17c1.2,2.16,1.68,1.8,2.4,4.45c0.72,2.64,0.72,4.93,2.52,6.61s2.76,2.16,3,3.48
		c0.24,1.32,0,2.4,1.08,3.36s1.8,4.81,1.32,6.97c-0.48,2.16-3.85,13.46-6.01,18.98c-2.16,5.53-3.12,7.21-2.88,8.05
		c0.24,0.84-0.96,0.72-1.56,1.56c-0.6,0.84-3.6,4.81-3.85,6.01c-0.24,1.2-0.96,1.92-2.4,1.8c-1.44-0.12-1.56-2.76-2.76-2.88
		s-5.29-2.16-5.89-4.21c-0.6-2.04-0.12-4.69-0.12-4.69s-2.88-2.04-3-3.6c-0.12-1.56,0.48-5.29,0.48-5.29l-3.85-4.81
		c0,0,1.8-5.41,0.24-6.25c-1.56-0.84-0.96-0.36-2.88-0.12c-1.92,0.24-7.45,0-9.01,1.8s-3.12,4.33-2.88,5.89
		c0.24,1.56,1.56,1.8,1.32,3.72c-0.24,1.92-0.96,2.64-0.36,3.85c0.6,1.2,4.45,10.57,4.33,11.54c-0.12,0.96-2.16,2.28-2.28,5.65
		c-0.12,3.36,0.36,6.25,3.48,7.69c3.12,1.44,4.69,2.28,4.69,3.85s-2.28,4.81-1.68,7.09c0.6,2.28,2.88,6.49,1.56,9.97
		c-1.32,3.48-2.04,5.17-3.72,7.57c-1.68,2.4-3.24,3.85-2.52,5.65c0.72,1.8,2.52,4.21,2.52,4.21l-0.12,1.56c0,0-9.01,0.36-9.97,2.16
		c-0.96,1.8-3.36,7.93-6.37,14.9c-3,6.97-4.33,8.77-3.24,11.29s1.2,2.04,1.08,3.36c-0.12,1.32,0.84,5.05,0.96,6.37
		c0.12,1.32,0.24,6.01,1.56,6.61c1.32,0.6,1.32,0.6,1.32,0.6s-4.69,12.5-5.41,16.7s-1.08,10.21-0.84,10.57
		c0.24,0.36-2.76,3.85-3.36,6.25c-0.6,2.4-1.44,2.76-1.56,4.93c-0.12,2.16,0.6,0.12-2.04,5.77s-8.05,21.03-11.54,28.96
		c-3.48,7.93-6.49,17.42-6.73,19.71c-0.24,2.28-6.01,14.3-7.33,19.95c-1.32,5.65-1.08,11.29-1.92,13.46
		c-0.84,2.16-1.32-0.12-2.88,5.29c-1.56,5.41-9.85,19.35-12.62,30.88s-5.77,20.79-7.93,29.32s-12.98,37.49-17.3,48.42
		c-4.33,10.93-7.57,15.74-9.97,24.63c-2.4,8.89-5.53,27.88-6.85,31.84c-1.32,3.97-3.12,8.77-3.48,11.29s-3.36,11.66-4.69,16.1
		c-1.32,4.45-1.92,7.09-2.28,7.69c-0.36,0.6-0.96,9.61-2.16,11.78c-1.2,2.16-5.29,12.38-7.93,16.7s-2.64,8.05-3.85,8.65
		c-1.2,0.6-2.16,0.36-2.16,0.36s1.2,1.08,0.24,3.97c-0.96,2.88-0.84,7.93-3.12,12.62c-2.28,4.69-4.81,7.57-4.81,9.01
		s1.44,1.8,0.24,2.88c-1.2,1.08-2.4,0.6-3.36,3.24c-0.96,2.64,0,4.69-0.72,6.01s-1.2,2.28-1.2,2.28s-2.28-1.56-3.72-0.36
		c-1.44,1.2-3.24,3.85-3.48,4.45c-0.24,0.6-4.45,0.48-6.37,2.04c-1.92,1.56-4.33,3.36-6.25,4.09s-3.85,0.48-7.45,0
		c-3.6-0.48-13.58-1.08-25.35,4.93s-20.55,13.7-24.39,14.9c-3.85,1.2-11.54,1.44-14.42,1.8c-2.88,0.36-6.13,1.68-7.33,1.56
		c-1.2-0.12-0.72-2.52-1.8-3.36c-1.08-0.84-6.61-3-8.53-4.81s-4.45-7.09-11.78-8.17c-7.33-1.08-19.23-2.76-19.23-2.76
		s0.84-3.48-4.45-7.21c-5.29-3.72-8.05-3.36-8.05-3.36l-4.09-4.93c0,0,0.36-4.21-0.36-5.41c-0.72-1.2-3.24-4.45-3.24-4.45
		s-2.88-3.85-2.04-5.05c0.84-1.2,2.16-3.48,0.12-6.01c-2.04-2.52-6.13-6.61-9.37-9.37c-3.24-2.76-4.33-10.21-3.6-15.98
		c0.72-5.77-0.84-7.93-0.72-10.21c0.12-2.28,0.6-4.57,0.6-4.57s-3.24-11.41-1.68-13.7c1.56-2.28,4.21-1.92,5.17-3.24
		c0.96-1.32,2.76-4.69,1.32-6.73c-1.44-2.04-6.97-4.09-7.69-6.97c-0.72-2.88,1.44-11.29-1.32-14.3c-2.76-3-10.93-10.93-12.98-14.78
		c-2.04-3.85-0.96-7.33-2.76-11.9c-1.8-4.57-0.96-10.57-2.16-13.34c-1.2-2.76-3.12-5.17-1.68-6.61s2.16-1.56,2.52-0.36
		c0.36,1.2,1.32,1.92,1.56,0.12c0.24-1.8,0.96-5.17,0-4.81s-3,1.92-3.12,0.6s-1.08-5.53-0.12-8.53c0.96-3,1.56-8.29,2.16-8.65
		c0.6-0.36,0.24,2.88,1.2,2.04c0.96-0.84,0-7.09,1.8-8.41c1.8-1.32,5.89-3.85,6.01-6.25s-1.32-11.41-1.32-11.41s0.84-0.24,1.08-0.72
		c0.24-0.48,0.6-5.89,2.64-6.85c2.04-0.96,4.69-2.76,6.13-2.4c1.44,0.36,0.24,0.36,3.24-0.12c3-0.48,4.21-0.24,4.21-0.24
		s3.12-2.88,3.97-7.81s1.8-13.7,3.36-16.34c1.56-2.64,1.56-4.93,2.76-4.81c1.2,0.12,0.6,0.72,2.28-0.6s3.36-6.49,4.45-9.61
		c1.08-3.12,2.04-6.49,3.85-7.09c1.8-0.6,4.09-0.96,4.57-3.6c0.48-2.64,0.12-5.17,2.28-7.69c2.16-2.52,4.45-6.37,6.97-9.97
		c2.52-3.6,3.12-5.65,2.4-8.53c-0.72-2.88-1.56-3.24-2.64-4.09s-2.52-3.85-1.32-4.93s1.2-3.36,2.04-6.13
		c0.84-2.76,3.12-5.05,2.04-9.01c-1.08-3.97-5.77-11.66-8.29-15.5c-2.52-3.85-4.93-8.05-4.81-12.38c0.12-4.33,1.2-5.53,1.08-8.29
		s-5.77-15.02-9.01-20.79s-2.28-3.97-2.28-8.17s-0.72-8.17-1.32-14.3c-0.6-6.13,2.28-16.46,1.2-17.9c-1.08-1.44-2.16-2.76-0.96-3.24
		c1.2-0.48-3.48-1.08-4.21-5.05c-0.72-3.97-1.44-6.85,0.48-10.93s4.69-8.17,6.13-9.85c1.44-1.68-0.48-3.72,1.2-5.77
		c1.68-2.04,7.21-9.73,10.69-15.38c3.48-5.65,4.57-6.49,6.13-8.41c1.56-1.92,0.6-8.41,1.8-9.37c1.2-0.96,2.04-2.04,1.44-4.33
		s-2.76-3.97-2.64-6.85c0.12-2.88,1.32-3.97,1.56-6.37c0.24-2.4-0.12-4.81,2.52-4.45s11.66,0.48,14.9,1.44
		c3.24,0.96,1.32,2.52,4.21,1.08c2.88-1.44,2.52-2.88,4.33-2.52c1.8,0.36,4.09,0.6,4.09,0.6l-1.32-2.4l10.45-9.13l5.41-3.36
		c0,0,0.48,4.69,0.72,5.29s-1.32,6.01,0.36,6.01s5.05-1.92,4.93-3.85s-1.2-4.33-1.2-4.33s4.09,0.72,4.45,0.48
		c0.36-0.24,6.49-2.4,6.49-2.4s1.32,1.32,0.6,3.36c-0.72,2.04-0.72,2.88-0.72,2.88l2.52,0.12c0,0,2.04-4.69,2.04-7.45
		c0-2.76-0.48-5.77-0.48-5.77l3.36-2.28c0,0,3.85-0.6,4.09,0.48c0.24,1.08,1.92,1.2,3.48,0.96c1.56-0.24,2.28-2.28,4.57-2.04
		c2.28,0.24,2.64,1.2,2.4,3c-0.24,1.8,2.76,1.68,4.45,0.84c1.68-0.84,4.81-4.21,2.88-3.48s-5.05,1.68-2.28-0.84
		c2.76-2.52,6.49-4.09,8.29-3.12c1.8,0.96,1.32,6.37,2.4,9.01c1.08,2.64,2.4,7.45,4.33,7.21c1.92-0.24,0.96-2.52,2.16-2.28
		c1.2,0.24,2.64,1.68,3.36,0.84s-0.72-3.12,0.12-3.6c0.84-0.48,0.12-3.24-2.52-3.6s-4.33-1.92-2.88-3.12
		c1.44-1.2,2.28-2.28,0.6-3.36c-1.68-1.08-0.96-4.21,3.6-8.17c4.57-3.97,3.12-2.4,6.01-3.97c2.88-1.56,11.66-9.25,15.62-11.9
		c3.97-2.64,6.25-5.53,7.57-4.81c1.32,0.72-0.12,3.85,1.2,4.69c1.32,0.84,4.21,1.44,5.05,2.28c0.84,0.84,0.84,0.84,0.84,0.84
		s-3.85,3.85-4.57,5.29c-0.72,1.44-1.2,2.88-1.2,2.88s1.2-0.36,4.33-0.96c3.12-0.6,4.09-0.24,6.25-0.48
		c2.16-0.24,1.44-0.72,0.48-3.48c-0.96-2.76-1.32-6.01-1.32-6.01l-2.4,0.6l0.36-2.04l-2.16,0.24l-0.12-1.8l-1.32-0.36L298.95,217.66
		z"/>
	<path class="st1" d="M456.75,306.85c-0.99,0.9-1.35,1.62-1.44,2.7s-0.63,2.16-1.71,2.97c-1.08,0.81-1.98,3.88-1.98,3.88l-1.17-0.09
		c0,0-1.71,1.26-1.53,2.79s0.72,2.88-0.09,4.15c-0.81,1.26-0.81,1.26-0.81,1.26s-1.62,4.96-1.26,4.69s4.24-7.66,5.41-8.74
		c1.17-1.08,2.07-5.77,3.88-8.65c1.8-2.88,2.7-4.06,2.43-4.78C458.19,306.31,456.75,306.85,456.75,306.85z"/>
</g>
<g>
	<polyline class="st2" points="315.17,552.94 295.44,483.1 321.44,426.84 370.84,419.98 420.04,386.51 423.64,355.18 	"/>
	<polyline class="st2" points="178.08,424.92 173.78,442.21 160.48,473.14 152.28,505.31 295.44,483.1 	"/>
	<line class="st2" x1="151.17" y1="523.88" x2="152.28" y2="505.31"/>
	<path class="st3" d="M454.66,320.84c0,0,0,27.48-31.02,34.34"/>
	<path class="st3" d="M106.27-108.92c0,0,293.91,214.04,214.1,532.81"/>
</g>
<g>
	<circle class="st4" cx="321.44" cy="426.84" r="4.3"/>
	<circle class="st4" cx="370.84" cy="419.98" r="4.3"/>
	<circle class="st4" cx="423.64" cy="355.18" r="4.3"/>
	<circle class="st4" cx="454.66" cy="320.84" r="4.3"/>
	<circle class="st4" cx="420.04" cy="386.38" r="4.3"/>
	<g>
		<circle class="st5" cx="321.44" cy="409.14" r="6.4"/>
		<path class="st6" d="M321.44,399.64c-5,0-9,4-9,9c0,2,1.3,5.3,3.9,10c1.9,3.3,3.7,6.1,3.8,6.2l1.3,2l1.3-2
			c0.1-0.1,1.9-2.9,3.8-6.2c2.6-4.7,3.9-8,3.9-10C330.44,403.64,326.34,399.64,321.44,399.64z M321.44,413.24
			c-2.6,0-4.7-2.1-4.7-4.7s2.1-4.7,4.7-4.7c2.6,0,4.7,2.1,4.7,4.7C326.04,411.14,324.04,413.24,321.44,413.24z"/>
	</g>
	<circle class="st4" cx="152.28" cy="505.31" r="4.3"/>
	<circle class="st4" cx="151.17" cy="523.88" r="4.3"/>
	<circle class="st4" cx="119.02" cy="675.66" r="4.3"/>
	<circle class="st4" cx="295.44" cy="483.1" r="4.3"/>
	<circle class="st4" cx="315.17" cy="552.94" r="4.3"/>
	<g>
		<path d="M83.8,499.8l1.33,6.55h0.03l1.34-6.55h2.77v9.28h-1.72v-7.41h-0.03l-1.65,7.41h-1.46l-1.65-7.41h-0.03v7.41h-1.72v-9.28
			H83.8z"/>
		<path d="M90.84,504c0.1-0.46,0.25-0.84,0.47-1.15s0.5-0.54,0.85-0.7c0.35-0.16,0.78-0.24,1.29-0.24c0.54-0.01,0.98,0.06,1.34,0.21
			c0.36,0.15,0.64,0.38,0.84,0.7c0.21,0.31,0.36,0.7,0.44,1.16c0.09,0.46,0.13,1,0.13,1.61c0,0.6-0.05,1.13-0.14,1.59
			c-0.1,0.46-0.25,0.84-0.47,1.15s-0.5,0.54-0.85,0.68c-0.35,0.15-0.78,0.22-1.29,0.22c-0.54,0.01-0.98-0.06-1.34-0.2
			c-0.36-0.14-0.64-0.37-0.85-0.68s-0.36-0.69-0.44-1.16c-0.09-0.46-0.13-1-0.13-1.61C90.7,504.98,90.75,504.45,90.84,504z
			 M92.52,506.57c0.02,0.3,0.06,0.56,0.12,0.78c0.06,0.22,0.16,0.39,0.29,0.51c0.13,0.12,0.3,0.18,0.52,0.18
			c0.36,0,0.62-0.19,0.75-0.57c0.14-0.38,0.21-1.01,0.21-1.88s-0.07-1.5-0.21-1.88c-0.14-0.38-0.39-0.57-0.75-0.57
			c-0.22,0-0.39,0.06-0.52,0.18c-0.13,0.12-0.23,0.29-0.29,0.51c-0.07,0.22-0.11,0.48-0.12,0.78c-0.02,0.3-0.03,0.63-0.03,0.99
			S92.5,506.27,92.52,506.57z"/>
		<path d="M99.28,502.08v0.94h0.03c0.18-0.34,0.4-0.61,0.66-0.81c0.26-0.2,0.58-0.3,0.95-0.3c0.05,0,0.11,0,0.16,0.01
			c0.06,0,0.11,0.01,0.16,0.02v1.72c-0.1-0.01-0.19-0.01-0.28-0.02c-0.09,0-0.18-0.01-0.28-0.01c-0.16,0-0.31,0.02-0.47,0.06
			c-0.16,0.04-0.3,0.12-0.43,0.21s-0.23,0.23-0.31,0.39c-0.08,0.16-0.12,0.36-0.12,0.59v4.2h-1.79v-6.99H99.28z"/>
		<path d="M102.19,504c0.1-0.46,0.25-0.84,0.47-1.15s0.5-0.54,0.85-0.7c0.35-0.16,0.78-0.24,1.29-0.24
			c0.54-0.01,0.98,0.06,1.34,0.21c0.36,0.15,0.64,0.38,0.84,0.7c0.21,0.31,0.36,0.7,0.44,1.16c0.09,0.46,0.13,1,0.13,1.61
			c0,0.6-0.05,1.13-0.14,1.59c-0.1,0.46-0.25,0.84-0.47,1.15s-0.5,0.54-0.85,0.68c-0.35,0.15-0.78,0.22-1.29,0.22
			c-0.54,0.01-0.98-0.06-1.34-0.2c-0.36-0.14-0.64-0.37-0.85-0.68s-0.36-0.69-0.44-1.16c-0.09-0.46-0.13-1-0.13-1.61
			C102.05,504.98,102.1,504.45,102.19,504z M103.87,506.57c0.02,0.3,0.06,0.56,0.12,0.78c0.06,0.22,0.16,0.39,0.29,0.51
			c0.13,0.12,0.3,0.18,0.52,0.18c0.36,0,0.62-0.19,0.75-0.57c0.14-0.38,0.21-1.01,0.21-1.88s-0.07-1.5-0.21-1.88
			c-0.14-0.38-0.39-0.57-0.75-0.57c-0.22,0-0.39,0.06-0.52,0.18c-0.13,0.12-0.23,0.29-0.29,0.51c-0.07,0.22-0.11,0.48-0.12,0.78
			c-0.02,0.3-0.03,0.63-0.03,0.99S103.85,506.27,103.87,506.57z"/>
		<path d="M110.63,502.08v0.82h0.03c0.19-0.35,0.44-0.6,0.74-0.76c0.3-0.16,0.65-0.24,1.04-0.24c0.57,0,1.01,0.16,1.32,0.47
			c0.31,0.31,0.46,0.82,0.46,1.52v5.19h-1.79v-4.82c0-0.36-0.06-0.62-0.18-0.76c-0.12-0.14-0.32-0.21-0.58-0.21
			c-0.63,0-0.95,0.39-0.95,1.16v4.64h-1.79v-6.99H110.63z"/>
		<path d="M119.37,508.34c-0.2,0.33-0.42,0.56-0.67,0.69c-0.25,0.13-0.55,0.19-0.92,0.19c-0.74,0-1.28-0.28-1.62-0.84
			s-0.52-1.5-0.52-2.79s0.17-2.24,0.52-2.81s0.89-0.86,1.62-0.86c0.34,0,0.63,0.07,0.86,0.21s0.45,0.35,0.64,0.62h0.03v-2.94h1.79
			v9.28h-1.72v-0.74H119.37z M117.6,507.3c0.12,0.39,0.37,0.58,0.76,0.58c0.4,0,0.66-0.19,0.77-0.58s0.18-0.96,0.18-1.72
			s-0.06-1.34-0.18-1.72s-0.38-0.58-0.77-0.58c-0.39,0-0.64,0.19-0.76,0.58s-0.18,0.96-0.18,1.72S117.49,506.92,117.6,507.3z"/>
		<path d="M122.68,504.06c0-0.41,0.07-0.75,0.2-1.02c0.13-0.27,0.31-0.49,0.53-0.66s0.48-0.29,0.78-0.36
			c0.3-0.07,0.62-0.11,0.96-0.11c0.54,0,0.97,0.05,1.3,0.16c0.33,0.1,0.58,0.25,0.77,0.44c0.18,0.19,0.3,0.42,0.37,0.68
			s0.1,0.55,0.1,0.86v3.68c0,0.33,0.01,0.58,0.04,0.77c0.03,0.18,0.09,0.38,0.18,0.58h-1.72c-0.06-0.11-0.11-0.23-0.14-0.36
			c-0.03-0.13-0.06-0.25-0.08-0.37h-0.03c-0.21,0.36-0.45,0.6-0.72,0.71c-0.27,0.11-0.63,0.16-1.06,0.16
			c-0.31,0-0.58-0.05-0.79-0.16s-0.39-0.26-0.52-0.45c-0.13-0.19-0.23-0.41-0.29-0.64s-0.09-0.47-0.09-0.71
			c0-0.33,0.03-0.61,0.1-0.85s0.18-0.44,0.32-0.61c0.14-0.17,0.33-0.31,0.55-0.42c0.22-0.11,0.49-0.21,0.8-0.3l1.01-0.27
			c0.27-0.07,0.45-0.16,0.56-0.29c0.1-0.12,0.16-0.3,0.16-0.53c0-0.27-0.06-0.48-0.19-0.63c-0.13-0.15-0.34-0.23-0.64-0.23
			c-0.28,0-0.49,0.08-0.62,0.25c-0.14,0.16-0.21,0.39-0.21,0.66v0.19h-1.61V504.06z M125.57,505.81c-0.14,0.06-0.26,0.1-0.38,0.12
			c-0.36,0.08-0.62,0.21-0.78,0.39c-0.16,0.18-0.23,0.43-0.23,0.74c0,0.27,0.05,0.5,0.16,0.69c0.1,0.19,0.28,0.29,0.52,0.29
			c0.12,0,0.25-0.02,0.38-0.06s0.25-0.1,0.36-0.19s0.2-0.2,0.27-0.34s0.1-0.3,0.1-0.49v-1.38
			C125.83,505.68,125.7,505.75,125.57,505.81z"/>
		<path d="M134.45,502.08l-1.75,6.99h-2.08l-1.81-6.99h1.87l1,5h0.03l0.95-5H134.45z"/>
		<path d="M135.48,504.06c0-0.41,0.07-0.75,0.2-1.02c0.13-0.27,0.31-0.49,0.53-0.66s0.48-0.29,0.78-0.36
			c0.3-0.07,0.62-0.11,0.96-0.11c0.54,0,0.97,0.05,1.3,0.16c0.33,0.1,0.58,0.25,0.77,0.44c0.18,0.19,0.3,0.42,0.37,0.68
			s0.1,0.55,0.1,0.86v3.68c0,0.33,0.01,0.58,0.04,0.77c0.03,0.18,0.09,0.38,0.18,0.58h-1.72c-0.06-0.11-0.11-0.23-0.14-0.36
			c-0.03-0.13-0.06-0.25-0.08-0.37h-0.03c-0.21,0.36-0.45,0.6-0.72,0.71c-0.27,0.11-0.63,0.16-1.06,0.16
			c-0.31,0-0.58-0.05-0.79-0.16s-0.39-0.26-0.52-0.45c-0.13-0.19-0.23-0.41-0.29-0.64s-0.09-0.47-0.09-0.71
			c0-0.33,0.03-0.61,0.1-0.85s0.18-0.44,0.32-0.61c0.14-0.17,0.33-0.31,0.55-0.42c0.22-0.11,0.49-0.21,0.8-0.3l1.01-0.27
			c0.27-0.07,0.45-0.16,0.56-0.29c0.1-0.12,0.16-0.3,0.16-0.53c0-0.27-0.06-0.48-0.19-0.63c-0.13-0.15-0.34-0.23-0.64-0.23
			c-0.28,0-0.49,0.08-0.62,0.25c-0.14,0.16-0.21,0.39-0.21,0.66v0.19h-1.61V504.06z M138.37,505.81c-0.14,0.06-0.26,0.1-0.38,0.12
			c-0.36,0.08-0.62,0.21-0.78,0.39c-0.16,0.18-0.23,0.43-0.23,0.74c0,0.27,0.05,0.5,0.16,0.69c0.1,0.19,0.28,0.29,0.52,0.29
			c0.12,0,0.25-0.02,0.38-0.06s0.25-0.1,0.36-0.19s0.2-0.2,0.27-0.34s0.1-0.3,0.1-0.49v-1.38
			C138.64,505.68,138.51,505.75,138.37,505.81z"/>
	</g>
	<g>
		<path d="M160.68,530.97h0.03l2.37-3.72h2.03l-2.52,3.98l2.81,5.3h-2.11l-1.91-3.81l-0.69,1.05v2.76h-1.87v-9.28h1.87V530.97z"/>
		<path d="M167.98,527.14v1.53h-1.79v-1.53H167.98z M167.98,529.54v6.99h-1.79v-6.99H167.98z"/>
		<path d="M171.35,529.54v0.94h0.03c0.18-0.34,0.4-0.61,0.66-0.81c0.26-0.2,0.58-0.31,0.95-0.31c0.05,0,0.11,0,0.16,0.01
			c0.06,0,0.11,0.01,0.16,0.02v1.71c-0.1-0.01-0.19-0.01-0.28-0.02c-0.09,0-0.18-0.01-0.28-0.01c-0.16,0-0.31,0.02-0.47,0.06
			c-0.16,0.04-0.3,0.12-0.43,0.21s-0.23,0.23-0.31,0.39s-0.12,0.36-0.12,0.59v4.2h-1.79v-6.99H171.35z"/>
		<path d="M176.21,527.14v1.53h-1.79v-1.53H176.21z M176.21,529.54v6.99h-1.79v-6.99H176.21z"/>
		<path d="M179.58,529.54v0.82h0.03c0.19-0.35,0.44-0.6,0.74-0.76c0.3-0.16,0.65-0.24,1.04-0.24c0.57,0,1.01,0.16,1.32,0.47
			s0.46,0.82,0.46,1.52v5.19h-1.79v-4.82c0-0.36-0.06-0.62-0.18-0.76c-0.12-0.14-0.32-0.21-0.58-0.21c-0.63,0-0.95,0.39-0.95,1.16
			v4.64h-1.79v-6.99H179.58z"/>
		<path d="M188.32,535.79c-0.2,0.33-0.42,0.56-0.67,0.69c-0.25,0.13-0.55,0.2-0.92,0.2c-0.74,0-1.28-0.28-1.62-0.85
			c-0.35-0.56-0.52-1.49-0.52-2.79c0-1.3,0.17-2.24,0.52-2.81s0.89-0.86,1.62-0.86c0.34,0,0.63,0.07,0.86,0.21s0.45,0.35,0.64,0.62
			h0.03v-2.94h1.79v9.28h-1.72v-0.74H188.32z M186.55,534.76c0.12,0.39,0.37,0.58,0.76,0.58c0.4,0,0.66-0.19,0.77-0.58
			s0.18-0.96,0.18-1.72s-0.06-1.34-0.18-1.72c-0.12-0.38-0.38-0.58-0.77-0.58c-0.39,0-0.64,0.19-0.76,0.58
			c-0.12,0.39-0.18,0.96-0.18,1.72S186.44,534.37,186.55,534.76z"/>
		<path d="M192.24,537.48c0.33,0,0.57-0.09,0.71-0.26c0.14-0.17,0.23-0.4,0.25-0.69l-1.96-6.99h1.87l1.04,4.84h0.03l0.91-4.84h1.79
			l-1.69,6.53c-0.16,0.58-0.3,1.05-0.45,1.41c-0.14,0.36-0.31,0.64-0.51,0.83s-0.43,0.32-0.7,0.38c-0.27,0.06-0.62,0.09-1.03,0.09
			h-0.73v-1.34C191.93,537.47,192.09,537.48,192.24,537.48z"/>
	</g>
	<g>
		<path d="M81.22,679.2h-2.03v7.75h-1.87v-7.75h-2.03v-1.53h5.93V679.2z"/>
		<path d="M81.31,681.87c0.1-0.46,0.25-0.84,0.47-1.15s0.5-0.54,0.85-0.7c0.35-0.16,0.78-0.24,1.29-0.24
			c0.54-0.01,0.98,0.06,1.34,0.21c0.36,0.15,0.64,0.38,0.84,0.7c0.21,0.31,0.36,0.7,0.44,1.16c0.09,0.46,0.13,1,0.13,1.61
			c0,0.6-0.05,1.13-0.14,1.59c-0.1,0.46-0.25,0.84-0.47,1.15s-0.5,0.54-0.85,0.68c-0.35,0.15-0.78,0.22-1.29,0.22
			c-0.54,0.01-0.98-0.06-1.34-0.2c-0.36-0.14-0.64-0.37-0.85-0.68s-0.36-0.69-0.44-1.16c-0.09-0.46-0.13-1-0.13-1.61
			C81.17,682.85,81.22,682.33,81.31,681.87z M82.99,684.44c0.02,0.3,0.06,0.56,0.12,0.78c0.06,0.22,0.16,0.39,0.29,0.51
			c0.13,0.12,0.3,0.18,0.52,0.18c0.36,0,0.62-0.19,0.75-0.57c0.14-0.38,0.21-1.01,0.21-1.88s-0.07-1.5-0.21-1.88
			c-0.14-0.38-0.39-0.57-0.75-0.57c-0.22,0-0.39,0.06-0.52,0.18c-0.13,0.12-0.23,0.29-0.29,0.51c-0.07,0.22-0.11,0.48-0.12,0.78
			c-0.02,0.3-0.03,0.63-0.03,0.99S82.97,684.14,82.99,684.44z"/>
		<path d="M89.89,677.67v9.28H88.1v-9.28H89.89z"/>
		<path d="M93.4,677.56v1.53h-1.79v-1.53H93.4z M93.4,679.96v6.99h-1.79v-6.99H93.4z"/>
		<path d="M95.04,681.93c0-0.41,0.07-0.75,0.2-1.02c0.13-0.27,0.31-0.49,0.53-0.66s0.48-0.29,0.78-0.36
			c0.3-0.07,0.62-0.11,0.96-0.11c0.54,0,0.97,0.05,1.3,0.16c0.33,0.1,0.58,0.25,0.77,0.44c0.18,0.19,0.3,0.42,0.37,0.68
			s0.1,0.55,0.1,0.86v3.68c0,0.33,0.01,0.58,0.04,0.77c0.03,0.18,0.09,0.38,0.18,0.58h-1.72c-0.06-0.11-0.11-0.23-0.14-0.36
			c-0.03-0.13-0.06-0.25-0.08-0.37h-0.03c-0.21,0.36-0.45,0.6-0.72,0.71c-0.27,0.11-0.63,0.16-1.06,0.16
			c-0.31,0-0.58-0.05-0.79-0.16s-0.39-0.26-0.52-0.45c-0.13-0.19-0.23-0.41-0.29-0.64s-0.09-0.47-0.09-0.71
			c0-0.33,0.03-0.61,0.1-0.85s0.18-0.44,0.32-0.61c0.14-0.17,0.33-0.31,0.55-0.42c0.22-0.11,0.49-0.21,0.8-0.3l1.01-0.27
			c0.27-0.07,0.45-0.16,0.56-0.29c0.1-0.12,0.16-0.3,0.16-0.53c0-0.27-0.06-0.48-0.19-0.63C98,681.07,97.79,681,97.48,681
			c-0.28,0-0.49,0.08-0.62,0.25c-0.14,0.16-0.21,0.39-0.21,0.66v0.19h-1.61V681.93z M97.93,683.68c-0.14,0.06-0.26,0.1-0.38,0.12
			c-0.36,0.08-0.62,0.21-0.78,0.39c-0.16,0.18-0.23,0.43-0.23,0.74c0,0.27,0.05,0.5,0.16,0.69c0.1,0.19,0.28,0.29,0.52,0.29
			c0.12,0,0.25-0.02,0.38-0.06s0.25-0.1,0.36-0.19s0.2-0.2,0.27-0.34s0.1-0.3,0.1-0.49v-1.38
			C98.19,683.55,98.06,683.62,97.93,683.68z"/>
		<path d="M103.41,679.96v0.94h0.03c0.18-0.34,0.4-0.61,0.66-0.81c0.26-0.2,0.58-0.3,0.95-0.3c0.05,0,0.11,0,0.16,0.01
			c0.06,0,0.11,0.01,0.16,0.02v1.72c-0.1-0.01-0.19-0.01-0.28-0.02c-0.09,0-0.18-0.01-0.28-0.01c-0.16,0-0.31,0.02-0.47,0.06
			c-0.16,0.04-0.3,0.12-0.43,0.21s-0.23,0.23-0.31,0.39c-0.08,0.16-0.12,0.36-0.12,0.59v4.2h-1.79v-6.99H103.41z"/>
		<path d="M106.4,681.93c0-0.41,0.07-0.75,0.2-1.02c0.13-0.27,0.31-0.49,0.53-0.66s0.48-0.29,0.78-0.36
			c0.3-0.07,0.62-0.11,0.96-0.11c0.54,0,0.97,0.05,1.3,0.16c0.33,0.1,0.58,0.25,0.77,0.44c0.18,0.19,0.3,0.42,0.37,0.68
			s0.1,0.55,0.1,0.86v3.68c0,0.33,0.01,0.58,0.04,0.77c0.03,0.18,0.09,0.38,0.18,0.58h-1.72c-0.06-0.11-0.11-0.23-0.14-0.36
			c-0.03-0.13-0.06-0.25-0.08-0.37h-0.03c-0.21,0.36-0.45,0.6-0.72,0.71c-0.27,0.11-0.63,0.16-1.06,0.16
			c-0.31,0-0.58-0.05-0.79-0.16s-0.39-0.26-0.52-0.45c-0.13-0.19-0.23-0.41-0.29-0.64s-0.09-0.47-0.09-0.71
			c0-0.33,0.03-0.61,0.1-0.85s0.18-0.44,0.32-0.61c0.14-0.17,0.33-0.31,0.55-0.42c0.22-0.11,0.49-0.21,0.8-0.3l1.01-0.27
			c0.27-0.07,0.45-0.16,0.56-0.29c0.1-0.12,0.16-0.3,0.16-0.53c0-0.27-0.06-0.48-0.19-0.63c-0.13-0.15-0.34-0.23-0.64-0.23
			c-0.28,0-0.49,0.08-0.62,0.25c-0.14,0.16-0.21,0.39-0.21,0.66v0.19h-1.61V681.93z M109.29,683.68c-0.14,0.06-0.26,0.1-0.38,0.12
			c-0.36,0.08-0.62,0.21-0.78,0.39c-0.16,0.18-0.23,0.43-0.23,0.74c0,0.27,0.05,0.5,0.16,0.69c0.1,0.19,0.28,0.29,0.52,0.29
			c0.12,0,0.25-0.02,0.38-0.06s0.25-0.1,0.36-0.19s0.2-0.2,0.27-0.34s0.1-0.3,0.1-0.49v-1.38
			C109.56,683.55,109.43,683.62,109.29,683.68z"/>
	</g>
	<g>
		<path d="M309.95,479l2.46,9.28h-1.95l-0.43-1.96h-2.47l-0.43,1.96h-1.95l2.46-9.28H309.95z M309.7,484.79l-0.9-4.17h-0.03
			l-0.9,4.17H309.7z"/>
		<path d="M315.11,481.29v0.82h0.03c0.19-0.35,0.44-0.6,0.74-0.76c0.3-0.16,0.65-0.24,1.04-0.24c0.57,0,1.01,0.16,1.32,0.47
			s0.46,0.82,0.46,1.52v5.19h-1.79v-4.82c0-0.36-0.06-0.62-0.18-0.76c-0.12-0.14-0.32-0.21-0.58-0.21c-0.63,0-0.95,0.39-0.95,1.16
			v4.64h-1.79v-6.99H315.11z"/>
		<path d="M322.47,479.29v2h1.04v1.22h-1.04v3.78c0,0.28,0.04,0.47,0.12,0.59s0.25,0.17,0.51,0.17c0.07,0,0.14,0,0.21-0.01
			s0.13-0.01,0.2-0.02v1.25c-0.2,0-0.39,0.01-0.58,0.02s-0.38,0.02-0.59,0.02c-0.35,0-0.63-0.02-0.85-0.07
			c-0.22-0.05-0.39-0.14-0.51-0.29c-0.12-0.14-0.2-0.33-0.24-0.57c-0.04-0.23-0.06-0.53-0.06-0.88v-4h-0.91v-1.22h0.91v-2H322.47z"
			/>
		<path d="M325.83,486.23c0,0.3,0.08,0.55,0.24,0.74s0.39,0.28,0.7,0.28c0.28,0,0.5-0.07,0.66-0.21c0.17-0.14,0.25-0.35,0.25-0.62
			c0-0.23-0.06-0.4-0.2-0.51c-0.13-0.12-0.28-0.21-0.45-0.28l-1.26-0.46c-0.49-0.17-0.87-0.42-1.12-0.73
			c-0.25-0.32-0.38-0.72-0.38-1.22c0-0.29,0.05-0.56,0.14-0.81c0.09-0.26,0.25-0.48,0.46-0.67s0.47-0.34,0.8-0.46
			c0.33-0.11,0.72-0.17,1.18-0.17c0.81,0,1.42,0.17,1.81,0.52c0.39,0.35,0.58,0.84,0.58,1.47v0.29h-1.61c0-0.37-0.06-0.63-0.18-0.8
			c-0.12-0.17-0.32-0.25-0.62-0.25c-0.23,0-0.42,0.06-0.59,0.19c-0.17,0.13-0.25,0.31-0.25,0.57c0,0.17,0.05,0.33,0.16,0.47
			s0.31,0.26,0.62,0.35l1.08,0.36c0.56,0.19,0.96,0.44,1.2,0.75s0.35,0.73,0.35,1.25c0,0.37-0.06,0.7-0.19,0.97
			c-0.13,0.27-0.31,0.5-0.54,0.68c-0.23,0.18-0.5,0.31-0.82,0.39c-0.32,0.08-0.67,0.12-1.05,0.12c-0.5,0-0.92-0.05-1.25-0.14
			c-0.33-0.1-0.6-0.24-0.79-0.43c-0.19-0.19-0.33-0.42-0.41-0.7c-0.08-0.27-0.12-0.58-0.12-0.92V486h1.61V486.23z"/>
		<path d="M332.54,478.9v1.54h-1.79v-1.54H332.54z M332.54,481.29v6.99h-1.79v-6.99H332.54z"/>
		<path d="M335.91,481.29v0.94h0.03c0.18-0.34,0.4-0.61,0.66-0.81c0.26-0.2,0.58-0.3,0.95-0.3c0.05,0,0.11,0,0.16,0.01
			c0.06,0,0.11,0.01,0.16,0.02v1.72c-0.1-0.01-0.19-0.02-0.28-0.02c-0.09,0-0.18-0.01-0.28-0.01c-0.16,0-0.31,0.02-0.47,0.07
			c-0.16,0.04-0.3,0.11-0.43,0.21c-0.13,0.1-0.23,0.23-0.31,0.39c-0.08,0.16-0.12,0.36-0.12,0.59v4.2h-1.79v-6.99H335.91z"/>
		<path d="M338.9,483.27c0-0.41,0.07-0.75,0.2-1.02c0.13-0.27,0.31-0.49,0.53-0.66c0.22-0.17,0.48-0.29,0.78-0.36
			c0.3-0.07,0.62-0.11,0.96-0.11c0.54,0,0.97,0.05,1.3,0.16c0.33,0.1,0.58,0.25,0.77,0.44c0.18,0.19,0.3,0.42,0.37,0.68
			s0.1,0.55,0.1,0.86v3.68c0,0.33,0.01,0.58,0.04,0.77s0.09,0.38,0.18,0.58h-1.72c-0.06-0.11-0.11-0.23-0.14-0.36
			s-0.06-0.25-0.08-0.37h-0.03c-0.21,0.37-0.45,0.6-0.72,0.71c-0.27,0.11-0.63,0.16-1.06,0.16c-0.31,0-0.58-0.05-0.79-0.16
			s-0.39-0.26-0.52-0.45s-0.23-0.41-0.29-0.64s-0.09-0.47-0.09-0.71c0-0.33,0.03-0.61,0.1-0.85s0.18-0.44,0.32-0.61
			c0.14-0.17,0.33-0.31,0.55-0.42c0.22-0.11,0.49-0.21,0.8-0.3l1.01-0.27c0.27-0.07,0.45-0.16,0.56-0.29
			c0.1-0.12,0.16-0.3,0.16-0.53c0-0.27-0.06-0.48-0.19-0.63c-0.13-0.15-0.34-0.23-0.64-0.23c-0.28,0-0.49,0.08-0.62,0.25
			s-0.21,0.39-0.21,0.66v0.19h-1.61V483.27z M341.78,485.01c-0.14,0.06-0.26,0.1-0.38,0.12c-0.36,0.08-0.62,0.21-0.78,0.39
			c-0.16,0.18-0.23,0.43-0.23,0.74c0,0.27,0.05,0.5,0.16,0.69c0.1,0.19,0.28,0.29,0.52,0.29c0.12,0,0.25-0.02,0.38-0.06
			s0.25-0.1,0.36-0.19c0.11-0.09,0.2-0.2,0.27-0.34s0.1-0.3,0.1-0.49v-1.38C342.05,484.88,341.92,484.96,341.78,485.01z"/>
		<path d="M347.35,479v2.94h0.03c0.19-0.28,0.41-0.49,0.64-0.62s0.53-0.21,0.86-0.21c0.74,0,1.28,0.29,1.62,0.86
			c0.35,0.58,0.52,1.51,0.52,2.81s-0.17,2.23-0.52,2.79s-0.89,0.84-1.62,0.84c-0.36,0-0.67-0.06-0.92-0.19s-0.47-0.36-0.67-0.69
			h-0.03v0.74h-1.72V479H347.35z M347.52,486.51c0.12,0.39,0.38,0.58,0.77,0.58c0.39,0,0.64-0.19,0.76-0.58s0.18-0.96,0.18-1.72
			s-0.06-1.34-0.18-1.72s-0.37-0.58-0.76-0.58c-0.4,0-0.66,0.19-0.77,0.58s-0.18,0.96-0.18,1.72S347.41,486.12,347.52,486.51z"/>
		<path d="M353.98,485.62c0,0.21,0.02,0.41,0.05,0.6s0.08,0.37,0.15,0.52c0.07,0.15,0.16,0.27,0.27,0.37
			c0.11,0.09,0.25,0.14,0.42,0.14c0.3,0,0.52-0.11,0.66-0.33s0.23-0.55,0.29-0.99h1.61c-0.04,0.82-0.25,1.44-0.65,1.86
			c-0.4,0.42-1.03,0.64-1.88,0.64c-0.65,0-1.16-0.11-1.52-0.32c-0.36-0.22-0.63-0.5-0.81-0.86c-0.17-0.36-0.28-0.75-0.32-1.2
			c-0.04-0.44-0.06-0.88-0.06-1.33c0-0.47,0.03-0.92,0.1-1.35s0.2-0.82,0.39-1.16c0.2-0.34,0.47-0.61,0.84-0.81s0.85-0.3,1.46-0.3
			c0.52,0,0.95,0.08,1.28,0.25c0.33,0.17,0.6,0.41,0.79,0.71c0.19,0.31,0.32,0.68,0.39,1.12s0.1,0.93,0.1,1.46v0.4h-3.55V485.62z
			 M355.76,483.29c-0.03-0.2-0.07-0.38-0.14-0.52c-0.06-0.14-0.16-0.25-0.27-0.33c-0.12-0.07-0.27-0.11-0.45-0.11
			c-0.18,0-0.33,0.04-0.45,0.12s-0.21,0.19-0.28,0.32c-0.07,0.13-0.12,0.28-0.15,0.45c-0.03,0.16-0.05,0.33-0.05,0.49v0.27h1.83
			C355.8,483.73,355.79,483.49,355.76,483.29z"/>
	</g>
	<g>
		<path d="M247.81,557.24c0.78,0,1.39,0.2,1.82,0.59s0.65,1,0.65,1.8c0,0.62-0.13,1.13-0.38,1.53c-0.25,0.39-0.64,0.65-1.17,0.76
			v0.03c0.47,0.07,0.81,0.22,1.03,0.46c0.22,0.23,0.35,0.61,0.4,1.13c0.02,0.17,0.03,0.36,0.04,0.57c0.01,0.2,0.02,0.43,0.03,0.68
			c0.02,0.49,0.04,0.87,0.08,1.13c0.05,0.26,0.17,0.44,0.34,0.53v0.08h-2.03c-0.1-0.13-0.16-0.28-0.18-0.45
			c-0.03-0.17-0.04-0.34-0.05-0.53l-0.05-1.78c-0.02-0.36-0.11-0.65-0.27-0.86c-0.17-0.21-0.44-0.31-0.83-0.31h-1v3.93h-1.87v-9.28
			H247.81z M247.01,561.29c0.45,0,0.8-0.11,1.04-0.32c0.24-0.21,0.36-0.57,0.36-1.07c0-0.86-0.43-1.29-1.3-1.29h-0.88v2.68H247.01z"
			/>
		<path d="M251.91,561.5c0-0.41,0.07-0.75,0.2-1.02c0.13-0.27,0.31-0.49,0.53-0.66s0.48-0.29,0.78-0.36
			c0.3-0.07,0.62-0.11,0.96-0.11c0.54,0,0.97,0.05,1.3,0.16c0.33,0.1,0.58,0.25,0.77,0.44c0.18,0.19,0.3,0.42,0.37,0.68
			c0.07,0.26,0.1,0.55,0.1,0.87v3.68c0,0.33,0.01,0.58,0.04,0.77c0.03,0.18,0.09,0.38,0.18,0.58h-1.72
			c-0.06-0.11-0.11-0.23-0.14-0.36c-0.03-0.12-0.06-0.25-0.08-0.37h-0.03c-0.21,0.36-0.45,0.6-0.72,0.71
			c-0.27,0.11-0.63,0.16-1.06,0.16c-0.31,0-0.58-0.05-0.79-0.16s-0.39-0.26-0.52-0.45s-0.23-0.41-0.29-0.64s-0.09-0.47-0.09-0.71
			c0-0.33,0.03-0.61,0.1-0.85s0.18-0.44,0.32-0.61c0.14-0.17,0.33-0.31,0.55-0.42c0.22-0.11,0.49-0.21,0.8-0.3l1.01-0.27
			c0.27-0.07,0.45-0.17,0.56-0.29c0.1-0.12,0.16-0.3,0.16-0.53c0-0.27-0.06-0.48-0.19-0.63c-0.13-0.15-0.34-0.23-0.64-0.23
			c-0.28,0-0.49,0.08-0.62,0.25c-0.14,0.17-0.21,0.39-0.21,0.66v0.2h-1.61V561.5z M254.79,563.25c-0.14,0.06-0.26,0.1-0.38,0.12
			c-0.36,0.08-0.62,0.21-0.78,0.39c-0.16,0.18-0.23,0.43-0.23,0.74c0,0.27,0.05,0.5,0.16,0.69c0.1,0.19,0.28,0.29,0.52,0.29
			c0.12,0,0.25-0.02,0.38-0.06s0.25-0.1,0.36-0.19c0.11-0.09,0.2-0.2,0.27-0.34s0.1-0.3,0.1-0.49v-1.38
			C255.06,563.12,254.93,563.19,254.79,563.25z"/>
		<path d="M260.28,559.53v0.82h0.03c0.19-0.35,0.44-0.6,0.74-0.76c0.3-0.16,0.65-0.24,1.04-0.24c0.57,0,1.01,0.16,1.32,0.47
			c0.31,0.31,0.46,0.82,0.46,1.52v5.19h-1.79v-4.82c0-0.36-0.06-0.62-0.18-0.76c-0.12-0.14-0.32-0.21-0.58-0.21
			c-0.63,0-0.95,0.39-0.95,1.16v4.64h-1.79v-6.99H260.28z"/>
		<path d="M265.36,561.44c0.1-0.46,0.25-0.84,0.47-1.15s0.5-0.54,0.85-0.7c0.35-0.16,0.78-0.24,1.29-0.24
			c0.54-0.01,0.98,0.06,1.34,0.21s0.64,0.38,0.84,0.7c0.21,0.31,0.36,0.7,0.44,1.16c0.09,0.46,0.13,1,0.13,1.61
			c0,0.6-0.05,1.13-0.14,1.59c-0.1,0.46-0.25,0.84-0.47,1.15c-0.22,0.31-0.5,0.54-0.85,0.68c-0.35,0.15-0.78,0.22-1.29,0.22
			c-0.54,0.01-0.98-0.06-1.34-0.2c-0.36-0.14-0.64-0.37-0.85-0.68s-0.36-0.69-0.44-1.16c-0.09-0.46-0.13-1-0.13-1.61
			C265.22,562.43,265.27,561.9,265.36,561.44z M267.04,564.01c0.02,0.3,0.06,0.56,0.12,0.78c0.06,0.22,0.16,0.39,0.29,0.51
			c0.13,0.12,0.3,0.18,0.52,0.18c0.36,0,0.62-0.19,0.75-0.57c0.14-0.38,0.21-1.01,0.21-1.89c0-0.88-0.07-1.5-0.21-1.88
			c-0.14-0.38-0.39-0.57-0.75-0.57c-0.22,0-0.39,0.06-0.52,0.18c-0.13,0.12-0.23,0.29-0.29,0.51c-0.07,0.22-0.11,0.48-0.12,0.78
			c-0.02,0.3-0.03,0.63-0.03,0.99C267.01,563.38,267.02,563.71,267.04,564.01z"/>
		<path d="M273.8,559.53v0.72h0.03c0.23-0.32,0.48-0.55,0.76-0.69c0.28-0.14,0.62-0.21,1.01-0.21c0.42,0,0.76,0.1,1.05,0.29
			s0.47,0.47,0.57,0.83h0.03c0.14-0.37,0.36-0.65,0.67-0.84s0.67-0.28,1.1-0.28c0.6,0,1.04,0.18,1.32,0.54
			c0.28,0.36,0.42,0.88,0.42,1.55v5.08h-1.79v-4.89c0-0.29-0.05-0.52-0.16-0.68c-0.11-0.16-0.29-0.23-0.54-0.23
			c-0.29,0-0.51,0.1-0.68,0.29s-0.25,0.49-0.25,0.91v4.6h-1.79v-4.89c0-0.29-0.05-0.52-0.16-0.68c-0.11-0.16-0.29-0.23-0.54-0.23
			c-0.29,0-0.51,0.1-0.68,0.29s-0.25,0.49-0.25,0.91v4.6h-1.79v-6.99H273.8z"/>
		<path d="M282.31,561.5c0-0.41,0.07-0.75,0.2-1.02c0.13-0.27,0.31-0.49,0.53-0.66s0.48-0.29,0.78-0.36
			c0.3-0.07,0.62-0.11,0.96-0.11c0.54,0,0.97,0.05,1.3,0.16c0.33,0.1,0.58,0.25,0.77,0.44c0.18,0.19,0.3,0.42,0.37,0.68
			c0.07,0.26,0.1,0.55,0.1,0.87v3.68c0,0.33,0.01,0.58,0.04,0.77c0.03,0.18,0.09,0.38,0.18,0.58h-1.72
			c-0.06-0.11-0.11-0.23-0.14-0.36c-0.03-0.12-0.06-0.25-0.08-0.37h-0.03c-0.21,0.36-0.45,0.6-0.72,0.71
			c-0.27,0.11-0.63,0.16-1.06,0.16c-0.31,0-0.58-0.05-0.79-0.16s-0.39-0.26-0.52-0.45s-0.23-0.41-0.29-0.64s-0.09-0.47-0.09-0.71
			c0-0.33,0.03-0.61,0.1-0.85s0.18-0.44,0.32-0.61c0.14-0.17,0.33-0.31,0.55-0.42c0.22-0.11,0.49-0.21,0.8-0.3l1.01-0.27
			c0.27-0.07,0.45-0.17,0.56-0.29c0.1-0.12,0.16-0.3,0.16-0.53c0-0.27-0.06-0.48-0.19-0.63c-0.13-0.15-0.34-0.23-0.64-0.23
			c-0.28,0-0.49,0.08-0.62,0.25c-0.14,0.17-0.21,0.39-0.21,0.66v0.2h-1.61V561.5z M285.2,563.25c-0.14,0.06-0.26,0.1-0.38,0.12
			c-0.36,0.08-0.62,0.21-0.78,0.39c-0.16,0.18-0.23,0.43-0.23,0.74c0,0.27,0.05,0.5,0.16,0.69c0.1,0.19,0.28,0.29,0.52,0.29
			c0.12,0,0.25-0.02,0.38-0.06s0.25-0.1,0.36-0.19c0.11-0.09,0.2-0.2,0.27-0.34s0.1-0.3,0.1-0.49v-1.38
			C285.47,563.12,285.34,563.19,285.2,563.25z"/>
		<path d="M288.45,560.75v-1.22h0.91v-0.79c0-0.31,0.04-0.58,0.13-0.79c0.09-0.22,0.21-0.39,0.37-0.52s0.36-0.22,0.59-0.28
			c0.23-0.06,0.49-0.08,0.78-0.08c0.32,0,0.64,0.01,0.96,0.04v1.27c-0.04-0.01-0.1-0.01-0.18-0.01h-0.17
			c-0.25,0-0.43,0.04-0.53,0.13c-0.1,0.09-0.16,0.23-0.16,0.43v0.61h1.04v1.22h-1.04v5.77h-1.79v-5.77H288.45z"/>
		<path d="M293.19,561.5c0-0.41,0.07-0.75,0.2-1.02c0.13-0.27,0.31-0.49,0.53-0.66s0.48-0.29,0.78-0.36
			c0.3-0.07,0.62-0.11,0.96-0.11c0.54,0,0.97,0.05,1.3,0.16c0.33,0.1,0.58,0.25,0.77,0.44c0.18,0.19,0.3,0.42,0.37,0.68
			c0.07,0.26,0.1,0.55,0.1,0.87v3.68c0,0.33,0.01,0.58,0.04,0.77c0.03,0.18,0.09,0.38,0.18,0.58h-1.72
			c-0.06-0.11-0.11-0.23-0.14-0.36c-0.03-0.12-0.06-0.25-0.08-0.37h-0.03c-0.21,0.36-0.45,0.6-0.72,0.71
			c-0.27,0.11-0.63,0.16-1.06,0.16c-0.31,0-0.58-0.05-0.79-0.16s-0.39-0.26-0.52-0.45s-0.23-0.41-0.29-0.64s-0.09-0.47-0.09-0.71
			c0-0.33,0.03-0.61,0.1-0.85s0.18-0.44,0.32-0.61c0.14-0.17,0.33-0.31,0.55-0.42c0.22-0.11,0.49-0.21,0.8-0.3l1.01-0.27
			c0.27-0.07,0.45-0.17,0.56-0.29c0.1-0.12,0.16-0.3,0.16-0.53c0-0.27-0.06-0.48-0.19-0.63c-0.13-0.15-0.34-0.23-0.64-0.23
			c-0.28,0-0.49,0.08-0.62,0.25c-0.14,0.17-0.21,0.39-0.21,0.66v0.2h-1.61V561.5z M296.08,563.25c-0.14,0.06-0.26,0.1-0.38,0.12
			c-0.36,0.08-0.62,0.21-0.78,0.39c-0.16,0.18-0.23,0.43-0.23,0.74c0,0.27,0.05,0.5,0.16,0.69c0.1,0.19,0.28,0.29,0.52,0.29
			c0.12,0,0.25-0.02,0.38-0.06s0.25-0.1,0.36-0.19c0.11-0.09,0.2-0.2,0.27-0.34s0.1-0.3,0.1-0.49v-1.38
			C296.35,563.12,296.22,563.19,296.08,563.25z"/>
		<path d="M301.57,559.53v0.82h0.03c0.19-0.35,0.44-0.6,0.74-0.76c0.3-0.16,0.65-0.24,1.04-0.24c0.57,0,1.01,0.16,1.32,0.47
			c0.31,0.31,0.46,0.82,0.46,1.52v5.19h-1.79v-4.82c0-0.36-0.06-0.62-0.18-0.76c-0.12-0.14-0.32-0.21-0.58-0.21
			c-0.63,0-0.95,0.39-0.95,1.16v4.64h-1.79v-6.99H301.57z"/>
		<path d="M306.73,561.5c0-0.41,0.07-0.75,0.2-1.02c0.13-0.27,0.31-0.49,0.53-0.66s0.48-0.29,0.78-0.36
			c0.3-0.07,0.62-0.11,0.96-0.11c0.54,0,0.97,0.05,1.3,0.16c0.33,0.1,0.58,0.25,0.77,0.44c0.18,0.19,0.3,0.42,0.37,0.68
			c0.07,0.26,0.1,0.55,0.1,0.87v3.68c0,0.33,0.01,0.58,0.04,0.77c0.03,0.18,0.09,0.38,0.18,0.58h-1.72
			c-0.06-0.11-0.11-0.23-0.14-0.36c-0.03-0.12-0.06-0.25-0.08-0.37h-0.03c-0.21,0.36-0.45,0.6-0.72,0.71
			c-0.27,0.11-0.63,0.16-1.06,0.16c-0.31,0-0.58-0.05-0.79-0.16s-0.39-0.26-0.52-0.45s-0.23-0.41-0.29-0.64s-0.09-0.47-0.09-0.71
			c0-0.33,0.03-0.61,0.1-0.85s0.18-0.44,0.32-0.61c0.14-0.17,0.33-0.31,0.55-0.42c0.22-0.11,0.49-0.21,0.8-0.3l1.01-0.27
			c0.27-0.07,0.45-0.17,0.56-0.29c0.1-0.12,0.16-0.3,0.16-0.53c0-0.27-0.06-0.48-0.19-0.63c-0.13-0.15-0.34-0.23-0.64-0.23
			c-0.28,0-0.49,0.08-0.62,0.25c-0.14,0.17-0.21,0.39-0.21,0.66v0.2h-1.61V561.5z M309.61,563.25c-0.14,0.06-0.26,0.1-0.38,0.12
			c-0.36,0.08-0.62,0.21-0.78,0.39c-0.16,0.18-0.23,0.43-0.23,0.74c0,0.27,0.05,0.5,0.16,0.69c0.1,0.19,0.28,0.29,0.52,0.29
			c0.12,0,0.25-0.02,0.38-0.06s0.25-0.1,0.36-0.19c0.11-0.09,0.2-0.2,0.27-0.34s0.1-0.3,0.1-0.49v-1.38
			C309.88,563.12,309.75,563.19,309.61,563.25z"/>
	</g>
	<g>
		<path d="M349.68,428.62l2.46,9.28h-1.95l-0.43-1.96h-2.47l-0.43,1.96h-1.95l2.46-9.28H349.68z M349.43,434.41l-0.9-4.17h-0.03
			l-0.9,4.17H349.43z"/>
		<path d="M354.84,430.91v0.82h0.03c0.19-0.35,0.44-0.6,0.74-0.76c0.3-0.16,0.65-0.24,1.04-0.24c0.57,0,1.01,0.16,1.32,0.47
			c0.31,0.31,0.46,0.82,0.46,1.52v5.19h-1.79v-4.82c0-0.36-0.06-0.62-0.18-0.76c-0.12-0.14-0.32-0.21-0.58-0.21
			c-0.63,0-0.95,0.39-0.95,1.16v4.64h-1.79v-6.99H354.84z"/>
		<path d="M363.58,437.17c-0.2,0.33-0.42,0.56-0.67,0.69c-0.25,0.13-0.55,0.19-0.92,0.19c-0.74,0-1.28-0.28-1.62-0.84
			s-0.52-1.5-0.52-2.79s0.17-2.24,0.52-2.81s0.89-0.86,1.62-0.86c0.34,0,0.63,0.07,0.86,0.21s0.45,0.35,0.64,0.62h0.03v-2.94h1.79
			v9.28h-1.72v-0.74H363.58z M361.81,436.13c0.12,0.39,0.37,0.58,0.76,0.58c0.4,0,0.66-0.19,0.77-0.58s0.18-0.96,0.18-1.72
			s-0.06-1.34-0.18-1.72s-0.38-0.58-0.77-0.58c-0.39,0-0.64,0.19-0.76,0.58s-0.18,0.96-0.18,1.72S361.7,435.75,361.81,436.13z"/>
		<path d="M366.89,432.89c0-0.41,0.07-0.75,0.2-1.02c0.13-0.27,0.31-0.49,0.53-0.66s0.48-0.29,0.78-0.36
			c0.3-0.07,0.62-0.11,0.96-0.11c0.54,0,0.97,0.05,1.3,0.16c0.33,0.1,0.58,0.25,0.77,0.44c0.18,0.19,0.3,0.42,0.37,0.68
			s0.1,0.55,0.1,0.86v3.68c0,0.33,0.01,0.58,0.04,0.77c0.03,0.18,0.09,0.38,0.18,0.58h-1.72c-0.06-0.11-0.11-0.23-0.14-0.36
			c-0.03-0.13-0.06-0.25-0.08-0.37h-0.03c-0.21,0.36-0.45,0.6-0.72,0.71c-0.27,0.11-0.63,0.16-1.06,0.16
			c-0.31,0-0.58-0.05-0.79-0.16s-0.39-0.26-0.52-0.45c-0.13-0.19-0.23-0.41-0.29-0.64s-0.09-0.47-0.09-0.71
			c0-0.33,0.03-0.61,0.1-0.85s0.18-0.44,0.32-0.61c0.14-0.17,0.33-0.31,0.55-0.42c0.22-0.11,0.49-0.21,0.8-0.3l1.01-0.27
			c0.27-0.07,0.45-0.16,0.56-0.29c0.1-0.12,0.16-0.3,0.16-0.53c0-0.27-0.06-0.48-0.19-0.63c-0.13-0.15-0.34-0.23-0.64-0.23
			c-0.28,0-0.49,0.08-0.62,0.25c-0.14,0.16-0.21,0.39-0.21,0.66v0.19h-1.61V432.89z M369.78,434.64c-0.14,0.06-0.26,0.1-0.38,0.12
			c-0.36,0.08-0.62,0.21-0.78,0.39c-0.16,0.18-0.23,0.43-0.23,0.74c0,0.27,0.05,0.5,0.16,0.69c0.1,0.19,0.28,0.29,0.52,0.29
			c0.12,0,0.25-0.02,0.38-0.06s0.25-0.1,0.36-0.19s0.2-0.2,0.27-0.34s0.1-0.3,0.1-0.49v-1.38
			C370.04,434.51,369.91,434.58,369.78,434.64z"/>
		<path d="M374.86,435.85c0,0.3,0.08,0.55,0.24,0.74s0.39,0.28,0.7,0.28c0.28,0,0.5-0.07,0.66-0.21c0.17-0.14,0.25-0.35,0.25-0.62
			c0-0.23-0.06-0.4-0.2-0.51c-0.13-0.12-0.28-0.21-0.45-0.28l-1.26-0.46c-0.49-0.17-0.87-0.42-1.12-0.73
			c-0.25-0.32-0.38-0.72-0.38-1.22c0-0.29,0.05-0.56,0.14-0.81c0.09-0.26,0.25-0.48,0.46-0.67c0.21-0.19,0.47-0.34,0.8-0.46
			c0.33-0.11,0.72-0.17,1.18-0.17c0.81,0,1.42,0.17,1.81,0.52c0.39,0.35,0.58,0.84,0.58,1.47v0.29h-1.61c0-0.36-0.06-0.63-0.18-0.8
			s-0.32-0.25-0.62-0.25c-0.23,0-0.42,0.06-0.59,0.19s-0.25,0.31-0.25,0.57c0,0.17,0.05,0.33,0.16,0.47s0.31,0.26,0.62,0.35
			l1.08,0.36c0.56,0.19,0.96,0.44,1.2,0.75s0.35,0.73,0.35,1.25c0,0.37-0.06,0.7-0.19,0.97c-0.13,0.27-0.31,0.5-0.54,0.68
			s-0.5,0.31-0.82,0.39c-0.32,0.08-0.67,0.12-1.05,0.12c-0.5,0-0.92-0.05-1.25-0.14c-0.33-0.1-0.6-0.24-0.79-0.43
			c-0.19-0.19-0.33-0.42-0.41-0.7c-0.08-0.27-0.12-0.58-0.12-0.92v-0.25h1.61V435.85z"/>
		<path d="M381.57,428.52v1.53h-1.79v-1.53H381.57z M381.57,430.91v6.99h-1.79v-6.99H381.57z"/>
		<path d="M385.01,428.62v2.94h0.03c0.19-0.28,0.41-0.48,0.64-0.62s0.53-0.21,0.86-0.21c0.74,0,1.28,0.29,1.62,0.86
			s0.52,1.51,0.52,2.81s-0.17,2.23-0.52,2.79s-0.89,0.84-1.62,0.84c-0.36,0-0.67-0.06-0.92-0.19c-0.25-0.13-0.47-0.36-0.67-0.69
			h-0.03v0.74h-1.72v-9.28H385.01z M385.19,436.13c0.12,0.39,0.38,0.58,0.77,0.58c0.39,0,0.64-0.19,0.76-0.58s0.18-0.96,0.18-1.72
			s-0.06-1.34-0.18-1.72s-0.37-0.58-0.76-0.58c-0.4,0-0.66,0.19-0.77,0.58s-0.18,0.96-0.18,1.72S385.07,435.75,385.19,436.13z"/>
		<path d="M391.64,435.24c0,0.21,0.02,0.41,0.05,0.6c0.03,0.19,0.08,0.37,0.15,0.52c0.07,0.15,0.16,0.27,0.27,0.36
			c0.11,0.09,0.25,0.14,0.42,0.14c0.3,0,0.52-0.11,0.66-0.33s0.23-0.55,0.29-0.99h1.61c-0.04,0.82-0.25,1.43-0.65,1.86
			s-1.03,0.64-1.88,0.64c-0.65,0-1.16-0.11-1.52-0.33c-0.36-0.22-0.63-0.5-0.81-0.86c-0.17-0.36-0.28-0.75-0.32-1.2
			s-0.06-0.88-0.06-1.33c0-0.47,0.03-0.92,0.1-1.35s0.2-0.82,0.39-1.16c0.2-0.34,0.47-0.61,0.84-0.81s0.85-0.3,1.46-0.3
			c0.52,0,0.95,0.08,1.28,0.25s0.6,0.41,0.79,0.71c0.19,0.31,0.32,0.68,0.39,1.12s0.1,0.93,0.1,1.46v0.4h-3.55V435.24z
			 M393.42,432.91c-0.03-0.2-0.07-0.38-0.14-0.52c-0.06-0.14-0.16-0.25-0.27-0.33c-0.12-0.07-0.27-0.11-0.45-0.11
			c-0.18,0-0.33,0.04-0.45,0.12c-0.12,0.08-0.21,0.19-0.28,0.33c-0.07,0.13-0.12,0.28-0.15,0.45c-0.03,0.17-0.05,0.33-0.05,0.49
			v0.27h1.83C393.47,433.35,393.45,433.11,393.42,432.91z"/>
	</g>
	<g>
		<path d="M437.18,356.1l1.33,6.55h0.03l1.34-6.55h2.77v9.28h-1.72v-7.41h-0.03l-1.65,7.41h-1.46l-1.65-7.41h-0.03v7.41h-1.72v-9.28
			H437.18z"/>
		<path d="M444.23,360.3c0.1-0.46,0.25-0.84,0.47-1.15s0.5-0.54,0.85-0.7c0.35-0.16,0.78-0.24,1.29-0.24
			c0.54-0.01,0.98,0.06,1.34,0.21c0.36,0.15,0.64,0.38,0.84,0.7c0.21,0.31,0.36,0.7,0.44,1.16c0.09,0.46,0.13,1,0.13,1.61
			c0,0.6-0.05,1.13-0.14,1.59c-0.1,0.46-0.25,0.84-0.47,1.15s-0.5,0.54-0.85,0.68c-0.35,0.15-0.78,0.22-1.29,0.22
			c-0.54,0.01-0.98-0.06-1.34-0.2c-0.36-0.14-0.64-0.37-0.85-0.68s-0.36-0.69-0.44-1.16c-0.09-0.46-0.13-1-0.13-1.61
			C444.08,361.29,444.13,360.76,444.23,360.3z M445.9,362.88c0.02,0.3,0.06,0.56,0.12,0.78c0.06,0.22,0.16,0.39,0.29,0.51
			c0.13,0.12,0.3,0.18,0.52,0.18c0.36,0,0.62-0.19,0.75-0.57c0.14-0.38,0.21-1.01,0.21-1.88s-0.07-1.5-0.21-1.88
			c-0.14-0.38-0.39-0.57-0.75-0.57c-0.22,0-0.39,0.06-0.52,0.18c-0.13,0.12-0.23,0.29-0.29,0.51c-0.07,0.22-0.11,0.48-0.12,0.78
			c-0.02,0.3-0.03,0.63-0.03,0.99S445.89,362.57,445.9,362.88z"/>
		<path d="M452.74,356.1v3h0.03c0.35-0.6,0.91-0.9,1.7-0.9c0.57,0,1.01,0.16,1.32,0.47c0.31,0.31,0.46,0.82,0.46,1.52v5.19h-1.79
			v-4.82c0-0.36-0.06-0.62-0.18-0.76c-0.12-0.14-0.32-0.21-0.58-0.21c-0.63,0-0.95,0.39-0.95,1.16v4.64h-1.79v-9.28H452.74z"/>
		<path d="M457.83,360.37c0-0.41,0.07-0.75,0.2-1.02c0.13-0.27,0.31-0.49,0.53-0.66s0.48-0.29,0.78-0.36
			c0.3-0.07,0.62-0.11,0.96-0.11c0.54,0,0.97,0.05,1.3,0.16c0.33,0.1,0.58,0.25,0.77,0.44c0.18,0.19,0.3,0.42,0.37,0.68
			s0.1,0.55,0.1,0.86v3.68c0,0.33,0.01,0.58,0.04,0.77c0.03,0.18,0.09,0.38,0.18,0.58h-1.72c-0.06-0.11-0.11-0.23-0.14-0.36
			c-0.03-0.13-0.06-0.25-0.08-0.37h-0.03c-0.21,0.36-0.45,0.6-0.72,0.71c-0.27,0.11-0.63,0.16-1.06,0.16
			c-0.31,0-0.58-0.05-0.79-0.16s-0.39-0.26-0.52-0.45c-0.13-0.19-0.23-0.41-0.29-0.64s-0.09-0.47-0.09-0.71
			c0-0.33,0.03-0.61,0.1-0.85s0.18-0.44,0.32-0.61c0.14-0.17,0.33-0.31,0.55-0.42c0.22-0.11,0.49-0.21,0.8-0.3l1.01-0.27
			c0.27-0.07,0.45-0.16,0.56-0.29c0.1-0.12,0.16-0.3,0.16-0.53c0-0.27-0.06-0.48-0.19-0.63c-0.13-0.15-0.34-0.23-0.64-0.23
			c-0.28,0-0.49,0.08-0.62,0.25c-0.14,0.16-0.21,0.39-0.21,0.66v0.19h-1.61V360.37z M460.71,362.12c-0.14,0.06-0.26,0.1-0.38,0.12
			c-0.36,0.08-0.62,0.21-0.78,0.39c-0.16,0.18-0.23,0.43-0.23,0.74c0,0.27,0.05,0.5,0.16,0.69c0.1,0.19,0.28,0.29,0.52,0.29
			c0.12,0,0.25-0.02,0.38-0.06s0.25-0.1,0.36-0.19s0.2-0.2,0.27-0.34s0.1-0.3,0.1-0.49v-1.38
			C460.98,361.98,460.85,362.06,460.71,362.12z"/>
		<path d="M466.2,358.39v0.71h0.03c0.23-0.32,0.48-0.55,0.76-0.69c0.28-0.14,0.62-0.21,1.01-0.21c0.42,0,0.76,0.09,1.05,0.29
			c0.28,0.19,0.47,0.47,0.57,0.83h0.03c0.14-0.37,0.36-0.65,0.67-0.84s0.67-0.28,1.1-0.28c0.6,0,1.04,0.18,1.32,0.54
			c0.28,0.36,0.42,0.88,0.42,1.55v5.08h-1.79v-4.89c0-0.29-0.05-0.52-0.16-0.68s-0.29-0.23-0.54-0.23c-0.29,0-0.51,0.09-0.68,0.29
			c-0.17,0.19-0.25,0.49-0.25,0.91v4.6h-1.79v-4.89c0-0.29-0.05-0.52-0.16-0.68s-0.29-0.23-0.54-0.23c-0.29,0-0.51,0.09-0.68,0.29
			c-0.17,0.19-0.25,0.49-0.25,0.91v4.6h-1.79v-6.99H466.2z"/>
		<path d="M476.52,356.1v2.94h0.03c0.19-0.28,0.41-0.48,0.64-0.62s0.53-0.21,0.86-0.21c0.74,0,1.28,0.29,1.62,0.86
			s0.52,1.51,0.52,2.81s-0.17,2.23-0.52,2.79s-0.89,0.84-1.62,0.84c-0.36,0-0.67-0.06-0.92-0.19c-0.25-0.13-0.47-0.36-0.67-0.69
			h-0.03v0.74h-1.72v-9.28H476.52z M476.69,363.61c0.12,0.39,0.38,0.58,0.77,0.58c0.39,0,0.64-0.19,0.76-0.58s0.18-0.96,0.18-1.72
			s-0.06-1.34-0.18-1.72s-0.37-0.58-0.76-0.58c-0.4,0-0.66,0.19-0.77,0.58s-0.18,0.96-0.18,1.72S476.58,363.22,476.69,363.61z"/>
		<path d="M481.52,360.3c0.1-0.46,0.25-0.84,0.47-1.15s0.5-0.54,0.85-0.7c0.35-0.16,0.78-0.24,1.29-0.24
			c0.54-0.01,0.98,0.06,1.34,0.21c0.36,0.15,0.64,0.38,0.84,0.7c0.21,0.31,0.36,0.7,0.44,1.16c0.09,0.46,0.13,1,0.13,1.61
			c0,0.6-0.05,1.13-0.14,1.59c-0.1,0.46-0.25,0.84-0.47,1.15s-0.5,0.54-0.85,0.68c-0.35,0.15-0.78,0.22-1.29,0.22
			c-0.54,0.01-0.98-0.06-1.34-0.2c-0.36-0.14-0.64-0.37-0.85-0.68s-0.36-0.69-0.44-1.16c-0.09-0.46-0.13-1-0.13-1.61
			C481.38,361.29,481.43,360.76,481.52,360.3z M483.2,362.88c0.02,0.3,0.06,0.56,0.12,0.78c0.06,0.22,0.16,0.39,0.29,0.51
			c0.13,0.12,0.3,0.18,0.52,0.18c0.36,0,0.62-0.19,0.75-0.57c0.14-0.38,0.21-1.01,0.21-1.88s-0.07-1.5-0.21-1.88
			c-0.14-0.38-0.39-0.57-0.75-0.57c-0.22,0-0.39,0.06-0.52,0.18c-0.13,0.12-0.23,0.29-0.29,0.51c-0.07,0.22-0.11,0.48-0.12,0.78
			c-0.02,0.3-0.03,0.63-0.03,0.99S483.18,362.57,483.2,362.88z"/>
	</g>
	<g>
		<path d="M432.78,391.01h-2.03v7.75h-1.87v-7.75h-2.03v-1.53h5.93V391.01z"/>
		<path d="M432.95,393.74c0-0.41,0.07-0.75,0.2-1.02c0.13-0.27,0.31-0.49,0.53-0.66s0.48-0.29,0.78-0.36
			c0.3-0.07,0.62-0.11,0.96-0.11c0.54,0,0.97,0.05,1.3,0.16c0.33,0.1,0.58,0.25,0.77,0.44c0.18,0.19,0.3,0.42,0.37,0.68
			s0.1,0.55,0.1,0.86v3.68c0,0.33,0.01,0.58,0.04,0.77c0.03,0.18,0.09,0.38,0.18,0.58h-1.72c-0.06-0.11-0.11-0.23-0.14-0.36
			c-0.03-0.13-0.06-0.25-0.08-0.37h-0.03c-0.21,0.36-0.45,0.6-0.72,0.71c-0.27,0.11-0.63,0.16-1.06,0.16
			c-0.31,0-0.58-0.05-0.79-0.16s-0.39-0.26-0.52-0.45c-0.13-0.19-0.23-0.41-0.29-0.64s-0.09-0.47-0.09-0.71
			c0-0.33,0.03-0.61,0.1-0.85s0.18-0.44,0.32-0.61c0.14-0.17,0.33-0.31,0.55-0.42c0.22-0.11,0.49-0.21,0.8-0.3l1.01-0.27
			c0.27-0.07,0.45-0.16,0.56-0.29c0.1-0.12,0.16-0.3,0.16-0.53c0-0.27-0.06-0.48-0.19-0.63c-0.13-0.15-0.34-0.23-0.64-0.23
			c-0.28,0-0.49,0.08-0.62,0.25c-0.14,0.16-0.21,0.39-0.21,0.66v0.19h-1.61V393.74z M435.84,395.49c-0.14,0.06-0.26,0.1-0.38,0.12
			c-0.36,0.08-0.62,0.21-0.78,0.39c-0.16,0.18-0.23,0.43-0.23,0.74c0,0.27,0.05,0.5,0.16,0.69c0.1,0.19,0.28,0.29,0.52,0.29
			c0.12,0,0.25-0.02,0.38-0.06s0.25-0.1,0.36-0.19s0.2-0.2,0.27-0.34s0.1-0.3,0.1-0.49v-1.38
			C436.11,395.35,435.98,395.43,435.84,395.49z"/>
		<path d="M441.33,391.76v0.71h0.03c0.23-0.32,0.48-0.55,0.76-0.69c0.28-0.14,0.62-0.21,1.01-0.21c0.42,0,0.76,0.09,1.05,0.29
			c0.28,0.19,0.47,0.47,0.57,0.83h0.03c0.14-0.37,0.36-0.65,0.67-0.84s0.67-0.28,1.1-0.28c0.6,0,1.04,0.18,1.32,0.54
			c0.28,0.36,0.42,0.88,0.42,1.55v5.08h-1.79v-4.89c0-0.29-0.05-0.52-0.16-0.68s-0.29-0.23-0.54-0.23c-0.29,0-0.51,0.09-0.68,0.29
			c-0.17,0.19-0.25,0.49-0.25,0.91v4.6h-1.79v-4.89c0-0.29-0.05-0.52-0.16-0.68s-0.29-0.23-0.54-0.23c-0.29,0-0.51,0.09-0.68,0.29
			c-0.17,0.19-0.25,0.49-0.25,0.91v4.6h-1.79v-6.99H441.33z"/>
		<path d="M449.84,393.74c0-0.41,0.07-0.75,0.2-1.02c0.13-0.27,0.31-0.49,0.53-0.66s0.48-0.29,0.78-0.36
			c0.3-0.07,0.62-0.11,0.96-0.11c0.54,0,0.97,0.05,1.3,0.16c0.33,0.1,0.58,0.25,0.77,0.44c0.18,0.19,0.3,0.42,0.37,0.68
			s0.1,0.55,0.1,0.86v3.68c0,0.33,0.01,0.58,0.04,0.77c0.03,0.18,0.09,0.38,0.18,0.58h-1.72c-0.06-0.11-0.11-0.23-0.14-0.36
			c-0.03-0.13-0.06-0.25-0.08-0.37h-0.03c-0.21,0.36-0.45,0.6-0.72,0.71c-0.27,0.11-0.63,0.16-1.06,0.16
			c-0.31,0-0.58-0.05-0.79-0.16s-0.39-0.26-0.52-0.45c-0.13-0.19-0.23-0.41-0.29-0.64s-0.09-0.47-0.09-0.71
			c0-0.33,0.03-0.61,0.1-0.85s0.18-0.44,0.32-0.61c0.14-0.17,0.33-0.31,0.55-0.42c0.22-0.11,0.49-0.21,0.8-0.3l1.01-0.27
			c0.27-0.07,0.45-0.16,0.56-0.29c0.1-0.12,0.16-0.3,0.16-0.53c0-0.27-0.06-0.48-0.19-0.63c-0.13-0.15-0.34-0.23-0.64-0.23
			c-0.28,0-0.49,0.08-0.62,0.25c-0.14,0.16-0.21,0.39-0.21,0.66v0.19h-1.61V393.74z M452.72,395.49c-0.14,0.06-0.26,0.1-0.38,0.12
			c-0.36,0.08-0.62,0.21-0.78,0.39c-0.16,0.18-0.23,0.43-0.23,0.74c0,0.27,0.05,0.5,0.16,0.69c0.1,0.19,0.28,0.29,0.52,0.29
			c0.12,0,0.25-0.02,0.38-0.06s0.25-0.1,0.36-0.19s0.2-0.2,0.27-0.34s0.1-0.3,0.1-0.49v-1.38
			C452.99,395.35,452.86,395.43,452.72,395.49z"/>
		<path d="M458.68,389.76v2h1.04v1.22h-1.04v3.78c0,0.28,0.04,0.47,0.12,0.59s0.25,0.17,0.51,0.17c0.07,0,0.14,0,0.21-0.01
			c0.07,0,0.13-0.01,0.2-0.02v1.25c-0.2,0-0.39,0.01-0.58,0.02c-0.19,0.01-0.38,0.02-0.59,0.02c-0.35,0-0.63-0.02-0.85-0.07
			c-0.22-0.05-0.39-0.14-0.51-0.29c-0.12-0.14-0.2-0.33-0.24-0.57c-0.04-0.23-0.06-0.53-0.06-0.88v-4h-0.91v-1.22h0.91v-2H458.68z"
			/>
		<path d="M460.72,393.74c0-0.41,0.07-0.75,0.2-1.02c0.13-0.27,0.31-0.49,0.53-0.66s0.48-0.29,0.78-0.36
			c0.3-0.07,0.62-0.11,0.96-0.11c0.54,0,0.97,0.05,1.3,0.16c0.33,0.1,0.58,0.25,0.77,0.44c0.18,0.19,0.3,0.42,0.37,0.68
			s0.1,0.55,0.1,0.86v3.68c0,0.33,0.01,0.58,0.04,0.77c0.03,0.18,0.09,0.38,0.18,0.58h-1.72c-0.06-0.11-0.11-0.23-0.14-0.36
			c-0.03-0.13-0.06-0.25-0.08-0.37h-0.03c-0.21,0.36-0.45,0.6-0.72,0.71c-0.27,0.11-0.63,0.16-1.06,0.16
			c-0.31,0-0.58-0.05-0.79-0.16s-0.39-0.26-0.52-0.45c-0.13-0.19-0.23-0.41-0.29-0.64s-0.09-0.47-0.09-0.71
			c0-0.33,0.03-0.61,0.1-0.85s0.18-0.44,0.32-0.61c0.14-0.17,0.33-0.31,0.55-0.42c0.22-0.11,0.49-0.21,0.8-0.3l1.01-0.27
			c0.27-0.07,0.45-0.16,0.56-0.29c0.1-0.12,0.16-0.3,0.16-0.53c0-0.27-0.06-0.48-0.19-0.63c-0.13-0.15-0.34-0.23-0.64-0.23
			c-0.28,0-0.49,0.08-0.62,0.25c-0.14,0.16-0.21,0.39-0.21,0.66v0.19h-1.61V393.74z M463.61,395.49c-0.14,0.06-0.26,0.1-0.38,0.12
			c-0.36,0.08-0.62,0.21-0.78,0.39c-0.16,0.18-0.23,0.43-0.23,0.74c0,0.27,0.05,0.5,0.16,0.69c0.1,0.19,0.28,0.29,0.52,0.29
			c0.12,0,0.25-0.02,0.38-0.06s0.25-0.1,0.36-0.19s0.2-0.2,0.27-0.34s0.1-0.3,0.1-0.49v-1.38
			C463.87,395.35,463.74,395.43,463.61,395.49z"/>
		<path d="M472.48,391.76l-1.75,6.99h-2.08l-1.81-6.99h1.87l1,5h0.03l0.95-5H472.48z"/>
		<path d="M475.07,396.09c0,0.21,0.02,0.41,0.05,0.6c0.03,0.19,0.08,0.37,0.15,0.52c0.07,0.15,0.16,0.27,0.27,0.36
			c0.11,0.09,0.25,0.14,0.42,0.14c0.3,0,0.52-0.11,0.66-0.33s0.23-0.55,0.29-0.99h1.61c-0.04,0.82-0.25,1.43-0.65,1.86
			s-1.03,0.64-1.88,0.64c-0.65,0-1.16-0.11-1.52-0.33c-0.36-0.22-0.63-0.5-0.81-0.86c-0.17-0.36-0.28-0.75-0.32-1.2
			s-0.06-0.88-0.06-1.33c0-0.47,0.03-0.92,0.1-1.35s0.2-0.82,0.39-1.16c0.2-0.34,0.47-0.61,0.84-0.81s0.85-0.3,1.46-0.3
			c0.52,0,0.95,0.08,1.28,0.25s0.6,0.41,0.79,0.71c0.19,0.31,0.32,0.68,0.39,1.12s0.1,0.93,0.1,1.46v0.4h-3.55V396.09z
			 M476.85,393.76c-0.03-0.2-0.07-0.38-0.14-0.52c-0.06-0.14-0.16-0.25-0.27-0.33c-0.12-0.07-0.27-0.11-0.45-0.11
			c-0.18,0-0.33,0.04-0.45,0.12c-0.12,0.08-0.21,0.19-0.28,0.33c-0.07,0.13-0.12,0.28-0.15,0.45c-0.03,0.17-0.05,0.33-0.05,0.49
			v0.27h1.83C476.9,394.2,476.88,393.96,476.85,393.76z"/>
	</g>
	<g>
		<path d="M242.48,420.52l2.46,9.28h-1.95l-0.43-1.96h-2.47l-0.43,1.96h-1.95l2.46-9.28H242.48z M242.23,426.31l-0.9-4.17h-0.03
			l-0.9,4.17H242.23z"/>
		<path d="M247.64,422.81v0.82h0.03c0.19-0.35,0.44-0.6,0.74-0.76c0.3-0.16,0.65-0.24,1.04-0.24c0.57,0,1.01,0.16,1.32,0.47
			c0.31,0.31,0.46,0.82,0.46,1.52v5.19h-1.79v-4.82c0-0.36-0.06-0.62-0.18-0.76c-0.12-0.14-0.32-0.21-0.58-0.21
			c-0.63,0-0.95,0.39-0.95,1.16v4.64h-1.79v-6.99H247.64z"/>
		<path d="M255,420.81v2h1.04v1.22H255v3.78c0,0.28,0.04,0.47,0.12,0.59s0.25,0.18,0.51,0.18c0.07,0,0.14,0,0.21-0.01
			c0.07,0,0.13-0.01,0.2-0.02v1.25c-0.2,0-0.39,0.01-0.58,0.02c-0.19,0.01-0.38,0.02-0.59,0.02c-0.35,0-0.63-0.02-0.85-0.07
			c-0.22-0.05-0.39-0.14-0.51-0.29c-0.12-0.14-0.2-0.33-0.24-0.57c-0.04-0.23-0.06-0.53-0.06-0.88v-4h-0.91v-1.22h0.91v-2H255z"/>
		<path d="M257.04,424.79c0-0.41,0.07-0.75,0.2-1.02c0.13-0.27,0.31-0.49,0.53-0.66s0.48-0.29,0.78-0.36
			c0.3-0.07,0.62-0.11,0.96-0.11c0.54,0,0.97,0.05,1.3,0.16c0.33,0.1,0.58,0.25,0.77,0.44c0.18,0.19,0.3,0.42,0.37,0.68
			c0.07,0.26,0.1,0.55,0.1,0.87v3.68c0,0.33,0.01,0.58,0.04,0.77c0.03,0.18,0.09,0.38,0.18,0.58h-1.72
			c-0.06-0.11-0.11-0.23-0.14-0.36c-0.03-0.12-0.06-0.25-0.08-0.37h-0.03c-0.21,0.36-0.45,0.6-0.72,0.71
			c-0.27,0.11-0.63,0.16-1.06,0.16c-0.31,0-0.58-0.05-0.79-0.16s-0.39-0.26-0.52-0.45s-0.23-0.41-0.29-0.64s-0.09-0.47-0.09-0.71
			c0-0.33,0.03-0.61,0.1-0.85s0.18-0.44,0.32-0.61c0.14-0.17,0.33-0.31,0.55-0.42c0.22-0.11,0.49-0.21,0.8-0.3l1.01-0.27
			c0.27-0.07,0.45-0.17,0.56-0.29c0.1-0.12,0.16-0.3,0.16-0.53c0-0.27-0.06-0.48-0.19-0.63c-0.13-0.15-0.34-0.23-0.64-0.23
			c-0.28,0-0.49,0.08-0.62,0.25c-0.14,0.17-0.21,0.39-0.21,0.66v0.2h-1.61V424.79z M259.92,426.54c-0.14,0.06-0.26,0.1-0.38,0.12
			c-0.36,0.08-0.62,0.21-0.78,0.39c-0.16,0.18-0.23,0.43-0.23,0.74c0,0.27,0.05,0.5,0.16,0.69c0.1,0.19,0.28,0.29,0.52,0.29
			c0.12,0,0.25-0.02,0.38-0.06s0.25-0.1,0.36-0.19c0.11-0.09,0.2-0.2,0.27-0.34s0.1-0.3,0.1-0.49v-1.38
			C260.19,426.4,260.06,426.48,259.92,426.54z"/>
		<path d="M265.41,422.81v0.82h0.03c0.19-0.35,0.44-0.6,0.74-0.76c0.3-0.16,0.65-0.24,1.04-0.24c0.57,0,1.01,0.16,1.32,0.47
			c0.31,0.31,0.46,0.82,0.46,1.52v5.19h-1.79v-4.82c0-0.36-0.06-0.62-0.18-0.76c-0.12-0.14-0.32-0.21-0.58-0.21
			c-0.63,0-0.95,0.39-0.95,1.16v4.64h-1.79v-6.99H265.41z"/>
		<path d="M270.57,424.79c0-0.41,0.07-0.75,0.2-1.02c0.13-0.27,0.31-0.49,0.53-0.66s0.48-0.29,0.78-0.36
			c0.3-0.07,0.62-0.11,0.96-0.11c0.54,0,0.97,0.05,1.3,0.16c0.33,0.1,0.58,0.25,0.77,0.44c0.18,0.19,0.3,0.42,0.37,0.68
			c0.07,0.26,0.1,0.55,0.1,0.87v3.68c0,0.33,0.01,0.58,0.04,0.77c0.03,0.18,0.09,0.38,0.18,0.58h-1.72
			c-0.06-0.11-0.11-0.23-0.14-0.36c-0.03-0.12-0.06-0.25-0.08-0.37h-0.03c-0.21,0.36-0.45,0.6-0.72,0.71
			c-0.27,0.11-0.63,0.16-1.06,0.16c-0.31,0-0.58-0.05-0.79-0.16s-0.39-0.26-0.52-0.45s-0.23-0.41-0.29-0.64s-0.09-0.47-0.09-0.71
			c0-0.33,0.03-0.61,0.1-0.85s0.18-0.44,0.32-0.61c0.14-0.17,0.33-0.31,0.55-0.42c0.22-0.11,0.49-0.21,0.8-0.3l1.01-0.27
			c0.27-0.07,0.45-0.17,0.56-0.29c0.1-0.12,0.16-0.3,0.16-0.53c0-0.27-0.06-0.48-0.19-0.63c-0.13-0.15-0.34-0.23-0.64-0.23
			c-0.28,0-0.49,0.08-0.62,0.25c-0.14,0.17-0.21,0.39-0.21,0.66v0.2h-1.61V424.79z M273.45,426.54c-0.14,0.06-0.26,0.1-0.38,0.12
			c-0.36,0.08-0.62,0.21-0.78,0.39c-0.16,0.18-0.23,0.43-0.23,0.74c0,0.27,0.05,0.5,0.16,0.69c0.1,0.19,0.28,0.29,0.52,0.29
			c0.12,0,0.25-0.02,0.38-0.06s0.25-0.1,0.36-0.19c0.11-0.09,0.2-0.2,0.27-0.34s0.1-0.3,0.1-0.49v-1.38
			C273.72,426.4,273.59,426.48,273.45,426.54z"/>
		<path d="M278.94,422.81v0.82h0.03c0.19-0.35,0.44-0.6,0.74-0.76c0.3-0.16,0.65-0.24,1.04-0.24c0.57,0,1.01,0.16,1.32,0.47
			c0.31,0.31,0.46,0.82,0.46,1.52v5.19h-1.79v-4.82c0-0.36-0.06-0.62-0.18-0.76c-0.12-0.14-0.32-0.21-0.58-0.21
			c-0.63,0-0.95,0.39-0.95,1.16v4.64h-1.79v-6.99H278.94z"/>
		<path d="M284.1,424.79c0-0.41,0.07-0.75,0.2-1.02c0.13-0.27,0.31-0.49,0.53-0.66s0.48-0.29,0.78-0.36
			c0.3-0.07,0.62-0.11,0.96-0.11c0.54,0,0.97,0.05,1.3,0.16c0.33,0.1,0.58,0.25,0.77,0.44c0.18,0.19,0.3,0.42,0.37,0.68
			c0.07,0.26,0.1,0.55,0.1,0.87v3.68c0,0.33,0.01,0.58,0.04,0.77c0.03,0.18,0.09,0.38,0.18,0.58h-1.72
			c-0.06-0.11-0.11-0.23-0.14-0.36c-0.03-0.12-0.06-0.25-0.08-0.37h-0.03c-0.21,0.36-0.45,0.6-0.72,0.71
			c-0.27,0.11-0.63,0.16-1.06,0.16c-0.31,0-0.58-0.05-0.79-0.16s-0.39-0.26-0.52-0.45s-0.23-0.41-0.29-0.64s-0.09-0.47-0.09-0.71
			c0-0.33,0.03-0.61,0.1-0.85s0.18-0.44,0.32-0.61c0.14-0.17,0.33-0.31,0.55-0.42c0.22-0.11,0.49-0.21,0.8-0.3l1.01-0.27
			c0.27-0.07,0.45-0.17,0.56-0.29c0.1-0.12,0.16-0.3,0.16-0.53c0-0.27-0.06-0.48-0.19-0.63c-0.13-0.15-0.34-0.23-0.64-0.23
			c-0.28,0-0.49,0.08-0.62,0.25c-0.14,0.17-0.21,0.39-0.21,0.66v0.2h-1.61V424.79z M286.99,426.54c-0.14,0.06-0.26,0.1-0.38,0.12
			c-0.36,0.08-0.62,0.21-0.78,0.39c-0.16,0.18-0.23,0.43-0.23,0.74c0,0.27,0.05,0.5,0.16,0.69c0.1,0.19,0.28,0.29,0.52,0.29
			c0.12,0,0.25-0.02,0.38-0.06s0.25-0.1,0.36-0.19c0.11-0.09,0.2-0.2,0.27-0.34s0.1-0.3,0.1-0.49v-1.38
			C287.26,426.4,287.13,426.48,286.99,426.54z"/>
		<path d="M292.47,422.81v0.94h0.03c0.18-0.34,0.4-0.61,0.66-0.81c0.26-0.2,0.58-0.31,0.95-0.31c0.05,0,0.11,0,0.16,0.01
			c0.06,0,0.11,0.01,0.16,0.02v1.72c-0.1-0.01-0.19-0.02-0.28-0.02c-0.09,0-0.18-0.01-0.28-0.01c-0.16,0-0.31,0.02-0.47,0.07
			c-0.16,0.04-0.3,0.11-0.43,0.21c-0.13,0.1-0.23,0.23-0.31,0.39s-0.12,0.36-0.12,0.59v4.2h-1.79v-6.99H292.47z"/>
		<path d="M297.34,420.42v1.53h-1.79v-1.53H297.34z M297.34,422.81v6.99h-1.79v-6.99H297.34z"/>
		<path d="M304.1,422.81l-1.75,6.99h-2.08l-1.81-6.99h1.87l1,5.01h0.03l0.95-5.01H304.1z"/>
		<path d="M305.06,424.72c0.1-0.46,0.25-0.84,0.47-1.15s0.5-0.54,0.85-0.7c0.35-0.16,0.78-0.24,1.29-0.24
			c0.54-0.01,0.98,0.06,1.34,0.21s0.64,0.38,0.84,0.7c0.21,0.31,0.36,0.7,0.44,1.16c0.09,0.46,0.13,1,0.13,1.61
			c0,0.6-0.05,1.13-0.14,1.59c-0.1,0.46-0.25,0.84-0.47,1.15c-0.22,0.31-0.5,0.54-0.85,0.68c-0.35,0.15-0.78,0.22-1.29,0.22
			c-0.54,0.01-0.98-0.06-1.34-0.2c-0.36-0.14-0.64-0.37-0.85-0.68s-0.36-0.69-0.44-1.16c-0.09-0.46-0.13-1-0.13-1.61
			C304.92,425.71,304.96,425.18,305.06,424.72z M306.73,427.3c0.02,0.3,0.06,0.56,0.12,0.78c0.06,0.22,0.16,0.39,0.29,0.51
			c0.13,0.12,0.3,0.18,0.52,0.18c0.36,0,0.62-0.19,0.75-0.57c0.14-0.38,0.21-1.01,0.21-1.89c0-0.88-0.07-1.5-0.21-1.88
			c-0.14-0.38-0.39-0.57-0.75-0.57c-0.22,0-0.39,0.06-0.52,0.18c-0.13,0.12-0.23,0.29-0.29,0.51c-0.07,0.22-0.11,0.48-0.12,0.78
			c-0.02,0.3-0.03,0.63-0.03,0.99C306.71,426.66,306.72,426.99,306.73,427.3z"/>
	</g>
	<g>
		<path d="M153.13,405.02h-2.03v7.75h-1.87v-7.75h-2.03v-1.53h5.93V405.02z"/>
		<path d="M155.59,410.72c0,0.3,0.08,0.55,0.24,0.74s0.39,0.28,0.7,0.28c0.28,0,0.5-0.07,0.66-0.21c0.17-0.14,0.25-0.35,0.25-0.62
			c0-0.23-0.06-0.4-0.2-0.51c-0.13-0.12-0.28-0.21-0.45-0.28l-1.26-0.46c-0.49-0.17-0.87-0.42-1.12-0.73
			c-0.25-0.32-0.38-0.72-0.38-1.22c0-0.29,0.05-0.56,0.14-0.81c0.09-0.26,0.25-0.48,0.46-0.67c0.21-0.19,0.47-0.34,0.8-0.46
			c0.33-0.11,0.72-0.17,1.18-0.17c0.81,0,1.42,0.17,1.81,0.52c0.39,0.35,0.58,0.84,0.58,1.47v0.29h-1.61c0-0.36-0.06-0.63-0.18-0.8
			s-0.32-0.25-0.62-0.25c-0.23,0-0.42,0.06-0.59,0.19s-0.25,0.31-0.25,0.57c0,0.17,0.05,0.33,0.16,0.47s0.31,0.26,0.62,0.35
			l1.08,0.36c0.56,0.19,0.96,0.44,1.2,0.75s0.35,0.73,0.35,1.25c0,0.37-0.06,0.7-0.19,0.97c-0.13,0.27-0.31,0.5-0.54,0.68
			s-0.5,0.31-0.82,0.39c-0.32,0.08-0.67,0.12-1.05,0.12c-0.5,0-0.92-0.05-1.25-0.14c-0.33-0.1-0.6-0.24-0.79-0.43
			c-0.19-0.19-0.33-0.42-0.41-0.7c-0.08-0.27-0.12-0.58-0.12-0.92v-0.25h1.61V410.72z"/>
		<path d="M162.29,403.38v1.53h-1.79v-1.53H162.29z M162.29,405.78v6.99h-1.79v-6.99H162.29z"/>
		<path d="M165.66,405.78v0.82h0.03c0.19-0.35,0.44-0.6,0.74-0.76c0.3-0.16,0.65-0.24,1.04-0.24c0.57,0,1.01,0.16,1.32,0.47
			c0.31,0.31,0.46,0.82,0.46,1.52v5.19h-1.79v-4.82c0-0.36-0.06-0.62-0.18-0.76c-0.12-0.14-0.32-0.21-0.58-0.21
			c-0.63,0-0.95,0.39-0.95,1.16v4.64h-1.79v-6.99H165.66z"/>
		<path d="M176.07,412.42c0,0.9-0.22,1.58-0.67,2.03c-0.45,0.45-1.19,0.68-2.24,0.68c-0.76,0-1.35-0.16-1.76-0.49
			c-0.41-0.33-0.62-0.79-0.62-1.38h1.72c0,0.23,0.09,0.4,0.27,0.53c0.09,0.06,0.18,0.11,0.28,0.14c0.1,0.03,0.21,0.05,0.32,0.05
			c0.36,0,0.62-0.12,0.77-0.35c0.15-0.23,0.22-0.52,0.22-0.87v-0.92h-0.03c-0.18,0.26-0.41,0.47-0.67,0.62
			c-0.26,0.16-0.54,0.23-0.83,0.23c-0.71,0-1.25-0.27-1.61-0.81c-0.36-0.54-0.54-1.45-0.54-2.72c0-0.41,0.02-0.82,0.07-1.25
			s0.15-0.81,0.3-1.15s0.37-0.62,0.66-0.84c0.29-0.22,0.68-0.32,1.16-0.32c0.25,0,0.51,0.07,0.78,0.21s0.49,0.39,0.66,0.75h0.03
			v-0.78h1.72V412.42z M172.52,410.18c0.02,0.22,0.07,0.41,0.13,0.58c0.07,0.17,0.16,0.3,0.27,0.4s0.27,0.15,0.46,0.15
			c0.19,0,0.35-0.05,0.47-0.15c0.13-0.1,0.23-0.24,0.3-0.41c0.07-0.17,0.12-0.38,0.16-0.63s0.05-0.52,0.05-0.81
			c0-0.85-0.07-1.45-0.2-1.81c-0.13-0.35-0.38-0.53-0.74-0.53c-0.2,0-0.36,0.04-0.48,0.13s-0.22,0.23-0.29,0.42
			c-0.07,0.2-0.12,0.46-0.14,0.78s-0.03,0.72-0.03,1.19C172.49,409.74,172.5,409.97,172.52,410.18z"/>
		<path d="M178.32,413.72c0.33,0,0.57-0.09,0.71-0.26c0.14-0.17,0.23-0.4,0.25-0.69l-1.96-6.99h1.87l1.04,4.84h0.03l0.91-4.84h1.79
			l-1.69,6.53c-0.16,0.58-0.3,1.05-0.45,1.41c-0.14,0.36-0.31,0.64-0.51,0.83s-0.43,0.32-0.7,0.38c-0.27,0.06-0.62,0.09-1.03,0.09
			h-0.73v-1.34C178.01,413.71,178.17,413.72,178.32,413.72z"/>
	</g>
	<g>
		<path d="M186.3,443.79c0.38,0,0.73,0.04,1.06,0.12s0.6,0.21,0.84,0.39c0.23,0.18,0.42,0.43,0.55,0.73c0.13,0.3,0.2,0.68,0.2,1.12
			c0,0.5-0.12,0.93-0.35,1.29c-0.23,0.36-0.58,0.6-1.05,0.74v0.03c0.52,0.07,0.93,0.29,1.24,0.66s0.46,0.87,0.46,1.5
			c0,0.36-0.05,0.71-0.14,1.04c-0.1,0.33-0.26,0.62-0.49,0.86s-0.53,0.44-0.9,0.59c-0.37,0.15-0.83,0.22-1.37,0.22h-3.16v-9.28
			H186.3z M185.57,447.59c0.52,0,0.9-0.09,1.14-0.28c0.24-0.19,0.36-0.5,0.36-0.94c0-0.44-0.11-0.75-0.33-0.94s-0.56-0.27-1.03-0.27
			h-0.68v2.43H185.57z M185.77,451.69c0.45,0,0.81-0.1,1.09-0.3c0.28-0.2,0.42-0.57,0.42-1.11c0-0.27-0.04-0.49-0.11-0.67
			s-0.17-0.32-0.3-0.43c-0.13-0.11-0.28-0.18-0.45-0.23c-0.17-0.04-0.36-0.07-0.57-0.07h-0.81v2.79H185.77z"/>
		<path d="M192.27,450.4c0,0.21,0.02,0.41,0.05,0.6s0.08,0.37,0.15,0.52c0.07,0.15,0.16,0.27,0.27,0.37
			c0.11,0.09,0.25,0.14,0.42,0.14c0.3,0,0.52-0.11,0.66-0.33s0.23-0.55,0.29-0.99h1.61c-0.04,0.82-0.25,1.44-0.65,1.86
			c-0.4,0.42-1.03,0.64-1.88,0.64c-0.65,0-1.16-0.11-1.52-0.32c-0.36-0.22-0.63-0.5-0.81-0.86c-0.17-0.36-0.28-0.75-0.32-1.2
			c-0.04-0.44-0.06-0.88-0.06-1.33c0-0.47,0.03-0.92,0.1-1.35s0.2-0.82,0.39-1.16c0.2-0.34,0.47-0.61,0.84-0.81s0.85-0.3,1.46-0.3
			c0.52,0,0.95,0.08,1.28,0.25c0.33,0.17,0.6,0.41,0.79,0.71c0.19,0.31,0.32,0.68,0.39,1.12s0.1,0.93,0.1,1.46v0.4h-3.55V450.4z
			 M194.05,448.07c-0.03-0.2-0.07-0.38-0.14-0.52c-0.06-0.14-0.16-0.25-0.27-0.33c-0.12-0.07-0.27-0.11-0.45-0.11
			c-0.18,0-0.33,0.04-0.45,0.12s-0.21,0.19-0.28,0.32c-0.07,0.13-0.12,0.28-0.15,0.45c-0.03,0.16-0.05,0.33-0.05,0.49v0.27h1.83
			C194.09,448.51,194.08,448.27,194.05,448.07z"/>
		<path d="M199,448.69h0.03l1.81-2.61h1.98l-2.01,2.76l2.31,4.24h-1.98l-1.5-2.87l-0.64,0.83v2.04h-1.79v-9.28H199V448.69z"/>
		<path d="M203.94,447.98c0.1-0.46,0.25-0.84,0.47-1.15s0.5-0.54,0.85-0.7c0.35-0.16,0.78-0.24,1.29-0.24
			c0.54-0.01,0.98,0.06,1.34,0.21c0.36,0.15,0.64,0.38,0.84,0.7c0.21,0.31,0.36,0.7,0.44,1.16c0.09,0.46,0.13,1,0.13,1.61
			c0,0.6-0.05,1.13-0.14,1.59c-0.1,0.46-0.25,0.84-0.47,1.15s-0.5,0.54-0.85,0.68c-0.35,0.15-0.78,0.22-1.29,0.22
			c-0.54,0.01-0.98-0.06-1.34-0.2s-0.64-0.37-0.85-0.68s-0.36-0.69-0.44-1.16c-0.09-0.46-0.13-1-0.13-1.61
			C203.8,448.97,203.85,448.44,203.94,447.98z M205.62,450.56c0.02,0.3,0.06,0.56,0.12,0.78c0.06,0.22,0.16,0.38,0.29,0.51
			c0.13,0.12,0.3,0.18,0.52,0.18c0.36,0,0.62-0.19,0.75-0.57c0.14-0.38,0.21-1.01,0.21-1.89c0-0.88-0.07-1.5-0.21-1.88
			s-0.39-0.57-0.75-0.57c-0.22,0-0.39,0.06-0.52,0.18c-0.13,0.12-0.23,0.29-0.29,0.51c-0.07,0.22-0.11,0.48-0.12,0.78
			c-0.02,0.3-0.03,0.63-0.03,0.99C205.59,449.93,205.6,450.26,205.62,450.56z"/>
		<path d="M212.38,446.07v0.74h0.03c0.2-0.33,0.42-0.57,0.67-0.71c0.25-0.14,0.55-0.21,0.92-0.21c0.74,0,1.28,0.29,1.62,0.86
			c0.35,0.58,0.52,1.51,0.52,2.81s-0.17,2.23-0.52,2.79s-0.89,0.84-1.62,0.84c-0.34,0-0.63-0.06-0.86-0.19
			c-0.24-0.13-0.45-0.33-0.64-0.61h-0.03v2.9h-1.79v-9.24H212.38z M212.63,451.29c0.12,0.39,0.38,0.58,0.77,0.58
			c0.39,0,0.64-0.19,0.76-0.58s0.18-0.96,0.18-1.72s-0.06-1.34-0.18-1.72s-0.37-0.58-0.76-0.58c-0.4,0-0.66,0.19-0.77,0.58
			s-0.18,0.96-0.18,1.72S212.51,450.91,212.63,451.29z"/>
		<path d="M217.54,448.05c0-0.41,0.07-0.75,0.2-1.02c0.13-0.27,0.31-0.49,0.53-0.66c0.22-0.17,0.48-0.29,0.78-0.36
			c0.3-0.07,0.62-0.11,0.96-0.11c0.54,0,0.97,0.05,1.3,0.16c0.33,0.1,0.58,0.25,0.77,0.44c0.18,0.19,0.3,0.42,0.37,0.68
			s0.1,0.55,0.1,0.86v3.68c0,0.33,0.01,0.58,0.04,0.77s0.09,0.38,0.18,0.58h-1.72c-0.06-0.11-0.11-0.23-0.14-0.36
			s-0.06-0.25-0.08-0.37h-0.03c-0.21,0.37-0.45,0.6-0.72,0.71c-0.27,0.11-0.63,0.16-1.06,0.16c-0.31,0-0.58-0.05-0.79-0.16
			s-0.39-0.26-0.52-0.45s-0.23-0.41-0.29-0.64s-0.09-0.47-0.09-0.71c0-0.33,0.03-0.61,0.1-0.85s0.18-0.44,0.32-0.61
			c0.14-0.17,0.33-0.31,0.55-0.42c0.22-0.11,0.49-0.21,0.8-0.3l1.01-0.27c0.27-0.07,0.45-0.16,0.56-0.29
			c0.1-0.12,0.16-0.3,0.16-0.53c0-0.27-0.06-0.48-0.19-0.63c-0.13-0.15-0.34-0.23-0.64-0.23c-0.28,0-0.49,0.08-0.62,0.25
			s-0.21,0.39-0.21,0.66v0.19h-1.61V448.05z M220.43,449.8c-0.14,0.06-0.26,0.1-0.38,0.12c-0.36,0.08-0.62,0.21-0.78,0.39
			c-0.16,0.18-0.23,0.43-0.23,0.74c0,0.27,0.05,0.5,0.16,0.69c0.1,0.19,0.28,0.29,0.52,0.29c0.12,0,0.25-0.02,0.38-0.06
			s0.25-0.1,0.36-0.19c0.11-0.09,0.2-0.2,0.27-0.34s0.1-0.3,0.1-0.49v-1.38C220.69,449.67,220.56,449.74,220.43,449.8z"/>
		<path d="M226.05,448.69h0.03l1.81-2.61h1.98l-2.01,2.76l2.31,4.24h-1.98l-1.5-2.87l-0.64,0.83v2.04h-1.79v-9.28h1.79V448.69z"/>
		<path d="M231.07,448.05c0-0.41,0.07-0.75,0.2-1.02c0.13-0.27,0.31-0.49,0.53-0.66c0.22-0.17,0.48-0.29,0.78-0.36
			c0.3-0.07,0.62-0.11,0.96-0.11c0.54,0,0.97,0.05,1.3,0.16c0.33,0.1,0.58,0.25,0.77,0.44c0.18,0.19,0.3,0.42,0.37,0.68
			s0.1,0.55,0.1,0.86v3.68c0,0.33,0.01,0.58,0.04,0.77s0.09,0.38,0.18,0.58h-1.72c-0.06-0.11-0.11-0.23-0.14-0.36
			s-0.06-0.25-0.08-0.37h-0.03c-0.21,0.37-0.45,0.6-0.72,0.71c-0.27,0.11-0.63,0.16-1.06,0.16c-0.31,0-0.58-0.05-0.79-0.16
			s-0.39-0.26-0.52-0.45s-0.23-0.41-0.29-0.64s-0.09-0.47-0.09-0.71c0-0.33,0.03-0.61,0.1-0.85s0.18-0.44,0.32-0.61
			c0.14-0.17,0.33-0.31,0.55-0.42c0.22-0.11,0.49-0.21,0.8-0.3l1.01-0.27c0.27-0.07,0.45-0.16,0.56-0.29
			c0.1-0.12,0.16-0.3,0.16-0.53c0-0.27-0.06-0.48-0.19-0.63c-0.13-0.15-0.34-0.23-0.64-0.23c-0.28,0-0.49,0.08-0.62,0.25
			s-0.21,0.39-0.21,0.66v0.19h-1.61V448.05z M233.96,449.8c-0.14,0.06-0.26,0.1-0.38,0.12c-0.36,0.08-0.62,0.21-0.78,0.39
			c-0.16,0.18-0.23,0.43-0.23,0.74c0,0.27,0.05,0.5,0.16,0.69c0.1,0.19,0.28,0.29,0.52,0.29c0.12,0,0.25-0.02,0.38-0.06
			s0.25-0.1,0.36-0.19c0.11-0.09,0.2-0.2,0.27-0.34s0.1-0.3,0.1-0.49v-1.38C234.23,449.67,234.1,449.74,233.96,449.8z"/>
	</g>
	<g>
		<path d="M46.23,467.71c0.38,0,0.73,0.04,1.06,0.12s0.6,0.21,0.84,0.39c0.23,0.18,0.42,0.42,0.55,0.73c0.13,0.3,0.2,0.68,0.2,1.12
			c0,0.5-0.12,0.93-0.35,1.29c-0.23,0.36-0.58,0.61-1.05,0.73v0.03c0.52,0.07,0.93,0.29,1.24,0.66s0.46,0.87,0.46,1.5
			c0,0.36-0.05,0.71-0.14,1.04c-0.1,0.33-0.26,0.62-0.49,0.86s-0.53,0.44-0.9,0.59c-0.37,0.15-0.83,0.22-1.37,0.22H43.1v-9.28H46.23
			z M45.5,471.51c0.52,0,0.9-0.09,1.14-0.28c0.24-0.19,0.36-0.5,0.36-0.94c0-0.44-0.11-0.75-0.33-0.94
			c-0.22-0.18-0.56-0.27-1.03-0.27h-0.68v2.43H45.5z M45.7,475.61c0.45,0,0.81-0.1,1.09-0.3s0.42-0.57,0.42-1.11
			c0-0.27-0.04-0.49-0.11-0.67c-0.07-0.18-0.17-0.32-0.3-0.43c-0.13-0.11-0.28-0.18-0.45-0.23c-0.17-0.04-0.36-0.06-0.57-0.06h-0.81
			v2.79H45.7z"/>
		<path d="M52.2,474.32c0,0.21,0.02,0.41,0.05,0.6s0.08,0.37,0.15,0.52c0.07,0.15,0.16,0.27,0.27,0.36
			c0.11,0.09,0.25,0.14,0.42,0.14c0.3,0,0.52-0.11,0.66-0.33c0.14-0.22,0.23-0.55,0.29-0.99h1.61c-0.04,0.81-0.25,1.43-0.65,1.86
			s-1.03,0.64-1.88,0.64c-0.65,0-1.16-0.11-1.52-0.33c-0.36-0.22-0.63-0.5-0.81-0.86c-0.17-0.36-0.28-0.75-0.32-1.2
			c-0.04-0.44-0.06-0.88-0.06-1.33c0-0.47,0.03-0.92,0.1-1.35c0.07-0.43,0.2-0.82,0.39-1.16c0.2-0.34,0.47-0.61,0.84-0.81
			s0.85-0.3,1.46-0.3c0.52,0,0.95,0.08,1.28,0.25c0.33,0.17,0.6,0.41,0.79,0.71c0.19,0.31,0.32,0.68,0.39,1.12s0.1,0.92,0.1,1.46
			v0.4H52.2V474.32z M53.98,471.99c-0.03-0.2-0.07-0.38-0.14-0.52c-0.06-0.14-0.16-0.25-0.27-0.32c-0.12-0.07-0.27-0.11-0.45-0.11
			c-0.18,0-0.33,0.04-0.45,0.12c-0.12,0.08-0.21,0.19-0.28,0.33c-0.07,0.13-0.12,0.28-0.15,0.45c-0.03,0.17-0.05,0.33-0.05,0.49
			v0.27h1.83C54.02,472.43,54.01,472.19,53.98,471.99z"/>
		<path d="M58.93,467.71v9.28h-1.79v-9.28H58.93z"/>
		<path d="M60.49,471.91c0.1-0.46,0.25-0.84,0.47-1.15s0.5-0.54,0.85-0.7c0.35-0.16,0.78-0.24,1.29-0.24
			c0.54-0.01,0.98,0.06,1.34,0.21c0.36,0.15,0.64,0.38,0.84,0.7c0.21,0.31,0.36,0.7,0.44,1.16c0.09,0.46,0.13,1,0.13,1.61
			c0,0.6-0.05,1.13-0.14,1.59c-0.1,0.46-0.25,0.84-0.47,1.15c-0.22,0.31-0.5,0.54-0.85,0.68c-0.35,0.15-0.78,0.22-1.29,0.22
			c-0.54,0.01-0.98-0.06-1.34-0.2s-0.64-0.37-0.85-0.68s-0.36-0.69-0.44-1.16c-0.09-0.46-0.13-1-0.13-1.61
			C60.35,472.89,60.4,472.36,60.49,471.91z M62.17,474.48c0.02,0.3,0.06,0.56,0.12,0.78c0.06,0.22,0.16,0.39,0.29,0.51
			c0.13,0.12,0.3,0.18,0.52,0.18c0.36,0,0.62-0.19,0.75-0.57c0.14-0.38,0.21-1.01,0.21-1.88s-0.07-1.5-0.21-1.88
			s-0.39-0.57-0.75-0.57c-0.22,0-0.39,0.06-0.52,0.18c-0.13,0.12-0.23,0.29-0.29,0.51c-0.07,0.22-0.11,0.48-0.12,0.78
			c-0.02,0.3-0.03,0.63-0.03,0.99S62.15,474.18,62.17,474.48z"/>
		<path d="M72.04,474.93c0,0.3,0.08,0.55,0.24,0.73s0.39,0.28,0.7,0.28c0.28,0,0.5-0.07,0.66-0.21c0.17-0.14,0.25-0.35,0.25-0.62
			c0-0.22-0.06-0.4-0.2-0.51c-0.13-0.12-0.28-0.21-0.45-0.28l-1.26-0.46c-0.49-0.17-0.87-0.42-1.12-0.73
			c-0.25-0.32-0.38-0.72-0.38-1.21c0-0.29,0.05-0.56,0.14-0.81c0.09-0.26,0.25-0.48,0.46-0.67c0.21-0.19,0.47-0.34,0.8-0.46
			c0.33-0.11,0.72-0.17,1.18-0.17c0.81,0,1.42,0.17,1.81,0.52c0.39,0.35,0.58,0.84,0.58,1.47v0.29h-1.61c0-0.36-0.06-0.63-0.18-0.8
			c-0.12-0.17-0.32-0.25-0.62-0.25c-0.23,0-0.42,0.06-0.59,0.19s-0.25,0.31-0.25,0.57c0,0.17,0.05,0.33,0.16,0.47
			s0.31,0.26,0.62,0.35l1.08,0.36c0.56,0.19,0.96,0.44,1.2,0.75s0.35,0.73,0.35,1.25c0,0.37-0.06,0.7-0.19,0.97
			c-0.13,0.27-0.31,0.5-0.54,0.68s-0.5,0.31-0.82,0.39c-0.32,0.08-0.67,0.12-1.05,0.12c-0.5,0-0.92-0.05-1.25-0.14
			c-0.33-0.09-0.6-0.24-0.79-0.43c-0.19-0.19-0.33-0.42-0.41-0.7c-0.08-0.27-0.12-0.58-0.12-0.92v-0.25h1.61V474.93z"/>
		<path d="M80.45,476.17c-0.19,0.35-0.44,0.59-0.74,0.74s-0.65,0.22-1.04,0.22c-0.57,0-1.01-0.15-1.32-0.45s-0.46-0.8-0.46-1.5
			v-5.19h1.79v4.82c0,0.36,0.06,0.62,0.18,0.76c0.12,0.14,0.32,0.21,0.58,0.21c0.63,0,0.95-0.38,0.95-1.16v-4.64h1.79v6.99h-1.72
			v-0.82H80.45z"/>
		<path d="M85.49,469.99v0.94h0.03c0.18-0.34,0.4-0.61,0.66-0.81c0.26-0.2,0.58-0.31,0.95-0.31c0.05,0,0.11,0,0.16,0.01
			c0.06,0,0.11,0.01,0.16,0.02v1.71c-0.1-0.01-0.19-0.01-0.28-0.02c-0.09,0-0.18-0.01-0.28-0.01c-0.16,0-0.31,0.02-0.47,0.06
			c-0.16,0.04-0.3,0.12-0.43,0.21s-0.23,0.23-0.31,0.39s-0.12,0.36-0.12,0.59v4.2h-1.79v-6.99H85.49z"/>
		<path d="M97.01,469.24h-2.03v7.75h-1.87v-7.75h-2.03v-1.53h5.93V469.24z"/>
		<path d="M99.47,474.93c0,0.3,0.08,0.55,0.24,0.73s0.39,0.28,0.7,0.28c0.28,0,0.5-0.07,0.66-0.21c0.17-0.14,0.25-0.35,0.25-0.62
			c0-0.22-0.06-0.4-0.2-0.51c-0.13-0.12-0.28-0.21-0.45-0.28l-1.26-0.46c-0.49-0.17-0.87-0.42-1.12-0.73
			c-0.25-0.32-0.38-0.72-0.38-1.21c0-0.29,0.05-0.56,0.14-0.81c0.09-0.26,0.25-0.48,0.46-0.67c0.21-0.19,0.47-0.34,0.8-0.46
			c0.33-0.11,0.72-0.17,1.18-0.17c0.81,0,1.42,0.17,1.81,0.52c0.39,0.35,0.58,0.84,0.58,1.47v0.29h-1.61c0-0.36-0.06-0.63-0.18-0.8
			c-0.12-0.17-0.32-0.25-0.62-0.25c-0.23,0-0.42,0.06-0.59,0.19s-0.25,0.31-0.25,0.57c0,0.17,0.05,0.33,0.16,0.47
			s0.31,0.26,0.62,0.35l1.08,0.36c0.56,0.19,0.96,0.44,1.2,0.75s0.35,0.73,0.35,1.25c0,0.37-0.06,0.7-0.19,0.97
			c-0.13,0.27-0.31,0.5-0.54,0.68s-0.5,0.31-0.82,0.39c-0.32,0.08-0.67,0.12-1.05,0.12c-0.5,0-0.92-0.05-1.25-0.14
			c-0.33-0.09-0.6-0.24-0.79-0.43c-0.19-0.19-0.33-0.42-0.41-0.7c-0.08-0.27-0.12-0.58-0.12-0.92v-0.25h1.61V474.93z"/>
		<path d="M106.18,467.6v1.53h-1.79v-1.53H106.18z M106.18,469.99v6.99h-1.79v-6.99H106.18z"/>
		<path d="M109.54,469.99v0.94h0.03c0.18-0.34,0.4-0.61,0.66-0.81c0.26-0.2,0.58-0.31,0.95-0.31c0.05,0,0.11,0,0.16,0.01
			c0.06,0,0.11,0.01,0.16,0.02v1.71c-0.1-0.01-0.19-0.01-0.28-0.02c-0.09,0-0.18-0.01-0.28-0.01c-0.16,0-0.31,0.02-0.47,0.06
			c-0.16,0.04-0.3,0.12-0.43,0.21s-0.23,0.23-0.31,0.39s-0.12,0.36-0.12,0.59v4.2h-1.79v-6.99H109.54z"/>
		<path d="M114.4,467.6v1.53h-1.79v-1.53H114.4z M114.4,469.99v6.99h-1.79v-6.99H114.4z"/>
		<path d="M117.85,467.71v2.94h0.03c0.19-0.28,0.41-0.48,0.64-0.62s0.53-0.21,0.86-0.21c0.74,0,1.28,0.29,1.62,0.86
			s0.52,1.51,0.52,2.81c0,1.3-0.17,2.23-0.52,2.79c-0.35,0.56-0.89,0.85-1.62,0.85c-0.36,0-0.67-0.07-0.92-0.2
			c-0.25-0.13-0.47-0.36-0.67-0.69h-0.03v0.74h-1.72v-9.28H117.85z M118.02,475.21c0.12,0.39,0.38,0.58,0.77,0.58
			c0.39,0,0.64-0.19,0.76-0.58s0.18-0.96,0.18-1.72s-0.06-1.34-0.18-1.72c-0.12-0.38-0.37-0.58-0.76-0.58
			c-0.4,0-0.66,0.19-0.77,0.58c-0.12,0.39-0.18,0.96-0.18,1.72S117.91,474.83,118.02,475.21z"/>
		<path d="M124.8,467.6v1.53h-1.79v-1.53H124.8z M124.8,469.99v6.99h-1.79v-6.99H124.8z"/>
		<path d="M128.25,467.71v3h0.03c0.35-0.6,0.91-0.9,1.7-0.9c0.57,0,1.01,0.16,1.32,0.47s0.46,0.82,0.46,1.52v5.19h-1.79v-4.82
			c0-0.36-0.06-0.62-0.18-0.76c-0.12-0.14-0.32-0.21-0.58-0.21c-0.63,0-0.95,0.39-0.95,1.16v4.64h-1.79v-9.28H128.25z"/>
		<path d="M135.2,467.6v1.53h-1.79v-1.53H135.2z M135.2,469.99v6.99h-1.79v-6.99H135.2z"/>
		<path d="M138.57,469.99v0.82h0.03c0.19-0.35,0.44-0.6,0.74-0.76c0.3-0.16,0.65-0.24,1.04-0.24c0.57,0,1.01,0.16,1.32,0.47
			s0.46,0.82,0.46,1.52v5.19h-1.79v-4.82c0-0.36-0.06-0.62-0.18-0.76c-0.12-0.14-0.32-0.21-0.58-0.21c-0.63,0-0.95,0.39-0.95,1.16
			v4.64h-1.79v-6.99H138.57z"/>
		<path d="M143.73,471.97c0-0.41,0.07-0.75,0.2-1.02c0.13-0.27,0.31-0.49,0.53-0.66c0.22-0.17,0.48-0.29,0.78-0.36
			c0.3-0.07,0.62-0.11,0.96-0.11c0.54,0,0.97,0.05,1.3,0.16c0.33,0.1,0.58,0.25,0.77,0.44c0.18,0.19,0.3,0.42,0.37,0.68
			c0.07,0.26,0.1,0.55,0.1,0.87v3.68c0,0.33,0.01,0.59,0.04,0.77s0.09,0.38,0.18,0.58h-1.72c-0.06-0.11-0.11-0.23-0.14-0.36
			s-0.06-0.25-0.08-0.37h-0.03c-0.21,0.36-0.45,0.6-0.72,0.71c-0.27,0.11-0.63,0.16-1.06,0.16c-0.31,0-0.58-0.05-0.79-0.16
			s-0.39-0.26-0.52-0.45c-0.13-0.19-0.23-0.41-0.29-0.64s-0.09-0.47-0.09-0.71c0-0.33,0.03-0.61,0.1-0.85s0.18-0.44,0.32-0.61
			c0.14-0.17,0.33-0.31,0.55-0.42c0.22-0.11,0.49-0.21,0.8-0.3l1.01-0.27c0.27-0.07,0.45-0.17,0.56-0.29
			c0.1-0.12,0.16-0.3,0.16-0.53c0-0.27-0.06-0.48-0.19-0.63c-0.13-0.15-0.34-0.23-0.64-0.23c-0.28,0-0.49,0.08-0.62,0.25
			s-0.21,0.39-0.21,0.66v0.2h-1.61V471.97z M146.62,473.72c-0.14,0.06-0.26,0.1-0.38,0.12c-0.36,0.08-0.62,0.21-0.78,0.39
			c-0.16,0.18-0.23,0.43-0.23,0.74c0,0.27,0.05,0.5,0.16,0.69c0.1,0.19,0.28,0.29,0.52,0.29c0.12,0,0.25-0.02,0.38-0.06
			s0.25-0.1,0.36-0.19s0.2-0.2,0.27-0.34s0.1-0.3,0.1-0.49v-1.38C146.89,473.59,146.76,473.66,146.62,473.72z"/>
	</g>
	<g>
		<path d="M462.81,330.42c0,0.22,0.02,0.41,0.05,0.59c0.03,0.18,0.1,0.33,0.2,0.45c0.09,0.12,0.22,0.22,0.38,0.29
			c0.16,0.07,0.36,0.1,0.6,0.1c0.29,0,0.54-0.09,0.77-0.28c0.23-0.19,0.34-0.47,0.34-0.86c0-0.21-0.03-0.39-0.08-0.54
			c-0.06-0.15-0.15-0.29-0.28-0.41c-0.13-0.12-0.3-0.23-0.51-0.33c-0.21-0.1-0.47-0.2-0.79-0.31c-0.42-0.14-0.78-0.29-1.08-0.46
			c-0.3-0.16-0.56-0.36-0.76-0.58c-0.2-0.22-0.35-0.48-0.45-0.77c-0.09-0.29-0.14-0.63-0.14-1.01c0-0.92,0.26-1.6,0.77-2.05
			c0.51-0.45,1.21-0.68,2.11-0.68c0.42,0,0.8,0.05,1.15,0.14s0.65,0.24,0.91,0.44c0.26,0.2,0.46,0.46,0.6,0.78
			c0.14,0.32,0.21,0.7,0.21,1.14v0.26h-1.79c0-0.44-0.08-0.78-0.23-1.02s-0.42-0.36-0.78-0.36c-0.21,0-0.38,0.03-0.52,0.09
			c-0.14,0.06-0.25,0.14-0.33,0.24c-0.08,0.1-0.14,0.21-0.17,0.34c-0.03,0.13-0.05,0.26-0.05,0.4c0,0.29,0.06,0.53,0.18,0.72
			s0.38,0.38,0.78,0.54l1.44,0.62c0.35,0.16,0.65,0.32,0.87,0.49c0.22,0.17,0.4,0.35,0.54,0.55c0.13,0.19,0.23,0.41,0.28,0.64
			c0.05,0.23,0.08,0.49,0.08,0.78c0,0.98-0.28,1.69-0.85,2.14s-1.36,0.67-2.37,0.67c-1.06,0-1.81-0.23-2.27-0.69
			c-0.46-0.46-0.68-1.12-0.68-1.98v-0.38h1.87V330.42z"/>
		<path d="M468.37,328.03c0-0.41,0.07-0.75,0.2-1.02c0.13-0.27,0.31-0.49,0.53-0.66s0.48-0.29,0.78-0.36
			c0.3-0.07,0.62-0.11,0.96-0.11c0.54,0,0.97,0.05,1.3,0.16c0.33,0.1,0.58,0.25,0.77,0.44c0.18,0.19,0.3,0.42,0.37,0.68
			c0.07,0.26,0.1,0.55,0.1,0.87v3.68c0,0.33,0.01,0.58,0.04,0.77c0.03,0.18,0.09,0.38,0.18,0.58h-1.72
			c-0.06-0.11-0.11-0.23-0.14-0.36c-0.03-0.12-0.06-0.25-0.08-0.37h-0.03c-0.21,0.36-0.45,0.6-0.72,0.71
			c-0.27,0.11-0.63,0.16-1.06,0.16c-0.31,0-0.58-0.05-0.79-0.16s-0.39-0.26-0.52-0.45s-0.23-0.41-0.29-0.64s-0.09-0.47-0.09-0.71
			c0-0.33,0.03-0.61,0.1-0.85s0.18-0.44,0.32-0.61c0.14-0.17,0.33-0.31,0.55-0.42c0.22-0.11,0.49-0.21,0.8-0.3l1.01-0.27
			c0.27-0.07,0.45-0.17,0.56-0.29c0.1-0.12,0.16-0.3,0.16-0.53c0-0.27-0.06-0.48-0.19-0.63c-0.13-0.15-0.34-0.23-0.64-0.23
			c-0.28,0-0.49,0.08-0.62,0.25c-0.14,0.17-0.21,0.39-0.21,0.66v0.2h-1.61V328.03z M471.26,329.77c-0.14,0.06-0.26,0.1-0.38,0.12
			c-0.36,0.08-0.62,0.21-0.78,0.39c-0.16,0.18-0.23,0.43-0.23,0.74c0,0.27,0.05,0.5,0.16,0.69c0.1,0.19,0.28,0.29,0.52,0.29
			c0.12,0,0.25-0.02,0.38-0.06s0.25-0.1,0.36-0.19c0.11-0.09,0.2-0.2,0.27-0.34s0.1-0.3,0.1-0.49v-1.38
			C471.53,329.64,471.4,329.72,471.26,329.77z"/>
		<path d="M476.89,323.66v1.53h-1.79v-1.53H476.89z M476.89,326.05v6.99h-1.79v-6.99H476.89z"/>
		<path d="M480.25,326.05v0.82h0.03c0.19-0.35,0.44-0.6,0.74-0.76c0.3-0.16,0.65-0.24,1.04-0.24c0.57,0,1.01,0.16,1.32,0.47
			c0.31,0.31,0.46,0.82,0.46,1.52v5.19h-1.79v-4.82c0-0.36-0.06-0.62-0.18-0.76c-0.12-0.14-0.32-0.21-0.58-0.21
			c-0.63,0-0.95,0.39-0.95,1.16v4.64h-1.79v-6.99H480.25z"/>
		<path d="M487.61,324.05v2h1.04v1.22h-1.04v3.78c0,0.28,0.04,0.47,0.12,0.59s0.25,0.18,0.51,0.18c0.07,0,0.14,0,0.21-0.01
			c0.07,0,0.13-0.01,0.2-0.02v1.25c-0.2,0-0.39,0.01-0.58,0.02c-0.19,0.01-0.38,0.02-0.59,0.02c-0.35,0-0.63-0.02-0.85-0.07
			c-0.22-0.05-0.39-0.14-0.51-0.29c-0.12-0.14-0.2-0.33-0.24-0.57c-0.04-0.23-0.06-0.53-0.06-0.88v-4h-0.91v-1.22h0.91v-2H487.61z"
			/>
		<path d="M491.2,330.38c0,0.21,0.02,0.41,0.05,0.6c0.03,0.2,0.08,0.37,0.15,0.52s0.16,0.27,0.27,0.36
			c0.11,0.09,0.25,0.14,0.42,0.14c0.3,0,0.52-0.11,0.66-0.33c0.14-0.22,0.23-0.55,0.29-0.99h1.61c-0.04,0.81-0.25,1.43-0.65,1.86
			c-0.4,0.42-1.03,0.64-1.88,0.64c-0.65,0-1.16-0.11-1.52-0.33c-0.36-0.22-0.63-0.5-0.81-0.86c-0.17-0.36-0.28-0.75-0.32-1.2
			c-0.04-0.44-0.06-0.88-0.06-1.33c0-0.47,0.03-0.92,0.1-1.35c0.07-0.43,0.2-0.82,0.39-1.16c0.2-0.34,0.47-0.61,0.84-0.81
			s0.85-0.3,1.46-0.3c0.52,0,0.95,0.08,1.28,0.25s0.6,0.41,0.79,0.71c0.19,0.31,0.32,0.68,0.39,1.12s0.1,0.92,0.1,1.46v0.4h-3.55
			V330.38z M492.98,328.05c-0.03-0.2-0.07-0.38-0.14-0.52c-0.06-0.14-0.16-0.25-0.27-0.32c-0.12-0.07-0.27-0.11-0.45-0.11
			c-0.18,0-0.33,0.04-0.45,0.12s-0.21,0.19-0.28,0.33c-0.07,0.13-0.12,0.28-0.15,0.45s-0.05,0.33-0.05,0.49v0.27h1.83
			C493.02,328.49,493.01,328.25,492.98,328.05z"/>
		<path d="M502.46,323.76l1.33,6.55h0.03l1.34-6.55h2.77v9.28h-1.72v-7.41h-0.03l-1.65,7.41h-1.46l-1.65-7.41h-0.03v7.41h-1.72
			v-9.28H502.46z"/>
		<path d="M509.58,328.03c0-0.41,0.07-0.75,0.2-1.02c0.13-0.27,0.31-0.49,0.53-0.66s0.48-0.29,0.78-0.36
			c0.3-0.07,0.62-0.11,0.96-0.11c0.54,0,0.97,0.05,1.3,0.16c0.33,0.1,0.58,0.25,0.77,0.44c0.18,0.19,0.3,0.42,0.37,0.68
			c0.07,0.26,0.1,0.55,0.1,0.87v3.68c0,0.33,0.01,0.58,0.04,0.77c0.03,0.18,0.09,0.38,0.18,0.58h-1.72
			c-0.06-0.11-0.11-0.23-0.14-0.36c-0.03-0.12-0.06-0.25-0.08-0.37h-0.03c-0.21,0.36-0.45,0.6-0.72,0.71
			c-0.27,0.11-0.63,0.16-1.06,0.16c-0.31,0-0.58-0.05-0.79-0.16s-0.39-0.26-0.52-0.45s-0.23-0.41-0.29-0.64s-0.09-0.47-0.09-0.71
			c0-0.33,0.03-0.61,0.1-0.85s0.18-0.44,0.32-0.61c0.14-0.17,0.33-0.31,0.55-0.42c0.22-0.11,0.49-0.21,0.8-0.3l1.01-0.27
			c0.27-0.07,0.45-0.17,0.56-0.29c0.1-0.12,0.16-0.3,0.16-0.53c0-0.27-0.06-0.48-0.19-0.63c-0.13-0.15-0.34-0.23-0.64-0.23
			c-0.28,0-0.49,0.08-0.62,0.25c-0.14,0.17-0.21,0.39-0.21,0.66v0.2h-1.61V328.03z M512.47,329.77c-0.14,0.06-0.26,0.1-0.38,0.12
			c-0.36,0.08-0.62,0.21-0.78,0.39c-0.16,0.18-0.23,0.43-0.23,0.74c0,0.27,0.05,0.5,0.16,0.69c0.1,0.19,0.28,0.29,0.52,0.29
			c0.12,0,0.25-0.02,0.38-0.06s0.25-0.1,0.36-0.19c0.11-0.09,0.2-0.2,0.27-0.34s0.1-0.3,0.1-0.49v-1.38
			C512.74,329.64,512.61,329.72,512.47,329.77z"/>
		<path d="M517.95,326.05v0.94h0.03c0.18-0.34,0.4-0.61,0.66-0.81c0.26-0.2,0.58-0.31,0.95-0.31c0.05,0,0.11,0,0.16,0.01
			c0.06,0,0.11,0.01,0.16,0.02v1.72c-0.1-0.01-0.19-0.02-0.28-0.02c-0.09,0-0.18-0.01-0.28-0.01c-0.16,0-0.31,0.02-0.47,0.07
			c-0.16,0.04-0.3,0.11-0.43,0.21c-0.13,0.1-0.23,0.23-0.31,0.39s-0.12,0.36-0.12,0.59v4.2h-1.79v-6.99H517.95z"/>
		<path d="M522.82,323.66v1.53h-1.79v-1.53H522.82z M522.82,326.05v6.99h-1.79v-6.99H522.82z"/>
		<path d="M526,330.38c0,0.21,0.02,0.41,0.05,0.6c0.03,0.2,0.08,0.37,0.15,0.52s0.16,0.27,0.27,0.36c0.11,0.09,0.25,0.14,0.42,0.14
			c0.3,0,0.52-0.11,0.66-0.33c0.14-0.22,0.23-0.55,0.29-0.99h1.61c-0.04,0.81-0.25,1.43-0.65,1.86c-0.4,0.42-1.03,0.64-1.88,0.64
			c-0.65,0-1.16-0.11-1.52-0.33c-0.36-0.22-0.63-0.5-0.81-0.86c-0.17-0.36-0.28-0.75-0.32-1.2c-0.04-0.44-0.06-0.88-0.06-1.33
			c0-0.47,0.03-0.92,0.1-1.35c0.07-0.43,0.2-0.82,0.39-1.16c0.2-0.34,0.47-0.61,0.84-0.81s0.85-0.3,1.46-0.3
			c0.52,0,0.95,0.08,1.28,0.25s0.6,0.41,0.79,0.71c0.19,0.31,0.32,0.68,0.39,1.12s0.1,0.92,0.1,1.46v0.4H526V330.38z M527.78,328.05
			c-0.03-0.2-0.07-0.38-0.14-0.52c-0.06-0.14-0.16-0.25-0.27-0.32c-0.12-0.07-0.27-0.11-0.45-0.11c-0.18,0-0.33,0.04-0.45,0.12
			s-0.21,0.19-0.28,0.33c-0.07,0.13-0.12,0.28-0.15,0.45s-0.05,0.33-0.05,0.49v0.27h1.83C527.83,328.49,527.81,328.25,527.78,328.05
			z"/>
	</g>
	<g>
		<path d="M154.04,621.67l2.67,7.86h0.03l2.53-7.86h3.54v11.42h-2.35V625h-0.03l-2.8,8.1h-1.94l-2.8-8.02h-0.03v8.02h-2.35v-11.42
			H154.04z"/>
		<path d="M173.11,621.67l4.27,11.42h-2.61l-0.86-2.54h-4.27l-0.9,2.54h-2.53l4.32-11.42H173.11z M173.26,628.68l-1.44-4.19h-0.03
			l-1.49,4.19H173.26z"/>
		<path d="M185.7,621.67c0.74,0,1.42,0.12,2.06,0.35s1.18,0.59,1.65,1.06s0.83,1.06,1.09,1.76c0.26,0.7,0.39,1.53,0.39,2.48
			c0,0.83-0.11,1.6-0.32,2.3c-0.21,0.7-0.54,1.31-0.97,1.82c-0.43,0.51-0.97,0.91-1.62,1.21s-1.41,0.44-2.28,0.44h-4.93v-11.42
			H185.7z M185.53,630.98c0.36,0,0.71-0.06,1.06-0.18c0.34-0.12,0.65-0.31,0.91-0.58c0.27-0.27,0.48-0.63,0.64-1.06
			c0.16-0.44,0.24-0.97,0.24-1.6c0-0.58-0.06-1.1-0.17-1.56s-0.3-0.86-0.55-1.19c-0.26-0.33-0.59-0.58-1.02-0.76
			c-0.42-0.18-0.94-0.26-1.56-0.26h-1.79v7.2H185.53z"/>
		<path d="M200.73,621.67L205,633.1h-2.61l-0.86-2.54h-4.27l-0.9,2.54h-2.53l4.32-11.42H200.73z M200.87,628.68l-1.44-4.19h-0.03
			l-1.49,4.19H200.87z"/>
		<path d="M215.16,633.01c-0.54,0.23-1.09,0.34-1.65,0.34c-0.87,0-1.66-0.15-2.36-0.46c-0.7-0.3-1.29-0.72-1.77-1.26
			c-0.48-0.53-0.85-1.16-1.1-1.88c-0.26-0.72-0.38-1.5-0.38-2.33c0-0.85,0.13-1.65,0.38-2.38c0.26-0.73,0.62-1.37,1.1-1.91
			c0.48-0.54,1.07-0.97,1.77-1.28c0.7-0.31,1.49-0.46,2.36-0.46c0.59,0,1.16,0.09,1.7,0.26c0.55,0.18,1.05,0.43,1.49,0.78
			s0.81,0.76,1.1,1.26c0.29,0.5,0.46,1.08,0.53,1.73h-2.4c-0.15-0.64-0.44-1.12-0.86-1.44c-0.43-0.32-0.94-0.48-1.55-0.48
			c-0.57,0-1.04,0.11-1.44,0.33s-0.71,0.51-0.96,0.88c-0.25,0.37-0.42,0.79-0.54,1.26c-0.11,0.47-0.17,0.96-0.17,1.46
			c0,0.48,0.06,0.95,0.17,1.4c0.11,0.45,0.29,0.86,0.54,1.22c0.25,0.36,0.57,0.65,0.96,0.87s0.87,0.33,1.44,0.33
			c0.83,0,1.47-0.21,1.93-0.63c0.45-0.42,0.72-1.03,0.79-1.83h-2.53v-1.87h4.8v6.18h-1.6l-0.26-1.3
			C216.2,632.38,215.7,632.78,215.16,633.01z"/>
		<path d="M228.63,621.67l4.27,11.42h-2.61l-0.86-2.54h-4.27l-0.9,2.54h-2.53l4.32-11.42H228.63z M228.78,628.68l-1.44-4.19h-0.03
			l-1.49,4.19H228.78z"/>
		<path d="M238.22,630.28c0.14,0.27,0.32,0.48,0.55,0.65c0.23,0.17,0.5,0.29,0.81,0.37s0.63,0.12,0.96,0.12
			c0.22,0,0.46-0.02,0.72-0.06c0.26-0.04,0.5-0.11,0.72-0.22c0.22-0.11,0.41-0.25,0.56-0.44c0.15-0.19,0.22-0.42,0.22-0.71
			c0-0.31-0.1-0.56-0.3-0.75c-0.2-0.19-0.46-0.35-0.78-0.48c-0.32-0.13-0.68-0.24-1.09-0.34c-0.41-0.1-0.82-0.2-1.23-0.32
			c-0.43-0.11-0.84-0.24-1.25-0.39s-0.77-0.35-1.09-0.6s-0.58-0.55-0.78-0.92c-0.2-0.37-0.3-0.81-0.3-1.34
			c0-0.59,0.13-1.1,0.38-1.53c0.25-0.43,0.58-0.79,0.98-1.08s0.86-0.5,1.38-0.64s1.02-0.21,1.54-0.21c0.6,0,1.17,0.07,1.72,0.2
			c0.55,0.13,1.04,0.35,1.46,0.65c0.43,0.3,0.77,0.68,1.02,1.14c0.25,0.46,0.38,1.03,0.38,1.69h-2.43
			c-0.02-0.34-0.09-0.62-0.22-0.85c-0.12-0.22-0.29-0.4-0.49-0.53c-0.2-0.13-0.44-0.22-0.7-0.27c-0.26-0.05-0.55-0.08-0.86-0.08
			c-0.2,0-0.41,0.02-0.61,0.06c-0.2,0.04-0.39,0.12-0.55,0.22c-0.17,0.11-0.3,0.24-0.41,0.4c-0.11,0.16-0.16,0.36-0.16,0.61
			c0,0.22,0.04,0.41,0.13,0.54c0.08,0.14,0.25,0.27,0.5,0.38c0.25,0.12,0.6,0.24,1.04,0.35s1.02,0.27,1.74,0.45
			c0.21,0.04,0.51,0.12,0.89,0.23c0.38,0.11,0.75,0.29,1.13,0.54c0.37,0.25,0.7,0.57,0.97,0.98c0.27,0.41,0.41,0.94,0.41,1.58
			c0,0.52-0.1,1.01-0.3,1.46c-0.2,0.45-0.5,0.83-0.9,1.16s-0.9,0.58-1.49,0.76c-0.59,0.18-1.28,0.27-2.06,0.27
			c-0.63,0-1.24-0.08-1.83-0.23s-1.12-0.4-1.57-0.73c-0.45-0.33-0.81-0.75-1.08-1.26s-0.39-1.12-0.38-1.82h2.43
			C238.01,629.69,238.08,630.01,238.22,630.28z"/>
		<path d="M251.59,621.67v4.74l4.46-4.74h3.14l-4.46,4.51l4.9,6.91h-3.15l-3.44-5.14l-1.44,1.46v3.68h-2.51v-11.42H251.59z"/>
		<path d="M268.73,621.67L273,633.1h-2.61l-0.86-2.54h-4.27l-0.9,2.54h-2.53l4.32-11.42H268.73z M268.87,628.68l-1.44-4.19h-0.03
			l-1.49,4.19H268.87z"/>
		<path d="M282.55,621.67c0.51,0,0.97,0.08,1.38,0.25c0.41,0.16,0.76,0.39,1.06,0.68c0.29,0.29,0.52,0.62,0.67,1
			s0.23,0.79,0.23,1.22c0,0.67-0.14,1.25-0.42,1.74c-0.28,0.49-0.74,0.86-1.38,1.12v0.03c0.31,0.09,0.57,0.22,0.77,0.39
			c0.2,0.18,0.37,0.38,0.5,0.62c0.13,0.24,0.22,0.5,0.28,0.79s0.1,0.58,0.12,0.86c0.01,0.18,0.02,0.4,0.03,0.64
			c0.01,0.25,0.03,0.5,0.06,0.75s0.07,0.5,0.13,0.73c0.06,0.23,0.15,0.42,0.26,0.58h-2.51c-0.14-0.36-0.22-0.79-0.26-1.3
			c-0.03-0.5-0.08-0.98-0.14-1.44c-0.09-0.6-0.27-1.04-0.54-1.31s-0.73-0.42-1.36-0.42h-2.51v4.46h-2.51v-11.42H282.55z
			 M281.65,626.84c0.58,0,1.01-0.13,1.3-0.38s0.43-0.67,0.43-1.25c0-0.55-0.14-0.96-0.43-1.21s-0.72-0.38-1.3-0.38h-2.75v3.22
			H281.65z"/>
	</g>
	<circle class="st4" cx="177.55" cy="424.92" r="4.3"/>
	<circle class="st4" cx="173.78" cy="442.21" r="4.3"/>
	<circle class="st4" cx="160.48" cy="473.14" r="4.3"/>
</g>
</svg>
