<?xml version="1.0" encoding="utf-8"?>
<!-- Generator: Adobe Illustrator 21.0.2, SVG Export Plug-In . SVG Version: 6.00 Build 0)  -->
<svg version="1.1" id="Ebene_1" xmlns="http://www.w3.org/2000/svg" xmlns:xlink="http://www.w3.org/1999/xlink" x="0px" y="0px"
	 viewBox="0 0 75 61" style="enable-background:new 0 0 75 61;" xml:space="preserve">
<style type="text/css">
	.st0{fill:#FFFFFF;}
</style>
<g>
	<ellipse transform="matrix(0.9054 -0.4246 0.4246 0.9054 -7.0507 24.165)" class="st0" cx="50.7" cy="27.9" rx="6.8" ry="2.6"/>
	<path class="st0" d="M58.7,27.1c0,0,1.4-2.5,0-4.2c-0.7-0.9-3.8-1-5.5-0.8l-0.1,0l-0.1,0c-0.5-0.2-1.1-0.4-1.6-0.5
		c-3.3,1.6-7,3.4-10.9,5.3l2.7,0.9l-0.6,0.6c-0.1,0.1-2,2.1-0.8,3.9c1,1.6,5.1,1.2,6.6,0.9l0.5-0.1l0.5,6.3c4-2.6,7.5-4.9,9.7-6.3
		l-0.7-5.8L58.7,27.1z M51.8,30.3c-3.4,1.6-6.6,1.8-7.2,0.5c-0.6-1.3,1.6-3.7,5-5.3s6.6-1.8,7.2-0.5C57.4,26.4,55.2,28.7,51.8,30.3z
		"/>
	<path class="st0" d="M41.2,32.7c-1.1-1.7-0.4-3.5,0.4-4.6l-2.2-0.7c-5,2.5-10.1,5.1-14.6,7.4c5.2,0.6,13.4,2.5,18.3,8.7
		c1.9-1.2,3.8-2.4,5.6-3.6l-0.5-5.8C46.7,34.4,42.5,34.8,41.2,32.7z"/>
	<path class="st0" d="M73.7,15.3c-3.7,0.2-9.6,1.1-11.5,1.7c-0.8,0.2-1.9,0.6-3.1,1.1c2.7,0.6,6.5,1.9,11.3,4.9
		c1.9-2.2,3.3-4.1,4.5-5.5C75.6,16.7,74.9,15.3,73.7,15.3z"/>
	<path class="st0" d="M52.8,20.9c0.2,0.1,0.3,0.1,0.5,0.2c0.9-0.1,5-0.3,6.2,1.2c1.6,2,0.5,4.5,0.1,5.2l0.6,4.9
		c0.7-0.5,1.2-0.9,1.5-1c3.3-2.7,5.9-5.2,7.9-7.5c-5.5-3.5-9.8-4.6-12.2-5C56.1,19.5,54.5,20.2,52.8,20.9z"/>
	<path class="st0" d="M23.2,35.7c-5.5,2.8-9.7,5.1-11.1,5.8c0.3,0,0.6,0,0.9,0c2.6,0.1,5.2,1.3,7.1,3.2c3.5,3.5,4.2,8.7,1.9,12.4
		c2.4-1.5,11.4-7.3,20.3-13C37,37.6,27.9,36,23.2,35.7z"/>
	<path class="st0" d="M7.5,41.3c0,0-5.1-8.6,2.6-12.9c8.5-4.8,8.2-8.9,6.5-11.4c-2.7-4-9.7-4.2-12.1-8.4c-2.3-4.2-1-8.3-1-8.3
		S0.1,2.8,1.7,8.6c1.6,5.8,6.8,8.8,6.7,11.7c-0.2,7-7.1,7.4-6.2,13C3.1,38.9,7.5,41.3,7.5,41.3z"/>
	<path class="st0" d="M19.4,45.5c-1.8-1.8-4.1-2.8-6.4-2.9c-0.2,0-0.3,0-0.5,0c-0.1,0-0.3,0-0.4,0c-2,0.1-3.9,0.9-5.3,2.3
		c-1.6,1.6-2.4,3.7-2.3,6.1c0,0.2,0,0.4,0.1,0.6c0.4-0.2,0.7-0.1,1.2,0.2c0.5,0.3,0.2,1.2,0,1.4c-0.2,0.2-0.5,0.1-0.9-0.1
		c0.4,1.4,1.1,2.7,2,3.8c0.1-0.4,0.9-0.8,1.6-0.9c0.7-0.2,0.7,0.4,0.9,0.9c0.2,0.5-0.3,0.8-0.4,1.1c0,0.2,0.5,0.9,0.9,1.4
		c1.3,0.7,2.6,1.1,4,1.1c0.3,0,0.6,0,0.9,0c0-0.4-0.1-2,0.4-2.3c0.6-0.4,1.3,0.2,1.6,0.8c0.2,0.4,0.1,0.8,0.1,1.2
		c1.2-0.4,2.2-1,3.1-1.9c0.4-0.4,0.7-0.7,0.9-1.1C23.2,53.5,22.6,48.7,19.4,45.5z M8.4,49.6c0.3,0,0.7,0.6,0.6,0.8
		c-0.1,0.2-0.8,0.7-0.9,0.3C8,50.3,8.4,49.6,8.4,49.6z M9,53.8c-0.3,0.4-1,0.7-1.1,0.4c-0.1-0.3-0.2-1-0.2-1
		c0.3-0.2,0.5-1.3,0.8-0.9C8.9,52.7,9.3,53.4,9,53.8z M19.5,52.1c0,0,0.7-0.3,0.9-0.1c0.2,0.1,0.1,0.6,0,0.9
		c-0.1,0.4-1.1,0.7-1.5,0.5C18.6,53.2,19,52.6,19.5,52.1z M16.1,45.1c0.3-0.3,1.2-0.2,1.9,0s0.4,0.7,0.3,1.2s-0.7,0.5-0.9,0.7
		s0.3,2.1,0,2.2c-0.3,0.1-1.4-1-1.5-1.5S15.8,45.4,16.1,45.1z M11.7,45.4c0-0.5,0.4-0.8,0.6-1.3c0,0,0.2-0.2,0.6-0.2
		c0.1,0,0.2,0,0.3,0c0.4,0.1,0.2,0.3,0.1,0.6c-0.1,0.1-0.1,0.3-0.1,0.5c0,0.6-0.6,1.2-1.2,1.4C11.4,46.5,11.7,45.9,11.7,45.4z
		 M11.7,50.3c-0.3-0.3,0.5-1.1,0.9-1.3c0,0,0.6-0.1,1.1-0.1c0.5,0,0,0.5-0.4,0.8C13,49.9,12,50.6,11.7,50.3z M14.4,55.4
		c-0.2,0.2-0.6,0.1-1.1-0.2c-0.4-0.3-0.7-1.1-0.3-1.4c0.4-0.3,0.8-0.2,1.3,0.2S14.6,55.2,14.4,55.4z M20.4,56.1
		c-0.3,0.1-0.7,0-0.7-0.8c0-0.2,0-0.3,0.1-0.4c0.1-0.5,0.6-0.6,1.1-0.8c0,0,0.6,0,0.7,0.2c0.1,0.2,0.3,0.7,0.2,0.9
		C21.7,55.3,20.8,55.9,20.4,56.1C20.4,56.1,20.4,56.1,20.4,56.1z"/>
</g>
</svg>
