<?xml version="1.0" encoding="utf-8"?>
<!-- Generator: Adobe Illustrator 25.0.1, SVG Export Plug-In . SVG Version: 6.00 Build 0)  -->
<svg version="1.1" id="Ebene_1" xmlns="http://www.w3.org/2000/svg" xmlns:xlink="http://www.w3.org/1999/xlink" x="0px" y="0px"
	 viewBox="0 0 1188.3 736.1" style="enable-background:new 0 0 1188.3 736.1;" xml:space="preserve">
<style type="text/css">
	.st0{fill:#E2E2E3;}
	.st1{fill:#D9D9D9;}
	.st2{fill:#00CBD5;}
	.st3{fill:none;stroke:#00CBD5;stroke-width:2;stroke-miterlimit:10;stroke-dasharray:3,3;}
	.st4{fill:#131212;}
	.st5{fill:#FFFFFF;}
	.st6{fill:#FFFFFF;stroke:#00CBD5;stroke-width:1.3539;stroke-miterlimit:10.0001;}
	.st7{enable-background:new    ;}
</style>
<path class="st0" d="M86.3,3.9c5,2.2,10.1-1.5,17.2-1.5s17.4-0.4,22.2-0.2c4.8,0.2,8.6-2.7,9.9-2.1c1.3,0.6-0.8,6.5,0.8,6.7
	c1.7,0.2,1.3-2.7,4.6-1.3c3.4,1.5,1.5,4,3.1,5.9c1.7,1.9,4.4,5,7.1,6.9c2.7,1.9,4.2,4.2,5.2,8.8s3.1,4.8,3.8,6.9
	c0.6,2.1,0,3.1,2.5,4.8s3.8,1.7,4,4s1.3,5.7,4,9.2s3.8,0.6,5.5,3.4c1.7,2.7-0.2,5.7,1.5,7.3c1.7,1.7,5.7,1.3,6.5,3.6
	s-0.2,6.5,2.5,6.7s6.1-0.6,7.3-2.5c1.3-1.9,1.3,0,1.9,1.5c0.6,1.5,3.1,3.8,4.4,2.5s1.9-6.9,3.1-5.2c1.3,1.7-0.4,4.4,2.3,4.2
	c2.7-0.2,6.3-5.5,8.2-5.7s0.2,2.1,2.5,1.9S224,63,226,64c2.1,1-0.2,6.3,2.7,6.7c2.9,0.4,2.5-3.1,6.5-1.7c4,1.5,1.3,5.5,3.8,6.1
	s10.9,0.6,14.3-0.8c3.4-1.4,2.5-4.6,4.8-4.4s1.5,3.4,3.1,3.6c1.7,0.2,5.2-3.4,8-1.5c2.7,1.9,2.1,6.7,4.4,7.6
	c2.3,0.8,3.4,3.1,8.4,4.8c5,1.7,7.8,2.9,11.5,2.1c3.8-0.8,2.5-3.4,4.6-3.8s4,2.5,6.5,3.1s9,0.4,12,2.1c2.9,1.7,4,3.8,2.5,5.2
	c-1.5,1.5-2.7,4.2-2.5,6.1s-1.3,7.3,0,8.4c1.3,1,4,2.9,5.2,4.8c1.3,1.9-0.2,4.4,2.5,5.5c2.7,1,4.2,1.9,4.2,5s2.1,12.2,3.4,15.1
	c1.3,2.9,4.6,5.2,5.5,7.1c0.8,1.9-0.8,2.9-0.2,4c0.6,1,6.1,8.8,10.5,9.2s13.6-2.1,17,0.4s5.2,9,4.2,14.7s-4,10.5-4.6,13.4
	s0.2,6.3,2.5,8s5.2,2.1,9.2,0.8s5.7-1.5,7.1-0.4c1.5,1,3.6-1.3,6.5,0.2s4,1.7,2.9,4s0,8.2-0.2,10.3s-3.4,3.6-3.1,6.3
	c0.2,2.7,1.5,5.5,5,6.7c3.6,1.3,6.3,2.7,5.9,4.8s-2.1,4.4-0.4,6.5s5.7,2.1,6.1,4s-2.5,6.9,0,9.4s4.2,4.4,3.1,5.9s-2.9,3.6-2.3,6.3
	c0.6,2.7,4.4,4.6,5.2,6.9c0.8,2.3-2.5,5.7-1.9,7.6s5.9,3.6,6.3,5c0.4,1.5-7.8,2.9-8,5.2c-0.2,2.3,1.5,3.8-0.2,8s-6.5,10.7-8.2,13.8
	c-1.7,3.1-8.6,19.7-7.6,23.1s5,4.6,10.3,3.8c5.2-0.8,0.8,2,0.5,4.2s2,2.2,2.2,3.6c0.3,1.4-3.1,4.2-3.1,5.9s2.5,4.5,2.8,6.2
	s-2,1.7-1.7,3.9c0.3,2.2,3.6,2.8,4.2,5.3s1.1,4.8-2.8,6.4c-3.9,1.7-7.6,2-7.6,5.9s2.8,6.7,7.3,7.3c4.5,0.6,9.2-2,10.3,0
	s-1.4,3.6-0.6,5.6s3.6,5.3,1.4,7s-5,3.9-8.1,3.6s-8.7,1.1-8.7,3.1s2.8,2.5,3.1,4.2c0.3,1.7-3.4,5-3.1,7s7.8,2.5,10.9,3.1
	s2.8,5.6-1.1,6.7s-9.8,4.2-9.2,10.1c0.6,5.9,2.2,14,3.4,20.1s-1.1,12,0.3,17.3s9.2,19,11.7,22.7c2.5,3.6,1.1,9.2-0.6,14
	s-4.2,18.7-5.3,24.1c-1.1,5.3,0.3,5.9,0.6,8.4c0.3,2.5-5,2.2-4.8,4.2s4.8,2.5,4.8,3.9s-3.6,1.1-3.6,3.1s5.3,4.5,5.3,5.6
	s-4.2,4.8-2.8,8.4c1.4,3.6-2.8,3.9-6.4,5.9s-6.4,4.5-5,6.2s0.3,5.3-0.8,6.4c-1.1,1.1,0.3,4.5-2,10.3c-2.2,5.9-2,17.1-2,20.7
	s0,9.2-7,13.4s-10.6,12-19.6,11.7c-8.9-0.3-15.7-3.4-19.3-0.8c-3.6,2.5-7.3,2.5-10.6-1.7c-3.4-4.2-18.2-3.6-22.4-0.8
	c-4.2,2.8-5.3,8.9-6.7,15.7c-1.4,6.7-2.2,12.6-7.3,14.8s-15.9,2.8-19.3,7.3s-2.5,7.6-2.2,9.5c0.3,2-3.4,6.4-8.1,7.3
	c-4.8,0.8-5.9-0.3-8.9,1.1s-10.3,5-17.1,4.5c-6.7-0.6-12.4-1.2-18.3-3.9c-5.9-2.7-9-4.2-12.4-4s-6.5-3.1-4-4
	c2.5-0.8,12.6,2.3,14.1,1.3s3.6-9.2,6.3-13s3.6-14.3,0.2-17c-3.4-2.7-15.9-9.4-16.6-15.7s-1.7-16.6-4.4-21.8s-3.6-13.6-0.8-22
	c2.7-8.4,5.5-26.2-0.6-30.8s-20.1-9.6-21-15.3c-0.8-5.7,4.2-21,2.1-25.4c-2.1-4.4-12.4-9.6-10.5-20.8c1.9-11.1,5.2-12.8,5-18.7
	c-0.2-5.9,1-19.7-2.3-25c-3.4-5.2-14.3-18.5-17.4-21.6s0.4-19.5-11.1-27.3s-23.3-14.7-23.3-31.5s-0.2-15.5-3.1-20.8
	s-11.7-10.7-11.3-16.4c0.4-5.6-0.6-9.6-6.3-13.2c-5.7-3.6-13.2-9-14.5-12.8s4.2-10.1,4.4-13.4c0.2-3.4-11.7-15.7-14.9-21.2
	c-3.1-5.5-2.1-13.4-4.2-18.7c-2.1-5.2-9.6-18.7-12.6-24.1c-2.9-5.5-3.8-12.8-1.5-17.8c2.3-5,2.2-13.6-1.3-20.8
	c-3.5-7.1-9.8-14.9-9.2-18s1.7-4.6-1.5-8.4c-3.1-3.8-9.2-12.6,0.8-18.7s14.7-6.9,20.8-16.4c6.1-9.4,2.7-8.2,5.2-14.5
	s6.1-11.7,3.6-19.3c-2.5-7.6-4.4-13-12-12.6s-12,2.5-17,1s-8.4-9.2-1.3-11.5s13.6,0.2,17.2-4.4s6.9-11.5,3.4-15.5s-3.4-4.2-5-4.8
	c-1.7-0.6,0.6-3.1,2.1-4.6s-1-4.8-2.3-8C67.2,41,72.8-2,86.3,3.9z"/>
<path class="st1" d="M198.8,124.2c-12.3,7.3-25.6,16-29.3,27.6s-8.3,25.6-6,36.2c2.3,10.6,9.6,22.9,15,28.9c5.3,6,12,7.3,14,18.3
	s7.6,22.3,13.6,29.9s8.3,10.6,7.6,14.6s-2.3,8.3,4.3,14.6c6.7,6.3,4.7,3.3,6.7,6.3s5.3,5.3,9.6,6.3s8.3,4.7,11.6,5s13.6-4,16.3-5
	s6-10.3,15.3-16s56.9-37.2,61.5-43.9c4.7-6.7,8-21.6,9-24.3s-0.7-5-4.3-8c-3.7-3-18.3-15-22.6-17.6c-4.3-2.7-9.6-11.6-15.3-17
	c-5.7-5.3-16-19-21.6-25.6c-5.7-6.7-8-15-8.3-18.6c-0.3-3.7-2.3-5.3-5.7-8.3s-11.5-15.6-20-16.6c-8.6-1-29.5,1.7-35.5,4
	C208.8,117.5,198.8,124.2,198.8,124.2z"/>
<path class="st1" d="M366.1,225.3c-0.2-12.7,4.7-22.9,8.3-10c3.7,13,12.3,28.9,17,35.9c4.7,7,6.3,20.3,4.3,26.9
	c-2,6.7-2.7,12-9.6,14c-7,2-9.8,0-11.6,5.7c-1.7,5.1,2.3,6.3,3,8.6c0.7,2.3-0.3,6.7-4,8.3c-3.7,1.7-2,8.4-3.4,13.1
	s-5.9,11.9-13.6,20.7c-7.6,8.8-12,13.1-13.6,15.1c-1.7,2-4,4.7-10.3,5.3c-6.3,0.7-15.6,0.8-18.8,7c-2.5,4.8-8.8,17-9.8,19.3
	s-7.8,2.2-11.9,2.7s-8.6-1.8-12.1,0s-8.4,5.5-10.6,8.2s-12,4.9-9.3-3.3c2.7-8.2,5.3-11.7,5.3-14.6s0.9-5.5-0.2-9.3s-2-7.8,3.1-17.3
	s2.9-12.6,6.2-16.4s22.8-37,29.5-46.6s18.4-18.8,25.7-23.7c7.3-4.9,24.4-13.5,30.6-20.2S366.1,225.3,366.1,225.3z"/>
<path class="st0" d="M783.8,298.5c4.2-6.7,12.6-14.6,14.4-18.2s-0.4-4.7,4.9-7.5s7.8-3.3,9.1-4.7c1.3-1.3,2.9-0.7,3.8,0
	c0.9,0.7,2-2.9,5.8-3.3s3.1-4,5.8-3.5s4.9-1.9,10.2,0c5.3,1.8,11.5,4.9,17.7,9.3c0,0,9.5,13.9,19.2,20.8c9.6,7,8.3,1.6,15,7.1
	s5.7,6.5,4.3,9.2c-1.3,2.7,3.7,4.7,5.3,6s1,3.7-2,4.3c-3,0.7-4.3,4.7-1.3,5.7s4.7,4,6.7,8s8,9.3,8,12.6c0,3.3-1.7,12.3,3.7,20.3
	c5.3,8,5.7,9,12,21s25.3,43.9,36.9,55.9c11.6,12,12.6,13.6,19,17c6.3,3.3,8,0.7,14.3,4.7s21.6,16,25.9,19.6c4.3,3.7,5.7,5.7,9.3,3.7
	c3.7-2,7-1.3,7.6,3c0.7,4.3,0.7,8.5,6.3,8.1s7,0.9,12.3,5.9s9.3,12,17.3,8s9.6-2.3,12,1.2c2.3,3.5,4,3.8,9.3,11.1
	s6.7,12.3,15.3,15.3s12,0.3,13.6-2c1.7-2.3,4.7-1.3,4,0.7s-1.1,6.3,0.1,6s1.6-2,3.9,0s1,7,2.7,8.6s3.7,1.3,6,1.3s3,2,2,4.3
	s-1.4,4.5,0.4,5.4c1.9,0.9,3.7,2.7,1.9,4.4c-1.8,1.8-0.9,5.8-4.2,14c-3.3,8.2-6,12-7.8,13.5c-1.8,1.6-1.8,1.6-2.7,5.3
	c-0.9,3.8-3.5,7.5-7.3,12.4s-9.5,9.5-12.4,15.1c-2.9,5.5-6.9,12-7.8,13.5c-0.9,1.6-2.7,1.8-3.8,0.9s-1.6-0.2-3.1,3.8
	c-1.6,4-1.6,8.4-6.9,13.3c-5.3,4.9-8.6,8.2-19.3,16c-10.6,7.8-25.7,21.3-30.8,23.3s-7.5,2.2-9.8,1.8c-2.2-0.4-3.8-1.6-5.5,1.6
	c-1.8,3.1-8.9,18.2-10.9,20.4s-3.5,2-4.4,1.3s-1.6,0.4-4.4,1.8c-2.9,1.3-10.2,5.8-13.5,7.1s-7.8,1.3-10.2,2s-8.6,3.1-13.3,0
	s-3.5-9.1-5.8-12.4c-2.2-3.3-4-10.6-6.2-10.9c-2.2-0.2,0-3.5-4.2-4.9c-4.2-1.3-13.5-2.4-16-3.8c-2.4-1.3-12-0.4-15.7,0.7
	s-4.9,1.1-9.1-0.9c-4.2-2-9.1-2.2-18.8-6.4c-9.8-4.2-22.2-6.9-29.7-7.8s-14.9-5.5-18.8-5.8s-6.7-1.8-2.9-4.4
	c3.8-2.7,3.4-13.3,1.6-16c-3.8-5.5-24.2-14.3-29.8-17.1c-0.6-0.3-0.6-1.1-0.1-1.5l0.8-0.6l-3.3-7.9c-0.3-0.7,0-1.5,0.6-1.9l1.9-1.2
	c0.7-0.4,1.7-0.2,2.1,0.5l1.5,2.3c0.3,0.5,0.9,0.7,1.5,0.4l0,0c0.6-0.3,0.8-1,0.5-1.6l-3.1-5.4l-3.4,1.2c-0.5,0.2-1.1,0-1.4-0.5
	l-0.5-0.9c-0.3-0.6,0-1.4,0.6-1.7l2.7-0.9c0.8-0.3,1.4-1,1.5-1.9c0.2-2.5,0-7.6-3.1-10.7c-4.3-4.2-6-6.5-7.3-10.1s-1.2-6.2-2.2-7.8
	s-2-3.5-1.5-5.3s0.5-5-0.5-7.1s-3.2-8.8-2.8-14.5c0.3-5.7,2.3-15.6,2.5-18.6s-3-9.5-1.5-16.1c1.5-6.7,2-7.6,0-12.5
	c-2-4.8,0.2-15.3-0.5-19.5s-7-6.7-7-14s3.8-10.1,4.3-16c0.5-5.8-3.5-16.1-3.5-18.1s1.7-5,0.5-7.8s-2.5-5.8-2.5-5.8s1.5-4,0.8-9.3
	s-4.2-14.5-3.7-16s0-3.5,1-8.3s-1.3-8.6-0.5-12.6s2.7-15.5,2.2-18.8s-4.8-7.6-5.5-12.1s-0.5-9-2.3-12.8s-2.8-10.8-1.7-16.5
	s-3.8-22.9-2.3-25.8C779,304.4,783.8,298.5,783.8,298.5z"/>
<g id="Schrift">
	<g>
		<path d="M165.3,260.2c0.8,0,1.6,0.1,2.3,0.4s1.3,0.7,1.9,1.2c0.5,0.5,0.9,1.2,1.2,2s0.4,1.7,0.4,2.8c0,0.9-0.1,1.8-0.4,2.6
			c-0.2,0.8-0.6,1.5-1.1,2.1s-1.1,1-1.8,1.4c-0.7,0.3-1.6,0.5-2.6,0.5h-5.5v-12.9h5.6V260.2z M165.1,270.7c0.4,0,0.8-0.1,1.2-0.2
			s0.7-0.4,1-0.7c0.3-0.3,0.5-0.7,0.7-1.2s0.3-1.1,0.3-1.8c0-0.6-0.1-1.2-0.2-1.8s-0.3-1-0.6-1.3c-0.3-0.4-0.7-0.7-1.1-0.9
			c-0.5-0.2-1.1-0.3-1.8-0.3h-2v8.1L165.1,270.7L165.1,270.7z"/>
		<path d="M174.8,264c0.3-0.8,0.7-1.5,1.2-2.2c0.5-0.6,1.2-1.1,2-1.4s1.7-0.5,2.7-0.5s1.9,0.2,2.7,0.5s1.4,0.8,2,1.4
			c0.5,0.6,1,1.3,1.2,2.2c0.3,0.8,0.4,1.7,0.4,2.7c0,0.9-0.1,1.8-0.4,2.6c-0.3,0.8-0.7,1.5-1.2,2.1s-1.2,1.1-2,1.4s-1.7,0.5-2.7,0.5
			s-1.9-0.2-2.7-0.5s-1.4-0.8-2-1.4c-0.5-0.6-1-1.3-1.2-2.1c-0.3-0.8-0.4-1.7-0.4-2.6C174.3,265.7,174.5,264.9,174.8,264z
			 M177.4,268.3c0.1,0.5,0.3,1,0.6,1.4s0.6,0.7,1.1,1c0.4,0.2,1,0.4,1.6,0.4s1.2-0.1,1.6-0.4c0.4-0.2,0.8-0.6,1.1-1s0.5-0.9,0.6-1.4
			s0.2-1,0.2-1.6s-0.1-1.1-0.2-1.6c-0.1-0.5-0.3-1-0.6-1.4s-0.6-0.7-1.1-1c-0.4-0.2-1-0.4-1.6-0.4s-1.2,0.1-1.6,0.4
			c-0.4,0.2-0.8,0.6-1.1,1s-0.5,0.9-0.6,1.4s-0.2,1.1-0.2,1.6C177.2,267.2,177.2,267.8,177.4,268.3z"/>
		<path d="M194.7,260.2l3,8.8l0,0l2.8-8.8h4v12.9h-2.6V264l0,0l-3.1,9.1h-2.2l-3.2-9l0,0v9h-2.6v-12.9H194.7z"/>
		<path d="M211.7,260.2v12.9h-2.8v-12.9H211.7z"/>
		<path d="M218.7,260.2l5.4,8.6l0,0v-8.6h2.6v12.9H224l-5.3-8.6l0,0v8.6h-2.6v-12.9H218.7z"/>
		<path d="M233.9,260.2v12.9h-2.8v-12.9H233.9z"/>
		<path d="M246.4,263.7c-0.2-0.3-0.4-0.5-0.6-0.7s-0.5-0.4-0.9-0.5s-0.7-0.2-1-0.2c-0.6,0-1.2,0.1-1.6,0.4c-0.4,0.2-0.8,0.6-1.1,1
			s-0.5,0.9-0.6,1.4s-0.2,1.1-0.2,1.6s0.1,1.1,0.2,1.6s0.3,1,0.6,1.4s0.6,0.7,1.1,1c0.4,0.2,1,0.4,1.6,0.4c0.9,0,1.5-0.3,2-0.8
			s0.8-1.2,0.9-2.1h2.7c-0.1,0.8-0.3,1.5-0.6,2.2c-0.3,0.6-0.7,1.2-1.2,1.7s-1.1,0.8-1.7,1c-0.7,0.2-1.4,0.4-2.2,0.4
			c-1,0-1.9-0.2-2.7-0.5s-1.4-0.8-2-1.4c-0.5-0.6-1-1.3-1.2-2.1c-0.3-0.8-0.4-1.7-0.4-2.6c0-1,0.1-1.9,0.4-2.7
			c0.3-0.8,0.7-1.5,1.2-2.2c0.5-0.6,1.2-1.1,2-1.4s1.7-0.5,2.7-0.5c0.7,0,1.4,0.1,2,0.3c0.6,0.2,1.2,0.5,1.7,0.9s0.9,0.9,1.2,1.4
			c0.3,0.6,0.5,1.2,0.6,2h-2.7C246.7,264.2,246.6,263.9,246.4,263.7z"/>
		<path d="M259.7,260.2l4.8,12.9h-2.9l-1-2.9h-4.8l-1,2.9H252l4.9-12.9H259.7z M259.9,268.1l-1.6-4.7l0,0l-1.7,4.7H259.9z"/>
	</g>
	<g>
		<path class="st2" d="M559.7,553v5.3l5-5.3h3.5l-5,5.1l5.5,7.8h-3.5l-3.9-5.8l-1.6,1.6v4.1h-2.8V553H559.7z"/>
		<path class="st2" d="M578.1,553l4.8,12.9H580l-1-2.9h-4.8l-1,2.9h-2.8l4.9-12.9H578.1z M578.2,560.9l-1.6-4.7l0,0l-1.7,4.7H578.2z
			"/>
		<path class="st2" d="M592.7,553c0.6,0,1.1,0.1,1.6,0.3s0.9,0.4,1.2,0.8c0.3,0.3,0.6,0.7,0.8,1.1c0.2,0.4,0.3,0.9,0.3,1.4
			c0,0.8-0.2,1.4-0.5,2s-0.8,1-1.6,1.3l0,0c0.3,0.1,0.6,0.2,0.9,0.4c0.2,0.2,0.4,0.4,0.6,0.7c0.1,0.3,0.2,0.6,0.3,0.9
			c0.1,0.3,0.1,0.6,0.1,1c0,0.2,0,0.4,0,0.7s0,0.6,0.1,0.8c0,0.3,0.1,0.6,0.1,0.8c0.1,0.3,0.2,0.5,0.3,0.7h-2.8
			c-0.2-0.4-0.3-0.9-0.3-1.5s-0.1-1.1-0.2-1.6c-0.1-0.7-0.3-1.2-0.6-1.5s-0.8-0.5-1.5-0.5h-2.8v5h-2.8V553H592.7z M591.7,558.8
			c0.6,0,1.1-0.1,1.5-0.4c0.3-0.3,0.5-0.8,0.5-1.4c0-0.6-0.2-1.1-0.5-1.4c-0.3-0.3-0.8-0.4-1.5-0.4h-3.1v3.6L591.7,558.8
			L591.7,558.8z"/>
		<path class="st2" d="M603.4,553v12.9h-2.8V553H603.4z"/>
		<path class="st2" d="M613.8,553c0.6,0,1.2,0.1,1.7,0.2c0.5,0.1,0.9,0.3,1.3,0.5c0.4,0.2,0.6,0.6,0.8,1s0.3,0.9,0.3,1.5
			s-0.1,1.2-0.4,1.6c-0.3,0.4-0.7,0.8-1.3,1.1c0.8,0.2,1.4,0.6,1.8,1.2s0.6,1.3,0.6,2.1c0,0.6-0.1,1.2-0.4,1.7
			c-0.3,0.5-0.6,0.9-1,1.2s-0.9,0.5-1.5,0.7c-0.5,0.1-1.1,0.2-1.7,0.2h-6.2v-13H613.8z M613.4,558.2c0.5,0,0.9-0.1,1.2-0.4
			c0.3-0.2,0.5-0.6,0.5-1.2c0-0.3-0.1-0.5-0.2-0.7c-0.1-0.2-0.3-0.3-0.4-0.5s-0.4-0.2-0.6-0.2s-0.5-0.1-0.7-0.1h-2.7v3h2.9V558.2z
			 M613.6,563.7c0.3,0,0.5,0,0.8-0.1s0.5-0.1,0.7-0.3s0.3-0.3,0.5-0.5c0.1-0.2,0.2-0.5,0.2-0.8c0-0.7-0.2-1.1-0.6-1.4
			c-0.4-0.3-0.9-0.4-1.5-0.4h-3.2v3.5H613.6z"/>
		<path class="st2" d="M625,553v12.9h-2.8V553H625z"/>
		<path class="st2" d="M632.1,553v5.3l5-5.3h3.5l-5,5.1l5.5,7.8h-3.5l-3.9-5.8l-1.6,1.6v4.1h-2.8V553H632.1z"/>
	</g>
	<g>
		<path d="M852.3,558c0.6,0,1.2,0.1,1.7,0.2c0.5,0.1,0.9,0.3,1.3,0.5c0.4,0.2,0.6,0.6,0.8,1s0.3,0.9,0.3,1.5s-0.1,1.2-0.4,1.6
			c-0.3,0.4-0.7,0.8-1.3,1.1c0.8,0.2,1.4,0.6,1.8,1.2s0.6,1.3,0.6,2.1c0,0.6-0.1,1.2-0.4,1.7c-0.3,0.5-0.6,0.9-1,1.2
			s-0.9,0.5-1.5,0.7c-0.5,0.1-1.1,0.2-1.7,0.2h-6.2v-13H852.3z M851.9,563.2c0.5,0,0.9-0.1,1.2-0.4c0.3-0.2,0.5-0.6,0.5-1.2
			c0-0.3-0.1-0.5-0.2-0.7c-0.1-0.2-0.3-0.3-0.4-0.5s-0.4-0.2-0.6-0.2s-0.5-0.1-0.7-0.1h-2.6v3h2.8V563.2z M852.1,568.6
			c0.3,0,0.5,0,0.8-0.1s0.5-0.1,0.7-0.3s0.3-0.3,0.5-0.5c0.1-0.2,0.2-0.5,0.2-0.8c0-0.7-0.2-1.1-0.6-1.4c-0.4-0.3-0.9-0.4-1.5-0.4
			h-3.1v3.5H852.1z"/>
		<path d="M867.1,558l4.8,12.9H869l-1-2.9h-4.8l-1,2.9h-2.8l4.9-12.9H867.1z M867.3,565.9l-1.6-4.7l0,0l-1.7,4.7H867.3z"/>
		<path d="M881.8,558c0.6,0,1.1,0.1,1.6,0.3s0.9,0.4,1.2,0.8c0.3,0.3,0.6,0.7,0.8,1.1c0.2,0.4,0.3,0.9,0.3,1.4c0,0.8-0.2,1.4-0.5,2
			s-0.8,1-1.6,1.3l0,0c0.3,0.1,0.6,0.2,0.9,0.4c0.2,0.2,0.4,0.4,0.6,0.7c0.1,0.3,0.2,0.6,0.3,0.9c0.1,0.3,0.1,0.6,0.1,1
			c0,0.2,0,0.4,0,0.7s0,0.6,0.1,0.8c0,0.3,0.1,0.6,0.1,0.8c0.1,0.3,0.2,0.5,0.3,0.7h-2.8c-0.2-0.4-0.3-0.9-0.3-1.5s-0.1-1.1-0.2-1.6
			c-0.1-0.7-0.3-1.2-0.6-1.5s-0.8-0.5-1.5-0.5h-2.8v5H875V558H881.8z M880.8,563.8c0.6,0,1.1-0.1,1.5-0.4c0.3-0.3,0.5-0.8,0.5-1.4
			c0-0.6-0.2-1.1-0.5-1.4c-0.3-0.3-0.8-0.4-1.5-0.4h-3.1v3.6L880.8,563.8L880.8,563.8z"/>
		<path d="M895.7,558c0.6,0,1.2,0.1,1.7,0.2c0.5,0.1,0.9,0.3,1.3,0.5c0.4,0.2,0.6,0.6,0.8,1s0.3,0.9,0.3,1.5s-0.1,1.2-0.4,1.6
			c-0.3,0.4-0.7,0.8-1.3,1.1c0.8,0.2,1.4,0.6,1.8,1.2s0.6,1.3,0.6,2.1c0,0.6-0.1,1.2-0.4,1.7c-0.3,0.5-0.6,0.9-1,1.2
			s-0.9,0.5-1.5,0.7c-0.5,0.1-1.1,0.2-1.7,0.2h-6.2v-13H895.7z M895.3,563.2c0.5,0,0.9-0.1,1.2-0.4c0.3-0.2,0.5-0.6,0.5-1.2
			c0-0.3-0.1-0.5-0.2-0.7c-0.1-0.2-0.3-0.3-0.4-0.5s-0.4-0.2-0.6-0.2s-0.5-0.1-0.7-0.1h-2.6v3h2.8V563.2z M895.5,568.6
			c0.3,0,0.5,0,0.8-0.1s0.5-0.1,0.7-0.3s0.3-0.3,0.5-0.5c0.1-0.2,0.2-0.5,0.2-0.8c0-0.7-0.2-1.1-0.6-1.4c-0.4-0.3-0.9-0.4-1.5-0.4
			h-3.1v3.5H895.5z"/>
		<path d="M910.5,558l4.8,12.9h-2.9l-1-2.9h-4.8l-1,2.9h-2.8l4.9-12.9H910.5z M910.7,565.9l-1.6-4.7l0,0l-1.7,4.7H910.7z"/>
		<path d="M923.8,558c0.8,0,1.6,0.1,2.3,0.4s1.3,0.7,1.9,1.2c0.5,0.5,0.9,1.2,1.2,2s0.4,1.7,0.4,2.8c0,0.9-0.1,1.8-0.4,2.6
			s-0.6,1.5-1.1,2.1s-1.1,1-1.8,1.4c-0.7,0.3-1.6,0.5-2.6,0.5h-5.5v-13H923.8z M923.6,568.5c0.4,0,0.8-0.1,1.2-0.2s0.7-0.4,1-0.7
			s0.5-0.7,0.7-1.2s0.3-1.1,0.3-1.8c0-0.6-0.1-1.2-0.2-1.8c-0.1-0.5-0.3-1-0.6-1.3s-0.7-0.7-1.1-0.9c-0.5-0.2-1.1-0.3-1.8-0.3h-2
			v8.1h2.5V568.5z"/>
		<path d="M933.3,561.8c0.3-0.8,0.7-1.5,1.2-2.2s1.2-1.1,2-1.4c0.8-0.3,1.7-0.5,2.7-0.5s1.9,0.2,2.7,0.5s1.4,0.8,2,1.4
			s1,1.3,1.2,2.2c0.3,0.8,0.4,1.7,0.4,2.7c0,0.9-0.1,1.8-0.4,2.6c-0.3,0.8-0.7,1.5-1.2,2.1s-1.2,1.1-2,1.4c-0.8,0.3-1.7,0.5-2.7,0.5
			s-1.9-0.2-2.7-0.5s-1.4-0.8-2-1.4c-0.5-0.6-1-1.3-1.2-2.1c-0.3-0.8-0.4-1.7-0.4-2.6C932.8,563.5,933,562.6,933.3,561.8z
			 M935.8,566c0.1,0.5,0.3,1,0.6,1.4s0.6,0.7,1.1,1c0.4,0.2,1,0.4,1.6,0.4s1.2-0.1,1.6-0.4c0.4-0.2,0.8-0.6,1.1-1s0.5-0.9,0.6-1.4
			s0.2-1,0.2-1.6s-0.1-1.1-0.2-1.6c-0.1-0.5-0.3-1-0.6-1.4s-0.6-0.7-1.1-1c-0.4-0.2-1-0.4-1.6-0.4s-1.2,0.1-1.6,0.4
			c-0.4,0.2-0.8,0.6-1.1,1s-0.5,0.9-0.6,1.4s-0.2,1.1-0.2,1.6C935.7,565,935.7,565.5,935.8,566z"/>
		<path d="M951.4,567.7c0.2,0.3,0.4,0.5,0.6,0.7c0.3,0.2,0.6,0.3,0.9,0.4c0.3,0.1,0.7,0.1,1.1,0.1c0.3,0,0.5,0,0.8-0.1
			s0.6-0.1,0.8-0.2s0.5-0.3,0.6-0.5c0.2-0.2,0.3-0.5,0.3-0.8s-0.1-0.6-0.3-0.8s-0.5-0.4-0.9-0.5s-0.8-0.3-1.2-0.4
			c-0.5-0.1-0.9-0.2-1.4-0.4c-0.5-0.1-0.9-0.3-1.4-0.4c-0.5-0.2-0.9-0.4-1.2-0.7c-0.4-0.3-0.7-0.6-0.9-1s-0.3-0.9-0.3-1.5
			c0-0.7,0.1-1.2,0.4-1.7s0.7-0.9,1.1-1.2s1-0.6,1.5-0.7c0.6-0.2,1.2-0.2,1.7-0.2c0.7,0,1.3,0.1,1.9,0.2c0.6,0.2,1.2,0.4,1.6,0.7
			c0.5,0.3,0.9,0.8,1.1,1.3c0.3,0.5,0.4,1.2,0.4,1.9H956c0-0.4-0.1-0.7-0.2-1c-0.1-0.3-0.3-0.4-0.5-0.6c-0.2-0.1-0.5-0.2-0.8-0.3
			s-0.6-0.1-1-0.1c-0.2,0-0.5,0-0.7,0.1c-0.2,0-0.4,0.1-0.6,0.3c-0.2,0.1-0.3,0.3-0.5,0.5c-0.1,0.2-0.2,0.4-0.2,0.7s0,0.5,0.1,0.6
			c0.1,0.2,0.3,0.3,0.6,0.4c0.3,0.1,0.7,0.3,1.2,0.4c0.5,0.1,1.1,0.3,2,0.5c0.2,0,0.6,0.1,1,0.3c0.4,0.1,0.8,0.3,1.3,0.6
			c0.4,0.3,0.8,0.6,1.1,1.1s0.5,1.1,0.5,1.8c0,0.6-0.1,1.1-0.3,1.6s-0.6,0.9-1,1.3c-0.5,0.4-1,0.7-1.7,0.9s-1.4,0.3-2.3,0.3
			c-0.7,0-1.4-0.1-2.1-0.3s-1.3-0.4-1.8-0.8s-0.9-0.8-1.2-1.4c-0.3-0.6-0.4-1.3-0.4-2.1h2.7C951.1,567,951.2,567.4,951.4,567.7z"/>
	</g>
	<g>
		<path d="M143.1,541.8c0.8,0,1.5,0.2,2,0.6s0.7,1.1,0.7,1.9c0,0.7-0.1,1.2-0.4,1.6c-0.3,0.4-0.7,0.7-1.3,0.8l0,0
			c0.5,0.1,0.9,0.2,1.1,0.5c0.2,0.3,0.4,0.7,0.4,1.2c0,0.2,0,0.4,0,0.6s0,0.5,0,0.7c0,0.5,0,0.9,0.1,1.2s0.2,0.5,0.4,0.6v0.1H144
			c-0.1-0.1-0.2-0.3-0.2-0.5s0-0.4-0.1-0.6l-0.1-1.9c0-0.4-0.1-0.7-0.3-0.9s-0.5-0.3-0.9-0.3h-1.1v4.2h-2v-10h3.8V541.8z
			 M142.3,546.2c0.5,0,0.9-0.1,1.1-0.3s0.4-0.6,0.4-1.2c0-0.9-0.5-1.4-1.4-1.4h-1v2.9H142.3z"/>
		<path d="M147.3,546.3c0.1-0.5,0.3-0.9,0.5-1.2s0.5-0.6,0.9-0.8s0.8-0.3,1.4-0.3c0.6,0,1.1,0.1,1.4,0.2c0.4,0.2,0.7,0.4,0.9,0.8
			s0.4,0.8,0.5,1.2c0.1,0.5,0.1,1.1,0.1,1.7c0,0.6-0.1,1.2-0.2,1.7s-0.3,0.9-0.5,1.2s-0.5,0.6-0.9,0.7s-0.8,0.2-1.4,0.2
			c-0.6,0-1.1-0.1-1.4-0.2c-0.4-0.2-0.7-0.4-0.9-0.7s-0.4-0.7-0.5-1.2s-0.1-1.1-0.1-1.7C147.2,547.4,147.2,546.8,147.3,546.3z
			 M149.1,549.1c0,0.3,0.1,0.6,0.1,0.8c0.1,0.2,0.2,0.4,0.3,0.5s0.3,0.2,0.6,0.2c0.4,0,0.7-0.2,0.8-0.6s0.2-1.1,0.2-2
			s-0.1-1.6-0.2-2c-0.1-0.4-0.4-0.6-0.8-0.6c-0.2,0-0.4,0.1-0.6,0.2c-0.1,0.1-0.2,0.3-0.3,0.5s-0.1,0.5-0.1,0.8s0,0.7,0,1.1
			S149.1,548.8,149.1,549.1z"/>
		<path d="M155.8,549.6c0,0.3,0.1,0.6,0.3,0.8s0.4,0.3,0.7,0.3s0.5-0.1,0.7-0.2c0.2-0.2,0.3-0.4,0.3-0.7c0-0.2-0.1-0.4-0.2-0.6
			c-0.1-0.1-0.3-0.2-0.5-0.3l-1.4-0.5c-0.5-0.2-0.9-0.4-1.2-0.8c-0.3-0.3-0.4-0.8-0.4-1.3c0-0.3,0.1-0.6,0.2-0.9
			c0.1-0.3,0.3-0.5,0.5-0.7s0.5-0.4,0.9-0.5s0.8-0.2,1.3-0.2c0.9,0,1.5,0.2,1.9,0.6c0.4,0.4,0.6,0.9,0.6,1.6v0.3h-1.7
			c0-0.4-0.1-0.7-0.2-0.9c-0.1-0.2-0.3-0.3-0.7-0.3c-0.2,0-0.5,0.1-0.6,0.2s-0.3,0.3-0.3,0.6c0,0.2,0.1,0.4,0.2,0.5
			c0.1,0.1,0.3,0.3,0.7,0.4l1.2,0.4c0.6,0.2,1,0.5,1.3,0.8s0.4,0.8,0.4,1.4c0,0.4-0.1,0.7-0.2,1c-0.1,0.3-0.3,0.5-0.6,0.7
			c-0.2,0.2-0.5,0.3-0.9,0.4c-0.3,0.1-0.7,0.1-1.1,0.1c-0.5,0-1-0.1-1.4-0.2c-0.4-0.1-0.6-0.3-0.9-0.5s-0.4-0.5-0.4-0.7
			c-0.1-0.3-0.1-0.6-0.1-1v-0.3h1.7v0.5H155.8z"/>
		<path d="M162.6,548.9c0,0.2,0,0.4,0,0.7c0,0.2,0.1,0.4,0.2,0.6c0.1,0.2,0.2,0.3,0.3,0.4c0.1,0.1,0.3,0.1,0.4,0.1
			c0.3,0,0.6-0.1,0.7-0.3c0.1-0.2,0.3-0.6,0.3-1.1h1.7c0,0.9-0.3,1.5-0.7,2s-1.1,0.7-2,0.7c-0.7,0-1.2-0.1-1.6-0.4
			c-0.4-0.2-0.7-0.5-0.9-0.9s-0.3-0.8-0.3-1.3s-0.1-1-0.1-1.4c0-0.5,0-1,0.1-1.5s0.2-0.9,0.4-1.2c0.2-0.4,0.5-0.7,0.9-0.9
			s0.9-0.3,1.6-0.3c0.6,0,1,0.1,1.4,0.3s0.6,0.4,0.8,0.8c0.2,0.3,0.3,0.7,0.4,1.2c0.1,0.5,0.1,1,0.1,1.6v0.4h-3.8v0.5H162.6z
			 M164.5,546.4c0-0.2-0.1-0.4-0.1-0.6c-0.1-0.2-0.2-0.3-0.3-0.3c-0.1-0.1-0.3-0.1-0.5-0.1s-0.4,0-0.5,0.1s-0.2,0.2-0.3,0.3
			s-0.1,0.3-0.2,0.5c0,0.2,0,0.4,0,0.5v0.3h2C164.5,546.9,164.5,546.6,164.5,546.4z"/>
		<path d="M167.7,546.4c0-0.4,0.1-0.8,0.2-1.1c0.1-0.3,0.3-0.5,0.6-0.7c0.2-0.2,0.5-0.3,0.8-0.4c0.3-0.1,0.7-0.1,1-0.1
			c0.6,0,1,0.1,1.4,0.2c0.4,0.1,0.6,0.3,0.8,0.5s0.3,0.4,0.4,0.7c0.1,0.3,0.1,0.6,0.1,0.9v4c0,0.4,0,0.6,0,0.8s0.1,0.4,0.2,0.6h-1.8
			c-0.1-0.1-0.1-0.2-0.1-0.4c0-0.1-0.1-0.3-0.1-0.4l0,0c-0.2,0.4-0.5,0.6-0.8,0.8s-0.7,0.2-1.1,0.2c-0.3,0-0.6-0.1-0.9-0.2
			s-0.4-0.3-0.6-0.5c-0.1-0.2-0.2-0.4-0.3-0.7s-0.1-0.5-0.1-0.8c0-0.4,0-0.7,0.1-0.9c0.1-0.3,0.2-0.5,0.3-0.7
			c0.2-0.2,0.3-0.3,0.6-0.5c0.2-0.1,0.5-0.2,0.9-0.3l1.1-0.3c0.3-0.1,0.5-0.2,0.6-0.3s0.2-0.3,0.2-0.6s-0.1-0.5-0.2-0.7
			c-0.1-0.2-0.4-0.2-0.7-0.2s-0.5,0.1-0.7,0.3s-0.2,0.4-0.2,0.7v0.2L167.7,546.4L167.7,546.4z M170.8,548.3
			c-0.1,0.1-0.3,0.1-0.4,0.1c-0.4,0.1-0.7,0.2-0.8,0.4s-0.3,0.5-0.3,0.8s0.1,0.5,0.2,0.7c0.1,0.2,0.3,0.3,0.6,0.3
			c0.1,0,0.3,0,0.4-0.1c0.1,0,0.3-0.1,0.4-0.2s0.2-0.2,0.3-0.4s0.1-0.3,0.1-0.5V548C171.1,548.1,170.9,548.2,170.8,548.3z"/>
		<path d="M178.5,550.9c-0.2,0.4-0.5,0.6-0.8,0.8s-0.7,0.2-1.1,0.2c-0.6,0-1.1-0.2-1.4-0.5c-0.3-0.3-0.5-0.9-0.5-1.6v-5.6h1.9v5.2
			c0,0.4,0.1,0.7,0.2,0.8s0.3,0.2,0.6,0.2c0.7,0,1-0.4,1-1.2v-5h1.9v7.5h-1.8L178.5,550.9L178.5,550.9z"/>
	</g>
	<g>
		<path d="M4.2,128.1c0.5,0,0.9,0.1,1.3,0.3c0.3,0.2,0.6,0.4,0.8,0.7c0.2,0.3,0.4,0.6,0.5,1s0.1,0.7,0.1,1.1c0,0.5-0.1,1-0.2,1.3
			s-0.4,0.7-0.6,0.9c-0.3,0.2-0.6,0.4-1,0.5s-0.8,0.2-1.3,0.2H2.7v4h-2v-10H4.2z M3.6,132.6c0.4,0,0.7-0.1,1-0.4s0.4-0.6,0.4-1.1
			s-0.1-0.9-0.3-1.1c-0.2-0.3-0.6-0.4-1.1-0.4H2.7v3H3.6z"/>
		<path d="M7.8,132.6c0.1-0.5,0.3-0.9,0.5-1.2s0.5-0.6,0.9-0.8s0.8-0.3,1.4-0.3c0.6,0,1.1,0.1,1.4,0.2c0.4,0.2,0.7,0.4,0.9,0.7
			s0.4,0.8,0.5,1.2c0.1,0.5,0.1,1.1,0.1,1.7c0,0.6-0.1,1.2-0.2,1.7c-0.1,0.5-0.3,0.9-0.5,1.2s-0.5,0.6-0.9,0.7s-0.8,0.2-1.4,0.2
			c-0.6,0-1.1-0.1-1.4-0.2s-0.7-0.4-0.9-0.7s-0.4-0.7-0.5-1.2s-0.1-1.1-0.1-1.7C7.7,133.7,7.7,133.1,7.8,132.6z M9.6,135.4
			c0,0.3,0.1,0.6,0.1,0.8s0.2,0.4,0.3,0.5s0.3,0.2,0.6,0.2c0.4,0,0.7-0.2,0.8-0.6s0.2-1.1,0.2-2s-0.1-1.6-0.2-2s-0.4-0.6-0.8-0.6
			c-0.2,0-0.4,0.1-0.6,0.2c-0.1,0.1-0.2,0.3-0.3,0.5s-0.1,0.5-0.1,0.8s0,0.7,0,1.1S9.6,135.1,9.6,135.4z"/>
		<path d="M16.8,130.6v1l0,0c0.2-0.4,0.4-0.7,0.7-0.9s0.6-0.3,1-0.3c0.1,0,0.1,0,0.2,0s0.1,0,0.2,0v1.8c-0.1,0-0.2,0-0.3,0
			c-0.1,0-0.2,0-0.3,0c-0.2,0-0.3,0-0.5,0.1c-0.2,0-0.3,0.1-0.5,0.2c-0.1,0.1-0.3,0.2-0.3,0.4c-0.1,0.2-0.1,0.4-0.1,0.6v4.5H15v-7.5
			L16.8,130.6L16.8,130.6z"/>
		<path d="M22.2,128.4v2.2h1.1v1.3h-1.1v4.1c0,0.3,0,0.5,0.1,0.6s0.3,0.2,0.6,0.2c0.1,0,0.1,0,0.2,0s0.1,0,0.2,0v1.3
			c-0.2,0-0.4,0-0.6,0s-0.4,0-0.6,0c-0.4,0-0.7,0-0.9-0.1c-0.2-0.1-0.4-0.2-0.5-0.3c-0.1-0.2-0.2-0.4-0.3-0.6s-0.1-0.6-0.1-1v-4.3
			h-1v-1.3h1v-2.2h1.9V128.4z"/>
		<path d="M25.7,135.9c0,0.3,0.1,0.6,0.3,0.8s0.4,0.3,0.7,0.3c0.3,0,0.5-0.1,0.7-0.2c0.2-0.1,0.3-0.4,0.3-0.7c0-0.2-0.1-0.4-0.2-0.6
			c-0.1-0.1-0.3-0.2-0.5-0.3l-1.4-0.5c-0.5-0.2-0.9-0.5-1.2-0.8s-0.4-0.8-0.4-1.3c0-0.3,0.1-0.6,0.2-0.9s0.3-0.5,0.5-0.7
			s0.5-0.4,0.9-0.5s0.8-0.2,1.3-0.2c0.9,0,1.5,0.2,1.9,0.6c0.4,0.4,0.6,0.9,0.6,1.6v0.3h-1.7c0-0.4-0.1-0.7-0.2-0.9
			s-0.3-0.3-0.7-0.3c-0.2,0-0.5,0.1-0.6,0.2c-0.2,0.1-0.3,0.3-0.3,0.6c0,0.2,0.1,0.4,0.2,0.5s0.3,0.3,0.7,0.4l1.2,0.4
			c0.6,0.2,1,0.5,1.3,0.8s0.4,0.8,0.4,1.4c0,0.4-0.1,0.7-0.2,1s-0.3,0.5-0.6,0.7c-0.2,0.2-0.5,0.3-0.9,0.4c-0.3,0.1-0.7,0.1-1.1,0.1
			c-0.5,0-1-0.1-1.4-0.2s-0.6-0.3-0.9-0.5s-0.4-0.5-0.4-0.7s-0.1-0.6-0.1-1v-0.3h1.7L25.7,135.9L25.7,135.9z"/>
		<path d="M32.6,130.6v0.8l0,0c0.2-0.3,0.5-0.6,0.8-0.7c0.3-0.1,0.7-0.2,1.1-0.2c0.4,0,0.8,0.1,1.1,0.3s0.5,0.5,0.6,0.9l0,0
			c0.1-0.4,0.4-0.7,0.7-0.9s0.7-0.3,1.2-0.3c0.6,0,1.1,0.2,1.4,0.6s0.5,0.9,0.5,1.7v5.5h-1.9V133c0-0.3-0.1-0.6-0.2-0.7
			c-0.1-0.2-0.3-0.3-0.6-0.3s-0.6,0.1-0.7,0.3c-0.2,0.2-0.3,0.5-0.3,1v5h-1.9V133c0-0.3-0.1-0.6-0.2-0.7c-0.1-0.2-0.3-0.3-0.6-0.3
			s-0.6,0.1-0.7,0.3c-0.2,0.2-0.3,0.5-0.3,1v5h-1.9v-7.5h1.9V130.6z"/>
		<path d="M41.6,132.6c0.1-0.5,0.3-0.9,0.5-1.2s0.5-0.6,0.9-0.8s0.8-0.3,1.4-0.3c0.6,0,1.1,0.1,1.4,0.2c0.4,0.2,0.7,0.4,0.9,0.7
			s0.4,0.8,0.5,1.2c0.1,0.5,0.1,1.1,0.1,1.7c0,0.6-0.1,1.2-0.2,1.7c-0.1,0.5-0.3,0.9-0.5,1.2s-0.5,0.6-0.9,0.7s-0.8,0.2-1.4,0.2
			c-0.6,0-1.1-0.1-1.4-0.2s-0.7-0.4-0.9-0.7s-0.4-0.7-0.5-1.2s-0.1-1.1-0.1-1.7C41.4,133.7,41.5,133.1,41.6,132.6z M43.4,135.4
			c0,0.3,0.1,0.6,0.1,0.8s0.2,0.4,0.3,0.5s0.3,0.2,0.6,0.2c0.4,0,0.7-0.2,0.8-0.6s0.2-1.1,0.2-2s-0.1-1.6-0.2-2s-0.4-0.6-0.8-0.6
			c-0.2,0-0.4,0.1-0.6,0.2c-0.1,0.1-0.2,0.3-0.3,0.5s-0.1,0.5-0.1,0.8s0,0.7,0,1.1S43.4,135.1,43.4,135.4z"/>
		<path d="M52.5,137.2c-0.2,0.4-0.5,0.6-0.8,0.8s-0.7,0.2-1.1,0.2c-0.6,0-1.1-0.2-1.4-0.5c-0.3-0.3-0.5-0.9-0.5-1.6v-5.6h1.9v5.2
			c0,0.4,0.1,0.7,0.2,0.8s0.3,0.2,0.6,0.2c0.7,0,1-0.4,1-1.2v-5h1.9v7.5h-1.8L52.5,137.2L52.5,137.2z"/>
		<path d="M58.3,128.4v2.2h1.1v1.3h-1.1v4.1c0,0.3,0,0.5,0.1,0.6s0.3,0.2,0.6,0.2c0.1,0,0.1,0,0.2,0c0.1,0,0.1,0,0.2,0v1.3
			c-0.2,0-0.4,0-0.6,0c-0.2,0-0.4,0-0.6,0c-0.4,0-0.7,0-0.9-0.1s-0.4-0.2-0.5-0.3c-0.1-0.2-0.2-0.4-0.3-0.6s-0.1-0.6-0.1-1v-4.3h-1
			v-1.3h1v-2.2h1.9V128.4z"/>
		<path d="M62.3,128.1v3.2l0,0c0.4-0.6,1-1,1.8-1c0.6,0,1.1,0.2,1.4,0.5s0.5,0.9,0.5,1.6v5.6h-1.9v-5.2c0-0.4-0.1-0.7-0.2-0.8
			c-0.1-0.2-0.3-0.2-0.6-0.2c-0.7,0-1,0.4-1,1.2v5h-1.9v-10L62.3,128.1L62.3,128.1z"/>
	</g>
	<g>
		<path d="M250.4,55.6c-0.2-0.3-0.5-0.5-0.9-0.5c-0.3,0-0.5,0.1-0.6,0.2c-0.2,0.1-0.3,0.4-0.4,0.7c-0.1,0.3-0.2,0.7-0.2,1.2
			s-0.1,1.1-0.1,1.8c0,0.8,0,1.4,0.1,1.8s0.1,0.8,0.2,1.1s0.2,0.4,0.4,0.5s0.4,0.1,0.6,0.1c0.2,0,0.3,0,0.5-0.1s0.3-0.2,0.4-0.4
			c0.1-0.2,0.2-0.4,0.3-0.8c0.1-0.3,0.1-0.8,0.1-1.3h2c0,0.5,0,1.1-0.1,1.5c-0.1,0.5-0.2,0.9-0.5,1.3c-0.2,0.4-0.6,0.6-1,0.9
			c-0.4,0.2-1,0.3-1.6,0.3c-0.8,0-1.4-0.1-1.8-0.4c-0.4-0.2-0.8-0.6-1-1c-0.2-0.5-0.4-1-0.5-1.6s-0.1-1.3-0.1-2.1s0-1.5,0.1-2.1
			s0.2-1.2,0.5-1.6c0.2-0.5,0.6-0.8,1-1.1s1.1-0.4,1.8-0.4s1.3,0.1,1.7,0.4c0.4,0.2,0.7,0.5,0.9,0.9s0.3,0.7,0.4,1.2
			c0.1,0.4,0.1,0.8,0.1,1.2h-2C250.6,56.5,250.6,56,250.4,55.6z"/>
		<path d="M254.1,58.5c0-0.4,0.1-0.8,0.2-1.1c0.1-0.3,0.3-0.5,0.6-0.7c0.2-0.2,0.5-0.3,0.8-0.4c0.3-0.1,0.7-0.1,1-0.1
			c0.6,0,1,0.1,1.4,0.2c0.4,0.1,0.6,0.3,0.8,0.5c0.2,0.2,0.3,0.5,0.4,0.7c0.1,0.3,0.1,0.6,0.1,0.9v4c0,0.4,0,0.6,0,0.8
			s0.1,0.4,0.2,0.6h-1.8c-0.1-0.1-0.1-0.2-0.1-0.4s-0.1-0.3-0.1-0.4l0,0c-0.2,0.4-0.5,0.6-0.8,0.8s-0.7,0.2-1.1,0.2
			c-0.3,0-0.6-0.1-0.9-0.2s-0.4-0.3-0.6-0.5c-0.1-0.2-0.2-0.4-0.3-0.7s-0.1-0.5-0.1-0.8c0-0.4,0-0.7,0.1-0.9s0.2-0.5,0.3-0.7
			c0.2-0.2,0.3-0.3,0.6-0.5c0.2-0.1,0.5-0.2,0.9-0.3l1.1-0.3c0.3-0.1,0.5-0.2,0.6-0.3s0.2-0.3,0.2-0.6s-0.1-0.5-0.2-0.7
			s-0.4-0.2-0.7-0.2c-0.3,0-0.5,0.1-0.7,0.3s-0.2,0.4-0.2,0.7v0.2L254.1,58.5L254.1,58.5z M257.2,60.3c-0.1,0.1-0.3,0.1-0.4,0.1
			c-0.4,0.1-0.7,0.2-0.8,0.4c-0.2,0.2-0.3,0.5-0.3,0.8s0.1,0.5,0.2,0.7c0.1,0.2,0.3,0.3,0.6,0.3c0.1,0,0.3,0,0.4-0.1
			s0.3-0.1,0.4-0.2c0.1-0.1,0.2-0.2,0.3-0.4s0.1-0.3,0.1-0.5v-1.5C257.5,60.2,257.4,60.3,257.2,60.3z"/>
		<path d="M263.1,53.9v10h-1.9v-10H263.1z"/>
		<path d="M266.8,53.7v1.7h-1.9v-1.7H266.8z M266.8,56.3v7.5h-1.9v-7.5H266.8z"/>
		<path d="M270.3,53.9V57l0,0c0.2-0.3,0.4-0.5,0.7-0.7s0.6-0.2,0.9-0.2c0.8,0,1.4,0.3,1.8,0.9c0.4,0.6,0.6,1.6,0.6,3s-0.2,2.4-0.6,3
			s-1,0.9-1.8,0.9c-0.4,0-0.7-0.1-1-0.2c-0.3-0.1-0.5-0.4-0.7-0.7l0,0v0.8h-1.8v-10h1.9V53.9z M270.5,61.9c0.1,0.4,0.4,0.6,0.8,0.6
			s0.7-0.2,0.8-0.6c0.1-0.4,0.2-1,0.2-1.9s-0.1-1.4-0.2-1.9c-0.1-0.4-0.4-0.6-0.8-0.6s-0.7,0.2-0.8,0.6c-0.1,0.4-0.2,1-0.2,1.9
			S270.4,61.5,270.5,61.9z"/>
		<path d="M277.7,53.7v1.7h-1.9v-1.7H277.7z M277.7,56.3v7.5h-1.9v-7.5H277.7z"/>
		<path d="M280.7,61.6c0,0.3,0.1,0.6,0.3,0.8s0.4,0.3,0.7,0.3c0.3,0,0.5-0.1,0.7-0.2c0.2-0.1,0.3-0.4,0.3-0.7c0-0.2-0.1-0.4-0.2-0.6
			s-0.3-0.2-0.5-0.3l-1.4-0.5c-0.5-0.2-0.9-0.5-1.2-0.8c-0.3-0.3-0.4-0.8-0.4-1.3c0-0.3,0.1-0.6,0.2-0.9c0.1-0.3,0.3-0.5,0.5-0.7
			s0.5-0.4,0.9-0.5s0.8-0.2,1.3-0.2c0.9,0,1.5,0.2,1.9,0.6c0.4,0.4,0.6,0.9,0.6,1.6v0.3h-1.7c0-0.4-0.1-0.7-0.2-0.9
			s-0.3-0.3-0.7-0.3c-0.2,0-0.5,0.1-0.6,0.2s-0.3,0.3-0.3,0.6c0,0.2,0.1,0.4,0.2,0.5s0.3,0.3,0.7,0.4l1.2,0.4c0.6,0.2,1,0.5,1.3,0.8
			s0.4,0.8,0.4,1.4c0,0.4-0.1,0.7-0.2,1s-0.3,0.5-0.6,0.7c-0.2,0.2-0.5,0.3-0.9,0.4c-0.3,0.1-0.7,0.1-1.1,0.1c-0.5,0-1-0.1-1.4-0.2
			c-0.4-0.1-0.6-0.3-0.9-0.5s-0.4-0.5-0.4-0.7c-0.1-0.3-0.1-0.6-0.1-1v-0.3h1.7L280.7,61.6L280.7,61.6z"/>
		<path d="M287.8,53.9v3.2l0,0c0.4-0.6,1-1,1.8-1c0.6,0,1.1,0.2,1.4,0.5s0.5,0.9,0.5,1.6v5.6h-1.9v-5.2c0-0.4-0.1-0.7-0.2-0.8
			c-0.1-0.2-0.3-0.2-0.6-0.2c-0.7,0-1,0.4-1,1.2v5h-1.9v-10h1.9V53.9z"/>
		<path d="M295.1,53.7v1.7h-1.9v-1.7H295.1z M295.1,56.3v7.5h-1.9v-7.5H295.1z"/>
		<path d="M298.4,61c0,0.2,0,0.4,0,0.7c0,0.2,0.1,0.4,0.2,0.6c0.1,0.2,0.2,0.3,0.3,0.4c0.1,0.1,0.3,0.1,0.4,0.1
			c0.3,0,0.6-0.1,0.7-0.4c0.1-0.2,0.3-0.6,0.3-1.1h1.7c0,0.9-0.3,1.5-0.7,2c-0.4,0.5-1.1,0.7-2,0.7c-0.7,0-1.2-0.1-1.6-0.3
			s-0.7-0.5-0.9-0.9c-0.2-0.4-0.3-0.8-0.3-1.3s-0.1-1-0.1-1.4c0-0.5,0-1,0.1-1.5s0.2-0.9,0.4-1.2c0.2-0.4,0.5-0.7,0.9-0.9
			s0.9-0.3,1.6-0.3c0.6,0,1,0.1,1.4,0.3s0.6,0.4,0.8,0.8c0.2,0.3,0.3,0.7,0.4,1.2s0.1,1,0.1,1.6v0.4h-3.8V61H298.4z M300.3,58.5
			c0-0.2-0.1-0.4-0.1-0.6c-0.1-0.2-0.2-0.3-0.3-0.4c-0.1-0.1-0.3-0.1-0.5-0.1s-0.4,0-0.5,0.1s-0.2,0.2-0.3,0.3
			c-0.1,0.1-0.1,0.3-0.2,0.5c0,0.2,0,0.4,0,0.5v0.3h2C300.4,58.9,300.3,58.7,300.3,58.5z"/>
	</g>
	<g>
		<path d="M411.3,431.9c0.8,0,1.5,0.2,2,0.6s0.7,1.1,0.7,1.9c0,0.7-0.1,1.2-0.4,1.6s-0.7,0.7-1.3,0.8l0,0c0.5,0.1,0.9,0.2,1.1,0.5
			s0.4,0.7,0.4,1.2c0,0.2,0,0.4,0,0.6s0,0.5,0,0.7c0,0.5,0,0.9,0.1,1.2c0.1,0.3,0.2,0.5,0.4,0.6v0.1h-2.2c-0.1-0.1-0.2-0.3-0.2-0.5
			s0-0.4-0.1-0.6l-0.1-1.9c0-0.4-0.1-0.7-0.3-0.9c-0.2-0.2-0.5-0.3-0.9-0.3h-1.1v4.2h-2v-10h3.9V431.9z M410.5,436.2
			c0.5,0,0.9-0.1,1.1-0.3s0.4-0.6,0.4-1.2c0-0.9-0.5-1.4-1.4-1.4h-1v2.9H410.5z"/>
		<path d="M415.5,436.4c0.1-0.5,0.3-0.9,0.5-1.2s0.5-0.6,0.9-0.8c0.4-0.2,0.8-0.3,1.4-0.3s1.1,0.1,1.4,0.2s0.7,0.4,0.9,0.7
			s0.4,0.8,0.5,1.2s0.1,1.1,0.1,1.7s-0.1,1.2-0.2,1.7s-0.3,0.9-0.5,1.2c-0.2,0.3-0.5,0.6-0.9,0.7s-0.8,0.2-1.4,0.2s-1.1-0.1-1.4-0.2
			c-0.4-0.2-0.7-0.4-0.9-0.7c-0.2-0.3-0.4-0.7-0.5-1.2s-0.1-1.1-0.1-1.7C415.4,437.5,415.4,436.9,415.5,436.4z M417.3,439.2
			c0,0.3,0.1,0.6,0.1,0.8c0.1,0.2,0.2,0.4,0.3,0.5c0.1,0.1,0.3,0.2,0.6,0.2c0.4,0,0.7-0.2,0.8-0.6c0.1-0.4,0.2-1.1,0.2-2
			s-0.1-1.6-0.2-2s-0.4-0.6-0.8-0.6c-0.2,0-0.4,0.1-0.6,0.2c-0.1,0.1-0.2,0.3-0.3,0.5c-0.1,0.2-0.1,0.5-0.1,0.8s0,0.7,0,1.1
			S417.3,438.8,417.3,439.2z"/>
		<path d="M424,439.7c0,0.3,0.1,0.6,0.3,0.8s0.4,0.3,0.7,0.3c0.3,0,0.5-0.1,0.7-0.2s0.3-0.4,0.3-0.7c0-0.2-0.1-0.4-0.2-0.6
			s-0.3-0.2-0.5-0.3l-1.4-0.5c-0.5-0.2-0.9-0.5-1.2-0.8c-0.3-0.3-0.4-0.8-0.4-1.3c0-0.3,0.1-0.6,0.2-0.9s0.3-0.5,0.5-0.7
			s0.5-0.4,0.9-0.5s0.8-0.2,1.3-0.2c0.9,0,1.5,0.2,1.9,0.6s0.6,0.9,0.6,1.6v0.3H426c0-0.4-0.1-0.7-0.2-0.9c-0.1-0.2-0.3-0.3-0.7-0.3
			c-0.2,0-0.5,0.1-0.6,0.2c-0.2,0.1-0.3,0.3-0.3,0.6c0,0.2,0.1,0.4,0.2,0.5s0.3,0.3,0.7,0.4l1.2,0.4c0.6,0.2,1,0.5,1.3,0.8
			s0.4,0.8,0.4,1.4c0,0.4-0.1,0.7-0.2,1s-0.3,0.5-0.6,0.7c-0.2,0.2-0.5,0.3-0.9,0.4c-0.3,0.1-0.7,0.1-1.1,0.1c-0.5,0-1-0.1-1.4-0.2
			s-0.6-0.3-0.9-0.5s-0.4-0.5-0.4-0.7c-0.1-0.3-0.1-0.6-0.1-1v-0.3h1.7v0.5H424z"/>
		<path d="M429.1,436.5c0-0.4,0.1-0.8,0.2-1.1c0.1-0.3,0.3-0.5,0.6-0.7c0.2-0.2,0.5-0.3,0.8-0.4s0.7-0.1,1-0.1c0.6,0,1,0.1,1.4,0.2
			s0.6,0.3,0.8,0.5c0.2,0.2,0.3,0.5,0.4,0.7c0.1,0.3,0.1,0.6,0.1,0.9v4c0,0.4,0,0.6,0,0.8c0,0.2,0.1,0.4,0.2,0.6h-1.8
			c-0.1-0.1-0.1-0.2-0.1-0.4c0-0.1-0.1-0.3-0.1-0.4l0,0c-0.2,0.4-0.5,0.6-0.8,0.8c-0.3,0.1-0.7,0.2-1.1,0.2c-0.3,0-0.6-0.1-0.9-0.2
			c-0.2-0.1-0.4-0.3-0.6-0.5c-0.1-0.2-0.2-0.4-0.3-0.7c-0.1-0.3-0.1-0.5-0.1-0.8c0-0.4,0-0.7,0.1-0.9s0.2-0.5,0.3-0.7
			c0.2-0.2,0.3-0.3,0.6-0.5c0.2-0.1,0.5-0.2,0.9-0.3l1.1-0.3c0.3-0.1,0.5-0.2,0.6-0.3c0.1-0.1,0.2-0.3,0.2-0.6
			c0-0.3-0.1-0.5-0.2-0.7s-0.4-0.2-0.7-0.2c-0.3,0-0.5,0.1-0.7,0.3c-0.1,0.2-0.2,0.4-0.2,0.7v0.2h-1.7L429.1,436.5L429.1,436.5z
			 M432.2,438.3c-0.1,0.1-0.3,0.1-0.4,0.1c-0.4,0.1-0.7,0.2-0.8,0.4c-0.2,0.2-0.3,0.5-0.3,0.8s0.1,0.5,0.2,0.7s0.3,0.3,0.6,0.3
			c0.1,0,0.3,0,0.4-0.1s0.3-0.1,0.4-0.2s0.2-0.2,0.3-0.4s0.1-0.3,0.1-0.5v-1.5C432.5,438.2,432.4,438.3,432.2,438.3z"/>
		<path d="M438.1,431.9v10h-1.9v-10H438.1z"/>
		<path d="M441.8,431.8v1.7h-1.9v-1.7H441.8z M441.8,434.3v7.5h-1.9v-7.5H441.8z"/>
		<path d="M445.1,439c0,0.2,0,0.4,0,0.7c0,0.2,0.1,0.4,0.2,0.6s0.2,0.3,0.3,0.4c0.1,0.1,0.3,0.1,0.4,0.1c0.3,0,0.6-0.1,0.7-0.3
			s0.3-0.6,0.3-1.1h1.7c0,0.9-0.3,1.5-0.7,2c-0.4,0.5-1.1,0.7-2,0.7c-0.7,0-1.2-0.1-1.6-0.4c-0.4-0.2-0.7-0.5-0.9-0.9
			c-0.2-0.4-0.3-0.8-0.3-1.3s-0.1-1-0.1-1.4c0-0.5,0-1,0.1-1.5s0.2-0.9,0.4-1.2s0.5-0.7,0.9-0.9c0.4-0.2,0.9-0.3,1.6-0.3
			c0.6,0,1,0.1,1.4,0.3s0.6,0.4,0.8,0.8c0.2,0.3,0.3,0.7,0.4,1.2s0.1,1,0.1,1.6v0.4H445v0.5H445.1z M447,436.5
			c0-0.2-0.1-0.4-0.1-0.6c-0.1-0.2-0.2-0.3-0.3-0.3s-0.3-0.1-0.5-0.1s-0.4,0-0.5,0.1s-0.2,0.2-0.3,0.4s-0.1,0.3-0.2,0.5
			c0,0.2,0,0.4,0,0.5v0.3h2C447,437,447,436.7,447,436.5z"/>
	</g>
	<g>
		<path d="M218.9,423c0.5,0,0.9,0.1,1.3,0.3c0.4,0.2,0.6,0.4,0.8,0.7c0.2,0.3,0.4,0.6,0.5,1s0.1,0.7,0.1,1.1c0,0.5-0.1,1-0.2,1.3
			c-0.2,0.4-0.4,0.7-0.6,0.9c-0.3,0.2-0.6,0.4-1,0.5s-0.8,0.2-1.3,0.2h-1.1v4h-2v-10H218.9z M218.2,427.5c0.4,0,0.7-0.1,1-0.4
			c0.2-0.2,0.4-0.6,0.4-1.1s-0.1-0.9-0.3-1.1c-0.2-0.3-0.6-0.4-1.1-0.4h-0.8v3H218.2z"/>
		<path d="M222.5,427.5c0.1-0.5,0.3-0.9,0.5-1.2s0.5-0.6,0.9-0.8c0.4-0.2,0.8-0.3,1.4-0.3c0.6,0,1.1,0.1,1.4,0.2s0.7,0.4,0.9,0.7
			s0.4,0.8,0.5,1.2s0.1,1.1,0.1,1.7s-0.1,1.2-0.2,1.7c-0.1,0.5-0.3,0.9-0.5,1.2c-0.2,0.3-0.5,0.6-0.9,0.7s-0.8,0.2-1.4,0.2
			c-0.6,0-1.1-0.1-1.4-0.2c-0.4-0.2-0.7-0.4-0.9-0.7c-0.2-0.3-0.4-0.7-0.5-1.2s-0.1-1.1-0.1-1.7C222.3,428.6,222.4,428,222.5,427.5z
			 M224.3,430.3c0,0.3,0.1,0.6,0.1,0.8c0.1,0.2,0.2,0.4,0.3,0.5s0.3,0.2,0.6,0.2c0.4,0,0.7-0.2,0.8-0.6s0.2-1.1,0.2-2
			s-0.1-1.6-0.2-2s-0.4-0.6-0.8-0.6c-0.2,0-0.4,0.1-0.6,0.2c-0.1,0.1-0.2,0.3-0.3,0.5s-0.1,0.5-0.1,0.8s0,0.7,0,1.1
			S224.3,430,224.3,430.3z"/>
		<path d="M231.4,425.5v0.9l0,0c0.2-0.4,0.5-0.6,0.8-0.8s0.7-0.3,1.1-0.3c0.6,0,1.1,0.2,1.4,0.5c0.3,0.3,0.5,0.9,0.5,1.6v5.6h-1.9
			v-5.2c0-0.4-0.1-0.7-0.2-0.8c-0.1-0.2-0.3-0.2-0.6-0.2c-0.7,0-1,0.4-1,1.2v5h-1.9v-7.5L231.4,425.5L231.4,425.5z"/>
		<path d="M239.2,423.3v2.2h1.1v1.3h-1.1v4.1c0,0.3,0,0.5,0.1,0.6s0.3,0.2,0.6,0.2c0.1,0,0.1,0,0.2,0c0.1,0,0.1,0,0.2,0v1.3
			c-0.2,0-0.4,0-0.6,0c-0.2,0-0.4,0-0.6,0c-0.4,0-0.7,0-0.9-0.1s-0.4-0.2-0.5-0.3c-0.1-0.2-0.2-0.4-0.3-0.6c0-0.3-0.1-0.6-0.1-1
			v-4.3h-1v-1.3h1v-2.2L239.2,423.3L239.2,423.3z"/>
		<path d="M249,424.8c-0.2-0.3-0.5-0.5-0.9-0.5c-0.3,0-0.5,0.1-0.6,0.2c-0.2,0.1-0.3,0.4-0.4,0.7c-0.1,0.3-0.2,0.7-0.2,1.2
			s-0.1,1.1-0.1,1.8c0,0.8,0,1.4,0.1,1.8c0.1,0.5,0.1,0.8,0.2,1.1c0.1,0.3,0.2,0.4,0.4,0.5s0.4,0.1,0.6,0.1c0.2,0,0.3,0,0.5-0.1
			s0.3-0.2,0.4-0.4c0.1-0.2,0.2-0.4,0.3-0.8c0.1-0.3,0.1-0.8,0.1-1.3h2c0,0.5,0,1.1-0.1,1.5s-0.2,0.9-0.5,1.3
			c-0.2,0.4-0.6,0.6-1,0.9c-0.4,0.2-1,0.3-1.6,0.3c-0.8,0-1.4-0.1-1.8-0.4c-0.4-0.2-0.8-0.6-1-1c-0.2-0.5-0.4-1-0.5-1.6
			s-0.1-1.3-0.1-2.1c0-0.8,0-1.5,0.1-2.1s0.2-1.2,0.5-1.6c0.2-0.5,0.6-0.8,1-1.1c0.4-0.3,1.1-0.4,1.8-0.4s1.3,0.1,1.7,0.4
			c0.4,0.2,0.7,0.5,0.9,0.9s0.3,0.7,0.4,1.2c0.1,0.4,0.1,0.8,0.1,1.2h-2C249.2,425.7,249.2,425.1,249,424.8z"/>
		<path d="M252.7,427.6c0-0.4,0.1-0.8,0.2-1.1c0.1-0.3,0.3-0.5,0.6-0.7c0.2-0.2,0.5-0.3,0.8-0.4s0.7-0.1,1-0.1c0.6,0,1,0.1,1.4,0.2
			c0.4,0.1,0.6,0.3,0.8,0.5c0.2,0.2,0.3,0.5,0.4,0.7c0.1,0.3,0.1,0.6,0.1,0.9v4c0,0.4,0,0.6,0,0.8c0,0.2,0.1,0.4,0.2,0.6h-1.8
			c-0.1-0.1-0.1-0.2-0.1-0.4c0-0.1-0.1-0.3-0.1-0.4l0,0c-0.2,0.4-0.5,0.6-0.8,0.8c-0.3,0.1-0.7,0.2-1.1,0.2c-0.3,0-0.6-0.1-0.9-0.2
			c-0.2-0.1-0.4-0.3-0.6-0.5c-0.1-0.2-0.2-0.4-0.3-0.7c-0.1-0.3-0.1-0.5-0.1-0.8c0-0.4,0-0.7,0.1-0.9s0.2-0.5,0.3-0.7
			c0.2-0.2,0.3-0.3,0.6-0.5c0.2-0.1,0.5-0.2,0.9-0.3l1.1-0.3c0.3-0.1,0.5-0.2,0.6-0.3c0.1-0.1,0.2-0.3,0.2-0.6
			c0-0.3-0.1-0.5-0.2-0.7s-0.4-0.2-0.7-0.2s-0.5,0.1-0.7,0.3c-0.1,0.2-0.2,0.4-0.2,0.7v0.2h-1.7L252.7,427.6L252.7,427.6z
			 M255.8,429.5c-0.1,0.1-0.3,0.1-0.4,0.1c-0.4,0.1-0.7,0.2-0.8,0.4c-0.2,0.2-0.3,0.5-0.3,0.8s0.1,0.5,0.2,0.7
			c0.1,0.2,0.3,0.3,0.6,0.3c0.1,0,0.3,0,0.4-0.1s0.3-0.1,0.4-0.2c0.1-0.1,0.2-0.2,0.3-0.4s0.1-0.3,0.1-0.5v-1.5
			C256.1,429.4,256,429.4,255.8,429.5z"/>
		<path d="M261.1,430.8c0,0.3,0.1,0.6,0.3,0.8s0.4,0.3,0.7,0.3c0.3,0,0.5-0.1,0.7-0.2s0.3-0.4,0.3-0.7c0-0.2-0.1-0.4-0.2-0.6
			s-0.3-0.2-0.5-0.3l-1.4-0.5c-0.5-0.2-0.9-0.5-1.2-0.8c-0.3-0.3-0.4-0.8-0.4-1.3c0-0.3,0.1-0.6,0.2-0.9s0.3-0.5,0.5-0.7
			s0.5-0.4,0.9-0.5s0.8-0.2,1.3-0.2c0.9,0,1.5,0.2,1.9,0.6s0.6,0.9,0.6,1.6v0.3h-1.7c0-0.4-0.1-0.7-0.2-0.9
			c-0.1-0.2-0.3-0.3-0.7-0.3c-0.2,0-0.5,0.1-0.6,0.2c-0.2,0.1-0.3,0.3-0.3,0.6c0,0.2,0.1,0.4,0.2,0.5s0.3,0.3,0.7,0.4l1.2,0.4
			c0.6,0.2,1,0.5,1.3,0.8s0.4,0.8,0.4,1.4c0,0.4-0.1,0.7-0.2,1s-0.3,0.5-0.6,0.7c-0.2,0.2-0.5,0.3-0.9,0.4c-0.3,0.1-0.7,0.1-1.1,0.1
			c-0.5,0-1-0.1-1.4-0.2s-0.6-0.3-0.9-0.5s-0.4-0.5-0.4-0.7c-0.1-0.3-0.1-0.6-0.1-1v-0.3h1.7L261.1,430.8L261.1,430.8z"/>
		<path d="M267.6,430.8c0,0.3,0.1,0.6,0.3,0.8s0.4,0.3,0.7,0.3c0.3,0,0.5-0.1,0.7-0.2s0.3-0.4,0.3-0.7c0-0.2-0.1-0.4-0.2-0.6
			s-0.3-0.2-0.5-0.3l-1.4-0.5c-0.5-0.2-0.9-0.5-1.2-0.8c-0.3-0.3-0.4-0.8-0.4-1.3c0-0.3,0.1-0.6,0.2-0.9s0.3-0.5,0.5-0.7
			s0.5-0.4,0.9-0.5s0.8-0.2,1.3-0.2c0.9,0,1.5,0.2,1.9,0.6s0.6,0.9,0.6,1.6v0.3h-1.7c0-0.4-0.1-0.7-0.2-0.9
			c-0.1-0.2-0.3-0.3-0.7-0.3c-0.2,0-0.5,0.1-0.6,0.2c-0.2,0.1-0.3,0.3-0.3,0.6c0,0.2,0.1,0.4,0.2,0.5s0.3,0.3,0.7,0.4l1.2,0.4
			c0.6,0.2,1,0.5,1.3,0.8s0.4,0.8,0.4,1.4c0,0.4-0.1,0.7-0.2,1s-0.3,0.5-0.6,0.7c-0.2,0.2-0.5,0.3-0.9,0.4c-0.3,0.1-0.7,0.1-1.1,0.1
			c-0.5,0-1-0.1-1.4-0.2s-0.6-0.3-0.9-0.5s-0.4-0.5-0.4-0.7c-0.1-0.3-0.1-0.6-0.1-1v-0.3h1.7L267.6,430.8L267.6,430.8z"/>
		<path d="M274.4,430.1c0,0.2,0,0.4,0,0.7c0,0.2,0.1,0.4,0.2,0.6s0.2,0.3,0.3,0.4c0.1,0.1,0.3,0.1,0.4,0.1c0.3,0,0.6-0.1,0.7-0.3
			s0.3-0.6,0.3-1.1h1.7c0,0.9-0.3,1.5-0.7,2c-0.4,0.5-1.1,0.7-2,0.7c-0.7,0-1.2-0.1-1.6-0.4c-0.4-0.2-0.7-0.5-0.9-0.9
			c-0.2-0.4-0.3-0.8-0.3-1.3s-0.1-1-0.1-1.4c0-0.5,0-1,0.1-1.5s0.2-0.9,0.4-1.2s0.5-0.7,0.9-0.9c0.4-0.2,0.9-0.3,1.6-0.3
			c0.6,0,1,0.1,1.4,0.3s0.6,0.4,0.8,0.8c0.2,0.3,0.3,0.7,0.4,1.2s0.1,1,0.1,1.6v0.4h-3.8v0.5H274.4z M276.3,427.6
			c0-0.2-0.1-0.4-0.1-0.6c-0.1-0.2-0.2-0.3-0.3-0.3s-0.3-0.1-0.5-0.1s-0.4,0-0.5,0.1s-0.2,0.2-0.3,0.4s-0.1,0.3-0.2,0.5
			c0,0.2,0,0.4,0,0.5v0.3h2C276.3,428.1,276.3,427.9,276.3,427.6z M277.1,422.6l-1.4,2h-1.3l0.8-2H277.1z"/>
	</g>
	<g>
		<path d="M169.6,658c0,0.2,0,0.4,0.1,0.6c0,0.2,0.1,0.4,0.2,0.5s0.2,0.2,0.4,0.3s0.4,0.1,0.7,0.1s0.6-0.1,0.8-0.3s0.4-0.5,0.4-0.9
			c0-0.2,0-0.4-0.1-0.6c-0.1-0.2-0.2-0.3-0.3-0.4c-0.1-0.1-0.3-0.2-0.6-0.4c-0.2-0.1-0.5-0.2-0.8-0.3c-0.4-0.1-0.8-0.3-1.2-0.5
			c-0.3-0.2-0.6-0.4-0.8-0.6s-0.4-0.5-0.5-0.8s-0.2-0.7-0.2-1.1c0-1,0.3-1.7,0.8-2.2s1.3-0.7,2.3-0.7c0.4,0,0.9,0,1.2,0.1
			c0.4,0.1,0.7,0.3,1,0.5s0.5,0.5,0.6,0.8c0.2,0.3,0.2,0.7,0.2,1.2v0.3H172c0-0.5-0.1-0.8-0.3-1.1s-0.4-0.4-0.8-0.4
			c-0.2,0-0.4,0-0.6,0.1c-0.1,0.1-0.3,0.2-0.4,0.3s-0.1,0.2-0.2,0.4c0,0.1,0,0.3,0,0.4c0,0.3,0.1,0.6,0.2,0.8
			c0.1,0.2,0.4,0.4,0.8,0.6l1.6,0.7c0.4,0.2,0.7,0.3,0.9,0.5s0.4,0.4,0.6,0.6c0.1,0.2,0.2,0.4,0.3,0.7s0.1,0.5,0.1,0.8
			c0,1.1-0.3,1.8-0.9,2.3c-0.6,0.5-1.5,0.7-2.6,0.7s-2-0.2-2.4-0.7c-0.5-0.5-0.7-1.2-0.7-2.1v-0.4h2L169.6,658L169.6,658z"/>
		<path d="M175.4,655.3c0.1-0.5,0.3-0.9,0.5-1.2s0.5-0.6,0.9-0.8s0.8-0.3,1.4-0.3c0.6,0,1.1,0.1,1.4,0.2s0.7,0.4,0.9,0.7
			s0.4,0.8,0.5,1.2s0.1,1.1,0.1,1.7c0,0.6-0.1,1.2-0.2,1.7c-0.1,0.5-0.3,0.9-0.5,1.2s-0.5,0.6-0.9,0.7s-0.8,0.2-1.4,0.2
			c-0.6,0-1.1-0.1-1.4-0.2c-0.4-0.2-0.7-0.4-0.9-0.7s-0.4-0.7-0.5-1.2s-0.1-1.1-0.1-1.7C175.2,656.4,175.3,655.8,175.4,655.3z
			 M177.2,658.1c0,0.3,0.1,0.6,0.1,0.8c0.1,0.2,0.2,0.4,0.3,0.5s0.3,0.2,0.6,0.2c0.4,0,0.7-0.2,0.8-0.6c0.1-0.4,0.2-1.1,0.2-2
			s-0.1-1.6-0.2-2s-0.4-0.6-0.8-0.6c-0.2,0-0.4,0.1-0.6,0.2c-0.1,0.1-0.2,0.3-0.3,0.5s-0.1,0.5-0.1,0.8s0,0.7,0,1.1
			S177.1,657.8,177.2,658.1z"/>
		<path d="M186.3,659.9c-0.2,0.4-0.5,0.6-0.8,0.8s-0.7,0.2-1.1,0.2c-0.6,0-1.1-0.2-1.4-0.5c-0.3-0.3-0.5-0.9-0.5-1.6v-5.6h1.9v5.2
			c0,0.4,0.1,0.7,0.2,0.8c0.1,0.2,0.3,0.2,0.6,0.2c0.7,0,1-0.4,1-1.2v-5h1.9v7.5h-1.8L186.3,659.9L186.3,659.9z"/>
		<path d="M189.2,654.6v-1.3h1v-0.9c0-0.3,0-0.6,0.1-0.9c0.1-0.2,0.2-0.4,0.4-0.6c0.2-0.1,0.4-0.2,0.6-0.3c0.3-0.1,0.5-0.1,0.8-0.1
			s0.7,0,1,0v1.4c0,0-0.1,0-0.2,0h-0.2c-0.3,0-0.5,0-0.6,0.1s-0.2,0.2-0.2,0.5v0.7h1.1v1.3h-1.1v6.2H190v-6.2L189.2,654.6
			L189.2,654.6z"/>
		<path d="M196,653.2v1l0,0c0.2-0.4,0.4-0.7,0.7-0.9s0.6-0.3,1-0.3c0.1,0,0.1,0,0.2,0c0.1,0,0.1,0,0.2,0v1.8c-0.1,0-0.2,0-0.3,0
			s-0.2,0-0.3,0c-0.2,0-0.3,0-0.5,0.1c-0.2,0-0.3,0.1-0.5,0.2s-0.3,0.2-0.3,0.4s-0.1,0.4-0.1,0.6v4.5h-1.9v-7.5h1.8V653.2z"/>
		<path d="M201.1,650.7v1.7h-1.9v-1.7H201.1z M201.1,653.2v7.5h-1.9v-7.5H201.1z"/>
		<path d="M204.4,657.9c0,0.2,0,0.4,0,0.7c0,0.2,0.1,0.4,0.2,0.6c0.1,0.2,0.2,0.3,0.3,0.4c0.1,0.1,0.3,0.1,0.4,0.1
			c0.3,0,0.6-0.1,0.7-0.3s0.3-0.6,0.3-1.1h1.7c0,0.9-0.3,1.5-0.7,2s-1.1,0.7-2,0.7c-0.7,0-1.2-0.1-1.6-0.4c-0.4-0.2-0.7-0.5-0.9-0.9
			s-0.3-0.8-0.3-1.3s-0.1-1-0.1-1.4c0-0.5,0-1,0.1-1.5s0.2-0.9,0.4-1.2s0.5-0.7,0.9-0.9s0.9-0.3,1.6-0.3c0.6,0,1,0.1,1.4,0.3
			s0.6,0.4,0.8,0.8c0.2,0.3,0.3,0.7,0.4,1.2c0.1,0.5,0.1,1,0.1,1.6v0.4h-3.8v0.5H204.4z M206.3,655.4c0-0.2-0.1-0.4-0.1-0.6
			c-0.1-0.2-0.2-0.3-0.3-0.3s-0.3-0.1-0.5-0.1s-0.4,0-0.5,0.1s-0.2,0.2-0.3,0.4s-0.1,0.3-0.2,0.5c0,0.2,0,0.4,0,0.5v0.3h2
			C206.4,655.9,206.3,655.6,206.3,655.4z M207.1,650.4l-1.4,2h-1.3l0.8-2H207.1z"/>
		<path d="M211.4,653.2v1l0,0c0.2-0.4,0.4-0.7,0.7-0.9s0.6-0.3,1-0.3c0.1,0,0.1,0,0.2,0c0.1,0,0.1,0,0.2,0v1.8c-0.1,0-0.2,0-0.3,0
			s-0.2,0-0.3,0c-0.2,0-0.3,0-0.5,0.1c-0.2,0-0.3,0.1-0.5,0.2s-0.3,0.2-0.3,0.4s-0.1,0.4-0.1,0.6v4.5h-1.9v-7.5h1.8V653.2z"/>
		<path d="M216.1,657.9c0,0.2,0,0.4,0,0.7c0,0.2,0.1,0.4,0.2,0.6c0.1,0.2,0.2,0.3,0.3,0.4c0.1,0.1,0.3,0.1,0.4,0.1
			c0.3,0,0.6-0.1,0.7-0.3s0.3-0.6,0.3-1.1h1.7c0,0.9-0.3,1.5-0.7,2s-1.1,0.7-2,0.7c-0.7,0-1.2-0.1-1.6-0.4c-0.4-0.2-0.7-0.5-0.9-0.9
			s-0.3-0.8-0.3-1.3s-0.1-1-0.1-1.4c0-0.5,0-1,0.1-1.5s0.2-0.9,0.4-1.2s0.5-0.7,0.9-0.9s0.9-0.3,1.6-0.3c0.6,0,1,0.1,1.4,0.3
			s0.6,0.4,0.8,0.8c0.2,0.3,0.3,0.7,0.4,1.2c0.1,0.5,0.1,1,0.1,1.6v0.4H216v0.5H216.1z M218,655.4c0-0.2-0.1-0.4-0.1-0.6
			c-0.1-0.2-0.2-0.3-0.3-0.3s-0.3-0.1-0.5-0.1s-0.4,0-0.5,0.1s-0.2,0.2-0.3,0.4s-0.1,0.3-0.2,0.5c0,0.2,0,0.4,0,0.5v0.3h2
			C218.1,655.9,218,655.6,218,655.4z"/>
	</g>
	<g>
		<path class="st3" d="M325.6,151.9c0,0,537.8-36,701.6,521.7"/>
	</g>
	<circle class="st4" cx="81.6" cy="136.3" r="4.3"/>
	<circle class="st4" cx="394.7" cy="431.4" r="4.3"/>
	<g>
		<path d="M743.7,631.6c0.4,0,0.8,0,1.1,0.1c0.4,0.1,0.7,0.2,0.9,0.4s0.4,0.5,0.6,0.8c0.1,0.3,0.2,0.7,0.2,1.2s-0.1,1-0.4,1.4
			c-0.3,0.4-0.6,0.7-1.1,0.8l0,0c0.6,0.1,1,0.3,1.3,0.7s0.5,0.9,0.5,1.6c0,0.4-0.1,0.8-0.2,1.1s-0.3,0.7-0.5,0.9
			c-0.2,0.3-0.6,0.5-1,0.6c-0.4,0.2-0.9,0.2-1.5,0.2h-3.4v-10h3.5V631.6z M743,635.7c0.6,0,1-0.1,1.2-0.3c0.3-0.2,0.4-0.5,0.4-1
			s-0.1-0.8-0.4-1c-0.2-0.2-0.6-0.3-1.1-0.3h-0.7v2.6H743z M743.2,640.1c0.5,0,0.9-0.1,1.2-0.3s0.4-0.6,0.4-1.2c0-0.3,0-0.5-0.1-0.7
			s-0.2-0.3-0.3-0.5c-0.1-0.1-0.3-0.2-0.5-0.2s-0.4-0.1-0.6-0.1h-0.9v3H743.2z"/>
		<path d="M750.2,634.1v1l0,0c0.2-0.4,0.4-0.7,0.7-0.9s0.6-0.3,1-0.3c0.1,0,0.1,0,0.2,0c0.1,0,0.1,0,0.2,0v1.8c-0.1,0-0.2,0-0.3,0
			s-0.2,0-0.3,0c-0.2,0-0.3,0-0.5,0.1c-0.2,0-0.3,0.1-0.5,0.2s-0.3,0.2-0.3,0.4s-0.1,0.4-0.1,0.6v4.5h-1.9V634h1.8V634.1z"/>
		<path d="M755.3,631.5v1.7h-1.9v-1.7H755.3z M755.3,634.1v7.5h-1.9v-7.5H755.3z"/>
		<path d="M760.8,640.8c-0.2,0.4-0.5,0.6-0.7,0.7c-0.3,0.1-0.6,0.2-1,0.2c-0.8,0-1.4-0.3-1.8-0.9c-0.4-0.6-0.6-1.6-0.6-3
			s0.2-2.4,0.6-3c0.4-0.6,1-0.9,1.8-0.9c0.4,0,0.7,0.1,0.9,0.2c0.3,0.1,0.5,0.4,0.7,0.7l0,0v-3.2h1.9v10h-1.8L760.8,640.8
			L760.8,640.8z M758.9,639.7c0.1,0.4,0.4,0.6,0.8,0.6c0.4,0,0.7-0.2,0.8-0.6c0.1-0.4,0.2-1,0.2-1.9s-0.1-1.4-0.2-1.9
			s-0.4-0.6-0.8-0.6c-0.4,0-0.7,0.2-0.8,0.6s-0.2,1-0.2,1.9S758.8,639.3,758.9,639.7z"/>
		<path d="M769.9,641.2c0,1-0.2,1.7-0.7,2.2s-1.3,0.7-2.4,0.7c-0.8,0-1.5-0.2-1.9-0.5s-0.7-0.8-0.7-1.5h1.8c0,0.2,0.1,0.4,0.3,0.6
			c0.1,0.1,0.2,0.1,0.3,0.2c0.1,0,0.2,0.1,0.3,0.1c0.4,0,0.7-0.1,0.8-0.4c0.2-0.3,0.2-0.6,0.2-0.9v-1l0,0c-0.2,0.3-0.4,0.5-0.7,0.7
			s-0.6,0.3-0.9,0.3c-0.8,0-1.3-0.3-1.7-0.9s-0.6-1.6-0.6-2.9c0-0.4,0-0.9,0.1-1.3c0.1-0.5,0.2-0.9,0.3-1.2c0.2-0.4,0.4-0.7,0.7-0.9
			s0.7-0.3,1.3-0.3c0.3,0,0.6,0.1,0.8,0.2c0.3,0.1,0.5,0.4,0.7,0.8l0,0v-0.8h1.8v6.8H769.9z M766,638.8c0,0.2,0.1,0.4,0.1,0.6
			c0.1,0.2,0.2,0.3,0.3,0.4c0.1,0.1,0.3,0.2,0.5,0.2s0.4-0.1,0.5-0.2c0.1-0.1,0.2-0.3,0.3-0.4c0.1-0.2,0.1-0.4,0.2-0.7
			c0-0.3,0-0.6,0-0.9c0-0.9-0.1-1.6-0.2-1.9c-0.1-0.4-0.4-0.6-0.8-0.6c-0.2,0-0.4,0-0.5,0.1s-0.2,0.2-0.3,0.5s-0.1,0.5-0.1,0.8
			s0,0.8,0,1.3C766,638.3,766,638.6,766,638.8z"/>
		<path d="M773.2,638.7c0,0.2,0,0.4,0,0.7c0,0.2,0.1,0.4,0.2,0.6c0.1,0.2,0.2,0.3,0.3,0.4c0.1,0.1,0.3,0.1,0.4,0.1
			c0.3,0,0.6-0.1,0.7-0.3s0.3-0.6,0.3-1.1h1.7c0,0.9-0.3,1.5-0.7,2s-1.1,0.7-2,0.7c-0.7,0-1.2-0.1-1.6-0.4c-0.4-0.2-0.7-0.5-0.9-0.9
			s-0.3-0.8-0.3-1.3s-0.1-1-0.1-1.4c0-0.5,0-1,0.1-1.5s0.2-0.9,0.4-1.2s0.5-0.7,0.9-0.9s0.9-0.3,1.6-0.3c0.6,0,1,0.1,1.4,0.3
			s0.6,0.4,0.8,0.8c0.2,0.3,0.3,0.7,0.4,1.2c0.1,0.5,0.1,1,0.1,1.6v0.4h-3.8L773.2,638.7L773.2,638.7z M775.1,636.2
			c0-0.2-0.1-0.4-0.1-0.6c-0.1-0.2-0.2-0.3-0.3-0.3s-0.3-0.1-0.5-0.1s-0.4,0-0.5,0.1s-0.2,0.2-0.3,0.4s-0.1,0.3-0.2,0.5
			c0,0.2,0,0.4,0,0.5v0.3h2C775.1,636.7,775.1,636.4,775.1,636.2z"/>
		<path d="M780.6,631.9v2.2h1.1v1.3h-1.1v4.1c0,0.3,0,0.5,0.1,0.6s0.3,0.2,0.6,0.2c0.1,0,0.1,0,0.2,0c0.1,0,0.1,0,0.2,0v1.3
			c-0.2,0-0.4,0-0.6,0c-0.2,0-0.4,0-0.6,0c-0.4,0-0.7,0-0.9-0.1s-0.4-0.2-0.5-0.3c-0.1-0.2-0.2-0.4-0.3-0.6c0-0.3-0.1-0.6-0.1-1
			v-4.3h-1V634h1v-2.2L780.6,631.9L780.6,631.9z"/>
		<path d="M782.6,636.1c0.1-0.5,0.3-0.9,0.5-1.2s0.5-0.6,0.9-0.8s0.8-0.3,1.4-0.3c0.6,0,1.1,0.1,1.4,0.2s0.7,0.4,0.9,0.7
			s0.4,0.8,0.5,1.2s0.1,1.1,0.1,1.7c0,0.6-0.1,1.2-0.2,1.7c-0.1,0.5-0.3,0.9-0.5,1.2s-0.5,0.6-0.9,0.7s-0.8,0.2-1.4,0.2
			c-0.6,0-1.1-0.1-1.4-0.2c-0.4-0.2-0.7-0.4-0.9-0.7s-0.4-0.7-0.5-1.2s-0.1-1.1-0.1-1.7C782.4,637.2,782.5,636.6,782.6,636.1z
			 M784.4,638.9c0,0.3,0.1,0.6,0.1,0.8c0.1,0.2,0.2,0.4,0.3,0.5s0.3,0.2,0.6,0.2c0.4,0,0.7-0.2,0.8-0.6c0.1-0.4,0.2-1.1,0.2-2
			s-0.1-1.6-0.2-2s-0.4-0.6-0.8-0.6c-0.2,0-0.4,0.1-0.6,0.2c-0.1,0.1-0.2,0.3-0.3,0.5s-0.1,0.5-0.1,0.8s0,0.7,0,1.1
			S784.4,638.6,784.4,638.9z"/>
		<path d="M791.2,634.1l0.9,5.3l0,0l0.9-5.3h2.1l1,5.3l0,0l0.9-5.3h1.8l-1.6,7.5H795l-1-5.3l0,0l-0.9,5.3h-2.2l-1.6-7.5H791.2z"/>
		<path d="M801.8,634.1v0.9l0,0c0.2-0.4,0.5-0.6,0.8-0.8s0.7-0.3,1.1-0.3c0.6,0,1.1,0.2,1.4,0.5c0.3,0.3,0.5,0.9,0.5,1.6v5.6h-1.9
			v-5.2c0-0.4-0.1-0.7-0.2-0.8c-0.1-0.2-0.3-0.2-0.6-0.2c-0.7,0-1,0.4-1,1.2v5H800v-7.5H801.8z"/>
	</g>
	<g>
		<path d="M936.5,685.2c0.1-0.6,0.2-1.2,0.5-1.6c0.2-0.5,0.6-0.8,1-1.1s1.1-0.4,1.8-0.4s1.4,0.1,1.8,0.4s0.8,0.6,1,1.1
			s0.4,1,0.5,1.6s0.1,1.3,0.1,2.1s0,1.5-0.1,2.1s-0.2,1.2-0.5,1.6c-0.2,0.5-0.6,0.8-1,1s-1,0.4-1.8,0.4s-1.4-0.1-1.8-0.4
			c-0.4-0.2-0.8-0.6-1-1c-0.2-0.5-0.4-1-0.5-1.6s-0.1-1.3-0.1-2.1S936.4,685.8,936.5,685.2z M938.4,689c0,0.5,0.1,0.9,0.2,1.1
			c0.1,0.3,0.2,0.5,0.4,0.6s0.4,0.2,0.7,0.2s0.5-0.1,0.7-0.2c0.2-0.1,0.3-0.3,0.4-0.6s0.2-0.7,0.2-1.1c0-0.5,0-1,0-1.7s0-1.2,0-1.7
			s-0.1-0.8-0.2-1.1c-0.1-0.3-0.2-0.5-0.4-0.7s-0.4-0.2-0.7-0.2s-0.5,0.1-0.7,0.2c-0.2,0.1-0.3,0.4-0.4,0.7
			c-0.1,0.3-0.2,0.7-0.2,1.1c0,0.5,0,1,0,1.7S938.4,688.5,938.4,689z"/>
		<path d="M946.6,682.2v1.7h-1.9v-1.7H946.6z M946.6,684.7v7.5h-1.9v-7.5H946.6z"/>
		<path d="M949.6,690.1c0,0.3,0.1,0.6,0.3,0.8s0.4,0.3,0.7,0.3s0.5-0.1,0.7-0.2c0.2-0.1,0.3-0.4,0.3-0.7c0-0.2-0.1-0.4-0.2-0.6
			c-0.1-0.1-0.3-0.2-0.5-0.3l-1.4-0.5c-0.5-0.2-0.9-0.5-1.2-0.8s-0.4-0.8-0.4-1.3c0-0.3,0.1-0.6,0.2-0.9s0.3-0.5,0.5-0.7
			s0.5-0.4,0.9-0.5s0.8-0.2,1.3-0.2c0.9,0,1.5,0.2,1.9,0.6c0.4,0.4,0.6,0.9,0.6,1.6v0.3h-1.7c0-0.4-0.1-0.7-0.2-0.9
			c-0.1-0.2-0.3-0.3-0.7-0.3c-0.2,0-0.5,0.1-0.6,0.2c-0.2,0.1-0.3,0.3-0.3,0.6c0,0.2,0.1,0.4,0.2,0.5c0.1,0.1,0.3,0.3,0.7,0.4
			l1.2,0.4c0.6,0.2,1,0.5,1.3,0.8s0.4,0.8,0.4,1.4c0,0.4-0.1,0.7-0.2,1c-0.1,0.3-0.3,0.5-0.6,0.7c-0.2,0.2-0.5,0.3-0.9,0.4
			c-0.3,0.1-0.7,0.1-1.1,0.1c-0.5,0-1-0.1-1.4-0.2s-0.6-0.3-0.9-0.5s-0.4-0.5-0.4-0.7s-0.1-0.6-0.1-1v-0.3h1.7L949.6,690.1
			L949.6,690.1z"/>
		<path d="M957.1,682.6v2.2h1.1v1.3h-1.1v4.1c0,0.3,0,0.5,0.1,0.6s0.3,0.2,0.6,0.2c0.1,0,0.1,0,0.2,0c0.1,0,0.1,0,0.2,0v1.3
			c-0.2,0-0.4,0-0.6,0c-0.2,0-0.4,0-0.6,0c-0.4,0-0.7,0-0.9-0.1s-0.4-0.2-0.5-0.3c-0.1-0.2-0.2-0.4-0.3-0.6s-0.1-0.6-0.1-1V686h-1
			v-1.3h1v-2.2L957.1,682.6L957.1,682.6z"/>
		<path d="M961.1,682.2v1.7h-1.9v-1.7H961.1z M961.1,684.7v7.5h-1.9v-7.5H961.1z"/>
		<path d="M964.6,684.7v0.9l0,0c0.2-0.4,0.5-0.6,0.8-0.8s0.7-0.3,1.1-0.3c0.6,0,1.1,0.2,1.4,0.5s0.5,0.9,0.5,1.6v5.6h-1.9V687
			c0-0.4-0.1-0.7-0.2-0.8c-0.1-0.2-0.3-0.2-0.6-0.2c-0.7,0-1,0.4-1,1.2v5h-1.9v-7.5H964.6z"/>
	</g>
	<g>
		<path d="M848.7,708.2l1.4,7.1l0,0l1.4-7.1h3v10h-1.8v-8l0,0l-1.8,8h-1.6l-1.8-8l0,0v8h-1.8v-10H848.7z"/>
		<path d="M856.3,712.8c0-0.4,0.1-0.8,0.2-1.1c0.1-0.3,0.3-0.5,0.6-0.7c0.2-0.2,0.5-0.3,0.8-0.4c0.3-0.1,0.7-0.1,1-0.1
			c0.6,0,1,0.1,1.4,0.2c0.4,0.1,0.6,0.3,0.8,0.5s0.3,0.5,0.4,0.7c0.1,0.3,0.1,0.6,0.1,0.9v4c0,0.4,0,0.6,0,0.8s0.1,0.4,0.2,0.6H860
			c-0.1-0.1-0.1-0.2-0.1-0.4c0-0.1-0.1-0.3-0.1-0.4l0,0c-0.2,0.4-0.5,0.6-0.8,0.8c-0.3,0.1-0.7,0.2-1.1,0.2c-0.3,0-0.6-0.1-0.9-0.2
			c-0.2-0.1-0.4-0.3-0.6-0.5c-0.1-0.2-0.2-0.4-0.3-0.7s-0.1-0.5-0.1-0.8c0-0.4,0-0.7,0.1-0.9s0.2-0.5,0.3-0.7
			c0.2-0.2,0.3-0.3,0.6-0.5c0.2-0.1,0.5-0.2,0.9-0.3l1.1-0.3c0.3-0.1,0.5-0.2,0.6-0.3s0.2-0.3,0.2-0.6s-0.1-0.5-0.2-0.7
			s-0.4-0.2-0.7-0.2s-0.5,0.1-0.7,0.3c-0.1,0.2-0.2,0.4-0.2,0.7v0.2L856.3,712.8L856.3,712.8z M859.4,714.6
			c-0.1,0.1-0.3,0.1-0.4,0.1c-0.4,0.1-0.7,0.2-0.8,0.4c-0.2,0.2-0.3,0.5-0.3,0.8s0.1,0.5,0.2,0.7c0.1,0.2,0.3,0.3,0.6,0.3
			c0.1,0,0.3,0,0.4-0.1s0.3-0.1,0.4-0.2c0.1-0.1,0.2-0.2,0.3-0.4s0.1-0.3,0.1-0.5v-1.5C859.7,714.5,859.5,714.6,859.4,714.6z"/>
		<path d="M868.9,710.6l-2,3.7l2,3.9h-2l-1.1-2.5l-1.1,2.5h-2l2-3.9l-2-3.7h2l1,2.3l1-2.3H868.9z"/>
		<path d="M871.4,710.6l0.9,5.3l0,0l0.9-5.3h2.1l1,5.3l0,0l0.9-5.3h1.8l-1.6,7.5h-2.2l-1-5.3l0,0l-0.9,5.3h-2.2l-1.6-7.5H871.4z"/>
		<path d="M881.8,715.3c0,0.2,0,0.4,0,0.7c0,0.2,0.1,0.4,0.2,0.6c0.1,0.2,0.2,0.3,0.3,0.4c0.1,0.1,0.3,0.1,0.4,0.1
			c0.3,0,0.6-0.1,0.7-0.3s0.3-0.6,0.3-1.1h1.7c0,0.9-0.3,1.5-0.7,2s-1.1,0.7-2,0.7c-0.7,0-1.2-0.1-1.6-0.4c-0.4-0.2-0.7-0.5-0.9-0.9
			s-0.3-0.8-0.3-1.3s-0.1-1-0.1-1.4c0-0.5,0-1,0.1-1.5s0.2-0.9,0.4-1.2s0.5-0.7,0.9-0.9s0.9-0.3,1.6-0.3c0.6,0,1,0.1,1.4,0.3
			s0.6,0.4,0.8,0.8c0.2,0.3,0.3,0.7,0.4,1.2c0.1,0.5,0.1,1,0.1,1.6v0.4h-3.8L881.8,715.3L881.8,715.3z M883.8,712.8
			c0-0.2-0.1-0.4-0.1-0.6c-0.1-0.2-0.2-0.3-0.3-0.3s-0.3-0.1-0.5-0.1s-0.4,0-0.5,0.1s-0.2,0.2-0.3,0.4s-0.1,0.3-0.2,0.5
			c0,0.2,0,0.4,0,0.5v0.3h2C883.8,713.3,883.8,713,883.8,712.8z"/>
		<path d="M889,708.2v10h-2v-10H889z"/>
		<path d="M892.6,708.2v10h-1.9v-10H892.6z"/>
		<path d="M901.3,708.2c0.4,0,0.8,0,1.1,0.1c0.4,0.1,0.7,0.2,0.9,0.4s0.4,0.5,0.6,0.8c0.1,0.3,0.2,0.7,0.2,1.2s-0.1,1-0.4,1.4
			c-0.3,0.4-0.6,0.7-1.1,0.8l0,0c0.6,0.1,1,0.3,1.3,0.7s0.5,0.9,0.5,1.6c0,0.4-0.1,0.8-0.2,1.1s-0.3,0.7-0.5,0.9
			c-0.2,0.3-0.6,0.5-1,0.6c-0.4,0.2-0.9,0.2-1.5,0.2h-3.4v-10h3.5V708.2z M900.5,712.3c0.6,0,1-0.1,1.2-0.3c0.3-0.2,0.4-0.5,0.4-1
			s-0.1-0.8-0.4-1c-0.2-0.2-0.6-0.3-1.1-0.3h-0.7v2.6H900.5z M900.7,716.7c0.5,0,0.9-0.1,1.2-0.3s0.4-0.6,0.4-1.2
			c0-0.3,0-0.5-0.1-0.7s-0.2-0.3-0.3-0.5c-0.1-0.1-0.3-0.2-0.5-0.2s-0.4-0.1-0.6-0.1h-0.9v3H900.7z"/>
		<path d="M907.6,715.3c0,0.2,0,0.4,0,0.7c0,0.2,0.1,0.4,0.2,0.6c0.1,0.2,0.2,0.3,0.3,0.4c0.1,0.1,0.3,0.1,0.4,0.1
			c0.3,0,0.6-0.1,0.7-0.3s0.3-0.6,0.3-1.1h1.7c0,0.9-0.3,1.5-0.7,2s-1.1,0.7-2,0.7c-0.7,0-1.2-0.1-1.6-0.4c-0.4-0.2-0.7-0.5-0.9-0.9
			s-0.3-0.8-0.3-1.3s-0.1-1-0.1-1.4c0-0.5,0-1,0.1-1.5s0.2-0.9,0.4-1.2s0.5-0.7,0.9-0.9s0.9-0.3,1.6-0.3c0.6,0,1,0.1,1.4,0.3
			s0.6,0.4,0.8,0.8c0.2,0.3,0.3,0.7,0.4,1.2c0.1,0.5,0.1,1,0.1,1.6v0.4h-3.8L907.6,715.3L907.6,715.3z M909.5,712.8
			c0-0.2-0.1-0.4-0.1-0.6c-0.1-0.2-0.2-0.3-0.3-0.3s-0.3-0.1-0.5-0.1s-0.4,0-0.5,0.1s-0.2,0.2-0.3,0.4s-0.1,0.3-0.2,0.5
			c0,0.2,0,0.4,0,0.5v0.3h2C909.6,713.3,909.5,713,909.5,712.8z"/>
		<path d="M912.7,712.8c0-0.4,0.1-0.8,0.2-1.1c0.1-0.3,0.3-0.5,0.6-0.7c0.2-0.2,0.5-0.3,0.8-0.4c0.3-0.1,0.7-0.1,1-0.1
			c0.6,0,1,0.1,1.4,0.2c0.4,0.1,0.6,0.3,0.8,0.5s0.3,0.5,0.4,0.7c0.1,0.3,0.1,0.6,0.1,0.9v4c0,0.4,0,0.6,0,0.8s0.1,0.4,0.2,0.6h-1.8
			c-0.1-0.1-0.1-0.2-0.1-0.4c0-0.1-0.1-0.3-0.1-0.4l0,0c-0.2,0.4-0.5,0.6-0.8,0.8c-0.3,0.1-0.7,0.2-1.1,0.2c-0.3,0-0.6-0.1-0.9-0.2
			c-0.2-0.1-0.4-0.3-0.6-0.5c-0.1-0.2-0.2-0.4-0.3-0.7s-0.1-0.5-0.1-0.8c0-0.4,0-0.7,0.1-0.9s0.2-0.5,0.3-0.7
			c0.2-0.2,0.3-0.3,0.6-0.5c0.2-0.1,0.5-0.2,0.9-0.3l1.1-0.3c0.3-0.1,0.5-0.2,0.6-0.3s0.2-0.3,0.2-0.6s-0.1-0.5-0.2-0.7
			s-0.4-0.2-0.7-0.2s-0.5,0.1-0.7,0.3c-0.1,0.2-0.2,0.4-0.2,0.7v0.2L912.7,712.8L912.7,712.8z M915.8,714.6
			c-0.1,0.1-0.3,0.1-0.4,0.1c-0.4,0.1-0.7,0.2-0.8,0.4c-0.2,0.2-0.3,0.5-0.3,0.8s0.1,0.5,0.2,0.7c0.1,0.2,0.3,0.3,0.6,0.3
			c0.1,0,0.3,0,0.4-0.1s0.3-0.1,0.4-0.2c0.1-0.1,0.2-0.2,0.3-0.4s0.1-0.3,0.1-0.5v-1.5C916.1,714.5,915.9,714.6,915.8,714.6z"/>
		<path d="M923.3,712.8c0-0.2-0.1-0.3-0.1-0.5s-0.1-0.3-0.3-0.4c-0.1-0.1-0.3-0.1-0.4-0.1c-0.2,0-0.4,0.1-0.6,0.2
			c-0.1,0.1-0.3,0.3-0.3,0.5c-0.1,0.2-0.1,0.5-0.2,0.8c0,0.3,0,0.7,0,1.1c0,0.5,0,0.9,0,1.2s0.1,0.6,0.2,0.8
			c0.1,0.2,0.2,0.4,0.3,0.5s0.3,0.1,0.5,0.1c0.3,0,0.6-0.1,0.7-0.4s0.2-0.7,0.2-1.3h1.8c0,1-0.2,1.7-0.7,2.3
			c-0.4,0.5-1.2,0.8-2.2,0.8c-0.5,0-0.9-0.1-1.3-0.2c-0.4-0.1-0.7-0.3-0.9-0.6s-0.4-0.7-0.5-1.2s-0.2-1.1-0.2-1.9
			c0-0.8,0.1-1.4,0.2-1.9c0.1-0.5,0.4-0.9,0.6-1.2c0.3-0.3,0.6-0.5,1-0.6s0.8-0.2,1.2-0.2c0.9,0,1.6,0.3,2,0.8
			c0.5,0.5,0.7,1.2,0.7,2.1h-1.8C923.3,713.2,923.3,713,923.3,712.8z"/>
		<path d="M928.4,708.2v3.2l0,0c0.4-0.6,1-1,1.8-1c0.6,0,1.1,0.2,1.4,0.5c0.3,0.3,0.5,0.9,0.5,1.6v5.6h-1.9V713
			c0-0.4-0.1-0.7-0.2-0.8c-0.1-0.2-0.3-0.2-0.6-0.2c-0.7,0-1,0.4-1,1.2v5h-1.9v-10H928.4z"/>
	</g>
	<g>
		<path d="M1104.4,653.3v1.7h-3.6v2.4h3.4v1.7h-3.4v4.3h-2v-10h5.6V653.3z"/>
		<path d="M1105.1,657.8c0.1-0.5,0.3-0.9,0.5-1.2s0.5-0.6,0.9-0.8s0.8-0.3,1.4-0.3s1.1,0.1,1.4,0.2s0.7,0.4,0.9,0.7
			c0.2,0.3,0.4,0.8,0.5,1.2c0.1,0.5,0.1,1.1,0.1,1.7c0,0.6-0.1,1.2-0.2,1.7s-0.3,0.9-0.5,1.2s-0.5,0.6-0.9,0.7s-0.8,0.2-1.4,0.2
			s-1.1-0.1-1.4-0.2c-0.4-0.2-0.7-0.4-0.9-0.7s-0.4-0.7-0.5-1.2s-0.1-1.1-0.1-1.7C1104.9,658.9,1105,658.3,1105.1,657.8z
			 M1106.9,660.6c0,0.3,0.1,0.6,0.1,0.8c0.1,0.2,0.2,0.4,0.3,0.5c0.1,0.1,0.3,0.2,0.6,0.2c0.4,0,0.7-0.2,0.8-0.6
			c0.1-0.4,0.2-1.1,0.2-2s-0.1-1.6-0.2-2s-0.4-0.6-0.8-0.6c-0.2,0-0.4,0.1-0.6,0.2s-0.2,0.3-0.3,0.5c-0.1,0.2-0.1,0.5-0.1,0.8
			s0,0.7,0,1.1S1106.9,660.3,1106.9,660.6z"/>
		<path d="M1116,662.4c-0.2,0.4-0.5,0.6-0.8,0.8s-0.7,0.2-1.1,0.2c-0.6,0-1.1-0.2-1.4-0.5s-0.5-0.9-0.5-1.6v-5.6h1.9v5.2
			c0,0.4,0.1,0.7,0.2,0.8c0.1,0.2,0.3,0.2,0.6,0.2c0.7,0,1-0.4,1-1.2v-5h1.9v7.5h-1.8L1116,662.4L1116,662.4z"/>
		<path d="M1121.5,653.3v10h-1.9v-10H1121.5z"/>
		<path d="M1130.2,653.3c0.4,0,0.8,0,1.1,0.1s0.7,0.2,0.9,0.4s0.4,0.5,0.6,0.8c0.1,0.3,0.2,0.7,0.2,1.2s-0.1,1-0.4,1.4
			s-0.6,0.7-1.1,0.8l0,0c0.6,0.1,1,0.3,1.3,0.7s0.5,0.9,0.5,1.6c0,0.4-0.1,0.8-0.2,1.1s-0.3,0.7-0.5,0.9c-0.2,0.3-0.6,0.5-1,0.6
			c-0.4,0.2-0.9,0.2-1.5,0.2h-3.4v-10h3.5V653.3z M1129.4,657.4c0.6,0,1-0.1,1.2-0.3c0.3-0.2,0.4-0.5,0.4-1s-0.1-0.8-0.3-1
			c-0.2-0.2-0.6-0.3-1.1-0.3h-0.7v2.6H1129.4z M1129.6,661.8c0.5,0,0.9-0.1,1.2-0.3s0.4-0.6,0.4-1.2c0-0.3,0-0.5-0.1-0.7
			s-0.2-0.3-0.3-0.5c-0.1-0.1-0.3-0.2-0.5-0.2s-0.4-0.1-0.6-0.1h-0.9v3H1129.6z"/>
		<path d="M1134.8,657.9c0-0.4,0.1-0.8,0.2-1.1s0.3-0.5,0.6-0.7c0.2-0.2,0.5-0.3,0.8-0.4c0.3-0.1,0.7-0.1,1-0.1c0.6,0,1,0.1,1.4,0.2
			c0.4,0.1,0.6,0.3,0.8,0.5s0.3,0.5,0.4,0.7c0.1,0.3,0.1,0.6,0.1,0.9v4c0,0.4,0,0.6,0,0.8s0.1,0.4,0.2,0.6h-1.8
			c-0.1-0.1-0.1-0.2-0.1-0.4c0-0.1-0.1-0.3-0.1-0.4l0,0c-0.2,0.4-0.5,0.6-0.8,0.8c-0.3,0.1-0.7,0.2-1.1,0.2c-0.3,0-0.6-0.1-0.9-0.2
			c-0.2-0.1-0.4-0.3-0.6-0.5s-0.2-0.4-0.3-0.7c-0.1-0.3-0.1-0.5-0.1-0.8c0-0.4,0-0.7,0.1-0.9c0.1-0.3,0.2-0.5,0.3-0.7
			c0.2-0.2,0.3-0.3,0.6-0.5c0.2-0.1,0.5-0.2,0.9-0.3l1.1-0.3c0.3-0.1,0.5-0.2,0.6-0.3s0.2-0.3,0.2-0.6s-0.1-0.5-0.2-0.7
			s-0.4-0.2-0.7-0.2c-0.3,0-0.5,0.1-0.7,0.3c-0.1,0.2-0.2,0.4-0.2,0.7v0.2L1134.8,657.9L1134.8,657.9L1134.8,657.9z M1137.9,659.8
			c-0.1,0.1-0.3,0.1-0.4,0.1c-0.4,0.1-0.7,0.2-0.8,0.4c-0.2,0.2-0.3,0.5-0.3,0.8s0.1,0.5,0.2,0.7s0.3,0.3,0.6,0.3
			c0.1,0,0.3,0,0.4-0.1c0.1,0,0.3-0.1,0.4-0.2c0.1-0.1,0.2-0.2,0.3-0.4c0.1-0.1,0.1-0.3,0.1-0.5v-1.5
			C1138.2,659.7,1138.1,659.7,1137.9,659.8z"/>
		<path d="M1142.3,664.3c0.4,0,0.6-0.1,0.8-0.3c0.2-0.2,0.2-0.4,0.3-0.7l-2.1-7.5h2l1.1,5.2l0,0l1-5.2h1.9l-1.8,7
			c-0.2,0.6-0.3,1.1-0.5,1.5s-0.3,0.7-0.5,0.9s-0.5,0.3-0.8,0.4s-0.7,0.1-1.1,0.1h-0.8v-1.4C1142,664.3,1142.2,664.3,1142.3,664.3z"
			/>
	</g>
	<g>
		<path d="M1119.7,633.4c-0.2-0.3-0.5-0.5-0.9-0.5c-0.3,0-0.5,0.1-0.6,0.2s-0.3,0.4-0.4,0.7s-0.2,0.7-0.2,1.2s-0.1,1.1-0.1,1.8
			c0,0.8,0,1.4,0.1,1.8c0.1,0.5,0.1,0.8,0.2,1.1s0.2,0.4,0.4,0.5s0.4,0.1,0.6,0.1s0.3,0,0.5-0.1s0.3-0.2,0.4-0.4s0.2-0.4,0.3-0.8
			c0.1-0.3,0.1-0.8,0.1-1.3h2c0,0.5,0,1.1-0.1,1.5s-0.2,0.9-0.5,1.3s-0.6,0.6-1,0.9s-1,0.3-1.6,0.3c-0.8,0-1.4-0.1-1.8-0.4
			s-0.8-0.6-1-1s-0.4-1-0.5-1.6s-0.1-1.3-0.1-2.1s0-1.5,0.1-2.1s0.2-1.2,0.5-1.6c0.2-0.5,0.6-0.8,1-1.1s1-0.4,1.8-0.4
			c0.7,0,1.3,0.1,1.7,0.4s0.7,0.5,0.9,0.9s0.3,0.7,0.4,1.2c0.1,0.4,0.1,0.8,0.1,1.2h-2C1120,634.3,1119.9,633.7,1119.7,633.4z"/>
		<path d="M1125.3,634.1v1l0,0c0.2-0.4,0.4-0.7,0.7-0.9c0.3-0.2,0.6-0.3,1-0.3c0.1,0,0.1,0,0.2,0s0.1,0,0.2,0v1.8
			c-0.1,0-0.2,0-0.3,0s-0.2,0-0.3,0c-0.2,0-0.3,0-0.5,0.1c-0.2,0-0.3,0.1-0.5,0.2c-0.1,0.1-0.3,0.2-0.3,0.4s-0.1,0.4-0.1,0.6v4.5
			h-1.9V634h1.8V634.1z"/>
		<path d="M1128.4,636.2c0-0.4,0.1-0.8,0.2-1.1s0.3-0.5,0.6-0.7c0.2-0.2,0.5-0.3,0.8-0.4c0.3-0.1,0.7-0.1,1-0.1c0.6,0,1,0.1,1.4,0.2
			c0.4,0.1,0.6,0.3,0.8,0.5s0.3,0.5,0.4,0.7c0.1,0.3,0.1,0.6,0.1,0.9v4c0,0.4,0,0.6,0,0.8s0.1,0.4,0.2,0.6h-1.8
			c-0.1-0.1-0.1-0.2-0.1-0.4c0-0.1-0.1-0.3-0.1-0.4l0,0c-0.2,0.4-0.5,0.6-0.8,0.8c-0.3,0.1-0.7,0.2-1.1,0.2c-0.3,0-0.6-0.1-0.9-0.2
			c-0.2-0.1-0.4-0.3-0.6-0.5s-0.2-0.4-0.3-0.7c-0.1-0.3-0.1-0.5-0.1-0.8c0-0.4,0-0.7,0.1-0.9c0.1-0.3,0.2-0.5,0.3-0.7
			c0.2-0.2,0.3-0.3,0.6-0.5c0.2-0.1,0.5-0.2,0.9-0.3l1.1-0.3c0.3-0.1,0.5-0.2,0.6-0.3s0.2-0.3,0.2-0.6s-0.1-0.5-0.2-0.7
			s-0.4-0.2-0.7-0.2c-0.3,0-0.5,0.1-0.7,0.3c-0.1,0.2-0.2,0.4-0.2,0.7v0.2L1128.4,636.2L1128.4,636.2L1128.4,636.2z M1131.5,638.1
			c-0.1,0.1-0.3,0.1-0.4,0.1c-0.4,0.1-0.7,0.2-0.8,0.4c-0.2,0.2-0.3,0.5-0.3,0.8s0.1,0.5,0.2,0.7s0.3,0.3,0.6,0.3
			c0.1,0,0.3,0,0.4-0.1c0.1,0,0.3-0.1,0.4-0.2c0.1-0.1,0.2-0.2,0.3-0.4c0.1-0.1,0.1-0.3,0.1-0.5v-1.5
			C1131.8,637.9,1131.7,638,1131.5,638.1z"/>
		<path d="M1137.3,634.1v0.9l0,0c0.2-0.4,0.5-0.6,0.8-0.8s0.7-0.3,1.1-0.3c0.6,0,1.1,0.2,1.4,0.5s0.5,0.9,0.5,1.6v5.6h-1.9v-5.2
			c0-0.4-0.1-0.7-0.2-0.8c-0.1-0.2-0.3-0.2-0.6-0.2c-0.7,0-1,0.4-1,1.2v5h-1.9v-7.5H1137.3z"/>
		<path d="M1144.4,638.7c0,0.2,0,0.4,0,0.7c0,0.2,0.1,0.4,0.2,0.6c0.1,0.2,0.2,0.3,0.3,0.4c0.1,0.1,0.3,0.1,0.4,0.1
			c0.3,0,0.6-0.1,0.7-0.3s0.3-0.6,0.3-1.1h1.7c0,0.9-0.3,1.5-0.7,2c-0.4,0.5-1.1,0.7-2,0.7c-0.7,0-1.2-0.1-1.6-0.4
			c-0.4-0.2-0.7-0.5-0.9-0.9s-0.3-0.8-0.3-1.3s-0.1-1-0.1-1.4c0-0.5,0-1,0.1-1.5s0.2-0.9,0.4-1.2s0.5-0.7,0.9-0.9s0.9-0.3,1.6-0.3
			c0.6,0,1,0.1,1.4,0.3s0.6,0.4,0.8,0.8c0.2,0.3,0.3,0.7,0.4,1.2s0.1,1,0.1,1.6v0.4h-3.8L1144.4,638.7L1144.4,638.7z M1146.3,636.2
			c0-0.2-0.1-0.4-0.1-0.6c-0.1-0.2-0.2-0.3-0.3-0.3s-0.3-0.1-0.5-0.1s-0.4,0-0.5,0.1s-0.2,0.2-0.3,0.4c-0.1,0.1-0.1,0.3-0.2,0.5
			c0,0.2,0,0.4,0,0.5v0.3h2C1146.3,636.7,1146.3,636.4,1146.3,636.2z"/>
		<path d="M1156.5,631.6c0.4,0,0.8,0,1.1,0.1c0.4,0.1,0.7,0.2,0.9,0.4s0.4,0.5,0.6,0.8c0.1,0.3,0.2,0.7,0.2,1.2s-0.1,1-0.4,1.4
			s-0.6,0.7-1.1,0.8l0,0c0.6,0.1,1,0.3,1.3,0.7s0.5,0.9,0.5,1.6c0,0.4-0.1,0.8-0.2,1.1s-0.3,0.7-0.5,0.9s-0.6,0.5-1,0.6
			c-0.4,0.2-0.9,0.2-1.5,0.2h-3.4v-10h3.5V631.6z M1155.8,635.7c0.6,0,1-0.1,1.2-0.3c0.3-0.2,0.4-0.5,0.4-1s-0.1-0.8-0.4-1
			c-0.2-0.2-0.6-0.3-1.1-0.3h-0.7v2.6H1155.8z M1156,640.1c0.5,0,0.9-0.1,1.2-0.3s0.4-0.6,0.4-1.2c0-0.3,0-0.5-0.1-0.7
			s-0.2-0.3-0.3-0.5c-0.1-0.1-0.3-0.2-0.5-0.2s-0.4-0.1-0.6-0.1h-0.9v3H1156z"/>
		<path d="M1162.8,638.7c0,0.2,0,0.4,0,0.7c0,0.2,0.1,0.4,0.2,0.6c0.1,0.2,0.2,0.3,0.3,0.4c0.1,0.1,0.3,0.1,0.4,0.1
			c0.3,0,0.6-0.1,0.7-0.3s0.3-0.6,0.3-1.1h1.7c0,0.9-0.3,1.5-0.7,2c-0.4,0.5-1.1,0.7-2,0.7c-0.7,0-1.2-0.1-1.6-0.4
			c-0.4-0.2-0.7-0.5-0.9-0.9s-0.3-0.8-0.3-1.3s-0.1-1-0.1-1.4c0-0.5,0-1,0.1-1.5s0.2-0.9,0.4-1.2s0.5-0.7,0.9-0.9s0.9-0.3,1.6-0.3
			c0.6,0,1,0.1,1.4,0.3s0.6,0.4,0.8,0.8c0.2,0.3,0.3,0.7,0.4,1.2s0.1,1,0.1,1.6v0.4h-3.8L1162.8,638.7L1162.8,638.7z M1164.7,636.2
			c0-0.2-0.1-0.4-0.1-0.6c-0.1-0.2-0.2-0.3-0.3-0.3s-0.3-0.1-0.5-0.1s-0.4,0-0.5,0.1s-0.2,0.2-0.3,0.4c-0.1,0.1-0.1,0.3-0.2,0.5
			c0,0.2,0,0.4,0,0.5v0.3h2C1164.8,636.7,1164.8,636.4,1164.7,636.2z"/>
		<path d="M1167.9,636.2c0-0.4,0.1-0.8,0.2-1.1s0.3-0.5,0.6-0.7c0.2-0.2,0.5-0.3,0.8-0.4c0.3-0.1,0.7-0.1,1-0.1c0.6,0,1,0.1,1.4,0.2
			c0.4,0.1,0.6,0.3,0.8,0.5c0.2,0.2,0.3,0.5,0.4,0.7c0.1,0.3,0.1,0.6,0.1,0.9v4c0,0.4,0,0.6,0,0.8s0.1,0.4,0.2,0.6h-1.8
			c-0.1-0.1-0.1-0.2-0.1-0.4c0-0.1-0.1-0.3-0.1-0.4l0,0c-0.2,0.4-0.5,0.6-0.8,0.8c-0.3,0.1-0.7,0.2-1.1,0.2c-0.3,0-0.6-0.1-0.9-0.2
			c-0.2-0.1-0.4-0.3-0.6-0.5c-0.1-0.2-0.2-0.4-0.3-0.7c-0.1-0.3-0.1-0.5-0.1-0.8c0-0.4,0-0.7,0.1-0.9c0.1-0.3,0.2-0.5,0.3-0.7
			c0.2-0.2,0.3-0.3,0.6-0.5c0.2-0.1,0.5-0.2,0.9-0.3l1.1-0.3c0.3-0.1,0.5-0.2,0.6-0.3s0.2-0.3,0.2-0.6s-0.1-0.5-0.2-0.7
			s-0.4-0.2-0.7-0.2c-0.3,0-0.5,0.1-0.7,0.3c-0.1,0.2-0.2,0.4-0.2,0.7v0.2L1167.9,636.2L1167.9,636.2L1167.9,636.2z M1171,638.1
			c-0.1,0.1-0.3,0.1-0.4,0.1c-0.4,0.1-0.7,0.2-0.8,0.4c-0.2,0.2-0.3,0.5-0.3,0.8s0.1,0.5,0.2,0.7s0.3,0.3,0.6,0.3
			c0.1,0,0.3,0,0.4-0.1c0.1,0,0.3-0.1,0.4-0.2c0.1-0.1,0.2-0.2,0.3-0.4c0.1-0.1,0.1-0.3,0.1-0.5v-1.5
			C1171.3,637.9,1171.2,638,1171,638.1z"/>
		<path d="M1178.5,636.2c0-0.2-0.1-0.3-0.1-0.5s-0.1-0.3-0.3-0.4c-0.1-0.1-0.3-0.1-0.4-0.1c-0.2,0-0.4,0.1-0.6,0.2s-0.3,0.3-0.3,0.5
			c-0.1,0.2-0.1,0.5-0.2,0.8c0,0.3,0,0.7,0,1.1c0,0.5,0,0.9,0,1.2s0.1,0.6,0.2,0.8s0.2,0.4,0.3,0.5c0.1,0.1,0.3,0.1,0.5,0.1
			c0.3,0,0.6-0.1,0.7-0.4s0.2-0.7,0.2-1.3h1.8c0,1-0.2,1.7-0.7,2.3s-1.2,0.8-2.2,0.8c-0.5,0-0.9-0.1-1.3-0.2
			c-0.4-0.1-0.7-0.3-0.9-0.6c-0.2-0.3-0.4-0.7-0.5-1.2s-0.2-1.1-0.2-1.9c0-0.8,0.1-1.4,0.2-1.9s0.4-0.9,0.6-1.2
			c0.3-0.3,0.6-0.5,1-0.6s0.8-0.2,1.2-0.2c0.9,0,1.6,0.3,2,0.8c0.5,0.5,0.7,1.2,0.7,2.1h-1.8
			C1178.6,636.6,1178.6,636.4,1178.5,636.2z"/>
		<path d="M1183.6,631.6v3.2l0,0c0.4-0.6,1-1,1.8-1c0.6,0,1.1,0.2,1.4,0.5s0.5,0.9,0.5,1.6v5.6h-1.9v-5.2c0-0.4-0.1-0.7-0.2-0.8
			c-0.1-0.2-0.3-0.2-0.6-0.2c-0.7,0-1,0.4-1,1.2v5h-1.9v-10h1.9V631.6z"/>
	</g>
	<g>
		<path d="M1038.9,677.3l2.6,10h-2.1l-0.5-2.1h-2.7l-0.5,2.1h-2.1l2.6-10H1038.9z M1038.6,683.5l-1-4.5l0,0l-1,4.5H1038.6z"/>
		<path d="M1044.4,677.2v1.7h-1.9v-1.7H1044.4z M1044.4,679.7v7.5h-1.9v-7.5H1044.4z"/>
		<path d="M1047.9,679.7v1l0,0c0.2-0.4,0.4-0.7,0.7-0.9c0.3-0.2,0.6-0.3,1-0.3c0.1,0,0.1,0,0.2,0s0.1,0,0.2,0v1.8
			c-0.1,0-0.2,0-0.3,0c-0.1,0-0.2,0-0.3,0c-0.2,0-0.3,0-0.5,0.1c-0.2,0-0.3,0.1-0.5,0.2c-0.1,0.1-0.3,0.2-0.3,0.4s-0.1,0.4-0.1,0.6
			v4.5h-1.9v-7.5h1.8V679.7z"/>
		<path d="M1052.9,679.7v0.8l0,0c0.2-0.4,0.5-0.6,0.7-0.8c0.3-0.2,0.6-0.2,1-0.2c0.8,0,1.4,0.3,1.8,0.9s0.6,1.6,0.6,3
			s-0.2,2.4-0.6,3s-1,0.9-1.8,0.9c-0.4,0-0.7-0.1-0.9-0.2c-0.3-0.1-0.5-0.4-0.7-0.7l0,0v3.1h-1.9v-10h1.8V679.7z M1053.1,685.4
			c0.1,0.4,0.4,0.6,0.8,0.6s0.7-0.2,0.8-0.6c0.1-0.4,0.2-1,0.2-1.9s-0.1-1.4-0.2-1.9s-0.4-0.6-0.8-0.6s-0.7,0.2-0.8,0.6
			s-0.2,1-0.2,1.9S1053,685,1053.1,685.4z"/>
		<path d="M1058.2,681.8c0.1-0.5,0.3-0.9,0.5-1.2s0.5-0.6,0.9-0.8s0.8-0.3,1.4-0.3s1.1,0.1,1.4,0.2s0.7,0.4,0.9,0.7
			c0.2,0.3,0.4,0.8,0.5,1.2c0.1,0.5,0.1,1.1,0.1,1.7c0,0.6-0.1,1.2-0.2,1.7s-0.3,0.9-0.5,1.2s-0.5,0.6-0.9,0.7s-0.8,0.2-1.4,0.2
			s-1.1-0.1-1.4-0.2c-0.4-0.2-0.7-0.4-0.9-0.7s-0.4-0.7-0.5-1.2s-0.1-1.1-0.1-1.7C1058.1,682.9,1058.1,682.3,1058.2,681.8z
			 M1060,684.6c0,0.3,0.1,0.6,0.1,0.8c0.1,0.2,0.2,0.4,0.3,0.5c0.1,0.1,0.3,0.2,0.6,0.2c0.4,0,0.7-0.2,0.8-0.6
			c0.1-0.4,0.2-1.1,0.2-2s-0.1-1.6-0.2-2s-0.4-0.6-0.8-0.6c-0.2,0-0.4,0.1-0.6,0.2s-0.2,0.3-0.3,0.5c-0.1,0.2-0.1,0.5-0.1,0.8
			s0,0.7,0,1.1S1060,684.3,1060,684.6z"/>
		<path d="M1067.2,679.7v1l0,0c0.2-0.4,0.4-0.7,0.7-0.9c0.3-0.2,0.6-0.3,1-0.3c0.1,0,0.1,0,0.2,0s0.1,0,0.2,0v1.8
			c-0.1,0-0.2,0-0.3,0c-0.1,0-0.2,0-0.3,0c-0.2,0-0.3,0-0.5,0.1c-0.2,0-0.3,0.1-0.5,0.2c-0.1,0.1-0.3,0.2-0.3,0.4s-0.1,0.4-0.1,0.6
			v4.5h-1.9v-7.5h1.8V679.7z"/>
		<path d="M1072.6,677.6v2.2h1.1v1.3h-1.1v4.1c0,0.3,0,0.5,0.1,0.6s0.3,0.2,0.6,0.2c0.1,0,0.1,0,0.2,0s0.1,0,0.2,0v1.3
			c-0.2,0-0.4,0-0.6,0s-0.4,0-0.6,0c-0.4,0-0.7,0-0.9-0.1c-0.2-0.1-0.4-0.2-0.5-0.3c-0.1-0.2-0.2-0.4-0.3-0.6c0-0.3-0.1-0.6-0.1-1
			V681h-1v-1.3h1v-2.2L1072.6,677.6L1072.6,677.6z"/>
	</g>
	<circle class="st4" cx="814.7" cy="636.7" r="4.3"/>
	<circle class="st4" cx="947.1" cy="700.8" r="4.3"/>
	<circle class="st4" cx="921.1" cy="698.7" r="4.3"/>
	<circle class="st4" cx="1091.6" cy="650.7" r="4.3"/>
	<path class="st4" d="M1027.2,668.6c2.4,0,4.3,1.9,4.3,4.3s-1.9,4.3-4.3,4.3s-4.3-1.9-4.3-4.3S1024.8,668.6,1027.2,668.6z"/>
	<circle class="st4" cx="1105.8" cy="636.1" r="4.3"/>
	<circle class="st4" cx="257.1" cy="415.5" r="4.3"/>
	<circle class="st4" cx="191" cy="548" r="4.3"/>
	<circle class="st4" cx="234" cy="653.2" r="4.3"/>
	<circle class="st4" cx="245.7" cy="80.5" r="4.3"/>
	<g>
		
			<ellipse transform="matrix(0.1602 -0.9871 0.9871 0.1602 215.4271 1564.6044)" class="st5" cx="1027.2" cy="655.7" rx="5.7" ry="5.7"/>
		<path class="st2" d="M1027.2,646.4c-5,0-9,4-9,9c0,2,1.3,5.3,3.9,10c1.9,3.3,3.7,6.1,3.8,6.2l1.3,2l1.3-2c0.1-0.1,1.9-2.9,3.8-6.2
			c2.6-4.7,3.9-8,3.9-10C1036.2,650.4,1032.1,646.4,1027.2,646.4z M1027.2,660c-2.6,0-4.7-2.1-4.7-4.7c0-2.6,2.1-4.7,4.7-4.7
			s4.7,2.1,4.7,4.7C1031.8,657.9,1029.8,660,1027.2,660z"/>
	</g>
	<g>
		<path d="M287,157.9l2.6,10h-2.1l-0.5-2.1h-2.7l-0.5,2.1h-2.1l2.6-10H287z M286.7,164.2l-1-4.5l0,0l-1,4.5H286.7z"/>
		<path d="M292.5,157.8v1.7h-1.9v-1.7H292.5z M292.5,160.4v7.5h-1.9v-7.5H292.5z"/>
		<path d="M296,160.4v1l0,0c0.2-0.4,0.4-0.7,0.7-0.9c0.3-0.2,0.6-0.3,1-0.3c0.1,0,0.1,0,0.2,0s0.1,0,0.2,0v1.8c-0.1,0-0.2,0-0.3,0
			c-0.1,0-0.2,0-0.3,0c-0.2,0-0.3,0-0.5,0.1c-0.2,0-0.3,0.1-0.5,0.2s-0.3,0.2-0.3,0.4s-0.1,0.4-0.1,0.6v4.5h-1.9v-7.5L296,160.4
			L296,160.4z"/>
		<path d="M301,160.4v0.8l0,0c0.2-0.4,0.5-0.6,0.7-0.8c0.3-0.2,0.6-0.2,1-0.2c0.8,0,1.4,0.3,1.8,0.9c0.4,0.6,0.6,1.6,0.6,3
			s-0.2,2.4-0.6,3s-1,0.9-1.8,0.9c-0.4,0-0.7-0.1-0.9-0.2c-0.3-0.1-0.5-0.4-0.7-0.7l0,0v3.1h-1.9v-10h1.8V160.4z M301.2,166
			c0.1,0.4,0.4,0.6,0.8,0.6s0.7-0.2,0.8-0.6c0.1-0.4,0.2-1,0.2-1.9s-0.1-1.4-0.2-1.9s-0.4-0.6-0.8-0.6s-0.7,0.2-0.8,0.6
			s-0.2,1-0.2,1.9S301.1,165.6,301.2,166z"/>
		<path d="M306.3,162.4c0.1-0.5,0.3-0.9,0.5-1.2s0.5-0.6,0.9-0.8s0.8-0.3,1.4-0.3s1.1,0.1,1.4,0.2s0.7,0.4,0.9,0.7s0.4,0.8,0.5,1.2
			s0.1,1.1,0.1,1.7c0,0.6-0.1,1.2-0.2,1.7s-0.3,0.9-0.5,1.2s-0.5,0.6-0.9,0.7s-0.8,0.2-1.4,0.2s-1.1-0.1-1.4-0.2
			c-0.4-0.2-0.7-0.4-0.9-0.7c-0.2-0.3-0.4-0.7-0.5-1.2s-0.1-1.1-0.1-1.7C306.2,163.5,306.2,162.9,306.3,162.4z M308.1,165.2
			c0,0.3,0.1,0.6,0.1,0.8c0.1,0.2,0.2,0.4,0.3,0.5c0.1,0.1,0.3,0.2,0.6,0.2c0.4,0,0.7-0.2,0.8-0.6c0.1-0.4,0.2-1.1,0.2-2
			s-0.1-1.6-0.2-2s-0.4-0.6-0.8-0.6c-0.2,0-0.4,0.1-0.6,0.2c-0.1,0.1-0.2,0.3-0.3,0.5c-0.1,0.2-0.1,0.5-0.1,0.8s0,0.7,0,1.1
			S308.1,164.9,308.1,165.2z"/>
		<path d="M315.3,160.4v1l0,0c0.2-0.4,0.4-0.7,0.7-0.9c0.3-0.2,0.6-0.3,1-0.3c0.1,0,0.1,0,0.2,0s0.1,0,0.2,0v1.8c-0.1,0-0.2,0-0.3,0
			c-0.1,0-0.2,0-0.3,0c-0.2,0-0.3,0-0.5,0.1c-0.2,0-0.3,0.1-0.5,0.2s-0.3,0.2-0.3,0.4s-0.1,0.4-0.1,0.6v4.5h-1.9v-7.5L315.3,160.4
			L315.3,160.4z"/>
		<path d="M320.7,158.2v2.2h1.1v1.3h-1.1v4.1c0,0.3,0,0.5,0.1,0.6s0.3,0.2,0.6,0.2c0.1,0,0.1,0,0.2,0s0.1,0,0.2,0v1.3
			c-0.2,0-0.4,0-0.6,0s-0.4,0-0.6,0c-0.4,0-0.7,0-0.9-0.1c-0.2-0.1-0.4-0.2-0.5-0.3c-0.1-0.2-0.2-0.4-0.3-0.6c0-0.3-0.1-0.6-0.1-1
			v-4.3h-1v-1.3h1v-2.2h1.9V158.2z"/>
	</g>
	<circle class="st4" cx="325.6" cy="151.9" r="4.3"/>
	<g>
		
			<rect x="633.6" y="218.1" transform="matrix(0.4248 -0.9053 0.9053 0.4248 178.5267 727.215)" class="st6" width="55.8" height="10.1"/>
		
			<rect x="661.7" y="182.8" transform="matrix(0.4248 -0.9053 0.9053 0.4248 201.0871 725.3198)" class="st5" width="19.3" height="43.3"/>
		
			<rect x="642.2" y="222" transform="matrix(0.4248 -0.9053 0.9053 0.4248 154.393 730.301)" class="st5" width="19.3" height="43.3"/>
	</g>
</g>
<g class="st7">
	<path d="M409.6,449.8l1.1,7.4h0l1.2-7.4h1.9l1.2,7.4h0l1.1-7.4h1.9l-1.8,10H414l-1.1-7.3h0l-1.1,7.3h-2.3l-1.8-10H409.6z"/>
	<path d="M418.5,454.3c0-0.4,0.1-0.8,0.2-1.1c0.1-0.3,0.3-0.5,0.6-0.7c0.2-0.2,0.5-0.3,0.8-0.4c0.3-0.1,0.7-0.1,1-0.1
		c0.6,0,1,0.1,1.4,0.2c0.4,0.1,0.6,0.3,0.8,0.5c0.2,0.2,0.3,0.5,0.4,0.7c0.1,0.3,0.1,0.6,0.1,0.9v4c0,0.4,0,0.6,0,0.8
		c0,0.2,0.1,0.4,0.2,0.6h-1.8c-0.1-0.1-0.1-0.2-0.1-0.4c0-0.1-0.1-0.3-0.1-0.4h0c-0.2,0.4-0.5,0.6-0.8,0.8c-0.3,0.1-0.7,0.2-1.1,0.2
		c-0.3,0-0.6-0.1-0.9-0.2c-0.2-0.1-0.4-0.3-0.6-0.5c-0.1-0.2-0.2-0.4-0.3-0.7c-0.1-0.3-0.1-0.5-0.1-0.8c0-0.4,0-0.7,0.1-0.9
		s0.2-0.5,0.3-0.7c0.2-0.2,0.3-0.3,0.6-0.5c0.2-0.1,0.5-0.2,0.9-0.3l1.1-0.3c0.3-0.1,0.5-0.2,0.6-0.3c0.1-0.1,0.2-0.3,0.2-0.6
		c0-0.3-0.1-0.5-0.2-0.7s-0.4-0.2-0.7-0.2c-0.3,0-0.5,0.1-0.7,0.3c-0.1,0.2-0.2,0.4-0.2,0.7v0.2h-1.7V454.3z M421.7,456.2
		c-0.1,0.1-0.3,0.1-0.4,0.1c-0.4,0.1-0.7,0.2-0.8,0.4c-0.2,0.2-0.3,0.5-0.3,0.8c0,0.3,0.1,0.5,0.2,0.7c0.1,0.2,0.3,0.3,0.6,0.3
		c0.1,0,0.3,0,0.4-0.1s0.3-0.1,0.4-0.2c0.1-0.1,0.2-0.2,0.3-0.4s0.1-0.3,0.1-0.5V456C421.9,456.1,421.8,456.2,421.7,456.2z"/>
	<path d="M430.8,452.2l-1.9,7.5h-2.2l-1.9-7.5h2l1.1,5.4h0l1-5.4H430.8z"/>
	<path d="M433.5,449.6v1.7h-1.9v-1.7H433.5z M433.5,452.2v7.5h-1.9v-7.5H433.5z"/>
	<path d="M436.7,452.2v0.9h0c0.2-0.4,0.5-0.6,0.8-0.8s0.7-0.3,1.1-0.3c0.6,0,1.1,0.2,1.4,0.5c0.3,0.3,0.5,0.9,0.5,1.6v5.6h-1.9v-5.2
		c0-0.4-0.1-0.7-0.2-0.8c-0.1-0.2-0.3-0.2-0.6-0.2c-0.7,0-1,0.4-1,1.2v5h-1.9v-7.5H436.7z"/>
	<path d="M443.5,456.9c0,0.2,0,0.4,0,0.7c0,0.2,0.1,0.4,0.2,0.6c0.1,0.2,0.2,0.3,0.3,0.4c0.1,0.1,0.3,0.1,0.4,0.1
		c0.3,0,0.6-0.1,0.7-0.3s0.3-0.6,0.3-1.1h1.7c0,0.9-0.3,1.5-0.7,2c-0.4,0.5-1.1,0.7-2,0.7c-0.7,0-1.2-0.1-1.6-0.4
		c-0.4-0.2-0.7-0.5-0.9-0.9c-0.2-0.4-0.3-0.8-0.3-1.3c0-0.5-0.1-1-0.1-1.4c0-0.5,0-1,0.1-1.5c0.1-0.5,0.2-0.9,0.4-1.2
		s0.5-0.7,0.9-0.9c0.4-0.2,0.9-0.3,1.6-0.3c0.6,0,1,0.1,1.4,0.3s0.6,0.4,0.8,0.8c0.2,0.3,0.3,0.7,0.4,1.2c0.1,0.5,0.1,1,0.1,1.6v0.4
		h-3.8V456.9z M445.4,454.4c0-0.2-0.1-0.4-0.1-0.6c-0.1-0.2-0.2-0.3-0.3-0.3s-0.3-0.1-0.5-0.1s-0.4,0-0.5,0.1
		c-0.1,0.1-0.2,0.2-0.3,0.4s-0.1,0.3-0.2,0.5c0,0.2,0,0.4,0,0.5v0.3h2C445.5,454.8,445.5,454.6,445.4,454.4z"/>
</g>
<g class="st7">
	<path d="M412.2,466.5c-0.2-0.3-0.5-0.5-0.9-0.5c-0.3,0-0.5,0.1-0.6,0.2c-0.2,0.1-0.3,0.4-0.4,0.7c-0.1,0.3-0.2,0.7-0.2,1.2
		c0,0.5-0.1,1.1-0.1,1.8c0,0.8,0,1.4,0.1,1.8c0.1,0.5,0.1,0.8,0.2,1.1c0.1,0.3,0.2,0.4,0.4,0.5c0.2,0.1,0.4,0.1,0.6,0.1
		c0.2,0,0.3,0,0.5-0.1s0.3-0.2,0.4-0.4c0.1-0.2,0.2-0.4,0.3-0.8c0.1-0.3,0.1-0.8,0.1-1.3h2c0,0.5,0,1.1-0.1,1.5s-0.2,0.9-0.5,1.3
		c-0.2,0.4-0.6,0.6-1,0.9c-0.4,0.2-1,0.3-1.6,0.3c-0.8,0-1.4-0.1-1.8-0.4c-0.4-0.2-0.8-0.6-1-1c-0.2-0.5-0.4-1-0.5-1.6
		c-0.1-0.6-0.1-1.3-0.1-2.1c0-0.8,0-1.5,0.1-2.1c0.1-0.6,0.2-1.2,0.5-1.6c0.2-0.5,0.6-0.8,1-1.1c0.4-0.3,1.1-0.4,1.8-0.4
		c0.7,0,1.3,0.1,1.7,0.4c0.4,0.2,0.7,0.5,0.9,0.9c0.2,0.4,0.3,0.7,0.4,1.2c0.1,0.4,0.1,0.8,0.1,1.2h-2
		C412.5,467.4,412.4,466.9,412.2,466.5z"/>
	<path d="M416.2,475.8c0.4,0,0.6-0.1,0.8-0.3c0.2-0.2,0.2-0.4,0.3-0.7l-2.1-7.5h2l1.1,5.2h0l1-5.2h1.9l-1.8,7
		c-0.2,0.6-0.3,1.1-0.5,1.5c-0.2,0.4-0.3,0.7-0.5,0.9s-0.5,0.3-0.8,0.4s-0.7,0.1-1.1,0.1h-0.8v-1.4
		C415.9,475.8,416,475.8,416.2,475.8z"/>
	<path d="M423.8,467.2v1h0c0.2-0.4,0.4-0.7,0.7-0.9c0.3-0.2,0.6-0.3,1-0.3c0.1,0,0.1,0,0.2,0c0.1,0,0.1,0,0.2,0v1.8
		c-0.1,0-0.2,0-0.3,0c-0.1,0-0.2,0-0.3,0c-0.2,0-0.3,0-0.5,0.1c-0.2,0-0.3,0.1-0.5,0.2s-0.3,0.2-0.3,0.4s-0.1,0.4-0.1,0.6v4.5h-1.9
		v-7.5H423.8z"/>
	<path d="M428.6,464.6v1.7h-1.9v-1.7H428.6z M428.6,467.2v7.5h-1.9v-7.5H428.6z"/>
	<path d="M433.7,474.1c-0.2,0.3-0.4,0.5-0.7,0.7c-0.3,0.1-0.6,0.2-0.9,0.2c-0.8,0-1.4-0.3-1.8-0.9c-0.4-0.6-0.6-1.6-0.6-3
		c0-1.4,0.2-2.4,0.6-3c0.4-0.6,1-0.9,1.8-0.9c0.4,0,0.7,0.1,1,0.2c0.3,0.2,0.5,0.4,0.7,0.8h0v-0.8h1.8v10h-1.9L433.7,474.1
		L433.7,474.1z M433.5,469.1c-0.1-0.4-0.4-0.6-0.8-0.6c-0.4,0-0.7,0.2-0.8,0.6s-0.2,1-0.2,1.9s0.1,1.4,0.2,1.9
		c0.1,0.4,0.4,0.6,0.8,0.6c0.4,0,0.7-0.2,0.8-0.6c0.1-0.4,0.2-1,0.2-1.9S433.6,469.5,433.5,469.1z"/>
	<path d="M440.8,473.9c-0.2,0.4-0.5,0.6-0.8,0.8c-0.3,0.2-0.7,0.2-1.1,0.2c-0.6,0-1.1-0.2-1.4-0.5c-0.3-0.3-0.5-0.9-0.5-1.6v-5.6
		h1.9v5.2c0,0.4,0.1,0.7,0.2,0.8c0.1,0.2,0.3,0.2,0.6,0.2c0.7,0,1-0.4,1-1.2v-5h1.9v7.5h-1.8L440.8,473.9L440.8,473.9z"/>
	<path d="M445.6,471.9c0,0.2,0,0.4,0,0.7c0,0.2,0.1,0.4,0.2,0.6c0.1,0.2,0.2,0.3,0.3,0.4c0.1,0.1,0.3,0.1,0.4,0.1
		c0.3,0,0.6-0.1,0.7-0.3s0.3-0.6,0.3-1.1h1.7c0,0.9-0.3,1.5-0.7,2c-0.4,0.5-1.1,0.7-2,0.7c-0.7,0-1.2-0.1-1.6-0.4
		c-0.4-0.2-0.7-0.5-0.9-0.9c-0.2-0.4-0.3-0.8-0.3-1.3c0-0.5-0.1-1-0.1-1.4c0-0.5,0-1,0.1-1.5c0.1-0.5,0.2-0.9,0.4-1.2
		s0.5-0.7,0.9-0.9c0.4-0.2,0.9-0.3,1.6-0.3c0.6,0,1,0.1,1.4,0.3s0.6,0.4,0.8,0.8c0.2,0.3,0.3,0.7,0.4,1.2c0.1,0.5,0.1,1,0.1,1.6v0.4
		h-3.8V471.9z M447.5,469.4c0-0.2-0.1-0.4-0.1-0.6c-0.1-0.2-0.2-0.3-0.3-0.3s-0.3-0.1-0.5-0.1s-0.4,0-0.5,0.1
		c-0.1,0.1-0.2,0.2-0.3,0.4s-0.1,0.3-0.2,0.5c0,0.2,0,0.4,0,0.5v0.3h2C447.5,469.8,447.5,469.6,447.5,469.4z"/>
	<path d="M459.4,464.8v1.7h-3.6v2.4h3.4v1.7h-3.4v4.3h-2v-10H459.4z"/>
	<path d="M460,469.3c0-0.4,0.1-0.8,0.2-1.1c0.1-0.3,0.3-0.5,0.6-0.7c0.2-0.2,0.5-0.3,0.8-0.4c0.3-0.1,0.7-0.1,1-0.1
		c0.6,0,1,0.1,1.4,0.2c0.4,0.1,0.6,0.3,0.8,0.5c0.2,0.2,0.3,0.5,0.4,0.7c0.1,0.3,0.1,0.6,0.1,0.9v4c0,0.4,0,0.6,0,0.8
		c0,0.2,0.1,0.4,0.2,0.6h-1.8c-0.1-0.1-0.1-0.2-0.1-0.4c0-0.1-0.1-0.3-0.1-0.4h0c-0.2,0.4-0.5,0.6-0.8,0.8c-0.3,0.1-0.7,0.2-1.1,0.2
		c-0.3,0-0.6-0.1-0.9-0.2c-0.2-0.1-0.4-0.3-0.6-0.5c-0.1-0.2-0.2-0.4-0.3-0.7c-0.1-0.3-0.1-0.5-0.1-0.8c0-0.4,0-0.7,0.1-0.9
		s0.2-0.5,0.3-0.7c0.2-0.2,0.3-0.3,0.6-0.5c0.2-0.1,0.5-0.2,0.9-0.3l1.1-0.3c0.3-0.1,0.5-0.2,0.6-0.3c0.1-0.1,0.2-0.3,0.2-0.6
		c0-0.3-0.1-0.5-0.2-0.7s-0.4-0.2-0.7-0.2c-0.3,0-0.5,0.1-0.7,0.3c-0.1,0.2-0.2,0.4-0.2,0.7v0.2H460V469.3z M463.1,471.2
		c-0.1,0.1-0.3,0.1-0.4,0.1c-0.4,0.1-0.7,0.2-0.8,0.4c-0.2,0.2-0.3,0.5-0.3,0.8c0,0.3,0.1,0.5,0.2,0.7c0.1,0.2,0.3,0.3,0.6,0.3
		c0.1,0,0.3,0,0.4-0.1s0.3-0.1,0.4-0.2c0.1-0.1,0.2-0.2,0.3-0.4s0.1-0.3,0.1-0.5V471C463.4,471.1,463.2,471.2,463.1,471.2z"/>
	<path d="M468.7,464.8v10h-1.9v-10H468.7z"/>
	<path d="M472.1,464.8v10h-1.9v-10H472.1z"/>
	<path d="M474.8,472.5c0,0.3,0.1,0.6,0.3,0.8s0.4,0.3,0.7,0.3c0.3,0,0.5-0.1,0.7-0.2s0.3-0.4,0.3-0.7c0-0.2-0.1-0.4-0.2-0.6
		s-0.3-0.2-0.5-0.3l-1.4-0.5c-0.5-0.2-0.9-0.5-1.2-0.8c-0.3-0.3-0.4-0.8-0.4-1.3c0-0.3,0.1-0.6,0.2-0.9c0.1-0.3,0.3-0.5,0.5-0.7
		s0.5-0.4,0.9-0.5c0.4-0.1,0.8-0.2,1.3-0.2c0.9,0,1.5,0.2,1.9,0.6c0.4,0.4,0.6,0.9,0.6,1.6v0.3h-1.7c0-0.4-0.1-0.7-0.2-0.9
		c-0.1-0.2-0.3-0.3-0.7-0.3c-0.2,0-0.5,0.1-0.6,0.2c-0.2,0.1-0.3,0.3-0.3,0.6c0,0.2,0.1,0.4,0.2,0.5s0.3,0.3,0.7,0.4l1.2,0.4
		c0.6,0.2,1,0.5,1.3,0.8c0.3,0.3,0.4,0.8,0.4,1.4c0,0.4-0.1,0.7-0.2,1s-0.3,0.5-0.6,0.7c-0.2,0.2-0.5,0.3-0.9,0.4
		c-0.3,0.1-0.7,0.1-1.1,0.1c-0.5,0-1-0.1-1.4-0.2c-0.4-0.1-0.6-0.3-0.9-0.5s-0.4-0.5-0.4-0.7c-0.1-0.3-0.1-0.6-0.1-1v-0.3h1.7V472.5
		z"/>
</g>
<g class="st7">
	<path d="M420.8,508c0-0.2-0.1-0.4-0.2-0.5s-0.2-0.3-0.4-0.4c-0.1-0.1-0.3-0.2-0.5-0.2c-0.5,0-0.8,0.3-1.1,0.8
		c-0.2,0.5-0.3,1.4-0.3,2.7c0,0.6,0,1.1,0.1,1.6c0,0.5,0.1,0.9,0.2,1.2s0.2,0.6,0.4,0.8c0.2,0.2,0.4,0.3,0.7,0.3
		c0.1,0,0.3,0,0.4-0.1s0.3-0.2,0.4-0.3s0.2-0.3,0.3-0.5c0.1-0.2,0.1-0.4,0.1-0.7v-1h-1.3v-1.5h3.3v5.4h-1.5v-0.9h0
		c-0.2,0.4-0.5,0.7-0.9,0.8s-0.7,0.2-1.2,0.2c-0.6,0-1.1-0.1-1.5-0.3s-0.7-0.5-0.9-1s-0.4-1-0.4-1.7c-0.1-0.7-0.1-1.4-0.1-2.3
		c0-0.8,0.1-1.6,0.2-2.2c0.1-0.6,0.3-1.2,0.6-1.6s0.6-0.7,1-1c0.4-0.2,1-0.3,1.6-0.3c1.1,0,1.9,0.3,2.4,0.8s0.7,1.3,0.7,2.3h-1.9
		C420.9,508.4,420.9,508.2,420.8,508z"/>
	<path d="M426.2,505.6v10h-1.9v-10H426.2z"/>
	<path d="M427.5,510.2c0-0.4,0.1-0.8,0.2-1.1c0.1-0.3,0.3-0.5,0.6-0.7c0.2-0.2,0.5-0.3,0.8-0.4c0.3-0.1,0.7-0.1,1-0.1
		c0.6,0,1,0.1,1.4,0.2c0.4,0.1,0.6,0.3,0.8,0.5c0.2,0.2,0.3,0.5,0.4,0.7c0.1,0.3,0.1,0.6,0.1,0.9v4c0,0.4,0,0.6,0,0.8
		c0,0.2,0.1,0.4,0.2,0.6h-1.8c-0.1-0.1-0.1-0.2-0.1-0.4c0-0.1-0.1-0.3-0.1-0.4h0c-0.2,0.4-0.5,0.6-0.8,0.8c-0.3,0.1-0.7,0.2-1.1,0.2
		c-0.3,0-0.6-0.1-0.9-0.2c-0.2-0.1-0.4-0.3-0.6-0.5c-0.1-0.2-0.2-0.4-0.3-0.7c-0.1-0.3-0.1-0.5-0.1-0.8c0-0.4,0-0.7,0.1-0.9
		s0.2-0.5,0.3-0.7c0.2-0.2,0.3-0.3,0.6-0.5c0.2-0.1,0.5-0.2,0.9-0.3l1.1-0.3c0.3-0.1,0.5-0.2,0.6-0.3c0.1-0.1,0.2-0.3,0.2-0.6
		c0-0.3-0.1-0.5-0.2-0.7s-0.4-0.2-0.7-0.2c-0.3,0-0.5,0.1-0.7,0.3c-0.1,0.2-0.2,0.4-0.2,0.7v0.2h-1.7V510.2z M430.6,512.1
		c-0.1,0.1-0.3,0.1-0.4,0.1c-0.4,0.1-0.7,0.2-0.8,0.4c-0.2,0.2-0.3,0.5-0.3,0.8c0,0.3,0.1,0.5,0.2,0.7c0.1,0.2,0.3,0.3,0.6,0.3
		c0.1,0,0.3,0,0.4-0.1s0.3-0.1,0.4-0.2c0.1-0.1,0.2-0.2,0.3-0.4s0.1-0.3,0.1-0.5v-1.5C430.9,512,430.8,512,430.6,512.1z"/>
	<path d="M435.7,513.4c0,0.3,0.1,0.6,0.3,0.8s0.4,0.3,0.7,0.3c0.3,0,0.5-0.1,0.7-0.2s0.3-0.4,0.3-0.7c0-0.2-0.1-0.4-0.2-0.6
		s-0.3-0.2-0.5-0.3l-1.4-0.5c-0.5-0.2-0.9-0.5-1.2-0.8c-0.3-0.3-0.4-0.8-0.4-1.3c0-0.3,0.1-0.6,0.2-0.9c0.1-0.3,0.3-0.5,0.5-0.7
		s0.5-0.4,0.9-0.5c0.4-0.1,0.8-0.2,1.3-0.2c0.9,0,1.5,0.2,1.9,0.6c0.4,0.4,0.6,0.9,0.6,1.6v0.3h-1.7c0-0.4-0.1-0.7-0.2-0.9
		c-0.1-0.2-0.3-0.3-0.7-0.3c-0.2,0-0.5,0.1-0.6,0.2c-0.2,0.1-0.3,0.3-0.3,0.6c0,0.2,0.1,0.4,0.2,0.5s0.3,0.3,0.7,0.4l1.2,0.4
		c0.6,0.2,1,0.5,1.3,0.8c0.3,0.3,0.4,0.8,0.4,1.4c0,0.4-0.1,0.7-0.2,1s-0.3,0.5-0.6,0.7c-0.2,0.2-0.5,0.3-0.9,0.4
		c-0.3,0.1-0.7,0.1-1.1,0.1c-0.5,0-1-0.1-1.4-0.2c-0.4-0.1-0.6-0.3-0.9-0.5s-0.4-0.5-0.4-0.7c-0.1-0.3-0.1-0.6-0.1-1v-0.3h1.7V513.4
		z"/>
	<path d="M441.9,513.4c0,0.3,0.1,0.6,0.3,0.8s0.4,0.3,0.7,0.3c0.3,0,0.5-0.1,0.7-0.2s0.3-0.4,0.3-0.7c0-0.2-0.1-0.4-0.2-0.6
		s-0.3-0.2-0.5-0.3l-1.4-0.5c-0.5-0.2-0.9-0.5-1.2-0.8c-0.3-0.3-0.4-0.8-0.4-1.3c0-0.3,0.1-0.6,0.2-0.9c0.1-0.3,0.3-0.5,0.5-0.7
		s0.5-0.4,0.9-0.5c0.4-0.1,0.8-0.2,1.3-0.2c0.9,0,1.5,0.2,1.9,0.6c0.4,0.4,0.6,0.9,0.6,1.6v0.3h-1.7c0-0.4-0.1-0.7-0.2-0.9
		c-0.1-0.2-0.3-0.3-0.7-0.3c-0.2,0-0.5,0.1-0.6,0.2c-0.2,0.1-0.3,0.3-0.3,0.6c0,0.2,0.1,0.4,0.2,0.5s0.3,0.3,0.7,0.4l1.2,0.4
		c0.6,0.2,1,0.5,1.3,0.8c0.3,0.3,0.4,0.8,0.4,1.4c0,0.4-0.1,0.7-0.2,1s-0.3,0.5-0.6,0.7c-0.2,0.2-0.5,0.3-0.9,0.4
		c-0.3,0.1-0.7,0.1-1.1,0.1c-0.5,0-1-0.1-1.4-0.2c-0.4-0.1-0.6-0.3-0.9-0.5s-0.4-0.5-0.4-0.7c-0.1-0.3-0.1-0.6-0.1-1v-0.3h1.7V513.4
		z"/>
	<path d="M448.4,512.8c0,0.2,0,0.4,0,0.7c0,0.2,0.1,0.4,0.2,0.6c0.1,0.2,0.2,0.3,0.3,0.4c0.1,0.1,0.3,0.1,0.4,0.1
		c0.3,0,0.6-0.1,0.7-0.3s0.3-0.6,0.3-1.1h1.7c0,0.9-0.3,1.5-0.7,2c-0.4,0.5-1.1,0.7-2,0.7c-0.7,0-1.2-0.1-1.6-0.4
		c-0.4-0.2-0.7-0.5-0.9-0.9c-0.2-0.4-0.3-0.8-0.3-1.3c0-0.5-0.1-1-0.1-1.4c0-0.5,0-1,0.1-1.5c0.1-0.5,0.2-0.9,0.4-1.2
		s0.5-0.7,0.9-0.9c0.4-0.2,0.9-0.3,1.6-0.3c0.6,0,1,0.1,1.4,0.3s0.6,0.4,0.8,0.8c0.2,0.3,0.3,0.7,0.4,1.2c0.1,0.5,0.1,1,0.1,1.6v0.4
		h-3.8V512.8z M450.3,510.2c0-0.2-0.1-0.4-0.1-0.6c-0.1-0.2-0.2-0.3-0.3-0.3s-0.3-0.1-0.5-0.1s-0.4,0-0.5,0.1
		c-0.1,0.1-0.2,0.2-0.3,0.4s-0.1,0.3-0.2,0.5c0,0.2,0,0.4,0,0.5v0.3h2C450.3,510.7,450.3,510.5,450.3,510.2z M451.1,505.2l-1.4,2
		h-1.3l0.8-2H451.1z"/>
	<path d="M460.1,505.6c0.5,0,0.9,0.1,1.3,0.3c0.4,0.2,0.6,0.4,0.8,0.7c0.2,0.3,0.4,0.6,0.5,1s0.1,0.7,0.1,1.1c0,0.5-0.1,1-0.2,1.3
		c-0.2,0.4-0.4,0.7-0.6,0.9c-0.3,0.2-0.6,0.4-1,0.5c-0.4,0.1-0.8,0.2-1.3,0.2h-1.1v4h-2v-10H460.1z M459.5,510.1
		c0.4,0,0.7-0.1,1-0.4c0.2-0.2,0.4-0.6,0.4-1.1c0-0.5-0.1-0.9-0.3-1.1c-0.2-0.3-0.6-0.4-1.1-0.4h-0.8v3H459.5z"/>
	<path d="M463.5,510.1c0.1-0.5,0.3-0.9,0.5-1.2s0.5-0.6,0.9-0.8c0.4-0.2,0.8-0.3,1.4-0.3c0.6,0,1.1,0.1,1.4,0.2s0.7,0.4,0.9,0.7
		s0.4,0.8,0.5,1.2s0.1,1.1,0.1,1.7c0,0.6-0.1,1.2-0.2,1.7c-0.1,0.5-0.3,0.9-0.5,1.2c-0.2,0.3-0.5,0.6-0.9,0.7s-0.8,0.2-1.4,0.2
		c-0.6,0-1.1-0.1-1.4-0.2c-0.4-0.2-0.7-0.4-0.9-0.7c-0.2-0.3-0.4-0.7-0.5-1.2c-0.1-0.5-0.1-1.1-0.1-1.7
		C463.3,511.2,463.4,510.6,463.5,510.1z M465.3,512.9c0,0.3,0.1,0.6,0.1,0.8c0.1,0.2,0.2,0.4,0.3,0.5c0.1,0.1,0.3,0.2,0.6,0.2
		c0.4,0,0.7-0.2,0.8-0.6c0.1-0.4,0.2-1.1,0.2-2c0-0.9-0.1-1.6-0.2-2s-0.4-0.6-0.8-0.6c-0.2,0-0.4,0.1-0.6,0.2
		c-0.1,0.1-0.2,0.3-0.3,0.5c-0.1,0.2-0.1,0.5-0.1,0.8c0,0.3,0,0.7,0,1.1S465.2,512.6,465.3,512.9z"/>
	<path d="M472.3,505.5v1.7h-1.9v-1.7H472.3z M472.3,508.1v7.5h-1.9v-7.5H472.3z"/>
	<path d="M475.5,508.1v0.9h0c0.2-0.4,0.5-0.6,0.8-0.8s0.7-0.3,1.1-0.3c0.6,0,1.1,0.2,1.4,0.5c0.3,0.3,0.5,0.9,0.5,1.6v5.6h-1.9v-5.2
		c0-0.4-0.1-0.7-0.2-0.8c-0.1-0.2-0.3-0.2-0.6-0.2c-0.7,0-1,0.4-1,1.2v5h-1.9v-7.5H475.5z"/>
	<path d="M483,505.9v2.2h1.1v1.3H483v4.1c0,0.3,0,0.5,0.1,0.6s0.3,0.2,0.6,0.2c0.1,0,0.1,0,0.2,0c0.1,0,0.1,0,0.2,0v1.3
		c-0.2,0-0.4,0-0.6,0c-0.2,0-0.4,0-0.6,0c-0.4,0-0.7,0-0.9-0.1c-0.2-0.1-0.4-0.2-0.5-0.3c-0.1-0.2-0.2-0.4-0.3-0.6
		c0-0.3-0.1-0.6-0.1-1v-4.3h-1v-1.3h1v-2.2H483z"/>
</g>
<g class="st7">
	<path d="M290.9,584.8L290.9,584.8l1.5-7.4h2.1l-2.3,10h-2.6l-2.3-10h2.2L290.9,584.8z"/>
	<path d="M297.2,577.3v1.7h-1.9v-1.7H297.2z M297.2,579.9v7.5h-1.9v-7.5H297.2z"/>
	<path d="M302.1,582c0-0.2-0.1-0.3-0.1-0.5s-0.1-0.3-0.3-0.4c-0.1-0.1-0.3-0.1-0.4-0.1c-0.2,0-0.4,0.1-0.6,0.2
		c-0.1,0.1-0.3,0.3-0.3,0.5c-0.1,0.2-0.1,0.5-0.2,0.8c0,0.3,0,0.7,0,1.1c0,0.5,0,0.9,0,1.2c0,0.3,0.1,0.6,0.2,0.8
		c0.1,0.2,0.2,0.4,0.3,0.5c0.1,0.1,0.3,0.1,0.5,0.1c0.3,0,0.6-0.1,0.7-0.4s0.2-0.7,0.2-1.3h1.8c0,1-0.2,1.7-0.7,2.3
		c-0.4,0.5-1.2,0.8-2.2,0.8c-0.5,0-0.9-0.1-1.3-0.2c-0.4-0.1-0.7-0.3-0.9-0.6c-0.2-0.3-0.4-0.7-0.5-1.2s-0.2-1.1-0.2-1.9
		c0-0.8,0.1-1.4,0.2-1.9c0.1-0.5,0.4-0.9,0.6-1.2c0.3-0.3,0.6-0.5,1-0.6c0.4-0.1,0.8-0.2,1.2-0.2c0.9,0,1.6,0.3,2,0.8
		c0.5,0.5,0.7,1.2,0.7,2.1h-1.8C302.1,582.4,302.1,582.2,302.1,582z"/>
	<path d="M307.4,577.7v2.2h1.1v1.3h-1.1v4.1c0,0.3,0,0.5,0.1,0.6s0.3,0.2,0.6,0.2c0.1,0,0.1,0,0.2,0c0.1,0,0.1,0,0.2,0v1.3
		c-0.2,0-0.4,0-0.6,0c-0.2,0-0.4,0-0.6,0c-0.4,0-0.7,0-0.9-0.1c-0.2-0.1-0.4-0.2-0.5-0.3c-0.1-0.2-0.2-0.4-0.3-0.6
		c0-0.3-0.1-0.6-0.1-1v-4.3h-1v-1.3h1v-2.2H307.4z"/>
	<path d="M309,581.9c0.1-0.5,0.3-0.9,0.5-1.2s0.5-0.6,0.9-0.8c0.4-0.2,0.8-0.3,1.4-0.3c0.6,0,1.1,0.1,1.4,0.2s0.7,0.4,0.9,0.7
		s0.4,0.8,0.5,1.2s0.1,1.1,0.1,1.7c0,0.6-0.1,1.2-0.2,1.7c-0.1,0.5-0.3,0.9-0.5,1.2c-0.2,0.3-0.5,0.6-0.9,0.7s-0.8,0.2-1.4,0.2
		c-0.6,0-1.1-0.1-1.4-0.2c-0.4-0.2-0.7-0.4-0.9-0.7c-0.2-0.3-0.4-0.7-0.5-1.2c-0.1-0.5-0.1-1.1-0.1-1.7
		C308.9,583,308.9,582.4,309,581.9z M310.9,584.7c0,0.3,0.1,0.6,0.1,0.8c0.1,0.2,0.2,0.4,0.3,0.5c0.1,0.1,0.3,0.2,0.6,0.2
		c0.4,0,0.7-0.2,0.8-0.6c0.1-0.4,0.2-1.1,0.2-2c0-0.9-0.1-1.6-0.2-2s-0.4-0.6-0.8-0.6c-0.2,0-0.4,0.1-0.6,0.2
		c-0.1,0.1-0.2,0.3-0.3,0.5c-0.1,0.2-0.1,0.5-0.1,0.8c0,0.3,0,0.7,0,1.1S310.8,584.4,310.9,584.7z"/>
	<path d="M317.7,579.9v1h0c0.2-0.4,0.4-0.7,0.7-0.9c0.3-0.2,0.6-0.3,1-0.3c0.1,0,0.1,0,0.2,0c0.1,0,0.1,0,0.2,0v1.8
		c-0.1,0-0.2,0-0.3,0c-0.1,0-0.2,0-0.3,0c-0.2,0-0.3,0-0.5,0.1c-0.2,0-0.3,0.1-0.5,0.2s-0.3,0.2-0.3,0.4s-0.1,0.4-0.1,0.6v4.5h-1.9
		v-7.5H317.7z"/>
	<path d="M322.5,577.3v1.7h-1.9v-1.7H322.5z M322.5,579.9v7.5h-1.9v-7.5H322.5z"/>
	<path d="M323.9,582c0-0.4,0.1-0.8,0.2-1.1c0.1-0.3,0.3-0.5,0.6-0.7c0.2-0.2,0.5-0.3,0.8-0.4c0.3-0.1,0.7-0.1,1-0.1
		c0.6,0,1,0.1,1.4,0.2c0.4,0.1,0.6,0.3,0.8,0.5c0.2,0.2,0.3,0.5,0.4,0.7c0.1,0.3,0.1,0.6,0.1,0.9v4c0,0.4,0,0.6,0,0.8
		c0,0.2,0.1,0.4,0.2,0.6h-1.8c-0.1-0.1-0.1-0.2-0.1-0.4c0-0.1-0.1-0.3-0.1-0.4h0c-0.2,0.4-0.5,0.6-0.8,0.8c-0.3,0.1-0.7,0.2-1.1,0.2
		c-0.3,0-0.6-0.1-0.9-0.2c-0.2-0.1-0.4-0.3-0.6-0.5c-0.1-0.2-0.2-0.4-0.3-0.7c-0.1-0.3-0.1-0.5-0.1-0.8c0-0.4,0-0.7,0.1-0.9
		s0.2-0.5,0.3-0.7c0.2-0.2,0.3-0.3,0.6-0.5c0.2-0.1,0.5-0.2,0.9-0.3l1.1-0.3c0.3-0.1,0.5-0.2,0.6-0.3c0.1-0.1,0.2-0.3,0.2-0.6
		c0-0.3-0.1-0.5-0.2-0.7s-0.4-0.2-0.7-0.2c-0.3,0-0.5,0.1-0.7,0.3c-0.1,0.2-0.2,0.4-0.2,0.7v0.2h-1.7V582z M327,583.9
		c-0.1,0.1-0.3,0.1-0.4,0.1c-0.4,0.1-0.7,0.2-0.8,0.4c-0.2,0.2-0.3,0.5-0.3,0.8c0,0.3,0.1,0.5,0.2,0.7c0.1,0.2,0.3,0.3,0.6,0.3
		c0.1,0,0.3,0,0.4-0.1s0.3-0.1,0.4-0.2c0.1-0.1,0.2-0.2,0.3-0.4s0.1-0.3,0.1-0.5v-1.5C327.3,583.7,327.1,583.8,327,583.9z"/>
	<path d="M339.6,577.4v1.7h-3.6v2.4h3.4v1.7h-3.4v4.3h-2v-10H339.6z"/>
	<path d="M340.2,582c0-0.4,0.1-0.8,0.2-1.1c0.1-0.3,0.3-0.5,0.6-0.7c0.2-0.2,0.5-0.3,0.8-0.4c0.3-0.1,0.7-0.1,1-0.1
		c0.6,0,1,0.1,1.4,0.2c0.4,0.1,0.6,0.3,0.8,0.5c0.2,0.2,0.3,0.5,0.4,0.7c0.1,0.3,0.1,0.6,0.1,0.9v4c0,0.4,0,0.6,0,0.8
		c0,0.2,0.1,0.4,0.2,0.6h-1.8c-0.1-0.1-0.1-0.2-0.1-0.4c0-0.1-0.1-0.3-0.1-0.4h0c-0.2,0.4-0.5,0.6-0.8,0.8c-0.3,0.1-0.7,0.2-1.1,0.2
		c-0.3,0-0.6-0.1-0.9-0.2c-0.2-0.1-0.4-0.3-0.6-0.5c-0.1-0.2-0.2-0.4-0.3-0.7c-0.1-0.3-0.1-0.5-0.1-0.8c0-0.4,0-0.7,0.1-0.9
		s0.2-0.5,0.3-0.7c0.2-0.2,0.3-0.3,0.6-0.5c0.2-0.1,0.5-0.2,0.9-0.3l1.1-0.3c0.3-0.1,0.5-0.2,0.6-0.3c0.1-0.1,0.2-0.3,0.2-0.6
		c0-0.3-0.1-0.5-0.2-0.7s-0.4-0.2-0.7-0.2c-0.3,0-0.5,0.1-0.7,0.3c-0.1,0.2-0.2,0.4-0.2,0.7v0.2h-1.7V582z M343.3,583.9
		c-0.1,0.1-0.3,0.1-0.4,0.1c-0.4,0.1-0.7,0.2-0.8,0.4c-0.2,0.2-0.3,0.5-0.3,0.8c0,0.3,0.1,0.5,0.2,0.7c0.1,0.2,0.3,0.3,0.6,0.3
		c0.1,0,0.3,0,0.4-0.1s0.3-0.1,0.4-0.2c0.1-0.1,0.2-0.2,0.3-0.4s0.1-0.3,0.1-0.5v-1.5C343.6,583.7,343.4,583.8,343.3,583.9z"/>
	<path d="M348.9,577.4v10H347v-10H348.9z"/>
	<path d="M352.3,577.4v10h-1.9v-10H352.3z"/>
	<path d="M355.1,585.2c0,0.3,0.1,0.6,0.3,0.8s0.4,0.3,0.7,0.3c0.3,0,0.5-0.1,0.7-0.2s0.3-0.4,0.3-0.7c0-0.2-0.1-0.4-0.2-0.6
		s-0.3-0.2-0.5-0.3L355,584c-0.5-0.2-0.9-0.5-1.2-0.8c-0.3-0.3-0.4-0.8-0.4-1.3c0-0.3,0.1-0.6,0.2-0.9c0.1-0.3,0.3-0.5,0.5-0.7
		s0.5-0.4,0.9-0.5c0.4-0.1,0.8-0.2,1.3-0.2c0.9,0,1.5,0.2,1.9,0.6c0.4,0.4,0.6,0.9,0.6,1.6v0.3H357c0-0.4-0.1-0.7-0.2-0.9
		c-0.1-0.2-0.3-0.3-0.7-0.3c-0.2,0-0.5,0.1-0.6,0.2c-0.2,0.1-0.3,0.3-0.3,0.6c0,0.2,0.1,0.4,0.2,0.5s0.3,0.3,0.7,0.4l1.2,0.4
		c0.6,0.2,1,0.5,1.3,0.8c0.3,0.3,0.4,0.8,0.4,1.4c0,0.4-0.1,0.7-0.2,1s-0.3,0.5-0.6,0.7c-0.2,0.2-0.5,0.3-0.9,0.4
		c-0.3,0.1-0.7,0.1-1.1,0.1c-0.5,0-1-0.1-1.4-0.2c-0.4-0.1-0.6-0.3-0.9-0.5s-0.4-0.5-0.4-0.7c-0.1-0.3-0.1-0.6-0.1-1v-0.3h1.7V585.2
		z"/>
</g>
<circle class="st4" cx="397.4" cy="450.5" r="4.3"/>
<circle class="st4" cx="409.5" cy="504" r="4.3"/>
<circle class="st4" cx="365.4" cy="571.9" r="4.3"/>
<g class="st7">
	<path d="M335.5,507.8c0.4,0,0.8,0,1.1,0.1c0.4,0.1,0.7,0.2,0.9,0.4s0.4,0.5,0.6,0.8c0.1,0.3,0.2,0.7,0.2,1.2c0,0.5-0.1,1-0.4,1.4
		c-0.3,0.4-0.6,0.7-1.1,0.8v0c0.6,0.1,1,0.3,1.3,0.7s0.5,0.9,0.5,1.6c0,0.4-0.1,0.8-0.2,1.1s-0.3,0.7-0.5,0.9
		c-0.2,0.3-0.6,0.5-1,0.6c-0.4,0.2-0.9,0.2-1.5,0.2h-3.4v-10H335.5z M334.8,511.9c0.6,0,1-0.1,1.2-0.3c0.3-0.2,0.4-0.5,0.4-1
		s-0.1-0.8-0.4-1c-0.2-0.2-0.6-0.3-1.1-0.3h-0.7v2.6H334.8z M335,516.4c0.5,0,0.9-0.1,1.2-0.3s0.4-0.6,0.4-1.2c0-0.3,0-0.5-0.1-0.7
		s-0.2-0.3-0.3-0.5c-0.1-0.1-0.3-0.2-0.5-0.2c-0.2,0-0.4-0.1-0.6-0.1h-0.9v3H335z"/>
	<path d="M339.8,512.4c0.1-0.5,0.3-0.9,0.5-1.2s0.5-0.6,0.9-0.8c0.4-0.2,0.8-0.3,1.4-0.3c0.6,0,1.1,0.1,1.4,0.2s0.7,0.4,0.9,0.7
		s0.4,0.8,0.5,1.2s0.1,1.1,0.1,1.7c0,0.6-0.1,1.2-0.2,1.7c-0.1,0.5-0.3,0.9-0.5,1.2c-0.2,0.3-0.5,0.6-0.9,0.7s-0.8,0.2-1.4,0.2
		c-0.6,0-1.1-0.1-1.4-0.2c-0.4-0.2-0.7-0.4-0.9-0.7c-0.2-0.3-0.4-0.7-0.5-1.2c-0.1-0.5-0.1-1.1-0.1-1.7
		C339.6,513.4,339.7,512.9,339.8,512.4z M341.6,515.1c0,0.3,0.1,0.6,0.1,0.8c0.1,0.2,0.2,0.4,0.3,0.5c0.1,0.1,0.3,0.2,0.6,0.2
		c0.4,0,0.7-0.2,0.8-0.6c0.1-0.4,0.2-1.1,0.2-2c0-0.9-0.1-1.6-0.2-2s-0.4-0.6-0.8-0.6c-0.2,0-0.4,0.1-0.6,0.2
		c-0.1,0.1-0.2,0.3-0.3,0.5c-0.1,0.2-0.1,0.5-0.1,0.8c0,0.3,0,0.7,0,1.1S341.6,514.8,341.6,515.1z"/>
	<path d="M348.6,507.7v1.7h-1.9v-1.7H348.6z M348.6,510.3v7.5h-1.9v-7.5H348.6z"/>
	<path d="M352,507.8v10H350v-10H352z"/>
	<path d="M355.3,507.7v1.7h-1.9v-1.7H355.3z M355.3,510.3v7.5h-1.9v-7.5H355.3z"/>
	<path d="M358.5,510.3v0.9h0c0.2-0.4,0.5-0.6,0.8-0.8s0.7-0.3,1.1-0.3c0.6,0,1.1,0.2,1.4,0.5c0.3,0.3,0.5,0.9,0.5,1.6v5.6h-1.9v-5.2
		c0-0.4-0.1-0.7-0.2-0.8c-0.1-0.2-0.3-0.2-0.6-0.2c-0.7,0-1,0.4-1,1.2v5h-1.9v-7.5H358.5z"/>
	<path d="M369.3,517.5c0,1-0.2,1.7-0.7,2.2c-0.5,0.5-1.3,0.7-2.4,0.7c-0.8,0-1.5-0.2-1.9-0.5c-0.4-0.3-0.7-0.8-0.7-1.5h1.8
		c0,0.2,0.1,0.4,0.3,0.6c0.1,0.1,0.2,0.1,0.3,0.2c0.1,0,0.2,0.1,0.3,0.1c0.4,0,0.7-0.1,0.8-0.4c0.2-0.3,0.2-0.6,0.2-0.9v-1h0
		c-0.2,0.3-0.4,0.5-0.7,0.7s-0.6,0.3-0.9,0.3c-0.8,0-1.3-0.3-1.7-0.9s-0.6-1.6-0.6-2.9c0-0.4,0-0.9,0.1-1.3c0.1-0.5,0.2-0.9,0.3-1.2
		c0.2-0.4,0.4-0.7,0.7-0.9c0.3-0.2,0.7-0.3,1.3-0.3c0.3,0,0.6,0.1,0.8,0.2c0.3,0.1,0.5,0.4,0.7,0.8h0v-0.8h1.8V517.5z M365.5,515
		c0,0.2,0.1,0.4,0.1,0.6c0.1,0.2,0.2,0.3,0.3,0.4c0.1,0.1,0.3,0.2,0.5,0.2c0.2,0,0.4-0.1,0.5-0.2c0.1-0.1,0.2-0.3,0.3-0.4
		c0.1-0.2,0.1-0.4,0.2-0.7c0-0.3,0-0.6,0-0.9c0-0.9-0.1-1.6-0.2-1.9c-0.1-0.4-0.4-0.6-0.8-0.6c-0.2,0-0.4,0-0.5,0.1
		c-0.1,0.1-0.2,0.2-0.3,0.5s-0.1,0.5-0.1,0.8c0,0.3,0,0.8,0,1.3C365.5,514.6,365.5,514.8,365.5,515z"/>
	<path d="M374.1,507.8h2v8.3h3.6v1.7h-5.6V507.8z"/>
	<path d="M380.5,512.4c0-0.4,0.1-0.8,0.2-1.1c0.1-0.3,0.3-0.5,0.6-0.7c0.2-0.2,0.5-0.3,0.8-0.4c0.3-0.1,0.7-0.1,1-0.1
		c0.6,0,1,0.1,1.4,0.2c0.4,0.1,0.6,0.3,0.8,0.5c0.2,0.2,0.3,0.5,0.4,0.7c0.1,0.3,0.1,0.6,0.1,0.9v4c0,0.4,0,0.6,0,0.8
		c0,0.2,0.1,0.4,0.2,0.6h-1.8c-0.1-0.1-0.1-0.2-0.1-0.4c0-0.1-0.1-0.3-0.1-0.4h0c-0.2,0.4-0.5,0.6-0.8,0.8c-0.3,0.1-0.7,0.2-1.1,0.2
		c-0.3,0-0.6-0.1-0.9-0.2c-0.2-0.1-0.4-0.3-0.6-0.5c-0.1-0.2-0.2-0.4-0.3-0.7c-0.1-0.3-0.1-0.5-0.1-0.8c0-0.4,0-0.7,0.1-0.9
		s0.2-0.5,0.3-0.7c0.2-0.2,0.3-0.3,0.6-0.5c0.2-0.1,0.5-0.2,0.9-0.3l1.1-0.3c0.3-0.1,0.5-0.2,0.6-0.3c0.1-0.1,0.2-0.3,0.2-0.6
		c0-0.3-0.1-0.5-0.2-0.7s-0.4-0.2-0.7-0.2c-0.3,0-0.5,0.1-0.7,0.3c-0.1,0.2-0.2,0.4-0.2,0.7v0.2h-1.7V512.4z M383.6,514.3
		c-0.1,0.1-0.3,0.1-0.4,0.1c-0.4,0.1-0.7,0.2-0.8,0.4c-0.2,0.2-0.3,0.5-0.3,0.8c0,0.3,0.1,0.5,0.2,0.7c0.1,0.2,0.3,0.3,0.6,0.3
		c0.1,0,0.3,0,0.4-0.1s0.3-0.1,0.4-0.2c0.1-0.1,0.2-0.2,0.3-0.4s0.1-0.3,0.1-0.5v-1.5C383.9,514.2,383.8,514.3,383.6,514.3z"/>
	<path d="M389.3,513.1L389.3,513.1l2-2.8h2.1l-2.2,3l2.5,4.6h-2.1l-1.6-3.1l-0.7,0.9v2.2h-1.9v-10h1.9V513.1z"/>
	<path d="M395.9,515c0,0.2,0,0.4,0,0.7c0,0.2,0.1,0.4,0.2,0.6c0.1,0.2,0.2,0.3,0.3,0.4c0.1,0.1,0.3,0.1,0.4,0.1
		c0.3,0,0.6-0.1,0.7-0.3s0.3-0.6,0.3-1.1h1.7c0,0.9-0.3,1.5-0.7,2c-0.4,0.5-1.1,0.7-2,0.7c-0.7,0-1.2-0.1-1.6-0.4
		c-0.4-0.2-0.7-0.5-0.9-0.9c-0.2-0.4-0.3-0.8-0.3-1.3c0-0.5-0.1-1-0.1-1.4c0-0.5,0-1,0.1-1.5c0.1-0.5,0.2-0.9,0.4-1.2
		s0.5-0.7,0.9-0.9c0.4-0.2,0.9-0.3,1.6-0.3c0.6,0,1,0.1,1.4,0.3s0.6,0.4,0.8,0.8c0.2,0.3,0.3,0.7,0.4,1.2c0.1,0.5,0.1,1,0.1,1.6v0.4
		h-3.8V515z M397.8,512.5c0-0.2-0.1-0.4-0.1-0.6c-0.1-0.2-0.2-0.3-0.3-0.3s-0.3-0.1-0.5-0.1s-0.4,0-0.5,0.1
		c-0.1,0.1-0.2,0.2-0.3,0.4s-0.1,0.3-0.2,0.5c0,0.2,0,0.4,0,0.5v0.3h2C397.9,512.9,397.9,512.7,397.8,512.5z"/>
</g>
<g class="st7">
	<path d="M204.1,482.8h-2.2v8.3h-2v-8.3h-2.2v-1.7h6.4V482.8z"/>
	<path d="M205.7,483.6v1h0c0.2-0.4,0.4-0.7,0.7-0.9c0.3-0.2,0.6-0.3,1-0.3c0.1,0,0.1,0,0.2,0c0.1,0,0.1,0,0.2,0v1.8
		c-0.1,0-0.2,0-0.3,0c-0.1,0-0.2,0-0.3,0c-0.2,0-0.3,0-0.5,0.1c-0.2,0-0.3,0.1-0.5,0.2s-0.3,0.2-0.3,0.4s-0.1,0.4-0.1,0.6v4.5h-1.9
		v-7.5H205.7z"/>
	<path d="M208.5,485.7c0-0.4,0.1-0.8,0.2-1.1c0.1-0.3,0.3-0.5,0.6-0.7c0.2-0.2,0.5-0.3,0.8-0.4c0.3-0.1,0.7-0.1,1-0.1
		c0.6,0,1,0.1,1.4,0.2c0.4,0.1,0.6,0.3,0.8,0.5c0.2,0.2,0.3,0.5,0.4,0.7c0.1,0.3,0.1,0.6,0.1,0.9v4c0,0.4,0,0.6,0,0.8
		c0,0.2,0.1,0.4,0.2,0.6h-1.8c-0.1-0.1-0.1-0.2-0.1-0.4c0-0.1-0.1-0.3-0.1-0.4h0c-0.2,0.4-0.5,0.6-0.8,0.8c-0.3,0.1-0.7,0.2-1.1,0.2
		c-0.3,0-0.6-0.1-0.9-0.2c-0.2-0.1-0.4-0.3-0.6-0.5c-0.1-0.2-0.2-0.4-0.3-0.7c-0.1-0.3-0.1-0.5-0.1-0.8c0-0.4,0-0.7,0.1-0.9
		s0.2-0.5,0.3-0.7c0.2-0.2,0.3-0.3,0.6-0.5c0.2-0.1,0.5-0.2,0.9-0.3l1.1-0.3c0.3-0.1,0.5-0.2,0.6-0.3c0.1-0.1,0.2-0.3,0.2-0.6
		c0-0.3-0.1-0.5-0.2-0.7s-0.4-0.2-0.7-0.2c-0.3,0-0.5,0.1-0.7,0.3c-0.1,0.2-0.2,0.4-0.2,0.7v0.2h-1.7V485.7z M211.6,487.6
		c-0.1,0.1-0.3,0.1-0.4,0.1c-0.4,0.1-0.7,0.2-0.8,0.4c-0.2,0.2-0.3,0.5-0.3,0.8c0,0.3,0.1,0.5,0.2,0.7c0.1,0.2,0.3,0.3,0.6,0.3
		c0.1,0,0.3,0,0.4-0.1s0.3-0.1,0.4-0.2c0.1-0.1,0.2-0.2,0.3-0.4s0.1-0.3,0.1-0.5v-1.5C211.9,487.4,211.8,487.5,211.6,487.6z"/>
	<path d="M214.7,484.9v-1.3h1v-0.9c0-0.3,0-0.6,0.1-0.9c0.1-0.2,0.2-0.4,0.4-0.6c0.2-0.1,0.4-0.2,0.6-0.3c0.3-0.1,0.5-0.1,0.8-0.1
		c0.3,0,0.7,0,1,0v1.4c0,0-0.1,0-0.2,0h-0.2c-0.3,0-0.5,0-0.6,0.1c-0.1,0.1-0.2,0.2-0.2,0.5v0.7h1.1v1.3h-1.1v6.2h-1.9v-6.2H214.7z"
		/>
	<path d="M219.4,485.7c0-0.4,0.1-0.8,0.2-1.1c0.1-0.3,0.3-0.5,0.6-0.7c0.2-0.2,0.5-0.3,0.8-0.4c0.3-0.1,0.7-0.1,1-0.1
		c0.6,0,1,0.1,1.4,0.2c0.4,0.1,0.6,0.3,0.8,0.5c0.2,0.2,0.3,0.5,0.4,0.7c0.1,0.3,0.1,0.6,0.1,0.9v4c0,0.4,0,0.6,0,0.8
		c0,0.2,0.1,0.4,0.2,0.6h-1.8c-0.1-0.1-0.1-0.2-0.1-0.4c0-0.1-0.1-0.3-0.1-0.4h0c-0.2,0.4-0.5,0.6-0.8,0.8c-0.3,0.1-0.7,0.2-1.1,0.2
		c-0.3,0-0.6-0.1-0.9-0.2c-0.2-0.1-0.4-0.3-0.6-0.5c-0.1-0.2-0.2-0.4-0.3-0.7c-0.1-0.3-0.1-0.5-0.1-0.8c0-0.4,0-0.7,0.1-0.9
		s0.2-0.5,0.3-0.7c0.2-0.2,0.3-0.3,0.6-0.5c0.2-0.1,0.5-0.2,0.9-0.3l1.1-0.3c0.3-0.1,0.5-0.2,0.6-0.3c0.1-0.1,0.2-0.3,0.2-0.6
		c0-0.3-0.1-0.5-0.2-0.7s-0.4-0.2-0.7-0.2c-0.3,0-0.5,0.1-0.7,0.3c-0.1,0.2-0.2,0.4-0.2,0.7v0.2h-1.7V485.7z M222.5,487.6
		c-0.1,0.1-0.3,0.1-0.4,0.1c-0.4,0.1-0.7,0.2-0.8,0.4c-0.2,0.2-0.3,0.5-0.3,0.8c0,0.3,0.1,0.5,0.2,0.7c0.1,0.2,0.3,0.3,0.6,0.3
		c0.1,0,0.3,0,0.4-0.1s0.3-0.1,0.4-0.2c0.1-0.1,0.2-0.2,0.3-0.4s0.1-0.3,0.1-0.5v-1.5C222.8,487.4,222.7,487.5,222.5,487.6z"/>
	<path d="M228.1,481.1v10h-1.9v-10H228.1z"/>
	<path d="M235.1,490.7c0,1-0.2,1.7-0.7,2.2c-0.5,0.5-1.3,0.7-2.4,0.7c-0.8,0-1.5-0.2-1.9-0.5c-0.4-0.3-0.7-0.8-0.7-1.5h1.8
		c0,0.2,0.1,0.4,0.3,0.6c0.1,0.1,0.2,0.1,0.3,0.2c0.1,0,0.2,0.1,0.3,0.1c0.4,0,0.7-0.1,0.8-0.4c0.2-0.3,0.2-0.6,0.2-0.9v-1h0
		c-0.2,0.3-0.4,0.5-0.7,0.7s-0.6,0.3-0.9,0.3c-0.8,0-1.3-0.3-1.7-0.9s-0.6-1.6-0.6-2.9c0-0.4,0-0.9,0.1-1.3c0.1-0.5,0.2-0.9,0.3-1.2
		c0.2-0.4,0.4-0.7,0.7-0.9c0.3-0.2,0.7-0.3,1.3-0.3c0.3,0,0.6,0.1,0.8,0.2c0.3,0.1,0.5,0.4,0.7,0.8h0v-0.8h1.8V490.7z M231.3,488.3
		c0,0.2,0.1,0.4,0.1,0.6c0.1,0.2,0.2,0.3,0.3,0.4c0.1,0.1,0.3,0.2,0.5,0.2c0.2,0,0.4-0.1,0.5-0.2c0.1-0.1,0.2-0.3,0.3-0.4
		c0.1-0.2,0.1-0.4,0.2-0.7c0-0.3,0-0.6,0-0.9c0-0.9-0.1-1.6-0.2-1.9c-0.1-0.4-0.4-0.6-0.8-0.6c-0.2,0-0.4,0-0.5,0.1
		c-0.1,0.1-0.2,0.2-0.3,0.5s-0.1,0.5-0.1,0.8c0,0.3,0,0.8,0,1.3C231.3,487.8,231.3,488.1,231.3,488.3z"/>
	<path d="M236.5,485.7c0-0.4,0.1-0.8,0.2-1.1c0.1-0.3,0.3-0.5,0.6-0.7c0.2-0.2,0.5-0.3,0.8-0.4c0.3-0.1,0.7-0.1,1-0.1
		c0.6,0,1,0.1,1.4,0.2c0.4,0.1,0.6,0.3,0.8,0.5c0.2,0.2,0.3,0.5,0.4,0.7c0.1,0.3,0.1,0.6,0.1,0.9v4c0,0.4,0,0.6,0,0.8
		c0,0.2,0.1,0.4,0.2,0.6h-1.8c-0.1-0.1-0.1-0.2-0.1-0.4c0-0.1-0.1-0.3-0.1-0.4h0c-0.2,0.4-0.5,0.6-0.8,0.8c-0.3,0.1-0.7,0.2-1.1,0.2
		c-0.3,0-0.6-0.1-0.9-0.2c-0.2-0.1-0.4-0.3-0.6-0.5c-0.1-0.2-0.2-0.4-0.3-0.7c-0.1-0.3-0.1-0.5-0.1-0.8c0-0.4,0-0.7,0.1-0.9
		s0.2-0.5,0.3-0.7c0.2-0.2,0.3-0.3,0.6-0.5c0.2-0.1,0.5-0.2,0.9-0.3l1.1-0.3c0.3-0.1,0.5-0.2,0.6-0.3c0.1-0.1,0.2-0.3,0.2-0.6
		c0-0.3-0.1-0.5-0.2-0.7s-0.4-0.2-0.7-0.2c-0.3,0-0.5,0.1-0.7,0.3c-0.1,0.2-0.2,0.4-0.2,0.7v0.2h-1.7V485.7z M239.6,487.6
		c-0.1,0.1-0.3,0.1-0.4,0.1c-0.4,0.1-0.7,0.2-0.8,0.4c-0.2,0.2-0.3,0.5-0.3,0.8c0,0.3,0.1,0.5,0.2,0.7c0.1,0.2,0.3,0.3,0.6,0.3
		c0.1,0,0.3,0,0.4-0.1s0.3-0.1,0.4-0.2c0.1-0.1,0.2-0.2,0.3-0.4s0.1-0.3,0.1-0.5v-1.5C239.9,487.4,239.7,487.5,239.6,487.6z"/>
	<path d="M245.1,483.6v1h0c0.2-0.4,0.4-0.7,0.7-0.9c0.3-0.2,0.6-0.3,1-0.3c0.1,0,0.1,0,0.2,0c0.1,0,0.1,0,0.2,0v1.8
		c-0.1,0-0.2,0-0.3,0c-0.1,0-0.2,0-0.3,0c-0.2,0-0.3,0-0.5,0.1c-0.2,0-0.3,0.1-0.5,0.2s-0.3,0.2-0.3,0.4s-0.1,0.4-0.1,0.6v4.5h-1.9
		v-7.5H245.1z"/>
	<path d="M256.9,481.1v1.7h-3.6v2.4h3.4v1.7h-3.4v4.3h-2v-10H256.9z"/>
	<path d="M257.4,485.7c0-0.4,0.1-0.8,0.2-1.1c0.1-0.3,0.3-0.5,0.6-0.7c0.2-0.2,0.5-0.3,0.8-0.4c0.3-0.1,0.7-0.1,1-0.1
		c0.6,0,1,0.1,1.4,0.2c0.4,0.1,0.6,0.3,0.8,0.5c0.2,0.2,0.3,0.5,0.4,0.7c0.1,0.3,0.1,0.6,0.1,0.9v4c0,0.4,0,0.6,0,0.8
		c0,0.2,0.1,0.4,0.2,0.6h-1.8c-0.1-0.1-0.1-0.2-0.1-0.4c0-0.1-0.1-0.3-0.1-0.4h0c-0.2,0.4-0.5,0.6-0.8,0.8c-0.3,0.1-0.7,0.2-1.1,0.2
		c-0.3,0-0.6-0.1-0.9-0.2c-0.2-0.1-0.4-0.3-0.6-0.5c-0.1-0.2-0.2-0.4-0.3-0.7c-0.1-0.3-0.1-0.5-0.1-0.8c0-0.4,0-0.7,0.1-0.9
		s0.2-0.5,0.3-0.7c0.2-0.2,0.3-0.3,0.6-0.5c0.2-0.1,0.5-0.2,0.9-0.3l1.1-0.3c0.3-0.1,0.5-0.2,0.6-0.3c0.1-0.1,0.2-0.3,0.2-0.6
		c0-0.3-0.1-0.5-0.2-0.7s-0.4-0.2-0.7-0.2c-0.3,0-0.5,0.1-0.7,0.3c-0.1,0.2-0.2,0.4-0.2,0.7v0.2h-1.7V485.7z M260.6,487.6
		c-0.1,0.1-0.3,0.1-0.4,0.1c-0.4,0.1-0.7,0.2-0.8,0.4c-0.2,0.2-0.3,0.5-0.3,0.8c0,0.3,0.1,0.5,0.2,0.7c0.1,0.2,0.3,0.3,0.6,0.3
		c0.1,0,0.3,0,0.4-0.1s0.3-0.1,0.4-0.2c0.1-0.1,0.2-0.2,0.3-0.4s0.1-0.3,0.1-0.5v-1.5C260.8,487.4,260.7,487.5,260.6,487.6z"/>
	<path d="M266.2,481.1v10h-1.9v-10H266.2z"/>
	<path d="M269.6,481.1v10h-1.9v-10H269.6z"/>
	<path d="M272.3,488.9c0,0.3,0.1,0.6,0.3,0.8s0.4,0.3,0.7,0.3c0.3,0,0.5-0.1,0.7-0.2s0.3-0.4,0.3-0.7c0-0.2-0.1-0.4-0.2-0.6
		s-0.3-0.2-0.5-0.3l-1.4-0.5c-0.5-0.2-0.9-0.5-1.2-0.8c-0.3-0.3-0.4-0.8-0.4-1.3c0-0.3,0.1-0.6,0.2-0.9c0.1-0.3,0.3-0.5,0.5-0.7
		s0.5-0.4,0.9-0.5c0.4-0.1,0.8-0.2,1.3-0.2c0.9,0,1.5,0.2,1.9,0.6c0.4,0.4,0.6,0.9,0.6,1.6v0.3h-1.7c0-0.4-0.1-0.7-0.2-0.9
		c-0.1-0.2-0.3-0.3-0.7-0.3c-0.2,0-0.5,0.1-0.6,0.2c-0.2,0.1-0.3,0.3-0.3,0.6c0,0.2,0.1,0.4,0.2,0.5s0.3,0.3,0.7,0.4l1.2,0.4
		c0.6,0.2,1,0.5,1.3,0.8c0.3,0.3,0.4,0.8,0.4,1.4c0,0.4-0.1,0.7-0.2,1s-0.3,0.5-0.6,0.7c-0.2,0.2-0.5,0.3-0.9,0.4
		c-0.3,0.1-0.7,0.1-1.1,0.1c-0.5,0-1-0.1-1.4-0.2c-0.4-0.1-0.6-0.3-0.9-0.5s-0.4-0.5-0.4-0.7c-0.1-0.3-0.1-0.6-0.1-1v-0.3h1.7V488.9
		z"/>
</g>
<g class="st7">
	<path d="M264.7,523.5l1.1,7.4h0l1.2-7.4h1.9l1.2,7.4h0l1.1-7.4h1.9l-1.8,10h-2.3l-1.1-7.3h0l-1.1,7.3h-2.3l-1.8-10H264.7z"/>
	<path d="M273.6,528c0.1-0.5,0.3-0.9,0.5-1.2s0.5-0.6,0.9-0.8c0.4-0.2,0.8-0.3,1.4-0.3c0.6,0,1.1,0.1,1.4,0.2s0.7,0.4,0.9,0.7
		s0.4,0.8,0.5,1.2s0.1,1.1,0.1,1.7c0,0.6-0.1,1.2-0.2,1.7c-0.1,0.5-0.3,0.9-0.5,1.2c-0.2,0.3-0.5,0.6-0.9,0.7s-0.8,0.2-1.4,0.2
		c-0.6,0-1.1-0.1-1.4-0.2c-0.4-0.2-0.7-0.4-0.9-0.7c-0.2-0.3-0.4-0.7-0.5-1.2c-0.1-0.5-0.1-1.1-0.1-1.7
		C273.4,529.1,273.4,528.5,273.6,528z M275.4,530.8c0,0.3,0.1,0.6,0.1,0.8c0.1,0.2,0.2,0.4,0.3,0.5c0.1,0.1,0.3,0.2,0.6,0.2
		c0.4,0,0.7-0.2,0.8-0.6c0.1-0.4,0.2-1.1,0.2-2c0-0.9-0.1-1.6-0.2-2s-0.4-0.6-0.8-0.6c-0.2,0-0.4,0.1-0.6,0.2
		c-0.1,0.1-0.2,0.3-0.3,0.5c-0.1,0.2-0.1,0.5-0.1,0.8c0,0.3,0,0.7,0,1.1S275.3,530.5,275.4,530.8z"/>
	<path d="M282.7,523.8v2.2h1.1v1.3h-1.1v4.1c0,0.3,0,0.5,0.1,0.6s0.3,0.2,0.6,0.2c0.1,0,0.1,0,0.2,0c0.1,0,0.1,0,0.2,0v1.3
		c-0.2,0-0.4,0-0.6,0c-0.2,0-0.4,0-0.6,0c-0.4,0-0.7,0-0.9-0.1c-0.2-0.1-0.4-0.2-0.5-0.3c-0.1-0.2-0.2-0.4-0.3-0.6
		c0-0.3-0.1-0.6-0.1-1v-4.3h-1V526h1v-2.2H282.7z"/>
	<path d="M286.9,523.8v2.2h1.1v1.3h-1.1v4.1c0,0.3,0,0.5,0.1,0.6s0.3,0.2,0.6,0.2c0.1,0,0.1,0,0.2,0c0.1,0,0.1,0,0.2,0v1.3
		c-0.2,0-0.4,0-0.6,0c-0.2,0-0.4,0-0.6,0c-0.4,0-0.7,0-0.9-0.1c-0.2-0.1-0.4-0.2-0.5-0.3c-0.1-0.2-0.2-0.4-0.3-0.6
		c0-0.3-0.1-0.6-0.1-1v-4.3h-1V526h1v-2.2H286.9z"/>
	<path d="M290.3,530.6c0,0.2,0,0.4,0,0.7c0,0.2,0.1,0.4,0.2,0.6c0.1,0.2,0.2,0.3,0.3,0.4c0.1,0.1,0.3,0.1,0.4,0.1
		c0.3,0,0.6-0.1,0.7-0.3s0.3-0.6,0.3-1.1h1.7c0,0.9-0.3,1.5-0.7,2c-0.4,0.5-1.1,0.7-2,0.7c-0.7,0-1.2-0.1-1.6-0.4
		c-0.4-0.2-0.7-0.5-0.9-0.9c-0.2-0.4-0.3-0.8-0.3-1.3c0-0.5-0.1-1-0.1-1.4c0-0.5,0-1,0.1-1.5c0.1-0.5,0.2-0.9,0.4-1.2
		s0.5-0.7,0.9-0.9c0.4-0.2,0.9-0.3,1.6-0.3c0.6,0,1,0.1,1.4,0.3s0.6,0.4,0.8,0.8c0.2,0.3,0.3,0.7,0.4,1.2c0.1,0.5,0.1,1,0.1,1.6v0.4
		h-3.8V530.6z M292.2,528.1c0-0.2-0.1-0.4-0.1-0.6c-0.1-0.2-0.2-0.3-0.3-0.3s-0.3-0.1-0.5-0.1s-0.4,0-0.5,0.1
		c-0.1,0.1-0.2,0.2-0.3,0.4s-0.1,0.3-0.2,0.5c0,0.2,0,0.4,0,0.5v0.3h2C292.3,528.6,292.3,528.3,292.2,528.1z"/>
	<path d="M297,526v0.9h0c0.2-0.4,0.5-0.6,0.8-0.8s0.7-0.3,1.1-0.3c0.6,0,1.1,0.2,1.4,0.5c0.3,0.3,0.5,0.9,0.5,1.6v5.6h-1.9v-5.2
		c0-0.4-0.1-0.7-0.2-0.8c-0.1-0.2-0.3-0.2-0.6-0.2c-0.7,0-1,0.4-1,1.2v5h-1.9V526H297z"/>
	<path d="M306.4,523.5l1.1,7.4h0l1.2-7.4h1.9l1.2,7.4h0l1.1-7.4h1.9l-1.8,10h-2.3l-1.1-7.3h0l-1.1,7.3h-2.3l-1.8-10H306.4z"/>
	<path d="M315.4,528.1c0-0.4,0.1-0.8,0.2-1.1c0.1-0.3,0.3-0.5,0.6-0.7c0.2-0.2,0.5-0.3,0.8-0.4c0.3-0.1,0.7-0.1,1-0.1
		c0.6,0,1,0.1,1.4,0.2c0.4,0.1,0.6,0.3,0.8,0.5c0.2,0.2,0.3,0.5,0.4,0.7c0.1,0.3,0.1,0.6,0.1,0.9v4c0,0.4,0,0.6,0,0.8
		c0,0.2,0.1,0.4,0.2,0.6h-1.8c-0.1-0.1-0.1-0.2-0.1-0.4c0-0.1-0.1-0.3-0.1-0.4h0c-0.2,0.4-0.5,0.6-0.8,0.8c-0.3,0.1-0.7,0.2-1.1,0.2
		c-0.3,0-0.6-0.1-0.9-0.2c-0.2-0.1-0.4-0.3-0.6-0.5c-0.1-0.2-0.2-0.4-0.3-0.7c-0.1-0.3-0.1-0.5-0.1-0.8c0-0.4,0-0.7,0.1-0.9
		s0.2-0.5,0.3-0.7c0.2-0.2,0.3-0.3,0.6-0.5c0.2-0.1,0.5-0.2,0.9-0.3l1.1-0.3c0.3-0.1,0.5-0.2,0.6-0.3c0.1-0.1,0.2-0.3,0.2-0.6
		c0-0.3-0.1-0.5-0.2-0.7s-0.4-0.2-0.7-0.2c-0.3,0-0.5,0.1-0.7,0.3c-0.1,0.2-0.2,0.4-0.2,0.7v0.2h-1.7V528.1z M318.5,530
		c-0.1,0.1-0.3,0.1-0.4,0.1c-0.4,0.1-0.7,0.2-0.8,0.4c-0.2,0.2-0.3,0.5-0.3,0.8c0,0.3,0.1,0.5,0.2,0.7c0.1,0.2,0.3,0.3,0.6,0.3
		c0.1,0,0.3,0,0.4-0.1s0.3-0.1,0.4-0.2c0.1-0.1,0.2-0.2,0.3-0.4s0.1-0.3,0.1-0.5v-1.5C318.8,529.8,318.6,529.9,318.5,530z"/>
	<path d="M327.6,526l-1.9,7.5h-2.2l-1.9-7.5h2l1.1,5.4h0l1-5.4H327.6z"/>
	<path d="M330,530.6c0,0.2,0,0.4,0,0.7c0,0.2,0.1,0.4,0.2,0.6c0.1,0.2,0.2,0.3,0.3,0.4c0.1,0.1,0.3,0.1,0.4,0.1
		c0.3,0,0.6-0.1,0.7-0.3s0.3-0.6,0.3-1.1h1.7c0,0.9-0.3,1.5-0.7,2c-0.4,0.5-1.1,0.7-2,0.7c-0.7,0-1.2-0.1-1.6-0.4
		c-0.4-0.2-0.7-0.5-0.9-0.9c-0.2-0.4-0.3-0.8-0.3-1.3c0-0.5-0.1-1-0.1-1.4c0-0.5,0-1,0.1-1.5c0.1-0.5,0.2-0.9,0.4-1.2
		s0.5-0.7,0.9-0.9c0.4-0.2,0.9-0.3,1.6-0.3c0.6,0,1,0.1,1.4,0.3s0.6,0.4,0.8,0.8c0.2,0.3,0.3,0.7,0.4,1.2c0.1,0.5,0.1,1,0.1,1.6v0.4
		H330V530.6z M331.9,528.1c0-0.2-0.1-0.4-0.1-0.6c-0.1-0.2-0.2-0.3-0.3-0.3s-0.3-0.1-0.5-0.1s-0.4,0-0.5,0.1
		c-0.1,0.1-0.2,0.2-0.3,0.4s-0.1,0.3-0.2,0.5c0,0.2,0,0.4,0,0.5v0.3h2C331.9,528.6,331.9,528.3,331.9,528.1z"/>
	<path d="M336.6,526v0.9h0c0.2-0.4,0.5-0.6,0.8-0.8s0.7-0.3,1.1-0.3c0.6,0,1.1,0.2,1.4,0.5c0.3,0.3,0.5,0.9,0.5,1.6v5.6h-1.9v-5.2
		c0-0.4-0.1-0.7-0.2-0.8c-0.1-0.2-0.3-0.2-0.6-0.2c-0.7,0-1,0.4-1,1.2v5h-1.9V526H336.6z"/>
</g>
<circle class="st4" cx="276.4" cy="499.2" r="4.3"/>
<circle class="st4" cx="255" cy="520.8" r="4.3"/>
<circle class="st4" cx="324" cy="507.1" r="4.3"/>
</svg>
