<svg version="1.1" xmlns="http://www.w3.org/2000/svg" 
	 width="300px" height="300px" viewBox="133 166 333 266">
<style>
</style>
<g>
	<g>
		<path fill="#143258" d="M223.20,179.96l3.05-0.35l0.39-0.78c0.94-2.15,1.77-3.79,2.48-4.93
			c1.20-1.91,2.54-3.39,4.01-4.43c1.87-1.30,4.00-1.95,6.39-1.95c1.01,0,1.52,0.23,1.52,0.71
			c0,0.23-0.30,1.09-0.92,2.55c-0.21,0.49-0.83,1.91-1.84,4.26c-0.80,1.82-1.25,2.89-1.35,3.19l2.66-0.32
			c0.04,0,0.09,0.02,0.14,0.07c0.02,0.04,0.04,0.08,0.07,0.10l-0.46,1.70c-0.09,0.28-0.24,0.43-0.46,0.46
			l-2.84,0.39l-0.17,0.49c-0.56,1.68-0.99,3.06-1.26,4.14c-0.27,1.07-0.40,1.93-0.40,2.57
			c0,1.13,0.35,1.70,1.06,1.70c0.59,0,1.37-0.27,2.34-0.81c1.30-0.73,2.71-1.87,4.22-3.41v3.02
			c-3.05,2.51-5.74,3.76-8.06,3.76c-0.83,0-1.45-0.33-1.86-1.01c-0.41-0.67-0.62-1.48-0.62-2.43
			c0-0.97,0.11-2.00,0.35-3.09c0.23-1.08,0.68-2.61,1.35-4.58l-5.22,0.67c-0.75,1.55-1.50,3.11-2.23,4.67
			c-0.94,1.79-1.95,3.14-3.02,4.03c-1.37,1.15-3.00,1.73-4.90,1.73c-0.71,0-1.16-0.10-1.36-0.30
			c-0.20-0.20-0.30-0.65-0.30-1.36c0-0.52,0.03-0.85,0.10-1.01c0.07-0.15,0.23-0.23,0.49-0.23
			c0.07,0,0.29,0.02,0.65,0.07c0.36,0.04,0.70,0.07,1.01,0.07c1.35,0,2.5-0.46,3.44-1.38
			c1.09-1.06,2.26-3.06,3.51-5.99l-2.80,0.31c-0.16,0-0.24-0.08-0.24-0.24l0.32-1.24
			c0.09-0.35,0.17-0.58,0.24-0.67C222.78,180.07,222.94,180.01,223.20,179.96z M228.79,179.34l4.94-0.63
			c0.61-1.56,1.1-2.75,1.45-3.56c0.28-0.64,0.73-1.59,1.35-2.85c0.26-0.47,0.46-0.84,0.60-1.10
			c0.14-0.26,0.33-0.60,0.56-1.03c0-0.07-0.03-0.14-0.10-0.21c-0.07-0.07-0.16-0.10-0.28-0.10
			c-0.35,0-0.86,0.16-1.52,0.5c-0.66,0.33-1.27,0.73-1.84,1.21c-0.85,0.64-1.65,1.53-2.39,2.67
			C230.8,175.34,229.88,177.05,228.79,179.34z"/>
		<path fill="#143258" d="M253.84,185.35v3.02c-1.82,1.39-3.4,2.38-4.72,2.96c-1.32,0.58-2.63,0.87-3.91,0.87
			c-1.28,0-2.21-0.52-2.80-1.56c-0.49-0.85-0.74-1.99-0.74-3.41c0-2.46,0.61-5.65,1.84-9.56
			c1.32-4.19,2.74-7.12,4.26-8.77c0.85-0.82,1.70-1.24,2.55-1.24c0.68,0,1.26,0.30,1.74,0.90
			c0.47,0.60,0.71,1.35,0.71,2.25c0,1.35-0.39,2.85-1.17,4.51c-0.66,1.42-1.65,3.04-2.98,4.87
			c-0.94,1.32-2.22,2.95-3.83,4.86l-0.17,2.16c0,1.70,0.55,2.55,1.67,2.55c0.94,0,2.14-0.41,3.59-1.24
			C251.31,187.72,252.63,186.65,253.84,185.35z M245.28,181.58c1.32-1.87,2.23-3.19,2.73-3.98
			c0.85-1.32,1.49-2.49,1.93-3.50c0.43-1.00,0.65-1.93,0.65-2.79c0-0.80-0.21-1.20-0.64-1.20
			c-0.78,0-1.75,1.70-2.91,5.11C246.22,177.68,245.63,179.80,245.28,181.58z"/>
		<path fill="#143258" d="M263.44,185.35v3.02c-0.92,0.92-2.02,1.76-3.30,2.52c-1.51,0.90-2.79,1.35-3.83,1.35
			c-0.87,0-1.45-0.61-1.74-1.84c-0.14-0.61-0.21-1.58-0.21-2.91c0-1.27,0.20-2.74,0.60-4.40
			c0.40-1.65,0.96-3.38,1.67-5.18h2.98l-0.35,1.06c-0.73,2.20-1.25,3.96-1.56,5.29
			c-0.30,1.32-0.46,2.47-0.46,3.44c0,1.13,0.22,1.70,0.67,1.70c0.59,0,1.72-0.71,3.41-2.13
			C262.02,186.65,262.73,186.01,263.44,185.35z M259.96,170.17c1.16,0,1.74,0.33,1.74,0.99
			c0,0.37-0.09,0.85-0.28,1.43c-0.19,0.58-0.40,0.99-0.65,1.24c-0.24,0.24-0.71,0.37-1.40,0.37
			c-0.90,0-1.35-0.29-1.35-0.88c0-0.82,0.18-1.56,0.55-2.20C258.92,170.49,259.39,170.17,259.96,170.17z"/>
	</g>
	<g>
		<path fill="#143258" d="M134.77,275.16l-0.72-0.95l6.12-4.55l3.24-0.00l0.04,18.05l-1.39,0.00l-0.03-16.99
			l-1.23,0.00L134.77,275.16z M135.26,275.81l5.84-4.32l0.03,16.22l-1.39,0.00l-0.03-13.84l-3.78,2.81L135.26,275.81z
			"/>
		<path fill="#143258" d="M153.14,270.55c1.41-0.72,3.47-1.24,5.82-1.25c3.97-0.00,6.86,1.97,6.87,5.09
			c0.00,2.11-1.07,3.51-2.80,4.26c1.85,0.58,3.07,2.08,3.07,4.04c0.00,3.27-2.67,5.26-6.95,5.27
			c-2.14,0.00-4.56-0.40-6.55-1.3l0.43-1.10c1.96,0.79,4,1.20,5.85,1.19c3.86-0.00,5.79-1.53,5.79-4.03
			c-0.00-2.14-1.40-3.60-4.18-4.06c2.5-0.59,3.91-2.04,3.91-4.03c-0.00-2.52-1.91-4.12-5.76-4.11
			c-1.72,0.00-3.50,0.39-5.10,1.14L153.14,270.55z M153.84,272.38c1.57-0.75,3.19-1.09,4.82-1.09
			c2.96-0.00,4.82,1.22,4.83,3.31c0.00,2.50-2.28,3.66-5.92,3.67l-0.18,0l0.00,0.77h0.12
			c4.87-0.01,6.24,1.68,6.25,3.67c0.00,2.14-1.72,3.25-4.86,3.26c-1.85,0.00-3.71-0.37-5.59-1.14l0.43-1.10
			c1.49,0.71,3.30,1.04,4.85,1.04c2.65-0.00,3.76-0.78,3.76-2.22c-0.00-1.65-1.70-2.31-4.95-2.31l-1.41,0.00
			l-0.00-3.14l1.47-0.00c2.96-0.00,4.64-0.65,4.63-2.38c-0.00-1.49-1.29-2.21-3.66-2.20
			c-1.44,0.00-2.99,0.36-4.12,0.99L153.84,272.38z"/>
		<path fill="#143258" d="M175.14,285.85c-0.00-1.41,0.66-2.09,2.05-2.09c1.39-0.00,2.06,0.66,2.06,2.08
			c0.00,1.41-0.66,2.09-2.05,2.09C175.81,287.94,175.14,287.27,175.14,285.85z M177.20,284.68
			c-0.72,0.00-1.13,0.36-1.13,1.16c0.00,0.8,0.41,1.15,1.13,1.15c0.72-0.00,1.13-0.36,1.13-1.16
			C178.33,285.04,177.92,284.68,177.20,284.68z M177.20,285.25c0.36-0.00,0.51,0.20,0.51,0.59
			c0.00,0.41-0.15,0.59-0.51,0.59c-0.36,0.00-0.51-0.20-0.51-0.59C176.68,285.46,176.84,285.25,177.20,285.25z"/>
		<path fill="#143258" d="M198.04,269.52l6.03-0.01c5.85-0.01,9.80,3.27,9.82,9.00c0.01,5.72-3.92,9.03-9.77,9.04
			l-6.03,0.01L198.04,269.52z M204.11,286.37c4.97-0.01,8.37-2.93,8.36-7.85c-0.01-4.92-3.42-7.83-8.39-7.82
			l-4.64,0.01l0.03,15.67L204.11,286.37z M200.37,271.48l3.73-0.00c4.28-0.01,7.43,2.40,7.44,7.04
			c0.01,4.64-3.13,7.07-7.41,7.08l-3.73,0.00L200.37,271.48z M204.14,284.41c3.37-0.00,6.00-1.94,5.99-5.89
			c-0.00-3.94-2.64-5.87-6.02-5.86l-2.34,0.00l0.02,11.75L204.14,284.41z"/>
		<path fill="#143258" d="M233.47,286.31l0.00,1.18l-11.32,0.02l-0.04-18.05l11.08-0.02l0.00,1.18l-9.69,0.02
			l0.03,15.67L233.47,286.31z M232.04,278.63l-7.58,0.01l-0.01-7.22l8.76-0.02l0.00,1.18l-7.37,0.01l0.01,4.84
			l6.18-0.01L232.04,278.63z M233.47,285.53l-9,0.02l-0.01-6.13l7.58-0.01l0.00,1.18l-6.18,0.01l0.00,3.76
			l7.60-0.01L233.47,285.53z"/>
		<path fill="#143258" d="M254.20,286.26l0.00,1.18l-12.99,0.03l-0.00-2.37l7.96-12.55l-7.60,0.01l-0.00-1.18
			l10.10-0.02l-9.12,14.10l0.00,0.82L254.20,286.26z M254.20,285.49l-10.75,0.02l9.12-14.10l-0.00-0.82
			l-11.01,0.02l-0.00-1.18l12.35-0.02l0.00,2.37l-7.96,12.55l8.25-0.01L254.20,285.49z"/>
		<path fill="#143258" d="M274.28,286.21l0.00,1.18l-11.32,0.02l-0.04-18.05l11.08-0.02l0.00,1.18l-9.69,0.02
			l0.03,15.67L274.28,286.21z M272.84,278.53l-7.58,0.01l-0.01-7.22l8.76-0.02l0.00,1.18l-7.37,0.01l0.01,4.84
			l6.18-0.01L272.84,278.53z M274.28,285.44l-9,0.02l-0.01-6.13l7.58-0.01l0.00,1.18l-6.18,0.01l0.00,3.76
			l7.60-0.01L274.28,285.44z"/>
		<path fill="#143258" d="M283.04,287.38l-0.04-18.05l2.78-0.00l7.45,9.93l7.40-9.97l2.78-0.00l0.04,18.05
			l-1.39,0.00l-0.03-16.91l-0.77,0.00l-8.02,10.79l-8.07-10.76l-0.77,0.00l0.03,16.91L283.04,287.38z M285.33,272.13
			l7.78,10.4l0.25,0l7.73-10.43l0.03,15.24l-1.39,0.00l-0.02-11.26l-5.55,7.46l-1.85,0.00l-5.58-7.44l0.02,11.26
			l-1.39,0.00L285.33,272.13z"/>
		<path fill="#143258" d="M312.95,269.26l6.26-0.01c4.07-0.00,6.34,2.20,6.35,5.14c0.00,1.44-0.74,3.07-2.28,3.77
			c1.85,0.56,3.12,2.18,3.13,4.09c0.00,3.27-2.05,5.03-6.82,5.04l-6.60,0.01L312.95,269.26z M314.38,286.17
			l5.44-0.01c3.53-0.00,5.12-1.61,5.12-3.93c-0.00-2.06-1.27-3.37-3.43-3.86c1.62-0.72,2.70-2.04,2.69-3.97
			c-0.00-2.55-1.91-4.01-4.98-4.01l-4.87,0.01L314.38,286.17z M319.37,278.06l-4.07,0.00l-0.01-6.85l3.81-0.00
			c2.93-0.00,4.15,1.22,4.16,3.39C323.26,276.56,321.66,278.06,319.37,278.06z M319.57,278.84
			c3.14-0.00,4.43,1.53,4.44,3.36c0.00,1.96-1.12,3.12-4.11,3.13l-4.59,0.01l-0.01-6.49L319.57,278.84z
			 M319.1,272.34l-2.42,0.00l0.01,4.56l2.42-0.00c2.01-0.00,2.75-0.85,2.75-2.30
			C321.86,273.16,321.11,272.34,319.1,272.34z M316.69,280.00l0.00,4.20l3.19-0.00c1.96-0.00,2.68-0.78,2.67-2.09
			c-0.00-1.31-0.72-2.11-2.68-2.10L316.69,280.00z"/>
		<path fill="#143258" d="M345.86,286.05l0.00,1.18l-11.32,0.02l-0.04-18.05l11.08-0.02l0.00,1.18l-9.69,0.02
			l0.03,15.67L345.86,286.05z M344.42,278.37l-7.58,0.01l-0.01-7.22l8.76-0.02l0.00,1.18l-7.37,0.01l0.01,4.84
			l6.18-0.01L344.42,278.37z M345.86,285.28l-9,0.02l-0.01-6.13l7.58-0.01l0.00,1.18l-6.18,0.01l0.00,3.76
			l7.60-0.01L345.86,285.28z"/>
		<path fill="#143258" d="M356.01,287.21l-1.39,0.00l-0.04-18.05l6.21-0.01c4.43-0.01,7.12,2.76,7.13,6.30
			c0.00,2.42-1.22,4.38-3.34,5.37c1.78,1.10,2.92,3.06,3.18,5.82l0.05,0.54l-1.34,0.00
			c-0.24-3.81-2.28-6.13-4.58-6.79c2.57-0.39,4.61-2.30,4.60-4.93c-0.00-3.06-2.25-5.15-5.86-5.14l-4.66,0.01
			L356.01,287.21z M356.90,271.09l3.81-0.00c2.88-0.00,4.85,1.79,4.85,4.37c0.00,2.52-1.82,4.38-4.83,4.39
			l-3.81,0.00L356.90,271.09z M356.94,287.21l-0.01-6.57l2.60-0.00c2.99-0.00,5.70,2.25,6.04,6.56l-1.36,0.00
			l-0.05-0.49c-0.31-2.96-1.99-4.76-4.52-4.76l-1.31,0.00l0.01,5.26L356.94,287.21z M358.31,278.85l2.42-0.00
			c2.03-0.00,3.42-1.14,3.42-3.30c-0.00-2.16-1.4-3.29-3.43-3.29l-2.42,0.00L358.31,278.85z"/>
		<path fill="#143258" d="M397.62,285.16l-10.18,0.02c1.54-1.03,3.55-2.56,5.53-4.47c2.05-1.96,2.90-3.64,2.9-5.83
			c-0.00-3.12-2.25-4.89-5.78-4.88c-1.80,0.00-3.66,0.44-5.25,1.22l-0.41-1.10c1.54-0.82,3.68-1.32,5.77-1.32
			c4.46-0.01,7.09,2.30,7.10,6.09c0.00,2.68-1.15,4.41-3.67,6.73c-1.02,0.95-2.05,1.68-3.14,2.37l7.14-0.01
			L397.62,285.16z M397.62,285.93l0.00,1.18l-12.91,0.03l-0.00-2.37c1.93-1.29,3.96-3,6.20-5.14
			c1.95-1.88,2.62-3.12,2.61-4.80c-0.00-1.88-1.45-2.85-3.87-2.85c-1.39,0.00-2.96,0.41-4.09,1.06l-0.44-1.10
			c1.44-0.72,3.11-1.16,4.89-1.17c2.99-0.00,4.92,1.35,4.93,4.06c0.00,2.01-0.81,3.74-2.82,5.62
			c-2.08,1.93-4.06,3.46-5.99,4.70l0.00,0.79L397.62,285.93z"/>
		<path fill="#143258" d="M413.84,268.72c5.36-0.01,8.49,4.02,8.50,9.31c0.01,5.28-3.09,9.34-8.46,9.35
			c-5.36,0.01-8.49-4.02-8.50-9.31C405.37,272.79,408.48,268.73,413.84,268.72z M413.84,269.93
			c-4.59,0.01-7.05,3.57-7.04,8.13c0.01,4.56,2.49,8.11,7.08,8.10c4.59-0.01,7.05-3.57,7.04-8.14
			C420.92,273.47,418.43,269.92,413.84,269.93z M413.84,270.70c3.48-0.00,6.14,2.79,6.15,7.33
			c0.01,4.53-2.64,7.35-6.12,7.36c-3.48,0.00-6.14-2.79-6.15-7.33C407.71,273.53,410.36,270.71,413.84,270.70z
			 M413.88,284.19c2.65-0.00,4.71-2.17,4.70-6.14c-0.00-3.97-2.07-6.13-4.73-6.12
			c-2.65,0.00-4.71,2.17-4.70,6.14C409.15,282.04,411.22,284.20,413.88,284.19z"/>
		<path fill="#143258" d="M429.93,274.48l-0.72-0.95l6.12-4.55l3.24-0.00l0.04,18.05l-1.39,0.00l-0.03-16.99
			l-1.23,0.00L429.93,274.48z M430.43,275.13l5.84-4.32l0.03,16.22l-1.39,0.00l-0.03-13.84l-3.78,2.81L430.43,275.13z
			"/>
		<path fill="#143258" d="M458.40,286.98l-1.39,0.00l-0.00-2.99l-8.84,0.02l-0.00-2.37l4.48-12.82l1.31,0.46
			l-4.43,12.69l0.00,0.85l8.87-0.02L458.40,286.98z M458.37,276.27l0.01,5.75l-7.86,0.01l4.27-12.49l1.34,0.43
			l-3.81,10.86l4.66-0.01l-0.01-4.56L458.37,276.27z M462.90,282.02l-3.58,0.00l-0.01-5.75l1.39-0.00l0.01,4.56
			l2.19-0.00L462.90,282.02z M462.90,282.79l0.00,1.18l-2.19,0.00l0.00,2.99l-1.39,0.00l-0.00-4.17L462.90,282.79z
			"/>
	</g>
	<g>
		<path fill="#143258" d="M142.34,224.60c-0.08,0.25-0.12,0.69-0.12,1.32c0,0.42,0.38,0.89,1.16,1.41
			c0.77,0.52,1.78,1.01,3.02,1.48c1.23,0.46,2.65,0.85,4.25,1.16c1.59,0.31,3.21,0.47,4.84,0.47
			c3.14,0,5.45-0.36,6.92-1.10c1.46-0.73,2.20-1.79,2.20-3.18c0-0.75-0.64-1.29-1.92-1.60
			c-1.28-0.31-2.88-0.56-4.81-0.75c-1.93-0.18-4.01-0.39-6.23-0.63c-2.22-0.23-4.30-0.65-6.23-1.25
			c-1.93-0.60-3.53-1.49-4.81-2.64c-1.28-1.15-1.92-2.73-1.92-4.75c0-1.59,0.36-3.04,1.10-4.34
			c0.73-1.30,1.76-2.41,3.08-3.33c1.32-0.92,2.92-1.64,4.81-2.17c1.88-0.52,3.98-0.78,6.29-0.78
			c2.14,0,4.13,0.13,5.98,0.40c1.84,0.27,3.48,0.57,4.91,0.91c1.42,0.33,2.62,0.64,3.58,0.91
			c0.96,0.27,1.65,0.40,2.07,0.40c0.41,0,0.75-0.09,1.00-0.28s0.48-0.40,0.69-0.66l0.69,0.25l-4.34,8.75
			l-0.75-0.37v-0.69c0-0.37-0.40-0.76-1.22-1.16c-0.81-0.39-1.85-0.75-3.11-1.07c-1.26-0.31-2.66-0.57-4.21-0.78
			c-1.55-0.20-3.06-0.31-4.53-0.31c-2.72,0-4.63,0.31-5.73,0.94c-1.09,0.62-1.63,1.30-1.63,2.01
			c0,0.71,0.37,1.25,1.13,1.60c0.75,0.35,1.74,0.62,2.95,0.78c1.21,0.16,2.60,0.30,4.15,0.40
			c1.55,0.10,3.14,0.26,4.78,0.47c1.63,0.21,3.23,0.50,4.78,0.88c1.55,0.37,2.93,0.93,4.15,1.66
			c1.21,0.73,2.20,1.7,2.96,2.89c0.75,1.19,1.13,2.69,1.13,4.50c0,1.38-0.28,2.75-0.85,4.09
			c-0.56,1.34-1.53,2.55-2.89,3.62c-1.36,1.07-3.19,1.92-5.47,2.55c-2.28,0.63-5.13,0.94-8.53,0.94
			c-2.64,0-4.92-0.12-6.83-0.37c-1.91-0.25-3.53-0.55-4.88-0.91c-1.34-0.35-2.40-0.68-3.18-0.97
			c-0.77-0.29-1.35-0.44-1.73-0.44c-0.25,0-0.47,0.08-0.66,0.25c-0.18,0.16-0.38,0.35-0.59,0.56l-0.75-0.18
			l4.66-11.20L142.34,224.60z"/>
		<path fill="#143258" d="M182.33,211.56c0-0.46-0.14-0.75-0.44-0.88c-0.29-0.12-0.60-0.20-0.94-0.25v-0.75h20.21
			c3.14,0,5.65,0.73,7.52,2.20c1.86,1.47,2.80,3.65,2.80,6.54c0,2.26-0.66,4.06-1.98,5.38s-2.99,2.36-5.00,3.11
			l5.60,8.43c0.20,0.33,0.51,0.63,0.91,0.88c0.39,0.25,0.82,0.37,1.29,0.37v0.75h-12.72v-0.75
			c0.29,0,0.61-0.05,0.97-0.15c0.35-0.10,0.53-0.32,0.53-0.66c0-0.20-0.22-0.73-0.66-1.57
			c-0.44-0.83-0.94-1.74-1.51-2.70c-0.56-0.96-1.11-1.88-1.63-2.77c-0.52-0.88-0.85-1.44-0.97-1.7h-6.04v8.43
			c0,0.46,0.15,0.75,0.47,0.88c0.31,0.12,0.70,0.21,1.16,0.25v0.75h-10.83v-0.75c0.25-0.04,0.52-0.12,0.81-0.25
			c0.29-0.12,0.44-0.41,0.44-0.88V211.56z M199.20,221.77c1.34,0,2.40-0.28,3.18-0.85
			c0.77-0.56,1.16-1.41,1.16-2.55c0-0.96-0.32-1.77-0.97-2.42c-0.65-0.65-1.92-0.97-3.81-0.97h-8.50v6.80H199.20z"
			/>
		<path fill="#143258" d="M231.70,210.43c-0.63,0.04-1.12,0.12-1.48,0.25c-0.35,0.12-0.53,0.42-0.53,0.88v23.92
			c0,0.46,0.17,0.75,0.53,0.88c0.35,0.12,0.85,0.21,1.48,0.25v0.75h-12.46v-0.75c0.62-0.04,1.12-0.12,1.47-0.25
			c0.35-0.12,0.53-0.41,0.53-0.88v-23.92c0-0.46-0.17-0.75-0.53-0.88c-0.35-0.12-0.85-0.20-1.47-0.25v-0.75
			h12.46V210.43z"/>
		<path fill="#143258" d="M293.09,229.70c0.33,0,0.58-0.11,0.75-0.34c0.16-0.23,0.29-0.70,0.37-1.41h0.75v10.89
			h-0.75c-0.08-0.67-0.21-1.08-0.37-1.22c-0.16-0.14-0.42-0.22-0.75-0.22h-32.87v-0.75
			c0.79-0.08,1.29-0.22,1.48-0.40s0.28-0.43,0.28-0.72v-29.34c0-0.29-0.09-0.53-0.28-0.72s-0.68-0.32-1.48-0.40
			v-0.75h12.97v0.75c-0.79,0.08-1.29,0.22-1.48,0.40s-0.28,0.43-0.28,0.72v23.55H293.09z"/>
		<path fill="#143258" d="M325.71,236.63c0.12,0,0.29-0.02,0.50-0.06c0.20-0.04,0.31-0.20,0.31-0.50
			c0-0.16-0.07-0.43-0.22-0.78c-0.14-0.35-0.31-0.74-0.50-1.16c-0.18-0.41-0.38-0.83-0.59-1.25
			c-0.21-0.41-0.37-0.77-0.50-1.07h-14.60c-0.08,0.29-0.22,0.65-0.41,1.07c-0.18,0.42-0.38,0.84-0.59,1.25
			c-0.21,0.42-0.39,0.80-0.56,1.16c-0.16,0.35-0.25,0.62-0.25,0.78c0,0.29,0.10,0.46,0.31,0.50
			c0.20,0.04,0.37,0.06,0.50,0.06v0.75h-9.44v-0.75c0.25,0,0.50-0.05,0.75-0.15c0.25-0.10,0.41-0.26,0.50-0.47
			c1.25-2.93,2.54-5.84,3.84-8.72c1.30-2.87,2.46-5.47,3.49-7.80c1.02-2.33,1.87-4.26,2.55-5.79
			c0.67-1.53,1.00-2.40,1.00-2.61c0-0.37-0.27-0.58-0.81-0.63v-0.75h13.16v0.75c-0.54,0.04-0.81,0.25-0.81,0.63
			c0,0.12,0.22,0.68,0.66,1.66c0.44,0.98,1.01,2.22,1.73,3.71c0.71,1.49,1.5,3.13,2.36,4.94
			c0.86,1.80,1.72,3.61,2.58,5.41c0.86,1.80,1.66,3.51,2.42,5.13c0.75,1.61,1.36,2.97,1.82,4.06
			c0.08,0.21,0.25,0.36,0.50,0.47c0.25,0.10,0.50,0.15,0.75,0.15v0.75h-10.45V236.63z M317.27,216.22l-5.16,11.02
			h10.45L317.27,216.22z"/>
		<path fill="#143258" d="M375.58,235.49c0,0.46,0.16,0.75,0.50,0.88c0.33,0.12,0.75,0.21,1.26,0.25v0.75h-11.65v-0.75
			c0.33,0,0.72-0.04,1.16-0.12c0.44-0.08,0.66-0.31,0.66-0.69s-0.46-1.08-1.38-2.10
			c-0.92-1.02-2.10-2.29-3.55-3.81c-1.44-1.51-3.07-3.20-4.88-5.06c-1.80-1.86-3.58-3.85-5.35-5.95L352.22,219
			v16.49c0,0.46,0.15,0.75,0.47,0.88c0.31,0.12,0.70,0.21,1.16,0.25v0.75h-10.76v-0.75
			c0.41-0.04,0.78-0.12,1.10-0.25c0.31-0.12,0.47-0.41,0.47-0.88v-23.92c0-0.46-0.16-0.75-0.50-0.88
			c-0.33-0.12-0.73-0.20-1.19-0.25v-0.75h14.98v0.75c-0.29,0.04-0.58,0.12-0.88,0.25
			c-0.29,0.12-0.44,0.42-0.44,0.88c0,0.08,0.34,0.51,1.03,1.29c0.69,0.77,1.58,1.75,2.67,2.92
			c1.09,1.17,2.30,2.47,3.65,3.90c1.34,1.42,2.68,2.85,4.03,4.28v-12.40c0-0.46-0.16-0.75-0.50-0.88
			c-0.33-0.12-0.75-0.20-1.25-0.25v-0.75h11.08v0.75c-0.50,0.04-0.92,0.12-1.26,0.25
			c-0.33,0.12-0.50,0.42-0.50,0.88V235.49z"/>
		<path fill="#143258" d="M405.05,236.63c0.29,0,0.66-0.06,1.10-0.18c0.44-0.12,0.66-0.41,0.66-0.88
			c0-0.12-0.14-0.43-0.44-0.91c-0.29-0.48-0.66-1.06-1.10-1.73c-0.44-0.67-0.93-1.41-1.48-2.23
			c-0.54-0.81-1.07-1.59-1.57-2.33c-0.50-0.73-0.95-1.39-1.35-1.98c-0.39-0.58-0.68-1.02-0.85-1.32l-5.47,5.29
			v5.16c0,0.46,0.18,0.75,0.56,0.88c0.37,0.12,0.77,0.21,1.19,0.25v0.75h-11.77v-0.75
			c0.37,0.04,0.73-0.02,1.07-0.18c0.33-0.16,0.50-0.48,0.50-0.94v-23.92c0-0.46-0.16-0.77-0.50-0.94
			c-0.33-0.16-0.69-0.23-1.07-0.18v-0.75h11.77v0.75c-0.42,0.04-0.81,0.12-1.19,0.25s-0.56,0.42-0.56,0.88v11.58
			c0.63-0.54,1.37-1.19,2.23-1.95c0.86-0.75,1.76-1.54,2.70-2.36c0.94-0.81,1.87-1.62,2.80-2.42
			c0.92-0.79,1.75-1.54,2.48-2.23c0.73-0.69,1.32-1.26,1.76-1.73c0.44-0.46,0.66-0.75,0.66-0.88
			c0-0.46-0.17-0.75-0.53-0.88c-0.35-0.12-0.70-0.20-1.03-0.25v-0.75h12.27v0.75
			c-0.62,0.08-1.44,0.52-2.45,1.32c-1.00,0.79-2.07,1.71-3.21,2.73c-1.13,1.02-2.25,2.07-3.36,3.14
			c-1.11,1.07-2.06,1.92-2.86,2.55l10.45,15.49c0.20,0.33,0.43,0.56,0.66,0.69c0.23,0.12,0.49,0.21,0.78,0.25v0.75
			h-12.84V236.63z"/>
		<path fill="#143258" d="M448.19,236.63c0.12,0,0.29-0.02,0.50-0.06c0.20-0.04,0.31-0.20,0.31-0.50
			c0-0.16-0.07-0.43-0.21-0.78c-0.14-0.35-0.31-0.74-0.50-1.16c-0.18-0.41-0.38-0.83-0.6-1.25
			c-0.20-0.41-0.37-0.77-0.50-1.07h-14.60c-0.08,0.29-0.21,0.65-0.40,1.07c-0.18,0.42-0.38,0.84-0.59,1.25
			c-0.21,0.42-0.4,0.80-0.56,1.16c-0.16,0.35-0.25,0.62-0.25,0.78c0,0.29,0.10,0.46,0.31,0.50
			c0.20,0.04,0.37,0.06,0.50,0.06v0.75h-9.44v-0.75c0.25,0,0.50-0.05,0.75-0.15c0.25-0.10,0.42-0.26,0.50-0.47
			c1.26-2.93,2.53-5.84,3.84-8.72c1.30-2.87,2.46-5.47,3.49-7.80c1.02-2.33,1.87-4.26,2.55-5.79
			c0.67-1.53,1.00-2.40,1.00-2.61c0-0.37-0.27-0.58-0.81-0.63v-0.75h13.16v0.75c-0.54,0.04-0.81,0.25-0.81,0.63
			c0,0.12,0.22,0.68,0.66,1.66c0.43,0.98,1.01,2.22,1.73,3.71c0.71,1.49,1.5,3.13,2.36,4.94
			c0.86,1.80,1.72,3.61,2.58,5.41c0.85,1.80,1.67,3.51,2.42,5.13c0.75,1.61,1.36,2.97,1.82,4.06
			c0.08,0.21,0.25,0.36,0.50,0.47c0.25,0.10,0.50,0.15,0.75,0.15v0.75h-10.45V236.63z M439.75,216.22l-5.16,11.02
			h10.45L439.75,216.22z"/>
		<path fill="#143258" d="M134.47,248.37v-3.14h327.12v3.14H134.47z"/>
	</g>
	<g>
		<path fill="#143258" d="M196.88,415.96v14.79h-58.92l-5.91-4.14h58.92v-14.78L196.88,415.96z M159.02,361.18
			c-5.44,0-11.83,1.65-17.39,4.37l-6.15-4.26c5.56-2.72,12.18-4.26,17.62-4.26c3.07,0,5.85,0.47,8.10,1.18
			c0.82,1.06,1.30,2.18,1.47,3.19C161.62,361.3,160.32,361.18,159.02,361.18z M195.46,373.13
			c0,12.18-6.38,21.53-17.15,31.70h-10.76c1.53-1.30,3.19-2.60,4.61-3.90c11.00-10.29,17.39-19.64,17.39-31.94
			c0-9.58-3.55-17.33-10.05-22.42c4.08,2.72,4.55,3.13,4.73,3.25C191.56,355.08,195.46,362.95,195.46,373.13z"/>
		<path fill="#143258" d="M264.21,361.18c-11.47,0-20.23,9.46-20.23,26.73c0,7.33,1.53,13.13,4.02,17.63
			c-1.30-0.23-2.48-0.71-3.66-1.30c-3.90-4.49-6.27-11.47-6.27-20.46c0-17.27,8.75-26.74,20.23-26.74
			c2.13,0,4.49,0.35,6.44,1.06c1.06,0.94,2.01,2.13,2.89,3.43C266.46,361.41,265.28,361.18,264.21,361.18z
			 M287.40,350.53c11.18,7.75,17.15,21.41,17.15,37.38c0,24.96-14.90,44.25-40.34,44.25
			c-7.21,0-17.39-3.31-23.66-8.04c3.72,2.36,9.58,4.02,17.74,4.02c25.43,0,40.34-19.40,40.34-44.36
			c0-15.38-5.67-28.69-16.09-36.61L287.40,350.53z"/>
		<path fill="#143258" d="M329.41,375.49l8.28-6.39v8.63l-2.48,1.77L329.41,375.49z M369.76,347.57v83.17h-16.68
			l-5.91-4.14h16.68v-83.17L369.76,347.57z"/>
		<path fill="#143258" d="M454.72,378.33c6.80,4.55,11.59,12.89,11.59,23.30c0,18.69-13.25,30.52-36.44,30.52
			c-7.33,0-16.09-2.01-23.19-4.61l-4.96-3.43c7.21,2.60,14.79,3.90,22.24,3.90c23.18,0,36.44-11.83,36.44-30.52
			c0-9.82-3.90-17.51-10.29-22.24L454.72,378.33z M430.58,389.22c-5.91,0-11.59,1.30-16.09,3.66l-6.38-4.02
			c4.49-2.24,10.53-3.78,16.56-3.78c2.60,0,4.73,0.23,6.74,0.94c0.88,1.06,1.47,2.13,1.89,3.43
			C432.36,389.34,431.53,389.22,430.58,389.22z M460.64,347.57v14.79h-35.49v1.89c-2.01,0-4.02,0.11-5.91,0.41v-6.44
			h35.49v-14.79l-5.56-3.90L460.64,347.57z"/>
	</g>
	<g>
		<path fill="#143258" d="M149.28,322.94l-0.00,3.37c-0.84,0.55-1.54,0.83-2.10,0.83c-1.21,0-2.14-0.67-2.77-2.02
			c-0.87,1.58-2.00,2.9-3.39,3.94c-1.38,1.04-2.82,1.56-4.30,1.56c-1.05-0.00-1.79-0.47-2.22-1.41
			c-0.42-0.93-0.63-2.29-0.63-4.06c0.00-1.90,0.35-4.49,1.07-7.77c0.87-3.96,1.92-7.13,3.14-9.51
			c1.58-3.09,3.33-4.64,5.23-4.63c0.71,0,1.32,0.33,1.82,1.01c0.50,0.67,0.75,1.50,0.75,2.47
			c-0.00,1.90-0.70,4.16-2.12,6.78c-1.41,2.61-3.64,5.77-6.69,9.47l-0.00,2.61c-0.00,1.53,0.30,2.30,0.91,2.30
			c0.68,0,1.59-0.58,2.71-1.76c1.12-1.17,2.00-2.50,2.64-3.98c0.00-2.08,0.21-3.68,0.63-4.8
			c0.42-1.10,1.04-1.66,1.86-1.66c0.89,0.00,1.34,0.47,1.34,1.42c0,0.63-0.18,1.52-0.55,2.65
			c-0.21,0.60-0.54,1.48-0.99,2.61c0.42,1.27,0.96,1.90,1.62,1.90c0.39,0.00,0.74-0.12,1.03-0.37
			C148.58,323.66,148.91,323.34,149.28,322.94z M137.74,318.89c1.61-2.11,2.95-4.20,4.01-6.26
			c1.16-2.27,1.74-4.08,1.74-5.43c0-0.81-0.22-1.22-0.67-1.22c-0.76-0.00-1.62,1.24-2.58,3.72
			C139.16,312.57,138.33,315.64,137.74,318.89z"/>
		<path fill="#143258" d="M159.99,322.95l-0.00,3.37c-1.03,1.03-2.26,1.97-3.69,2.81c-1.69,1.00-3.12,1.50-4.28,1.50
			c-0.97,0-1.62-0.68-1.94-2.06c-0.15-0.68-0.23-1.77-0.23-3.25c0.00-1.42,0.22-3.06,0.67-4.91
			c0.45-1.85,1.07-3.78,1.86-5.79l3.33,0.00l-0.39,1.18c-0.82,2.46-1.40,4.42-1.74,5.90
			c-0.34,1.48-0.51,2.76-0.51,3.84c0,1.27,0.25,1.90,0.75,1.90c0.66,0.00,1.93-0.79,3.81-2.37
			C158.41,324.40,159.20,323.69,159.99,322.95z M156.12,306.01c1.29,0.00,1.94,0.37,1.94,1.11
			c0,0.42-0.10,0.95-0.31,1.60c-0.21,0.64-0.45,1.11-0.73,1.38s-0.8,0.41-1.56,0.41c-1.00,0-1.50-0.33-1.50-0.99
			c0-0.92,0.20-1.74,0.61-2.45C154.96,306.37,155.48,306.01,156.12,306.01z"/>
		<path fill="#143258" d="M159.87,323.19l0.63-0.75c1.13-1.24,2.10-2.39,2.89-3.45c0.89-1.18,1.73-2.44,2.50-3.76
			c-0.21-0.18-0.31-0.38-0.31-0.59c0-0.87,0.20-1.67,0.61-2.42c0.41-0.74,1.01-1.10,1.80-1.10l1.85,0.08
			c0.51,0.10,0.76,0.35,0.76,0.75c0,0.47-0.25,1.07-0.74,1.78c-0.49,0.71-0.96,1.37-1.39,1.98
			c0.81,1.00,1.38,1.84,1.68,2.52c0.30,0.67,0.45,1.39,0.45,2.16c-0.00,1.16-0.20,2.41-0.61,3.74
			c-0.41,1.33-0.98,2.57-1.72,3.70c1.19,0.00,2.85-0.87,5-2.61c0.89-0.73,1.79-1.49,2.69-2.25l-0.00,3.37
			l-0.59,0.47c-1.66,1.21-3.03,2.1-4.10,2.65c-1.07,0.55-2.00,0.83-2.79,0.83c-0.55,0-1.28-0.18-2.18-0.55
			c-0.45,0.26-0.94,0.46-1.48,0.59c-0.54,0.13-1.21,0.19-2.00,0.19c-0.60,0-1.02-0.08-1.25-0.25
			c-0.22-0.17-0.33-0.49-0.33-0.97c0-0.84,0.08-1.48,0.25-1.90c0.17-0.42,0.43-0.63,0.77-0.63
			c0.31,0,0.76,0.05,1.34,0.15c0.58,0.10,1.01,0.16,1.30,0.16c0.47,0.00,1.03-0.85,1.68-2.57
			c0.64-1.71,0.97-3.09,0.97-4.12c0-0.42-0.04-0.83-0.11-1.22s-0.26-0.80-0.55-1.23
			c-1.40,2.09-2.48,3.60-3.25,4.56c-0.9,1.13-2.15,2.47-3.77,4.00L159.87,323.19z"/>
	</g>
	<g>
		<path fill="#143258" d="M199.94,314.40l-2.72-3.58l8.88-6.56h4.70v26.12h-5.37v-20.04L199.94,314.40z"/>
		<path fill="#143258" d="M223.05,314.40l-2.72-3.58l8.88-6.56h4.70v26.12h-5.37v-20.04L223.05,314.40z"/>
		<path fill="#143258" d="M244.00,327.80c0-2.05,0.97-3.02,2.98-3.02c2.01,0,2.98,0.97,2.98,3.02
			s-0.97,3.02-2.98,3.02C244.97,330.82,244.00,329.85,244.00,327.80z"/>
		<path fill="#143258" d="M278.42,304.25h5.37v18.43c0,5.3-3.02,8.13-8.02,8.13c-2.16,0-4.21-0.56-5.82-1.49
			l1.64-4.25c0.93,0.63,2.35,1.11,3.69,1.11c2.01,0,3.13-1.34,3.13-3.69V304.25z"/>
		<path fill="#143258" d="M314.86,326.49h-11.27l-1.49,3.88h-5.59l10.56-26.12h4.32l10.56,26.12h-5.59L314.86,326.49z
			 M305.31,322.01h7.83l-3.91-10.15L305.31,322.01z"/>
		<path fill="#143258" d="M334.66,304.25h3.95l12.42,16.38v-16.38h5.37v26.12h-3.95l-12.42-16.42v16.42h-5.37V304.25z"
			/>
		<path fill="#143258" d="M372.11,319.33v-15.07h5.37v15.41c0,4.59,2.68,6.53,5.59,6.53c2.91,0,5.59-1.94,5.59-6.53
			v-15.41h5.37v15.07c0,7.91-5.00,11.49-10.97,11.49S372.11,327.24,372.11,319.33z"/>
		<path fill="#143258" d="M424.19,326.49h-11.27l-1.49,3.88h-5.59l10.56-26.12h4.33l10.56,26.12h-5.59L424.19,326.49z
			 M414.63,322.01h7.83l-3.91-10.15L414.63,322.01z"/>
		<path fill="#143258" d="M449.36,330.37h-5.37v-26.12h8.99c6.42,0,10.30,4.03,10.30,9.14c0,3.50-1.79,6.34-4.85,7.76
			c2.57,1.60,4.21,4.44,4.59,8.43l0.07,0.78h-5.22l-0.07-0.70c-0.44-4.29-2.87-6.90-6.53-6.90h-1.90V330.37z
			 M449.36,318.28h3.50c2.94,0,4.96-1.64,4.96-4.77s-2.01-4.77-4.96-4.77h-3.50V318.28z"/>
	</g>
	<g>
		<path fill="#143258" d="M309.50,181.93l-0.17-2.13l5.40-2.00c0.16-0.68,0.26-1.24,0.31-1.65
			c0.04-0.41,0.07-0.95,0.07-1.62c0-1.42-0.10-2.45-0.32-3.1c-0.28-0.85-0.75-1.28-1.42-1.28
			c-0.85,0-1.79,0.21-2.82,0.65c-1.03,0.43-1.97,1.00-2.82,1.68c-0.47,0.42-0.92,0.94-1.35,1.54
			c-0.42,0.60-0.83,1.32-1.20,2.15c-0.68,1.51-1.30,2.27-1.84,2.27c-0.21,0-0.40-0.06-0.58-0.19
			c-0.17-0.13-0.26-0.26-0.26-0.40c0-0.33,0.17-0.88,0.53-1.67c0.23-0.61,0.44-1.27,0.62-1.97
			c0.17-0.69,0.29-1.30,0.35-1.81c0.05-0.50,0.12-0.81,0.19-0.90c0.07-0.09,0.25-0.17,0.55-0.23
			c0.29-0.05,0.83-0.31,1.61-0.76c1.39-0.80,2.61-1.43,3.66-1.88c1.84-0.80,3.41-1.20,4.69-1.20
			c1.20,0,2.10,0.79,2.70,2.38c0.42,1.16,0.64,2.47,0.64,3.94c0,0.40-0.01,0.79-0.03,1.17
			c-0.02,0.37-0.09,0.93-0.21,1.66l3.37-1.24l0.21,2.16L317.35,179c-0.56,2.13-1.24,4.02-2.02,5.65
			c-1.04,2.15-2.23,3.83-3.58,5.01c-1.63,1.44-3.48,2.17-5.54,2.17c-1.61,0-2.81-0.41-3.62-1.24
			c-0.30-0.33-0.59-0.73-0.85-1.20c-0.26-0.47-0.39-0.84-0.39-1.10c0-0.21,0.26-0.55,0.78-1.03
			c0.52-0.47,0.91-0.71,1.17-0.71c0.21,0,0.60,0.51,1.19,1.54s1.36,1.54,2.36,1.54c1.37,0,2.72-0.86,4.05-2.59
			c1.23-1.61,2.28-3.87,3.16-6.79L309.50,181.93z"/>
		<path fill="#143258" d="M336.05,185.02v2.98c-3.64,2.63-7.19,3.94-10.62,3.94c-1.25,0-2.21-0.51-2.86-1.54
			c-0.65-1.03-0.97-2.19-0.97-3.50c0-2.58,0.77-4.87,2.31-6.87c1.54-2.00,3.31-3.00,5.33-3.00
			c1.89,0,2.84,0.90,2.84,2.70c0,1.61-0.83,3.02-2.48,4.22c-0.87,0.64-2.29,1.36-4.26,2.16l-0.74,0.32v0.14
			c0,0.80,0.13,1.45,0.39,1.95c0.37,0.73,0.98,1.10,1.81,1.10c1.42,0,2.85-0.36,4.30-1.08
			C332.52,187.83,334.18,186.65,336.05,185.02z M324.92,184.09c1.46-0.54,2.64-1.17,3.51-1.90
			c0.87-0.72,1.31-1.44,1.31-2.15c0-0.52-0.27-0.78-0.81-0.78c-0.78,0-1.57,0.48-2.38,1.43
			C325.75,181.66,325.21,182.79,324.92,184.09z"/>
		<path fill="#143258" d="M348.77,185.02v3.02c-1.82,1.39-3.4,2.38-4.72,2.96c-1.32,0.58-2.63,0.87-3.91,0.87
			c-1.28,0-2.21-0.52-2.80-1.56c-0.49-0.85-0.74-1.99-0.74-3.41c0-2.46,0.61-5.65,1.84-9.56
			c1.32-4.19,2.74-7.12,4.26-8.77c0.85-0.82,1.70-1.24,2.55-1.24c0.68,0,1.26,0.30,1.74,0.90
			c0.47,0.60,0.71,1.35,0.71,2.25c0,1.35-0.39,2.85-1.17,4.51c-0.66,1.42-1.65,3.04-2.98,4.87
			c-0.94,1.32-2.22,2.95-3.83,4.86l-0.17,2.16c0,1.70,0.55,2.55,1.67,2.55c0.94,0,2.14-0.41,3.59-1.24
			C346.24,187.39,347.56,186.32,348.77,185.02z M340.21,181.25c1.32-1.87,2.23-3.19,2.73-3.98
			c0.85-1.32,1.49-2.49,1.93-3.50c0.43-1.00,0.65-1.93,0.65-2.79c0-0.80-0.21-1.20-0.64-1.20
			c-0.78,0-1.75,1.70-2.91,5.11C341.15,177.35,340.56,179.47,340.21,181.25z"/>
		<path fill="#143258" d="M358.37,185.02v3.02c-0.92,0.92-2.02,1.76-3.30,2.52c-1.51,0.90-2.79,1.35-3.83,1.35
			c-0.87,0-1.45-0.61-1.74-1.84c-0.14-0.61-0.21-1.58-0.21-2.91c0-1.27,0.20-2.74,0.60-4.40
			c0.40-1.65,0.96-3.38,1.67-5.18h2.98l-0.35,1.06c-0.73,2.20-1.25,3.96-1.56,5.29
			c-0.30,1.32-0.46,2.47-0.46,3.44c0,1.13,0.22,1.70,0.67,1.70c0.59,0,1.72-0.71,3.41-2.13
			C356.95,186.32,357.66,185.68,358.37,185.02z M354.89,169.84c1.16,0,1.74,0.33,1.74,0.99
			c0,0.37-0.09,0.85-0.28,1.43c-0.19,0.58-0.40,0.99-0.65,1.24c-0.24,0.24-0.71,0.37-1.40,0.37
			c-0.90,0-1.35-0.29-1.35-0.88c0-0.82,0.18-1.56,0.55-2.20C353.85,170.16,354.32,169.84,354.89,169.84z"/>
		<path fill="#143258" d="M358.26,188.21v-3.02c0.21-0.28,0.43-0.56,0.67-0.85c0.75-0.87,1.18-1.37,1.27-1.49
			c1.48-1.87,2.47-3.04,2.97-3.51c1.27-1.25,2.40-1.88,3.4-1.88c0.96,0,1.7,0.8,2.19,2.39
			c0.18,0.73,0.38,1.44,0.60,2.15l3.90-4.55l1.59,1.35l-4.78,5.70l0.24,0.92c0.47,1.59,0.81,2.61,1.01,3.05
			s0.46,0.66,0.80,0.66c0.64,0,1.59-0.54,2.85-1.63c0.92-0.82,1.85-1.65,2.78-2.48v3.02
			c-1.68,1.37-3.03,2.34-4.05,2.91c-1.02,0.56-1.92,0.85-2.70,0.85c-0.73,0-1.31-0.34-1.74-1.03
			c-0.28-0.47-0.76-1.68-1.42-3.63l-3.92,4.64l-1.59-1.35l4.82-5.69c-0.66-2.81-1.20-4.22-1.63-4.22
			c-0.26,0-0.61,0.21-1.06,0.65s-1.03,1.08-1.73,1.93c-0.78,0.97-1.33,1.64-1.66,2.02
			C359.98,186.43,359.04,187.46,358.26,188.21z"/>
	</g>
	<g>
		<path fill="#143258" d="M284.09,183.86l0.20,0.62c0.49-0.63,0.99-1.27,1.49-1.91c1.16-1.35,2.33-2.03,3.48-2.03
			c0.27,0,0.52,0.21,0.73,0.64c0.21,0.43,0.32,0.79,0.32,1.08c0,0.13-0.15,0.20-0.46,0.20
			c-0.92,0-1.86,0.41-2.81,1.23c-0.68,0.60-1.36,1.41-2.03,2.42c0.63,1.49,1.42,2.24,2.37,2.24
			c0.27,0,0.61-0.08,1.00-0.24c0.39-0.16,0.66-0.24,0.8-0.24c0.12,0,0.25,0.25,0.41,0.74
			c0.05,0.15,0.12,0.40,0.20,0.74c0,0.18-0.33,0.40-0.99,0.64c-0.66,0.24-1.26,0.36-1.79,0.36
			c-0.75,0-1.38-0.18-1.88-0.54s-1.03-1.01-1.6-1.96c-1.66,1.66-3.37,2.50-5.10,2.50c-1.10,0-2.02-0.37-2.76-1.11
			c-0.74-0.73-1.10-1.68-1.10-2.83c0-1.56,0.73-2.90,2.19-4.02c1.08-0.82,2.52-1.51,4.33-2.06l-0.07-1.18
			c0-1.91,0.65-3.35,1.96-4.33c0.44-0.34,0.95-0.65,1.52-0.92c0.56-0.27,0.98-0.41,1.23-0.41
			c0.18,0,0.45,0.21,0.78,0.63c0.33,0.42,0.50,0.69,0.50,0.81c-0.06,0.05-0.12,0.08-0.15,0.10
			c-0.15,0.08-0.31,0.14-0.46,0.18c-0.80,0.22-1.48,0.56-2.01,1.00c-0.89,0.74-1.34,1.72-1.34,2.94
			C283.06,180.16,283.40,181.73,284.09,183.86z M281.35,181.82c-3.13,1.22-4.69,2.66-4.69,4.33
			c0,0.68,0.22,1.26,0.65,1.71c0.43,0.45,0.98,0.68,1.63,0.68c1.27,0,2.55-0.75,3.84-2.27
			C282.16,184.77,281.68,183.29,281.35,181.82z"/>
	</g>
</g>
</svg>
