<?xml version="1.0" encoding="utf-8"?>
<!-- Generator: Adobe Illustrator 16.0.0, SVG Export Plug-In . SVG Version: 6.00 Build 0)  -->
<!DOCTYPE svg PUBLIC "-//W3C//DTD SVG 1.1//EN" "http://www.w3.org/Graphics/SVG/1.1/DTD/svg11.dtd">
<svg version="1.1" xmlns="http://www.w3.org/2000/svg" xmlns:xlink="http://www.w3.org/1999/xlink" x="0px" y="0px"
	 width="200px" height="200px" viewBox="133 166 333 266" xml:space="preserve">
<g id="Ebene_2">
	<g>
		<path fill="#143258" d="M223.209,179.966l3.057-0.355l0.391-0.781c0.948-2.152,1.777-3.797,2.488-4.933
			c1.208-1.916,2.547-3.395,4.016-4.436c1.872-1.301,4.004-1.952,6.398-1.952c1.019,0,1.528,0.237,1.528,0.711
			c0,0.237-0.308,1.09-0.924,2.559c-0.213,0.498-0.83,1.919-1.848,4.265c-0.806,1.825-1.256,2.891-1.351,3.199l2.666-0.32
			c0.047,0,0.095,0.024,0.143,0.071c0.023,0.047,0.047,0.083,0.071,0.106l-0.462,1.706c-0.095,0.284-0.249,0.438-0.462,0.462
			l-2.844,0.391l-0.178,0.498c-0.568,1.683-0.99,3.063-1.262,4.141c-0.272,1.079-0.409,1.937-0.409,2.577
			c0,1.137,0.355,1.706,1.066,1.706c0.592,0,1.374-0.272,2.346-0.817c1.303-0.734,2.713-1.872,4.229-3.412v3.021
			c-3.057,2.512-5.746,3.768-8.068,3.768c-0.83,0-1.452-0.338-1.866-1.013c-0.415-0.675-0.622-1.487-0.622-2.435
			c0-0.971,0.118-2.002,0.355-3.092c0.237-1.089,0.687-2.618,1.351-4.585l-5.225,0.675c-0.759,1.559-1.505,3.117-2.239,4.675
			c-0.948,1.795-1.955,3.141-3.021,4.039c-1.375,1.158-3.009,1.736-4.905,1.736c-0.711,0-1.167-0.101-1.368-0.302
			c-0.202-0.201-0.302-0.658-0.302-1.368c0-0.521,0.036-0.859,0.106-1.013c0.071-0.154,0.237-0.231,0.498-0.231
			c0.071,0,0.29,0.024,0.658,0.071c0.367,0.048,0.705,0.071,1.013,0.071c1.351,0,2.5-0.461,3.447-1.384
			c1.09-1.064,2.263-3.063,3.519-5.997l-2.808,0.319c-0.166,0-0.249-0.083-0.249-0.249l0.32-1.242
			c0.094-0.354,0.178-0.58,0.249-0.674C222.782,180.072,222.948,180.013,223.209,179.966z M228.793,179.341l4.94-0.639
			c0.615-1.569,1.1-2.758,1.456-3.567c0.284-0.642,0.734-1.593,1.35-2.854c0.26-0.475,0.461-0.844,0.604-1.105
			c0.142-0.262,0.332-0.606,0.568-1.035c0-0.071-0.036-0.143-0.107-0.214c-0.071-0.071-0.166-0.107-0.284-0.107
			c-0.355,0-0.865,0.167-1.528,0.5c-0.663,0.333-1.279,0.737-1.847,1.212c-0.853,0.642-1.652,1.533-2.398,2.674
			C230.8,175.348,229.882,177.059,228.793,179.341z"/>
		<path fill="#143258" d="M253.847,185.353v3.021c-1.825,1.398-3.4,2.387-4.727,2.968c-1.327,0.581-2.63,0.871-3.91,0.871
			c-1.28,0-2.216-0.521-2.808-1.564c-0.498-0.853-0.746-1.99-0.746-3.412c0-2.464,0.616-5.651,1.848-9.561
			c1.327-4.194,2.749-7.12,4.265-8.779c0.853-0.829,1.706-1.244,2.559-1.244c0.687,0,1.267,0.302,1.742,0.906
			c0.474,0.604,0.711,1.357,0.711,2.257c0,1.351-0.391,2.855-1.173,4.514c-0.664,1.422-1.659,3.045-2.985,4.87
			c-0.948,1.327-2.228,2.95-3.839,4.869l-0.178,2.168c0,1.706,0.557,2.559,1.671,2.559c0.947,0,2.144-0.414,3.59-1.244
			C251.311,187.723,252.638,186.656,253.847,185.353z M245.281,181.585c1.327-1.872,2.239-3.199,2.737-3.981
			c0.853-1.327,1.499-2.494,1.938-3.501c0.438-1.007,0.657-1.937,0.657-2.79c0-0.805-0.213-1.208-0.64-1.208
			c-0.782,0-1.754,1.706-2.915,5.118C246.229,177.688,245.636,179.808,245.281,181.585z"/>
		<path fill="#143258" d="M263.444,185.353v3.021c-0.924,0.924-2.026,1.766-3.306,2.523c-1.517,0.901-2.796,1.351-3.839,1.351
			c-0.876,0-1.457-0.616-1.741-1.848c-0.143-0.616-0.213-1.587-0.213-2.915c0-1.279,0.201-2.749,0.604-4.407
			c0.403-1.658,0.96-3.388,1.671-5.189h2.985l-0.355,1.066c-0.735,2.204-1.256,3.969-1.564,5.296
			c-0.308,1.327-0.462,2.476-0.462,3.448c0,1.137,0.225,1.706,0.675,1.706c0.592,0,1.729-0.711,3.412-2.133
			C262.022,186.656,262.733,186.017,263.444,185.353z M259.96,170.176c1.161,0,1.742,0.333,1.742,0.996
			c0,0.379-0.095,0.859-0.285,1.439c-0.19,0.581-0.409,0.995-0.657,1.244c-0.249,0.249-0.717,0.374-1.404,0.374
			c-0.901,0-1.351-0.296-1.351-0.889c0-0.829,0.184-1.564,0.551-2.204C258.924,170.496,259.392,170.176,259.96,170.176z"/>
	</g>
	<g>
		<path fill="#143258" d="M134.777,275.166l-0.724-0.953l6.127-4.553l3.249-0.007l0.042,18.051l-1.392,0.003l-0.039-16.994
			l-1.238,0.003L134.777,275.166z M135.269,275.81l5.844-4.32l0.037,16.22l-1.393,0.003l-0.032-13.848l-3.784,2.819L135.269,275.81z
			"/>
		<path fill="#143258" d="M153.146,270.559c1.417-0.725,3.479-1.245,5.825-1.25c3.971-0.009,6.864,1.97,6.872,5.09
			c0.005,2.115-1.076,3.51-2.801,4.261c1.857,0.589,3.073,2.082,3.078,4.042c0.007,3.275-2.67,5.267-6.951,5.277
			c-2.14,0.005-4.565-0.402-6.553-1.3l0.436-1.109c1.961,0.794,4,1.203,5.856,1.198c3.868-0.009,5.799-1.535,5.793-4.037
			c-0.005-2.14-1.401-3.606-4.187-4.064c2.5-0.599,3.915-2.046,3.911-4.032c-0.006-2.527-1.918-4.122-5.76-4.113
			c-1.728,0.004-3.506,0.395-5.103,1.146L153.146,270.559z M153.846,272.389c1.571-0.751,3.195-1.09,4.82-1.094
			c2.965-0.007,4.825,1.227,4.83,3.316c0.005,2.501-2.287,3.667-5.923,3.675l-0.181,0l0.001,0.774h0.129
			c4.874-0.011,6.245,1.687,6.25,3.672c0.005,2.141-1.721,3.254-4.867,3.261c-1.856,0.004-3.714-0.378-5.598-1.148l0.436-1.109
			c1.498,0.718,3.303,1.049,4.85,1.045c2.656-0.006,3.764-0.782,3.76-2.226c-0.004-1.65-1.708-2.317-4.957-2.31l-1.418,0.003
			l-0.007-3.146l1.47-0.003c2.965-0.007,4.64-0.655,4.636-2.383c-0.003-1.496-1.294-2.215-3.667-2.209
			c-1.444,0.003-2.991,0.369-4.124,0.99L153.846,272.389z"/>
		<path fill="#143258" d="M175.143,285.853c-0.003-1.418,0.666-2.09,2.058-2.094c1.393-0.003,2.064,0.666,2.068,2.084
			c0.003,1.418-0.666,2.091-2.059,2.094C175.818,287.94,175.146,287.271,175.143,285.853z M177.203,284.688
			c-0.722,0.002-1.133,0.363-1.131,1.163c0.001,0.8,0.415,1.159,1.137,1.157c0.722-0.001,1.134-0.363,1.132-1.163
			C178.338,285.045,177.925,284.686,177.203,284.688z M177.204,285.255c0.361-0.001,0.517,0.205,0.518,0.592
			c0.001,0.412-0.154,0.593-0.515,0.594c-0.361,0.001-0.516-0.205-0.517-0.591C176.689,285.462,176.843,285.256,177.204,285.255z"/>
		<path fill="#143258" d="M198.045,269.528l6.034-0.014c5.854-0.014,9.807,3.278,9.82,9.003c0.013,5.725-3.925,9.035-9.779,9.048
			l-6.034,0.014L198.045,269.528z M204.118,286.379c4.977-0.012,8.375-2.934,8.364-7.858c-0.012-4.926-3.422-7.832-8.399-7.82
			l-4.642,0.01l0.036,15.678L204.118,286.379z M200.371,271.482l3.739-0.009c4.281-0.01,7.433,2.407,7.443,7.049
			c0.01,4.642-3.13,7.072-7.411,7.082l-3.739,0.009L200.371,271.482z M204.14,284.418c3.378-0.007,6.004-1.947,5.996-5.893
			c-0.009-3.946-2.644-5.874-6.022-5.866l-2.347,0.005l0.027,11.759L204.14,284.418z"/>
		<path fill="#143258" d="M233.479,286.311l0.003,1.187l-11.321,0.026l-0.042-18.051l11.089-0.025l0.003,1.187l-9.696,0.022
			l0.036,15.678L233.479,286.311z M232.043,278.63l-7.582,0.018l-0.017-7.22l8.768-0.02l0.003,1.186l-7.375,0.017l0.011,4.848
			l6.189-0.014L232.043,278.63z M233.478,285.538l-9,0.021l-0.014-6.137l7.582-0.018l0.002,1.186l-6.189,0.014l0.009,3.765
			l7.607-0.018L233.478,285.538z"/>
		<path fill="#143258" d="M254.204,286.264l0.003,1.187l-12.997,0.03l-0.005-2.372l7.965-12.552l-7.607,0.018l-0.003-1.186
			l10.109-0.023l-9.122,14.101l0.001,0.825L254.204,286.264z M254.202,285.49l-10.753,0.025l9.122-14.101l-0.001-0.825
			l-11.011,0.025l-0.003-1.187l12.352-0.028l0.005,2.373l-7.965,12.551l8.252-0.019L254.202,285.49z"/>
		<path fill="#143258" d="M274.283,286.217l0.003,1.187l-11.321,0.026l-0.042-18.051l11.089-0.025l0.003,1.187l-9.696,0.022
			l0.036,15.678L274.283,286.217z M272.847,278.536l-7.582,0.018l-0.017-7.22l8.768-0.02l0.003,1.186l-7.375,0.017l0.011,4.848
			l6.189-0.014L272.847,278.536z M274.281,285.444l-9,0.021l-0.014-6.137l7.582-0.018l0.002,1.186l-6.189,0.014l0.009,3.765
			l7.607-0.018L274.281,285.444z"/>
		<path fill="#143258" d="M283.044,287.384l-0.042-18.051l2.785-0.006l7.45,9.937l7.404-9.971l2.785-0.006l0.042,18.051
			l-1.393,0.003l-0.039-16.917l-0.773,0.001l-8.021,10.797l-8.07-10.76l-0.774,0.002l0.039,16.917L283.044,287.384z M285.33,272.138
			l7.786,10.4l0.258,0l7.738-10.436l0.035,15.24l-1.393,0.003l-0.026-11.269l-5.553,7.465l-1.856,0.004l-5.587-7.44l0.026,11.269
			l-1.393,0.003L285.33,272.138z"/>
		<path fill="#143258" d="M312.955,269.264l6.267-0.014c4.074-0.009,6.349,2.203,6.355,5.143c0.003,1.444-0.741,3.07-2.287,3.77
			c1.858,0.563,3.125,2.185,3.13,4.093c0.008,3.274-2.051,5.033-6.822,5.044l-6.602,0.015L312.955,269.264z M314.386,286.177
			l5.441-0.013c3.533-0.008,5.127-1.61,5.122-3.932c-0.005-2.062-1.271-3.375-3.438-3.86c1.623-0.726,2.703-2.043,2.699-3.978
			c-0.006-2.553-1.918-4.019-4.986-4.011l-4.874,0.011L314.386,286.177z M319.371,278.068l-4.075,0.009l-0.016-6.859l3.817-0.009
			c2.939-0.006,4.155,1.229,4.16,3.395C323.261,276.564,321.666,278.063,319.371,278.068z M319.578,278.842
			c3.146-0.007,4.439,1.537,4.443,3.368c0.004,1.96-1.127,3.123-4.119,3.13l-4.59,0.01l-0.015-6.498L319.578,278.842z
			 M319.1,272.344l-2.424,0.006l0.01,4.564l2.424-0.006c2.011-0.004,2.757-0.857,2.754-2.301
			C321.86,273.164,321.111,272.34,319.1,272.344z M316.693,280.009l0.009,4.203l3.198-0.007c1.96-0.004,2.681-0.78,2.678-2.095
			c-0.003-1.314-0.727-2.112-2.687-2.108L316.693,280.009z"/>
		<path fill="#143258" d="M345.863,286.053l0.003,1.187l-11.321,0.026l-0.042-18.051l11.089-0.025l0.003,1.187l-9.696,0.022
			l0.036,15.678L345.863,286.053z M344.427,278.372l-7.582,0.018l-0.017-7.22l8.768-0.02l0.003,1.186l-7.375,0.017l0.011,4.848
			l6.189-0.015L344.427,278.372z M345.861,285.28l-9,0.021l-0.014-6.137l7.582-0.018l0.002,1.186l-6.189,0.015l0.009,3.765
			l7.607-0.018L345.861,285.28z"/>
		<path fill="#143258" d="M356.017,287.216l-1.393,0.003l-0.042-18.051l6.215-0.015c4.436-0.01,7.124,2.769,7.132,6.302
			c0.005,2.424-1.228,4.387-3.34,5.372c1.782,1.104,2.921,3.062,3.185,5.82l0.053,0.542l-1.341,0.003
			c-0.241-3.816-2.283-6.133-4.58-6.797c2.578-0.393,4.611-2.306,4.605-4.937c-0.007-3.068-2.256-5.152-5.866-5.144l-4.667,0.011
			L356.017,287.216z M356.908,271.097l3.817-0.009c2.888-0.007,4.852,1.794,4.858,4.373c0.006,2.527-1.821,4.388-4.838,4.395
			l-3.817,0.009L356.908,271.097z M356.945,287.214l-0.015-6.576l2.605-0.006c2.991-0.007,5.704,2.257,6.049,6.562l-1.367,0.003
			l-0.053-0.49c-0.316-2.964-1.997-4.766-4.524-4.76l-1.315,0.003l0.012,5.261L356.945,287.214z M358.319,278.856l2.424-0.005
			c2.037-0.005,3.427-1.143,3.422-3.309c-0.005-2.167-1.4-3.298-3.437-3.293l-2.424,0.005L358.319,278.856z"/>
		<path fill="#143258" d="M397.62,285.161l-10.186,0.023c1.545-1.035,3.553-2.561,5.534-4.474c2.059-1.965,2.906-3.643,2.9-5.835
			c-0.007-3.12-2.255-4.894-5.788-4.886c-1.805,0.004-3.661,0.447-5.258,1.224l-0.415-1.108c1.545-0.829,3.685-1.323,5.773-1.328
			c4.461-0.01,7.096,2.305,7.105,6.095c0.006,2.682-1.15,4.412-3.672,6.739c-1.029,0.957-2.059,1.681-3.141,2.379l7.143-0.017
			L397.62,285.161z M397.621,285.934l0.003,1.187l-12.919,0.03l-0.005-2.372c1.931-1.294,3.964-3,6.203-5.146
			c1.956-1.887,2.623-3.127,2.619-4.803c-0.004-1.882-1.451-2.859-3.875-2.853c-1.393,0.003-2.965,0.419-4.098,1.067l-0.441-1.108
			c1.442-0.726,3.118-1.168,4.897-1.172c2.991-0.007,4.928,1.355,4.935,4.063c0.005,2.012-0.816,3.741-2.823,5.628
			c-2.084,1.938-4.066,3.464-5.998,4.707l0.001,0.799L397.621,285.934z"/>
		<path fill="#143258" d="M413.845,268.723c5.364-0.013,8.493,4.029,8.505,9.315c0.013,5.286-3.099,9.342-8.462,9.354
			c-5.364,0.012-8.494-4.029-8.505-9.315C405.37,272.791,408.481,268.735,413.845,268.723z M413.847,269.935
			c-4.59,0.01-7.058,3.575-7.047,8.139c0.01,4.564,2.494,8.117,7.084,8.107c4.59-0.011,7.057-3.575,7.047-8.14
			C420.921,273.477,418.437,269.924,413.847,269.935z M413.849,270.708c3.481-0.008,6.144,2.797,6.154,7.335
			c0.01,4.538-2.64,7.355-6.121,7.364c-3.481,0.008-6.144-2.797-6.154-7.335C407.718,273.534,410.368,270.716,413.849,270.708z
			 M413.88,284.195c2.656-0.006,4.714-2.177,4.705-6.147c-0.009-3.972-2.077-6.133-4.733-6.127
			c-2.656,0.006-4.714,2.177-4.705,6.148C409.156,282.04,411.224,284.201,413.88,284.195z"/>
		<path fill="#143258" d="M429.938,274.488l-0.724-0.953l6.127-4.552l3.249-0.008l0.041,18.051l-1.393,0.003l-0.039-16.994
			l-1.238,0.003L429.938,274.488z M430.43,275.132l5.844-4.32l0.037,16.22l-1.393,0.003l-0.031-13.848l-3.784,2.819L430.43,275.132z
			"/>
		<path fill="#143258" d="M458.402,286.981l-1.393,0.003l-0.007-2.991l-8.845,0.02l-0.005-2.372l4.483-12.827l1.316,0.461
			l-4.433,12.698l0.002,0.851l8.871-0.021L458.402,286.981z M458.378,276.279l0.014,5.75l-7.865,0.018l4.277-12.491l1.342,0.436
			l-3.816,10.865l4.667-0.011l-0.011-4.564L458.378,276.279z M462.904,282.02l-3.584,0.008l-0.014-5.75l1.393-0.003l0.011,4.564
			l2.191-0.005L462.904,282.02z M462.906,282.793l0.002,1.187l-2.191,0.005l0.007,2.991l-1.393,0.003l-0.009-4.178L462.906,282.793z
			"/>
	</g>
	<g>
		<path fill="#143258" d="M142.347,224.604c-0.085,0.252-0.126,0.693-0.126,1.322c0,0.42,0.388,0.893,1.165,1.417
			c0.776,0.525,1.784,1.019,3.022,1.48c1.238,0.462,2.654,0.85,4.25,1.165c1.595,0.314,3.211,0.472,4.849,0.472
			c3.148,0,5.457-0.367,6.927-1.102c1.469-0.734,2.204-1.795,2.204-3.18c0-0.755-0.641-1.291-1.92-1.605
			c-1.281-0.315-2.887-0.567-4.817-0.756c-1.932-0.189-4.01-0.398-6.234-0.63c-2.226-0.23-4.304-0.65-6.234-1.259
			c-1.932-0.608-3.537-1.49-4.817-2.645c-1.281-1.154-1.92-2.739-1.92-4.754c0-1.595,0.367-3.043,1.102-4.345
			c0.734-1.301,1.763-2.414,3.085-3.337c1.322-0.923,2.928-1.647,4.817-2.172c1.889-0.524,3.988-0.787,6.297-0.787
			c2.141,0,4.134,0.137,5.982,0.409c1.847,0.273,3.484,0.578,4.912,0.913c1.427,0.336,2.623,0.641,3.589,0.913
			c0.965,0.273,1.658,0.409,2.078,0.409c0.419,0,0.755-0.094,1.007-0.283s0.482-0.409,0.693-0.661l0.692,0.252l-4.345,8.753
			l-0.756-0.378v-0.693c0-0.377-0.409-0.765-1.228-1.165c-0.818-0.398-1.857-0.755-3.117-1.07c-1.26-0.315-2.667-0.577-4.219-0.787
			c-1.554-0.209-3.065-0.315-4.534-0.315c-2.729,0-4.639,0.315-5.73,0.945c-1.092,0.629-1.637,1.302-1.637,2.015
			c0,0.714,0.378,1.25,1.133,1.605c0.756,0.357,1.742,0.62,2.959,0.787c1.217,0.168,2.603,0.305,4.156,0.409
			c1.553,0.105,3.148,0.263,4.786,0.473c1.638,0.21,3.232,0.503,4.786,0.881c1.553,0.378,2.938,0.935,4.156,1.669
			c1.217,0.735,2.204,1.7,2.96,2.896c0.755,1.197,1.133,2.698,1.133,4.502c0,1.385-0.283,2.75-0.85,4.093
			c-0.567,1.344-1.533,2.55-2.896,3.621c-1.365,1.071-3.191,1.921-5.479,2.55c-2.289,0.63-5.132,0.945-8.533,0.945
			c-2.645,0-4.922-0.126-6.833-0.378c-1.911-0.252-3.537-0.556-4.88-0.913c-1.344-0.356-2.404-0.682-3.18-0.976
			c-0.777-0.293-1.354-0.441-1.732-0.441c-0.251,0-0.472,0.085-0.661,0.252c-0.189,0.168-0.389,0.357-0.598,0.567l-0.755-0.189
			l4.66-11.209L142.347,224.604z"/>
		<path fill="#143258" d="M182.333,211.569c0-0.461-0.148-0.755-0.441-0.881c-0.294-0.126-0.609-0.209-0.945-0.252v-0.756h20.214
			c3.148,0,5.657,0.735,7.525,2.204c1.868,1.47,2.802,3.652,2.802,6.549c0,2.267-0.661,4.062-1.983,5.384s-2.991,2.361-5.006,3.117
			l5.604,8.438c0.209,0.336,0.514,0.63,0.913,0.882c0.398,0.251,0.829,0.377,1.291,0.377v0.756h-12.72v-0.756
			c0.293,0,0.619-0.052,0.976-0.157c0.356-0.104,0.535-0.325,0.535-0.661c0-0.209-0.22-0.734-0.661-1.574
			c-0.441-0.839-0.944-1.742-1.511-2.708c-0.567-0.965-1.113-1.889-1.637-2.771c-0.525-0.882-0.85-1.448-0.976-1.7h-6.045v8.438
			c0,0.462,0.158,0.756,0.473,0.882c0.314,0.125,0.702,0.21,1.165,0.251v0.756h-10.831v-0.756c0.252-0.041,0.524-0.126,0.819-0.251
			c0.293-0.126,0.441-0.419,0.441-0.882V211.569z M199.209,221.771c1.343,0,2.403-0.284,3.18-0.85
			c0.776-0.567,1.165-1.417,1.165-2.55c0-0.965-0.326-1.773-0.976-2.425c-0.651-0.65-1.921-0.976-3.81-0.976h-8.501v6.801H199.209z"
			/>
		<path fill="#143258" d="M231.702,210.436c-0.63,0.042-1.124,0.126-1.48,0.252c-0.357,0.126-0.535,0.42-0.535,0.881v23.929
			c0,0.462,0.178,0.756,0.535,0.882c0.356,0.125,0.85,0.21,1.48,0.251v0.756h-12.468v-0.756c0.629-0.041,1.123-0.126,1.479-0.251
			c0.356-0.126,0.535-0.419,0.535-0.882v-23.929c0-0.461-0.179-0.755-0.535-0.881c-0.357-0.126-0.85-0.209-1.479-0.252v-0.756
			h12.468V210.436z"/>
		<path fill="#143258" d="M293.097,229.705c0.335,0,0.587-0.115,0.755-0.346c0.167-0.23,0.293-0.703,0.378-1.417h0.756v10.894
			h-0.756c-0.084-0.672-0.21-1.081-0.378-1.228c-0.168-0.147-0.42-0.22-0.755-0.22h-32.871v-0.756
			c0.797-0.083,1.291-0.22,1.48-0.409s0.283-0.43,0.283-0.724v-29.345c0-0.293-0.094-0.535-0.283-0.724s-0.683-0.325-1.48-0.409
			v-0.755h12.972v0.755c-0.798,0.084-1.291,0.22-1.48,0.409s-0.283,0.431-0.283,0.724v23.551H293.097z"/>
		<path fill="#143258" d="M325.715,236.632c0.126,0,0.293-0.021,0.504-0.063c0.209-0.041,0.315-0.209,0.315-0.503
			c0-0.167-0.074-0.43-0.221-0.787c-0.147-0.356-0.315-0.745-0.504-1.165c-0.188-0.419-0.389-0.839-0.598-1.259
			c-0.21-0.419-0.378-0.776-0.503-1.071h-14.609c-0.085,0.294-0.221,0.651-0.41,1.071c-0.188,0.42-0.388,0.84-0.598,1.259
			c-0.21,0.42-0.399,0.809-0.566,1.165c-0.168,0.357-0.252,0.62-0.252,0.787c0,0.294,0.104,0.462,0.315,0.503
			c0.209,0.042,0.377,0.063,0.503,0.063v0.756h-9.445v-0.756c0.251,0,0.503-0.052,0.755-0.157c0.252-0.104,0.419-0.262,0.504-0.472
			c1.259-2.938,2.54-5.846,3.841-8.722c1.301-2.875,2.466-5.479,3.495-7.808c1.028-2.33,1.878-4.261,2.55-5.793
			c0.671-1.532,1.008-2.403,1.008-2.613c0-0.378-0.273-0.587-0.819-0.63v-0.756h13.161v0.756c-0.546,0.042-0.819,0.252-0.819,0.63
			c0,0.126,0.221,0.683,0.661,1.668c0.441,0.987,1.018,2.226,1.732,3.715c0.713,1.491,1.5,3.139,2.361,4.943
			c0.86,1.806,1.721,3.611,2.582,5.416c0.86,1.806,1.668,3.517,2.424,5.132c0.755,1.616,1.364,2.97,1.826,4.062
			c0.083,0.21,0.252,0.368,0.504,0.472c0.251,0.105,0.503,0.157,0.755,0.157v0.756h-10.453V236.632z M317.277,216.229l-5.164,11.02
			h10.453L317.277,216.229z"/>
		<path fill="#143258" d="M375.588,235.499c0,0.462,0.167,0.756,0.503,0.882c0.335,0.125,0.756,0.21,1.26,0.251v0.756h-11.65v-0.756
			c0.335,0,0.724-0.041,1.165-0.126c0.441-0.083,0.661-0.314,0.661-0.692s-0.462-1.081-1.385-2.109
			c-0.924-1.028-2.109-2.299-3.558-3.81c-1.448-1.511-3.076-3.201-4.88-5.069c-1.806-1.868-3.589-3.851-5.353-5.951L352.226,219
			v16.499c0,0.462,0.157,0.756,0.472,0.882c0.315,0.125,0.703,0.21,1.165,0.251v0.756h-10.768v-0.756
			c0.419-0.041,0.787-0.126,1.102-0.251c0.314-0.126,0.472-0.419,0.472-0.882v-23.929c0-0.461-0.168-0.755-0.504-0.881
			c-0.336-0.126-0.735-0.209-1.196-0.252v-0.756h14.987v0.756c-0.294,0.042-0.588,0.126-0.881,0.252
			c-0.294,0.126-0.441,0.42-0.441,0.881c0,0.085,0.346,0.515,1.039,1.291c0.693,0.777,1.584,1.753,2.676,2.928
			c1.091,1.176,2.308,2.478,3.652,3.904c1.343,1.428,2.686,2.855,4.03,4.282v-12.406c0-0.461-0.168-0.755-0.504-0.881
			c-0.336-0.126-0.755-0.209-1.259-0.252v-0.756h11.083v0.756c-0.504,0.042-0.924,0.126-1.26,0.252
			c-0.336,0.126-0.503,0.42-0.503,0.881V235.499z"/>
		<path fill="#143258" d="M405.058,236.632c0.293,0,0.661-0.063,1.102-0.188c0.441-0.126,0.662-0.419,0.662-0.882
			c0-0.126-0.148-0.43-0.441-0.913c-0.294-0.482-0.661-1.06-1.102-1.731c-0.441-0.671-0.935-1.417-1.48-2.236
			c-0.546-0.818-1.07-1.595-1.574-2.33c-0.504-0.734-0.955-1.396-1.354-1.984c-0.399-0.587-0.683-1.028-0.85-1.322l-5.479,5.29
			v5.164c0,0.462,0.189,0.756,0.567,0.882c0.378,0.125,0.776,0.21,1.196,0.251v0.756h-11.775v-0.756
			c0.378,0.042,0.734-0.021,1.07-0.188c0.336-0.167,0.504-0.482,0.504-0.945v-23.929c0-0.461-0.168-0.776-0.504-0.944
			c-0.336-0.167-0.692-0.23-1.07-0.189v-0.756h11.775v0.756c-0.42,0.042-0.818,0.126-1.196,0.252s-0.567,0.42-0.567,0.881v11.587
			c0.63-0.545,1.375-1.196,2.236-1.952c0.86-0.756,1.763-1.543,2.708-2.361c0.945-0.819,1.878-1.626,2.802-2.424
			c0.923-0.797,1.752-1.543,2.487-2.236c0.734-0.692,1.323-1.269,1.763-1.731c0.441-0.461,0.661-0.756,0.661-0.882
			c0-0.461-0.179-0.755-0.535-0.881c-0.357-0.126-0.704-0.209-1.039-0.252v-0.756h12.279v0.756
			c-0.629,0.084-1.448,0.525-2.456,1.322c-1.008,0.798-2.078,1.711-3.211,2.739c-1.134,1.029-2.257,2.078-3.369,3.149
			c-1.113,1.07-2.068,1.92-2.865,2.55l10.453,15.491c0.209,0.336,0.43,0.567,0.661,0.693c0.23,0.125,0.493,0.21,0.787,0.251v0.756
			h-12.846V236.632z"/>
		<path fill="#143258" d="M448.191,236.632c0.127,0,0.293-0.021,0.504-0.063c0.209-0.041,0.314-0.209,0.314-0.503
			c0-0.167-0.072-0.43-0.219-0.787c-0.148-0.356-0.316-0.745-0.504-1.165c-0.189-0.419-0.389-0.839-0.6-1.259
			c-0.209-0.419-0.377-0.776-0.504-1.071h-14.609c-0.084,0.294-0.219,0.651-0.408,1.071c-0.189,0.42-0.389,0.84-0.598,1.259
			c-0.211,0.42-0.4,0.809-0.568,1.165c-0.168,0.357-0.252,0.62-0.252,0.787c0,0.294,0.105,0.462,0.316,0.503
			c0.209,0.042,0.377,0.063,0.504,0.063v0.756h-9.446v-0.756c0.251,0,0.503-0.052,0.755-0.157c0.252-0.104,0.42-0.262,0.504-0.472
			c1.26-2.938,2.539-5.846,3.842-8.722c1.301-2.875,2.465-5.479,3.494-7.808c1.029-2.33,1.879-4.261,2.551-5.793
			c0.672-1.532,1.008-2.403,1.008-2.613c0-0.378-0.273-0.587-0.818-0.63v-0.756h13.16v0.756c-0.545,0.042-0.818,0.252-0.818,0.63
			c0,0.126,0.221,0.683,0.662,1.668c0.439,0.987,1.018,2.226,1.73,3.715c0.713,1.491,1.5,3.139,2.361,4.943
			c0.861,1.806,1.721,3.611,2.582,5.416c0.859,1.806,1.67,3.517,2.424,5.132c0.756,1.616,1.365,2.97,1.826,4.062
			c0.084,0.21,0.252,0.368,0.504,0.472c0.252,0.105,0.504,0.157,0.756,0.157v0.756h-10.453V236.632z M439.754,216.229l-5.164,11.02
			h10.453L439.754,216.229z"/>
		<path fill="#143258" d="M134.476,248.379v-3.148h327.129v3.148H134.476z"/>
	</g>
	<g>
		<path fill="#143258" d="M196.886,415.962v14.79h-58.922l-5.916-4.142h58.921v-14.789L196.886,415.962z M159.024,361.182
			c-5.442,0-11.832,1.656-17.393,4.378l-6.152-4.26c5.561-2.722,12.187-4.26,17.629-4.26c3.076,0,5.857,0.474,8.105,1.184
			c0.828,1.064,1.301,2.188,1.479,3.194C161.627,361.3,160.326,361.182,159.024,361.182z M195.466,373.132
			c0,12.187-6.389,21.533-17.156,31.709h-10.767c1.539-1.302,3.195-2.604,4.615-3.905c11.003-10.293,17.393-19.641,17.393-31.945
			c0-9.583-3.55-17.333-10.057-22.421c4.082,2.722,4.555,3.136,4.733,3.254C191.562,355.088,195.466,362.956,195.466,373.132z"/>
		<path fill="#143258" d="M264.217,361.182c-11.477,0-20.232,9.465-20.232,26.739c0,7.336,1.539,13.134,4.023,17.63
			c-1.301-0.237-2.484-0.71-3.668-1.302c-3.904-4.496-6.271-11.477-6.271-20.469c0-17.274,8.755-26.74,20.232-26.74
			c2.13,0,4.496,0.355,6.448,1.065c1.065,0.946,2.012,2.13,2.899,3.431C266.465,361.418,265.282,361.182,264.217,361.182z
			 M287.407,350.533c11.181,7.75,17.156,21.415,17.156,37.388c0,24.965-14.908,44.251-40.346,44.251
			c-7.217,0-17.393-3.313-23.664-8.046c3.727,2.366,9.584,4.022,17.748,4.022c25.438,0,40.346-19.403,40.346-44.368
			c0-15.382-5.679-28.692-16.091-36.619L287.407,350.533z"/>
		<path fill="#143258" d="M329.419,375.498l8.282-6.39v8.638l-2.485,1.774L329.419,375.498z M369.765,347.575v83.177h-16.683
			l-5.916-4.142h16.683v-83.177L369.765,347.575z"/>
		<path fill="#143258" d="M454.724,378.338c6.804,4.555,11.595,12.896,11.595,23.308c0,18.694-13.251,30.526-36.441,30.526
			c-7.335,0-16.091-2.012-23.19-4.614l-4.969-3.432c7.217,2.603,14.79,3.904,22.244,3.904c23.189,0,36.441-11.831,36.441-30.525
			c0-9.82-3.905-17.511-10.294-22.243L454.724,378.338z M430.587,389.223c-5.916,0-11.595,1.302-16.091,3.668l-6.389-4.023
			c4.496-2.247,10.53-3.785,16.564-3.785c2.604,0,4.733,0.236,6.744,0.946c0.888,1.064,1.479,2.13,1.894,3.431
			C432.362,389.341,431.534,389.223,430.587,389.223z M460.64,347.575v14.79h-35.495v1.893c-2.012,0-4.022,0.118-5.916,0.414v-6.448
			h35.495v-14.79l-5.561-3.904L460.64,347.575z"/>
	</g>
	<g>
		<path fill="#143258" d="M149.288,322.949l-0.002,3.371c-0.847,0.555-1.547,0.832-2.103,0.831c-1.216,0-2.142-0.675-2.775-2.023
			c-0.874,1.585-2.005,2.9-3.394,3.943c-1.389,1.045-2.824,1.566-4.305,1.565c-1.058-0.001-1.799-0.471-2.22-1.41
			c-0.423-0.938-0.634-2.294-0.632-4.066c0.001-1.903,0.359-4.495,1.075-7.773c0.875-3.967,1.921-7.139,3.14-9.518
			c1.588-3.093,3.335-4.64,5.239-4.639c0.714,0,1.321,0.339,1.824,1.013c0.501,0.675,0.752,1.501,0.751,2.479
			c-0.001,1.903-0.709,4.165-2.125,6.782c-1.416,2.616-3.646,5.775-6.69,9.476l-0.001,2.618c-0.001,1.534,0.302,2.301,0.911,2.302
			c0.688,0,1.594-0.587,2.718-1.765c1.125-1.175,2.005-2.503,2.64-3.984c0.001-2.089,0.214-3.688,0.638-4.8
			c0.424-1.109,1.045-1.664,1.865-1.664c0.899,0.001,1.349,0.477,1.348,1.429c0,0.635-0.186,1.521-0.557,2.657
			c-0.212,0.608-0.543,1.481-0.993,2.617c0.422,1.271,0.964,1.905,1.625,1.905c0.396,0.001,0.74-0.125,1.031-0.376
			C148.587,323.669,148.917,323.345,149.288,322.949z M137.748,318.896c1.614-2.115,2.951-4.203,4.01-6.265
			c1.165-2.273,1.748-4.085,1.749-5.434c0-0.819-0.225-1.229-0.674-1.229c-0.767-0.001-1.626,1.242-2.58,3.727
			C139.166,312.576,138.331,315.644,137.748,318.896z"/>
		<path fill="#143258" d="M159.998,322.955l-0.002,3.371c-1.032,1.031-2.262,1.97-3.69,2.814c-1.693,1.004-3.122,1.506-4.285,1.505
			c-0.979,0-1.626-0.688-1.943-2.064c-0.158-0.687-0.236-1.771-0.236-3.252c0.001-1.429,0.226-3.067,0.678-4.919
			c0.45-1.85,1.073-3.78,1.868-5.79l3.332,0.003l-0.398,1.188c-0.821,2.46-1.404,4.429-1.749,5.909
			c-0.345,1.481-0.517,2.764-0.518,3.848c0,1.27,0.25,1.904,0.752,1.904c0.661,0.001,1.931-0.791,3.81-2.377
			C158.411,324.408,159.204,323.695,159.998,322.955z M156.121,306.016c1.295,0.001,1.943,0.371,1.943,1.111
			c0,0.423-0.106,0.959-0.318,1.606c-0.213,0.648-0.457,1.11-0.735,1.388s-0.8,0.416-1.567,0.415c-1.005,0-1.507-0.331-1.507-0.992
			c0-0.926,0.206-1.744,0.616-2.459C154.963,306.371,155.486,306.015,156.121,306.016z"/>
		<path fill="#143258" d="M159.879,323.192l0.635-0.752c1.137-1.243,2.104-2.393,2.897-3.45c0.899-1.189,1.733-2.445,2.501-3.767
			c-0.212-0.185-0.317-0.383-0.317-0.595c0-0.873,0.206-1.679,0.616-2.42c0.41-0.74,1.012-1.109,1.805-1.109l1.853,0.08
			c0.51,0.107,0.766,0.358,0.765,0.755c0,0.476-0.25,1.07-0.749,1.784c-0.499,0.714-0.964,1.375-1.396,1.982
			c0.819,1.006,1.38,1.845,1.685,2.52c0.303,0.675,0.456,1.396,0.455,2.162c-0.001,1.164-0.207,2.414-0.617,3.748
			c-0.412,1.336-0.987,2.572-1.728,3.708c1.19,0.001,2.856-0.871,5-2.615c0.899-0.739,1.798-1.493,2.698-2.259l-0.002,3.371
			l-0.595,0.477c-1.667,1.215-3.036,2.1-4.107,2.654c-1.071,0.555-2.003,0.832-2.797,0.831c-0.555,0-1.282-0.185-2.181-0.557
			c-0.45,0.265-0.946,0.463-1.488,0.595c-0.542,0.132-1.21,0.197-2.003,0.197c-0.608,0-1.025-0.088-1.25-0.259
			c-0.224-0.172-0.336-0.496-0.336-0.972c0-0.847,0.086-1.481,0.259-1.904c0.171-0.423,0.43-0.635,0.774-0.634
			c0.317,0,0.767,0.054,1.348,0.158c0.582,0.107,1.018,0.16,1.309,0.16c0.476,0.001,1.038-0.858,1.687-2.577
			c0.649-1.718,0.974-3.093,0.975-4.125c0-0.422-0.04-0.833-0.119-1.229s-0.264-0.806-0.554-1.23
			c-1.404,2.09-2.489,3.608-3.256,4.56c-0.9,1.138-2.157,2.473-3.771,4.005L159.879,323.192z"/>
	</g>
	<g>
		<path fill="#143258" d="M199.946,314.403l-2.725-3.583l8.883-6.568h4.703v26.126h-5.375v-20.042L199.946,314.403z"/>
		<path fill="#143258" d="M223.058,314.403l-2.725-3.583l8.883-6.568h4.703v26.126h-5.375v-20.042L223.058,314.403z"/>
		<path fill="#143258" d="M244.004,327.803c0-2.053,0.971-3.023,2.986-3.023c2.016,0,2.986,0.971,2.986,3.023
			s-0.97,3.023-2.986,3.023C244.975,330.826,244.004,329.855,244.004,327.803z"/>
		<path fill="#143258" d="M278.427,304.252h5.375v18.438c0,5.3-3.023,8.137-8.024,8.137c-2.165,0-4.217-0.561-5.822-1.493
			l1.642-4.255c0.933,0.635,2.352,1.119,3.695,1.119c2.015,0,3.135-1.343,3.135-3.694V304.252z"/>
		<path fill="#143258" d="M314.865,326.496h-11.271l-1.493,3.882h-5.599l10.562-26.126h4.329l10.562,26.126h-5.598L314.865,326.496z
			 M305.31,322.018h7.838l-3.919-10.152L305.31,322.018z"/>
		<path fill="#143258" d="M334.66,304.252h3.956l12.429,16.385v-16.385h5.375v26.126h-3.956l-12.429-16.422v16.422h-5.375V304.252z"
			/>
		<path fill="#143258" d="M372.11,319.33v-15.078h5.375v15.414c0,4.591,2.687,6.531,5.599,6.531c2.911,0,5.598-1.94,5.598-6.531
			v-15.414h5.375v15.078c0,7.913-5.001,11.496-10.973,11.496S372.11,327.243,372.11,319.33z"/>
		<path fill="#143258" d="M424.19,326.496h-11.271l-1.493,3.882h-5.599l10.562-26.126h4.33l10.562,26.126h-5.599L424.19,326.496z
			 M414.636,322.018h7.838l-3.919-10.152L414.636,322.018z"/>
		<path fill="#143258" d="M449.36,330.378h-5.375v-26.126h8.995c6.42,0,10.302,4.031,10.302,9.144c0,3.509-1.792,6.346-4.853,7.764
			c2.575,1.604,4.218,4.441,4.591,8.435l0.074,0.784h-5.225l-0.075-0.709c-0.447-4.292-2.873-6.905-6.531-6.905h-1.903V330.378z
			 M449.36,318.285h3.509c2.948,0,4.964-1.643,4.964-4.777s-2.016-4.777-4.964-4.777h-3.509V318.285z"/>
	</g>
	<g>
		<path fill="#143258" d="M309.503,181.932l-0.179-2.137l5.409-2.009c0.163-0.688,0.268-1.241,0.314-1.656
			c0.047-0.416,0.07-0.956,0.07-1.621c0-1.425-0.106-2.458-0.32-3.1c-0.284-0.855-0.758-1.282-1.421-1.282
			c-0.853,0-1.795,0.219-2.826,0.657c-1.031,0.439-1.973,1.001-2.826,1.688c-0.475,0.426-0.924,0.942-1.351,1.546
			c-0.427,0.604-0.83,1.321-1.208,2.15c-0.688,1.517-1.304,2.275-1.848,2.275c-0.213,0-0.409-0.065-0.587-0.195
			c-0.177-0.13-0.266-0.267-0.266-0.409c0-0.332,0.178-0.889,0.533-1.671c0.237-0.616,0.444-1.273,0.622-1.973
			c0.178-0.698,0.296-1.303,0.355-1.812c0.059-0.509,0.125-0.812,0.196-0.906c0.071-0.095,0.254-0.172,0.551-0.231
			c0.296-0.059,0.835-0.314,1.617-0.764c1.398-0.806,2.618-1.434,3.661-1.884c1.849-0.806,3.412-1.208,4.692-1.208
			c1.208,0,2.109,0.793,2.701,2.38c0.427,1.161,0.64,2.475,0.64,3.943c0,0.403-0.012,0.794-0.036,1.173
			c-0.023,0.379-0.095,0.935-0.213,1.669l3.377-1.24l0.211,2.163L317.352,179c-0.569,2.135-1.244,4.021-2.025,5.657
			c-1.042,2.159-2.239,3.831-3.589,5.017c-1.634,1.447-3.482,2.17-5.543,2.17c-1.61,0-2.819-0.415-3.624-1.244
			c-0.308-0.332-0.592-0.734-0.853-1.208c-0.261-0.474-0.391-0.841-0.391-1.102c0-0.213,0.261-0.556,0.781-1.031
			c0.521-0.474,0.912-0.71,1.173-0.71c0.213,0,0.609,0.515,1.19,1.546s1.369,1.546,2.364,1.546c1.374,0,2.724-0.865,4.051-2.597
			c1.231-1.612,2.286-3.877,3.163-6.793L309.503,181.932z"/>
		<path fill="#143258" d="M336.052,185.02v2.985c-3.649,2.63-7.192,3.945-10.627,3.945c-1.256,0-2.21-0.516-2.861-1.546
			c-0.652-1.03-0.978-2.197-0.978-3.501c0-2.582,0.77-4.875,2.311-6.877c1.54-2.002,3.317-3.003,5.331-3.003
			c1.896,0,2.844,0.901,2.844,2.702c0,1.611-0.83,3.021-2.488,4.229c-0.877,0.64-2.298,1.363-4.265,2.168l-0.746,0.32v0.142
			c0,0.806,0.13,1.458,0.391,1.955c0.379,0.735,0.983,1.102,1.813,1.102c1.421,0,2.855-0.361,4.301-1.084
			C332.521,187.834,334.18,186.655,336.052,185.02z M324.927,184.096c1.469-0.545,2.642-1.179,3.519-1.901
			c0.876-0.723,1.315-1.44,1.315-2.15c0-0.521-0.272-0.782-0.817-0.782c-0.782,0-1.576,0.48-2.381,1.439
			C325.756,181.661,325.211,182.793,324.927,184.096z"/>
		<path fill="#143258" d="M348.776,185.02v3.021c-1.825,1.398-3.4,2.387-4.727,2.968c-1.327,0.581-2.63,0.871-3.91,0.871
			c-1.28,0-2.216-0.521-2.808-1.564c-0.498-0.853-0.746-1.99-0.746-3.412c0-2.464,0.616-5.651,1.848-9.561
			c1.327-4.194,2.749-7.12,4.265-8.779c0.853-0.829,1.706-1.244,2.559-1.244c0.687,0,1.267,0.302,1.742,0.906
			c0.474,0.604,0.711,1.357,0.711,2.257c0,1.351-0.391,2.855-1.173,4.514c-0.664,1.422-1.659,3.045-2.985,4.87
			c-0.948,1.327-2.228,2.95-3.839,4.869l-0.178,2.168c0,1.706,0.557,2.559,1.671,2.559c0.947,0,2.144-0.414,3.59-1.244
			C346.241,187.39,347.568,186.323,348.776,185.02z M340.21,181.252c1.327-1.872,2.239-3.199,2.737-3.981
			c0.853-1.327,1.499-2.494,1.938-3.501c0.438-1.007,0.657-1.937,0.657-2.79c0-0.805-0.213-1.208-0.64-1.208
			c-0.782,0-1.754,1.706-2.915,5.118C341.158,177.354,340.566,179.475,340.21,181.252z"/>
		<path fill="#143258" d="M358.373,185.02v3.021c-0.924,0.924-2.026,1.766-3.306,2.523c-1.517,0.901-2.796,1.351-3.839,1.351
			c-0.876,0-1.457-0.616-1.741-1.848c-0.143-0.616-0.213-1.587-0.213-2.915c0-1.279,0.201-2.749,0.604-4.407
			c0.403-1.658,0.96-3.388,1.671-5.189h2.985l-0.355,1.066c-0.735,2.204-1.256,3.969-1.564,5.296
			c-0.308,1.327-0.462,2.476-0.462,3.448c0,1.137,0.225,1.706,0.675,1.706c0.592,0,1.729-0.711,3.412-2.133
			C356.951,186.323,357.662,185.684,358.373,185.02z M354.89,169.843c1.161,0,1.742,0.333,1.742,0.996
			c0,0.379-0.095,0.859-0.285,1.439c-0.19,0.581-0.409,0.995-0.657,1.244c-0.249,0.249-0.717,0.374-1.404,0.374
			c-0.901,0-1.351-0.296-1.351-0.889c0-0.829,0.184-1.564,0.551-2.204C353.853,170.163,354.321,169.843,354.89,169.843z"/>
		<path fill="#143258" d="M358.266,188.219v-3.021c0.212-0.284,0.437-0.568,0.673-0.853c0.755-0.876,1.181-1.374,1.275-1.493
			c1.487-1.872,2.479-3.044,2.976-3.519c1.275-1.256,2.409-1.884,3.4-1.884c0.968,0,1.7,0.8,2.197,2.399
			c0.188,0.73,0.389,1.447,0.602,2.153l3.906-4.553l1.598,1.351l-4.78,5.702l0.249,0.928c0.476,1.595,0.814,2.612,1.017,3.053
			s0.469,0.66,0.802,0.66c0.642,0,1.592-0.544,2.853-1.635c0.927-0.829,1.854-1.658,2.781-2.488v3.021
			c-1.686,1.375-3.039,2.346-4.059,2.915c-1.021,0.568-1.923,0.853-2.706,0.853c-0.736,0-1.318-0.344-1.745-1.034
			c-0.285-0.476-0.76-1.687-1.424-3.637l-3.928,4.641l-1.599-1.355l4.822-5.697c-0.663-2.813-1.207-4.22-1.633-4.22
			c-0.26,0-0.615,0.219-1.065,0.658s-1.03,1.084-1.739,1.937c-0.781,0.972-1.337,1.647-1.668,2.026
			C359.982,186.43,359.047,187.46,358.266,188.219z"/>
	</g>
	<g>
		<path fill="#143258" d="M284.092,183.867l0.206,0.62c0.499-0.636,0.998-1.273,1.497-1.91c1.169-1.359,2.331-2.039,3.483-2.039
			c0.275,0,0.52,0.215,0.735,0.645c0.215,0.43,0.323,0.792,0.323,1.084c0,0.138-0.155,0.207-0.465,0.207
			c-0.929,0-1.867,0.413-2.812,1.238c-0.688,0.603-1.368,1.411-2.039,2.426c0.636,1.497,1.428,2.245,2.374,2.245
			c0.275,0,0.61-0.082,1.006-0.245c0.396-0.164,0.662-0.245,0.8-0.245c0.121,0,0.258,0.25,0.413,0.748
			c0.052,0.155,0.12,0.404,0.207,0.749c0,0.189-0.332,0.404-0.994,0.645c-0.663,0.241-1.26,0.361-1.793,0.361
			c-0.757,0-1.385-0.181-1.884-0.542s-1.032-1.015-1.6-1.961c-1.669,1.668-3.372,2.503-5.109,2.503c-1.101,0-2.021-0.37-2.761-1.11
			c-0.74-0.739-1.109-1.686-1.109-2.838c0-1.565,0.731-2.907,2.193-4.025c1.083-0.826,2.529-1.514,4.335-2.064l-0.077-1.187
			c0-1.91,0.653-3.354,1.961-4.335c0.447-0.344,0.955-0.654,1.522-0.929c0.568-0.275,0.98-0.413,1.239-0.413
			c0.189,0,0.452,0.21,0.787,0.632c0.335,0.422,0.503,0.693,0.503,0.813c-0.069,0.052-0.121,0.086-0.155,0.103
			c-0.155,0.086-0.31,0.146-0.464,0.181c-0.809,0.224-1.48,0.56-2.013,1.006c-0.895,0.74-1.342,1.721-1.342,2.942
			C283.06,180.169,283.404,181.734,284.092,183.867z M281.357,181.829c-3.131,1.222-4.697,2.667-4.697,4.335
			c0,0.688,0.22,1.26,0.658,1.716c0.438,0.456,0.985,0.684,1.639,0.684c1.273,0,2.555-0.757,3.845-2.271
			C282.165,184.779,281.684,183.291,281.357,181.829z"/>
	</g>
</g>
</svg>
