<?xml version="1.0" encoding="utf-8"?>
<!-- Generator: Adobe Illustrator 25.0.1, SVG Export Plug-In . SVG Version: 6.00 Build 0)  -->
<svg version="1.1" id="Typo" xmlns="http://www.w3.org/2000/svg" xmlns:xlink="http://www.w3.org/1999/xlink" x="0px" y="0px"
	 viewBox="0 0 695.7 782.6" style="enable-background:new 0 0 695.7 782.6;" xml:space="preserve">
<style type="text/css">
	.st0{fill:#E2E2E3;}
	.st1{fill:#FFFFFF;}
	.st2{clip-path:url(#SVGID_2_);}
	.st3{fill:#D9D9D9;}
	.st4{fill:none;stroke:#E73446;stroke-width:2;stroke-miterlimit:10;}
	.st5{fill:#20201E;}
	.st6{fill:#181715;}
	.st7{fill:#E73446;}
	.st8{fill:none;stroke:#E73446;stroke-width:2;stroke-miterlimit:10;stroke-dasharray:4,4;}
</style>
<path class="st0" d="M189.4,309c-2,0,0,2.7-4.3,9.7s-7,14.3-5.7,19.3c1.3,5,7,27.7,8.3,38.3c1.3,10.7,4.3,13,6.7,25.7
	c2.3,12.7,1,26,3.7,33.7c2.7,7.7,8.3,22.7,5.7,23.7s-1.7-10-4.7-11s-6,1.3-4,5.7c2,4.3,3.7,7.7,7,18c3.3,10.3,3.3,20.3,5.3,31
	s5.3,32,3.7,33c-1.7,1-5.3-3-6.7-7.7c-1.3-4.7-2.7-10.7-4.7-9.7s2.3,16,6,20.3c3.7,4.3,8.7,13.7,7.3,18c-1.3,4.3-9,10-8,13.3
	c1,3.3,6,19.3,6.3,26.7c0.3,7.3,4.7,17,8,21c3.3,4,7.7,12,9.3,22c1.7,10-2,19,1,20.7s6-0.7,6.7,4c0.7,4.7,6.7,12.7,7.3,20.7
	c0.7,8-0.3,12,2.3,18.3s3.3,10.3,7,15.7c3.7,5.3,27.7,27.7,33,30.3s12.7,2,16,3.3s4,5.3,10,6.3s12.3-1.7,19,1.3
	c6.7,3,22,7.3,26.7,5.3c4.7-2,12.7-6,19.3-6.3c6.7-0.3,14-3.7,17.7-8c3.7-4.3,10.7-5.3,19.3-7c8.7-1.7,13-5,14-6.7s5-4.7,15-6
	s28.3-8.3,33.3-13.3s8.3-1.3,19.7-5s20.7-12.7,30-18c9.3-5.3,12.3-8,16.3-10s8.7-2.3,12.7-3.3s1.7-5.7,4.7-10
	c3-4.3,20.7-14.7,23-20.7c2.3-6,8.7-24,13.3-31c4.7-7,7-17.7,9-25c2-7.3,5-10.7,5.3-16c0.3-5.3,3.7-12.7,2.7-15.3s-0.3-3.3,1.7-9.3
	s3.7-10.3,1-9.3c-2.7,1-3.3,4.7-5.3,4.3s-5-10.3-2.3-13.7c2.7-3.3,8-18.3,6-28.3s-11.3-31-10.3-35s-0.3-2-1.7-4.7
	c-1.3-2.7,1.7-9-0.7-15c-2.3-6-5.7-19-15.7-30s-12-14.3-16.7-17.7c-4.7-3.3-8.7-5.7-13.7-9.7s-6.3-15-6.7-19.7s-7.3-10.3-10.3-16.7
	c-3-6.3-9-27.7-12.7-35c-3.7-7.3-4.3-22-6.3-23.7c-2-1.7-3-2-3.7-4.3c-0.7-2.3,2.7,0.3,1.7-6.3S512,271.7,508,270
	c-4-1.7-5.3-3.7-8.3,0.3s-5.7,7.7-9,5.7c-3.3-2-7.3-5-10.3-4.7s-12.7-0.3-12.3-2s-0.3-5,6.3-4.7c6.7,0.3,14.3-4.7,15-7.3
	s-0.3-14.3-6-19c-5.7-4.7-8.7-11.7-11.7-17.3c-3-5.7-10.3-18.7-15.7-21c-5.3-2.3-11.3-10.3-15-14.7c-3.7-4.3-5.3-7.7-8.3-4.7
	s-8.7,6.7-9,2.3c-0.3-4.3-1.7-8.3-4.3-12.3s-1-8.3,4.3-3.7c5.3,4.7,12.7,8.7,9.3,3.7c-3.3-5-6.7-15.3-11.7-16.3s-13-2.3-12.3-6
	c0.7-3.7,6.3-1,6.3-4.7c0-3.7-2.3-16.7-5.7-18.3c-3.3-1.7-6.7,3.7-9.7,3c-3-0.7-0.7-3-2-6.7c-1.3-3.7-5-9-2.3-7.7
	c2.7,1.3,6,7.3,6.7,4.7s-3-8-9-11s-15.7-3-18-7.7c-2.3-4.7,1.3-8.7-5.3-13.3S343.7,72,336.7,65.3c-7-6.7-22.7-17-27-22.7
	c-4.3-5.7-14-28-18.3-28s-11.3,0-18,1.7c-6.7,1.7-16.3,2.7-19.3,2c-3-0.7-11.7-4.3-15-2.3c-3.3,2-5.7,4.7-10,6.7
	c-4.3,2-7.7,3.7-4.7,5.3c3,1.7,6,5.7,6,7.7s2.3,4,6.3,5s10,3.7,11.7,6.3c1.7,2.7,9,6,11,6.3c2,0.3,10-0.3,13.3,2.3
	c3.3,2.7,7,4.3,5.3,0c-1.7-4.3-4-7.3-0.7-7c3.3,0.3,16,6.3,21.3,9.3c5.3,3,10,3.7,10.7,7.7s2.7,5.3,7.3,5.7c4.7,0.3,2.7,0.7-0.3,4.7
	s-10,7.7-16,7.7s-12.3-1.3-9.3-4s7.3-6.3,2-6s-11.7-2-14-3.7c-2.3-1.7-6.7-3.7-10-5.3c-3.3-1.7-14.7-6-15-3.7c-0.3,2.3,7,5,11.3,8
	c4.3,3,9.7,7,9.7,11s-4,9.3-9,11.3s-16.7,5.7-14.7,10.3c2,4.7,3.3,7.3,7,8c3.7,0.7,4,2.3,4.3,7.3c0.3,5-0.7,21-3.3,27.3
	c-2.7,6.3-6,9.3-7.7,14.3c-1.7,5,0.3,9.7-5,12.3c-5.3,2.7-9.3,7-13.7,11.3c-4.3,4.3-9,6-9.7,1s-6.3-8.3-8-10.3c-1.7-2,1.3-1,5-4
	c3.7-3-2-8.7-12.7-10c-10.7-1.3-18.7-5.3-21.7-3.3s-5,5.7,1.3,7c6.3,1.3,15,1.7,18.3,5.7c3.3,4,4,8,8.7,12
	c4.7,4,12.3,10.3,12.3,14.7c0,4.3-6.3,10.7-3,16.3c3.3,5.7,10.3,12.3,8,16.7c-2.3,4.3-3,5.3-2.3,11.3c0.7,6-0.3,12-4.3,15.7
	s-13.3,9.7-14,17.3c-0.7,7.7-7,23.7-6.7,29.3c0.3,5.7,0.3,9.3-1,11.7c-1.3,2.3-5.3,1.3-5.3,7c0,5.7,3.3,2.3,4.7,11.3
	s-5.3,13.3-3.7,17.7c1.7,4.3,11,10.3,9.3,14.7c-1.7,4.3-13,9.7-15.3,5c-2.3-4.7-5.3-10.3-6-19c-0.7-8.7-0.3-18.3,3-23
	c3.3-4.7,4.3-7,2-12.7C189.7,308.7,189.4,309,189.4,309z"/>
<path class="st1" d="M172.2,68.5c-1.3,1.5,0.3,7.3,2.5,8.5c2.2,1.2,10.2,7,12.5,5.3c2.3-1.7,4.3-1.7,3.2-4.7s-3-2.5-6.3-4.5
	c-3.3-2-2.8-3.3-5.8-4.2C175.2,68.2,172.2,68.5,172.2,68.5z"/>
<path class="st1" d="M195.5,43.2c-1.5,2-1.7,4,0,5.5c1.7,1.5,3.2,2.2,4.5,0c1.3-2.2,2.5-3.7,1-5C199.5,42.3,195.5,43.2,195.5,43.2z"
	/>
<path class="st1" d="M203.4,57.8c-0.5,2.7,0.8,6.7,3.7,7.7c2.8,1,7.2,0.8,8-1.3c0.8-2.2,1-8.7-1-9.3c-2-0.7-2.7,1.2-4.5,0.3
	c-1.8-0.8-0.8-5-2.8-3.5S203.4,57.8,203.4,57.8z"/>
<path class="st1" d="M212.7,40.8c-0.2,3,0.8,8.2,2.5,10.3s4.8,5.5,7,4.5s5.8-1.7,9.2-1.7s4.5-0.2,4.8-2.5c0.3-2.3,1.2-2.8-3.2-4.3
	c-4.3-1.5-8.7-1.3-10.8-3.2c-2.2-1.8-4.7-2.7-3.5-5c1.2-2.3,1.7-4,1.8-7c0.2-3,1.7-5.3-1-5.2c-2.7,0.2-4.2,0.2-5.5,2.7
	c-1.3,2.5-2.8,4.3-1.7,5.7c1.2,1.3,2.7,3.2,1.7,4.3C213,40.7,212.7,40.8,212.7,40.8z"/>
<path class="st1" d="M238.7,53.5c-0.8,2.8-2.8,6.5-1.5,7.2c1.3,0.7,1.2-0.3,4.2-1.7c3-1.3,5.5-2.3,4.5-5.3s0.3-5.5-2.5-3.8
	C240.5,51.5,238.7,53.5,238.7,53.5z"/>
<g>
	<defs>
		<path id="SVGID_1_" d="M189.4,309c-2,0,0,2.7-4.3,9.7s-7,14.3-5.7,19.3c1.3,5,7,27.7,8.3,38.3c1.3,10.7,4.3,13,6.7,25.7
			c2.3,12.7,1,26,3.7,33.7c2.7,7.7,8.3,22.7,5.7,23.7s-1.7-10-4.7-11s-6,1.3-4,5.7c2,4.3,3.7,7.7,7,18c3.3,10.3,3.3,20.3,5.3,31
			s5.3,32,3.7,33c-1.7,1-5.3-3-6.7-7.7c-1.3-4.7-2.7-10.7-4.7-9.7s2.3,16,6,20.3c3.7,4.3,8.7,13.7,7.3,18c-1.3,4.3-9,10-8,13.3
			c1,3.3,6,19.3,6.3,26.7c0.3,7.3,4.7,17,8,21c3.3,4,7.7,12,9.3,22c1.7,10-2,19,1,20.7s6-0.7,6.7,4c0.7,4.7,6.7,12.7,7.3,20.7
			c0.7,8-0.3,12,2.3,18.3s3.3,10.3,7,15.7c3.7,5.3,27.7,27.7,33,30.3s12.7,2,16,3.3s4,5.3,10,6.3s12.3-1.7,19,1.3
			c6.7,3,22,7.3,26.7,5.3c4.7-2,12.7-6,19.3-6.3c6.7-0.3,14-3.7,17.7-8c3.7-4.3,10.7-5.3,19.3-7c8.7-1.7,13-5,14-6.7s5-4.7,15-6
			s28.3-8.3,33.3-13.3s8.3-1.3,19.7-5s20.7-12.7,30-18c9.3-5.3,12.3-8,16.3-10s8.7-2.3,12.7-3.3s1.7-5.7,4.7-10
			c3-4.3,20.7-14.7,23-20.7c2.3-6,8.7-24,13.3-31c4.7-7,7-17.7,9-25c2-7.3,5-10.7,5.3-16c0.3-5.3,3.7-12.7,2.7-15.3
			s-0.3-3.3,1.7-9.3s3.7-10.3,1-9.3c-2.7,1-3.3,4.7-5.3,4.3s-5-10.3-2.3-13.7c2.7-3.3,8-18.3,6-28.3s-11.3-31-10.3-35
			s-0.3-2-1.7-4.7c-1.3-2.7,1.7-9-0.7-15c-2.3-6-5.7-19-15.7-30s-12-14.3-16.7-17.7c-4.7-3.3-8.7-5.7-13.7-9.7s-6.3-15-6.7-19.7
			s-7.3-10.3-10.3-16.7c-3-6.3-9-27.7-12.7-35c-3.7-7.3-4.3-22-6.3-23.7c-2-1.7-3-2-3.7-4.3c-0.7-2.3,2.7,0.3,1.7-6.3
			S512,271.7,508,270c-4-1.7-5.3-3.7-8.3,0.3s-5.7,7.7-9,5.7c-3.3-2-7.3-5-10.3-4.7s-12.7-0.3-12.3-2s-0.3-5,6.3-4.7
			c6.7,0.3,14.3-4.7,15-7.3s-0.3-14.3-6-19c-5.7-4.7-8.7-11.7-11.7-17.3c-3-5.7-10.3-18.7-15.7-21c-5.3-2.3-11.3-10.3-15-14.7
			c-3.7-4.3-5.3-7.7-8.3-4.7s-8.7,6.7-9,2.3c-0.3-4.3-1.7-8.3-4.3-12.3s-1-8.3,4.3-3.7c5.3,4.7,12.7,8.7,9.3,3.7
			c-3.3-5-6.7-15.3-11.7-16.3s-13-2.3-12.3-6c0.7-3.7,6.3-1,6.3-4.7c0-3.7-2.3-16.7-5.7-18.3c-3.3-1.7-6.7,3.7-9.7,3
			c-3-0.7-0.7-3-2-6.7c-1.3-3.7-5-9-2.3-7.7c2.7,1.3,6,7.3,6.7,4.7s-3-8-9-11s-15.7-3-18-7.7c-2.3-4.7,1.3-8.7-5.3-13.3
			S343.7,72,336.7,65.3c-7-6.7-22.7-17-27-22.7c-4.3-5.7-14-28-18.3-28s-11.3,0-18,1.7c-6.7,1.7-16.3,2.7-19.3,2
			c-3-0.7-11.7-4.3-15-2.3c-3.3,2-5.7,4.7-10,6.7c-4.3,2-7.7,3.7-4.7,5.3c3,1.7,6,5.7,6,7.7s2.3,4,6.3,5s10,3.7,11.7,6.3
			c1.7,2.7,9,6,11,6.3c2,0.3,10-0.3,13.3,2.3c3.3,2.7,7,4.3,5.3,0c-1.7-4.3-4-7.3-0.7-7c3.3,0.3,16,6.3,21.3,9.3
			c5.3,3,10,3.7,10.7,7.7s2.7,5.3,7.3,5.7c4.7,0.3,2.7,0.7-0.3,4.7s-10,7.7-16,7.7s-12.3-1.3-9.3-4s7.3-6.3,2-6s-11.7-2-14-3.7
			c-2.3-1.7-6.7-3.7-10-5.3c-3.3-1.7-14.7-6-15-3.7c-0.3,2.3,7,5,11.3,8c4.3,3,9.7,7,9.7,11s-4,9.3-9,11.3s-16.7,5.7-14.7,10.3
			c2,4.7,3.3,7.3,7,8c3.7,0.7,4,2.3,4.3,7.3c0.3,5-0.7,21-3.3,27.3c-2.7,6.3-6,9.3-7.7,14.3c-1.7,5,0.3,9.7-5,12.3
			c-5.3,2.7-9.3,7-13.7,11.3c-4.3,4.3-9,6-9.7,1s-6.3-8.3-8-10.3c-1.7-2,1.3-1,5-4c3.7-3-2-8.7-12.7-10c-10.7-1.3-18.7-5.3-21.7-3.3
			s-5,5.7,1.3,7c6.3,1.3,15,1.7,18.3,5.7c3.3,4,4,8,8.7,12c4.7,4,12.3,10.3,12.3,14.7c0,4.3-6.3,10.7-3,16.3
			c3.3,5.7,10.3,12.3,8,16.7c-2.3,4.3-3,5.3-2.3,11.3c0.7,6-0.3,12-4.3,15.7s-13.3,9.7-14,17.3c-0.7,7.7-7,23.7-6.7,29.3
			c0.3,5.7,0.3,9.3-1,11.7c-1.3,2.3-5.3,1.3-5.3,7c0,5.7,3.3,2.3,4.7,11.3s-5.3,13.3-3.7,17.7c1.7,4.3,11,10.3,9.3,14.7
			c-1.7,4.3-13,9.7-15.3,5c-2.3-4.7-5.3-10.3-6-19c-0.7-8.7-0.3-18.3,3-23c3.3-4.7,4.3-7,2-12.7C189.7,308.7,189.4,309,189.4,309z"
			/>
	</defs>
	<clipPath id="SVGID_2_">
		<use xlink:href="#SVGID_1_"  style="overflow:visible;"/>
	</clipPath>
	<g class="st2">
		<path class="st3" d="M482.5,707.5c-7.4,3-19.5,6.4-11.8,11.1c7.7,4.7,9.4,5.7,18.1,2.4c8.7-3.4,21.5-13.4,13.8-14.4
			c-7.7-1-7.4,1.3-12.1,1.7S482.5,707.5,482.5,707.5z"/>
		<path class="st3" d="M499.5,621.5c-5,5.5-5,7.5-10.5,15.5s0.5,8.5-2,16s-1.5,21,7,22s18-4.5,17,2.5s-9.5,13.5-5,21.5s2,12,16,4
			s41-16,50.5-29s25.5-38.5,18-45s-8-15.5-17.5-7.5s-11.3,9.2-22.3,14.2s-22.7,6-25.7,0.3c-4.9-9.3-8-14-13-14
			S499.5,621.5,499.5,621.5z"/>
		<path class="st3" d="M278.5,238.5C267.5,241,264,249,257,246c-7-3-9.5-6.5-10-1s5,13.5,0.5,17.5s-4,0.5-13,1.5s-7.6,3.1-15.5,3
			c-17.7-0.1-7.5,2.5-7.5,2.5s-10.1,11-14.1,21s-1.4,14.5-2.4,25s6,33,23.5,27.5s23-6,34-16c11-10,18-21,17.5-34s-7-17.5-4-20.5
			s8.5-2,14.5-5.5s13-8.5,10-13.5c-3-5-6-8.5-6-11.5S278.5,238.5,278.5,238.5z"/>
		<path class="st3" d="M441,312c-2,4-4.5,7.5,6.5,7.5s19-4.5,19.5,4.5s-4,12-7.5,23.5s1,24.5-5.5,32.5s-7,12.5-16.5,10.5
			s-6.5-8-14.5-12.5s-18-13.5-15.5,4.5S405,406,404,413s5.5,12,4,18.5s-3,7,4.5,8s11,9,16.5,2s8.5-7.5,7.5-19.5s-9-19.5,1-19
			s15-3.5,17.5-11.5s-2-5.5,5-11s5-25,11.5-31.5s10-13.5,17.5-10s4.5,9,14,9s12-3,10.5-12.5s-4-5-9-10.5s-3-14.5-5.5-17.5
			s0.5,3.5-10-0.5s-15.5-13-17-5s3,15.5-3.5,14s-18-10.5-21.5-7.5S441,312,441,312z"/>
		<path class="st3" d="M462.5,436.5c-8.5,5-12,4-12,13.5s3,14.5,2.5,23.5s4.5,10.5,10.5,6s8-5.5,17.5-12s27.5-14.5,21.5-18
			s-7.5-6.5-3-9s10.5-8,3.5-12.5s-13-15.5-14-8s3,10-4,14s-9,0-15.5,0.5S462.5,436.5,462.5,436.5z"/>
		<path class="st3" d="M401.9,640.7c-7.1,1.3-13.4,1.7-12.4,6c1,4.4,5,1,6,9.7c1,8.7-0.7,17.5,8.4,16.8c9.1-0.7,8.4-0.7,16.5,0
			c8.1,0.7,12.8,1,14.1-5.7c1.3-6.7,1.3-7.4-3.7-14.8c-5-7.4-2.7-12.1-12.8-12.4c-10.1-0.3-9.1-3.4-12.4-2
			C402.3,639.7,401.9,640.7,401.9,640.7z"/>
		<path class="st3" d="M525.2,495.3c1.4,5.8-12.4,4-11.8,11.1c0.7,7.1,5.7,9.7,4,14.1c-1.7,4.4-6.4,2.4-9.7,7.1
			c-3.4,4.7-3,10.7,2.4,17.5s16.5,8.7,23.5,4.7c7.1-4,6.7-15.8,10.7-20.5s-1.7-6,0.3-15.4c2-9.4,0-12.8,6-12.4
			c6,0.3,22.2-3.7,14.8-4.4c-7.4-0.7-13.1,1.7-12.4-2.7c0.7-4.4-2.3-11.8-4.4-6.4c-2,5.4,3.4,8.7-5,9.1c-8.4,0.3-12.8-3-15.8-2.7
			C524.8,494.7,524.8,494,525.2,495.3z"/>
		<path class="st3" d="M415.4,494c-1,6.4,0.3,6,3.7,8.1c3.4,2,7.4,5,1.7,6c-5.7,1-6.4-2.4-11.4-2.4c-5,0-9.4,0-10.4,4
			c-1,4-1.3,5-6,5.4c-4.7,0.3,2,1.7,5.4,6.7c3.4,5,5,5.7,15.1,9.4c10.1,3.7,14.8,10.1,19.1,6.4c4.4-3.7,3.7-5,4-16.1
			c0.3-11.1,1.7-18.1-4.7-24.2c-6.4-6-6-10.1-11.4-8.4C415,490.6,415.4,494,415.4,494z"/>
		<path class="st3" d="M331.4,577.6c-0.7,4-1,4.7-2.7,7.1c-1.7,2.4,2.7,3,3.7,10.7c1,7.7,10.4,9.1,14.8,10.7
			c4.4,1.7,11.8-0.7,18.5,1.7c6.7,2.4,11.4-0.7,15.1,2.4c3.7,3,12.8,5.7,10.4,3c-2.4-2.7-3.4-5-1-4.4c2.4,0.7,2,2,4.4,2
			c2.4,0,0-4,4-2.3c4,1.7,9.4-0.7,5-1.3c-4.4-0.7-8.7-2.7-7.4-4c1.3-1.3,0.7-4.4-3-2.7c-3.7,1.7-0.7,4-7.7,5c-7.1,1-9.4,3-22.2-2.4
			c-12.8-5.4-17.1-1.7-18.1-7.1c-1-5.4-7-5.7-2.7-7.7c4.4-2,6.4-5.4,2.3-6.7c-4-1.3-5-3-8.7-4C332.4,576.6,331.4,577.6,331.4,577.6z
			"/>
		<path class="st3" d="M323.6,664c-4.9,2.7-9.4-0.7-10.8,3.1c-1.3,3.8-0.4,4.9,4.7,7.2c5.2,2.2,14.8,1.6,16.8,5.2
			c2,3.6,0.2,8.3,3.6,6.1c3.4-2.2,9.2-9.7,13.7-9.7c4.5,0,13-1.8,9.9-3.8c-3.1-2-6.3-1.3-14.6-1.3s-8.5,0.9-15-2.5
			C325.4,664.9,323.6,664,323.6,664z"/>
		<path class="st3" d="M282.5,169.1c-4.5,1.2-5.9-0.4-5.5,5.9s5.1,11.6,1.6,13.2c-3.5,1.6-2.7-1-7.5-0.2c-4.9,0.8-4.9,2.4-5.3,7.5
			c-0.4,5.1-0.4,5.7,4.9,8.2c5.3,2.4,6.5,7.5,12.2,4.5c5.7-3.1,12.8-4.9,12.8-11.2c0-6.3,2-16.5,0-22c-2-5.5-1.6-7.9-5.3-8.2
			C286.8,166.7,282.5,169.1,282.5,169.1z"/>
		<path class="st3" d="M457.8,253.7c-6.7,0.6-11.8,1.6-13.9,5.7c-2,4.1-1.2,2.9-5.3,4.9s-6.3,0.8-5.3,6.1c1,5.3-1.2,9,2.6,11.8
			c3.9,2.9,8.4,0.8,12-4.9c3.7-5.7,9-11.6,12.8-14.3s9.8-4.9,8.2-6.5c-1.6-1.6-2.6-2-6.1-2.4"/>
	</g>
</g>
<polyline class="st4" points="366.5,504.2 366.5,400.1 318.9,296.8 212.7,575.5 246.6,689.8 290.9,746.7 314.6,757 393.9,742.5 
	453.8,725.6 540,671.3 "/>
<g>
	<g>
		<path class="st5" d="M150.9,572.6c0-1.7-0.3-2.4-1.4-2.4c-1.2,0-1.4,1.2-1.4,4.4c0,3.5,0.5,4.1,1.5,4.1c0.8,0,1.4-0.4,1.4-2.9h2.3
			c0,2.5-0.6,4.6-3.6,4.6c-3.5,0-3.9-2.5-3.9-5.9c0-3.5,0.4-5.9,3.9-5.9c3.3,0,3.5,2.4,3.5,4.1H150.9z"/>
		<path class="st5" d="M158.3,571.4c2.7,0,3.4,1.5,3.4,4.5c0,2.9-0.9,4.5-3.4,4.5c-2.7,0-3.4-1.5-3.4-4.5
			C154.9,573,155.8,571.4,158.3,571.4z M158.3,578.9c0.9,0,1.2-0.9,1.2-3s-0.3-3-1.2-3c-1.1,0-1.2,1.3-1.2,3
			S157.2,578.9,158.3,578.9z"/>
		<path class="st5" d="M163.6,568.8h2.2v11.4h-2.2V568.8z"/>
		<path class="st5" d="M171.1,571.4c2.7,0,3.4,1.5,3.4,4.5c0,2.9-0.9,4.5-3.4,4.5c-2.7,0-3.4-1.5-3.4-4.5
			C167.7,573,168.6,571.4,171.1,571.4z M171.1,578.9c0.9,0,1.2-0.9,1.2-3s-0.3-3-1.2-3c-1.1,0-1.2,1.3-1.2,3S170,578.9,171.1,578.9z
			"/>
		<path class="st5" d="M176.3,571.6h2.1v0.9h0c0.6-0.8,1.2-1.1,2.2-1.1c1,0,1.7,0.5,2,1.4h0c0.3-0.9,1.1-1.4,2.2-1.4
			c1.5,0,2.1,0.9,2.1,2.6v6.3h-2.2v-6c0-0.7-0.2-1.1-0.9-1.1c-0.7,0-1.2,0.5-1.2,1.5v5.7h-2.2v-6c0-0.7-0.2-1.1-0.9-1.1
			c-0.7,0-1.2,0.5-1.2,1.5v5.7h-2.2V571.6z"/>
		<path class="st5" d="M189.1,568.8h2.2v3.6h0c0.5-0.7,1-1,1.9-1c1.8,0,2.6,1.3,2.6,4.5s-0.8,4.5-2.6,4.5c-0.9,0-1.5-0.3-2-1.1h0
			v0.9h-2.1V568.8z M192.4,578.7c1,0,1.2-1,1.2-2.8s-0.2-2.8-1.2-2.8c-1,0-1.2,1-1.2,2.8S191.5,578.7,192.4,578.7z"/>
		<path class="st5" d="M200.8,571.4c2.7,0,3.4,1.5,3.4,4.5c0,2.9-0.9,4.5-3.4,4.5c-2.7,0-3.4-1.5-3.4-4.5
			C197.4,573,198.3,571.4,200.8,571.4z M200.8,578.9c0.9,0,1.2-0.9,1.2-3s-0.3-3-1.2-3c-1.1,0-1.2,1.3-1.2,3
			S199.7,578.9,200.8,578.9z"/>
	</g>
</g>
<g>
	<g>
		<path class="st5" d="M172.6,698.5V687h2.3v11.4H172.6z"/>
		<path class="st5" d="M177.2,689.8h2.1v1h0c0.5-0.8,1.3-1.2,2.2-1.2c1.4,0,2.2,0.8,2.2,2.4v6.4h-2.2v-5.9c0-0.9-0.3-1.2-0.9-1.2
			c-0.8,0-1.2,0.5-1.2,1.4v5.7h-2.2V689.8z"/>
		<path class="st5" d="M190.3,697.5L190.3,697.5c-0.5,0.8-1.1,1.1-2,1.1c-1.8,0-2.6-1.3-2.6-4.5s0.8-4.5,2.6-4.5
			c0.8,0,1.4,0.3,1.9,1h0V687h2.2v11.4h-2.1V697.5z M189,697c1,0,1.2-1,1.2-2.8s-0.2-2.8-1.2-2.8c-1,0-1.2,1-1.2,2.8
			S188.1,697,189,697z"/>
		<path class="st5" d="M198.9,697.4L198.9,697.4c-0.5,0.8-1.3,1.2-2.2,1.2c-1.4,0-2.2-0.8-2.2-2.4v-6.4h2.2v5.9
			c0,0.9,0.3,1.2,0.9,1.2c0.8,0,1.2-0.5,1.2-1.4v-5.7h2.2v8.6h-2.1V697.4z"/>
		<path class="st5" d="M203.1,689.8h2.1v1.2h0c0.4-0.8,1.1-1.4,2-1.4c0.1,0,0.3,0,0.4,0v2.1c-0.2,0-0.5,0-0.7,0
			c-0.8,0-1.6,0.4-1.6,1.6v5.2h-2.2V689.8z"/>
		<path class="st5" d="M213.5,697.4L213.5,697.4c-0.5,0.8-1.3,1.2-2.2,1.2c-1.4,0-2.2-0.8-2.2-2.4v-6.4h2.2v5.9
			c0,0.9,0.3,1.2,0.9,1.2c0.8,0,1.2-0.5,1.2-1.4v-5.7h2.2v8.6h-2.1V697.4z"/>
		<path class="st5" d="M217.1,689.8h2.2l1,6.1h0l1.1-6.1h2.4l1.1,6.1h0l1-6.1h2.1l-1.9,8.6h-2.5l-1.1-6.1h0l-1.1,6.1H219
			L217.1,689.8z"/>
		<path class="st5" d="M229.6,692.5v-0.2c0-2,1.4-2.7,3-2.7c2.6,0,3.1,1.1,3.1,2.6v4.5c0,0.8,0,1.2,0.3,1.7h-2.1
			c-0.1-0.3-0.2-0.6-0.3-0.9h0c-0.5,0.9-1.1,1.1-2.2,1.1c-1.5,0-2.1-1.3-2.1-2.5c0-1.6,0.7-2.3,2.2-2.7l1.2-0.3
			c0.7-0.2,0.9-0.4,0.9-1c0-0.7-0.3-1.1-1-1.1c-0.7,0-1,0.4-1,1.1v0.2H229.6z M233.7,694.1c-0.3,0.2-0.7,0.4-0.9,0.4
			c-0.9,0.2-1.2,0.6-1.2,1.4c0,0.7,0.2,1.2,0.8,1.2s1.4-0.4,1.4-1.3V694.1z"/>
	</g>
</g>
<g>
	<g>
		<path class="st5" d="M313.4,767.6h2.8l3,11.4h-2.4l-0.5-2.4h-3l-0.5,2.4h-2.4L313.4,767.6z M313.7,774.7h2.2l-1.1-5.1h0
			L313.7,774.7z"/>
		<path class="st5" d="M320.6,767.6h2.2v3.7h0c0.4-0.7,1.2-1.1,2.1-1.1c1.4,0,2.2,0.8,2.2,2.4v6.4H325v-5.9c0-0.9-0.3-1.2-0.9-1.2
			c-0.8,0-1.2,0.5-1.2,1.4v5.7h-2.2V767.6z"/>
		<path class="st5" d="M329.3,773v-0.2c0-2,1.4-2.7,3-2.7c2.6,0,3.1,1.1,3.1,2.6v4.5c0,0.8,0,1.2,0.3,1.7h-2.1
			c-0.1-0.3-0.2-0.6-0.3-0.9h0c-0.5,0.9-1.1,1.1-2.2,1.1c-1.5,0-2.1-1.3-2.1-2.5c0-1.6,0.7-2.3,2.2-2.7l1.2-0.3
			c0.7-0.2,0.9-0.4,0.9-1c0-0.7-0.3-1.1-1-1.1c-0.7,0-1,0.4-1,1.1v0.2H329.3z M333.3,774.7c-0.3,0.2-0.7,0.4-0.9,0.4
			c-0.9,0.2-1.2,0.6-1.2,1.4c0,0.7,0.2,1.2,0.8,1.2s1.4-0.4,1.4-1.3V774.7z"/>
		<path class="st5" d="M337.6,770.4h2.1v1h0c0.5-0.8,1.3-1.2,2.2-1.2c1.4,0,2.2,0.8,2.2,2.4v6.4h-2.2v-5.9c0-0.9-0.3-1.2-0.9-1.2
			c-0.8,0-1.2,0.5-1.2,1.4v5.7h-2.2V770.4z"/>
		<path class="st5" d="M352.7,770.4v8.2c0,2.3-1,3.4-3.6,3.4c-1.9,0-2.9-0.8-2.9-2.3h2.1c0,0.3,0.1,0.5,0.3,0.7
			c0.2,0.1,0.5,0.2,0.7,0.2c0.9,0,1.2-0.7,1.2-1.6v-1.1h0c-0.4,0.6-1.1,1.1-1.8,1.1c-1.8,0-2.6-1.2-2.6-4.4c0-2,0.3-4.4,2.7-4.4
			c0.6,0,1.4,0.3,1.8,1.2h0v-1H352.7z M349.4,777.2c0.9,0,1.2-1,1.2-2.5c0-2.1-0.3-2.9-1.2-2.9c-1,0-1.2,0.8-1.2,3.1
			C348.3,776.2,348.5,777.2,349.4,777.2z"/>
		<path class="st5" d="M354.9,773v-0.2c0-2,1.4-2.7,3-2.7c2.6,0,3.1,1.1,3.1,2.6v4.5c0,0.8,0,1.2,0.3,1.7h-2.1
			c-0.1-0.3-0.2-0.6-0.3-0.9h0c-0.5,0.9-1.1,1.1-2.2,1.1c-1.5,0-2.1-1.3-2.1-2.5c0-1.6,0.7-2.3,2.2-2.7l1.2-0.3
			c0.7-0.2,0.9-0.4,0.9-1c0-0.7-0.3-1.1-1-1.1c-0.7,0-1,0.4-1,1.1v0.2H354.9z M358.9,774.7c-0.3,0.2-0.7,0.4-0.9,0.4
			c-0.9,0.2-1.2,0.6-1.2,1.4c0,0.7,0.2,1.2,0.8,1.2c0.6,0,1.4-0.4,1.4-1.3V774.7z"/>
		<path class="st5" d="M363.2,770.4h2.1v0.9h0c0.6-0.8,1.2-1.1,2.2-1.1c1,0,1.7,0.5,2,1.4h0c0.3-0.9,1.1-1.4,2.2-1.4
			c1.5,0,2.1,0.9,2.1,2.6v6.3h-2.2v-6c0-0.7-0.2-1.1-0.9-1.1c-0.7,0-1.2,0.5-1.2,1.5v5.7h-2.2v-6c0-0.7-0.2-1.1-0.9-1.1
			c-0.7,0-1.2,0.5-1.2,1.5v5.7h-2.2V770.4z"/>
		<path class="st5" d="M376,773v-0.2c0-2,1.4-2.7,3-2.7c2.6,0,3.1,1.1,3.1,2.6v4.5c0,0.8,0,1.2,0.3,1.7h-2.1
			c-0.1-0.3-0.2-0.6-0.3-0.9h0c-0.5,0.9-1.1,1.1-2.2,1.1c-1.5,0-2.1-1.3-2.1-2.5c0-1.6,0.7-2.3,2.2-2.7l1.2-0.3
			c0.7-0.2,0.9-0.4,0.9-1c0-0.7-0.3-1.1-1-1.1c-0.7,0-1,0.4-1,1.1v0.2H376z M380,774.7c-0.3,0.2-0.7,0.4-0.9,0.4
			c-0.9,0.2-1.2,0.6-1.2,1.4c0,0.7,0.2,1.2,0.8,1.2c0.6,0,1.4-0.4,1.4-1.3V774.7z"/>
	</g>
</g>
<g>
	<g>
		<path class="st5" d="M251.8,750.4c0-0.8-0.4-1.9-1.3-1.9c-1.1,0-1.6,1.2-1.6,4c0,2.8,0.3,4.5,1.6,4.5c0.5,0,1.4-0.6,1.4-1.8v-1.2
			h-1.5v-1.7h3.7v6.2h-1.7v-1.1h0c-0.5,0.9-1.3,1.3-2.4,1.3c-2.8,0-3.4-2.1-3.4-6.1c0-3.8,0.9-5.8,3.8-5.8c2.5,0,3.6,1.3,3.6,3.6
			H251.8z"/>
		<path class="st5" d="M256.2,752.4v-0.2c0-2,1.4-2.7,3-2.7c2.6,0,3.1,1.1,3.1,2.6v4.5c0,0.8,0,1.2,0.3,1.7h-2.1
			c-0.1-0.3-0.2-0.6-0.3-0.9h0c-0.5,0.9-1.1,1.1-2.2,1.1c-1.5,0-2.1-1.3-2.1-2.5c0-1.6,0.7-2.3,2.2-2.7l1.2-0.3
			c0.7-0.2,0.9-0.4,0.9-1c0-0.7-0.3-1.1-1-1.1c-0.7,0-1,0.4-1,1.1v0.2H256.2z M260.2,754.1c-0.3,0.2-0.7,0.4-0.9,0.4
			c-0.9,0.2-1.2,0.6-1.2,1.4c0,0.7,0.2,1.2,0.8,1.2s1.4-0.4,1.4-1.3V754.1z"/>
		<path class="st5" d="M264.6,747h2.2v11.4h-2.2V747z"/>
		<path class="st5" d="M269.1,747h2.2v11.4h-2.2V747z"/>
		<path class="st5" d="M275.4,754.4v0.7c0,1,0.3,2,1.1,2c0.7,0,1-0.6,1.2-1.6h2c-0.1,2-1,3.1-3.1,3.1c-3.2,0-3.3-2.5-3.3-4.6
			c0-2.3,0.4-4.5,3.4-4.5c2.6,0,3.2,1.7,3.2,4.4v0.5H275.4z M277.7,753.1c0-1.3-0.2-2-1.1-2c-0.9,0-1.1,0.9-1.1,1.7v0.3H277.7z"/>
	</g>
</g>
<g>
	<g>
		<path class="st5" d="M407.7,749.1v1.9h-2.5v9.5h-2.3V751h-2.5v-1.9H407.7z"/>
		<path class="st5" d="M409.3,754.6v-0.2c0-2,1.4-2.7,3-2.7c2.6,0,3.1,1.1,3.1,2.6v4.5c0,0.8,0,1.2,0.3,1.7h-2.1
			c-0.1-0.3-0.2-0.6-0.3-0.9h0c-0.5,0.9-1.1,1.1-2.2,1.1c-1.5,0-2.1-1.3-2.1-2.5c0-1.6,0.7-2.3,2.2-2.7l1.2-0.3
			c0.7-0.2,0.9-0.4,0.9-1c0-0.7-0.3-1.1-1-1.1c-0.7,0-1,0.4-1,1.1v0.2H409.3z M413.3,756.2c-0.3,0.2-0.7,0.4-0.9,0.4
			c-0.9,0.2-1.2,0.6-1.2,1.4c0,0.7,0.2,1.2,0.8,1.2c0.6,0,1.4-0.4,1.4-1.3V756.2z"/>
		<path class="st5" d="M417.6,751.9h2.1v1h0c0.5-0.8,1.3-1.2,2.2-1.2c1.4,0,2.2,0.8,2.2,2.4v6.4H422v-5.9c0-0.9-0.3-1.2-0.9-1.2
			c-0.8,0-1.2,0.5-1.2,1.4v5.7h-2.2V751.9z"/>
		<path class="st5" d="M432.7,751.9v8.2c0,2.3-1,3.4-3.6,3.4c-1.9,0-2.9-0.8-2.9-2.3h2.1c0,0.3,0.1,0.5,0.3,0.7
			c0.2,0.1,0.5,0.2,0.7,0.2c0.9,0,1.2-0.7,1.2-1.6v-1.1h0c-0.4,0.6-1.1,1.1-1.8,1.1c-1.8,0-2.6-1.2-2.6-4.4c0-2,0.3-4.4,2.7-4.4
			c0.6,0,1.4,0.3,1.8,1.2h0v-1H432.7z M429.4,758.7c0.9,0,1.2-1,1.2-2.5c0-2.1-0.3-2.9-1.2-2.9c-1,0-1.2,0.8-1.2,3.1
			C428.3,757.7,428.5,758.7,429.4,758.7z"/>
		<path class="st5" d="M434.9,754.6v-0.2c0-2,1.4-2.7,3-2.7c2.6,0,3.1,1.1,3.1,2.6v4.5c0,0.8,0,1.2,0.3,1.7h-2.1
			c-0.1-0.3-0.2-0.6-0.3-0.9h0c-0.5,0.9-1.1,1.1-2.2,1.1c-1.5,0-2.1-1.3-2.1-2.5c0-1.6,0.7-2.3,2.2-2.7l1.2-0.3
			c0.7-0.2,0.9-0.4,0.9-1c0-0.7-0.3-1.1-1-1.1c-0.7,0-1,0.4-1,1.1v0.2H434.9z M438.9,756.2c-0.3,0.2-0.7,0.4-0.9,0.4
			c-0.9,0.2-1.2,0.6-1.2,1.4c0,0.7,0.2,1.2,0.8,1.2s1.4-0.4,1.4-1.3V756.2z"/>
		<path class="st5" d="M443.3,749.1h2.2v11.4h-2.2V749.1z"/>
		<path class="st5" d="M447.8,749.1h2.2v11.4h-2.2V749.1z"/>
		<path class="st5" d="M454.1,756.6v0.7c0,1,0.3,2,1.1,2c0.7,0,1-0.6,1.2-1.6h2c-0.1,2-1,3.1-3.1,3.1c-3.2,0-3.3-2.5-3.3-4.6
			c0-2.3,0.4-4.5,3.4-4.5c2.6,0,3.2,1.7,3.2,4.4v0.5H454.1z M456.4,755.3c0-1.3-0.2-2-1.1-2c-0.9,0-1.1,0.9-1.1,1.7v0.3H456.4z"/>
	</g>
</g>
<g>
	<g>
		<path class="st5" d="M454.1,731.1h2.3v4.4h2.7v-4.4h2.3v11.4H459v-5.1h-2.7v5.1h-2.3V731.1z"/>
		<path class="st5" d="M463.5,736.6v-0.2c0-2,1.4-2.7,3-2.7c2.6,0,3.1,1.1,3.1,2.6v4.5c0,0.8,0,1.2,0.3,1.7h-2.1
			c-0.1-0.3-0.2-0.6-0.3-0.9h0c-0.5,0.9-1.1,1.1-2.2,1.1c-1.5,0-2.1-1.3-2.1-2.5c0-1.6,0.7-2.3,2.2-2.7l1.2-0.3
			c0.7-0.2,0.9-0.4,0.9-1c0-0.7-0.3-1.1-1-1.1c-0.7,0-1,0.4-1,1.1v0.2H463.5z M467.5,738.2c-0.3,0.2-0.7,0.4-0.9,0.4
			c-0.9,0.2-1.2,0.6-1.2,1.4c0,0.7,0.2,1.2,0.8,1.2s1.4-0.4,1.4-1.3V738.2z"/>
		<path class="st5" d="M471.9,733.9h2.1v0.9h0c0.6-0.8,1.2-1.1,2.2-1.1c1,0,1.7,0.5,2,1.4h0c0.3-0.9,1.1-1.4,2.2-1.4
			c1.5,0,2.1,0.9,2.1,2.6v6.3h-2.2v-6c0-0.7-0.2-1.1-0.9-1.1c-0.7,0-1.2,0.5-1.2,1.5v5.7h-2.2v-6c0-0.7-0.2-1.1-0.9-1.1
			c-0.7,0-1.2,0.5-1.2,1.5v5.7h-2.2V733.9z"/>
		<path class="st5" d="M484.6,731.1h2.2v3.6h0c0.5-0.7,1-1,1.9-1c1.8,0,2.6,1.3,2.6,4.5s-0.8,4.5-2.6,4.5c-0.9,0-1.5-0.3-2-1.1h0
			v0.9h-2.1V731.1z M488,741.1c1,0,1.2-1,1.2-2.8s-0.2-2.8-1.2-2.8c-1,0-1.2,1-1.2,2.8S487,741.1,488,741.1z"/>
		<path class="st5" d="M493.3,736.6v-0.2c0-2,1.4-2.7,3-2.7c2.6,0,3.1,1.1,3.1,2.6v4.5c0,0.8,0,1.2,0.3,1.7h-2.1
			c-0.1-0.3-0.2-0.6-0.3-0.9h0c-0.5,0.9-1.1,1.1-2.2,1.1c-1.5,0-2.1-1.3-2.1-2.5c0-1.6,0.7-2.3,2.2-2.7l1.2-0.3
			c0.7-0.2,0.9-0.4,0.9-1c0-0.7-0.3-1.1-1-1.1c-0.7,0-1,0.4-1,1.1v0.2H493.3z M497.3,738.2c-0.3,0.2-0.7,0.4-0.9,0.4
			c-0.9,0.2-1.2,0.6-1.2,1.4c0,0.7,0.2,1.2,0.8,1.2c0.6,0,1.4-0.4,1.4-1.3V738.2z"/>
		<path class="st5" d="M501.6,733.9h2.1v1h0c0.5-0.8,1.3-1.2,2.2-1.2c1.4,0,2.2,0.8,2.2,2.4v6.4h-2.2v-5.9c0-0.9-0.3-1.2-0.9-1.2
			c-0.8,0-1.2,0.5-1.2,1.4v5.7h-2.2V733.9z"/>
		<path class="st5" d="M510.7,731.5h2.2v2.5h1.3v1.5h-1.3v4.7c0,0.7,0.1,0.9,0.8,0.9c0.2,0,0.4,0,0.5,0v1.5c-0.5,0-0.9,0.1-1.4,0.1
			c-1.7,0-2-0.5-2-2.3v-4.9h-1.1v-1.5h1.1V731.5z"/>
		<path class="st5" d="M518.7,733.7c2.7,0,3.4,1.5,3.4,4.5c0,2.9-0.9,4.5-3.4,4.5c-2.7,0-3.4-1.5-3.4-4.5
			C515.3,735.3,516.2,733.7,518.7,733.7z M518.7,741.3c0.9,0,1.2-0.9,1.2-3s-0.3-3-1.2-3c-1.1,0-1.2,1.3-1.2,3
			S517.6,741.3,518.7,741.3z"/>
		<path class="st5" d="M524.4,731.5h2.2v2.5h1.3v1.5h-1.3v4.7c0,0.7,0.1,0.9,0.8,0.9c0.2,0,0.4,0,0.5,0v1.5c-0.5,0-0.9,0.1-1.4,0.1
			c-1.7,0-2-0.5-2-2.3v-4.9h-1.1v-1.5h1.1V731.5z"/>
		<path class="st5" d="M529.3,736.6v-0.2c0-2,1.4-2.7,3-2.7c2.6,0,3.1,1.1,3.1,2.6v4.5c0,0.8,0,1.2,0.3,1.7h-2.1
			c-0.1-0.3-0.2-0.6-0.3-0.9h0c-0.5,0.9-1.1,1.1-2.2,1.1c-1.5,0-2.1-1.3-2.1-2.5c0-1.6,0.7-2.3,2.2-2.7l1.2-0.3
			c0.7-0.2,0.9-0.4,0.9-1c0-0.7-0.3-1.1-1-1.1c-0.7,0-1,0.4-1,1.1v0.2H529.3z M533.3,738.2c-0.3,0.2-0.7,0.4-0.9,0.4
			c-0.9,0.2-1.2,0.6-1.2,1.4c0,0.7,0.2,1.2,0.8,1.2s1.4-0.4,1.4-1.3V738.2z"/>
	</g>
</g>
<g>
	<g>
		<path class="st5" d="M370.7,508.8v4.6h0l2.9-4.6h2.5l-3.1,4.9l3.5,6.5h-2.6l-2.4-4.7l-0.8,1.3v3.4h-2.3v-11.4H370.7z"/>
		<path class="st5" d="M377.5,514.2V514c0-2,1.4-2.7,3-2.7c2.6,0,3.1,1.1,3.1,2.6v4.5c0,0.8,0,1.2,0.3,1.7h-2.1
			c-0.1-0.3-0.2-0.6-0.3-0.9h0c-0.5,0.9-1.1,1.1-2.2,1.1c-1.5,0-2.1-1.3-2.1-2.5c0-1.6,0.7-2.3,2.2-2.7l1.2-0.3
			c0.7-0.2,0.9-0.4,0.9-1c0-0.7-0.3-1.1-1-1.1c-0.7,0-1,0.4-1,1.1v0.2H377.5z M381.6,515.9c-0.3,0.2-0.7,0.4-0.9,0.4
			c-0.9,0.2-1.2,0.6-1.2,1.4c0,0.7,0.2,1.2,0.8,1.2c0.6,0,1.4-0.4,1.4-1.3V515.9z"/>
		<path class="st5" d="M385.9,511.6h2.1v1h0c0.5-0.8,1.3-1.2,2.2-1.2c1.4,0,2.2,0.8,2.2,2.4v6.4h-2.2v-5.9c0-0.9-0.3-1.2-0.9-1.2
			c-0.8,0-1.2,0.5-1.2,1.4v5.7h-2.2V511.6z"/>
		<path class="st5" d="M399,519.3L399,519.3c-0.5,0.8-1.1,1.1-2,1.1c-1.8,0-2.6-1.3-2.6-4.5s0.8-4.5,2.6-4.5c0.8,0,1.4,0.3,1.9,1h0
			v-3.6h2.2v11.4H399V519.3z M397.7,518.7c1,0,1.2-1,1.2-2.8s-0.2-2.8-1.2-2.8c-1,0-1.2,1-1.2,2.8S396.7,518.7,397.7,518.7z"/>
		<path class="st5" d="M403.2,521.4c0.2,0,0.4,0,0.6,0c0.8,0,1.1-0.4,1.2-1.2l-2.4-8.6h2.3l1.3,6h0l1.1-6h2.2l-2.1,8
			c-0.8,3-1.3,3.4-3.3,3.4h-0.9V521.4z"/>
	</g>
</g>
<g>
	<path class="st5" d="M307.1,565.4h2.3v4.4h2.7v-4.4h2.3v11.4h-2.3v-5.1h-2.7v5.1h-2.3V565.4z"/>
	<path class="st5" d="M319.7,568c2.7,0,3.4,1.5,3.4,4.5c0,2.9-0.9,4.5-3.4,4.5c-2.7,0-3.4-1.5-3.4-4.5
		C316.3,569.5,317.2,568,319.7,568z M319.7,575.5c0.9,0,1.2-0.9,1.2-3s-0.3-3-1.2-3c-1.1,0-1.2,1.3-1.2,3S318.6,575.5,319.7,575.5z"
		/>
	<path class="st5" d="M324.9,568.2h2.1v1.2h0c0.4-0.8,1.1-1.4,2-1.4c0.1,0,0.3,0,0.4,0v2.1c-0.2,0-0.5,0-0.7,0
		c-0.8,0-1.6,0.4-1.6,1.6v5.2h-2.2V568.2z"/>
	<path class="st5" d="M331.4,565.7h2.2v2.5h1.3v1.5h-1.3v4.7c0,0.7,0.1,0.9,0.8,0.9c0.2,0,0.4,0,0.5,0v1.5c-0.5,0-0.9,0.1-1.4,0.1
		c-1.7,0-2-0.5-2-2.3v-4.9h-1.1v-1.5h1.1V565.7z"/>
	<path class="st5" d="M339.4,568c2.7,0,3.4,1.5,3.4,4.5c0,2.9-0.9,4.5-3.4,4.5c-2.7,0-3.4-1.5-3.4-4.5
		C336,569.5,336.8,568,339.4,568z M339.4,575.5c0.9,0,1.2-0.9,1.2-3s-0.3-3-1.2-3c-1.1,0-1.2,1.3-1.2,3S338.3,575.5,339.4,575.5z"/>
	<path class="st5" d="M344.6,568.2h2.1v1h0c0.5-0.8,1.3-1.2,2.2-1.2c1.4,0,2.2,0.8,2.2,2.4v6.4h-2.2v-5.9c0-0.9-0.3-1.2-0.9-1.2
		c-0.8,0-1.2,0.5-1.2,1.4v5.7h-2.2V568.2z"/>
	<path class="st5" d="M357.8,565.4h4c2.3,0,3.1,1.7,3.1,3.4c0,2.4-1.5,3.4-3.6,3.4h-1.2v4.6h-2.3V565.4z M360.1,570.5h1
		c0.9,0,1.5-0.5,1.5-1.7c0-1.1-0.4-1.8-1.6-1.8h-1V570.5z"/>
	<path class="st5" d="M366.7,565.4h2.2v11.4h-2.2V565.4z"/>
	<path class="st5" d="M371.1,570.8v-0.2c0-2,1.4-2.7,3-2.7c2.6,0,3.1,1.1,3.1,2.6v4.5c0,0.8,0,1.2,0.3,1.7h-2.1
		c-0.1-0.3-0.2-0.6-0.3-0.9h0c-0.5,0.9-1.1,1.1-2.2,1.1c-1.5,0-2.1-1.3-2.1-2.5c0-1.6,0.7-2.3,2.2-2.7l1.2-0.3
		c0.7-0.2,0.9-0.4,0.9-1c0-0.7-0.3-1.1-1-1.1c-0.7,0-1,0.4-1,1.1v0.2H371.1z M375.2,572.5c-0.3,0.2-0.7,0.4-0.9,0.4
		c-0.9,0.2-1.2,0.6-1.2,1.4c0,0.7,0.2,1.2,0.8,1.2c0.6,0,1.4-0.4,1.4-1.3V572.5z"/>
	<path class="st5" d="M379.5,565.2h2.2v1.9h-2.2V565.2z M379.5,568.2h2.2v8.6h-2.2V568.2z"/>
	<path class="st5" d="M383.9,568.2h2.1v1h0c0.5-0.8,1.3-1.2,2.2-1.2c1.4,0,2.2,0.8,2.2,2.4v6.4h-2.2v-5.9c0-0.9-0.3-1.2-0.9-1.2
		c-0.8,0-1.2,0.5-1.2,1.4v5.7h-2.2V568.2z"/>
	<path class="st5" d="M394.2,574v0.3c0,0.8,0.4,1.2,1.2,1.2c0.7,0,1.1-0.3,1.1-1c0-0.6-0.4-0.8-0.8-1l-1.6-0.6
		c-1.2-0.4-1.8-1.2-1.8-2.4c0-1.4,0.9-2.6,3.2-2.6c2,0,2.9,0.9,2.9,2.4v0.4h-2c0-0.9-0.3-1.3-1-1.3c-0.6,0-1,0.3-1,0.9
		c0,0.4,0.2,0.8,1,1l1.3,0.4c1.4,0.5,1.9,1.2,1.9,2.5c0,1.8-1.3,2.7-3.2,2.7c-2.5,0-3.2-1.1-3.2-2.7V574H394.2z"/>
	<path class="st5" d="M309.3,581.4l2.8,7.8h0v-7.8h2.1v11.4h-2.6l-2.8-8h0v8h-2.1v-11.4H309.3z"/>
	<path class="st5" d="M316.4,586.8v-0.2c0-2,1.4-2.7,3-2.7c2.6,0,3.1,1.1,3.1,2.6v4.5c0,0.8,0,1.2,0.3,1.7h-2.1
		c-0.1-0.3-0.2-0.6-0.3-0.9h0c-0.5,0.9-1.1,1.1-2.2,1.1c-1.5,0-2.1-1.3-2.1-2.5c0-1.6,0.7-2.3,2.2-2.7l1.2-0.3
		c0.7-0.2,0.9-0.4,0.9-1c0-0.7-0.3-1.1-1-1.1c-0.7,0-1,0.4-1,1.1v0.2H316.4z M320.5,588.5c-0.3,0.2-0.7,0.4-0.9,0.4
		c-0.9,0.2-1.2,0.6-1.2,1.4c0,0.7,0.2,1.2,0.8,1.2s1.4-0.4,1.4-1.3V588.5z"/>
	<path class="st5" d="M325.3,581.7h2.2v2.5h1.3v1.5h-1.3v4.7c0,0.7,0.1,0.9,0.8,0.9c0.2,0,0.4,0,0.5,0v1.5c-0.5,0-0.9,0.1-1.4,0.1
		c-1.7,0-2-0.5-2-2.3v-4.9h-1.1v-1.5h1.1V581.7z"/>
	<path class="st5" d="M330.2,581.2h2.2v1.9h-2.2V581.2z M330.2,584.2h2.2v8.6h-2.2V584.2z"/>
	<path class="st5" d="M337.7,584c2.7,0,3.4,1.5,3.4,4.5c0,2.9-0.9,4.5-3.4,4.5c-2.7,0-3.4-1.5-3.4-4.5
		C334.3,585.5,335.2,584,337.7,584z M337.7,591.5c0.9,0,1.2-0.9,1.2-3s-0.3-3-1.2-3c-1.1,0-1.2,1.3-1.2,3S336.7,591.5,337.7,591.5z"
		/>
	<path class="st5" d="M343,584.2h2.1v1h0c0.5-0.8,1.3-1.2,2.2-1.2c1.4,0,2.2,0.8,2.2,2.4v6.4h-2.2v-5.9c0-0.9-0.3-1.2-0.9-1.2
		c-0.8,0-1.2,0.5-1.2,1.4v5.7H343V584.2z"/>
	<path class="st5" d="M351.6,586.8v-0.2c0-2,1.4-2.7,3-2.7c2.6,0,3.1,1.1,3.1,2.6v4.5c0,0.8,0,1.2,0.3,1.7h-2.1
		c-0.1-0.3-0.2-0.6-0.3-0.9h0c-0.5,0.9-1.1,1.1-2.2,1.1c-1.5,0-2.1-1.3-2.1-2.5c0-1.6,0.7-2.3,2.2-2.7l1.2-0.3
		c0.7-0.2,0.9-0.4,0.9-1c0-0.7-0.3-1.1-1-1.1c-0.7,0-1,0.4-1,1.1v0.2H351.6z M355.6,588.5c-0.3,0.2-0.7,0.4-0.9,0.4
		c-0.9,0.2-1.2,0.6-1.2,1.4c0,0.7,0.2,1.2,0.8,1.2c0.6,0,1.4-0.4,1.4-1.3V588.5z"/>
	<path class="st5" d="M360,581.4h2.2v11.4H360V581.4z"/>
	<path class="st5" d="M369,581.4h4c2.3,0,3.1,1.7,3.1,3.4c0,2.4-1.5,3.4-3.6,3.4h-1.2v4.6H369V581.4z M371.3,586.5h1
		c0.9,0,1.5-0.5,1.5-1.7c0-1.1-0.4-1.8-1.6-1.8h-1V586.5z"/>
	<path class="st5" d="M377.8,586.8v-0.2c0-2,1.4-2.7,3-2.7c2.6,0,3.1,1.1,3.1,2.6v4.5c0,0.8,0,1.2,0.3,1.7h-2.1
		c-0.1-0.3-0.2-0.6-0.3-0.9h0c-0.5,0.9-1.1,1.1-2.2,1.1c-1.5,0-2.1-1.3-2.1-2.5c0-1.6,0.7-2.3,2.2-2.7l1.2-0.3
		c0.7-0.2,0.9-0.4,0.9-1c0-0.7-0.3-1.1-1-1.1c-0.7,0-1,0.4-1,1.1v0.2H377.8z M381.9,588.5c-0.3,0.2-0.7,0.4-0.9,0.4
		c-0.9,0.2-1.2,0.6-1.2,1.4c0,0.7,0.2,1.2,0.8,1.2c0.6,0,1.4-0.4,1.4-1.3V588.5z"/>
	<path class="st5" d="M386.2,584.2h2.1v1.2h0c0.4-0.8,1.1-1.4,2-1.4c0.1,0,0.3,0,0.4,0v2.1c-0.2,0-0.5,0-0.7,0
		c-0.8,0-1.6,0.4-1.6,1.6v5.2h-2.2V584.2z"/>
	<path class="st5" d="M394.4,581.4v6h0l2.2-3.2h2.4l-2.5,3.4l2.8,5.2h-2.4l-1.8-3.5l-0.8,1v2.5h-2.2v-11.4H394.4z"/>
</g>
<g>
	<g>
		<path class="st5" d="M527.7,615.8l1.5,4.4h0l1.6-4.4h2.5l-3,6.9v4.5H528v-4.5l-3-6.9H527.7z"/>
		<path class="st5" d="M534.7,621.2V621c0-2,1.4-2.7,3-2.7c2.6,0,3.1,1.1,3.1,2.6v4.5c0,0.8,0,1.2,0.3,1.7H539
			c-0.1-0.3-0.2-0.6-0.3-0.9h0c-0.5,0.9-1.1,1.1-2.2,1.1c-1.5,0-2.1-1.3-2.1-2.5c0-1.6,0.7-2.3,2.2-2.7l1.2-0.3
			c0.7-0.2,0.9-0.4,0.9-1c0-0.7-0.3-1.1-1-1.1c-0.7,0-1,0.4-1,1.1v0.2H534.7z M538.7,622.9c-0.3,0.2-0.7,0.4-0.9,0.4
			c-0.9,0.2-1.2,0.6-1.2,1.4c0,0.7,0.2,1.2,0.8,1.2c0.6,0,1.4-0.4,1.4-1.3V622.9z"/>
		<path class="st5" d="M543.1,615.8h2.2v11.4h-2.2V615.8z"/>
		<path class="st5" d="M547.5,621.2V621c0-2,1.4-2.7,3-2.7c2.6,0,3.1,1.1,3.1,2.6v4.5c0,0.8,0,1.2,0.3,1.7h-2.1
			c-0.1-0.3-0.2-0.6-0.3-0.9h0c-0.5,0.9-1.1,1.1-2.2,1.1c-1.5,0-2.1-1.3-2.1-2.5c0-1.6,0.7-2.3,2.2-2.7l1.2-0.3
			c0.7-0.2,0.9-0.4,0.9-1c0-0.7-0.3-1.1-1-1.1c-0.7,0-1,0.4-1,1.1v0.2H547.5z M551.6,622.9c-0.3,0.2-0.7,0.4-0.9,0.4
			c-0.9,0.2-1.2,0.6-1.2,1.4c0,0.7,0.2,1.2,0.8,1.2c0.6,0,1.4-0.4,1.4-1.3V622.9z"/>
		<path class="st5" d="M514.6,631.8l2.8,7.8h0v-7.8h2.1v11.4H517l-2.8-8h0v8H512v-11.4H514.6z"/>
		<path class="st5" d="M521.7,637.2V637c0-2,1.4-2.7,3-2.7c2.6,0,3.1,1.1,3.1,2.6v4.5c0,0.8,0,1.2,0.3,1.7H526
			c-0.1-0.3-0.2-0.6-0.3-0.9h0c-0.5,0.9-1.1,1.1-2.2,1.1c-1.5,0-2.1-1.3-2.1-2.5c0-1.6,0.7-2.3,2.2-2.7l1.2-0.3
			c0.7-0.2,0.9-0.4,0.9-1c0-0.7-0.3-1.1-1-1.1c-0.7,0-1,0.4-1,1.1v0.2H521.7z M525.8,638.9c-0.3,0.2-0.7,0.4-0.9,0.4
			c-0.9,0.2-1.2,0.6-1.2,1.4c0,0.7,0.2,1.2,0.8,1.2c0.6,0,1.4-0.4,1.4-1.3V638.9z"/>
		<path class="st5" d="M530.6,632.1h2.2v2.5h1.3v1.5h-1.3v4.7c0,0.7,0.1,0.9,0.8,0.9c0.2,0,0.4,0,0.5,0v1.5c-0.5,0-0.9,0.1-1.4,0.1
			c-1.7,0-2-0.5-2-2.3v-4.9h-1.1v-1.5h1.1V632.1z"/>
		<path class="st5" d="M535.5,631.6h2.2v1.9h-2.2V631.6z M535.5,634.6h2.2v8.6h-2.2V634.6z"/>
		<path class="st5" d="M543,634.4c2.7,0,3.4,1.5,3.4,4.5c0,2.9-0.9,4.5-3.4,4.5c-2.7,0-3.4-1.5-3.4-4.5
			C539.7,635.9,540.5,634.4,543,634.4z M543,641.9c0.9,0,1.2-0.9,1.2-3s-0.3-3-1.2-3c-1.1,0-1.2,1.3-1.2,3S542,641.9,543,641.9z"/>
		<path class="st5" d="M548.3,634.6h2.1v1h0c0.5-0.8,1.3-1.2,2.2-1.2c1.4,0,2.2,0.8,2.2,2.4v6.4h-2.2v-5.9c0-0.9-0.3-1.2-0.9-1.2
			c-0.8,0-1.2,0.5-1.2,1.4v5.7h-2.2V634.6z"/>
		<path class="st5" d="M556.9,637.2V637c0-2,1.4-2.7,3-2.7c2.6,0,3.1,1.1,3.1,2.6v4.5c0,0.8,0,1.2,0.3,1.7h-2.1
			c-0.1-0.3-0.2-0.6-0.3-0.9h0c-0.5,0.9-1.1,1.1-2.2,1.1c-1.5,0-2.1-1.3-2.1-2.5c0-1.6,0.7-2.3,2.2-2.7l1.2-0.3
			c0.7-0.2,0.9-0.4,0.9-1c0-0.7-0.3-1.1-1-1.1c-0.7,0-1,0.4-1,1.1v0.2H556.9z M560.9,638.9c-0.3,0.2-0.7,0.4-0.9,0.4
			c-0.9,0.2-1.2,0.6-1.2,1.4c0,0.7,0.2,1.2,0.8,1.2c0.6,0,1.4-0.4,1.4-1.3V638.9z"/>
		<path class="st5" d="M565.3,631.8h2.2v11.4h-2.2V631.8z"/>
		<path class="st5" d="M527.2,647.8h4c2.3,0,3.1,1.7,3.1,3.4c0,2.4-1.5,3.4-3.6,3.4h-1.2v4.6h-2.3V647.8z M529.5,652.9h1
			c0.9,0,1.5-0.5,1.5-1.7c0-1.1-0.4-1.8-1.6-1.8h-1V652.9z"/>
		<path class="st5" d="M536,653.2V653c0-2,1.4-2.7,3-2.7c2.6,0,3.1,1.1,3.1,2.6v4.5c0,0.8,0,1.2,0.3,1.7h-2.1
			c-0.1-0.3-0.2-0.6-0.3-0.9h0c-0.5,0.9-1.1,1.1-2.2,1.1c-1.5,0-2.1-1.3-2.1-2.5c0-1.6,0.7-2.3,2.2-2.7l1.2-0.3
			c0.7-0.2,0.9-0.4,0.9-1c0-0.7-0.3-1.1-1-1.1c-0.7,0-1,0.4-1,1.1v0.2H536z M540.1,654.9c-0.3,0.2-0.7,0.4-0.9,0.4
			c-0.9,0.2-1.2,0.6-1.2,1.4c0,0.7,0.2,1.2,0.8,1.2c0.6,0,1.4-0.4,1.4-1.3V654.9z"/>
		<path class="st5" d="M544.4,650.6h2.1v1.2h0c0.4-0.8,1.1-1.4,2-1.4c0.1,0,0.3,0,0.4,0v2.1c-0.2,0-0.5,0-0.7,0
			c-0.8,0-1.6,0.4-1.6,1.6v5.2h-2.2V650.6z"/>
		<path class="st5" d="M552.7,647.8v6h0l2.2-3.2h2.4l-2.5,3.4l2.8,5.2h-2.4l-1.8-3.5l-0.8,1v2.5h-2.2v-11.4H552.7z"/>
	</g>
</g>
<g>
	<path class="st5" d="M273.7,272h2.8l3,11.4h-2.4l-0.5-2.4h-3l-0.5,2.4h-2.4L273.7,272z M274,279.1h2.2l-1.1-5.1h0L274,279.1z"/>
	<path class="st5" d="M281,274.8h2.1v1h0c0.5-0.8,1.3-1.2,2.2-1.2c1.4,0,2.2,0.8,2.2,2.4v6.4h-2.2v-5.9c0-0.9-0.3-1.2-0.9-1.2
		c-0.8,0-1.2,0.5-1.2,1.4v5.7H281V274.8z"/>
	<path class="st5" d="M294,282.4L294,282.4c-0.5,0.8-1.3,1.2-2.2,1.2c-1.4,0-2.2-0.8-2.2-2.4v-6.4h2.2v5.9c0,0.9,0.3,1.2,0.9,1.2
		c0.8,0,1.2-0.5,1.2-1.4v-5.7h2.2v8.6H294V282.4z"/>
	<path class="st5" d="M298.3,274.8h2.1v1.2h0c0.4-0.8,1.1-1.4,2-1.4c0.1,0,0.3,0,0.4,0v2.1c-0.2,0-0.5,0-0.7,0
		c-0.8,0-1.6,0.4-1.6,1.6v5.2h-2.2V274.8z"/>
	<path class="st5" d="M304.2,277.4v-0.2c0-2,1.4-2.7,3-2.7c2.6,0,3.1,1.1,3.1,2.6v4.5c0,0.8,0,1.2,0.3,1.7h-2.1
		c-0.1-0.3-0.2-0.6-0.3-0.9h0c-0.5,0.9-1.1,1.1-2.2,1.1c-1.5,0-2.1-1.3-2.1-2.5c0-1.6,0.7-2.3,2.2-2.7l1.2-0.3
		c0.7-0.2,0.9-0.4,0.9-1c0-0.7-0.3-1.1-1-1.1c-0.7,0-1,0.4-1,1.1v0.2H304.2z M308.3,279.1c-0.3,0.2-0.7,0.4-0.9,0.4
		c-0.9,0.2-1.2,0.6-1.2,1.4c0,0.7,0.2,1.2,0.8,1.2s1.4-0.4,1.4-1.3V279.1z"/>
	<path class="st5" d="M317,282.5L317,282.5c-0.5,0.8-1.1,1.1-2,1.1c-1.8,0-2.6-1.3-2.6-4.5s0.8-4.5,2.6-4.5c0.8,0,1.4,0.3,1.9,1h0
		V272h2.2v11.4H317V282.5z M315.7,281.9c1,0,1.2-1,1.2-2.8s-0.2-2.8-1.2-2.8c-1,0-1.2,1-1.2,2.8S314.8,281.9,315.7,281.9z"/>
	<path class="st5" d="M321.2,272h2.2v3.7h0c0.4-0.7,1.2-1.1,2.1-1.1c1.4,0,2.2,0.8,2.2,2.4v6.4h-2.2v-5.9c0-0.9-0.3-1.2-0.9-1.2
		c-0.8,0-1.2,0.5-1.2,1.4v5.7h-2.2V272z"/>
	<path class="st5" d="M329.8,277.4v-0.2c0-2,1.4-2.7,3-2.7c2.6,0,3.1,1.1,3.1,2.6v4.5c0,0.8,0,1.2,0.3,1.7h-2.1
		c-0.1-0.3-0.2-0.6-0.3-0.9h0c-0.5,0.9-1.1,1.1-2.2,1.1c-1.5,0-2.1-1.3-2.1-2.5c0-1.6,0.7-2.3,2.2-2.7l1.2-0.3
		c0.7-0.2,0.9-0.4,0.9-1c0-0.7-0.3-1.1-1-1.1c-0.7,0-1,0.4-1,1.1v0.2H329.8z M333.9,279.1c-0.3,0.2-0.7,0.4-0.9,0.4
		c-0.9,0.2-1.2,0.6-1.2,1.4c0,0.7,0.2,1.2,0.8,1.2s1.4-0.4,1.4-1.3V279.1z"/>
	<path class="st5" d="M338.2,274.8h2.1v0.9h0c0.5-0.8,1.1-1.1,2-1.1c1.8,0,2.6,1.3,2.6,4.5s-0.8,4.5-2.6,4.5c-0.8,0-1.4-0.3-1.9-1h0
		v3.6h-2.2V274.8z M341.6,281.9c1,0,1.2-1,1.2-2.8s-0.2-2.8-1.2-2.8c-1,0-1.2,1-1.2,2.8S340.6,281.9,341.6,281.9z"/>
	<path class="st5" d="M351.2,282.4L351.2,282.4c-0.5,0.8-1.3,1.2-2.2,1.2c-1.4,0-2.2-0.8-2.2-2.4v-6.4h2.2v5.9
		c0,0.9,0.3,1.2,0.9,1.2c0.8,0,1.2-0.5,1.2-1.4v-5.7h2.2v8.6h-2.1V282.4z"/>
	<path class="st5" d="M355.5,274.8h2.1v1.2h0c0.4-0.8,1.1-1.4,2-1.4c0.1,0,0.3,0,0.4,0v2.1c-0.2,0-0.5,0-0.7,0
		c-0.8,0-1.6,0.4-1.6,1.6v5.2h-2.2V274.8z"/>
	<path class="st5" d="M361.4,277.4v-0.2c0-2,1.4-2.7,3-2.7c2.6,0,3.1,1.1,3.1,2.6v4.5c0,0.8,0,1.2,0.3,1.7h-2.1
		c-0.1-0.3-0.2-0.6-0.3-0.9h0c-0.5,0.9-1.1,1.1-2.2,1.1c-1.5,0-2.1-1.3-2.1-2.5c0-1.6,0.7-2.3,2.2-2.7l1.2-0.3
		c0.7-0.2,0.9-0.4,0.9-1c0-0.7-0.3-1.1-1-1.1c-0.7,0-1,0.4-1,1.1v0.2H361.4z M365.5,279.1c-0.3,0.2-0.7,0.4-0.9,0.4
		c-0.9,0.2-1.2,0.6-1.2,1.4c0,0.7,0.2,1.2,0.8,1.2c0.6,0,1.4-0.4,1.4-1.3V279.1z"/>
</g>
<g>
	<path class="st5" d="M263.9,25.7v8.2c0,2.4-1.1,3.4-3.4,3.4c-2.4,0-3-1.6-3-3.3v-0.5h2.1v0.4c0,1.2,0.2,1.8,1,1.8
		c0.8,0,1-0.6,1-1.8v-8.2H263.9z"/>
	<path class="st5" d="M265.9,31.1v-0.2c0-2,1.4-2.7,3-2.7c2.6,0,3.1,1.1,3.1,2.6v4.5c0,0.8,0,1.2,0.3,1.7h-2.1
		c-0.1-0.3-0.2-0.6-0.3-0.9h0c-0.5,0.9-1.1,1.1-2.2,1.1c-1.5,0-2.1-1.3-2.1-2.5c0-1.6,0.7-2.3,2.2-2.7l1.2-0.3
		c0.7-0.2,0.9-0.4,0.9-1c0-0.7-0.3-1.1-1-1.1c-0.7,0-1,0.4-1,1.1v0.2H265.9z M270,32.8c-0.3,0.2-0.7,0.4-0.9,0.4
		c-0.9,0.2-1.2,0.6-1.2,1.4c0,0.7,0.2,1.2,0.8,1.2s1.4-0.4,1.4-1.3V32.8z"/>
	<path class="st5" d="M274.8,30h-1.1v-1.5h1.1v-1c0-1.6,0.9-2.1,2.3-2.1c0.4,0,0.8,0,1.2,0v1.6c-0.1,0-0.3,0-0.4,0
		c-0.6,0-0.8,0.2-0.8,0.7v0.8h1.3V30H277v7.1h-2.2V30z"/>
	<path class="st5" d="M280.2,30H279v-1.5h1.1v-1c0-1.6,0.9-2.1,2.3-2.1c0.4,0,0.8,0,1.2,0v1.6c-0.1,0-0.3,0-0.4,0
		c-0.6,0-0.8,0.2-0.8,0.7v0.8h1.3V30h-1.3v7.1h-2.2V30z"/>
	<path class="st5" d="M285.1,28.5h2.1v1h0c0.5-0.8,1.3-1.2,2.2-1.2c1.4,0,2.2,0.8,2.2,2.4v6.4h-2.2v-5.9c0-0.9-0.3-1.2-0.9-1.2
		c-0.8,0-1.2,0.5-1.2,1.4v5.7h-2.2V28.5z"/>
	<path class="st5" d="M293.7,31.1v-0.2c0-2,1.4-2.7,3-2.7c2.6,0,3.1,1.1,3.1,2.6v4.5c0,0.8,0,1.2,0.3,1.7H298
		c-0.1-0.3-0.2-0.6-0.3-0.9h0c-0.5,0.9-1.1,1.1-2.2,1.1c-1.5,0-2.1-1.3-2.1-2.5c0-1.6,0.7-2.3,2.2-2.7l1.2-0.3
		c0.7-0.2,0.9-0.4,0.9-1c0-0.7-0.3-1.1-1-1.1c-0.7,0-1,0.4-1,1.1v0.2H293.7z M297.7,32.8c-0.3,0.2-0.7,0.4-0.9,0.4
		c-0.9,0.2-1.2,0.6-1.2,1.4c0,0.7,0.2,1.2,0.8,1.2s1.4-0.4,1.4-1.3V32.8z"/>
</g>
<g>
	<g>
		<path class="st5" d="M399.2,379.6v0.3c0,1.1,0.3,1.8,1.5,1.8c0.7,0,1.4-0.4,1.4-1.4c0-1-0.5-1.4-2-2c-2-0.7-3-1.6-3-3.5
			c0-2.2,1.4-3.4,3.5-3.4c2,0,3.5,0.9,3.5,3.1v0.3H402c0-1.1-0.4-1.7-1.2-1.7c-1,0-1.3,0.7-1.3,1.3c0,0.7,0.2,1.1,1.2,1.6l1.8,0.8
			c1.7,0.8,2.2,1.6,2.2,3c0,2.4-1.5,3.5-4,3.5c-2.6,0-3.6-1.2-3.6-3.3v-0.5H399.2z"/>
		<path class="st5" d="M406.3,371.7h2.2v1.9h-2.2V371.7z M406.3,374.6h2.2v8.6h-2.2V374.6z"/>
		<path class="st5" d="M417.2,374.6v8.2c0,2.3-1,3.4-3.6,3.4c-1.9,0-2.9-0.8-2.9-2.3h2.1c0,0.3,0.1,0.5,0.3,0.7
			c0.2,0.1,0.5,0.2,0.7,0.2c0.9,0,1.2-0.7,1.2-1.6v-1.1h0c-0.4,0.6-1.1,1.1-1.8,1.1c-1.8,0-2.6-1.2-2.6-4.4c0-2,0.3-4.4,2.7-4.4
			c0.6,0,1.4,0.3,1.8,1.2h0v-1H417.2z M413.9,381.4c0.9,0,1.2-1,1.2-2.5c0-2.1-0.3-2.9-1.2-2.9c-1,0-1.2,0.8-1.2,3.1
			C412.8,380.4,413,381.4,413.9,381.4z"/>
		<path class="st5" d="M419.5,371.7h2.2v1.9h-2.2V371.7z M419.5,374.6h2.2v8.6h-2.2V374.6z"/>
		<path class="st5" d="M423.9,374.6h2.1v1.2h0c0.4-0.8,1.1-1.4,2-1.4c0.1,0,0.3,0,0.4,0v2.1c-0.2,0-0.5,0-0.7,0
			c-0.8,0-1.6,0.4-1.6,1.6v5.2h-2.2V374.6z"/>
		<path class="st5" d="M429.9,371.7h2.2v1.9h-2.2V371.7z M429.9,374.6h2.2v8.6h-2.2V374.6z"/>
		<path class="st5" d="M434.3,384.4c0.2,0,0.4,0,0.6,0c0.8,0,1.1-0.4,1.2-1.2l-2.4-8.6h2.3l1.3,6h0l1.1-6h2.2l-2.1,8
			c-0.8,3-1.3,3.4-3.3,3.4h-0.9V384.4z"/>
		<path class="st5" d="M442,377.2V377c0-2,1.4-2.7,3-2.7c2.6,0,3.1,1.1,3.1,2.6v4.5c0,0.8,0,1.2,0.3,1.7h-2.1
			c-0.1-0.3-0.2-0.6-0.3-0.9h0c-0.5,0.9-1.1,1.1-2.2,1.1c-1.5,0-2.1-1.3-2.1-2.5c0-1.6,0.7-2.3,2.2-2.7l1.2-0.3
			c0.7-0.2,0.9-0.4,0.9-1c0-0.7-0.3-1.1-1-1.1c-0.7,0-1,0.4-1,1.1v0.2H442z M446.1,378.9c-0.3,0.2-0.7,0.4-0.9,0.4
			c-0.9,0.2-1.2,0.6-1.2,1.4c0,0.7,0.2,1.2,0.8,1.2s1.4-0.4,1.4-1.3V378.9z"/>
	</g>
</g>
<g>
	<g>
		<path class="st5" d="M375.3,399h3.8c3.2,0,3.8,2.2,3.8,5.6c0,4-0.9,5.9-3.9,5.9h-3.6V399z M377.6,408.7h1c1.6,0,1.9-1,1.9-4.1
			c0-2.6-0.2-3.9-2-3.9h-1V408.7z"/>
		<path class="st5" d="M384.9,404.5v-0.2c0-2,1.4-2.7,3-2.7c2.6,0,3.1,1.1,3.1,2.6v4.5c0,0.8,0,1.2,0.3,1.7h-2.1
			c-0.1-0.3-0.2-0.6-0.3-0.9h0c-0.5,0.9-1.1,1.1-2.2,1.1c-1.5,0-2.1-1.3-2.1-2.5c0-1.6,0.7-2.3,2.2-2.7l1.2-0.3
			c0.7-0.2,0.9-0.4,0.9-1c0-0.7-0.3-1.1-1-1.1c-0.7,0-1,0.4-1,1.1v0.2H384.9z M388.9,406.1c-0.3,0.2-0.7,0.4-0.9,0.4
			c-0.9,0.2-1.2,0.6-1.2,1.4c0,0.7,0.2,1.2,0.8,1.2c0.6,0,1.4-0.4,1.4-1.3V406.1z"/>
		<path class="st5" d="M393.2,401.8h2.1v0.9h0c0.6-0.8,1.2-1.1,2.2-1.1c1,0,1.7,0.5,2,1.4h0c0.3-0.9,1.1-1.4,2.2-1.4
			c1.5,0,2.1,0.9,2.1,2.6v6.3h-2.2v-6c0-0.7-0.2-1.1-0.9-1.1c-0.7,0-1.2,0.5-1.2,1.5v5.7h-2.2v-6c0-0.7-0.2-1.1-0.9-1.1
			c-0.7,0-1.2,0.5-1.2,1.5v5.7h-2.2V401.8z"/>
		<path class="st5" d="M406,399h2.2v3.6h0c0.5-0.7,1-1,1.9-1c1.8,0,2.6,1.3,2.6,4.5s-0.8,4.5-2.6,4.5c-0.9,0-1.5-0.3-2-1.1h0v0.9
			H406V399z M409.4,409c1,0,1.2-1,1.2-2.8s-0.2-2.8-1.2-2.8c-1,0-1.2,1-1.2,2.8S408.4,409,409.4,409z"/>
		<path class="st5" d="M419.1,409.4L419.1,409.4c-0.5,0.8-1.3,1.2-2.2,1.2c-1.4,0-2.2-0.8-2.2-2.4v-6.4h2.2v5.9
			c0,0.9,0.3,1.2,0.9,1.2c0.8,0,1.2-0.5,1.2-1.4v-5.7h2.2v8.6h-2.1V409.4z"/>
		<path class="st5" d="M423.4,399h2.2v11.4h-2.2V399z"/>
		<path class="st5" d="M427.8,399h2.2v11.4h-2.2V399z"/>
		<path class="st5" d="M432.2,404.5v-0.2c0-2,1.4-2.7,3-2.7c2.6,0,3.1,1.1,3.1,2.6v4.5c0,0.8,0,1.2,0.3,1.7h-2.1
			c-0.1-0.3-0.2-0.6-0.3-0.9h0c-0.5,0.9-1.1,1.1-2.2,1.1c-1.5,0-2.1-1.3-2.1-2.5c0-1.6,0.7-2.3,2.2-2.7l1.2-0.3
			c0.7-0.2,0.9-0.4,0.9-1c0-0.7-0.3-1.1-1-1.1c-0.7,0-1,0.4-1,1.1v0.2H432.2z M436.3,406.1c-0.3,0.2-0.7,0.4-0.9,0.4
			c-0.9,0.2-1.2,0.6-1.2,1.4c0,0.7,0.2,1.2,0.8,1.2c0.6,0,1.4-0.4,1.4-1.3V406.1z"/>
	</g>
</g>
<path class="st6" d="M361.9,504.2c0-2.3,1.9-4.3,4.3-4.3c2.3,0,4.3,1.9,4.3,4.3c0,2.3-1.9,4.3-4.3,4.3
	C363.8,508.5,361.9,506.6,361.9,504.2L361.9,504.2z"/>
<g>
	<path class="st5" d="M468.1,569.6v1.9H464v2.7h3.8v1.9H464v3.1h4.2v1.9h-6.5v-11.4H468.1z"/>
	<path class="st5" d="M470,569.6h2.2V581H470V569.6z"/>
	<path class="st5" d="M474.5,569.6h2.2V581h-2.2V569.6z"/>
	<path class="st5" d="M478.9,575.1v-0.2c0-2,1.4-2.7,3-2.7c2.6,0,3.1,1.1,3.1,2.6v4.5c0,0.8,0,1.2,0.3,1.7h-2.1
		c-0.1-0.3-0.2-0.6-0.3-0.9h0c-0.5,0.9-1.1,1.1-2.2,1.1c-1.5,0-2.1-1.3-2.1-2.5c0-1.6,0.7-2.3,2.2-2.7l1.2-0.3
		c0.7-0.2,0.9-0.4,0.9-1c0-0.7-0.3-1.1-1-1.1c-0.7,0-1,0.4-1,1.1v0.2H478.9z M482.9,576.7c-0.3,0.2-0.7,0.4-0.9,0.4
		c-0.9,0.2-1.2,0.6-1.2,1.4c0,0.7,0.2,1.2,0.8,1.2c0.6,0,1.4-0.4,1.4-1.3V576.7z"/>
</g>
<g>
	<path class="st5" d="M352.6,615.5h2.3v4.4h2.7v-4.4h2.3V627h-2.3v-5.1H355v5.1h-2.3V615.5z"/>
	<path class="st5" d="M362.1,621v-0.2c0-2,1.4-2.7,3-2.7c2.6,0,3.1,1.1,3.1,2.6v4.5c0,0.8,0,1.2,0.3,1.7h-2.1
		c-0.1-0.3-0.2-0.6-0.3-0.9h0c-0.5,0.9-1.1,1.1-2.2,1.1c-1.5,0-2.1-1.3-2.1-2.5c0-1.6,0.7-2.3,2.2-2.7l1.2-0.3
		c0.7-0.2,0.9-0.4,0.9-1c0-0.7-0.3-1.1-1-1.1c-0.7,0-1,0.4-1,1.1v0.2H362.1z M366.1,622.7c-0.3,0.2-0.7,0.4-0.9,0.4
		c-0.9,0.2-1.2,0.6-1.2,1.4c0,0.7,0.2,1.2,0.8,1.2c0.6,0,1.4-0.4,1.4-1.3V622.7z"/>
	<path class="st5" d="M370.5,618.4h2.1v0.9h0c0.5-0.8,1.1-1.1,2-1.1c1.8,0,2.6,1.3,2.6,4.5s-0.8,4.5-2.6,4.5c-0.8,0-1.4-0.3-1.9-1h0
		v3.6h-2.2V618.4z M373.8,625.5c1,0,1.2-1,1.2-2.8s-0.2-2.8-1.2-2.8c-1,0-1.2,1-1.2,2.8S372.9,625.5,373.8,625.5z"/>
	<path class="st5" d="M383.5,626L383.5,626c-0.5,0.8-1.3,1.2-2.2,1.2c-1.4,0-2.2-0.8-2.2-2.4v-6.4h2.2v5.9c0,0.9,0.3,1.2,0.9,1.2
		c0.8,0,1.2-0.5,1.2-1.4v-5.7h2.2v8.6h-2.1V626z"/>
	<path class="st5" d="M388.2,615.9h2.2v2.5h1.3v1.5h-1.3v4.7c0,0.7,0.1,0.9,0.8,0.9c0.2,0,0.4,0,0.5,0v1.5c-0.5,0-0.9,0.1-1.4,0.1
		c-1.7,0-2-0.5-2-2.3v-4.9h-1.1v-1.5h1.1V615.9z"/>
	<path class="st5" d="M393.1,621v-0.2c0-2,1.4-2.7,3-2.7c2.6,0,3.1,1.1,3.1,2.6v4.5c0,0.8,0,1.2,0.3,1.7h-2.1
		c-0.1-0.3-0.2-0.6-0.3-0.9h0c-0.5,0.9-1.1,1.1-2.2,1.1c-1.5,0-2.1-1.3-2.1-2.5c0-1.6,0.7-2.3,2.2-2.7l1.2-0.3
		c0.7-0.2,0.9-0.4,0.9-1c0-0.7-0.3-1.1-1-1.1c-0.7,0-1,0.4-1,1.1v0.2H393.1z M397.1,622.7c-0.3,0.2-0.7,0.4-0.9,0.4
		c-0.9,0.2-1.2,0.6-1.2,1.4c0,0.7,0.2,1.2,0.8,1.2c0.6,0,1.4-0.4,1.4-1.3V622.7z"/>
	<path class="st5" d="M401.5,615.5h2.2V627h-2.2V615.5z"/>
	<path class="st5" d="M407.8,623v0.7c0,1,0.3,2,1.1,2c0.7,0,1-0.6,1.2-1.6h2c-0.1,2-1,3.1-3.1,3.1c-3.2,0-3.3-2.5-3.3-4.6
		c0-2.3,0.4-4.5,3.4-4.5c2.6,0,3.2,1.7,3.2,4.4v0.5H407.8z M410.1,621.7c0-1.3-0.2-2-1.1-2c-0.9,0-1.1,0.9-1.1,1.7v0.3H410.1z"/>
</g>
<path class="st6" d="M314.6,296.8c0-2.3,1.9-4.3,4.3-4.3c2.3,0,4.3,1.9,4.3,4.3c0,2.3-1.9,4.3-4.3,4.3
	C316.5,301.1,314.6,299.2,314.6,296.8L314.6,296.8z"/>
<path class="st6" d="M244.8,45.5c0-2.3,1.9-4.3,4.3-4.3c2.3,0,4.3,1.9,4.3,4.3c0,2.3-1.9,4.3-4.3,4.3
	C246.7,49.8,244.8,47.9,244.8,45.5L244.8,45.5z"/>
<g>
	<path class="st5" d="M614.8,480.6h2.8l3,11.4h-2.4l-0.5-2.4h-3l-0.5,2.4h-2.4L614.8,480.6z M615.1,487.8h2.2l-1.1-5.1h0
		L615.1,487.8z"/>
	<path class="st5" d="M622,483.5h2.1v1.2h0c0.4-0.8,1.1-1.4,2-1.4c0.1,0,0.3,0,0.4,0v2.1c-0.2,0-0.5,0-0.7,0c-0.8,0-1.6,0.4-1.6,1.6
		v5.2H622V483.5z"/>
	<path class="st5" d="M632.4,491.1L632.4,491.1c-0.5,0.8-1.3,1.2-2.2,1.2c-1.4,0-2.2-0.8-2.2-2.4v-6.4h2.2v5.9
		c0,0.9,0.3,1.2,0.9,1.2c0.8,0,1.2-0.5,1.2-1.4v-5.7h2.2v8.6h-2.1V491.1z"/>
	<path class="st5" d="M643.1,483.5v8.2c0,2.3-1,3.4-3.6,3.4c-1.9,0-2.9-0.8-2.9-2.3h2.1c0,0.3,0.1,0.5,0.3,0.7
		c0.2,0.1,0.5,0.2,0.7,0.2c0.9,0,1.2-0.7,1.2-1.6v-1.1h0c-0.4,0.6-1.1,1.1-1.8,1.1c-1.8,0-2.6-1.2-2.6-4.4c0-2,0.3-4.4,2.7-4.4
		c0.6,0,1.4,0.3,1.8,1.2h0v-1H643.1z M639.8,490.3c0.9,0,1.2-1,1.2-2.5c0-2.1-0.3-2.9-1.2-2.9c-1,0-1.2,0.8-1.2,3.1
		C638.7,489.2,638.8,490.3,639.8,490.3z"/>
	<path class="st5" d="M645.3,486.1v-0.2c0-2,1.4-2.7,3-2.7c2.6,0,3.1,1.1,3.1,2.6v4.5c0,0.8,0,1.2,0.3,1.7h-2.1
		c-0.1-0.3-0.2-0.6-0.3-0.9h0c-0.5,0.9-1.1,1.1-2.2,1.1c-1.5,0-2.1-1.3-2.1-2.5c0-1.6,0.7-2.3,2.2-2.7l1.2-0.3
		c0.7-0.2,0.9-0.4,0.9-1c0-0.7-0.3-1.1-1-1.1c-0.7,0-1,0.4-1,1.1v0.2H645.3z M649.3,487.8c-0.3,0.2-0.7,0.4-0.9,0.4
		c-0.9,0.2-1.2,0.6-1.2,1.4c0,0.7,0.2,1.2,0.8,1.2c0.6,0,1.4-0.4,1.4-1.3V487.8z"/>
	<path class="st5" d="M653.6,483.5h2.1v0.9h0c0.6-0.8,1.2-1.1,2.2-1.1c1,0,1.7,0.5,2,1.4h0c0.3-0.9,1.1-1.4,2.2-1.4
		c1.5,0,2.1,0.9,2.1,2.6v6.3h-2.2v-6c0-0.7-0.2-1.1-0.9-1.1c-0.7,0-1.2,0.5-1.2,1.5v5.7h-2.2v-6c0-0.7-0.2-1.1-0.9-1.1
		c-0.7,0-1.2,0.5-1.2,1.5v5.7h-2.2V483.5z"/>
	<path class="st5" d="M670.9,480.6h3.9c1.9,0,3.2,0.7,3.2,2.9c0,1.2-0.6,2.2-1.7,2.5v0c1.3,0.2,2.1,1.1,2.1,2.7
		c0,1.8-0.9,3.3-3.6,3.3h-3.9V480.6z M673.2,485.3h0.7c1.3,0,1.8-0.4,1.8-1.5c0-1.1-0.5-1.5-1.7-1.5h-0.8V485.3z M673.2,490.4h0.9
		c1.1,0,1.9-0.4,1.9-1.7c0-1.3-0.8-1.7-1.8-1.7h-1V490.4z"/>
	<path class="st5" d="M680.4,486.1v-0.2c0-2,1.4-2.7,3-2.7c2.6,0,3.1,1.1,3.1,2.6v4.5c0,0.8,0,1.2,0.3,1.7h-2.1
		c-0.1-0.3-0.2-0.6-0.3-0.9h0c-0.5,0.9-1.1,1.1-2.2,1.1c-1.5,0-2.1-1.3-2.1-2.5c0-1.6,0.7-2.3,2.2-2.7l1.2-0.3
		c0.7-0.2,0.9-0.4,0.9-1c0-0.7-0.3-1.1-1-1.1c-0.7,0-1,0.4-1,1.1v0.2H680.4z M684.4,487.8c-0.3,0.2-0.7,0.4-0.9,0.4
		c-0.9,0.2-1.2,0.6-1.2,1.4c0,0.7,0.2,1.2,0.8,1.2s1.4-0.4,1.4-1.3V487.8z"/>
	<path class="st5" d="M688.7,493.2c0.2,0,0.4,0,0.6,0c0.8,0,1.1-0.4,1.2-1.2l-2.4-8.6h2.3l1.3,6h0l1.1-6h2.2l-2.1,8
		c-0.8,3-1.3,3.4-3.3,3.4h-0.9V493.2z"/>
</g>
<path class="st6" d="M602.3,497.1c0-2.3,1.9-4.3,4.3-4.3c2.3,0,4.3,1.9,4.3,4.3s-1.9,4.3-4.3,4.3
	C604.2,501.4,602.3,499.5,602.3,497.1L602.3,497.1z"/>
<path class="st6" d="M208.4,575.5c0-2.3,1.9-4.3,4.3-4.3c2.3,0,4.3,1.9,4.3,4.3c0,2.3-1.9,4.3-4.3,4.3
	C210.3,579.7,208.4,577.8,208.4,575.5L208.4,575.5z"/>
<path class="st6" d="M242.4,689.7c0-2.3,1.9-4.3,4.3-4.3c2.3,0,4.3,1.9,4.3,4.3c0,2.3-1.9,4.3-4.3,4.3
	C244.3,694,242.4,692.1,242.4,689.7L242.4,689.7z"/>
<path class="st6" d="M286.7,746.2c0-2.3,1.9-4.3,4.3-4.3c2.3,0,4.3,1.9,4.3,4.3c0,2.3-1.9,4.3-4.3,4.3
	C288.6,750.5,286.7,748.6,286.7,746.2L286.7,746.2z"/>
<path class="st6" d="M310.4,757c0-2.3,1.9-4.3,4.3-4.3c2.3,0,4.3,1.9,4.3,4.3c0,2.3-1.9,4.3-4.3,4.3
	C312.3,761.2,310.4,759.3,310.4,757L310.4,757z"/>
<path class="st6" d="M388.7,742.8c0-2.3,1.9-4.3,4.3-4.3c2.3,0,4.3,1.9,4.3,4.3c0,2.3-1.9,4.3-4.3,4.3
	C390.6,747.1,388.7,745.2,388.7,742.8L388.7,742.8z"/>
<path class="st6" d="M535.7,671.3c0-2.3,1.9-4.3,4.3-4.3c2.3,0,4.3,1.9,4.3,4.3c0,2.3-1.9,4.3-4.3,4.3
	C537.6,675.6,535.7,673.7,535.7,671.3L535.7,671.3z"/>
<g>
	<path class="st6" d="M289.5,211.2c0,1.5,1.2,2.1,2.5,2.1c0.9,0,2.2-0.3,2.2-1.4c0-1.2-1.7-1.4-3.4-1.9c-1.7-0.4-3.4-1.1-3.4-3.2
		c0-2.3,2.2-3.5,4.3-3.5c2.4,0,4.6,1,4.6,3.7h-2.4c-0.1-1.4-1.1-1.7-2.3-1.7c-0.8,0-1.7,0.3-1.7,1.3c0,0.9,0.5,1,3.4,1.7
		c0.8,0.2,3.4,0.7,3.4,3.3c0,2.1-1.6,3.7-4.8,3.7c-2.5,0-4.9-1.2-4.9-4.1H289.5z"/>
	<path class="st6" d="M301.4,203.5h6.2c2,0,3.3,1.4,3.3,3.2c0,1.3-0.5,2.4-1.8,2.9v0c1.2,0.3,1.6,1.5,1.7,2.7c0,0.7,0,2.1,0.5,2.7
		h-2.5c-0.3-0.7-0.3-1.8-0.4-2.7c-0.2-1.2-0.6-1.7-1.9-1.7h-2.5v4.5h-2.5V203.5z M303.9,208.7h2.8c1.1,0,1.7-0.5,1.7-1.6
		c0-1.1-0.6-1.6-1.7-1.6h-2.8V208.7z"/>
	<path class="st6" d="M316.1,203.5h2.5V215h-2.5V203.5z"/>
	<path class="st6" d="M331.7,203.5h2.5v9.3h5.6v2.1h-8.1V203.5z"/>
	<path class="st6" d="M347.5,203.5h2.6l4.3,11.4h-2.6l-0.9-2.5h-4.3l-0.9,2.5h-2.5L347.5,203.5z M347.3,210.5h3l-1.4-4.2h0
		L347.3,210.5z"/>
	<path class="st6" d="M358.5,203.5h2.5l4.8,7.7h0v-7.7h2.4V215h-2.5l-4.8-7.7h0v7.7h-2.4V203.5z"/>
	<path class="st6" d="M373.6,203.5h2.5v4.7l4.5-4.7h3.1l-4.5,4.5l4.9,6.9H381l-3.4-5.1l-1.4,1.5v3.7h-2.5V203.5z"/>
	<path class="st6" d="M391.5,203.5h2.6l4.3,11.4h-2.6l-0.9-2.5h-4.3l-0.9,2.5h-2.5L391.5,203.5z M391.2,210.5h3l-1.4-4.2h0
		L391.2,210.5z"/>
</g>
<g>
	<path class="st1" d="M219.9,557.3c0,3.4-3.1,6.1-6.9,6.1c-3.8,0-6.9-2.7-6.9-6.1s3.1-6.1,6.9-6.1
		C216.8,551.2,219.9,554,219.9,557.3z"/>
	<path class="st7" d="M212.7,561.9c-2.6,0-4.7-2.1-4.7-4.7c0-2.6,2.1-4.7,4.7-4.7c2.6,0,4.7,2.1,4.7,4.7
		C217.3,559.8,215.3,561.9,212.7,561.9z M212.7,548.3c-5,0-9,4-9,9c0,2,1.3,5.3,3.9,10c1.9,3.3,3.7,6.1,3.8,6.2l1.3,2l1.3-2
		c0.1-0.1,1.9-2.9,3.8-6.2c2.6-4.7,3.9-8,3.9-10C221.7,552.3,217.6,548.3,212.7,548.3z"/>
</g>
<line class="st4" x1="388.7" y1="372.2" x2="366.5" y2="400.1"/>
<path class="st6" d="M384.4,372.2c0-2.3,1.9-4.3,4.3-4.3c2.3,0,4.3,1.9,4.3,4.3c0,2.3-1.9,4.3-4.3,4.3
	C386.3,376.5,384.4,374.6,384.4,372.2L384.4,372.2z"/>
<path class="st6" d="M362.3,400.1c0-2.3,1.9-4.3,4.3-4.3c2.3,0,4.3,1.9,4.3,4.3c0,2.3-1.9,4.3-4.3,4.3
	C364.2,404.4,362.3,402.5,362.3,400.1L362.3,400.1z"/>
<polyline class="st4" points="453.8,725.6 450.6,576.8 416.6,610.2 387.8,601.7 "/>
<path class="st6" d="M412.4,610.2c0-2.3,1.9-4.3,4.3-4.3c2.3,0,4.3,1.9,4.3,4.3c0,2.3-1.9,4.3-4.3,4.3
	C414.3,614.5,412.4,612.6,412.4,610.2L412.4,610.2z"/>
<path class="st6" d="M383.5,601.7c0-2.3,1.9-4.3,4.3-4.3c2.3,0,4.3,1.9,4.3,4.3c0,2.3-1.9,4.3-4.3,4.3
	C385.4,606,383.5,604.1,383.5,601.7L383.5,601.7z"/>
<path class="st6" d="M446.3,576.8c0-2.3,1.9-4.3,4.3-4.3c2.3,0,4.3,1.9,4.3,4.3c0,2.3-1.9,4.3-4.3,4.3
	C448.2,581,446.3,579.1,446.3,576.8L446.3,576.8z"/>
<path class="st6" d="M448.9,725.6c0-2.3,1.9-4.3,4.3-4.3c2.3,0,4.3,1.9,4.3,4.3c0,2.3-1.9,4.3-4.3,4.3
	C450.8,729.8,448.9,727.9,448.9,725.6L448.9,725.6z"/>
<path class="st8" d="M214.8,545.7c0,0,65.7-287.7-214.8-470.2"/>
</svg>
