<?xml version="1.0" encoding="utf-8"?>
<!-- Generator: Adobe Illustrator 16.0.0, SVG Export Plug-In . SVG Version: 6.00 Build 0)  -->
<!DOCTYPE svg PUBLIC "-//W3C//DTD SVG 1.1//EN" "http://www.w3.org/Graphics/SVG/1.1/DTD/svg11.dtd">
<svg version="1.1" id="Ebene_1" xmlns="http://www.w3.org/2000/svg" xmlns:xlink="http://www.w3.org/1999/xlink" x="0px" y="0px"
	 width="293px" height="278px" viewBox="426 141 293 278" enable-background="new 0 0 841.89 595.28" xml:space="preserve">
<g>
	<path fill="#143258" d="M674.406,280.546l-77.544,18.259l-19.358,78.094l-18.259-77.654l-78.094-19.248l77.654-18.258
		l19.248-78.204l18.259,77.764L674.406,280.546z M572.664,279.776l-13.749-13.529l-59.505,13.529H572.664z M577.063,357.87v-73.254
		l-13.528,13.749L577.063,357.87z M592.022,262.178l-13.419-59.505v73.254L592.022,262.178z M656.147,280.766h-73.144l13.639,13.529
		L656.147,280.766z"/>
</g>
<g>
	<path fill="#143258" d="M586.073,160.854v-14.127c0-0.29-0.066-0.52-0.197-0.691c-0.132-0.171-0.382-0.256-0.75-0.256v-0.474h4.735
		v0.474c-0.368,0-0.618,0.085-0.75,0.256c-0.132,0.171-0.197,0.401-0.197,0.691v17.916c0,0.29,0.065,0.52,0.197,0.69
		c0.132,0.171,0.382,0.256,0.75,0.256v0.474h-5.051v-0.474c0.525,0,0.789-0.104,0.789-0.315c0-0.184-0.053-0.335-0.158-0.454
		c-0.105-0.118-0.184-0.217-0.236-0.296l-14.049-15.982v16.101c0,0.29,0.065,0.52,0.198,0.69c0.131,0.171,0.381,0.256,0.749,0.256
		v0.474h-4.735v-0.474c0.368,0,0.618-0.085,0.75-0.256c0.131-0.171,0.197-0.401,0.197-0.69v-17.916c0-0.29-0.066-0.52-0.197-0.691
		c-0.132-0.171-0.382-0.256-0.75-0.256v-0.474h6.669v0.474c-0.289,0-0.486,0.033-0.592,0.099c-0.105,0.066-0.157,0.178-0.157,0.335
		c0,0.079,0.032,0.165,0.099,0.256c0.064,0.093,0.138,0.178,0.217,0.257l12.391,14.127H586.073z"/>
</g>
<g>
	<path fill="#143258" d="M570.178,409.586c-0.078,0.185-0.117,0.355-0.117,0.514c0,0.369,0.229,0.75,0.689,1.145
		c0.461,0.395,1.066,0.756,1.815,1.085c0.75,0.329,1.599,0.599,2.546,0.809c0.947,0.211,1.906,0.315,2.881,0.315
		c2.498,0,4.307-0.367,5.426-1.104c1.117-0.736,1.677-1.683,1.677-2.841c0-0.553-0.138-1.013-0.415-1.381
		c-0.275-0.369-0.657-0.652-1.144-0.85c-0.487-0.197-1.053-0.335-1.697-0.414c-0.645-0.078-1.335-0.118-2.071-0.118
		c-1.211,0-2.493-0.007-3.848-0.02c-1.355-0.013-2.598-0.185-3.729-0.513c-1.133-0.329-2.066-0.875-2.803-1.639
		c-0.736-0.762-1.104-1.894-1.104-3.393c0-0.947,0.263-1.809,0.789-2.586c0.526-0.775,1.243-1.439,2.151-1.992
		c0.906-0.553,1.979-0.986,3.215-1.303c1.236-0.315,2.578-0.473,4.025-0.473c1.131,0,2.111,0.078,2.939,0.236
		c0.83,0.158,1.546,0.329,2.151,0.514c0.604,0.184,1.104,0.354,1.499,0.512c0.395,0.158,0.724,0.237,0.986,0.237
		c0.29,0,0.5-0.052,0.633-0.157c0.131-0.105,0.262-0.224,0.395-0.355l0.473,0.197l-2.17,4.538l-0.434-0.276
		c0.025-0.079,0.039-0.25,0.039-0.514c0-0.184-0.158-0.406-0.474-0.67c-0.315-0.263-0.764-0.52-1.342-0.77
		c-0.579-0.25-1.27-0.46-2.071-0.632c-0.803-0.171-1.678-0.257-2.625-0.257c-2.131,0-3.821,0.343-5.07,1.026
		c-1.25,0.685-1.875,1.579-1.875,2.684c0,0.5,0.139,0.901,0.414,1.204c0.277,0.303,0.658,0.539,1.145,0.71s1.053,0.282,1.697,0.335
		s1.335,0.079,2.072,0.079c1.236,0,2.525,0.021,3.867,0.06s2.578,0.243,3.709,0.611c1.131,0.369,2.064,0.961,2.802,1.775
		c0.736,0.816,1.104,2.014,1.104,3.592c0,0.842-0.217,1.65-0.65,2.427c-0.435,0.776-1.086,1.467-1.953,2.071
		c-0.869,0.605-1.941,1.079-3.217,1.421c-1.276,0.343-2.756,0.513-4.439,0.513c-1.42,0-2.65-0.111-3.689-0.335
		s-1.928-0.487-2.664-0.79c-0.736-0.302-1.342-0.578-1.814-0.828c-0.475-0.25-0.855-0.375-1.145-0.375
		c-0.264,0-0.539,0.158-0.829,0.474l-0.395-0.237l2.131-4.537L570.178,409.586z"/>
</g>
<g>
	<path fill="#143258" d="M704.98,268.458c1.709,0,3.287,0.231,4.734,0.691c1.447,0.46,2.703,1.144,3.77,2.052
		c1.064,0.908,1.894,2.02,2.486,3.334c0.592,1.316,0.887,2.828,0.887,4.538c0,1.71-0.295,3.223-0.887,4.538
		c-0.593,1.316-1.422,2.421-2.486,3.315c-1.066,0.895-2.322,1.559-3.77,1.993s-3.025,0.651-4.734,0.651
		c-1.711,0-3.289-0.217-4.736-0.651s-2.703-1.098-3.768-1.993c-1.066-0.894-1.895-1.999-2.486-3.315
		c-0.592-1.315-0.889-2.828-0.889-4.538c0-1.71,0.297-3.222,0.889-4.538c0.592-1.315,1.42-2.427,2.486-3.334
		c1.064-0.908,2.32-1.591,3.768-2.052C701.691,268.688,703.27,268.458,704.98,268.458z M704.98,271.141
		c-2.684,0-4.756,0.702-6.216,2.106c-1.46,1.404-2.19,3.34-2.19,5.806c0,2.467,0.73,4.402,2.19,5.806s3.532,2.106,6.216,2.106
		s4.755-0.702,6.215-2.106s2.189-3.339,2.189-5.806c0-2.466-0.729-4.402-2.189-5.806
		C709.735,271.843,707.664,271.141,704.98,271.141z"/>
</g>
<g>
	<path fill="#143258" d="M435.815,286.362c0.368,0,0.593-0.033,0.671-0.099c0.079-0.065,0.119-0.178,0.119-0.335
		c0-0.184-0.04-0.388-0.119-0.611c-0.078-0.224-0.145-0.428-0.197-0.612l-6.314-16.811c-0.157-0.447-0.328-0.783-0.512-1.006
		c-0.186-0.223-0.461-0.335-0.829-0.335v-0.474h5.169v0.474c-0.342,0-0.572,0.053-0.69,0.158c-0.118,0.105-0.177,0.25-0.177,0.434
		c0,0.158,0.045,0.335,0.137,0.533c0.093,0.197,0.191,0.428,0.297,0.691l5.327,14.285h0.079l5.287-15.035
		c0.08-0.237,0.119-0.434,0.119-0.592c0-0.316-0.197-0.474-0.592-0.474v-0.474h5.484v0.474c-0.473,0-0.71,0.171-0.71,0.513
		c0,0.132,0.04,0.296,0.118,0.493c0.079,0.197,0.158,0.401,0.236,0.611l5.131,14.009h0.078l5.249-14.207
		c0.052-0.184,0.104-0.335,0.157-0.454s0.08-0.256,0.08-0.415c0-0.368-0.291-0.552-0.869-0.552v-0.474h4.973v0.474
		c-0.342,0-0.592,0.092-0.75,0.276s-0.342,0.54-0.553,1.065l-6.195,16.731c-0.132,0.342-0.236,0.605-0.315,0.79
		s-0.118,0.381-0.118,0.592c0,0.237,0.263,0.355,0.789,0.355v0.474h-5.209v-0.474c0.342,0,0.559-0.033,0.651-0.099
		c0.092-0.065,0.138-0.164,0.138-0.296c0-0.184-0.053-0.401-0.158-0.651s-0.197-0.48-0.275-0.691l-5.288-14.364h-0.079
		l-5.287,14.758c-0.054,0.158-0.105,0.31-0.158,0.454c-0.053,0.145-0.079,0.31-0.079,0.493c0,0.263,0.263,0.395,0.789,0.395v0.474
		h-5.604V286.362z"/>
</g>
</svg>
