<svg version="1.1" xmlns="http://www.w3.org/2000/svg" viewBox="0 0 100 89.9" width="100" height="90">
<style>.st0{fill:#FFF}</style>
<path class="st0" d="M99.6,8.8c0.9-1.9-1.9-4.7-2.8-4.7c0,0-5.6,0-7.5,0c-0.5,0-1.1-0.8-1.9-0.9c-0.9-0.2-2.8,0-2.8,0 S83,1.3,81.8,1.9c-1.9,0.9-0.4,4.5-0.4,4.5c-5.6,4.7-5.1,12.2-10.5,12.2c-4.3,0-8.7-6.1-13.3-8c-1.8-0.7-5.2-1.2-7-2.2 c-3.1-1.6-4.5-7.3-12-7.3s-10.8,7-14.6,9.5c-2.8,1.9-12.1,4.7-12.1,11.2c0,0.3-2.6,10.3-3.5,12.1c-0.1,0.3-5.4,4.5-4.5,6.4 c0.1,0.1,3.6,0.1,5.4-5.5c1.2-3.5,2.8-9.3,2.8-9.3s0.5,2.1,0.8,3.7c0.3,2.3,0.5,4.4,0.2,5.6c-0.3,1-4.9,8.3-7.5,12.1 c-1.9,2.8-3,2.2-3.7,3.7c-0.9,0.9,0.1,4.9,0,6.5c-0.7,3.5-2.2,9-1.9,12.1c0.1,0.8,0.2,2.4,0.9,2.8h6.5c0-2.8-3.1-2.6-3.7-3.7 c-0.9-1.9,0.3-8.7,0.7-10.2c0.6-2.5,2.1-2.9,3-4.7c0.8-1.6,0.1-1.5,0.9-2.8c1.9-2.8,7.3-6.5,7.3-6.5l-0.9,8.2c0,0.1,0,0.3,0,0.4 l2.7,8.2l2.8,11.2h7.5c0-3.7-3.4-2.9-4.7-3.7c-1-0.7-1.7-3.4-1.9-4.7c-0.3-1.9-0.8-5.6-0.9-7.5c-0.1-1.4-0.2-4.2,0-5.6 c0.3-2.1,1-6.4,1.9-8.4c0.7-1.5,2.9-3.4,3.4-5c0.2-0.7-0.1-2.9,0.3-3.5c0.6-1,2.1-1.5,2.8-1.4c1.7,0.1,4.9,1.4,6.5,1.9 c2.5,0.7,10.3,2.3,10.3,2.3s-2.2,8.7-3.7,11.2c-0.6,1-2,2-2.3,3.1c-0.3,1.1-0.2,4.1-0.5,5.3c-0.7,2.7-3.8,7.6-4.7,10.3 c-0.4,1.4-0.9,5.6-0.9,5.6h6.5c0-2.8-1.4-2.8-1.9-3.7c-1.1-2.5,2.2-8,3.7-10.3c0.6-0.8,2.3-1.9,2.8-2.8c0.5-0.8,0.6-2.8,0.9-3.7 c1.2-3.6,7.5-13.1,7.5-13.1l2.8-1.9c0,0,2.8,2.8,4.7,13.1c0.3,1.4,0.4,4.3,0.9,5.6c0.3,0.8,2.1,3.5,2.5,4.3c1.6,3.3,4,12.6,4,12.6 h7.5c0-3.7-3.4-2.9-4.7-3.7c-2.2-1.6-3.7-10.3-3.7-10.3s0.3-2.8,0-3.7c-0.2-0.6-0.7-1.2-0.9-1.9c-0.9-2.8-1.9-8.4-1.9-12.1 c0-1.9-0.9-7.5,1.9-7.5s7.7-0.6,10.5-2.5c7.3-4.9,8.9-13.6,11.9-18.1C90.2,9.7,99,9.9,99.6,8.8z"/>
</svg>
