<?xml version="1.0" encoding="utf-8"?>
<!-- Generator: Adobe Illustrator 21.0.2, SVG Export Plug-In . SVG Version: 6.00 Build 0)  -->
<svg version="1.1" id="Ebene_1" xmlns="http://www.w3.org/2000/svg" xmlns:xlink="http://www.w3.org/1999/xlink" x="0px" y="0px"
	 viewBox="0 0 58 42" style="enable-background:new 0 0 58 42;" xml:space="preserve">
<style type="text/css">
	.st0{fill:#FFFFFF;}
</style>
<path class="st0" d="M57.3,9c-0.5-0.3-1.5-0.4-1.7-0.1C52,14,44.9,15.4,42,15.8l-0.4,0l0.2-0.4c0.2-0.3,0.5-0.7,1-1.2
	c1.1-1.1,2.7-2.7,2.9-5.7C45.9,5.1,43,2.6,37,1.1c-1.5-0.4-3.9-0.4-5.2-0.4c0,0-0.1,0-0.1,0c0.8,0.6,2.4,1.8,3.6,3.7
	c1,1.4,1.6,2.6,1.9,3.8c0.4,1.6,0.2,3.4-0.3,4.1c-0.2,0.2-0.4,0.3-0.6,0.3c-1-0.1-1.5-1.9-2.2-4c-0.4-1.3-0.8-2.6-1.3-3.5
	c-0.8-1.4-2.2-3-4.2-3.5c-1.6-0.3-3.4,0.3-5,1l-0.1,0c-1,0.4-2,0.9-3.1,1.4c-0.1,0-0.2,0.1-0.4,0.2c0.5,0.1,1.5,0.4,2.8,1
	c5.1,2.4,8,6.9,8.7,8.2c0.5,0.9,0.6,1.8,0.1,2.2c-0.4,0.4-1.1,0.2-1.9-0.4c-1-0.8-1.8-1.9-2.6-3c-0.5-0.7-1-1.4-1.5-2
	c-1.4-1.6-2.3-2.2-3.9-3.1c-1.1-0.6-2.8-1.2-4.1-1C15.6,6.3,13,8.8,12,9.8c0.5,0,1.2,0,1.9,0.3c1.4,0.5,4.2,1.5,7.2,3.3
	c1.3,0.8,4.3,2.8,4.5,4.2c0.1,0.3,0,0.6-0.2,0.8c-0.7,0.9-1.8,0.1-4.6-1.8c-1-0.7-2.2-1.5-3.6-2.4c-4.5-2.9-7-1.9-7.8-1.3
	c-1.2,0.8-3.7,3.5-5.2,6.1c0.5-0.1,0.9-0.2,1.3-0.2l0.4,0c1.5-0.1,3.9-0.2,6.9,0.4c2.9,0.5,6.4,1.7,7.4,2.9c0.5,0.5,0.6,1,0.5,1.3
	c-0.2,0.4-0.8,0.5-1.3,0.6c-1,0.1-3.1-0.8-4.5-1.5c-0.3-0.1-0.6-0.3-0.8-0.3c-2.3-1-5.8-1.6-7.9-1.4c-1.5,0.1-2.4,0.5-2.9,1.2
	c-0.7,0.9-0.8,2.3-0.8,3.5c0,0.6,0,1.4-0.3,2.4c1.2-0.9,3.1-1.5,6.1-1.9c1.9-0.2,3.4,0,3.9,0.6c0.2,0.2,0.2,0.5,0.1,0.7
	c-0.4,1-2.3,0.9-4.5,0.8l-0.2,0c-1.6-0.1-4.3,0.8-4.7,1.6c-0.4,0.6-0.5,1.5-0.6,2.6c0,0.4-0.1,0.9-0.2,1.4c-0.2,1.2-0.9,2-1.3,2.4
	c0.7,0.2,2.3,0.5,3.4,0.7c0.5,0.1,1,0.4,1.7,0.7c0.7,0.4,1.5,0.8,2,0.8c0,0,0,0,0,0c0.8,0,2-0.5,3.3-2.6c1-1.6,1.6-2.3,2.4-3.1
	l0.1-0.2c1.2-1.2,1.6-1.1,1.7-1c0.2,0.1,0.3,0.3,0.2,0.6c-0.2,1.3-1.5,3.2-2.2,4.3c-0.9,1.5-2.5,2.8-3.3,3.4c0.2,0,0.5,0.1,0.9,0.1
	c0.2,0,0.4,0.1,0.7,0.2c0.9,0.2,2.5,0.6,3.4,0.6c1.1-0.1,2.9-1.8,3.6-3.9c0.4-1,2.3-6,3.3-6.4c0.1-0.1,0.3,0,0.3,0
	c0.5,0.3,1.4,1.1,0.3,3.7c-1.1,2.7-2,3.9-3.5,5.7c-0.4,0.4-1.1,1.1-1.5,1.5c0.3,0,0.8,0.1,1,0.1c1.7,0.1,3.7,0.2,5.2-0.8
	c1.3-0.9,2-2.1,2.5-4.4c0.1-0.7,0.2-1.4,0.3-2.2c0.1-0.6,0.1-1.2,0.3-1.9l0-0.4c0.3-2.1,0.4-3.3,1-4.3c0.2-0.4,0.7-0.5,1-0.4
	c0.4,0.1,1.2,0.8,0.9,3.6c-0.5,4.3-1.1,6.8-2,8.4c-0.4,0.8-0.9,1.5-1.3,1.9c1.3-0.2,2.8-0.5,3-0.6c0.3-0.1,0.6-0.2,0.9-0.2
	c0.3-0.1,0.6-0.2,0.9-0.2c3.8-1.1,3.7-5,3-8.1c-0.2-0.7-0.4-1.4-0.6-2.1c-0.3-1-0.7-3.2-0.2-4c0.1-0.2,0.3-0.3,0.5-0.3c0,0,0,0,0,0
	c1.2,0,2.6,3.1,3.1,5.2c0.3,1.4,0.7,4.7-1,7.6c0.2-0.1,0.4-0.2,0.6-0.2c0.4-0.2,0.9-0.4,1.2-0.5c0.2-0.1,0.3-0.1,0.5-0.2
	c0.7-0.3,1.4-0.6,2.1-1.2c0.8-0.6,1.4-1.5,1.7-2.3c0.7-2.3-0.6-4.9-1.4-6.2c-0.2-0.3-0.4-0.7-0.7-1c-1.1-1.6-2.4-3.5-2.1-4.4
	c0.1-0.2,0.2-0.4,0.4-0.5c0.2-0.1,0.5-0.1,0.8,0c1.7,0.6,4.8,4.2,5.4,6.3c0.7,2.1,0.5,3.5,0.4,4.8c0,0.1,0,0.1,0,0.2
	c0.8-0.8,1.5-1.7,2.1-2.6c2.2-3,3.2-6.4,2.4-8.5c-0.8-2.3-2.9-3.4-4-3.9l-3.1-1.4l0.7-0.1C47,16.1,54,14.5,57.5,9.4
	C57.5,9.3,57.6,9.2,57.3,9z"/>
</svg>
