<?xml version="1.0" encoding="utf-8"?>
<!-- Generator: Adobe Illustrator 21.0.2, SVG Export Plug-In . SVG Version: 6.00 Build 0)  -->
<svg version="1.1" id="Ebene_1" xmlns="http://www.w3.org/2000/svg" xmlns:xlink="http://www.w3.org/1999/xlink" x="0px" y="0px"
	 viewBox="0 0 83 53" style="enable-background:new 0 0 83 53;" xml:space="preserve">
<style type="text/css">
	.st0{fill:#FFFFFF;}
</style>
<g>
	<path class="st0" d="M82.1,18.1l-0.6-0.5c-0.5-0.4-1.2-0.3-1.6,0.2c-1.7,2.2-13.9,11.4-34.7,7.7c-0.5-0.1-1-0.1-1.5,0
		c-0.4,0.1-0.8,0.2-1,0.6l-4.9,10.2c-0.4,0.8,0.2,1.6,1,1.6c6.1,0,17,0,23.3-0.1c12.1-0.2,18.8-13.5,20.6-17.8
		C83,19.5,82.8,18.6,82.1,18.1z"/>
	<path class="st0" d="M33.5,40.6c-0.1-0.4-0.1-0.8,0.1-1.1l11.8-24.6c0.3-0.6,0-1.3-0.6-1.6c-0.6-0.3-1.3,0-1.6,0.6L31.4,38.4
		c-0.2,0.4-0.5,0.6-0.8,0.8l-2.4,1c-0.3,0.1-0.6,0.4-0.8,0.7l-3.4,7.2c-0.4,0.8,0,1.7,0.7,2l2,1l2,1c0.8,0.4,1.7,0,2-0.7l3.4-7.2
		c0.2-0.3,0.2-0.7,0.1-1.1L33.5,40.6z"/>
	<path class="st0" d="M26.8,37.8l2.6-1.1c0.3-0.1,0.6-0.4,0.7-0.7l5.2-10.9c-20.8-2.8-22.6-14.3-22.6-14.3l-0.1,0
		c-1-3-2.8-5.8-5.7-7.6c0,0-0.1-0.1-0.2-0.1C5.1,1.9,3.2,1.2,1,1.1v9.4c2.6,0.1,4.1,0.8,4.4,0.9c2.4,1.4,3.9,3.2,4.7,5.3
		c0,0,0.4,0.9,0.5,2.2C10.4,19,10.2,19,10,19H7c-0.3,0-0.6,0.3-0.6,0.6v1.2c0,0.3,0.3,0.6,0.6,0.6h3.6c0.1,0.4,0.3,0.9,0.4,1.3H7
		c-0.3,0-0.6,0.3-0.6,0.6v1.2C6.4,24.8,6.7,25,7,25H12c0.2,0.4,0.8,1.3,1,1.7H7.4c-0.3,0-0.6,0.3-0.6,0.6v1.2c0,0.3,0.3,0.6,0.6,0.6
		h6.7c0.1,0,0.1,0,0.2,0c4.2,6.9,9.2,8.9,9.2,8.9s0.9,0,2.4,0C26.1,38,26.5,37.9,26.8,37.8z"/>
</g>
</svg>
