<?xml version="1.0" encoding="utf-8"?>
<!-- Generator: Adobe Illustrator 25.0.1, SVG Export Plug-In . SVG Version: 6.00 Build 0)  -->
<svg version="1.1" xmlns="http://www.w3.org/2000/svg" xmlns:xlink="http://www.w3.org/1999/xlink" x="0px" y="0px"
	 viewBox="0 0 1095.5 686.5" style="enable-background:new 0 0 1095.5 686.5;" xml:space="preserve">
<style type="text/css">
	.st0{fill:#E2E2E3;}
	.st1{fill:#F0F0F0;}
	.st2{fill:#FFFFFF;}
	.st3{clip-path:url(#SVGID_2_);fill:#F0F0F0;}
	.st4{clip-path:url(#SVGID_4_);fill:none;stroke:#62B3EA;stroke-width:1.1339;stroke-miterlimit:3.8637;}
	.st5{fill:#62B3EA;stroke:#62B3EA;stroke-miterlimit:10;}
	.st6{fill:#62B3EA;}
	.st7{fill:none;stroke:#000000;stroke-width:0.95;stroke-miterlimit:3.8637;}
	.st8{fill:none;stroke:#62B3EA;stroke-width:0.7599;stroke-miterlimit:3.8637;}
	.st9{fill:#1D1D1B;}
	.st10{fill:none;stroke:#000000;stroke-miterlimit:3.8637;}
	.st11{fill:none;stroke:#062E89;stroke-width:2;stroke-miterlimit:10;stroke-dasharray:3,3;}
	.st12{fill:none;stroke:#062E89;stroke-width:2;stroke-miterlimit:10;}
	.st13{fill:#20201E;}
	.st14{fill:#062E89;}
</style>
<g id="Hintergrund">
</g>
<g id="Ebene_1">
	<rect x="146.2" y="0.9" class="st0" width="217.1" height="171.4"/>
	<g>
		<path class="st1" d="M557.7,245.2c-3.1,0.8-3.9,6-8.1,8.5c-4.2,2.5-9.4,0.6-9.8,3.1c-0.4,2.5,0,12.3-2.1,14.8
			c-2.1,2.5-4.3,6.6-7.7,6.4c-3.4-0.1-15-6-17.9-3.1c-2.9,2.9-3.8,7.7-5.9,9.4c-2.1,1.7-5.6,4.8-5.2,7.7c0.4,2.9,3.6,6,1.4,7.7
			c-2.2,1.7-5.9,0.7-9-1c-3.1-1.7-7.7-1.8-9.4,0c-1.7,1.8-4.8,3.1-6.9,2.2c-2.1-0.8-3.8,0.8-2.9,2.9c0.8,2.1,0.8,17.9,0.4,20.9
			c-0.4,2.9-2,5.6-3.4,8.5c-1.4,2.9,0.7,9-1.4,10.2c-2.1,1.3-5.3,5-9.2,5c-3.9,0-7.1-0.8-9.4,0.4c-2.2,1.3-2.2,5.2-5.6,5.6
			s-10.9-1.3-14.8,0s-9,9-11.1,9c-2.1,0-8-6.4-12.7-5.6c-4.8,0.8-7.3,7.3-9,7.3c-1.7,0-6.9-2.1-8.5-1.3c-1.7,0.8-0.8,2.5-2.1,4.6
			c-1.3,2.1-3.9,4.3-3.9,7.7c0,3.4-1.5,8.1,1.8,9.4c3.4,1.3,11.6,6.4,10.6,9.8c-1,3.4,1.5,9.7-1.8,9.2c-3.4-0.4-9.7,1.4-5.5,3.5
			c4.2,2.1,9,1.7,9,3.8c0,2.1,8.4,3.9,8,5.6c-0.4,1.7-3.8,9.8-3.8,9.8s14.3,1.7,15.3,3.4c1,1.7,5.6,6.3,7.7,5
			c2.1-1.3,3.5-5.9,6.9-5.9s7.3-2.1,9.8-0.8c2.5,1.3,3.6,4.6,5.9,5.5c2.2,0.8,8.5,2.2,6.9,6c-1.7,3.8-6,8.1-6.9,11.1
			c-0.8,2.9-1.3,8.1-4.2,8.5c-2.9,0.4-6,0.8-6.4,2.9c-0.4,2.1,0.1,6.4,1.8,9.4c1.7,2.9,5,6.9,2.9,9.4c-2.1,2.5-4.3,7.1-6.4,5.9
			c-2.1-1.3-3.8-6.7-5.5-5c-1.7,1.7-0.4,5.6,0.8,8.1c1.3,2.5,3.4,2.9,2.5,6.7c-0.8,3.8,2.4,5.6,4.6,6.9c2.2,1.3,17.9,14.8,17.9,14.8
			s3.5-1.3,5.2,0c1.7,1.3,0.8,3.4,3.4,2.9c2.5-0.4,2-5.9,5.5-3.8c3.5,2.1,11.6,9.8,15,11.1c3.4,1.3,6,0.7,8.1,3.4
			c2.1,2.7,1.7,3.9,3.8,4.8c2.1,0.8,7.3-0.4,8.1,1.7c0.8,2.1,0.4,6.9,2.5,6.9c2.1,0,5.6-1.7,7.7,0c2.1,1.7,0.8,4.2,2.9,5
			c2.1,0.8,13,6.9,16.1,7.3c3.1,0.4,6-2.5,6-2.5s4.8,2.1,7.7,2.9c2.9,0.8,4.5,2.9,7.1,3.8c2.7,0.8,9.1-6.7,12-5.9
			c2.9,0.8,2.9,6.3,5.5,6.3c2.5,0,12.9-8.4,16.7-6.7c3.8,1.7,22.8,6.7,27.2,5.9c4.3-0.8,15.8-6.4,18.8-8.5c2.9-2.1,6-3.8,9-3.8
			c2.9,0,4.5-7.7,6.3-9.4c1.8-1.7,5.5,1.3,9.4,1.7c3.9,0.4,6-3.8,7.7-5c1.7-1.3,10.6-2.9,11.1-1.3c0.4,1.7-0.4,5.3,1.3,6.7
			s-2.9,8.1-0.8,8.5c2.1,0.4,8.1-0.8,8.5,0.8c0.4,1.7,0.4,4.9,2.9,3.5c2.5-1.4,4.3-6.9,6.9-6.4c2.5,0.4,6.2,0,6.7,2.1
			c0.6,2.1-0.7,2.7,0.6,4.8c1.3,2.1,8.4,6.4,8.4,9.4c0,2.9,1.5,11.1,2.1,14.4c0.6,3.4,0.8,5.6-1.3,8.5c-2.1,2.9-7.4,4.9-8.8,6.7
			c-1.4,1.8,1.4,2.7-0.4,4.8c-1.8,2.1-2.7,4.1-1.8,7.1c0.8,3.1-1.7,8.8-0.4,11.1c1.3,2.2,4.8,3.2,5.2,1c0.4-2.2,5.2-5.6,9-5.2
			c3.8,0.4,9,10.2,11.5,11.5c2.5,1.3,7.4,1.1,8,3.4c0.6,2.2-6.3,7.1-5.5,9.8c0.8,2.7,11.1-2.2,12.3,0.8c1.3,3.1,0.3,9,4.2,9
			c3.9,0,7.1-6.3,9.4-5.5c2.2,0.8,7.6,8,9.8,5.9c2.2-2.1-0.6-16.9,1.7-17.8c2.2-0.8,10.6-0.8,10.6-0.8s1-6,4.8-5.6
			c3.8,0.4,2.8,4.9,5,4.3c2.2-0.6,3.9-3.9,6.4-3.9c2.5,0,3.5,3.4,6.4,1.3c2.9-2.1,2.9-4.6,5.5-4.6c2.5,0,7.3,0.1,9.4-2.1
			c2.1-2.2,2.7-9.4,6.9-8.5c4.2,0.8,6.2,5.5,8.4,5.5c2.2,0,8,1.3,10.2-1.3c2.2-2.5,5.6-2.1,4.3,0.4c-1.3,2.5-0.8,9.7,2.9,11.9
			c3.8,2.2,14.6,5.2,17.5,3.9c2.9-1.3,11.1-5.6,13.6-5.2c2.5,0.4,1.5,4.3,4.2,4.3c2.7,0,11.2-8.1,12.9-6c1.7,2.1,0.4,9.7,2.9,12.7
			c2.5,3.1,9.1,4.6,7.3,1.7c-1.8-2.9-6-8.7-3.5-9.7c2.5-1,5-2.5,5.9-3.7c0.9-1.2,0.8-2.5,2.4-2.6c1.6-0.1,9.4-0.8,11.1-2.2
			c1.7-1.4,23.1-17.5,24.3-19.4c1.2-1.9,1.9-3.2,2.1-4.7c0.2-1.5,1.4-2.2,2.5-2c1.1,0.2,16.4-2.3,20.3-4.5c3.9-2.2,7.5-5.6,9.5-5.8
			c2.1-0.2,5.7,0.6,7.2-0.4c1.5-1,1.1-6.6,2.1-9.3c1-2.7,2.7-6.6,5.3-7.3c2.7-0.7,6.6,0.7,7.6-2.7c1-3.3,0-5.7,1.7-6.7
			c1.7-1,4.3-2.3,3.3-4.7c-1-2.3-2-4.7,0-5.3c2-0.7,6.3-1,7-2.7c0.7-1.7,2.3-10,2.3-12.3c0-2.3-0.3-6.3,2-5.7c2.3,0.7,5.3,3.7,5.7,2
			c0.3-1.7-1.7-14-3-15c-1.3-1-3.7-4-1.3-4.7c2.3-0.7,4.7,0.7,5.3-1.3c0.7-2,3.3-16.6,4.3-20.9c1-4.3,1.3-9.3,3.7-9
			c2.3,0.3,5.3,0.7,4-2.3c-1.3-3-2.7-9-2.3-11.3c0.3-2.3,4.3,0.3,3.7-1.7c-0.7-2-3.3-1.7-3.7-5.3c-0.3-3.7-1.3-5.3-3.7-4.3
			c-2.3,1-8.3,2-9.6,0c-1.3-2-1.7-5.3,0.3-7.6c2-2.3,5.7-4.3,4-5.7c-1.7-1.3-4.7-2.3-6.3-5c-1.7-2.7,2.7-4,2.3-6
			c-0.3-2-16.3-11.6-20-15c-3.7-3.3-6.3-7.3-9-10.3c-2.7-3-3.3-6.7-6.3-6c-3,0.7-10-3.3-12.3-4c-2.3-0.7-3-8.3-1.3-11
			c1.7-2.7,5.3-4,5-6.3c-0.3-2.3,3-3,2.7-5.3c-0.3-2.3-1-8,1.7-10c2.7-2,5.7-7,8-7.6c2.3-0.7,12.3-2,11-4.7c-1.3-2.7-2.7-8.3-5-6.3
			c-2.3,2-7,4-10.6,4s-14-3-15.6-0.3c-1.7,2.7-0.3,10-3,12c-2.7,2-8,3-10.6,0c-2.7-3-8.3-7.6-12-7.3c-3.7,0.3-10,1.3-11.3-2.3
			c-1.3-3.7-3.7-9.3-2.3-10.6c1.3-1.3,6.3-0.7,8.6-2.7c2.3-2,3.3-8.3,5.3-10.3c2-2,8.3-6.6,9.3-9.6c1-3,4.7-5.7,5.3-8.6
			c0.7-3,1.3-7,4.3-9c3-2,7.6-1.3,9.6,0.3c2,1.7,0.3,7,0,8.3c-0.3,1.3-4.7,5.3-3,7.3c1.7,2,5.7,3.3,4.7,6c-1,2.7-4.3,6.6-2.3,7
			c2,0.3,7.3-4,8-7c0.7-3,4.7-10.3,7.6-12.3c3-2,11.3-6.3,13.6-10c2.3-3.7,14.3-21.6,15-24.6c0.7-3-1.7-8,1-9
			c2.7-1,13.3,1.3,15.3-3.3c2-4.7-2.7-10.3-0.7-12.6c2-2.3,6-1.7,6.7-4.3c0.7-2.7,0.3-13,2.7-14c2.3-1,11,1.3,11,1.3
			s-1.3-12.6-2.7-16.3c-1.3-3.7-9.3-16.3-10.6-18.6c-1.3-2.3-3.7-9.6-1.7-10.6c2-1,11.6,2.7,13-0.3c1.3-3,2.3-13,1-18
			c-1.3-5-7.6-14-7.6-18c0-4,3.3-7,1.7-10.3c-1.7-3.3-4-4-4-6.6c0-2.7-0.3-6-4-4.3c-3.7,1.7-7.6,10.3-10.3,13.3c-2.7,3-3.7,9.6-6,11
			c-2.3,1.3-5.7,0-8.3,1.3c-2.7,1.3-4,4.7-5.7,4c-1.7-0.7-2-4.3-4-5c-2-0.7-5.3-2.7-7-5c-1.7-2.3-1.7-1-4-0.3
			c-2.3,0.7-4-3.7-5.3-2.7c-1.3,1-3.3,3-7,3c-3.7,0-13,4-14.6,2.3c-1.7-1.7-9.6-9.3-12-11.3c-2.3-2-13.6-10.3-14.6-13
			c-1-2.7-2-6.3-5-7c-3-0.7-11-7.6-16-5.7c-5,2-6.3,3-10,2.7c-3.7-0.3-11.6-1.7-14-1.7c-2.3,0-3.3,5-6.3,7.3c-3,2.3-8,3.3-8.6,5.3
			c-0.7,2,0.3,4.7-2,6.6c-2.3,2-4.7,3-4.3,4.7c0.3,1.7,5,0.7,5,2.3c0,1.7,1,4.3,2.7,6c1.7,1.7,2.3,2,1,4c-1.3,2-2,10-1.7,14.6
			c0.3,4.7-2,10-2,12.3c0,2.3,3.3,4,2,5.3c-1.3,1.3-5.3,3-6.3,5.7c-1,2.7-2,4.3-3.7,3.7c-1.7-0.7-3.3-3.7-5-2.3
			c-1.7,1.3-6.3,0-7,3.3c-0.7,3.3-2.3,24.3-0.7,26.9c1.7,2.7,5,2.7,7,1c2-1.7,4-4.3,6.6-4c2.7,0.3,7.3,1.7,7.6-1
			c0.3-2.7,4-8,6.3-7.6c2.3,0.3,5,3.7,7,3.7c2,0,3.7,3.7,5,4.3c1.3,0.7,6.3,0.7,6.3,3c0,2.3,0.7,5.3-2.3,5.7c-3,0.3-9.3,1.7-12,2.7
			c-2.7,1-8.6,6.7-9,8.6c-0.3,2,0.7,3.3-1.7,4.7c-2.3,1.3-3-0.7-3.7,3c-0.7,3.7-1,8.3-4,10.3c-3,2-8,3.3-11,7c-3,3.7-4,9-7.3,10.6
			c-3.3,1.7-12.3-0.7-16,3.3c-3.7,4-2.3,7-0.7,12.6c1.7,5.7,2,10.3-1.3,14c-3.3,3.7-12.6,16.3-16.6,18c-4,1.7-22.9,3.7-27.3,6.6
			c-4.3,3-16,13.3-20.6,14.6c-4.7,1.3-10.3-1.3-12.6-0.3c-2.3,1-11.6,3.7-15,2.7c-3.3-1-19.3-14.6-23.6-13.6c-4.3,1-5.7,5.3-9.3,7.3
			c-3.7,2-43.9,3.3-47.2,1c-3.3-2.3-5-8.3-8-10c-3-1.7-2-6.7-5.3-9.3c-3.3-2.7-12-3.3-16-5.7c-4-2.3-8-5.3-12.3-5.7
			c-4.3-0.3-20.3,2-23.6-0.7c-3.3-2.7-5-10.6-5-14c0-3.3-4-5.3-3-8.6c1-3.3,2.7-7.3,2-10c-0.7-2.7-4.3-7.3-8.3-8.3
			c-4-1-7.3-0.3-12-3.7c-4.7-3.3-10.6-5.7-11.6-8.3c-1-2.7,0.7-6.7,0-8C559.6,244.5,557.7,245.2,557.7,245.2L557.7,245.2z"/>
		<path class="st0" d="M707.9,559.6c0.1-0.3,0.2-0.5,0.2-0.5c1.1-1.4-1.8-14.6-1.4-16.9c0.4-2.3,2.9,1.1,5.4-0.7
			c2.5-1.8,2.5-7.6,3-9.2c0.5-1.6,0.4-5.8-0.9-7.6c-1.2-1.8-3.6-4.1-3.3-6.3c0.4-2.2-1.4-10.3-2.2-11.7c-0.7-1.4-5.2-1.1-2.5-3.6
			c2.7-2.5-5.6-3.4-6.7-5.6c-1.1-2.2-2.5-6.5-3.6-9.2c-1.1-2.7-7.7-4-10.3-3.6c-2.5,0.4-1.8,4-2.5,6.7c-0.7,2.7-4.1,2.2-5.9,3.3
			c-1.8,1.1,0,5.1-1.8,4.3c-1.8-0.7-4.8-2.5-4.8-2.5s-0.4,4.7-0.7,6.7c-0.4,1.9-2.2-2.7-3.3-4.1c-1.1-1.4-5.1,0.4-7.4-1.1
			c-2.3-1.4,0.7-2.5,0.4-4.3c-0.4-1.8-4.3-2.5-6.2-2.5c-1.8,0-3.8-3.8-5.6-6.7s-6.2,2.9-7.7,4c-1.6,1.1-1.4,0-4-1.8
			c-2.5-1.8-5.1,0.4-6.7,0c-1.6-0.4-13.5-1.8-17.2-3.3c-3.6-1.4-7-5.2-8.1-7.4c-1.1-2.2-5.4,1.8-8.5,3.6c-3,1.8-6.5-2.9-9.6-6.9
			c-3-4-6.2-4.8-7.2-7c-1.1-2.2,2.2-2.9,2.5-5.4c0.4-2.5-1.4-6.3,0.4-7.7c1.8-1.4-1.8-2.2-3.6-2.2s-0.7-4.5-0.4-7.4
			c0.4-2.9,3.6-3.6,4-5.4c0.4-1.8-3.3-2.3-5.1-4.8s5.8-2.2,4.3-2.9c-1.4-0.7-18-4.5-22.4-5.9c-4.3-1.4-6.7-3.3-8.5,0.7
			c-1.8,4-12.8,4.5-15.4,5.9c-2.5,1.4-6.7,7.7-8.1,7c-1.4-0.7-5.6-3.4-10.6-1.2c-5.1,2.2-12.8,3-16.6,3c-3.8,0-7.2-4.8-9.6-5.9
			c-2.3-1.1-8.3,4.8-10.6,6.3c-2.3,1.4-3.6-0.4-5.8-1.8c-2.2-1.4-5.9,0.4-8.1,0c-2.2-0.4-3.6-3-6.3-2.7c-2,0.3-4.1,2.5-5,3.5
			c-0.9-2.2-5.2-3.3-7-3.9c-2.2-0.8-3.4-4.2-5.9-5.5c-2.5-1.3-6.4,0.8-9.8,0.8s-4.8,4.6-6.9,5.9c-2.1,1.3-6.7-3.4-7.7-5
			c-1-1.7-15.3-3.4-15.3-3.4s3.4-8.1,3.8-9.8c0.4-1.7-8-3.5-8-5.6c0-2.1-4.8-1.7-9-3.8c-4.2-2.1,2.1-3.9,5.5-3.5
			c3.4,0.4,0.8-5.9,1.8-9.2c1-3.4-7.3-8.5-10.6-9.8c-3.4-1.3-1.8-6-1.8-9.4c0-3.4,2.7-5.6,3.9-7.7c1.3-2.1,0.4-3.8,2.1-4.6
			c1.7-0.8,6.9,1.3,8.5,1.3c1.7,0,4.2-6.4,9-7.3c4.8-0.8,10.6,5.6,12.7,5.6c2.1,0,7.1-7.7,11.1-9s11.5,0.4,14.8,0s3.4-4.3,5.6-5.6
			c2.2-1.3,5.5-0.4,9.4-0.4c3.9,0,7.1-3.8,9.2-5c2.1-1.3,0-7.3,1.4-10.2c1.4-2.9,2.9-5.6,3.4-8.5c0.4-2.9,0.4-18.8-0.4-20.9
			c-0.8-2.1,0.8-3.8,2.9-2.9c2.1,0.8,5.2-0.4,6.9-2.2c1.7-1.8,6.3-1.7,9.4,0c3.1,1.7,6.7,2.7,9,1c2.2-1.7-1-4.8-1.4-7.7
			c-0.4-2.9,3.1-6,5.2-7.7c2.1-1.7,2.9-6.4,5.9-9.4c2.9-2.9,14.6,2.9,17.9,3.1c3.4,0.1,5.6-3.9,7.7-6.4c2.1-2.5,1.7-12.3,2.1-14.8
			c0.4-2.5,5.6-0.6,9.8-3.1c4.2-2.5,5-7.7,8.1-8.5c0,0,1.9-0.6,2.6,0.7c0.7,1.3-1,5.3,0,8c1,2.7,7,5,11.6,8.3c4.7,3.3,8,2.7,12,3.7
			c4,1,7.6,5.7,8.3,8.3c0.7,2.7-1,6.7-2,10c-1,3.3,3,5.3,3,8.6c0,3.3,1.7,11.3,5,14c3.3,2.7,19.3,0.3,23.6,0.7
			c4.3,0.3,8.3,3.3,12.3,5.7c4,2.3,12.6,3,16,5.7c3.3,2.7,2.3,7.6,5.3,9.3c3,1.7,4.7,7.6,8,10c3.3,2.3,43.6,1,47.2-1
			c3.7-2,5-6.3,9.3-7.3c4.3-1,20.3,12.6,23.6,13.6c3.3,1,12.6-1.7,15-2.7c2.3-1,8,1.7,12.6,0.3c4.7-1.3,16.3-11.6,20.6-14.6
			c4.3-3,23.3-5,27.3-6.6c4-1.7,13.3-14.3,16.6-18c3.3-3.7,3-8.3,1.3-14c-1.7-5.7-3-8.6,0.7-12.6c3.7-4,12.6-1.7,16-3.3
			c3.3-1.7,4.3-7,7.3-10.6c3-3.7,8-5,11-7c3-2,3.3-6.7,4-10.3c0.7-3.7,1.3-1.7,3.7-3c2.3-1.3,1.3-2.7,1.7-4.7c0.3-2,6.3-7.6,9-8.6
			c2.7-1,9-2.3,12-2.7c3-0.3,2.3-3.3,2.3-5.7c0-2.3-5-2.3-6.3-3c-1.3-0.7-3-4.3-5-4.3c-2,0-4.7-3.3-7-3.7c-2.3-0.3-6,5-6.3,7.6
			c-0.3,2.7-5,1.3-7.6,1c-2.7-0.3-4.7,2.3-6.6,4c-2,1.7-5.3,1.7-7-1c-1.7-2.7,0-23.6,0.7-26.9c0.7-3.3,5.3-2,7-3.3
			c1.7-1.3,3.3,1.7,5,2.3c1.7,0.7,2.7-1,3.7-3.7c1-2.7,5-4.3,6.3-5.7c1.3-1.3-2-3-2-5.3c0-2.3,2.3-7.6,2-12.3
			c-0.3-4.7,0.3-12.6,1.7-14.6c1.3-2,0.7-2.3-1-4c-1.7-1.7-2.7-4.3-2.7-6c0-1.7-4.7-0.7-5-2.3c-0.3-1.7,2-2.7,4.3-4.7
			c2.3-2,1.3-4.7,2-6.6c0.7-2,5.7-3,8.6-5.3c3-2.3,4-7.3,6.3-7.3c2.3,0,10.3,1.3,14,1.7c3.7,0.3,5-0.7,10-2.7c5-2,13,5,16,5.7
			c3,0.7,4,4.3,5,7c1,2.7,12.3,11,14.6,13c2.3,2,10.3,9.6,12,11.3c1.7,1.7,11-2.3,14.6-2.3c3.7,0,5.7-2,7-3c1.3-1,3,3.3,5.3,2.7
			c2.3-0.7,2.3-2,4,0.3c1.7,2.3,5,4.3,7,5c2,0.7,2.3,4.3,4,5c1.7,0.7,3-2.7,5.7-4c2.7-1.3,6,0,8.3-1.3c2.3-1.3,3.3-8,6-11
			c2.7-3,6.6-11.6,10.3-13.3c3.7-1.7,4,1.7,4,4.3c0,2.7,2.3,3.3,4,6.6c1.7,3.3-1.7,6.3-1.7,10.3c0,4,6.3,13,7.6,18
			c1.3,5,0.3,15-1,18c-1.3,3-11-0.7-13,0.3c-2,1,0.3,8.3,1.7,10.6c1.3,2.3,9.3,15,10.6,18.6c1.3,3.7,2.7,16.3,2.7,16.3
			s-8.6-2.3-11-1.3c-2.3,1-2,11.3-2.7,14c-0.7,2.7-4.7,2-6.7,4.3c-2,2.3,2.7,8,0.7,12.6c-2,4.7-12.6,2.3-15.3,3.3c-2.7,1-0.3,6-1,9
			c-0.7,3-12.6,20.9-15,24.6c-2.3,3.7-10.6,8-13.6,10c-3,2-7,9.3-7.6,12.3c-0.7,3-6,7.3-8,7c-2-0.3,1.3-4.3,2.3-7c1-2.7-3-4-4.7-6
			c-1.7-2,2.7-6,3-7.3c0.3-1.3,2-6.6,0-8.3c-2-1.7-6.6-2.3-9.6-0.3c-3,2-3.7,6-4.3,9c-0.7,3-4.3,5.7-5.3,8.6c-1,3-7.3,7.6-9.3,9.6
			c-2,2-3,8.3-5.3,10.3c-2.3,2-7.3,1.3-8.6,2.7c-1.3,1.3,1,7,2.3,10.6c1.3,3.7,7.6,2.7,11.3,2.3c3.7-0.3,9.3,4.3,12,7.3
			c2.7,3,8,2,10.6,0c2.7-2,1.3-9.3,3-12c1.7-2.7,12,0.3,15.6,0.3s8.3-2,10.6-4c2.3-2,3.7,3.7,5,6.3c1.3,2.7-8.6,4-11,4.7
			c-2.3,0.7-5.3,5.7-8,7.6c-2.7,2-2,7.6-1.7,10c0.3,2.3-3,3-2.7,5.3c0.3,2.3-3.3,3.7-5,6.3c-1.7,2.7-1,10.3,1.3,11
			c2.3,0.7,9.3,4.7,12.3,4c3-0.7,3.7,3,6.3,6c2.7,3,5.3,7,9,10.3c3.7,3.3,19.6,13,20,15c0.3,2-4,3.3-2.3,6c1.7,2.7,4.7,3.7,6.3,5
			c1.7,1.3-2,3.3-4,5.7c-2,2.3-1.7,5.7-0.3,7.6c1.3,2,7.3,1,9.6,0c2.3-1,3.3,0.7,3.7,4.3c0.3,3.7,3,3.3,3.7,5.3
			c0.7,2-3.3-0.7-3.7,1.7c-0.3,2.3,1,8.3,2.3,11.3c1.3,3-1.7,2.7-4,2.3c-2.3-0.3-2.7,4.7-3.7,9c-1,4.3-3.7,19-4.3,20.9
			c-0.7,2-3,0.7-5.3,1.3c-2.3,0.7,0,3.7,1.3,4.7c1.3,1,3.3,13.3,3,15c-0.3,1.7-3.3-1.3-5.7-2c-2.3-0.7-2,3.3-2,5.7
			c0,2.3-1.7,10.6-2.3,12.3c-0.7,1.7-5,2-7,2.7c-2,0.7-1,3,0,5.3c1,2.3-1.7,3.7-3.3,4.7c-1.7,1-0.7,3.3-1.7,6.7c-1,3.3-5,2-7.6,2.7
			c-2.7,0.7-4.3,4.7-5.3,7.3c-1,2.7-0.6,8.3-2.1,9.3c-1.5,1-5.1,0.2-7.2,0.4c-2.1,0.2-5.7,3.6-9.5,5.8c-3.9,2.2-19.2,4.7-20.3,4.5
			c-1.1-0.2-2.3,0.5-2.5,2c-0.2,1.5-0.9,2.8-2.1,4.7c-1.2,1.9-22.6,18-24.3,19.4c-1.7,1.4-9.5,2.1-11.1,2.2
			c-1.6,0.1-1.5,1.4-2.4,2.6c-0.9,1.2-3.3,2.7-5.9,3.7c-2.5,1,1.7,6.7,3.5,9.7c1.8,2.9-4.8,1.4-7.3-1.7c-2.5-3.1-1.3-10.6-2.9-12.7
			c-1.7-2.1-10.2,6-12.9,6c-2.7,0-1.7-3.9-4.2-4.3c-2.5-0.4-10.6,3.9-13.6,5.2c-2.9,1.3-13.7-1.7-17.5-3.9
			c-3.8-2.2-4.2-9.4-2.9-11.9c1.3-2.5-2.1-2.9-4.3-0.4c-2.2,2.5-8,1.3-10.2,1.3c-2.2,0-4.2-4.6-8.4-5.5c-4.2-0.8-4.8,6.3-6.9,8.5
			c-2.1,2.2-6.9,2.1-9.4,2.1c-2.5,0-2.5,2.5-5.5,4.6c-2.9,2.1-3.9-1.3-6.4-1.3c-2.5,0-4.2,3.4-6.4,3.9c-2.2,0.6-1.3-3.9-5-4.3
			c-3.8-0.4-4.8,5.6-4.8,5.6s-8.4,0-10.6,0.8c-2.2,0.8,0.6,15.7-1.7,17.8c-2.2,2.1-7.6-5-9.8-5.9c-2.2-0.8-5.5,5.5-9.4,5.5
			c-3.9,0-2.9-5.9-4.2-9c-1.3-3.1-11.5,1.8-12.3-0.8c-0.8-2.7,6-7.6,5.5-9.8c-0.6-2.2-5.5-2.1-8-3.4c-2.5-1.3-7.7-11.1-11.5-11.5
			c-3.8-0.4-8.5,2.9-9,5.2c-0.4,2.2-3.9,1.3-5.2-1c-1.3-2.2,1.3-8,0.4-11.1c-0.8-3.1,0-5,1.8-7.1c1.8-2.1-1-2.9,0.4-4.8
			c1.4-1.8,6.7-3.8,8.8-6.7c2.1-2.9,1.8-5.2,1.3-8.5c-0.6-3.4-2.1-11.5-2.1-14.4C712.5,563.6,710.2,561.5,707.9,559.6L707.9,559.6z"
			/>
	</g>
	<g>
		<defs>
			<polygon id="SVGID_1_" points="0.5,0.9 363.3,0.9 363.3,363.7 0.5,363.7 0.5,0.9 			"/>
		</defs>
		<clipPath id="SVGID_2_">
			<use xlink:href="#SVGID_1_"  style="overflow:visible;"/>
		</clipPath>
		<path class="st3" d="M-145.5,28.4c4-7,7.5-9.5,14-9.5c6.5,0,14.8,0,16.4-3.3c1.6-3.3,9.7-17.6,10.5-22.9c0.8-5.3-0.5-14.5,3.5-9.5
			c4,5,5.4,6.7,11.3,6.7C-84-10-66-8.9-62.8-4.7c3.2,4.2,15.6-5.3,17.2-9.5s5.6-8.4,8.9-5.9c3.2,2.5,3.5,4.2,10.7,4.2
			c7.3,0,14-2.8,21.2,2.5c7.3,5.3,8.3,10.3,14,8.6c5.6-1.7,22.8-15.3,26.9-14.5c4,0.8,14.5,5.9,18.8,1.7c4.3-4.2,5.1-12,11.5-12.8
			c6.5-0.8,24.7-5.9,28.7-9.2c4-3.3,7.8-9.2,15.3-4.2c7.5,5,23.1,5,27.9,8.4c4.8,3.3,14,7.5,18,4.2c4-3.3,12.1-10,8.1-5
			c-4,5-9.7,10.3-9.7,13.7s10.5,0,10.5,5.9c0,5.9-8.1,30.7-8.1,35.7s3.2,6.1,3.2,11.1c0,5,3,22,5.6,27.9c2.7,5.9,10.5,24.5,17.2,22
			c6.7-2.5,13.7-7.5,19.6-5c5.9,2.5,25.5,13.7,30.4,14.5c4.8,0.8,12.1-1.7,18.8-2.5c6.7-0.8,12.1,6.7,19.6,7.5
			c7.5,0.8,19.9-4.2,29.5-0.8c9.7,3.3,16.4,3.9,20.4,8.4c4,4.5,5.1,14.5,9.1,17c4,2.5,11,6.4,14.5,3.6c3.5-2.8,5.9-14.5,10.7-11.1
			c4.8,3.3,3.8,11.7,8.9,10c5.1-1.7,0.3-10.9,4.3-13.4c4-2.5,11.3,1.1,12.1-4.2c0.8-5.3-6.7-24-2.4-23.1c4.3,0.8,12.9,6.1,18,8.6
			c5.1,2.5,16.4,16.2,18.8,22c2.4,5.9,14,15.3,10.7,19.5c-3.2,4.2-6.5,9.5-0.8,12c5.6,2.5,4,10.6,7.3,15.9
			c3.2,5.3-1.1,18.9,1.6,23.1c2.7,4.2,7.5,10.3,5.9,16.2c-1.6,5.9-0.3,21.2-4.3,20.3c-4-0.8-7.3-5.9-7.3-1.7s5.6,18.7,0,19.5
			c-5.6,0.8-21.2,1.9-23.6-2.5c-2.4-4.5-2.7-11.1-5.9-6.1c-3.2,5-8.9,12.8-8.1,17c0.8,4.2,0,10.3-4,12.8c-4,2.5-12.1-5.3-18.8-7.8
			c-6.7-2.5-19.9-10.9-27.9-8.4c-8.1,2.5-16.4,12-21.2,17c-4.8,5-17.2,6.4-21.2,12.6c-4,6.1-5.1,14.5-9.1,16.2c-4,1.7-20.7,7-32,9.5
			c-11.3,2.5-25.3,3.3-25.3,3.3s6.5-16.2-0.8-20.3c-7.3-4.2-9.1-1.4-11.5-5.9c-2.4-4.5-1.6-14.5-5.6-16.2c-4-1.7-12.4,4.2-17.2,2.5
			c-4.8-1.7-31.2-15.3-36.8-12c-5.6,3.3-12.4,15.3-14.8,18.7c-2.4,3.3-5.6,14.8-7.3,8.6c-1.6-6.1,0.3-18.7-4.8-19.5
			c-5.1-0.8-22.3,5-29.5,5.9c-7.3,0.8-15.3,5-22-0.8c-6.7-5.9-7.5-11.7-11.5-5.9c-4,5.9-6.2,10-8.9,7.5c-2.7-2.5-2.7-10-7.5-6.7
			c-4.8,3.3-8.1-7.8-8.1-7.8s-12.9-1.7-18.8-5c-5.9-3.3-5.6-7-14.8-9.5c-9.1-2.5-14.8-12.3-14.8-16.7c0-4.5-2.7-11.1-9.9-7.8
			c-7.3,3.3-8.9,1.7-12.1-2.5c-3.2-4.2-25.5-16.7-29.5-22.9c-4-6.1-11.5-20.3-18-19.5c-6.5,0.8-10.5,2.5-10.5,7.5
			c0,5,0.5,12-5.1,9.5c-5.6-2.5-8.6-14.5-14.5-15.3c-5.9-0.8-14.2-19.5-20.7-19.5c-6.5,0-30.1-6.1-31.7-13.7
			c-1.6-7.5-1.9-26.5-4.3-29.8c-2.4-3.3-2.7-17.8,0.8-20.3c3.5-2.5,5.1,7,7.5,7.8c2.4,0.8,9.7-1.1,10.5-7c0.8-5.9,1.6-15.3-4-22
			c-5.6-6.7-8.1-15.3-6.5-21.2C-149.5,34.3-145.5,28.4-145.5,28.4L-145.5,28.4z"/>
	</g>
	<g>
		<defs>
			<polygon id="SVGID_3_" points="0.5,0.9 363.3,0.9 363.3,363.7 0.5,363.7 0.5,0.9 			"/>
		</defs>
		<clipPath id="SVGID_4_">
			<use xlink:href="#SVGID_3_"  style="overflow:visible;"/>
		</clipPath>
		<path class="st4" d="M-135.1,66.2c0,0,0.6,25.4,7.2,25.4c6.5,0,36.7-0.4,40.2,6.2c3.5,6.6,3.1,16.2,2.1,21.3s3.5,26,7.6,28.5
			c4.1,2.4,42.6,30.5,46.7,36.1c4.1,5.5,24.4,9.2,26.4,13.7c2.1,4.5,12.7,10.3,12.7,13.7c0,3.5-2.4,6.5,4.1,6.5
			c6.5,0,19.9-4.1,25.4-2.1c5.5,2.1,58,8.2,63.5,5.1c5.5-3.1,17.2-8.6,23.4-8.6c6.2,0,36.5,4.5,45.7,4.5c9.2,0,39.8-3.1,48.4-2.1
			c8.6,1,42,11.3,52.2,8.2c10.3-3.1,24.4-6.5,29.5-9.6c5.1-3.1,17.2-16.8,22.3-17.8c5.1-1,10.3,7.6,5.1,12.7s-13.7,11.3-13.7,15.8
			c0,4.5,9.6,6.2,9.6,11.7c0,5.5-3.1,12.1,1,16.2c4.1,4.1,17.2,3.7,12.7,9.2c-4.5,5.5-20.3,14.1-23.4,18.2
			c-3.1,4.1-14.1,23.4-20.3,25.4c-6.2,2.1-35.7,1.7-46.3,8.2c-10.7,6.5-12.7,10.3-23.4,12.7c-10.7,2.4-36.1-5.8-47.7,3.5
			c-11.7,9.2-30.5,35-29.7,35"/>
	</g>
	<path class="st5" d="M181.2,164.7c0,3.2-1.5,7.6,0.6,7.6c2.1,0,5.6-3.5,7.8-4.4c2.2-0.9,10-6.9,10.3-8.4c0.3-1.6-1-1.6-3.8-1.3
		c-2.8,0.3-6.2,3.5-8.4,2.8c-2.2-0.6-3.4-1.8-5-1.6S181.2,161.6,181.2,164.7z"/>
	<path class="st5" d="M36.6,150.6c1.1,1.5-0.4,1.8,2.2,2.9c2.5,1.1,4.5-1.8,5.9-1.5c1.5,0.4,3.3,0.8,2.5,3.7
		c-0.7,2.9,0.1,7.3-2.2,6.2c-2.3-1.1-3.4-2.9-6.3-2.9c-2.9,0-5.1-1-5.1-3.3c0-2.3-1.5-5.6,0.4-6.3C35.9,148.8,36.6,150.6,36.6,150.6
		L36.6,150.6z"/>
	<path class="st5" d="M72.9,146.6c-0.5,2.4-8.8,10.3-8.8,12.5c0,2.2,3.4,3.3,4.1,0.7c0.7-2.5,3.3-8.5,5.1-8.8
		c1.8-0.4,4.5,0.4,3.7-2.2C76.3,146.2,75.5,134.3,72.9,146.6z"/>
	<path class="st5" d="M82.1,155.8c2.5,0,4.1-2.4,6.3-1.6c2.2,0.8,5.8,0.7,4-0.7c-1.8-1.5-2.1-2.2-3.6-2.2S79.5,155.8,82.1,155.8z"/>
	<path class="st5" d="M149.7,128.9c-0.5-2.2,1-3.6-3.7-4c-4.7-0.4-10.5-1.1-16.4-0.4c-5.9,0.7-18.4,3.3-19.5,5.1
		c-1.1,1.8-2.9,5.9-1.5,7c1.5,1.1,3.6,2.9,1.1,3.3c-2.5,0.4-5.3,2.2-3,3.3c2.3,1.1,13.7,6.6,15.8,8.1c2.2,1.5,5.4,0.4,2.9-1.1
		c-2.5-1.5-12.8-6.6-12.8-8.5c0-1.8,1.5-1.8,0-4.4c-1.5-2.5-2.9-4.5-0.7-5.9c2.2-1.5,12.3-3.6,15.7-4.4c3.4-0.7,5.6,2.5,8.1,3.3
		c2.5,0.7,3-2.3,4.1,1.1c1.1,3.4,2.2,8.8,4.7,7C147,136.7,149.7,128.9,149.7,128.9L149.7,128.9z"/>
	<path class="st5" d="M189.9,222.5c1.1,1.5,0.4,4.7,0.4,4.7s-6.7,3.7-5.1,3.7c5.4,0,7.7-2.2,9.9-1.1s9.2,3.4,8.8,1.5
		c-0.4-1.9-4.1-3.4-6.3-3.7c-2.2-0.4-4.4,0.4-4.4-1.1c0-1.5,1.6-5.1-1.1-5.4c-2.7-0.4-3-0.4-4.5-0.4c-1.5,0-3.1,2-2.8,2.2
		S188.9,221.1,189.9,222.5z"/>
	<g>
		<g>
			<path d="M219.6,209.1v-11.4h2.3v9.5h4.1v1.9H219.6z"/>
			<path d="M227.5,197.7h2.2v3.7h0c0.4-0.7,1.2-1.1,2.1-1.1c1.4,0,2.2,0.8,2.2,2.4v6.4h-2.2v-5.9c0-0.9-0.3-1.2-0.9-1.2
				c-0.8,0-1.2,0.5-1.2,1.4v5.7h-2.2V197.7z"/>
			<path d="M236.2,203.1v-0.2c0-2,1.4-2.7,3-2.7c2.6,0,3.1,1.1,3.1,2.6v4.5c0,0.8,0,1.2,0.3,1.7h-2.1c-0.1-0.3-0.2-0.6-0.3-0.9h0
				c-0.5,0.9-1.1,1.1-2.2,1.1c-1.5,0-2.1-1.3-2.1-2.5c0-1.6,0.7-2.3,2.2-2.7l1.2-0.3c0.7-0.2,0.9-0.4,0.9-1c0-0.7-0.3-1.1-1-1.1
				c-0.7,0-1,0.4-1,1.1v0.2H236.2z M240.2,204.8c-0.3,0.2-0.7,0.4-0.9,0.4c-0.9,0.2-1.2,0.6-1.2,1.4c0,0.7,0.2,1.2,0.8,1.2
				s1.4-0.4,1.4-1.3V204.8z"/>
			<path d="M246.1,206.3v0.3c0,0.8,0.4,1.2,1.2,1.2c0.7,0,1.1-0.3,1.1-1c0-0.6-0.4-0.8-0.8-1l-1.6-0.6c-1.2-0.4-1.8-1.2-1.8-2.4
				c0-1.4,0.9-2.6,3.2-2.6c2,0,2.9,0.9,2.9,2.4v0.4h-2c0-0.9-0.3-1.3-1-1.3c-0.6,0-1,0.3-1,0.9c0,0.4,0.2,0.8,1,1l1.3,0.4
				c1.4,0.5,1.9,1.2,1.9,2.5c0,1.8-1.3,2.7-3.2,2.7c-2.5,0-3.2-1.1-3.2-2.7v-0.3H246.1z"/>
			<path d="M252.2,203.1v-0.2c0-2,1.4-2.7,3-2.7c2.6,0,3.1,1.1,3.1,2.6v4.5c0,0.8,0,1.2,0.3,1.7h-2.1c-0.1-0.3-0.2-0.6-0.3-0.9h0
				c-0.5,0.9-1.1,1.1-2.2,1.1c-1.5,0-2.1-1.3-2.1-2.5c0-1.6,0.7-2.3,2.2-2.7l1.2-0.3c0.7-0.2,0.9-0.4,0.9-1c0-0.7-0.3-1.1-1-1.1
				c-0.7,0-1,0.4-1,1.1v0.2H252.2z M256.3,204.8c-0.3,0.2-0.7,0.4-0.9,0.4c-0.9,0.2-1.2,0.6-1.2,1.4c0,0.7,0.2,1.2,0.8,1.2
				s1.4-0.4,1.4-1.3V204.8z"/>
		</g>
	</g>
	<g>
		<g>
			<path d="M73.3,203.4v0.3c0,1.1,0.3,1.8,1.5,1.8c0.7,0,1.4-0.4,1.4-1.4c0-1-0.5-1.4-2-2c-2-0.7-3-1.6-3-3.5c0-2.2,1.4-3.4,3.5-3.4
				c2,0,3.5,0.9,3.5,3.1v0.3H76c0-1.1-0.4-1.7-1.2-1.7c-1,0-1.3,0.7-1.3,1.3c0,0.7,0.2,1.1,1.2,1.6l1.8,0.8c1.7,0.8,2.2,1.6,2.2,3
				c0,2.4-1.5,3.5-4,3.5c-2.6,0-3.6-1.2-3.6-3.3v-0.5H73.3z"/>
			<path d="M80.3,195.5h2.2v3.7h0c0.4-0.7,1.2-1.1,2.1-1.1c1.4,0,2.2,0.8,2.2,2.4v6.4h-2.2V201c0-0.9-0.3-1.2-0.9-1.2
				c-0.8,0-1.2,0.5-1.2,1.4v5.7h-2.2V195.5z"/>
			<path d="M89,195.4h2.2v1.9H89V195.4z M89,198.3h2.2v8.6H89V198.3z"/>
			<path d="M99.9,198.3v8.2c0,2.3-1,3.4-3.6,3.4c-1.9,0-2.9-0.8-2.9-2.3h2.1c0,0.3,0.1,0.5,0.3,0.7s0.5,0.2,0.7,0.2
				c0.9,0,1.2-0.7,1.2-1.6v-1.1h0c-0.4,0.6-1.1,1.1-1.8,1.1c-1.8,0-2.6-1.2-2.6-4.4c0-2,0.3-4.4,2.7-4.4c0.6,0,1.4,0.3,1.8,1.2h0v-1
				H99.9z M96.5,205.2c0.9,0,1.2-1,1.2-2.5c0-2.1-0.3-2.9-1.2-2.9c-1,0-1.2,0.8-1.2,3.1C95.4,204.1,95.6,205.2,96.5,205.2z"/>
			<path d="M102,201v-0.2c0-2,1.4-2.7,3-2.7c2.6,0,3.1,1.1,3.1,2.6v4.5c0,0.8,0,1.2,0.3,1.7h-2.1c-0.1-0.3-0.2-0.6-0.3-0.9h0
				c-0.5,0.9-1.1,1.1-2.2,1.1c-1.5,0-2.1-1.3-2.1-2.5c0-1.6,0.7-2.3,2.2-2.7l1.2-0.3c0.7-0.2,0.9-0.4,0.9-1c0-0.7-0.3-1.1-1-1.1
				c-0.7,0-1,0.4-1,1.1v0.2H102z M106.1,202.6c-0.3,0.2-0.7,0.4-0.9,0.4c-0.9,0.2-1.2,0.6-1.2,1.4c0,0.7,0.2,1.2,0.8,1.2
				s1.4-0.4,1.4-1.3V202.6z"/>
			<path d="M110.9,195.9h2.2v2.5h1.3v1.5h-1.3v4.7c0,0.7,0.1,0.9,0.8,0.9c0.2,0,0.4,0,0.5,0v1.5c-0.5,0-0.9,0.1-1.4,0.1
				c-1.7,0-2-0.5-2-2.3v-4.9h-1.1v-1.5h1.1V195.9z"/>
			<path d="M117.4,204.1v0.3c0,0.8,0.4,1.2,1.2,1.2c0.7,0,1.1-0.3,1.1-1c0-0.6-0.4-0.8-0.8-1l-1.6-0.6c-1.2-0.4-1.8-1.2-1.8-2.4
				c0-1.4,0.9-2.6,3.2-2.6c2,0,2.9,0.9,2.9,2.4v0.4h-2c0-0.9-0.3-1.3-1-1.3c-0.6,0-1,0.3-1,0.9c0,0.4,0.2,0.8,1,1l1.3,0.4
				c1.4,0.5,1.9,1.2,1.9,2.5c0,1.8-1.3,2.7-3.2,2.7c-2.5,0-3.2-1.1-3.2-2.7v-0.3H117.4z"/>
			<path d="M125.4,203v0.7c0,1,0.3,2,1.1,2c0.7,0,1-0.6,1.2-1.6h2c-0.1,2-1,3.1-3.1,3.1c-3.2,0-3.3-2.5-3.3-4.6
				c0-2.3,0.4-4.4,3.4-4.4c2.6,0,3.2,1.7,3.2,4.4v0.5H125.4z M127.6,201.7c0-1.3-0.2-2-1.1-2c-0.9,0-1.1,0.9-1.1,1.7v0.3H127.6z"/>
		</g>
	</g>
	<g>
		<g>
			<path d="M169.8,242.8c0-0.8-0.4-1.9-1.3-1.9c-1.1,0-1.6,1.2-1.6,4c0,2.8,0.3,4.5,1.6,4.5c0.5,0,1.4-0.6,1.4-1.8v-1.2h-1.5v-1.7
				h3.7v6.2h-1.7v-1.1h0c-0.5,0.9-1.3,1.3-2.4,1.3c-2.8,0-3.4-2.1-3.4-6.1c0-3.8,0.9-5.8,3.8-5.8c2.5,0,3.6,1.3,3.6,3.6H169.8z"/>
			<path d="M174.2,252c0.2,0,0.4,0,0.6,0c0.8,0,1.1-0.4,1.2-1.2l-2.4-8.6h2.3l1.3,6h0l1.1-6h2.2l-2.1,8c-0.8,3-1.3,3.4-3.3,3.4h-0.9
				V252z"/>
			<path d="M181.9,244.9v-0.2c0-2,1.4-2.7,3-2.7c2.6,0,3.1,1.1,3.1,2.6v4.5c0,0.8,0,1.2,0.3,1.7h-2.1c-0.1-0.3-0.2-0.6-0.3-0.9h0
				c-0.5,0.9-1.1,1.1-2.2,1.1c-1.5,0-2.1-1.3-2.1-2.5c0-1.6,0.7-2.3,2.2-2.7l1.2-0.3c0.7-0.2,0.9-0.4,0.9-1c0-0.7-0.3-1.1-1-1.1
				c-0.7,0-1,0.4-1,1.1v0.2H181.9z M185.9,246.6c-0.3,0.2-0.7,0.4-0.9,0.4c-0.9,0.2-1.2,0.6-1.2,1.4c0,0.7,0.2,1.2,0.8,1.2
				s1.4-0.4,1.4-1.3V246.6z"/>
			<path d="M190.2,242.2h2.1v1h0c0.5-0.8,1.3-1.2,2.2-1.2c1.4,0,2.2,0.8,2.2,2.4v6.4h-2.2v-5.9c0-0.9-0.3-1.2-0.9-1.2
				c-0.8,0-1.2,0.5-1.2,1.4v5.7h-2.2V242.2z"/>
			<path d="M199.4,239.8h2.2v2.5h1.3v1.5h-1.3v4.7c0,0.7,0.1,0.9,0.8,0.9c0.2,0,0.4,0,0.5,0v1.5c-0.5,0-0.9,0.1-1.4,0.1
				c-1.7,0-2-0.5-2-2.3v-4.9h-1.1v-1.5h1.1V239.8z"/>
			<path d="M205.9,248v0.3c0,0.8,0.4,1.2,1.2,1.2c0.7,0,1.1-0.3,1.1-1c0-0.6-0.4-0.8-0.8-1l-1.6-0.6c-1.2-0.4-1.8-1.2-1.8-2.4
				c0-1.4,0.9-2.6,3.2-2.6c2,0,2.9,0.9,2.9,2.4v0.4h-2c0-0.9-0.3-1.3-1-1.3c-0.6,0-1,0.3-1,0.9c0,0.4,0.2,0.8,1,1l1.3,0.4
				c1.4,0.5,1.9,1.2,1.9,2.5c0,1.8-1.3,2.7-3.2,2.7c-2.5,0-3.2-1.1-3.2-2.7V248H205.9z"/>
			<path d="M213.9,246.9v0.7c0,1,0.3,2,1.1,2c0.7,0,1-0.6,1.2-1.6h2c-0.1,2-1,3.1-3.1,3.1c-3.2,0-3.3-2.5-3.3-4.6
				c0-2.3,0.4-4.4,3.4-4.4c2.6,0,3.2,1.7,3.2,4.4v0.5H213.9z M216.1,245.6c0-1.3-0.2-2-1.1-2c-0.9,0-1.1,0.9-1.1,1.7v0.3H216.1z"/>
		</g>
	</g>
	<g>
		<g>
			<path class="st6" d="M171.1,132.6l2.1,5.9h0v-5.9h1.6v8.6h-2l-2.1-6h0v6h-1.6v-8.6H171.1z"/>
			<path class="st6" d="M176.4,136.7v-0.2c0-1.5,1-2,2.3-2c2,0,2.3,0.8,2.3,2v3.4c0,0.6,0,0.9,0.2,1.2h-1.6
				c-0.1-0.2-0.2-0.5-0.2-0.7h0c-0.4,0.7-0.9,0.8-1.6,0.8c-1.2,0-1.6-1-1.6-1.8c0-1.2,0.5-1.7,1.6-2l0.9-0.3
				c0.5-0.1,0.7-0.3,0.7-0.8c0-0.5-0.2-0.8-0.8-0.8c-0.5,0-0.8,0.3-0.8,0.8v0.2H176.4z M179.4,137.9c-0.2,0.2-0.5,0.3-0.7,0.3
				c-0.7,0.1-0.9,0.5-0.9,1c0,0.5,0.2,0.9,0.6,0.9s1-0.3,1-1V137.9z"/>
			<path class="st6" d="M182.7,134.7h1.6v0.7h0c0.4-0.6,0.9-0.8,1.6-0.8c0.8,0,1.3,0.4,1.5,1h0c0.3-0.7,0.9-1,1.6-1
				c1.1,0,1.6,0.7,1.6,1.9v4.7H189v-4.5c0-0.5-0.2-0.8-0.6-0.8c-0.5,0-0.9,0.4-0.9,1.1v4.2h-1.7v-4.5c0-0.5-0.2-0.8-0.6-0.8
				c-0.5,0-0.9,0.4-0.9,1.1v4.2h-1.7V134.7z"/>
			<path class="st6" d="M192.6,132.8h1.7v1.8h1v1.1h-1v3.5c0,0.5,0.1,0.7,0.6,0.7c0.1,0,0.3,0,0.4,0v1.2c-0.4,0-0.7,0.1-1.1,0.1
				c-1.3,0-1.5-0.4-1.5-1.7v-3.7h-0.8v-1.1h0.8V132.8z"/>
			<path class="st6" d="M197.5,139v0.2c0,0.6,0.3,0.9,0.9,0.9c0.5,0,0.8-0.3,0.8-0.8c0-0.4-0.3-0.6-0.6-0.7l-1.2-0.4
				c-0.9-0.3-1.4-0.9-1.4-1.8c0-1.1,0.7-1.9,2.4-1.9c1.5,0,2.2,0.7,2.2,1.8v0.3h-1.5c0-0.6-0.2-1-0.7-1c-0.4,0-0.8,0.2-0.8,0.7
				c0,0.3,0.2,0.6,0.7,0.8l1,0.3c1,0.3,1.4,0.9,1.4,1.8c0,1.4-1,2-2.4,2c-1.9,0-2.4-0.8-2.4-2.1V139H197.5z"/>
			<path class="st6" d="M204.4,134.5c2,0,2.5,1.2,2.5,3.4c0,2.2-0.6,3.4-2.5,3.4c-2,0-2.5-1.2-2.5-3.4
				C201.9,135.7,202.5,134.5,204.4,134.5z M204.4,140.2c0.7,0,0.9-0.7,0.9-2.3c0-1.6-0.2-2.3-0.9-2.3c-0.8,0-0.9,0.9-0.9,2.3
				S203.6,140.2,204.4,140.2z"/>
			<path class="st6" d="M211.7,137v1.4h-3.4V137H211.7z"/>
			<path class="st6" d="M183.2,150.5v0.3c0,0.8,0.2,1.3,1.1,1.3c0.5,0,1-0.3,1-1.1c0-0.8-0.4-1.1-1.5-1.5c-1.5-0.5-2.2-1.2-2.2-2.6
				c0-1.7,1-2.5,2.7-2.5c1.5,0,2.7,0.7,2.7,2.3v0.2h-1.7c0-0.8-0.3-1.3-0.9-1.3c-0.8,0-1,0.5-1,1c0,0.5,0.2,0.9,0.9,1.2l1.3,0.6
				c1.3,0.6,1.6,1.2,1.6,2.3c0,1.8-1.1,2.6-3,2.6c-2,0-2.7-0.9-2.7-2.5v-0.3H183.2z"/>
			<path class="st6" d="M189.9,150.2v0.5c0,0.8,0.2,1.5,0.8,1.5c0.6,0,0.8-0.4,0.9-1.2h1.5c-0.1,1.5-0.8,2.3-2.3,2.3
				c-2.4,0-2.5-1.8-2.5-3.5c0-1.7,0.3-3.3,2.6-3.3c1.9,0,2.4,1.3,2.4,3.3v0.4H189.9z M191.6,149.2c0-1-0.2-1.5-0.8-1.5
				c-0.7,0-0.9,0.7-0.9,1.3v0.3H191.6z"/>
			<path class="st6" d="M195.9,150.2v0.5c0,0.8,0.2,1.5,0.8,1.5c0.6,0,0.8-0.4,0.9-1.2h1.5c-0.1,1.5-0.8,2.3-2.3,2.3
				c-2.4,0-2.5-1.8-2.5-3.5c0-1.7,0.3-3.3,2.6-3.3c1.9,0,2.4,1.3,2.4,3.3v0.4H195.9z M197.6,149.2c0-1-0.2-1.5-0.8-1.5
				c-0.7,0-0.9,0.7-0.9,1.3v0.3H197.6z"/>
		</g>
	</g>
	<g>
		<g>
			<path class="st6" d="M543.3,552.8l1.1,3.3h0l1.2-3.3h1.9l-2.2,5.2v3.4h-1.7V558l-2.2-5.2H543.3z"/>
			<path class="st6" d="M548.6,556.9v-0.2c0-1.5,1-2,2.3-2c2,0,2.3,0.8,2.3,2v3.4c0,0.6,0,0.9,0.2,1.2h-1.6
				c-0.1-0.2-0.2-0.5-0.2-0.7h0c-0.4,0.7-0.9,0.8-1.6,0.8c-1.2,0-1.6-1-1.6-1.8c0-1.2,0.5-1.7,1.6-2l0.9-0.3
				c0.5-0.1,0.7-0.3,0.7-0.8c0-0.5-0.2-0.8-0.8-0.8c-0.5,0-0.8,0.3-0.8,0.8v0.2H548.6z M551.6,558.1c-0.2,0.2-0.5,0.3-0.7,0.3
				c-0.7,0.1-0.9,0.5-0.9,1c0,0.5,0.2,0.9,0.6,0.9c0.4,0,1-0.3,1-1V558.1z"/>
			<path class="st6" d="M554.9,554.9h1.6v0.9h0c0.3-0.6,0.8-1,1.5-1c0.1,0,0.2,0,0.3,0v1.6c-0.2,0-0.3,0-0.5,0
				c-0.6,0-1.2,0.3-1.2,1.2v3.9h-1.7V554.9z"/>
			<path class="st6" d="M559.4,552.8h1.7v8.6h-1.7V552.8z"/>
			<path class="st6" d="M566,560.6L566,560.6c-0.4,0.6-1,0.9-1.7,0.9c-1,0-1.6-0.6-1.6-1.8v-4.8h1.7v4.4c0,0.6,0.2,0.9,0.7,0.9
				c0.6,0,0.9-0.3,0.9-1.1v-4.3h1.7v6.5H566V560.6z"/>
			<path class="st6" d="M569.2,554.9h1.6v0.8h0c0.3-0.6,0.9-0.9,1.6-0.9c1,0,1.6,0.6,1.6,1.8v4.8h-1.7v-4.4c0-0.6-0.2-0.9-0.7-0.9
				c-0.6,0-0.9,0.3-0.9,1.1v4.3h-1.7V554.9z"/>
			<path class="st6" d="M580.5,554.9v6.1c0,1.7-0.8,2.5-2.7,2.5c-1.4,0-2.2-0.6-2.2-1.7h1.6c0,0.2,0.1,0.4,0.3,0.5
				c0.2,0.1,0.3,0.2,0.6,0.2c0.7,0,0.9-0.5,0.9-1.2v-0.9h0c-0.3,0.5-0.9,0.8-1.4,0.8c-1.3,0-2-0.9-2-3.3c0-1.5,0.2-3.3,2-3.3
				c0.5,0,1,0.2,1.3,0.9h0v-0.7H580.5z M578,560c0.7,0,0.9-0.8,0.9-1.8c0-1.6-0.2-2.2-0.9-2.2c-0.7,0-0.9,0.6-0.9,2.3
				C577.2,559.2,577.3,560,578,560z"/>
			<path class="st6" d="M590.6,552.8v1.4h-1.9v7.1H587v-7.1h-1.9v-1.4H590.6z"/>
			<path class="st6" d="M592.9,559.2v0.2c0,0.6,0.3,0.9,0.9,0.9c0.5,0,0.8-0.3,0.8-0.8c0-0.4-0.3-0.6-0.6-0.7l-1.2-0.4
				c-0.9-0.3-1.4-0.9-1.4-1.8c0-1.1,0.7-1.9,2.4-1.9c1.5,0,2.2,0.7,2.2,1.8v0.3h-1.5c0-0.6-0.2-1-0.7-1c-0.4,0-0.8,0.2-0.8,0.7
				c0,0.3,0.2,0.6,0.7,0.8l1,0.3c1,0.3,1.4,0.9,1.4,1.8c0,1.4-1,2-2.4,2c-1.9,0-2.4-0.8-2.4-2.1v-0.2H592.9z"/>
			<path class="st6" d="M597.5,556.9v-0.2c0-1.5,1-2,2.3-2c2,0,2.3,0.8,2.3,2v3.4c0,0.6,0,0.9,0.2,1.2h-1.6
				c-0.1-0.2-0.2-0.5-0.2-0.7h0c-0.4,0.7-0.9,0.8-1.6,0.8c-1.2,0-1.6-1-1.6-1.8c0-1.2,0.5-1.7,1.6-2l0.9-0.3
				c0.5-0.1,0.7-0.3,0.7-0.8c0-0.5-0.2-0.8-0.8-0.8c-0.5,0-0.8,0.3-0.8,0.8v0.2H597.5z M600.5,558.1c-0.2,0.2-0.5,0.3-0.7,0.3
				c-0.7,0.1-0.9,0.5-0.9,1c0,0.5,0.2,0.9,0.6,0.9c0.4,0,1-0.3,1-1V558.1z"/>
			<path class="st6" d="M603.8,554.9h1.6v0.8h0c0.3-0.6,0.9-0.9,1.6-0.9c1,0,1.6,0.6,1.6,1.8v4.8H607v-4.4c0-0.6-0.2-0.9-0.7-0.9
				c-0.6,0-0.9,0.3-0.9,1.1v4.3h-1.7V554.9z"/>
			<path class="st6" d="M615.1,554.9v6.1c0,1.7-0.8,2.5-2.7,2.5c-1.4,0-2.2-0.6-2.2-1.7h1.6c0,0.2,0.1,0.4,0.3,0.5
				c0.2,0.1,0.3,0.2,0.6,0.2c0.7,0,0.9-0.5,0.9-1.2v-0.9h0c-0.3,0.5-0.9,0.8-1.4,0.8c-1.3,0-2-0.9-2-3.3c0-1.5,0.2-3.3,2-3.3
				c0.5,0,1,0.2,1.3,0.9h0v-0.7H615.1z M612.6,560c0.7,0,0.9-0.8,0.9-1.8c0-1.6-0.2-2.2-0.9-2.2c-0.7,0-0.9,0.6-0.9,2.3
				C611.8,559.2,611.9,560,612.6,560z"/>
			<path class="st6" d="M616.8,554.9h1.6v0.7h0c0.4-0.6,0.8-0.9,1.5-0.9c1.4,0,2,1,2,3.4c0,2.4-0.6,3.4-2,3.4c-0.6,0-1-0.3-1.4-0.8
				h0v2.7h-1.7V554.9z M619.3,560.2c0.7,0,0.9-0.7,0.9-2.1c0-1.4-0.1-2.1-0.9-2.1c-0.7,0-0.9,0.7-0.9,2.1
				C618.4,559.5,618.5,560.2,619.3,560.2z"/>
			<path class="st6" d="M625.6,554.7c2,0,2.5,1.2,2.5,3.4c0,2.2-0.6,3.4-2.5,3.4c-2,0-2.5-1.2-2.5-3.4
				C623,555.9,623.7,554.7,625.6,554.7z M625.6,560.4c0.7,0,0.9-0.7,0.9-2.3c0-1.6-0.2-2.3-0.9-2.3c-0.8,0-0.9,0.9-0.9,2.3
				S624.7,560.4,625.6,560.4z"/>
		</g>
	</g>
	<g>
		<g>
			<path class="st6" d="M803.7,332.8h1.7v3.3h2v-3.3h1.7v8.6h-1.7v-3.8h-2v3.8h-1.7V332.8z"/>
			<path class="st6" d="M814.1,340.6L814.1,340.6c-0.4,0.6-1,0.9-1.7,0.9c-1,0-1.6-0.6-1.6-1.8v-4.8h1.7v4.4c0,0.6,0.2,0.9,0.7,0.9
				c0.6,0,0.9-0.3,0.9-1.1v-4.3h1.7v6.5h-1.6V340.6z"/>
			<path class="st6" d="M817.3,336.9v-0.2c0-1.5,1-2,2.3-2c2,0,2.3,0.8,2.3,2v3.4c0,0.6,0,0.9,0.2,1.2h-1.6
				c-0.1-0.2-0.2-0.5-0.2-0.7h0c-0.4,0.7-0.9,0.8-1.6,0.8c-1.2,0-1.6-1-1.6-1.8c0-1.2,0.5-1.7,1.6-2l0.9-0.3
				c0.5-0.1,0.7-0.3,0.7-0.8c0-0.5-0.2-0.8-0.8-0.8c-0.5,0-0.8,0.3-0.8,0.8v0.2H817.3z M820.3,338.2c-0.2,0.2-0.5,0.3-0.7,0.3
				c-0.7,0.1-0.9,0.5-0.9,1c0,0.5,0.2,0.9,0.6,0.9c0.4,0,1-0.3,1-1V338.2z"/>
			<path class="st6" d="M823.6,334.9h1.6v0.8h0c0.3-0.6,0.9-0.9,1.6-0.9c1,0,1.6,0.6,1.6,1.8v4.8h-1.7v-4.4c0-0.6-0.2-0.9-0.7-0.9
				c-0.6,0-0.9,0.3-0.9,1.1v4.3h-1.7V334.9z"/>
			<path class="st6" d="M834.9,334.9v6.1c0,1.7-0.8,2.5-2.7,2.5c-1.4,0-2.2-0.6-2.2-1.7h1.6c0,0.2,0.1,0.4,0.3,0.5
				c0.2,0.1,0.3,0.2,0.6,0.2c0.7,0,0.9-0.5,0.9-1.2v-0.9h0c-0.3,0.5-0.9,0.8-1.4,0.8c-1.3,0-2-0.9-2-3.3c0-1.5,0.2-3.3,2-3.3
				c0.5,0,1,0.2,1.3,0.9h0v-0.7H834.9z M832.4,340c0.7,0,0.9-0.8,0.9-1.8c0-1.6-0.2-2.2-0.9-2.2c-0.7,0-0.9,0.6-0.9,2.3
				C831.6,339.2,831.7,340,832.4,340z"/>
			<path class="st6" d="M839.9,332.8h1.7v3.3h2v-3.3h1.7v8.6h-1.7v-3.8h-2v3.8h-1.7V332.8z"/>
			<path class="st6" d="M848.4,338.4v0.5c0,0.8,0.2,1.5,0.8,1.5c0.6,0,0.8-0.4,0.9-1.2h1.5c-0.1,1.5-0.8,2.3-2.3,2.3
				c-2.4,0-2.5-1.8-2.5-3.5c0-1.7,0.3-3.3,2.6-3.3c1.9,0,2.4,1.3,2.4,3.3v0.4H848.4z M850.1,337.4c0-1-0.2-1.5-0.8-1.5
				c-0.7,0-0.9,0.7-0.9,1.3v0.3H850.1z"/>
		</g>
	</g>
	<g>
		<g>
			<path class="st6" d="M864.4,496.5c0-1.2-0.3-1.8-1-1.8c-0.9,0-1.1,0.9-1.1,3.3c0,2.6,0.4,3.1,1.1,3.1c0.6,0,1.1-0.3,1.1-2.2h1.7
				c0,1.8-0.5,3.4-2.7,3.4c-2.6,0-2.9-1.8-2.9-4.4s0.3-4.5,2.9-4.5c2.5,0,2.7,1.8,2.7,3.1H864.4z"/>
			<path class="st6" d="M867.6,493.6h1.7v2.8h0c0.3-0.6,0.9-0.8,1.6-0.8c1,0,1.6,0.6,1.6,1.8v4.8h-1.7v-4.4c0-0.6-0.2-0.9-0.7-0.9
				c-0.6,0-0.9,0.3-0.9,1.1v4.3h-1.7V493.6z"/>
			<path class="st6" d="M874.1,497.7v-0.2c0-1.5,1-2,2.3-2c2,0,2.3,0.8,2.3,2v3.4c0,0.6,0,0.9,0.2,1.2h-1.6
				c-0.1-0.2-0.2-0.5-0.2-0.7h0c-0.4,0.7-0.9,0.8-1.6,0.8c-1.2,0-1.6-1-1.6-1.8c0-1.2,0.5-1.7,1.6-2l0.9-0.3
				c0.5-0.1,0.7-0.3,0.7-0.8c0-0.5-0.2-0.8-0.8-0.8c-0.5,0-0.8,0.3-0.8,0.8v0.2H874.1z M877.1,498.9c-0.2,0.2-0.5,0.3-0.7,0.3
				c-0.7,0.1-0.9,0.5-0.9,1c0,0.5,0.2,0.9,0.6,0.9c0.4,0,1-0.3,1-1V498.9z"/>
			<path class="st6" d="M880.4,495.7h1.6v0.8h0c0.3-0.6,0.9-0.9,1.6-0.9c1,0,1.6,0.6,1.6,1.8v4.8h-1.7v-4.4c0-0.6-0.2-0.9-0.7-0.9
				c-0.6,0-0.9,0.3-0.9,1.1v4.3h-1.7V495.7z"/>
			<path class="st6" d="M891.7,495.7v6.1c0,1.7-0.8,2.5-2.7,2.5c-1.4,0-2.2-0.6-2.2-1.7h1.6c0,0.2,0.1,0.4,0.3,0.5
				c0.2,0.1,0.3,0.2,0.6,0.2c0.7,0,0.9-0.5,0.9-1.2v-0.9h0c-0.3,0.5-0.9,0.8-1.4,0.8c-1.3,0-2-0.9-2-3.3c0-1.5,0.2-3.3,2-3.3
				c0.5,0,1,0.2,1.3,0.9h0v-0.7H891.7z M889.2,500.8c0.7,0,0.9-0.8,0.9-1.8c0-1.6-0.2-2.2-0.9-2.2c-0.7,0-0.9,0.6-0.9,2.3
				C888.4,500,888.5,500.8,889.2,500.8z"/>
			<path class="st6" d="M867.2,505.6v6.2c0,1.8-0.8,2.6-2.6,2.6c-1.8,0-2.3-1.2-2.3-2.5v-0.4h1.6v0.3c0,0.9,0.1,1.3,0.8,1.3
				s0.8-0.4,0.8-1.3v-6.1H867.2z"/>
			<path class="st6" d="M868.8,505.5h1.7v1.4h-1.7V505.5z M868.8,507.7h1.7v6.5h-1.7V507.7z"/>
			<path class="st6" d="M872.1,509.7v-0.2c0-1.5,1-2,2.3-2c2,0,2.3,0.8,2.3,2v3.4c0,0.6,0,0.9,0.2,1.2h-1.6
				c-0.1-0.2-0.2-0.5-0.2-0.7h0c-0.4,0.7-0.9,0.8-1.6,0.8c-1.2,0-1.6-1-1.6-1.8c0-1.2,0.5-1.7,1.6-2l0.9-0.3
				c0.5-0.1,0.7-0.3,0.7-0.8c0-0.5-0.2-0.8-0.8-0.8c-0.5,0-0.8,0.3-0.8,0.8v0.2H872.1z M875.1,510.9c-0.2,0.2-0.5,0.3-0.7,0.3
				c-0.7,0.1-0.9,0.5-0.9,1c0,0.5,0.2,0.9,0.6,0.9c0.4,0,1-0.3,1-1V510.9z"/>
			<path class="st6" d="M878.4,507.7h1.6v0.8h0c0.3-0.6,0.9-0.9,1.6-0.9c1,0,1.6,0.6,1.6,1.8v4.8h-1.7v-4.4c0-0.6-0.2-0.9-0.7-0.9
				c-0.6,0-0.9,0.3-0.9,1.1v4.3h-1.7V507.7z"/>
			<path class="st6" d="M889.7,507.7v6.1c0,1.7-0.8,2.5-2.7,2.5c-1.4,0-2.2-0.6-2.2-1.7h1.6c0,0.2,0.1,0.4,0.3,0.5
				c0.2,0.1,0.3,0.2,0.6,0.2c0.7,0,0.9-0.5,0.9-1.2v-0.9h0c-0.3,0.5-0.9,0.8-1.4,0.8c-1.3,0-2-0.9-2-3.3c0-1.5,0.2-3.3,2-3.3
				c0.5,0,1,0.2,1.3,0.9h0v-0.7H889.7z M887.2,512.8c0.7,0,0.9-0.8,0.9-1.8c0-1.6-0.2-2.2-0.9-2.2c-0.7,0-0.9,0.6-0.9,2.3
				C886.4,512,886.5,512.8,887.2,512.8z"/>
		</g>
	</g>
	<g>
		<g>
			<path d="M243.8,228.9v1.9h-2.5v9.5H239v-9.5h-2.5v-1.9H243.8z"/>
			<path d="M246.9,237.5v0.3c0,0.8,0.4,1.2,1.2,1.2c0.7,0,1.1-0.3,1.1-1c0-0.6-0.4-0.8-0.8-1l-1.6-0.6c-1.2-0.4-1.8-1.2-1.8-2.4
				c0-1.4,0.9-2.6,3.2-2.6c2,0,2.9,0.9,2.9,2.4v0.4h-2c0-0.9-0.3-1.3-1-1.3c-0.6,0-1,0.3-1,0.9c0,0.4,0.2,0.8,1,1l1.3,0.4
				c1.4,0.5,1.9,1.2,1.9,2.5c0,1.8-1.3,2.7-3.2,2.7c-2.5,0-3.2-1.1-3.2-2.7v-0.3H246.9z"/>
			<path d="M255,236.4v0.7c0,1,0.3,2,1.1,2c0.7,0,1-0.6,1.2-1.6h2c-0.1,2-1,3.1-3.1,3.1c-3.2,0-3.3-2.5-3.3-4.6
				c0-2.3,0.4-4.4,3.4-4.4c2.6,0,3.2,1.7,3.2,4.4v0.5H255z M257.2,235c0-1.3-0.2-2-1.1-2c-0.9,0-1.1,0.9-1.1,1.7v0.3H257.2z"/>
			<path d="M265.5,239.4L265.5,239.4c-0.5,0.8-1.1,1.1-2,1.1c-1.8,0-2.6-1.3-2.6-4.5s0.8-4.5,2.6-4.5c0.8,0,1.4,0.3,1.9,1h0v-3.6
				h2.2v11.4h-2.1V239.4z M264.3,238.9c1,0,1.2-1,1.2-2.8c0-1.9-0.2-2.8-1.2-2.8c-1,0-1.2,1-1.2,2.8
				C263.1,237.9,263.3,238.9,264.3,238.9z"/>
			<path d="M269.7,234.4v-0.2c0-2,1.4-2.7,3-2.7c2.6,0,3.1,1.1,3.1,2.6v4.5c0,0.8,0,1.2,0.3,1.7H274c-0.1-0.3-0.2-0.6-0.3-0.9h0
				c-0.5,0.9-1.1,1.1-2.2,1.1c-1.5,0-2.1-1.3-2.1-2.5c0-1.6,0.7-2.3,2.2-2.7l1.2-0.3c0.7-0.2,0.9-0.4,0.9-1c0-0.7-0.3-1.1-1-1.1
				c-0.7,0-1,0.4-1,1.1v0.2H269.7z M273.8,236c-0.3,0.2-0.7,0.4-0.9,0.4c-0.9,0.2-1.2,0.6-1.2,1.4c0,0.7,0.2,1.2,0.8,1.2
				s1.4-0.4,1.4-1.3V236z"/>
			<path d="M278.1,231.7h2.1v1h0c0.5-0.8,1.3-1.2,2.2-1.2c1.4,0,2.2,0.8,2.2,2.4v6.4h-2.2v-5.9c0-0.9-0.3-1.2-0.9-1.2
				c-0.8,0-1.2,0.5-1.2,1.4v5.7h-2.2V231.7z"/>
			<path d="M293.2,231.7v8.2c0,2.3-1,3.4-3.6,3.4c-1.9,0-2.9-0.8-2.9-2.3h2.1c0,0.3,0.1,0.5,0.3,0.7c0.2,0.1,0.5,0.2,0.7,0.2
				c0.9,0,1.2-0.7,1.2-1.6v-1.1h0c-0.4,0.6-1.1,1.1-1.8,1.1c-1.8,0-2.6-1.2-2.6-4.4c0-2,0.3-4.4,2.7-4.4c0.6,0,1.4,0.3,1.8,1.2h0v-1
				H293.2z M289.9,238.5c0.9,0,1.2-1,1.2-2.5c0-2.1-0.3-2.9-1.2-2.9c-1,0-1.2,0.8-1.2,3.1C288.8,237.5,288.9,238.5,289.9,238.5z"/>
		</g>
	</g>
	<g>
		<g>
			<path d="M21.7,226.6v1.9h-2.5v9.5h-2.3v-9.5h-2.5v-1.9H21.7z"/>
			<path d="M23.4,226.5h2.2v1.9h-2.2V226.5z M23.4,229.4h2.2v8.6h-2.2V229.4z"/>
			<path d="M27.8,229.4h2.1v1h0c0.5-0.8,1.3-1.2,2.2-1.2c1.4,0,2.2,0.8,2.2,2.4v6.4h-2.2v-5.9c0-0.9-0.3-1.2-0.9-1.2
				c-0.8,0-1.2,0.5-1.2,1.4v5.7h-2.2V229.4z"/>
			<path d="M42.9,229.4v8.2c0,2.3-1,3.4-3.6,3.4c-1.9,0-2.9-0.8-2.9-2.3h2.1c0,0.3,0.1,0.5,0.3,0.7s0.5,0.2,0.7,0.2
				c0.9,0,1.2-0.7,1.2-1.6v-1.1h0c-0.4,0.6-1.1,1.1-1.8,1.1c-1.8,0-2.6-1.2-2.6-4.4c0-2,0.3-4.4,2.7-4.4c0.6,0,1.4,0.3,1.8,1.2h0v-1
				H42.9z M39.6,236.3c0.9,0,1.2-1,1.2-2.5c0-2.1-0.3-2.9-1.2-2.9c-1,0-1.2,0.8-1.2,3.1C38.5,235.2,38.6,236.3,39.6,236.3z"/>
			<path d="M45.1,229.4h2.1v1.2h0c0.4-0.8,1.1-1.4,2-1.4c0.1,0,0.3,0,0.4,0v2.1c-0.2,0-0.5,0-0.7,0c-0.8,0-1.6,0.4-1.6,1.6v5.2h-2.2
				V229.4z"/>
			<path d="M51.1,226.5h2.2v1.9h-2.2V226.5z M51.1,229.4h2.2v8.6h-2.2V229.4z"/>
		</g>
	</g>
	<g>
		<g>
			<path d="M112.1,163.8h3.8c3.2,0,3.8,2.2,3.8,5.6c0,4-0.9,5.9-3.9,5.9h-3.6V163.8z M114.4,173.5h1c1.6,0,1.9-1,1.9-4.1
				c0-2.6-0.2-3.9-2-3.9h-1V173.5z"/>
			<path d="M121.7,169.2V169c0-2,1.4-2.7,3-2.7c2.6,0,3.1,1.1,3.1,2.6v4.5c0,0.8,0,1.2,0.3,1.7H126c-0.1-0.3-0.2-0.6-0.3-0.9h0
				c-0.5,0.9-1.1,1.1-2.2,1.1c-1.5,0-2.1-1.3-2.1-2.5c0-1.6,0.7-2.3,2.2-2.7l1.2-0.3c0.7-0.2,0.9-0.4,0.9-1c0-0.7-0.3-1.1-1-1.1
				c-0.7,0-1,0.4-1,1.1v0.2H121.7z M125.7,170.9c-0.3,0.2-0.7,0.4-0.9,0.4c-0.9,0.2-1.2,0.6-1.2,1.4c0,0.7,0.2,1.2,0.8,1.2
				s1.4-0.4,1.4-1.3V170.9z"/>
			<path d="M130.1,166.6h2.1v0.9h0c0.6-0.8,1.2-1.1,2.2-1.1c1,0,1.7,0.5,2,1.4h0c0.3-0.9,1.1-1.4,2.2-1.4c1.5,0,2.1,0.9,2.1,2.6v6.3
				h-2.2v-6c0-0.7-0.2-1.1-0.9-1.1c-0.7,0-1.2,0.5-1.2,1.5v5.7h-2.2v-6c0-0.7-0.2-1.1-0.9-1.1c-0.7,0-1.2,0.5-1.2,1.5v5.7h-2.2
				V166.6z"/>
			<path d="M144.4,172.4v0.3c0,0.8,0.4,1.2,1.2,1.2c0.7,0,1.1-0.3,1.1-1c0-0.6-0.4-0.8-0.8-1l-1.6-0.6c-1.2-0.4-1.8-1.2-1.8-2.4
				c0-1.4,0.9-2.6,3.2-2.6c2,0,2.9,0.9,2.9,2.4v0.4h-2c0-0.9-0.3-1.3-1-1.3c-0.6,0-1,0.3-1,0.9c0,0.4,0.2,0.8,1,1l1.3,0.4
				c1.4,0.5,1.9,1.2,1.9,2.5c0,1.8-1.3,2.7-3.2,2.7c-2.5,0-3.2-1.1-3.2-2.7v-0.3H144.4z"/>
			<path d="M150.6,163.8h2.2v3.7h0c0.4-0.7,1.2-1.1,2.1-1.1c1.4,0,2.2,0.8,2.2,2.4v6.4h-2.2v-5.9c0-0.9-0.3-1.2-0.9-1.2
				c-0.8,0-1.2,0.5-1.2,1.4v5.7h-2.2V163.8z"/>
			<path d="M163.6,174.2L163.6,174.2c-0.5,0.8-1.3,1.2-2.2,1.2c-1.4,0-2.2-0.8-2.2-2.4v-6.4h2.2v5.9c0,0.9,0.3,1.2,0.9,1.2
				c0.8,0,1.2-0.5,1.2-1.4v-5.7h2.2v8.6h-2.1V174.2z"/>
			<path d="M167.8,166.6h2.1v1h0c0.5-0.8,1.3-1.2,2.2-1.2c1.4,0,2.2,0.8,2.2,2.4v6.4h-2.2v-5.9c0-0.9-0.3-1.2-0.9-1.2
				c-0.8,0-1.2,0.5-1.2,1.4v5.7h-2.2V166.6z"/>
			<path d="M182.9,166.6v8.2c0,2.3-1,3.4-3.6,3.4c-1.9,0-2.9-0.8-2.9-2.3h2.1c0,0.3,0.1,0.5,0.3,0.7c0.2,0.1,0.5,0.2,0.7,0.2
				c0.9,0,1.2-0.7,1.2-1.6V174h0c-0.4,0.6-1.1,1.1-1.8,1.1c-1.8,0-2.6-1.2-2.6-4.4c0-2,0.3-4.4,2.7-4.4c0.6,0,1.4,0.3,1.8,1.2h0v-1
				H182.9z M179.6,173.4c0.9,0,1.2-1,1.2-2.5c0-2.1-0.3-2.9-1.2-2.9c-1,0-1.2,0.8-1.2,3.1C178.5,172.3,178.7,173.4,179.6,173.4z"/>
		</g>
	</g>
	<polygon class="st7" points="0.5,0.9 363.3,0.9 363.3,363.7 0.5,363.7 0.5,0.9 	"/>
	<path class="st8" d="M1020.1,433.2c0,0-4.3-5.1-7.9-3.9c-3.6,1.2-7.5,3.9-10.6,3.9c-3.2,0-9.5-2-12.6,0.4c-3.2,2.4-0.8,3.5-3.9,5.9
		c-3.2,2.4-3.1,2.4-5.1,5.5c-2,3.1,0.8,5.5-1.6,7.1c-2.4,1.6-3.9,3.5-4.7,6.7c-0.8,3.2-2.7,5.9-5.9,8.3c-3.2,2.4-6.3,7.1-9.1,11
		c-2.8,3.9-4,5.1-7.1,4.7c-3.1-0.4-8.7,0-11.4-1.2c-2.7-1.2-4.7-4.7-6.3-3.1c-1.6,1.6-3.2,3.5-5.1,4.7c-2,1.2,0.4,5.5-3.1,6.7
		c-3.6,1.2-5.5,3.5-6.7,6.3c-1.2,2.8-3.9,5.1-3.9,2.4c0-2.8-0.4-4.7-2.8-4.7c-2.4,0-7.1,1.2-10.6-1.2c-3.6-2.4-21.7-5.5-26-5.5
		c-4.3,0-10.2-1.2-16.9,0.8c-6.7,2-13.8,12.6-16.9,15.4c-3.2,2.8-2.8,7.5-9.1,10.6c-6.3,3.2-11,3.6-13.4,6.7
		c-2.4,3.1-1.2,7.5-9.9,9.9c-8.7,2.4-21.7,5.9-23.3,9.1c-1.6,3.2,1.2,9.9-1.2,12.6c-2.4,2.7-4.7,8.3-4.7,11.8s2.4,4.7,0,6.7
		c-2.4,2-11.8,10.2-13.4,7.9c-1.6-2.4-6.3-8.7-9.9-7.1c-3.6,1.6-7.1,6.3-10.6,3.9c-3.6-2.4-5.5-3.2-5.9-7.1
		c-0.4-3.9,0.8-7.5-1.6-7.1c-2.4,0.4-2.4,2-2.4,5.1c0,3.2-1.2,7.5-2.7,5.5c-1.6-2-7.1-8.7-9.1-12.6c-2-3.9-5.1-13.4-6.3-17.3
		c-1.2-3.9,0-7.5-2.4-8.3c-2.4-0.8,1.2-7.5-1.2-9.5c-2.4-2-3.6-4.7-4.3-10.2c-0.8-5.5,0-6.7-3.6-9.1c-3.5-2.4-6.3-10.2-9.1-11.8
		c-2.8-1.6-12.6-11.8-17.3-13c-4.7-1.2-13.4-3.9-16.2-6.3c-2.7-2.4-7.9-9.9-12.2-10.2c-4.3-0.4-7.5,3.6-10.6,4.7
		c-3.1,1.2-4.3,2.7-9.5,1.2c-5.1-1.6-10.2-3.1-13.8-4.7c-3.6-1.6-4.4-3.6-7.9-2.8c-3.5,0.8-14.6-0.4-14.6-0.4"/>
	<path class="st9" d="M921.2,321.3c0-2.3,1.9-4.3,4.3-4.3c2.3,0,4.3,1.9,4.3,4.3c0,2.3-1.9,4.3-4.3,4.3
		C923.1,325.6,921.2,323.7,921.2,321.3L921.2,321.3z"/>
	<g>
		<g>
			<path d="M875,325.6h3.9c1.9,0,3.2,0.7,3.2,2.9c0,1.2-0.6,2.2-1.7,2.5v0c1.3,0.2,2.1,1.1,2.1,2.7c0,1.8-0.9,3.3-3.6,3.3H875V325.6
				z M877.3,330.3h0.7c1.3,0,1.8-0.4,1.8-1.5c0-1.1-0.5-1.5-1.7-1.5h-0.8V330.3z M877.3,335.3h0.9c1.1,0,1.9-0.4,1.9-1.7
				s-0.8-1.7-1.8-1.7h-1V335.3z"/>
			<path d="M886.4,333.1v0.7c0,1,0.3,2,1.1,2c0.7,0,1-0.6,1.2-1.6h2c-0.1,2-1,3.1-3.1,3.1c-3.2,0-3.3-2.5-3.3-4.6
				c0-2.3,0.4-4.4,3.4-4.4c2.6,0,3.2,1.7,3.2,4.4v0.5H886.4z M888.6,331.7c0-1.3-0.2-2-1.1-2c-0.9,0-1.1,0.9-1.1,1.7v0.3H888.6z"/>
			<path d="M892.6,325.5h2.2v1.9h-2.2V325.5z M892.6,328.4h2.2v8.6h-2.2V328.4z"/>
			<path d="M897.1,328.4h2.2v9.2c0,1.4-0.5,2.2-2.5,2.2c-0.3,0-0.6,0-0.9,0v-1.6c0.1,0,0.2,0,0.4,0c0.8,0,0.9-0.4,0.9-1.4V328.4z
				 M897.1,325.5h2.2v1.9h-2.2V325.5z"/>
			<path d="M901.5,325.5h2.2v1.9h-2.2V325.5z M901.5,328.4h2.2v8.6h-2.2V328.4z"/>
			<path d="M906,328.4h2.1v1h0c0.5-0.8,1.3-1.2,2.2-1.2c1.4,0,2.2,0.8,2.2,2.4v6.4h-2.2v-5.9c0-0.9-0.3-1.2-0.9-1.2
				c-0.8,0-1.2,0.5-1.2,1.4v5.7H906V328.4z"/>
			<path d="M921,328.4v8.2c0,2.3-1,3.4-3.6,3.4c-1.9,0-2.9-0.8-2.9-2.3h2.1c0,0.3,0.1,0.5,0.3,0.7s0.5,0.2,0.7,0.2
				c0.9,0,1.2-0.7,1.2-1.6v-1.1h0c-0.4,0.6-1.1,1.1-1.8,1.1c-1.8,0-2.6-1.2-2.6-4.4c0-2,0.3-4.4,2.7-4.4c0.6,0,1.4,0.3,1.8,1.2h0v-1
				H921z M917.7,335.2c0.9,0,1.2-1,1.2-2.5c0-2.1-0.3-2.9-1.2-2.9c-1,0-1.2,0.8-1.2,3.1C916.6,334.2,916.8,335.2,917.7,335.2z"/>
		</g>
	</g>
	<g>
		<g>
			<path d="M1033.5,438.2v0.3c0,1.1,0.3,1.8,1.5,1.8c0.7,0,1.4-0.4,1.4-1.4c0-1-0.5-1.4-2-2c-2-0.7-3-1.6-3-3.5
				c0-2.2,1.4-3.4,3.5-3.4c2,0,3.5,0.9,3.5,3.1v0.3h-2.2c0-1.1-0.4-1.7-1.2-1.7c-1,0-1.3,0.7-1.3,1.3c0,0.7,0.2,1.1,1.2,1.6l1.8,0.8
				c1.7,0.8,2.2,1.6,2.2,3c0,2.4-1.5,3.5-4,3.5c-2.6,0-3.6-1.2-3.6-3.3v-0.5H1033.5z"/>
			<path d="M1040.5,430.4h2.2v3.7h0c0.4-0.7,1.2-1.1,2.1-1.1c1.4,0,2.2,0.8,2.2,2.4v6.4h-2.2v-5.9c0-0.9-0.3-1.2-0.9-1.2
				c-0.8,0-1.2,0.5-1.2,1.4v5.7h-2.2V430.4z"/>
			<path d="M1049.1,435.8v-0.2c0-2,1.4-2.7,3-2.7c2.6,0,3.1,1.1,3.1,2.6v4.5c0,0.8,0,1.2,0.3,1.7h-2.1c-0.1-0.3-0.2-0.6-0.3-0.9h0
				c-0.5,0.9-1.1,1.1-2.2,1.1c-1.5,0-2.1-1.3-2.1-2.5c0-1.6,0.7-2.3,2.2-2.7l1.2-0.3c0.7-0.2,0.9-0.4,0.9-1c0-0.7-0.3-1.1-1-1.1
				c-0.7,0-1,0.4-1,1.1v0.2H1049.1z M1053.2,437.5c-0.3,0.2-0.7,0.4-0.9,0.4c-0.9,0.2-1.2,0.6-1.2,1.4c0,0.7,0.2,1.2,0.8,1.2
				c0.6,0,1.4-0.4,1.4-1.3V437.5z"/>
			<path d="M1057.5,433.2h2.1v1h0c0.5-0.8,1.3-1.2,2.2-1.2c1.4,0,2.2,0.8,2.2,2.4v6.4h-2.2v-5.9c0-0.9-0.3-1.2-0.9-1.2
				c-0.8,0-1.2,0.5-1.2,1.4v5.7h-2.2V433.2z"/>
			<path d="M1072.6,433.2v8.2c0,2.3-1,3.4-3.6,3.4c-1.9,0-2.9-0.8-2.9-2.3h2.1c0,0.3,0.1,0.5,0.3,0.7c0.2,0.1,0.5,0.2,0.7,0.2
				c0.9,0,1.2-0.7,1.2-1.6v-1.1h0c-0.4,0.6-1.1,1.1-1.8,1.1c-1.8,0-2.6-1.2-2.6-4.4c0-2,0.3-4.4,2.7-4.4c0.6,0,1.4,0.3,1.8,1.2h0v-1
				H1072.6z M1069.3,440c0.9,0,1.2-1,1.2-2.5c0-2.1-0.3-2.9-1.2-2.9c-1,0-1.2,0.8-1.2,3.1C1068.2,439,1068.3,440,1069.3,440z"/>
			<path d="M1074.8,430.4h2.2v3.7h0c0.4-0.7,1.2-1.1,2.1-1.1c1.4,0,2.2,0.8,2.2,2.4v6.4h-2.2v-5.9c0-0.9-0.3-1.2-0.9-1.2
				c-0.8,0-1.2,0.5-1.2,1.4v5.7h-2.2V430.4z"/>
			<path d="M1083.4,435.8v-0.2c0-2,1.4-2.7,3-2.7c2.6,0,3.1,1.1,3.1,2.6v4.5c0,0.8,0,1.2,0.3,1.7h-2.1c-0.1-0.3-0.2-0.6-0.3-0.9h0
				c-0.5,0.9-1.1,1.1-2.2,1.1c-1.5,0-2.1-1.3-2.1-2.5c0-1.6,0.7-2.3,2.2-2.7l1.2-0.3c0.7-0.2,0.9-0.4,0.9-1c0-0.7-0.3-1.1-1-1.1
				c-0.7,0-1,0.4-1,1.1v0.2H1083.4z M1087.4,437.5c-0.3,0.2-0.7,0.4-0.9,0.4c-0.9,0.2-1.2,0.6-1.2,1.4c0,0.7,0.2,1.2,0.8,1.2
				c0.6,0,1.4-0.4,1.4-1.3V437.5z"/>
			<path d="M1091.8,430.2h2.2v1.9h-2.2V430.2z M1091.8,433.2h2.2v8.6h-2.2V433.2z"/>
		</g>
	</g>
	<g>
		<g>
			<path d="M565.2,534.6v-11.4h2.3v9.5h4.1v1.9H565.2z"/>
			<path d="M573.2,523.1h2.2v3.7h0c0.4-0.7,1.2-1.1,2.1-1.1c1.4,0,2.2,0.8,2.2,2.4v6.4h-2.2v-5.9c0-0.9-0.3-1.2-0.9-1.2
				c-0.8,0-1.2,0.5-1.2,1.4v5.7h-2.2V523.1z"/>
			<path d="M581.8,528.6v-0.2c0-2,1.4-2.7,3-2.7c2.6,0,3.1,1.1,3.1,2.6v4.5c0,0.8,0,1.2,0.3,1.7h-2.1c-0.1-0.3-0.2-0.6-0.3-0.9h0
				c-0.5,0.9-1.1,1.1-2.2,1.1c-1.5,0-2.1-1.3-2.1-2.5c0-1.6,0.7-2.3,2.2-2.7l1.2-0.3c0.7-0.2,0.9-0.4,0.9-1c0-0.7-0.3-1.1-1-1.1
				c-0.7,0-1,0.4-1,1.1v0.2H581.8z M585.9,530.3c-0.3,0.2-0.7,0.4-0.9,0.4c-0.9,0.2-1.2,0.6-1.2,1.4c0,0.7,0.2,1.2,0.8,1.2
				c0.6,0,1.4-0.4,1.4-1.3V530.3z"/>
			<path d="M591.8,531.8v0.3c0,0.8,0.4,1.2,1.2,1.2c0.7,0,1.1-0.3,1.1-1c0-0.6-0.4-0.8-0.8-1l-1.6-0.6c-1.2-0.4-1.8-1.2-1.8-2.4
				c0-1.4,0.9-2.6,3.2-2.6c2,0,2.9,0.9,2.9,2.4v0.4h-2c0-0.9-0.3-1.3-1-1.3c-0.6,0-1,0.3-1,0.9c0,0.4,0.2,0.8,1,1l1.3,0.4
				c1.4,0.5,1.9,1.2,1.9,2.5c0,1.8-1.3,2.7-3.2,2.7c-2.5,0-3.2-1.1-3.2-2.7v-0.3H591.8z"/>
			<path d="M597.9,528.6v-0.2c0-2,1.4-2.7,3-2.7c2.6,0,3.1,1.1,3.1,2.6v4.5c0,0.8,0,1.2,0.3,1.7h-2.1c-0.1-0.3-0.2-0.6-0.3-0.9h0
				c-0.5,0.9-1.1,1.1-2.2,1.1c-1.5,0-2.1-1.3-2.1-2.5c0-1.6,0.7-2.3,2.2-2.7l1.2-0.3c0.7-0.2,0.9-0.4,0.9-1c0-0.7-0.3-1.1-1-1.1
				c-0.7,0-1,0.4-1,1.1v0.2H597.9z M602,530.3c-0.3,0.2-0.7,0.4-0.9,0.4c-0.9,0.2-1.2,0.6-1.2,1.4c0,0.7,0.2,1.2,0.8,1.2
				c0.6,0,1.4-0.4,1.4-1.3V530.3z"/>
		</g>
	</g>
	<g>
		<g>
			<path d="M844.1,450.9h2.5l1.5,3.7l1.5-3.7h2.5l-2.7,5.7l2.8,5.8h-2.6l-1.6-3.9l-1.6,3.9h-2.5l2.8-5.8L844.1,450.9z"/>
			<path d="M853.8,450.8h2.2v1.9h-2.2V450.8z M853.8,453.7h2.2v8.6h-2.2V453.7z"/>
			<path d="M860.6,453c0,1.7-0.4,2.9-2.1,3.1v-1.1c0.6-0.1,0.8-0.7,0.8-1.3v-0.3h-0.8v-2.5h2.1V453z"/>
			<path d="M863,456.3v-0.2c0-2,1.4-2.7,3-2.7c2.6,0,3.1,1.1,3.1,2.6v4.5c0,0.8,0,1.2,0.3,1.7h-2.1c-0.1-0.3-0.2-0.6-0.3-0.9h0
				c-0.5,0.9-1.1,1.1-2.2,1.1c-1.5,0-2.1-1.3-2.1-2.5c0-1.6,0.7-2.3,2.2-2.7l1.2-0.3c0.7-0.2,0.9-0.4,0.9-1c0-0.7-0.3-1.1-1-1.1
				c-0.7,0-1,0.4-1,1.1v0.2H863z M867,458c-0.3,0.2-0.7,0.4-0.9,0.4c-0.9,0.2-1.2,0.6-1.2,1.4c0,0.7,0.2,1.2,0.8,1.2
				c0.6,0,1.4-0.4,1.4-1.3V458z"/>
			<path d="M871.3,453.7h2.1v1h0c0.5-0.8,1.3-1.2,2.2-1.2c1.4,0,2.2,0.8,2.2,2.4v6.4h-2.2v-5.9c0-0.9-0.3-1.2-0.9-1.2
				c-0.8,0-1.2,0.5-1.2,1.4v5.7h-2.2V453.7z"/>
		</g>
	</g>
	<path class="st8" d="M953.1,354.4c0,0-1.6,2.8-3.6,5.9c-2,3.1-1.6,5.1-4.7,6.7c-3.2,1.6-4.8,4.3-6.3,7.1c-1.6,2.8-4.3,7.1-4.3,7.1
		s-3.6,2.7-3.9,5.9c-0.4,3.2-2,4-3.9,6.3c-2,2.4-3.2,5.5-3.9,7.9c-0.8,2.4-2,1.6-4.7,4.3c-2.7,2.8-2.4,8.3-4.7,9.1
		c-2.4,0.8-5.1,1.2-7.5,3.1c-2.4,2-9.1,3.9-11.8,2.8c-2.8-1.2-3.6,1.6-6.3,1.6c-2.7,0-4.7-1.6-7.1,0.8c-2.4,2.4-9.9,7.1-13.8,7.9
		c-3.9,0.8-8.7,2.4-8.7-1.6c0-3.9-4.3-24.8-5.9-29.9c-1.6-5.1-2-21.7-3.6-22.9c-1.6-1.2-3.6-2.4-1.2-6.3c2.4-3.9,7.9-13.4,5.5-15.4
		c-2.4-2-4.8-5.5-8.3-5.5s-23.2,0.8-26.4,0.4c-3.2-0.4-7.9-2.8-9.5-1.6c-1.6,1.2-4.8,1.2-7.5,2.4c-2.7,1.2-3.9,4.3-4.3,7.9
		c-0.4,3.6-0.4,9.9,0,13c0.4,3.1,3.2,10.6,0.4,16.9c-2.8,6.3-7.1,14.2-11,15.8c-3.9,1.6-9.5,2-10.6,4.7c-1.2,2.8,2.8,6.3,2,9.1
		c-0.8,2.8-5.1,5.5-6.7,7.9c-1.6,2.4-3.1,3.1-5.9,3.9c-2.8,0.8-3.5,3.9-7.5,4.7c-3.9,0.8-7.9,1.2-10.3-0.8c-2.4-2-2.7-2-5.1-0.4
		c-2.4,1.6-4.7-1.2-7.1,0c-2.4,1.2-1.2,3.1-3.6,4.7c-2.4,1.6-5.5,3.6-5.5,7.1c0,3.5,2.8,5.9,5.1,6.3c2.4,0.4,4,2.8,5.1,4.7
		c1.2,2,6.3,3.9,7.9,6.3c1.6,2.4,3.9,6.3,1.2,7.1c-2.8,0.8-10.2-2.7-13.4-2.4c-3.2,0.4-8.3,3.5-11.8,2.4c-3.6-1.2-8.3-5.9-9.1-8.3
		c-0.8-2.4-2-4.7-4.3-4.3c-2.4,0.4-0.8-3.2-5.9-2.8c-5.1,0.4-10.2,5.9-11.8,4.3c-1.6-1.6,0.8-4.3-3.6-3.9
		c-4.3,0.4-16.1,0.4-16.1,0.4"/>
	<g>
		<g>
			<path d="M744.3,501.7c0-1.7-0.3-2.4-1.4-2.4c-1.2,0-1.4,1.2-1.4,4.4c0,3.5,0.5,4.1,1.5,4.1c0.8,0,1.4-0.4,1.4-2.9h2.3
				c0,2.5-0.6,4.6-3.6,4.6c-3.5,0-3.9-2.5-3.9-5.9c0-3.5,0.4-5.9,3.9-5.9c3.3,0,3.5,2.4,3.5,4.1H744.3z"/>
			<path d="M748.6,497.8h2.2v3.7h0c0.4-0.7,1.2-1.1,2.1-1.1c1.4,0,2.2,0.8,2.2,2.4v6.4h-2.2v-5.9c0-0.9-0.3-1.2-0.9-1.2
				c-0.8,0-1.2,0.5-1.2,1.4v5.7h-2.2V497.8z"/>
			<path d="M760.4,500.4c2.7,0,3.4,1.5,3.4,4.5c0,2.9-0.9,4.5-3.4,4.5c-2.7,0-3.4-1.5-3.4-4.5C757,502,757.8,500.4,760.4,500.4z
				 M760.4,508c0.9,0,1.2-0.9,1.2-3s-0.3-3-1.2-3c-1.1,0-1.2,1.3-1.2,3S759.3,508,760.4,508z"/>
			<path d="M765.6,500.6h2.1v1h0c0.5-0.8,1.3-1.2,2.2-1.2c1.4,0,2.2,0.8,2.2,2.4v6.4h-2.2v-5.9c0-0.9-0.3-1.2-0.9-1.2
				c-0.8,0-1.2,0.5-1.2,1.4v5.7h-2.2V500.6z"/>
			<path d="M780.7,500.6v8.2c0,2.3-1,3.4-3.6,3.4c-1.9,0-2.9-0.8-2.9-2.3h2.1c0,0.3,0.1,0.5,0.3,0.7c0.2,0.1,0.5,0.2,0.7,0.2
				c0.9,0,1.2-0.7,1.2-1.6v-1.1h0c-0.4,0.6-1.1,1.1-1.8,1.1c-1.8,0-2.6-1.2-2.6-4.4c0-2,0.3-4.4,2.7-4.4c0.6,0,1.4,0.3,1.8,1.2h0v-1
				H780.7z M777.4,507.4c0.9,0,1.2-1,1.2-2.5c0-2.1-0.3-2.9-1.2-2.9c-1,0-1.2,0.8-1.2,3.1C776.3,506.4,776.4,507.4,777.4,507.4z"/>
			<path d="M787.2,508.4L787.2,508.4c-0.5,0.7-1.1,1-1.9,1c-1.8,0-2.6-1.3-2.6-4.5s0.8-4.5,2.6-4.5c0.9,0,1.5,0.3,2,1.1h0v-0.9h2.1
				v11.4h-2.2V508.4z M786,502.1c-1,0-1.2,1-1.2,2.8s0.2,2.8,1.2,2.8c1,0,1.2-1,1.2-2.8S787,502.1,786,502.1z"/>
			<path d="M791.6,497.7h2.2v1.9h-2.2V497.7z M791.6,500.6h2.2v8.6h-2.2V500.6z"/>
			<path d="M796,500.6h2.1v1h0c0.5-0.8,1.3-1.2,2.2-1.2c1.4,0,2.2,0.8,2.2,2.4v6.4h-2.2v-5.9c0-0.9-0.3-1.2-0.9-1.2
				c-0.8,0-1.2,0.5-1.2,1.4v5.7H796V500.6z"/>
			<path d="M811.1,500.6v8.2c0,2.3-1,3.4-3.6,3.4c-1.9,0-2.9-0.8-2.9-2.3h2.1c0,0.3,0.1,0.5,0.3,0.7c0.2,0.1,0.5,0.2,0.7,0.2
				c0.9,0,1.2-0.7,1.2-1.6v-1.1h0c-0.4,0.6-1.1,1.1-1.8,1.1c-1.8,0-2.6-1.2-2.6-4.4c0-2,0.3-4.4,2.7-4.4c0.6,0,1.4,0.3,1.8,1.2h0v-1
				H811.1z M807.8,507.4c0.9,0,1.2-1,1.2-2.5c0-2.1-0.3-2.9-1.2-2.9c-1,0-1.2,0.8-1.2,3.1C806.7,506.4,806.8,507.4,807.8,507.4z"/>
		</g>
	</g>
	<path class="st8" d="M485.7,520.5c1.4,2,8.2,6.7,11.6,10.2c3.3,3.5,13.6,7.3,17,7.8c3.3,0.5,11,1.3,16.9,3.3c5.9,2,11.2,4.4,16,3.9
		c4.8-0.5,47.9-2.4,52.7-1.9c4.8,0.5,23.6,2.9,28.5,2.4c4.9-0.5,10.8-2,15.1-3.5c4.3-1.4,13.4-11.2,16.9-9.7
		c3.5,1.5,0.5,7.9-0.5,11.2c-1,3.3-1.9,6.8,0,11.1c1.9,4.3,6.4,6.1,3,9.1c-3.5,3-9.3,10.8-14.1,12.2c-4.8,1.4-33.9,14.5-41.6,14
		c-7.7-0.5-15.5-0.6-19.8,3.8c-4.3,4.4-7.7,15.4-6.2,20.3c1.4,4.9,14.5,15.9,15.4,20.8c1,4.9,3.5,9.2,3.5,9.2 M647.7,478.9
		c0,0,14.6,4.8,17.9,8.7c3.3,3.9,13.4,3,15.4,6.3c2,3.3,5.4,14.6,8.2,18.4c2.9,3.8,24.5,31.8,25.6,37.7c1.1,5.9,8.2,21.9,8.2,27.1
		c0,5.3-1.1,14.4,2.4,17.3c3.5,3,9.2,1.5,9.7,3.5c0.5,1.9,2.5,4.8,2.5,4.8s3.3-1.5,4.3,1.9c1,3.5,2.9,14.1,1.9,16.5
		c-1,2.4-3.9,4.7-0.5,7.2c3.5,2.5,14,8.8,14,13.6c0,4.8-5.9,21.8-2.4,25.1c3.5,3.3,11.7,3.8,15.1,3.8c3.3,0,7.7-3.5,7.7,0
		c0,3.5-3.3,6.2-2.9,9.7c0.5,3.5,1,5.9,1,5.9"/>
	<g>
		<g>
			<path d="M970.9,593.6h2.3v4.4h2.7v-4.4h2.3V605h-2.3V600h-2.7v5.1h-2.3V593.6z"/>
			<path d="M983.5,596.2c2.7,0,3.4,1.5,3.4,4.5c0,2.9-0.9,4.5-3.4,4.5c-2.7,0-3.4-1.5-3.4-4.5C980.1,597.8,981,596.2,983.5,596.2z
				 M983.5,603.8c0.9,0,1.2-0.9,1.2-3s-0.3-3-1.2-3c-1.1,0-1.2,1.3-1.2,3S982.4,603.8,983.5,603.8z"/>
			<path d="M988.7,596.4h2.1v1h0c0.5-0.8,1.3-1.2,2.2-1.2c1.4,0,2.2,0.8,2.2,2.4v6.4H993v-5.9c0-0.9-0.3-1.2-0.9-1.2
				c-0.8,0-1.2,0.5-1.2,1.4v5.7h-2.2V596.4z"/>
			<path d="M1003.8,596.4v8.2c0,2.3-1,3.4-3.6,3.4c-1.9,0-2.9-0.8-2.9-2.3h2.1c0,0.3,0.1,0.5,0.3,0.7c0.2,0.1,0.5,0.2,0.7,0.2
				c0.9,0,1.2-0.7,1.2-1.6v-1.1h0c-0.4,0.6-1.1,1.1-1.8,1.1c-1.8,0-2.6-1.2-2.6-4.4c0-2,0.3-4.4,2.7-4.4c0.6,0,1.4,0.3,1.8,1.2h0v-1
				H1003.8z M1000.5,603.2c0.9,0,1.2-1,1.2-2.5c0-2.1-0.3-2.9-1.2-2.9c-1,0-1.2,0.8-1.2,3.1C999.4,602.2,999.6,603.2,1000.5,603.2z"
				/>
			<path d="M1008.3,593.6v6h0l2.2-3.2h2.4l-2.5,3.4l2.8,5.2h-2.4l-1.8-3.5l-0.8,1v2.5h-2.2v-11.4H1008.3z"/>
			<path d="M1017.7,596.2c2.7,0,3.4,1.5,3.4,4.5c0,2.9-0.9,4.5-3.4,4.5c-2.7,0-3.4-1.5-3.4-4.5
				C1014.3,597.8,1015.2,596.2,1017.7,596.2z M1017.7,603.8c0.9,0,1.2-0.9,1.2-3s-0.3-3-1.2-3c-1.1,0-1.2,1.3-1.2,3
				S1016.6,603.8,1017.7,603.8z"/>
			<path d="M1022.9,596.4h2.1v1h0c0.5-0.8,1.3-1.2,2.2-1.2c1.4,0,2.2,0.8,2.2,2.4v6.4h-2.2v-5.9c0-0.9-0.3-1.2-0.9-1.2
				c-0.8,0-1.2,0.5-1.2,1.4v5.7h-2.2V596.4z"/>
			<path d="M1038,596.4v8.2c0,2.3-1,3.4-3.6,3.4c-1.9,0-2.9-0.8-2.9-2.3h2.1c0,0.3,0.1,0.5,0.3,0.7c0.2,0.1,0.5,0.2,0.7,0.2
				c0.9,0,1.2-0.7,1.2-1.6v-1.1h0c-0.4,0.6-1.1,1.1-1.8,1.1c-1.8,0-2.6-1.2-2.6-4.4c0-2,0.3-4.4,2.7-4.4c0.6,0,1.4,0.3,1.8,1.2h0v-1
				H1038z M1034.7,603.2c0.9,0,1.2-1,1.2-2.5c0-2.1-0.3-2.9-1.2-2.9c-1,0-1.2,0.8-1.2,3.1C1033.6,602.2,1033.8,603.2,1034.7,603.2z"
				/>
		</g>
	</g>
	<path class="st9" d="M955.6,594c0-2.3,1.9-4.3,4.3-4.3c2.3,0,4.3,1.9,4.3,4.3c0,2.3-1.9,4.3-4.3,4.3
		C957.5,598.3,955.6,596.3,955.6,594L955.6,594z"/>
	<path class="st0" d="M905,649.2c-4.8,2-14,1.1-14.9,4.4c-1,3.3,1.9,5.2-1.4,6.7c-3.3,1.5-5.5,4.8-4.4,8.2c1.1,3.5,6.8,0.6,8.2,3.9
		c1.4,3.3,6.8,4.3,6.8,4.3s4.4-7.8,7.8-8.2c3.3-0.5,4.8-1.9,4.8-4.3c0-2.4-1.1-5.4,2.4-7.8c3.5-2.4,3.8-3.7,2.4-6.2
		c-1.4-2.5-1.9-8.2-3.8-6.3C910.8,645.8,905,649.2,905,649.2L905,649.2z"/>
	<g>
		<g>
			<path d="M695.9,404.2h2.5l1.5,3.7l1.5-3.7h2.5l-2.7,5.7l2.8,5.8h-2.6l-1.6-3.9l-1.6,3.9h-2.5l2.8-5.8L695.9,404.2z"/>
			<path d="M705.6,404.1h2.2v1.9h-2.2V404.1z M705.6,407.1h2.2v8.6h-2.2V407.1z"/>
			<path d="M710,407.1h2.1v1h0c0.5-0.8,1.3-1.2,2.2-1.2c1.4,0,2.2,0.8,2.2,2.4v6.4h-2.2v-5.9c0-0.9-0.3-1.2-0.9-1.2
				c-0.8,0-1.2,0.5-1.2,1.4v5.7H710V407.1z"/>
			<path d="M718.7,404.1h2.2v1.9h-2.2V404.1z M718.7,407.1h2.2v8.6h-2.2V407.1z"/>
			<path d="M723.1,407.1h2.1v1h0c0.5-0.8,1.3-1.2,2.2-1.2c1.4,0,2.2,0.8,2.2,2.4v6.4h-2.2v-5.9c0-0.9-0.3-1.2-0.9-1.2
				c-0.8,0-1.2,0.5-1.2,1.4v5.7h-2.2V407.1z"/>
			<path d="M738.2,407.1v8.2c0,2.3-1,3.4-3.6,3.4c-1.9,0-2.9-0.8-2.9-2.3h2.1c0,0.3,0.1,0.5,0.3,0.7c0.2,0.1,0.5,0.2,0.7,0.2
				c0.9,0,1.2-0.7,1.2-1.6v-1.1h0c-0.4,0.6-1.1,1.1-1.8,1.1c-1.8,0-2.6-1.2-2.6-4.4c0-2,0.3-4.4,2.7-4.4c0.6,0,1.4,0.3,1.8,1.2h0v-1
				H738.2z M734.9,413.9c0.9,0,1.2-1,1.2-2.5c0-2.1-0.3-2.9-1.2-2.9c-1,0-1.2,0.8-1.2,3.1C733.8,412.8,734,413.9,734.9,413.9z"/>
		</g>
	</g>
	<path class="st9" d="M816.3,514.1c0-2.3,1.9-4.3,4.3-4.3c2.3,0,4.3,1.9,4.3,4.3c0,2.3-1.9,4.3-4.3,4.3
		C818.2,518.3,816.3,516.4,816.3,514.1L816.3,514.1z"/>
	<polygon class="st10" points="522.2,454.4 675.3,454.4 675.3,607.4 522.2,607.4 522.2,454.4 	"/>
	<path class="st11" d="M589.2,166.6c355.6,0,430,271.3,430,271.3 M1019.2,437.9c0,0-106.2-23.2-183.5,3.8
		c-153,3.1-220.9,95.8-220.9,95.8"/>
	<path class="st9" d="M832.6,441.6c0-2.3,1.9-4.3,4.3-4.3c2.3,0,4.3,1.9,4.3,4.3c0,2.3-1.9,4.3-4.3,4.3
		C834.5,445.9,832.6,444,832.6,441.6L832.6,441.6z"/>
	<path class="st11" d="M360.8,176.8c-87.4-39.4-156.9,23.9-156.9,23.9"/>
	<polyline class="st12" points="133.6,216.2 159.2,231.1 229.4,223.4 203.9,200.7 199.4,171.5 133.6,216.2 63,234.1 77.1,254.1 	"/>
	<path class="st9" d="M195.1,171.6c0-2.3,1.9-4.3,4.3-4.3c2.3,0,4.3,1.9,4.3,4.3c0,2.3-1.9,4.3-4.3,4.3
		C197,175.8,195.1,173.9,195.1,171.6L195.1,171.6z"/>
	<path class="st9" d="M225,223.2c0-2.3,1.9-4.3,4.3-4.3c2.3,0,4.3,1.9,4.3,4.3c0,2.3-1.9,4.3-4.3,4.3
		C226.9,227.4,225,225.5,225,223.2L225,223.2z"/>
	<path class="st9" d="M154.9,230.6c0-2.3,1.9-4.3,4.3-4.3c2.3,0,4.3,1.9,4.3,4.3c0,2.3-1.9,4.3-4.3,4.3
		C156.8,234.9,154.9,233,154.9,230.6L154.9,230.6z"/>
	<path class="st9" d="M129.7,216c0-2.3,1.9-4.3,4.3-4.3c2.3,0,4.3,1.9,4.3,4.3c0,2.3-1.9,4.3-4.3,4.3
		C131.6,220.3,129.7,218.4,129.7,216L129.7,216z"/>
	<path class="st9" d="M58.8,233.8c0-2.3,1.9-4.3,4.3-4.3c2.3,0,4.3,1.9,4.3,4.3c0,2.3-1.9,4.3-4.3,4.3
		C60.7,238.1,58.8,236.2,58.8,233.8L58.8,233.8z"/>
	<path class="st9" d="M72.9,254.1c0-2.3,1.9-4.3,4.3-4.3c2.3,0,4.3,1.9,4.3,4.3c0,2.3-1.9,4.3-4.3,4.3
		C74.8,258.3,72.9,256.4,72.9,254.1L72.9,254.1z"/>
	<path class="st12" d="M203.8,200.7c0,0,25.5-112.2,159.6-150.4 M613.4,539.3c0,0,12.5-101.3,129.4-113.2"/>
	<path class="st9" d="M199.6,200.7c0-2.3,1.9-4.3,4.3-4.3c2.3,0,4.3,1.9,4.3,4.3c0,2.3-1.9,4.3-4.3,4.3
		C201.5,205,199.6,203.1,199.6,200.7L199.6,200.7z"/>
	<path class="st9" d="M609.1,539.3c0-2.3,1.9-4.3,4.3-4.3s4.3,1.9,4.3,4.3c0,2.3-1.9,4.3-4.3,4.3S609.1,541.6,609.1,539.3
		L609.1,539.3z"/>
	<path class="st11" d="M743.4,427.3c0,0,106.3-74.8,275.8,10.6"/>
	<path class="st9" d="M1014.4,437.9c0-2.3,1.9-4.3,4.3-4.3c2.3,0,4.3,1.9,4.3,4.3c0,2.3-1.9,4.3-4.3,4.3
		C1016.3,442.2,1014.4,440.3,1014.4,437.9L1014.4,437.9z"/>
	<path class="st9" d="M738.6,426.1c0-2.3,1.9-4.3,4.3-4.3s4.3,1.9,4.3,4.3c0,2.3-1.9,4.3-4.3,4.3S738.6,428.5,738.6,426.1
		L738.6,426.1z"/>
	<g>
		<g>
			<path d="M558,371.8c-0.2-1.1-1.2-2-2.5-2c-2.3,0-3.1,1.9-3.1,3.9c0,1.9,0.8,3.8,3.1,3.8c1.5,0,2.4-1.1,2.6-2.6h2.4
				c-0.3,2.8-2.2,4.7-5,4.7c-3.5,0-5.6-2.6-5.6-5.9c0-3.4,2.1-6,5.6-6c2.5,0,4.6,1.5,4.9,4.1H558z"/>
			<path d="M565.4,368h2.5v4.4h4.6V368h2.5v11.4h-2.5v-4.9h-4.6v4.9h-2.5V368z"/>
			<path d="M580.5,368h2.5v11.4h-2.5V368z"/>
			<path d="M588.4,368h2.5l4.8,7.7h0V368h2.4v11.4h-2.5l-4.8-7.7h0v7.7h-2.4V368z"/>
			<path d="M606.6,368h2.6l4.3,11.4h-2.6l-0.9-2.5h-4.3l-0.9,2.5h-2.5L606.6,368z M606.3,375h3l-1.4-4.2h0L606.3,375z"/>
		</g>
	</g>
	<g>
		<g>
			<path d="M51.1,70.7h-3.4v-2.1H57v2.1h-3.4V80h-2.5V70.7z"/>
			<path d="M61.5,68.5H64V80h-2.5V68.5z"/>
			<path d="M69.4,68.5h5.4c2.2,0,3.6,0.7,3.6,2.8c0,1.1-0.6,1.9-1.6,2.4c1.4,0.4,2.1,1.5,2.1,2.9c0,2.3-2,3.3-4,3.3h-5.5V68.5z
				 M71.9,73.2h2.5c0.9,0,1.5-0.4,1.5-1.4c0-1.1-0.8-1.3-1.7-1.3h-2.4V73.2z M71.9,78h2.7c1,0,1.9-0.3,1.9-1.5
				c0-1.2-0.7-1.6-1.8-1.6h-2.7V78z"/>
			<path d="M83.9,68.5h8.5v2.1h-6v2.4h5.5v2h-5.5v2.8h6.2V80h-8.7V68.5z"/>
			<path d="M100,70.7h-3.4v-2.1h9.4v2.1h-3.4V80H100V70.7z"/>
		</g>
	</g>
	<g>
		<g>
			<path d="M50.4,262.4h2.1l1.5,6.3h0l1.5-6.3h2.1v8.6h-1.3v-7.1h0l-1.7,7.1h-1.2l-1.7-7.1h0v7.1h-1.3V262.4z"/>
			<path d="M58.9,264.5h0.9v-1.8h1.3v1.8h1.1v1h-1.1v3.9c0,0.5,0.1,0.7,0.6,0.7c0.2,0,0.3,0,0.5,0v1c-0.3,0.1-0.6,0.1-1,0.1
				c-0.9,0-1.3-0.2-1.3-1.6v-4h-0.9V264.5z"/>
			<path d="M63.4,269.4h1.4v1.6h-1.4V269.4z"/>
			<path d="M70.1,262.4h4.6v1.2h-3.3v2.4h3.1v1.2h-3.1v2.7h3.4v1.2h-4.7V262.4z"/>
			<path d="M75.7,264.5h1.4l1.1,5.1h0l1-5.1h1.4L79,271h-1.5L75.7,264.5z"/>
			<path d="M83,267.9v0.4c0,0.9,0.1,2,1.1,2c0.9,0,1-1.1,1-1.4h1.2c0,1.4-0.9,2.3-2.3,2.3c-1.1,0-2.4-0.3-2.4-3.3
				c0-1.7,0.4-3.5,2.4-3.5c1.8,0,2.3,1.1,2.3,2.9v0.7H83z M85,267v-0.3c0-0.8-0.3-1.4-1-1.4c-0.8,0-1.1,0.8-1.1,1.7v0.1H85z"/>
			<path d="M87.9,264.5h1.3v1h0c0.3-0.7,0.8-1.2,1.5-1.2c0.1,0,0.2,0,0.3,0v1.3c-0.1,0-0.3-0.1-0.5-0.1c-0.6,0-1.3,0.3-1.3,1.5v3.9
				h-1.3V264.5z"/>
			<path d="M93.3,267.9v0.4c0,0.9,0.1,2,1.1,2c0.9,0,1-1.1,1-1.4h1.2c0,1.4-0.9,2.3-2.3,2.3c-1.1,0-2.4-0.3-2.4-3.3
				c0-1.7,0.4-3.5,2.4-3.5c1.8,0,2.3,1.1,2.3,2.9v0.7H93.3z M95.3,267v-0.3c0-0.8-0.3-1.4-1-1.4c-0.8,0-1.1,0.8-1.1,1.7v0.1H95.3z"
				/>
			<path d="M101,266.4v-0.2c0-0.5-0.2-1-0.9-1c-0.5,0-0.9,0.2-0.9,0.8c0,0.5,0.2,0.7,0.9,0.9l0.8,0.3c1,0.3,1.4,0.8,1.4,1.9
				c0,1.4-1,2-2.3,2c-1.6,0-2.1-0.8-2.1-2v-0.2h1.2v0.2c0,0.7,0.3,1.2,1,1.2c0.7,0,1.1-0.4,1.1-0.9c0-0.5-0.3-0.8-0.7-0.9l-1.1-0.4
				c-1-0.3-1.4-0.8-1.4-1.9c0-1.2,0.9-1.8,2.2-1.8c1.6,0,2,1,2,1.8v0.3H101z"/>
			<path d="M103.2,264.5h0.9v-1.8h1.3v1.8h1.1v1h-1.1v3.9c0,0.5,0.1,0.7,0.6,0.7c0.2,0,0.3,0,0.5,0v1c-0.3,0.1-0.6,0.1-1,0.1
				c-0.9,0-1.3-0.2-1.3-1.6v-4h-0.9V264.5z"/>
			<path d="M60.5,280.6c0-1.3,0.6-2,1.5-2.1v0c-0.7-0.3-1.2-0.8-1.2-1.8c0-1.3,0.9-2.1,2.3-2.1s2.3,0.8,2.3,2.1c0,1-0.4,1.6-1.2,1.8
				v0c0.8,0.2,1.5,0.9,1.5,2.1c0,1.7-0.8,2.5-2.6,2.5S60.5,282.3,60.5,280.6z M63.1,282.2c1,0,1.2-0.7,1.2-1.6
				c0-0.9-0.2-1.6-1.2-1.6s-1.2,0.7-1.2,1.6C61.9,281.5,62.1,282.2,63.1,282.2z M63.1,278c0.9,0,1.1-0.6,1.1-1.3
				c0-0.7-0.2-1.3-1.1-1.3S62,276,62,276.7C62,277.4,62.2,278,63.1,278z"/>
			<path d="M66.8,280.6c0-1.3,0.6-2,1.5-2.1v0c-0.7-0.3-1.2-0.8-1.2-1.8c0-1.3,0.9-2.1,2.3-2.1s2.3,0.8,2.3,2.1c0,1-0.4,1.6-1.2,1.8
				v0c0.8,0.2,1.5,0.9,1.5,2.1c0,1.7-0.8,2.5-2.6,2.5S66.8,282.3,66.8,280.6z M69.3,282.2c1,0,1.2-0.7,1.2-1.6
				c0-0.9-0.2-1.6-1.2-1.6s-1.2,0.7-1.2,1.6C68.1,281.5,68.4,282.2,69.3,282.2z M69.3,278c0.9,0,1.1-0.6,1.1-1.3
				c0-0.7-0.2-1.3-1.1-1.3s-1.1,0.6-1.1,1.3C68.3,277.4,68.5,278,69.3,278z"/>
			<path d="M73,279.9l2.9-5.4h1.4v5.5h0.9v1.1h-0.9v1.9H76v-1.9h-3V279.9z M76,276.5L76,276.5l-1.9,3.5H76V276.5z"/>
			<path d="M80.8,281.1c0,0.5,0.2,1.1,0.9,1.1c1.3,0,1.4-1.7,1.4-2.9l0,0c-0.3,0.6-0.9,0.9-1.7,0.9c-1.2,0-2.1-0.8-2.1-2.5
				c0-2,0.8-3.1,2.6-3.1c2.1,0,2.6,1.6,2.6,4.1c0,2.5-0.5,4.6-2.7,4.6c-1.5,0-2.3-0.7-2.3-2.1H80.8z M81.7,275.4
				c-0.8,0-1.1,0.8-1.1,1.8c0,1.2,0.3,1.8,1.1,1.8c1,0,1.2-0.9,1.2-1.9C82.9,276.2,82.5,275.4,81.7,275.4z"/>
			<path d="M87.8,276.5H89v0.8h0c0.3-0.6,0.9-0.9,1.5-0.9c0.9,0,1.3,0.4,1.5,1c0.4-0.6,0.9-1,1.6-1c0.9,0,1.6,0.5,1.6,1.7v4.9H94
				v-4.4c0-0.8-0.3-1.2-0.8-1.2s-1,0.4-1,1.3v4.3h-1.3v-4.4c0-0.8-0.3-1.2-0.8-1.2c-0.5,0-1,0.4-1,1.3v4.3h-1.3V276.5z"/>
		</g>
		<polygon class="st13" points="78.1,286.3 73,292.1 83.2,292.1 		"/>
	</g>
	<g>
		<circle class="st2" cx="1018.6" cy="419.5" r="5.7"/>
		<path class="st14" d="M1018.6,410.2c-5,0-9,4-9,9c0,2,1.3,5.3,3.9,10c1.9,3.3,3.7,6.1,3.8,6.2l1.3,2l1.3-2
			c0.1-0.1,1.9-2.9,3.8-6.2c2.6-4.7,3.9-8,3.9-10C1027.6,414.2,1023.5,410.2,1018.6,410.2z M1018.6,423.8c-2.6,0-4.7-2.1-4.7-4.7
			s2.1-4.7,4.7-4.7c2.6,0,4.7,2.1,4.7,4.7C1023.2,421.7,1021.2,423.8,1018.6,423.8z"/>
	</g>
</g>
</svg>
