<?xml version="1.0" encoding="utf-8"?>
<!-- Generator: Adobe Illustrator 21.0.2, SVG Export Plug-In . SVG Version: 6.00 Build 0)  -->
<svg version="1.1" id="Ebene_1" xmlns="http://www.w3.org/2000/svg" xmlns:xlink="http://www.w3.org/1999/xlink" x="0px" y="0px"
	 viewBox="0 0 40 54" style="enable-background:new 0 0 40 54;" xml:space="preserve">
<style type="text/css">
	.st0{fill:#FFFFFF;}
</style>
<g>
	<path class="st0" d="M39.3,44c-1.4,0-4.6-0.1-6.7-0.8c-1.9-0.6-3.4-1.8-4.1-2.5l-0.1-2c1.3-0.6,5.1-2.4,6-4.4
		c0.1-0.2-0.1-0.4-0.3-0.4c-0.9,0.2-2.8,0.5-4.2,0.4c-0.7-0.1-1.3-0.3-1.8-0.5l-0.2-3c1.6-0.8,4.6-2.4,5.4-4.2
		c0.1-0.2-0.1-0.4-0.3-0.4c-0.9,0.2-2.8,0.5-4.2,0.4c-0.4-0.1-0.8-0.2-1.2-0.3l-0.2-3.2c1.7-0.8,4.1-2.3,4.8-3.9
		c0.1-0.2-0.1-0.4-0.3-0.4c-0.9,0.2-2.8,0.5-4.2,0.4c-0.2,0-0.4-0.1-0.6-0.1l-0.2-4.4c1.5-0.3,2.7-0.7,3.5-1.4
		c0.4-0.3,0.4-0.9-0.1-1.2c-2-1.2-7.2-4.8-9.5-10.9c-0.3-0.8-1.3-0.8-1.6,0c-2.3,6.1-7.5,9.7-9.5,10.9c-0.4,0.3-0.5,0.9-0.1,1.2
		c0.8,0.6,2.1,1.1,3.5,1.4l-0.2,4.4c-0.2,0-0.4,0.1-0.6,0.1c-1.3,0.2-3.3-0.2-4.2-0.4c-0.2,0-0.4,0.2-0.3,0.4c0.7,1.6,3.2,3,4.8,3.9
		l-0.2,3.2c-0.4,0.1-0.8,0.2-1.2,0.3c-1.3,0.2-3.3-0.2-4.2-0.4c-0.2,0-0.4,0.2-0.3,0.4c0.8,1.8,3.8,3.4,5.4,4.2l-0.2,3
		c-0.5,0.2-1.1,0.4-1.8,0.5c-1.3,0.2-3.3-0.2-4.2-0.4c-0.2,0-0.4,0.2-0.3,0.4c0.9,2,4.7,3.8,6,4.4l-0.1,2c-0.7,0.6-2.2,1.8-4.1,2.5
		c-2,0.7-5.2,0.8-6.7,0.8c-0.3,0-0.6,0.4-0.4,0.7c1,1.3,2.9,2.4,5,3.2v5.6h28.8v-5.6c2-0.8,4-1.9,5-3.2C39.8,44.4,39.6,44,39.3,44z
		 M20.3,23.4c0.9,0,1.6,0.7,1.6,1.6v3.6h-3.1v-3.6C18.7,24.1,19.4,23.4,20.3,23.4z M18.7,21v-3.6c0-0.9,0.7-1.6,1.6-1.6
		c0.9,0,1.6,0.7,1.6,1.6V21H18.7z M20.3,30.9c0.9,0,1.6,0.7,1.6,1.6V36h-3.1v-3.6C18.7,31.6,19.4,30.9,20.3,30.9z M20.3,38.4
		c0.9,0,1.6,0.7,1.6,1.6v3.6h-3.1v-3.6C18.7,39.1,19.4,38.4,20.3,38.4z"/>
</g>
</svg>
