<?xml version="1.0" encoding="utf-8"?>
<!-- Generator: Adobe Illustrator 21.0.2, SVG Export Plug-In . SVG Version: 6.00 Build 0)  -->
<svg version="1.1" id="Ebene_1" xmlns="http://www.w3.org/2000/svg" xmlns:xlink="http://www.w3.org/1999/xlink" x="0px" y="0px"
	 viewBox="0 0 44 73" style="enable-background:new 0 0 44 73;" xml:space="preserve">
<style type="text/css">
	.st0{fill:#FFFFFF;}
</style>
<g>
	<path class="st0" d="M7.2,7.2c0.3,0.1,1.3,0.3,2,0.3c0.5,0,1.1,0,1.3-0.1c0.4,0.7,1.5,2.5,2.1,2.6c0.5,0,4.3,0.6,5.2,0.7l1,14.5
		h6.8L26,10.4c2.4-0.6,6.2-1.5,6.4-2c0.2-0.3,0.5-1.3,0.6-1.6c0.3,0,1.2-0.1,1.6-0.1c0.4-0.1,1.7-0.5,2-0.8c0.3-0.2,0.4-0.3,0.4-0.5
		l0-0.1l-0.1-0.1c0,0-0.1,0-0.1,0c0-0.1-0.1-0.1-0.2-0.2c-0.1,0-0.5,0-0.9,0c0-0.1,0-0.1,0-0.1c0-0.1-0.1-0.1-0.2-0.1
		c-0.1,0-1.3,0-1.6,0.2c-0.1,0.1-0.3,0.2-0.4,0.3c-0.1,0.1-0.2,0.2-0.2,0.2c0,0-0.1,0-0.2,0c-0.1-0.1-0.3-0.1-0.4-0.1
		c-1.2,0.2-1.9,0.3-2.3,0.3c-0.5,0-1,0.1-1.3,0.1c-0.2,0-0.3,0-0.4,0c-0.2,0-1.2-0.2-1.8-0.3c0,0-0.9-0.4-1.6-0.5
		c-0.5-0.1-1.4-0.1-1.8-0.2c0-0.4-0.1-1.5-0.2-2c0-0.2,0-0.3,0-0.5c0-0.5,0-1-0.2-1.3c-0.3-0.4-0.8-0.6-1.1-0.6
		c-0.3,0-1.2,0-1.5,0.7c-0.2,0.5-0.5,2.9-0.6,3.6c-0.4,0-1.2,0.1-1.7,0.2l-0.2,0c-0.5,0.1-0.8,0.2-1.2,0.3c-0.2,0-0.4,0-0.5,0
		c-0.2,0-0.5,0-0.8,0.1c-0.4,0.2-0.8,0.3-0.8,0.3c0,0-0.9,0.2-1.5,0.2c-0.4,0-0.7,0-1.1,0c-0.3,0-0.6,0-0.8,0c-0.4,0-0.5,0-0.6,0
		c-0.1,0-0.1,0-0.2,0l-0.2,0L10.1,6C10,5.9,9.6,5.7,9.4,5.7c-0.3,0-1.4,0-1.5,0l-0.2,0l0,0.3c0,0-0.1,0-0.2,0C6.8,6,6.7,6,6.7,6
		c-0.1,0-0.1,0.1-0.1,0.2c0,0-0.1,0-0.1,0L6.3,6.3l0,0.1C6.3,6.7,6.7,7.1,7.2,7.2z"/>
	<path class="st0" d="M26.5,30.3l-1.1-2.6H19l-1,2.2c-9.6,8.4-17.5,43-17.5,43L43.4,73C43.4,73,36,39.4,26.5,30.3z"/>
</g>
</svg>
