<?xml version="1.0" encoding="utf-8"?>
<!-- Generator: Adobe Illustrator 21.0.2, SVG Export Plug-In . SVG Version: 6.00 Build 0)  -->
<svg version="1.1" id="Ebene_1" xmlns="http://www.w3.org/2000/svg" xmlns:xlink="http://www.w3.org/1999/xlink" x="0px" y="0px"
	 viewBox="0 0 77 49" style="enable-background:new 0 0 77 49;" xml:space="preserve">
<style type="text/css">
	.st0{fill:#FFFFFF;}
</style>
<g>
	<path class="st0" d="M76.5,29.8c-0.4-1.3-1.5-4.4-3.8-7.1c-2.1-2.4-5.8-5.1-7-6c-0.2-0.2-0.4-0.3-0.5-0.6c-0.7-1.3-3.9-6-12.6-4.6
		c-3.4,0.6-6.9,1.8-8.2,2.4c-0.3,0.1-0.4,0.5-0.2,0.8l4.2,5.3l-6.4,5.9c-0.3,0.2-0.7,0.1-0.8-0.2c-0.3-1.1-0.7-2.3-1.6-3.2
		C37.1,19.6,32,20,32,20s-0.9,5,1.7,7.9c0.9,1,2.2,1.7,3.5,2c-1.2,0.4-2.5,1-3.5,2c-2.6,2.9-1.7,7.9-1.7,7.9s5.1,0.4,7.7-2.5
		c0.8-0.9,1.3-2.1,1.6-3.2c0.1-0.3,0.5-0.5,0.7-0.3c1.9,1.6,6.6,5.4,9.6,7.7c2.3,1.8,5.8,2.1,5.8,2.1l-2.4,4.2
		c-0.2,0.4,0.1,0.8,0.5,0.7c1.6-0.3,4.8-1,7.1-2.2c3.1-1.8,3.5-4.9,3.5-4.9s3.6-2,6-4.2c2.1-1.9,3.7-4.9,4.3-6.2
		C76.6,30.7,76.7,30.2,76.5,29.8z M68.9,31.4c-1.3,0-2.3-1-2.3-2.3s1-2.3,2.3-2.3s2.3,1,2.3,2.3S70.2,31.4,68.9,31.4z"/>
	<circle class="st0" cx="68.9" cy="29.1" r="2.3"/>
	<path class="st0" d="M24.4,7.1c-1.2-1.4-3.4-3-4.1-3.5c-0.1-0.1-0.2-0.2-0.3-0.3c-0.4-0.8-2.3-3.5-7.3-2.7c-2,0.3-4,1-4.8,1.4
		C7.8,2.1,7.8,2.3,7.9,2.5l2.4,3.1L6.6,9C6.4,9.1,6.2,9,6.1,8.8C6,8.2,5.7,7.5,5.2,7C3.7,5.3,0.8,5.5,0.8,5.5s-0.5,2.9,1,4.6
		c0.5,0.6,1.3,1,2,1.2c-0.7,0.2-1.5,0.6-2,1.2c-1.5,1.7-1,4.6-1,4.6s3,0.2,4.5-1.4c0.5-0.5,0.8-1.2,0.9-1.9c0-0.2,0.3-0.3,0.4-0.1
		c1.1,0.9,3.8,3.1,5.6,4.5c1.3,1,3.4,1.2,3.4,1.2l-1.4,2.4c-0.1,0.2,0.1,0.5,0.3,0.4c0.9-0.2,2.8-0.6,4.1-1.3c1.8-1,2-2.8,2-2.8
		s2.1-1.2,3.5-2.5c1.2-1.1,2.1-2.9,2.5-3.6c0.1-0.2,0.1-0.5,0.1-0.7C26.3,10.4,25.7,8.7,24.4,7.1z M22.1,12.1
		c-0.7,0-1.3-0.6-1.3-1.3c0-0.7,0.6-1.3,1.3-1.3s1.3,0.6,1.3,1.3C23.5,11.5,22.9,12.1,22.1,12.1z"/>
	<circle class="st0" cx="22.1" cy="10.8" r="1.3"/>
</g>
</svg>
