<?xml version="1.0" encoding="utf-8"?>
<!-- Generator: Adobe Illustrator 21.0.2, SVG Export Plug-In . SVG Version: 6.00 Build 0)  -->
<svg version="1.1" id="Ebene_1" xmlns="http://www.w3.org/2000/svg" xmlns:xlink="http://www.w3.org/1999/xlink" x="0px" y="0px"
	 viewBox="0 0 33 42" style="enable-background:new 0 0 33 42;" xml:space="preserve">
<style type="text/css">
	.st0{fill:#FFFFFF;}
</style>
<g>
	<path class="st0" d="M32.2,20.7C32.2,9.4,25.1,0.2,16.4,0c3.2,3,6.4,7.5,6.2,13.8c-0.1,3.8-2.2,6.6-4.2,9.3
		c-3.4,4.5-6.5,8.8-2.2,18.3C25,41.4,32.2,32.2,32.2,20.7z"/>
	<path class="st0" d="M15.9,21.4c1.9-2.6,3.5-4.8,3.6-7.7c0.2-6.4-4-10.7-7.2-13.1C5.3,2.8,0.1,11,0.1,20.7
		c0,9.9,5.4,18.2,12.6,20.2C8.8,30.9,12.7,25.7,15.9,21.4z"/>
</g>
</svg>
