<?xml version="1.0" encoding="utf-8"?>
<!-- Generator: Adobe Illustrator 21.0.2, SVG Export Plug-In . SVG Version: 6.00 Build 0)  -->
<svg version="1.1" id="Ebene_1" xmlns="http://www.w3.org/2000/svg" xmlns:xlink="http://www.w3.org/1999/xlink" x="0px" y="0px"
	 viewBox="0 0 34 80" style="enable-background:new 0 0 34 80;" xml:space="preserve">
<style type="text/css">
	.st0{fill:#FFFFFF;}
</style>
<g>
	<path class="st0" d="M33.8,71.9C33.8,71.9,33.8,71.9,33.8,71.9c-0.1-10.4-2.6-19.5-6.5-25.4c-1.9,2.2-5.7,3.8-10.2,3.8
		c-4.6,0-8.4-1.5-10.3-3.8c-4,5.9-6.5,15.2-6.5,25.7h0.1c0.3,4.1,7.6,7.4,16.7,7.4c9,0,16.4-3.3,16.7-7.4h0
		C33.8,72.1,33.8,72,33.8,71.9C33.8,71.9,33.8,71.9,33.8,71.9z"/>
	<path class="st0" d="M17.1,48c5.5,0,9.9-2.4,9.9-5.3c0-1.2-0.8-2.3-2-3.2c-1.3,1.9-4.2,3.2-7.9,3.2s-6.6-1.3-7.9-3.2
		c-1.3,0.9-2,2-2,3.2C7.2,45.6,11.6,48,17.1,48z"/>
	<path class="st0" d="M17.1,40.4c3.8,0,6.9-1.7,6.9-3.7c0-0.8-0.4-1.5-1.2-2.1c-1,1.3-3.2,2.2-5.7,2.2s-4.7-0.9-5.7-2.2
		c-0.8,0.6-1.2,1.3-1.2,2.1C10.1,38.7,13.2,40.4,17.1,40.4z"/>
	<path class="st0" d="M17.1,34.5c2.7,0,4.8-1.2,4.8-2.6c0-0.9-0.8-1.6-2-2.1c0,0,0,0,0,0c0,0,0,0,0,0.1c0,1.1-1.1,1.8-2.7,1.8
		c-1.6,0-2.7-0.7-2.7-1.8c0,0,0-0.1,0-0.1c0,0,0-0.1,0-0.1c-1.4,0.5-2.3,1.3-2.3,2.2C12.2,33.3,14.4,34.5,17.1,34.5z"/>
	<path class="st0" d="M16.1,16.8c0.3,0,0.6,0,0.9,0.1c0,0-0.1,0-0.1,0c-0.3,0-0.7,0-1-0.1l-0.5,11.4c0,0,0,0,0,0.1c0,0,0,0.1,0,0.1
		c0,0.4,0.7,0.8,1.7,0.8c0.9,0,1.7-0.3,1.7-0.8c0,0,0,0,0-0.1c0,0,0,0,0-0.1l-0.5-11.5c0.1,0,0.1,0,0.2,0c1.3-0.2,2.3-0.7,2.3-1.2
		c0-0.6-1-1-2.4-1.2c-0.1,0-0.1,0-0.2,0l-0.6-14c0-0.2-0.2-0.3-0.5-0.3c-0.2,0-0.4,0.1-0.5,0.3l-0.6,14c0.3,0,0.6,0,0.9,0
		c0,0,0.1,0,0.1,0c-0.3,0-0.5,0-0.8,0c-1.6,0.1-2.8,0.6-2.8,1.3C13.4,16.2,14.6,16.7,16.1,16.8z"/>
</g>
</svg>
