<?xml version="1.0" encoding="utf-8"?>
<!-- Generator: Adobe Illustrator 21.0.2, SVG Export Plug-In . SVG Version: 6.00 Build 0)  -->
<svg version="1.1" id="Ebene_1" xmlns="http://www.w3.org/2000/svg" xmlns:xlink="http://www.w3.org/1999/xlink" x="0px" y="0px"
	 viewBox="0 0 71 45" style="enable-background:new 0 0 71 45;" xml:space="preserve">
<style type="text/css">
	.st0{fill:#FFFFFF;}
</style>
<g>
	<path class="st0" d="M31.1,20.1c-1.3,0-2.5-0.1-3.7-0.4l0.7,1.9l2.7,1.6c1.4,0.9,2.4,2.4,2.7,4.2l0.1,0.7l2.3-0.4l2.4-2.8l-3.7-5.3
		C33.4,19.9,32.3,20.1,31.1,20.1z"/>
	<path class="st0" d="M29.4,25.8l-2.2-1.3c-0.9-0.5-1.6-1.4-1.9-2.4l-1-2.9c-1.2,0.3-2.4,0.5-3.8,0.6l2,4.3c0.2,0.5,0.6,0.9,1.1,1.1
		l7,2.7C30.6,27,30.1,26.2,29.4,25.8z"/>
	<path class="st0" d="M37.4,18.9l2.7,3.9l5.3-6.3c-1.5-0.1-2.9-0.3-4.2-0.5C40.5,17.2,39.1,18.2,37.4,18.9z"/>
	<path class="st0" d="M51.7,16.7c10.7,0,19.3-1.9,19.3-4.3c0-2-6.2-3.7-14.5-4.1c0.4-0.5,0.6-1,0.6-1.6c0-3.7-8.6-6.7-19.3-6.7
		s-19.3,3-19.3,6.7c0,0,0,0,0,0.1c-0.7,0-1.5-0.1-2.2-0.1c-8.9,0-16.1,3-16.1,6.7s7.2,6.7,16.1,6.7c0.4,0,0.8,0,1.3,0l2.5,5.4
		c0.6,1.2,1.5,2.1,2.7,2.5L33,31.8c0.2,1,0.4,2.1,1,2.8c0.8,1.1,1.8,2.7,2.5,3.7c-10.5,0.1-19,3-19,6.7h38.6c0-3-5.8-5.6-13.8-6.4
		c-0.2-1.1-0.8-2.7-2.2-3.8c-2.2-1.8-2.4-4.6-2.4-4.6l13.2-13.5C51.1,16.7,51.4,16.7,51.7,16.7z M23.7,25.2
		c-0.5-0.2-0.9-0.6-1.1-1.1l-2-4.3c1.3-0.2,2.6-0.4,3.8-0.6l1,2.9c0.4,1,1,1.9,1.9,2.4l2.2,1.3c0.7,0.4,1.2,1.2,1.3,2L23.7,25.2z
		 M35.8,27.8l-2.3,0.4l-0.1-0.7c-0.2-1.8-1.2-3.3-2.7-4.2l-2.7-1.6l-0.7-1.9c1.1,0.2,2.4,0.4,3.7,0.4c1.2,0,2.3-0.1,3.4-0.3l3.7,5.3
		L35.8,27.8z M40.1,22.8l-2.7-3.9c1.8-0.7,3.1-1.7,3.8-2.9c1.3,0.2,2.7,0.3,4.2,0.5L40.1,22.8z"/>
</g>
</svg>
