<?xml version="1.0" encoding="utf-8"?>
<!-- Generator: Adobe Illustrator 21.0.2, SVG Export Plug-In . SVG Version: 6.00 Build 0)  -->
<svg version="1.1" id="Ebene_1" xmlns="http://www.w3.org/2000/svg" xmlns:xlink="http://www.w3.org/1999/xlink" x="0px" y="0px"
	 viewBox="0 0 49 67" style="enable-background:new 0 0 49 67;" xml:space="preserve">
<style type="text/css">
	.st0{fill:#FFFFFF;}
</style>
<path class="st0" d="M40.1,0.7l-3.8,3.6c0,0-2.6,0.8-3.1,3.8s1,14.3,0.8,16.4s-0.7,4.2-1.7,4.6s-4.2-1.7-7.2-1.8s-11.6-1.2-16.4,1.1
	s-4.7,3.4-5.9,4.9s-2.2,2.2-2.2,4.7c0.1,2.4,0.1,4.4,2.3,7c2.2,2.6,3,3.4,3,6.2c0,2.8-0.7,4.2-0.6,5.7c0.1,1.4-0.1,2.6,0.3,3.4
	c0.4,0.8,1.6,2.3,1.7,3.6C7.4,65.1,8.4,67,8.4,67h4.7L10,64.5l0.1-4.5c0,0,1.5-1.4,1.7-2.9s2.7-4.1,3.6-6.5s1.1-4.6,1.1-4.6
	s3.8,2.1,6.8,2.1s6.3-0.6,6.3-0.6l2.8,10.1c0,0-0.6,1.6-0.1,2.9s1.1,0.6,1.2,2s-0.2,3.6-0.2,3.6l4.9-0.1l-1.9-2.9
	c0,0,0.4-0.9,0.2-1.6s-0.6-1,0.1-1.9s1.1-5.2,1-7.1s0.1-2.5,0.1-2.5s6.1-5.4,7.2-11.6s1-11.4,0.6-12.5s-1.1-2-1-2.8
	s0.3-10.3,0.3-10.3s3.5-1.7,3.5-2.5s-2.8-1.8-2.8-1.8s0-1.5-0.9-2.4c-0.8-0.8-4.1-1.7-4.1-1.7L40.7,1C40.7,0.7,40.4,0.5,40.1,0.7z"
	/>
</svg>
