<?xml version="1.0" encoding="utf-8"?>
<!-- Generator: Adobe Illustrator 21.0.2, SVG Export Plug-In . SVG Version: 6.00 Build 0)  -->
<svg version="1.1" id="Ebene_1" xmlns="http://www.w3.org/2000/svg" xmlns:xlink="http://www.w3.org/1999/xlink" x="0px" y="0px"
	 viewBox="0 0 67 41" style="enable-background:new 0 0 67 41;" xml:space="preserve">
<style type="text/css">
	.st0{fill:#FFFFFF;}
</style>
<g>
	<path class="st0" d="M12.8,21.3c-0.1,0-0.2,0-0.3,0.1c-0.4,0.1-0.7,0.2-1.1,0.2c-2.8,0.7-6.4,1.1-10.7,1.3c2,1.8,6.8,5.2,10.7,5.9
		c0.4,0.1,0.8,0.2,1.1,0.2c0.8,0.2,1.5,0.3,2,0.3l0.5,0c0.3,0,0.7,0,1,0c0.5-0.3,1.1-0.6,1.7-0.7c0.3-0.1,0.6-0.2,0.9-0.2
		c-0.9-0.6-1.7-1.2-2.5-1.8C14.9,25.5,13.8,23.7,12.8,21.3"/>
	<path class="st0" d="M54.9,21.4c-0.1,0-0.2,0-0.3-0.1c-1,2.5-2.1,4.2-3.3,5.3c-0.7,0.7-1.6,1.3-2.5,1.9c0.3,0.1,0.6,0.1,0.9,0.2
		c0.6,0.2,1.1,0.4,1.6,0.7c0.4,0,0.7,0,1,0l0.5,0c0.5,0,1.2-0.1,2-0.3c0.4-0.1,0.7-0.2,1.1-0.2c3.9-0.7,8.7-4.1,10.7-5.9
		c-4.3-0.2-7.9-0.6-10.7-1.3C55.7,21.5,55.3,21.4,54.9,21.4"/>
	<path class="st0" d="M21.8,29.6c-1.1,0.3-2,0.5-2.8,0.8c-0.5,0.2-1,0.4-1.5,0.8c-1.4,1-2.5,2.9-3.1,4.2c2.6-0.5,7.3-0.9,9.5-0.9
		c-0.9-1.3-1.6-2.3-1.6-3.3c0-0.5,0.1-0.9,0.2-1.3C22.4,29.7,22.1,29.7,21.8,29.6"/>
	<path class="st0" d="M52.8,35.4c-0.6-1.3-1.6-3.2-3-4.2c-0.5-0.3-1-0.6-1.5-0.8c-0.8-0.3-1.7-0.5-2.8-0.8c-0.3,0.1-0.5,0.1-0.8,0.1
		c0.1,0.4,0.2,0.9,0.2,1.3c0,1-0.6,2.1-1.6,3.3C45.5,34.5,50.2,34.8,52.8,35.4"/>
	<path class="st0" d="M34.2,31.9c-3.5,0-5.5-0.4-7.1-0.9c-0.1,0.4-0.2,0.7-0.2,1.1c0,0.8,0.9,2.3,2.1,3.7c1.8,1.9,4.3,3.7,5.2,4.3
		c1-0.7,3.4-2.4,5.2-4.3c1.3-1.4,2.1-2.8,2.1-3.7c0-0.4-0.1-0.7-0.2-1.1C39.8,31.5,37.7,31.9,34.2,31.9z"/>
	<path class="st0" d="M46.1,27.5c1.6-0.6,3-1.4,4.1-2.4c1.1-1,2.2-3,3.1-5.9c1.3-3.8,2.1-9.7,2.4-12.4c-2.7,1.5-8.2,3.9-11.8,5
		c1.3,2.4,2.6,5.3,2.6,7.4c0,3.5-1.7,6.8-4.5,9.1c0.7,0,1.5-0.1,2.3-0.3C44.9,27.9,45.5,27.7,46.1,27.5"/>
	<path class="st0" d="M15.2,19.2c1,2.9,2,4.9,3.1,5.9c1.1,1,2.5,1.8,4.1,2.4c0.6,0.2,1.2,0.4,1.8,0.5c0.8,0.2,1.6,0.3,2.3,0.3
		C23.7,26,22,22.7,22,19.2c0-2.1,1.3-5,2.6-7.4c-3.6-1.1-9.1-3.4-11.8-5C13.1,9.5,13.9,15.4,15.2,19.2"/>
	<path class="st0" d="M40,10.6c-0.1-0.1-4.1-7.2-5.8-10.5c-1.7,3.2-5.7,10.4-5.8,10.5c-2.2,3.8-3.3,6.6-3.3,8.5c0,4.3,2.4,7.8,6.1,9
		c2,0.7,4,0.7,6,0c3.7-1.2,6.1-4.7,6.1-9C43.3,17.2,42.2,14.3,40,10.6"/>
</g>
</svg>
