<?xml version="1.0" encoding="utf-8"?>
<!-- Generator: Adobe Illustrator 21.0.2, SVG Export Plug-In . SVG Version: 6.00 Build 0)  -->
<svg version="1.1" id="Ebene_1" xmlns="http://www.w3.org/2000/svg" xmlns:xlink="http://www.w3.org/1999/xlink" x="0px" y="0px"
	 viewBox="0 0 41 66" style="enable-background:new 0 0 41 66;" xml:space="preserve">
<style type="text/css">
	.st0{fill:#FFFFFF;}
</style>
<path class="st0" d="M34.2,53.5c1.1-1.2,3.9-4,2.8-7.3c0.1-0.9,0.7-1.7-0.8-4.1C35.5,40,35,35.9,35,35.6c0-0.2-0.3-3.9-3.1-5.4
	c0,0-0.1,0-0.1-0.1c3.4-3.1,5.6-7.6,5.6-12.6c0-9.4-7.6-17-17-17c-9.4,0-17,7.6-17,17c0,5,2.2,9.5,5.6,12.6c-0.1,0-0.1,0-0.1,0.1
	c-2.8,1.6-3.1,5.2-3.1,5.4c0,0.2-0.5,4.4-1.2,6.5c-1.5,2.4-1,3.1-0.8,4.1c-1.2,3.3,1.7,6.1,2.8,7.3c-3.7,1.3-6,3-6,5
	c0,3.8,8.9,6.9,19.9,6.9s19.9-3.1,19.9-6.9C40.3,56.5,38,54.7,34.2,53.5z M6.1,17.5c0-7.9,6.4-14.3,14.3-14.3
	c7.9,0,14.3,6.4,14.3,14.3c0,4.6-2.2,8.8-5.7,11.4c-0.4-0.2-0.8-0.3-1.3-0.5c0,0-1.7-2.2-2.5-2.2c0,0,0,0-0.1,0c0,0-1.4-1.8-0.3-3.3
	c0,0,0.1,1.1,0.6,1.1c0,0,0.1,0,0.1,0c0.6-0.2,0.6-0.8,0.5-1.4c-0.2-0.6,0.3-1.2,0.4-1.5c0.1-0.3,1.6-2.8,0.1-3.5
	c0,0,0.8-4.3-2.9-5.6c0,0,0,0,0-0.1c0,0,0-0.1,0-0.1c0,0,0-0.1,0-0.1c0.1-0.3,0.2-0.6,0.2-1c0-1.7-1.5-3.1-3.5-3.1
	c-1.6,0-2.8,0.9-3.3,2.2c-0.5,1.1,0.1,2.2,0.1,2.2c-3.7,1.3-2.9,5.6-2.9,5.6c-1.4,0.6,0,3.2,0.1,3.5c0.1,0.3,0.6,0.8,0.4,1.5
	c-0.2,0.6-0.2,1.3,0.5,1.4c0,0,0.1,0,0.1,0c0.5,0,0.6-1.1,0.6-1.1c1.1,1.5-0.3,3.3-0.3,3.3c0,0,0,0-0.1,0c-0.9,0-2.5,2.2-2.5,2.2
	c-0.4,0.1-0.8,0.3-1.3,0.5C8.3,26.3,6.1,22.2,6.1,17.5z"/>
</svg>
