<?xml version="1.0" encoding="utf-8"?>
<!-- Generator: Adobe Illustrator 21.0.2, SVG Export Plug-In . SVG Version: 6.00 Build 0)  -->
<svg version="1.1" id="Ebene_1" xmlns="http://www.w3.org/2000/svg" xmlns:xlink="http://www.w3.org/1999/xlink" x="0px" y="0px"
	 viewBox="0 0 77 49" style="enable-background:new 0 0 77 49;" xml:space="preserve">
<style type="text/css">
	.st0{fill:#FFFFFF;}
</style>
<g>
	<path class="st0" d="M37.1,8.3c0.5,1.5,3.6,2,9.4,9.9c4.6,6.4,9.5,2.3,15.5,4.2c3.1,0.9,3.1,0.9,3.6-0.3c0.9-2.1,1.3-5.8-2.8-8.5
		c-2-1.3-3.6-4.4-6.3-5.4C53,6.9,48.6,8.8,45.8,8.7C43.7,8.4,36.1,5.5,37.1,8.3z"/>
	<path class="st0" d="M6.3,23.9c-1.2,0.3-2.4,0.9-3.4,1.7c-1,0.8-2.7,1.7-2.1,3.2c0.6,1.6,3.1,2.2,4.5,2.9c0.5,0.2,0.9,0.5,1.3,0.7
		C6.3,29.7,6.1,26.8,6.3,23.9z"/>
	<path class="st0" d="M18,17.1c-1.6,0.5-2.9,1.6-3.8,3.3c-0.6,6.8,1,14,2.6,18.9c1.5,1.7,3.5,2.4,6.4,2C20.5,35.8,16.9,26.1,18,17.1
		z"/>
	<path class="st0" d="M12.6,21.1c-0.6-0.2-1.3-0.3-1.9-0.1c-1.1,0.2-2.1,1-2.8,2.1c-0.4,4.4,0,8.8,0.7,12.6c1,1.8,4,2.9,6.1,2.5
		C13.4,33.3,12.2,27.1,12.6,21.1z"/>
	<path class="st0" d="M49.9,0.4c-1.5-0.3-3.3,0.2-4.7,1.4c-0.3,0.2-0.6,0.5-0.8,0.8C44.2,2.8,44,3,43.7,3.3c-0.1,0-0.1-0.1-0.2-0.1
		L43.3,3c-0.5-0.3-1.1-0.7-1.8-0.9c-3-0.8-6.8,1.7-8.3,4.5c-1.6-0.1-3.2,0.1-4.7,0.5c-3.5,0.9-6.3,3.2-8.2,6.3
		C17.2,23.5,22.2,36,25,41.9c1.1,1,2.7,2.8,3,3.1c1.2,1,2.5,1.9,4,2.6c5.9,2.8,12.4,1.2,17.1-2.7s6.4-11,12.6-13
		c4.6-1.5,9.6-1.4,14.3-2.7c-1-2.3-4-3.1-6.1-4.1c-3.5-1.6,0.8-2.9,1.8-4.6c1-1.8-0.3-3.8-1.5-5c-0.7-0.7-1.5-0.9-1.6-1.8
		c-0.2-1.3,0-2.3-0.9-3.5c-0.8-1.1-2.1-1.8-3.5-1.7c0-1.4-0.7-2.7-1.8-3.6c-1.1-0.8-2.5-1.1-3.8-0.6c-0.5-1.8-2.1-3.1-3.9-3.1
		c-0.9,0-1.9,0.2-2.6,0.8C51.5,1.2,50.8,0.6,49.9,0.4z M56.6,8.1c2.7,1,4.3,4.1,6.3,5.4c4.1,2.7,3.6,6.4,2.8,8.5
		c-0.5,1.3-0.5,1.3-3.6,0.3c-6-1.8-10.9,2.2-15.5-4.2c-5.8-7.9-8.9-8.5-9.4-9.9c-1-2.8,6.6,0.1,8.8,0.3C48.7,8.8,53.1,6.8,56.6,8.1z
		"/>
</g>
</svg>
