<?xml version="1.0" encoding="utf-8"?>
<!-- Generator: Adobe Illustrator 24.3.0, SVG Export Plug-In . SVG Version: 6.00 Build 0)  -->
<svg version="1.1" xmlns="http://www.w3.org/2000/svg" xmlns:xlink="http://www.w3.org/1999/xlink" x="0px" y="0px"
	 viewBox="0 0 1161.4 757.8" style="enable-background:new 0 0 1161.4 757.8;" xml:space="preserve">
<style type="text/css">
	.st0{fill:none;stroke:#4EA1E1;stroke-miterlimit:10;}
	.st1{fill:#FFFFFF;}
	.st2{fill:none;stroke:#000000;stroke-miterlimit:10;}
	.st3{fill:none;stroke:#E2E2E3;stroke-width:1.5;stroke-miterlimit:10;}
	.st4{fill:#E2E2E3;}
	.st5{fill:#4EA1E1;stroke:#4EA1E1;stroke-miterlimit:10;}
	.st6{fill:#1D1D1B;}
	.st7{fill:#20201E;}
	.st8{fill:#4EA1E1;}
	.st9{fill:#6E6E6D;}
	.st10{fill:#A6A6A5;}
</style>
<g id="Meer">
	<g>
		<g>
			<path class="st0" d="M4.7,512.2c4.9,0,4.9,4,9.7,4c4.9,0,4.9-4,9.8-4c4.9,0,4.9,4,9.8,4c4.9,0,4.9-4,9.8-4c4.9,0,4.9,4,9.8,4
				c4.9,0,4.9-4,9.8-4c4.9,0,4.9,4,9.8,4c4.9,0,4.9-4,9.8-4c4.9,0,4.9,4,9.8,4c4.9,0,4.9-4,9.8-4c4.9,0,4.9,4,9.8,4
				c4.9,0,4.9-4,9.8-4c4.9,0,4.9,4,9.8,4c4.9,0,4.9-4,9.8-4c4.9,0,4.9,4,9.8,4c4.9,0,4.9-4,9.8-4c4.9,0,4.9,4,9.8,4
				c4.9,0,4.9-4,9.8-4c4.9,0,4.9,4,9.8,4c4.9,0,4.9-4,9.8-4c4.9,0,4.9,4,9.8,4c4.9,0,4.9-4,9.8-4"/>
		</g>
		<g>
			<path class="st0" d="M4.7,517.2c4.9,0,4.9,4,9.7,4c4.9,0,4.9-4,9.8-4c4.9,0,4.9,4,9.8,4c4.9,0,4.9-4,9.8-4c4.9,0,4.9,4,9.8,4
				c4.9,0,4.9-4,9.8-4c4.9,0,4.9,4,9.8,4c4.9,0,4.9-4,9.8-4c4.9,0,4.9,4,9.8,4c4.9,0,4.9-4,9.8-4c4.9,0,4.9,4,9.8,4
				c4.9,0,4.9-4,9.8-4c4.9,0,4.9,4,9.8,4c4.9,0,4.9-4,9.8-4c4.9,0,4.9,4,9.8,4c4.9,0,4.9-4,9.8-4c4.9,0,4.9,4,9.8,4
				c4.9,0,4.9-4,9.8-4c4.9,0,4.9,4,9.8,4c4.9,0,4.9-4,9.8-4c4.9,0,4.9,4,9.8,4c4.9,0,4.9-4,9.8-4"/>
		</g>
		<g>
			<path class="st0" d="M4.7,522.2c4.9,0,4.9,4,9.7,4c4.9,0,4.9-4,9.8-4c4.9,0,4.9,4,9.8,4c4.9,0,4.9-4,9.8-4c4.9,0,4.9,4,9.8,4
				c4.9,0,4.9-4,9.8-4c4.9,0,4.9,4,9.8,4c4.9,0,4.9-4,9.8-4c4.9,0,4.9,4,9.8,4c4.9,0,4.9-4,9.8-4c4.9,0,4.9,4,9.8,4
				c4.9,0,4.9-4,9.8-4c4.9,0,4.9,4,9.8,4c4.9,0,4.9-4,9.8-4c4.9,0,4.9,4,9.8,4c4.9,0,4.9-4,9.8-4c4.9,0,4.9,4,9.8,4
				c4.9,0,4.9-4,9.8-4c4.9,0,4.9,4,9.8,4c4.9,0,4.9-4,9.8-4c4.9,0,4.9,4,9.8,4c4.9,0,4.9-4,9.8-4"/>
		</g>
		<g>
			<path class="st0" d="M4.7,527.1c4.9,0,4.9,4,9.7,4c4.9,0,4.9-4,9.8-4c4.9,0,4.9,4,9.8,4c4.9,0,4.9-4,9.8-4c4.9,0,4.9,4,9.8,4
				c4.9,0,4.9-4,9.8-4c4.9,0,4.9,4,9.8,4c4.9,0,4.9-4,9.8-4c4.9,0,4.9,4,9.8,4c4.9,0,4.9-4,9.8-4c4.9,0,4.9,4,9.8,4
				c4.9,0,4.9-4,9.8-4c4.9,0,4.9,4,9.8,4c4.9,0,4.9-4,9.8-4c4.9,0,4.9,4,9.8,4c4.9,0,4.9-4,9.8-4c4.9,0,4.9,4,9.8,4
				c4.9,0,4.9-4,9.8-4c4.9,0,4.9,4,9.8,4c4.9,0,4.9-4,9.8-4c4.9,0,4.9,4,9.8,4c4.9,0,4.9-4,9.8-4"/>
		</g>
		<g>
			<path class="st0" d="M4.7,532.1c4.9,0,4.9,4,9.7,4c4.9,0,4.9-4,9.8-4c4.9,0,4.9,4,9.8,4c4.9,0,4.9-4,9.8-4c4.9,0,4.9,4,9.8,4
				c4.9,0,4.9-4,9.8-4c4.9,0,4.9,4,9.8,4c4.9,0,4.9-4,9.8-4c4.9,0,4.9,4,9.8,4c4.9,0,4.9-4,9.8-4c4.9,0,4.9,4,9.8,4
				c4.9,0,4.9-4,9.8-4c4.9,0,4.9,4,9.8,4c4.9,0,4.9-4,9.8-4c4.9,0,4.9,4,9.8,4c4.9,0,4.9-4,9.8-4c4.9,0,4.9,4,9.8,4
				c4.9,0,4.9-4,9.8-4c4.9,0,4.9,4,9.8,4c4.9,0,4.9-4,9.8-4c4.9,0,4.9,4,9.8,4c4.9,0,4.9-4,9.8-4"/>
		</g>
		<g>
			<path class="st0" d="M4.7,537.1c4.9,0,4.9,4,9.7,4c4.9,0,4.9-4,9.8-4c4.9,0,4.9,4,9.8,4c4.9,0,4.9-4,9.8-4c4.9,0,4.9,4,9.8,4
				c4.9,0,4.9-4,9.8-4c4.9,0,4.9,4,9.8,4c4.9,0,4.9-4,9.8-4c4.9,0,4.9,4,9.8,4c4.9,0,4.9-4,9.8-4c4.9,0,4.9,4,9.8,4
				c4.9,0,4.9-4,9.8-4c4.9,0,4.9,4,9.8,4c4.9,0,4.9-4,9.8-4c4.9,0,4.9,4,9.8,4c4.9,0,4.9-4,9.8-4c4.9,0,4.9,4,9.8,4
				c4.9,0,4.9-4,9.8-4c4.9,0,4.9,4,9.8,4c4.9,0,4.9-4,9.8-4c4.9,0,4.9,4,9.8,4c4.9,0,4.9-4,9.8-4"/>
		</g>
		<g>
			<path class="st0" d="M4.7,542.1c4.9,0,4.9,4,9.7,4c4.9,0,4.9-4,9.8-4c4.9,0,4.9,4,9.8,4c4.9,0,4.9-4,9.8-4c4.9,0,4.9,4,9.8,4
				c4.9,0,4.9-4,9.8-4c4.9,0,4.9,4,9.8,4c4.9,0,4.9-4,9.8-4c4.9,0,4.9,4,9.8,4c4.9,0,4.9-4,9.8-4c4.9,0,4.9,4,9.8,4
				c4.9,0,4.9-4,9.8-4c4.9,0,4.9,4,9.8,4c4.9,0,4.9-4,9.8-4c4.9,0,4.9,4,9.8,4c4.9,0,4.9-4,9.8-4c4.9,0,4.9,4,9.8,4
				c4.9,0,4.9-4,9.8-4c4.9,0,4.9,4,9.8,4c4.9,0,4.9-4,9.8-4c4.9,0,4.9,4,9.8,4c4.9,0,4.9-4,9.8-4"/>
		</g>
		<g>
			<path class="st0" d="M4.7,547c4.9,0,4.9,4,9.7,4c4.9,0,4.9-4,9.8-4c4.9,0,4.9,4,9.8,4c4.9,0,4.9-4,9.8-4c4.9,0,4.9,4,9.8,4
				c4.9,0,4.9-4,9.8-4c4.9,0,4.9,4,9.8,4c4.9,0,4.9-4,9.8-4c4.9,0,4.9,4,9.8,4c4.9,0,4.9-4,9.8-4c4.9,0,4.9,4,9.8,4
				c4.9,0,4.9-4,9.8-4c4.9,0,4.9,4,9.8,4c4.9,0,4.9-4,9.8-4c4.9,0,4.9,4,9.8,4c4.9,0,4.9-4,9.8-4c4.9,0,4.9,4,9.8,4
				c4.9,0,4.9-4,9.8-4c4.9,0,4.9,4,9.8,4c4.9,0,4.9-4,9.8-4c4.9,0,4.9,4,9.8,4c4.9,0,4.9-4,9.8-4"/>
		</g>
		<g>
			<path class="st0" d="M4.7,552c4.9,0,4.9,4,9.7,4c4.9,0,4.9-4,9.8-4c4.9,0,4.9,4,9.8,4c4.9,0,4.9-4,9.8-4c4.9,0,4.9,4,9.8,4
				c4.9,0,4.9-4,9.8-4c4.9,0,4.9,4,9.8,4c4.9,0,4.9-4,9.8-4c4.9,0,4.9,4,9.8,4c4.9,0,4.9-4,9.8-4c4.9,0,4.9,4,9.8,4
				c4.9,0,4.9-4,9.8-4c4.9,0,4.9,4,9.8,4c4.9,0,4.9-4,9.8-4c4.9,0,4.9,4,9.8,4c4.9,0,4.9-4,9.8-4c4.9,0,4.9,4,9.8,4
				c4.9,0,4.9-4,9.8-4c4.9,0,4.9,4,9.8,4c4.9,0,4.9-4,9.8-4c4.9,0,4.9,4,9.8,4c4.9,0,4.9-4,9.8-4"/>
		</g>
		<g>
			<path class="st0" d="M4.7,557c4.9,0,4.9,4,9.7,4c4.9,0,4.9-4,9.8-4c4.9,0,4.9,4,9.8,4c4.9,0,4.9-4,9.8-4c4.9,0,4.9,4,9.8,4
				c4.9,0,4.9-4,9.8-4c4.9,0,4.9,4,9.8,4c4.9,0,4.9-4,9.8-4c4.9,0,4.9,4,9.8,4c4.9,0,4.9-4,9.8-4c4.9,0,4.9,4,9.8,4
				c4.9,0,4.9-4,9.8-4c4.9,0,4.9,4,9.8,4c4.9,0,4.9-4,9.8-4c4.9,0,4.9,4,9.8,4c4.9,0,4.9-4,9.8-4c4.9,0,4.9,4,9.8,4
				c4.9,0,4.9-4,9.8-4c4.9,0,4.9,4,9.8,4c4.9,0,4.9-4,9.8-4c4.9,0,4.9,4,9.8,4c4.9,0,4.9-4,9.8-4"/>
		</g>
		<g>
			<path class="st0" d="M4.7,561.9c4.9,0,4.9,4,9.7,4c4.9,0,4.9-4,9.8-4c4.9,0,4.9,4,9.8,4c4.9,0,4.9-4,9.8-4c4.9,0,4.9,4,9.8,4
				c4.9,0,4.9-4,9.8-4c4.9,0,4.9,4,9.8,4c4.9,0,4.9-4,9.8-4c4.9,0,4.9,4,9.8,4c4.9,0,4.9-4,9.8-4c4.9,0,4.9,4,9.8,4
				c4.9,0,4.9-4,9.8-4c4.9,0,4.9,4,9.8,4c4.9,0,4.9-4,9.8-4c4.9,0,4.9,4,9.8,4c4.9,0,4.9-4,9.8-4c4.9,0,4.9,4,9.8,4
				c4.9,0,4.9-4,9.8-4c4.9,0,4.9,4,9.8,4c4.9,0,4.9-4,9.8-4c4.9,0,4.9,4,9.8,4c4.9,0,4.9-4,9.8-4"/>
		</g>
		<g>
			<path class="st0" d="M4.7,566.9c4.9,0,4.9,4,9.7,4c4.9,0,4.9-4,9.8-4c4.9,0,4.9,4,9.8,4c4.9,0,4.9-4,9.8-4c4.9,0,4.9,4,9.8,4
				c4.9,0,4.9-4,9.8-4c4.9,0,4.9,4,9.8,4c4.9,0,4.9-4,9.8-4c4.9,0,4.9,4,9.8,4c4.9,0,4.9-4,9.8-4c4.9,0,4.9,4,9.8,4
				c4.9,0,4.9-4,9.8-4c4.9,0,4.9,4,9.8,4c4.9,0,4.9-4,9.8-4c4.9,0,4.9,4,9.8,4c4.9,0,4.9-4,9.8-4c4.9,0,4.9,4,9.8,4
				c4.9,0,4.9-4,9.8-4c4.9,0,4.9,4,9.8,4c4.9,0,4.9-4,9.8-4c4.9,0,4.9,4,9.8,4c4.9,0,4.9-4,9.8-4"/>
		</g>
		<g>
			<path class="st0" d="M4.7,571.9c4.9,0,4.9,4,9.7,4c4.9,0,4.9-4,9.8-4c4.9,0,4.9,4,9.8,4c4.9,0,4.9-4,9.8-4c4.9,0,4.9,4,9.8,4
				c4.9,0,4.9-4,9.8-4c4.9,0,4.9,4,9.8,4c4.9,0,4.9-4,9.8-4c4.9,0,4.9,4,9.8,4c4.9,0,4.9-4,9.8-4c4.9,0,4.9,4,9.8,4
				c4.9,0,4.9-4,9.8-4c4.9,0,4.9,4,9.8,4c4.9,0,4.9-4,9.8-4c4.9,0,4.9,4,9.8,4c4.9,0,4.9-4,9.8-4c4.9,0,4.9,4,9.8,4
				c4.9,0,4.9-4,9.8-4c4.9,0,4.9,4,9.8,4c4.9,0,4.9-4,9.8-4c4.9,0,4.9,4,9.8,4c4.9,0,4.9-4,9.8-4"/>
		</g>
		<g>
			<path class="st0" d="M4.7,576.9c4.9,0,4.9,4,9.7,4c4.9,0,4.9-4,9.8-4c4.9,0,4.9,4,9.8,4c4.9,0,4.9-4,9.8-4c4.9,0,4.9,4,9.8,4
				c4.9,0,4.9-4,9.8-4c4.9,0,4.9,4,9.8,4c4.9,0,4.9-4,9.8-4c4.9,0,4.9,4,9.8,4c4.9,0,4.9-4,9.8-4c4.9,0,4.9,4,9.8,4
				c4.9,0,4.9-4,9.8-4c4.9,0,4.9,4,9.8,4c4.9,0,4.9-4,9.8-4c4.9,0,4.9,4,9.8,4c4.9,0,4.9-4,9.8-4c4.9,0,4.9,4,9.8,4
				c4.9,0,4.9-4,9.8-4c4.9,0,4.9,4,9.8,4c4.9,0,4.9-4,9.8-4c4.9,0,4.9,4,9.8,4c4.9,0,4.9-4,9.8-4"/>
		</g>
		<g>
			<path class="st0" d="M4.7,581.8c4.9,0,4.9,4,9.7,4c4.9,0,4.9-4,9.8-4c4.9,0,4.9,4,9.8,4c4.9,0,4.9-4,9.8-4c4.9,0,4.9,4,9.8,4
				c4.9,0,4.9-4,9.8-4c4.9,0,4.9,4,9.8,4c4.9,0,4.9-4,9.8-4c4.9,0,4.9,4,9.8,4c4.9,0,4.9-4,9.8-4c4.9,0,4.9,4,9.8,4
				c4.9,0,4.9-4,9.8-4c4.9,0,4.9,4,9.8,4c4.9,0,4.9-4,9.8-4c4.9,0,4.9,4,9.8,4c4.9,0,4.9-4,9.8-4c4.9,0,4.9,4,9.8,4
				c4.9,0,4.9-4,9.8-4c4.9,0,4.9,4,9.8,4c4.9,0,4.9-4,9.8-4c4.9,0,4.9,4,9.8,4c4.9,0,4.9-4,9.8-4"/>
		</g>
		<g>
			<path class="st0" d="M4.7,586.8c4.9,0,4.9,4,9.7,4c4.9,0,4.9-4,9.8-4c4.9,0,4.9,4,9.8,4c4.9,0,4.9-4,9.8-4c4.9,0,4.9,4,9.8,4
				c4.9,0,4.9-4,9.8-4c4.9,0,4.9,4,9.8,4c4.9,0,4.9-4,9.8-4c4.9,0,4.9,4,9.8,4c4.9,0,4.9-4,9.8-4c4.9,0,4.9,4,9.8,4
				c4.9,0,4.9-4,9.8-4c4.9,0,4.9,4,9.8,4c4.9,0,4.9-4,9.8-4c4.9,0,4.9,4,9.8,4c4.9,0,4.9-4,9.8-4c4.9,0,4.9,4,9.8,4
				c4.9,0,4.9-4,9.8-4c4.9,0,4.9,4,9.8,4c4.9,0,4.9-4,9.8-4c4.9,0,4.9,4,9.8,4c4.9,0,4.9-4,9.8-4"/>
		</g>
		<g>
			<path class="st0" d="M4.7,591.8c4.9,0,4.9,4,9.7,4c4.9,0,4.9-4,9.8-4c4.9,0,4.9,4,9.8,4c4.9,0,4.9-4,9.8-4c4.9,0,4.9,4,9.8,4
				c4.9,0,4.9-4,9.8-4c4.9,0,4.9,4,9.8,4c4.9,0,4.9-4,9.8-4c4.9,0,4.9,4,9.8,4c4.9,0,4.9-4,9.8-4c4.9,0,4.9,4,9.8,4
				c4.9,0,4.9-4,9.8-4c4.9,0,4.9,4,9.8,4c4.9,0,4.9-4,9.8-4c4.9,0,4.9,4,9.8,4c4.9,0,4.9-4,9.8-4c4.9,0,4.9,4,9.8,4
				c4.9,0,4.9-4,9.8-4c4.9,0,4.9,4,9.8,4c4.9,0,4.9-4,9.8-4c4.9,0,4.9,4,9.8,4c4.9,0,4.9-4,9.8-4"/>
		</g>
		<g>
			<path class="st0" d="M4.7,596.7c4.9,0,4.9,4,9.7,4c4.9,0,4.9-4,9.8-4c4.9,0,4.9,4,9.8,4c4.9,0,4.9-4,9.8-4c4.9,0,4.9,4,9.8,4
				c4.9,0,4.9-4,9.8-4c4.9,0,4.9,4,9.8,4c4.9,0,4.9-4,9.8-4c4.9,0,4.9,4,9.8,4c4.9,0,4.9-4,9.8-4c4.9,0,4.9,4,9.8,4
				c4.9,0,4.9-4,9.8-4c4.9,0,4.9,4,9.8,4c4.9,0,4.9-4,9.8-4c4.9,0,4.9,4,9.8,4c4.9,0,4.9-4,9.8-4c4.9,0,4.9,4,9.8,4
				c4.9,0,4.9-4,9.8-4c4.9,0,4.9,4,9.8,4c4.9,0,4.9-4,9.8-4c4.9,0,4.9,4,9.8,4c4.9,0,4.9-4,9.8-4"/>
		</g>
		<g>
			<path class="st0" d="M4.7,601.7c4.9,0,4.9,4,9.7,4c4.9,0,4.9-4,9.8-4c4.9,0,4.9,4,9.8,4c4.9,0,4.9-4,9.8-4c4.9,0,4.9,4,9.8,4
				c4.9,0,4.9-4,9.8-4c4.9,0,4.9,4,9.8,4c4.9,0,4.9-4,9.8-4c4.9,0,4.9,4,9.8,4c4.9,0,4.9-4,9.8-4c4.9,0,4.9,4,9.8,4
				c4.9,0,4.9-4,9.8-4c4.9,0,4.9,4,9.8,4c4.9,0,4.9-4,9.8-4c4.9,0,4.9,4,9.8,4c4.9,0,4.9-4,9.8-4c4.9,0,4.9,4,9.8,4
				c4.9,0,4.9-4,9.8-4c4.9,0,4.9,4,9.8,4c4.9,0,4.9-4,9.8-4c4.9,0,4.9,4,9.8,4c4.9,0,4.9-4,9.8-4"/>
		</g>
		<g>
			<path class="st0" d="M4.7,606.7c4.9,0,4.9,4,9.7,4c4.9,0,4.9-4,9.8-4c4.9,0,4.9,4,9.8,4c4.9,0,4.9-4,9.8-4c4.9,0,4.9,4,9.8,4
				c4.9,0,4.9-4,9.8-4c4.9,0,4.9,4,9.8,4c4.9,0,4.9-4,9.8-4c4.9,0,4.9,4,9.8,4c4.9,0,4.9-4,9.8-4c4.9,0,4.9,4,9.8,4
				c4.9,0,4.9-4,9.8-4c4.9,0,4.9,4,9.8,4c4.9,0,4.9-4,9.8-4c4.9,0,4.9,4,9.8,4c4.9,0,4.9-4,9.8-4c4.9,0,4.9,4,9.8,4
				c4.9,0,4.9-4,9.8-4c4.9,0,4.9,4,9.8,4c4.9,0,4.9-4,9.8-4c4.9,0,4.9,4,9.8,4c4.9,0,4.9-4,9.8-4"/>
		</g>
		<g>
			<path class="st0" d="M4.7,611.7c4.9,0,4.9,4,9.7,4c4.9,0,4.9-4,9.8-4c4.9,0,4.9,4,9.8,4c4.9,0,4.9-4,9.8-4c4.9,0,4.9,4,9.8,4
				c4.9,0,4.9-4,9.8-4c4.9,0,4.9,4,9.8,4c4.9,0,4.9-4,9.8-4c4.9,0,4.9,4,9.8,4c4.9,0,4.9-4,9.8-4c4.9,0,4.9,4,9.8,4
				c4.9,0,4.9-4,9.8-4c4.9,0,4.9,4,9.8,4c4.9,0,4.9-4,9.8-4c4.9,0,4.9,4,9.8,4c4.9,0,4.9-4,9.8-4c4.9,0,4.9,4,9.8,4
				c4.9,0,4.9-4,9.8-4c4.9,0,4.9,4,9.8,4c4.9,0,4.9-4,9.8-4c4.9,0,4.9,4,9.8,4c4.9,0,4.9-4,9.8-4"/>
		</g>
		<g>
			<path class="st0" d="M4.7,616.6c4.9,0,4.9,4,9.7,4c4.9,0,4.9-4,9.8-4c4.9,0,4.9,4,9.8,4c4.9,0,4.9-4,9.8-4c4.9,0,4.9,4,9.8,4
				c4.9,0,4.9-4,9.8-4c4.9,0,4.9,4,9.8,4c4.9,0,4.9-4,9.8-4c4.9,0,4.9,4,9.8,4c4.9,0,4.9-4,9.8-4c4.9,0,4.9,4,9.8,4
				c4.9,0,4.9-4,9.8-4c4.9,0,4.9,4,9.8,4c4.9,0,4.9-4,9.8-4c4.9,0,4.9,4,9.8,4c4.9,0,4.9-4,9.8-4c4.9,0,4.9,4,9.8,4
				c4.9,0,4.9-4,9.8-4c4.9,0,4.9,4,9.8,4c4.9,0,4.9-4,9.8-4c4.9,0,4.9,4,9.8,4c4.9,0,4.9-4,9.8-4"/>
		</g>
		<g>
			<path class="st0" d="M4.7,621.6c4.9,0,4.9,4,9.7,4c4.9,0,4.9-4,9.8-4c4.9,0,4.9,4,9.8,4c4.9,0,4.9-4,9.8-4c4.9,0,4.9,4,9.8,4
				c4.9,0,4.9-4,9.8-4c4.9,0,4.9,4,9.8,4c4.9,0,4.9-4,9.8-4c4.9,0,4.9,4,9.8,4c4.9,0,4.9-4,9.8-4c4.9,0,4.9,4,9.8,4
				c4.9,0,4.9-4,9.8-4c4.9,0,4.9,4,9.8,4c4.9,0,4.9-4,9.8-4c4.9,0,4.9,4,9.8,4c4.9,0,4.9-4,9.8-4c4.9,0,4.9,4,9.8,4
				c4.9,0,4.9-4,9.8-4c4.9,0,4.9,4,9.8,4c4.9,0,4.9-4,9.8-4c4.9,0,4.9,4,9.8,4c4.9,0,4.9-4,9.8-4"/>
		</g>
		<g>
			<path class="st0" d="M4.7,626.6c4.9,0,4.9,4,9.7,4c4.9,0,4.9-4,9.8-4c4.9,0,4.9,4,9.8,4c4.9,0,4.9-4,9.8-4c4.9,0,4.9,4,9.8,4
				c4.9,0,4.9-4,9.8-4c4.9,0,4.9,4,9.8,4c4.9,0,4.9-4,9.8-4c4.9,0,4.9,4,9.8,4c4.9,0,4.9-4,9.8-4c4.9,0,4.9,4,9.8,4
				c4.9,0,4.9-4,9.8-4c4.9,0,4.9,4,9.8,4c4.9,0,4.9-4,9.8-4c4.9,0,4.9,4,9.8,4c4.9,0,4.9-4,9.8-4c4.9,0,4.9,4,9.8,4
				c4.9,0,4.9-4,9.8-4c4.9,0,4.9,4,9.8,4c4.9,0,4.9-4,9.8-4c4.9,0,4.9,4,9.8,4c4.9,0,4.9-4,9.8-4"/>
		</g>
		<g>
			<path class="st0" d="M4.7,631.5c4.9,0,4.9,4,9.7,4c4.9,0,4.9-4,9.8-4c4.9,0,4.9,4,9.8,4c4.9,0,4.9-4,9.8-4c4.9,0,4.9,4,9.8,4
				c4.9,0,4.9-4,9.8-4c4.9,0,4.9,4,9.8,4c4.9,0,4.9-4,9.8-4c4.9,0,4.9,4,9.8,4c4.9,0,4.9-4,9.8-4c4.9,0,4.9,4,9.8,4
				c4.9,0,4.9-4,9.8-4c4.9,0,4.9,4,9.8,4c4.9,0,4.9-4,9.8-4c4.9,0,4.9,4,9.8,4c4.9,0,4.9-4,9.8-4c4.9,0,4.9,4,9.8,4
				c4.9,0,4.9-4,9.8-4c4.9,0,4.9,4,9.8,4c4.9,0,4.9-4,9.8-4c4.9,0,4.9,4,9.8,4c4.9,0,4.9-4,9.8-4"/>
		</g>
		<g>
			<path class="st0" d="M4.7,636.5c4.9,0,4.9,4,9.7,4c4.9,0,4.9-4,9.8-4c4.9,0,4.9,4,9.8,4c4.9,0,4.9-4,9.8-4c4.9,0,4.9,4,9.8,4
				c4.9,0,4.9-4,9.8-4c4.9,0,4.9,4,9.8,4c4.9,0,4.9-4,9.8-4c4.9,0,4.9,4,9.8,4c4.9,0,4.9-4,9.8-4c4.9,0,4.9,4,9.8,4
				c4.9,0,4.9-4,9.8-4c4.9,0,4.9,4,9.8,4c4.9,0,4.9-4,9.8-4c4.9,0,4.9,4,9.8,4c4.9,0,4.9-4,9.8-4c4.9,0,4.9,4,9.8,4
				c4.9,0,4.9-4,9.8-4c4.9,0,4.9,4,9.8,4c4.9,0,4.9-4,9.8-4c4.9,0,4.9,4,9.8,4c4.9,0,4.9-4,9.8-4"/>
		</g>
		<g>
			<path class="st0" d="M4.7,641.5c4.9,0,4.9,4,9.7,4c4.9,0,4.9-4,9.8-4c4.9,0,4.9,4,9.8,4c4.9,0,4.9-4,9.8-4c4.9,0,4.9,4,9.8,4
				c4.9,0,4.9-4,9.8-4c4.9,0,4.9,4,9.8,4c4.9,0,4.9-4,9.8-4c4.9,0,4.9,4,9.8,4c4.9,0,4.9-4,9.8-4c4.9,0,4.9,4,9.8,4
				c4.9,0,4.9-4,9.8-4c4.9,0,4.9,4,9.8,4c4.9,0,4.9-4,9.8-4c4.9,0,4.9,4,9.8,4c4.9,0,4.9-4,9.8-4c4.9,0,4.9,4,9.8,4
				c4.9,0,4.9-4,9.8-4c4.9,0,4.9,4,9.8,4c4.9,0,4.9-4,9.8-4c4.9,0,4.9,4,9.8,4c4.9,0,4.9-4,9.8-4"/>
		</g>
		<g>
			<path class="st0" d="M4.7,646.5c4.9,0,4.9,4,9.7,4c4.9,0,4.9-4,9.8-4c4.9,0,4.9,4,9.8,4c4.9,0,4.9-4,9.8-4c4.9,0,4.9,4,9.8,4
				c4.9,0,4.9-4,9.8-4c4.9,0,4.9,4,9.8,4c4.9,0,4.9-4,9.8-4c4.9,0,4.9,4,9.8,4c4.9,0,4.9-4,9.8-4c4.9,0,4.9,4,9.8,4
				c4.9,0,4.9-4,9.8-4c4.9,0,4.9,4,9.8,4c4.9,0,4.9-4,9.8-4c4.9,0,4.9,4,9.8,4c4.9,0,4.9-4,9.8-4c4.9,0,4.9,4,9.8,4
				c4.9,0,4.9-4,9.8-4c4.9,0,4.9,4,9.8,4c4.9,0,4.9-4,9.8-4c4.9,0,4.9,4,9.8,4c4.9,0,4.9-4,9.8-4"/>
		</g>
		<g>
			<path class="st0" d="M4.7,651.4c4.9,0,4.9,4,9.7,4c4.9,0,4.9-4,9.8-4c4.9,0,4.9,4,9.8,4c4.9,0,4.9-4,9.8-4c4.9,0,4.9,4,9.8,4
				c4.9,0,4.9-4,9.8-4c4.9,0,4.9,4,9.8,4c4.9,0,4.9-4,9.8-4c4.9,0,4.9,4,9.8,4c4.9,0,4.9-4,9.8-4c4.9,0,4.9,4,9.8,4
				c4.9,0,4.9-4,9.8-4c4.9,0,4.9,4,9.8,4c4.9,0,4.9-4,9.8-4c4.9,0,4.9,4,9.8,4c4.9,0,4.9-4,9.8-4c4.9,0,4.9,4,9.8,4
				c4.9,0,4.9-4,9.8-4c4.9,0,4.9,4,9.8,4c4.9,0,4.9-4,9.8-4c4.9,0,4.9,4,9.8,4c4.9,0,4.9-4,9.8-4"/>
		</g>
		<g>
			<path class="st0" d="M4.7,656.4c4.9,0,4.9,4,9.7,4c4.9,0,4.9-4,9.8-4c4.9,0,4.9,4,9.8,4c4.9,0,4.9-4,9.8-4c4.9,0,4.9,4,9.8,4
				c4.9,0,4.9-4,9.8-4c4.9,0,4.9,4,9.8,4c4.9,0,4.9-4,9.8-4c4.9,0,4.9,4,9.8,4c4.9,0,4.9-4,9.8-4c4.9,0,4.9,4,9.8,4
				c4.9,0,4.9-4,9.8-4c4.9,0,4.9,4,9.8,4c4.9,0,4.9-4,9.8-4c4.9,0,4.9,4,9.8,4c4.9,0,4.9-4,9.8-4c4.9,0,4.9,4,9.8,4
				c4.9,0,4.9-4,9.8-4c4.9,0,4.9,4,9.8,4c4.9,0,4.9-4,9.8-4c4.9,0,4.9,4,9.8,4c4.9,0,4.9-4,9.8-4"/>
		</g>
		<g>
			<path class="st0" d="M4.7,661.4c4.9,0,4.9,4,9.7,4c4.9,0,4.9-4,9.8-4c4.9,0,4.9,4,9.8,4c4.9,0,4.9-4,9.8-4c4.9,0,4.9,4,9.8,4
				c4.9,0,4.9-4,9.8-4c4.9,0,4.9,4,9.8,4c4.9,0,4.9-4,9.8-4c4.9,0,4.9,4,9.8,4c4.9,0,4.9-4,9.8-4c4.9,0,4.9,4,9.8,4
				c4.9,0,4.9-4,9.8-4c4.9,0,4.9,4,9.8,4c4.9,0,4.9-4,9.8-4c4.9,0,4.9,4,9.8,4c4.9,0,4.9-4,9.8-4c4.9,0,4.9,4,9.8,4
				c4.9,0,4.9-4,9.8-4c4.9,0,4.9,4,9.8,4c4.9,0,4.9-4,9.8-4c4.9,0,4.9,4,9.8,4c4.9,0,4.9-4,9.8-4"/>
		</g>
		<g>
			<path class="st0" d="M4.7,666.3c4.9,0,4.9,4,9.7,4c4.9,0,4.9-4,9.8-4c4.9,0,4.9,4,9.8,4c4.9,0,4.9-4,9.8-4c4.9,0,4.9,4,9.8,4
				c4.9,0,4.9-4,9.8-4c4.9,0,4.9,4,9.8,4c4.9,0,4.9-4,9.8-4c4.9,0,4.9,4,9.8,4c4.9,0,4.9-4,9.8-4c4.9,0,4.9,4,9.8,4
				c4.9,0,4.9-4,9.8-4c4.9,0,4.9,4,9.8,4c4.9,0,4.9-4,9.8-4c4.9,0,4.9,4,9.8,4c4.9,0,4.9-4,9.8-4c4.9,0,4.9,4,9.8,4
				c4.9,0,4.9-4,9.8-4c4.9,0,4.9,4,9.8,4c4.9,0,4.9-4,9.8-4c4.9,0,4.9,4,9.8,4c4.9,0,4.9-4,9.8-4"/>
		</g>
		<g>
			<path class="st0" d="M4.7,671.3c4.9,0,4.9,4,9.7,4c4.9,0,4.9-4,9.8-4c4.9,0,4.9,4,9.8,4c4.9,0,4.9-4,9.8-4c4.9,0,4.9,4,9.8,4
				c4.9,0,4.9-4,9.8-4c4.9,0,4.9,4,9.8,4c4.9,0,4.9-4,9.8-4c4.9,0,4.9,4,9.8,4c4.9,0,4.9-4,9.8-4c4.9,0,4.9,4,9.8,4
				c4.9,0,4.9-4,9.8-4c4.9,0,4.9,4,9.8,4c4.9,0,4.9-4,9.8-4c4.9,0,4.9,4,9.8,4c4.9,0,4.9-4,9.8-4c4.9,0,4.9,4,9.8,4
				c4.9,0,4.9-4,9.8-4c4.9,0,4.9,4,9.8,4c4.9,0,4.9-4,9.8-4c4.9,0,4.9,4,9.8,4c4.9,0,4.9-4,9.8-4"/>
		</g>
		<g>
			<path class="st0" d="M4.7,676.3c4.9,0,4.9,4,9.7,4c4.9,0,4.9-4,9.8-4c4.9,0,4.9,4,9.8,4c4.9,0,4.9-4,9.8-4c4.9,0,4.9,4,9.8,4
				c4.9,0,4.9-4,9.8-4c4.9,0,4.9,4,9.8,4c4.9,0,4.9-4,9.8-4c4.9,0,4.9,4,9.8,4c4.9,0,4.9-4,9.8-4c4.9,0,4.9,4,9.8,4
				c4.9,0,4.9-4,9.8-4c4.9,0,4.9,4,9.8,4c4.9,0,4.9-4,9.8-4c4.9,0,4.9,4,9.8,4c4.9,0,4.9-4,9.8-4c4.9,0,4.9,4,9.8,4
				c4.9,0,4.9-4,9.8-4c4.9,0,4.9,4,9.8,4c4.9,0,4.9-4,9.8-4c4.9,0,4.9,4,9.8,4c4.9,0,4.9-4,9.8-4"/>
		</g>
		<g>
			<path class="st0" d="M4.7,681.3c4.9,0,4.9,4,9.7,4c4.9,0,4.9-4,9.8-4c4.9,0,4.9,4,9.8,4c4.9,0,4.9-4,9.8-4c4.9,0,4.9,4,9.8,4
				c4.9,0,4.9-4,9.8-4c4.9,0,4.9,4,9.8,4c4.9,0,4.9-4,9.8-4c4.9,0,4.9,4,9.8,4c4.9,0,4.9-4,9.8-4c4.9,0,4.9,4,9.8,4
				c4.9,0,4.9-4,9.8-4c4.9,0,4.9,4,9.8,4c4.9,0,4.9-4,9.8-4c4.9,0,4.9,4,9.8,4c4.9,0,4.9-4,9.8-4c4.9,0,4.9,4,9.8,4
				c4.9,0,4.9-4,9.8-4c4.9,0,4.9,4,9.8,4c4.9,0,4.9-4,9.8-4c4.9,0,4.9,4,9.8,4c4.9,0,4.9-4,9.8-4"/>
		</g>
		<g>
			<path class="st0" d="M4.7,686.2c4.9,0,4.9,4,9.7,4c4.9,0,4.9-4,9.8-4c4.9,0,4.9,4,9.8,4c4.9,0,4.9-4,9.8-4c4.9,0,4.9,4,9.8,4
				c4.9,0,4.9-4,9.8-4c4.9,0,4.9,4,9.8,4c4.9,0,4.9-4,9.8-4c4.9,0,4.9,4,9.8,4c4.9,0,4.9-4,9.8-4c4.9,0,4.9,4,9.8,4
				c4.9,0,4.9-4,9.8-4c4.9,0,4.9,4,9.8,4c4.9,0,4.9-4,9.8-4c4.9,0,4.9,4,9.8,4c4.9,0,4.9-4,9.8-4c4.9,0,4.9,4,9.8,4
				c4.9,0,4.9-4,9.8-4c4.9,0,4.9,4,9.8,4c4.9,0,4.9-4,9.8-4c4.9,0,4.9,4,9.8,4c4.9,0,4.9-4,9.8-4"/>
		</g>
		<g>
			<path class="st0" d="M4.7,691.2c4.9,0,4.9,4,9.7,4c4.9,0,4.9-4,9.8-4c4.9,0,4.9,4,9.8,4c4.9,0,4.9-4,9.8-4c4.9,0,4.9,4,9.8,4
				c4.9,0,4.9-4,9.8-4c4.9,0,4.9,4,9.8,4c4.9,0,4.9-4,9.8-4c4.9,0,4.9,4,9.8,4c4.9,0,4.9-4,9.8-4c4.9,0,4.9,4,9.8,4
				c4.9,0,4.9-4,9.8-4c4.9,0,4.9,4,9.8,4c4.9,0,4.9-4,9.8-4c4.9,0,4.9,4,9.8,4c4.9,0,4.9-4,9.8-4c4.9,0,4.9,4,9.8,4
				c4.9,0,4.9-4,9.8-4c4.9,0,4.9,4,9.8,4c4.9,0,4.9-4,9.8-4c4.9,0,4.9,4,9.8,4c4.9,0,4.9-4,9.8-4"/>
		</g>
		<g>
			<path class="st0" d="M4.7,696.2c4.9,0,4.9,4,9.7,4c4.9,0,4.9-4,9.8-4c4.9,0,4.9,4,9.8,4c4.9,0,4.9-4,9.8-4c4.9,0,4.9,4,9.8,4
				c4.9,0,4.9-4,9.8-4c4.9,0,4.9,4,9.8,4c4.9,0,4.9-4,9.8-4c4.9,0,4.9,4,9.8,4c4.9,0,4.9-4,9.8-4c4.9,0,4.9,4,9.8,4
				c4.9,0,4.9-4,9.8-4c4.9,0,4.9,4,9.8,4c4.9,0,4.9-4,9.8-4c4.9,0,4.9,4,9.8,4c4.9,0,4.9-4,9.8-4c4.9,0,4.9,4,9.8,4
				c4.9,0,4.9-4,9.8-4c4.9,0,4.9,4,9.8,4c4.9,0,4.9-4,9.8-4c4.9,0,4.9,4,9.8,4c4.9,0,4.9-4,9.8-4"/>
		</g>
		<g>
			<path class="st0" d="M4.7,701.1c4.9,0,4.9,4,9.7,4c4.9,0,4.9-4,9.8-4c4.9,0,4.9,4,9.8,4c4.9,0,4.9-4,9.8-4c4.9,0,4.9,4,9.8,4
				c4.9,0,4.9-4,9.8-4c4.9,0,4.9,4,9.8,4c4.9,0,4.9-4,9.8-4c4.9,0,4.9,4,9.8,4c4.9,0,4.9-4,9.8-4c4.9,0,4.9,4,9.8,4
				c4.9,0,4.9-4,9.8-4c4.9,0,4.9,4,9.8,4c4.9,0,4.9-4,9.8-4c4.9,0,4.9,4,9.8,4c4.9,0,4.9-4,9.8-4c4.9,0,4.9,4,9.8,4
				c4.9,0,4.9-4,9.8-4c4.9,0,4.9,4,9.8,4c4.9,0,4.9-4,9.8-4c4.9,0,4.9,4,9.8,4c4.9,0,4.9-4,9.8-4"/>
		</g>
		<g>
			<path class="st0" d="M4.7,706.1c4.9,0,4.9,4,9.7,4c4.9,0,4.9-4,9.8-4c4.9,0,4.9,4,9.8,4c4.9,0,4.9-4,9.8-4c4.9,0,4.9,4,9.8,4
				c4.9,0,4.9-4,9.8-4c4.9,0,4.9,4,9.8,4c4.9,0,4.9-4,9.8-4c4.9,0,4.9,4,9.8,4c4.9,0,4.9-4,9.8-4c4.9,0,4.9,4,9.8,4
				c4.9,0,4.9-4,9.8-4c4.9,0,4.9,4,9.8,4c4.9,0,4.9-4,9.8-4c4.9,0,4.9,4,9.8,4c4.9,0,4.9-4,9.8-4c4.9,0,4.9,4,9.8,4
				c4.9,0,4.9-4,9.8-4c4.9,0,4.9,4,9.8,4c4.9,0,4.9-4,9.8-4c4.9,0,4.9,4,9.8,4c4.9,0,4.9-4,9.8-4"/>
		</g>
		<g>
			<path class="st0" d="M4.7,711.1c4.9,0,4.9,4,9.7,4c4.9,0,4.9-4,9.8-4c4.9,0,4.9,4,9.8,4c4.9,0,4.9-4,9.8-4c4.9,0,4.9,4,9.8,4
				c4.9,0,4.9-4,9.8-4c4.9,0,4.9,4,9.8,4c4.9,0,4.9-4,9.8-4c4.9,0,4.9,4,9.8,4c4.9,0,4.9-4,9.8-4c4.9,0,4.9,4,9.8,4
				c4.9,0,4.9-4,9.8-4c4.9,0,4.9,4,9.8,4c4.9,0,4.9-4,9.8-4c4.9,0,4.9,4,9.8,4c4.9,0,4.9-4,9.8-4c4.9,0,4.9,4,9.8,4
				c4.9,0,4.9-4,9.8-4c4.9,0,4.9,4,9.8,4c4.9,0,4.9-4,9.8-4c4.9,0,4.9,4,9.8,4c4.9,0,4.9-4,9.8-4"/>
		</g>
		<g>
			<path class="st0" d="M4.7,716.1c4.9,0,4.9,4,9.7,4c4.9,0,4.9-4,9.8-4c4.9,0,4.9,4,9.8,4c4.9,0,4.9-4,9.8-4c4.9,0,4.9,4,9.8,4
				c4.9,0,4.9-4,9.8-4c4.9,0,4.9,4,9.8,4c4.9,0,4.9-4,9.8-4c4.9,0,4.9,4,9.8,4c4.9,0,4.9-4,9.8-4c4.9,0,4.9,4,9.8,4
				c4.9,0,4.9-4,9.8-4c4.9,0,4.9,4,9.8,4c4.9,0,4.9-4,9.8-4c4.9,0,4.9,4,9.8,4c4.9,0,4.9-4,9.8-4c4.9,0,4.9,4,9.8,4
				c4.9,0,4.9-4,9.8-4c4.9,0,4.9,4,9.8,4c4.9,0,4.9-4,9.8-4c4.9,0,4.9,4,9.8,4c4.9,0,4.9-4,9.8-4"/>
		</g>
		<g>
			<path class="st0" d="M4.7,721c4.9,0,4.9,4,9.7,4c4.9,0,4.9-4,9.8-4c4.9,0,4.9,4,9.8,4c4.9,0,4.9-4,9.8-4c4.9,0,4.9,4,9.8,4
				c4.9,0,4.9-4,9.8-4c4.9,0,4.9,4,9.8,4c4.9,0,4.9-4,9.8-4c4.9,0,4.9,4,9.8,4c4.9,0,4.9-4,9.8-4c4.9,0,4.9,4,9.8,4
				c4.9,0,4.9-4,9.8-4c4.9,0,4.9,4,9.8,4c4.9,0,4.9-4,9.8-4c4.9,0,4.9,4,9.8,4c4.9,0,4.9-4,9.8-4c4.9,0,4.9,4,9.8,4
				c4.9,0,4.9-4,9.8-4c4.9,0,4.9,4,9.8,4c4.9,0,4.9-4,9.8-4c4.9,0,4.9,4,9.8,4c4.9,0,4.9-4,9.8-4"/>
		</g>
		<g>
			<path class="st0" d="M4.7,726c4.9,0,4.9,4,9.7,4c4.9,0,4.9-4,9.8-4c4.9,0,4.9,4,9.8,4c4.9,0,4.9-4,9.8-4c4.9,0,4.9,4,9.8,4
				c4.9,0,4.9-4,9.8-4c4.9,0,4.9,4,9.8,4c4.9,0,4.9-4,9.8-4c4.9,0,4.9,4,9.8,4c4.9,0,4.9-4,9.8-4c4.9,0,4.9,4,9.8,4
				c4.9,0,4.9-4,9.8-4c4.9,0,4.9,4,9.8,4c4.9,0,4.9-4,9.8-4c4.9,0,4.9,4,9.8,4c4.9,0,4.9-4,9.8-4c4.9,0,4.9,4,9.8,4
				c4.9,0,4.9-4,9.8-4c4.9,0,4.9,4,9.8,4c4.9,0,4.9-4,9.8-4c4.9,0,4.9,4,9.8,4c4.9,0,4.9-4,9.8-4"/>
		</g>
		<g>
			<path class="st0" d="M4.7,731c4.9,0,4.9,4,9.7,4c4.9,0,4.9-4,9.8-4c4.9,0,4.9,4,9.8,4c4.9,0,4.9-4,9.8-4c4.9,0,4.9,4,9.8,4
				c4.9,0,4.9-4,9.8-4c4.9,0,4.9,4,9.8,4c4.9,0,4.9-4,9.8-4c4.9,0,4.9,4,9.8,4c4.9,0,4.9-4,9.8-4c4.9,0,4.9,4,9.8,4
				c4.9,0,4.9-4,9.8-4c4.9,0,4.9,4,9.8,4c4.9,0,4.9-4,9.8-4c4.9,0,4.9,4,9.8,4c4.9,0,4.9-4,9.8-4c4.9,0,4.9,4,9.8,4
				c4.9,0,4.9-4,9.8-4c4.9,0,4.9,4,9.8,4c4.9,0,4.9-4,9.8-4c4.9,0,4.9,4,9.8,4c4.9,0,4.9-4,9.8-4"/>
		</g>
		<g>
			<path class="st0" d="M4.7,735.9c4.9,0,4.9,4,9.7,4c4.9,0,4.9-4,9.8-4c4.9,0,4.9,4,9.8,4c4.9,0,4.9-4,9.8-4c4.9,0,4.9,4,9.8,4
				c4.9,0,4.9-4,9.8-4c4.9,0,4.9,4,9.8,4c4.9,0,4.9-4,9.8-4c4.9,0,4.9,4,9.8,4c4.9,0,4.9-4,9.8-4c4.9,0,4.9,4,9.8,4
				c4.9,0,4.9-4,9.8-4c4.9,0,4.9,4,9.8,4c4.9,0,4.9-4,9.8-4c4.9,0,4.9,4,9.8,4c4.9,0,4.9-4,9.8-4c4.9,0,4.9,4,9.8,4
				c4.9,0,4.9-4,9.8-4c4.9,0,4.9,4,9.8,4c4.9,0,4.9-4,9.8-4c4.9,0,4.9,4,9.8,4c4.9,0,4.9-4,9.8-4"/>
		</g>
		<g>
			<path class="st0" d="M4.7,740.9c4.9,0,4.9,4,9.7,4c4.9,0,4.9-4,9.8-4c4.9,0,4.9,4,9.8,4c4.9,0,4.9-4,9.8-4c4.9,0,4.9,4,9.8,4
				c4.9,0,4.9-4,9.8-4c4.9,0,4.9,4,9.8,4c4.9,0,4.9-4,9.8-4c4.9,0,4.9,4,9.8,4c4.9,0,4.9-4,9.8-4c4.9,0,4.9,4,9.8,4
				c4.9,0,4.9-4,9.8-4c4.9,0,4.9,4,9.8,4c4.9,0,4.9-4,9.8-4c4.9,0,4.9,4,9.8,4c4.9,0,4.9-4,9.8-4c4.9,0,4.9,4,9.8,4
				c4.9,0,4.9-4,9.8-4c4.9,0,4.9,4,9.8,4c4.9,0,4.9-4,9.8-4c4.9,0,4.9,4,9.8,4c4.9,0,4.9-4,9.8-4"/>
		</g>
		<g>
			<path class="st0" d="M4.7,745.9c4.9,0,4.9,4,9.7,4c4.9,0,4.9-4,9.8-4c4.9,0,4.9,4,9.8,4c4.9,0,4.9-4,9.8-4c4.9,0,4.9,4,9.8,4
				c4.9,0,4.9-4,9.8-4c4.9,0,4.9,4,9.8,4c4.9,0,4.9-4,9.8-4c4.9,0,4.9,4,9.8,4c4.9,0,4.9-4,9.8-4c4.9,0,4.9,4,9.8,4
				c4.9,0,4.9-4,9.8-4c4.9,0,4.9,4,9.8,4c4.9,0,4.9-4,9.8-4c4.9,0,4.9,4,9.8,4c4.9,0,4.9-4,9.8-4c4.9,0,4.9,4,9.8,4
				c4.9,0,4.9-4,9.8-4c4.9,0,4.9,4,9.8,4c4.9,0,4.9-4,9.8-4c4.9,0,4.9,4,9.8,4c4.9,0,4.9-4,9.8-4"/>
		</g>
	</g>
</g>
<g id="Kroatien">
	<path class="st1" d="M1097,218.8c3.8,1.3-8.6,1.3-14.7,1.3c-6.1,0-10.2-1-15.4-2.3c-2.9-0.8-5.6-1.1-7.4-1.3
		c-1.3-0.1-2.3-1.2-2.4-2.4l-0.2-3.2c-0.1-0.8-0.7-1.3-1.4-1.3h-1.5c-0.8,0-1.5-0.6-1.7-1.4l-0.4-2.3c-0.2-1.1-1.1-1.9-2.3-1.9h-3.7
		c0,0-1.5-1.4-2.4-2.3c-0.9-0.9-3.3-1.1-5.1-0.1c-1.8,1-3.4,0-3.9-2c-0.4-2-2-4.1-5.3-4.4c0,0-1.8,0-3.3,0s-3.4-1.7-4.1-2.9
		c-0.7-1.2-1.9-2.8-3.3-2c-1.4,0.8-0.9,1.5-2,2.3c-1.1,0.8-4.2,1.1-5.6,0c-1.4-1.1-4.3-2.6-5.2-1.1s-1,5-2.3,5.6s-4,0.6-6.8,2.9
		s-7,7.3-9.6,9.4s-3,6.6-1.4,10.8c1.5,4.2,2.1,8.4,2.2,12.8c0.1,4.4-0.6,7.3,2.8,11.2c3.3,4,6.5,5.5,7,9c0.6,3.5-0.1,8.3-0.1,8.3
		s-2.6,0.6-4.3,1.7c-1.7,1.1-5.9,1.1-7.9,0.1c-2-1-3.5-4-7.5-3.7c-4,0.2-8.9,2.2-14.2,2.2c-5.3,0-9-3.7-11.4-6.1
		c-2.4-2.4-6.6-6.2-10.5-1.9c-4,4.3-3.7,6.3-8.1,6.9c-4.4,0.7-11.9-2-10.7,4.6c1.2,6.6,0.6,11.3-3.2,14.1s-10,6.6-12.2,9.4
		s-2.6,5.9-5.7,6.5c-3.1,0.6-5.8-0.3-8.9,1.7c-3.1,2-3.9,3.7-7.2,3.7c-3.3,0-13.1-0.3-15.2,0c-2.1,0.3-30.9,12.1-31.6,12.7
		c-0.7,0.6,2.2,2.2,2.3,3.5s-1.2,2.1-1.5,4c-0.3,1.9,1.1,5.3,0.4,8.6c-0.7,3.3-2.9,8.8-7.3,8.6c-4.4-0.2-5.5-3.7-7.2-5.6
		c-1.7-1.9-4.8-1.8-5.1,0.1c-0.2,1.9-1,4.1-3,3c-2-1.1-5.9-2.8-9-2.4s-12.3-1.9-12.5,3.9c-0.2,5.8,0.8,7.3-0.5,7.8s-4.6,0.2-4.5,1.7
		c0.2,1.5-0.9,2.6-3.2,4.9c-2.3,2.3-3.6,5.7-4.7,8.5s-1.2,4.6-1.2,8.9c0,4.3,0.3,11.6,2.1,13.7c1.8,2.1,0.8,7.6,3.8,8.1
		c3,0.5,4.3,0.5,5.8,0.5c1.5,0,2.8,1,3.3,4.3s2,3.3,5.8,3c3.8-0.3,7.3,3.6,11.6,5.6c4.3,2,6.9,3.6,4.3,9.2
		c-2.6,5.6-2.6,7.1-3.5,12.6s-0.3,16.5-0.7,26.2c-0.3,9.7-4,13.7-5.9,16.7c-2,3-2.8,7.3-2,9.1s2.1,4.5,0.8,7.1
		c-1.3,2.6-1.3,7.6-3,8.8c-1.7,1.2-6.9,1.3-9.4,2.5c-2.5,1.2-3.1,0.2-3.6,2.2c-0.4,2.1-0.1,3.2-3.2,1.1c-3.1-2.1-8.8-6.1-10.7-7.1
		c-2-1-6.3-3-7.1-0.3c-0.8,2.6-0.8,3.8-1.8,5.1c-1,1.3-2.3,1.3-4.5,0c-2.1-1.3-6.6-1.7-7.3-1.2c-0.7,0.5,0.3,5.1-2.3,6.8
		c-2.6,1.7-2.5,1.5-4.3,2c-1.8,0.5-3.3,0.2-4.8-2.5c-1.5-2.6-3-4.5-6.1-2.6c-3.1,1.8-4.6,5.1-4.1,9.7c0.5,4.6-0.7,5.9-3.8,6.3
		c-3.1,0.3-14.2-1.3-15.7-0.8c-1.5,0.5-4.4,3.4-6,5c-1.7,1.7-1.9,0.6-6.9,1.7c-5,1.1-6.9,0.1-8.6,2.9c-1.7,2.8-1.7,4.8-1.7,6.6
		s0.5,1.3-3.1,5c-3.6,3.6-7.7,4-8.8,6.9c-1.1,2.9-1.1,4.1-1.1,4.1s-5-0.8-6.9,0s-4.4,1.7-3.9,5.1s3.3,5.3,5.8,5.3s2.5,1.3,4,4
		c1.5,2.6,2.7,7.2,5.8,8.6c3.1,1.4,6.9,2.5,5.5-1.1c-1.4-3.6-3.1-9.2-0.9-11.5c2.1-2.3,2.5-5.6,3.1-8.3c0.7-2.6,2.3-2.6,3.8-2.6
		c1.5,0,2.5,2.1,3,5.9s1.8,4.6,3,6.4s-0.8,3.8-2.6,5.5c-1.7,1.7-2.4,2.7-2.6,4.8c-0.2,2,1.2,3,3,1.9c2.2-1.4,4.8-1,6,2
		c1.1,2.6,2.7,6.9,5.2,7.8s1.8,1,1.5,3.3c-0.3,2.3-1.4,3.4-1.4,3.4s-2.9-0.9-5.4-0.9s-5.3,0.3-4.1,1.7c1.2,1.3,5,4.5,2.2,4.6
		c-2.8,0.1-8.4-0.1-10.3,0c-2,0.1-3.6,3.1-3.4,5.5c0.2,2.4,1.4,3.9-1.1,4.6c-2.5,0.8-2.8,0.8-3.7,0.8c-1,0-3,2.1-0.7,5
		c2.3,2.9,3.6,4.8,3.9,10.9c0.2,6.1,0,15.2,5.1,20.8s7.5,9.6,12.2,10.7c4.7,1.1,10.7,1.2,5.4,8c-5.3,6.8-6.6,7.8-8.9,9.6
		c-2.3,1.8-7,3.1-11.3,1.8c-4.3-1.3-13.4-5-18.2,1.3c-4.7,6.3-3.2,5.3-4.7,7.8c-1.5,2.5-4,4.8-7.6,2.5c-3.6-2.3-5.5,0.2-6.1,1.4
		s-5.4,5.6-8.9-0.6c-3.5-6.2-10.3-9.1-15.3-12.9c-5-3.7-5-8.8-5-10.2c0-1.4-0.6-1.9-2.8-1.8c-2.2,0.1-2.1,0.1-3.5,0.1
		c-1.4,0-2.9-1.4-4.7-3.3c-1.9-1.9-2.9,1.8-5.4,1.9s-4.3-1.5-6.9-2.8c-2.6-1.2-4.4-0.8-6.7-1.1s-5.6-3.4-8.7-7.4
		c-3.1-4-4.7-5.5-7.9-5.4c-3.2,0.1-7.5-0.6-7.5,4.4s1.1,8.9,0.6,11.2c-0.6,2.3,0.2,5.2-3.4,6.7c-3.6,1.5-8.9,0.4-12.9,3.6
		c-4,3.2-12.2,6.8-13.8,1c-1.5-5.8-1.9-8-4-9.9s-0.9-3.5-0.4-4.8c0.4-1.3-0.9-2-3.5-2c-2.6,0-3,0.2-5.2,0.2s-1.8-2.6-3.2-4
		c-1.4-1.3-4.2-0.3-6.1-1.5c-1.9-1.2-4.5-8.1-8.4-7.7c-3.9,0.4-8.1,4.7-8.1,4.7s-3.4-3-1.9-9.8c1.5-6.8,4.8-7.3,1.5-12.8
		c-3.3-5.5-11.9-5.1-14.8-8.8c-2.9-3.7-5.5-11.9-8.6-12.6c-3.1-0.7-6.6-1.5-7-7.9c-0.4-6.4-0.4-12.1-0.4-15s-3.7-1.8-5.7-1.8
		c-2,0-3.7-4.4-5.1,0s-4.2,17.2-5.1,21.1s-3.1,5.9-6.4,5.7c-3.3-0.2-9.5-2.2-8.3,4.7c1.2,6.9,1.2,15.5,1.2,17.9s-5.1,3.3-7,5.7
		c-2,2.4-2.2,2.4-5.5,7c-3.3,4.6-7.3,7.5-12.8,9c-5.5,1.5-10.8,7.9-17.2,8.6c-6.4,0.7-12.8,0-17.6-1.8s-6.1-0.6-8.5,1.9
		c-2.4,2.4-6.7,9.1-6.1,0.8s2.4-11.4-2.1-11.1s-11.3-0.6-12,4.1c-0.7,4.6-1.1,7,1.1,8.6c2.2,1.5,3.1,4.2-0.9,4.6
		c-4,0.4-7.9-0.9-10.3-3.5c-2.4-2.6-4.8-7.5-10.8-5.3s-14.3,4.4-23.3-2.2c-9-6.6-13-10.6-17-6.6c-4,4-7.3,2.9-6.6,6.6s2.2,7,2.2,9
		s-1.4,3.4-4.1,6.1c-2.6,2.6-6.3,7.2-11.3,5.6c-5.1-1.5-6.4-2-7.9-0.7c-1.5,1.3-5.9,0-8.6,1.3c-2.6,1.3-4,5.4-9.6,3.5
		c-5.6-2-7.4-2-10.9-2c-3.5,0-2.1-1.7-2.1-5.1c0-3.5-0.5-7.4-5.3-5.4c-4.8,2-7.6,4-11.9,2c-4.3-2-8.6-3.5-12.4-0.3
		c-3.8,3.1-5.3,3.1-8.4,4.5c-3.1,1.3-6.3,4.3-9.7,2.8c-3.5-1.5-8.1-6.1-15.2-8.4c-7.1-2.3-10.5-5.7-10.5-5.7s-17.9-8.8-20.9-9.8
		c-3-1-1,0.7-3,3.6c-2,3-10.1,11.9-6.1,10.2c4.1-1.7,8-2,6.9,1.1c-1.1,3.2-2.5,9.1,0,10.4c2.5,1.3,5.1,5,3.8,7.3
		c-1.3,2.3-3.6,2.9-1.3,6.7c2.3,3.8,4.6,6.2,5.6,8.8c1,2.6-4.3,6.3-2.6,7.9s3.6,2.6,5,5c1.3,2.3-3.6,2.3-2.8,6.4s0.2,9.4,2.5,11.4
		s3.6,4.3,9.7,4.3c6.1,0,9.1,0.3,6.1,3s-10.4,1.5-8.6,4c1.8,2.5,8.9,3.6,8.3,5.9c-0.7,2.3-9.4,2.5-8.3,5.6c1.2,3.1,2.4,9.6,2.4,9.6
		h928.9L1097,218.8z"/>
	<path class="st3" d="M1097,218.8c3.8,1.3-8.6,1.3-14.7,1.3c-6.1,0-10.2-1-15.4-2.3c-2.9-0.8-5.6-1.1-7.4-1.3
		c-1.3-0.1-2.3-1.2-2.4-2.4l-0.2-3.2c-0.1-0.8-0.7-1.3-1.4-1.3h-1.5c-0.8,0-1.5-0.6-1.7-1.4l-0.4-2.3c-0.2-1.1-1.1-1.9-2.3-1.9h-3.7
		c0,0-1.5-1.4-2.4-2.3c-0.9-0.9-3.3-1.1-5.1-0.1c-1.8,1-3.4,0-3.9-2c-0.4-2-2-4.1-5.3-4.4c0,0-1.8,0-3.3,0s-3.4-1.7-4.1-2.9
		c-0.7-1.2-1.9-2.8-3.3-2c-1.4,0.8-0.9,1.5-2,2.3c-1.1,0.8-4.2,1.1-5.6,0c-1.4-1.1-4.3-2.6-5.2-1.1s-1,5-2.3,5.6s-4,0.6-6.8,2.9
		s-7,7.3-9.6,9.4s-3,6.6-1.4,10.8c1.5,4.2,2.1,8.4,2.2,12.8c0.1,4.4-0.6,7.3,2.8,11.2c3.3,4,6.5,5.5,7,9c0.6,3.5-0.1,8.3-0.1,8.3
		s-2.6,0.6-4.3,1.7c-1.7,1.1-5.9,1.1-7.9,0.1c-2-1-3.5-4-7.5-3.7c-4,0.2-8.9,2.2-14.2,2.2c-5.3,0-9-3.7-11.4-6.1
		c-2.4-2.4-6.6-6.2-10.5-1.9c-4,4.3-3.7,6.3-8.1,6.9c-4.4,0.7-11.9-2-10.7,4.6c1.2,6.6,0.6,11.3-3.2,14.1s-10,6.6-12.2,9.4
		s-2.6,5.9-5.7,6.5c-3.1,0.6-5.8-0.3-8.9,1.7c-3.1,2-3.9,3.7-7.2,3.7c-3.3,0-13.1-0.3-15.2,0c-2.1,0.3-30.9,12.1-31.6,12.7
		c-0.7,0.6,2.2,2.2,2.3,3.5s-1.2,2.1-1.5,4c-0.3,1.9,1.1,5.3,0.4,8.6c-0.7,3.3-2.9,8.8-7.3,8.6c-4.4-0.2-5.5-3.7-7.2-5.6
		c-1.7-1.9-4.8-1.8-5.1,0.1c-0.2,1.9-1,4.1-3,3c-2-1.1-5.9-2.8-9-2.4s-12.3-1.9-12.5,3.9c-0.2,5.8,0.8,7.3-0.5,7.8s-4.6,0.2-4.5,1.7
		c0.2,1.5-0.9,2.6-3.2,4.9c-2.3,2.3-3.6,5.7-4.7,8.5s-1.2,4.6-1.2,8.9c0,4.3,0.3,11.6,2.1,13.7c1.8,2.1,0.8,7.6,3.8,8.1
		c3,0.5,4.3,0.5,5.8,0.5c1.5,0,2.8,1,3.3,4.3s2,3.3,5.8,3c3.8-0.3,7.3,3.6,11.6,5.6c4.3,2,6.9,3.6,4.3,9.2
		c-2.6,5.6-2.6,7.1-3.5,12.6s-0.3,16.5-0.7,26.2c-0.3,9.7-4,13.7-5.9,16.7c-2,3-2.8,7.3-2,9.1s2.1,4.5,0.8,7.1
		c-1.3,2.6-1.3,7.6-3,8.8c-1.7,1.2-6.9,1.3-9.4,2.5c-2.5,1.2-3.1,0.2-3.6,2.2c-0.4,2.1-0.1,3.2-3.2,1.1c-3.1-2.1-8.8-6.1-10.7-7.1
		c-2-1-6.3-3-7.1-0.3c-0.8,2.6-0.8,3.8-1.8,5.1c-1,1.3-2.3,1.3-4.5,0c-2.1-1.3-6.6-1.7-7.3-1.2c-0.7,0.5,0.3,5.1-2.3,6.8
		c-2.6,1.7-2.5,1.5-4.3,2c-1.8,0.5-3.3,0.2-4.8-2.5c-1.5-2.6-3-4.5-6.1-2.6c-3.1,1.8-4.6,5.1-4.1,9.7c0.5,4.6-0.7,5.9-3.8,6.3
		c-3.1,0.3-14.2-1.3-15.7-0.8c-1.5,0.5-4.4,3.4-6,5c-1.7,1.7-1.9,0.6-6.9,1.7c-5,1.1-6.9,0.1-8.6,2.9c-1.7,2.8-1.7,4.8-1.7,6.6
		s0.5,1.3-3.1,5c-3.6,3.6-7.7,4-8.8,6.9c-1.1,2.9-1.1,4.1-1.1,4.1s-5-0.8-6.9,0s-4.4,1.7-3.9,5.1s3.3,5.3,5.8,5.3s2.5,1.3,4,4
		c1.5,2.6,2.7,7.2,5.8,8.6c3.1,1.4,6.9,2.5,5.5-1.1c-1.4-3.6-3.1-9.2-0.9-11.5c2.1-2.3,2.5-5.6,3.1-8.3c0.7-2.6,2.3-2.6,3.8-2.6
		c1.5,0,2.5,2.1,3,5.9s1.8,4.6,3,6.4s-0.8,3.8-2.6,5.5c-1.7,1.7-2.4,2.7-2.6,4.8c-0.2,2,1.2,3,3,1.9c2.2-1.4,4.8-1,6,2
		c1.1,2.6,2.7,6.9,5.2,7.8s1.8,1,1.5,3.3c-0.3,2.3-1.4,3.4-1.4,3.4s-2.9-0.9-5.4-0.9s-5.3,0.3-4.1,1.7c1.2,1.3,5,4.5,2.2,4.6
		c-2.8,0.1-8.4-0.1-10.3,0c-2,0.1-3.6,3.1-3.4,5.5c0.2,2.4,1.4,3.9-1.1,4.6c-2.5,0.8-2.8,0.8-3.7,0.8c-1,0-3,2.1-0.7,5
		c2.3,2.9,3.6,4.8,3.9,10.9c0.2,6.1,0,15.2,5.1,20.8s7.5,9.6,12.2,10.7c4.7,1.1,10.7,1.2,5.4,8c-5.3,6.8-6.6,7.8-8.9,9.6
		c-2.3,1.8-7,3.1-11.3,1.8c-4.3-1.3-13.4-5-18.2,1.3c-4.7,6.3-3.2,5.3-4.7,7.8c-1.5,2.5-4,4.8-7.6,2.5c-3.6-2.3-5.5,0.2-6.1,1.4
		s-5.4,5.6-8.9-0.6c-3.5-6.2-10.3-9.1-15.3-12.9c-5-3.7-5-8.8-5-10.2c0-1.4-0.6-1.9-2.8-1.8c-2.2,0.1-2.1,0.1-3.5,0.1
		c-1.4,0-2.9-1.4-4.7-3.3c-1.9-1.9-2.9,1.8-5.4,1.9s-4.3-1.5-6.9-2.8c-2.6-1.2-4.4-0.8-6.7-1.1s-5.6-3.4-8.7-7.4
		c-3.1-4-4.7-5.5-7.9-5.4c-3.2,0.1-7.5-0.6-7.5,4.4s1.1,8.9,0.6,11.2c-0.6,2.3,0.2,5.2-3.4,6.7c-3.6,1.5-8.9,0.4-12.9,3.6
		c-4,3.2-12.2,6.8-13.8,1c-1.5-5.8-1.9-8-4-9.9s-0.9-3.5-0.4-4.8c0.4-1.3-0.9-2-3.5-2c-2.6,0-3,0.2-5.2,0.2s-1.8-2.6-3.2-4
		c-1.4-1.3-4.2-0.3-6.1-1.5c-1.9-1.2-4.5-8.1-8.4-7.7c-3.9,0.4-8.1,4.7-8.1,4.7s-3.4-3-1.9-9.8c1.5-6.8,4.8-7.3,1.5-12.8
		c-3.3-5.5-11.9-5.1-14.8-8.8c-2.9-3.7-5.5-11.9-8.6-12.6c-3.1-0.7-6.6-1.5-7-7.9c-0.4-6.4-0.4-12.1-0.4-15s-3.7-1.8-5.7-1.8
		c-2,0-3.7-4.4-5.1,0s-4.2,17.2-5.1,21.1s-3.1,5.9-6.4,5.7c-3.3-0.2-9.5-2.2-8.3,4.7c1.2,6.9,1.2,15.5,1.2,17.9s-5.1,3.3-7,5.7
		c-2,2.4-2.2,2.4-5.5,7c-3.3,4.6-7.3,7.5-12.8,9c-5.5,1.5-10.8,7.9-17.2,8.6c-6.4,0.7-12.8,0-17.6-1.8s-6.1-0.6-8.5,1.9
		c-2.4,2.4-6.7,9.1-6.1,0.8s2.4-11.4-2.1-11.1s-11.3-0.6-12,4.1c-0.7,4.6-1.1,7,1.1,8.6c2.2,1.5,3.1,4.2-0.9,4.6
		c-4,0.4-7.9-0.9-10.3-3.5c-2.4-2.6-4.8-7.5-10.8-5.3s-14.3,4.4-23.3-2.2c-9-6.6-13-10.6-17-6.6c-4,4-7.3,2.9-6.6,6.6s2.2,7,2.2,9
		s-1.4,3.4-4.1,6.1c-2.6,2.6-6.3,7.2-11.3,5.6c-5.1-1.5-6.4-2-7.9-0.7c-1.5,1.3-5.9,0-8.6,1.3c-2.6,1.3-4,5.4-9.6,3.5
		c-5.6-2-7.4-2-10.9-2c-3.5,0-2.1-1.7-2.1-5.1c0-3.5-0.5-7.4-5.3-5.4c-4.8,2-7.6,4-11.9,2c-4.3-2-8.6-3.5-12.4-0.3
		c-3.8,3.1-5.3,3.1-8.4,4.5c-3.1,1.3-6.3,4.3-9.7,2.8c-3.5-1.5-8.1-6.1-15.2-8.4c-7.1-2.3-10.5-5.7-10.5-5.7s-17.9-8.8-20.9-9.8
		c-3-1-1,0.7-3,3.6c-2,3-10.1,11.9-6.1,10.2c4.1-1.7,8-2,6.9,1.1c-1.1,3.2-2.5,9.1,0,10.4c2.5,1.3,5.1,5,3.8,7.3
		c-1.3,2.3-3.6,2.9-1.3,6.7c2.3,3.8,4.6,6.2,5.6,8.8c1,2.6-4.3,6.3-2.6,7.9s3.6,2.6,5,5c1.3,2.3-3.6,2.3-2.8,6.4s0.2,9.4,2.5,11.4
		s3.6,4.3,9.7,4.3c6.1,0,9.1,0.3,6.1,3s-10.4,1.5-8.6,4c1.8,2.5,8.9,3.6,8.3,5.9c-0.7,2.3-9.4,3.6-8.3,6.8"/>
</g>
<g id="Slowenien">
	<path class="st4" d="M208.2,198.1c0,0,8-3,13,0s9,5,12,5s16-3,27-3s20,3,26,8s10.2,9.3,16.8,5.8c4.7-2.6,7.7-1.3,11.7-0.3s5-1,10,3
		s10,12,13,15s5,5,10,4s11-1,12-1s1,0,3,2s5,1,7,0s7-4,14-1s8,5,13,3s5-2,9-2s10-5,15-4s5,2,5,4s2,5,7,6s6,5,9,4s5-7,8-6s8,8,9,11
		s2,12,5,12s6.5-5.3,8.5-8.3s-3.5-7.6-1.5-12.6s6.1-6.7,12.1-7.7s10,0.6,12-1.4s3-6,5-7s2-1,5-4c3-3,6-3,6-7c0-8.1,3.9-5.4,6.7-5.4
		c4.1,0,3.3-0.6,6.3-0.6c3,0,9,2,11,1s6.8-1.1,7.7-4.4c0.9-3.3,0.9-8.4,2.6-11.9s0.7-10.3,2.9-12.8c2.2-2.4,6.8-12.1,8.6-15.2
		c1.8-3.1,8.4-5.3,10.8-4.2c2.4,1.1,2.9,1.5,3.6,2.3c0.8,0.8,2.3-2.3,2.3-3.6c0-1.3-1.5-4.8,4.5-5.8c6.1-1,9.1-1.9,10.5,0
		c1,1.5,3,7.3,3.8,9.6c0.1,0.3,0.6,0.3,0.6,0c1.1-3.5,4.7-14.8,8.1-15.9c4-1.3,7.5-5.9,11.7-6.2s7,0.4,9,2c2,1.5,2.7-1.6,5.5-2
		c2.8-0.4,8.5,0.4,10.5,0c2-0.4,2.6-0.4,6.4-0.4s9.9-2.4,11.7,0c1.8,2.4,6.1,5.5,13.6,5.5c15.3,0,21.6-7,25.4-6.6
		c3.7,0.4,9.5,2.2,17.4,2.4s7-2,9.8-1.7c2.8,0.3,6.3,3.9,7.2,4.7c0.9,0.9,6.4-0.7,7.3,0.9c0.9,1.5,2.4,6.2,2.9,8.4s2.6,4.8,10.3,2.2
		c7.7-2.6,12.3-6.2,14.1-9.2c1.8-3.1-1.8-8.4,0-11.2s10.3-8.8,13.4-9.5c3.1-0.7,7.5,2,11,1.3c3.5-0.7,6.8-3.5,7.9-6.8
		c1.1-3.3,2.8-5,2.8-5l8.3,4.5h22.9c0,0,4.6-4.6,7.9-7.9c3.3-3.3,8.6-5.7,15.4-5.1c6.8,0.7,14.5-0.9,18.7,1.8s7.3,5.7,9.7,8.1
		c2.4,2.4,5.9,2.9,9.7,5.9c3.3,2.7,16,12.7,19,15.1c0.3,0.2,0.7,0,0.7-0.3l1.7-15.3c0,0-16.3-19.4-17-23.8
		c-0.7-4.4-0.9-25.1,0.7-26.6s3.1-5.1,1.5-5.7c-1.5-0.7-3.1-6.8-1.5-7.7s7,0.7,8.4,0s2.4-2.4,4-2s1.5,2.6,2.6,1.5
		c1.1-1.1,0.4-3.3,2.9-2.9c0,0,0.2,0,1.5,0s2.6,0.5,4.1-2.8c1.5-3.3,5.3-6.6,8.8-7.4c3.5-0.8,3-2.1,5.4-0.8s5.4,5,9.1,4.6
		c3.6-0.3,4.1-2.1,8.8-2.1s4.8-4.8,9.1-4.5c4.3,0.3,4.1-1.3,6.4-1.8c2.3-0.5,3.1-1.3,5.1-0.5c2,0.8,5.8,1.5,9.9,1.7
		c4.1,0.2,5.3-0.3,6.4,2.4c1.1,2.7,2.7,3.4,4.5,3.6c1.8,0.2,2.8,2,3.1,3.3s5.4-0.5,6.3,1.3s0.8,5.3,0.8,10.7s-1.5,10.4-3.1,11.1
		c-1.7,0.7-5.1,1-5.6,3c-0.5,2-1.8,4,0.2,5.4c2,1.5,4,2.1,3,5.3c-1,3.1-1.2,5.3,0,6.8c1.2,1.5,3.5,2,5,5.1c1.5,3.1,1.3,2.8,2.1,5.6
		c0.8,2.8,1.7,5.1,4.3,4.8c2.6-0.3,2.4-0.6,3.6,0.7c1.2,1.2-1.2,5.8,0,6.9s12.4-0.5,13.4,1.2s1,5.6,1,9.9c0,4.3,0.7,7.6-1.2,7.4
		c-1.8-0.2-3.8-2.8-5.4-1.5c-1.7,1.3-2.6,3.6-2.6,6.6s0.7,6.3,3.7,6.7c3.1,0.4,3.7,1.1,6.9,4.3c3.2,3.2,8.2,5.2,11.8,9.8s5.8,5,6,7
		c0.2,2.1,0.7,8.5,2.7,8.7c2,0.2,6.4-2.1,7.6,0.2c1.2,2.3,1.3,6.3,2.3,8.6s2.6,4,3.2,4.5c0.6,0.6-0.2,3.7,0.7,5.4s0.2,4.1,0,5.8
		c-0.2,1.7,3,4.3,5.3,5.1s3.3,3.9,9.5,6c6.5,2.3,15.4,2.1,19.2,3.4c3.8,1.3-8.6,1.3-14.7,1.3c-6.1,0-10.2-1-15.4-2.3
		c-2.9-0.8-5.6-1.1-7.4-1.3c-1.3-0.1-2.3-1.2-2.4-2.4l-0.2-3.2c-0.1-0.8-0.7-1.3-1.4-1.3h-1.5c-0.8,0-1.5-0.6-1.7-1.4l-0.4-2.3
		c-0.2-1.1-1.1-1.9-2.3-1.9h-3.7c0,0-1.5-1.4-2.4-2.3c-0.9-0.9-3.3-1.1-5.1-0.1c-1.8,1-3.4,0-3.9-2c-0.4-2-2-4.1-5.3-4.4
		c0,0-1.8,0-3.3,0s-3.4-1.7-4.1-2.9c-0.7-1.2-1.9-2.8-3.3-2c-1.4,0.8-0.9,1.5-2,2.3c-1.1,0.8-4.2,1.1-5.6,0
		c-1.4-1.1-4.3-2.6-5.2-1.1s-1,5-2.3,5.6s-4,0.6-6.8,2.9s-7,7.3-9.6,9.4s-3,6.6-1.4,10.8c1.5,4.2,2.1,8.4,2.2,12.8
		c0.1,4.4-0.6,7.3,2.8,11.2c3.3,4,6.5,5.5,7,9c0.6,3.5-0.1,8.3-0.1,8.3s-2.6,0.6-4.3,1.7c-1.7,1.1-5.9,1.1-7.9,0.1
		c-2-1-3.5-4-7.5-3.7c-4,0.2-8.9,2.2-14.2,2.2c-5.3,0-9-3.7-11.4-6.1c-2.4-2.4-6.6-6.2-10.5-1.9c-4,4.3-3.7,6.3-8.1,6.9
		c-4.4,0.7-11.9-2-10.7,4.6c1.2,6.6,0.6,11.3-3.2,14.1s-10,6.6-12.2,9.4s-2.6,5.9-5.7,6.5c-3.1,0.6-5.8-0.3-8.9,1.7
		c-3.1,2-3.9,3.7-7.2,3.7c-3.3,0-13.1-0.3-15.2,0c-2.1,0.3-30.9,12.1-31.6,12.7c-0.7,0.6,2.2,2.2,2.3,3.5s-1.2,2.1-1.5,4
		c-0.3,1.9,1.1,5.3,0.4,8.6c-0.7,3.3-2.9,8.8-7.3,8.6c-4.4-0.2-5.5-3.7-7.2-5.6c-1.7-1.9-4.8-1.8-5.1,0.1c-0.2,1.9-1,4.1-3,3
		c-2-1.1-5.9-2.8-9-2.4s-12.3-1.9-12.5,3.9c-0.2,5.8,0.8,7.3-0.5,7.8s-4.6,0.2-4.5,1.7c0.2,1.5-0.9,2.6-3.2,4.9
		c-2.3,2.3-3.6,5.7-4.7,8.5s-1.2,4.6-1.2,8.9c0,4.3,0.3,11.6,2.1,13.7c1.8,2.1,0.8,7.6,3.8,8.1c3,0.5,4.3,0.5,5.8,0.5
		c1.5,0,2.8,1,3.3,4.3s2,3.3,5.8,3c3.8-0.3,7.3,3.6,11.6,5.6c4.3,2,6.9,3.6,4.3,9.2c-2.6,5.6-2.6,7.1-3.5,12.6s-0.3,16.5-0.7,26.2
		c-0.3,9.7-4,13.7-5.9,16.7c-2,3-2.8,7.3-2,9.1s2.1,4.5,0.8,7.1c-1.3,2.6-1.3,7.6-3,8.8c-1.7,1.2-6.9,1.3-9.4,2.5
		c-2.5,1.2-3.1,0.2-3.6,2.2c-0.4,2.1-0.1,3.2-3.2,1.1c-3.1-2.1-8.8-6.1-10.7-7.1c-2-1-6.3-3-7.1-0.3c-0.8,2.6-0.8,3.8-1.8,5.1
		c-1,1.3-2.3,1.3-4.5,0c-2.1-1.3-6.6-1.7-7.3-1.2c-0.7,0.5,0.3,5.1-2.3,6.8c-2.6,1.7-2.5,1.5-4.3,2c-1.8,0.5-3.3,0.2-4.8-2.5
		c-1.5-2.6-3-4.5-6.1-2.6c-3.1,1.8-4.6,5.1-4.1,9.7c0.5,4.6-0.7,5.9-3.8,6.3c-3.1,0.3-14.2-1.3-15.7-0.8c-1.5,0.5-4.4,3.4-6,5
		c-1.7,1.7-1.9,0.6-6.9,1.7c-5,1.1-6.9,0.1-8.6,2.9c-1.7,2.8-1.7,4.8-1.7,6.6s0.5,1.3-3.1,5c-3.6,3.6-7.7,4-8.8,6.9
		c-1.1,2.9-1.1,4.1-1.1,4.1s-5-0.8-6.9,0s-4.4,1.7-3.9,5.1s3.3,5.3,5.8,5.3s2.5,1.3,4,4c1.5,2.6,2.7,7.2,5.8,8.6
		c3.1,1.4,6.9,2.5,5.5-1.1c-1.4-3.6-3.1-9.2-0.9-11.5c2.1-2.3,2.5-5.6,3.1-8.3c0.7-2.6,2.3-2.6,3.8-2.6c1.5,0,2.5,2.1,3,5.9
		s1.8,4.6,3,6.4s-0.8,3.8-2.6,5.5c-1.7,1.7-2.4,2.7-2.6,4.8c-0.2,2,1.2,3,3,1.9c2.2-1.4,4.8-1,6,2c1.1,2.6,2.7,6.9,5.2,7.8
		s1.8,1,1.5,3.3c-0.3,2.3-1.4,3.4-1.4,3.4s-2.9-0.9-5.4-0.9s-5.3,0.3-4.1,1.7c1.2,1.3,5,4.5,2.2,4.6c-2.8,0.1-8.4-0.1-10.3,0
		c-2,0.1-3.6,3.1-3.4,5.5c0.2,2.4,1.4,3.9-1.1,4.6c-2.5,0.8-2.8,0.8-3.7,0.8c-1,0-3,2.1-0.7,5c2.3,2.9,3.6,4.8,3.9,10.9
		c0.2,6.1,0,15.2,5.1,20.8s7.5,9.6,12.2,10.7c4.7,1.1,10.7,1.2,5.4,8c-5.3,6.8-6.6,7.8-8.9,9.6c-2.3,1.8-7,3.1-11.3,1.8
		c-4.3-1.3-13.4-5-18.2,1.3c-4.7,6.3-3.2,5.3-4.7,7.8c-1.5,2.5-4,4.8-7.6,2.5c-3.6-2.3-5.5,0.2-6.1,1.4s-5.4,5.6-8.9-0.6
		c-3.5-6.2-10.3-9.1-15.3-12.9c-5-3.7-5-8.8-5-10.2c0-1.4-0.6-1.9-2.8-1.8c-2.2,0.1-2.1,0.1-3.5,0.1c-1.4,0-2.9-1.4-4.7-3.3
		c-1.9-1.9-2.9,1.8-5.4,1.9s-4.3-1.5-6.9-2.8c-2.6-1.2-4.4-0.8-6.7-1.1s-5.6-3.4-8.7-7.4c-3.1-4-4.7-5.5-7.9-5.4
		c-3.2,0.1-7.5-0.6-7.5,4.4s1.1,8.9,0.6,11.2c-0.6,2.3,0.2,5.2-3.4,6.7c-3.6,1.5-8.9,0.4-12.9,3.6c-4,3.2-12.2,6.8-13.8,1
		c-1.5-5.8-1.9-8-4-9.9s-0.9-3.5-0.4-4.8c0.4-1.3-0.9-2-3.5-2c-2.6,0-3,0.2-5.2,0.2s-1.8-2.6-3.2-4c-1.4-1.3-4.2-0.3-6.1-1.5
		c-1.9-1.2-4.5-8.1-8.4-7.7c-3.9,0.4-8.1,4.7-8.1,4.7s-3.4-3-1.9-9.8c1.5-6.8,4.8-7.3,1.5-12.8c-3.3-5.5-11.9-5.1-14.8-8.8
		c-2.9-3.7-5.5-11.9-8.6-12.6c-3.1-0.7-6.6-1.5-7-7.9c-0.4-6.4-0.4-12.1-0.4-15s-3.7-1.8-5.7-1.8c-2,0-3.7-4.4-5.1,0
		s-4.2,17.2-5.1,21.1s-3.1,5.9-6.4,5.7c-3.3-0.2-9.5-2.2-8.3,4.7c1.2,6.9,1.2,15.5,1.2,17.9s-5.1,3.3-7,5.7c-2,2.4-2.2,2.4-5.5,7
		c-3.3,4.6-7.3,7.5-12.8,9c-5.5,1.5-10.8,7.9-17.2,8.6c-6.4,0.7-12.8,0-17.6-1.8s-6.1-0.6-8.5,1.9c-2.4,2.4-6.7,9.1-6.1,0.8
		s2.4-11.4-2.1-11.1s-11.3-0.6-12,4.1c-0.7,4.6-1.1,7,1.1,8.6c2.2,1.5,3.1,4.2-0.9,4.6c-4,0.4-7.9-0.9-10.3-3.5
		c-2.4-2.6-4.8-7.5-10.8-5.3s-14.3,4.4-23.3-2.2c-9-6.6-13-10.6-17-6.6c-4,4-7.3,2.9-6.6,6.6s2.2,7,2.2,9s-1.4,3.4-4.1,6.1
		c-2.6,2.6-6.3,7.2-11.3,5.6c-5.1-1.5-6.4-2-7.9-0.7c-1.5,1.3-5.9,0-8.6,1.3c-2.6,1.3-4,5.4-9.6,3.5c-5.6-2-7.4-2-10.9-2
		c-3.5,0-2.1-1.7-2.1-5.1c0-3.5-0.5-7.4-5.3-5.4c-4.8,2-7.6,4-11.9,2c-4.3-2-8.6-3.5-12.4-0.3c-3.8,3.1-5.3,3.1-8.4,4.5
		c-3.1,1.3-6.3,4.3-9.7,2.8c-3.5-1.5-8.1-6.1-15.2-8.4c-7.1-2.3-10.5-5.7-10.5-5.7s1.2-4.7,1.7-8.3c0.5-3.6,1.2-6.5-1-6.9
		s-6.9-1.7-6.4-4.6c0.5-3,1.2-3,3.8-1.8s5.9,2,7.8-0.5s3.1-4.3,6.9-2.5c3.8,1.8,7.9,4.3,11.6,0.3c3.6-4,5.9-6.3,10.2-5.4
		c4.3,0.8,8.3,0.3,10.4,0c2.1-0.3,5.9,4,7.8,1.3s-0.2-4.7-1.6-6c-1.3-1.3,1.2-4.9-0.4-5.9s-3.8-2-7.8-4c-4-2-9.1-4.3-7.2-5.2
		s12.8-1.9,17.3-0.1s9.4,5,13.9,6.9c4.5,2,12.1,0.8,17.2-3c5.1-3.8,7.6-10.6,11.9-14.4c4.3-3.8,7-9.7-0.2-12.6s-11.4-4-14.4-12.6
		s-9.4-19.7-13-24.6c-3.6-5-9.6-7.8-15.2-8.6c-5.6-0.8-10.9-6.1-15.1-10.3c-4.2-4.2-7.3-11.3-17.3-11.1c-9.9,0.2-15.2-0.7-16.5-8.1
		c-1.3-7.4-5.9-13.7-4.5-20.3s2-11.4,5.4-14.5s2-5.9,7.4-10.4c5.4-4.5,5-4,6.6-5.6s1.7-2.5,1.7-6.1c0-3.6,1.7-6.9,1.5-11.1
		c-0.2-4.1-1.5-7.6-1.5-7.6h-18c0,0-3.1,3.3-6.9,5.1c-3.8,1.8-7.8,5.6-11.2,2.1c-3.5-3.5-9.9-10.6-11.7-12.4c-1.8-1.8-3.8-3.3,0-6.6
		c3.8-3.3,6.9-5.8,7.4-10.1c0.5-4.3-5.3-10.2-2.3-12.9c3-2.6,6.4-1.2,9.1-3.6c2.6-2.5,1.8-5.3,6.9-6.7c5-1.4,5.4-4.7,10.5-8.3
		c5.1-3.6,19.4-13.3,21-17.2c1.6-3.9,3.6-9.9,3.3-13.4s-3.5-8.8-8.9-7.6c-5.4,1.2-8.1,2.3-11.4,1.2c-3.3-1.2-10.2,1.9-11.1-4
		c-0.9-5.9-5.9-8.1-10.1-9.1s-6.4,1.8-8.6,0c-2.1-1.8-0.3-2.1-6.1-2.5c-5.8-0.3-7.6-2.3-8.9-0.3c-1.3,2-3,4-6.6,4.6
		c-3.6,0.7-5-0.2-3.6-5.3c1.3-5.1,2.8-6.9-0.5-10.9c-3.3-4-5.8-6.6-5.3-10.4c0.5-3.8-5.1-9.2-3.1-11.4s6.6-4,8.8-6.3
		c2.1-2.3,8.5-5,9.6-7.9c1.1-2.9-4.8-13,1.1-14c5.9-1,10.8,0.3,15.6-2.6c4.8-3,5.3-6.8,15.2-10.7c9.9-4,8.1-12.6,14-16.5
		c5.9-4,15.4-3.8,21.6-2.6c6.3,1.2,10.7,2.8,10.9-4c0.2-6.8,0.5-7.1,2.7-9.3s-1.1-10.8,0.1-12.8s4.1-2.5,4.1-4.6
		C208.6,199.6,208.2,198.1,208.2,198.1z"/>
</g>
<g id="Ungarn">
	<path class="st3" d="M961.8,0.1l0.3,1.9c0,0,0,6.6-2,7.7c-2,1.1,0,3.4-0.9,5.7c-0.9,2.3-1.7-1.7-6.3,6.7s-8,10.4-11.1,15.5
		s-7.9,8.8-7.9,8.8c2.5,1.3,5.4,5,9.1,4.6c3.6-0.3,4.1-2.1,8.8-2.1s4.8-4.8,9.1-4.5c4.3,0.3,4.1-1.3,6.4-1.8
		c2.3-0.5,3.1-1.3,5.1-0.5c2,0.8,5.8,1.5,9.9,1.7c4.1,0.2,5.3-0.3,6.4,2.4c1.1,2.7,2.7,3.4,4.5,3.6c1.8,0.2,2.8,2,3.1,3.3
		s5.4-0.5,6.3,1.3s0.8,5.3,0.8,10.7s-1.5,10.4-3.1,11.1c-1.7,0.7-5.1,1-5.6,3c-0.5,2-1.8,4,0.2,5.4c2,1.5,4,2.1,3,5.3
		c-1,3.1-1.2,5.3,0,6.8c1.2,1.5,3.5,2,5,5.1c1.5,3.1,1.3,2.8,2.1,5.6c0.8,2.8,1.7,5.1,4.3,4.8c2.6-0.3,2.4-0.6,3.6,0.7
		c1.2,1.2-1.2,5.8,0,6.9s12.4-0.5,13.4,1.2s1,5.6,1,9.9c0,4.3,0.7,7.6-1.2,7.4c-1.8-0.2-3.8-2.8-5.4-1.5c-1.7,1.3-2.6,3.6-2.6,6.6
		s0.7,6.3,3.7,6.7c3.1,0.4,3.7,1.1,6.9,4.3c3.2,3.2,8.2,5.2,11.8,9.8s5.8,5,6,7c0.2,2.1,0.7,8.5,2.7,8.7c2,0.2,6.4-2.1,7.6,0.2
		c1.2,2.3,1.3,6.3,2.3,8.6s2.6,4,3.2,4.5c0.6,0.6-0.2,3.7,0.7,5.4s0.2,4.1,0,5.8c-0.2,1.7,3,4.3,5.3,5.1s3.3,3.9,9.5,6
		c6.5,2.3,15.4,2.1,19.2,3.4c0,0,4.9,4.9,6.3,9.2c1.4,4.3,4.4,7.4,9.7,9.4s5.3,3.1,5.3,3.1s25.4,15,42.4,36.8"/>
</g>
<g id="Italien">
	<path class="st1" d="M78.2,179.7c0,0,4.6,0.5,6.9,0s4.3-3.2,7.6-3c3.3,0.1,7.3,1.2,8.3,0s4.8-6.9,7.4-4.3s6.8,6.8,15.4,7.3
		c8.6,0.5,15.2-2.5,18.5-3c3.3-0.5,4.3,7.5,8.9,7.3c4.6-0.1,8.9,0.1,10.2,2.8c1.3,2.6,4,2.3,7.6,1.5c3.6-0.8,3.3-3.8,16.2,1.8
		c12.9,5.6,23,8.1,23,8.1s0.4,1.5,0.4,3.7c0,2.1-3,2.6-4.1,4.6s2.1,10.6-0.1,12.8s-2.6,2.6-2.7,9.3c-0.2,6.8-4.6,5.1-10.9,4
		c-6.3-1.2-15.7-1.3-21.6,2.6c-5.9,4-4.1,12.6-14,16.5c-9.9,4-10.4,7.8-15.2,10.7c-4.8,3-9.7,1.7-15.6,2.6c-5.9,1,0,11.1-1.1,14
		c-1.1,2.9-7.4,5.6-9.6,7.9c-2.1,2.3-6.8,4.1-8.8,6.3s3.6,7.6,3.1,11.4c-0.5,3.8,2,6.4,5.3,10.4c3.3,4,1.8,5.8,0.5,10.9
		c-1.3,5.1,0,5.9,3.6,5.3c3.6-0.7,5.3-2.6,6.6-4.6c1.3-2,3.1,0,8.9,0.3c5.8,0.3,4,0.7,6.1,2.5c2.1,1.8,4.5-1,8.6,0s9.2,3.2,10.1,9.1
		c0.9,5.9,7.8,2.8,11.1,4c3.3,1.2,5.9,0,11.4-1.2c5.4-1.2,8.6,4.1,8.9,7.6s-1.7,9.5-3.3,13.4c-1.6,3.9-15.9,13.5-21,17.2
		c-5.1,3.6-5.4,6.9-10.5,8.3c-5,1.4-4.2,4.2-6.9,6.7c-2.6,2.5-6.1,1-9.1,3.6c-3,2.6,2.8,8.6,2.3,12.9c-0.5,4.3-3.6,6.8-7.4,10.1
		c-3.8,3.3-1.8,4.8,0,6.6c1.8,1.8,8.3,8.9,11.7,12.4c3.5,3.5,7.4-0.3,11.2-2.1c3.8-1.8,6.9-5.1,6.9-5.1h18c0,0,1.3,3.5,1.5,7.6
		c0.2,4.1-1.5,7.4-1.5,11.1c0,3.6,0,4.5-1.7,6.1s-1.2,1.2-6.6,5.6c-5.4,4.5-4,7.3-7.4,10.4s-4,7.9-5.4,14.5s3.1,12.9,4.5,20.3
		c1.3,7.4,6.6,8.3,16.5,8.1c9.9-0.2,13,6.9,17.3,11.1c4.2,4.2,9.5,9.5,15.1,10.3c5.6,0.8,11.6,3.6,15.2,8.6c3.6,5,10.1,16,13,24.6
		s7.2,9.7,14.4,12.6s4.5,8.8,0.2,12.6c-4.3,3.8-6.8,10.6-11.9,14.4c-5.1,3.8-12.7,5-17.2,3c-4.5-2-9.4-5.1-13.9-6.9
		c-2.3-1-6.5-1.1-10.1-1c0,0-0.9-6.7,5.9-6c6.8,0.7,11.9,5.7,13.9,4.6c2-1.1,3.2-2.3,4.3-3.4c1.1-1.1,0.6-1.9-2.1-2.1
		c-2.6-0.2-5.1-3.5-5.3-5.9c-0.2-2.4-2.6-3.1-4.8-4c-2.2-0.9-4.8-4.2-2.2-5.5s6.2-7.7-1.5-15.6s-9-5.3-12.1-10.3
		c-3.1-5.1-15.2-20.7-22.2-24.9c-7-4.2-12.1-3.1-15.7-7c-3.7-4-6.9-4-8.6-4c-1.7,0-1.2-5.9-3.6-5.1c-2.4,0.9,0.2,2.9-0.4,5.3
		s-0.8,0.4-3.5,5.3c-2.7,4.9-4,8.4-1.6,11.9c2.4,3.5,5.1,3.7,6.4,5.3c1.3,1.6,1.5,3.3-1.5,3.8s-4.8,2.6-10.1,5.5s-9.2,1.3-13.2,4.8
		c-4,3.5-7.6,7.2-9.6,9.1s-3-1.9-8.5-0.3c-5.5,1.5-9.6,0.3-5.5-1.1c4.1-1.4,8.1-1.3,11.4-3.1c3.3-1.8,3.9-2.3,7.1-5.5
		c3.2-3.2,2.6-6.8-2.6-7.3s-8.1-4-12.1-2.2s-3.4,2.3-6.5-0.8c-3.1-3.1-0.1-6.3-5.7-5.7c-5.6,0.6-4.7-0.6-11.1-3.2
		c0,0-8.6,0.3-12-2.7c-3.4-3-5.5-5.1-10.2-3c-4.7,2.1-6,6.8-11.1,3c-5.1-3.8-11.9-8.3-18.3-8.6c-6.4-0.3-30.2,0-30.2,0L78.2,179.7z"
		/>
	<path class="st3" d="M78.2,179.7c0,0,4.6,0.5,6.9,0s4.3-3.2,7.6-3c3.3,0.1,7.3,1.2,8.3,0s4.8-6.9,7.4-4.3s6.8,6.8,15.4,7.3
		c8.6,0.5,15.2-2.5,18.5-3c3.3-0.5,4.3,7.5,8.9,7.3c4.6-0.1,8.9,0.1,10.2,2.8c1.3,2.6,4,2.3,7.6,1.5c3.6-0.8,3.3-3.8,16.2,1.8
		c12.9,5.6,23,8.1,23,8.1s0.4,1.5,0.4,3.7c0,2.1-3,2.6-4.1,4.6s2.1,10.6-0.1,12.8s-2.6,2.6-2.7,9.3c-0.2,6.8-4.6,5.1-10.9,4
		c-6.3-1.2-15.7-1.3-21.6,2.6c-5.9,4-4.1,12.6-14,16.5c-9.9,4-10.4,7.8-15.2,10.7c-4.8,3-9.7,1.7-15.6,2.6c-5.9,1,0,11.1-1.1,14
		c-1.1,2.9-7.4,5.6-9.6,7.9c-2.1,2.3-6.8,4.1-8.8,6.3s3.6,7.6,3.1,11.4c-0.5,3.8,2,6.4,5.3,10.4c3.3,4,1.8,5.8,0.5,10.9
		c-1.3,5.1,0,5.9,3.6,5.3c3.6-0.7,5.3-2.6,6.6-4.6c1.3-2,3.1,0,8.9,0.3c5.8,0.3,4,0.7,6.1,2.5c2.1,1.8,4.5-1,8.6,0s9.2,3.2,10.1,9.1
		c0.9,5.9,7.8,2.8,11.1,4c3.3,1.2,5.9,0,11.4-1.2c5.4-1.2,8.6,4.1,8.9,7.6s-1.7,9.5-3.3,13.4c-1.6,3.9-15.9,13.5-21,17.2
		c-5.1,3.6-5.4,6.9-10.5,8.3c-5,1.4-4.2,4.2-6.9,6.7c-2.6,2.5-6.1,1-9.1,3.6c-3,2.6,2.8,8.6,2.3,12.9c-0.5,4.3-3.6,6.8-7.4,10.1
		c-3.8,3.3-1.8,4.8,0,6.6c1.8,1.8,8.3,8.9,11.7,12.4c3.5,3.5,7.4-0.3,11.2-2.1c3.8-1.8,6.9-5.1,6.9-5.1h18c0,0,1.3,3.5,1.5,7.6
		c0.2,4.1-1.5,7.4-1.5,11.1c0,3.6,0,4.5-1.7,6.1s-1.2,1.2-6.6,5.6c-5.4,4.5-4,7.3-7.4,10.4s-4,7.9-5.4,14.5s3.1,12.9,4.5,20.3
		c1.3,7.4,6.6,8.3,16.5,8.1c9.9-0.2,13,6.9,17.3,11.1c4.2,4.2,9.5,9.5,15.1,10.3c5.6,0.8,11.6,3.6,15.2,8.6c3.6,5,10.1,16,13,24.6
		s7.2,9.7,14.4,12.6s4.5,8.8,0.2,12.6c-4.3,3.8-6.8,10.6-11.9,14.4c-5.1,3.8-12.7,5-17.2,3c-4.5-2-9.4-5.1-13.9-6.9
		c-2.3-1-6.5-1.1-10.1-1c0,0-0.9-6.7,5.9-6c6.8,0.7,11.9,5.7,13.9,4.6c2-1.1,3.2-2.3,4.3-3.4c1.1-1.1,0.6-1.9-2.1-2.1
		c-2.6-0.2-5.1-3.5-5.3-5.9c-0.2-2.4-2.6-3.1-4.8-4c-2.2-0.9-4.8-4.2-2.2-5.5s6.2-7.7-1.5-15.6s-9-5.3-12.1-10.3
		c-3.1-5.1-15.2-20.7-22.2-24.9c-7-4.2-12.1-3.1-15.7-7c-3.7-4-6.9-4-8.6-4c-1.7,0-1.2-5.9-3.6-5.1c-2.4,0.9,0.2,2.9-0.4,5.3
		s-0.8,0.4-3.5,5.3c-2.7,4.9-4,8.4-1.6,11.9c2.4,3.5,5.1,3.7,6.4,5.3c1.3,1.6,1.5,3.3-1.5,3.8s-4.8,2.6-10.1,5.5s-9.2,1.3-13.2,4.8
		c-4,3.5-7.6,7.2-9.6,9.1s-3-1.9-8.5-0.3c-5.5,1.5-9.6,0.3-5.5-1.1c4.1-1.4,8.1-1.3,11.4-3.1c3.3-1.8,3.9-2.3,7.1-5.5
		c3.2-3.2,2.6-6.8-2.6-7.3s-8.1-4-12.1-2.2s-3.4,2.3-6.5-0.8c-3.1-3.1-0.1-6.3-5.7-5.7c-5.6,0.6-4.7-0.6-11.1-3.2
		c0,0-8.6,0.3-12-2.7c-3.4-3-5.5-5.1-10.2-3c-4.7,2.1-6,6.8-11.1,3c-5.1-3.8-11.9-8.3-18.3-8.6c-6.4-0.3-25.5-0.1-25.5-0.1"/>
</g>
<g id="Flüsse">
	<path class="st0" d="M212.7,242.6c0,0,0.2,4.3,2.2,10.2c2,5.9,1.8,6.1-3.8,11.7c-5.6,5.6-7.1,9.1-11.4,9.7
		c-4.3,0.7-7.9-0.8-11.6,2.1c-3.6,2.9-15.5,1.2-18.8,2.5c-3.3,1.3-4.7,4.3-8.1,4.6c-3.4,0.3-4.8-0.3-8.6,0c-3.8,0.3-2.4,4-7.4,4
		s-11.6,5.3-5,7.9c6.6,2.6,11.8,2.6,16.6,5.3c4.8,2.6,6.8,4,8.5,10.2c1.7,6.3,7,15.9,11.2,19.5c4.3,3.6,7.6,3.6,10.2,3.6
		s7.6-2,11.2,3c3.6,5,2.6,8.9,9.2,10.6c6.6,1.7,8.6,3,8.7,7.6c0.1,1.5-0.3,2.7-1,3.7c-1.3,2-3.7,3.2-5.5,4.6c-2.6,2-6.5,8.6-10,11.7
		c-3.5,3.1-11,3.3-14.4,6.2c-3.4,2.9-2.5,8.5-4.3,11.9c-1.8,3.3-3.8,5.9-9,10s-7.5,7.4-4,12.2c3.5,4.8,13.3,11.9,13.3,17.4
		s1.4,7.7-3,11.9c-4.4,4.2-9.9,4.4-10.6,9c-0.7,4.6-3.7,10.6-9,13c-5.3,2.4-20.9,5.3-28.6,13.2c-7.7,7.9-12.8,10.1-14.5,18.5
		c-1.8,8.4-1.5,22.5,5.5,25.8s11.6,1.4,14.1,7.1c2.5,5.7,1.3,10.7,6.2,12.9c4.8,2.2,9.5,2.2,9.5,2.2"/>
	<path class="st0" d="M268.5,426.4c0,0,1.7,1.7,5,4c3.3,2.3,5.9,8.8,8.1,11.5c2.1,2.7,5.3,1.6,6.3,0c1-1.6,3.5-1.6,5.4-0.3
		c2,1.3,3.1-2.5,5-7.9c1.8-5.4,1.3-8.8-0.5-12.9c-1.8-4.1,1.8-4.3,0-7.3c-1.8-3,0-7.8-1.8-12.9c-1.8-5.1-10.6-7.3-15.2-11.9
		c-4.6-4.6-5.9-5.9-10.7-10.7c-4.8-4.8-6.9,0-8.6,4c-1.7,4-2.5,5.1-6.9,3.2c-4.5-1.9-5.1-2.1-9.2-0.6s-6.4,0-9.4-3.8
		s-3.9-5-8.5-11.2l-12.3-10.7"/>
	<path class="st0" d="M224.7,212.8c0,0,5.1-0.7,13,1.4c7.9,2.1,10.3,2.7,17.2,3.6s13.7,4.6,18.1,6.2c4.4,1.5,8.3,0.4,11.6,2.4
		c3.3,2,4.6,4.2,12.8,5.7c8.1,1.5,12.1,6.6,20,10.3c7.9,3.7,9.5,4.6,11.7,5.7c2.2,1.1-1.1,2.9,1.1,9c2.2,6.2,4.4,9.9,5.9,13.4
		s5.1,8.6,9,11.1c4,2.5,4-0.1,9.5,2.5c5.5,2.6,6.1,3.2,8.9,6.1c2.9,2.9,5.6,5.6,7.5,7.5s0.1,3.4,1.9,6.3c1.8,2.9,4.4,2.9,8.1,5.5
		c3.7,2.6,6.4,3.7,11.7,8.6s11.1,8.7,12.6,12.1c1.5,3.5,0.6,5.5,2.8,8.1c2.2,2.6-0.2,4,2.2,8.4c2.4,4.4,2.4,4.6,2.4,8.4
		c0,3.7-0.7,4.8,3.7,8.8s4.6,5.9,7.7,9.2c3.1,3.3,3.7,3.3,9.5,3.3c5.7,0,11.4-0.2,13.4,5.1s7.3,12.7,17.4,11.4
		c10.1-1.3,13,0.7,18.5,2.2s10.8-0.9,15-3.3c4.2-2.4,5.9-2,12.8-1.1c6.8,0.9,5.9,0.2,12.3-1.5c6.4-1.8,4.6-7.3,13-3.3
		c8.4,4,10.1,7.4,8.4,9.7c-1.8,2.4-2.2,12.2,5.3,7.3s11.7-12.4,17.8-12.9s10.6,1.1,17.2-4c6.6-5.1,7-7,15-7s7.7-1.8,11.1-3.2
		c3.4-1.4,5.6-0.6,8.3,1.2c2.6,1.8,8.1-1.3,12.6,1.8c4.4,3.1,7.7,5.9,14.5,9.5c6.8,3.5,6.8,6.4,6.8,8.6c0,2.2,3.5,3.7,4.8,6
		s0.9,6.1,5.3,6.3c4.4,0.2,3.3,1.5,4.4,3.1c1.1,1.5,3.5-0.4,7-1.8c3.5-1.3,3.3-0.4,5.1,4c1.8,4.4,4.4,10.3,21.6,15.4
		c17.2,5.1,17.8,5.5,28,4.8c10.1-0.7,12.8-0.2,14.5,5.3c1.8,5.5,1.3,12.3,5.3,15c4,2.6,6.8,3.1,12.3,6.4c5.5,3.3,5.9,3.7,10.3,8.1
		s5.1,5.5,5.1,5.5s7.9-2.2,12.3,1.3c4.4,3.5,3.5,6.6,9.7,7c6.2,0.4,10.1,1.5,12.9,7.2c2.8,5.6,7.6,4.1,14.9,6.3
		c7.3,2.2,7.9,0.4,14.8,3.5"/>
	<path class="st0" d="M339.5,276.4c0,0-11.7,0-14.8,0c-3.1,0-7-3.9-8.8-2.1c-1.8,1.8-3.7,3.3-4,9.7c-0.2,6.4,0.7,10.8-3.5,12.3
		c-4.2,1.5-6.6,2.2-7.3,4.6c-0.7,2.4-1.5,3.7-5.3,2.6c-3.7-1.1-4.2-3.3-8.1-1.1c-4,2.2-5.7,2.6-9.7,4s-7.8-1.2-11.7,0
		c-3.9,1.2-4.6,1.8-6.3,0.4s-2.8-2.5-2.8-2.5"/>
	<path class="st5" d="M249.9,301.1c-5.4-0.2-11.4,2.6-4.8,2.6c6.6,0,9.5,0.2,10.6,0.7c1.1,0.4,3.1,1.3,3.1,1.3s1.8-0.6,0-2.3
		C256.9,301.7,249.9,301.1,249.9,301.1z"/>
	<path class="st0" d="M346,422.6c4.3,2.3,7.9,10.6,11.6,9.6c3.6-1,9.9,1,13.5,2.6c3.6,1.7,17.4,8.8,25.6,8.7
		c8.1-0.1,8.5-1.7,15.1-3.4c6.6-1.7,7.3-3.5,12.9-7.1c5.6-3.5,11.6-9.8,14.9-10.4c3.3-0.7,1.3,0.5,4.9-6.2c3.6-6.7,6-8.9,13.9-8.9
		c7.9,0,8.3,3.1,20.1,0c11.9-3.1,8.9-2.3,10.6-6.3c1.7-4,4.5-6.9,4.5-6.9"/>
</g>
<g id="Text">
	<circle cx="389.5" cy="157.4" r="4.3"/>
	<circle class="st6" cx="323.5" cy="263.5" r="4.3"/>
	<circle class="st6" cx="236.6" cy="301.1" r="4.3"/>
	<circle class="st6" cx="217" cy="210" r="4.3"/>
	<circle class="st6" cx="180.9" cy="272.1" r="4.3"/>
	<circle class="st6" cx="401" cy="324" r="4.3"/>
	<circle class="st6" cx="185.4" cy="447.3" r="4.3"/>
	<circle class="st6" cx="222.7" cy="354.6" r="4.3"/>
	<circle class="st6" cx="794.8" cy="184" r="4.3"/>
	<circle class="st6" cx="448.7" cy="407.5" r="4.3"/>
	<circle class="st6" cx="356.9" cy="531.3" r="4.3"/>
	<circle class="st6" cx="156.9" cy="637.1" r="4.3"/>
	<circle class="st6" cx="203.1" cy="630.1" r="4.3"/>
	<g>
		<path d="M309.8,141.7v4.6h0l2.9-4.6h2.5l-3.1,4.9l3.5,6.5H313l-2.4-4.7l-0.8,1.3v3.4h-2.3v-11.4H309.8z"/>
		<path d="M316.7,141.7h2.2v11.4h-2.2V141.7z"/>
		<path d="M321.1,147.2V147c0-2,1.4-2.7,3-2.7c2.6,0,3.1,1.1,3.1,2.6v4.5c0,0.8,0,1.2,0.3,1.7h-2.1c-0.1-0.3-0.2-0.6-0.3-0.9h0
			c-0.5,0.9-1.1,1.1-2.2,1.1c-1.5,0-2.1-1.3-2.1-2.5c0-1.6,0.7-2.3,2.2-2.7l1.2-0.3c0.7-0.2,0.9-0.4,0.9-1c0-0.7-0.3-1.1-1-1.1
			c-0.7,0-1,0.4-1,1.1v0.2H321.1z M325.1,148.8c-0.3,0.2-0.7,0.4-0.9,0.4c-0.9,0.2-1.2,0.6-1.2,1.4c0,0.7,0.2,1.2,0.8,1.2
			s1.4-0.4,1.4-1.3V148.8z"/>
		<path d="M335.9,144.5v8.2c0,2.3-1,3.4-3.6,3.4c-1.9,0-2.9-0.8-2.9-2.3h2.1c0,0.3,0.1,0.5,0.3,0.7c0.2,0.1,0.5,0.2,0.7,0.2
			c0.9,0,1.2-0.7,1.2-1.6V152h0c-0.4,0.6-1.1,1.1-1.8,1.1c-1.8,0-2.6-1.2-2.6-4.4c0-2,0.3-4.4,2.7-4.4c0.6,0,1.4,0.3,1.8,1.2h0v-1
			H335.9z M332.6,151.4c0.9,0,1.2-1,1.2-2.5c0-2.1-0.3-2.9-1.2-2.9c-1,0-1.2,0.8-1.2,3.1C331.5,150.3,331.7,151.4,332.6,151.4z"/>
		<path d="M340,149.2v0.7c0,1,0.3,2,1.1,2c0.7,0,1-0.6,1.2-1.6h2c-0.1,2-1,3.1-3.1,3.1c-3.2,0-3.3-2.5-3.3-4.6
			c0-2.3,0.4-4.4,3.4-4.4c2.6,0,3.2,1.7,3.2,4.4v0.5H340z M342.2,147.9c0-1.3-0.2-2-1.1-2c-0.9,0-1.1,0.9-1.1,1.7v0.3H342.2z"/>
		<path d="M346.1,144.5h2.1v1h0c0.5-0.8,1.3-1.2,2.2-1.2c1.4,0,2.2,0.8,2.2,2.4v6.4h-2.2v-5.9c0-0.9-0.3-1.2-0.9-1.2
			c-0.8,0-1.2,0.5-1.2,1.4v5.7h-2.2V144.5z"/>
		<path d="M355.3,146h-1.1v-1.5h1.1v-1c0-1.6,0.9-2.1,2.3-2.1c0.4,0,0.8,0,1.2,0v1.6c-0.1,0-0.3,0-0.4,0c-0.6,0-0.8,0.2-0.8,0.7v0.8
			h1.3v1.5h-1.3v7.1h-2.2V146z"/>
		<path d="M364.6,152.1L364.6,152.1c-0.5,0.8-1.3,1.2-2.2,1.2c-1.4,0-2.2-0.8-2.2-2.4v-6.4h2.2v5.9c0,0.9,0.3,1.2,0.9,1.2
			c0.8,0,1.2-0.5,1.2-1.4v-5.7h2.2v8.6h-2.1V152.1z"/>
		<path d="M368.8,144.5h2.1v1.2h0c0.4-0.8,1.1-1.4,2-1.4c0.1,0,0.3,0,0.4,0v2.1c-0.2,0-0.5,0-0.7,0c-0.8,0-1.6,0.4-1.6,1.6v5.2h-2.2
			V144.5z"/>
		<path d="M375.2,142.1h2.2v2.5h1.3v1.5h-1.3v4.7c0,0.7,0.1,0.9,0.8,0.9c0.2,0,0.4,0,0.5,0v1.5c-0.5,0-0.9,0.1-1.4,0.1
			c-1.7,0-2-0.5-2-2.3V146h-1.1v-1.5h1.1V142.1z"/>
	</g>
	<g>
		<path class="st7" d="M286.9,247.7h3.9c1.9,0,3.2,0.7,3.2,2.9c0,1.2-0.6,2.2-1.7,2.5v0c1.3,0.2,2.1,1.1,2.1,2.7
			c0,1.8-0.9,3.3-3.6,3.3h-3.9V247.7z M289.2,252.4h0.7c1.3,0,1.8-0.4,1.8-1.5c0-1.1-0.5-1.5-1.7-1.5h-0.8V252.4z M289.2,257.5h0.9
			c1.1,0,1.9-0.4,1.9-1.7s-0.8-1.7-1.8-1.7h-1V257.5z"/>
		<path class="st7" d="M296.4,247.7h2.2v11.4h-2.2V247.7z"/>
		<path class="st7" d="M302.7,255.2v0.7c0,1,0.3,2,1.1,2c0.7,0,1-0.6,1.2-1.6h2c-0.1,2-1,3.1-3.1,3.1c-3.2,0-3.3-2.5-3.3-4.6
			c0-2.3,0.4-4.4,3.4-4.4c2.6,0,3.2,1.7,3.2,4.4v0.5H302.7z M305,253.9c0-1.3-0.2-2-1.1-2c-0.9,0-1.1,0.9-1.1,1.7v0.3H305z"/>
		<path class="st7" d="M313.3,258.3L313.3,258.3c-0.5,0.8-1.1,1.1-2,1.1c-1.8,0-2.6-1.3-2.6-4.5s0.8-4.5,2.6-4.5
			c0.8,0,1.4,0.3,1.9,1h0v-3.6h2.2v11.4h-2.1V258.3z M312,257.7c1,0,1.2-1,1.2-2.8c0-1.9-0.2-2.8-1.2-2.8c-1,0-1.2,1-1.2,2.8
			C310.9,256.7,311.1,257.7,312,257.7z"/>
	</g>
	<g>
		<path class="st7" d="M200.1,282.3v8c0,1.1,0.3,2,1.3,2s1.3-0.8,1.3-2v-8h2.3v8c0,2.9-1.8,3.7-3.6,3.7c-1.9,0-3.6-0.6-3.6-3.7v-8
			H200.1z"/>
		<path class="st7" d="M209.4,282.3v6h0l2.2-3.2h2.4l-2.5,3.4l2.8,5.2h-2.4l-1.8-3.5l-0.8,1v2.5h-2.2v-11.4H209.4z"/>
		<path class="st7" d="M215.8,287.8v-0.2c0-2,1.4-2.7,3-2.7c2.6,0,3.1,1.1,3.1,2.6v4.5c0,0.8,0,1.2,0.3,1.7h-2.1
			c-0.1-0.3-0.2-0.6-0.3-0.9h0c-0.5,0.9-1.1,1.1-2.2,1.1c-1.5,0-2.1-1.3-2.1-2.5c0-1.6,0.7-2.3,2.2-2.7l1.2-0.3
			c0.7-0.2,0.9-0.4,0.9-1c0-0.7-0.3-1.1-1-1.1c-0.7,0-1,0.4-1,1.1v0.2H215.8z M219.8,289.5c-0.3,0.2-0.7,0.4-0.9,0.4
			c-0.9,0.2-1.2,0.6-1.2,1.4c0,0.7,0.2,1.2,0.8,1.2s1.4-0.4,1.4-1.3V289.5z"/>
		<path class="st7" d="M224.1,285.1h2.1v1h0c0.5-0.8,1.3-1.2,2.2-1.2c1.4,0,2.2,0.8,2.2,2.4v6.4h-2.2v-5.9c0-0.9-0.3-1.2-0.9-1.2
			c-0.8,0-1.2,0.5-1.2,1.4v5.7h-2.2V285.1z"/>
		<path class="st7" d="M236.9,288.3c0-0.8-0.2-1.7-1-1.7c-1.1,0-1.3,1-1.3,2.9c0,2.1,0.2,3,1.2,3c0.7,0,1.1-0.6,1.1-2h2.1
			c0,2.3-0.9,3.5-3.3,3.5c-2.2,0-3.3-1.1-3.3-4.5c0-3.5,1.5-4.5,3.5-4.5c2,0,3.1,1.3,3.1,3.3H236.9z"/>
	</g>
	<g>
		<path class="st7" d="M109.7,198.5v4.6h0l2.9-4.6h2.5l-3.1,4.9l3.5,6.5h-2.6l-2.4-4.7l-0.8,1.3v3.4h-2.3v-11.4H109.7z"/>
		<path class="st7" d="M116.6,201.4h2.1v1.2h0c0.4-0.8,1.1-1.4,2-1.4c0.1,0,0.3,0,0.4,0v2.1c-0.2,0-0.5,0-0.7,0
			c-0.8,0-1.6,0.4-1.6,1.6v5.2h-2.2V201.4z"/>
		<path class="st7" d="M122.6,204v-0.2c0-2,1.4-2.7,3-2.7c2.6,0,3.1,1.1,3.1,2.6v4.5c0,0.8,0,1.2,0.3,1.7h-2.1
			c-0.1-0.3-0.2-0.6-0.3-0.9h0c-0.5,0.9-1.1,1.1-2.2,1.1c-1.5,0-2.1-1.3-2.1-2.5c0-1.6,0.7-2.3,2.2-2.7l1.2-0.3
			c0.7-0.2,0.9-0.4,0.9-1c0-0.7-0.3-1.1-1-1.1c-0.7,0-1,0.4-1,1.1v0.2H122.6z M126.6,205.7c-0.3,0.2-0.7,0.4-0.9,0.4
			c-0.9,0.2-1.2,0.6-1.2,1.4c0,0.7,0.2,1.2,0.8,1.2s1.4-0.4,1.4-1.3V205.7z"/>
		<path class="st7" d="M130.9,201.4h2.1v1h0c0.5-0.8,1.3-1.2,2.2-1.2c1.4,0,2.2,0.8,2.2,2.4v6.4h-2.2V204c0-0.9-0.3-1.2-0.9-1.2
			c-0.8,0-1.2,0.5-1.2,1.4v5.7h-2.2V201.4z"/>
		<path class="st7" d="M139.6,201.4h2.2v9.2c0,1.4-0.5,2.2-2.5,2.2c-0.3,0-0.6,0-0.9,0v-1.6c0.1,0,0.2,0,0.4,0
			c0.8,0,0.9-0.4,0.9-1.4V201.4z M139.6,198.4h2.2v1.9h-2.2V198.4z"/>
		<path class="st7" d="M145.6,207.2v0.3c0,0.8,0.4,1.2,1.2,1.2c0.7,0,1.1-0.3,1.1-1c0-0.6-0.4-0.8-0.8-1l-1.6-0.6
			c-1.2-0.4-1.8-1.2-1.8-2.4c0-1.4,0.9-2.6,3.2-2.6c2,0,2.9,0.9,2.9,2.4v0.4h-2c0-0.9-0.3-1.3-1-1.3c-0.6,0-1,0.3-1,0.9
			c0,0.4,0.2,0.8,1,1l1.3,0.4c1.4,0.5,1.9,1.2,1.9,2.5c0,1.8-1.3,2.7-3.2,2.7c-2.5,0-3.2-1.1-3.2-2.7v-0.3H145.6z"/>
		<path class="st7" d="M154.1,198.5v6h0l2.2-3.2h2.4l-2.5,3.4l2.8,5.2h-2.4l-1.8-3.5l-0.8,1v2.5h-2.2v-11.4H154.1z"/>
		<path class="st7" d="M160.4,204v-0.2c0-2,1.4-2.7,3-2.7c2.6,0,3.1,1.1,3.1,2.6v4.5c0,0.8,0,1.2,0.3,1.7h-2.1
			c-0.1-0.3-0.2-0.6-0.3-0.9h0c-0.5,0.9-1.1,1.1-2.2,1.1c-1.5,0-2.1-1.3-2.1-2.5c0-1.6,0.7-2.3,2.2-2.7l1.2-0.3
			c0.7-0.2,0.9-0.4,0.9-1c0-0.7-0.3-1.1-1-1.1c-0.7,0-1,0.4-1,1.1v0.2H160.4z M164.4,205.7c-0.3,0.2-0.7,0.4-0.9,0.4
			c-0.9,0.2-1.2,0.6-1.2,1.4c0,0.7,0.2,1.2,0.8,1.2s1.4-0.4,1.4-1.3V205.7z"/>
		<path class="st7" d="M178.4,201.9c0-0.8-0.4-1.9-1.3-1.9c-1.1,0-1.6,1.2-1.6,4c0,2.8,0.3,4.5,1.6,4.5c0.5,0,1.4-0.6,1.4-1.8v-1.2
			H177v-1.7h3.7v6.2H179v-1.1h0c-0.5,0.9-1.3,1.3-2.4,1.3c-2.8,0-3.4-2.1-3.4-6.1c0-3.8,0.9-5.8,3.8-5.8c2.5,0,3.6,1.3,3.6,3.6
			H178.4z"/>
		<path class="st7" d="M185.9,201.1c2.7,0,3.4,1.5,3.4,4.5c0,2.9-0.9,4.5-3.4,4.5c-2.7,0-3.4-1.5-3.4-4.5
			C182.5,202.7,183.3,201.1,185.9,201.1z M185.9,208.7c0.9,0,1.2-0.9,1.2-3s-0.3-3-1.2-3c-1.1,0-1.2,1.3-1.2,3
			S184.8,208.7,185.9,208.7z"/>
		<path class="st7" d="M191.1,201.4h2.1v1.2h0c0.4-0.8,1.1-1.4,2-1.4c0.1,0,0.3,0,0.4,0v2.1c-0.2,0-0.5,0-0.7,0
			c-0.8,0-1.6,0.4-1.6,1.6v5.2h-2.2V201.4z"/>
		<path class="st7" d="M197,204v-0.2c0-2,1.4-2.7,3-2.7c2.6,0,3.1,1.1,3.1,2.6v4.5c0,0.8,0,1.2,0.3,1.7h-2.1
			c-0.1-0.3-0.2-0.6-0.3-0.9h0c-0.5,0.9-1.1,1.1-2.2,1.1c-1.5,0-2.1-1.3-2.1-2.5c0-1.6,0.7-2.3,2.2-2.7l1.2-0.3
			c0.7-0.2,0.9-0.4,0.9-1c0-0.7-0.3-1.1-1-1.1c-0.7,0-1,0.4-1,1.1v0.2H197z M201.1,205.7c-0.3,0.2-0.7,0.4-0.9,0.4
			c-0.9,0.2-1.2,0.6-1.2,1.4c0,0.7,0.2,1.2,0.8,1.2s1.4-0.4,1.4-1.3V205.7z"/>
	</g>
	<g>
		<path class="st8" d="M224.6,311.2h2.9c1.4,0,2.4,0.5,2.4,2.2c0,0.9-0.4,1.6-1.3,1.9v0c0.9,0.1,1.6,0.9,1.6,2
			c0,1.3-0.7,2.5-2.7,2.5h-2.9V311.2z M226.3,314.7h0.5c0.9,0,1.4-0.3,1.4-1.1c0-0.8-0.4-1.1-1.2-1.1h-0.6V314.7z M226.3,318.5h0.7
			c0.8,0,1.4-0.3,1.4-1.3c0-1-0.6-1.3-1.3-1.3h-0.7V318.5z"/>
		<path class="st8" d="M234,313.1c2,0,2.5,1.2,2.5,3.4c0,2.2-0.6,3.4-2.5,3.4c-2,0-2.5-1.2-2.5-3.4
			C231.4,314.3,232.1,313.1,234,313.1z M234,318.8c0.7,0,0.9-0.7,0.9-2.3c0-1.6-0.2-2.3-0.9-2.3c-0.8,0-0.9,0.9-0.9,2.3
			S233.2,318.8,234,318.8z"/>
		<path class="st8" d="M237.9,311.2h1.7v2.8h0c0.3-0.6,0.9-0.8,1.6-0.8c1,0,1.6,0.6,1.6,1.8v4.8h-1.7v-4.4c0-0.6-0.2-0.9-0.7-0.9
			c-0.6,0-0.9,0.3-0.9,1.1v4.3h-1.7V311.2z"/>
		<path class="st8" d="M244.4,311.1h1.7v1.4h-1.7V311.1z M244.4,313.3h1.7v6.5h-1.7V313.3z"/>
		<path class="st8" d="M247.7,313.3h1.6v0.8h0c0.3-0.6,0.9-0.9,1.6-0.9c1,0,1.6,0.6,1.6,1.8v4.8H251v-4.4c0-0.6-0.2-0.9-0.7-0.9
			c-0.6,0-0.9,0.3-0.9,1.1v4.3h-1.7V313.3z"/>
		<path class="st8" d="M254.3,313.3h1.7v6.9c0,1.1-0.4,1.7-1.9,1.7c-0.2,0-0.4,0-0.7,0v-1.2c0.1,0,0.2,0,0.3,0c0.6,0,0.6-0.3,0.6-1
			V313.3z M254.3,311.1h1.7v1.4h-1.7V311.1z"/>
		<path class="st8" d="M258.8,317.6v0.2c0,0.6,0.3,0.9,0.9,0.9c0.5,0,0.8-0.3,0.8-0.8c0-0.4-0.3-0.6-0.6-0.7l-1.2-0.4
			c-0.9-0.3-1.4-0.9-1.4-1.8c0-1.1,0.7-1.9,2.4-1.9c1.5,0,2.2,0.7,2.2,1.8v0.3h-1.5c0-0.6-0.2-1-0.7-1c-0.4,0-0.8,0.2-0.8,0.7
			c0,0.3,0.2,0.6,0.7,0.8l1,0.3c1,0.3,1.4,0.9,1.4,1.8c0,1.4-1,2-2.4,2c-1.9,0-2.4-0.8-2.4-2.1v-0.2H258.8z"/>
		<path class="st8" d="M265.1,311.2v4.5h0l1.7-2.4h1.8l-1.9,2.5l2.1,3.9h-1.8l-1.4-2.7l-0.6,0.8v1.9h-1.7v-8.6H265.1z"/>
		<path class="st8" d="M272.2,313.1c2,0,2.5,1.2,2.5,3.4c0,2.2-0.6,3.4-2.5,3.4c-2,0-2.5-1.2-2.5-3.4
			C269.6,314.3,270.3,313.1,272.2,313.1z M272.2,318.8c0.7,0,0.9-0.7,0.9-2.3c0-1.6-0.2-2.3-0.9-2.3c-0.8,0-0.9,0.9-0.9,2.3
			S271.4,318.8,272.2,318.8z"/>
		<path class="st8" d="M234.5,325.3h1.7v6.9c0,1.1-0.4,1.7-1.9,1.7c-0.2,0-0.4,0-0.7,0v-1.2c0.1,0,0.2,0,0.3,0c0.6,0,0.6-0.3,0.6-1
			V325.3z M234.5,323.1h1.7v1.4h-1.7V323.1z"/>
		<path class="st8" d="M239.2,328.8v0.5c0,0.8,0.2,1.5,0.8,1.5c0.6,0,0.8-0.4,0.9-1.2h1.5c-0.1,1.5-0.8,2.3-2.3,2.3
			c-2.4,0-2.5-1.8-2.5-3.5c0-1.7,0.3-3.3,2.6-3.3c1.9,0,2.4,1.3,2.4,3.3v0.4H239.2z M240.9,327.8c0-1-0.2-1.5-0.8-1.5
			c-0.7,0-0.9,0.7-0.9,1.3v0.3H240.9z"/>
		<path class="st8" d="M243.6,330.5l2.6-3.8h-2.5v-1.3h4.4v1.3l-2.6,3.8h2.6v1.3h-4.5V330.5z"/>
		<path class="st8" d="M250.8,328.8v0.5c0,0.8,0.2,1.5,0.8,1.5c0.6,0,0.8-0.4,0.9-1.2h1.5c-0.1,1.5-0.8,2.3-2.3,2.3
			c-2.4,0-2.5-1.8-2.5-3.5c0-1.7,0.3-3.3,2.6-3.3c1.9,0,2.4,1.3,2.4,3.3v0.4H250.8z M252.5,327.8c0-1-0.2-1.5-0.8-1.5
			c-0.7,0-0.9,0.7-0.9,1.3v0.3H252.5z"/>
		<path class="st8" d="M255.5,325.3h1.6v0.9h0c0.3-0.6,0.8-1,1.5-1c0.1,0,0.2,0,0.3,0v1.6c-0.2,0-0.3,0-0.5,0
			c-0.6,0-1.2,0.3-1.2,1.2v3.9h-1.7V325.3z"/>
		<path class="st8" d="M262.3,325.1c2,0,2.5,1.2,2.5,3.4c0,2.2-0.6,3.4-2.5,3.4c-2,0-2.5-1.2-2.5-3.4
			C259.7,326.3,260.4,325.1,262.3,325.1z M262.3,330.8c0.7,0,0.9-0.7,0.9-2.3c0-1.6-0.2-2.3-0.9-2.3c-0.8,0-0.9,0.9-0.9,2.3
			S261.4,330.8,262.3,330.8z"/>
	</g>
	<g>
		<path class="st8" d="M134.8,310v0.3c0,0.8,0.2,1.3,1.1,1.3c0.5,0,1-0.3,1-1.1c0-0.8-0.4-1.1-1.5-1.5c-1.5-0.5-2.2-1.2-2.2-2.6
			c0-1.7,1-2.5,2.7-2.5c1.5,0,2.7,0.7,2.7,2.3v0.2h-1.7c0-0.8-0.3-1.3-0.9-1.3c-0.8,0-1,0.5-1,1c0,0.5,0.2,0.9,0.9,1.2l1.3,0.6
			c1.3,0.6,1.6,1.2,1.6,2.3c0,1.8-1.1,2.6-3,2.6c-2,0-2.7-0.9-2.7-2.5V310H134.8z"/>
		<path class="st8" d="M142.4,306c2,0,2.5,1.2,2.5,3.4c0,2.2-0.6,3.4-2.5,3.4c-2,0-2.5-1.2-2.5-3.4C139.9,307.2,140.5,306,142.4,306
			z M142.4,311.7c0.7,0,0.9-0.7,0.9-2.3c0-1.6-0.2-2.3-0.9-2.3c-0.8,0-0.9,0.9-0.9,2.3S141.6,311.7,142.4,311.7z"/>
		<path class="st8" d="M149.5,308.5c0-0.6-0.1-1.3-0.7-1.3c-0.8,0-0.9,0.7-0.9,2.2c0,1.6,0.1,2.3,0.9,2.3c0.6,0,0.8-0.5,0.8-1.5h1.6
			c0,1.7-0.7,2.6-2.5,2.6c-1.7,0-2.5-0.8-2.5-3.4c0-2.7,1.1-3.4,2.6-3.4c1.5,0,2.3,1,2.3,2.5H149.5z"/>
		<path class="st8" d="M152.4,308.2V308c0-1.5,1-2,2.3-2c2,0,2.3,0.8,2.3,2v3.4c0,0.6,0,0.9,0.2,1.2h-1.6c-0.1-0.2-0.2-0.5-0.2-0.7
			h0c-0.4,0.7-0.9,0.8-1.6,0.8c-1.2,0-1.6-1-1.6-1.8c0-1.2,0.5-1.7,1.6-2l0.9-0.3c0.5-0.1,0.7-0.3,0.7-0.8c0-0.5-0.2-0.8-0.8-0.8
			c-0.5,0-0.8,0.3-0.8,0.8v0.2H152.4z M155.4,309.4c-0.2,0.2-0.5,0.3-0.7,0.3c-0.7,0.1-0.9,0.5-0.9,1c0,0.5,0.2,0.9,0.6,0.9
			c0.4,0,1-0.3,1-1V309.4z"/>
	</g>
	<g>
		<path class="st8" d="M418.7,347.6v0.3c0,0.8,0.2,1.3,1.1,1.3c0.5,0,1-0.3,1-1.1c0-0.8-0.4-1.1-1.5-1.5c-1.5-0.5-2.2-1.2-2.2-2.6
			c0-1.7,1-2.5,2.7-2.5c1.5,0,2.7,0.7,2.7,2.3v0.2h-1.7c0-0.8-0.3-1.3-0.9-1.3c-0.8,0-1,0.5-1,1c0,0.5,0.2,0.9,0.9,1.2l1.3,0.6
			c1.3,0.6,1.6,1.2,1.6,2.3c0,1.8-1.1,2.6-3,2.6c-2,0-2.7-0.9-2.7-2.5v-0.3H418.7z"/>
		<path class="st8" d="M424,345.8v-0.2c0-1.5,1-2,2.3-2c2,0,2.3,0.8,2.3,2v3.4c0,0.6,0,0.9,0.2,1.2h-1.6c-0.1-0.2-0.2-0.5-0.2-0.7h0
			c-0.4,0.7-0.9,0.8-1.6,0.8c-1.2,0-1.6-1-1.6-1.8c0-1.2,0.5-1.7,1.6-2l0.9-0.3c0.5-0.1,0.7-0.3,0.7-0.8c0-0.5-0.2-0.8-0.8-0.8
			c-0.5,0-0.8,0.3-0.8,0.8v0.2H424z M427,347.1c-0.2,0.2-0.5,0.3-0.7,0.3c-0.7,0.1-0.9,0.5-0.9,1c0,0.5,0.2,0.9,0.6,0.9s1-0.3,1-1
			V347.1z"/>
		<path class="st8" d="M433.3,343.8h1.7l-1.6,6.5h-1.9l-1.7-6.5h1.7l0.9,4.6h0L433.3,343.8z"/>
		<path class="st8" d="M436,345.8v-0.2c0-1.5,1-2,2.3-2c2,0,2.3,0.8,2.3,2v3.4c0,0.6,0,0.9,0.2,1.2h-1.6c-0.1-0.2-0.2-0.5-0.2-0.7h0
			c-0.4,0.7-0.9,0.8-1.6,0.8c-1.2,0-1.6-1-1.6-1.8c0-1.2,0.5-1.7,1.6-2l0.9-0.3c0.5-0.1,0.7-0.3,0.7-0.8c0-0.5-0.2-0.8-0.8-0.8
			c-0.5,0-0.8,0.3-0.8,0.8v0.2H436z M439.1,347.1c-0.2,0.2-0.5,0.3-0.7,0.3c-0.7,0.1-0.9,0.5-0.9,1c0,0.5,0.2,0.9,0.6,0.9s1-0.3,1-1
			V347.1z"/>
	</g>
	<g>
		<path class="st8" d="M357.5,425.4v-8.6h1.7v7.1h3.1v1.4H357.5z"/>
		<path class="st8" d="M363.5,418.9h1.7v6.9c0,1.1-0.4,1.7-1.9,1.7c-0.2,0-0.4,0-0.7,0v-1.2c0.1,0,0.2,0,0.3,0c0.6,0,0.6-0.3,0.6-1
			V418.9z M363.5,416.7h1.7v1.4h-1.7V416.7z"/>
		<path class="st8" d="M370.1,424.6L370.1,424.6c-0.4,0.6-1,0.9-1.7,0.9c-1,0-1.6-0.6-1.6-1.8v-4.8h1.7v4.4c0,0.6,0.2,0.9,0.7,0.9
			c0.6,0,0.9-0.3,0.9-1.1v-4.3h1.7v6.5h-1.6V424.6z"/>
		<path class="st8" d="M373.3,416.8h1.7v2.7h0c0.3-0.5,0.8-0.8,1.4-0.8c1.4,0,2,1,2,3.4c0,2.4-0.6,3.4-2,3.4c-0.6,0-1.1-0.3-1.5-0.9
			h0v0.7h-1.6V416.8z M375.9,424.3c0.7,0,0.9-0.7,0.9-2.1s-0.1-2.1-0.9-2.1c-0.7,0-0.9,0.7-0.9,2.1S375.1,424.3,375.9,424.3z"/>
		<path class="st8" d="M379.9,416.8h1.7v8.6h-1.7V416.8z"/>
		<path class="st8" d="M383.2,418.9h1.7v6.9c0,1.1-0.4,1.7-1.9,1.7c-0.2,0-0.4,0-0.7,0v-1.2c0.1,0,0.2,0,0.3,0c0.6,0,0.6-0.3,0.6-1
			V418.9z M383.2,416.7h1.7v1.4h-1.7V416.7z"/>
		<path class="st8" d="M386.5,420.9v-0.2c0-1.5,1-2,2.3-2c2,0,2.3,0.8,2.3,2v3.4c0,0.6,0,0.9,0.2,1.2h-1.6c-0.1-0.2-0.2-0.5-0.2-0.7
			h0c-0.4,0.7-0.9,0.8-1.6,0.8c-1.2,0-1.6-1-1.6-1.8c0-1.2,0.5-1.7,1.6-2l0.9-0.3c0.5-0.1,0.7-0.3,0.7-0.8c0-0.5-0.2-0.8-0.8-0.8
			c-0.5,0-0.8,0.3-0.8,0.8v0.2H386.5z M389.5,422.2c-0.2,0.2-0.5,0.3-0.7,0.3c-0.7,0.1-0.9,0.5-0.9,1c0,0.5,0.2,0.9,0.6,0.9
			s1-0.3,1-1V422.2z"/>
		<path class="st8" d="M392.8,418.9h1.6v0.8h0c0.3-0.6,0.9-0.9,1.6-0.9c1,0,1.6,0.6,1.6,1.8v4.8H396v-4.4c0-0.6-0.2-0.9-0.7-0.9
			c-0.6,0-0.9,0.3-0.9,1.1v4.3h-1.7V418.9z"/>
		<path class="st8" d="M399.3,416.7h1.7v1.4h-1.7V416.7z M399.3,418.9h1.7v6.5h-1.7V418.9z"/>
		<path class="st8" d="M405.7,421.3c0-0.6-0.1-1.3-0.7-1.3c-0.8,0-0.9,0.7-0.9,2.2c0,1.6,0.1,2.3,0.9,2.3c0.6,0,0.8-0.5,0.8-1.5h1.6
			c0,1.7-0.7,2.6-2.5,2.6c-1.7,0-2.5-0.8-2.5-3.4c0-2.7,1.1-3.4,2.6-3.4c1.5,0,2.3,1,2.3,2.5H405.7z"/>
		<path class="st8" d="M408.6,420.9v-0.2c0-1.5,1-2,2.3-2c2,0,2.3,0.8,2.3,2v3.4c0,0.6,0,0.9,0.2,1.2h-1.6c-0.1-0.2-0.2-0.5-0.2-0.7
			h0c-0.4,0.7-0.9,0.8-1.6,0.8c-1.2,0-1.6-1-1.6-1.8c0-1.2,0.5-1.7,1.6-2l0.9-0.3c0.5-0.1,0.7-0.3,0.7-0.8c0-0.5-0.2-0.8-0.8-0.8
			c-0.5,0-0.8,0.3-0.8,0.8v0.2H408.6z M411.7,422.2c-0.2,0.2-0.5,0.3-0.7,0.3c-0.7,0.1-0.9,0.5-0.9,1c0,0.5,0.2,0.9,0.6,0.9
			s1-0.3,1-1V422.2z"/>
	</g>
	<g>
		<path class="st9" d="M242.3,263.5v1.4h-1.9v7.1h-1.7v-7.1h-1.9v-1.4H242.3z"/>
		<path class="st9" d="M243.4,265.6h1.6v0.9h0c0.3-0.6,0.8-1,1.5-1c0.1,0,0.2,0,0.3,0v1.6c-0.2,0-0.3,0-0.5,0
			c-0.6,0-1.2,0.3-1.2,1.2v3.9h-1.7V265.6z"/>
		<path class="st9" d="M248,263.4h1.7v1.4H248V263.4z M248,265.6h1.7v6.5H248V265.6z"/>
		<path class="st9" d="M256.1,265.6v6.1c0,1.7-0.8,2.5-2.7,2.5c-1.4,0-2.2-0.6-2.2-1.7h1.6c0,0.2,0.1,0.4,0.3,0.5
			c0.2,0.1,0.3,0.2,0.6,0.2c0.7,0,0.9-0.5,0.9-1.2v-0.9h0c-0.3,0.5-0.9,0.8-1.4,0.8c-1.3,0-2-0.9-2-3.3c0-1.5,0.2-3.3,2-3.3
			c0.5,0,1,0.2,1.3,0.9h0v-0.7H256.1z M253.6,270.7c0.7,0,0.9-0.8,0.9-1.8c0-1.6-0.2-2.2-0.9-2.2c-0.7,0-0.9,0.6-0.9,2.3
			C252.8,269.9,252.9,270.7,253.6,270.7z"/>
		<path class="st9" d="M257.8,263.5h1.7v8.6h-1.7V263.5z"/>
		<path class="st9" d="M261.1,267.6v-0.2c0-1.5,1-2,2.3-2c2,0,2.3,0.8,2.3,2v3.4c0,0.6,0,0.9,0.2,1.2h-1.6c-0.1-0.2-0.2-0.5-0.2-0.7
			h0c-0.4,0.7-0.9,0.8-1.6,0.8c-1.2,0-1.6-1-1.6-1.8c0-1.2,0.5-1.7,1.6-2l0.9-0.3c0.5-0.1,0.7-0.3,0.7-0.8c0-0.5-0.2-0.8-0.8-0.8
			c-0.5,0-0.8,0.3-0.8,0.8v0.2H261.1z M264.1,268.8c-0.2,0.2-0.5,0.3-0.7,0.3c-0.7,0.1-0.9,0.5-0.9,1c0,0.5,0.2,0.9,0.6,0.9
			s1-0.3,1-1V268.8z"/>
		<path class="st9" d="M270.4,265.6h1.7l-1.6,6.5h-1.9l-1.7-6.5h1.7l0.9,4.6h0L270.4,265.6z"/>
	</g>
	<g>
		<path class="st7" d="M137.9,256.3h3.9c1.9,0,3.2,0.7,3.2,2.9c0,1.2-0.6,2.2-1.7,2.5v0c1.3,0.2,2.1,1.1,2.1,2.7
			c0,1.8-0.9,3.3-3.6,3.3h-3.9V256.3z M140.2,261h0.7c1.3,0,1.8-0.4,1.8-1.5c0-1.1-0.5-1.5-1.7-1.5h-0.8V261z M140.2,266.1h0.9
			c1.1,0,1.9-0.4,1.9-1.7s-0.8-1.7-1.8-1.7h-1V266.1z"/>
		<path class="st7" d="M150.5,258.9c2.7,0,3.4,1.5,3.4,4.5c0,2.9-0.9,4.5-3.4,4.5c-2.7,0-3.4-1.5-3.4-4.5
			C147.1,260.5,147.9,258.9,150.5,258.9z M150.5,266.5c0.9,0,1.2-0.9,1.2-3s-0.3-3-1.2-3c-1.1,0-1.2,1.3-1.2,3
			S149.4,266.5,150.5,266.5z"/>
		<path class="st7" d="M159.8,259.2h2.2l-2.2,8.6h-2.6l-2.2-8.6h2.3l1.2,6.2h0L159.8,259.2z"/>
		<path class="st7" d="M165.3,263.8v0.7c0,1,0.3,2,1.1,2c0.7,0,1-0.6,1.2-1.6h2c-0.1,2-1,3.1-3.1,3.1c-3.2,0-3.3-2.5-3.3-4.6
			c0-2.3,0.4-4.4,3.4-4.4c2.6,0,3.2,1.7,3.2,4.4v0.5H165.3z M167.6,262.5c0-1.3-0.2-2-1.1-2c-0.9,0-1.1,0.9-1.1,1.7v0.3H167.6z"/>
		<path class="st7" d="M175.6,262.3c0-0.8-0.2-1.7-1-1.7c-1.1,0-1.3,1-1.3,2.9c0,2.1,0.2,3,1.2,3c0.7,0,1.1-0.6,1.1-2h2.1
			c0,2.3-0.9,3.5-3.3,3.5c-2.2,0-3.3-1.1-3.3-4.5c0-3.5,1.5-4.5,3.5-4.5c2,0,3.1,1.3,3.1,3.3H175.6z"/>
	</g>
	<g>
		<path class="st7" d="M237.4,359.5v1.9h-2.5v9.5h-2.3v-9.5h-2.5v-1.9H237.4z"/>
		<path class="st7" d="M242.1,362.1c2.7,0,3.4,1.5,3.4,4.5c0,2.9-0.9,4.5-3.4,4.5c-2.7,0-3.4-1.5-3.4-4.5
			C238.7,363.7,239.6,362.1,242.1,362.1z M242.1,369.7c0.9,0,1.2-0.9,1.2-3c0-2.1-0.3-3-1.2-3c-1.1,0-1.2,1.3-1.2,3
			S241,369.7,242.1,369.7z"/>
		<path class="st7" d="M247.4,359.5h2.2v11.4h-2.2V359.5z"/>
		<path class="st7" d="M251.8,362.3h2.1v0.9h0c0.6-0.8,1.2-1.1,2.2-1.1c1,0,1.7,0.5,2,1.4h0c0.3-0.9,1.1-1.4,2.2-1.4
			c1.5,0,2.1,0.9,2.1,2.6v6.3h-2.2v-6c0-0.7-0.2-1.1-0.9-1.1c-0.7,0-1.2,0.5-1.2,1.5v5.7H256v-6c0-0.7-0.2-1.1-0.9-1.1
			c-0.7,0-1.2,0.5-1.2,1.5v5.7h-2.2V362.3z"/>
		<path class="st7" d="M264.6,359.4h2.2v1.9h-2.2V359.4z M264.6,362.3h2.2v8.6h-2.2V362.3z"/>
		<path class="st7" d="M269,362.3h2.1v1h0c0.5-0.8,1.3-1.2,2.2-1.2c1.4,0,2.2,0.8,2.2,2.4v6.4h-2.2V365c0-0.9-0.3-1.2-0.9-1.2
			c-0.8,0-1.2,0.5-1.2,1.4v5.7H269V362.3z"/>
	</g>
	<g>
		<path class="st7" d="M408.4,305.5v4.6h0l2.9-4.6h2.5l-3.1,4.9l3.5,6.5h-2.6l-2.4-4.7l-0.8,1.3v3.4h-2.3v-11.4H408.4z"/>
		<path class="st7" d="M415.2,308.3h2.1v1.2h0c0.4-0.8,1.1-1.4,2-1.4c0.1,0,0.3,0,0.4,0v2.1c-0.2,0-0.5,0-0.7,0
			c-0.8,0-1.6,0.4-1.6,1.6v5.2h-2.2V308.3z"/>
		<path class="st7" d="M421.2,310.9v-0.2c0-2,1.4-2.7,3-2.7c2.6,0,3.1,1.1,3.1,2.6v4.5c0,0.8,0,1.2,0.3,1.7h-2.1
			c-0.1-0.3-0.2-0.6-0.3-0.9h0c-0.5,0.9-1.1,1.1-2.2,1.1c-1.5,0-2.1-1.3-2.1-2.5c0-1.6,0.7-2.3,2.2-2.7l1.2-0.3
			c0.7-0.2,0.9-0.4,0.9-1c0-0.7-0.3-1.1-1-1.1c-0.7,0-1,0.4-1,1.1v0.2H421.2z M425.2,312.6c-0.3,0.2-0.7,0.4-0.9,0.4
			c-0.9,0.2-1.2,0.6-1.2,1.4c0,0.7,0.2,1.2,0.8,1.2s1.4-0.4,1.4-1.3V312.6z"/>
		<path class="st7" d="M429.5,308.3h2.1v1h0c0.5-0.8,1.3-1.2,2.2-1.2c1.4,0,2.2,0.8,2.2,2.4v6.4h-2.2v-5.9c0-0.9-0.3-1.2-0.9-1.2
			c-0.8,0-1.2,0.5-1.2,1.4v5.7h-2.2V308.3z"/>
		<path class="st7" d="M438.3,308.3h2.2v9.2c0,1.4-0.5,2.2-2.5,2.2c-0.3,0-0.6,0-0.9,0v-1.6c0.1,0,0.2,0,0.4,0
			c0.8,0,0.9-0.4,0.9-1.4V308.3z M438.3,305.3h2.2v1.9h-2.2V305.3z"/>
	</g>
	<g>
		<path class="st7" d="M97.8,432l2.8,7.8h0V432h2.1v11.4h-2.6l-2.8-8h0v8h-2.1V432H97.8z"/>
		<path class="st7" d="M108,434.6c2.7,0,3.4,1.5,3.4,4.5c0,2.9-0.9,4.5-3.4,4.5c-2.7,0-3.4-1.5-3.4-4.5
			C104.6,436.2,105.4,434.6,108,434.6z M108,442.2c0.9,0,1.2-0.9,1.2-3c0-2.1-0.3-3-1.2-3c-1.1,0-1.2,1.3-1.2,3
			S106.9,442.2,108,442.2z"/>
		<path class="st7" d="M117.3,434.8h2.2l-2.2,8.6h-2.6l-2.2-8.6h2.3l1.2,6.2h0L117.3,434.8z"/>
		<path class="st7" d="M120.9,437.5v-0.2c0-2,1.4-2.7,3-2.7c2.6,0,3.1,1.1,3.1,2.6v4.5c0,0.8,0,1.2,0.3,1.7h-2.1
			c-0.1-0.3-0.2-0.6-0.3-0.9h0c-0.5,0.9-1.1,1.1-2.2,1.1c-1.5,0-2.1-1.3-2.1-2.5c0-1.6,0.7-2.3,2.2-2.7l1.2-0.3
			c0.7-0.2,0.9-0.4,0.9-1c0-0.7-0.3-1.1-1-1.1c-0.7,0-1,0.4-1,1.1v0.2H120.9z M124.9,439.2c-0.3,0.2-0.7,0.4-0.9,0.4
			c-0.9,0.2-1.2,0.6-1.2,1.4c0,0.7,0.2,1.2,0.8,1.2s1.4-0.4,1.4-1.3V439.2z"/>
		<path class="st7" d="M138.9,435.4c0-0.8-0.4-1.9-1.3-1.9c-1.1,0-1.6,1.2-1.6,4c0,2.8,0.3,4.5,1.6,4.5c0.5,0,1.4-0.6,1.4-1.8V439
			h-1.5v-1.7h3.7v6.2h-1.7v-1.1h0c-0.5,0.9-1.3,1.3-2.4,1.3c-2.8,0-3.4-2.1-3.4-6.1c0-3.8,0.9-5.8,3.8-5.8c2.5,0,3.6,1.3,3.6,3.6
			H138.9z"/>
		<path class="st7" d="M146.4,434.6c2.7,0,3.4,1.5,3.4,4.5c0,2.9-0.9,4.5-3.4,4.5c-2.7,0-3.4-1.5-3.4-4.5
			C143,436.2,143.9,434.6,146.4,434.6z M146.4,442.2c0.9,0,1.2-0.9,1.2-3c0-2.1-0.3-3-1.2-3c-1.1,0-1.2,1.3-1.2,3
			S145.3,442.2,146.4,442.2z"/>
		<path class="st7" d="M151.6,434.8h2.1v1.2h0c0.4-0.8,1.1-1.4,2-1.4c0.1,0,0.3,0,0.4,0v2.1c-0.2,0-0.5,0-0.7,0
			c-0.8,0-1.6,0.4-1.6,1.6v5.2h-2.2V434.8z"/>
		<path class="st7" d="M157.6,431.9h2.2v1.9h-2.2V431.9z M157.6,434.8h2.2v8.6h-2.2V434.8z"/>
		<path class="st7" d="M166.2,438c0-0.8-0.2-1.7-1-1.7c-1.1,0-1.3,1-1.3,2.9c0,2.1,0.2,3,1.2,3c0.7,0,1.1-0.6,1.1-2h2.1
			c0,2.3-0.9,3.5-3.3,3.5c-2.2,0-3.3-1.1-3.3-4.5c0-3.5,1.5-4.5,3.5-4.5c2,0,3.1,1.3,3.1,3.3H166.2z"/>
		<path class="st7" d="M170.1,437.5v-0.2c0-2,1.4-2.7,3-2.7c2.6,0,3.1,1.1,3.1,2.6v4.5c0,0.8,0,1.2,0.3,1.7h-2.1
			c-0.1-0.3-0.2-0.6-0.3-0.9h0c-0.5,0.9-1.1,1.1-2.2,1.1c-1.5,0-2.1-1.3-2.1-2.5c0-1.6,0.7-2.3,2.2-2.7l1.2-0.3
			c0.7-0.2,0.9-0.4,0.9-1c0-0.7-0.3-1.1-1-1.1c-0.7,0-1,0.4-1,1.1v0.2H170.1z M174.1,439.2c-0.3,0.2-0.7,0.4-0.9,0.4
			c-0.9,0.2-1.2,0.6-1.2,1.4c0,0.7,0.2,1.2,0.8,1.2s1.4-0.4,1.4-1.3V439.2z"/>
	</g>
	<g>
		<path class="st7" d="M803.9,165.2h3.4l1.6,8.1h0l1.6-8.1h3.4v11.4H812v-9.1h0l-2,9.1h-1.8l-2-9.1h0v9.1h-2.1V165.2z"/>
		<path class="st7" d="M816.3,170.7v-0.2c0-2,1.4-2.7,3-2.7c2.6,0,3.1,1.1,3.1,2.6v4.5c0,0.8,0,1.2,0.3,1.7h-2.1
			c-0.1-0.3-0.2-0.6-0.3-0.9h0c-0.5,0.9-1.1,1.1-2.2,1.1c-1.5,0-2.1-1.3-2.1-2.5c0-1.6,0.7-2.3,2.2-2.7l1.2-0.3
			c0.7-0.2,0.9-0.4,0.9-1c0-0.7-0.3-1.1-1-1.1c-0.7,0-1,0.4-1,1.1v0.2H816.3z M820.3,172.3c-0.3,0.2-0.7,0.4-0.9,0.4
			c-0.9,0.2-1.2,0.6-1.2,1.4c0,0.7,0.2,1.2,0.8,1.2c0.6,0,1.4-0.4,1.4-1.3V172.3z"/>
		<path class="st7" d="M824.6,168h2.1v1.2h0c0.4-0.8,1.1-1.4,2-1.4c0.1,0,0.3,0,0.4,0v2.1c-0.2,0-0.5,0-0.7,0
			c-0.8,0-1.6,0.4-1.6,1.6v5.2h-2.2V168z"/>
		<path class="st7" d="M830.7,165.1h2.2v1.9h-2.2V165.1z M830.7,168h2.2v8.6h-2.2V168z"/>
		<path class="st7" d="M835.1,165.2h2.2v3.6h0c0.5-0.7,1-1,1.9-1c1.8,0,2.6,1.3,2.6,4.5s-0.8,4.5-2.6,4.5c-0.9,0-1.5-0.3-2-1.1h0
			v0.9h-2.1V165.2z M838.5,175.2c1,0,1.2-1,1.2-2.8c0-1.9-0.2-2.8-1.2-2.8c-1,0-1.2,1-1.2,2.8C837.3,174.2,837.5,175.2,838.5,175.2z
			"/>
		<path class="st7" d="M846.8,167.8c2.7,0,3.4,1.5,3.4,4.5c0,2.9-0.9,4.5-3.4,4.5c-2.7,0-3.4-1.5-3.4-4.5
			C843.4,169.4,844.3,167.8,846.8,167.8z M846.8,175.4c0.9,0,1.2-0.9,1.2-3s-0.3-3-1.2-3c-1.1,0-1.2,1.3-1.2,3
			S845.7,175.4,846.8,175.4z"/>
		<path class="st7" d="M852,168h2.1v1.2h0c0.4-0.8,1.1-1.4,2-1.4c0.1,0,0.3,0,0.4,0v2.1c-0.2,0-0.5,0-0.7,0c-0.8,0-1.6,0.4-1.6,1.6
			v5.2H852V168z"/>
	</g>
	<g>
		<path class="st7" d="M453.8,425.4V414h2.3v9.5h4.1v1.9H453.8z"/>
		<path class="st7" d="M461.9,416.8h2.2v9.2c0,1.4-0.5,2.2-2.5,2.2c-0.3,0-0.6,0-0.9,0v-1.6c0.1,0,0.2,0,0.4,0
			c0.8,0,0.9-0.4,0.9-1.4V416.8z M461.9,413.8h2.2v1.9h-2.2V413.8z"/>
		<path class="st7" d="M470.7,424.4L470.7,424.4c-0.5,0.8-1.3,1.2-2.2,1.2c-1.4,0-2.2-0.8-2.2-2.4v-6.4h2.2v5.9
			c0,0.9,0.3,1.2,0.9,1.2c0.8,0,1.2-0.5,1.2-1.4v-5.7h2.2v8.6h-2.1V424.4z"/>
		<path class="st7" d="M474.9,414h2.2v3.6h0c0.5-0.7,1-1,1.9-1c1.8,0,2.6,1.3,2.6,4.5s-0.8,4.5-2.6,4.5c-0.9,0-1.5-0.3-2-1.1h0v0.9
			h-2.1V414z M478.3,423.9c1,0,1.2-1,1.2-2.8s-0.2-2.8-1.2-2.8c-1,0-1.2,1-1.2,2.8S477.3,423.9,478.3,423.9z"/>
		<path class="st7" d="M483.6,414h2.2v11.4h-2.2V414z"/>
		<path class="st7" d="M488.1,416.8h2.2v9.2c0,1.4-0.5,2.2-2.5,2.2c-0.3,0-0.6,0-0.9,0v-1.6c0.1,0,0.2,0,0.4,0
			c0.8,0,0.9-0.4,0.9-1.4V416.8z M488.1,413.8h2.2v1.9h-2.2V413.8z"/>
		<path class="st7" d="M492.5,419.4v-0.2c0-2,1.4-2.7,3-2.7c2.6,0,3.1,1.1,3.1,2.6v4.5c0,0.8,0,1.2,0.3,1.7h-2.1
			c-0.1-0.3-0.2-0.6-0.3-0.9h0c-0.5,0.9-1.1,1.1-2.2,1.1c-1.5,0-2.1-1.3-2.1-2.5c0-1.6,0.7-2.3,2.2-2.7l1.2-0.3
			c0.7-0.2,0.9-0.4,0.9-1c0-0.7-0.3-1.1-1-1.1c-0.7,0-1,0.4-1,1.1v0.2H492.5z M496.5,421.1c-0.3,0.2-0.7,0.4-0.9,0.4
			c-0.9,0.2-1.2,0.6-1.2,1.4c0,0.7,0.2,1.2,0.8,1.2s1.4-0.4,1.4-1.3V421.1z"/>
		<path class="st7" d="M500.8,416.8h2.1v1h0c0.5-0.8,1.3-1.2,2.2-1.2c1.4,0,2.2,0.8,2.2,2.4v6.4h-2.2v-5.9c0-0.9-0.3-1.2-0.9-1.2
			c-0.8,0-1.2,0.5-1.2,1.4v5.7h-2.2V416.8z"/>
		<path class="st7" d="M509.5,419.4v-0.2c0-2,1.4-2.7,3-2.7c2.6,0,3.1,1.1,3.1,2.6v4.5c0,0.8,0,1.2,0.3,1.7h-2.1
			c-0.1-0.3-0.2-0.6-0.3-0.9h0c-0.5,0.9-1.1,1.1-2.2,1.1c-1.5,0-2.1-1.3-2.1-2.5c0-1.6,0.7-2.3,2.2-2.7l1.2-0.3
			c0.7-0.2,0.9-0.4,0.9-1c0-0.7-0.3-1.1-1-1.1c-0.7,0-1,0.4-1,1.1v0.2H509.5z M513.5,421.1c-0.3,0.2-0.7,0.4-0.9,0.4
			c-0.9,0.2-1.2,0.6-1.2,1.4c0,0.7,0.2,1.2,0.8,1.2s1.4-0.4,1.4-1.3V421.1z"/>
	</g>
	<g>
		<path class="st7" d="M367.6,532.8h4c2.3,0,3.1,1.7,3.1,3.4c0,2.4-1.5,3.4-3.6,3.4h-1.2v4.6h-2.3V532.8z M369.9,537.9h1
			c0.9,0,1.5-0.5,1.5-1.7c0-1.1-0.4-1.8-1.6-1.8h-1V537.9z"/>
		<path class="st7" d="M379.6,535.4c2.7,0,3.4,1.5,3.4,4.5c0,2.9-0.9,4.5-3.4,4.5c-2.7,0-3.4-1.5-3.4-4.5
			C376.2,537,377,535.4,379.6,535.4z M379.6,542.9c0.9,0,1.2-0.9,1.2-3c0-2.1-0.3-3-1.2-3c-1.1,0-1.2,1.3-1.2,3
			S378.5,542.9,379.6,542.9z"/>
		<path class="st7" d="M386.4,541.4v0.3c0,0.8,0.4,1.2,1.2,1.2c0.7,0,1.1-0.3,1.1-1c0-0.6-0.4-0.8-0.8-1l-1.6-0.6
			c-1.2-0.4-1.8-1.2-1.8-2.4c0-1.4,0.9-2.6,3.2-2.6c2,0,2.9,0.9,2.9,2.4v0.4h-2c0-0.9-0.3-1.3-1-1.3c-0.6,0-1,0.3-1,0.9
			c0,0.4,0.2,0.8,1,1l1.3,0.4c1.4,0.5,1.9,1.2,1.9,2.5c0,1.8-1.3,2.7-3.2,2.7c-2.5,0-3.2-1.1-3.2-2.7v-0.3H386.4z"/>
		<path class="st7" d="M393,533.1h2.2v2.5h1.3v1.5h-1.3v4.7c0,0.7,0.1,0.9,0.8,0.9c0.2,0,0.4,0,0.5,0v1.5c-0.5,0-0.9,0.1-1.4,0.1
			c-1.7,0-2-0.5-2-2.3v-4.9h-1.1v-1.5h1.1V533.1z"/>
		<path class="st7" d="M401,535.4c2.7,0,3.4,1.5,3.4,4.5c0,2.9-0.9,4.5-3.4,4.5c-2.7,0-3.4-1.5-3.4-4.5
			C397.6,537,398.5,535.4,401,535.4z M401,542.9c0.9,0,1.2-0.9,1.2-3c0-2.1-0.3-3-1.2-3c-1.1,0-1.2,1.3-1.2,3S399.9,542.9,401,542.9
			z"/>
		<path class="st7" d="M406.3,535.6h2.2v9.2c0,1.4-0.5,2.2-2.5,2.2c-0.3,0-0.6,0-0.9,0v-1.6c0.1,0,0.2,0,0.4,0
			c0.8,0,0.9-0.4,0.9-1.4V535.6z M406.3,532.6h2.2v1.9h-2.2V532.6z"/>
		<path class="st7" d="M410.7,535.6h2.1v1h0c0.5-0.8,1.3-1.2,2.2-1.2c1.4,0,2.2,0.8,2.2,2.4v6.4H415v-5.9c0-0.9-0.3-1.2-0.9-1.2
			c-0.8,0-1.2,0.5-1.2,1.4v5.7h-2.2V535.6z"/>
		<path class="st7" d="M419.3,538.2V538c0-2,1.4-2.7,3-2.7c2.6,0,3.1,1.1,3.1,2.6v4.5c0,0.8,0,1.2,0.3,1.7h-2.1
			c-0.1-0.3-0.2-0.6-0.3-0.9h0c-0.5,0.9-1.1,1.1-2.2,1.1c-1.5,0-2.1-1.3-2.1-2.5c0-1.6,0.7-2.3,2.2-2.7l1.2-0.3
			c0.7-0.2,0.9-0.4,0.9-1c0-0.7-0.3-1.1-1-1.1c-0.7,0-1,0.4-1,1.1v0.2H419.3z M423.4,539.9c-0.3,0.2-0.7,0.4-0.9,0.4
			c-0.9,0.2-1.2,0.6-1.2,1.4c0,0.7,0.2,1.2,0.8,1.2s1.4-0.4,1.4-1.3V539.9z"/>
	</g>
	<g>
		<path class="st7" d="M113.6,626.6h4c2.3,0,3.1,1.7,3.1,3.4c0,2.4-1.5,3.4-3.6,3.4h-1.2v4.6h-2.3V626.6z M115.9,631.7h1
			c0.9,0,1.5-0.5,1.5-1.7c0-1.1-0.4-1.8-1.6-1.8h-1V631.7z"/>
		<path class="st7" d="M122.6,626.4h2.2v1.9h-2.2V626.4z M122.6,629.4h2.2v8.6h-2.2V629.4z"/>
		<path class="st7" d="M127,629.4h2.1v1.2h0c0.4-0.8,1.1-1.4,2-1.4c0.1,0,0.3,0,0.4,0v2.1c-0.2,0-0.5,0-0.7,0
			c-0.8,0-1.6,0.4-1.6,1.6v5.2H127V629.4z"/>
		<path class="st7" d="M132.9,632v-0.2c0-2,1.4-2.7,3-2.7c2.6,0,3.1,1.1,3.1,2.6v4.5c0,0.8,0,1.2,0.3,1.7h-2.1
			c-0.1-0.3-0.2-0.6-0.3-0.9h0c-0.5,0.9-1.1,1.1-2.2,1.1c-1.5,0-2.1-1.3-2.1-2.5c0-1.6,0.7-2.3,2.2-2.7l1.2-0.3
			c0.7-0.2,0.9-0.4,0.9-1c0-0.7-0.3-1.1-1-1.1c-0.7,0-1,0.4-1,1.1v0.2H132.9z M136.9,633.7c-0.3,0.2-0.7,0.4-0.9,0.4
			c-0.9,0.2-1.2,0.6-1.2,1.4c0,0.7,0.2,1.2,0.8,1.2s1.4-0.4,1.4-1.3V633.7z"/>
		<path class="st7" d="M141.3,629.4h2.1v1h0c0.5-0.8,1.3-1.2,2.2-1.2c1.4,0,2.2,0.8,2.2,2.4v6.4h-2.2v-5.9c0-0.9-0.3-1.2-0.9-1.2
			c-0.8,0-1.2,0.5-1.2,1.4v5.7h-2.2V629.4z"/>
	</g>
	<g>
		<path class="st7" d="M161.6,614.4v4.6h0l2.9-4.6h2.5l-3.1,4.9l3.5,6.5h-2.6l-2.4-4.7l-0.8,1.3v3.4h-2.3v-11.4H161.6z"/>
		<path class="st7" d="M171.6,617c2.7,0,3.4,1.5,3.4,4.5c0,2.9-0.9,4.5-3.4,4.5c-2.7,0-3.4-1.5-3.4-4.5
			C168.2,618.6,169,617,171.6,617z M171.6,624.6c0.9,0,1.2-0.9,1.2-3c0-2.1-0.3-3-1.2-3c-1.1,0-1.2,1.3-1.2,3
			S170.5,624.6,171.6,624.6z"/>
		<path class="st7" d="M176.8,617.2h2.1v0.9h0c0.5-0.8,1.1-1.1,2-1.1c1.8,0,2.6,1.3,2.6,4.5s-0.8,4.5-2.6,4.5c-0.8,0-1.4-0.3-1.9-1
			h0v3.6h-2.2V617.2z M180.2,624.4c1,0,1.2-1,1.2-2.8s-0.2-2.8-1.2-2.8c-1,0-1.2,1-1.2,2.8S179.2,624.4,180.2,624.4z"/>
		<path class="st7" d="M187.3,621.9v0.7c0,1,0.3,2,1.1,2c0.7,0,1-0.6,1.2-1.6h2c-0.1,2-1,3.1-3.1,3.1c-3.2,0-3.3-2.5-3.3-4.6
			c0-2.3,0.4-4.4,3.4-4.4c2.6,0,3.2,1.7,3.2,4.4v0.5H187.3z M189.6,620.6c0-1.3-0.2-2-1.1-2c-0.9,0-1.1,0.9-1.1,1.7v0.3H189.6z"/>
		<path class="st7" d="M193.5,617.2h2.1v1.2h0c0.4-0.8,1.1-1.4,2-1.4c0.1,0,0.3,0,0.4,0v2.1c-0.2,0-0.5,0-0.7,0
			c-0.8,0-1.6,0.4-1.6,1.6v5.2h-2.2V617.2z"/>
	</g>
	<g>
		<path class="st10" d="M461.2,57.7c3.5,0,5.6,2.6,5.6,6c0,3.3-2.1,5.9-5.6,5.9s-5.6-2.6-5.6-5.9C455.6,60.3,457.6,57.7,461.2,57.7z
			 M461.2,67.6c2.3,0,3.1-1.9,3.1-3.8c0-2-0.8-3.9-3.1-3.9s-3.1,1.9-3.1,3.9C458.1,65.6,458.9,67.6,461.2,67.6z M458.5,54.8h2.2v1.9
			h-2.2V54.8z M461.8,54.8h2.2v1.9h-2.2V54.8z"/>
		<path class="st10" d="M473.4,65.6c0,1.5,1.2,2.1,2.5,2.1c0.9,0,2.2-0.3,2.2-1.4c0-1.2-1.7-1.4-3.4-1.9c-1.7-0.4-3.4-1.1-3.4-3.2
			c0-2.3,2.2-3.5,4.3-3.5c2.4,0,4.6,1,4.6,3.7h-2.4c-0.1-1.4-1.1-1.7-2.3-1.7c-0.8,0-1.7,0.3-1.7,1.3c0,0.9,0.5,1,3.4,1.7
			c0.8,0.2,3.4,0.7,3.4,3.3c0,2.1-1.6,3.7-4.8,3.7c-2.5,0-4.9-1.2-4.9-4.1H473.4z"/>
		<path class="st10" d="M487.8,60.1h-3.4V58h9.4v2.1h-3.4v9.3h-2.5V60.1z"/>
		<path class="st10" d="M498.3,58h8.5v2.1h-6v2.4h5.5v2h-5.5v2.8h6.2v2.1h-8.7V58z"/>
		<path class="st10" d="M511.8,58h6.2c2,0,3.3,1.4,3.3,3.2c0,1.3-0.5,2.4-1.8,2.9v0c1.2,0.3,1.6,1.5,1.7,2.7c0,0.7,0,2.1,0.5,2.7
			h-2.5c-0.3-0.7-0.3-1.8-0.4-2.7c-0.2-1.2-0.6-1.7-1.9-1.7h-2.5v4.5h-2.5V58z M514.3,63.2h2.8c1.1,0,1.7-0.5,1.7-1.6
			c0-1.1-0.6-1.6-1.7-1.6h-2.8V63.2z"/>
		<path class="st10" d="M526.6,58h6.2c2,0,3.3,1.4,3.3,3.2c0,1.3-0.5,2.4-1.8,2.9v0c1.2,0.3,1.6,1.5,1.7,2.7c0,0.7,0,2.1,0.5,2.7
			h-2.5c-0.3-0.7-0.3-1.8-0.4-2.7c-0.2-1.2-0.6-1.7-1.9-1.7h-2.5v4.5h-2.5V58z M529.1,63.2h2.8c1.1,0,1.7-0.5,1.7-1.6
			c0-1.1-0.6-1.6-1.7-1.6h-2.8V63.2z"/>
		<path class="st10" d="M541.3,58h8.5v2.1h-6v2.4h5.5v2h-5.5v2.8h6.2v2.1h-8.7V58z"/>
		<path class="st10" d="M554.9,58h2.5v11.4h-2.5V58z"/>
		<path class="st10" d="M570.4,61.8c-0.2-1.1-1.2-2-2.5-2c-2.3,0-3.1,1.9-3.1,3.9c0,1.9,0.8,3.8,3.1,3.8c1.5,0,2.4-1.1,2.6-2.6h2.4
			c-0.3,2.8-2.2,4.7-5,4.7c-3.5,0-5.6-2.6-5.6-5.9c0-3.4,2.1-6,5.6-6c2.5,0,4.6,1.5,4.9,4.1H570.4z"/>
		<path class="st10" d="M577.9,58h2.5v4.4h4.6V58h2.5v11.4H585v-4.9h-4.6v4.9h-2.5V58z"/>
	</g>
	<g>
		<path class="st10" d="M5.8,372.7h2.5v11.4H5.8V372.7z"/>
		<path class="st10" d="M16.3,374.8h-3.4v-2.1h9.4v2.1h-3.4v9.3h-2.5V374.8z"/>
		<path class="st10" d="M29.9,372.7h2.6l4.3,11.4h-2.6l-0.9-2.5H29l-0.9,2.5h-2.5L29.9,372.7z M29.6,379.7h3l-1.4-4.2h0L29.6,379.7z
			"/>
		<path class="st10" d="M40.9,372.7h2.5v9.3H49v2.1h-8.1V372.7z"/>
		<path class="st10" d="M53.6,372.7h2.5v11.4h-2.5V372.7z"/>
		<path class="st10" d="M61.5,372.7h8.5v2.1h-6v2.4h5.5v2H64v2.8h6.2v2.1h-8.7V372.7z"/>
		<path class="st10" d="M75.1,372.7h2.5l4.8,7.7h0v-7.7h2.4v11.4h-2.5l-4.8-7.7h0v7.7h-2.4V372.7z"/>
	</g>
	<g>
		<path d="M620.3,278.1c0,1.5,1.2,2.1,2.5,2.1c0.9,0,2.2-0.3,2.2-1.4c0-1.2-1.7-1.4-3.4-1.9c-1.7-0.4-3.4-1.1-3.4-3.2
			c0-2.3,2.2-3.5,4.3-3.5c2.4,0,4.6,1,4.6,3.7h-2.4c-0.1-1.4-1.1-1.7-2.3-1.7c-0.8,0-1.7,0.3-1.7,1.3c0,0.9,0.5,1,3.4,1.7
			c0.8,0.2,3.4,0.7,3.4,3.3c0,2.1-1.6,3.7-4.8,3.7c-2.5,0-4.9-1.2-4.9-4.1H620.3z"/>
		<path d="M632.1,270.5h2.5v9.3h5.6v2.1h-8.1V270.5z"/>
		<path d="M649.9,270.2c3.5,0,5.6,2.6,5.6,6c0,3.3-2.1,5.9-5.6,5.9c-3.5,0-5.6-2.6-5.6-5.9C644.3,272.8,646.4,270.2,649.9,270.2z
			 M649.9,280c2.3,0,3.1-1.9,3.1-3.8c0-2-0.8-3.9-3.1-3.9s-3.1,1.9-3.1,3.9C646.8,278.1,647.7,280,649.9,280z"/>
		<path d="M671.4,281.9h-2.5l-1.9-7.8h0l-1.9,7.8h-2.5l-3-11.4h2.5l1.8,7.8h0l2-7.8h2.4l2,7.9h0l1.9-7.9h2.5L671.4,281.9z"/>
		<path d="M678.8,270.5h8.5v2.1h-6v2.4h5.5v2h-5.5v2.8h6.2v2.1h-8.7V270.5z"/>
		<path d="M692.3,270.5h2.5l4.8,7.7h0v-7.7h2.4v11.4h-2.5l-4.8-7.7h0v7.7h-2.4V270.5z"/>
		<path d="M707.4,270.5h2.5v11.4h-2.5V270.5z"/>
		<path d="M715.3,270.5h8.5v2.1h-6v2.4h5.5v2h-5.5v2.8h6.2v2.1h-8.7V270.5z"/>
		<path d="M728.9,270.5h2.5l4.8,7.7h0v-7.7h2.4v11.4H736l-4.8-7.7h0v7.7h-2.4V270.5z"/>
	</g>
	<g>
		<path class="st10" d="M1071.2,89.4c0,3.1-1.8,4.6-4.9,4.6c-3.1,0-4.9-1.5-4.9-4.6v-7.1h2.5v7.1c0,1.2,0.3,2.5,2.4,2.5
			c1.8,0,2.4-0.8,2.4-2.5v-7.1h2.5V89.4z"/>
		<path class="st10" d="M1076.5,82.3h2.5l4.8,7.7h0v-7.7h2.4v11.4h-2.5l-4.8-7.7h0v7.7h-2.4V82.3z"/>
		<path class="st10" d="M1099.8,92.4c-0.9,1.1-2,1.6-3.1,1.6c-3.5,0-5.6-2.6-5.6-5.9c0-3.4,2.1-6,5.6-6c2.3,0,4.5,1.4,4.8,4h-2.4
			c-0.3-1.3-1.2-1.9-2.4-1.9c-2.3,0-3.1,1.9-3.1,3.9c0,1.9,0.8,3.8,3.1,3.8c1.6,0,2.6-0.9,2.7-2.5h-2.5v-1.9h4.8v6.2h-1.6
			L1099.8,92.4z"/>
		<path class="st10" d="M1110,82.3h2.6l4.3,11.4h-2.6l-0.9-2.5h-4.3l-0.9,2.5h-2.5L1110,82.3z M1109.8,89.3h3l-1.4-4.2h0
			L1109.8,89.3z"/>
		<path class="st10" d="M1121.1,82.3h6.2c2,0,3.3,1.4,3.3,3.2c0,1.3-0.5,2.4-1.8,2.9v0c1.2,0.3,1.6,1.5,1.7,2.7c0,0.7,0,2.1,0.5,2.7
			h-2.5c-0.3-0.7-0.3-1.8-0.4-2.7c-0.2-1.2-0.6-1.7-1.9-1.7h-2.5v4.5h-2.5V82.3z M1123.6,87.5h2.8c1.1,0,1.7-0.5,1.7-1.6
			c0-1.1-0.6-1.6-1.7-1.6h-2.8V87.5z"/>
		<path class="st10" d="M1135.8,82.3h2.5l4.8,7.7h0v-7.7h2.4v11.4h-2.5l-4.8-7.7h0v7.7h-2.4V82.3z"/>
	</g>
	<g>
		<path class="st10" d="M919.8,440.2h2.5v4.7l4.5-4.7h3.1l-4.5,4.5l4.9,6.9h-3.2l-3.4-5.1l-1.4,1.5v3.7h-2.5V440.2z"/>
		<path class="st10" d="M934.5,440.2h6.2c2,0,3.3,1.4,3.3,3.2c0,1.3-0.5,2.4-1.8,2.9v0c1.2,0.3,1.6,1.5,1.7,2.7c0,0.7,0,2.1,0.5,2.7
			h-2.5c-0.3-0.7-0.3-1.8-0.4-2.7c-0.2-1.2-0.6-1.7-1.9-1.7H937v4.5h-2.5V440.2z M937,445.4h2.8c1.1,0,1.7-0.5,1.7-1.6
			c0-1.1-0.6-1.6-1.7-1.6H937V445.4z"/>
		<path class="st10" d="M954.4,439.9c3.5,0,5.6,2.6,5.6,6c0,3.3-2.1,5.9-5.6,5.9s-5.6-2.6-5.6-5.9
			C948.8,442.6,950.9,439.9,954.4,439.9z M954.4,449.8c2.3,0,3.1-1.9,3.1-3.8c0-2-0.8-3.9-3.1-3.9s-3.1,1.9-3.1,3.9
			C951.3,447.9,952.1,449.8,954.4,449.8z"/>
		<path class="st10" d="M968,440.2h2.6l4.3,11.4h-2.6l-0.9-2.5h-4.3l-0.9,2.5h-2.5L968,440.2z M967.8,447.2h3l-1.4-4.2h0
			L967.8,447.2z"/>
		<path class="st10" d="M981.6,442.3h-3.4v-2.1h9.4v2.1h-3.4v9.3h-2.5V442.3z"/>
		<path class="st10" d="M992.1,440.2h2.5v11.4h-2.5V440.2z"/>
		<path class="st10" d="M1000,440.2h8.5v2.1h-6v2.4h5.5v2h-5.5v2.8h6.2v2.1h-8.7V440.2z"/>
		<path class="st10" d="M1013.5,440.2h2.5l4.8,7.7h0v-7.7h2.4v11.4h-2.5l-4.8-7.7h0v7.7h-2.4V440.2z"/>
	</g>
</g>
</svg>
