<?xml version="1.0" encoding="utf-8"?>
<!-- Generator: Adobe Illustrator 25.3.1, SVG Export Plug-In . SVG Version: 6.00 Build 0)  -->
<svg version="1.1" id="Ebene_1" xmlns="http://www.w3.org/2000/svg" xmlns:xlink="http://www.w3.org/1999/xlink" x="0px" y="0px"
	 viewBox="0 0 75 75" style="enable-background:new 0 0 75 75;" xml:space="preserve">
<style type="text/css">
	.st0{fill:#FFFFFF;}
</style>
<g>
	<path class="st0" d="M37.5,29.3L37.5,29.3h4.2c-0.7-3.6-1.3-7.5-1.8-11.6c0.7-0.6,1.1-1.5,1.1-2.5v-2.7c0-1.4-0.8-2.6-2-3.2V5.7
		c0-0.8-0.7-1.5-1.5-1.5c-0.8,0-1.5,0.7-1.5,1.5v3.6c-1.2,0.6-2,1.8-2,3.2v2.7c0,1.1,0.5,1.9,1.1,2.6c-0.4,4.1-1.1,8-1.8,11.6h4.2
		V29.3z"/>
	<path class="st0" d="M60,70.8c0,0-5.3-6-10.6-17.3h0.9c1.3,0,2.3-1.1,2.3-2.3s-1.1-2.3-2.3-2.3H24.5c-1.3,0-2.3,1.1-2.3,2.3
		s1.1,2.3,2.3,2.3h0.9C20.1,65,14.9,70.8,14.9,70.8h11.5c0-0.1,0-0.2,0-0.4c0-6.1,4.9-11,11-11l0,0l0,0c6.1,0,11,4.9,11,11
		c0,0.1,0,0.2,0,0.4H60z"/>
	<path class="st0" d="M30.3,37h1.1c-0.8,3.2-1.8,6-2.8,8.7h8.8l0,0h8.9c-0.9-2.7-1.9-5.6-2.8-8.7h1.1c1.3,0,2.3-1.1,2.3-2.3
		s-1.1-2.3-2.3-2.3h-0.8h-1.4h-4.9l0,0h-4.9h-2.2l0,0c-1.3,0-2.3,1.1-2.3,2.3C28.1,36,29.1,37,30.3,37"/>
</g>
</svg>
