<?xml version="1.0" encoding="utf-8"?>
<!-- Generator: Adobe Illustrator 25.0.1, SVG Export Plug-In . SVG Version: 6.00 Build 0)  -->
<svg version="1.1" xmlns="http://www.w3.org/2000/svg" xmlns:xlink="http://www.w3.org/1999/xlink" x="0px" y="0px"
	 viewBox="0 0 1021 757.2" style="enable-background:new 0 0 1021 757.2;" xml:space="preserve">
<style type="text/css">
	.st0{fill:#E2E2E2;}
	.st1{fill:#EDEDED;stroke:#EDEDED;stroke-miterlimit:3.8637;}
	.st2{fill:none;stroke:#5AB1F5;stroke-miterlimit:10;}
	.st3{fill:#5AB1F5;stroke:#5AB1F5;stroke-miterlimit:3.8637;}
	.st4{fill:#5AB1F5;}
	.st5{fill:none;stroke:#F2AC34;stroke-width:2;stroke-miterlimit:10;stroke-dasharray:4,4;}
	.st6{fill:none;stroke:#F2AC34;stroke-width:2;stroke-miterlimit:3.8637;}
	.st7{fill:#52A0D8;}
	.st8{fill:#1F1F1E;}
	.st9{fill:#A6A6A5;}
	.st10{fill:#FFFFFF;}
	.st11{fill:#F2AC34;}
</style>
<g id="Ebene_1">
	<path class="st0" d="M477.4,358.2c6.2-1.2,14.9-7.3,15.5-10.2c0.6-2.9,5-6.4,7.3-5.3s3.8,5.3,6.7,2.3c2.9-2.9,9.7-12.6,14.9-12
		c5.3,0.6,6.2,1.8,8.5-0.6s4.9-5.6,8.8-7.3c3.8-1.8,0.9-5.8,17.6-5.8c16.7,0,19,0.9,20.2-2.3c1.2-3.2,2.6-8.5,5-8.5s7-0.3,5.8,5.8
		c-1.2,6.2,2.3,10-1.2,14.6s-4.1,6.1-4.1,9.9c0,3.8,5.3,7,4.7,10.8c-0.6,3.8-3.5,7.3-2.9,10.2c0.6,2.9,6.7,10.5,6.7,13.8
		c0,3.2,2.9-0.9,4.7,5c1.8,5.8,5,8.5,8.5,9.7c3.5,1.2,7.3,2.3,9.4,5.3c2.1,2.9,5.8,7.9,11.4,8.5s12.3-2.3,15.2-1.2s9.7,8.8,13.2,8.2
		s6.1-4.7,7.6-1.8c1.5,2.9,7.6,12,12,12.6c4.4,0.6,18.2,0.9,19.9,5c1.8,4.1,7.3,10.8,11.4,11.4c4.1,0.6,19.9-4.1,22.8,0
		c2.9,4.1,21.1,9.1,22.2,13.8s-1.2,6.2-1.2,10.2c0,4.1,5.8,16.9,5.8,21.9c0,5,3.5,9.1,0,9.7s-7.6-2.9-7.6,0c0,2.9,8.2,10.5,8.2,14.9
		c0,4.4,1.8,24.6,1.8,24.6l60,2.1c0,0-5.3,7.9-5.3,12.6s0,14,2.3,18.4c2.3,4.4,16.4,7,17.6,11.4c1.2,4.4,5.8,17,7,20.5
		s8.2,2.9,5,4.7c-3.2,1.8-6.7,3.2-7.3,6.7c-0.6,3.5-4.1,15.5-4.1,15.5s2.6,5.6,0.6,6.2s-6.7,9.7-9.1,14.3c-2.3,4.7-3.5,6.2-1.8,8.5
		c1.8,2.3,10.5,9.4,7,9.4s-4.4,0.3-7.6,2.6c-3.2,2.3-5,3.5-5,3.5s1.2-14-1.8-16.1c-2.9-2.1-24.9-17-33.1-17.6
		c-8.2-0.6-16.4-4.1-25.2-0.6s-23.7,6.7-31,6.7c-7.3,0-19.9-0.6-21.7,2.9c-1.8,3.5-15.2,27.5-17.6,29.3s-0.6,17.3-3.5,24.6
		c-2.9,7.3-10.2,30.2-10.2,30.2l-2.9-0.6l-6.4-5c0,0-32.5-2.9-32.5-1.2s-1.5,12.3-5,14.9c-3.5,2.6-4.7,5.6-4.7,8.5
		c0,2.9-1.8,5-1.8,5s-3.8-6.7-4.4-9.1s-1.8-10.2-3.5-11.4s-12.9-5-18.4-5s-16.4,1.8-18.2,0c-1.8-1.8-7.3-11.1-10.8-10.5
		c-3.5,0.6-2.9,7.9-5.8,9.9c-2.9,2.1-9.1,2.1-11.4,4.4s-1.5,7.3-5,8.2c-3.5,0.9-6.4,2.1-7.6,4.4s-3.8,7.6-3.8,7.6l-19,1.5
		c0,0-3.2-25.5-5.6-27.2s-2.9-12-2.9-12s-7.9-24-11.4-25.2s-6.4-3.8-4.7-6.4c1.8-2.6,3.5-3.8,1.2-5s-5.6-4.9-5.6-7.6
		c0-2.6-3.2-6.7-0.6-7.9c2.6-1.2,6.7-1.4,6.2-4.1c-0.6-2.6-5.8-9.1-4.1-10.8c1.8-1.8,5.8-8.5,5.8-8.5s-15.5-11.4-16.1-13.8
		c-0.6-2.3-3.8-30.2-6.2-31.9s-4.4-0.6-7-3.5c-2.6-2.9-14.1-14.9-14.1-14.9l-14.3-21.7l25.2-120c0,0-12-60.6-15.5-57.7
		s5.6-17.3,5.6-17.3s10.8-1.2,14.9,0C465.4,354.7,477.4,358.2,477.4,358.2L477.4,358.2z"/>
	<path class="st1" d="M104.2,110.2c0,0-18.3,6.6-28.5,20.4c-10.2,13.8-13.8,10.2-8.4,20.4c5.4,10.2,8.4,8.5,7.4,10.9
		c-1,2.4-3.8,4.3-3.4,6c0.5,1.7,11,9.4,11,12.5s1.4,6.2-1,7.4c-2.4,1.2-8.2-0.2-8.9,3.8c-0.7,4.1-0.2,5.3,7.2,9.1
		c7.4,3.8,33.6,16.3,37.9,25.2c4.3,8.9,10.6,24.2,15.8,29.5c5.3,5.3,10.1,8.6,11.5,12.7c1.4,4.1,0.2,4.1,3.8,6
		c3.6,1.9,3.4,3.4,3.1,5.5c-0.2,2.2-1.2,4.3,0.7,6s3.6,8.9,4.6,10.8c1,1.9,16.2,35,21.3,42.9c5.1,7.9,10.7,14.5,10.2,18.3
		c-0.5,3.9-1.3,6.9,0.5,7.9c1.8,1,6.6,2.3,8.1,4.4c1.5,2.1,9.4,18.9,10.7,22.5c1.3,3.6,22.2,35.3,24.3,39.6c2.1,4.3,2.3,11.2,1,13.3
		c-1.3,2.1-6.6,0.2-6.1,2.5s5.3,1,4.8,3.6c-0.5,2.6-1.8,6.9,0.3,7.2c2.1,0.3,4.1,2.2,4.9,4.5c0.8,2.3,3.8,10.2,9.4,13
		c5.7,2.8,13.3,6.1,15.6,11.5s4.8,7.6,7.4,10.2c2.6,2.6,26.1,14.8,29.7,17.1c3.5,2.3,10.8,9.4,14.3,9.9c3.5,0.5,25.5,9.4,28.3,12
		c2.8,2.6,9.7,2.9,14.6,6.4c4.9,3.5,14.9,13.5,16.9,13.5s8,1,10.7,5.1c2.8,4.1,7.2,14.1,11,17.1c3.8,3,13.5,7.7,17.8,12
		c4.4,4.3,4.2,5.8,7.7,5.6c3.5-0.3,14.5-6.3,15.5-8.9c1-2.6-2.8-14.3-0.8-14.8c2.1-0.5,10.4,0,10.8-2.3c0.4-2.3-5.7-7.9-3.6-11
		c2.1-3.1,19.4-18.9,20.7-20.7c1.3-1.8,4.4-6.9,2.3-9.2c-2.1-2.3-12.3-4.4-13-17.1c-0.8-12.8,7.3-15.8,6.3-18.3
		c-1-2.6-8.4-9.7-7.6-11.7c0.8-2.1,18.9-21.4,18.4-24.3c-0.5-2.8-6.7-10.5-4.4-13.5c2.3-3.1,5-8.7,3.1-15.8
		c-1.9-7.1-1.9-10.5-0.8-13.1c1.1-2.6,6-4.5,6.4-7.9c0.4-3.4-27-55.1-27-55.1s-10.1,0-15,2.6c-4.9,2.6-9,5.2-10.9,2.6
		c-1.9-2.6-3.8-7.5-5.6-6c-1.9,1.5-2.6,4.9-2.6,4.9s-2.2-34.5,0-37.1c2.2-2.6,3.8-4.9,3.8-8.2s-0.8-7.1-0.8-7.1s-16.5,17.3-22.1,18
		c-5.6,0.8-27,0.8-27,0.8s-3-14.3-10.5-16.9c-7.5-2.6-25.1-3-25.1-3s9-9,8.6-11.2c-0.4-2.2-20.6-22.9-21.7-25.9
		c-1.1-3,0.8-10.5-0.8-13.1c-1.5-2.6-14.2-8.6-13.1-10.5c1.1-1.9,1.9-5.3,4.1-5.3s6.4,1.9,6.4-1.5s-3.4-12.8-0.4-16.1
		c3-3.4,13.5-8.3,18-9.4s4.9-1.1,3.4-4.9c-1.5-3.8-4.1-8.6-3-12s7.1-9.7,7.1-13.1s-0.4-14.6,3.4-16.1c3.8-1.5,22.5-11.6,26.6-15
		c4.1-3.4,12-3.8,18-4.1c6-0.4,20.2-3.7,20.6-6c0.4-2.2,3-5.6,9-4.9c6,0.7,6.4,1.1,9.8,3.8c3.4,2.6,11.2,0.4,11.2,0.4
		s-6.8-13.1-10.5-13.5c-3.8-0.4-5.6-1.1-9.8-1.1c-4.1,0-6,1.9-4.1-1.9c1.9-3.8,20.6-31.5,19.9-33.4c-0.8-1.9-22.5-16.9-25.9-16.9
		s-8.6,5.2-12,4.9c-3.4-0.4-9.7-6.8-13.1-6.8s-12,8.3-17.3,8.3c-5.2,0-13.1-0.4-18.7-0.4s-12.8,0.8-12-4.1
		c0.8-4.9,2.6-12.8-0.8-13.9s-8.2,1.1-9.7-2.6c-1.5-3.8,0.7-13.1-3.8-15.8c-4.5-2.6-20.6-6.8-22.5-11.2c-1.9-4.5-5.2-16.1-12.7-21
		C277.8,4,267,0.3,262.1,0.6c-4.9,0.4-9.7,0-9.7,0s9.4,7.1,10.1,10.1c0.7,3,1.5,4.9,0.4,7.5s6.4,8.6,4.1,9.7s-8.3,0-8.6,4.9
		c-0.4,4.9-1.9,11.2-7.9,18.7c-6,7.5-19.9,25.1-30.4,29.2c-10.5,4.1-35.2,10.1-39,13.5c-3.7,3.4-9.4,15-11.6,15s-4.1-2.2-5.2,1.1
		s-3.8,15-7.9,20.2c-4.1,5.2-0.4,10.9-1.9,13.5c-1.5,2.6-4.9,1.5-6.8,5.6c-1.9,4.1,0,9.4-6,9.7c-6,0.4-10.5,0.4-12.4-4.9
		c-1.9-5.3-2.2-8.6-7.1-9.4c-4.9-0.7-7.1-0.4-9.7-3.4c-2.6-3-4.9-5.6-8.3-3c-3.4,2.6-6.8,9-7.9,6c-1.1-3,2.6-4.9,0.4-7.1
		s-5.6-3.8-3-6c2.6-2.2,7.5-0.4,8.6-4.5s-0.8-6,0.4-10.5S104.2,110.2,104.2,110.2L104.2,110.2z"/>
	<path class="st2" d="M582.1,337.1c-5.7,3-11.1,9.2-14.8,10.6c-3.7,1.4-22.1,14.1-26.3,14.1c-4.2,0-9.2,2.3-13.4,5.7
		c-4.2,3.5-4,3.5-9,4.2c-5,0.7-8.3-0.9-11.3,2.8c-3,3.7-2.3,5.7-5.7,7.1c-3.5,1.4-1.2,4.3-5.6,6.4c-4.3,2.1-4.3-0.7-8.5,5.6
		c-4.2,6.3-7.1,8.5-7.1,8.5s-4.7,3.5-8.3,3.5c-3.7,0-11.5-0.7-15.7,0.7c-4.2,1.4-7.1,4.2-10.6,4.2c-3.5,0-9.9-4.2-14.8-4.2
		c-4.9,0-8.5,2.8-14.1-0.7c-5.6-3.5-7.8-7.1-10.6-7.8c-2.8-0.7-10.4-11.3-15.5-14.1s-5-6.3-9.9-7c-4.9-0.7-12.7-3.8-15.5-2.3
		c-2.8,1.6-6.6,2.3-3.7,5.7c3,3.5,0,10.6,0,10.6 M413.4,123.2c0,0-6.4,3-9.9,3.7c-3.5,0.7-3.7-1.9-7.1-2.8
		c-3.5-0.9-7.1,0.5-11.3-2.3c-4.2-2.8-2.8-13.4-6.3-14.1c-3.5-0.7-11.5,5-17.7,5c-6.3,0-14.6-2.8-19.7-1.4c-5,1.4-7.8,2.1-8.5,7
		c-0.7,4.9,3.5,7.8-0.7,10.6c-4.2,2.8-7.1,2.6-7.8,5.6c-0.7,3-1.4,13.4-5.6,12.7c-4.2-0.7-5.7,11.5-8.5,12.9
		c-2.8,1.4-7.7,1.4-7.7,1.4s-0.9,11.3-3.7,14.8c-2.8,3.5-7.8,7.8-12,9.9c-4.2,2.1-7.8,5.6-12,7c-4.2,1.4-6.3,0.9-6.3,5
		c0,4.2-3,6.4-3,9.2c0,2.8,6.4,4.2,4.3,7.7c-2.1,3.5,0.9,9.2-3.5,11.3c-4.3,2.1-8.7,3.7-4.3,5.7c4.3,2.1,11.3,0,10.6,5.6
		c-0.7,5.6-2.1,12.7,0.7,14.1c2.8,1.4,10.6,9,13.4,13.4c2.8,4.3,6.6,8.5,4.3,11.3c-2.3,2.8-3,8.5-3,11.3c0,2.8,3.7,10.4,4.3,13.4
		c0.7,3,7,6.3,7,10.6c0,4.3,11.3,7.1,9.2,9.9c-2.1,2.8-4.9,9-2.1,14.1c2.8,5,5.6,7,5.6,12c0,5,4.5,10.6,2.3,12.7
		c-2.3,2.1-8.3,0.7-11.3,0c-3-0.7-9.9-0.9-7.8,2.1c2.1,3,9.2,18.4,9.2,18.4s-4.2,6.4-2.1,9.9c2.1,3.5,12.7,15.3,13.4,20.3
		c0.7,5,7,17,7,17l2.8,2.1c0,0,4.9,4.9,10.6,4.2c5.7-0.7,19,8.5,24.7,9.9c5.7,1.4,10.4,0.5,12,3.5c1.6,3,2.3,10.4,5,11.3
		c2.8,0.9,5.6-1.4,5.6,5.7c0,7.1,1.4,10.4-2.1,16.2c-3.5,5.7,0,7.7-2.8,12.7c-2.8,5-7.1,5-7.1,5 M315,150c-2.8-0.9-9.1-7.7-12.5-6.3
		c-3.5,1.4,1.4,6.4-4.2,6.4c-5.6,0-9.2-7.1-14.1-5c-4.9,2.1-5,5.7-10.6,7.1c-5.6,1.4-6.4-5-12.7,2.1c-3.7,4.3-5.6,7-7.3,8.9
		c-1.2,1.3-2.3,2.3-4,3.1c-4.2,2.1-14.8,15.7-12,19.1c2.8,3.5,12,10.6,11.3,14.8c-0.7,4.2,0.2,4.3-4.9,7.1c-5,2.8-10.6,4.2-10.6,4.2
		s-3,7.1-7.1,10.6c-4.2,3.5-9.9,4.7-9.2,8.3c0.7,3.7,7.3,8.5,3,10.6c-4.3,2.1-5.7,0.2-5.7,3.7c0,3.5,3,5.7,5.7,11.3
		c2.8,5.6,7.8,8.5,11.3,14.8c3.5,6.3,7,7.8,7,11.3c0,3.5-0.7,6.1,0,9c0.7,3,4.3,8.3,5,12.7c0.7,4.3,3.3,4.9-1.6,9.9
		c-4.9,5-4.2,7-7,11.3c-2.8,4.3-7.1,3.7-9.2,8.5s-2.1,11.3-2.1,11.3 M253.4,162.9c0,0-8.2,0.8-13.7-1.4c-5.6-2.3-3-4.3-10.6-4.3
		c-7.7,0-10.6-2.1-16.2-2.8s-16-0.5-17.6-4.9c-1.6-4.3-1.4-7.8-9.2-5.7c-7.8,2.1-18.4,6.3-21.2,13.4s-4.3,9-6.4,12.7
		c-2.1,3.7-9,14.3-6.3,17.7c2.8,3.5,9.2,5.7,10.6,10.6c1.4,4.9,4,12,7,14.1c3,2.1,7.1,11.3,7.1,14.8c0,3.5,7.1,11.5,7.8,17.7
		c0.7,6.3,2.1,11.3,2.8,15.5c0.7,4.2,3,3.7,7.8,9.9c4.9,6.3,9.2,20.5,12,22.6c2.8,2.1,7.7,4,7,9.7c-0.7,5.7,5,9.4,5,15
		c0,5.6-0.7,13.4-0.7,13.4"/>
	<path class="st3" d="M436.4,497c-1.1,3.8,0.8,6.4,0.5,8.5c-0.3,2.1-4.6,2.1-5.4,4.3c-0.8,2.2,3,2.5,6.2,4.1s9.8,3.1,9.8,5.2
		c0,2.1-1.6,4,0,5.4s8.3,2.2,9.6,1.9c1.3-0.3,4.9-2.7,5.7,0c0.8,2.7-2.2,4.3-2.2,7.9c0,3.6,4.1,7.7,5.5,5.2c1.4-2.5,0.1-5,2.2-6.6
		c2.1-1.6,12-4.9,9.3-6c-2.7-1.1-11.5,0.8-10.6-1.6c0.8-2.5,3.6-4.3,1.1-6.8c-2.5-2.5-9.3-10.1-12.3-12.3c-3-2.2-3.9-3.6-8-6.3
		c-4-2.7-4.6-5.7-7.1-5.1C438.3,495.4,436.4,497,436.4,497L436.4,497z"/>
	<path class="st1" d="M494.5,652.1c1.3-4,8.6-6.6,13-4.6s6.2,3.8,8.6,2c2.4-1.8,1.8-7.3,5.5-6.6c3.7,0.7,8.8,1.8,9.7,7.9
		c0.9,6.2,2.6,11.1,2.9,13.6c0.2,2.5,2,5.9-1.5,8.5c-3.5,2.6-7,4.3-11,4.1c0,0-2.6,2-4.3,0s-3.3-8.9-5.4-8.4
		c-2.1,0.6-3.5,6.8-4.2,8.4s0.2,3.4-0.7,5.6c-0.9,2.1-2.8,0.2-4.1-1c-1.2-1.2,0.1-6.6,1.6-10.4c1.5-3.8-1.1-7.6-1.6-3.8
		s-2.3,7-5.4,6.6c-3.1-0.4-3.1-5.6-3.1-10.7C494.5,658,493.2,656,494.5,652.1z"/>
	<path class="st3" d="M526.4,602.9c1.7-1,4.8,1.5,6.7,4.4c1.9,2.8,0.4,4.4,1.7,6.8c1.3,2.4,3.3,2,3.1,4.2c-0.2,2.2-0.6,7.4-3.1,6.6
		s-4.5-2.2-3.5-4.4c1-2.2,0.4-5-1.8-5.4c-2.2-0.4-5.4-0.5-6.6-1.3c-1.2-0.7-1.8-3.3,0-3.5c1.8-0.2,4.4-1.7,3.5-3
		C525.5,605.9,526.4,602.9,526.4,602.9z"/>
	<path class="st3" d="M510.4,708.7c-0.9,0.1-1.6,0.2-1.7,1.5c-0.1,1.3,0.2,2.8,1.3,2.7c1.1-0.1,1.9-0.5,2.6,0c0.7,0.5,0.7-0.5,0-1.1
		c-0.7-0.6-0.4-2-0.8-2.4C511.3,709,510.4,708.7,510.4,708.7z"/>
	<path class="st4" d="M512.1,746.5c0.9,0.3,2.1-0.2,2.1-1s-0.2-0.9-0.6-1C513.2,744.5,511.2,746.2,512.1,746.5z"/>
	<path class="st4" d="M521.6,579.3c-1.6,0-0.9,1.5-0.9,3.6s-1.7,2.8-0.8,4.3c0.8,1.5,2.3,1.2,2.5-0.8
		C522.5,584.4,523.2,579.3,521.6,579.3z"/>
	<path class="st4" d="M531.5,587c-2.3,0.3-0.7,4.8,0.9,4.5C534,591.1,533.8,586.7,531.5,587z"/>
	<path class="st5" d="M1021,327.6C669.5,302,498.9,533.3,498.9,533.3"/>
	<path class="st6" d="M498.9,533.3l-34.5-9.3l-31.9-5.9l-63-80.3 M369.6,437.8l12.7,93.4L271.5,480l-22.7-25.3l-14-21.4l-23.2-41
		L69,143.1"/>
	<line class="st6" x1="382.2" y1="531.2" x2="365.3" y2="508.6"/>
	<path class="st6" d="M498.6,532.8l38.2,48.2l3.9,87.6l-26.5-11.2c-4.4-1.9-9.4,1.4-9.3,6.2l0.3,42.9l12.8,34.2l22.8-72.2"/>
	<line class="st6" x1="517.4" y1="524.5" x2="498.9" y2="533.3"/>
	<line class="st6" x1="369.6" y1="437.8" x2="349.1" y2="418.8"/>
	<path d="M207.3,392c0-2.3,1.9-4.3,4.3-4.3c2.3,0,4.3,1.9,4.3,4.3c0,2.3-1.9,4.3-4.3,4.3C209.2,396.3,207.3,394.4,207.3,392
		L207.3,392z"/>
	<path d="M64.8,143.5c0-2.3,1.9-4.3,4.3-4.3c2.3,0,4.3,1.9,4.3,4.3c0,2.3-1.9,4.3-4.3,4.3C66.7,147.8,64.8,145.9,64.8,143.5
		L64.8,143.5z"/>
	<path d="M245.1,454.7c0-2.3,1.9-4.3,4.3-4.3s4.3,1.9,4.3,4.3c0,2.3-1.9,4.3-4.3,4.3S245.1,457.1,245.1,454.7L245.1,454.7z"/>
	<path d="M267.3,480c0-2.3,1.9-4.3,4.3-4.3s4.3,1.9,4.3,4.3c0,2.3-1.9,4.3-4.3,4.3S267.3,482.4,267.3,480L267.3,480z"/>
	<path d="M365.3,437.8c0-2.3,1.9-4.3,4.3-4.3c2.3,0,4.3,1.9,4.3,4.3c0,2.3-1.9,4.3-4.3,4.3C367.2,442,365.3,440.1,365.3,437.8
		L365.3,437.8z"/>
	<path d="M344.8,418.8c0-2.3,1.9-4.3,4.3-4.3c2.3,0,4.3,1.9,4.3,4.3c0,2.3-1.9,4.3-4.3,4.3C346.7,423,344.8,421.1,344.8,418.8
		L344.8,418.8z"/>
	<path d="M378,531.2c0-2.3,1.9-4.3,4.3-4.3c2.3,0,4.3,1.9,4.3,4.3c0,2.3-1.9,4.3-4.3,4.3C379.9,535.4,378,533.5,378,531.2L378,531.2
		z"/>
	<path d="M494.5,533.2c0-2.3,1.9-4.3,4.3-4.3c2.3,0,4.3,1.9,4.3,4.3c0,2.3-1.9,4.3-4.3,4.3C496.4,537.4,494.5,535.5,494.5,533.2
		L494.5,533.2z"/>
	<path d="M513.1,524.5c0-2.3,1.9-4.3,4.3-4.3c2.3,0,4.3,1.9,4.3,4.3c0,2.3-1.9,4.3-4.3,4.3C515,528.7,513.1,526.8,513.1,524.5
		L513.1,524.5z"/>
	<path d="M532.6,581.2c0-2.3,1.9-4.3,4.3-4.3c2.3,0,4.3,1.9,4.3,4.3c0,2.3-1.9,4.3-4.3,4.3C534.5,585.4,532.6,583.5,532.6,581.2
		L532.6,581.2z"/>
	<path d="M460.1,524c0-2.3,1.9-4.3,4.3-4.3c2.3,0,4.3,1.9,4.3,4.3c0,2.3-1.9,4.3-4.3,4.3C462,528.2,460.1,526.3,460.1,524L460.1,524
		z"/>
	<path d="M536.4,668.6c0-2.3,1.9-4.3,4.3-4.3c2.3,0,4.3,1.9,4.3,4.3c0,2.3-1.9,4.3-4.3,4.3C538.3,672.8,536.4,670.9,536.4,668.6
		L536.4,668.6z"/>
	<path d="M500.9,706.6c0-2.3,1.9-4.3,4.3-4.3c2.3,0,4.3,1.9,4.3,4.3c0,2.3-1.9,4.3-4.3,4.3C502.8,710.9,500.9,709,500.9,706.6
		L500.9,706.6z"/>
	<path d="M513.8,740.8c0-2.3,1.9-4.3,4.3-4.3c2.3,0,4.3,1.9,4.3,4.3c0,2.3-1.9,4.3-4.3,4.3C515.7,745,513.8,743.1,513.8,740.8
		L513.8,740.8z"/>
	<path d="M428.3,518.1c0-2.3,1.9-4.3,4.3-4.3c2.3,0,4.3,1.9,4.3,4.3c0,2.3-1.9,4.3-4.3,4.3C430.2,522.3,428.3,520.4,428.3,518.1
		L428.3,518.1z"/>
	<path d="M361.1,508.6c0-2.3,1.9-4.3,4.3-4.3c2.3,0,4.3,1.9,4.3,4.3c0,2.3-1.9,4.3-4.3,4.3C363,512.8,361.1,510.9,361.1,508.6
		L361.1,508.6z"/>
	<path d="M230.5,433.3c0-2.3,1.9-4.3,4.3-4.3s4.3,1.9,4.3,4.3c0,2.3-1.9,4.3-4.3,4.3S230.5,435.7,230.5,433.3L230.5,433.3z"/>
	<g>
		<path d="M583.2,476.7h5.4c2.2,0,3.6,0.7,3.6,2.8c0,1.1-0.6,1.9-1.6,2.4c1.4,0.4,2.1,1.5,2.1,2.9c0,2.3-2,3.3-4,3.3h-5.5V476.7z
			 M585.7,481.3h2.5c0.9,0,1.5-0.4,1.5-1.4c0-1.1-0.8-1.3-1.7-1.3h-2.4V481.3z M585.7,486.2h2.7c1,0,1.9-0.3,1.9-1.5
			c0-1.2-0.7-1.6-1.8-1.6h-2.7V486.2z"/>
		<path d="M602.8,476.4c3.5,0,5.6,2.6,5.6,6c0,3.3-2.1,5.9-5.6,5.9c-3.5,0-5.6-2.6-5.6-5.9C597.2,479.1,599.3,476.4,602.8,476.4z
			 M602.8,486.3c2.3,0,3.1-1.9,3.1-3.8c0-2-0.8-3.9-3.1-3.9s-3.1,1.9-3.1,3.9C599.7,484.4,600.6,486.3,602.8,486.3z"/>
		<path d="M613.3,476.7h2.5v9.3h5.6v2.1h-8.1V476.7z"/>
		<path d="M626,476.7h2.5v11.4H626V476.7z"/>
		<path d="M639.3,488.1h-2.8l-3.7-11.4h2.6l2.5,8h0l2.6-8h2.6L639.3,488.1z"/>
		<path d="M647.2,476.7h2.5v11.4h-2.5V476.7z"/>
		<path d="M655.1,476.7h8.5v2.1h-6v2.4h5.5v2h-5.5v2.8h6.2v2.1h-8.7V476.7z"/>
		<path d="M668.7,476.7h2.5l4.8,7.7h0v-7.7h2.4v11.4h-2.5l-4.8-7.7h0v7.7h-2.4V476.7z"/>
	</g>
	<g>
		<path d="M172.4,181.4h5.2c2.8,0,4,1.8,4,3.7s-1.1,3.7-4,3.7h-2.6v4.1h-2.5V181.4z M174.9,186.8h2c1.2,0,2.2-0.3,2.2-1.7
			s-1-1.7-2.2-1.7h-2V186.8z"/>
		<path d="M186.3,181.4h8.5v2.1h-6v2.4h5.5v2h-5.5v2.8h6.2v2.1h-8.7V181.4z"/>
		<path d="M199.8,181.4h6.2c2,0,3.3,1.4,3.3,3.2c0,1.3-0.5,2.4-1.8,2.9v0c1.2,0.3,1.6,1.5,1.7,2.7c0,0.7,0,2.1,0.5,2.7h-2.5
			c-0.3-0.7-0.3-1.8-0.4-2.7c-0.2-1.2-0.6-1.7-1.9-1.7h-2.5v4.5h-2.5V181.4z M202.4,186.6h2.8c1.1,0,1.7-0.5,1.7-1.6
			c0-1.1-0.6-1.6-1.7-1.6h-2.8V186.6z"/>
		<path d="M224.3,188.5c0,3.1-1.8,4.6-4.9,4.6c-3.1,0-4.9-1.5-4.9-4.6v-7.1h2.5v7.1c0,1.2,0.3,2.5,2.4,2.5c1.8,0,2.4-0.8,2.4-2.5
			v-7.1h2.5V188.5z"/>
	</g>
	<g>
		<path class="st7" d="M423.9,474.6v-8.6h1.7v7.1h3.1v1.4H423.9z"/>
		<path class="st7" d="M429.8,470.2V470c0-1.5,1-2,2.3-2c2,0,2.3,0.8,2.3,2v3.4c0,0.6,0,0.9,0.2,1.2h-1.6c-0.1-0.2-0.2-0.5-0.2-0.7
			h0c-0.4,0.7-0.9,0.8-1.6,0.8c-1.2,0-1.6-1-1.6-1.8c0-1.2,0.5-1.7,1.6-2l0.9-0.3c0.5-0.1,0.7-0.3,0.7-0.8c0-0.5-0.2-0.8-0.8-0.8
			c-0.5,0-0.8,0.3-0.8,0.8v0.2H429.8z M432.9,471.4c-0.2,0.2-0.5,0.3-0.7,0.3c-0.7,0.1-0.9,0.5-0.9,1c0,0.5,0.2,0.9,0.6,0.9
			s1-0.3,1-1V471.4z"/>
		<path class="st7" d="M440.9,468.2v6.1c0,1.7-0.8,2.5-2.7,2.5c-1.4,0-2.2-0.6-2.2-1.7h1.6c0,0.2,0.1,0.4,0.3,0.5s0.3,0.2,0.6,0.2
			c0.7,0,0.9-0.5,0.9-1.2v-0.9h0c-0.3,0.5-0.9,0.8-1.4,0.8c-1.3,0-2-0.9-2-3.3c0-1.5,0.2-3.3,2-3.3c0.5,0,1,0.2,1.3,0.9h0v-0.7
			H440.9z M438.5,473.3c0.7,0,0.9-0.8,0.9-1.8c0-1.6-0.2-2.2-0.9-2.2c-0.7,0-0.9,0.6-0.9,2.3C437.6,472.5,437.8,473.3,438.5,473.3z"
			/>
		<path class="st7" d="M444.9,468c2,0,2.5,1.2,2.5,3.4c0,2.2-0.6,3.4-2.5,3.4c-2,0-2.5-1.2-2.5-3.4C442.4,469.2,443,468,444.9,468z
			 M444.9,473.7c0.7,0,0.9-0.7,0.9-2.3c0-1.6-0.2-2.3-0.9-2.3c-0.8,0-0.9,0.9-0.9,2.3S444.1,473.7,444.9,473.7z"/>
		<path class="st7" d="M422.3,478.1v1.4h-1.9v7.1h-1.7v-7.1h-1.9v-1.4H422.3z"/>
		<path class="st7" d="M423.5,478h1.7v1.4h-1.7V478z M423.5,480.2h1.7v6.5h-1.7V480.2z"/>
		<path class="st7" d="M427.2,478.3h1.7v1.8h1v1.1h-1v3.5c0,0.5,0.1,0.7,0.6,0.7c0.1,0,0.3,0,0.4,0v1.2c-0.4,0-0.7,0.1-1.1,0.1
			c-1.3,0-1.5-0.4-1.5-1.7v-3.7h-0.8v-1.1h0.8V478.3z"/>
		<path class="st7" d="M430.9,478h1.7v1.4h-1.7V478z M430.9,480.2h1.7v6.5h-1.7V480.2z"/>
		<path class="st7" d="M437.3,482.5c0-0.6-0.1-1.3-0.7-1.3c-0.8,0-0.9,0.7-0.9,2.2c0,1.6,0.1,2.3,0.9,2.3c0.6,0,0.8-0.5,0.8-1.5h1.6
			c0,1.7-0.7,2.6-2.5,2.6c-1.7,0-2.5-0.8-2.5-3.4c0-2.7,1.1-3.4,2.6-3.4s2.3,1,2.3,2.5H437.3z"/>
		<path class="st7" d="M440.2,482.2V482c0-1.5,1-2,2.3-2c2,0,2.3,0.8,2.3,2v3.4c0,0.6,0,0.9,0.2,1.2h-1.6c-0.1-0.2-0.2-0.5-0.2-0.7
			h0c-0.4,0.7-0.9,0.8-1.6,0.8c-1.2,0-1.6-1-1.6-1.8c0-1.2,0.5-1.7,1.6-2l0.9-0.3c0.5-0.1,0.7-0.3,0.7-0.8c0-0.5-0.2-0.8-0.8-0.8
			c-0.5,0-0.8,0.3-0.8,0.8v0.2H440.2z M443.3,483.4c-0.2,0.2-0.5,0.3-0.7,0.3c-0.7,0.1-0.9,0.5-0.9,1c0,0.5,0.2,0.9,0.6,0.9
			s1-0.3,1-1V483.4z"/>
		<path class="st7" d="M449.6,482.5c0-0.6-0.1-1.3-0.7-1.3c-0.8,0-0.9,0.7-0.9,2.2c0,1.6,0.1,2.3,0.9,2.3c0.6,0,0.8-0.5,0.8-1.5h1.6
			c0,1.7-0.7,2.6-2.5,2.6c-1.7,0-2.5-0.8-2.5-3.4c0-2.7,1.1-3.4,2.6-3.4c1.5,0,2.3,1,2.3,2.5H449.6z"/>
		<path class="st7" d="M452.5,482.2V482c0-1.5,1-2,2.3-2c2,0,2.3,0.8,2.3,2v3.4c0,0.6,0,0.9,0.2,1.2h-1.6c-0.1-0.2-0.2-0.5-0.2-0.7
			h0c-0.4,0.7-0.9,0.8-1.6,0.8c-1.2,0-1.6-1-1.6-1.8c0-1.2,0.5-1.7,1.6-2l0.9-0.3c0.5-0.1,0.7-0.3,0.7-0.8c0-0.5-0.2-0.8-0.8-0.8
			c-0.5,0-0.8,0.3-0.8,0.8v0.2H452.5z M455.5,483.4c-0.2,0.2-0.5,0.3-0.7,0.3c-0.7,0.1-0.9,0.5-0.9,1c0,0.5,0.2,0.9,0.6,0.9
			s1-0.3,1-1V483.4z"/>
	</g>
	<g>
		<g>
			<path class="st8" d="M385.2,720.7v-11.4h2.3v9.5h4.1v1.9H385.2z"/>
			<path class="st8" d="M393.2,714.7v-0.2c0-2,1.4-2.7,3-2.7c2.6,0,3.1,1.1,3.1,2.6v4.5c0,0.8,0,1.2,0.3,1.7h-2.1
				c-0.1-0.3-0.2-0.6-0.3-0.9h0c-0.5,0.9-1.1,1.1-2.2,1.1c-1.5,0-2.1-1.3-2.1-2.5c0-1.6,0.7-2.3,2.2-2.7l1.2-0.3
				c0.7-0.2,0.9-0.4,0.9-1c0-0.7-0.3-1.1-1-1.1c-0.7,0-1,0.4-1,1.1v0.2H393.2z M397.2,716.4c-0.3,0.2-0.7,0.4-0.9,0.4
				c-0.9,0.2-1.2,0.6-1.2,1.4c0,0.7,0.2,1.2,0.8,1.2c0.6,0,1.4-0.4,1.4-1.3V716.4z"/>
			<path class="st8" d="M408,712.1v8.2c0,2.3-1,3.4-3.6,3.4c-1.9,0-2.9-0.8-2.9-2.3h2.1c0,0.3,0.1,0.5,0.3,0.7
				c0.2,0.1,0.5,0.2,0.7,0.2c0.9,0,1.2-0.7,1.2-1.6v-1.1h0c-0.4,0.6-1.1,1.1-1.8,1.1c-1.8,0-2.6-1.2-2.6-4.4c0-2,0.3-4.4,2.7-4.4
				c0.6,0,1.4,0.3,1.8,1.2h0v-1H408z M404.7,718.9c0.9,0,1.2-1,1.2-2.5c0-2.1-0.3-2.9-1.2-2.9c-1,0-1.2,0.8-1.2,3.1
				C403.6,717.8,403.7,718.9,404.7,718.9z"/>
			<path class="st8" d="M414.6,719.7L414.6,719.7c-0.5,0.8-1.3,1.2-2.2,1.2c-1.4,0-2.2-0.8-2.2-2.4v-6.4h2.2v5.9
				c0,0.9,0.3,1.2,0.9,1.2c0.8,0,1.2-0.5,1.2-1.4v-5.7h2.2v8.6h-2.1V719.7z"/>
			<path class="st8" d="M418.8,712.1h2.1v1h0c0.5-0.8,1.3-1.2,2.2-1.2c1.4,0,2.2,0.8,2.2,2.4v6.4h-2.2v-5.9c0-0.9-0.3-1.2-0.9-1.2
				c-0.8,0-1.2,0.5-1.2,1.4v5.7h-2.2V712.1z"/>
			<path class="st8" d="M427.4,714.7v-0.2c0-2,1.4-2.7,3-2.7c2.6,0,3.1,1.1,3.1,2.6v4.5c0,0.8,0,1.2,0.3,1.7h-2.1
				c-0.1-0.3-0.2-0.6-0.3-0.9h0c-0.5,0.9-1.1,1.1-2.2,1.1c-1.5,0-2.1-1.3-2.1-2.5c0-1.6,0.7-2.3,2.2-2.7l1.2-0.3
				c0.7-0.2,0.9-0.4,0.9-1c0-0.7-0.3-1.1-1-1.1c-0.7,0-1,0.4-1,1.1v0.2H427.4z M431.5,716.4c-0.3,0.2-0.7,0.4-0.9,0.4
				c-0.9,0.2-1.2,0.6-1.2,1.4c0,0.7,0.2,1.2,0.8,1.2c0.6,0,1.4-0.4,1.4-1.3V716.4z"/>
			<path class="st8" d="M445.2,713.1c0-1.7-0.3-2.4-1.4-2.4c-1.2,0-1.4,1.2-1.4,4.4c0,3.5,0.5,4.1,1.5,4.1c0.8,0,1.4-0.4,1.4-2.9
				h2.3c0,2.5-0.6,4.6-3.6,4.6c-3.5,0-3.9-2.5-3.9-5.9s0.4-5.9,3.9-5.9c3.3,0,3.5,2.4,3.5,4.1H445.2z"/>
			<path class="st8" d="M452.6,711.8c2.7,0,3.4,1.5,3.4,4.5c0,2.9-0.9,4.5-3.4,4.5c-2.7,0-3.4-1.5-3.4-4.5
				C449.2,713.4,450.1,711.8,452.6,711.8z M452.6,719.4c0.9,0,1.2-0.9,1.2-3c0-2.1-0.3-3-1.2-3c-1.1,0-1.2,1.3-1.2,3
				S451.5,719.4,452.6,719.4z"/>
			<path class="st8" d="M457.9,709.2h2.2v11.4h-2.2V709.2z"/>
			<path class="st8" d="M465.4,711.8c2.7,0,3.4,1.5,3.4,4.5c0,2.9-0.9,4.5-3.4,4.5c-2.7,0-3.4-1.5-3.4-4.5
				C462,713.4,462.9,711.8,465.4,711.8z M465.4,719.4c0.9,0,1.2-0.9,1.2-3c0-2.1-0.3-3-1.2-3c-1.1,0-1.2,1.3-1.2,3
				S464.3,719.4,465.4,719.4z"/>
			<path class="st8" d="M470.6,712.1h2.1v1.2h0c0.4-0.8,1.1-1.4,2-1.4c0.1,0,0.3,0,0.4,0v2.1c-0.2,0-0.5,0-0.7,0
				c-0.8,0-1.6,0.4-1.6,1.6v5.2h-2.2V712.1z"/>
			<path class="st8" d="M476.6,714.7v-0.2c0-2,1.4-2.7,3-2.7c2.6,0,3.1,1.1,3.1,2.6v4.5c0,0.8,0,1.2,0.3,1.7h-2.1
				c-0.1-0.3-0.2-0.6-0.3-0.9h0c-0.5,0.9-1.1,1.1-2.2,1.1c-1.5,0-2.1-1.3-2.1-2.5c0-1.6,0.7-2.3,2.2-2.7l1.2-0.3
				c0.7-0.2,0.9-0.4,0.9-1c0-0.7-0.3-1.1-1-1.1c-0.7,0-1,0.4-1,1.1v0.2H476.6z M480.6,716.4c-0.3,0.2-0.7,0.4-0.9,0.4
				c-0.9,0.2-1.2,0.6-1.2,1.4c0,0.7,0.2,1.2,0.8,1.2c0.6,0,1.4-0.4,1.4-1.3V716.4z"/>
			<path class="st8" d="M489.3,719.8L489.3,719.8c-0.5,0.8-1.1,1.1-2,1.1c-1.8,0-2.6-1.3-2.6-4.5s0.8-4.5,2.6-4.5
				c0.8,0,1.4,0.3,1.9,1h0v-3.6h2.2v11.4h-2.1V719.8z M488.1,719.2c1,0,1.2-1,1.2-2.8s-0.2-2.8-1.2-2.8c-1,0-1.2,1-1.2,2.8
				S487.1,719.2,488.1,719.2z"/>
			<path class="st8" d="M493.5,714.7v-0.2c0-2,1.4-2.7,3-2.7c2.6,0,3.1,1.1,3.1,2.6v4.5c0,0.8,0,1.2,0.3,1.7h-2.1
				c-0.1-0.3-0.2-0.6-0.3-0.9h0c-0.5,0.9-1.1,1.1-2.2,1.1c-1.5,0-2.1-1.3-2.1-2.5c0-1.6,0.7-2.3,2.2-2.7l1.2-0.3
				c0.7-0.2,0.9-0.4,0.9-1c0-0.7-0.3-1.1-1-1.1c-0.7,0-1,0.4-1,1.1v0.2H493.5z M497.6,716.4c-0.3,0.2-0.7,0.4-0.9,0.4
				c-0.9,0.2-1.2,0.6-1.2,1.4c0,0.7,0.2,1.2,0.8,1.2c0.6,0,1.4-0.4,1.4-1.3V716.4z"/>
		</g>
	</g>
	<g>
		<g>
			<path class="st8" d="M525.8,753.6v-11.4h2.3v9.5h4.1v1.9H525.8z"/>
			<path class="st8" d="M533.8,747.6v-0.2c0-2,1.4-2.7,3-2.7c2.6,0,3.1,1.1,3.1,2.6v4.5c0,0.8,0,1.2,0.3,1.7h-2.1
				c-0.1-0.3-0.2-0.6-0.3-0.9h0c-0.5,0.9-1.1,1.1-2.2,1.1c-1.5,0-2.1-1.3-2.1-2.5c0-1.6,0.7-2.3,2.2-2.7l1.2-0.3
				c0.7-0.2,0.9-0.4,0.9-1c0-0.7-0.3-1.1-1-1.1c-0.7,0-1,0.4-1,1.1v0.2H533.8z M537.8,749.3c-0.3,0.2-0.7,0.4-0.9,0.4
				c-0.9,0.2-1.2,0.6-1.2,1.4c0,0.7,0.2,1.2,0.8,1.2c0.6,0,1.4-0.4,1.4-1.3V749.3z"/>
			<path class="st8" d="M548.6,745v8.2c0,2.3-1,3.4-3.6,3.4c-1.9,0-2.9-0.8-2.9-2.3h2.1c0,0.3,0.1,0.5,0.3,0.7
				c0.2,0.1,0.5,0.2,0.7,0.2c0.9,0,1.2-0.7,1.2-1.6v-1.1h0c-0.4,0.6-1.1,1.1-1.8,1.1c-1.8,0-2.6-1.2-2.6-4.4c0-2,0.3-4.4,2.7-4.4
				c0.6,0,1.4,0.3,1.8,1.2h0v-1H548.6z M545.3,751.8c0.9,0,1.2-1,1.2-2.5c0-2.1-0.3-2.9-1.2-2.9c-1,0-1.2,0.8-1.2,3.1
				C544.2,750.8,544.3,751.8,545.3,751.8z"/>
			<path class="st8" d="M555.2,752.6L555.2,752.6c-0.5,0.8-1.3,1.2-2.2,1.2c-1.4,0-2.2-0.8-2.2-2.4V745h2.2v5.9
				c0,0.9,0.3,1.2,0.9,1.2c0.8,0,1.2-0.5,1.2-1.4V745h2.2v8.6h-2.1V752.6z"/>
			<path class="st8" d="M559.4,745h2.1v1h0c0.5-0.8,1.3-1.2,2.2-1.2c1.4,0,2.2,0.8,2.2,2.4v6.4h-2.2v-5.9c0-0.9-0.3-1.2-0.9-1.2
				c-0.8,0-1.2,0.5-1.2,1.4v5.7h-2.2V745z"/>
			<path class="st8" d="M568,747.6v-0.2c0-2,1.4-2.7,3-2.7c2.6,0,3.1,1.1,3.1,2.6v4.5c0,0.8,0,1.2,0.3,1.7h-2.1
				c-0.1-0.3-0.2-0.6-0.3-0.9h0c-0.5,0.9-1.1,1.1-2.2,1.1c-1.5,0-2.1-1.3-2.1-2.5c0-1.6,0.7-2.3,2.2-2.7l1.2-0.3
				c0.7-0.2,0.9-0.4,0.9-1c0-0.7-0.3-1.1-1-1.1c-0.7,0-1,0.4-1,1.1v0.2H568z M572.1,749.3c-0.3,0.2-0.7,0.4-0.9,0.4
				c-0.9,0.2-1.2,0.6-1.2,1.4c0,0.7,0.2,1.2,0.8,1.2c0.6,0,1.4-0.4,1.4-1.3V749.3z"/>
			<path class="st8" d="M582.6,742.2l1.6,8.5h0l1.7-8.5h2.4l-2.6,11.4h-3l-2.6-11.4H582.6z"/>
			<path class="st8" d="M591.7,749.6v0.7c0,1,0.3,2,1.1,2c0.7,0,1-0.6,1.2-1.6h2c-0.1,2-1,3.1-3.1,3.1c-3.2,0-3.3-2.5-3.3-4.6
				c0-2.3,0.4-4.4,3.4-4.4c2.6,0,3.2,1.7,3.2,4.4v0.5H591.7z M593.9,748.3c0-1.3-0.2-2-1.1-2c-0.9,0-1.1,0.9-1.1,1.7v0.3H593.9z"/>
			<path class="st8" d="M597.9,745h2.1v1.2h0c0.4-0.8,1.1-1.4,2-1.4c0.1,0,0.3,0,0.4,0v2.1c-0.2,0-0.5,0-0.7,0
				c-0.8,0-1.6,0.4-1.6,1.6v5.2h-2.2V745z"/>
			<path class="st8" d="M608.2,752.7L608.2,752.7c-0.5,0.8-1.1,1.1-2,1.1c-1.8,0-2.6-1.3-2.6-4.5s0.8-4.5,2.6-4.5
				c0.8,0,1.4,0.3,1.9,1h0v-3.6h2.2v11.4h-2.1V752.7z M607,752.1c1,0,1.2-1,1.2-2.8s-0.2-2.8-1.2-2.8c-1,0-1.2,1-1.2,2.8
				S606,752.1,607,752.1z"/>
			<path class="st8" d="M614.3,749.6v0.7c0,1,0.3,2,1.1,2c0.7,0,1-0.6,1.2-1.6h2c-0.1,2-1,3.1-3.1,3.1c-3.2,0-3.3-2.5-3.3-4.6
				c0-2.3,0.4-4.4,3.4-4.4c2.6,0,3.2,1.7,3.2,4.4v0.5H614.3z M616.6,748.3c0-1.3-0.2-2-1.1-2c-0.9,0-1.1,0.9-1.1,1.7v0.3H616.6z"/>
		</g>
	</g>
	<g>
		<path class="st7" d="M511.4,378.9h3.2c1.4,0,2.3,0.7,2.3,2.2c0,1.1-0.5,1.9-1.4,2.1v0c1.2,0.2,1.4,0.8,1.4,2.6
			c0,0.9,0.1,1.4,0.4,1.5v0.1h-1.9c-0.2-0.2-0.2-0.6-0.2-0.9l0-1.6c0-0.7-0.3-1.1-1-1.1h-0.9v3.6h-1.7V378.9z M513.1,382.6h0.7
			c0.8,0,1.3-0.4,1.3-1.3c0-0.8-0.4-1.2-1.2-1.2h-0.8V382.6z"/>
		<path class="st7" d="M518.5,378.8h1.7v1.4h-1.7V378.8z M518.5,381h1.7v6.5h-1.7V381z"/>
		<path class="st7" d="M524.1,380.8c2,0,2.5,1.2,2.5,3.4c0,2.2-0.6,3.4-2.5,3.4c-2,0-2.5-1.2-2.5-3.4
			C521.6,382,522.3,380.8,524.1,380.8z M524.1,386.5c0.7,0,0.9-0.7,0.9-2.3c0-1.6-0.2-2.3-0.9-2.3c-0.8,0-0.9,0.9-0.9,2.3
			S523.3,386.5,524.1,386.5z"/>
		<path class="st7" d="M531.5,378.9h2.6l1.2,6h0l1.2-6h2.6v8.6h-1.6v-6.8h0l-1.5,6.8h-1.3l-1.5-6.8h0v6.8h-1.6V378.9z"/>
		<path class="st7" d="M540.8,383v-0.2c0-1.5,1-2,2.3-2c2,0,2.3,0.8,2.3,2v3.4c0,0.6,0,0.9,0.2,1.2H544c-0.1-0.2-0.2-0.5-0.2-0.7h0
			c-0.4,0.7-0.9,0.8-1.6,0.8c-1.2,0-1.6-1-1.6-1.8c0-1.2,0.5-1.7,1.6-2l0.9-0.3c0.5-0.1,0.7-0.3,0.7-0.8c0-0.5-0.2-0.8-0.8-0.8
			c-0.5,0-0.8,0.3-0.8,0.8v0.2H540.8z M543.8,384.2c-0.2,0.2-0.5,0.3-0.7,0.3c-0.7,0.1-0.9,0.5-0.9,1c0,0.5,0.2,0.9,0.6,0.9
			c0.4,0,1-0.3,1-1V384.2z"/>
		<path class="st7" d="M550.3,386.7L550.3,386.7c-0.4,0.6-0.8,0.9-1.5,0.9c-1.4,0-2-1-2-3.4c0-2.4,0.6-3.4,2-3.4
			c0.6,0,1,0.3,1.4,0.8h0v-2.7h1.7v8.6h-1.6V386.7z M549.4,386.3c0.7,0,0.9-0.7,0.9-2.1s-0.1-2.1-0.9-2.1c-0.7,0-0.9,0.7-0.9,2.1
			S548.7,386.3,549.4,386.3z"/>
		<path class="st7" d="M553.5,381h1.6v0.9h0c0.3-0.6,0.8-1,1.5-1c0.1,0,0.2,0,0.3,0v1.6c-0.2,0-0.3,0-0.5,0c-0.6,0-1.2,0.3-1.2,1.2
			v3.9h-1.7V381z"/>
		<path class="st7" d="M559.4,384.4v0.5c0,0.8,0.2,1.5,0.8,1.5c0.6,0,0.8-0.4,0.9-1.2h1.5c-0.1,1.5-0.8,2.3-2.3,2.3
			c-2.4,0-2.5-1.8-2.5-3.5c0-1.7,0.3-3.3,2.6-3.3c1.9,0,2.4,1.3,2.4,3.3v0.4H559.4z M561.1,383.5c0-1-0.2-1.5-0.8-1.5
			c-0.7,0-0.9,0.7-0.9,1.3v0.3H561.1z"/>
		<path class="st7" d="M521.7,398.7L521.7,398.7c-0.4,0.6-0.8,0.9-1.5,0.9c-1.4,0-2-1-2-3.4c0-2.4,0.6-3.4,2-3.4
			c0.6,0,1,0.3,1.4,0.8h0v-2.7h1.7v8.6h-1.6V398.7z M520.7,398.3c0.7,0,0.9-0.7,0.9-2.1s-0.1-2.1-0.9-2.1c-0.7,0-0.9,0.7-0.9,2.1
			S520,398.3,520.7,398.3z"/>
		<path class="st7" d="M526.2,396.4v0.5c0,0.8,0.2,1.5,0.8,1.5c0.6,0,0.8-0.4,0.9-1.2h1.5c-0.1,1.5-0.8,2.3-2.3,2.3
			c-2.4,0-2.5-1.8-2.5-3.5c0-1.7,0.3-3.3,2.6-3.3c1.9,0,2.4,1.3,2.4,3.3v0.4H526.2z M527.9,395.5c0-1-0.2-1.5-0.8-1.5
			c-0.7,0-0.9,0.7-0.9,1.3v0.3H527.9z"/>
		<path class="st7" d="M534.4,390.9h2.8c2.4,0,2.8,1.6,2.8,4.2c0,3-0.6,4.4-2.9,4.4h-2.7V390.9z M536.1,398.2h0.8
			c1.2,0,1.4-0.8,1.4-3.1c0-1.9-0.2-2.9-1.5-2.9h-0.7V398.2z"/>
		<path class="st7" d="M541.6,390.8h1.7v1.4h-1.7V390.8z M541.6,393h1.7v6.5h-1.7V393z"/>
		<path class="st7" d="M547.3,392.8c2,0,2.5,1.2,2.5,3.4c0,2.2-0.6,3.4-2.5,3.4c-2,0-2.5-1.2-2.5-3.4
			C544.7,394,545.4,392.8,547.3,392.8z M547.3,398.5c0.7,0,0.9-0.7,0.9-2.3c0-1.6-0.2-2.3-0.9-2.3c-0.8,0-0.9,0.9-0.9,2.3
			S546.5,398.5,547.3,398.5z"/>
		<path class="st7" d="M552.4,397.3v0.2c0,0.6,0.3,0.9,0.9,0.9c0.5,0,0.8-0.3,0.8-0.8c0-0.4-0.3-0.6-0.6-0.7l-1.2-0.4
			c-0.9-0.3-1.4-0.9-1.4-1.8c0-1.1,0.7-1.9,2.4-1.9c1.5,0,2.2,0.7,2.2,1.8v0.3h-1.5c0-0.6-0.2-1-0.7-1c-0.4,0-0.8,0.2-0.8,0.7
			c0,0.3,0.2,0.6,0.7,0.8l1,0.3c1,0.3,1.4,0.9,1.4,1.8c0,1.4-1,2-2.4,2c-1.9,0-2.4-0.8-2.4-2.1v-0.2H552.4z"/>
	</g>
	<g>
		<path class="st7" d="M349,94h2.1l2.3,8.6h-1.8l-0.4-1.8h-2.3l-0.4,1.8h-1.8L349,94z M349.2,99.4h1.7l-0.8-3.9h0L349.2,99.4z"/>
		<path class="st7" d="M354.4,96.1h1.6v0.7h0c0.4-0.6,0.9-0.8,1.6-0.8c0.8,0,1.3,0.4,1.5,1h0c0.3-0.7,0.9-1,1.6-1
			c1.1,0,1.6,0.7,1.6,1.9v4.7h-1.7v-4.5c0-0.5-0.2-0.8-0.6-0.8c-0.5,0-0.9,0.4-0.9,1.1v4.2h-1.7v-4.5c0-0.5-0.2-0.8-0.6-0.8
			c-0.5,0-0.9,0.4-0.9,1.1v4.2h-1.7V96.1z"/>
		<path class="st7" d="M364,98.1V98c0-1.5,1-2,2.3-2c2,0,2.3,0.8,2.3,2v3.4c0,0.6,0,0.9,0.2,1.2h-1.6c-0.1-0.2-0.2-0.5-0.2-0.7h0
			c-0.4,0.7-0.9,0.8-1.6,0.8c-1.2,0-1.6-1-1.6-1.8c0-1.2,0.5-1.7,1.6-2l0.9-0.3c0.5-0.1,0.7-0.3,0.7-0.8c0-0.5-0.2-0.8-0.8-0.8
			c-0.5,0-0.8,0.3-0.8,0.8v0.2H364z M367,99.4c-0.2,0.2-0.5,0.3-0.7,0.3c-0.7,0.1-0.9,0.5-0.9,1c0,0.5,0.2,0.9,0.6,0.9
			c0.4,0,1-0.3,1-1V99.4z"/>
		<path class="st7" d="M370,101.3l2.6-3.8h-2.5v-1.3h4.4v1.3l-2.6,3.8h2.6v1.3H370V101.3z"/>
		<path class="st7" d="M378.2,96c2,0,2.5,1.2,2.5,3.4c0,2.2-0.6,3.4-2.5,3.4c-2,0-2.5-1.2-2.5-3.4C375.6,97.2,376.3,96,378.2,96z
			 M378.2,101.6c0.7,0,0.9-0.7,0.9-2.3c0-1.6-0.2-2.3-0.9-2.3c-0.8,0-0.9,0.9-0.9,2.3S377.3,101.6,378.2,101.6z"/>
		<path class="st7" d="M382.1,96.1h1.6v0.8h0c0.3-0.6,0.9-0.9,1.6-0.9c1,0,1.6,0.6,1.6,1.8v4.8h-1.7v-4.4c0-0.6-0.2-0.9-0.7-0.9
			c-0.6,0-0.9,0.3-0.9,1.1v4.3h-1.7V96.1z"/>
		<path class="st7" d="M388.5,98.1V98c0-1.5,1-2,2.3-2c2,0,2.3,0.8,2.3,2v3.4c0,0.6,0,0.9,0.2,1.2h-1.6c-0.1-0.2-0.2-0.5-0.2-0.7h0
			c-0.4,0.7-0.9,0.8-1.6,0.8c-1.2,0-1.6-1-1.6-1.8c0-1.2,0.5-1.7,1.6-2l0.9-0.3c0.5-0.1,0.7-0.3,0.7-0.8c0-0.5-0.2-0.8-0.8-0.8
			c-0.5,0-0.8,0.3-0.8,0.8v0.2H388.5z M391.6,99.4c-0.2,0.2-0.5,0.3-0.7,0.3c-0.7,0.1-0.9,0.5-0.9,1c0,0.5,0.2,0.9,0.6,0.9
			c0.4,0,1-0.3,1-1V99.4z"/>
		<path class="st7" d="M396,100.5v0.2c0,0.6,0.3,0.9,0.9,0.9c0.5,0,0.8-0.3,0.8-0.8c0-0.4-0.3-0.6-0.6-0.7l-1.2-0.4
			c-0.9-0.3-1.4-0.9-1.4-1.8c0-1.1,0.7-1.9,2.4-1.9c1.5,0,2.2,0.7,2.2,1.8v0.3h-1.5c0-0.6-0.2-1-0.7-1c-0.4,0-0.8,0.2-0.8,0.7
			c0,0.3,0.2,0.6,0.7,0.8l1,0.3c1,0.3,1.4,0.9,1.4,1.8c0,1.4-1,2-2.4,2c-1.9,0-2.4-0.8-2.4-2.1v-0.2H396z"/>
	</g>
	<g>
		<path class="st8" d="M174.5,408v-11.4h2.3v9.5h4.1v1.9H174.5z"/>
		<path class="st8" d="M182.6,396.5h2.2v1.9h-2.2V396.5z M182.6,399.4h2.2v8.6h-2.2V399.4z"/>
		<path class="st8" d="M187,399.4h2.1v0.9h0c0.6-0.8,1.2-1.1,2.2-1.1c1,0,1.7,0.5,2,1.4h0c0.3-0.9,1.1-1.4,2.2-1.4
			c1.5,0,2.1,0.9,2.1,2.6v6.3h-2.2v-6c0-0.7-0.2-1.1-0.9-1.1c-0.7,0-1.2,0.5-1.2,1.5v5.7h-2.2v-6c0-0.7-0.2-1.1-0.9-1.1
			c-0.7,0-1.2,0.5-1.2,1.5v5.7H187V399.4z"/>
		<path class="st8" d="M199.7,402.1v-0.2c0-2,1.4-2.7,3-2.7c2.6,0,3.1,1.1,3.1,2.6v4.5c0,0.8,0,1.2,0.3,1.7H204
			c-0.1-0.3-0.2-0.6-0.3-0.9h0c-0.5,0.9-1.1,1.1-2.2,1.1c-1.5,0-2.1-1.3-2.1-2.5c0-1.6,0.7-2.3,2.2-2.7l1.2-0.3
			c0.7-0.2,0.9-0.4,0.9-1c0-0.7-0.3-1.1-1-1.1c-0.7,0-1,0.4-1,1.1v0.2H199.7z M203.7,403.7c-0.3,0.2-0.7,0.4-0.9,0.4
			c-0.9,0.2-1.2,0.6-1.2,1.4c0,0.7,0.2,1.2,0.8,1.2c0.6,0,1.4-0.4,1.4-1.3V403.7z"/>
	</g>
	<g>
		<path class="st8" d="M191.2,432.3h4c2.3,0,3.1,1.7,3.1,3.4c0,2.4-1.5,3.4-3.6,3.4h-1.2v4.6h-2.3V432.3z M193.5,437.4h1
			c0.9,0,1.5-0.5,1.5-1.7c0-1.1-0.4-1.8-1.6-1.8h-1V437.4z"/>
		<path class="st8" d="M200.2,432.1h2.2v1.9h-2.2V432.1z M200.2,435.1h2.2v8.6h-2.2V435.1z"/>
		<path class="st8" d="M206.2,440.9v0.3c0,0.8,0.4,1.2,1.2,1.2c0.7,0,1.1-0.3,1.1-1c0-0.6-0.4-0.8-0.8-1l-1.6-0.6
			c-1.2-0.4-1.8-1.2-1.8-2.4c0-1.4,0.9-2.6,3.2-2.6c2,0,2.9,0.9,2.9,2.4v0.4h-2c0-0.9-0.3-1.3-1-1.3c-0.6,0-1,0.3-1,0.9
			c0,0.4,0.2,0.8,1,1l1.3,0.4c1.4,0.5,1.9,1.2,1.9,2.5c0,1.8-1.3,2.7-3.2,2.7c-2.5,0-3.2-1.1-3.2-2.7v-0.3H206.2z"/>
		<path class="st8" d="M216.5,438.2c0-0.8-0.2-1.7-1-1.7c-1.1,0-1.3,1-1.3,2.9c0,2.1,0.2,3,1.2,3c0.7,0,1.1-0.6,1.1-2h2.1
			c0,2.3-0.9,3.5-3.3,3.5c-2.2,0-3.3-1.1-3.3-4.5c0-3.5,1.5-4.5,3.5-4.5c2,0,3.1,1.3,3.1,3.3H216.5z"/>
		<path class="st8" d="M223.5,434.8c2.7,0,3.4,1.5,3.4,4.5c0,2.9-0.9,4.5-3.4,4.5c-2.7,0-3.4-1.5-3.4-4.5
			C220.1,436.4,221,434.8,223.5,434.8z M223.5,442.4c0.9,0,1.2-0.9,1.2-3s-0.3-3-1.2-3c-1.1,0-1.2,1.3-1.2,3
			S222.4,442.4,223.5,442.4z"/>
	</g>
	<g>
		<path class="st8" d="M383.7,427.1c0-1.7-0.3-2.4-1.4-2.4c-1.2,0-1.4,1.2-1.4,4.4c0,3.5,0.5,4.1,1.5,4.1c0.8,0,1.4-0.4,1.4-2.9h2.3
			c0,2.5-0.6,4.6-3.6,4.6c-3.5,0-3.9-2.5-3.9-5.9c0-3.5,0.4-5.9,3.9-5.9c3.3,0,3.5,2.4,3.5,4.1H383.7z"/>
		<path class="st8" d="M392.4,433.7L392.4,433.7c-0.5,0.8-1.3,1.2-2.2,1.2c-1.4,0-2.2-0.8-2.2-2.4V426h2.2v5.9
			c0,0.9,0.3,1.2,0.9,1.2c0.8,0,1.2-0.5,1.2-1.4V426h2.2v8.6h-2.1V433.7z"/>
		<path class="st8" d="M398.2,431.8v0.3c0,0.8,0.4,1.2,1.2,1.2c0.7,0,1.1-0.3,1.1-1c0-0.6-0.4-0.8-0.8-1l-1.6-0.6
			c-1.2-0.4-1.8-1.2-1.8-2.4c0-1.4,0.9-2.6,3.2-2.6c2,0,2.9,0.9,2.9,2.4v0.4h-2c0-0.9-0.3-1.3-1-1.3c-0.6,0-1,0.3-1,0.9
			c0,0.4,0.2,0.8,1,1l1.3,0.4c1.4,0.5,1.9,1.2,1.9,2.5c0,1.8-1.3,2.7-3.2,2.7c-2.5,0-3.2-1.1-3.2-2.7v-0.3H398.2z"/>
		<path class="st8" d="M408.5,429.2c0-0.8-0.2-1.7-1-1.7c-1.1,0-1.3,1-1.3,2.9c0,2.1,0.2,3,1.2,3c0.7,0,1.1-0.6,1.1-2h2.1
			c0,2.3-0.9,3.5-3.3,3.5c-2.2,0-3.3-1.1-3.3-4.5c0-3.5,1.5-4.5,3.5-4.5s3.1,1.3,3.1,3.3H408.5z"/>
		<path class="st8" d="M415.5,425.8c2.7,0,3.4,1.5,3.4,4.5c0,2.9-0.9,4.5-3.4,4.5c-2.7,0-3.4-1.5-3.4-4.5
			C412.1,427.4,413,425.8,415.5,425.8z M415.5,433.4c0.9,0,1.2-0.9,1.2-3s-0.3-3-1.2-3c-1.1,0-1.2,1.3-1.2,3
			S414.4,433.4,415.5,433.4z"/>
	</g>
	<g>
		<path class="st8" d="M400.1,524h4c2.3,0,3.1,1.7,3.1,3.4c0,2.4-1.5,3.4-3.6,3.4h-1.2v4.6h-2.3V524z M402.5,529.1h1
			c0.9,0,1.5-0.5,1.5-1.7c0-1.1-0.4-1.8-1.6-1.8h-1V529.1z"/>
		<path class="st8" d="M413.4,534.4L413.4,534.4c-0.5,0.8-1.3,1.2-2.2,1.2c-1.4,0-2.2-0.8-2.2-2.4v-6.4h2.2v5.9
			c0,0.9,0.3,1.2,0.9,1.2c0.8,0,1.2-0.5,1.2-1.4v-5.7h2.2v8.6h-2.1V534.4z"/>
		<path class="st8" d="M417.7,526.8h2.1v1h0c0.5-0.8,1.3-1.2,2.2-1.2c1.4,0,2.2,0.8,2.2,2.4v6.4H422v-5.9c0-0.9-0.3-1.2-0.9-1.2
			c-0.8,0-1.2,0.5-1.2,1.4v5.7h-2.2V526.8z"/>
		<path class="st8" d="M429.4,526.6c2.7,0,3.4,1.5,3.4,4.5c0,2.9-0.9,4.5-3.4,4.5c-2.7,0-3.4-1.5-3.4-4.5
			C426,528.2,426.9,526.6,429.4,526.6z M429.4,534.1c0.9,0,1.2-0.9,1.2-3c0-2.1-0.3-3-1.2-3c-1.1,0-1.2,1.3-1.2,3
			S428.3,534.1,429.4,534.1z"/>
	</g>
	<g>
		<path class="st8" d="M509.5,546.1v-11.4h2.3v9.5h4.1v1.9H509.5z"/>
		<path class="st8" d="M517.5,540.1v-0.2c0-2,1.4-2.7,3-2.7c2.6,0,3.1,1.1,3.1,2.6v4.5c0,0.8,0,1.2,0.3,1.7h-2.1
			c-0.1-0.3-0.2-0.6-0.3-0.9h0c-0.5,0.9-1.1,1.1-2.2,1.1c-1.5,0-2.1-1.3-2.1-2.5c0-1.6,0.7-2.3,2.2-2.7l1.2-0.3
			c0.7-0.2,0.9-0.4,0.9-1c0-0.7-0.3-1.1-1-1.1c-0.7,0-1,0.4-1,1.1v0.2H517.5z M521.5,541.8c-0.3,0.2-0.7,0.4-0.9,0.4
			c-0.9,0.2-1.2,0.6-1.2,1.4c0,0.7,0.2,1.2,0.8,1.2c0.6,0,1.4-0.4,1.4-1.3V541.8z"/>
		<path class="st8" d="M530.4,534.6h4c2.3,0,3.1,1.7,3.1,3.4c0,2.4-1.5,3.4-3.6,3.4h-1.2v4.6h-2.3V534.6z M532.7,539.8h1
			c0.9,0,1.5-0.5,1.5-1.7c0-1.1-0.4-1.8-1.6-1.8h-1V539.8z"/>
		<path class="st8" d="M539.2,540.1v-0.2c0-2,1.4-2.7,3-2.7c2.6,0,3.1,1.1,3.1,2.6v4.5c0,0.8,0,1.2,0.3,1.7h-2.1
			c-0.1-0.3-0.2-0.6-0.3-0.9h0c-0.5,0.9-1.1,1.1-2.2,1.1c-1.5,0-2.1-1.3-2.1-2.5c0-1.6,0.7-2.3,2.2-2.7l1.2-0.3
			c0.7-0.2,0.9-0.4,0.9-1c0-0.7-0.3-1.1-1-1.1c-0.7,0-1,0.4-1,1.1v0.2H539.2z M543.3,541.8c-0.3,0.2-0.7,0.4-0.9,0.4
			c-0.9,0.2-1.2,0.6-1.2,1.4c0,0.7,0.2,1.2,0.8,1.2c0.6,0,1.4-0.4,1.4-1.3V541.8z"/>
		<path class="st8" d="M547.2,544.4l3.4-5.1h-3.3v-1.8h5.9v1.7l-3.4,5.1h3.4v1.8h-6V544.4z"/>
	</g>
	<g>
		<path class="st8" d="M546.2,565.3c3.5,0,3.9,2.5,3.9,5.9s-0.4,5.9-3.9,5.9c-3.5,0-3.9-2.5-3.9-5.9S542.7,565.3,546.2,565.3z
			 M546.2,575.5c1.4,0,1.6-1.2,1.6-4.2c0-3.1-0.2-4.2-1.6-4.2s-1.6,1.2-1.6,4.2C544.6,574.3,544.8,575.5,546.2,575.5z"/>
		<path class="st8" d="M552,568.4h2.1v1.2h0c0.4-0.8,1.1-1.4,2-1.4c0.1,0,0.3,0,0.4,0v2.1c-0.2,0-0.5,0-0.7,0
			c-0.8,0-1.6,0.4-1.6,1.6v5.2H552V568.4z"/>
		<path class="st8" d="M562.4,576L562.4,576c-0.5,0.8-1.3,1.2-2.2,1.2c-1.4,0-2.2-0.8-2.2-2.4v-6.4h2.2v5.9c0,0.9,0.3,1.2,0.9,1.2
			c0.8,0,1.2-0.5,1.2-1.4v-5.7h2.2v8.6h-2.1V576z"/>
		<path class="st8" d="M566.6,568.4h2.1v1.2h0c0.4-0.8,1.1-1.4,2-1.4c0.1,0,0.3,0,0.4,0v2.1c-0.2,0-0.5,0-0.7,0
			c-0.8,0-1.6,0.4-1.6,1.6v5.2h-2.2V568.4z"/>
		<path class="st8" d="M575.7,568.1c2.7,0,3.4,1.5,3.4,4.5c0,2.9-0.9,4.5-3.4,4.5c-2.7,0-3.4-1.5-3.4-4.5
			C572.3,569.7,573.1,568.1,575.7,568.1z M575.7,575.7c0.9,0,1.2-0.9,1.2-3c0-2.1-0.3-3-1.2-3c-1.1,0-1.2,1.3-1.2,3
			S574.6,575.7,575.7,575.7z"/>
	</g>
	<g>
		<path class="st8" d="M552.3,668.3v8c0,1.1,0.3,2,1.3,2s1.3-0.8,1.3-2v-8h2.3v8c0,2.9-1.8,3.7-3.6,3.7s-3.6-0.6-3.6-3.7v-8H552.3z"
			/>
		<path class="st8" d="M559.3,680.9c0.2,0,0.4,0,0.6,0c0.8,0,1.1-0.4,1.2-1.2l-2.4-8.6h2.3l1.3,6h0l1.1-6h2.2l-2.1,8
			c-0.8,3-1.3,3.4-3.3,3.4h-0.9V680.9z"/>
		<path class="st8" d="M571.5,678.7L571.5,678.7c-0.5,0.8-1.3,1.2-2.2,1.2c-1.4,0-2.2-0.8-2.2-2.4v-6.4h2.2v5.9
			c0,0.9,0.3,1.2,0.9,1.2c0.8,0,1.2-0.5,1.2-1.4v-5.7h2.2v8.6h-2.1V678.7z"/>
		<path class="st8" d="M575.7,671.1h2.1v1h0c0.5-0.8,1.3-1.2,2.2-1.2c1.4,0,2.2,0.8,2.2,2.4v6.4H580v-5.9c0-0.9-0.3-1.2-0.9-1.2
			c-0.8,0-1.2,0.5-1.2,1.4v5.7h-2.2V671.1z"/>
		<path class="st8" d="M584.4,668.1h2.2v1.9h-2.2V668.1z M584.4,671.1h2.2v8.6h-2.2V671.1z"/>
	</g>
	<g>
		<path class="st8" d="M530.5,514.4c0-1.7-0.3-2.4-1.4-2.4c-1.2,0-1.4,1.2-1.4,4.4c0,3.5,0.5,4.1,1.5,4.1c0.8,0,1.4-0.4,1.4-2.9h2.3
			c0,2.5-0.6,4.6-3.6,4.6c-3.5,0-3.9-2.5-3.9-5.9c0-3.5,0.4-5.9,3.9-5.9c3.3,0,3.5,2.4,3.5,4.1H530.5z"/>
		<path class="st8" d="M537.9,513.1c2.7,0,3.4,1.5,3.4,4.5c0,2.9-0.9,4.5-3.4,4.5c-2.7,0-3.4-1.5-3.4-4.5
			C534.5,514.7,535.4,513.1,537.9,513.1z M537.9,520.7c0.9,0,1.2-0.9,1.2-3c0-2.1-0.3-3-1.2-3c-1.1,0-1.2,1.3-1.2,3
			S536.8,520.7,537.9,520.7z"/>
		<path class="st8" d="M543.1,513.4h2.1v1.2h0c0.4-0.8,1.1-1.4,2-1.4c0.1,0,0.3,0,0.4,0v2.1c-0.2,0-0.5,0-0.7,0
			c-0.8,0-1.6,0.4-1.6,1.6v5.2h-2.2V513.4z"/>
		<path class="st8" d="M552.2,513.1c2.7,0,3.4,1.5,3.4,4.5c0,2.9-0.9,4.5-3.4,4.5c-2.7,0-3.4-1.5-3.4-4.5
			C548.8,514.7,549.7,513.1,552.2,513.1z M552.2,520.7c0.9,0,1.2-0.9,1.2-3c0-2.1-0.3-3-1.2-3c-1.1,0-1.2,1.3-1.2,3
			S551.1,520.7,552.2,520.7z"/>
		<path class="st8" d="M557.5,510.4h2.2v1.9h-2.2V510.4z M557.5,513.4h2.2v8.6h-2.2V513.4z"/>
		<path class="st8" d="M566.1,516.5c0-0.8-0.2-1.7-1-1.7c-1.1,0-1.3,1-1.3,2.9c0,2.1,0.2,3,1.2,3c0.7,0,1.1-0.6,1.1-2h2.1
			c0,2.3-0.9,3.5-3.3,3.5c-2.2,0-3.3-1.1-3.3-4.5c0-3.5,1.5-4.5,3.5-4.5c2,0,3.1,1.3,3.1,3.3H566.1z"/>
		<path class="st8" d="M573.1,513.1c2.7,0,3.4,1.5,3.4,4.5c0,2.9-0.9,4.5-3.4,4.5c-2.7,0-3.4-1.5-3.4-4.5
			C569.7,514.7,570.5,513.1,573.1,513.1z M573.1,520.7c0.9,0,1.2-0.9,1.2-3c0-2.1-0.3-3-1.2-3c-1.1,0-1.2,1.3-1.2,3
			S572,520.7,573.1,520.7z"/>
	</g>
	<g>
		<path class="st8" d="M337,383.3h3.4l1.6,8.1h0l1.6-8.1h3.4v11.4h-2.1v-9.1h0l-2,9.1h-1.8l-2-9.1h0v9.1H337V383.3z"/>
		<path class="st8" d="M349.4,388.8v-0.2c0-2,1.4-2.7,3-2.7c2.6,0,3.1,1.1,3.1,2.6v4.5c0,0.8,0,1.2,0.3,1.7h-2.1
			c-0.1-0.3-0.2-0.6-0.3-0.9h0c-0.5,0.9-1.1,1.1-2.2,1.1c-1.5,0-2.1-1.3-2.1-2.5c0-1.6,0.7-2.3,2.2-2.7l1.2-0.3
			c0.7-0.2,0.9-0.4,0.9-1c0-0.7-0.3-1.1-1-1.1c-0.7,0-1,0.4-1,1.1v0.2H349.4z M353.4,390.4c-0.3,0.2-0.7,0.4-0.9,0.4
			c-0.9,0.2-1.2,0.6-1.2,1.4c0,0.7,0.2,1.2,0.8,1.2c0.6,0,1.4-0.4,1.4-1.3V390.4z"/>
		<path class="st8" d="M361.9,389.2c0-0.8-0.2-1.7-1-1.7c-1.1,0-1.3,1-1.3,2.9c0,2.1,0.2,3,1.2,3c0.7,0,1.1-0.6,1.1-2h2.1
			c0,2.3-0.9,3.5-3.3,3.5c-2.2,0-3.3-1.1-3.3-4.5c0-3.5,1.5-4.5,3.5-4.5s3.1,1.3,3.1,3.3H361.9z"/>
		<path class="st8" d="M365.8,383.3h2.2v3.7h0c0.4-0.7,1.2-1.1,2.1-1.1c1.4,0,2.2,0.8,2.2,2.4v6.4h-2.2v-5.9c0-0.9-0.3-1.2-0.9-1.2
			c-0.8,0-1.2,0.5-1.2,1.4v5.7h-2.2V383.3z"/>
		<path class="st8" d="M378.8,393.7L378.8,393.7c-0.5,0.8-1.3,1.2-2.2,1.2c-1.4,0-2.2-0.8-2.2-2.4v-6.4h2.2v5.9
			c0,0.9,0.3,1.2,0.9,1.2c0.8,0,1.2-0.5,1.2-1.4v-5.7h2.2v8.6h-2.1V393.7z"/>
		<path class="st8" d="M337,399.3h4c2.3,0,3.1,1.7,3.1,3.4c0,2.4-1.5,3.4-3.6,3.4h-1.2v4.6H337V399.3z M339.3,404.5h1
			c0.9,0,1.5-0.5,1.5-1.7c0-1.1-0.4-1.8-1.6-1.8h-1V404.5z"/>
		<path class="st8" d="M345.9,399.2h2.2v1.9h-2.2V399.2z M345.9,402.1h2.2v8.6h-2.2V402.1z"/>
		<path class="st8" d="M354.5,405.2c0-0.8-0.2-1.7-1-1.7c-1.1,0-1.3,1-1.3,2.9c0,2.1,0.2,3,1.2,3c0.7,0,1.1-0.6,1.1-2h2.1
			c0,2.3-0.9,3.5-3.3,3.5c-2.2,0-3.3-1.1-3.3-4.5c0-3.5,1.5-4.5,3.5-4.5c2,0,3.1,1.3,3.1,3.3H354.5z"/>
		<path class="st8" d="M362.5,405.2c0-0.8-0.2-1.7-1-1.7c-1.1,0-1.3,1-1.3,2.9c0,2.1,0.2,3,1.2,3c0.7,0,1.1-0.6,1.1-2h2.1
			c0,2.3-0.9,3.5-3.3,3.5c-2.2,0-3.3-1.1-3.3-4.5c0-3.5,1.5-4.5,3.5-4.5s3.1,1.3,3.1,3.3H362.5z"/>
		<path class="st8" d="M366.4,399.3h2.2v3.7h0c0.4-0.7,1.2-1.1,2.1-1.1c1.4,0,2.2,0.8,2.2,2.4v6.4h-2.2v-5.9c0-0.9-0.3-1.2-0.9-1.2
			c-0.8,0-1.2,0.5-1.2,1.4v5.7h-2.2V399.3z"/>
		<path class="st8" d="M379.5,409.7L379.5,409.7c-0.5,0.8-1.3,1.2-2.2,1.2c-1.4,0-2.2-0.8-2.2-2.4v-6.4h2.2v5.9
			c0,0.9,0.3,1.2,0.9,1.2c0.8,0,1.2-0.5,1.2-1.4v-5.7h2.2v8.6h-2.1V409.7z"/>
	</g>
	<g>
		<path class="st8" d="M318.2,471.3c0-1.7-0.3-2.4-1.4-2.4c-1.2,0-1.4,1.2-1.4,4.4c0,3.5,0.5,4.1,1.5,4.1c0.8,0,1.4-0.4,1.4-2.9h2.3
			c0,2.5-0.6,4.6-3.6,4.6c-3.5,0-3.9-2.5-3.9-5.9c0-3.5,0.4-5.9,3.9-5.9c3.3,0,3.5,2.4,3.5,4.1H318.2z"/>
		<path class="st8" d="M322.5,472.9v-0.2c0-2,1.4-2.7,3-2.7c2.6,0,3.1,1.1,3.1,2.6v4.5c0,0.8,0,1.2,0.3,1.7h-2.1
			c-0.1-0.3-0.2-0.6-0.3-0.9h0c-0.5,0.9-1.1,1.1-2.2,1.1c-1.5,0-2.1-1.3-2.1-2.5c0-1.6,0.7-2.3,2.2-2.7l1.2-0.3
			c0.7-0.2,0.9-0.4,0.9-1c0-0.7-0.3-1.1-1-1.1c-0.7,0-1,0.4-1,1.1v0.2H322.5z M326.5,474.6c-0.3,0.2-0.7,0.4-0.9,0.4
			c-0.9,0.2-1.2,0.6-1.2,1.4c0,0.7,0.2,1.2,0.8,1.2c0.6,0,1.4-0.4,1.4-1.3V474.6z"/>
		<path class="st8" d="M330.8,470.3h2.1v1h0c0.5-0.8,1.3-1.2,2.2-1.2c1.4,0,2.2,0.8,2.2,2.4v6.4h-2.2V473c0-0.9-0.3-1.2-0.9-1.2
			c-0.8,0-1.2,0.5-1.2,1.4v5.7h-2.2V470.3z M331.6,469.1c0.2-1.2,0.7-2,1.5-2c0.3,0,0.5,0,0.7,0.1l0.8,0.3c0.2,0.1,0.3,0.1,0.5,0.1
			c0.3,0,0.4-0.4,0.4-0.6h1.2c-0.1,1.1-0.7,2-1.5,2c-0.7,0-1.4-0.5-1.9-0.5c-0.2,0-0.4,0.2-0.5,0.6H331.6z"/>
		<path class="st8" d="M342.6,470.1c2.7,0,3.4,1.5,3.4,4.5c0,2.9-0.9,4.5-3.4,4.5c-2.7,0-3.4-1.5-3.4-4.5
			C339.2,471.7,340.1,470.1,342.6,470.1z M342.6,477.6c0.9,0,1.2-0.9,1.2-3s-0.3-3-1.2-3c-1.1,0-1.2,1.3-1.2,3
			S341.5,477.6,342.6,477.6z"/>
		<path class="st8" d="M347.8,470.3h2.1v1h0c0.5-0.8,1.3-1.2,2.2-1.2c1.4,0,2.2,0.8,2.2,2.4v6.4h-2.2V473c0-0.9-0.3-1.2-0.9-1.2
			c-0.8,0-1.2,0.5-1.2,1.4v5.7h-2.2V470.3z"/>
		<path class="st8" d="M317.7,494L317.7,494c-0.5,0.8-1.1,1.1-2,1.1c-1.8,0-2.6-1.3-2.6-4.5s0.8-4.5,2.6-4.5c0.8,0,1.4,0.3,1.9,1h0
			v-3.6h2.2v11.4h-2.1V494z M316.4,493.4c1,0,1.2-1,1.2-2.8c0-1.9-0.2-2.8-1.2-2.8c-1,0-1.2,1-1.2,2.8
			C315.3,492.5,315.5,493.4,316.4,493.4z"/>
		<path class="st8" d="M323.8,490.9v0.7c0,1,0.3,2,1.1,2c0.7,0,1-0.6,1.2-1.6h2c-0.1,2-1,3.1-3.1,3.1c-3.2,0-3.3-2.5-3.3-4.6
			c0-2.3,0.4-4.4,3.4-4.4c2.6,0,3.2,1.7,3.2,4.4v0.5H323.8z M326.1,489.6c0-1.3-0.2-2-1.1-2c-0.9,0-1.1,0.9-1.1,1.7v0.3H326.1z"/>
		<path class="st8" d="M339.4,487.3c0-1.7-0.3-2.4-1.4-2.4c-1.2,0-1.4,1.2-1.4,4.4c0,3.5,0.5,4.1,1.5,4.1c0.8,0,1.4-0.4,1.4-2.9h2.3
			c0,2.5-0.6,4.6-3.6,4.6c-3.5,0-3.9-2.5-3.9-5.9c0-3.5,0.4-5.9,3.9-5.9c3.3,0,3.5,2.4,3.5,4.1H339.4z"/>
		<path class="st8" d="M346.8,486.1c2.7,0,3.4,1.5,3.4,4.5c0,2.9-0.9,4.5-3.4,4.5c-2.7,0-3.4-1.5-3.4-4.5
			C343.4,487.7,344.3,486.1,346.8,486.1z M346.8,493.6c0.9,0,1.2-0.9,1.2-3c0-2.1-0.3-3-1.2-3c-1.1,0-1.2,1.3-1.2,3
			S345.7,493.6,346.8,493.6z"/>
		<path class="st8" d="M352.1,483.5h2.2v11.4h-2.2V483.5z"/>
		<path class="st8" d="M360.6,489.4c0-0.8-0.2-1.7-1-1.7c-1.1,0-1.3,1-1.3,2.9c0,2.1,0.2,3,1.2,3c0.7,0,1.1-0.6,1.1-2h2.1
			c0,2.3-0.9,3.5-3.3,3.5c-2.2,0-3.3-1.1-3.3-4.5c0-3.5,1.5-4.5,3.5-4.5c2,0,3.1,1.3,3.1,3.3H360.6z"/>
		<path class="st8" d="M364.5,488.9v-0.2c0-2,1.4-2.7,3-2.7c2.6,0,3.1,1.1,3.1,2.6v4.5c0,0.8,0,1.2,0.3,1.7h-2.1
			c-0.1-0.3-0.2-0.6-0.3-0.9h0c-0.5,0.9-1.1,1.1-2.2,1.1c-1.5,0-2.1-1.3-2.1-2.5c0-1.6,0.7-2.3,2.2-2.7l1.2-0.3
			c0.7-0.2,0.9-0.4,0.9-1c0-0.7-0.3-1.1-1-1.1c-0.7,0-1,0.4-1,1.1v0.2H364.5z M368.5,490.6c-0.3,0.2-0.7,0.4-0.9,0.4
			c-0.9,0.2-1.2,0.6-1.2,1.4c0,0.7,0.2,1.2,0.8,1.2c0.6,0,1.4-0.4,1.4-1.3V490.6z"/>
	</g>
	<g>
		<path class="st8" d="M232.2,486.2l2.8,7.8h0v-7.8h2.1v11.4h-2.6l-2.8-8h0v8h-2.1v-11.4H232.2z"/>
		<path class="st8" d="M239.3,491.6v-0.2c0-2,1.4-2.7,3-2.7c2.6,0,3.1,1.1,3.1,2.6v4.5c0,0.8,0,1.2,0.3,1.7h-2.1
			c-0.1-0.3-0.2-0.6-0.3-0.9h0c-0.5,0.9-1.1,1.1-2.2,1.1c-1.5,0-2.1-1.3-2.1-2.5c0-1.6,0.7-2.3,2.2-2.7l1.2-0.3
			c0.7-0.2,0.9-0.4,0.9-1c0-0.7-0.3-1.1-1-1.1c-0.7,0-1,0.4-1,1.1v0.2H239.3z M243.3,493.3c-0.3,0.2-0.7,0.4-0.9,0.4
			c-0.9,0.2-1.2,0.6-1.2,1.4c0,0.7,0.2,1.2,0.8,1.2s1.4-0.4,1.4-1.3V493.3z"/>
		<path class="st8" d="M247.3,495.9l3.4-5.1h-3.3V489h5.9v1.7l-3.4,5.1h3.4v1.8h-6V495.9z"/>
		<path class="st8" d="M259.2,492.1c0-0.8-0.2-1.7-1-1.7c-1.1,0-1.3,1-1.3,2.9c0,2.1,0.2,3,1.2,3c0.7,0,1.1-0.6,1.1-2h2.1
			c0,2.3-0.9,3.5-3.3,3.5c-2.2,0-3.3-1.1-3.3-4.5c0-3.5,1.5-4.5,3.5-4.5s3.1,1.3,3.1,3.3H259.2z"/>
		<path class="st8" d="M263.1,491.6v-0.2c0-2,1.4-2.7,3-2.7c2.6,0,3.1,1.1,3.1,2.6v4.5c0,0.8,0,1.2,0.3,1.7h-2.1
			c-0.1-0.3-0.2-0.6-0.3-0.9h0c-0.5,0.9-1.1,1.1-2.2,1.1c-1.5,0-2.1-1.3-2.1-2.5c0-1.6,0.7-2.3,2.2-2.7l1.2-0.3
			c0.7-0.2,0.9-0.4,0.9-1c0-0.7-0.3-1.1-1-1.1c-0.7,0-1,0.4-1,1.1v0.2H263.1z M267.2,493.3c-0.3,0.2-0.7,0.4-0.9,0.4
			c-0.9,0.2-1.2,0.6-1.2,1.4c0,0.7,0.2,1.2,0.8,1.2s1.4-0.4,1.4-1.3V493.3z"/>
	</g>
	<g>
		<path class="st8" d="M165,457.5h2.3v4.4h2.7v-4.4h2.3v11.4H170v-5.1h-2.7v5.1H165V457.5z"/>
		<path class="st8" d="M178.9,467.9L178.9,467.9c-0.5,0.8-1.3,1.2-2.2,1.2c-1.4,0-2.2-0.8-2.2-2.4v-6.4h2.2v5.9
			c0,0.9,0.3,1.2,0.9,1.2c0.8,0,1.2-0.5,1.2-1.4v-5.7h2.2v8.6h-2.1V467.9z"/>
		<path class="st8" d="M183.1,463v-0.2c0-2,1.4-2.7,3-2.7c2.6,0,3.1,1.1,3.1,2.6v4.5c0,0.8,0,1.2,0.3,1.7h-2.1
			c-0.1-0.3-0.2-0.6-0.3-0.9h0c-0.5,0.9-1.1,1.1-2.2,1.1c-1.5,0-2.1-1.3-2.1-2.5c0-1.6,0.7-2.3,2.2-2.7l1.2-0.3
			c0.7-0.2,0.9-0.4,0.9-1c0-0.7-0.3-1.1-1-1.1c-0.7,0-1,0.4-1,1.1v0.2H183.1z M187.1,464.6c-0.3,0.2-0.7,0.4-0.9,0.4
			c-0.9,0.2-1.2,0.6-1.2,1.4c0,0.7,0.2,1.2,0.8,1.2c0.6,0,1.4-0.4,1.4-1.3V464.6z"/>
		<path class="st8" d="M195.6,463.4c0-0.8-0.2-1.7-1-1.7c-1.1,0-1.3,1-1.3,2.9c0,2.1,0.2,3,1.2,3c0.7,0,1.1-0.6,1.1-2h2.1
			c0,2.3-0.9,3.5-3.3,3.5c-2.2,0-3.3-1.1-3.3-4.5c0-3.5,1.5-4.5,3.5-4.5s3.1,1.3,3.1,3.3H195.6z"/>
		<path class="st8" d="M199.5,463v-0.2c0-2,1.4-2.7,3-2.7c2.6,0,3.1,1.1,3.1,2.6v4.5c0,0.8,0,1.2,0.3,1.7h-2.1
			c-0.1-0.3-0.2-0.6-0.3-0.9h0c-0.5,0.9-1.1,1.1-2.2,1.1c-1.5,0-2.1-1.3-2.1-2.5c0-1.6,0.7-2.3,2.2-2.7l1.2-0.3
			c0.7-0.2,0.9-0.4,0.9-1c0-0.7-0.3-1.1-1-1.1c-0.7,0-1,0.4-1,1.1v0.2H199.5z M203.5,464.6c-0.3,0.2-0.7,0.4-0.9,0.4
			c-0.9,0.2-1.2,0.6-1.2,1.4c0,0.7,0.2,1.2,0.8,1.2c0.6,0,1.4-0.4,1.4-1.3V464.6z"/>
		<path class="st8" d="M212,463.4c0-0.8-0.2-1.7-1-1.7c-1.1,0-1.3,1-1.3,2.9c0,2.1,0.2,3,1.2,3c0.7,0,1.1-0.6,1.1-2h2.1
			c0,2.3-0.9,3.5-3.3,3.5c-2.2,0-3.3-1.1-3.3-4.5c0-3.5,1.5-4.5,3.5-4.5c2,0,3.1,1.3,3.1,3.3H212z"/>
		<path class="st8" d="M215.9,457.5h2.2v3.7h0c0.4-0.7,1.2-1.1,2.1-1.1c1.4,0,2.2,0.8,2.2,2.4v6.4h-2.2V463c0-0.9-0.3-1.2-0.9-1.2
			c-0.8,0-1.2,0.5-1.2,1.4v5.7h-2.2V457.5z"/>
		<path class="st8" d="M224.6,457.4h2.2v1.9h-2.2V457.4z M224.6,460.3h2.2v8.6h-2.2V460.3z"/>
		<path class="st8" d="M229,460.3h2.1v1h0c0.5-0.8,1.3-1.2,2.2-1.2c1.4,0,2.2,0.8,2.2,2.4v6.4h-2.2V463c0-0.9-0.3-1.2-0.9-1.2
			c-0.8,0-1.2,0.5-1.2,1.4v5.7H229V460.3z"/>
		<path class="st8" d="M237.6,463v-0.2c0-2,1.4-2.7,3-2.7c2.6,0,3.1,1.1,3.1,2.6v4.5c0,0.8,0,1.2,0.3,1.7h-2.1
			c-0.1-0.3-0.2-0.6-0.3-0.9h0c-0.5,0.9-1.1,1.1-2.2,1.1c-1.5,0-2.1-1.3-2.1-2.5c0-1.6,0.7-2.3,2.2-2.7l1.2-0.3
			c0.7-0.2,0.9-0.4,0.9-1c0-0.7-0.3-1.1-1-1.1c-0.7,0-1,0.4-1,1.1v0.2H237.6z M241.6,464.6c-0.3,0.2-0.7,0.4-0.9,0.4
			c-0.9,0.2-1.2,0.6-1.2,1.4c0,0.7,0.2,1.2,0.8,1.2c0.6,0,1.4-0.4,1.4-1.3V464.6z"/>
	</g>
	<g>
		<path class="st8" d="M0.8,144.5h3.4l1.6,8.1h0l1.6-8.1H11v11.4H8.9v-9.1h0l-2,9.1H5l-2-9.1h0v9.1H0.8V144.5z"/>
		<path class="st8" d="M13.2,149.9v-0.2c0-2,1.4-2.7,3-2.7c2.6,0,3.1,1.1,3.1,2.6v4.5c0,0.8,0,1.2,0.3,1.7h-2.1
			c-0.1-0.3-0.2-0.6-0.3-0.9h0c-0.5,0.9-1.1,1.1-2.2,1.1c-1.5,0-2.1-1.3-2.1-2.5c0-1.6,0.7-2.3,2.2-2.7l1.2-0.3
			c0.7-0.2,0.9-0.4,0.9-1c0-0.7-0.3-1.1-1-1.1c-0.7,0-1,0.4-1,1.1v0.2H13.2z M17.2,151.6c-0.3,0.2-0.7,0.4-0.9,0.4
			c-0.9,0.2-1.2,0.6-1.2,1.4c0,0.7,0.2,1.2,0.8,1.2c0.6,0,1.4-0.4,1.4-1.3V151.6z"/>
		<path class="st8" d="M21.6,147.3h2.1v1h0c0.5-0.8,1.3-1.2,2.2-1.2c1.4,0,2.2,0.8,2.2,2.4v6.4h-2.2V150c0-0.9-0.3-1.2-0.9-1.2
			c-0.8,0-1.2,0.5-1.2,1.4v5.7h-2.2V147.3z"/>
		<path class="st8" d="M34.3,150.4c0-0.8-0.2-1.7-1-1.7c-1.1,0-1.3,1-1.3,2.9c0,2.1,0.2,3,1.2,3c0.7,0,1.1-0.6,1.1-2h2.1
			c0,2.3-0.9,3.5-3.3,3.5c-2.2,0-3.3-1.1-3.3-4.5c0-3.5,1.5-4.5,3.5-4.5c2,0,3.1,1.3,3.1,3.3H34.3z"/>
		<path class="st8" d="M41.3,147.1c2.7,0,3.4,1.5,3.4,4.5c0,2.9-0.9,4.5-3.4,4.5c-2.7,0-3.4-1.5-3.4-4.5
			C38,148.6,38.8,147.1,41.3,147.1z M41.3,154.6c0.9,0,1.2-0.9,1.2-3s-0.3-3-1.2-3c-1.1,0-1.2,1.3-1.2,3S40.3,154.6,41.3,154.6z"/>
		<path class="st8" d="M46.6,147.3h2.1v1.2h0c0.4-0.8,1.1-1.4,2-1.4c0.1,0,0.3,0,0.4,0v2.1c-0.2,0-0.5,0-0.7,0
			c-0.8,0-1.6,0.4-1.6,1.6v5.2h-2.2V147.3z"/>
		<path class="st8" d="M52.5,149.9v-0.2c0-2,1.4-2.7,3-2.7c2.6,0,3.1,1.1,3.1,2.6v4.5c0,0.8,0,1.2,0.3,1.7h-2.1
			c-0.1-0.3-0.2-0.6-0.3-0.9h0c-0.5,0.9-1.1,1.1-2.2,1.1c-1.5,0-2.1-1.3-2.1-2.5c0-1.6,0.7-2.3,2.2-2.7l1.2-0.3
			c0.7-0.2,0.9-0.4,0.9-1c0-0.7-0.3-1.1-1-1.1c-0.7,0-1,0.4-1,1.1v0.2H52.5z M56.5,151.6c-0.3,0.2-0.7,0.4-0.9,0.4
			c-0.9,0.2-1.2,0.6-1.2,1.4c0,0.7,0.2,1.2,0.8,1.2c0.6,0,1.4-0.4,1.4-1.3V151.6z"/>
	</g>
	<g>
		<path class="st8" d="M322.2,537h2.8l3,11.4h-2.4l-0.5-2.4h-3l-0.5,2.4h-2.4L322.2,537z M322.5,544.1h2.2l-1.1-5.1h0L322.5,544.1z"
			/>
		<path class="st8" d="M329.5,539.8h2.1v1.2h0c0.4-0.8,1.1-1.4,2-1.4c0.1,0,0.3,0,0.4,0v2.1c-0.2,0-0.5,0-0.7,0
			c-0.8,0-1.6,0.4-1.6,1.6v5.2h-2.2V539.8z"/>
		<path class="st8" d="M337.3,544.5v0.7c0,1,0.3,2,1.1,2c0.7,0,1-0.6,1.2-1.6h2c-0.1,2-1,3.1-3.1,3.1c-3.2,0-3.3-2.5-3.3-4.6
			c0-2.3,0.4-4.5,3.4-4.5c2.6,0,3.2,1.7,3.2,4.4v0.5H337.3z M339.6,543.2c0-1.3-0.2-2-1.1-2c-0.9,0-1.1,0.9-1.1,1.7v0.3H339.6z"/>
		<path class="st8" d="M347.8,547.6L347.8,547.6c-0.5,0.7-1.1,1-1.9,1c-1.8,0-2.6-1.3-2.6-4.5s0.8-4.5,2.6-4.5c0.9,0,1.5,0.3,2,1.1
			h0v-0.9h2.1v11.4h-2.2V547.6z M346.7,541.3c-1,0-1.2,1-1.2,2.8c0,1.9,0.2,2.8,1.2,2.8c1,0,1.2-1,1.2-2.8
			C347.8,542.3,347.6,541.3,346.7,541.3z"/>
		<path class="st8" d="M356.6,547.4L356.6,547.4c-0.5,0.8-1.3,1.2-2.2,1.2c-1.4,0-2.2-0.8-2.2-2.4v-6.4h2.2v5.9
			c0,0.9,0.3,1.2,0.9,1.2c0.8,0,1.2-0.5,1.2-1.4v-5.7h2.2v8.6h-2.1V547.4z"/>
		<path class="st8" d="M360.9,536.9h2.2v1.9h-2.2V536.9z M360.9,539.8h2.2v8.6h-2.2V539.8z"/>
		<path class="st8" d="M365.3,539.8h2.1v0.9h0c0.5-0.8,1.1-1.1,2-1.1c1.8,0,2.6,1.3,2.6,4.5s-0.8,4.5-2.6,4.5c-0.8,0-1.4-0.3-1.9-1
			h0v3.6h-2.2V539.8z M368.6,547c1,0,1.2-1,1.2-2.8c0-1.9-0.2-2.8-1.2-2.8c-1,0-1.2,1-1.2,2.8C367.5,546,367.7,547,368.6,547z"/>
		<path class="st8" d="M373.9,542.5v-0.2c0-2,1.4-2.7,3-2.7c2.6,0,3.1,1.1,3.1,2.6v4.5c0,0.8,0,1.2,0.3,1.7h-2.1
			c-0.1-0.3-0.2-0.6-0.3-0.9h0c-0.5,0.9-1.1,1.1-2.2,1.1c-1.5,0-2.1-1.3-2.1-2.5c0-1.6,0.7-2.3,2.2-2.7l1.2-0.3
			c0.7-0.2,0.9-0.4,0.9-1c0-0.7-0.3-1.1-1-1.1c-0.7,0-1,0.4-1,1.1v0.2H373.9z M377.9,544.1c-0.3,0.2-0.7,0.4-0.9,0.4
			c-0.9,0.2-1.2,0.6-1.2,1.4c0,0.7,0.2,1.2,0.8,1.2c0.6,0,1.4-0.4,1.4-1.3V544.1z"/>
	</g>
	<g>
		<path class="st9" d="M432.2,225.5h5.4c2.2,0,3.7,0.7,3.7,2.8c0,1.1-0.6,1.9-1.6,2.4c1.4,0.4,2.1,1.5,2.1,2.9c0,2.3-2,3.3-4,3.3
			h-5.5V225.5z M434.8,230.2h2.5c0.9,0,1.5-0.4,1.5-1.4c0-1.1-0.8-1.3-1.7-1.3h-2.4V230.2z M434.8,235h2.7c1,0,1.9-0.3,1.9-1.5
			c0-1.2-0.7-1.6-1.8-1.6h-2.7V235z"/>
		<path class="st9" d="M446.7,225.5h6.2c2,0,3.3,1.4,3.3,3.2c0,1.3-0.5,2.4-1.8,2.9v0c1.2,0.3,1.6,1.5,1.7,2.7c0,0.7,0,2.1,0.5,2.7
			H454c-0.3-0.7-0.3-1.8-0.4-2.7c-0.2-1.2-0.6-1.7-1.9-1.7h-2.5v4.5h-2.5V225.5z M449.2,230.7h2.8c1.1,0,1.7-0.5,1.7-1.6
			c0-1.1-0.6-1.6-1.7-1.6h-2.8V230.7z"/>
		<path class="st9" d="M464.6,225.5h2.6l4.3,11.4h-2.6l-0.9-2.5h-4.3l-0.9,2.5h-2.5L464.6,225.5z M464.3,232.6h3l-1.4-4.2h0
			L464.3,232.6z"/>
		<path class="st9" d="M477.3,233.2c0,1.5,1.2,2.1,2.5,2.1c0.9,0,2.2-0.3,2.2-1.4c0-1.2-1.7-1.4-3.4-1.9c-1.7-0.4-3.4-1.1-3.4-3.2
			c0-2.3,2.2-3.5,4.3-3.5c2.4,0,4.6,1,4.6,3.7h-2.4c-0.1-1.4-1.1-1.7-2.3-1.7c-0.8,0-1.7,0.3-1.7,1.3c0,0.9,0.5,1,3.4,1.7
			c0.8,0.2,3.4,0.7,3.4,3.3c0,2.1-1.6,3.7-4.8,3.7c-2.5,0-4.9-1.2-4.9-4.1H477.3z"/>
		<path class="st9" d="M489.2,225.5h2.5V237h-2.5V225.5z"/>
		<path class="st9" d="M497.1,225.5h2.5v9.3h5.6v2.1h-8.1V225.5z"/>
		<path class="st9" d="M509.8,225.5h2.5V237h-2.5V225.5z"/>
		<path class="st9" d="M517.7,225.5h8.5v2.1h-6v2.4h5.5v2h-5.5v2.8h6.2v2.1h-8.7V225.5z"/>
		<path class="st9" d="M531.3,225.5h2.5l4.8,7.7h0v-7.7h2.4V237h-2.5l-4.8-7.7h0v7.7h-2.4V225.5z"/>
	</g>
	<g>
		<path class="st9" d="M353.5,632.5c-0.2-1.1-1.2-2-2.5-2c-2.3,0-3.1,1.9-3.1,3.9c0,1.9,0.8,3.8,3.1,3.8c1.5,0,2.4-1.1,2.6-2.6h2.4
			c-0.3,2.8-2.2,4.7-5,4.7c-3.5,0-5.6-2.6-5.6-5.9c0-3.4,2.1-6,5.6-6c2.5,0,4.6,1.5,4.9,4.1H353.5z"/>
		<path class="st9" d="M361,628.6h2.5v4.4h4.6v-4.4h2.5v11.4h-2.5v-4.9h-4.6v4.9H361V628.6z"/>
		<path class="st9" d="M376,628.6h2.5v11.4H376V628.6z"/>
		<path class="st9" d="M383.9,628.6h2.5v9.3h5.6v2.1h-8.1V628.6z"/>
		<path class="st9" d="M396.6,628.6h8.5v2.1h-6v2.4h5.5v2h-5.5v2.8h6.2v2.1h-8.7V628.6z"/>
	</g>
	<g>
		<path class="st8" d="M453.5,534.2c0-1.7-0.3-2.4-1.4-2.4c-1.2,0-1.4,1.2-1.4,4.4c0,3.5,0.5,4.1,1.5,4.1c0.8,0,1.4-0.4,1.4-2.9h2.3
			c0,2.5-0.6,4.6-3.6,4.6c-3.5,0-3.9-2.5-3.9-5.9c0-3.5,0.4-5.9,3.9-5.9c3.3,0,3.5,2.4,3.5,4.1H453.5z"/>
		<path class="st8" d="M460.9,533c2.7,0,3.4,1.5,3.4,4.5c0,2.9-0.9,4.5-3.4,4.5c-2.7,0-3.4-1.5-3.4-4.5
			C457.5,534.6,458.4,533,460.9,533z M460.9,540.5c0.9,0,1.2-0.9,1.2-3c0-2.1-0.3-3-1.2-3c-1.1,0-1.2,1.3-1.2,3
			S459.8,540.5,460.9,540.5z"/>
		<path class="st8" d="M466.1,533.2h2.1v0.9h0c0.5-0.8,1.1-1.1,2-1.1c1.8,0,2.6,1.3,2.6,4.5s-0.8,4.5-2.6,4.5c-0.8,0-1.4-0.3-1.9-1
			h0v3.6h-2.2V533.2z M469.5,540.3c1,0,1.2-1,1.2-2.8c0-1.9-0.2-2.8-1.2-2.8c-1,0-1.2,1-1.2,2.8
			C468.3,539.4,468.5,540.3,469.5,540.3z"/>
		<path class="st8" d="M474.8,535.8v-0.2c0-2,1.4-2.7,3-2.7c2.6,0,3.1,1.1,3.1,2.6v4.5c0,0.8,0,1.2,0.3,1.7h-2.1
			c-0.1-0.3-0.2-0.6-0.3-0.9h0c-0.5,0.9-1.1,1.1-2.2,1.1c-1.5,0-2.1-1.3-2.1-2.5c0-1.6,0.7-2.3,2.2-2.7l1.2-0.3
			c0.7-0.2,0.9-0.4,0.9-1c0-0.7-0.3-1.1-1-1.1c-0.7,0-1,0.4-1,1.1v0.2H474.8z M478.8,537.5c-0.3,0.2-0.7,0.4-0.9,0.4
			c-0.9,0.2-1.2,0.6-1.2,1.4c0,0.7,0.2,1.2,0.8,1.2c0.6,0,1.4-0.4,1.4-1.3V537.5z"/>
		<path class="st8" d="M487.6,536.2v1.9h-4.5v-1.9H487.6z"/>
		<path class="st8" d="M452.7,552.3c0-0.8-0.2-1.7-1-1.7c-1.1,0-1.3,1-1.3,2.9c0,2.1,0.2,3,1.2,3c0.7,0,1.1-0.6,1.1-2h2.1
			c0,2.3-0.9,3.5-3.3,3.5c-2.2,0-3.3-1.1-3.3-4.5c0-3.5,1.5-4.5,3.5-4.5c2,0,3.1,1.3,3.1,3.3H452.7z"/>
		<path class="st8" d="M456.6,551.8v-0.2c0-2,1.4-2.7,3-2.7c2.6,0,3.1,1.1,3.1,2.6v4.5c0,0.8,0,1.2,0.3,1.7h-2.1
			c-0.1-0.3-0.2-0.6-0.3-0.9h0c-0.5,0.9-1.1,1.1-2.2,1.1c-1.5,0-2.1-1.3-2.1-2.5c0-1.6,0.7-2.3,2.2-2.7l1.2-0.3
			c0.7-0.2,0.9-0.4,0.9-1c0-0.7-0.3-1.1-1-1.1c-0.7,0-1,0.4-1,1.1v0.2H456.6z M460.6,553.5c-0.3,0.2-0.7,0.4-0.9,0.4
			c-0.9,0.2-1.2,0.6-1.2,1.4c0,0.7,0.2,1.2,0.8,1.2c0.6,0,1.4-0.4,1.4-1.3V553.5z"/>
		<path class="st8" d="M465,546.4h2.2v3.6h0c0.5-0.7,1-1,1.9-1c1.8,0,2.6,1.3,2.6,4.5s-0.8,4.5-2.6,4.5c-0.9,0-1.5-0.3-2-1.1h0v0.9
			H465V546.4z M468.3,556.3c1,0,1.2-1,1.2-2.8c0-1.9-0.2-2.8-1.2-2.8c-1,0-1.2,1-1.2,2.8C467.2,555.4,467.4,556.3,468.3,556.3z"/>
		<path class="st8" d="M473.6,551.8v-0.2c0-2,1.4-2.7,3-2.7c2.6,0,3.1,1.1,3.1,2.6v4.5c0,0.8,0,1.2,0.3,1.7h-2.1
			c-0.1-0.3-0.2-0.6-0.3-0.9h0c-0.5,0.9-1.1,1.1-2.2,1.1c-1.5,0-2.1-1.3-2.1-2.5c0-1.6,0.7-2.3,2.2-2.7l1.2-0.3
			c0.7-0.2,0.9-0.4,0.9-1c0-0.7-0.3-1.1-1-1.1c-0.7,0-1,0.4-1,1.1v0.2H473.6z M477.6,553.5c-0.3,0.2-0.7,0.4-0.9,0.4
			c-0.9,0.2-1.2,0.6-1.2,1.4c0,0.7,0.2,1.2,0.8,1.2c0.6,0,1.4-0.4,1.4-1.3V553.5z"/>
		<path class="st8" d="M481.9,549.2h2.1v1h0c0.5-0.8,1.3-1.2,2.2-1.2c1.4,0,2.2,0.8,2.2,2.4v6.4h-2.2v-5.9c0-0.9-0.3-1.2-0.9-1.2
			c-0.8,0-1.2,0.5-1.2,1.4v5.7h-2.2V549.2z"/>
		<path class="st8" d="M490.6,551.8v-0.2c0-2,1.4-2.7,3-2.7c2.6,0,3.1,1.1,3.1,2.6v4.5c0,0.8,0,1.2,0.3,1.7h-2.1
			c-0.1-0.3-0.2-0.6-0.3-0.9h0c-0.5,0.9-1.1,1.1-2.2,1.1c-1.5,0-2.1-1.3-2.1-2.5c0-1.6,0.7-2.3,2.2-2.7l1.2-0.3
			c0.7-0.2,0.9-0.4,0.9-1c0-0.7-0.3-1.1-1-1.1c-0.7,0-1,0.4-1,1.1v0.2H490.6z M494.6,553.5c-0.3,0.2-0.7,0.4-0.9,0.4
			c-0.9,0.2-1.2,0.6-1.2,1.4c0,0.7,0.2,1.2,0.8,1.2c0.6,0,1.4-0.4,1.4-1.3V553.5z"/>
	</g>
	<g>
		<ellipse class="st10" cx="499.1" cy="516.1" rx="6.9" ry="6.1"/>
		<path class="st11" d="M498.9,507c-5,0-9,4-9,9c0,2,1.3,5.3,3.9,10c1.9,3.3,3.7,6.1,3.8,6.2l1.3,2l1.3-2c0.1-0.1,1.9-2.9,3.8-6.2
			c2.6-4.7,3.9-8,3.9-10C507.9,511,503.8,507,498.9,507z M498.9,520.6c-2.6,0-4.7-2.1-4.7-4.7c0-2.6,2.1-4.7,4.7-4.7
			s4.7,2.1,4.7,4.7C503.5,518.5,501.5,520.6,498.9,520.6z"/>
	</g>
</g>
<g id="Route">
</g>
</svg>
