<?xml version="1.0" encoding="utf-8"?>
<!-- Generator: Adobe Illustrator 25.3.1, SVG Export Plug-In . SVG Version: 6.00 Build 0)  -->
<svg version="1.1" id="Ebene_1" xmlns="http://www.w3.org/2000/svg" xmlns:xlink="http://www.w3.org/1999/xlink" x="0px" y="0px"
	 viewBox="0 0 75 75" style="enable-background:new 0 0 75 75;" xml:space="preserve">
<style type="text/css">
	.st0{fill:#FFFFFF;}
</style>
<g>
	<path class="st0" d="M37.5,39.7c1.9,0,3.4-1.5,3.4-3.4c0-1.9-1.5-3.4-3.4-3.4c-1.9,0-3.4,1.5-3.4,3.4
		C34.1,38.2,35.6,39.7,37.5,39.7z"/>
	<rect x="41.8" y="46.5" class="st0" width="4.8" height="2.9"/>
	<path class="st0" d="M30.1,51.5h-8.5v-2h4.7v-2.9h-4.7v-2h31.9v2h-4.9v2.9h4.9v2h-8.5c3.7,1.7,6.7,4.6,8.5,8.2V35.8L37.5,25.1
		l-16,10.6v23.9C23.4,56.1,26.4,53.2,30.1,51.5z M37.5,30.9c3,0,5.4,2.4,5.4,5.4c0,3-2.4,5.4-5.4,5.4c-3,0-5.4-2.4-5.4-5.4
		C32.1,33.3,34.5,30.9,37.5,30.9z"/>
	<path class="st0" d="M34.1,58.5h6.8V67h12.4C53,58.6,46,51.8,37.5,51.8C29,51.8,22,58.6,21.7,67h12.4V58.5z"/>
	<rect x="35" y="46.5" class="st0" width="4.8" height="2.9"/>
	<rect x="28.2" y="46.5" class="st0" width="4.8" height="2.9"/>
	<path class="st0" d="M61.6,15.3v-3.5h2v-2h-2V8h-2v1.9h-2v2h2v3.5l-3.9,1.9V67h9.7V17.2L61.6,15.3z M62.6,52.7h-4.1v-5.9
		c0-1.1,0.9-2,2-2s2,0.9,2,2V52.7z M62.6,39.1h-4.1v-5.9c0-1.1,0.9-2,2-2s2,0.9,2,2V39.1z M62.6,25.8h-4.1v-3.7c0-1.1,0.9-2,2-2
		s2,0.9,2,2V25.8z"/>
	<path class="st0" d="M15.4,11.9h2v-2h-2V8h-2v1.9h-2v2h2v3.5l-3.9,1.9V67h9.7V17.2l-3.9-1.9V11.9z M16.4,52.7h-4.1v-5.9
		c0-1.1,0.9-2,2-2c1.1,0,2,0.9,2,2V52.7z M16.4,39.1h-4.1v-5.9c0-1.1,0.9-2,2-2c1.1,0,2,0.9,2,2V39.1z M16.4,22.2v3.7h-4.1v-3.7
		c0-1.1,0.9-2,2-2C15.5,20.2,16.4,21.1,16.4,22.2z"/>
</g>
</svg>
