<?xml version="1.0" encoding="utf-8"?>
<!-- Generator: Adobe Illustrator 25.3.1, SVG Export Plug-In . SVG Version: 6.00 Build 0)  -->
<svg version="1.1" xmlns="http://www.w3.org/2000/svg" xmlns:xlink="http://www.w3.org/1999/xlink" x="0px" y="0px"
	 viewBox="0 0 770.2 767.8" style="enable-background:new 0 0 770.2 767.8;" xml:space="preserve">
<style type="text/css">
	.st0{fill:#E2E2E3;}
	.st1{fill:none;stroke:#000000;stroke-miterlimit:10;}
	.st2{fill:none;stroke:#E2E2E3;stroke-width:1.5;stroke-miterlimit:10;}
	.st3{fill:none;}
	.st4{fill:#4EA1E1;stroke:#4EA1E1;stroke-miterlimit:10;}
	.st5{fill:none;stroke:#4EA1E1;stroke-miterlimit:10;}
	.st6{fill:#A6A6A5;}
	.st7{fill:#4EA1E1;}
	.st8{fill:#1D1D1B;}
	.st9{fill:#20201E;}
	.st10{fill:#6E6E6D;}
	.st11{fill:#FFFFFF;}
	.st12{display:none;}
	.st13{display:inline;fill:#4EA1E1;}
	.st14{font-family:'HelveticaNeueLT-BoldCond';}
	.st15{font-size:12px;}
	.st16{display:inline;fill:none;stroke:#4EA1E1;stroke-miterlimit:10;}
</style>
<g id="Montenegro">
	<path class="st0" d="M425.1,740.6c-2,1.3-3.3,0-5.5-2c-2.2-2-4.2-8.1-9.2-12.6c-5.1-4.4-7.9-6.2-13.3-10c-5.4-3.8-13.4-4-15.4-4.8
		c-2-0.8-7.6-5.4-14.5-9.2s-8.1-6.1-7.4-8.1c0.7-2-1.5-4.6-3.7-7.1c-2.3-2.5-3.4-5.6-2-6.3c1.3-0.7,2.1-2.5,1-3.5
		c-1.2-1,0-2,0.8-4.5s-0.8-13.5-1.8-17c-1-3.5-15.9-13.4-18.7-16.2c-2.8-2.8-2.1-3.8,0-3.6c2.1,0.2,3.1,0.8,3.5-2.5
		c0.3-3.3-2-8.1-3.5-9.9s-4.5-1-4.5-2.3c0-1.3,0-4-1.5-5.3s-7.9-0.7-10.9-1.3c-3-0.7-3.8,0.7-5.4,0c-1.7-0.7,0-7.4-1-8.9
		c-1-1.5-4-1.7-7.1-3.1c-3.1-1.4-3.6-5.3-3.6-7.6c0-2.3,0-3.5-1.7-4.5c-1.7-1-12.2-7.6-14.7-9.4c-2.5-1.8-1.7-3.8-2.8-8.8
		c-1.2-5-3.6-15.5-6.1-17.7c-2.5-2.1-5,1-6.6,0.8c-1.7-0.2-1.9-3.6-3.8-3.5c-1.9,0.1-2.3,4.1-4.5,5c-2.2,0.9-2.7-2.7-4.5-4.7
		c-1.8-2-4.8-0.8-4,0.8s-0.8,2.8-3.3,1.5c-2.5-1.3-3.1,0-2.6,1.7s-1.5,2.5-3.8,0c-2.3-2.5-17.2-17.8-18.7-19.5s0.8-7.1-0.3-8.3
		s-6.6-6.6-5.6-6.9s3.6-0.8,3.8-2c0.2-1.2-1.5-3-3-5.1s-2.1-5.3-3.5-5.3c-1.3,0-6.1,0-8.1,1.3c-2,1.3,1.2,5.9-0.8,6.9
		c-2,1-2.3-2.8-4.2-2.7c-1.9,0.1-2.6,2.6-7.7,1.9s-12.1-9.7-12.2-11.2c-0.2-1.5,1.5-2.5-0.3-3.5c-1.8-1-6.9-4-6.9-10.2
		s12.2-1.2,19.3,1.8c7.1,3,18,6.9,21.5,7.6c3.5,0.7,4,2.5,6.6,4.9c2.6,2.4,5.6,1.7,6,0c0.4-1.7-2.4-2.4-3.7-3.9
		c-1.3-1.5,0-3.8,0.5-5.1c0.5-1.3-2.5-4.3-4.6-6.9c-2.1-2.6-3.8-7.1-3.5-13.4s4.3-5.1,11.7-3s9.2,9.2,10.6,15.9c1.3,6.6,3.5,2,3.1-1
		s-1.3-12.9-1.2-18.2c0.2-5.3-2.8-3.3-6.6-2s-10.9,0-13-1.4s1.3-8.7-1.2-10.5c-2.5-1.8-8.9,2.3-11.2,5.1s3.8,5.3,6.8,6.6
		s0,3.5-2.3,7.3c-2.3,3.8-1.8,4.1-5.3,5.9c-3.5,1.8-9.4,4.3-15,5.9c-5.6,1.7-9.1-4.1-11.2-7.1c-2.1-3-2.6-0.2-7.9-0.5
		c-5.3-0.3-9.9-2.5-11.9-1.2c-2,1.3,5.9,10.9,4.9,12.7c0,0-7.8-6.2-10.8-10.6c-3-4.3-7.7-11.4-11.7-12.9c-3.9-1.5-6.2-5.1-3.9-9.1
		c2.3-4.1,2.3-6.2,2.3-11.4c0-5.2,0-15.3,0-15.3s10-0.1,12-1.8c2-1.6,6.5-8.4,9.2-8.8c2.7-0.4,10.3,6.1,12,3.9
		c1.6-2.3-2.4-8.9-4.2-13.6s-0.1-10.4,3.3-11.3s9.4-0.3,10.1-2.3s-7.3-12.2-6.8-16.5c0.5-4.3,4.9-9.8,4.3-11.7
		c-0.6-1.9-11.1-6.8-14.8-8.7c-3.7-1.9-3.7-1.9-3.7-1.9s-0.2-2.7-1.6-3.7c-1.4-1-6.1-2.5-6.4-5.2c-0.3-2.6,0.1-5.3-1.2-8.4
		c-1.3-3.1-1.3-6.4-1.3-9.6c0-3.2-2-8.7-2-8.7s3.1-0.4,3.2-3.2c0.2-2.8-1.5-8.5,0.9-11c2.4-2.4,4.6-2.3,5.4-3.9s0-5.4,1.7-6.4
		c1.7-1,4.5-1.5,4.1-4.4c-0.4-2.9-8.6-16.4-5.9-27.4s7.4-15.2,10.5-16.5c3.1-1.3,1.5-7.8,4-9.5c2.4-1.7,28.1-2.1,35.2-5.1
		s5.9,0.7,5-17.5c-1-18.2-1.1-29.9,0.6-35.7s4.8-16.3,8.9-19c4.1-2.8,6.1-4.8,7.4-6.1c1.3-1.3,2.4-4.2,0.6-6.1
		c-1.8-1.9-4.3-6.7-1.8-9c2.5-2.3,44.7-25.4,44.7-25.4l-2.6-8.2c0,0,5.6-1.3,9.2-1.8s10.4-3.3,12.7-1.7c2.3,1.7,4.1,5.3,6.1,7.1
		s7.1,3,7.5,5.4s-3,11.1-1.3,13.9c1.7,2.8,5.9,3.1,8.3,7.4c2.3,4.3,5.3,9.9,5.3,9.9s4.8-1.2,8.6-6.8c3.8-5.6,8.1-10.1,12.1-11.6
		c4-1.5,4.6-2.3,5.1-6.8c0.5-4.5-6.9-15.7-9.7-19.2c-2.8-3.4-0.8-11.9-1-13.2s-7.6-10.1-8.4-13.9s-2.1-8.6-3.4-9.2
		c-1.2-0.6-2.2,1.4-3.2,1.3s-3.2-5.4-5.2-5.4c-2,0-5.3,1.4-5.3,1.4s1.4-11.7-0.1-15.9s-2.1-8.4-4.6-5.4c-2.5,3-5.5,5.1-5.8,0.4
		c-0.3-4.6,7.7-8,11.8-8.9c4.1-0.9,6.5-1.7,7.3-4.1c0.8-2.4,0.7-7.4,3.6-8.8s4.5-1.1,5.7,1.2s6.3,5.8,7.3,8.4c1,2.5-0.9,9.6,2.9,11
		c3.7,1.4,4.3-3.4,8.9-3.7c4.6-0.3,13.2-1.7,17.3-3.7s5.1-5,9.2-4c4.2,1,12.8,0.4,15.3,1.5c2.5,1.1,2.5,1.1,2.5,5.3
		s-0.5,11.6,1.5,14.8s10.9,11.7,19.3,15c8.4,3.3,9.5,4.4,12.5,7.3c3,3,8.5,8,15.1,11.6c6.6,3.6,14,5.9,16.3,6.8
		c2.3,0.8,1,5.1,2.3,7.4c1.3,2.3,5.1,11.9,6.8,13.7c1.7,1.8,4.8,5.9,8.9,6.8c4.1,0.8,8.6,1.2,8.9,6.1c0.3,5-0.7,11.9,0.5,14.7
		c1.2,2.8,6.3,12.2,7.9,12.9s12.1,0.2,16.7,5.1c4.6,5,5.9,7.4,7.3,11.6c1.3,4.1,3.3,5.4,6.9,7.6c3.6,2.1,5.3,6.1,7.8,6.3
		c2.5,0.2,7.9-2,10.7,0c2.8,2,5,3.8,8.3,3.6c3.3-0.2,6.8-1,6.8-1s1.8,3.5,1.8,6.3c0,2.8,0,7.3,0,7.3s7.9,6.3,10.4,6.6s5-0.8,6.4,0.3
		c1.5,1.2,0.2,8.4,1.5,8.9c1.3,0.5,5.4-5.9,7.8-6c2.4-0.1,8.5,7.3,13.3,7.5c4.8,0.2,14.7-6.4,17-5.8c2.3,0.7,5.6,18.5,8.8,21.5
		c3.1,3,12.2,8.6,15.4,12.1c3.1,3.5,6.1,11.9,8.9,13.2c2.8,1.3,5.9,1.1,6.6,3.5s3.6,8.3,8.3,8.3c4.6,0,4.3-8.4,6.8-7.9
		c2.5,0.5,10.6,9.1,15.2,11.1c4.6,2,20,9.9,29.2,14.4s15.2,7.3,16.7,9.4c1.5,2.1,0.2,16.3,0.8,20.3c0.7,4,0.7,7.9,0.7,7.9
		s-5.8,2-9.6,1.8c-3.8-0.2-7.1,0.7-10.7,2.8c-3.6,2.1-7.9,2.3-7.3,6.6c0.7,4.3,3.5,10.7-2.1,16.3c-5.6,5.6-5.8,10.1-10.2,8.9
		c-4.5-1.2-7.8-1.5-10.1-1.8c-2.3-0.3-3.6-4.8-7.4-4.8s-6.4,2.5-9.2,1.2c-2.8-1.3-11.7-10.2-19-7.6c-7.3,2.6-14.4,3.3-15.4,9.2
		c-1,5.9,0,18.5,3.6,21.8c3.6,3.3,16.7,11.9,20.1,15.3c3.5,3.5,5,4.1,1.7,7.9c-3.3,3.8-9.4,8.9-8.6,14.2s4,11.7,3.3,15.7
		c-0.7,4-3.5,10.2-3.5,10.2s-3.5-4.3-9.9-0.8c-6.4,3.5-10.6,4.4-11.2,9.2s-0.7,8.4-7.7,8.4c-7,0-13-4.4-19.2-2.2
		c-6.2,2.2-6.2,9.2-9,10.1s-8.8-0.7-11.4,1.8c-2.6,2.4-8.4,7.7-11.2,7.5c-2.9-0.2-15.9-8.4-19.8-18.5c-4-10.1-4.2-18.7-2.9-23.6
		s8.6-5.5,7.7-7.9c-0.9-2.4-8.1-11-7.3-16.1s0-6.4-4.2-11s-9,4-16.1,7c-7,3.1-22.2,11.7-22,20.9c0.2,9.2,2.2,13,0.2,15.9
		c-2,2.9-13.2,7.3-15.9,12.8c-2.6,5.5-9.9,23.3-13,27.5c-3.1,4.2-10,3.7-10.8,10.3s-6.8,12.3-8.3,13.9c-1.5,1.5-9.7,3.1-10.8,7.5
		c-1.1,4.4-3.7,12.3-3.5,13.9c0.2,1.5,0.2,2.6,0.2,2.6s0,3.3-4.4,5.9c-4.4,2.6-10.1,6.6-10.3,7.7s-0.2,6.8-0.2,6.8l3.1,2l-27.1,39.4
		l26,23.3c0,0-3.7,35.2-3.1,42.9c0.7,7.7,2.9,10.8,2.6,15.2c-0.2,4.4,3.5,6.8-0.9,9s-11.2,1.1-9.9,6.2s6.8,5.9,5.7,9.5
		c-1.1,3.5-9,4.8-7.9,7c1.1,2.2,8.4,4,9.2,7.7s2.4,2,0.9,7.9c0,0-0.2,2.6-0.6,7.3S425.1,740.6,425.1,740.6z"/>
</g>
<g id="Grenzen">
	<path class="st2" d="M78.2,430c0,0,14.1,16.2,23,20.8s31.2,20.6,33.5,22.1c2.3,1.5,2.8,3.1,0.6,3.2s-1.7,0.7,0,2.3s7.7,1.7,9.3,1.7
		c1.7,0,3.7,0.3,6.5,4.8c2.8,4.5,10.9,16.1,12.8,17.9c2,1.8,5.8,1.3,2-2.3s-3.1-7.6-2.6-8.4c0.5-0.8,3.2,1,4.3-0.8
		c1-1.8-6.9-11.4-4.9-12.7c2-1.3,6.6,0.8,11.9,1.2c5.3,0.3,5.8-2.5,7.9,0.5c2.1,3,5.6,8.8,11.2,7.1c5.6-1.7,11.6-4.1,15-5.9
		c3.5-1.8,2.9-2.1,5.3-5.9c2.3-3.8,5.3-5.9,2.3-7.3s-9.1-3.8-6.8-6.6s8.8-6.9,11.2-5.1c2.5,1.8-1,9.1,1.2,10.5s9.2,2.7,13,1.4
		s6.8-3.3,6.6,2c-0.2,5.3,0.8,15.2,1.2,18.2s-1.8,7.6-3.1,1c-1.3-6.6-3.1-13.7-10.6-15.9s-11.4-3.3-11.7,3s1.3,10.7,3.5,13.4
		c2.1,2.6,5.1,5.6,4.6,6.9c-0.5,1.3-1.8,3.6-0.5,5.1c1.3,1.5,4.1,2.1,3.7,3.9c-0.4,1.7-3.4,2.4-6,0c-2.6-2.4-3.1-4.2-6.6-4.9
		c-3.5-0.7-14.4-4.6-21.5-7.6c-7.1-3-19.3-8.1-19.3-1.8s5.1,9.2,6.9,10.2c1.8,1,0.2,2,0.3,3.5c0.2,1.5,7.1,10.6,12.2,11.2
		s5.8-1.8,7.7-1.9c1.9-0.1,2.2,3.7,4.2,2.7c2-1-1.2-5.6,0.8-6.9c2-1.3,6.8-1.3,8.1-1.3c1.3,0,2,3.1,3.5,5.3s3.1,4,3,5.1
		c-0.2,1.2-2.8,1.7-3.8,2s4.5,5.8,5.6,6.9s-1.2,6.6,0.3,8.3s16.4,17,18.7,19.5c2.3,2.5,4.3,1.7,3.8,0s0.2-3,2.6-1.7
		c2.5,1.3,4.1,0.2,3.3-1.5s2.2-2.8,4-0.8c1.8,2,2.3,5.6,4.5,4.7c2.2-0.9,2.6-5,4.5-5c1.9-0.1,2.1,3.3,3.8,3.5c1.7,0.2,4.1-3,6.6-0.8
		c2.5,2.1,5,12.7,6.1,17.7c1.2,5,0.3,6.9,2.8,8.8c2.5,1.8,13,8.4,14.7,9.4c1.7,1,1.7,2.1,1.7,4.5c0,2.3,0.6,6.2,3.6,7.6
		c3.1,1.4,6.1,1.7,7.1,3.1c1,1.5-0.7,8.3,1,8.9c1.7,0.7,2.5-0.7,5.4,0c3,0.7,9.4,0,10.9,1.3s1.5,4,1.5,5.3c0,1.3,3,0.5,4.5,2.3
		s3.8,6.6,3.5,9.9c-0.3,3.3-1.3,2.6-3.5,2.5c-2.1-0.2-2.8,0.8,0,3.6c2.8,2.8,17.7,12.7,18.7,16.2c1,3.5,2.6,14.5,1.8,17
		s-2,3.5-0.8,4.5c1.2,1,0.3,2.8-1,3.5c-1.3,0.7-0.2,3.8,2,6.3c2.3,2.5,4.4,5.1,3.7,7.1c-0.7,2,0.5,4.3,7.4,8.1s12.6,8.4,14.5,9.2
		c2,0.8,9.9,1,15.4,4.8c5.4,3.8,8.3,5.6,13.3,10c5.1,4.4,7,10.6,9.2,12.6c2.2,2,3.5,3.3,5.5,2c2-1.3,2.9-9.9,7.5-9.7
		c4.6,0.2,14,2.6,14.8,0.7s-0.3-3.5-2.6-4.1s-6.6-4.6-3.8-4.6c2.8,0,2.1-3.8,4-4.1c1.8-0.3,2,4.5,4,6.4c2,2,4.6,3,4.5,4.5
		c-0.2,1.5-6.1,3.6-2.7,4s15.8,4.4,23,9.2c7.3,4.8,11.7,11.7,13.8,11.3c2.1-0.4,3.2-2.7,5.4-1.6c2.1,1.2,1.3,4.8,2.1,8.1
		c0.8,3.3,0,7,0,7"/>
	<path class="st2" d="M143.4,432c0,0-5.7-6.7-10.3-8.6c-4.6-1.8-7.4-1.2-9.4-6.1c-2-5-1-8.4-12.7-9.4"/>
	<path class="st2" d="M392.6,37c0,0,4.1,7.2,6.4-6s0.3-20.8,10.6-21.1c10.2-0.3,10.6,3,17.8,0c7.3-3,9.1-6.3,9.1-6.3
		s6.9,7.8,10.2,11.1s8.5-0.4,17.4,1.9s12.9,1.9,14.5-0.8c1.6-2.6-7.2-6.7-5.3-12.2c1.4-4.1,0-2.6,0-2.6"/>
	<path class="st2" d="M648.3,447c0,0,1.3,8.4,8.6,12.7c7.3,4.3,13.9,2.6,17.2,8.3c3.3,5.6,6.3,12.9,8.9,18.8
		c2.6,5.9,5.6,8.9,7.1,10.4c1.5,1.5-5.1,9.7-2.8,12.7"/>
	<path class="st2" d="M732.7,328.8c0,0,6.8-0.7,9.7-2.4c2.9-1.7,3.8-2.9,7.4-2.2c3.7,0.6,9.2,1.3,11.7,1.5c2.5,0.2,4.3-0.3,4.3-0.3"
		/>
</g>
<g id="Meer">
	<path class="st3" d="M78.2,430c0,0,14.1,16.2,23,20.8s31.2,20.6,33.5,22.1c2.3,1.5,2.8,3.1,0.6,3.2s-1.7,0.7,0,2.3s7.7,1.7,9.3,1.7
		c1.7,0,3.7,0.3,6.5,4.8c2.8,4.5,10.9,16.1,12.8,17.9c2,1.8,5.8,1.3,2-2.3s-3.1-7.6-2.6-8.4c0.5-0.8,3.2,1,4.3-0.8
		c1-1.8-6.9-11.4-4.9-12.7c2-1.3,6.6,0.8,11.9,1.2c5.3,0.3,5.8-2.5,7.9,0.5c2.1,3,5.6,8.8,11.2,7.1c5.6-1.7,11.6-4.1,15-5.9
		c3.5-1.8,2.9-2.1,5.3-5.9c2.3-3.8,5.3-5.9,2.3-7.3s-9.1-3.8-6.8-6.6s8.8-6.9,11.2-5.1c2.5,1.8-1,9.1,1.2,10.5s9.2,2.7,13,1.4
		s6.8-3.3,6.6,2c-0.2,5.3,0.8,15.2,1.2,18.2s-1.8,7.6-3.1,1c-1.3-6.6-3.1-13.7-10.6-15.9s-11.4-3.3-11.7,3s1.3,10.7,3.5,13.4
		c2.1,2.6,5.1,5.6,4.6,6.9c-0.5,1.3-1.8,3.6-0.5,5.1c1.3,1.5,4.1,2.1,3.7,3.9c-0.4,1.7-3.4,2.4-6,0c-2.6-2.4-3.1-4.2-6.6-4.9
		c-3.5-0.7-14.4-4.6-21.5-7.6c-7.1-3-19.3-8.1-19.3-1.8s5.1,9.2,6.9,10.2c1.8,1,0.2,2,0.3,3.5c0.2,1.5,7.1,10.6,12.2,11.2
		s5.8-1.8,7.7-1.9c1.9-0.1,2.2,3.7,4.2,2.7c2-1-1.2-5.6,0.8-6.9c2-1.3,6.8-1.3,8.1-1.3c1.3,0,2,3.1,3.5,5.3s3.1,4,3,5.1
		c-0.2,1.2-2.8,1.7-3.8,2s4.5,5.8,5.6,6.9s-1.2,6.6,0.3,8.3s16.4,17,18.7,19.5c2.3,2.5,4.3,1.7,3.8,0s0.2-3,2.6-1.7
		c2.5,1.3,4.1,0.2,3.3-1.5s2.2-2.8,4-0.8c1.8,2,2.3,5.6,4.5,4.7c2.2-0.9,2.6-5,4.5-5c1.9-0.1,2.1,3.3,3.8,3.5c1.7,0.2,4.1-3,6.6-0.8
		c2.5,2.1,5,12.7,6.1,17.7c1.2,5,0.3,6.9,2.8,8.8c2.5,1.8,13,8.4,14.7,9.4c1.7,1,1.7,2.1,1.7,4.5c0,2.3,0.6,6.2,3.6,7.6
		c3.1,1.4,6.1,1.7,7.1,3.1c1,1.5-0.7,8.3,1,8.9c1.7,0.7,2.5-0.7,5.4,0c3,0.7,9.4,0,10.9,1.3s1.5,4,1.5,5.3c0,1.3,3,0.5,4.5,2.3
		s3.8,6.6,3.5,9.9c-0.3,3.3-1.3,2.6-3.5,2.5c-2.1-0.2-2.8,0.8,0,3.6c2.8,2.8,17.7,12.7,18.7,16.2c1,3.5,2.6,14.5,1.8,17
		s-2,3.5-0.8,4.5c1.2,1,0.3,2.8-1,3.5c-1.3,0.7-0.2,3.8,2,6.3c2.3,2.5,4.4,5.1,3.7,7.1c-0.7,2,0.5,4.3,7.4,8.1s12.6,8.4,14.5,9.2
		c2,0.8,9.9,1,15.4,4.8c5.4,3.8,8.3,5.6,13.3,10c5.1,4.4,7,10.6,9.2,12.6c2.2,2,3.5,3.3,5.5,2c2-1.3,2.9-9.9,7.5-9.7
		c4.6,0.2,14,2.6,14.8,0.7s-0.3-3.5-2.6-4.1s-6.6-4.6-3.8-4.6c2.8,0,2.1-3.8,4-4.1c1.8-0.3,2,4.5,4,6.4c2,2,4.6,3,4.5,4.5
		c-0.2,1.5-6.1,3.6-2.7,4s15.8,4.4,23,9.2c7.3,4.8,11.7,11.7,13.8,11.3c2.1-0.4,3.2-2.7,5.4-1.6c2.1,1.2,1.3,4.8,2.1,8.1
		c0.8,3.3,0,7,0,7H78.2V430z"/>
</g>
<g id="Flüsse">
	<path class="st4" d="M142.5,307.4c-2.1,0-1.9,2.3-1.2,5c0.7,2.6,0.3,4-1,3.8c-1.3-0.2-1.8-4.5-4.3-5.4c-2.5-0.9-5.1,0.9-3.3,5
		c1.8,4.1,5.7,5.3,6.2,7.6c0.6,2.3-0.5,6.9,0.6,7.8c2.1,1.7,7.7,0.7,9.5,3.9c1.8,3.1,2.7,9.2,3.4,13.8c0.7,4.5-1.6,4.3,2.3,6.2
		c3.8,1.9,7.1,7.6,8.6,6.6c1.4-0.9,1.8-3.9,0.6-5.1c-1.2-1.2-6.6-3-6.9-5.3s-0.3-5.8-1.2-8.6c-0.9-2.8-1.2-8.5-1.5-10.5
		c-0.7-4.1-1.7-6.5-1.4-8.7c0.2-1.6-0.4-4.5-2.6-5.5c-2.1-1-4.4,0.2-5.2-2.2C144.4,313.3,144.2,307.4,142.5,307.4z"/>
	<path class="st4" d="M284.4,332.4c-2.7,0.7-6.2,1.8-6.3,4.1s0.7,2.9,3.1,4.4c2.4,1.5,3.8,2.1,4.9,1s-0.3-3,0.6-3.5
		c0.9-0.5,2.2-0.8,2-2c-0.2-1.2-2.4-0.5-2.3-1.5c0.1-1,0.1-2.6-0.7-3C285.1,331.7,284.4,332.4,284.4,332.4z"/>
	<path class="st4" d="M275.4,346c-1.7-0.7-8.3,6-9.4,8.4c-1.2,2.4-1.2,4.8,2.6,5c3.7,0.2,11.3,0.7,12.5-1.8c1.2-2.5,1.1-4.9,0-5.4
		c-1.1-0.6-5.2,2.6-6,1.2s1.4-5.3,1.4-6.3C276.4,346.1,275.4,346,275.4,346z"/>
	<path class="st4" d="M337.5,543.5c1-1,2.6,2.1,4.3,2c1.7-0.2,1.8,1.8,2.1,3.1c0.3,1.3,3,4,5.1,6.1s0.7,5.6,2.6,5.9
		c2,0.3,3,0.3,3.8,0.3s-1.2,3.6,1,4.1s2.8-4.3,5.4-3.6c2.6,0.7,1.5,6.6,4.1,6.4c2.6-0.2,2.5-6.1,6.3-5.6s20.3,0.8,24.3,3.3
		s8.4,7.4,10.9,7.6c2.5,0.2-0.8-4.1,0.8-4.1c1.7,0,5,3.5,6.1,2.5c1.2-1-0.5-4.8,1.2-5.4c1.7-0.7,4.6-1.5,4.4-3.4
		c-0.2-1.9-5.4,1.5-6.9,1.2s-1.7-5.6-0.8-5.7c0.9,0,0.9-0.1,1.9-1.1c1-1,0.4-3.2,2.6-2.6c2.2,0.7,2.3,4.2,4.2,4.4
		c1.9,0.2,4.3-0.1,5.4-1.3s-0.6-6,1-7.7s9.3-6.5,11.3-8.3c1.9-1.8,3-4.4,4.5-5.3s3.3,0.9,1.4,3.6c-1.9,2.8-20.1,27.7-20.7,31.6
		s0.6,7.5,1.8,9.8c1.2,2.3,0.8,5.3,2.6,7s6.2,5.4,9.2,6.4c3.1,1,7.7,2.9,7.8,6.7s0.9,7.7,3.9,9.9c3.1,2.2,6.1,4.8,7.8,9.8
		c1.8,5,3.3,9.1,1.8,11.4c-1.5,2.3-3,2.5-2.8,4.5c0.2,2,2.2,2.8,1.9,5.4c-0.3,2.6-1.3,8.1-1.3,8.1s-15.4-5.3-19.3-5.9
		c-3.9-0.7-6.7-5.8-12.8-7.5c-6.1-1.7-8-0.3-11.3-3.6s-10.2-9.1-12.8-9.4c-2.5-0.2-4.8-4-7.9-5.6c-3.1-1.7-4.5-1.8-5.6-0.9
		c-1.1,0.9-0.9-3.2-3-6.4c-2.1-3.2-3.2-6.9-6.1-8.8c-2.9-1.9-2-4.2-2.9-5.6c-0.9-1.4-2.6-1.4-2.9-5.1c-0.2-3.6-2.9-2.4-3-5.2
		c-0.1-2.8,0.3-6.1-2.8-7.3c-3.1-1.2-3.6,0-4.7-1.2s0.6-1.7-3.4-1.8s-7.3,1.1-9.6,1.1s-4.8-2.1-2.3-2.3c2.5-0.2,2.6-2,2.2-2.5
		s-4.1,0.4-4.2-2c-0.1-2.4-0.1-5.4-0.1-6.8s2.4-1.7,2-3.5c-0.4-1.8-3.1-4.1-2.8-5.3c0.3-1.2,0.3-3-1.9-3.4c-2.2-0.4-4-1.3-4.3-3.6
		C337.2,545.7,336.5,544.5,337.5,543.5z"/>
	<path class="st4" d="M361.4,521.3c-0.8,0.9-1.1,1.1-2.4,1.2c-1.3,0.1-0.2,1.2,0.7,2.4s1.9,8.8,1.8,11.1c-0.1,2.3,3.5,1.8,5.1,0
		c1.5-1.8,1.8-7.9,1.3-9.6c-0.4-1.7-3.8-2-4.6-2.4s0.8-2.5,0-3.3S361.4,521.3,361.4,521.3z"/>
	<path class="st5" d="M354.7,567.1c0,0,6.7-7.9,6.7-13.9s0.4-8.6,6.6-9.6c6.2-1,9.2-5.6,9.8-11.2c0.7-5.6-7.3-13.5-4.6-17.8
		c2.6-4.3,8.6-8.6,9.9-13.2c1.3-4.6,9.2-4.6,10.9-10.2c1.7-5.6-0.2-11.1,5.6-13.2s8.6,0.3,10.4-6.8c1.8-7.1,13-6.4,12-11.4
		c-0.9-5-3.9-14.2,0.1-21.8s8.2-11.6,8.2-20.1c0-8.6,3.3-10.9,1.7-16.8s-4.3-8.9-3-17.3c1.3-8.4,4-14.7,5.9-19c2-4.3,4.6-6.2,2-18.6
		c-2.6-12.4-4-15.6-9-16.7s-4.8-7.5-7.7-9c-2.9-1.5-6.4-5.1-9.4-8s-5.2-3-8-1c-2.9,2-4.3,3.3-6.4,3.7"/>
	<path class="st5" d="M315.4,394.9c0,0,4.2,12.3,7.7,14.4c3.5,2.1,6.4,1,7.9,5.4c1.5,4.4,2.2,7.5,4,10.3c1.8,2.9,7.4,14.2,13.7,17.6
		c6.3,3.4,12.1,2.9,14.5,4.8c2.4,2,0,6.4,2.4,8.1c2.4,1.8,11.4,6.2,14.1,7.5c2.6,1.3,2.6,1.9,3.1,3.7c0.5,1.8-0.2,3.8,3,5
		c3.1,1.2,4.8,1.3,6.3,4.5c1.5,3.1,2.9,9.3,2.9,9.3"/>
	<path class="st5" d="M376.7,527.1c0,0,0.6-4.2,6.1-6.6s9.5-3.6,13.6-5.4c4.1-1.8,3.4-7.8,9.6-7.3s7-5,10.8-4.4
		c3.8,0.7,11.7,7.8,19,7.6c7.3-0.2,17.7-15.4,22.2-15.1c4.5,0.2,8,4,12.8,3.1c4.8-1,15.7-12.7,22.3-23.4
		c6.6-10.7,8.8-13.2,11.2-13.7c2.5-0.5,0.8-4.5,6.4-6.3s15.7-3.6,15.7-3.6"/>
	<path class="st5" d="M272.9,108.5c0,0,18.5-3.2,20.6-3c2.1,0.2,4.5,2.1,6.6,5.1c2.1,3,6.8,3.2,8.2,6c1.4,2.8,0.6,2.1,0.5,7.4
		c-0.2,5.4-2.1,7.9,1.3,10.1c3.4,2.2,6.1,4.9,8.5,9.4s2.8,7.1,6.4,9.1c3.6,2,4.7,0.1,6.9,3.3c2.2,3.2,3.2,9,7.2,9.8
		c4,0.8,6.2-2.4,10-1c3.9,1.4,5.4,3.4,8.4,1.4c3-2,7.3-4.7,12.3-3.1c5.1,1.7,11.1,7.7,16.3,11.3c5.2,3.6,12.3,9,15.3,12.9
		c3,3.9,2.5,4.4,6.3,5.4c3.7,1,4.1,9,6.1,10.5c2,1.4,13.5,3.3,16.6,6.8c3.1,3.5,5.3,19,10.2,30.6c5,11.6,12.7,16.5,20.4,17.9
		c7.7,1.4,9.6,1,16.6,5.3c7,4.3,14.8,7.5,16,11.7c1.2,4.2,1.7,16.4,0.8,18.4c-0.9,2-2.8,3.2-5.4,3.1c-2.6-0.1-4.5,1.2-4.8,5.4
		c-0.3,4.2-2.3,5.6-3.1,12.4c-0.8,6.8,1.8,7.8-1.1,11.8c-2.9,4-5.5,5.5-5.4,9.8c0.1,4.3-0.6,8.3,1.3,9.1c1.9,0.9,6.2,1.2,5.7,4.7
		c-0.5,3.5,2,4.5,2.5,8s1.5,6.2-1.8,8.7c-3.3,2.5-9,5.8-9.6,9.6c-0.6,3.7,2.5,1.7,3,4.7c0.4,3.1-0.6,8.1,3.5,10s9.4,0.1,11.3,1.7
		c2,1.5,2,7,7.6,9.9c5.6,2.9,10.9,4,10.9,4"/>
	<path class="st4" d="M600.1,424.1c-2.2,1-4.2,2.6-3,4.6s1.3,5.1,3,4.2s4.7-2.2,3.5-4.3c-1.2-2.1-0.3-4.5-1.9-4.5
		S600.1,424.1,600.1,424.1z"/>
</g>
<g id="Text">
	<g>
		<path class="st6" d="M0,415h2.5v4.7L7,415h3.1l-4.5,4.5l4.9,6.9H7.4L4,421.3l-1.4,1.5v3.7H0V415z"/>
		<path class="st6" d="M14.8,415h6.2c2,0,3.3,1.4,3.3,3.2c0,1.3-0.5,2.4-1.8,2.9v0c1.2,0.3,1.6,1.5,1.7,2.7c0,0.7,0,2.1,0.5,2.7
			h-2.5c-0.3-0.7-0.3-1.8-0.4-2.7c-0.2-1.2-0.6-1.7-1.9-1.7h-2.5v4.5h-2.5V415z M17.3,420.2H20c1.1,0,1.7-0.5,1.7-1.6
			c0-1.1-0.6-1.6-1.7-1.6h-2.8V420.2z"/>
		<path class="st6" d="M34.6,414.7c3.5,0,5.6,2.6,5.6,6c0,3.3-2.1,5.9-5.6,5.9s-5.6-2.6-5.6-5.9C29,417.4,31.1,414.7,34.6,414.7z
			 M34.6,424.6c2.3,0,3.1-1.9,3.1-3.8c0-2-0.8-3.9-3.1-3.9s-3.1,1.9-3.1,3.9C31.5,422.7,32.4,424.6,34.6,424.6z"/>
		<path class="st6" d="M48.3,415h2.6l4.3,11.4h-2.6l-0.9-2.5h-4.3l-0.9,2.5h-2.5L48.3,415z M48,422h3l-1.4-4.2h0L48,422z"/>
		<path class="st6" d="M61.8,417.1h-3.4V415h9.4v2.1h-3.4v9.3h-2.5V417.1z"/>
		<path class="st6" d="M72.3,415h2.5v11.4h-2.5V415z"/>
		<path class="st6" d="M80.2,415h8.5v2.1h-6v2.4h5.5v2h-5.5v2.8h6.2v2.1h-8.7V415z"/>
		<path class="st6" d="M93.8,415h2.5l4.8,7.7h0V415h2.4v11.4h-2.5l-4.8-7.7h0v7.7h-2.4V415z"/>
	</g>
	<g>
		<path class="st6" d="M38.1,180.4h5.4c2.2,0,3.6,0.7,3.6,2.8c0,1.1-0.6,1.9-1.6,2.4c1.4,0.4,2.1,1.5,2.1,2.9c0,2.3-2,3.3-4,3.3
			h-5.5V180.4z M40.6,185.1h2.5c0.9,0,1.5-0.4,1.5-1.4c0-1.1-0.8-1.3-1.7-1.3h-2.4V185.1z M40.6,189.9h2.7c1,0,1.9-0.3,1.9-1.5
			c0-1.2-0.7-1.6-1.8-1.6h-2.7V189.9z"/>
		<path class="st6" d="M57.7,180.2c3.5,0,5.6,2.6,5.6,6c0,3.3-2.1,5.9-5.6,5.9s-5.6-2.6-5.6-5.9C52.1,182.8,54.2,180.2,57.7,180.2z
			 M57.7,190c2.3,0,3.1-1.9,3.1-3.8c0-2-0.8-3.9-3.1-3.9s-3.1,1.9-3.1,3.9C54.6,188.1,55.5,190,57.7,190z"/>
		<path class="st6" d="M70,188.1c0,1.5,1.2,2.1,2.5,2.1c0.9,0,2.2-0.3,2.2-1.4c0-1.2-1.7-1.4-3.4-1.9c-1.7-0.4-3.4-1.1-3.4-3.2
			c0-2.3,2.2-3.5,4.3-3.5c2.4,0,4.6,1,4.6,3.7h-2.4c-0.1-1.4-1.1-1.7-2.3-1.7c-0.8,0-1.7,0.3-1.7,1.3c0,0.9,0.5,1,3.4,1.7
			c0.8,0.2,3.4,0.7,3.4,3.3c0,2.1-1.6,3.7-4.8,3.7c-2.5,0-4.9-1.2-4.9-4.1H70z"/>
		<path class="st6" d="M81.8,180.4h2.5l4.8,7.7h0v-7.7h2.4v11.4H89l-4.8-7.7h0v7.7h-2.4V180.4z"/>
		<path class="st6" d="M96.9,180.4h2.5v11.4h-2.5V180.4z"/>
		<path class="st6" d="M104.8,180.4h8.5v2.1h-6v2.4h5.5v2h-5.5v2.8h6.2v2.1h-8.7V180.4z"/>
		<path class="st6" d="M118.4,180.4h2.5l4.8,7.7h0v-7.7h2.4v11.4h-2.5l-4.8-7.7h0v7.7h-2.4V180.4z"/>
		<path class="st6" d="M150.8,187.5c0,3.1-1.8,4.6-4.9,4.6c-3.1,0-4.9-1.5-4.9-4.6v-7.1h2.5v7.1c0,1.2,0.3,2.5,2.4,2.5
			c1.8,0,2.4-0.8,2.4-2.5v-7.1h2.5V187.5z"/>
		<path class="st6" d="M156.1,180.4h2.5l4.8,7.7h0v-7.7h2.4v11.4h-2.5l-4.8-7.7h0v7.7h-2.4V180.4z"/>
		<path class="st6" d="M171.2,180.4h4.9c3,0,5.2,1.9,5.2,5.7c0,3.3-1.7,5.8-5.2,5.8h-4.9V180.4z M173.7,189.8h2.2
			c1.5,0,2.8-0.9,2.8-3.4c0-2.3-0.8-3.8-3.3-3.8h-1.8V189.8z"/>
		<path class="st6" d="M38.1,199.6h2.5v4.4h4.6v-4.4h2.5v11.4h-2.5v-4.9h-4.6v4.9h-2.5V199.6z"/>
		<path class="st6" d="M53.2,199.6h8.5v2.1h-6v2.4h5.5v2h-5.5v2.8h6.2v2.1h-8.7V199.6z"/>
		<path class="st6" d="M66.8,199.6h6.2c2,0,3.3,1.4,3.3,3.2c0,1.3-0.5,2.4-1.8,2.9v0c1.2,0.3,1.6,1.5,1.7,2.7c0,0.7,0,2.1,0.5,2.7
			h-2.5c-0.3-0.7-0.3-1.8-0.4-2.7c-0.2-1.2-0.6-1.7-1.9-1.7h-2.5v4.5h-2.5V199.6z M69.3,204.8H72c1.1,0,1.7-0.5,1.7-1.6
			c0-1.1-0.6-1.6-1.7-1.6h-2.8V204.8z"/>
		<path class="st6" d="M80.8,209.1l6.1-7.3h-5.7v-2.1h9v2l-6.1,7.3h6.3v2.1h-9.6V209.1z"/>
		<path class="st6" d="M95.1,199.6h8.5v2.1h-6v2.4h5.5v2h-5.5v2.8h6.2v2.1h-8.7V199.6z"/>
		<path class="st6" d="M116.9,209.8c-0.9,1.1-2,1.6-3.1,1.6c-3.5,0-5.6-2.6-5.6-5.9c0-3.4,2.1-6,5.6-6c2.3,0,4.5,1.4,4.8,4h-2.4
			c-0.3-1.3-1.2-1.9-2.4-1.9c-2.3,0-3.1,1.9-3.1,3.9c0,1.9,0.8,3.8,3.1,3.8c1.6,0,2.6-0.9,2.7-2.5H114v-1.9h4.8v6.2h-1.6
			L116.9,209.8z"/>
		<path class="st6" d="M129.1,199.4c3.5,0,5.6,2.6,5.6,6c0,3.3-2.1,5.9-5.6,5.9s-5.6-2.6-5.6-5.9C123.5,202,125.6,199.4,129.1,199.4
			z M129.1,209.2c2.3,0,3.1-1.9,3.1-3.8c0-2-0.8-3.9-3.1-3.9s-3.1,1.9-3.1,3.9C126,207.3,126.9,209.2,129.1,209.2z"/>
		<path class="st6" d="M145,211.1h-2.8l-3.7-11.4h2.6l2.5,8h0l2.6-8h2.6L145,211.1z"/>
		<path class="st6" d="M152.9,199.6h2.5v11.4h-2.5V199.6z"/>
		<path class="st6" d="M160.8,199.6h2.5l4.8,7.7h0v-7.7h2.4v11.4H168l-4.8-7.7h0v7.7h-2.4V199.6z"/>
		<path class="st6" d="M179,199.6h2.6l4.3,11.4h-2.6l-0.9-2.5h-4.3l-0.9,2.5h-2.5L179,199.6z M178.8,206.7h3l-1.4-4.2h0L178.8,206.7
			z"/>
	</g>
	<g>
		<path class="st6" d="M569.1,144c0,1.5,1.2,2.1,2.5,2.1c0.9,0,2.2-0.3,2.2-1.4c0-1.2-1.7-1.4-3.4-1.9c-1.7-0.4-3.4-1.1-3.4-3.2
			c0-2.3,2.2-3.5,4.3-3.5c2.4,0,4.6,1,4.6,3.7h-2.4c-0.1-1.4-1.1-1.7-2.3-1.7c-0.8,0-1.7,0.3-1.7,1.3c0,0.9,0.5,1,3.4,1.7
			c0.8,0.2,3.4,0.7,3.4,3.3c0,2.1-1.6,3.7-4.8,3.7c-2.5,0-4.9-1.2-4.9-4.1H569.1z"/>
		<path class="st6" d="M581,136.3h8.5v2.1h-6v2.4h5.5v2h-5.5v2.8h6.2v2.1H581V136.3z"/>
		<path class="st6" d="M594.5,136.3h6.2c2,0,3.3,1.4,3.3,3.2c0,1.3-0.5,2.4-1.8,2.9v0c1.2,0.3,1.6,1.5,1.7,2.7c0,0.7,0,2.1,0.5,2.7
			h-2.5c-0.3-0.7-0.3-1.8-0.4-2.7c-0.2-1.2-0.6-1.7-1.9-1.7H597v4.5h-2.5V136.3z M597,141.5h2.8c1.1,0,1.7-0.5,1.7-1.6
			c0-1.1-0.6-1.6-1.7-1.6H597V141.5z"/>
		<path class="st6" d="M609.3,136.3h5.4c2.2,0,3.6,0.7,3.6,2.8c0,1.1-0.6,1.9-1.6,2.4c1.4,0.4,2.1,1.5,2.1,2.9c0,2.3-2,3.3-4,3.3
			h-5.5V136.3z M611.8,141h2.5c0.9,0,1.5-0.4,1.5-1.4c0-1.1-0.8-1.3-1.7-1.3h-2.4V141z M611.8,145.8h2.7c1,0,1.9-0.3,1.9-1.5
			c0-1.2-0.7-1.6-1.8-1.6h-2.7V145.8z"/>
		<path class="st6" d="M623.7,136.3h2.5v11.4h-2.5V136.3z"/>
		<path class="st6" d="M631.7,136.3h8.5v2.1h-6v2.4h5.5v2h-5.5v2.8h6.2v2.1h-8.7V136.3z"/>
		<path class="st6" d="M645.2,136.3h2.5l4.8,7.7h0v-7.7h2.4v11.4h-2.5l-4.8-7.7h0v7.7h-2.4V136.3z"/>
	</g>
	<g>
		<path class="st6" d="M686.5,411h2.5v4.7l4.5-4.7h3.1l-4.5,4.5l4.9,6.9h-3.2l-3.4-5.1l-1.4,1.5v3.7h-2.5V411z"/>
		<path class="st6" d="M706.4,410.7c3.5,0,5.6,2.6,5.6,6c0,3.3-2.1,5.9-5.6,5.9c-3.5,0-5.6-2.6-5.6-5.9
			C700.8,413.3,702.9,410.7,706.4,410.7z M706.4,420.6c2.3,0,3.1-1.9,3.1-3.8c0-2-0.8-3.9-3.1-3.9s-3.1,1.9-3.1,3.9
			C703.3,418.6,704.2,420.6,706.4,420.6z"/>
		<path class="st6" d="M718.7,418.6c0,1.5,1.2,2.1,2.5,2.1c0.9,0,2.2-0.3,2.2-1.4c0-1.2-1.7-1.4-3.4-1.9c-1.7-0.4-3.4-1.1-3.4-3.2
			c0-2.3,2.2-3.5,4.3-3.5c2.4,0,4.6,1,4.6,3.7H723c-0.1-1.4-1.1-1.7-2.3-1.7c-0.8,0-1.7,0.3-1.7,1.3c0,0.9,0.5,1,3.4,1.7
			c0.8,0.2,3.4,0.7,3.4,3.3c0,2.1-1.6,3.7-4.8,3.7c-2.5,0-4.9-1.2-4.9-4.1H718.7z"/>
		<path class="st6" d="M735.7,410.7c3.5,0,5.6,2.6,5.6,6c0,3.3-2.1,5.9-5.6,5.9s-5.6-2.6-5.6-5.9C730,413.3,732.1,410.7,735.7,410.7
			z M735.7,420.6c2.3,0,3.1-1.9,3.1-3.8c0-2-0.8-3.9-3.1-3.9s-3.1,1.9-3.1,3.9C732.5,418.6,733.4,420.6,735.7,420.6z"/>
		<path class="st6" d="M751.5,422.4h-2.8l-3.7-11.4h2.6l2.5,8h0l2.6-8h2.6L751.5,422.4z"/>
		<path class="st6" d="M764.6,410.7c3.5,0,5.6,2.6,5.6,6c0,3.3-2.1,5.9-5.6,5.9s-5.6-2.6-5.6-5.9C759,413.3,761,410.7,764.6,410.7z
			 M764.6,420.6c2.3,0,3.1-1.9,3.1-3.8c0-2-0.8-3.9-3.1-3.9s-3.1,1.9-3.1,3.9C761.5,418.6,762.3,420.6,764.6,420.6z"/>
	</g>
	<g>
		<path d="M198.3,296h3.5l2.7,7.9h0l2.5-7.9h3.5v11.4h-2.4v-8.1h0l-2.8,8.1h-1.9l-2.8-8h0v8h-2.4V296z"/>
		<path d="M221.2,295.7c3.5,0,5.6,2.6,5.6,6c0,3.3-2.1,5.9-5.6,5.9c-3.5,0-5.6-2.6-5.6-5.9C215.5,298.3,217.6,295.7,221.2,295.7z
			 M221.2,305.6c2.3,0,3.1-1.9,3.1-3.8c0-2-0.8-3.9-3.1-3.9s-3.1,1.9-3.1,3.9C218.1,303.6,218.9,305.6,221.2,305.6z"/>
		<path d="M231.7,296h2.5l4.8,7.7h0V296h2.4v11.4h-2.5l-4.8-7.7h0v7.7h-2.4V296z"/>
		<path d="M249.3,298.1h-3.4V296h9.4v2.1h-3.4v9.3h-2.5V298.1z"/>
		<path d="M259.7,296h8.5v2.1h-6v2.4h5.5v2h-5.5v2.8h6.2v2.1h-8.7V296z"/>
		<path d="M273.3,296h2.5l4.8,7.7h0V296h2.4v11.4h-2.5l-4.8-7.7h0v7.7h-2.4V296z"/>
		<path d="M288.3,296h8.5v2.1h-6v2.4h5.5v2h-5.5v2.8h6.2v2.1h-8.7V296z"/>
		<path d="M310.2,306.1c-0.9,1.1-2,1.6-3.1,1.6c-3.5,0-5.6-2.6-5.6-5.9c0-3.4,2.1-6,5.6-6c2.3,0,4.5,1.4,4.8,4h-2.4
			c-0.3-1.3-1.2-1.9-2.4-1.9c-2.3,0-3.1,1.9-3.1,3.9c0,1.9,0.8,3.8,3.1,3.8c1.6,0,2.6-0.9,2.7-2.5h-2.5v-1.9h4.8v6.2h-1.6
			L310.2,306.1z"/>
		<path d="M317.3,296h6.2c2,0,3.3,1.4,3.3,3.2c0,1.3-0.5,2.4-1.8,2.9v0c1.2,0.3,1.6,1.5,1.7,2.7c0,0.7,0,2.1,0.5,2.7h-2.5
			c-0.3-0.7-0.3-1.8-0.4-2.7c-0.2-1.2-0.6-1.7-1.9-1.7h-2.5v4.5h-2.5V296z M319.8,301.1h2.8c1.1,0,1.7-0.5,1.7-1.6
			c0-1.1-0.6-1.6-1.7-1.6h-2.8V301.1z"/>
		<path d="M337.1,295.7c3.5,0,5.6,2.6,5.6,6c0,3.3-2.1,5.9-5.6,5.9s-5.6-2.6-5.6-5.9C331.5,298.3,333.6,295.7,337.1,295.7z
			 M337.1,305.6c2.3,0,3.1-1.9,3.1-3.8c0-2-0.8-3.9-3.1-3.9s-3.1,1.9-3.1,3.9C334,303.6,334.9,305.6,337.1,305.6z"/>
	</g>
	<g>
		<path class="st6" d="M472.4,560.8h2.6l4.3,11.4h-2.6l-0.9-2.5h-4.3l-0.9,2.5H468L472.4,560.8z M472.1,567.8h3l-1.4-4.2h0
			L472.1,567.8z"/>
		<path class="st6" d="M483.4,560.8h2.5v9.3h5.6v2.1h-8.1V560.8z"/>
		<path class="st6" d="M496.1,560.8h5.4c2.2,0,3.6,0.7,3.6,2.8c0,1.1-0.6,1.9-1.6,2.4c1.4,0.4,2.1,1.5,2.1,2.9c0,2.3-2,3.3-4,3.3
			h-5.5V560.8z M498.6,565.4h2.5c0.9,0,1.5-0.4,1.5-1.4c0-1.1-0.8-1.3-1.7-1.3h-2.4V565.4z M498.6,570.3h2.7c1,0,1.9-0.3,1.9-1.5
			c0-1.2-0.7-1.6-1.8-1.6h-2.7V570.3z"/>
		<path class="st6" d="M513.7,560.8h2.6l4.3,11.4h-2.6l-0.9-2.5h-4.3l-0.9,2.5h-2.5L513.7,560.8z M513.5,567.8h3l-1.4-4.2h0
			L513.5,567.8z"/>
		<path class="st6" d="M524.7,560.8h2.5l4.8,7.7h0v-7.7h2.4v11.4h-2.5l-4.8-7.7h0v7.7h-2.4V560.8z"/>
		<path class="st6" d="M539.8,560.8h2.5v11.4h-2.5V560.8z"/>
		<path class="st6" d="M547.7,560.8h8.5v2.1h-6v2.4h5.5v2h-5.5v2.8h6.2v2.1h-8.7V560.8z"/>
		<path class="st6" d="M561.3,560.8h2.5l4.8,7.7h0v-7.7h2.4v11.4h-2.5l-4.8-7.7h0v7.7h-2.4V560.8z"/>
	</g>
	<g>
		<path class="st7" d="M107.6,624.3h2.6l4.3,11.4h-2.6l-0.9-2.5h-4.3l-0.9,2.5h-2.5L107.6,624.3z M107.4,631.4h3l-1.4-4.2h0
			L107.4,631.4z"/>
		<path class="st7" d="M118.7,624.3h4.9c3,0,5.2,1.9,5.2,5.7c0,3.3-1.7,5.8-5.2,5.8h-4.9V624.3z M121.2,633.7h2.2
			c1.5,0,2.8-0.9,2.8-3.4c0-2.3-0.8-3.8-3.3-3.8h-1.8V633.7z"/>
		<path class="st7" d="M133.7,624.3h6.2c2,0,3.3,1.4,3.3,3.2c0,1.3-0.5,2.4-1.8,2.9v0c1.2,0.3,1.6,1.5,1.7,2.7c0,0.7,0,2.1,0.5,2.7
			h-2.5c-0.3-0.7-0.3-1.8-0.4-2.7c-0.2-1.2-0.6-1.7-1.9-1.7h-2.5v4.5h-2.5V624.3z M136.3,629.5h2.8c1.1,0,1.7-0.5,1.7-1.6
			c0-1.1-0.6-1.6-1.7-1.6h-2.8V629.5z"/>
		<path class="st7" d="M148.5,624.3h2.5v11.4h-2.5V624.3z"/>
		<path class="st7" d="M159.5,624.3h2.6l4.3,11.4h-2.6l-0.9-2.5h-4.3l-0.9,2.5h-2.5L159.5,624.3z M159.3,631.4h3l-1.4-4.2h0
			L159.3,631.4z"/>
	</g>
	<circle class="st8" cx="224" cy="487.8" r="4.3"/>
	<circle class="st8" cx="261" cy="553.3" r="4.3"/>
	<circle class="st8" cx="277.5" cy="569.2" r="4.3"/>
	<circle class="st8" cx="341.2" cy="635.8" r="4.3"/>
	<circle class="st8" cx="373.5" cy="701.2" r="4.3"/>
	<circle class="st8" cx="245.9" cy="492.1" r="4.3"/>
	<circle class="st8" cx="225.1" cy="464.6" r="4.3"/>
	<circle class="st8" cx="395.4" cy="487.8" r="4.3"/>
	<circle class="st8" cx="585.4" cy="321.2" r="4.3"/>
	<circle class="st8" cx="478.2" cy="332.7" r="4.3"/>
	<circle class="st8" cx="495.3" cy="274.7" r="4.3"/>
	<circle class="st8" cx="607.2" cy="426.7" r="4.3"/>
	<circle class="st8" cx="302.2" cy="348.8" r="4.3"/>
	<circle class="st8" cx="359.3" cy="191.9" r="4.3"/>
	<circle class="st8" cx="321.5" cy="383.6" r="4.3"/>
	<g>
		<path class="st9" d="M197.2,491.8v1.9h-2.5v9.5h-2.3v-9.5h-2.5v-1.9H197.2z"/>
		<path class="st9" d="M198.9,491.7h2.2v1.9h-2.2V491.7z M198.9,494.7h2.2v8.6h-2.2V494.7z"/>
		<path class="st9" d="M207.3,494.7h2.2l-2.2,8.6h-2.6l-2.2-8.6h2.3l1.2,6.2h0L207.3,494.7z"/>
		<path class="st9" d="M211,497.3v-0.2c0-2,1.4-2.7,3-2.7c2.6,0,3.1,1.1,3.1,2.6v4.5c0,0.8,0,1.2,0.3,1.7h-2.1
			c-0.1-0.3-0.2-0.6-0.3-0.9h0c-0.5,0.9-1.1,1.1-2.2,1.1c-1.5,0-2.1-1.3-2.1-2.5c0-1.6,0.7-2.3,2.2-2.7l1.2-0.3
			c0.7-0.2,0.9-0.4,0.9-1c0-0.7-0.3-1.1-1-1.1c-0.7,0-1,0.4-1,1.1v0.2H211z M215,499c-0.3,0.2-0.7,0.4-0.9,0.4
			c-0.9,0.2-1.2,0.6-1.2,1.4c0,0.7,0.2,1.2,0.8,1.2s1.4-0.4,1.4-1.3V499z"/>
		<path class="st9" d="M219.8,492.2h2.2v2.5h1.3v1.5H222v4.7c0,0.7,0.1,0.9,0.8,0.9c0.2,0,0.4,0,0.5,0v1.5c-0.5,0-0.9,0.1-1.4,0.1
			c-1.7,0-2-0.5-2-2.3v-4.9h-1.1v-1.5h1.1V492.2z"/>
	</g>
	<g>
		<path class="st9" d="M224.8,559.2h3.9c1.9,0,3.2,0.7,3.2,2.9c0,1.2-0.6,2.2-1.7,2.5v0c1.3,0.2,2.1,1.1,2.1,2.7
			c0,1.8-0.9,3.3-3.6,3.3h-3.9V559.2z M227.1,563.9h0.7c1.3,0,1.8-0.4,1.8-1.5c0-1.1-0.5-1.5-1.7-1.5h-0.8V563.9z M227.1,568.9h0.9
			c1.1,0,1.9-0.4,1.9-1.7c0-1.3-0.8-1.7-1.8-1.7h-1V568.9z"/>
		<path class="st9" d="M238.7,569.6L238.7,569.6c-0.5,0.8-1.3,1.2-2.2,1.2c-1.4,0-2.2-0.8-2.2-2.4V562h2.2v5.9
			c0,0.9,0.3,1.2,0.9,1.2c0.8,0,1.2-0.5,1.2-1.4V562h2.2v8.6h-2.1V569.6z"/>
		<path class="st9" d="M247.3,569.7L247.3,569.7c-0.5,0.8-1.1,1.1-2,1.1c-1.8,0-2.6-1.3-2.6-4.5s0.8-4.5,2.6-4.5
			c0.8,0,1.4,0.3,1.9,1h0v-3.6h2.2v11.4h-2.1V569.7z M246.1,569.2c1,0,1.2-1,1.2-2.8c0-1.9-0.2-2.8-1.2-2.8c-1,0-1.2,1-1.2,2.8
			C244.9,568.2,245.1,569.2,246.1,569.2z"/>
		<path class="st9" d="M255.6,562h2.2l-2.2,8.6h-2.6l-2.2-8.6h2.3l1.2,6.2h0L255.6,562z"/>
		<path class="st9" d="M259.3,564.7v-0.2c0-2,1.4-2.7,3-2.7c2.6,0,3.1,1.1,3.1,2.6v4.5c0,0.8,0,1.2,0.3,1.7h-2.1
			c-0.1-0.3-0.2-0.6-0.3-0.9h0c-0.5,0.9-1.1,1.1-2.2,1.1c-1.5,0-2.1-1.3-2.1-2.5c0-1.6,0.7-2.3,2.2-2.7l1.2-0.3
			c0.7-0.2,0.9-0.4,0.9-1c0-0.7-0.3-1.1-1-1.1c-0.7,0-1,0.4-1,1.1v0.2H259.3z M263.3,566.3c-0.3,0.2-0.7,0.4-0.9,0.4
			c-0.9,0.2-1.2,0.6-1.2,1.4c0,0.7,0.2,1.2,0.8,1.2s1.4-0.4,1.4-1.3V566.3z"/>
	</g>
	<g>
		<path class="st9" d="M210.7,580.1v0.3c0,1.1,0.3,1.8,1.5,1.8c0.7,0,1.4-0.4,1.4-1.4c0-1-0.5-1.4-2-2c-2-0.7-3-1.6-3-3.5
			c0-2.2,1.4-3.4,3.5-3.4c2,0,3.5,0.9,3.5,3.1v0.3h-2.2c0-1.1-0.4-1.7-1.2-1.7c-1,0-1.3,0.7-1.3,1.3c0,0.7,0.2,1.1,1.2,1.6l1.8,0.8
			c1.7,0.8,2.2,1.6,2.2,3c0,2.4-1.5,3.5-4,3.5c-2.6,0-3.6-1.2-3.6-3.3v-0.5H210.7z"/>
		<path class="st9" d="M221.8,575h2.2l-2.2,8.6h-2.6l-2.2-8.6h2.3l1.2,6.2h0L221.8,575z"/>
		<path class="st9" d="M227.7,581.2v2.5h-2.1v-2.5H227.7z"/>
		<path class="st9" d="M236.4,580.1v0.3c0,1.1,0.3,1.8,1.5,1.8c0.7,0,1.4-0.4,1.4-1.4c0-1-0.5-1.4-2-2c-2-0.7-3-1.6-3-3.5
			c0-2.2,1.4-3.4,3.5-3.4c2,0,3.5,0.9,3.5,3.1v0.3h-2.2c0-1.1-0.4-1.7-1.2-1.7c-1,0-1.3,0.7-1.3,1.3c0,0.7,0.2,1.1,1.2,1.6l1.8,0.8
			c1.7,0.8,2.2,1.6,2.2,3c0,2.4-1.5,3.5-4,3.5c-2.6,0-3.6-1.2-3.6-3.3v-0.5H236.4z"/>
		<path class="st9" d="M243.9,572.6h2.2v2.5h1.3v1.5h-1.3v4.7c0,0.7,0.1,0.9,0.8,0.9c0.2,0,0.4,0,0.5,0v1.5c-0.5,0-0.9,0.1-1.4,0.1
			c-1.7,0-2-0.5-2-2.3v-4.9h-1.1V575h1.1V572.6z"/>
		<path class="st9" d="M250.7,579.7v0.7c0,1,0.3,2,1.1,2c0.7,0,1-0.6,1.2-1.6h2c-0.1,2-1,3.1-3.1,3.1c-3.2,0-3.3-2.5-3.3-4.6
			c0-2.3,0.4-4.5,3.4-4.5c2.6,0,3.2,1.7,3.2,4.4v0.5H250.7z M252.9,578.4c0-1.3-0.2-2-1.1-2c-0.9,0-1.1,0.9-1.1,1.7v0.3H252.9z"/>
		<path class="st9" d="M257.3,576.5h-1.1V575h1.1v-1c0-1.6,0.9-2.1,2.3-2.1c0.4,0,0.8,0,1.2,0v1.6c-0.1,0-0.3,0-0.4,0
			c-0.6,0-0.8,0.2-0.8,0.7v0.8h1.3v1.5h-1.3v7.1h-2.2V576.5z"/>
		<path class="st9" d="M262.2,577.7v-0.2c0-2,1.4-2.7,3-2.7c2.6,0,3.1,1.1,3.1,2.6v4.5c0,0.8,0,1.2,0.3,1.7h-2.1
			c-0.1-0.3-0.2-0.6-0.3-0.9h0c-0.5,0.9-1.1,1.1-2.2,1.1c-1.5,0-2.1-1.3-2.1-2.5c0-1.6,0.7-2.3,2.2-2.7l1.2-0.3
			c0.7-0.2,0.9-0.4,0.9-1c0-0.7-0.3-1.1-1-1.1c-0.7,0-1,0.4-1,1.1v0.2H262.2z M266.2,579.4c-0.3,0.2-0.7,0.4-0.9,0.4
			c-0.9,0.2-1.2,0.6-1.2,1.4c0,0.7,0.2,1.2,0.8,1.2s1.4-0.4,1.4-1.3V579.4z"/>
		<path class="st9" d="M270.5,575h2.1v1h0c0.5-0.8,1.3-1.2,2.2-1.2c1.4,0,2.2,0.8,2.2,2.4v6.4h-2.2v-5.9c0-0.9-0.3-1.2-0.9-1.2
			c-0.8,0-1.2,0.5-1.2,1.4v5.7h-2.2V575z"/>
	</g>
	<g>
		<path class="st9" d="M308.7,633.2h3.9c1.9,0,3.2,0.7,3.2,2.9c0,1.2-0.6,2.2-1.7,2.5v0c1.3,0.2,2.1,1.1,2.1,2.7
			c0,1.8-0.9,3.3-3.6,3.3h-3.9V633.2z M311,637.9h0.7c1.3,0,1.8-0.4,1.8-1.5c0-1.1-0.5-1.5-1.7-1.5H311V637.9z M311,642.9h0.9
			c1.1,0,1.9-0.4,1.9-1.7c0-1.3-0.8-1.7-1.8-1.7h-1V642.9z"/>
		<path class="st9" d="M318.2,638.6v-0.2c0-2,1.4-2.7,3-2.7c2.6,0,3.1,1.1,3.1,2.6v4.5c0,0.8,0,1.2,0.3,1.7h-2.1
			c-0.1-0.3-0.2-0.6-0.3-0.9h0c-0.5,0.9-1.1,1.1-2.2,1.1c-1.5,0-2.1-1.3-2.1-2.5c0-1.6,0.7-2.3,2.2-2.7l1.2-0.3
			c0.7-0.2,0.9-0.4,0.9-1c0-0.7-0.3-1.1-1-1.1c-0.7,0-1,0.4-1,1.1v0.2H318.2z M322.2,640.3c-0.3,0.2-0.7,0.4-0.9,0.4
			c-0.9,0.2-1.2,0.6-1.2,1.4c0,0.7,0.2,1.2,0.8,1.2c0.6,0,1.4-0.4,1.4-1.3V640.3z"/>
		<path class="st9" d="M326.5,636h2.1v1.2h0c0.4-0.8,1.1-1.4,2-1.4c0.1,0,0.3,0,0.4,0v2.1c-0.2,0-0.5,0-0.7,0
			c-0.8,0-1.6,0.4-1.6,1.6v5.2h-2.2V636z"/>
	</g>
	<g>
		<path class="st9" d="M334,705.8v8c0,1.1,0.3,2,1.3,2s1.3-0.8,1.3-2v-8h2.3v8c0,2.9-1.8,3.7-3.6,3.7c-1.9,0-3.6-0.6-3.6-3.7v-8H334
			z"/>
		<path class="st9" d="M341.1,705.8h2.2v11.4h-2.2V705.8z"/>
		<path class="st9" d="M349.7,711.7c0-0.8-0.2-1.7-1-1.7c-1.1,0-1.3,1-1.3,2.9c0,2.1,0.2,3,1.2,3c0.7,0,1.1-0.6,1.1-2h2.1
			c0,2.3-0.9,3.5-3.3,3.5c-2.2,0-3.3-1.1-3.3-4.5c0-3.5,1.5-4.5,3.5-4.5c2,0,3.1,1.3,3.1,3.3H349.7z"/>
		<path class="st9" d="M353.6,705.7h2.2v1.9h-2.2V705.7z M353.6,708.6h2.2v8.6h-2.2V708.6z"/>
		<path class="st9" d="M358,708.6h2.1v1h0c0.5-0.8,1.3-1.2,2.2-1.2c1.4,0,2.2,0.8,2.2,2.4v6.4h-2.2v-5.9c0-0.9-0.3-1.2-0.9-1.2
			c-0.8,0-1.2,0.5-1.2,1.4v5.7H358V708.6z"/>
		<path class="st9" d="M366.8,708.6h2.2v9.2c0,1.4-0.5,2.2-2.5,2.2c-0.3,0-0.6,0-0.9,0v-1.6c0.1,0,0.2,0,0.4,0
			c0.8,0,0.9-0.4,0.9-1.4V708.6z M366.8,705.7h2.2v1.9h-2.2V705.7z"/>
	</g>
	<g>
		<path class="st9" d="M245.5,501.4v4.6h0l2.9-4.6h2.5l-3.1,4.9l3.5,6.5h-2.6l-2.4-4.7l-0.8,1.3v3.4h-2.3v-11.4H245.5z"/>
		<path class="st9" d="M255.5,504c2.7,0,3.4,1.5,3.4,4.5c0,2.9-0.9,4.5-3.4,4.5c-2.7,0-3.4-1.5-3.4-4.5
			C252.1,505.6,252.9,504,255.5,504z M255.5,511.5c0.9,0,1.2-0.9,1.2-3c0-2.1-0.3-3-1.2-3c-1.1,0-1.2,1.3-1.2,3
			S254.4,511.5,255.5,511.5z"/>
		<path class="st9" d="M261.2,501.7h2.2v2.5h1.3v1.5h-1.3v4.7c0,0.7,0.1,0.9,0.8,0.9c0.2,0,0.4,0,0.5,0v1.5c-0.5,0-0.9,0.1-1.4,0.1
			c-1.7,0-2-0.5-2-2.3v-4.9H260v-1.5h1.1V501.7z"/>
		<path class="st9" d="M269.2,504c2.7,0,3.4,1.5,3.4,4.5c0,2.9-0.9,4.5-3.4,4.5c-2.7,0-3.4-1.5-3.4-4.5
			C265.8,505.6,266.6,504,269.2,504z M269.2,511.5c0.9,0,1.2-0.9,1.2-3c0-2.1-0.3-3-1.2-3c-1.1,0-1.2,1.3-1.2,3
			S268.1,511.5,269.2,511.5z"/>
		<path class="st9" d="M274.4,504.2h2.1v1.2h0c0.4-0.8,1.1-1.4,2-1.4c0.1,0,0.3,0,0.4,0v2.1c-0.2,0-0.5,0-0.7,0
			c-0.8,0-1.6,0.4-1.6,1.6v5.2h-2.2V504.2z"/>
	</g>
	<g>
		<path class="st9" d="M232.9,451.4h4c2.3,0,3.1,1.7,3.1,3.4c0,2.4-1.5,3.4-3.6,3.4h-1.2v4.6h-2.3V451.4z M235.2,456.5h1
			c0.9,0,1.5-0.5,1.5-1.7c0-1.1-0.4-1.8-1.6-1.8h-1V456.5z"/>
		<path class="st9" d="M243.7,458.8v0.7c0,1,0.3,2,1.1,2c0.7,0,1-0.6,1.2-1.6h2c-0.1,2-1,3.1-3.1,3.1c-3.2,0-3.3-2.5-3.3-4.6
			c0-2.3,0.4-4.4,3.4-4.4c2.6,0,3.2,1.7,3.2,4.4v0.5H243.7z M245.9,457.5c0-1.3-0.2-2-1.1-2c-0.9,0-1.1,0.9-1.1,1.7v0.3H245.9z"/>
		<path class="st9" d="M249.8,454.2h2.1v1.2h0c0.4-0.8,1.1-1.4,2-1.4c0.1,0,0.3,0,0.4,0v2.1c-0.2,0-0.5,0-0.7,0
			c-0.8,0-1.6,0.4-1.6,1.6v5.2h-2.2V454.2z"/>
		<path class="st9" d="M255.8,456.8v-0.2c0-2,1.4-2.7,3-2.7c2.6,0,3.1,1.1,3.1,2.6v4.5c0,0.8,0,1.2,0.3,1.7h-2.1
			c-0.1-0.3-0.2-0.6-0.3-0.9h0c-0.5,0.9-1.1,1.1-2.2,1.1c-1.5,0-2.1-1.3-2.1-2.5c0-1.6,0.7-2.3,2.2-2.7l1.2-0.3
			c0.7-0.2,0.9-0.4,0.9-1c0-0.7-0.3-1.1-1-1.1c-0.7,0-1,0.4-1,1.1v0.2H255.8z M259.8,458.5c-0.3,0.2-0.7,0.4-0.9,0.4
			c-0.9,0.2-1.2,0.6-1.2,1.4c0,0.7,0.2,1.2,0.8,1.2s1.4-0.4,1.4-1.3V458.5z"/>
		<path class="st9" d="M265.7,460v0.3c0,0.8,0.4,1.2,1.2,1.2c0.7,0,1.1-0.3,1.1-1c0-0.6-0.4-0.8-0.8-1l-1.6-0.6
			c-1.2-0.4-1.8-1.2-1.8-2.4c0-1.4,0.9-2.6,3.2-2.6c2,0,2.9,0.9,2.9,2.4v0.4h-2c0-0.9-0.3-1.3-1-1.3c-0.6,0-1,0.3-1,0.9
			c0,0.4,0.2,0.8,1,1l1.3,0.4c1.4,0.5,1.9,1.2,1.9,2.5c0,1.8-1.3,2.7-3.2,2.7c-2.5,0-3.2-1.1-3.2-2.7V460H265.7z"/>
		<path class="st9" d="M272.4,451.7h2.2v2.5h1.3v1.5h-1.3v4.7c0,0.7,0.1,0.9,0.8,0.9c0.2,0,0.4,0,0.5,0v1.5c-0.5,0-0.9,0.1-1.4,0.1
			c-1.7,0-2-0.5-2-2.3v-4.9h-1.1v-1.5h1.1V451.7z"/>
	</g>
	<g>
		<path class="st9" d="M400.5,468.7h4c2.3,0,3.1,1.7,3.1,3.4c0,2.4-1.5,3.4-3.6,3.4h-1.2v4.6h-2.3V468.7z M402.8,473.9h1
			c0.9,0,1.5-0.5,1.5-1.7c0-1.1-0.4-1.8-1.6-1.8h-1V473.9z"/>
		<path class="st9" d="M412.4,471.3c2.7,0,3.4,1.5,3.4,4.5c0,2.9-0.9,4.5-3.4,4.5c-2.7,0-3.4-1.5-3.4-4.5
			C409.1,472.9,409.9,471.3,412.4,471.3z M412.4,478.9c0.9,0,1.2-0.9,1.2-3c0-2.1-0.3-3-1.2-3c-1.1,0-1.2,1.3-1.2,3
			S411.4,478.9,412.4,478.9z"/>
		<path class="st9" d="M422.1,479.2L422.1,479.2c-0.5,0.8-1.1,1.1-2,1.1c-1.8,0-2.6-1.3-2.6-4.5s0.8-4.5,2.6-4.5
			c0.8,0,1.4,0.3,1.9,1h0v-3.6h2.2v11.4h-2.1V479.2z M420.8,478.7c1,0,1.2-1,1.2-2.8c0-1.9-0.2-2.8-1.2-2.8c-1,0-1.2,1-1.2,2.8
			C419.7,477.7,419.9,478.7,420.8,478.7z"/>
		<path class="st9" d="M432.7,471.5v8.2c0,2.3-1,3.4-3.6,3.4c-1.9,0-2.9-0.8-2.9-2.3h2.1c0,0.3,0.1,0.5,0.3,0.7
			c0.2,0.1,0.5,0.2,0.7,0.2c0.9,0,1.2-0.7,1.2-1.6V479h0c-0.4,0.6-1.1,1.1-1.8,1.1c-1.8,0-2.6-1.2-2.6-4.4c0-2,0.3-4.4,2.7-4.4
			c0.6,0,1.4,0.3,1.8,1.2h0v-1H432.7z M429.4,478.3c0.9,0,1.2-1,1.2-2.5c0-2.1-0.3-2.9-1.2-2.9c-1,0-1.2,0.8-1.2,3.1
			C428.3,477.3,428.5,478.3,429.4,478.3z"/>
		<path class="st9" d="M438,471.3c2.7,0,3.4,1.5,3.4,4.5c0,2.9-0.9,4.5-3.4,4.5c-2.7,0-3.4-1.5-3.4-4.5
			C434.6,472.9,435.5,471.3,438,471.3z M438,478.9c0.9,0,1.2-0.9,1.2-3c0-2.1-0.3-3-1.2-3c-1.1,0-1.2,1.3-1.2,3S437,478.9,438,478.9
			z"/>
		<path class="st9" d="M443.3,471.5h2.1v1.2h0c0.4-0.8,1.1-1.4,2-1.4c0.1,0,0.3,0,0.4,0v2.1c-0.2,0-0.5,0-0.7,0
			c-0.8,0-1.6,0.4-1.6,1.6v5.2h-2.2V471.5z"/>
		<path class="st9" d="M449.3,468.6h2.2v1.9h-2.2V468.6z M449.3,471.5h2.2v8.6h-2.2V471.5z"/>
		<path class="st9" d="M457.9,474.6c0-0.8-0.2-1.7-1-1.7c-1.1,0-1.3,1-1.3,2.9c0,2.1,0.2,3,1.2,3c0.7,0,1.1-0.6,1.1-2h2.1
			c0,2.3-0.9,3.5-3.3,3.5c-2.2,0-3.3-1.1-3.3-4.5c0-3.5,1.5-4.5,3.5-4.5s3.1,1.3,3.1,3.3H457.9z"/>
		<path class="st9" d="M461.7,474.2V474c0-2,1.4-2.7,3-2.7c2.6,0,3.1,1.1,3.1,2.6v4.5c0,0.8,0,1.2,0.3,1.7H466
			c-0.1-0.3-0.2-0.6-0.3-0.9h0c-0.5,0.9-1.1,1.1-2.2,1.1c-1.5,0-2.1-1.3-2.1-2.5c0-1.6,0.7-2.3,2.2-2.7l1.2-0.3
			c0.7-0.2,0.9-0.4,0.9-1c0-0.7-0.3-1.1-1-1.1c-0.7,0-1,0.4-1,1.1v0.2H461.7z M465.8,475.8c-0.3,0.2-0.7,0.4-0.9,0.4
			c-0.9,0.2-1.2,0.6-1.2,1.4c0,0.7,0.2,1.2,0.8,1.2c0.6,0,1.4-0.4,1.4-1.3V475.8z"/>
	</g>
	<g>
		<path class="st9" d="M331.9,385h3.4l1.6,8.1h0l1.6-8.1h3.4v11.4h-2.1v-9.1h0l-2,9.1h-1.8l-2-9.1h0v9.1h-2.1V385z"/>
		<path class="st9" d="M347.4,387.6c2.7,0,3.4,1.5,3.4,4.5c0,2.9-0.9,4.5-3.4,4.5c-2.7,0-3.4-1.5-3.4-4.5
			C344,389.1,344.8,387.6,347.4,387.6z M347.4,395.1c0.9,0,1.2-0.9,1.2-3s-0.3-3-1.2-3c-1.1,0-1.2,1.3-1.2,3
			S346.3,395.1,347.4,395.1z"/>
		<path class="st9" d="M352.6,387.8h2.1v1h0c0.5-0.8,1.3-1.2,2.2-1.2c1.4,0,2.2,0.8,2.2,2.4v6.4h-2.2v-5.9c0-0.9-0.3-1.2-0.9-1.2
			c-0.8,0-1.2,0.5-1.2,1.4v5.7h-2.2V387.8z"/>
		<path class="st9" d="M361.2,390.4v-0.2c0-2,1.4-2.7,3-2.7c2.6,0,3.1,1.1,3.1,2.6v4.5c0,0.8,0,1.2,0.3,1.7h-2.1
			c-0.1-0.3-0.2-0.6-0.3-0.9h0c-0.5,0.9-1.1,1.1-2.2,1.1c-1.5,0-2.1-1.3-2.1-2.5c0-1.6,0.7-2.3,2.2-2.7l1.2-0.3
			c0.7-0.2,0.9-0.4,0.9-1c0-0.7-0.3-1.1-1-1.1c-0.7,0-1,0.4-1,1.1v0.2H361.2z M365.2,392.1c-0.3,0.2-0.7,0.4-0.9,0.4
			c-0.9,0.2-1.2,0.6-1.2,1.4c0,0.7,0.2,1.2,0.8,1.2s1.4-0.4,1.4-1.3V392.1z"/>
		<path class="st9" d="M371.2,393.6v0.3c0,0.8,0.4,1.2,1.2,1.2c0.7,0,1.1-0.3,1.1-1c0-0.6-0.4-0.8-0.8-1l-1.6-0.6
			c-1.2-0.4-1.8-1.2-1.8-2.4c0-1.4,0.9-2.6,3.2-2.6c2,0,2.9,0.9,2.9,2.4v0.4h-2c0-0.9-0.3-1.3-1-1.3c-0.6,0-1,0.3-1,0.9
			c0,0.4,0.2,0.8,1,1l1.3,0.4c1.4,0.5,1.9,1.2,1.9,2.5c0,1.8-1.3,2.7-3.2,2.7c-2.5,0-3.2-1.1-3.2-2.7v-0.3H371.2z"/>
		<path class="st9" d="M377.8,385.3h2.2v2.5h1.3v1.5H380v4.7c0,0.7,0.1,0.9,0.8,0.9c0.2,0,0.4,0,0.5,0v1.5c-0.5,0-0.9,0.1-1.4,0.1
			c-1.7,0-2-0.5-2-2.3v-4.9h-1.1v-1.5h1.1V385.3z"/>
		<path class="st9" d="M382.8,384.8h2.2v1.9h-2.2V384.8z M382.8,387.8h2.2v8.6h-2.2V387.8z"/>
		<path class="st9" d="M387.2,387.8h2.1v1.2h0c0.4-0.8,1.1-1.4,2-1.4c0.1,0,0.3,0,0.4,0v2.1c-0.2,0-0.5,0-0.7,0
			c-0.8,0-1.6,0.4-1.6,1.6v5.2h-2.2V387.8z"/>
		<path class="st9" d="M335.5,400.7c3.5,0,3.9,2.5,3.9,5.9c0,3.5-0.4,5.9-3.9,5.9s-3.9-2.5-3.9-5.9
			C331.6,403.2,332,400.7,335.5,400.7z M335.5,410.9c1.4,0,1.6-1.2,1.6-4.2c0-3.1-0.2-4.2-1.6-4.2c-1.4,0-1.6,1.2-1.6,4.2
			C333.9,409.7,334.1,410.9,335.5,410.9z"/>
		<path class="st9" d="M342.9,409.6v0.3c0,0.8,0.4,1.2,1.2,1.2c0.7,0,1.1-0.3,1.1-1c0-0.6-0.4-0.8-0.8-1l-1.6-0.6
			c-1.2-0.4-1.8-1.2-1.8-2.4c0-1.4,0.9-2.6,3.2-2.6c2,0,2.9,0.9,2.9,2.4v0.4h-2c0-0.9-0.3-1.3-1-1.3c-0.6,0-1,0.3-1,0.9
			c0,0.4,0.2,0.8,1,1l1.3,0.4c1.4,0.5,1.9,1.2,1.9,2.5c0,1.8-1.3,2.7-3.2,2.7c-2.5,0-3.2-1.1-3.2-2.7v-0.3H342.9z"/>
		<path class="st9" d="M349.6,401.3h2.2v2.5h1.3v1.5h-1.3v4.7c0,0.7,0.1,0.9,0.8,0.9c0.2,0,0.4,0,0.5,0v1.5c-0.5,0-0.9,0.1-1.4,0.1
			c-1.7,0-2-0.5-2-2.3v-4.9h-1.1v-1.5h1.1V401.3z"/>
		<path class="st9" d="M354.4,403.8h2.1v1.2h0c0.4-0.8,1.1-1.4,2-1.4c0.1,0,0.3,0,0.4,0v2.1c-0.2,0-0.5,0-0.7,0
			c-0.8,0-1.6,0.4-1.6,1.6v5.2h-2.2V403.8z"/>
		<path class="st9" d="M363.5,403.6c2.7,0,3.4,1.5,3.4,4.5c0,2.9-0.9,4.5-3.4,4.5c-2.7,0-3.4-1.5-3.4-4.5
			C360.1,405.1,361,403.6,363.5,403.6z M363.5,411.1c0.9,0,1.2-0.9,1.2-3s-0.3-3-1.2-3c-1.1,0-1.2,1.3-1.2,3
			S362.4,411.1,363.5,411.1z"/>
		<path class="st9" d="M375.2,403.8v8.2c0,2.3-1,3.4-3.6,3.4c-1.9,0-2.9-0.8-2.9-2.3h2.1c0,0.3,0.1,0.5,0.3,0.7
			c0.2,0.1,0.5,0.2,0.7,0.2c0.9,0,1.2-0.7,1.2-1.6v-1.1h0c-0.4,0.6-1.1,1.1-1.8,1.1c-1.8,0-2.6-1.2-2.6-4.4c0-2,0.3-4.4,2.7-4.4
			c0.6,0,1.4,0.3,1.8,1.2h0v-1H375.2z M371.9,410.6c0.9,0,1.2-1,1.2-2.5c0-2.1-0.3-2.9-1.2-2.9c-1,0-1.2,0.8-1.2,3.1
			C370.8,409.5,370.9,410.6,371.9,410.6z"/>
	</g>
	<g>
		<path class="st9" d="M300.6,190.2l4.2-7.9h-3.9v-1.9h6.6v1.7l-4.3,7.8h4.3v1.9h-6.9V190.2z M301.7,177.5h1.7l0.7,1.4l0.8-1.4h1.6
			l-1.2,2.3h-2.3L301.7,177.5z"/>
		<path class="st9" d="M309.3,185.9v-0.2c0-2,1.4-2.7,3-2.7c2.6,0,3.1,1.1,3.1,2.6v4.5c0,0.8,0,1.2,0.3,1.7h-2.1
			c-0.1-0.3-0.2-0.6-0.3-0.9h0c-0.5,0.9-1.1,1.1-2.2,1.1c-1.5,0-2.1-1.3-2.1-2.5c0-1.6,0.7-2.3,2.2-2.7l1.2-0.3
			c0.7-0.2,0.9-0.4,0.9-1c0-0.7-0.3-1.1-1-1.1c-0.7,0-1,0.4-1,1.1v0.2H309.3z M313.3,187.6c-0.3,0.2-0.7,0.4-0.9,0.4
			c-0.9,0.2-1.2,0.6-1.2,1.4c0,0.7,0.2,1.2,0.8,1.2c0.6,0,1.4-0.4,1.4-1.3V187.6z"/>
		<path class="st9" d="M317.6,180.4h2.2v3.6h0c0.5-0.7,1-1,1.9-1c1.8,0,2.6,1.3,2.6,4.5s-0.8,4.5-2.6,4.5c-0.9,0-1.5-0.3-2-1.1h0
			v0.9h-2.1V180.4z M321,190.4c1,0,1.2-1,1.2-2.8c0-1.9-0.2-2.8-1.2-2.8c-1,0-1.2,1-1.2,2.8C319.8,189.4,320,190.4,321,190.4z"/>
		<path class="st9" d="M326.3,180.4h2.2v11.4h-2.2V180.4z"/>
		<path class="st9" d="M330.8,183.3h2.2v9.2c0,1.4-0.5,2.2-2.5,2.2c-0.3,0-0.6,0-0.9,0v-1.6c0.1,0,0.2,0,0.4,0
			c0.8,0,0.9-0.4,0.9-1.4V183.3z M330.8,180.3h2.2v1.9h-2.2V180.3z"/>
		<path class="st9" d="M335.2,185.9v-0.2c0-2,1.4-2.7,3-2.7c2.6,0,3.1,1.1,3.1,2.6v4.5c0,0.8,0,1.2,0.3,1.7h-2.1
			c-0.1-0.3-0.2-0.6-0.3-0.9h0c-0.5,0.9-1.1,1.1-2.2,1.1c-1.5,0-2.1-1.3-2.1-2.5c0-1.6,0.7-2.3,2.2-2.7l1.2-0.3
			c0.7-0.2,0.9-0.4,0.9-1c0-0.7-0.3-1.1-1-1.1c-0.7,0-1,0.4-1,1.1v0.2H335.2z M339.2,187.6c-0.3,0.2-0.7,0.4-0.9,0.4
			c-0.9,0.2-1.2,0.6-1.2,1.4c0,0.7,0.2,1.2,0.8,1.2c0.6,0,1.4-0.4,1.4-1.3V187.6z"/>
		<path class="st9" d="M345.8,180.4v6h0l2.2-3.2h2.4l-2.5,3.4l2.8,5.2h-2.4l-1.8-3.5l-0.8,1v2.5h-2.2v-11.4H345.8z"/>
	</g>
	<g>
		<path class="st9" d="M615.2,429.7h4c2.3,0,3.1,1.7,3.1,3.4c0,2.4-1.5,3.4-3.6,3.4h-1.2v4.6h-2.3V429.7z M617.5,434.9h1
			c0.9,0,1.5-0.5,1.5-1.7c0-1.1-0.4-1.8-1.6-1.8h-1V434.9z"/>
		<path class="st9" d="M624.1,429.7h2.2v11.4h-2.2V429.7z"/>
		<path class="st9" d="M628.5,435.2V435c0-2,1.4-2.7,3-2.7c2.6,0,3.1,1.1,3.1,2.6v4.5c0,0.8,0,1.2,0.3,1.7h-2.1
			c-0.1-0.3-0.2-0.6-0.3-0.9h0c-0.5,0.9-1.1,1.1-2.2,1.1c-1.5,0-2.1-1.3-2.1-2.5c0-1.6,0.7-2.3,2.2-2.7l1.2-0.3
			c0.7-0.2,0.9-0.4,0.9-1c0-0.7-0.3-1.1-1-1.1c-0.7,0-1,0.4-1,1.1v0.2H628.5z M632.6,436.9c-0.3,0.2-0.7,0.4-0.9,0.4
			c-0.9,0.2-1.2,0.6-1.2,1.4c0,0.7,0.2,1.2,0.8,1.2c0.6,0,1.4-0.4,1.4-1.3V436.9z"/>
		<path class="st9" d="M641,432.6h2.2l-2.2,8.6h-2.6l-2.2-8.6h2.3l1.2,6.2h0L641,432.6z"/>
	</g>
	<g>
		<path class="st9" d="M593.7,323.7h3.9c1.9,0,3.2,0.7,3.2,2.9c0,1.2-0.6,2.2-1.7,2.5v0c1.3,0.2,2.1,1.1,2.1,2.7
			c0,1.8-0.9,3.3-3.6,3.3h-3.9V323.7z M596,328.4h0.7c1.3,0,1.8-0.4,1.8-1.5c0-1.1-0.5-1.5-1.7-1.5H596V328.4z M596,333.4h0.9
			c1.1,0,1.9-0.4,1.9-1.7c0-1.3-0.8-1.7-1.8-1.7h-1V333.4z"/>
		<path class="st9" d="M605.1,331.2v0.7c0,1,0.3,2,1.1,2c0.7,0,1-0.6,1.2-1.6h2c-0.1,2-1,3.1-3.1,3.1c-3.2,0-3.3-2.5-3.3-4.6
			c0-2.3,0.4-4.4,3.4-4.4c2.6,0,3.2,1.7,3.2,4.4v0.5H605.1z M607.3,329.8c0-1.3-0.2-2-1.1-2c-0.9,0-1.1,0.9-1.1,1.7v0.3H607.3z"/>
		<path class="st9" d="M611.2,326.5h2.1v1.2h0c0.4-0.8,1.1-1.4,2-1.4c0.1,0,0.3,0,0.4,0v2.1c-0.2,0-0.5,0-0.7,0
			c-0.8,0-1.6,0.4-1.6,1.6v5.2h-2.2V326.5z"/>
		<path class="st9" d="M617.2,329.2v-0.2c0-2,1.4-2.7,3-2.7c2.6,0,3.1,1.1,3.1,2.6v4.5c0,0.8,0,1.2,0.3,1.7h-2.1
			c-0.1-0.3-0.2-0.6-0.3-0.9h0c-0.5,0.9-1.1,1.1-2.2,1.1c-1.5,0-2.1-1.3-2.1-2.5c0-1.6,0.7-2.3,2.2-2.7l1.2-0.3
			c0.7-0.2,0.9-0.4,0.9-1c0-0.7-0.3-1.1-1-1.1c-0.7,0-1,0.4-1,1.1v0.2H617.2z M621.2,330.8c-0.3,0.2-0.7,0.4-0.9,0.4
			c-0.9,0.2-1.2,0.6-1.2,1.4c0,0.7,0.2,1.2,0.8,1.2c0.6,0,1.4-0.4,1.4-1.3V330.8z"/>
		<path class="st9" d="M625.5,326.5h2.1v1h0c0.5-0.8,1.3-1.2,2.2-1.2c1.4,0,2.2,0.8,2.2,2.4v6.4h-2.2v-5.9c0-0.9-0.3-1.2-0.9-1.2
			c-0.8,0-1.2,0.5-1.2,1.4v5.7h-2.2V326.5z"/>
		<path class="st9" d="M636.1,331.2v0.7c0,1,0.3,2,1.1,2c0.7,0,1-0.6,1.2-1.6h2c-0.1,2-1,3.1-3.1,3.1c-3.2,0-3.3-2.5-3.3-4.6
			c0-2.3,0.4-4.4,3.4-4.4c2.6,0,3.2,1.7,3.2,4.4v0.5H636.1z M638.3,329.8c0-1.3-0.2-2-1.1-2c-0.9,0-1.1,0.9-1.1,1.7v0.3H638.3z"/>
	</g>
	<g>
		<path class="st9" d="M503,257.1h3.4l1.6,8.1h0l1.6-8.1h3.4v11.4H511v-9.1h0l-2,9.1h-1.8l-2-9.1h0v9.1H503V257.1z"/>
		<path class="st9" d="M518.5,259.7c2.7,0,3.4,1.5,3.4,4.5c0,2.9-0.9,4.5-3.4,4.5c-2.7,0-3.4-1.5-3.4-4.5
			C515.1,261.3,515.9,259.7,518.5,259.7z M518.5,267.2c0.9,0,1.2-0.9,1.2-3c0-2.1-0.3-3-1.2-3c-1.1,0-1.2,1.3-1.2,3
			S517.4,267.2,518.5,267.2z"/>
		<path class="st9" d="M523.8,259.9h2.2v9.2c0,1.4-0.5,2.2-2.5,2.2c-0.3,0-0.6,0-0.9,0v-1.6c0.1,0,0.2,0,0.4,0
			c0.8,0,0.9-0.4,0.9-1.4V259.9z M523.8,256.9h2.2v1.9h-2.2V256.9z"/>
		<path class="st9" d="M531.3,259.7c2.7,0,3.4,1.5,3.4,4.5c0,2.9-0.9,4.5-3.4,4.5c-2.7,0-3.4-1.5-3.4-4.5
			C527.9,261.3,528.7,259.7,531.3,259.7z M531.3,267.2c0.9,0,1.2-0.9,1.2-3c0-2.1-0.3-3-1.2-3c-1.1,0-1.2,1.3-1.2,3
			S530.2,267.2,531.3,267.2z"/>
		<path class="st9" d="M538.8,257.1v6h0l2.2-3.2h2.4l-2.5,3.4l2.8,5.2h-2.4l-1.8-3.5l-0.8,1v2.5h-2.2v-11.4H538.8z"/>
		<path class="st9" d="M548.2,259.7c2.7,0,3.4,1.5,3.4,4.5c0,2.9-0.9,4.5-3.4,4.5c-2.7,0-3.4-1.5-3.4-4.5
			C544.8,261.3,545.7,259.7,548.2,259.7z M548.2,267.2c0.9,0,1.2-0.9,1.2-3c0-2.1-0.3-3-1.2-3c-1.1,0-1.2,1.3-1.2,3
			S547.1,267.2,548.2,267.2z"/>
		<path class="st9" d="M557.5,259.9h2.2l-2.2,8.6H555l-2.2-8.6h2.3l1.2,6.2h0L557.5,259.9z"/>
		<path class="st9" d="M561.2,262.5v-0.2c0-2,1.4-2.7,3-2.7c2.6,0,3.1,1.1,3.1,2.6v4.5c0,0.8,0,1.2,0.3,1.7h-2.1
			c-0.1-0.3-0.2-0.6-0.3-0.9h0c-0.5,0.9-1.1,1.1-2.2,1.1c-1.5,0-2.1-1.3-2.1-2.5c0-1.6,0.7-2.3,2.2-2.7l1.2-0.3
			c0.7-0.2,0.9-0.4,0.9-1c0-0.7-0.3-1.1-1-1.1c-0.7,0-1,0.4-1,1.1v0.2H561.2z M565.2,264.2c-0.3,0.2-0.7,0.4-0.9,0.4
			c-0.9,0.2-1.2,0.6-1.2,1.4c0,0.7,0.2,1.2,0.8,1.2s1.4-0.4,1.4-1.3V264.2z"/>
		<path class="st9" d="M573.7,263c0-0.8-0.2-1.7-1-1.7c-1.1,0-1.3,1-1.3,2.9c0,2.1,0.2,3,1.2,3c0.7,0,1.1-0.6,1.1-2h2.1
			c0,2.3-0.9,3.5-3.3,3.5c-2.2,0-3.3-1.1-3.3-4.5c0-3.5,1.5-4.5,3.5-4.5c2,0,3.1,1.3,3.1,3.3H573.7z"/>
	</g>
	<g>
		<g>
			<path class="st9" d="M314.4,351.6l2.8,7.8h0v-7.8h2.1V363h-2.6l-2.8-8h0v8h-2.1v-11.4H314.4z"/>
			<path class="st9" d="M321.6,351.5h2.2v1.9h-2.2V351.5z M321.6,354.4h2.2v8.6h-2.2V354.4z"/>
			<path class="st9" d="M328.3,351.6v6h0l2.2-3.2h2.4l-2.5,3.4l2.8,5.2h-2.4l-1.8-3.5l-0.8,1v2.5h-2.2v-11.4H328.3z"/>
			<path class="st9" d="M336.3,360.2v0.3c0,0.8,0.4,1.2,1.2,1.2c0.7,0,1.1-0.3,1.1-1c0-0.6-0.4-0.8-0.8-1l-1.6-0.6
				c-1.2-0.4-1.8-1.2-1.8-2.4c0-1.4,0.9-2.6,3.2-2.6c2,0,2.9,0.9,2.9,2.4v0.4h-2c0-0.9-0.3-1.3-1-1.3c-0.6,0-1,0.3-1,0.9
				c0,0.4,0.2,0.8,1,1l1.3,0.4c1.4,0.5,1.9,1.2,1.9,2.5c0,1.8-1.3,2.7-3.2,2.7c-2.5,0-3.2-1.1-3.2-2.7v-0.3H336.3z"/>
			<path class="st9" d="M342.5,351.5h2.2v1.9h-2.2V351.5z M342.5,354.4h2.2v8.6h-2.2V354.4z"/>
			<path class="st9" d="M349,351.1h2.2l-1.6,2.3h-1.5L349,351.1z"/>
			<path class="st9" d="M350.4,357.5c0-0.8-0.2-1.7-1-1.7c-1.1,0-1.3,1-1.3,2.9c0,2.1,0.2,3,1.2,3c0.7,0,1.1-0.6,1.1-2h2.1
				c0,2.3-0.9,3.5-3.3,3.5c-2.2,0-3.3-1.1-3.3-4.5c0-3.5,1.5-4.5,3.5-4.5c2,0,3.1,1.3,3.1,3.3H350.4z"/>
		</g>
		<g>
			<path class="st9" d="M338.4,353.4h-2.3l-1.2-2.3h1.7l0.7,1.4l0.8-1.4h1.6L338.4,353.4z"/>
		</g>
	</g>
	<g>
		<g>
			<path class="st9" d="M489.2,336.5v4.6h0l2.9-4.6h2.5l-3.1,4.9l3.5,6.5h-2.6l-2.4-4.7l-0.8,1.3v3.4h-2.3v-11.4H489.2z"/>
			<path class="st9" d="M499.1,339.1c2.7,0,3.4,1.5,3.4,4.5c0,2.9-0.9,4.5-3.4,4.5c-2.7,0-3.4-1.5-3.4-4.5
				C495.8,340.6,496.6,339.1,499.1,339.1z M499.1,346.6c0.9,0,1.2-0.9,1.2-3c0-2.1-0.3-3-1.2-3c-1.1,0-1.2,1.3-1.2,3
				S498.1,346.6,499.1,346.6z"/>
			<path class="st9" d="M504.4,336.5h2.2v11.4h-2.2V336.5z"/>
			<path class="st9" d="M508.8,341.9v-0.2c0-2,1.4-2.7,3-2.7c2.6,0,3.1,1.1,3.1,2.6v4.5c0,0.8,0,1.2,0.3,1.7h-2.1
				c-0.1-0.3-0.2-0.6-0.3-0.9h0c-0.5,0.9-1.1,1.1-2.2,1.1c-1.5,0-2.1-1.3-2.1-2.5c0-1.6,0.7-2.3,2.2-2.7l1.2-0.3
				c0.7-0.2,0.9-0.4,0.9-1c0-0.7-0.3-1.1-1-1.1c-0.7,0-1,0.4-1,1.1v0.2H508.8z M512.9,343.6c-0.3,0.2-0.7,0.4-0.9,0.4
				c-0.9,0.2-1.2,0.6-1.2,1.4c0,0.7,0.2,1.2,0.8,1.2s1.4-0.4,1.4-1.3V343.6z"/>
			<path class="st9" d="M518.8,345.1v0.3c0,0.8,0.4,1.2,1.2,1.2c0.7,0,1.1-0.3,1.1-1c0-0.6-0.4-0.8-0.8-1l-1.6-0.6
				c-1.2-0.4-1.8-1.2-1.8-2.4c0-1.4,0.9-2.6,3.2-2.6c2,0,2.9,0.9,2.9,2.4v0.4h-2c0-0.9-0.3-1.3-1-1.3c-0.6,0-1,0.3-1,0.9
				c0,0.4,0.2,0.8,1,1l1.3,0.4c1.4,0.5,1.9,1.2,1.9,2.5c0,1.8-1.3,2.7-3.2,2.7c-2.5,0-3.2-1.1-3.2-2.7v-0.3H518.8z"/>
			<path class="st9" d="M525,336.3h2.2v1.9H525V336.3z M525,339.3h2.2v8.6H525V339.3z"/>
			<path class="st9" d="M529.4,339.3h2.1v1h0c0.5-0.8,1.3-1.2,2.2-1.2c1.4,0,2.2,0.8,2.2,2.4v6.4h-2.2V342c0-0.9-0.3-1.2-0.9-1.2
				c-0.8,0-1.2,0.5-1.2,1.4v5.7h-2.2V339.3z"/>
		</g>
		<g>
			<path class="st9" d="M521.1,338.2h-2.3l-1.2-2.3h1.7l0.7,1.4l0.8-1.4h1.6L521.1,338.2z"/>
		</g>
	</g>
	<g>
		<path class="st10" d="M345.7,149h2.8c2.4,0,2.8,1.6,2.8,4.2c0,3-0.6,4.4-2.9,4.4h-2.7V149z M347.4,156.3h0.8
			c1.2,0,1.4-0.8,1.4-3.1c0-1.9-0.2-2.9-1.5-2.9h-0.7V156.3z"/>
		<path class="st10" d="M356.2,156.8L356.2,156.8c-0.4,0.6-1,0.9-1.7,0.9c-1,0-1.6-0.6-1.6-1.8v-4.8h1.7v4.4c0,0.6,0.2,0.9,0.7,0.9
			c0.6,0,0.9-0.3,0.9-1.1v-4.3h1.7v6.5h-1.6V156.8z"/>
		<path class="st10" d="M359.4,151.1h1.6v0.9h0c0.3-0.6,0.8-1,1.5-1c0.1,0,0.2,0,0.3,0v1.6c-0.2,0-0.3,0-0.5,0
			c-0.6,0-1.2,0.3-1.2,1.2v3.9h-1.7V151.1z"/>
		<path class="st10" d="M363.9,151.1h1.6v0.7h0c0.4-0.6,0.9-0.8,1.6-0.8c0.8,0,1.3,0.4,1.5,1h0c0.3-0.7,0.9-1,1.6-1
			c1.1,0,1.6,0.7,1.6,1.9v4.7h-1.7v-4.5c0-0.5-0.2-0.8-0.6-0.8c-0.5,0-0.9,0.4-0.9,1.1v4.2h-1.7v-4.5c0-0.5-0.2-0.8-0.6-0.8
			c-0.5,0-0.9,0.4-0.9,1.1v4.2h-1.7V151.1z"/>
		<path class="st10" d="M373.5,148.9h1.7v1.4h-1.7V148.9z M373.5,151.1h1.7v6.5h-1.7V151.1z"/>
		<path class="st10" d="M377.2,149.3h1.7v1.8h1v1.1h-1v3.5c0,0.5,0.1,0.7,0.6,0.7c0.1,0,0.3,0,0.4,0v1.2c-0.4,0-0.7,0.1-1.1,0.1
			c-1.3,0-1.5-0.4-1.5-1.7v-3.7h-0.8v-1.1h0.8V149.3z"/>
		<path class="st10" d="M383.2,150.9c2,0,2.5,1.2,2.5,3.4c0,2.2-0.6,3.4-2.5,3.4c-2,0-2.5-1.2-2.5-3.4
			C380.6,152.1,381.3,150.9,383.2,150.9z M383.2,156.6c0.7,0,0.9-0.7,0.9-2.3c0-1.6-0.2-2.3-0.9-2.3c-0.8,0-0.9,0.9-0.9,2.3
			S382.4,156.6,383.2,156.6z"/>
		<path class="st10" d="M387.1,151.1h1.6v0.9h0c0.3-0.6,0.8-1,1.5-1c0.1,0,0.2,0,0.3,0v1.6c-0.2,0-0.3,0-0.5,0
			c-0.6,0-1.2,0.3-1.2,1.2v3.9h-1.7V151.1z"/>
		<path class="st10" d="M397,149l2.1,5.9h0V149h1.6v8.6h-2l-2.1-6h0v6H395V149H397z"/>
		<path class="st10" d="M402.4,149h3c1.8,0,2.4,1.3,2.4,2.6c0,1.8-1.1,2.6-2.7,2.6h-0.9v3.4h-1.7V149z M404.1,152.9h0.8
			c0.7,0,1.2-0.4,1.2-1.3c0-0.8-0.3-1.3-1.2-1.3h-0.7V152.9z"/>
	</g>
	<g>
		<path class="st10" d="M513.1,291h2.9c1.4,0,2.4,0.5,2.4,2.2c0,0.9-0.4,1.6-1.3,1.9v0c0.9,0.1,1.6,0.9,1.6,2c0,1.3-0.7,2.5-2.7,2.5
			h-2.9V291z M514.8,294.5h0.5c0.9,0,1.4-0.3,1.4-1.1c0-0.8-0.4-1.1-1.2-1.1h-0.6V294.5z M514.8,298.3h0.7c0.8,0,1.4-0.3,1.4-1.3
			c0-1-0.6-1.3-1.3-1.3h-0.7V298.3z"/>
		<path class="st10" d="M520.2,290.9h1.7v1.4h-1.7V290.9z M520.2,293.1h1.7v6.5h-1.7V293.1z"/>
		<path class="st10" d="M525.9,292.9c2,0,2.5,1.2,2.5,3.4c0,2.2-0.6,3.4-2.5,3.4c-2,0-2.5-1.2-2.5-3.4
			C523.3,294.1,524,292.9,525.9,292.9z M525.9,298.6c0.7,0,0.9-0.7,0.9-2.3s-0.2-2.3-0.9-2.3c-0.8,0-0.9,0.9-0.9,2.3
			S525.1,298.6,525.9,298.6z"/>
		<path class="st10" d="M534.6,293.1v6.1c0,1.7-0.8,2.5-2.7,2.5c-1.4,0-2.2-0.6-2.2-1.7h1.6c0,0.2,0.1,0.4,0.3,0.5
			c0.2,0.1,0.3,0.2,0.6,0.2c0.7,0,0.9-0.5,0.9-1.2v-0.9h0c-0.3,0.5-0.9,0.8-1.4,0.8c-1.3,0-2-0.9-2-3.3c0-1.5,0.2-3.3,2-3.3
			c0.5,0,1,0.2,1.3,0.9h0v-0.7H534.6z M532.1,298.2c0.7,0,0.9-0.8,0.9-1.8c0-1.6-0.2-2.2-0.9-2.2c-0.7,0-0.9,0.6-0.9,2.3
			C531.3,297.4,531.4,298.2,532.1,298.2z"/>
		<path class="st10" d="M536.3,293.1h1.6v0.9h0c0.3-0.6,0.8-1,1.5-1c0.1,0,0.2,0,0.3,0v1.6c-0.2,0-0.3,0-0.5,0
			c-0.6,0-1.2,0.3-1.2,1.2v3.9h-1.7V293.1z"/>
		<path class="st10" d="M540.7,295.1v-0.2c0-1.5,1-2,2.3-2c2,0,2.3,0.8,2.3,2v3.4c0,0.6,0,0.9,0.2,1.2H544c-0.1-0.2-0.2-0.5-0.2-0.7
			h0c-0.4,0.7-0.9,0.8-1.6,0.8c-1.2,0-1.6-1-1.6-1.8c0-1.2,0.5-1.7,1.6-2l0.9-0.3c0.5-0.1,0.7-0.3,0.7-0.8c0-0.5-0.2-0.8-0.8-0.8
			c-0.5,0-0.8,0.3-0.8,0.8v0.2H540.7z M543.7,296.3c-0.2,0.2-0.5,0.3-0.7,0.3c-0.7,0.1-0.9,0.5-0.9,1c0,0.5,0.2,0.9,0.6,0.9
			c0.4,0,1-0.3,1-1V296.3z"/>
		<path class="st10" d="M550.3,298.9L550.3,298.9c-0.4,0.6-0.8,0.9-1.5,0.9c-1.4,0-2-1-2-3.4s0.6-3.4,2-3.4c0.6,0,1,0.3,1.4,0.8h0
			V291h1.7v8.6h-1.6V298.9z M549.4,298.4c0.7,0,0.9-0.7,0.9-2.1s-0.1-2.1-0.9-2.1c-0.7,0-0.9,0.7-0.9,2.1S548.6,298.4,549.4,298.4z"
			/>
		<path class="st10" d="M554.7,297.4v0.2c0,0.6,0.3,0.9,0.9,0.9c0.5,0,0.8-0.3,0.8-0.8c0-0.4-0.3-0.6-0.6-0.7l-1.2-0.4
			c-0.9-0.3-1.4-0.9-1.4-1.8c0-1.1,0.7-1.9,2.4-1.9c1.5,0,2.2,0.7,2.2,1.8v0.3h-1.5c0-0.6-0.2-1-0.7-1c-0.4,0-0.8,0.2-0.8,0.7
			c0,0.3,0.2,0.6,0.7,0.8l1,0.3c1,0.3,1.4,0.9,1.4,1.8c0,1.4-1,2-2.4,2c-1.9,0-2.4-0.8-2.4-2.1v-0.2H554.7z"/>
		<path class="st10" d="M561,291v4.5h0l1.7-2.4h1.8l-1.9,2.5l2.1,3.9H563l-1.4-2.7l-0.6,0.8v1.9h-1.7V291H561z"/>
		<path class="st10" d="M565.7,295.1v-0.2c0-1.5,1-2,2.3-2c2,0,2.3,0.8,2.3,2v3.4c0,0.6,0,0.9,0.2,1.2H569c-0.1-0.2-0.2-0.5-0.2-0.7
			h0c-0.4,0.7-0.9,0.8-1.6,0.8c-1.2,0-1.6-1-1.6-1.8c0-1.2,0.5-1.7,1.6-2l0.9-0.3c0.5-0.1,0.7-0.3,0.7-0.8c0-0.5-0.2-0.8-0.8-0.8
			c-0.5,0-0.8,0.3-0.8,0.8v0.2H565.7z M568.8,296.3c-0.2,0.2-0.5,0.3-0.7,0.3c-0.7,0.1-0.9,0.5-0.9,1c0,0.5,0.2,0.9,0.6,0.9
			c0.4,0,1-0.3,1-1V296.3z"/>
		<path class="st10" d="M534.3,305.5c0-0.6-0.3-1.4-1-1.4c-0.8,0-1.2,0.9-1.2,3c0,2.1,0.2,3.4,1.2,3.4c0.4,0,1.1-0.4,1.1-1.4v-0.9
			h-1.1v-1.3h2.8v4.6h-1.3v-0.8h0c-0.4,0.7-1,1-1.8,1c-2.1,0-2.5-1.6-2.5-4.5c0-2.9,0.7-4.4,2.9-4.4c1.9,0,2.7,1,2.7,2.7H534.3z"/>
		<path class="st10" d="M539.9,304.9c2,0,2.5,1.2,2.5,3.4c0,2.2-0.6,3.4-2.5,3.4c-2,0-2.5-1.2-2.5-3.4
			C537.4,306.1,538,304.9,539.9,304.9z M539.9,310.6c0.7,0,0.9-0.7,0.9-2.3s-0.2-2.3-0.9-2.3c-0.8,0-0.9,0.9-0.9,2.3
			S539.1,310.6,539.9,310.6z"/>
		<path class="st10" d="M543.9,305.1h1.6v0.9h0c0.3-0.6,0.8-1,1.5-1c0.1,0,0.2,0,0.3,0v1.6c-0.2,0-0.3,0-0.5,0
			c-0.6,0-1.2,0.3-1.2,1.2v3.9h-1.7V305.1z"/>
		<path class="st10" d="M548.3,307.1v-0.2c0-1.5,1-2,2.3-2c2,0,2.3,0.8,2.3,2v3.4c0,0.6,0,0.9,0.2,1.2h-1.6
			c-0.1-0.2-0.2-0.5-0.2-0.7h0c-0.4,0.7-0.9,0.8-1.6,0.8c-1.2,0-1.6-1-1.6-1.8c0-1.2,0.5-1.7,1.6-2l0.9-0.3c0.5-0.1,0.7-0.3,0.7-0.8
			c0-0.5-0.2-0.8-0.8-0.8c-0.5,0-0.8,0.3-0.8,0.8v0.2H548.3z M551.3,308.3c-0.2,0.2-0.5,0.3-0.7,0.3c-0.7,0.1-0.9,0.5-0.9,1
			c0,0.5,0.2,0.9,0.6,0.9c0.4,0,1-0.3,1-1V308.3z"/>
	</g>
	<g>
		<path class="st10" d="M556.8,447.8h3c1.8,0,2.4,1.3,2.4,2.6c0,1.8-1.1,2.6-2.7,2.6h-0.9v3.4h-1.7V447.8z M558.5,451.7h0.8
			c0.7,0,1.2-0.4,1.2-1.3c0-0.8-0.3-1.3-1.2-1.3h-0.7V451.7z"/>
		<path class="st10" d="M563.4,449.9h1.6v0.9h0c0.3-0.6,0.8-1,1.5-1c0.1,0,0.2,0,0.3,0v1.6c-0.2,0-0.3,0-0.5,0
			c-0.6,0-1.2,0.3-1.2,1.2v3.9h-1.7V449.9z"/>
		<path class="st10" d="M570.3,449.7c2,0,2.5,1.2,2.5,3.4c0,2.2-0.6,3.4-2.5,3.4c-2,0-2.5-1.2-2.5-3.4
			C567.7,450.9,568.4,449.7,570.3,449.7z M570.3,455.4c0.7,0,0.9-0.7,0.9-2.3s-0.2-2.3-0.9-2.3c-0.8,0-0.9,0.9-0.9,2.3
			S569.4,455.4,570.3,455.4z"/>
		<path class="st10" d="M575.9,447.8v4.5h0l1.7-2.4h1.8l-1.9,2.5l2.1,3.9h-1.8l-1.4-2.7l-0.6,0.8v1.9h-1.7v-8.6H575.9z"/>
		<path class="st10" d="M580.7,447.8h1.7v8.6h-1.7V447.8z"/>
		<path class="st10" d="M585.4,453.4v0.5c0,0.8,0.2,1.5,0.8,1.5c0.6,0,0.8-0.4,0.9-1.2h1.5c-0.1,1.5-0.8,2.3-2.3,2.3
			c-2.4,0-2.5-1.8-2.5-3.5c0-1.7,0.3-3.3,2.6-3.3c1.9,0,2.4,1.3,2.4,3.3v0.4H585.4z M587.1,452.4c0-1-0.2-1.5-0.8-1.5
			c-0.7,0-0.9,0.7-0.9,1.3v0.3H587.1z"/>
		<path class="st10" d="M590.4,448.1h1.7v1.8h1v1.1h-1v3.5c0,0.5,0.1,0.7,0.6,0.7c0.1,0,0.3,0,0.4,0v1.2c-0.4,0-0.7,0.1-1.1,0.1
			c-1.3,0-1.5-0.4-1.5-1.7V451h-0.8v-1.1h0.8V448.1z"/>
		<path class="st10" d="M594.1,447.7h1.7v1.4h-1.7V447.7z M594.1,449.9h1.7v6.5h-1.7V449.9z"/>
		<path class="st10" d="M597.5,449.9h1.7v6.9c0,1.1-0.4,1.7-1.9,1.7c-0.2,0-0.4,0-0.7,0v-1.2c0.1,0,0.2,0,0.3,0c0.6,0,0.6-0.3,0.6-1
			V449.9z M597.5,447.7h1.7v1.4h-1.7V447.7z"/>
		<path class="st10" d="M602.2,453.4v0.5c0,0.8,0.2,1.5,0.8,1.5c0.6,0,0.8-0.4,0.9-1.2h1.5c-0.1,1.5-0.8,2.3-2.3,2.3
			c-2.4,0-2.5-1.8-2.5-3.5c0-1.7,0.3-3.3,2.6-3.3c1.9,0,2.4,1.3,2.4,3.3v0.4H602.2z M603.9,452.4c0-1-0.2-1.5-0.8-1.5
			c-0.7,0-0.9,0.7-0.9,1.3v0.3H603.9z"/>
		<path class="st10" d="M612.2,447.8l2.1,5.9h0v-5.9h1.6v8.6h-2l-2.1-6h0v6h-1.6v-8.6H612.2z"/>
		<path class="st10" d="M617.6,447.8h3c1.8,0,2.4,1.3,2.4,2.6c0,1.8-1.1,2.6-2.7,2.6h-0.9v3.4h-1.7V447.8z M619.3,451.7h0.8
			c0.7,0,1.2-0.4,1.2-1.3c0-0.8-0.3-1.3-1.2-1.3h-0.7V451.7z"/>
	</g>
	<g>
		<path class="st11" d="M385.8,600.3v0.3c0,0.8,0.2,1.3,1.1,1.3c0.5,0,1-0.3,1-1.1c0-0.8-0.4-1.1-1.5-1.5c-1.5-0.5-2.2-1.2-2.2-2.6
			c0-1.7,1-2.5,2.7-2.5c1.5,0,2.7,0.7,2.7,2.3v0.2h-1.7c0-0.8-0.3-1.3-0.9-1.3c-0.8,0-1,0.5-1,1c0,0.5,0.2,0.9,0.9,1.2l1.3,0.6
			c1.3,0.6,1.6,1.2,1.6,2.3c0,1.8-1.1,2.6-3,2.6c-2,0-2.7-0.9-2.7-2.5v-0.3H385.8z"/>
		<path class="st11" d="M392.3,594.4v4.5h0l1.7-2.4h1.8L394,599l2.1,3.9h-1.8l-1.4-2.7l-0.6,0.8v1.9h-1.7v-8.6H392.3z"/>
		<path class="st11" d="M396.6,598.5v-0.2c0-1.5,1-2,2.3-2c2,0,2.3,0.8,2.3,2v3.4c0,0.6,0,0.9,0.2,1.2h-1.6
			c-0.1-0.2-0.2-0.5-0.2-0.7h0c-0.4,0.7-0.9,0.8-1.6,0.8c-1.2,0-1.6-1-1.6-1.8c0-1.2,0.5-1.7,1.6-2l0.9-0.3c0.5-0.1,0.7-0.3,0.7-0.8
			c0-0.5-0.2-0.8-0.8-0.8c-0.5,0-0.8,0.3-0.8,0.8v0.2H396.6z M399.6,599.7c-0.2,0.2-0.5,0.3-0.7,0.3c-0.7,0.1-0.9,0.5-0.9,1
			c0,0.5,0.2,0.9,0.6,0.9s1-0.3,1-1V599.7z"/>
		<path class="st11" d="M405.7,602.3L405.7,602.3c-0.4,0.6-0.8,0.9-1.5,0.9c-1.4,0-2-1-2-3.4c0-2.4,0.6-3.4,2-3.4
			c0.6,0,1,0.3,1.4,0.8h0v-2.7h1.7v8.6h-1.6V602.3z M404.7,601.8c0.7,0,0.9-0.7,0.9-2.1s-0.1-2.1-0.9-2.1c-0.7,0-0.9,0.7-0.9,2.1
			S404,601.8,404.7,601.8z"/>
		<path class="st11" d="M408.4,598.5v-0.2c0-1.5,1-2,2.3-2c2,0,2.3,0.8,2.3,2v3.4c0,0.6,0,0.9,0.2,1.2h-1.6
			c-0.1-0.2-0.2-0.5-0.2-0.7h0c-0.4,0.7-0.9,0.8-1.6,0.8c-1.2,0-1.6-1-1.6-1.8c0-1.2,0.5-1.7,1.6-2l0.9-0.3c0.5-0.1,0.7-0.3,0.7-0.8
			c0-0.5-0.2-0.8-0.8-0.8c-0.5,0-0.8,0.3-0.8,0.8v0.2H408.4z M411.4,599.7c-0.2,0.2-0.5,0.3-0.7,0.3c-0.7,0.1-0.9,0.5-0.9,1
			c0,0.5,0.2,0.9,0.6,0.9s1-0.3,1-1V599.7z"/>
		<path class="st11" d="M414.1,596.5h1.6v0.9h0c0.3-0.6,0.8-1,1.5-1c0.1,0,0.2,0,0.3,0v1.6c-0.2,0-0.3,0-0.5,0
			c-0.6,0-1.2,0.3-1.2,1.2v3.9h-1.7V596.5z"/>
		<path class="st11" d="M419.4,600.8v0.2c0,0.6,0.3,0.9,0.9,0.9c0.5,0,0.8-0.3,0.8-0.8c0-0.4-0.3-0.6-0.6-0.7l-1.2-0.4
			c-0.9-0.3-1.4-0.9-1.4-1.8c0-1.1,0.7-1.9,2.4-1.9c1.5,0,2.2,0.7,2.2,1.8v0.3H421c0-0.6-0.2-1-0.7-1c-0.4,0-0.8,0.2-0.8,0.7
			c0,0.3,0.2,0.6,0.7,0.8l1,0.3c1,0.3,1.4,0.9,1.4,1.8c0,1.4-1,2-2.4,2c-1.9,0-2.4-0.8-2.4-2.1v-0.2H419.4z"/>
		<path class="st11" d="M425.2,594.4v4.5h0l1.7-2.4h1.8l-1.9,2.5l2.1,3.9h-1.8l-1.4-2.7l-0.6,0.8v1.9h-1.7v-8.6H425.2z"/>
		<path class="st11" d="M431.8,596.3c2,0,2.5,1.2,2.5,3.4c0,2.2-0.6,3.4-2.5,3.4c-2,0-2.5-1.2-2.5-3.4
			C429.3,597.5,429.9,596.3,431.8,596.3z M431.8,602c0.7,0,0.9-0.7,0.9-2.3c0-1.6-0.2-2.3-0.9-2.3c-0.8,0-0.9,0.9-0.9,2.3
			S431,602,431.8,602z"/>
		<path class="st11" d="M395.4,608.5h1.7v6.9c0,1.1-0.4,1.7-1.9,1.7c-0.2,0-0.4,0-0.7,0v-1.2c0.1,0,0.2,0,0.3,0c0.6,0,0.6-0.3,0.6-1
			V608.5z M395.4,606.3h1.7v1.4h-1.7V606.3z"/>
		<path class="st11" d="M399.7,612v0.5c0,0.8,0.2,1.5,0.8,1.5c0.6,0,0.8-0.4,0.9-1.2h1.5c-0.1,1.5-0.8,2.3-2.3,2.3
			c-2.4,0-2.5-1.8-2.5-3.5c0-1.7,0.3-3.3,2.6-3.3c1.9,0,2.4,1.3,2.4,3.3v0.4H399.7z M401.4,611c0-1-0.2-1.5-0.8-1.5
			c-0.7,0-0.9,0.7-0.9,1.3v0.3H401.4z"/>
		<path class="st11" d="M403.5,613.7l2.6-3.8h-2.5v-1.3h4.4v1.3l-2.6,3.8h2.6v1.3h-4.5V613.7z"/>
		<path class="st11" d="M410.3,612v0.5c0,0.8,0.2,1.5,0.8,1.5c0.6,0,0.8-0.4,0.9-1.2h1.5c-0.1,1.5-0.8,2.3-2.3,2.3
			c-2.4,0-2.5-1.8-2.5-3.5c0-1.7,0.3-3.3,2.6-3.3c1.9,0,2.4,1.3,2.4,3.3v0.4H410.3z M412,611c0-1-0.2-1.5-0.8-1.5
			c-0.7,0-0.9,0.7-0.9,1.3v0.3H412z"/>
		<path class="st11" d="M414.5,608.5h1.6v0.9h0c0.3-0.6,0.8-1,1.5-1c0.1,0,0.2,0,0.3,0v1.6c-0.2,0-0.3,0-0.5,0
			c-0.6,0-1.2,0.3-1.2,1.2v3.9h-1.7V608.5z"/>
		<path class="st11" d="M420.8,608.3c2,0,2.5,1.2,2.5,3.4c0,2.2-0.6,3.4-2.5,3.4c-2,0-2.5-1.2-2.5-3.4
			C418.3,609.5,418.9,608.3,420.8,608.3z M420.8,614c0.7,0,0.9-0.7,0.9-2.3c0-1.6-0.2-2.3-0.9-2.3c-0.8,0-0.9,0.9-0.9,2.3
			S420,614,420.8,614z"/>
	</g>
	<g>
		<path class="st7" d="M411.3,212.2v1.4h-1.9v7.1h-1.7v-7.1h-1.9v-1.4H411.3z"/>
		<path class="st7" d="M412.4,216.3v-0.2c0-1.5,1-2,2.3-2c2,0,2.3,0.8,2.3,2v3.4c0,0.6,0,0.9,0.2,1.2h-1.6c-0.1-0.2-0.2-0.5-0.2-0.7
			h0c-0.4,0.7-0.9,0.8-1.6,0.8c-1.2,0-1.6-1-1.6-1.8c0-1.2,0.5-1.7,1.6-2l0.9-0.3c0.5-0.1,0.7-0.3,0.7-0.8c0-0.5-0.2-0.8-0.8-0.8
			c-0.5,0-0.8,0.3-0.8,0.8v0.2H412.4z M415.5,217.6c-0.2,0.2-0.5,0.3-0.7,0.3c-0.7,0.1-0.9,0.5-0.9,1c0,0.5,0.2,0.9,0.6,0.9
			c0.4,0,1-0.3,1-1V217.6z"/>
		<path class="st7" d="M418.7,214.3h1.6v0.9h0c0.3-0.6,0.8-1,1.5-1c0.1,0,0.2,0,0.3,0v1.6c-0.2,0-0.3,0-0.5,0
			c-0.6,0-1.2,0.3-1.2,1.2v3.9h-1.7V214.3z"/>
		<path class="st7" d="M423.2,216.3v-0.2c0-1.5,1-2,2.3-2c2,0,2.3,0.8,2.3,2v3.4c0,0.6,0,0.9,0.2,1.2h-1.6c-0.1-0.2-0.2-0.5-0.2-0.7
			h0c-0.4,0.7-0.9,0.8-1.6,0.8c-1.2,0-1.6-1-1.6-1.8c0-1.2,0.5-1.7,1.6-2l0.9-0.3c0.5-0.1,0.7-0.3,0.7-0.8c0-0.5-0.2-0.8-0.8-0.8
			c-0.5,0-0.8,0.3-0.8,0.8v0.2H423.2z M426.2,217.6c-0.2,0.2-0.5,0.3-0.7,0.3c-0.7,0.1-0.9,0.5-0.9,1c0,0.5,0.2,0.9,0.6,0.9
			c0.4,0,1-0.3,1-1V217.6z"/>
	</g>
	<g>
		<path class="st7" d="M485.8,376.3v1.4h-1.9v7.1h-1.7v-7.1h-1.9v-1.4H485.8z"/>
		<path class="st7" d="M487,380.4v-0.2c0-1.5,1-2,2.3-2c2,0,2.3,0.8,2.3,2v3.4c0,0.6,0,0.9,0.2,1.2h-1.6c-0.1-0.2-0.2-0.5-0.2-0.7h0
			c-0.4,0.7-0.9,0.8-1.6,0.8c-1.2,0-1.6-1-1.6-1.8c0-1.2,0.5-1.7,1.6-2l0.9-0.3c0.5-0.1,0.7-0.3,0.7-0.8c0-0.5-0.2-0.8-0.8-0.8
			c-0.5,0-0.8,0.3-0.8,0.8v0.2H487z M490,381.6c-0.2,0.2-0.5,0.3-0.7,0.3c-0.7,0.1-0.9,0.5-0.9,1c0,0.5,0.2,0.9,0.6,0.9s1-0.3,1-1
			V381.6z"/>
		<path class="st7" d="M493.2,378.4h1.6v0.9h0c0.3-0.6,0.8-1,1.5-1c0.1,0,0.2,0,0.3,0v1.6c-0.2,0-0.3,0-0.5,0
			c-0.6,0-1.2,0.3-1.2,1.2v3.9h-1.7V378.4z"/>
		<path class="st7" d="M497.7,380.4v-0.2c0-1.5,1-2,2.3-2c2,0,2.3,0.8,2.3,2v3.4c0,0.6,0,0.9,0.2,1.2h-1.6c-0.1-0.2-0.2-0.5-0.2-0.7
			h0c-0.4,0.7-0.9,0.8-1.6,0.8c-1.2,0-1.6-1-1.6-1.8c0-1.2,0.5-1.7,1.6-2l0.9-0.3c0.5-0.1,0.7-0.3,0.7-0.8c0-0.5-0.2-0.8-0.8-0.8
			c-0.5,0-0.8,0.3-0.8,0.8v0.2H497.7z M500.7,381.6c-0.2,0.2-0.5,0.3-0.7,0.3c-0.7,0.1-0.9,0.5-0.9,1c0,0.5,0.2,0.9,0.6,0.9
			s1-0.3,1-1V381.6z"/>
	</g>
	<g>
		<path class="st7" d="M369.7,452.5l3.2-5.9h-2.9v-1.4h4.9v1.3l-3.2,5.8h3.2v1.4h-5.2V452.5z"/>
		<path class="st7" d="M377.7,450.7v0.5c0,0.8,0.2,1.5,0.8,1.5c0.6,0,0.8-0.4,0.9-1.2h1.5c-0.1,1.5-0.8,2.3-2.3,2.3
			c-2.4,0-2.5-1.8-2.5-3.5c0-1.7,0.3-3.3,2.6-3.3c1.9,0,2.4,1.3,2.4,3.3v0.4H377.7z M379.4,449.8c0-1-0.2-1.5-0.8-1.5
			c-0.7,0-0.9,0.7-0.9,1.3v0.3H379.4z"/>
		<path class="st7" d="M382.6,445.4h1.7v1.8h1v1.1h-1v3.5c0,0.5,0.1,0.7,0.6,0.7c0.1,0,0.3,0,0.4,0v1.2c-0.4,0-0.7,0.1-1.1,0.1
			c-1.3,0-1.5-0.4-1.5-1.7v-3.7h-0.8v-1.1h0.8V445.4z"/>
		<path class="st7" d="M386.3,449.2v-0.2c0-1.5,1-2,2.3-2c2,0,2.3,0.8,2.3,2v3.4c0,0.6,0,0.9,0.2,1.2h-1.6c-0.1-0.2-0.2-0.5-0.2-0.7
			h0c-0.4,0.7-0.9,0.8-1.6,0.8c-1.2,0-1.6-1-1.6-1.8c0-1.2,0.5-1.7,1.6-2l0.9-0.3c0.5-0.1,0.7-0.3,0.7-0.8c0-0.5-0.2-0.8-0.8-0.8
			c-0.5,0-0.8,0.3-0.8,0.8v0.2H386.3z M389.3,450.5c-0.2,0.2-0.5,0.3-0.7,0.3c-0.7,0.1-0.9,0.5-0.9,1c0,0.5,0.2,0.9,0.6,0.9
			s1-0.3,1-1V450.5z"/>
	</g>
	<g>
		<g>
			<path class="st7" d="M160,324.9h2.9c1.4,0,2.4,0.5,2.4,2.2c0,0.9-0.4,1.6-1.3,1.9v0c0.9,0.1,1.6,0.9,1.6,2c0,1.3-0.7,2.5-2.7,2.5
				H160V324.9z M161.7,328.4h0.5c0.9,0,1.4-0.3,1.4-1.1c0-0.8-0.4-1.1-1.2-1.1h-0.6V328.4z M161.7,332.2h0.7c0.8,0,1.4-0.3,1.4-1.3
				c0-1-0.6-1.3-1.3-1.3h-0.7V332.2z"/>
			<path class="st7" d="M167.1,324.8h1.7v1.4h-1.7V324.8z M167.1,327h1.7v6.5h-1.7V327z"/>
			<path class="st7" d="M170.5,324.9h1.7v8.6h-1.7V324.9z"/>
			<path class="st7" d="M175.2,330.5v0.5c0,0.8,0.2,1.5,0.8,1.5c0.6,0,0.8-0.4,0.9-1.2h1.5c-0.1,1.5-0.8,2.3-2.3,2.3
				c-2.4,0-2.5-1.8-2.5-3.5c0-1.7,0.3-3.3,2.6-3.3c1.9,0,2.4,1.3,2.4,3.3v0.4H175.2z M176.9,329.5c0-1-0.2-1.5-0.8-1.5
				c-0.7,0-0.9,0.7-0.9,1.3v0.3H176.9z"/>
			<path class="st7" d="M182.9,329.3c0-0.6-0.1-1.3-0.7-1.3c-0.8,0-0.9,0.7-0.9,2.2c0,1.6,0.1,2.3,0.9,2.3c0.6,0,0.8-0.5,0.8-1.5
				h1.6c0,1.7-0.7,2.6-2.5,2.6c-1.7,0-2.5-0.8-2.5-3.4c0-2.7,1.1-3.4,2.6-3.4c1.5,0,2.3,1,2.3,2.5H182.9z"/>
			<path class="st7" d="M187.6,324.9v4.5h0l1.7-2.4h1.8l-1.9,2.5l2.1,3.9h-1.8l-1.4-2.7l-0.6,0.8v1.9h-1.7v-8.6H187.6z"/>
			<path class="st7" d="M194.7,326.8c2,0,2.5,1.2,2.5,3.4c0,2.2-0.6,3.4-2.5,3.4c-2,0-2.5-1.2-2.5-3.4
				C192.1,328,192.8,326.8,194.7,326.8z M194.7,332.5c0.7,0,0.9-0.7,0.9-2.3s-0.2-2.3-0.9-2.3c-0.8,0-0.9,0.9-0.9,2.3
				S193.9,332.5,194.7,332.5z"/>
			<path class="st7" d="M160,339h1.7v6.9c0,1.1-0.4,1.7-1.9,1.7c-0.2,0-0.4,0-0.7,0v-1.2c0.1,0,0.2,0,0.3,0c0.6,0,0.6-0.3,0.6-1V339
				z M160,336.8h1.7v1.4H160V336.8z"/>
			<path class="st7" d="M164.7,342.5v0.5c0,0.8,0.2,1.5,0.8,1.5c0.6,0,0.8-0.4,0.9-1.2h1.5c-0.1,1.5-0.8,2.3-2.3,2.3
				c-2.4,0-2.5-1.8-2.5-3.5c0-1.7,0.3-3.3,2.6-3.3c1.9,0,2.4,1.3,2.4,3.3v0.4H164.7z M166.4,341.5c0-1-0.2-1.5-0.8-1.5
				c-0.7,0-0.9,0.7-0.9,1.3v0.3H166.4z"/>
			<path class="st7" d="M169.1,344.2l2.6-3.8h-2.5V339h4.4v1.3l-2.6,3.8h2.6v1.3h-4.5V344.2z"/>
			<path class="st7" d="M176.3,342.5v0.5c0,0.8,0.2,1.5,0.8,1.5c0.6,0,0.8-0.4,0.9-1.2h1.5c-0.1,1.5-0.8,2.3-2.3,2.3
				c-2.4,0-2.5-1.8-2.5-3.5c0-1.7,0.3-3.3,2.6-3.3c1.9,0,2.4,1.3,2.4,3.3v0.4H176.3z M178,341.5c0-1-0.2-1.5-0.8-1.5
				c-0.7,0-0.9,0.7-0.9,1.3v0.3H178z"/>
			<path class="st7" d="M181,339h1.6v0.9h0c0.3-0.6,0.8-1,1.5-1c0.1,0,0.2,0,0.3,0v1.6c-0.2,0-0.3,0-0.5,0c-0.6,0-1.2,0.3-1.2,1.2
				v3.9H181V339z"/>
			<path class="st7" d="M187.8,338.8c2,0,2.5,1.2,2.5,3.4c0,2.2-0.6,3.4-2.5,3.4c-2,0-2.5-1.2-2.5-3.4
				C185.2,340,185.9,338.8,187.8,338.8z M187.8,344.5c0.7,0,0.9-0.7,0.9-2.3s-0.2-2.3-0.9-2.3c-0.8,0-0.9,0.9-0.9,2.3
				S186.9,344.5,187.8,344.5z"/>
		</g>
		<g>
			<path class="st7" d="M181.7,324.5h1.7l-1.2,1.7h-1.1L181.7,324.5z"/>
		</g>
	</g>
</g>
<g id="Flüsse_nicht_drucken_x21_" class="st12">
	<text transform="matrix(1 0 0 1 570.5582 367.9471)" class="st13 st14 st15">Lim</text>
	<text transform="matrix(1 0 0 1 250.2015 165.0973)" class="st13 st14 st15">Riva</text>
	<path class="st16" d="M287.2-0.4c0,0-6.6,8-11.9,9.3s-10.6-1.1-11.9,2.2c-1.3,3.3,4.8,4.6,3.1,7.7s-2.1,4.8-3.3,8.6s-2,4.6-4,6.6
		c-2,2-2.2,6.2-3.5,8.8c-1.3,2.6-7.7,3.5-6.8,15.6c0.9,12.1,5.7,26.2,9.2,34.1c3.5,7.9,3.1,9.5,8.4,12.8c4,2.5,5,1.2,6.2,2.8
		c0.4,0.5,0.8,1.4,1.4,2.8c2.3,5.6,4.3,10.2,4.1,16.4s-3.5,7.7-4.2,14.1c-0.7,6.4-3.5,2.9-0.7,11.7c2.9,8.8,4,9.7,2.9,17.6
		s-3.3,13.2,0,14.8c3.3,1.5,7.5,3.5,6.2,7.9c-1.3,4.4-9,11.4-7.3,16.1c1.8,4.6,8.6,27.3,13,29.3s8.8,0.7,10.6,3.7
		c1.8,3.1,1.3,10.3,7.3,13.7c5.9,3.3,7.9,1.5,13.2,5.5s7.7,6.2,12.6,8.6c4.8,2.4,12.8,2,20.7,4.8c11,3.9,13.8-1.8,18.4,0.9
		c4.6,2.6,10.4,4.5,17.9,9.8c7,5,11.2,2.5,16.9,5.2c5.7,2.6,8,5,8,5"/>
	<path class="st16" d="M478.8,12.9c0,0,9.7,9.2,14.3,19.8s13.9,17.8,20.1,20.8c6.3,3,9.9,5,6.3,14.5c-3.6,9.6-5.6,16.5-3.6,23.4
		c2,6.9-4,14.2,0.7,20.5s11.2,15.9,19,20.6c7.8,4.8,5.4,10.4,3.8,15.2c-1.7,4.8,2.6,4.1,1.7,9.8c-1,5.6-4.6,9.6,2.6,9.2
		c7.3-0.3,10.6,0.7,11.2,7.6c0.7,6.9,5.6,20.8,4.1,33.4c-1.5,12.6,0.2,23.6-1.3,27.7c-1.5,4.2-5.9,7.9-9.7,11.4
		c-3.7,3.5-5.3,4.8-3.5,10.8s5.7,11,8.8,7.5c3.1-3.5,6.2-4.6,8.8-3.5c2.6,1.1,2.2,9.7,4.6,10.8c2.4,1.1,8.2,1.5,10.3,7.1
		c2.1,5.6,5.6,15.9,5.8,21.3c0.2,5.4,4.1,9.1,3.5,17.5s0.2,12.7-3.8,17.2c-4,4.5-5.6,6.4-7.4,11.2c-1.8,4.8-3.8,7.9-6.9,10.4
		s-6.1,4.1-6.3,7.1c-0.2,3-0.5,6.4,4.1,7.3s7.3,0.5,7.8,5.4c0.5,5,1.7,12.9,5,16.3s11.9,6.4,18,8.4c6.1,2,8.9,9.4,7.8,15.5
		s-2.1,14.5-8.1,17.5s-9.7,2.8-14.5,4.5c-4.8,1.7-6.1,4.8-10.1,2.3c-4-2.5-14.7-8.1-25.3-8.6c-10.6-0.5-16.7-1.2-23-5.1
		c-6.3-4-13.9-9.7-18.3-10.1c-4.5-0.3-5.9-0.3-5.9-0.3"/>
	<path class="st16" d="M256.8,42.8c0,0,5.5,7.5,10.6,7.9s14.3-2.9,18.7-2s3.5,5.3,5.9,8.4c2.4,3.1,5,1.2,6,3.8
		c1,2.6,0.7,8.1,5.9,7.5c5.2-0.6,11.7-4.9,13.5-3.1c1.8,1.9,3.2,6.1,4.9,5.6s2.3-3.5,3.4-1.2c1.1,2.4,3.6,4.8,8.4,5.1
		c4.8,0.3,10.9-6.6,13.5-5.1c2.6,1.5,7.1,5.9,9.7,6.3c2.6,0.3,6.4-2.6,7.8,0c1.3,2.6,3,16.5,7.8,18.8c4.8,2.3,7.4-3.1,12.6-1
		c5.1,2.1,9.6,8.8,12.9,9.4c3.3,0.7,5.8,1.3,7.1,2.1c1.3,0.8,5.9-1.7,8.3,0c2.4,1.7,6.2,5.5,9.5,5.6c3.3,0.2,8.3,3.3,11.6,6.6
		c3.3,3.3,6.9,3.8,7.3,5.8c0.3,2-2.1,6.4-0.8,7.1s5.1,0.2,6.3,2.6c1.2,2.5,2.3,3.5,2.8,7.1c0.5,3.6-0.3,5.6,0,8.6
		c0.3,3,6.3,11.9,9.1,13.2c2.8,1.3,1.5,6.6,2.8,6.9c1.3,0.3,3.3,0.2,4.8,3.8c1.5,3.6,1.5,4.8,5.9,5.6c4.5,0.8,6.3,0.8,10.6,6.4
		c4.3,5.6,12.7,15.5,12.7,15.5"/>
</g>
</svg>
