<?xml version="1.0" encoding="utf-8"?>
<!-- Generator: Adobe Illustrator 25.0.1, SVG Export Plug-In . SVG Version: 6.00 Build 0)  -->
<svg version="1.1" id="Ebene_1" xmlns="http://www.w3.org/2000/svg" xmlns:xlink="http://www.w3.org/1999/xlink" x="0px" y="0px"
	 viewBox="0 0 889.5 588.8" style="enable-background:new 0 0 889.5 588.8;" xml:space="preserve">
<style type="text/css">
	.st0{fill:#E2E2E3;}
	.st1{fill:#D9D9D9;}
	.st2{fill:#97B8CC;}
	.st3{fill:#97B8CC;stroke:#97B8CC;stroke-miterlimit:3.8637;}
	.st4{fill:none;stroke:#97B8CC;stroke-miterlimit:3.8637;}
	.st5{fill:none;stroke:#744E2A;stroke-width:2;stroke-miterlimit:3.8637;}
	.st6{fill:none;stroke:#744E2A;stroke-width:2;stroke-miterlimit:10;stroke-dasharray:3,3;}
	.st7{fill:none;stroke:#000000;stroke-miterlimit:3.8637;}
	.st8{fill:#1D1D1B;}
	.st9{fill:#A6A6A5;}
	.st10{fill:#FFFFFF;}
	.st11{fill:#744E2A;}
</style>
<path class="st0" d="M210.7,136.8l157.2,84.5l0.6,12.1c0,0-4.6,1.8-4.1,5.2c0.6,3.4,0.6,4.5,0.6,4.5l5.2,0.6v3.5l61.8,43.9
	c0,0-5.1,19.4-8,26.8c-2.9,7.4-8.7,25.1-9.8,29.2c-1.1,4.1,3.5,4.1,2.4,7.4c-1.1,3.4-3.9,6.2-0.6,9.7c3.4,3.5,4.5-2.8,10.8,6.3
	c6.3,9.1,3.5,11.2,7.4,11.9s9.1,3.9,9.7,6.3c0.6,2.4-1.5,3.5-5.1,11.5c-3.5,8-4.1,20.5-4.1,20.5s7.4,0,6.3,5.2
	c-1.1,5.2-9.1,15.4-6.3,25.1c2.8,9.7,2.8,2.8,8.6,18.2c5.8,15.4,5.8,14.9,6.3,22.9c0.6,8,4.6,14.2,4.6,17.7c0,3.5-2.4,5.8-2.4,5.8
	s4.5,0.1,8.6,3.5c4.1,3.4,9.1,5.8,15.4,10.2c6.3,4.5,8.6,8,8.6,8s-20.5,12.6-28.5,16c-8,3.4-11.9,3.5-16.6,7.4
	c-4.6,3.9-5.2,7-14.3,5.8c-9.1-1.3-10.2,1.1-16.6,4.5c-6.3,3.4-5.3,6.5-10.9,4.6c-5.6-1.8-9.3-9.7-15.4-6.3
	c-6.2,3.4-7.4-0.4-9.7,6.3c-2.2,6.7-3.9,12.5-13.1,13.1c-9.1,0.6-20.6-5.6-27.5-5.1c-6.9,0.6-9.7,6.2-18.2,4.5s-20.5-14.2-24-12.5
	c-3.5,1.7-6.9,6.9-13.8,7.4c-6.9,0.6-22.9,0.6-22.9,0.6s-0.4-7.6-5.6-9.8c-5.2-2.2-7.6-4.5-9.3-10.2c-1.7-5.8,0.7-8.1,0.7-13.8
	c0-5.6-4.6-22.2-4.6-26.8c0-4.6,1-6.5-4.6-12.6c-5.6-6.2-17.1-21.2-18.8-17.7c-1.7,3.5,3.9,10.4,0,10.9c-3.9,0.6-7.3-6.3-11.4-5.2
	c-4.1,1.1-3.5,3.5-13.2-0.6c-9.7-4.1-36.8-15.3-44.1-17.7c-7.3-2.4-25.8-6.3-32.6-13.8c-6.7-7.4-6.2-10.2-12.5-10.2
	c-6.3,0-13.1,4.9-16.6-1.8c-3.5-6.7-23.4-56-32-64c-8.6-8-23.3-16.6-26.2-27.9c-2.9-11.4,5.6-18.8,2.8-26.2
	c-2.8-7.4-17.1-26.9-14.3-36.1c2.8-9.1,3.4-17.1,3.4-17.1s15.6,5.1,25.3-7.4c9.7-12.5,21.2-33,25.1-35.9c3.9-2.9,9.1-1.3,9.7-5.2
	s0-13.2,0-13.2s-6.7,1.7-11.4-1.7c-4.6-3.4-6.3-10.4-4.6-15.4c1.7-5.1,4.5-10.8,8.6-9.7c4.1,1.1,8,2.9,8-0.6c0-3.5-1.1-3.4,0-8
	c1.1-4.6-1.1-10.8-1.7-16.6c-0.6-5.8-3.4-14.7-7.4-17.7c-4.1-2.9-9.7-13.8-9.7-13.8l9.7,1.1c0,0,5.2-3.4,7.4-3.4
	C75.3,135.7,210.7,136.8,210.7,136.8L210.7,136.8z"/>
<path class="st1" d="M210.1,361.8c-5.8,0.7-8.8,0.1-13.8,5.8c-5.1,5.8-13.8,8.7-9.4,16.7c4.4,8,13.1,10.9,18.2,15.3
	s11.7,2.1,5.8,6.5c-5.8,4.4-10.9,14.6-6.6,13.8c4.4-0.7,7.3-4.3,10.2-1.4c2.9,2.9,7.3,15.3,10.9,13.8c3.6-1.4,16.7-4.4,28.3-13.8
	c11.7-9.4,24.1-15.2,18.2-19.6c-5.8-4.4-21.8-7.3-21.8-12.4c0-5.1,2.2-13.8-3.6-18.2c-5.8-4.4-4.4-7.3-13.1-8
	C224.7,359.6,210.1,361.8,210.1,361.8L210.1,361.8z"/>
<path class="st1" d="M396.3,412.7c-10.9-4.3,3.7-4.3-18.9-2.2c-22.6,2.2-42.2,1.4-41.4,7.3c0.7,5.8,4.3,14.5,1.4,26.9
	c-2.9,12.4,5.1,30.6-1.4,36.4c-6.6,5.8-28.3,2.2-33.4,3.6c-5.1,1.4-14.6,3.7-13.8,10.2c0.7,6.5,9.5,2.9,13.8,4.3
	c4.3,1.4,6.5,2.2,6.5,7.3s-5.1,10.9,5.1,8.7c10.2-2.2,26.2-15.3,23.3-9.4c-2.9,5.8-8,4.3-8.7,11.6c-0.7,7.3,4.3,6.6,17.4,7.3
	c13.1,0.7,26.2-0.7,21.1-4.3c-5.1-3.7-13.1-2.2-14.6-8.7c-1.4-6.6-4.3-18.9,0-18.2c4.3,0.7,6.6-0.7,7.3-5.1
	c0.7-4.4,0.8-11.6,6.6-8.7c5.8,2.9,20.3,4.3,26.9,2.2c6.6-2.2,29.1-7.2,24.7-18.2c-4.4-10.9-14.6-12.4-16-21.1
	c-1.4-8.7-1.4-11.7-10.2-12.4c-8.7-0.7-15.2-3.6-9.4-4.3c5.8-0.7,25.4-3.7,22.5-7.3C402.1,414.9,396.3,412.7,396.3,412.7
	L396.3,412.7z"/>
<path class="st1" d="M346.9,388.7c-4.3,0-8,0.7-8,7.3c0,6.6-2.2,8.7,4.4,10.2c6.6,1.5,16-0.7,17.4-4.3c1.4-3.7,10.2-5.1,0.7-8.7
	C352,389.4,346.9,388.7,346.9,388.7L346.9,388.7z"/>
<path class="st1" d="M101,246.9c-10.2,0-26.1-0.8-29.8,4.3c-3.7,5.1-14.6,5.1-11.7,8.7c2.9,3.7,12.3,3.6,8,8
	c-4.3,4.4-9.5,2.9-6.6,10.2s-2.8,8.8,2.9,11.7c5.8,2.9-5.1,6.6,16.7,5.1c21.8-1.5,16.1,2.8,22.6-1.5s7.3-7.3,7.3-16
	c0-8.7,2.9-10.9,2.9-16.7c0-5.8-0.1-11.6-3.7-13.1C106.1,246.1,101,246.9,101,246.9L101,246.9z"/>
<path class="st1" d="M110.5,323.2c-5.8-0.7-13.1-5.1-13.8,1.4c-0.7,6.6,6.6,10.9,5.8,16.7c-0.8,5.8,3.7,7.3,8.7,7.3
	c5.1,0,16.7,4.4,21.1-2.9c4.4-7.3,4.4-12.3-1.4-17.4C125,323.2,110.5,323.2,110.5,323.2L110.5,323.2z"/>
<path class="st1" d="M66.1,365.4c0,5.8-4.4,16.1,0.7,18.2C72,385.8,77.1,396,80,393c2.9-2.9,5.8-16.8,4.3-20.4
	C82.9,369,66.1,365.4,66.1,365.4L66.1,365.4z"/>
<path class="st1" d="M91.6,398.1c5.8,13.1,19.7,24.8,19.7,24.8s16.7,13.1,19.6,13.1c2.9,0,12.4,5.8,12.4,5.8l3.6-13.8
	c0,0-21.8-21.8-29.8-25.4S91.6,398.1,91.6,398.1L91.6,398.1z"/>
<path class="st1" d="M232.7,155.9c1.4,4.4,1.4,4.3,4.3,9.4c2.9,5.1,14.6,14.5,7.3,16c-7.3,1.5-31.2-3.6-34.9-2.2
	c-3.7,1.4-10.9,3.6-8,8c2.9,4.4,19.6,6.5,20.3,10.9c0.8,4.4,3,10.2,1.5,16c-1.5,5.8-4.4,16.1-1.5,18.2c2.9,2.2,30.6-5.1,31.3,2.9
	c0.7,8-4.3,10.1,0.8,10.9c5.1,0.8,10.9-4.3,26.2-5.8c15.3-1.4,19.6-1.4,18.9-9.4c-0.7-8,8.8-12.4-3.6-18.2
	c-12.4-5.8-26.2-6.5-30.6-13.1c-4.4-6.6,7.9-9.5,4.3-13.1c-3.6-3.6-8-24.7-8-24.7l-11.6-8.7L232.7,155.9L232.7,155.9z"/>
<path class="st2" d="M154.5,80.3c-6.2,4.7-8.4,9.8-12.8,9.4c-4.3-0.4-12.3,2.8-15.6,4.3c-3.3,1.5-4,7.7-4,10.6c0,2.9-4,6.1-6.6,11.2
	c-2.5,5.1-5.4,7.9-4.3,10.2c1.1,2.2,6.5,8.1,6.1,12c-0.4,4-2.2,17.1-2.2,17.1s-2.9-1.1-2.9,1.8c0,2.9-1.1,16.8-2.6,18.2
	c-1.4,1.4-4.7,4.7-2.2,4.7c2.5,0,4-2.6,3.3,0.7c-0.7,3.3-4.1,11.7-2.2,12.4c1.9,0.7,3.7,2.6,3.3,6.9c-0.4,4.3,2.8,18.2,4.7,14.9
	c1.9-3.3,3.3-10.2,4-8.4c0.7,1.8,6.6,8.7,5.8,5.1c-0.8-3.6-2.9-5.5-1.9-8.7c1.1-3.2,5.1,2.2,6.2-0.7c1.1-2.9-5.4-9.4-2.9-9.1
	c2.5,0.4,13.1-6.2,16-4.4c2.9,1.8,7.2,0.4,4.3,5.8c-2.9,5.5-5.8,7.6-2.2,6.6c3.6-1.1,10.5-4,11.6-1.8c1.1,2.2,4.1,11.2,1.1,14.5
	s0.7,3.2,2.9,0.4c2.2-2.9,7.3,1.1,6.6-1.8c-0.7-2.9-4-1.5-4.8-5.8c-0.7-4.3-0.3-13.1,3.3-12.3c3.6,0.7,10.5,5.8,14.1,5.5
	c3.7-0.4,7.7-3.7,11.3-6.2c3.6-2.5,10.2-4.4,10.2-7.3c0-2.9,0.8-5.2-2.2-4.4c-2.9,0.8-6.6,4-11.7,3.3c-5.1-0.7-9.8-2.5-12-2.2
	c-2.2,0.4-1.1,2.5-6.9,1.1s-10.9-3.6-8.7-6.9s6.6-2.5,8-0.7c1.4,1.8,2.5,3.6,4.7,4c2.2,0.4,14.2,0.4,15.3-2.2
	c1.1-2.5-0.4-4.8-3.6-4.4c-3.2,0.4-6.9-0.7-5.5-2.5c1.4-1.8,2.9-2.2,5.5-1.4c2.5,0.7,7.3,0.7,9.4-4.4c2.2-5.1,1.8-9.8,1.8-9.8
	s4-1.7,7.3-4.3c3.3-2.6,2.6-5.9,4.4-8.8c1.8-2.9,8.4-10.9,8.7-12.7c0.4-1.8-6.3-4.3-4.4-9.1c1.9-4.8,2.6-10.9,5.1-10.2
	c2.5,0.7,4,2.2,6.9,2.2c2.9,0,4,1.8,4,1.8s4.4-1.4,2.6-3.6c-1.9-2.2-1.8-4,0.4-3.7c2.2,0.4,16.3,1.5,14.5-2.5s-2.8-12-6.9-9.4
	c-4,2.5-13.8,2.8-13.5,5.4c0.4,2.6,1.8,2.9-0.4,4.8c-2.2,1.8-3.7,2.9-4.4,0.7c-0.7-2.2-4.8-6.5-7.6-9.8s-2.2-7-2.9-10.6
	c-0.7-3.6-4.8-0.7-8.4-1.4c-3.6-0.7,0.3-6.2-4-6.6c-4.3-0.4-2.9-0.3-4.7,2.2c-1.8,2.5-3.7,5.1-5.5,2.9c-1.8-2.2-4-12.3-7.3-12
	c-3.2,0.4-5.8,3.2-4.3,6.5c1.4,3.3,4.3,7.3,1.4,7.6c-2.9,0.4-10.2,2.5-14.2,1.1S154.5,80.3,154.5,80.3L154.5,80.3z"/>
<path class="st2" d="M4.5,234.9c2.9,1.2,5.6,2.4,5.6,7.2c0,4.9,1.2,11.7,2.4,14.8c1.2,3.1,12.1,20.9,12.1,24
	c0,3.1-4.2,16.8-2.9,18.7c1.3,2,11.3,8.6,10.5,12.5c-0.8,3.9-4.6,11.7-2.9,14.4c1.7,2.7,8.4,10.9,8,16.8c-0.4,5.9-8.4,4.9-8.4,8
	c0,3.1,0,8,0,8l9.7,10.7c0,0,4.9-3.5,7.1-2s10.5,8,11.3,10.4c0.8,2.4,2.6,5.6,4.7,8c2.1,2.4,3.3,7.2,2.9,9.6
	c-0.4,2.4,1.2,12.3,2.4,16c1.2,3.7,14.4,24.2,15.2,26.9c0.8,2.7,6.4,9,8.4,14.3c2,5.3,4.7,11.3,1.2,12.1c-3.5,0.8-8.2,0.2-11.1-2.9
	c-2.9-3.1-11.3-7.4-13.3-7.1c-2,0.4-6.8,0.6-6.8-2.1c0-2.7,7.2-8.8,6.4-11.1c-0.8-2.4-12.9-12.3-14.8-16.8c-2-4.5-2.1-21.9-6.4-25.6
	c-4.3-3.7-14.8-5.5-18.4-9.2c-3.5-3.7-15.8-34-18.7-37.6c-2.9-3.7-3.1-7.2-1.2-7.6c2-0.4,5.9-5.9,5.5-10
	c-0.4-4.1-11.5-19.9-11.9-32.9c-0.4-13.1,4.9-17.4,5.6-23.1c0.8-5.6,2.1-14.8,0-12.5c-2.1,2.4-1.3,5.6-4.1,8.4
	c-2.7,2.7-2.7,0.6-2.4-2.7c0.4-3.3,1.6-16.8,1.6-24.4C1.8,240.5,4.5,234.9,4.5,234.9L4.5,234.9z"/>
<path class="st3" d="M120.9,414.9c-2.4,0.8-4,0-4,3.2c0,3.2,3.6,4,4,7.6c0.4,3.6,3.6,8.4,3.6,8.4s4.4-4.7,6.8-4
	c2.4,0.7,15.6,6.4,16.8,6.8c1.2,0.4,1.2-4.9-2-6.1c-3.2-1.1-9.9-5.5-12.8-9.5c-2.8-4-8-7.6-9.6-7.6
	C122.1,413.7,120.9,414.9,120.9,414.9L120.9,414.9z"/>
<path class="st3" d="M149.8,441.3c0,2.4-1.1,1.7,0,4.4c1.1,2.7,3.2,4.8,6,5.2c2.7,0.4,7.6,1.2,6.8-1.6c-0.8-2.8-1.9-4.4-5.2-7.2
	C154.1,439.3,149.8,441.3,149.8,441.3L149.8,441.3z"/>
<path class="st3" d="M289.3,237.7c-2,1.1-2.3,1.1-3.2,4.4c-0.8,3.2-4.8,11.2-1.6,10.8c3.2-0.4,3.6-1.7,4.8-4.8
	c1.2-3.2,2-6.9,1.6-8.4C290.5,238.1,289.3,237.7,289.3,237.7L289.3,237.7z"/>
<path class="st3" d="M261.3,237c-2.4,0.8-5.6,5.6-8.8,7.2c-3.2,1.6-13.6,2.7-14.4,5.2s-2.4,7.2-0.8,8c1.6,0.8,7.7-5.6,10.8-5.6
	s9.9-2.3,10.3-4.4c0.4-2,4-3.7,4-6.1C262.5,239,261.3,237,261.3,237L261.3,237z"/>
<path class="st3" d="M294.9,182.9c0,0-0.8,6-0.4,8c0.4,2,2.4,4.4,1.6,6.1c-0.8,1.6-1.1,0.7-2.3,2.3c-1.2,1.6-3.6,2-0.8,2.8
	c2.7,0.8,3.2,1.1,4.4-1.2c1.2-2.3,0.4-4.8,2-8.4c1.6-3.6,3.2-3.2,1.6-6C299.4,183.7,294.9,182.9,294.9,182.9L294.9,182.9z"/>
<path class="st0" d="M436.1,336c3,3,2,3.5,2,8.5c0,5,1.5,10,1.5,10s3.5-0.5,4.5,1.5c1,2,5,9,1.5,9.5c-3.5,0.5-2.5-1-6.5-4.5
	c-4-3.5-8.5-0.5-9-6c-0.5-5.5,1.5-13.5,2.5-16.5C433.6,335.5,436.1,336,436.1,336L436.1,336z"/>
<path class="st0" d="M453.6,301c-1,4-3,6-1,9c2,3,3.5,4,1,7c-2.5,3-6,3-4,5.5c2,2.5,4.5,3,6,0s5.5-7,4.5-11.5c-1-4.5,0.5-8-2.5-9
	S453.6,301,453.6,301L453.6,301z"/>
<path class="st0" d="M460.6,417c-1.5,2-3,5.5-5.5,7c-2.5,1.5-4,1.5-5.5,4.5s-4,6.5-0.5,4.5c3.5-2,3.5-4,6-4.5c2.5-0.5,2.5,0,4.5-3.5
	C461.6,421.5,460.6,417,460.6,417L460.6,417z"/>
<path class="st4" d="M439.2,421.5c0,0-5.9-0.9-5.5,2.1c0.4,3,4.6,8.4,0.4,8.8c-4.2,0.4-15.5,2.1-21.5-0.8c-5.9-2.9-14.7-8.4-23.2-8
	c-8.4,0.4-18.5,2.5-24.4,2.1c-5.9-0.4-10.5-0.4-15.6-0.4c-5.1,0-7.2-2.1-10.1,0c-3,2.1-3.5,2.5-4.7,6.3c-1.2,3.8-3,4.3,0,6.4
	c3,2.1,5.2-1.3,6.8,3.3c1.6,4.7,4.2,10.5,6.7,11.4c2.5,0.8,4.6-3.3,5,0.4c0.4,3.8-2.1,7.5-2.5,12.2c-0.4,4.7,4.7,7.6-0.8,10.5
	c-5.5,2.9-5.9,2.5-11,8.4c-5,5.9-3.4,7.2-11,7.2c-7.6,0-13.5,4.2-13.9,8c-0.4,3.8-1.6,3-5.9,8c-4.2,5-1.8,0.4-4.7,7.2
	c-2.9,6.7-8.4,19.8-8.4,19.8 M415.6,354.5c0,0-3.8,1.7-7.2,2.1c-3.3,0.4-15.1,0.4-20.6-0.4c-5.5-0.8-5,0.9-7.6,1.7
	c-2.5,0.8-9.7-3.8-11.8-1.3c-2.1,2.5-8.4,9.7-10.9,14.7c-2.5,5-5,12.6-8.8,12.2c-3.8-0.4-11-3.4-19.8-8c-8.8-4.6-17.6-9.7-19.3-15.2
	c-1.7-5.5,0.8-6.7-1.7-10.5c-2.5-3.8-8-14.7-9.7-18.5c-1.7-3.8-3-6.7-0.4-9.3c2.5-2.5,3.5-2.9,4.2-6.3c0.8-3.4,2.5-8.4,2.5-8.4
	 M449.7,493.9c0,0-4.2,5.9-6.3,6.3c-2.1,0.4-0.8-3-3-3c-2.1,0-6.4,1.3-10.1,3.4c-3.8,2.1-6.2,4.2-8.4,3.8c-2.1-0.4,1.3-1.3-3,1.7
	c-4.2,3-16.8,11.3-21,13.9c-4.2,2.5-2.2,2.9-6.4,6.7c-4.2,3.8-4.7,0.8-8,2.1c-3.3,1.3,2.1,2.1-5.5,2.5c-7.6,0.4-12.6-1.3-12.6-1.3
	 M422,322.9c0,0-9.3,0.4-12.2-1.7c-3-2.1-3.3-5.9-7.2-8.4c-3.8-2.5-10.5-4.2-11-8.8c-0.4-4.6-2.5-8.4-5.5-11.8
	c-3-3.4-9.2-6.7-13-6.7s-5.9,0-8.4-2.5c-2.5-2.5,0-4.7-2.1-10.1s-3.3-10.1-5.9-16c-2.5-5.9-0.1-9.6-5.1-13c-5-3.4-10.1-6.7-10.1-6.7
	"/>
<path class="st1" d="M302.5,249c-3.7,2.9-4.3,1.4-6.6,8.7c-2.2,7.3,0.7,10.9,4.3,17.4s8.1,18.2,10.2,10.2c2.2-8,7.3-7.3,2.9-16.7
	S302.5,249,302.5,249L302.5,249z"/>
<path class="st0" d="M776,135.8c2.5-0.4,8.6,4.9,9.3,7.6c0.8,2.7,10,12.1,10,17.6s1.6,12.1,0.4,16.8c-1.2,4.7,0.4,26.5,1.6,31.2
	c1.2,4.7,2.1,9.3,3.7,14.4c1.6,5.1,6.9,7.2,7.8,10c1,2.7,1,7.2,3.3,9.6c2.3,2.3,7.2,2.5,6.8,5.3c-0.4,2.7-2.5,6.3-2.5,10.3
	s-0.2,8.2,1.3,11.5c1.6,3.3,2.7,5.4,1.2,8.6c-1.6,3.1-6.8,7.6-5.7,9.2c1.2,1.6,3.3-2.9,5.7-2.5c2.3,0.4,4.7-0.2,4.7,1.7
	c0,2,0.2,6.7,2.5,7c2.3,0.4,1.2-3.9,2.3-5.5c1.2-1.6,3.3-6.4,4.5-5.3c1.2,1.2,3.7,5.3,6.3,5.7c2.5,0.4,5.3-2.1,5.3-4.5
	c0-2.3-6.8-8.6-6.4-12.3c0.4-3.7,1-8.8,2.3-7.2c1.3,1.6,5.7,3.3,6.8,6.4c1.2,3.1,2.9,9,4.1,12.3c1.2,3.3,5.1,7.6,2.3,13.3
	c-2.7,5.7-1,26.9,1.2,30.8s10.5,17,10.5,21.1c0,4.1-2.7,18.7-8,22.8c-5.3,4.1-12.3,11.1-17,9.2c-4.7-2-11.9-8.6-13.1-12.3
	c-1.2-3.7,0.2-8-2.5-8.8c-2.7-0.8-4.7-4.7-4.7-7.6c0-2.9-1.7-14.7-3.3-16.4c-1.6-1.7-3.5-3.7-2.7-6c0.8-2.3,3.5-5.3,2.9-7.2
	c-0.6-2-1-2-3.3-0.4c-2.3,1.6-5.3,2.3-7.2,3.1c-2,0.8-1.3,2.5,0.8,5.3c2.1,2.7,6.4,6.7,6.4,10.3c0,3.7-0.8,9.6-2.3,9.6
	c-1.6,0,1-4.7-1.6-5.1c-2.5-0.4-4.9,0.2-4.9-2.3c0-2.5-1.4-8.6-3.1-10.5c-1.7-2-5.1-7.2-7.2-7.2c-2.1,0-3.3,1.2-3.7-1.6
	c-0.4-2.7,0.2-9.4-3.9-12.3c-4.1-2.9-7.4-8-9.6-7.6c-2.1,0.4-2.9,2.6-2.1,5.1c0.8,2.5,3.1,3.7,1.6,4.9c-1.6,1.2-5.5-3.9-6.3-1.2
	c-0.8,2.7,3.1,9.4,3.9,11.9c0.8,2.5,1.7,4.9-2.3,5.3c-4.1,0.4-9.3-7.4-12.1-10.3c-2.7-2.9-9.2-11.3-11.5-12.5
	c-2.3-1.2-5.7-12.1-4.9-15.2c0.8-3.1-5.7-9.4-6.3-12.3c-0.6-2.9,5.7-1,7.6-2.1c2-1.2,4.3-14.8,3.5-17.2c-0.8-2.3-4.1-17.4-4.9-20.3
	c-0.8-2.9-5.5-14.6-5.9-18.5c-0.4-3.9,3.9-14,3.5-17.6c-0.4-3.5-0.8-10.7,0.8-8.8c1.6,2,1.8,5.3,2.7,8c1,2.7,3.3,5.5,3.7,3.5
	c0.4-2,0.8-12.5,2.3-15.4c1.6-2.9,3.5-4.5,7.2-4.9c3.7-0.4,8.6-3.9,10-8.4c1.3-4.5,4.1-13.1,3.7-16.8c-0.4-3.7-3.9-6-2.7-7.2
	c1.2-1.2,3.9-1.3,3.9-4.9c0-3.5,0-8.4,0.8-10.3C774.5,136.5,776,135.8,776,135.8L776,135.8z"/>
<path class="st0" d="M750.1,151.8c0,3.1-0.4,8.8-0.4,10.7s-2.3,11.3-2.3,13.7c0,2.3,1,7.8,4.3,5.5c3.3-2.3,2.9-9.2,2.5-10.7
	c-0.4-1.6-1.2-3.1,1.2-3.5c2.3-0.4,2-2.1,0.4-4.5c-1.6-2.3-1.7-9-2.9-10.7C751.6,150.4,750.1,151.8,750.1,151.8L750.1,151.8z"/>
<path class="st5" d="M351.8,236.3l-26.7-0.8L303.7,271l-25.5-20.6l-13.5-20l-21.7-37.7 M435.4,382.7L324.6,236.5"/>
<line class="st5" x1="739.3" y1="278.9" x2="777.4" y2="137.2"/>
<path class="st6" d="M739,278.8c-12.9,90.2-123.7,113.9-123.7,113.9 M430.1,352.2l5.4,30.5"/>
<path d="M431.4,382.3c0-2.3,1.9-4.3,4.3-4.3c2.3,0,4.3,1.9,4.3,4.3c0,2.3-1.9,4.3-4.3,4.3C433.3,386.5,431.4,384.6,431.4,382.3
	L431.4,382.3z"/>
<path d="M425.8,352.2c0-2.3,1.9-4.3,4.3-4.3c2.3,0,4.3,1.9,4.3,4.3c0,2.3-1.9,4.3-4.3,4.3C427.7,356.4,425.8,354.5,425.8,352.2
	L425.8,352.2z"/>
<path d="M320.3,236.5c0-2.3,1.9-4.3,4.3-4.3c2.3,0,4.3,1.9,4.3,4.3c0,2.3-1.9,4.3-4.3,4.3C322.2,240.8,320.3,238.9,320.3,236.5
	L320.3,236.5z"/>
<path d="M299.5,271c0-2.3,1.9-4.3,4.3-4.3c2.3,0,4.3,1.9,4.3,4.3c0,2.3-1.9,4.3-4.3,4.3C301.4,275.3,299.5,273.4,299.5,271
	L299.5,271z"/>
<path d="M273.5,250.4c0-2.3,1.9-4.3,4.3-4.3c2.3,0,4.3,1.9,4.3,4.3c0,2.3-1.9,4.3-4.3,4.3C275.4,254.7,273.5,252.8,273.5,250.4
	L273.5,250.4z"/>
<path d="M260.5,230.5c0-2.3,1.9-4.3,4.3-4.3c2.3,0,4.3,1.9,4.3,4.3c0,2.3-1.9,4.3-4.3,4.3C262.4,234.7,260.5,232.8,260.5,230.5
	L260.5,230.5z"/>
<path d="M238.8,192.8c0-2.3,1.9-4.3,4.3-4.3c2.3,0,4.3,1.9,4.3,4.3c0,2.3-1.9,4.3-4.3,4.3C240.7,197,238.8,195.1,238.8,192.8
	L238.8,192.8z"/>
<path d="M280.3,355.5c0-2.3,1.9-4.3,4.3-4.3c2.3,0,4.3,1.9,4.3,4.3c0,2.3-1.9,4.3-4.3,4.3C282.2,359.8,280.3,357.9,280.3,355.5
	L280.3,355.5z"/>
<path class="st6" d="M490.6,0.1c-7.7,154.1-138.8,236.2-138.8,236.2"/>
<polygon class="st7" points="420.6,330.5 459.1,330.5 459.1,368.9 420.6,368.9 420.6,330.5 "/>
<polygon class="st7" points="615.3,119 889,119 889,392.7 615.3,392.7 615.3,119 "/>
<path class="st8" d="M734.8,278.9c0-2.3,1.9-4.3,4.3-4.3c2.3,0,4.3,1.9,4.3,4.3c0,2.3-1.9,4.3-4.3,4.3
	C736.7,283.2,734.8,281.2,734.8,278.9L734.8,278.9z"/>
<path class="st8" d="M773.2,137.2c0-2.3,1.9-4.3,4.3-4.3c2.3,0,4.3,1.9,4.3,4.3c0,2.3-1.9,4.3-4.3,4.3
	C775.1,141.5,773.2,139.6,773.2,137.2L773.2,137.2z"/>
<path class="st8" d="M846.4,312.1c0-2.3,1.9-4.3,4.3-4.3c2.3,0,4.3,1.9,4.3,4.3c0,2.3-1.9,4.3-4.3,4.3
	C848.3,316.3,846.4,314.4,846.4,312.1L846.4,312.1z"/>
<g>
	<path class="st2" d="M513,442.5h2.5v11.4H513V442.5z"/>
	<path class="st2" d="M521,442.5h2.5l4.8,7.7h0v-7.7h2.4v11.4h-2.5l-4.8-7.7h0v7.7H521V442.5z"/>
	<path class="st2" d="M536,442.5h4.9c3,0,5.2,1.9,5.2,5.7c0,3.3-1.7,5.8-5.2,5.8H536V442.5z M538.5,451.8h2.2c1.5,0,2.8-0.9,2.8-3.4
		c0-2.3-0.8-3.8-3.3-3.8h-1.8V451.8z"/>
	<path class="st2" d="M551.1,442.5h2.5v11.4h-2.5V442.5z"/>
	<path class="st2" d="M560.7,450.1c0,1.5,1.2,2.1,2.5,2.1c0.9,0,2.2-0.3,2.2-1.4c0-1.2-1.7-1.4-3.4-1.9c-1.7-0.4-3.4-1.1-3.4-3.2
		c0-2.3,2.2-3.5,4.3-3.5c2.4,0,4.6,1,4.6,3.7h-2.4c-0.1-1.4-1.1-1.7-2.3-1.7c-0.8,0-1.7,0.3-1.7,1.3c0,0.9,0.5,1,3.4,1.7
		c0.8,0.2,3.4,0.7,3.4,3.3c0,2.1-1.6,3.7-4.8,3.7c-2.5,0-4.9-1.2-4.9-4.1H560.7z"/>
	<path class="st2" d="M580.2,446.4c-0.2-1.1-1.2-2-2.5-2c-2.3,0-3.1,1.9-3.1,3.9c0,1.9,0.8,3.8,3.1,3.8c1.5,0,2.4-1.1,2.6-2.6h2.4
		c-0.3,2.8-2.2,4.7-5,4.7c-3.5,0-5.6-2.6-5.6-5.9c0-3.4,2.1-6,5.6-6c2.5,0,4.6,1.5,4.9,4.1H580.2z"/>
	<path class="st2" d="M587.6,442.5h2.5v4.4h4.6v-4.4h2.5v11.4h-2.5V449h-4.6v4.9h-2.5V442.5z"/>
	<path class="st2" d="M602.7,442.5h8.5v2.1h-6v2.4h5.5v2h-5.5v2.8h6.2v2.1h-8.7V442.5z"/>
	<path class="st2" d="M616.3,442.5h6.2c2,0,3.3,1.4,3.3,3.2c0,1.3-0.5,2.4-1.8,2.9v0c1.2,0.3,1.6,1.5,1.7,2.7c0,0.7,0,2.1,0.5,2.7
		h-2.5c-0.3-0.7-0.3-1.8-0.4-2.7c-0.2-1.2-0.6-1.7-1.9-1.7h-2.5v4.5h-2.5V442.5z M618.8,447.7h2.8c1.1,0,1.7-0.5,1.7-1.6
		c0-1.1-0.6-1.6-1.7-1.6h-2.8V447.7z"/>
	<path class="st2" d="M541.1,461.4c3.5,0,5.6,2.6,5.6,6c0,3.3-2.1,5.9-5.6,5.9c-3.5,0-5.6-2.6-5.6-5.9
		C535.5,464.1,537.6,461.4,541.1,461.4z M541.1,471.3c2.3,0,3.1-1.9,3.1-3.8c0-2-0.8-3.9-3.1-3.9s-3.1,1.9-3.1,3.9
		C538,469.4,538.9,471.3,541.1,471.3z"/>
	<path class="st2" d="M550.9,471.2l6.1-7.3h-5.7v-2.1h9v2l-6.1,7.3h6.3v2.1h-9.6V471.2z"/>
	<path class="st2" d="M565.2,461.7h8.5v2.1h-6v2.4h5.5v2h-5.5v2.8h6.2v2.1h-8.7V461.7z"/>
	<path class="st2" d="M581.9,461.7h2.6l4.3,11.4h-2.6l-0.9-2.5H581l-0.9,2.5h-2.5L581.9,461.7z M581.7,468.7h3l-1.4-4.2h0
		L581.7,468.7z"/>
	<path class="st2" d="M593,461.7h2.5l4.8,7.7h0v-7.7h2.4v11.4h-2.5l-4.8-7.7h0v7.7H593V461.7z"/>
</g>
<g>
	<path d="M444.9,386.7h3.8c3.2,0,3.8,2.2,3.8,5.6c0,4-0.9,5.9-3.9,5.9h-3.6V386.7z M447.2,396.4h1c1.6,0,1.9-1,1.9-4.1
		c0-2.6-0.2-3.9-2-3.9h-1V396.4z"/>
	<path d="M454.5,392.1v-0.2c0-2,1.4-2.7,3-2.7c2.6,0,3.1,1.1,3.1,2.6v4.5c0,0.8,0,1.2,0.3,1.7h-2.1c-0.1-0.3-0.2-0.6-0.3-0.9h0
		c-0.5,0.9-1.1,1.1-2.2,1.1c-1.5,0-2.1-1.3-2.1-2.5c0-1.6,0.7-2.3,2.2-2.7l1.2-0.3c0.7-0.2,0.9-0.4,0.9-1c0-0.7-0.3-1.1-1-1.1
		c-0.7,0-1,0.4-1,1.1v0.2H454.5z M458.6,393.8c-0.3,0.2-0.7,0.4-0.9,0.4c-0.9,0.2-1.2,0.6-1.2,1.4c0,0.7,0.2,1.2,0.8,1.2
		s1.4-0.4,1.4-1.3V393.8z"/>
	<path d="M462.9,389.5h2.1v1.2h0c0.4-0.8,1.1-1.4,2-1.4c0.1,0,0.3,0,0.4,0v2.1c-0.2,0-0.5,0-0.7,0c-0.8,0-1.6,0.4-1.6,1.6v5.2h-2.2
		V389.5z"/>
	<path d="M470.7,394.1v0.7c0,1,0.3,2,1.1,2c0.7,0,1-0.6,1.2-1.6h2c-0.1,2-1,3.1-3.1,3.1c-3.2,0-3.3-2.5-3.3-4.6
		c0-2.3,0.4-4.5,3.4-4.5c2.6,0,3.2,1.7,3.2,4.4v0.5H470.7z M473,392.8c0-1.3-0.2-2-1.1-2c-0.9,0-1.1,0.9-1.1,1.7v0.3H473z"/>
	<path d="M478.5,395.3v0.3c0,0.8,0.4,1.2,1.2,1.2c0.7,0,1.1-0.3,1.1-1c0-0.6-0.4-0.8-0.8-1l-1.6-0.6c-1.2-0.4-1.8-1.2-1.8-2.4
		c0-1.4,0.9-2.6,3.2-2.6c2,0,2.9,0.9,2.9,2.4v0.4h-2c0-0.9-0.3-1.3-1-1.3c-0.6,0-1,0.3-1,0.9c0,0.4,0.2,0.8,1,1l1.3,0.4
		c1.4,0.5,1.9,1.2,1.9,2.5c0,1.8-1.3,2.7-3.2,2.7c-2.5,0-3.2-1.1-3.2-2.7v-0.3H478.5z"/>
	<path d="M486.2,395.3v0.3c0,0.8,0.4,1.2,1.2,1.2c0.7,0,1.1-0.3,1.1-1c0-0.6-0.4-0.8-0.8-1l-1.6-0.6c-1.2-0.4-1.8-1.2-1.8-2.4
		c0-1.4,0.9-2.6,3.2-2.6c2,0,2.9,0.9,2.9,2.4v0.4h-2c0-0.9-0.3-1.3-1-1.3c-0.6,0-1,0.3-1,0.9c0,0.4,0.2,0.8,1,1l1.3,0.4
		c1.4,0.5,1.9,1.2,1.9,2.5c0,1.8-1.3,2.7-3.2,2.7c-2.5,0-3.2-1.1-3.2-2.7v-0.3H486.2z"/>
	<path d="M492.4,392.1v-0.2c0-2,1.4-2.7,3-2.7c2.6,0,3.1,1.1,3.1,2.6v4.5c0,0.8,0,1.2,0.3,1.7h-2.1c-0.1-0.3-0.2-0.6-0.3-0.9h0
		c-0.5,0.9-1.1,1.1-2.2,1.1c-1.5,0-2.1-1.3-2.1-2.5c0-1.6,0.7-2.3,2.2-2.7l1.2-0.3c0.7-0.2,0.9-0.4,0.9-1c0-0.7-0.3-1.1-1-1.1
		c-0.7,0-1,0.4-1,1.1v0.2H492.4z M496.4,393.8c-0.3,0.2-0.7,0.4-0.9,0.4c-0.9,0.2-1.2,0.6-1.2,1.4c0,0.7,0.2,1.2,0.8,1.2
		c0.6,0,1.4-0.4,1.4-1.3V393.8z"/>
	<path d="M500.8,386.7h2.2v11.4h-2.2V386.7z"/>
	<path d="M505.2,392.1v-0.2c0-2,1.4-2.7,3-2.7c2.6,0,3.1,1.1,3.1,2.6v4.5c0,0.8,0,1.2,0.3,1.7h-2.1c-0.1-0.3-0.2-0.6-0.3-0.9h0
		c-0.5,0.9-1.1,1.1-2.2,1.1c-1.5,0-2.1-1.3-2.1-2.5c0-1.6,0.7-2.3,2.2-2.7l1.2-0.3c0.7-0.2,0.9-0.4,0.9-1c0-0.7-0.3-1.1-1-1.1
		c-0.7,0-1,0.4-1,1.1v0.2H505.2z M509.2,393.8c-0.3,0.2-0.7,0.4-0.9,0.4c-0.9,0.2-1.2,0.6-1.2,1.4c0,0.7,0.2,1.2,0.8,1.2
		c0.6,0,1.4-0.4,1.4-1.3V393.8z"/>
	<path d="M513.5,389.5h2.1v0.9h0c0.6-0.8,1.2-1.1,2.2-1.1c1,0,1.7,0.5,2,1.4h0c0.3-0.9,1.1-1.4,2.2-1.4c1.5,0,2.1,0.9,2.1,2.6v6.3
		H522v-6c0-0.7-0.2-1.1-0.9-1.1c-0.7,0-1.2,0.5-1.2,1.5v5.7h-2.2v-6c0-0.7-0.2-1.1-0.9-1.1c-0.7,0-1.2,0.5-1.2,1.5v5.7h-2.2V389.5z"
		/>
</g>
<g>
	<path d="M263.6,185.6v4.6h0l2.9-4.6h2.5l-3.1,4.9l3.5,6.5h-2.6l-2.4-4.7l-0.8,1.3v3.4h-2.3v-11.4H263.6z"/>
	<path d="M270.6,185.5h2.2v1.9h-2.2V185.5z M270.6,188.4h2.2v8.6h-2.2V188.4z"/>
	<path d="M275,185.6h2.2V197H275V185.6z"/>
	<path d="M279.5,185.5h2.2v1.9h-2.2V185.5z M279.5,188.4h2.2v8.6h-2.2V188.4z"/>
	<path d="M283.9,188.4h2.1v0.9h0c0.6-0.8,1.2-1.1,2.2-1.1c1,0,1.7,0.5,2,1.4h0c0.3-0.9,1.1-1.4,2.2-1.4c1.5,0,2.1,0.9,2.1,2.6v6.3
		h-2.2v-6c0-0.7-0.2-1.1-0.9-1.1c-0.7,0-1.2,0.5-1.2,1.5v5.7h-2.2v-6c0-0.7-0.2-1.1-0.9-1.1c-0.7,0-1.2,0.5-1.2,1.5v5.7h-2.2V188.4z
		"/>
	<path d="M296.7,191.1v-0.2c0-2,1.4-2.7,3-2.7c2.6,0,3.1,1.1,3.1,2.6v4.5c0,0.8,0,1.2,0.3,1.7H301c-0.1-0.3-0.2-0.6-0.3-0.9h0
		c-0.5,0.9-1.1,1.1-2.2,1.1c-1.5,0-2.1-1.3-2.1-2.5c0-1.6,0.7-2.3,2.2-2.7l1.2-0.3c0.7-0.2,0.9-0.4,0.9-1c0-0.7-0.3-1.1-1-1.1
		c-0.7,0-1,0.4-1,1.1v0.2H296.7z M300.7,192.7c-0.3,0.2-0.7,0.4-0.9,0.4c-0.9,0.2-1.2,0.6-1.2,1.4c0,0.7,0.2,1.2,0.8,1.2
		s1.4-0.4,1.4-1.3V192.7z"/>
	<path d="M305,188.4h2.1v1h0c0.5-0.8,1.3-1.2,2.2-1.2c1.4,0,2.2,0.8,2.2,2.4v6.4h-2.2v-5.9c0-0.9-0.3-1.2-0.9-1.2
		c-0.8,0-1.2,0.5-1.2,1.4v5.7H305V188.4z"/>
	<path d="M318.1,196.1L318.1,196.1c-0.5,0.8-1.1,1.1-2,1.1c-1.8,0-2.6-1.3-2.6-4.5s0.8-4.5,2.6-4.5c0.8,0,1.4,0.3,1.9,1h0v-3.6h2.2
		V197h-2.1V196.1z M316.8,195.6c1,0,1.2-1,1.2-2.8c0-1.9-0.2-2.8-1.2-2.8c-1,0-1.2,1-1.2,2.8C315.7,194.6,315.9,195.6,316.8,195.6z"
		/>
	<path d="M323.9,194.2v0.3c0,0.8,0.4,1.2,1.2,1.2c0.7,0,1.1-0.3,1.1-1c0-0.6-0.4-0.8-0.8-1l-1.6-0.6c-1.2-0.4-1.8-1.2-1.8-2.4
		c0-1.4,0.9-2.6,3.2-2.6c2,0,2.9,0.9,2.9,2.4v0.4h-2c0-0.9-0.3-1.3-1-1.3c-0.6,0-1,0.3-1,0.9c0,0.4,0.2,0.8,1,1l1.3,0.4
		c1.4,0.5,1.9,1.2,1.9,2.5c0,1.8-1.3,2.7-3.2,2.7c-2.5,0-3.2-1.1-3.2-2.7v-0.3H323.9z"/>
	<path d="M334.2,191.5c0-0.8-0.2-1.7-1-1.7c-1.1,0-1.3,1-1.3,2.9c0,2.1,0.2,3,1.2,3c0.7,0,1.1-0.6,1.1-2h2.1c0,2.3-0.9,3.5-3.3,3.5
		c-2.2,0-3.3-1.1-3.3-4.5c0-3.5,1.5-4.5,3.5-4.5c2,0,3.1,1.3,3.1,3.3H334.2z"/>
	<path d="M338.1,185.6h2.2v3.7h0c0.4-0.7,1.2-1.1,2.1-1.1c1.4,0,2.2,0.8,2.2,2.4v6.4h-2.2v-5.9c0-0.9-0.3-1.2-0.9-1.2
		c-0.8,0-1.2,0.5-1.2,1.4v5.7h-2.2V185.6z"/>
	<path d="M346.7,191.1v-0.2c0-2,1.4-2.7,3-2.7c2.6,0,3.1,1.1,3.1,2.6v4.5c0,0.8,0,1.2,0.3,1.7H351c-0.1-0.3-0.2-0.6-0.3-0.9h0
		c-0.5,0.9-1.1,1.1-2.2,1.1c-1.5,0-2.1-1.3-2.1-2.5c0-1.6,0.7-2.3,2.2-2.7l1.2-0.3c0.7-0.2,0.9-0.4,0.9-1c0-0.7-0.3-1.1-1-1.1
		c-0.7,0-1,0.4-1,1.1v0.2H346.7z M350.8,192.7c-0.3,0.2-0.7,0.4-0.9,0.4c-0.9,0.2-1.2,0.6-1.2,1.4c0,0.7,0.2,1.2,0.8,1.2
		s1.4-0.4,1.4-1.3V192.7z"/>
	<path d="M355.1,188.4h2.1v1.2h0c0.4-0.8,1.1-1.4,2-1.4c0.1,0,0.3,0,0.4,0v2.1c-0.2,0-0.5,0-0.7,0c-0.8,0-1.6,0.4-1.6,1.6v5.2h-2.2
		V188.4z"/>
	<path d="M364.1,188.2c2.7,0,3.4,1.5,3.4,4.5c0,2.9-0.9,4.5-3.4,4.5c-2.7,0-3.4-1.5-3.4-4.5C360.8,189.8,361.6,188.2,364.1,188.2z
		 M364.1,195.7c0.9,0,1.2-0.9,1.2-3s-0.3-3-1.2-3c-1.1,0-1.2,1.3-1.2,3S363.1,195.7,364.1,195.7z"/>
</g>
<g>
	<path d="M788.5,147.2l2.8,7.8h0v-7.8h2.1v11.4h-2.6l-2.8-8h0v8h-2.1v-11.4H788.5z"/>
	<path d="M800,157.6L800,157.6c-0.5,0.8-1.3,1.2-2.2,1.2c-1.4,0-2.2-0.8-2.2-2.4V150h2.2v5.9c0,0.9,0.3,1.2,0.9,1.2
		c0.8,0,1.2-0.5,1.2-1.4V150h2.2v8.6H800V157.6z"/>
	<path d="M804.2,150h2.1v1h0c0.5-0.8,1.3-1.2,2.2-1.2c1.4,0,2.2,0.8,2.2,2.4v6.4h-2.2v-5.9c0-0.9-0.3-1.2-0.9-1.2
		c-0.8,0-1.2,0.5-1.2,1.4v5.7h-2.2V150z"/>
	<path d="M819.3,150v8.2c0,2.3-1,3.4-3.6,3.4c-1.9,0-2.9-0.8-2.9-2.3h2.1c0,0.3,0.1,0.5,0.3,0.7s0.5,0.2,0.7,0.2
		c0.9,0,1.2-0.7,1.2-1.6v-1.1h0c-0.4,0.6-1.1,1.1-1.8,1.1c-1.8,0-2.6-1.2-2.6-4.4c0-2,0.3-4.4,2.7-4.4c0.6,0,1.4,0.3,1.8,1.2h0v-1
		H819.3z M816,156.8c0.9,0,1.2-1,1.2-2.5c0-2.1-0.3-2.9-1.2-2.9c-1,0-1.2,0.8-1.2,3.1C814.9,155.8,815.1,156.8,816,156.8z"/>
	<path d="M820.9,150h2.2l1,6.1h0l1.1-6.1h2.4l1.1,6.1h0l1-6.1h2.1l-1.9,8.6h-2.5l-1.1-6.1h0l-1.1,6.1h-2.6L820.9,150z"/>
	<path d="M833.5,147.1h2.2v1.9h-2.2V147.1z M833.5,150h2.2v8.6h-2.2V150z"/>
</g>
<g>
	<path d="M811.6,299.8h4c2.3,0,3.1,1.7,3.1,3.4c0,2.4-1.5,3.4-3.6,3.4h-1.2v4.6h-2.3V299.8z M813.9,305h1c0.9,0,1.5-0.5,1.5-1.7
		c0-1.1-0.4-1.8-1.6-1.8h-1V305z"/>
	<path d="M820.5,305.2V305c0-2,1.4-2.7,3-2.7c2.6,0,3.1,1.1,3.1,2.6v4.5c0,0.8,0,1.2,0.3,1.7h-2.1c-0.1-0.3-0.2-0.6-0.3-0.9h0
		c-0.5,0.9-1.1,1.1-2.2,1.1c-1.5,0-2.1-1.3-2.1-2.5c0-1.6,0.7-2.3,2.2-2.7l1.2-0.3c0.7-0.2,0.9-0.4,0.9-1c0-0.7-0.3-1.1-1-1.1
		c-0.7,0-1,0.4-1,1.1v0.2H820.5z M824.5,306.9c-0.3,0.2-0.7,0.4-0.9,0.4c-0.9,0.2-1.2,0.6-1.2,1.4c0,0.7,0.2,1.2,0.8,1.2
		s1.4-0.4,1.4-1.3V306.9z"/>
	<path d="M828.9,302.6h2.2v9.2c0,1.4-0.5,2.2-2.5,2.2c-0.3,0-0.6,0-0.9,0v-1.6c0.1,0,0.2,0,0.4,0c0.8,0,0.9-0.4,0.9-1.4V302.6z
		 M828.9,299.7h2.2v1.9h-2.2V299.7z"/>
	<path d="M835.2,307.2v0.7c0,1,0.3,2,1.1,2c0.7,0,1-0.6,1.2-1.6h2c-0.1,2-1,3.1-3.1,3.1c-3.2,0-3.3-2.5-3.3-4.6
		c0-2.3,0.4-4.4,3.4-4.4c2.6,0,3.2,1.7,3.2,4.4v0.5H835.2z M837.5,305.9c0-1.3-0.2-2-1.1-2c-0.9,0-1.1,0.9-1.1,1.7v0.3H837.5z"/>
</g>
<g>
	<path d="M668.4,253.9v0.3c0,1.1,0.3,1.8,1.5,1.8c0.7,0,1.4-0.4,1.4-1.4c0-1-0.5-1.4-2-2c-2-0.7-3-1.6-3-3.5c0-2.2,1.4-3.4,3.5-3.4
		c2,0,3.5,0.9,3.5,3.1v0.3h-2.2c0-1.1-0.4-1.7-1.2-1.7c-1,0-1.3,0.7-1.3,1.3c0,0.7,0.2,1.1,1.2,1.6l1.8,0.8c1.7,0.8,2.2,1.6,2.2,3
		c0,2.4-1.5,3.5-4,3.5c-2.6,0-3.6-1.2-3.6-3.3v-0.5H668.4z"/>
	<path d="M675.4,251.5v-0.2c0-2,1.4-2.7,3-2.7c2.6,0,3.1,1.1,3.1,2.6v4.5c0,0.8,0,1.2,0.3,1.7h-2.1c-0.1-0.3-0.2-0.6-0.3-0.9h0
		c-0.5,0.9-1.1,1.1-2.2,1.1c-1.5,0-2.1-1.3-2.1-2.5c0-1.6,0.7-2.3,2.2-2.7l1.2-0.3c0.7-0.2,0.9-0.4,0.9-1c0-0.7-0.3-1.1-1-1.1
		c-0.7,0-1,0.4-1,1.1v0.2H675.4z M679.4,253.1c-0.3,0.2-0.7,0.4-0.9,0.4c-0.9,0.2-1.2,0.6-1.2,1.4c0,0.7,0.2,1.2,0.8,1.2
		c0.6,0,1.4-0.4,1.4-1.3V253.1z"/>
	<path d="M683.7,248.8h2.1v1h0c0.5-0.8,1.3-1.2,2.2-1.2c1.4,0,2.2,0.8,2.2,2.4v6.4H688v-5.9c0-0.9-0.3-1.2-0.9-1.2
		c-0.8,0-1.2,0.5-1.2,1.4v5.7h-2.2V248.8z"/>
	<path d="M694,254.6v0.3c0,0.8,0.4,1.2,1.2,1.2c0.7,0,1.1-0.3,1.1-1c0-0.6-0.4-0.8-0.8-1l-1.6-0.6c-1.2-0.4-1.8-1.2-1.8-2.4
		c0-1.4,0.9-2.6,3.2-2.6c2,0,2.9,0.9,2.9,2.4v0.4h-2c0-0.9-0.3-1.3-1-1.3c-0.6,0-1,0.3-1,0.9c0,0.4,0.2,0.8,1,1l1.3,0.4
		c1.4,0.5,1.9,1.2,1.9,2.5c0,1.8-1.3,2.7-3.2,2.7c-2.5,0-3.2-1.1-3.2-2.7v-0.3H694z"/>
	<path d="M700.2,245.9h2.2v1.9h-2.2V245.9z M700.2,248.8h2.2v8.6h-2.2V248.8z"/>
	<path d="M704.6,246h2.2v3.6h0c0.5-0.7,1-1,1.9-1c1.8,0,2.6,1.3,2.6,4.5c0,3.2-0.8,4.5-2.6,4.5c-0.9,0-1.5-0.3-2-1.1h0v0.9h-2.1V246
		z M708,256c1,0,1.2-1,1.2-2.8c0-1.9-0.2-2.8-1.2-2.8c-1,0-1.2,1-1.2,2.8C706.8,255,707,256,708,256z"/>
	<path d="M713.2,251.5v-0.2c0-2,1.4-2.7,3-2.7c2.6,0,3.1,1.1,3.1,2.6v4.5c0,0.8,0,1.2,0.3,1.7h-2.1c-0.1-0.3-0.2-0.6-0.3-0.9h0
		c-0.5,0.9-1.1,1.1-2.2,1.1c-1.5,0-2.1-1.3-2.1-2.5c0-1.6,0.7-2.3,2.2-2.7l1.2-0.3c0.7-0.2,0.9-0.4,0.9-1c0-0.7-0.3-1.1-1-1.1
		c-0.7,0-1,0.4-1,1.1v0.2H713.2z M717.2,253.1c-0.3,0.2-0.7,0.4-0.9,0.4c-0.9,0.2-1.2,0.6-1.2,1.4c0,0.7,0.2,1.2,0.8,1.2
		s1.4-0.4,1.4-1.3V253.1z"/>
	<path d="M721.6,248.8h2.1v1.2h0c0.4-0.8,1.1-1.4,2-1.4c0.1,0,0.3,0,0.4,0v2.1c-0.2,0-0.5,0-0.7,0c-0.8,0-1.6,0.4-1.6,1.6v5.2h-2.2
		V248.8z"/>
	<path d="M648.5,269.9v0.3c0,1.1,0.3,1.8,1.5,1.8c0.7,0,1.4-0.4,1.4-1.4c0-1-0.5-1.4-2-2c-2-0.7-3-1.6-3-3.5c0-2.2,1.4-3.4,3.5-3.4
		c2,0,3.5,0.9,3.5,3.1v0.3h-2.2c0-1.1-0.4-1.7-1.2-1.7c-1,0-1.3,0.7-1.3,1.3c0,0.7,0.2,1.1,1.2,1.6l1.8,0.8c1.7,0.8,2.2,1.6,2.2,3
		c0,2.4-1.5,3.5-4,3.5c-2.6,0-3.6-1.2-3.6-3.3v-0.5H648.5z"/>
	<path d="M656,262.4h2.2v2.5h1.3v1.5h-1.3v4.7c0,0.7,0.1,0.9,0.8,0.9c0.2,0,0.4,0,0.5,0v1.5c-0.5,0-0.9,0.1-1.4,0.1
		c-1.7,0-2-0.5-2-2.3v-4.9h-1.1v-1.5h1.1V262.4z"/>
	<path d="M664,264.6c2.7,0,3.4,1.5,3.4,4.5c0,2.9-0.9,4.5-3.4,4.5c-2.7,0-3.4-1.5-3.4-4.5C660.6,266.2,661.4,264.6,664,264.6z
		 M664,272.1c0.9,0,1.2-0.9,1.2-3s-0.3-3-1.2-3c-1.1,0-1.2,1.3-1.2,3S662.9,272.1,664,272.1z"/>
	<path d="M669.2,264.8h2.1v1h0c0.5-0.8,1.3-1.2,2.2-1.2c1.4,0,2.2,0.8,2.2,2.4v6.4h-2.2v-5.9c0-0.9-0.3-1.2-0.9-1.2
		c-0.8,0-1.2,0.5-1.2,1.4v5.7h-2.2V264.8z"/>
	<path d="M679.7,269.5v0.7c0,1,0.3,2,1.1,2c0.7,0,1-0.6,1.2-1.6h2c-0.1,2-1,3.1-3.1,3.1c-3.2,0-3.3-2.5-3.3-4.6
		c0-2.3,0.4-4.4,3.4-4.4c2.6,0,3.2,1.7,3.2,4.4v0.5H679.7z M682,268.1c0-1.3-0.2-2-1.1-2c-0.9,0-1.1,0.9-1.1,1.7v0.3H682z"/>
	<path d="M697.1,262v1.9h-2.5v9.5h-2.3v-9.5h-2.5V262H697.1z"/>
	<path d="M701.8,264.6c2.7,0,3.4,1.5,3.4,4.5c0,2.9-0.9,4.5-3.4,4.5c-2.7,0-3.4-1.5-3.4-4.5C698.4,266.2,699.2,264.6,701.8,264.6z
		 M701.8,272.1c0.9,0,1.2-0.9,1.2-3s-0.3-3-1.2-3c-1.1,0-1.2,1.3-1.2,3S700.7,272.1,701.8,272.1z"/>
	<path d="M706.4,264.8h2.2l1,6.1h0l1.1-6.1h2.4l1.1,6.1h0l1-6.1h2.1l-1.9,8.6H713l-1.1-6.1h0l-1.1,6.1h-2.6L706.4,264.8z"/>
	<path d="M718.9,264.8h2.1v1h0c0.5-0.8,1.3-1.2,2.2-1.2c1.4,0,2.2,0.8,2.2,2.4v6.4h-2.2v-5.9c0-0.9-0.3-1.2-0.9-1.2
		c-0.8,0-1.2,0.5-1.2,1.4v5.7h-2.2V264.8z"/>
</g>
<g>
	<path d="M293.8,360.8h3.8c3.2,0,3.8,2.2,3.8,5.6c0,4-0.9,5.9-3.9,5.9h-3.6V360.8z M296.1,370.5h1c1.6,0,1.9-1,1.9-4.1
		c0-2.6-0.2-3.9-2-3.9h-1V370.5z"/>
	<path d="M306.5,363.4c2.7,0,3.4,1.5,3.4,4.5c0,2.9-0.9,4.5-3.4,4.5c-2.7,0-3.4-1.5-3.4-4.5C303.1,364.9,304,363.4,306.5,363.4z
		 M306.5,370.9c0.9,0,1.2-0.9,1.2-3c0-2.1-0.3-3-1.2-3c-1.1,0-1.2,1.3-1.2,3S305.4,370.9,306.5,370.9z"/>
	<path d="M316.1,371.3L316.1,371.3c-0.5,0.8-1.1,1.1-2,1.1c-1.8,0-2.6-1.3-2.6-4.5s0.8-4.5,2.6-4.5c0.8,0,1.4,0.3,1.9,1h0v-3.6h2.2
		v11.4h-2.1V371.3z M314.9,370.7c1,0,1.2-1,1.2-2.8s-0.2-2.8-1.2-2.8c-1,0-1.2,1-1.2,2.8S313.9,370.7,314.9,370.7z"/>
	<path d="M323.5,363.4c2.7,0,3.4,1.5,3.4,4.5c0,2.9-0.9,4.5-3.4,4.5c-2.7,0-3.4-1.5-3.4-4.5C320.1,364.9,320.9,363.4,323.5,363.4z
		 M323.5,370.9c0.9,0,1.2-0.9,1.2-3c0-2.1-0.3-3-1.2-3c-1.1,0-1.2,1.3-1.2,3S322.4,370.9,323.5,370.9z"/>
	<path d="M328.7,363.6h2.1v0.9h0c0.6-0.8,1.2-1.1,2.2-1.1c1,0,1.7,0.5,2,1.4h0c0.3-0.9,1.1-1.4,2.2-1.4c1.5,0,2.1,0.9,2.1,2.6v6.3
		h-2.2v-6c0-0.7-0.2-1.1-0.9-1.1c-0.7,0-1.2,0.5-1.2,1.5v5.7h-2.2v-6c0-0.7-0.2-1.1-0.9-1.1c-0.7,0-1.2,0.5-1.2,1.5v5.7h-2.2V363.6z
		"/>
	<path d="M341.4,366.2V366c0-2,1.4-2.7,3-2.7c2.6,0,3.1,1.1,3.1,2.6v4.5c0,0.8,0,1.2,0.3,1.7h-2.1c-0.1-0.3-0.2-0.6-0.3-0.9h0
		c-0.5,0.9-1.1,1.1-2.2,1.1c-1.5,0-2.1-1.3-2.1-2.5c0-1.6,0.7-2.3,2.2-2.7l1.2-0.3c0.7-0.2,0.9-0.4,0.9-1c0-0.7-0.3-1.1-1-1.1
		c-0.7,0-1,0.4-1,1.1v0.2H341.4z M345.5,367.9c-0.3,0.2-0.7,0.4-0.9,0.4c-0.9,0.2-1.2,0.6-1.2,1.4c0,0.7,0.2,1.2,0.8,1.2
		s1.4-0.4,1.4-1.3V367.9z"/>
</g>
<g>
	<path d="M359.9,241.5h3.4l1.6,8.1h0l1.6-8.1h3.4v11.4h-2.1v-9.1h0l-2,9.1h-1.8l-2-9.1h0v9.1h-2.1V241.5z"/>
	<path d="M375.4,244.1c2.7,0,3.4,1.5,3.4,4.5c0,2.9-0.9,4.5-3.4,4.5c-2.7,0-3.4-1.5-3.4-4.5C372,245.7,372.8,244.1,375.4,244.1z
		 M375.4,251.7c0.9,0,1.2-0.9,1.2-3s-0.3-3-1.2-3c-1.1,0-1.2,1.3-1.2,3S374.3,251.7,375.4,251.7z"/>
	<path d="M382.2,250.1v0.3c0,0.8,0.4,1.2,1.2,1.2c0.7,0,1.1-0.3,1.1-1c0-0.6-0.4-0.8-0.8-1l-1.6-0.6c-1.2-0.4-1.8-1.2-1.8-2.4
		c0-1.4,0.9-2.6,3.2-2.6c2,0,2.9,0.9,2.9,2.4v0.4h-2c0-0.9-0.3-1.3-1-1.3c-0.6,0-1,0.3-1,0.9c0,0.4,0.2,0.8,1,1l1.3,0.4
		c1.4,0.5,1.9,1.2,1.9,2.5c0,1.8-1.3,2.7-3.2,2.7c-2.5,0-3.2-1.1-3.2-2.7v-0.3H382.2z"/>
	<path d="M388.3,241.5h2.2v3.7h0c0.4-0.7,1.2-1.1,2.1-1.1c1.4,0,2.2,0.8,2.2,2.4v6.4h-2.2V247c0-0.9-0.3-1.2-0.9-1.2
		c-0.8,0-1.2,0.5-1.2,1.4v5.7h-2.2V241.5z"/>
	<path d="M397,241.4h2.2v1.9H397V241.4z M397,244.3h2.2v8.6H397V244.3z"/>
</g>
<g>
	<path d="M276.5,221h2.8l3,11.4H280l-0.5-2.4h-3l-0.5,2.4h-2.4L276.5,221z M276.8,228.2h2.2l-1.1-5.1h0L276.8,228.2z"/>
	<path d="M283.4,223.8h2.1v1.2h0c0.4-0.8,1.1-1.4,2-1.4c0.1,0,0.3,0,0.4,0v2.1c-0.2,0-0.5,0-0.7,0c-0.8,0-1.6,0.4-1.6,1.6v5.2h-2.2
		V223.8z"/>
	<path d="M293.5,231.4L293.5,231.4c-0.5,0.8-1.3,1.2-2.2,1.2c-1.4,0-2.2-0.8-2.2-2.4v-6.4h2.2v5.9c0,0.9,0.3,1.2,0.9,1.2
		c0.8,0,1.2-0.5,1.2-1.4v-5.7h2.2v8.6h-2.1V231.4z"/>
	<path d="M299,229.6v0.3c0,0.8,0.4,1.2,1.2,1.2c0.7,0,1.1-0.3,1.1-1c0-0.6-0.4-0.8-0.8-1l-1.6-0.6c-1.2-0.4-1.8-1.2-1.8-2.4
		c0-1.4,0.9-2.6,3.2-2.6c2,0,2.9,0.9,2.9,2.4v0.4h-2c0-0.9-0.3-1.3-1-1.3c-0.6,0-1,0.3-1,0.9c0,0.4,0.2,0.8,1,1l1.3,0.4
		c1.4,0.5,1.9,1.2,1.9,2.5c0,1.8-1.3,2.7-3.2,2.7c-2.5,0-3.2-1.1-3.2-2.7v-0.3H299z"/>
	<path d="M304.8,221h2.2v3.7h0c0.4-0.7,1.2-1.1,2.1-1.1c1.4,0,2.2,0.8,2.2,2.4v6.4h-2.2v-5.9c0-0.9-0.3-1.2-0.9-1.2
		c-0.8,0-1.2,0.5-1.2,1.4v5.7h-2.2V221z"/>
	<path d="M313.1,226.5v-0.2c0-2,1.4-2.7,3-2.7c2.6,0,3.1,1.1,3.1,2.6v4.5c0,0.8,0,1.2,0.3,1.7h-2.1c-0.1-0.3-0.2-0.6-0.3-0.9h0
		c-0.5,0.9-1.1,1.1-2.2,1.1c-1.5,0-2.1-1.3-2.1-2.5c0-1.6,0.7-2.3,2.2-2.7l1.2-0.3c0.7-0.2,0.9-0.4,0.9-1c0-0.7-0.3-1.1-1-1.1
		c-0.7,0-1,0.4-1,1.1v0.2H313.1z M317.2,228.2c-0.3,0.2-0.7,0.4-0.9,0.4c-0.9,0.2-1.2,0.6-1.2,1.4c0,0.7,0.2,1.2,0.8,1.2
		s1.4-0.4,1.4-1.3V228.2z"/>
</g>
<g>
	<path d="M289.5,279v1.9H287v9.5h-2.3v-9.5h-2.5V279H289.5z"/>
	<path d="M291,284.4v-0.2c0-2,1.4-2.7,3-2.7c2.6,0,3.1,1.1,3.1,2.6v4.5c0,0.8,0,1.2,0.3,1.7h-2.1c-0.1-0.3-0.2-0.6-0.3-0.9h0
		c-0.5,0.9-1.1,1.1-2.2,1.1c-1.5,0-2.1-1.3-2.1-2.5c0-1.6,0.7-2.3,2.2-2.7l1.2-0.3c0.7-0.2,0.9-0.4,0.9-1c0-0.7-0.3-1.1-1-1.1
		c-0.7,0-1,0.4-1,1.1v0.2H291z M295,286.1c-0.3,0.2-0.7,0.4-0.9,0.4c-0.9,0.2-1.2,0.6-1.2,1.4c0,0.7,0.2,1.2,0.8,1.2
		c0.6,0,1.4-0.4,1.4-1.3V286.1z"/>
	<path d="M299.4,281.8h2.1v1.2h0c0.4-0.8,1.1-1.4,2-1.4c0.1,0,0.3,0,0.4,0v2.1c-0.2,0-0.5,0-0.7,0c-0.8,0-1.6,0.4-1.6,1.6v5.2h-2.2
		V281.8z"/>
	<path d="M305.3,284.4v-0.2c0-2,1.4-2.7,3-2.7c2.6,0,3.1,1.1,3.1,2.6v4.5c0,0.8,0,1.2,0.3,1.7h-2.1c-0.1-0.3-0.2-0.6-0.3-0.9h0
		c-0.5,0.9-1.1,1.1-2.2,1.1c-1.5,0-2.1-1.3-2.1-2.5c0-1.6,0.7-2.3,2.2-2.7l1.2-0.3c0.7-0.2,0.9-0.4,0.9-1c0-0.7-0.3-1.1-1-1.1
		c-0.7,0-1,0.4-1,1.1v0.2H305.3z M309.4,286.1c-0.3,0.2-0.7,0.4-0.9,0.4c-0.9,0.2-1.2,0.6-1.2,1.4c0,0.7,0.2,1.2,0.8,1.2
		c0.6,0,1.4-0.4,1.4-1.3V286.1z"/>
	<path d="M313.7,281.8h2.1v1h0c0.5-0.8,1.3-1.2,2.2-1.2c1.4,0,2.2,0.8,2.2,2.4v6.4H318v-5.9c0-0.9-0.3-1.2-0.9-1.2
		c-0.8,0-1.2,0.5-1.2,1.4v5.7h-2.2V281.8z"/>
	<path d="M328.8,281.8v8.2c0,2.3-1,3.4-3.6,3.4c-1.9,0-2.9-0.8-2.9-2.3h2.1c0,0.3,0.1,0.5,0.3,0.7c0.2,0.1,0.5,0.2,0.7,0.2
		c0.9,0,1.2-0.7,1.2-1.6v-1.1h0c-0.4,0.6-1.1,1.1-1.8,1.1c-1.8,0-2.6-1.2-2.6-4.4c0-2,0.3-4.4,2.7-4.4c0.6,0,1.4,0.3,1.8,1.2h0v-1
		H328.8z M325.4,288.6c0.9,0,1.2-1,1.2-2.5c0-2.1-0.3-2.9-1.2-2.9c-1,0-1.2,0.8-1.2,3.1C324.3,287.6,324.5,288.6,325.4,288.6z"/>
	<path d="M331,278.9h2.2v1.9H331V278.9z M331,281.8h2.2v8.6H331V281.8z"/>
	<path d="M335.4,281.8h2.1v1.2h0c0.4-0.8,1.1-1.4,2-1.4c0.1,0,0.3,0,0.4,0v2.1c-0.2,0-0.5,0-0.7,0c-0.8,0-1.6,0.4-1.6,1.6v5.2h-2.2
		V281.8z"/>
	<path d="M343.3,286.4v0.7c0,1,0.3,2,1.1,2c0.7,0,1-0.6,1.2-1.6h2c-0.1,2-1,3.1-3.1,3.1c-3.2,0-3.3-2.5-3.3-4.6
		c0-2.3,0.4-4.4,3.4-4.4c2.6,0,3.2,1.7,3.2,4.4v0.5H343.3z M345.5,285.1c0-1.3-0.2-2-1.1-2c-0.9,0-1.1,0.9-1.1,1.7v0.3H345.5z"/>
	<path d="M285.4,295l2.8,7.8h0V295h2.1v11.4h-2.6l-2.8-8h0v8h-2.1V295H285.4z"/>
	<path d="M292.5,300.4v-0.2c0-2,1.4-2.7,3-2.7c2.6,0,3.1,1.1,3.1,2.6v4.5c0,0.8,0,1.2,0.3,1.7h-2.1c-0.1-0.3-0.2-0.6-0.3-0.9h0
		c-0.5,0.9-1.1,1.1-2.2,1.1c-1.5,0-2.1-1.3-2.1-2.5c0-1.6,0.7-2.3,2.2-2.7l1.2-0.3c0.7-0.2,0.9-0.4,0.9-1c0-0.7-0.3-1.1-1-1.1
		c-0.7,0-1,0.4-1,1.1v0.2H292.5z M296.6,302.1c-0.3,0.2-0.7,0.4-0.9,0.4c-0.9,0.2-1.2,0.6-1.2,1.4c0,0.7,0.2,1.2,0.8,1.2
		c0.6,0,1.4-0.4,1.4-1.3V302.1z"/>
	<path d="M301.3,295.3h2.2v2.5h1.3v1.5h-1.3v4.7c0,0.7,0.1,0.9,0.8,0.9c0.2,0,0.4,0,0.5,0v1.5c-0.5,0-0.9,0.1-1.4,0.1
		c-1.7,0-2-0.5-2-2.3v-4.9h-1.1v-1.5h1.1V295.3z"/>
	<path d="M306.3,294.9h2.2v1.9h-2.2V294.9z M306.3,297.8h2.2v8.6h-2.2V297.8z"/>
	<path d="M313.8,297.6c2.7,0,3.4,1.5,3.4,4.5c0,2.9-0.9,4.5-3.4,4.5c-2.7,0-3.4-1.5-3.4-4.5C310.4,299.2,311.3,297.6,313.8,297.6z
		 M313.8,305.1c0.9,0,1.2-0.9,1.2-3s-0.3-3-1.2-3c-1.1,0-1.2,1.3-1.2,3S312.7,305.1,313.8,305.1z"/>
	<path d="M319,297.8h2.1v1h0c0.5-0.8,1.3-1.2,2.2-1.2c1.4,0,2.2,0.8,2.2,2.4v6.4h-2.2v-5.9c0-0.9-0.3-1.2-0.9-1.2
		c-0.8,0-1.2,0.5-1.2,1.4v5.7H319V297.8z"/>
	<path d="M327.7,300.4v-0.2c0-2,1.4-2.7,3-2.7c2.6,0,3.1,1.1,3.1,2.6v4.5c0,0.8,0,1.2,0.3,1.7H332c-0.1-0.3-0.2-0.6-0.3-0.9h0
		c-0.5,0.9-1.1,1.1-2.2,1.1c-1.5,0-2.1-1.3-2.1-2.5c0-1.6,0.7-2.3,2.2-2.7l1.2-0.3c0.7-0.2,0.9-0.4,0.9-1c0-0.7-0.3-1.1-1-1.1
		c-0.7,0-1,0.4-1,1.1v0.2H327.7z M331.7,302.1c-0.3,0.2-0.7,0.4-0.9,0.4c-0.9,0.2-1.2,0.6-1.2,1.4c0,0.7,0.2,1.2,0.8,1.2
		c0.6,0,1.4-0.4,1.4-1.3V302.1z"/>
	<path d="M336.1,295h2.2v11.4h-2.2V295z"/>
	<path d="M340.5,297.8h2.1v0.9h0c0.5-0.8,1.1-1.1,2-1.1c1.8,0,2.6,1.3,2.6,4.5s-0.8,4.5-2.6,4.5c-0.8,0-1.4-0.3-1.9-1h0v3.6h-2.2
		V297.8z M343.9,304.9c1,0,1.2-1,1.2-2.8c0-1.9-0.2-2.8-1.2-2.8c-1,0-1.2,1-1.2,2.8C342.7,304,342.9,304.9,343.9,304.9z"/>
	<path d="M349.1,300.4v-0.2c0-2,1.4-2.7,3-2.7c2.6,0,3.1,1.1,3.1,2.6v4.5c0,0.8,0,1.2,0.3,1.7h-2.1c-0.1-0.3-0.2-0.6-0.3-0.9h0
		c-0.5,0.9-1.1,1.1-2.2,1.1c-1.5,0-2.1-1.3-2.1-2.5c0-1.6,0.7-2.3,2.2-2.7l1.2-0.3c0.7-0.2,0.9-0.4,0.9-1c0-0.7-0.3-1.1-1-1.1
		c-0.7,0-1,0.4-1,1.1v0.2H349.1z M353.2,302.1c-0.3,0.2-0.7,0.4-0.9,0.4c-0.9,0.2-1.2,0.6-1.2,1.4c0,0.7,0.2,1.2,0.8,1.2
		c0.6,0,1.4-0.4,1.4-1.3V302.1z"/>
	<path d="M357.5,297.8h2.1v1.2h0c0.4-0.8,1.1-1.4,2-1.4c0.1,0,0.3,0,0.4,0v2.1c-0.2,0-0.5,0-0.7,0c-0.8,0-1.6,0.4-1.6,1.6v5.2h-2.2
		V297.8z"/>
	<path d="M365.7,295v6h0l2.2-3.2h2.4l-2.5,3.4l2.8,5.2h-2.4l-1.8-3.5l-0.8,1v2.5h-2.2V295H365.7z"/>
</g>
<g>
	<path d="M214.6,252h3.4l1.6,8.1h0l1.6-8.1h3.4v11.4h-2.1v-9.1h0l-2,9.1h-1.8l-2-9.1h0v9.1h-2.1V252z"/>
	<path d="M226.9,257.4v-0.2c0-2,1.4-2.7,3-2.7c2.6,0,3.1,1.1,3.1,2.6v4.5c0,0.8,0,1.2,0.3,1.7h-2.1c-0.1-0.3-0.2-0.6-0.3-0.9h0
		c-0.5,0.9-1.1,1.1-2.2,1.1c-1.5,0-2.1-1.3-2.1-2.5c0-1.6,0.7-2.3,2.2-2.7l1.2-0.3c0.7-0.2,0.9-0.4,0.9-1c0-0.7-0.3-1.1-1-1.1
		c-0.7,0-1,0.4-1,1.1v0.2H226.9z M231,259.1c-0.3,0.2-0.7,0.4-0.9,0.4c-0.9,0.2-1.2,0.6-1.2,1.4c0,0.7,0.2,1.2,0.8,1.2
		s1.4-0.4,1.4-1.3V259.1z"/>
	<path d="M235.3,254.8h2.1v1h0c0.5-0.8,1.3-1.2,2.2-1.2c1.4,0,2.2,0.8,2.2,2.4v6.4h-2.2v-5.9c0-0.9-0.3-1.2-0.9-1.2
		c-0.8,0-1.2,0.5-1.2,1.4v5.7h-2.2V254.8z"/>
	<path d="M244,254.8h2.2v9.2c0,1.4-0.5,2.2-2.5,2.2c-0.3,0-0.6,0-0.9,0v-1.6c0.1,0,0.2,0,0.4,0c0.8,0,0.9-0.4,0.9-1.4V254.8z
		 M244,251.9h2.2v1.9H244V251.9z"/>
	<path d="M248.4,257.4v-0.2c0-2,1.4-2.7,3-2.7c2.6,0,3.1,1.1,3.1,2.6v4.5c0,0.8,0,1.2,0.3,1.7h-2.1c-0.1-0.3-0.2-0.6-0.3-0.9h0
		c-0.5,0.9-1.1,1.1-2.2,1.1c-1.5,0-2.1-1.3-2.1-2.5c0-1.6,0.7-2.3,2.2-2.7l1.2-0.3c0.7-0.2,0.9-0.4,0.9-1c0-0.7-0.3-1.1-1-1.1
		c-0.7,0-1,0.4-1,1.1v0.2H248.4z M252.4,259.1c-0.3,0.2-0.7,0.4-0.9,0.4c-0.9,0.2-1.2,0.6-1.2,1.4c0,0.7,0.2,1.2,0.8,1.2
		s1.4-0.4,1.4-1.3V259.1z"/>
	<path d="M256.7,254.8h2.1v1.2h0c0.4-0.8,1.1-1.4,2-1.4c0.1,0,0.3,0,0.4,0v2.1c-0.2,0-0.5,0-0.7,0c-0.8,0-1.6,0.4-1.6,1.6v5.2h-2.2
		V254.8z"/>
	<path d="M262.7,257.4v-0.2c0-2,1.4-2.7,3-2.7c2.6,0,3.1,1.1,3.1,2.6v4.5c0,0.8,0,1.2,0.3,1.7H267c-0.1-0.3-0.2-0.6-0.3-0.9h0
		c-0.5,0.9-1.1,1.1-2.2,1.1c-1.5,0-2.1-1.3-2.1-2.5c0-1.6,0.7-2.3,2.2-2.7l1.2-0.3c0.7-0.2,0.9-0.4,0.9-1c0-0.7-0.3-1.1-1-1.1
		c-0.7,0-1,0.4-1,1.1v0.2H262.7z M266.7,259.1c-0.3,0.2-0.7,0.4-0.9,0.4c-0.9,0.2-1.2,0.6-1.2,1.4c0,0.7,0.2,1.2,0.8,1.2
		s1.4-0.4,1.4-1.3V259.1z"/>
	<path d="M184.4,268l2.8,7.8h0V268h2.1v11.4h-2.6l-2.8-8h0v8h-2.1V268H184.4z"/>
	<path d="M191.5,273.4v-0.2c0-2,1.4-2.7,3-2.7c2.6,0,3.1,1.1,3.1,2.6v4.5c0,0.8,0,1.2,0.3,1.7h-2.1c-0.1-0.3-0.2-0.6-0.3-0.9h0
		c-0.5,0.9-1.1,1.1-2.2,1.1c-1.5,0-2.1-1.3-2.1-2.5c0-1.6,0.7-2.3,2.2-2.7l1.2-0.3c0.7-0.2,0.9-0.4,0.9-1c0-0.7-0.3-1.1-1-1.1
		c-0.7,0-1,0.4-1,1.1v0.2H191.5z M195.5,275.1c-0.3,0.2-0.7,0.4-0.9,0.4c-0.9,0.2-1.2,0.6-1.2,1.4c0,0.7,0.2,1.2,0.8,1.2
		s1.4-0.4,1.4-1.3V275.1z"/>
	<path d="M200.3,268.3h2.2v2.5h1.3v1.5h-1.3v4.7c0,0.7,0.1,0.9,0.8,0.9c0.2,0,0.4,0,0.5,0v1.5c-0.5,0-0.9,0.1-1.4,0.1
		c-1.7,0-2-0.5-2-2.3v-4.9h-1.1v-1.5h1.1V268.3z"/>
	<path d="M205.3,267.9h2.2v1.9h-2.2V267.9z M205.3,270.8h2.2v8.6h-2.2V270.8z"/>
	<path d="M212.8,270.6c2.7,0,3.4,1.5,3.4,4.5c0,2.9-0.9,4.5-3.4,4.5c-2.7,0-3.4-1.5-3.4-4.5C209.4,272.2,210.2,270.6,212.8,270.6z
		 M212.8,278.1c0.9,0,1.2-0.9,1.2-3s-0.3-3-1.2-3c-1.1,0-1.2,1.3-1.2,3S211.7,278.1,212.8,278.1z"/>
	<path d="M218,270.8h2.1v1h0c0.5-0.8,1.3-1.2,2.2-1.2c1.4,0,2.2,0.8,2.2,2.4v6.4h-2.2v-5.9c0-0.9-0.3-1.2-0.9-1.2
		c-0.8,0-1.2,0.5-1.2,1.4v5.7H218V270.8z"/>
	<path d="M226.6,273.4v-0.2c0-2,1.4-2.7,3-2.7c2.6,0,3.1,1.1,3.1,2.6v4.5c0,0.8,0,1.2,0.3,1.7h-2.1c-0.1-0.3-0.2-0.6-0.3-0.9h0
		c-0.5,0.9-1.1,1.1-2.2,1.1c-1.5,0-2.1-1.3-2.1-2.5c0-1.6,0.7-2.3,2.2-2.7l1.2-0.3c0.7-0.2,0.9-0.4,0.9-1c0-0.7-0.3-1.1-1-1.1
		c-0.7,0-1,0.4-1,1.1v0.2H226.6z M230.7,275.1c-0.3,0.2-0.7,0.4-0.9,0.4c-0.9,0.2-1.2,0.6-1.2,1.4c0,0.7,0.2,1.2,0.8,1.2
		s1.4-0.4,1.4-1.3V275.1z"/>
	<path d="M235,268h2.2v11.4H235V268z"/>
	<path d="M239.4,270.8h2.1v0.9h0c0.5-0.8,1.1-1.1,2-1.1c1.8,0,2.6,1.3,2.6,4.5s-0.8,4.5-2.6,4.5c-0.8,0-1.4-0.3-1.9-1h0v3.6h-2.2
		V270.8z M242.8,277.9c1,0,1.2-1,1.2-2.8c0-1.9-0.2-2.8-1.2-2.8c-1,0-1.2,1-1.2,2.8C241.7,277,241.9,277.9,242.8,277.9z"/>
	<path d="M248.1,273.4v-0.2c0-2,1.4-2.7,3-2.7c2.6,0,3.1,1.1,3.1,2.6v4.5c0,0.8,0,1.2,0.3,1.7h-2.1c-0.1-0.3-0.2-0.6-0.3-0.9h0
		c-0.5,0.9-1.1,1.1-2.2,1.1c-1.5,0-2.1-1.3-2.1-2.5c0-1.6,0.7-2.3,2.2-2.7l1.2-0.3c0.7-0.2,0.9-0.4,0.9-1c0-0.7-0.3-1.1-1-1.1
		c-0.7,0-1,0.4-1,1.1v0.2H248.1z M252.1,275.1c-0.3,0.2-0.7,0.4-0.9,0.4c-0.9,0.2-1.2,0.6-1.2,1.4c0,0.7,0.2,1.2,0.8,1.2
		s1.4-0.4,1.4-1.3V275.1z"/>
	<path d="M256.4,270.8h2.1v1.2h0c0.4-0.8,1.1-1.4,2-1.4c0.1,0,0.3,0,0.4,0v2.1c-0.2,0-0.5,0-0.7,0c-0.8,0-1.6,0.4-1.6,1.6v5.2h-2.2
		V270.8z"/>
	<path d="M264.7,268v6h0l2.2-3.2h2.4l-2.5,3.4l2.8,5.2h-2.4l-1.8-3.5l-0.8,1v2.5h-2.2V268H264.7z"/>
</g>
<g>
	<path d="M179,223.7l2.8,7.8h0v-7.8h2.1v11.4h-2.6l-2.8-8h0v8h-2.1v-11.4H179z"/>
	<path d="M192.6,226.5v8.2c0,2.3-1,3.4-3.6,3.4c-1.9,0-2.9-0.8-2.9-2.3h2.1c0,0.3,0.1,0.5,0.3,0.7c0.2,0.1,0.5,0.2,0.7,0.2
		c0.9,0,1.2-0.7,1.2-1.6V234h0c-0.4,0.6-1.1,1.1-1.8,1.1c-1.8,0-2.6-1.2-2.6-4.4c0-2,0.3-4.4,2.7-4.4c0.6,0,1.4,0.3,1.8,1.2h0v-1
		H192.6z M189.3,233.3c0.9,0,1.2-1,1.2-2.5c0-2.1-0.3-2.9-1.2-2.9c-1,0-1.2,0.8-1.2,3.1C188.2,232.3,188.3,233.3,189.3,233.3z"/>
	<path d="M197.9,226.3c2.7,0,3.4,1.5,3.4,4.5c0,2.9-0.9,4.5-3.4,4.5c-2.7,0-3.4-1.5-3.4-4.5C194.5,227.9,195.3,226.3,197.9,226.3z
		 M197.9,233.8c0.9,0,1.2-0.9,1.2-3s-0.3-3-1.2-3c-1.1,0-1.2,1.3-1.2,3S196.8,233.8,197.9,233.8z"/>
	<path d="M203.1,226.5h2.1v1.2h0c0.4-0.8,1.1-1.4,2-1.4c0.1,0,0.3,0,0.4,0v2.1c-0.2,0-0.5,0-0.7,0c-0.8,0-1.6,0.4-1.6,1.6v5.2h-2.2
		V226.5z"/>
	<path d="M212.2,226.3c2.7,0,3.4,1.5,3.4,4.5c0,2.9-0.9,4.5-3.4,4.5c-2.7,0-3.4-1.5-3.4-4.5C208.8,227.9,209.6,226.3,212.2,226.3z
		 M212.2,233.8c0.9,0,1.2-0.9,1.2-3s-0.3-3-1.2-3c-1.1,0-1.2,1.3-1.2,3S211.1,233.8,212.2,233.8z"/>
	<path d="M217.4,226.5h2.1v1h0c0.5-0.8,1.3-1.2,2.2-1.2c1.4,0,2.2,0.8,2.2,2.4v6.4h-2.2v-5.9c0-0.9-0.3-1.2-0.9-1.2
		c-0.8,0-1.2,0.5-1.2,1.4v5.7h-2.2V226.5z"/>
	<path d="M232.5,226.5v8.2c0,2.3-1,3.4-3.6,3.4c-1.9,0-2.9-0.8-2.9-2.3h2.1c0,0.3,0.1,0.5,0.3,0.7s0.5,0.2,0.7,0.2
		c0.9,0,1.2-0.7,1.2-1.6V234h0c-0.4,0.6-1.1,1.1-1.8,1.1c-1.8,0-2.6-1.2-2.6-4.4c0-2,0.3-4.4,2.7-4.4c0.6,0,1.4,0.3,1.8,1.2h0v-1
		H232.5z M229.2,233.3c0.9,0,1.2-1,1.2-2.5c0-2.1-0.3-2.9-1.2-2.9c-1,0-1.2,0.8-1.2,3.1C228.1,232.3,228.2,233.3,229.2,233.3z"/>
	<path d="M237.8,226.3c2.7,0,3.4,1.5,3.4,4.5c0,2.9-0.9,4.5-3.4,4.5c-2.7,0-3.4-1.5-3.4-4.5C234.4,227.9,235.2,226.3,237.8,226.3z
		 M237.8,233.8c0.9,0,1.2-0.9,1.2-3s-0.3-3-1.2-3c-1.1,0-1.2,1.3-1.2,3S236.7,233.8,237.8,233.8z"/>
	<path d="M243,226.5h2.1v1.2h0c0.4-0.8,1.1-1.4,2-1.4c0.1,0,0.3,0,0.4,0v2.1c-0.2,0-0.5,0-0.7,0c-0.8,0-1.6,0.4-1.6,1.6v5.2H243
		V226.5z"/>
	<path d="M252.1,226.3c2.7,0,3.4,1.5,3.4,4.5c0,2.9-0.9,4.5-3.4,4.5c-2.7,0-3.4-1.5-3.4-4.5C248.7,227.9,249.5,226.3,252.1,226.3z
		 M252.1,233.8c0.9,0,1.2-0.9,1.2-3s-0.3-3-1.2-3c-1.1,0-1.2,1.3-1.2,3S251,233.8,252.1,233.8z"/>
</g>
<g>
	<path d="M175.9,181.9v0.3c0,1.1,0.3,1.8,1.5,1.8c0.7,0,1.4-0.4,1.4-1.4c0-1-0.5-1.4-2-2c-2-0.7-3-1.6-3-3.5c0-2.2,1.4-3.4,3.5-3.4
		c2,0,3.5,0.9,3.5,3.1v0.3h-2.2c0-1.1-0.4-1.7-1.2-1.7c-1,0-1.3,0.7-1.3,1.3c0,0.7,0.2,1.1,1.2,1.6l1.8,0.8c1.7,0.8,2.2,1.6,2.2,3
		c0,2.4-1.5,3.5-4,3.5c-2.6,0-3.6-1.2-3.6-3.3v-0.5H175.9z"/>
	<path d="M184.8,181.5v0.7c0,1,0.3,2,1.1,2c0.7,0,1-0.6,1.2-1.6h2c-0.1,2-1,3.1-3.1,3.1c-3.2,0-3.3-2.5-3.3-4.6
		c0-2.3,0.4-4.4,3.4-4.4c2.6,0,3.2,1.7,3.2,4.4v0.5H184.8z M187.1,180.2c0-1.3-0.2-2-1.1-2c-0.9,0-1.1,0.9-1.1,1.7v0.3H187.1z"/>
	<path d="M191,176.9h2.1v1.2h0c0.4-0.8,1.1-1.4,2-1.4c0.1,0,0.3,0,0.4,0v2.1c-0.2,0-0.5,0-0.7,0c-0.8,0-1.6,0.4-1.6,1.6v5.2H191
		V176.9z"/>
	<path d="M198.9,181.5v0.7c0,1,0.3,2,1.1,2c0.7,0,1-0.6,1.2-1.6h2c-0.1,2-1,3.1-3.1,3.1c-3.2,0-3.3-2.5-3.3-4.6
		c0-2.3,0.4-4.4,3.4-4.4c2.6,0,3.2,1.7,3.2,4.4v0.5H198.9z M201.1,180.2c0-1.3-0.2-2-1.1-2c-0.9,0-1.1,0.9-1.1,1.7v0.3H201.1z"/>
	<path d="M205,176.9h2.1v1h0c0.5-0.8,1.3-1.2,2.2-1.2c1.4,0,2.2,0.8,2.2,2.4v6.4h-2.2v-5.9c0-0.9-0.3-1.2-0.9-1.2
		c-0.8,0-1.2,0.5-1.2,1.4v5.7H205V176.9z"/>
	<path d="M220.1,176.9v8.2c0,2.3-1,3.4-3.6,3.4c-1.9,0-2.9-0.8-2.9-2.3h2.1c0,0.3,0.1,0.5,0.3,0.7s0.5,0.2,0.7,0.2
		c0.9,0,1.2-0.7,1.2-1.6v-1.1h0c-0.4,0.6-1.1,1.1-1.8,1.1c-1.8,0-2.6-1.2-2.6-4.4c0-2,0.3-4.4,2.7-4.4c0.6,0,1.4,0.3,1.8,1.2h0v-1
		H220.1z M216.8,183.7c0.9,0,1.2-1,1.2-2.5c0-2.1-0.3-2.9-1.2-2.9c-1,0-1.2,0.8-1.2,3.1C215.7,182.6,215.9,183.7,216.8,183.7z"/>
	<path d="M224.2,181.5v0.7c0,1,0.3,2,1.1,2c0.7,0,1-0.6,1.2-1.6h2c-0.1,2-1,3.1-3.1,3.1c-3.2,0-3.3-2.5-3.3-4.6
		c0-2.3,0.4-4.4,3.4-4.4c2.6,0,3.2,1.7,3.2,4.4v0.5H224.2z M226.4,180.2c0-1.3-0.2-2-1.1-2c-0.9,0-1.1,0.9-1.1,1.7v0.3H226.4z"/>
	<path d="M230.8,174.4h2.2v2.5h1.3v1.5H233v4.7c0,0.7,0.1,0.9,0.8,0.9c0.2,0,0.4,0,0.5,0v1.5c-0.5,0-0.9,0.1-1.4,0.1
		c-1.7,0-2-0.5-2-2.3v-4.9h-1.1v-1.5h1.1V174.4z"/>
	<path d="M235.8,173.9h2.2v1.9h-2.2V173.9z M235.8,176.9h2.2v8.6h-2.2V176.9z"/>
</g>
<g>
	<path d="M103.1,344.2h-3.4v-2.1h9.4v2.1h-3.4v9.3h-2.5V344.2z"/>
	<path d="M116.7,342.1h2.6l4.3,11.4h-2.6L120,351h-4.3l-0.9,2.5h-2.5L116.7,342.1z M116.4,349.1h3l-1.4-4.2h0L116.4,349.1z"/>
	<path d="M127.7,342.1h2.5l4.8,7.7h0v-7.7h2.4v11.4h-2.5l-4.8-7.7h0v7.7h-2.4V342.1z"/>
	<path d="M144.5,349.7c0,1.5,1.2,2.1,2.5,2.1c0.9,0,2.2-0.3,2.2-1.4c0-1.2-1.7-1.4-3.4-1.9c-1.7-0.4-3.4-1.1-3.4-3.2
		c0-2.3,2.2-3.5,4.3-3.5c2.4,0,4.6,1,4.6,3.7h-2.4c-0.1-1.4-1.1-1.7-2.3-1.7c-0.8,0-1.7,0.3-1.7,1.3c0,0.9,0.5,1,3.4,1.7
		c0.8,0.2,3.4,0.7,3.4,3.3c0,2.1-1.6,3.7-4.8,3.7c-2.5,0-4.9-1.2-4.9-4.1H144.5z"/>
	<path d="M159.5,342.1h2.6l4.3,11.4h-2.6l-0.9-2.5h-4.3l-0.9,2.5h-2.5L159.5,342.1z M159.2,349.1h3l-1.4-4.2h0L159.2,349.1z"/>
	<path d="M170.5,342.1h2.5l4.8,7.7h0v-7.7h2.4v11.4h-2.5l-4.8-7.7h0v7.7h-2.4V342.1z"/>
	<path d="M185.5,342.1h2.5v11.4h-2.5V342.1z"/>
	<path d="M196.6,342.1h2.6l4.3,11.4h-2.6L200,351h-4.3l-0.9,2.5h-2.5L196.6,342.1z M196.3,349.1h3l-1.4-4.2h0L196.3,349.1z"/>
</g>
<g>
	<path d="M631.8,139.8c0,1.5,1.2,2.1,2.5,2.1c0.9,0,2.2-0.3,2.2-1.4c0-1.2-1.7-1.4-3.4-1.9c-1.7-0.4-3.4-1.1-3.4-3.2
		c0-2.3,2.2-3.5,4.3-3.5c2.4,0,4.6,1,4.6,3.7h-2.4c-0.1-1.4-1.1-1.7-2.3-1.7c-0.8,0-1.7,0.3-1.7,1.3c0,0.9,0.5,1,3.4,1.7
		c0.8,0.2,3.4,0.7,3.4,3.3c0,2.1-1.6,3.7-4.8,3.7c-2.5,0-4.9-1.2-4.9-4.1H631.8z"/>
	<path d="M646.8,132.1h2.6l4.3,11.4h-2.6l-0.9-2.5h-4.3l-0.9,2.5h-2.5L646.8,132.1z M646.6,139.1h3l-1.4-4.2h0L646.6,139.1z"/>
	<path d="M657.8,132.1h2.5l4.8,7.7h0v-7.7h2.4v11.4H665l-4.8-7.7h0v7.7h-2.4V132.1z"/>
	<path d="M674.6,139.8c0,1.5,1.2,2.1,2.5,2.1c0.9,0,2.2-0.3,2.2-1.4c0-1.2-1.7-1.4-3.4-1.9c-1.7-0.4-3.4-1.1-3.4-3.2
		c0-2.3,2.2-3.5,4.3-3.5c2.4,0,4.6,1,4.6,3.7H679c-0.1-1.4-1.1-1.7-2.3-1.7c-0.8,0-1.7,0.3-1.7,1.3c0,0.9,0.5,1,3.4,1.7
		c0.8,0.2,3.4,0.7,3.4,3.3c0,2.1-1.6,3.7-4.8,3.7c-2.5,0-4.9-1.2-4.9-4.1H674.6z"/>
	<path d="M686.5,132.1h2.5v11.4h-2.5V132.1z"/>
	<path d="M694.4,132.1h5.4c2.2,0,3.6,0.7,3.6,2.8c0,1.1-0.6,1.9-1.6,2.4c1.4,0.4,2.1,1.5,2.1,2.9c0,2.3-2,3.3-4,3.3h-5.5V132.1z
		 M696.9,136.8h2.5c0.9,0,1.5-0.4,1.5-1.4c0-1.1-0.8-1.3-1.7-1.3h-2.4V136.8z M696.9,141.6h2.7c1,0,1.9-0.3,1.9-1.5
		c0-1.2-0.7-1.6-1.8-1.6h-2.7V141.6z"/>
	<path d="M712,132.1h2.6l4.3,11.4h-2.6l-0.9-2.5h-4.3l-0.9,2.5h-2.5L712,132.1z M711.8,139.1h3l-1.4-4.2h0L711.8,139.1z"/>
	<path d="M723,132.1h6.2c2,0,3.3,1.4,3.3,3.2c0,1.3-0.5,2.4-1.8,2.9v0c1.2,0.3,1.6,1.5,1.7,2.7c0,0.7,0,2.1,0.5,2.7h-2.5
		c-0.3-0.7-0.3-1.8-0.4-2.7c-0.2-1.2-0.6-1.7-1.9-1.7h-2.5v4.5H723V132.1z M725.5,137.3h2.8c1.1,0,1.7-0.5,1.7-1.6
		c0-1.1-0.6-1.6-1.7-1.6h-2.8V137.3z"/>
</g>
<line class="st5" x1="331.7" y1="206.6" x2="351.8" y2="236.3"/>
<g>
	<path class="st9" d="M267.4,120.4h2.5v4.7l4.5-4.7h3.1l-4.5,4.5l4.9,6.9h-3.2l-3.4-5.1l-1.4,1.5v3.7h-2.5V120.4z"/>
	<path class="st9" d="M282.2,120.4h8.5v2.1h-6v2.4h5.5v2h-5.5v2.8h6.2v2.1h-8.7V120.4z"/>
	<path class="st9" d="M295.7,120.4h2.5l4.8,7.7h0v-7.7h2.4v11.4h-2.5l-4.8-7.7h0v7.7h-2.4V120.4z"/>
	<path class="st9" d="M310.8,120.4h2.5v11.4h-2.5V120.4z"/>
	<path class="st9" d="M321.8,120.4h2.6l4.3,11.4h-2.6l-0.9-2.5h-4.3l-0.9,2.5h-2.5L321.8,120.4z M321.6,127.4h3l-1.4-4.2h0
		L321.6,127.4z"/>
</g>
<path d="M347.6,236.5c0-2.3,1.9-4.3,4.3-4.3c2.3,0,4.3,1.9,4.3,4.3c0,2.3-1.9,4.3-4.3,4.3C349.5,240.7,347.6,238.8,347.6,236.5
	L347.6,236.5z"/>
<path d="M327.5,206.6c0-2.3,1.9-4.3,4.3-4.3c2.3,0,4.3,1.9,4.3,4.3c0,2.3-1.9,4.3-4.3,4.3C329.4,210.9,327.5,209,327.5,206.6
	L327.5,206.6z"/>
<g>
	<circle class="st10" cx="351.8" cy="219.3" r="5.7"/>
	<path class="st11" d="M351.8,210c-5,0-9,4-9,9c0,2,1.3,5.3,3.9,10c1.9,3.3,3.7,6.1,3.8,6.2l1.3,2l1.3-2c0.1-0.1,1.9-2.9,3.8-6.2
		c2.6-4.7,3.9-8,3.9-10C360.8,214,356.7,210,351.8,210z M351.8,223.6c-2.6,0-4.7-2.1-4.7-4.7s2.1-4.7,4.7-4.7s4.7,2.1,4.7,4.7
		C356.4,221.5,354.4,223.6,351.8,223.6z"/>
</g>
</svg>
