<?xml version="1.0" encoding="utf-8"?>
<!-- Generator: Adobe Illustrator 25.2.0, SVG Export Plug-In . SVG Version: 6.00 Build 0)  -->
<svg version="1.1" id="Ebene_1" xmlns="http://www.w3.org/2000/svg" xmlns:xlink="http://www.w3.org/1999/xlink" x="0px" y="0px"
	 viewBox="0 0 75 75" style="enable-background:new 0 0 75 75;" xml:space="preserve">
<style type="text/css">
	.st0{fill:#FFFFFF;}
</style>
<g>
	<path class="st0" d="M63.3,20c2.4-0.9,4.4-2.3,6-4c-1.1-2.1-2.6-4-4.7-5.5c-2.2-1.6-4.7-2.5-7.2-2.8l0,0c0.9,1.5,1.3,3.2,1.3,5.1
		c0,3.1-1.4,5.9-3.7,7.8l0,0c0,0,0,0,0.1,0l-1.6,1.1c1.9,2.9,2.9,6.2,2.9,9.5c0,11.3-11.3,20.4-25.3,20.4c-0.7,0-1.4,0-2.2-0.1
		c8.6-3.7,14.7-11.9,15.1-23.9c0-0.8,0.4-1.6,1.1-2l5.6-4.1c0.9-0.7,1.1-2.1,0.3-2.9l-5.5-6C44,11.4,44.2,9,45.9,8.1l5.9-3.2
		c0,0,0-0.1,0-0.1c-1.5-1-3.4-1.5-5.4-1.4c-4.4,0.4-7.7,4.3-7.7,8.7V21c0,0,0,0,0,0.1c-10.3,2-18.3,9-20.5,18c0,0,0,0,0,0L8,48
		c-2.2,2-0.8,5.7,2.1,5.7l7.6,0c2.1,0,4.2-0.2,6.2-0.6c2.4,0.4,5.1,0.5,7.1,0.5c0.1,0,0.2,0,0.4,0v8.7c-1.1,1.2-3.9,4.3-5.8,7.8
		c-0.1,0.2,0.1,0.4,0.3,0.4c1.2-0.3,4-0.7,5.5,2.7c0.1,0.2,0.3,0.2,0.4,0.1c0.6-0.9,2.2-2.8,4.8-2.1c0.2,0.1,0.4-0.1,0.3-0.3
		c-0.8-4.9-2.2-7.4-2.9-8.5v-9c1.7-0.2,3.4-0.4,5-0.8v10h0c-0.4,1.7,3.5,6.5,4.4,7.6c0.1,0.1,0.3,0.1,0.4,0c0.6-0.6,2.8-2.5,6.6-0.4
		c0.2,0.1,0.4,0,0.4-0.3c-0.5-3.2,0.6-4.3,1.4-4.6c0.2-0.1,0.2-0.4,0-0.5c-4.2-1.9-8.6-2.4-10.5-2.6v-10
		c9.9-3.4,16.8-11.4,16.8-20.7c0-3.7-1.1-7.3-3.2-10.5C57.8,21.2,60.6,21,63.3,20z"/>
	<path class="st0" d="M49.8,10.4c0,1,0.8,1.8,1.8,1.8s1.8-0.8,1.8-1.8s-0.8-1.8-1.8-1.8S49.8,9.4,49.8,10.4z"/>
</g>
</svg>
