<svg version="1.1" xmlns="http://www.w3.org/2000/svg" viewBox="0 0 76.4 70.4">
<style>
 path { fill: white }
</style>
<g>
	<path d="M49.4,7.8l1.9-4.3c0.3-0.7,0.3-1.4,0-2.1c-0.3-0.7-0.9-1.2-1.7-1.4c-1.2-0.3-2.2,0.3-2.8,1.4l-2,4.2
		C38.2,2.8,28.8,1,20.5,0.9l0.7,0c-0.3,0-0.5,0-0.8,0C13.7,0.9,6.9,2,2.9,3.8C2.8,3.8,2.7,4,2.8,4.1c1.1,2.6,0.5,5.3-1.2,7.4
		c-0.2,0.2,0.1,0.6,0.3,0.4c8.8-4.3,19-7.1,28.8-7.1c0,0,0,0,0,0c4.8,0,9.7,0.4,14.9,1.2l1.1,0.5c0.4,0.2,0.8,0.4,1.2,0.6l0.7,0.4
		c11.8,10.6,18.9,24.9,24,36.5c0.1,0.3,0.6,0.2,0.5-0.1c-0.2-2.8,0.3-5.7,3-6.8c0.1-0.1,0.2-0.2,0.2-0.4
		C71.5,25.2,60.1,13.7,49.4,7.8z M49.6,2.8L49.6,2.8C49.6,2.8,49.6,2.8,49.6,2.8L49.6,2.8z"/>
	<path d="M48.9,11c3.7,12.3,3.7,24.6,2,37c0,0.2,0.2,0.4,0.3,0.3c3.7-1,8-1.8,12-1.8c3.1,0,6,0.5,8.4,1.8c0.2,0.1,0.5-0.1,0.4-0.4
		C66.7,36.5,60,21.2,48.9,11z"/>
	<path d="M14.3,32.2c-0.1,0.2-0.1,0.4,0.2,0.5c5.9,1.2,11,2.8,15.7,4.7L16.7,66.7c-0.3,0.6-0.4,1.3-0.2,2c0.2,0.7,0.7,1.2,1.3,1.5
		c0.3,0.1,0.6,0.2,1,0.2c1.1,0,2-0.7,2.4-1.6l13.5-29.4c5.2,2.5,9.7,5.5,13.8,8.7c0.2,0.1,0.4,0,0.5-0.2C50.7,34.8,50.6,22,46.1,9
		C32.7,12.8,23.6,21.9,14.3,32.2z"/>
	<path d="M42.6,8C39.1,7.4,34.8,7,30.8,7C19.4,7.1,9.3,10.2,0.1,15.1c-0.2,0.1-0.2,0.4,0,0.5C4.2,18,10.5,25.7,12.6,30.5
		c0.1,0.2,0.3,0.2,0.5,0.1C21.6,21.2,30.6,12.2,42.6,8z"/>
</g>
</svg>
