<svg version="1.1" xmlns="http://www.w3.org/2000/svg" viewBox="0 0 1046 299">
<style type="text/css">
	.st0{opacity:0.2;fill:#CBBBA0;}
	.st1{fill:none;stroke:#468EB8;stroke-width:2;stroke-miterlimit:10;}
	.st2{fill:none;stroke:#468EB8;stroke-width:2;stroke-miterlimit:10;stroke-dasharray:3,3;}
	.st3{fill:#1D1D1B;}
</style>
<g>
	<g>
		<path class="st0" d="M2,116c3-0.7,6.7-0.7,8-4c1.3-3.3,3.7-10.3,6.3-9.7c2.7,0.7,5.7,16.3,8,17.7c2.3,1.3,5,3.3,6.3,2
			c1.3-1.3,3-11,5.3-12.3s4.7-3.7,4.3-6.3C40,100.6,41,91.6,43.6,92c2.7,0.3,8.3,8.7,12,7c3.7-1.7,2.7-16.7,2.3-21.3
			S57.3,56,61.3,53.3c4-2.7,6.7-2.7,7-6C68.6,44,71,37,75,37.3c4,0.3,6.7,14.7,10.3,15C89,52.6,96,55,96.6,52c0.7-3,0.3-7.7,3.3-6.3
			s11.7,5.3,12,7c0.3,1.7,5.3,4.7,8.3,5s26.3-1,28.7,0.7c2.3,1.7,7.3,11,10,12c2.7,1,5.7-2.7,8.7-3c3-0.3,11-0.3,12-1.3
			s-2.7-9.3,2-9.7c4.7-0.3,10.3-0.7,12.3,1c2,1.7,6.7,4.3,10,3.3c3.3-1,10.3-3,13.3-1S232,73.3,234,75c2,1.7,11.7,4,14.3,7
			c2.7,3,4.7,7,12,6.7c7.3-0.3,18.3-2.7,24,0.3c5.7,3,24.3,12.7,27.3,12c3-0.7,1.3-3.7,3-5.3c1.7-1.7,10.7-4.3,13.3-3
			s3.7,8.7,8.7,11.3c5,2.7,18.3,11.3,20.7,14.7c2.3,3.3,6.7,14.3,8.3,17.7c1.7,3.3,2,6.3,4,7c2,0.7,4.3-1,6,0.7
			c1.7,1.7,8.3,6,11.7,6c3.3,0,8-2.3,11-2c3,0.3,1,5.3,4,6.3s8.7,1.3,9.3,0c0.7-1.3,2-5.3,4.3-4.7s5.7,3.2,8.4,4.5s19,3.2,22.5,3.2
			s11.8,0.2,12.2-1.2s1-5.5,4.5-4.8s10.8,4.5,12.2,4.8s11.2,0.5,13,1.5s6.8,4.5,10.2,4.2s8.8-3,12-2.5c3.3,0.5,7.8,1.2,9.3,0.5
			s3.5-6,7-5.5s8,4.2,10.8,4.8s13.5,4.5,16,3s11.8-6.2,11-8.8s0.5-8.2,2.8-9.2s5.2-4.5,4.8-7s-4.2-16.2,1-18.2s14.8-6,19-6
			s15.5,0,17.5,1.5s6.2,12.5,8.2,15s17.5,12,25.8,11s13.2-7.8,17-7.8s6,0.2,11,3.5s15,9.8,18.5,9.2s7.5,0,10.2,0s7.8-2.5,10.2-1.2
			s10.8,11.2,14,10.8s26.2-5.8,31-4.8s6,4,9.5,4.2s5.8-3.8,7.5-3s0.5,6,3.5,8.5s6.8,6.2,7.2,7.2s1.2,3.8-2,4.8s-6.2,0.8-6.5,3
			s1,7.5,5,8.8s7-2,9.8-2.5s6.5-1.2,8.5,1.2s5.8,9.5,6.8,11.8s0.8,13.8,2.5,14.8s25,11.5,34.2,11.2s36.2-3.5,44.5-3.2s19.5,1,24.8-1
			s12.8-3.8,14.5-6s2.8-4.5,4.8-4.2s6.8,8.5,9.8,8.5s5-2.2,9-1s8.2,4.2,11.5,3.2s5.5-0.8,7.8,1s4.2,30,4.2,36.5s-0.2,19.2-0.2,20.2
			s0.2,5.8,2.2,4.5s2.5-3.2,4-2.5s0.5,8.5,3.2,8.8s7.8,4.2,9.5,4s6.2-1,7.2,1.5s-2.8,8.5-6,8.5s-9.8-1-12.2-0.8s-9-2-5.8-3.8
			s1-4.2-1.8-5s-14-1.8-17.5-1.2s-7.2,4-10.8,2.8s-11.8-2.8-16-4.5s-7-4.8-8.5-4.2s-5.8,1.5-9.8,0.2s-6-4.8-11.2-5.2
			s-8.2-2.2-10.8-2.2s-5.8,1.2-9.2-0.2s-13.2-7.8-23.5-7.2s-13.8,4.5-16.2,6.2s-3.2,6.5-5.8,6.5s-7-3.2-11.8-2s-12.2,5.2-16.8,4.8
			s-10.5,0.5-14,0.5s-9.5-6-11.8-6.8s-7.5,1-11,1.2s-8-2-11.2-1.2s-10.5,2.8-16.5,2.5s-9.8-5.2-12.2-5s-10.8,4-11.8,6s1.2,5.5,0,6.2
			s-10.5-0.8-12.5-2.5s-4.8-4-5.8-3s-1.2,3.8-3.5,3s-11.2-6-18.2-6.2s-12.8,1.8-16,1.8s-5.5-3-8.2-2.8s-6,2.8-10.5,2.2
			s-9.2-4-15.8-4s-5.5,1.5-9.8-0.2s-14.5-6.8-24.8-8.2s-16-2.2-21.8-3.8s-9.8-7.2-14.8-8.2s-10-1.2-16.2-3.5s-17.5-7.5-30-9
			c-12.5-1.5-20.8-4-23-3.8s-5.2,3.2-8.2,2.8s-3-4.2-6-5.2s-15.8-3.8-20.8-4.2s-12.2-0.2-12,2s6.5,6.2,5.2,7.2s-7.2,0.8-10.8-0.2
			s-9.5-2.2-12.2-2s-12.2-7.2-17.5-7.2s-20.8,4.8-28.2,4.8s-14.8,4.2-19,3.5s-13-6.2-20-6.2s-19.2,2-23.5,0.5s-8.5-7.2-13.2-8.2
			s-9-1.5-12-3.8s-9.5-4.8-14.5-6.2s-9.8-10.2-14.2-10.8c-4.5-0.5-29.2-0.5-37.2-1.2s-24.5-3.5-34-3.5s-19.8-1-24.8-4
			s-14-5.5-17-5.2s-5.5-8.8-6.5-12.5s0.8-6.2,2.8-6.2s6,0.5,5.8-1.5s-1-4.2,0.5-6s5.2-6.2,3.5-9s-4.2-6.5-15-6.2s-17.2,1.8-19.5-1.2
			s-6.2-4.5-10.2-5.8s-10-9.5-14.8-10.8s-14.8-1.2-23.5-0.2s-10-2.2-15-2s-9.8,3-14,2.5s-14.5-4-17.3-5.5s-1.8-6.5-6-6.8
			s-7.7-0.2-8.5,1s-1.8,3-3.5,3s-0.2-3.2-1.2-3.8s-2.8-0.5-3.5-1.8S2,116,2,116z"/>
		<path class="st0" d="M791.6,162.6c-2,3.2-1.5,8-0.5,10s5,3,7.2,2.2s17.5,3,22.8,5.2s16.5,2,23.2,0.8s13.8-3.2,17.8-2.8
			s12.8,2.8,13.8,1s1.8-10.2,4.8-11s24.5,1.8,26.2-0.2s0.5-7,2.5-8.5s17.8-6.5,19.5-8.8s4.2-8-0.2-9.2s-30.2,2.8-36.2,2.5
			s-16.8,4.5-23.5,4.8s-26.8,0.2-39.2,0s-24-0.8-27.5,2S791.6,162.6,791.6,162.6z"/>
		<path class="st0" d="M867.5,282.6c-0.2,1.8,5.2,1.5,7.8,1.5c2.7,0,10.2-1.2,10-2.3c-0.2-1.2-2.5-1.7-6.3-1.8
			c-3.8-0.2-8.2,0-10.2,0.3C866.8,280.6,867.5,282.6,867.5,282.6z"/>
		<path class="st0" d="M769,49.1c3.8-0.2,4.5,1.5,5.2,3.2s0.8,5.2,2,6s2.2,2.5,1,3.2s-4.8,2.8-8,2.8s-6-4.5-5.5-8.2s0.8-4.2,2-5.5
			S769,49.1,769,49.1z"/>
		<path class="st0" d="M537.6,49.5c-1.7,0.8-0.2,3.9-0.7,5.2s-2.5,2.5-2.3,2.8s3.2,0.2,3.5,1.3c0.3,1.2-1.2,5.2,0.7,4.9
			c1.8-0.3,1.5-3.9,3.2-3.9c1.7,0,3.5-1.3,3.4-2.7c-0.2-1.3-1.2-1.5-3-1.7c-1.8-0.2-2.3-2.7-2.7-3.9
			C539.3,50.5,537.6,49.5,537.6,49.5z"/>
		<path class="st0" d="M530.1,59.9c-1.7,0.3-3.2,1-2,2.2c1.2,1.2,2.3,0,3.4,0.5c1,0.5,1.7,2.2,2.5,1.7c0.8-0.5,1-2.7,0.5-3.9
			c-0.5-1.2-0.8-1.7-1.8-1.5C531.6,59.1,530.1,59.9,530.1,59.9z"/>
		<path class="st0" d="M548.5,59.2c-1.3,1.2-1.7,2.5-0.7,2.3s3.4,0.7,3.4-0.3s0.3-2.5-0.8-2.5C549.2,58.7,548.5,59.2,548.5,59.2z"/>
		<path class="st0" d="M520,41.2c1.2,0,1.8-0.3,2,0.5c0.2,0.8,0.8,2.2-1.3,2.2c-2.2,0-3.7-0.7-2.7-1.3C519,41.8,520,41.2,520,41.2z"
			/>
		<path class="st0" d="M532.3,44.2c-1.2,0.2-1.7,1-1,1.8c0.7,0.8,1.8,1.7,2.5,1c0.7-0.7,1.5-1.7,0.7-2.3
			C533.6,44,532.3,44.2,532.3,44.2z"/>
		<path class="st0" d="M160.6,47.8c-1.5,1.2-0.5,3.3,0.7,3c1.2-0.3,3.2-0.8,2.2-1.8S160.6,47.8,160.6,47.8z"/>
		<path class="st0" d="M164.3,41c-1,0.5-1.5,1.8-0.8,2.5c0.7,0.7,2,0.7,2.2-0.5c0.2-1.2,0.8-1.7,0-2C164.8,40.6,164.3,41,164.3,41z"
			/>
		<path class="st0" d="M152.5,33.6c-1,0.2-2,2-0.5,2.2c1.5,0.2,2.2,0,2.2-0.8C154.1,34.1,152.5,33.6,152.5,33.6z"/>
		<path class="st0" d="M154.5,24c-1.3,0.3-1.2,2.2-0.5,2.5c0.7,0.3,1.3,0,1.5-1C155.6,24.5,154.5,24,154.5,24z"/>
		<path class="st0" d="M157.3,20c-1,0.8-1.2,2,0,2.7c1.2,0.7,3-0.2,2.5-1.2S157.3,20,157.3,20z"/>
		<path class="st0" d="M160.5,24.8c-1,0.7-1,2.5-0.2,2.7c0.8,0.2,2.2-0.5,2.2-1.3s0-1.8-0.8-1.8S160.5,24.8,160.5,24.8z"/>
		<path class="st0" d="M151.1,15.6c-0.5,0.8-0.3,2.5,0.5,2.8c0.8,0.3,1.5-0.5,1.3-1.5C152.8,16,151.1,15.6,151.1,15.6z"/>
		<path class="st0" d="M156,14.3c-1.2,0.3-1.3,1.2-0.7,2.2c0.7,1,1.8,1,2.2-0.2c0.3-1.2,0.7-1.8-0.2-2C156.5,14.1,156,14.3,156,14.3
			z"/>
		<path class="st0" d="M151.5,8.5c-0.5,1-1,2.7,0.2,2.8c1.2,0.2,1.8-0.5,1.3-1.3C152.5,9.1,151.5,8.5,151.5,8.5z"/>
		<path class="st0" d="M157.3,9.1c-1.5,0-1.5,2.2-0.7,2.2s1.5-0.3,1.5-1C158.1,9.6,157.3,9.1,157.3,9.1z"/>
		<path class="st0" d="M155.8,1.5c-1,1-1.3,2.2-0.2,2.3c1.2,0.2,2.3-0.5,2-1.3S155.8,1.5,155.8,1.5z"/>
		<polyline class="st1" points="537,54.7 576.1,133.1 554.7,166.5 568.1,237.6 		"/>
		<polyline class="st1" points="585.8,218.1 568.4,238.5 588.9,234.2 		"/>
		<polyline class="st1" points="550.4,229.1 568.4,238.5 562.2,258.1 		"/>
		<path class="st2" d="M166,72.7c0,0,333.7-49.2,629.7,113.5"/>
		<line class="st1" x1="157.3" y1="20" x2="166" y2="72.7"/>
		<polyline class="st1" points="795.8,186.2 831.3,222.4 844.9,241.9 		"/>
		<polyline class="st1" points="968.2,254.9 921.6,237.6 831.3,222.4 		"/>
		<path class="st2" d="M568.1,237.6c0,0,165.6,75,400.1,17.3"/>
	</g>
	<circle class="st3" cx="166.9" cy="72.7" r="4.3"/>
	<circle class="st3" cx="554.7" cy="166.5" r="4.3"/>
	<circle class="st3" cx="576.1" cy="133.1" r="4.3"/>
	<circle class="st3" cx="568.1" cy="238.5" r="4.3"/>
	<circle class="st3" cx="795.8" cy="186.2" r="4.3"/>
	<circle class="st3" cx="831.3" cy="222.4" r="4.3"/>
	<circle class="st3" cx="968.2" cy="254.9" r="4.3"/>
	<circle class="st3" cx="921.6" cy="237.6" r="4.3"/>
	<circle class="st3" cx="845.1" cy="241.4" r="4.3"/>
	<g>
		<g>
			<path class="st3" d="M481.5,245.6l-2.9-4.8h1.9l1.8,3.1l1.8-3.1h1.9l-2.9,4.8v3h-1.7V245.6z"/>
			<path class="st3" d="M490.9,240.6c2.4,0,3.9,1.8,3.9,4.1c0,2.3-1.4,4.1-3.9,4.1c-2.4,0-3.9-1.8-3.9-4.1
				C487,242.4,488.4,240.6,490.9,240.6z M490.9,247.4c1.6,0,2.1-1.3,2.1-2.6c0-1.4-0.6-2.7-2.1-2.7c-1.6,0-2.1,1.3-2.1,2.7
				C488.7,246.1,489.3,247.4,490.9,247.4z"/>
			<path class="st3" d="M502.1,247.8c-0.6,0.8-1.4,1.1-2.2,1.1c-2.4,0-3.9-1.8-3.9-4.1c0-2.3,1.4-4.1,3.9-4.1c1.6,0,3.1,1,3.3,2.8
				h-1.7c-0.2-0.9-0.8-1.3-1.7-1.3c-1.6,0-2.1,1.3-2.1,2.7c0,1.3,0.6,2.6,2.1,2.6c1.1,0,1.8-0.6,1.9-1.7h-1.7v-1.3h3.3v4.2h-1.1
				L502.1,247.8z"/>
			<path class="st3" d="M507.4,245.6l-2.9-4.8h1.9l1.8,3.1l1.8-3.1h1.9l-2.9,4.8v3h-1.7V245.6z"/>
			<path class="st3" d="M515.4,240.8h1.8l2.9,7.9h-1.8l-0.6-1.7h-2.9l-0.6,1.7h-1.7L515.4,240.8z M515.2,245.6h2l-1-2.9h0
				L515.2,245.6z"/>
			<path class="st3" d="M521.3,240.8h1.7v3.3l3.1-3.3h2.2l-3.1,3.1l3.4,4.8h-2.2l-2.4-3.5l-1,1v2.5h-1.7V240.8z"/>
			<path class="st3" d="M532,240.8h1.8l2.9,7.9h-1.8l-0.6-1.7h-2.9l-0.6,1.7H529L532,240.8z M531.8,245.6h2l-1-2.9h0L531.8,245.6z"
				/>
			<path class="st3" d="M537.9,240.8h4.2c1.4,0,2.3,1,2.3,2.2c0,0.9-0.4,1.6-1.2,2v0c0.8,0.2,1.1,1,1.1,1.8c0,0.5,0,1.4,0.3,1.9
				h-1.7c-0.2-0.5-0.2-1.3-0.3-1.9c-0.1-0.8-0.4-1.2-1.3-1.2h-1.7v3.1h-1.7V240.8z M539.6,244.4h1.9c0.8,0,1.2-0.3,1.2-1.1
				c0-0.8-0.4-1.1-1.2-1.1h-1.9V244.4z"/>
			<path class="st3" d="M548.1,242.3h-2.4v-1.5h6.4v1.5h-2.4v6.4h-1.7V242.3z"/>
			<path class="st3" d="M555.8,240.8h1.8l2.9,7.9h-1.8l-0.6-1.7h-2.9l-0.6,1.7h-1.7L555.8,240.8z M555.6,245.6h2l-1-2.9h0
				L555.6,245.6z"/>
		</g>
	</g>
	<g>
		<g>
			<path class="st3" d="M492.8,221.2h2.8c0.7,0,1.6,0,2.1,0.3c0.5,0.3,0.9,0.9,0.9,1.6c0,0.8-0.4,1.5-1.2,1.8v0
				c1,0.2,1.5,0.9,1.5,1.9c0,1.2-0.8,2.3-2.4,2.3h-3.8V221.2z M493.9,224.6h2.1c1.2,0,1.7-0.4,1.7-1.3c0-1.1-0.8-1.2-1.7-1.2h-2.1
				V224.6z M493.9,228.2h2.6c0.9,0,1.5-0.6,1.5-1.4c0-1-0.8-1.3-1.7-1.3h-2.4V228.2z"/>
			<path class="st3" d="M503,223.3c1.8,0,2.8,1.3,2.8,3c0,1.7-1,3-2.8,3c-1.8,0-2.8-1.3-2.8-3C500.2,224.6,501.2,223.3,503,223.3z
				 M503,228.4c1,0,1.8-0.8,1.8-2.1c0-1.4-0.8-2.2-1.8-2.2c-1,0-1.8,0.8-1.8,2.2C501.2,227.6,502,228.4,503,228.4z"/>
			<path class="st3" d="M507.1,223.4h0.9v1.2h0c0.5-0.9,1.1-1.4,2.1-1.3v1c-1.5,0-2.1,0.9-2.1,2.3v2.5h-0.9V223.4z"/>
			<path class="st3" d="M513.6,223.3c1.8,0,2.8,1.3,2.8,3c0,1.7-1,3-2.8,3c-1.8,0-2.8-1.3-2.8-3
				C510.9,224.6,511.8,223.3,513.6,223.3z M513.6,228.4c1,0,1.8-0.8,1.8-2.1c0-1.4-0.8-2.2-1.8-2.2s-1.8,0.8-1.8,2.2
				C511.8,227.6,512.6,228.4,513.6,228.4z"/>
			<path class="st3" d="M517.8,221.2h0.9v2.9h0c0.3-0.6,1-0.9,1.8-0.9c1.8,0,2.6,1.4,2.6,3s-0.9,3-2.6,3c-0.6,0-1.4-0.2-1.8-0.9h0
				v0.8h-0.9V221.2z M520.5,224.1c-1.3,0-1.7,1.1-1.7,2.1c0,1.1,0.5,2.2,1.8,2.2c1.3,0,1.7-1.1,1.7-2.2
				C522.2,225.1,521.7,224.1,520.5,224.1z"/>
			<path class="st3" d="M529.4,229.1h-0.9v-0.9h0c-0.4,0.7-1,1-1.8,1c-1.5,0-2-0.9-2-2.1v-3.7h0.9v3.9c0,0.7,0.4,1.1,1.2,1.1
				c1.1,0,1.7-0.8,1.7-1.8v-3.2h0.9V229.1z"/>
			<path class="st3" d="M536.2,229.1h-0.9v-0.8h0c-0.3,0.6-1,0.9-1.8,0.9c-1.7,0-2.6-1.4-2.6-3s0.9-3,2.6-3c0.6,0,1.4,0.2,1.8,0.9h0
				v-2.9h0.9V229.1z M533.5,228.4c1.3,0,1.7-1.1,1.7-2.1c0-1.1-0.5-2.2-1.8-2.2c-1.3,0-1.7,1.1-1.7,2.2
				C531.8,227.4,532.3,228.4,533.5,228.4z"/>
			<path class="st3" d="M542.7,229.1h-0.9v-0.9h0c-0.4,0.7-1,1-1.8,1c-1.5,0-2-0.9-2-2.1v-3.7h0.9v3.9c0,0.7,0.4,1.1,1.2,1.1
				c1.1,0,1.7-0.8,1.7-1.8v-3.2h0.9V229.1z"/>
			<path class="st3" d="M544.4,223.4h0.9v1.2h0c0.5-0.9,1.1-1.4,2.1-1.3v1c-1.5,0-2.1,0.9-2.1,2.3v2.5h-0.9V223.4z"/>
		</g>
	</g>
	<g>
		<g>
			<path class="st3" d="M594.9,227.5h3.4c1.6,0,2.4,0.9,2.4,2.3s-0.8,2.3-2.4,2.3h-2.4v3.2h-1V227.5z M595.9,231.3h2
				c1.2,0,1.7-0.5,1.7-1.4c0-0.9-0.5-1.4-1.7-1.4h-2V231.3z"/>
			<path class="st3" d="M602.2,229.7h0.9v1.2h0c0.5-0.9,1.1-1.4,2.1-1.3v1c-1.5,0-2.1,0.9-2.1,2.3v2.5h-0.9V229.7z"/>
			<path class="st3" d="M611.2,235.4c-0.2,0.1-0.4,0.1-0.7,0.1c-0.5,0-0.8-0.3-0.8-0.9c-0.5,0.6-1.2,0.9-2,0.9c-1,0-1.9-0.5-1.9-1.6
				c0-1.3,1-1.6,1.9-1.8c1-0.2,1.9-0.1,1.9-0.8c0-0.8-0.7-0.9-1.3-0.9c-0.8,0-1.4,0.2-1.4,1.1h-0.9c0.1-1.4,1.1-1.9,2.4-1.9
				c1,0,2.1,0.2,2.1,1.6v2.9c0,0.4,0,0.6,0.3,0.6c0.1,0,0.2,0,0.3-0.1V235.4z M609.7,232.5c-0.4,0.2-1.1,0.3-1.7,0.4
				c-0.6,0.1-1.1,0.3-1.1,1c0,0.6,0.5,0.8,1.1,0.8c1.2,0,1.7-0.8,1.7-1.3V232.5z"/>
			<path class="st3" d="M612.4,229.7h0.9v0.8h0c0.4-0.6,1.1-1,1.8-1c0.7,0,1.3,0.3,1.6,1c0.4-0.6,1.1-1,1.8-1c1.1,0,1.9,0.5,1.9,1.7
				v4.2h-0.9v-3.7c0-0.7-0.2-1.3-1.1-1.3c-0.9,0-1.5,0.6-1.5,1.5v3.5h-0.9v-3.7c0-0.7-0.2-1.3-1.1-1.3c-1.1,0-1.5,1-1.5,1.5v3.5
				h-0.9V229.7z"/>
			<path class="st3" d="M622.2,227.5h0.9v2.9h0c0.3-0.6,1-0.9,1.8-0.9c1.8,0,2.6,1.4,2.6,3s-0.9,3-2.6,3c-0.6,0-1.4-0.2-1.8-0.9h0
				v0.8h-0.9V227.5z M624.8,230.4c-1.3,0-1.7,1.1-1.7,2.1c0,1.1,0.5,2.2,1.8,2.2c1.3,0,1.7-1.1,1.7-2.2
				C626.6,231.4,626,230.4,624.8,230.4z"/>
			<path class="st3" d="M634,235.4c-0.2,0.1-0.4,0.1-0.7,0.1c-0.5,0-0.8-0.3-0.8-0.9c-0.5,0.6-1.2,0.9-2,0.9c-1,0-1.9-0.5-1.9-1.6
				c0-1.3,1-1.6,1.9-1.8c1-0.2,1.9-0.1,1.9-0.8c0-0.8-0.7-0.9-1.3-0.9c-0.8,0-1.4,0.2-1.4,1.1h-0.9c0.1-1.4,1.1-1.9,2.4-1.9
				c1,0,2.1,0.2,2.1,1.6v2.9c0,0.4,0,0.6,0.3,0.6c0.1,0,0.2,0,0.3-0.1V235.4z M632.5,232.5c-0.4,0.2-1.1,0.3-1.7,0.4
				c-0.6,0.1-1.1,0.3-1.1,1c0,0.6,0.5,0.8,1.1,0.8c1.2,0,1.7-0.8,1.7-1.3V232.5z"/>
			<path class="st3" d="M635.2,229.7h0.9v0.9h0c0.4-0.7,1-1,1.8-1c1.5,0,2,0.9,2,2.1v3.7H639v-3.9c0-0.7-0.4-1.1-1.2-1.1
				c-1.1,0-1.7,0.8-1.7,1.8v3.2h-0.9V229.7z"/>
			<path class="st3" d="M646.7,235.4c-0.2,0.1-0.4,0.1-0.7,0.1c-0.5,0-0.8-0.3-0.8-0.9c-0.5,0.6-1.2,0.9-2,0.9c-1,0-1.9-0.5-1.9-1.6
				c0-1.3,1-1.6,1.9-1.8c1-0.2,1.9-0.1,1.9-0.8c0-0.8-0.7-0.9-1.3-0.9c-0.8,0-1.4,0.2-1.4,1.1h-0.9c0.1-1.4,1.1-1.9,2.4-1.9
				c1,0,2.1,0.2,2.1,1.6v2.9c0,0.4,0,0.6,0.3,0.6c0.1,0,0.2,0,0.3-0.1V235.4z M645.2,232.5c-0.4,0.2-1.1,0.3-1.7,0.4
				c-0.6,0.1-1.1,0.3-1.1,1c0,0.6,0.5,0.8,1.1,0.8c1.2,0,1.7-0.8,1.7-1.3V232.5z"/>
			<path class="st3" d="M647.9,229.7h0.9v0.9h0c0.4-0.7,1-1,1.8-1c1.5,0,2,0.9,2,2.1v3.7h-0.9v-3.9c0-0.7-0.4-1.1-1.2-1.1
				c-1.1,0-1.7,0.8-1.7,1.8v3.2h-0.9V229.7z"/>
		</g>
	</g>
	<g>
		<g>
			<path class="st3" d="M589.7,206.2h1.4l2.5,6.6l2.5-6.6h1.4v7.9h-1v-6.5h0l-2.5,6.5h-0.9l-2.5-6.5h0v6.5h-1V206.2z"/>
			<path class="st3" d="M600.8,208.4h1.1v0.8h-1.1v3.5c0,0.4,0.1,0.5,0.7,0.5h0.4v0.8h-0.7c-1,0-1.4-0.2-1.4-1.2v-3.6h-1v-0.8h1
				v-1.7h0.9V208.4z"/>
			<path class="st3" d="M606.8,206.2h1.4l2.5,6.6l2.5-6.6h1.4v7.9h-1v-6.5h0l-2.5,6.5h-0.9l-2.5-6.5h0v6.5h-1V206.2z"/>
			<path class="st3" d="M621.4,212.2c-0.3,1.3-1.2,1.9-2.4,1.9c-1.8,0-2.7-1.3-2.7-3c0-1.7,1.1-3,2.7-3c2,0,2.6,1.9,2.6,3.3h-4.3
				c0,1,0.5,1.9,1.8,1.9c0.8,0,1.3-0.4,1.5-1.1H621.4z M620.5,210.7c0-0.9-0.7-1.6-1.6-1.6c-1,0-1.6,0.7-1.6,1.6H620.5z"/>
			<path class="st3" d="M622.8,208.4h0.9v1.2h0c0.5-0.9,1.1-1.4,2.1-1.3v1c-1.5,0-2.1,0.9-2.1,2.3v2.5h-0.9V208.4z"/>
			<path class="st3" d="M631.8,214c-0.2,0.1-0.4,0.1-0.7,0.1c-0.5,0-0.8-0.3-0.8-0.9c-0.5,0.6-1.2,0.9-2,0.9c-1,0-1.9-0.5-1.9-1.6
				c0-1.3,1-1.6,1.9-1.8c1-0.2,1.9-0.1,1.9-0.8c0-0.8-0.7-0.9-1.3-0.9c-0.8,0-1.4,0.2-1.4,1.1h-0.9c0.1-1.4,1.1-1.9,2.4-1.9
				c1,0,2.1,0.2,2.1,1.6v2.9c0,0.4,0,0.6,0.3,0.6c0.1,0,0.2,0,0.3-0.1V214z M630.3,211.1c-0.4,0.2-1.1,0.3-1.7,0.4
				c-0.6,0.1-1.1,0.3-1.1,1c0,0.6,0.5,0.8,1.1,0.8c1.2,0,1.7-0.8,1.7-1.3V211.1z"/>
			<path class="st3" d="M633.1,208.4h0.9v0.8h0c0.3-0.6,1-0.9,1.8-0.9c1.7,0,2.6,1.4,2.6,3s-0.9,3-2.6,3c-0.6,0-1.4-0.2-1.8-0.9h0
				v2.9h-0.9V208.4z M635.7,209c-1.3,0-1.7,1.1-1.7,2.1c0,1.1,0.5,2.2,1.8,2.2c1.3,0,1.7-1.1,1.7-2.2
				C637.5,210.1,636.9,209,635.7,209z"/>
			<path class="st3" d="M640.9,207.3h-0.9v-1.1h0.9V207.3z M639.9,208.4h0.9v5.7h-0.9V208.4z"/>
		</g>
	</g>
	<g>
		<g>
			<path class="st3" d="M483.6,177.1c0,1,0.8,1.5,1.7,1.5c0.6,0,1.5-0.2,1.5-1c0-0.8-1.2-1-2.3-1.3c-1.2-0.3-2.3-0.8-2.3-2.2
				c0-1.6,1.5-2.4,2.9-2.4c1.6,0,3.1,0.7,3.1,2.5h-1.7c-0.1-0.9-0.7-1.2-1.6-1.2c-0.6,0-1.2,0.2-1.2,0.9c0,0.6,0.4,0.7,2.3,1.2
				c0.6,0.1,2.3,0.5,2.3,2.3c0,1.4-1.1,2.5-3.3,2.5c-1.7,0-3.4-0.9-3.3-2.8H483.6z"/>
			<path class="st3" d="M490.2,171.8h5.9v1.5h-4.1v1.7h3.8v1.3h-3.8v1.9h4.2v1.5h-6V171.8z"/>
			<path class="st3" d="M497.8,171.8h2.4l1.8,5.4h0l1.7-5.4h2.4v7.9h-1.6v-5.6h0l-1.9,5.6h-1.3l-1.9-5.5h0v5.5h-1.6V171.8z"/>
			<path class="st3" d="M510.5,171.8h1.8l2.9,7.9h-1.8l-0.6-1.7h-2.9l-0.6,1.7h-1.8L510.5,171.8z M510.3,176.6h2l-1-2.9h0
				L510.3,176.6z"/>
			<path class="st3" d="M516.4,171.8h4.2c1.4,0,2.3,1,2.3,2.2c0,0.9-0.4,1.6-1.2,2v0c0.8,0.2,1.1,1,1.1,1.8c0,0.5,0,1.4,0.3,1.9
				h-1.7c-0.2-0.5-0.2-1.3-0.3-1.9c-0.1-0.8-0.4-1.2-1.3-1.2h-1.7v3.1h-1.7V171.8z M518.2,175.4h1.9c0.8,0,1.2-0.3,1.2-1.1
				c0-0.8-0.4-1.1-1.2-1.1h-1.9V175.4z"/>
			<path class="st3" d="M527.1,171.8h1.8l2.9,7.9H530l-0.6-1.7h-2.9l-0.6,1.7h-1.7L527.1,171.8z M526.9,176.6h2l-1-2.9h0
				L526.9,176.6z"/>
			<path class="st3" d="M533,171.8h1.7l3.3,5.3h0v-5.3h1.6v7.9h-1.7l-3.3-5.3h0v5.3H533V171.8z"/>
			<path class="st3" d="M547.4,178.8c-0.6,0.8-1.4,1.1-2.2,1.1c-2.4,0-3.9-1.8-3.9-4.1c0-2.3,1.4-4.1,3.9-4.1c1.6,0,3.1,1,3.3,2.8
				h-1.7c-0.2-0.9-0.8-1.3-1.7-1.3c-1.6,0-2.1,1.3-2.1,2.7c0,1.3,0.6,2.6,2.1,2.6c1.1,0,1.8-0.6,1.9-1.7h-1.7v-1.3h3.3v4.2h-1.1
				L547.4,178.8z"/>
		</g>
	</g>
	<g>
		<g>
			<path class="st3" d="M583.5,141.5c0,1-0.3,2.7-2.6,2.7c-1.3,0-2.6-0.7-2.6-2.4v-0.7h1.6v0.4c0,0.8,0.2,1.3,1,1.3
				c0.9,0,0.9-0.7,0.9-1.3v-5.3h1.7V141.5z"/>
			<path class="st3" d="M585.6,136.1h5.9v1.5h-4.1v1.7h3.8v1.3h-3.8v1.9h4.2v1.5h-6V136.1z"/>
			<path class="st3" d="M593.3,136.1h3.5c2,0,2.7,1.2,2.7,2.5s-0.8,2.5-2.7,2.5H595v2.8h-1.7V136.1z M595,139.8h1.3
				c0.8,0,1.5-0.2,1.5-1.2s-0.7-1.2-1.5-1.2H595V139.8z"/>
			<path class="st3" d="M603.3,136.1h1.8l2.9,7.9h-1.8l-0.6-1.7h-2.9l-0.6,1.7h-1.8L603.3,136.1z M603.1,140.9h2l-1-2.9h0
				L603.1,140.9z"/>
			<path class="st3" d="M609.2,136.1h4.2c1.4,0,2.3,1,2.3,2.2c0,0.9-0.4,1.6-1.2,2v0c0.8,0.2,1.1,1,1.1,1.8c0,0.5,0,1.4,0.3,1.9
				h-1.7c-0.2-0.5-0.2-1.3-0.3-1.9c-0.1-0.8-0.4-1.2-1.3-1.2H611v3.1h-1.7V136.1z M611,139.7h1.9c0.8,0,1.2-0.3,1.2-1.1
				c0-0.8-0.4-1.1-1.2-1.1H611V139.7z"/>
			<path class="st3" d="M619.9,136.1h1.8l2.9,7.9h-1.8l-0.6-1.7h-2.9l-0.6,1.7h-1.8L619.9,136.1z M619.7,140.9h2l-1-2.9h0
				L619.7,140.9z"/>
		</g>
	</g>
	<g>
		<g>
			<path class="st3" d="M727.1,195.4c0,1,0.8,1.5,1.7,1.5c0.6,0,1.5-0.2,1.5-1c0-0.8-1.2-1-2.3-1.3c-1.2-0.3-2.3-0.8-2.3-2.2
				c0-1.6,1.5-2.4,2.9-2.4c1.6,0,3.1,0.7,3.1,2.5h-1.7c-0.1-0.9-0.7-1.2-1.6-1.2c-0.5,0-1.2,0.2-1.2,0.9c0,0.6,0.4,0.7,2.3,1.2
				c0.6,0.1,2.3,0.5,2.3,2.3c0,1.4-1.1,2.5-3.3,2.5c-1.7,0-3.4-0.9-3.3-2.8H727.1z"/>
			<path class="st3" d="M740.3,195c0,2.1-1.3,3.2-3.4,3.2c-2.1,0-3.3-1-3.3-3.2v-4.9h1.7v4.9c0,0.9,0.2,1.7,1.6,1.7
				c1.2,0,1.6-0.5,1.6-1.7v-4.9h1.7V195z"/>
			<path class="st3" d="M742.3,190.2h4.2c1.4,0,2.3,1,2.3,2.2c0,0.9-0.4,1.6-1.2,2v0c0.8,0.2,1.1,1,1.1,1.8c0,0.5,0,1.4,0.3,1.9
				h-1.7c-0.2-0.5-0.2-1.3-0.3-1.9c-0.1-0.8-0.4-1.2-1.3-1.2H744v3.1h-1.7V190.2z M744,193.7h1.9c0.8,0,1.2-0.3,1.2-1.1
				c0-0.8-0.4-1.1-1.2-1.1H744V193.7z"/>
			<path class="st3" d="M753,190.2h1.8l2.9,7.9h-1.8l-0.6-1.7h-2.9l-0.6,1.7H750L753,190.2z M752.8,195h2l-1-2.9h0L752.8,195z"/>
			<path class="st3" d="M758.9,190.2h3.7c1.5,0,2.5,0.5,2.5,1.9c0,0.8-0.4,1.3-1.1,1.6c1,0.3,1.4,1,1.4,2c0,1.6-1.4,2.3-2.8,2.3
				h-3.8V190.2z M760.6,193.3h1.8c0.6,0,1.1-0.3,1.1-0.9c0-0.7-0.6-0.9-1.2-0.9h-1.6V193.3z M760.6,196.7h1.8c0.7,0,1.3-0.2,1.3-1
				c0-0.8-0.5-1.1-1.2-1.1h-1.9V196.7z"/>
			<path class="st3" d="M769.3,190.2h1.8l2.9,7.9h-1.8l-0.6-1.7h-2.9l-0.6,1.7h-1.8L769.3,190.2z M769.2,195h2l-1-2.9h0L769.2,195z"
				/>
			<path class="st3" d="M777.3,195l-2.9-4.8h1.9l1.8,3.1l1.8-3.1h1.9L779,195v3h-1.7V195z"/>
			<path class="st3" d="M785.3,190.2h1.8l2.9,7.9h-1.8l-0.6-1.7h-2.9l-0.6,1.7h-1.7L785.3,190.2z M785.1,195h2l-1-2.9h0L785.1,195z"
				/>
		</g>
	</g>
	<g>
		<g>
			<path class="st3" d="M850.3,247h1.4l2.5,6.6l2.5-6.6h1.4v7.9h-1v-6.5h0l-2.5,6.5h-0.9l-2.5-6.5h0v6.5h-1V247z"/>
			<path class="st3" d="M861.3,249.2h1.1v0.8h-1.1v3.5c0,0.4,0.1,0.5,0.7,0.5h0.4v0.8h-0.7c-1,0-1.4-0.2-1.4-1.2V250h-1v-0.8h1v-1.7
				h0.9V249.2z"/>
			<path class="st3" d="M867.4,247h2.8c0.7,0,1.6,0,2.1,0.3c0.5,0.3,0.9,0.9,0.9,1.6c0,0.8-0.4,1.5-1.2,1.8v0c1,0.2,1.5,0.9,1.5,1.9
				c0,1.2-0.8,2.3-2.4,2.3h-3.8V247z M868.4,250.4h2.1c1.2,0,1.7-0.4,1.7-1.3c0-1.1-0.8-1.2-1.7-1.2h-2.1V250.4z M868.4,254h2.6
				c0.9,0,1.5-0.6,1.5-1.4c0-1-0.8-1.3-1.7-1.3h-2.4V254z"/>
			<path class="st3" d="M875,249.2h0.9v1.2h0c0.5-0.9,1.1-1.4,2.1-1.3v1c-1.5,0-2.1,0.9-2.1,2.3v2.5H875V249.2z"/>
			<path class="st3" d="M881.5,249c1.8,0,2.8,1.3,2.8,3c0,1.7-1,3-2.8,3s-2.8-1.3-2.8-3C878.8,250.3,879.7,249,881.5,249z
				 M881.5,254.2c1,0,1.8-0.8,1.8-2.1c0-1.4-0.8-2.2-1.8-2.2s-1.8,0.8-1.8,2.2C879.7,253.4,880.5,254.2,881.5,254.2z"/>
			<path class="st3" d="M885.7,249.2h0.9v0.8h0c0.4-0.6,1.1-1,1.8-1c0.7,0,1.3,0.3,1.6,1c0.4-0.6,1.1-1,1.8-1c1.1,0,1.9,0.5,1.9,1.7
				v4.2h-0.9v-3.7c0-0.7-0.2-1.3-1.1-1.3c-0.9,0-1.5,0.6-1.5,1.5v3.5h-0.9v-3.7c0-0.7-0.2-1.3-1.1-1.3c-1.1,0-1.5,1-1.5,1.5v3.5
				h-0.9V249.2z"/>
			<path class="st3" d="M897.9,249c1.8,0,2.8,1.3,2.8,3c0,1.7-1,3-2.8,3c-1.8,0-2.8-1.3-2.8-3C895.1,250.3,896.1,249,897.9,249z
				 M897.9,254.2c1,0,1.8-0.8,1.8-2.1c0-1.4-0.8-2.2-1.8-2.2c-1,0-1.8,0.8-1.8,2.2C896.1,253.4,896.9,254.2,897.9,254.2z"/>
		</g>
	</g>
	<g>
		<g>
			<path class="st3" d="M832,206.2h3.5c2,0,2.7,1.2,2.7,2.5s-0.8,2.5-2.7,2.5h-1.8v2.8H832V206.2z M833.8,209.9h1.3
				c0.8,0,1.5-0.2,1.5-1.2s-0.7-1.2-1.5-1.2h-1.3V209.9z"/>
			<path class="st3" d="M839.7,206.2h4.2c1.4,0,2.3,1,2.3,2.2c0,0.9-0.4,1.6-1.2,2v0c0.8,0.2,1.1,1,1.1,1.8c0,0.5,0,1.4,0.3,1.9
				h-1.7c-0.2-0.5-0.2-1.3-0.3-1.9c-0.1-0.8-0.4-1.2-1.3-1.2h-1.7v3.1h-1.7V206.2z M841.4,209.7h1.9c0.8,0,1.2-0.3,1.2-1.1
				c0-0.8-0.4-1.1-1.2-1.1h-1.9V209.7z"/>
			<path class="st3" d="M851.5,206c2.4,0,3.9,1.8,3.9,4.1c0,2.3-1.4,4.1-3.9,4.1c-2.4,0-3.9-1.8-3.9-4.1
				C847.6,207.8,849.1,206,851.5,206z M851.5,212.8c1.6,0,2.1-1.3,2.1-2.6c0-1.4-0.6-2.7-2.1-2.7c-1.6,0-2.1,1.3-2.1,2.7
				C849.4,211.5,849.9,212.8,851.5,212.8z"/>
			<path class="st3" d="M856.9,206.2h3.7c1.5,0,2.5,0.5,2.5,1.9c0,0.8-0.4,1.3-1.1,1.6c1,0.3,1.4,1,1.4,2c0,1.6-1.4,2.3-2.8,2.3
				h-3.8V206.2z M858.6,209.4h1.8c0.6,0,1.1-0.3,1.1-0.9c0-0.7-0.6-0.9-1.2-0.9h-1.6V209.4z M858.6,212.7h1.8c0.7,0,1.3-0.2,1.3-1
				c0-0.8-0.5-1.1-1.2-1.1h-1.9V212.7z"/>
			<path class="st3" d="M868.5,206c2.4,0,3.9,1.8,3.9,4.1c0,2.3-1.4,4.1-3.9,4.1s-3.9-1.8-3.9-4.1C864.6,207.8,866,206,868.5,206z
				 M868.5,212.8c1.6,0,2.1-1.3,2.1-2.6c0-1.4-0.6-2.7-2.1-2.7c-1.6,0-2.1,1.3-2.1,2.7C866.3,211.5,866.9,212.8,868.5,212.8z"/>
			<path class="st3" d="M873.8,206.2h1.7v6.4h3.8v1.5h-5.6V206.2z"/>
			<path class="st3" d="M880.7,206.2h1.7v7.9h-1.7V206.2z"/>
			<path class="st3" d="M884.2,206.2h1.7l3.3,5.3h0v-5.3h1.6v7.9h-1.7l-3.3-5.3h0v5.3h-1.6V206.2z"/>
			<path class="st3" d="M898.4,213.2c-0.6,0.8-1.4,1.1-2.2,1.1c-2.4,0-3.9-1.8-3.9-4.1c0-2.3,1.4-4.1,3.9-4.1c1.6,0,3.1,1,3.3,2.8
				h-1.7c-0.2-0.9-0.8-1.3-1.7-1.3c-1.6,0-2.1,1.3-2.1,2.7c0,1.3,0.6,2.6,2.1,2.6c1.1,0,1.8-0.6,1.9-1.7h-1.7v-1.3h3.3v4.2h-1.1
				L898.4,213.2z"/>
			<path class="st3" d="M907.1,213.2c-0.6,0.8-1.4,1.1-2.2,1.1c-2.4,0-3.9-1.8-3.9-4.1c0-2.3,1.4-4.1,3.9-4.1c1.6,0,3.1,1,3.3,2.8
				h-1.7c-0.2-0.9-0.8-1.3-1.7-1.3c-1.6,0-2.1,1.3-2.1,2.7c0,1.3,0.6,2.6,2.1,2.6c1.1,0,1.8-0.6,1.9-1.7h-1.7v-1.3h3.3v4.2h-1.1
				L907.1,213.2z"/>
			<path class="st3" d="M913.6,206c2.4,0,3.9,1.8,3.9,4.1c0,2.3-1.4,4.1-3.9,4.1s-3.9-1.8-3.9-4.1C909.7,207.8,911.2,206,913.6,206z
				 M913.6,212.8c1.6,0,2.1-1.3,2.1-2.6c0-1.4-0.6-2.7-2.1-2.7c-1.6,0-2.1,1.3-2.1,2.7C911.5,211.5,912.1,212.8,913.6,212.8z"/>
		</g>
	</g>
	<g>
		<g>
			<path class="st3" d="M964.7,264.3h3.7c1.5,0,2.5,0.5,2.5,1.9c0,0.8-0.4,1.3-1.1,1.6c1,0.3,1.4,1,1.4,2c0,1.6-1.4,2.3-2.8,2.3
				h-3.8V264.3z M966.4,267.5h1.7c0.6,0,1.1-0.3,1.1-0.9c0-0.7-0.6-0.9-1.2-0.9h-1.6V267.5z M966.4,270.8h1.8c0.7,0,1.3-0.2,1.3-1
				c0-0.8-0.5-1.1-1.2-1.1h-1.9V270.8z"/>
			<path class="st3" d="M975.1,264.3h1.8l2.9,7.9H978l-0.6-1.7h-2.9l-0.6,1.7h-1.7L975.1,264.3z M974.9,269.1h2l-1-2.9h0
				L974.9,269.1z"/>
			<path class="st3" d="M981.1,264.3h1.7l3.3,5.3h0v-5.3h1.6v7.9H986l-3.3-5.3h0v5.3h-1.6V264.3z"/>
			<path class="st3" d="M991.8,269.1l-2.9-4.8h1.9l1.8,3.1l1.8-3.1h1.9l-2.9,4.8v3h-1.7V269.1z"/>
			<path class="st3" d="M1004.3,269.2c0,2.1-1.3,3.2-3.4,3.2c-2.1,0-3.3-1-3.3-3.2v-4.9h1.7v4.9c0,0.9,0.2,1.7,1.6,1.7
				c1.2,0,1.6-0.5,1.6-1.7v-4.9h1.7V269.2z"/>
			<path class="st3" d="M1013.8,272.2h-1.7l-1.3-5.3h0l-1.3,5.3h-1.7l-2.1-7.9h1.7l1.2,5.3h0l1.4-5.3h1.6l1.3,5.4h0l1.3-5.4h1.7
				L1013.8,272.2z"/>
			<path class="st3" d="M1019.4,264.3h1.8l2.9,7.9h-1.8l-0.6-1.7h-2.9l-0.6,1.7h-1.7L1019.4,264.3z M1019.3,269.1h2l-1-2.9h0
				L1019.3,269.1z"/>
			<path class="st3" d="M1025.4,264.3h1.7l3.3,5.3h0v-5.3h1.6v7.9h-1.7l-3.3-5.3h0v5.3h-1.6V264.3z"/>
			<path class="st3" d="M1039.7,271.3c-0.6,0.8-1.4,1.1-2.2,1.1c-2.4,0-3.9-1.8-3.9-4.1c0-2.3,1.4-4.1,3.9-4.1c1.6,0,3.1,1,3.3,2.8
				h-1.7c-0.2-0.9-0.8-1.3-1.7-1.3c-1.6,0-2.1,1.3-2.1,2.7c0,1.3,0.6,2.6,2.1,2.6c1.1,0,1.8-0.6,1.9-1.7h-1.7v-1.3h3.3v4.2h-1.1
				L1039.7,271.3z"/>
			<path class="st3" d="M1043,264.3h1.7v7.9h-1.7V264.3z"/>
		</g>
	</g>
	<g>
		<g>
			<path class="st3" d="M929.6,226.4h1.4l2.5,6.6l2.5-6.6h1.4v7.9h-1v-6.5h0l-2.5,6.5h-0.9l-2.5-6.5h0v6.5h-1V226.4z"/>
			<path class="st3" d="M940.7,228.6h1.1v0.8h-1.1v3.5c0,0.4,0.1,0.5,0.7,0.5h0.4v0.8h-0.7c-1,0-1.4-0.2-1.4-1.2v-3.6h-1v-0.8h1
				v-1.7h0.9V228.6z"/>
			<path class="st3" d="M946.8,226.4h1v7.9h-1V226.4z"/>
			<path class="st3" d="M950.7,235c0,1-0.5,1.5-1.4,1.5c-0.2,0-0.3,0-0.5,0v-0.8c0.1,0,0.3,0,0.4,0c0.4,0,0.5-0.2,0.5-0.8v-6.3h0.9
				V235z M950.7,227.5h-0.9v-1.1h0.9V227.5z"/>
			<path class="st3" d="M957.4,232.4c-0.3,1.3-1.2,1.9-2.4,1.9c-1.8,0-2.7-1.3-2.7-3c0-1.7,1.1-3,2.7-3c2,0,2.6,1.9,2.6,3.3h-4.3
				c0,1,0.5,1.9,1.8,1.9c0.8,0,1.3-0.4,1.5-1.1H957.4z M956.5,230.9c0-0.9-0.7-1.6-1.6-1.6c-1,0-1.6,0.7-1.6,1.6H956.5z"/>
			<path class="st3" d="M958.8,228.6h0.9v0.9h0c0.4-0.7,1-1,1.8-1c1.5,0,2,0.9,2,2.1v3.7h-0.9v-3.8c0-0.7-0.4-1.1-1.2-1.1
				c-1.1,0-1.7,0.8-1.7,1.8v3.2h-0.9V228.6z"/>
		</g>
	</g>
	<g>
		<g>
			<path class="st3" d="M557.2,44.3h1.7v3.3l3.1-3.3h2.2l-3.1,3.1l3.4,4.8h-2.2l-2.4-3.5l-1,1v2.5h-1.7V44.3z"/>
			<path class="st3" d="M567.8,44.3h1.8l2.9,7.9h-1.8l-0.6-1.7h-2.9l-0.6,1.7h-1.8L567.8,44.3z M567.7,49.2h2l-1-2.9h0L567.7,49.2z"
				/>
			<path class="st3" d="M573.8,44.3h4.2c1.4,0,2.3,1,2.3,2.2c0,0.9-0.4,1.6-1.2,2v0c0.8,0.2,1.1,1,1.1,1.8c0,0.5,0,1.4,0.3,1.9h-1.7
				c-0.2-0.5-0.2-1.3-0.3-1.9c-0.1-0.8-0.4-1.2-1.3-1.2h-1.7v3.1h-1.7V44.3z M575.5,47.9h1.9c0.8,0,1.2-0.3,1.2-1.1
				c0-0.8-0.4-1.1-1.2-1.1h-1.9V47.9z"/>
			<path class="st3" d="M582.3,44.3h1.7v7.9h-1.7V44.3z"/>
			<path class="st3" d="M586.1,44.3h2.4l1.8,5.4h0l1.7-5.4h2.4v7.9h-1.6v-5.6h0l-1.9,5.6h-1.3l-1.9-5.5h0v5.5h-1.6V44.3z"/>
			<path class="st3" d="M603.3,49.2c0,2.1-1.3,3.2-3.4,3.2c-2.1,0-3.3-1-3.3-3.2v-4.9h1.7v4.9c0,0.9,0.2,1.7,1.6,1.7
				c1.2,0,1.6-0.5,1.6-1.7v-4.9h1.7V49.2z"/>
			<path class="st3" d="M605.3,44.3h1.7l3.3,5.3h0v-5.3h1.6v7.9h-1.7l-3.3-5.3h0v5.3h-1.6V44.3z"/>
			<path class="st3" d="M618.6,49.7c0,1-0.3,2.7-2.6,2.7c-1.3,0-2.6-0.7-2.6-2.4v-0.7h1.6v0.4c0,0.8,0.2,1.3,1,1.3
				c0.9,0,0.9-0.7,0.9-1.3v-5.3h1.7V49.7z"/>
			<path class="st3" d="M622.8,44.3h1.8l2.9,7.9h-1.8l-0.6-1.7h-2.9l-0.6,1.7h-1.7L622.8,44.3z M622.6,49.2h2l-1-2.9h0L622.6,49.2z"
				/>
			<path class="st3" d="M636.2,52.2h-1.7l-1.3-5.3h0l-1.3,5.3h-1.7l-2.1-7.9h1.7l1.2,5.3h0l1.4-5.3h1.6l1.3,5.4h0l1.3-5.4h1.7
				L636.2,52.2z"/>
			<path class="st3" d="M641.8,44.3h1.8l2.9,7.9h-1.8l-0.6-1.7h-2.9l-0.6,1.7h-1.8L641.8,44.3z M641.7,49.2h2l-1-2.9h0L641.7,49.2z"
				/>
		</g>
	</g>
	<g>
		<g>
			<path class="st3" d="M353.3,8.8c0,1.3-0.3,3.4-3.3,3.4c-1.7,0-3.3-0.9-3.3-3.1V8.3h2v0.4c0,1,0.2,1.7,1.3,1.7
				c1.2,0,1.2-0.9,1.2-1.6V2h2.2V8.8z"/>
			<path class="st3" d="M358.8,2h2.3l3.7,10h-2.3l-0.8-2.2H358l-0.8,2.2H355L358.8,2z M358.6,8.1h2.6l-1.3-3.7h0L358.6,8.1z"/>
			<path class="st3" d="M371.2,12h-2.5l-3.2-10h2.3l2.2,7h0l2.3-7h2.3L371.2,12z"/>
			<path class="st3" d="M378.9,2h2.3l3.7,10h-2.3l-0.8-2.2h-3.7l-0.8,2.2h-2.2L378.9,2z M378.7,8.1h2.6L380,4.5h0L378.7,8.1z"/>
			<path class="st3" d="M392.8,8.7c0,1.3,1,1.8,2.2,1.8c0.8,0,1.9-0.2,1.9-1.2c0-1.1-1.5-1.3-3-1.7c-1.5-0.4-3-1-3-2.8
				c0-2,1.9-3,3.7-3c2.1,0,4,0.9,4,3.2h-2.1c-0.1-1.2-0.9-1.5-2-1.5c-0.7,0-1.5,0.3-1.5,1.1c0,0.8,0.5,0.9,3,1.5
				c0.7,0.2,3,0.6,3,2.9c0,1.8-1.4,3.2-4.2,3.2c-2.2,0-4.3-1.1-4.3-3.6H392.8z"/>
			<path class="st3" d="M401.3,2h7.5v1.8h-5.3V6h4.8v1.7h-4.8v2.5h5.4V12h-7.6V2z"/>
			<path class="st3" d="M411.2,2h7.5v1.8h-5.3V6h4.8v1.7h-4.8v2.5h5.4V12h-7.6V2z"/>
		</g>
	</g>
	<g>
		<g>
			<path class="st3" d="M360.3,193.8c0,1.3-0.3,3.4-3.3,3.4c-1.7,0-3.3-0.9-3.3-3.1v-0.9h2v0.4c0,1,0.2,1.7,1.3,1.7
				c1.2,0,1.2-0.9,1.2-1.6V187h2.2V193.8z"/>
			<path class="st3" d="M365.8,187h2.3l3.7,10h-2.3l-0.8-2.2H365l-0.8,2.2H362L365.8,187z M365.6,193.1h2.6l-1.3-3.7h0L365.6,193.1z
				"/>
			<path class="st3" d="M378.2,197h-2.5l-3.2-10h2.3l2.2,7h0l2.3-7h2.3L378.2,197z"/>
			<path class="st3" d="M385.9,187h2.3l3.7,10h-2.3l-0.8-2.2h-3.7l-0.8,2.2h-2.2L385.9,187z M385.7,193.1h2.6l-1.3-3.7h0
				L385.7,193.1z"/>
		</g>
	</g>
	<g>
		<g>
			<path class="st3" d="M113.8,84.2c0,1-0.3,2.7-2.6,2.7c-1.3,0-2.6-0.7-2.6-2.4v-0.7h1.6v0.4c0,0.8,0.2,1.3,1,1.3
				c0.9,0,0.9-0.7,0.9-1.3v-5.3h1.7V84.2z"/>
			<path class="st3" d="M118,78.9h1.8l2.9,7.9h-1.8l-0.6-1.7h-2.9l-0.6,1.7H115L118,78.9z M117.8,83.7h2l-1-2.9h0L117.8,83.7z"/>
			<path class="st3" d="M123.9,78.9h1.7v3.3l3.1-3.3h2.2l-3.1,3.1l3.4,4.8H129l-2.4-3.5l-1,1v2.5h-1.7V78.9z"/>
			<path class="st3" d="M134.5,78.9h1.8l2.9,7.9h-1.8l-0.6-1.7h-2.9l-0.6,1.7h-1.8L134.5,78.9z M134.4,83.7h2l-1-2.9h0L134.4,83.7z"
				/>
			<path class="st3" d="M140.5,78.9h4.2c1.4,0,2.3,1,2.3,2.2c0,0.9-0.4,1.6-1.2,2v0c0.8,0.2,1.1,1,1.1,1.8c0,0.5,0,1.4,0.3,1.9h-1.7
				c-0.2-0.5-0.2-1.3-0.3-1.9c-0.1-0.8-0.4-1.2-1.3-1.2h-1.7v3.1h-1.7V78.9z M142.2,82.4h1.9c0.8,0,1.2-0.3,1.2-1.1
				c0-0.8-0.4-1.1-1.2-1.1h-1.9V82.4z"/>
			<path class="st3" d="M150.7,80.3h-2.4v-1.5h6.4v1.5h-2.4v6.4h-1.7V80.3z"/>
			<path class="st3" d="M158.4,78.9h1.8l2.9,7.9h-1.8l-0.6-1.7h-2.9l-0.6,1.7h-1.8L158.4,78.9z M158.2,83.7h2l-1-2.9h0L158.2,83.7z"
				/>
		</g>
	</g>
	<g>
		<g>
			<path class="st3" d="M172.5,19.2c0,1,0.8,1.5,1.7,1.5c0.6,0,1.5-0.2,1.5-1c0-0.8-1.2-1-2.3-1.3c-1.2-0.3-2.3-0.8-2.3-2.2
				c0-1.6,1.5-2.4,2.9-2.4c1.6,0,3.1,0.7,3.1,2.5h-1.7c-0.1-0.9-0.7-1.2-1.6-1.2c-0.6,0-1.2,0.2-1.2,0.9c0,0.6,0.4,0.7,2.3,1.2
				c0.6,0.1,2.3,0.5,2.3,2.3c0,1.4-1.1,2.5-3.3,2.5c-1.7,0-3.4-0.9-3.3-2.8H172.5z"/>
			<path class="st3" d="M179,14h5.9v1.5h-4.1v1.7h3.8v1.3h-3.8v1.9h4.2v1.5h-6V14z"/>
			<path class="st3" d="M186.7,14h4.2c1.4,0,2.3,1,2.3,2.2c0,0.9-0.4,1.6-1.2,2v0c0.8,0.2,1.1,1,1.1,1.8c0,0.5,0,1.4,0.3,1.9h-1.7
				c-0.2-0.5-0.2-1.3-0.3-1.9c-0.1-0.8-0.4-1.2-1.3-1.2h-1.7v3.1h-1.7V14z M188.4,17.5h1.9c0.8,0,1.2-0.3,1.2-1.1
				c0-0.8-0.4-1.1-1.2-1.1h-1.9V17.5z"/>
			<path class="st3" d="M195.2,14h1.7v7.9h-1.7V14z"/>
			<path class="st3" d="M199,14h3.7c1.5,0,2.5,0.5,2.5,1.9c0,0.8-0.4,1.3-1.1,1.6c1,0.3,1.4,1,1.4,2c0,1.6-1.4,2.3-2.8,2.3H199V14z
				 M200.7,17.2h1.8c0.6,0,1.1-0.3,1.1-0.9c0-0.7-0.6-0.9-1.2-0.9h-1.6V17.2z M200.7,20.5h1.8c0.7,0,1.3-0.2,1.3-1
				c0-0.8-0.5-1.1-1.2-1.1h-1.9V20.5z"/>
			<path class="st3" d="M213.9,18.9c0,2.1-1.3,3.2-3.4,3.2c-2.1,0-3.3-1-3.3-3.2V14h1.7v4.9c0,0.9,0.2,1.7,1.6,1.7
				c1.2,0,1.6-0.5,1.6-1.7V14h1.7V18.9z"/>
		</g>
	</g>
	<circle class="st3" cx="268.2" cy="153.9" r="4.3"/>
	<g>
		<g>
			<path class="st3" d="M204.5,158.7h3.7c1.5,0,2.5,0.5,2.5,1.9c0,0.8-0.4,1.3-1.1,1.6c1,0.3,1.4,1,1.4,2c0,1.6-1.4,2.3-2.8,2.3
				h-3.8V158.7z M206.3,161.8h1.8c0.6,0,1.1-0.3,1.1-0.9c0-0.7-0.6-0.9-1.2-0.9h-1.6V161.8z M206.3,165.2h1.8c0.7,0,1.3-0.2,1.3-1
				c0-0.8-0.5-1.1-1.2-1.1h-1.9V165.2z"/>
			<path class="st3" d="M215,158.7h1.8l2.9,7.9h-1.8l-0.6-1.7h-2.9l-0.6,1.7H212L215,158.7z M214.8,163.5h2l-1-2.9h0L214.8,163.5z"
				/>
			<path class="st3" d="M220.9,158.7h1.7l3.3,5.3h0v-5.3h1.6v7.9h-1.7l-3.3-5.3h0v5.3h-1.6V158.7z"/>
			<path class="st3" d="M229.6,158.7h3.4c2,0,3.6,1.3,3.6,3.9c0,2.3-1.2,4-3.6,4h-3.4V158.7z M231.4,165.1h1.5c1,0,2-0.6,2-2.4
				c0-1.6-0.6-2.6-2.3-2.6h-1.2V165.1z"/>
			<path class="st3" d="M245,163.5c0,2.1-1.3,3.2-3.4,3.2c-2.1,0-3.3-1-3.3-3.2v-4.9h1.7v4.9c0,0.9,0.2,1.7,1.6,1.7
				c1.2,0,1.6-0.5,1.6-1.7v-4.9h1.7V163.5z"/>
			<path class="st3" d="M247,158.7h1.7l3.3,5.3h0v-5.3h1.6v7.9h-1.7l-3.3-5.3h0v5.3H247V158.7z"/>
			<path class="st3" d="M261.4,165.6c-0.6,0.8-1.4,1.1-2.2,1.1c-2.4,0-3.9-1.8-3.9-4.1c0-2.3,1.4-4.1,3.9-4.1c1.6,0,3.1,1,3.3,2.8
				h-1.7c-0.2-0.9-0.8-1.3-1.7-1.3c-1.6,0-2.1,1.3-2.1,2.7c0,1.3,0.6,2.6,2.1,2.6c1.1,0,1.8-0.6,1.9-1.7h-1.7v-1.3h3.3v4.2h-1.1
				L261.4,165.6z"/>
		</g>
	</g>
	<circle class="st3" cx="537.2" cy="54.7" r="4.3"/>
	<circle class="st3" cx="157.3" cy="19.9" r="4.3"/>
</g>
</svg>
