<?xml version="1.0" encoding="utf-8"?>
<!-- Generator: Adobe Illustrator 25.0.1, SVG Export Plug-In . SVG Version: 6.00 Build 0)  -->
<svg version="1.1" xmlns="http://www.w3.org/2000/svg" xmlns:xlink="http://www.w3.org/1999/xlink" x="0px" y="0px"
	 viewBox="0 0 1255.2 357.5" style="enable-background:new 0 0 1255.2 357.5;" xml:space="preserve">
<style type="text/css">
	.st0{fill:#E2E2E3;}
	.st1{fill:none;stroke:#45B0E9;stroke-width:2.4;stroke-miterlimit:10;}
	.st2{fill:none;stroke:#45B0E9;stroke-width:2.4;stroke-miterlimit:10;stroke-dasharray:3.6,3.6;}
	.st3{fill:#1D1D1B;}
	.st4{fill:#010101;}
	.st5{fill:#45B0E9;}
	.st6{fill:#FFFFFF;}
</style>
<g id="Ebene_5">
	<g id="Ebene_1">
		<path class="st0" d="M2.4,138c3.6-0.8,8-0.8,9.6-4.8s4.4-12.4,7.6-11.6s6.8,19.6,9.6,21.2c2.8,1.6,6,4,7.6,2.4
			c1.6-1.6,3.6-13.2,6.4-14.8c2.8-1.6,5.6-4.4,5.2-7.6c-0.4-3.2,0.8-14,4-13.6s10,10.4,14.4,8.4s3.2-20,2.8-25.6s-0.8-26,4-29.2
			s8-3.2,8.4-7.2s3.2-12.4,8-12c4.8,0.4,8,17.6,12.4,18c4.4,0.4,12.8,3.2,13.6-0.4c0.8-3.6,0.4-9.2,4-7.6c3.6,1.6,14,6.4,14.4,8.4
			c0.4,2,6.4,5.6,10,6c3.6,0.4,31.6-1.2,34.4,0.8c2.8,2,8.8,13.2,12,14.4c3.2,1.2,6.8-3.2,10.4-3.6s13.2-0.4,14.4-1.6
			c1.2-1.2-3.2-11.2,2.4-11.6c5.6-0.4,12.4-0.8,14.8,1.2c2.4,2,8,5.2,12,4s12.4-3.6,16-1.2c3.6,2.4,17.6,16.4,20,18.4
			c2.4,2,14,4.8,17.2,8.4s5.6,8.4,14.4,8c8.8-0.4,22-3.2,28.8,0.4c6.8,3.6,29.2,15.2,32.8,14.4c3.6-0.8,1.6-4.4,3.6-6.4
			s12.8-5.2,16-3.6c3.2,1.6,4.4,10.4,10.4,13.6s22,13.6,24.8,17.6c2.8,4,8,17.2,10,21.2s2.4,7.6,4.8,8.4c2.4,0.8,5.2-1.2,7.2,0.8
			s10,7.2,14,7.2s9.6-2.8,13.2-2.4c3.6,0.4,1.2,6.4,4.8,7.6c3.6,1.2,10.4,1.6,11.2,0c0.8-1.6,2.4-6.4,5.2-5.6
			c2.8,0.8,6.8,3.9,10.1,5.4c3.3,1.5,22.8,3.9,27,3.9c4.2,0,14.1,0.3,14.7-1.5c0.6-1.8,1.2-6.6,5.4-5.7c4.2,0.9,12.9,5.4,14.7,5.7
			s13.5,0.6,15.6,1.8c2.1,1.2,8.1,5.4,12.3,5.1c4.2-0.3,10.5-3.6,14.4-3c3.9,0.6,9.3,1.5,11.1,0.6c1.8-0.9,4.2-7.2,8.4-6.6
			c4.2,0.6,9.6,5.1,12.9,5.7c3.3,0.6,16.2,5.4,19.2,3.6s14.1-7.5,13.2-10.5c-0.9-3,0.6-9.9,3.3-11.1c2.7-1.2,6.3-5.4,5.7-8.4
			c-0.6-3-5.1-19.5,1.2-21.9c6.3-2.4,17.7-7.2,22.8-7.2c5.1,0,18.6,0,21,1.8c2.4,1.8,7.5,15,9.9,18c2.4,3,21,14.4,30.9,13.2
			c9.9-1.2,15.9-9.3,20.4-9.3s7.2,0.3,13.2,4.2s18,11.7,22.2,11.1c4.2-0.6,9,0,12.3,0s9.3-3,12.3-1.5s12.9,13.5,16.8,12.9
			c3.9-0.6,31.5-6.9,37.2-5.7s7.2,4.8,11.4,5.1c4.2,0.3,6.9-4.5,9-3.6c2.1,0.9,0.6,7.2,4.2,10.2c3.6,3,8.1,7.5,8.7,8.7
			c0.6,1.2,1.5,4.5-2.4,5.7c-3.9,1.2-7.5,0.9-7.8,3.6c-0.3,2.7,1.2,9,6,10.5c4.8,1.5,8.4-2.4,11.7-3s7.8-1.5,10.2,1.5
			s6.9,11.4,8.1,14.1c1.2,2.7,0.9,16.5,3,17.7c2.1,1.2,30,13.8,41.1,13.5c11.1-0.3,43.5-4.2,53.4-3.9c9.9,0.3,23.4,1.2,29.7-1.2
			c6.3-2.4,15.3-4.5,17.4-7.2c2.1-2.7,3.3-5.4,5.7-5.1c2.4,0.3,8.1,10.2,11.7,10.2s6-2.7,10.8-1.2c4.8,1.5,9.9,5.1,13.8,3.9
			c3.9-1.2,6.6-0.9,9.3,1.2c2.7,2.1,5.1,36,5.1,43.8s-0.3,23.1-0.3,24.3c0,1.2,0.3,6.9,2.7,5.4s3-3.9,4.8-3
			c1.8,0.9,0.6,10.2,3.9,10.5c3.3,0.3,9.3,5.1,11.4,4.8s7.5-1.2,8.7,1.8c1.2,3-3.3,10.2-7.2,10.2s-11.7-1.2-14.7-0.9
			c-3,0.3-10.8-2.4-6.9-4.5s1.2-5.1-2.1-6c-3.3-0.9-16.8-2.1-21-1.5c-4.2,0.6-8.7,4.8-12.9,3.3s-14.1-3.3-19.2-5.4
			c-5.1-2.1-8.4-5.7-10.2-5.1c-1.8,0.6-6.9,1.8-11.7,0.3c-4.8-1.5-7.2-5.7-13.5-6.3c-6.3-0.6-9.9-2.7-12.9-2.7s-6.9,1.5-11.1-0.3
			c-4.2-1.8-15.9-9.3-28.2-8.7c-12.3,0.6-16.5,5.4-19.5,7.5c-3,2.1-3.9,7.8-6.9,7.8s-8.4-3.9-14.1-2.4s-14.7,6.3-20.1,5.7
			c-5.4-0.6-12.6,0.6-16.8,0.6s-11.4-7.2-14.1-8.1c-2.7-0.9-9,1.2-13.2,1.5c-4.2,0.3-9.6-2.4-13.5-1.5c-3.9,0.9-12.6,3.3-19.8,3
			c-7.2-0.3-11.7-6.3-14.7-6c-3,0.3-12.9,4.8-14.1,7.2c-1.2,2.4,1.5,6.6,0,7.5s-12.6-0.9-15-3c-2.4-2.1-5.7-4.8-6.9-3.6
			c-1.2,1.2-1.5,4.5-4.2,3.6s-13.5-7.2-21.9-7.5c-8.4-0.3-15.3,2.1-19.2,2.1c-3.9,0-6.6-3.6-9.9-3.3c-3.3,0.3-7.2,3.3-12.6,2.7
			c-5.4-0.6-11.1-4.8-18.9-4.8s-6.6,1.8-11.7-0.3c-5.1-2.1-17.4-8.1-29.7-9.9c-12.3-1.8-19.2-2.7-26.1-4.5
			c-6.9-1.8-11.7-8.7-17.7-9.9c-6-1.2-12-1.5-19.5-4.2c-7.5-2.7-21-9-36-10.8c-15-1.8-24.9-4.8-27.6-4.5c-2.7,0.3-6.3,3.9-9.9,3.3
			c-3.6-0.6-3.6-5.1-7.2-6.3c-3.6-1.2-18.9-4.5-24.9-5.1s-14.7-0.3-14.4,2.4c0.3,2.7,7.8,7.5,6.3,8.7c-1.5,1.2-8.7,0.9-12.9-0.3
			c-4.2-1.2-11.4-2.7-14.7-2.4c-3.3,0.3-14.7-8.7-21-8.7c-6.3,0-24.9,5.7-33.9,5.7s-17.7,5.1-22.8,4.2s-15.6-7.5-24-7.5
			s-23.1,2.4-28.2,0.6c-5.1-1.8-10.2-8.7-15.9-9.9c-5.7-1.2-10.8-1.8-14.4-4.5c-3.6-2.7-11.4-5.7-17.4-7.5
			c-6-1.8-11.7-12.3-17.1-12.9c-5.4-0.6-35.1-0.6-44.7-1.5c-9.6-0.9-29.4-4.2-40.8-4.2c-11.4,0-23.7-1.2-29.7-4.8
			c-6-3.6-16.8-6.6-20.4-6.3c-3.6,0.3-6.6-10.5-7.8-15c-1.2-4.5,0.9-7.5,3.3-7.5c2.4,0,7.2,0.6,6.9-1.8c-0.3-2.4-1.2-5.1,0.6-7.2
			c1.8-2.1,6.3-7.5,4.2-10.8c-2.1-3.3-5.1-7.8-18-7.5c-12.9,0.3-20.7,2.1-23.4-1.5c-2.7-3.6-7.5-5.4-12.3-6.9
			c-4.8-1.5-12-11.4-17.7-12.9c-5.7-1.5-17.7-1.5-28.2-0.3s-12-2.7-18-2.4c-6,0.3-11.7,3.6-16.8,3c-5.1-0.6-17.4-4.8-20.7-6.6
			s-2.1-7.8-7.2-8.1c-5.1-0.3-9.3-0.3-10.2,1.2c-0.9,1.5-2.1,3.6-4.2,3.6s-0.3-3.9-1.5-4.5c-1.2-0.6-3.3-0.6-4.2-2.1
			S2.4,138,2.4,138z"/>
		<path class="st0" d="M950,194c-2.4,3.9-1.8,9.6-0.6,12c1.2,2.4,6,3.6,8.7,2.7s21,3.6,27.3,6.3s19.8,2.4,27.9,0.9
			c8.1-1.5,16.5-3.9,21.3-3.3c4.8,0.6,15.3,3.3,16.5,1.2c1.2-2.1,2.1-12.3,5.7-13.2c3.6-0.9,29.4,2.1,31.5-0.3
			c2.1-2.4,0.6-8.4,3-10.2c2.4-1.8,21.3-7.8,23.4-10.5c2.1-2.7,5.1-9.6-0.3-11.1s-36.3,3.3-43.5,3s-20.1,5.4-28.2,5.7
			c-8.1,0.3-32.1,0.3-47.1,0s-28.8-0.9-33,2.4C958.4,182.9,950,194,950,194z"/>
		<path class="st0" d="M1041,338c-0.2,2.2,6.2,1.8,9.4,1.8s12.2-1.4,12-2.8s-3-2-7.6-2.2c-4.6-0.2-9.8,0-12.2,0.4
			C1040.2,335.6,1041,338,1041,338z"/>
		<path class="st0" d="M922.8,57.8c4.5-0.3,5.4,1.8,6.3,3.9c0.9,2.1,0.9,6.3,2.4,7.2c1.5,0.9,2.7,3,1.2,3.9
			c-1.5,0.9-5.7,3.3-9.6,3.3c-3.9,0-7.2-5.4-6.6-9.9c0.6-4.5,0.9-5.1,2.4-6.6S922.8,57.8,922.8,57.8z"/>
		<path class="st0" d="M645.2,58.3c-2,1-0.2,4.6-0.8,6.2c-0.6,1.6-3,3-2.8,3.4c0.2,0.4,3.8,0.2,4.2,1.6c0.4,1.4-1.4,6.2,0.8,5.8
			c2.2-0.4,1.8-4.6,3.8-4.6s4.2-1.6,4-3.2c-0.2-1.6-1.4-1.8-3.6-2c-2.2-0.2-2.8-3.2-3.2-4.6C647.2,59.5,645.2,58.3,645.2,58.3z"/>
		<path class="st0" d="M636.1,70.8c-2,0.4-3.8,1.2-2.4,2.6c1.4,1.4,2.8,0,4,0.6s2,2.6,3,2c1-0.6,1.2-3.2,0.6-4.6s-1-2-2.2-1.8
			S636.1,70.8,636.1,70.8z"/>
		<path class="st0" d="M658.2,70c-1.6,1.4-2,3-0.8,2.8c1.2-0.2,4,0.8,4-0.4s0.4-3-1-3S658.2,70,658.2,70z"/>
		<path class="st0" d="M624,48.2c1.4,0,2.2-0.4,2.4,0.6c0.2,1,1,2.6-1.6,2.6s-4.4-0.8-3.2-1.6C622.8,49.1,624,48.2,624,48.2z"/>
		<path class="st0" d="M638.7,51.9c-1.4,0.2-2,1.2-1.2,2.2c0.8,1,2.2,2,3,1.2s1.8-2,0.8-2.8C640.3,51.7,638.7,51.9,638.7,51.9z"/>
		<path class="st0" d="M192.8,56.2c-1.8,1.4-0.6,4,0.8,3.6c1.4-0.4,3.8-1,2.6-2.2S192.8,56.2,192.8,56.2z"/>
		<path class="st0" d="M197.2,48c-1.2,0.6-1.8,2.2-1,3c0.8,0.8,2.4,0.8,2.6-0.6c0.2-1.4,1-2,0-2.4C197.8,47.6,197.2,48,197.2,48z"/>
		<path class="st0" d="M183,39.2c-1.2,0.2-2.4,2.4-0.6,2.6c1.8,0.2,2.6,0,2.6-1S183,39.2,183,39.2z"/>
		<path class="st0" d="M185.4,27.6c-1.6,0.4-1.4,2.6-0.6,3c0.8,0.4,1.6,0,1.8-1.2C186.8,28.2,185.4,27.6,185.4,27.6z"/>
		<path class="st0" d="M188.8,22.8c-1.2,1-1.4,2.4,0,3.2c1.4,0.8,3.6-0.2,3-1.4C191.2,23.4,188.8,22.8,188.8,22.8z"/>
		<path class="st0" d="M192.6,28.6c-1.2,0.8-1.2,3-0.2,3.2s2.6-0.6,2.6-1.6s0-2.2-1-2.2S192.6,28.6,192.6,28.6z"/>
		<path class="st0" d="M181.4,17.6c-0.6,1-0.4,3,0.6,3.4s1.8-0.6,1.6-1.8C183.4,18,181.4,17.6,181.4,17.6z"/>
		<path class="st0" d="M187.2,16c-1.4,0.4-1.6,1.4-0.8,2.6c0.8,1.2,2.2,1.2,2.6-0.2c0.4-1.4,0.8-2.2-0.2-2.4
			C187.8,15.8,187.2,16,187.2,16z"/>
		<path class="st0" d="M181.8,9c-0.6,1.2-1.2,3.2,0.2,3.4c1.4,0.2,2.2-0.6,1.6-1.6C183,9.8,181.8,9,181.8,9z"/>
		<path class="st0" d="M188.8,9.8c-1.8,0-1.8,2.6-0.8,2.6s1.8-0.4,1.8-1.2S188.8,9.8,188.8,9.8z"/>
		<path class="st0" d="M187,0.6c-1.2,1.2-1.6,2.6-0.2,2.8c1.4,0.2,2.8-0.6,2.4-1.6S187,0.6,187,0.6z"/>
		<polyline class="st1" points="644.4,64.5 691.3,158.6 665.6,198.7 682.1,285.1 		"/>
		<polyline class="st1" points="702.9,260.6 682.1,285.1 706.6,280 		"/>
		<polyline class="st1" points="660.4,273.8 682.1,285.1 674.6,308.6 		"/>
		<path class="st2" d="M199.3,86.2c0,0,400.5-59,755.7,136.2"/>
		<line class="st1" x1="188.8" y1="22.8" x2="199.3" y2="86.2"/>
		<polyline class="st1" points="954.9,222.3 997.5,265.7 1013.9,289.1 		"/>
		<polyline class="st1" points="1161.9,304.7 1105.9,284 997.5,265.7 		"/>
		<path class="st2" d="M681.7,284.9c0,0,198.8,89,480.1,19.8"/>
	</g>
	<circle class="st3" cx="200.3" cy="86.2" r="4.3"/>
	<circle class="st3" cx="665.6" cy="198.7" r="4.3"/>
	<circle class="st3" cx="691.3" cy="158.6" r="4.3"/>
	<circle class="st3" cx="682.1" cy="285.1" r="4.3"/>
	<circle class="st3" cx="676.1" cy="304.4" r="4.3"/>
	<circle class="st3" cx="660.4" cy="273.8" r="4.3"/>
	<circle class="st3" cx="703" cy="260.6" r="4.3"/>
	<circle class="st3" cx="706.6" cy="279.7" r="4.3"/>
	<circle class="st3" cx="954.9" cy="222.3" r="4.3"/>
	<circle class="st3" cx="997.5" cy="265.7" r="4.3"/>
	<circle class="st3" cx="1161.9" cy="304.7" r="4.3"/>
	<circle class="st3" cx="1105.9" cy="284" r="4.3"/>
	<circle class="st3" cx="1014.1" cy="288.6" r="4.3"/>
	<g>
		<g>
			<g>
				<path class="st4" d="M594,285.8l1.5,4.4h0l1.6-4.4h2.5l-3,6.9v4.5h-2.3v-4.5l-3-6.9H594z"/>
				<path class="st4" d="M604.2,288.4c2.7,0,3.4,1.5,3.4,4.5c0,2.9-0.9,4.5-3.4,4.5c-2.7,0-3.4-1.5-3.4-4.5
					C600.8,290,601.7,288.4,604.2,288.4z M604.2,296c0.9,0,1.2-0.9,1.2-3s-0.3-3-1.2-3c-1.1,0-1.2,1.3-1.2,3S603.1,296,604.2,296z"
					/>
				<path class="st4" d="M615.8,288.6v8.2c0,2.3-1,3.4-3.6,3.4c-1.9,0-2.9-0.8-2.9-2.3h2.1c0,0.3,0.1,0.5,0.3,0.7
					c0.2,0.1,0.5,0.2,0.7,0.2c0.9,0,1.2-0.7,1.2-1.6v-1.1h0c-0.4,0.6-1.1,1.1-1.8,1.1c-1.8,0-2.6-1.2-2.6-4.4c0-2,0.3-4.4,2.7-4.4
					c0.6,0,1.4,0.3,1.8,1.2h0v-1H615.8z M612.5,295.5c0.9,0,1.2-1,1.2-2.5c0-2.1-0.3-2.9-1.2-2.9c-1,0-1.2,0.8-1.2,3.1
					C611.4,294.4,611.6,295.5,612.5,295.5z"/>
				<path class="st4" d="M618,298.4c0.2,0,0.4,0,0.6,0c0.8,0,1.1-0.4,1.2-1.2l-2.4-8.6h2.3l1.3,6h0l1.1-6h2.2l-2.1,8
					c-0.8,3-1.3,3.4-3.3,3.4H618V298.4z"/>
				<path class="st4" d="M625.8,291.3v-0.2c0-2,1.4-2.7,3-2.7c2.6,0,3.1,1.1,3.1,2.6v4.5c0,0.8,0,1.2,0.3,1.7h-2.1
					c-0.1-0.3-0.2-0.6-0.3-0.9h0c-0.5,0.9-1.1,1.1-2.2,1.1c-1.5,0-2.1-1.3-2.1-2.5c0-1.6,0.7-2.3,2.2-2.7l1.2-0.3
					c0.7-0.2,0.9-0.4,0.9-1c0-0.7-0.3-1.1-1-1.1c-0.7,0-1,0.4-1,1.1v0.2H625.8z M629.8,292.9c-0.3,0.2-0.7,0.4-0.9,0.4
					c-0.9,0.2-1.2,0.6-1.2,1.4c0,0.7,0.2,1.2,0.8,1.2c0.6,0,1.4-0.4,1.4-1.3V292.9z"/>
				<path class="st4" d="M636.4,285.8v6h0l2.2-3.2h2.4l-2.5,3.4l2.8,5.2H639l-1.8-3.5l-0.8,1v2.5h-2.2v-11.4H636.4z"/>
				<path class="st4" d="M642.7,291.3v-0.2c0-2,1.4-2.7,3-2.7c2.6,0,3.1,1.1,3.1,2.6v4.5c0,0.8,0,1.2,0.3,1.7H647
					c-0.1-0.3-0.2-0.6-0.3-0.9h0c-0.5,0.9-1.1,1.1-2.2,1.1c-1.5,0-2.1-1.3-2.1-2.5c0-1.6,0.7-2.3,2.2-2.7l1.2-0.3
					c0.7-0.2,0.9-0.4,0.9-1c0-0.7-0.3-1.1-1-1.1c-0.7,0-1,0.4-1,1.1v0.2H642.7z M646.8,292.9c-0.3,0.2-0.7,0.4-0.9,0.4
					c-0.9,0.2-1.2,0.6-1.2,1.4c0,0.7,0.2,1.2,0.8,1.2c0.6,0,1.4-0.4,1.4-1.3V292.9z"/>
				<path class="st4" d="M651.1,288.6h2.1v1.2h0c0.4-0.8,1.1-1.4,2-1.4c0.1,0,0.3,0,0.4,0v2.1c-0.2,0-0.5,0-0.7,0
					c-0.8,0-1.6,0.4-1.6,1.6v5.2h-2.2V288.6z"/>
				<path class="st4" d="M657.5,286.2h2.2v2.5h1.3v1.5h-1.3v4.7c0,0.7,0.1,0.9,0.8,0.9c0.2,0,0.4,0,0.5,0v1.5
					c-0.5,0-0.9,0.1-1.4,0.1c-1.7,0-2-0.5-2-2.3v-4.9h-1.1v-1.5h1.1V286.2z"/>
				<path class="st4" d="M662.4,291.3v-0.2c0-2,1.4-2.7,3-2.7c2.6,0,3.1,1.1,3.1,2.6v4.5c0,0.8,0,1.2,0.3,1.7h-2.1
					c-0.1-0.3-0.2-0.6-0.3-0.9h0c-0.5,0.9-1.1,1.1-2.2,1.1c-1.5,0-2.1-1.3-2.1-2.5c0-1.6,0.7-2.3,2.2-2.7l1.2-0.3
					c0.7-0.2,0.9-0.4,0.9-1c0-0.7-0.3-1.1-1-1.1c-0.7,0-1,0.4-1,1.1v0.2H662.4z M666.5,292.9c-0.3,0.2-0.7,0.4-0.9,0.4
					c-0.9,0.2-1.2,0.6-1.2,1.4c0,0.7,0.2,1.2,0.8,1.2c0.6,0,1.4-0.4,1.4-1.3V292.9z"/>
			</g>
		</g>
	</g>
	<g>
		<g>
			<g>
				<path class="st4" d="M579.9,260h3.9c1.9,0,3.2,0.7,3.2,2.9c0,1.2-0.6,2.2-1.7,2.5v0c1.3,0.2,2.1,1.1,2.1,2.7
					c0,1.8-0.9,3.3-3.6,3.3h-3.9V260z M582.2,264.7h0.7c1.3,0,1.8-0.4,1.8-1.5c0-1.1-0.5-1.5-1.7-1.5h-0.8V264.7z M582.2,269.8h0.9
					c1.1,0,1.9-0.4,1.9-1.7c0-1.3-0.8-1.7-1.8-1.7h-1V269.8z"/>
				<path class="st4" d="M592.5,262.6c2.7,0,3.4,1.5,3.4,4.5c0,2.9-0.9,4.5-3.4,4.5c-2.7,0-3.4-1.5-3.4-4.5
					C589.1,264.2,589.9,262.6,592.5,262.6z M592.5,270.2c0.9,0,1.2-0.9,1.2-3s-0.3-3-1.2-3c-1.1,0-1.2,1.3-1.2,3
					S591.4,270.2,592.5,270.2z"/>
				<path class="st4" d="M597.7,262.8h2.1v1.2h0c0.4-0.8,1.1-1.4,2-1.4c0.1,0,0.3,0,0.4,0v2.1c-0.2,0-0.5,0-0.7,0
					c-0.8,0-1.6,0.4-1.6,1.6v5.2h-2.2V262.8z"/>
				<path class="st4" d="M606.8,262.6c2.7,0,3.4,1.5,3.4,4.5c0,2.9-0.9,4.5-3.4,4.5c-2.7,0-3.4-1.5-3.4-4.5
					C603.4,264.2,604.2,262.6,606.8,262.6z M606.8,270.2c0.9,0,1.2-0.9,1.2-3s-0.3-3-1.2-3c-1.1,0-1.2,1.3-1.2,3
					S605.7,270.2,606.8,270.2z"/>
				<path class="st4" d="M612,260h2.2v3.6h0c0.5-0.7,1-1,1.9-1c1.8,0,2.6,1.3,2.6,4.5s-0.8,4.5-2.6,4.5c-0.9,0-1.5-0.3-2-1.1h0v0.9
					H612V260z M615.3,270c1,0,1.2-1,1.2-2.8s-0.2-2.8-1.2-2.8c-1,0-1.2,1-1.2,2.8S614.4,270,615.3,270z"/>
				<path class="st4" d="M625,270.4L625,270.4c-0.5,0.8-1.3,1.2-2.2,1.2c-1.4,0-2.2-0.8-2.2-2.4v-6.4h2.2v5.9c0,0.9,0.3,1.2,0.9,1.2
					c0.8,0,1.2-0.5,1.2-1.4v-5.7h2.2v8.6H625V270.4z"/>
				<path class="st4" d="M633.7,270.5L633.7,270.5c-0.5,0.8-1.1,1.1-2,1.1c-1.8,0-2.6-1.3-2.6-4.5s0.8-4.5,2.6-4.5
					c0.8,0,1.4,0.3,1.9,1h0V260h2.2v11.4h-2.1V270.5z M632.4,270c1,0,1.2-1,1.2-2.8s-0.2-2.8-1.2-2.8c-1,0-1.2,1-1.2,2.8
					S631.4,270,632.4,270z"/>
				<path class="st4" d="M642.3,270.4L642.3,270.4c-0.5,0.8-1.3,1.2-2.2,1.2c-1.4,0-2.2-0.8-2.2-2.4v-6.4h2.2v5.9
					c0,0.9,0.3,1.2,0.9,1.2c0.8,0,1.2-0.5,1.2-1.4v-5.7h2.2v8.6h-2.1V270.4z"/>
				<path class="st4" d="M646.5,262.8h2.1v1.2h0c0.4-0.8,1.1-1.4,2-1.4c0.1,0,0.3,0,0.4,0v2.1c-0.2,0-0.5,0-0.7,0
					c-0.8,0-1.6,0.4-1.6,1.6v5.2h-2.2V262.8z"/>
			</g>
		</g>
	</g>
	<g>
		<g>
			<g>
				<path class="st4" d="M717.6,274.4h4c2.3,0,3.1,1.7,3.1,3.4c0,2.4-1.5,3.4-3.6,3.4h-1.2v4.6h-2.3V274.4z M719.9,279.6h1
					c0.9,0,1.5-0.5,1.5-1.7c0-1.1-0.4-1.8-1.6-1.8h-1V279.6z"/>
				<path class="st4" d="M726.5,277.2h2.1v1.2h0c0.4-0.8,1.1-1.4,2-1.4c0.1,0,0.3,0,0.4,0v2.1c-0.2,0-0.5,0-0.7,0
					c-0.8,0-1.6,0.4-1.6,1.6v5.2h-2.2V277.2z"/>
				<path class="st4" d="M732.5,279.9v-0.2c0-2,1.4-2.7,3-2.7c2.6,0,3.1,1.1,3.1,2.6v4.5c0,0.8,0,1.2,0.3,1.7h-2.1
					c-0.1-0.3-0.2-0.6-0.3-0.9h0c-0.5,0.9-1.1,1.1-2.2,1.1c-1.5,0-2.1-1.3-2.1-2.5c0-1.6,0.7-2.3,2.2-2.7l1.2-0.3
					c0.7-0.2,0.9-0.4,0.9-1c0-0.7-0.3-1.1-1-1.1c-0.7,0-1,0.4-1,1.1v0.2H732.5z M736.5,281.5c-0.3,0.2-0.7,0.4-0.9,0.4
					c-0.9,0.2-1.2,0.6-1.2,1.4c0,0.7,0.2,1.2,0.8,1.2c0.6,0,1.4-0.4,1.4-1.3V281.5z"/>
				<path class="st4" d="M740.8,277.2h2.1v0.9h0c0.6-0.8,1.2-1.1,2.2-1.1c1,0,1.7,0.5,2,1.4h0c0.3-0.9,1.1-1.4,2.2-1.4
					c1.5,0,2.1,0.9,2.1,2.6v6.3h-2.2v-6c0-0.7-0.2-1.1-0.9-1.1c-0.7,0-1.2,0.5-1.2,1.5v5.7H745v-6c0-0.7-0.2-1.1-0.9-1.1
					c-0.7,0-1.2,0.5-1.2,1.5v5.7h-2.2V277.2z"/>
				<path class="st4" d="M753.6,274.4h2.2v3.6h0c0.5-0.7,1-1,1.9-1c1.8,0,2.6,1.3,2.6,4.5s-0.8,4.5-2.6,4.5c-0.9,0-1.5-0.3-2-1.1h0
					v0.9h-2.1V274.4z M756.9,284.4c1,0,1.2-1,1.2-2.8s-0.2-2.8-1.2-2.8c-1,0-1.2,1-1.2,2.8S756,284.4,756.9,284.4z"/>
				<path class="st4" d="M762.2,279.9v-0.2c0-2,1.4-2.7,3-2.7c2.6,0,3.1,1.1,3.1,2.6v4.5c0,0.8,0,1.2,0.3,1.7h-2.1
					c-0.1-0.3-0.2-0.6-0.3-0.9h0c-0.5,0.9-1.1,1.1-2.2,1.1c-1.5,0-2.1-1.3-2.1-2.5c0-1.6,0.7-2.3,2.2-2.7l1.2-0.3
					c0.7-0.2,0.9-0.4,0.9-1c0-0.7-0.3-1.1-1-1.1c-0.7,0-1,0.4-1,1.1v0.2H762.2z M766.2,281.5c-0.3,0.2-0.7,0.4-0.9,0.4
					c-0.9,0.2-1.2,0.6-1.2,1.4c0,0.7,0.2,1.2,0.8,1.2c0.6,0,1.4-0.4,1.4-1.3V281.5z"/>
				<path class="st4" d="M770.5,277.2h2.1v1h0c0.5-0.8,1.3-1.2,2.2-1.2c1.4,0,2.2,0.8,2.2,2.4v6.4h-2.2v-5.9c0-0.9-0.3-1.2-0.9-1.2
					c-0.8,0-1.2,0.5-1.2,1.4v5.7h-2.2V277.2z"/>
				<path class="st4" d="M779.2,279.9v-0.2c0-2,1.4-2.7,3-2.7c2.6,0,3.1,1.1,3.1,2.6v4.5c0,0.8,0,1.2,0.3,1.7h-2.1
					c-0.1-0.3-0.2-0.6-0.3-0.9h0c-0.5,0.9-1.1,1.1-2.2,1.1c-1.5,0-2.1-1.3-2.1-2.5c0-1.6,0.7-2.3,2.2-2.7l1.2-0.3
					c0.7-0.2,0.9-0.4,0.9-1c0-0.7-0.3-1.1-1-1.1c-0.7,0-1,0.4-1,1.1v0.2H779.2z M783.2,281.5c-0.3,0.2-0.7,0.4-0.9,0.4
					c-0.9,0.2-1.2,0.6-1.2,1.4c0,0.7,0.2,1.2,0.8,1.2c0.6,0,1.4-0.4,1.4-1.3V281.5z"/>
				<path class="st4" d="M787.5,277.2h2.1v1h0c0.5-0.8,1.3-1.2,2.2-1.2c1.4,0,2.2,0.8,2.2,2.4v6.4h-2.2v-5.9c0-0.9-0.3-1.2-0.9-1.2
					c-0.8,0-1.2,0.5-1.2,1.4v5.7h-2.2V277.2z"/>
			</g>
		</g>
	</g>
	<g>
		<g>
			<g>
				<path class="st4" d="M709.6,242.2h3.4l1.6,8.1h0l1.6-8.1h3.4v11.4h-2.1v-9.1h0l-2,9.1h-1.8l-2-9.1h0v9.1h-2.1V242.2z"/>
				<path class="st4" d="M722.4,242.5h2.2v2.5h1.3v1.5h-1.3v4.7c0,0.7,0.1,0.9,0.8,0.9c0.2,0,0.4,0,0.5,0v1.5
					c-0.5,0-0.9,0.1-1.4,0.1c-1.7,0-2-0.5-2-2.3v-4.9h-1.1V245h1.1V242.5z"/>
				<path class="st4" d="M731.9,242.2h3.4l1.6,8.1h0l1.6-8.1h3.4v11.4h-2.1v-9.1h0l-2,9.1h-1.8l-2-9.1h0v9.1h-2.1V242.2z"/>
				<path class="st4" d="M746.2,249.6v0.7c0,1,0.3,2,1.1,2c0.7,0,1-0.6,1.2-1.6h2c-0.1,2-1,3.1-3.1,3.1c-3.2,0-3.3-2.5-3.3-4.6
					c0-2.3,0.4-4.5,3.4-4.5c2.6,0,3.2,1.7,3.2,4.4v0.5H746.2z M748.4,248.3c0-1.3-0.2-2-1.1-2c-0.9,0-1.1,0.9-1.1,1.7v0.3H748.4z"/>
				<path class="st4" d="M752.3,245h2.1v1.2h0c0.4-0.8,1.1-1.4,2-1.4c0.1,0,0.3,0,0.4,0v2.1c-0.2,0-0.5,0-0.7,0
					c-0.8,0-1.6,0.4-1.6,1.6v5.2h-2.2V245z"/>
				<path class="st4" d="M758.3,247.6v-0.2c0-2,1.4-2.7,3-2.7c2.6,0,3.1,1.1,3.1,2.6v4.5c0,0.8,0,1.2,0.3,1.7h-2.1
					c-0.1-0.3-0.2-0.6-0.3-0.9h0c-0.5,0.9-1.1,1.1-2.2,1.1c-1.5,0-2.1-1.3-2.1-2.5c0-1.6,0.7-2.3,2.2-2.7l1.2-0.3
					c0.7-0.2,0.9-0.4,0.9-1c0-0.7-0.3-1.1-1-1.1c-0.7,0-1,0.4-1,1.1v0.2H758.3z M762.3,249.3c-0.3,0.2-0.7,0.4-0.9,0.4
					c-0.9,0.2-1.2,0.6-1.2,1.4c0,0.7,0.2,1.2,0.8,1.2c0.6,0,1.4-0.4,1.4-1.3V249.3z"/>
				<path class="st4" d="M766.6,245h2.1v0.9h0c0.5-0.8,1.1-1.1,2-1.1c1.8,0,2.6,1.3,2.6,4.5s-0.8,4.5-2.6,4.5c-0.8,0-1.4-0.3-1.9-1
					h0v3.6h-2.2V245z M770,252.1c1,0,1.2-1,1.2-2.8s-0.2-2.8-1.2-2.8c-1,0-1.2,1-1.2,2.8S769,252.1,770,252.1z"/>
				<path class="st4" d="M775.3,242.1h2.2v1.9h-2.2V242.1z M775.3,245h2.2v8.6h-2.2V245z"/>
			</g>
		</g>
	</g>
	<g>
		<g>
			<g>
				<path class="st4" d="M591.7,210.9v0.3c0,1.1,0.3,1.8,1.5,1.8c0.7,0,1.4-0.4,1.4-1.4c0-1-0.5-1.4-2-2c-2-0.7-3-1.6-3-3.5
					c0-2.2,1.4-3.4,3.5-3.4c2,0,3.5,0.9,3.5,3.1v0.3h-2.2c0-1.1-0.4-1.7-1.2-1.7c-1,0-1.3,0.7-1.3,1.3c0,0.7,0.2,1.1,1.2,1.6
					l1.8,0.8c1.7,0.8,2.2,1.6,2.2,3c0,2.4-1.5,3.5-4,3.5c-2.6,0-3.6-1.2-3.6-3.3v-0.5H591.7z"/>
				<path class="st4" d="M600.6,210.5v0.7c0,1,0.3,2,1.1,2c0.7,0,1-0.6,1.2-1.6h2c-0.1,2-1,3.1-3.1,3.1c-3.2,0-3.3-2.5-3.3-4.6
					c0-2.3,0.4-4.5,3.4-4.5c2.6,0,3.2,1.7,3.2,4.4v0.5H600.6z M602.9,209.2c0-1.3-0.2-2-1.1-2c-0.9,0-1.1,0.9-1.1,1.7v0.3H602.9z"/>
				<path class="st4" d="M606.8,205.9h2.1v0.9h0c0.6-0.8,1.2-1.1,2.2-1.1c1,0,1.7,0.5,2,1.4h0c0.3-0.9,1.1-1.4,2.2-1.4
					c1.5,0,2.1,0.9,2.1,2.6v6.3h-2.2v-6c0-0.7-0.2-1.1-0.9-1.1c-0.7,0-1.2,0.5-1.2,1.5v5.7H611v-6c0-0.7-0.2-1.1-0.9-1.1
					c-0.7,0-1.2,0.5-1.2,1.5v5.7h-2.2V205.9z"/>
				<path class="st4" d="M619.5,208.5v-0.2c0-2,1.4-2.7,3-2.7c2.6,0,3.1,1.1,3.1,2.6v4.5c0,0.8,0,1.2,0.3,1.7h-2.1
					c-0.1-0.3-0.2-0.6-0.3-0.9h0c-0.5,0.9-1.1,1.1-2.2,1.1c-1.5,0-2.1-1.3-2.1-2.5c0-1.6,0.7-2.3,2.2-2.7l1.2-0.3
					c0.7-0.2,0.9-0.4,0.9-1c0-0.7-0.3-1.1-1-1.1c-0.7,0-1,0.4-1,1.1v0.2H619.5z M623.6,210.2c-0.3,0.2-0.7,0.4-0.9,0.4
					c-0.9,0.2-1.2,0.6-1.2,1.4c0,0.7,0.2,1.2,0.8,1.2c0.6,0,1.4-0.4,1.4-1.3V210.2z"/>
				<path class="st4" d="M627.9,205.9h2.1v1.2h0c0.4-0.8,1.1-1.4,2-1.4c0.1,0,0.3,0,0.4,0v2.1c-0.2,0-0.5,0-0.7,0
					c-0.8,0-1.6,0.4-1.6,1.6v5.2h-2.2V205.9z"/>
				<path class="st4" d="M633.8,208.5v-0.2c0-2,1.4-2.7,3-2.7c2.6,0,3.1,1.1,3.1,2.6v4.5c0,0.8,0,1.2,0.3,1.7h-2.1
					c-0.1-0.3-0.2-0.6-0.3-0.9h0c-0.5,0.9-1.1,1.1-2.2,1.1c-1.5,0-2.1-1.3-2.1-2.5c0-1.6,0.7-2.3,2.2-2.7l1.2-0.3
					c0.7-0.2,0.9-0.4,0.9-1c0-0.7-0.3-1.1-1-1.1c-0.7,0-1,0.4-1,1.1v0.2H633.8z M637.9,210.2c-0.3,0.2-0.7,0.4-0.9,0.4
					c-0.9,0.2-1.2,0.6-1.2,1.4c0,0.7,0.2,1.2,0.8,1.2c0.6,0,1.4-0.4,1.4-1.3V210.2z"/>
				<path class="st4" d="M642.2,205.9h2.1v1h0c0.5-0.8,1.3-1.2,2.2-1.2c1.4,0,2.2,0.8,2.2,2.4v6.4h-2.2v-5.9c0-0.9-0.3-1.2-0.9-1.2
					c-0.8,0-1.2,0.5-1.2,1.4v5.7h-2.2V205.9z"/>
				<path class="st4" d="M657.3,205.9v8.2c0,2.3-1,3.4-3.6,3.4c-1.9,0-2.9-0.8-2.9-2.3h2.1c0,0.3,0.1,0.5,0.3,0.7
					c0.2,0.1,0.5,0.2,0.7,0.2c0.9,0,1.2-0.7,1.2-1.6v-1.1h0c-0.4,0.6-1.1,1.1-1.8,1.1c-1.8,0-2.6-1.2-2.6-4.4c0-2,0.3-4.4,2.7-4.4
					c0.6,0,1.4,0.3,1.8,1.2h0v-1H657.3z M654,212.7c0.9,0,1.2-1,1.2-2.5c0-2.1-0.3-2.9-1.2-2.9c-1,0-1.2,0.8-1.2,3.1
					C652.9,211.6,653,212.7,654,212.7z"/>
			</g>
		</g>
	</g>
	<g>
		<g>
			<g>
				<path class="st4" d="M703.1,160.2v8.2c0,2.4-1.1,3.4-3.4,3.4c-2.4,0-3-1.6-3-3.3V168h2.1v0.4c0,1.2,0.2,1.8,1,1.8
					c0.8,0,1-0.6,1-1.8v-8.2H703.1z"/>
				<path class="st4" d="M707,167.7v0.7c0,1,0.3,2,1.1,2c0.7,0,1-0.6,1.2-1.6h2c-0.1,2-1,3.1-3.1,3.1c-3.2,0-3.3-2.5-3.3-4.6
					c0-2.3,0.4-4.4,3.4-4.4c2.6,0,3.2,1.7,3.2,4.4v0.5H707z M709.3,166.4c0-1.3-0.2-2-1.1-2c-0.9,0-1.1,0.9-1.1,1.7v0.3H709.3z"/>
				<path class="st4" d="M713.2,163h2.1v0.9h0c0.5-0.8,1.1-1.1,2-1.1c1.8,0,2.6,1.3,2.6,4.5s-0.8,4.5-2.6,4.5c-0.8,0-1.4-0.3-1.9-1
					h0v3.6h-2.2V163z M716.6,170.2c1,0,1.2-1,1.2-2.8c0-1.9-0.2-2.8-1.2-2.8c-1,0-1.2,1-1.2,2.8
					C715.4,169.2,715.6,170.2,716.6,170.2z"/>
				<path class="st4" d="M721.8,165.7v-0.2c0-2,1.4-2.7,3-2.7c2.6,0,3.1,1.1,3.1,2.6v4.5c0,0.8,0,1.2,0.3,1.7h-2.1
					c-0.1-0.3-0.2-0.6-0.3-0.9h0c-0.5,0.9-1.1,1.1-2.2,1.1c-1.5,0-2.1-1.3-2.1-2.5c0-1.6,0.7-2.3,2.2-2.7l1.2-0.3
					c0.7-0.2,0.9-0.4,0.9-1c0-0.7-0.3-1.1-1-1.1c-0.7,0-1,0.4-1,1.1v0.2H721.8z M725.8,167.3c-0.3,0.2-0.7,0.4-0.9,0.4
					c-0.9,0.2-1.2,0.6-1.2,1.4c0,0.7,0.2,1.2,0.8,1.2c0.6,0,1.4-0.4,1.4-1.3V167.3z"/>
				<path class="st4" d="M730.2,163h2.1v1.2h0c0.4-0.8,1.1-1.4,2-1.4c0.1,0,0.3,0,0.4,0v2.1c-0.2,0-0.5,0-0.7,0
					c-0.8,0-1.6,0.4-1.6,1.6v5.2h-2.2V163z"/>
				<path class="st4" d="M736.1,165.7v-0.2c0-2,1.4-2.7,3-2.7c2.6,0,3.1,1.1,3.1,2.6v4.5c0,0.8,0,1.2,0.3,1.7h-2.1
					c-0.1-0.3-0.2-0.6-0.3-0.9h0c-0.5,0.9-1.1,1.1-2.2,1.1c-1.5,0-2.1-1.3-2.1-2.5c0-1.6,0.7-2.3,2.2-2.7l1.2-0.3
					c0.7-0.2,0.9-0.4,0.9-1c0-0.7-0.3-1.1-1-1.1c-0.7,0-1,0.4-1,1.1v0.2H736.1z M740.2,167.3c-0.3,0.2-0.7,0.4-0.9,0.4
					c-0.9,0.2-1.2,0.6-1.2,1.4c0,0.7,0.2,1.2,0.8,1.2c0.6,0,1.4-0.4,1.4-1.3V167.3z"/>
			</g>
		</g>
	</g>
	<g>
		<g>
			<g>
				<path class="st4" d="M883,232.9v0.3c0,1.1,0.3,1.8,1.5,1.8c0.7,0,1.4-0.4,1.4-1.4c0-1-0.5-1.4-2-2c-2-0.7-3-1.6-3-3.5
					c0-2.2,1.4-3.4,3.5-3.4c2,0,3.5,0.9,3.5,3.1v0.3h-2.2c0-1.1-0.4-1.7-1.2-1.7c-1,0-1.3,0.7-1.3,1.3c0,0.7,0.2,1.1,1.2,1.6
					l1.8,0.8c1.7,0.8,2.2,1.6,2.2,3c0,2.4-1.5,3.5-4,3.5c-2.6,0-3.6-1.2-3.6-3.3v-0.5H883z"/>
				<path class="st4" d="M894.5,235.5L894.5,235.5c-0.5,0.8-1.3,1.2-2.2,1.2c-1.4,0-2.2-0.8-2.2-2.4v-6.4h2.2v5.9
					c0,0.9,0.3,1.2,0.9,1.2c0.8,0,1.2-0.5,1.2-1.4v-5.7h2.2v8.6h-2.1V235.5z"/>
				<path class="st4" d="M898.7,227.9h2.1v1.2h0c0.4-0.8,1.1-1.4,2-1.4c0.1,0,0.3,0,0.4,0v2.1c-0.2,0-0.5,0-0.7,0
					c-0.8,0-1.6,0.4-1.6,1.6v5.2h-2.2V227.9z"/>
				<path class="st4" d="M904.7,230.5v-0.2c0-2,1.4-2.7,3-2.7c2.6,0,3.1,1.1,3.1,2.6v4.5c0,0.8,0,1.2,0.3,1.7H909
					c-0.1-0.3-0.2-0.6-0.3-0.9h0c-0.5,0.9-1.1,1.1-2.2,1.1c-1.5,0-2.1-1.3-2.1-2.5c0-1.6,0.7-2.3,2.2-2.7l1.2-0.3
					c0.7-0.2,0.9-0.4,0.9-1c0-0.7-0.3-1.1-1-1.1c-0.7,0-1,0.4-1,1.1v0.2H904.7z M908.7,232.2c-0.3,0.2-0.7,0.4-0.9,0.4
					c-0.9,0.2-1.2,0.6-1.2,1.4c0,0.7,0.2,1.2,0.8,1.2c0.6,0,1.4-0.4,1.4-1.3V232.2z"/>
				<path class="st4" d="M913,225.1h2.2v3.6h0c0.5-0.7,1-1,1.9-1c1.8,0,2.6,1.3,2.6,4.5s-0.8,4.5-2.6,4.5c-0.9,0-1.5-0.3-2-1.1h0
					v0.9H913V225.1z M916.4,235c1,0,1.2-1,1.2-2.8s-0.2-2.8-1.2-2.8c-1,0-1.2,1-1.2,2.8S915.4,235,916.4,235z"/>
				<path class="st4" d="M921.6,230.5v-0.2c0-2,1.4-2.7,3-2.7c2.6,0,3.1,1.1,3.1,2.6v4.5c0,0.8,0,1.2,0.3,1.7h-2.1
					c-0.1-0.3-0.2-0.6-0.3-0.9h0c-0.5,0.9-1.1,1.1-2.2,1.1c-1.5,0-2.1-1.3-2.1-2.5c0-1.6,0.7-2.3,2.2-2.7l1.2-0.3
					c0.7-0.2,0.9-0.4,0.9-1c0-0.7-0.3-1.1-1-1.1c-0.7,0-1,0.4-1,1.1v0.2H921.6z M925.7,232.2c-0.3,0.2-0.7,0.4-0.9,0.4
					c-0.9,0.2-1.2,0.6-1.2,1.4c0,0.7,0.2,1.2,0.8,1.2c0.6,0,1.4-0.4,1.4-1.3V232.2z"/>
				<path class="st4" d="M930,237.7c0.2,0,0.4,0,0.6,0c0.8,0,1.1-0.4,1.2-1.2l-2.4-8.6h2.3l1.3,6h0l1.1-6h2.2l-2.1,8
					c-0.8,3-1.3,3.4-3.3,3.4H930V237.7z"/>
				<path class="st4" d="M937.7,230.5v-0.2c0-2,1.4-2.7,3-2.7c2.6,0,3.1,1.1,3.1,2.6v4.5c0,0.8,0,1.2,0.3,1.7H942
					c-0.1-0.3-0.2-0.6-0.3-0.9h0c-0.5,0.9-1.1,1.1-2.2,1.1c-1.5,0-2.1-1.3-2.1-2.5c0-1.6,0.7-2.3,2.2-2.7l1.2-0.3
					c0.7-0.2,0.9-0.4,0.9-1c0-0.7-0.3-1.1-1-1.1c-0.7,0-1,0.4-1,1.1v0.2H937.7z M941.7,232.2c-0.3,0.2-0.7,0.4-0.9,0.4
					c-0.9,0.2-1.2,0.6-1.2,1.4c0,0.7,0.2,1.2,0.8,1.2c0.6,0,1.4-0.4,1.4-1.3V232.2z"/>
			</g>
		</g>
	</g>
	<g>
		<g>
			<g>
				<path class="st4" d="M1024.3,293.3h3.4l1.6,8.1h0l1.6-8.1h3.4v11.4h-2.1v-9.1h0l-2,9.1h-1.8l-2-9.1h0v9.1h-2.1V293.3z"/>
				<path class="st4" d="M1037.1,293.6h2.2v2.5h1.3v1.5h-1.3v4.7c0,0.7,0.1,0.9,0.8,0.9c0.2,0,0.4,0,0.5,0v1.5
					c-0.5,0-0.9,0.1-1.4,0.1c-1.7,0-2-0.5-2-2.3v-4.9h-1.1v-1.5h1.1V293.6z"/>
				<path class="st4" d="M1046.6,293.3h3.9c1.9,0,3.2,0.7,3.2,2.9c0,1.2-0.6,2.2-1.7,2.5v0c1.3,0.2,2.1,1.1,2.1,2.7
					c0,1.8-0.9,3.3-3.6,3.3h-3.9V293.3z M1048.9,298h0.7c1.3,0,1.8-0.4,1.8-1.5c0-1.1-0.5-1.5-1.7-1.5h-0.8V298z M1048.9,303h0.9
					c1.1,0,1.9-0.4,1.9-1.7c0-1.3-0.8-1.7-1.8-1.7h-1V303z"/>
				<path class="st4" d="M1056.1,296.1h2.1v1.2h0c0.4-0.8,1.1-1.4,2-1.4c0.1,0,0.3,0,0.4,0v2.1c-0.2,0-0.5,0-0.7,0
					c-0.8,0-1.6,0.4-1.6,1.6v5.2h-2.2V296.1z"/>
				<path class="st4" d="M1065.1,295.9c2.7,0,3.4,1.5,3.4,4.5c0,2.9-0.9,4.5-3.4,4.5c-2.7,0-3.4-1.5-3.4-4.5
					C1061.7,297.4,1062.6,295.9,1065.1,295.9z M1065.1,303.4c0.9,0,1.2-0.9,1.2-3s-0.3-3-1.2-3c-1.1,0-1.2,1.3-1.2,3
					S1064,303.4,1065.1,303.4z"/>
				<path class="st4" d="M1070.3,296.1h2.1v0.9h0c0.6-0.8,1.2-1.1,2.2-1.1c1,0,1.7,0.5,2,1.4h0c0.3-0.9,1.1-1.4,2.2-1.4
					c1.5,0,2.1,0.9,2.1,2.6v6.3h-2.2v-6c0-0.7-0.2-1.1-0.9-1.1c-0.7,0-1.2,0.5-1.2,1.5v5.7h-2.2v-6c0-0.7-0.2-1.1-0.9-1.1
					c-0.7,0-1.2,0.5-1.2,1.5v5.7h-2.2V296.1z"/>
				<path class="st4" d="M1086.2,295.9c2.7,0,3.4,1.5,3.4,4.5c0,2.9-0.9,4.5-3.4,4.5c-2.7,0-3.4-1.5-3.4-4.5
					C1082.8,297.4,1083.7,295.9,1086.2,295.9z M1086.2,303.4c0.9,0,1.2-0.9,1.2-3s-0.3-3-1.2-3c-1.1,0-1.2,1.3-1.2,3
					S1085.1,303.4,1086.2,303.4z"/>
			</g>
		</g>
	</g>
	<g>
		<g>
			<g>
				<path class="st4" d="M998.3,244.3h4c2.3,0,3.1,1.7,3.1,3.4c0,2.4-1.5,3.4-3.6,3.4h-1.2v4.6h-2.3V244.3z M1000.6,249.5h1
					c0.9,0,1.5-0.5,1.5-1.7c0-1.1-0.4-1.8-1.6-1.8h-1V249.5z"/>
				<path class="st4" d="M1007.2,247.1h2.1v1.2h0c0.4-0.8,1.1-1.4,2-1.4c0.1,0,0.3,0,0.4,0v2.1c-0.2,0-0.5,0-0.7,0
					c-0.8,0-1.6,0.4-1.6,1.6v5.2h-2.2V247.1z"/>
				<path class="st4" d="M1016.3,246.9c2.7,0,3.4,1.5,3.4,4.5c0,2.9-0.9,4.5-3.4,4.5c-2.7,0-3.4-1.5-3.4-4.5
					C1012.9,248.5,1013.7,246.9,1016.3,246.9z M1016.3,254.4c0.9,0,1.2-0.9,1.2-3s-0.3-3-1.2-3c-1.1,0-1.2,1.3-1.2,3
					S1015.2,254.4,1016.3,254.4z"/>
				<path class="st4" d="M1021.5,244.3h2.2v3.6h0c0.5-0.7,1-1,1.9-1c1.8,0,2.6,1.3,2.6,4.5s-0.8,4.5-2.6,4.5c-0.9,0-1.5-0.3-2-1.1h0
					v0.9h-2.1V244.3z M1024.9,254.2c1,0,1.2-1,1.2-2.8s-0.2-2.8-1.2-2.8c-1,0-1.2,1-1.2,2.8S1023.9,254.2,1024.9,254.2z"/>
				<path class="st4" d="M1033.2,246.9c2.7,0,3.4,1.5,3.4,4.5c0,2.9-0.9,4.5-3.4,4.5c-2.7,0-3.4-1.5-3.4-4.5
					C1029.8,248.5,1030.7,246.9,1033.2,246.9z M1033.2,254.4c0.9,0,1.2-0.9,1.2-3s-0.3-3-1.2-3c-1.1,0-1.2,1.3-1.2,3
					S1032.1,254.4,1033.2,254.4z"/>
				<path class="st4" d="M1038.5,244.3h2.2v11.4h-2.2V244.3z"/>
				<path class="st4" d="M1043,244.2h2.2v1.9h-2.2V244.2z M1043,247.1h2.2v8.6h-2.2V247.1z"/>
				<path class="st4" d="M1047.4,247.1h2.1v1h0c0.5-0.8,1.3-1.2,2.2-1.2c1.4,0,2.2,0.8,2.2,2.4v6.4h-2.2v-5.9c0-0.9-0.3-1.2-0.9-1.2
					c-0.8,0-1.2,0.5-1.2,1.4v5.7h-2.2V247.1z"/>
				<path class="st4" d="M1062.5,247.1v8.2c0,2.3-1,3.4-3.6,3.4c-1.9,0-2.9-0.8-2.9-2.3h2.1c0,0.3,0.1,0.5,0.3,0.7
					c0.2,0.1,0.5,0.2,0.7,0.2c0.9,0,1.2-0.7,1.2-1.6v-1.1h0c-0.4,0.6-1.1,1.1-1.8,1.1c-1.8,0-2.6-1.2-2.6-4.4c0-2,0.3-4.4,2.7-4.4
					c0.6,0,1.4,0.3,1.8,1.2h0v-1H1062.5z M1059.2,253.9c0.9,0,1.2-1,1.2-2.5c0-2.1-0.3-2.9-1.2-2.9c-1,0-1.2,0.8-1.2,3.1
					C1058.1,252.9,1058.3,253.9,1059.2,253.9z"/>
				<path class="st4" d="M1071.1,247.1v8.2c0,2.3-1,3.4-3.6,3.4c-1.9,0-2.9-0.8-2.9-2.3h2.1c0,0.3,0.1,0.5,0.3,0.7
					c0.2,0.1,0.5,0.2,0.7,0.2c0.9,0,1.2-0.7,1.2-1.6v-1.1h0c-0.4,0.6-1.1,1.1-1.8,1.1c-1.8,0-2.6-1.2-2.6-4.4c0-2,0.3-4.4,2.7-4.4
					c0.6,0,1.4,0.3,1.8,1.2h0v-1H1071.1z M1067.8,253.9c0.9,0,1.2-1,1.2-2.5c0-2.1-0.3-2.9-1.2-2.9c-1,0-1.2,0.8-1.2,3.1
					C1066.7,252.9,1066.9,253.9,1067.8,253.9z"/>
				<path class="st4" d="M1076.4,246.9c2.7,0,3.4,1.5,3.4,4.5c0,2.9-0.9,4.5-3.4,4.5c-2.7,0-3.4-1.5-3.4-4.5
					C1073,248.5,1073.9,246.9,1076.4,246.9z M1076.4,254.4c0.9,0,1.2-0.9,1.2-3s-0.3-3-1.2-3c-1.1,0-1.2,1.3-1.2,3
					S1075.3,254.4,1076.4,254.4z"/>
			</g>
		</g>
	</g>
	<g>
		<g>
			<g>
				<path class="st4" d="M1157.5,314h3.9c1.9,0,3.2,0.7,3.2,2.9c0,1.2-0.6,2.2-1.7,2.5v0c1.3,0.2,2.1,1.1,2.1,2.7
					c0,1.8-0.9,3.3-3.6,3.3h-3.9V314z M1159.8,318.7h0.7c1.3,0,1.8-0.4,1.8-1.5c0-1.1-0.5-1.5-1.7-1.5h-0.8V318.7z M1159.8,323.8
					h0.9c1.1,0,1.9-0.4,1.9-1.7c0-1.3-0.8-1.7-1.8-1.7h-1V323.8z"/>
				<path class="st4" d="M1167,319.5v-0.2c0-2,1.4-2.7,3-2.7c2.6,0,3.1,1.1,3.1,2.6v4.5c0,0.8,0,1.2,0.3,1.7h-2.1
					c-0.1-0.3-0.2-0.6-0.3-0.9h0c-0.5,0.9-1.1,1.1-2.2,1.1c-1.5,0-2.1-1.3-2.1-2.5c0-1.6,0.7-2.3,2.2-2.7l1.2-0.3
					c0.7-0.2,0.9-0.4,0.9-1c0-0.7-0.3-1.1-1-1.1c-0.7,0-1,0.4-1,1.1v0.2H1167z M1171,321.2c-0.3,0.2-0.7,0.4-0.9,0.4
					c-0.9,0.2-1.2,0.6-1.2,1.4c0,0.7,0.2,1.2,0.8,1.2c0.6,0,1.4-0.4,1.4-1.3V321.2z"/>
				<path class="st4" d="M1175.3,316.9h2.1v1h0c0.5-0.8,1.3-1.2,2.2-1.2c1.4,0,2.2,0.8,2.2,2.4v6.4h-2.2v-5.9c0-0.9-0.3-1.2-0.9-1.2
					c-0.8,0-1.2,0.5-1.2,1.4v5.7h-2.2V316.9z"/>
				<path class="st4" d="M1183.9,326.6c0.2,0,0.4,0,0.6,0c0.8,0,1.1-0.4,1.2-1.2l-2.4-8.6h2.3l1.3,6h0l1.1-6h2.2l-2.1,8
					c-0.8,3-1.3,3.4-3.3,3.4h-0.9V326.6z"/>
				<path class="st4" d="M1196.1,324.5L1196.1,324.5c-0.5,0.8-1.3,1.2-2.2,1.2c-1.4,0-2.2-0.8-2.2-2.4v-6.4h2.2v5.9
					c0,0.9,0.3,1.2,0.9,1.2c0.8,0,1.2-0.5,1.2-1.4v-5.7h2.2v8.6h-2.1V324.5z"/>
				<path class="st4" d="M1199.7,316.9h2.2l1,6.1h0l1.1-6.1h2.4l1.1,6.1h0l1-6.1h2.1l-1.9,8.6h-2.5l-1.1-6.1h0l-1.1,6.1h-2.6
					L1199.7,316.9z"/>
				<path class="st4" d="M1212.2,319.5v-0.2c0-2,1.4-2.7,3-2.7c2.6,0,3.1,1.1,3.1,2.6v4.5c0,0.8,0,1.2,0.3,1.7h-2.1
					c-0.1-0.3-0.2-0.6-0.3-0.9h0c-0.5,0.9-1.1,1.1-2.2,1.1c-1.5,0-2.1-1.3-2.1-2.5c0-1.6,0.7-2.3,2.2-2.7l1.2-0.3
					c0.7-0.2,0.9-0.4,0.9-1c0-0.7-0.3-1.1-1-1.1c-0.7,0-1,0.4-1,1.1v0.2H1212.2z M1216.2,321.2c-0.3,0.2-0.7,0.4-0.9,0.4
					c-0.9,0.2-1.2,0.6-1.2,1.4c0,0.7,0.2,1.2,0.8,1.2c0.6,0,1.4-0.4,1.4-1.3V321.2z"/>
				<path class="st4" d="M1220.6,316.9h2.1v1h0c0.5-0.8,1.3-1.2,2.2-1.2c1.4,0,2.2,0.8,2.2,2.4v6.4h-2.2v-5.9c0-0.9-0.3-1.2-0.9-1.2
					c-0.8,0-1.2,0.5-1.2,1.4v5.7h-2.2V316.9z"/>
				<path class="st4" d="M1235.7,316.9v8.2c0,2.3-1,3.4-3.6,3.4c-1.9,0-2.9-0.8-2.9-2.3h2.1c0,0.3,0.1,0.5,0.3,0.7
					c0.2,0.1,0.5,0.2,0.7,0.2c0.9,0,1.2-0.7,1.2-1.6v-1.1h0c-0.4,0.6-1.1,1.1-1.8,1.1c-1.8,0-2.6-1.2-2.6-4.4c0-2,0.3-4.4,2.7-4.4
					c0.6,0,1.4,0.3,1.8,1.2h0v-1H1235.7z M1232.3,323.7c0.9,0,1.2-1,1.2-2.5c0-2.1-0.3-2.9-1.2-2.9c-1,0-1.2,0.8-1.2,3.1
					C1231.2,322.6,1231.4,323.7,1232.3,323.7z"/>
				<path class="st4" d="M1237.9,313.9h2.2v1.9h-2.2V313.9z M1237.9,316.9h2.2v8.6h-2.2V316.9z"/>
			</g>
		</g>
	</g>
	<g>
		<g>
			<g>
				<path class="st4" d="M1114.5,264.8h3.4l1.6,8.1h0l1.6-8.1h3.4v11.4h-2.1v-9.1h0l-2,9.1h-1.8l-2-9.1h0v9.1h-2.1V264.8z"/>
				<path class="st4" d="M1127.4,265.1h2.2v2.5h1.3v1.5h-1.3v4.7c0,0.7,0.1,0.9,0.8,0.9c0.2,0,0.4,0,0.5,0v1.5
					c-0.5,0-0.9,0.1-1.4,0.1c-1.7,0-2-0.5-2-2.3v-4.9h-1.1v-1.5h1.1V265.1z"/>
				<path class="st4" d="M1136.9,276.2v-11.4h2.3v11.4H1136.9z"/>
				<path class="st4" d="M1141.6,267.6h2.2v9.2c0,1.4-0.5,2.2-2.5,2.2c-0.3,0-0.6,0-0.9,0v-1.6c0.1,0,0.2,0,0.4,0
					c0.8,0,0.9-0.4,0.9-1.4V267.6z M1141.6,264.6h2.2v1.9h-2.2V264.6z"/>
				<path class="st4" d="M1147.9,272.2v0.7c0,1,0.3,2,1.1,2c0.7,0,1-0.6,1.2-1.6h2c-0.1,2-1,3.1-3.1,3.1c-3.2,0-3.3-2.5-3.3-4.6
					c0-2.3,0.4-4.5,3.4-4.5c2.6,0,3.2,1.7,3.2,4.4v0.5H1147.9z M1150.2,270.9c0-1.3-0.2-2-1.1-2c-0.9,0-1.1,0.9-1.1,1.7v0.3H1150.2z
					"/>
				<path class="st4" d="M1154.1,267.6h2.1v1h0c0.5-0.8,1.3-1.2,2.2-1.2c1.4,0,2.2,0.8,2.2,2.4v6.4h-2.2v-5.9c0-0.9-0.3-1.2-0.9-1.2
					c-0.8,0-1.2,0.5-1.2,1.4v5.7h-2.2V267.6z"/>
			</g>
		</g>
	</g>
	<g>
		<g>
			<g>
				<path class="st4" d="M657.5,46.4v4.6h0l2.9-4.6h2.5l-3.1,4.9l3.5,6.5h-2.6l-2.4-4.7l-0.8,1.3v3.4h-2.3V46.4H657.5z"/>
				<path class="st4" d="M664.4,51.8v-0.2c0-2,1.4-2.7,3-2.7c2.6,0,3.1,1.1,3.1,2.6v4.5c0,0.8,0,1.2,0.3,1.7h-2.1
					c-0.1-0.3-0.2-0.6-0.3-0.9h0c-0.5,0.9-1.1,1.1-2.2,1.1c-1.5,0-2.1-1.3-2.1-2.5c0-1.6,0.7-2.3,2.2-2.7l1.2-0.3
					c0.7-0.2,0.9-0.4,0.9-1c0-0.7-0.3-1.1-1-1.1c-0.7,0-1,0.4-1,1.1v0.2H664.4z M668.4,53.5c-0.3,0.2-0.7,0.4-0.9,0.4
					c-0.9,0.2-1.2,0.6-1.2,1.4c0,0.7,0.2,1.2,0.8,1.2c0.6,0,1.4-0.4,1.4-1.3V53.5z"/>
				<path class="st4" d="M672.7,49.2h2.1v1.2h0c0.4-0.8,1.1-1.4,2-1.4c0.1,0,0.3,0,0.4,0v2.1c-0.2,0-0.5,0-0.7,0
					c-0.8,0-1.6,0.4-1.6,1.6v5.2h-2.2V49.2z"/>
				<path class="st4" d="M678.8,46.2h2.2v1.9h-2.2V46.2z M678.8,49.2h2.2v8.6h-2.2V49.2z"/>
				<path class="st4" d="M683.2,49.2h2.1v0.9h0c0.6-0.8,1.2-1.1,2.2-1.1c1,0,1.7,0.5,2,1.4h0c0.3-0.9,1.1-1.4,2.2-1.4
					c1.5,0,2.1,0.9,2.1,2.6v6.3h-2.2v-6c0-0.7-0.2-1.1-0.9-1.1c-0.7,0-1.2,0.5-1.2,1.5v5.7h-2.2v-6c0-0.7-0.2-1.1-0.9-1.1
					c-0.7,0-1.2,0.5-1.2,1.5v5.7h-2.2V49.2z"/>
				<path class="st4" d="M700.4,56.8L700.4,56.8c-0.5,0.8-1.3,1.2-2.2,1.2c-1.4,0-2.2-0.8-2.2-2.4v-6.4h2.2v5.9
					c0,0.9,0.3,1.2,0.9,1.2c0.8,0,1.2-0.5,1.2-1.4v-5.7h2.2v8.6h-2.1V56.8z"/>
				<path class="st4" d="M704.6,49.2h2.1v1h0c0.5-0.8,1.3-1.2,2.2-1.2c1.4,0,2.2,0.8,2.2,2.4v6.4h-2.2v-5.9c0-0.9-0.3-1.2-0.9-1.2
					c-0.8,0-1.2,0.5-1.2,1.4v5.7h-2.2V49.2z"/>
				<path class="st4" d="M713.3,49.2h2.2v9.2c0,1.4-0.5,2.2-2.5,2.2c-0.3,0-0.6,0-0.9,0V59c0.1,0,0.2,0,0.4,0c0.8,0,0.9-0.4,0.9-1.4
					V49.2z M713.3,46.2h2.2v1.9h-2.2V46.2z"/>
				<path class="st4" d="M717.7,51.8v-0.2c0-2,1.4-2.7,3-2.7c2.6,0,3.1,1.1,3.1,2.6v4.5c0,0.8,0,1.2,0.3,1.7H722
					c-0.1-0.3-0.2-0.6-0.3-0.9h0c-0.5,0.9-1.1,1.1-2.2,1.1c-1.5,0-2.1-1.3-2.1-2.5c0-1.6,0.7-2.3,2.2-2.7l1.2-0.3
					c0.7-0.2,0.9-0.4,0.9-1c0-0.7-0.3-1.1-1-1.1c-0.7,0-1,0.4-1,1.1v0.2H717.7z M721.7,53.5c-0.3,0.2-0.7,0.4-0.9,0.4
					c-0.9,0.2-1.2,0.6-1.2,1.4c0,0.7,0.2,1.2,0.8,1.2c0.6,0,1.4-0.4,1.4-1.3V53.5z"/>
				<path class="st4" d="M725.4,49.2h2.2l1,6.1h0l1.1-6.1h2.4l1.1,6.1h0l1-6.1h2.1l-1.9,8.6h-2.5l-1.1-6.1h0l-1.1,6.1h-2.6
					L725.4,49.2z"/>
				<path class="st4" d="M737.9,51.8v-0.2c0-2,1.4-2.7,3-2.7c2.6,0,3.1,1.1,3.1,2.6v4.5c0,0.8,0,1.2,0.3,1.7h-2.1
					c-0.1-0.3-0.2-0.6-0.3-0.9h0c-0.5,0.9-1.1,1.1-2.2,1.1c-1.5,0-2.1-1.3-2.1-2.5c0-1.6,0.7-2.3,2.2-2.7l1.2-0.3
					c0.7-0.2,0.9-0.4,0.9-1c0-0.7-0.3-1.1-1-1.1c-0.7,0-1,0.4-1,1.1v0.2H737.9z M742,53.5c-0.3,0.2-0.7,0.4-0.9,0.4
					c-0.9,0.2-1.2,0.6-1.2,1.4c0,0.7,0.2,1.2,0.8,1.2c0.6,0,1.4-0.4,1.4-1.3V53.5z"/>
			</g>
		</g>
	</g>
	<g>
		<g>
			<g>
				<path class="st5" d="M423.9,12.3c0,1.5-0.4,3.9-3.8,3.9c-1.9,0-3.8-1-3.8-3.5v-1h2.3v0.5c0,1.1,0.3,1.9,1.5,1.9
					c1.3,0,1.3-1.1,1.3-1.9V4.5h2.5V12.3z"/>
				<path class="st5" d="M432.4,4.5h2.6l4.3,11.4h-2.6l-0.9-2.5h-4.3l-0.9,2.5h-2.5L432.4,4.5z M432.1,11.5h3l-1.4-4.2h0L432.1,11.5
					z"/>
				<path class="st5" d="M448.7,15.9h-2.8l-3.7-11.4h2.6l2.5,8h0l2.6-8h2.6L448.7,15.9z"/>
				<path class="st5" d="M459.8,4.5h2.6l4.3,11.4h-2.6l-0.9-2.5h-4.3l-0.9,2.5h-2.5L459.8,4.5z M459.6,11.5h3l-1.4-4.2h0L459.6,11.5
					z"/>
				<path class="st5" d="M480.2,12.1c0,1.5,1.2,2.1,2.5,2.1c0.9,0,2.2-0.3,2.2-1.4c0-1.2-1.7-1.4-3.4-1.9c-1.7-0.4-3.4-1.1-3.4-3.2
					c0-2.3,2.2-3.5,4.3-3.5c2.4,0,4.6,1,4.6,3.7h-2.4c-0.1-1.4-1.1-1.7-2.3-1.7c-0.8,0-1.7,0.3-1.7,1.3c0,0.9,0.5,1,3.4,1.7
					c0.8,0.2,3.4,0.7,3.4,3.3c0,2.1-1.6,3.7-4.8,3.7c-2.5,0-4.9-1.2-4.9-4.1H480.2z"/>
				<path class="st5" d="M492.1,4.5h8.5v2.1h-6v2.4h5.5v2h-5.5v2.8h6.2v2.1h-8.7V4.5z"/>
				<path class="st5" d="M505.7,4.5h8.5v2.1h-6v2.4h5.5v2h-5.5v2.8h6.2v2.1h-8.7V4.5z"/>
			</g>
		</g>
	</g>
	<g>
		<g>
			<g>
				<path class="st4" d="M432.3,231.7c0,1.5-0.4,3.9-3.8,3.9c-1.9,0-3.8-1-3.8-3.5v-1h2.3v0.5c0,1.1,0.3,1.9,1.5,1.9
					c1.3,0,1.3-1.1,1.3-1.9v-7.7h2.5V231.7z"/>
				<path class="st4" d="M440.8,223.8h2.6l4.3,11.4H445l-0.9-2.5h-4.3l-0.9,2.5h-2.5L440.8,223.8z M440.5,230.8h3l-1.4-4.2h0
					L440.5,230.8z"/>
				<path class="st4" d="M457.1,235.3h-2.8l-3.7-11.4h2.6l2.5,8h0l2.6-8h2.6L457.1,235.3z"/>
				<path class="st4" d="M468.2,223.8h2.6l4.3,11.4h-2.6l-0.9-2.5h-4.3l-0.9,2.5h-2.5L468.2,223.8z M468,230.8h3l-1.4-4.2h0
					L468,230.8z"/>
			</g>
		</g>
	</g>
	<g>
		<g>
			<g>
				<path class="st4" d="M136.8,91.5v8.2c0,2.4-1.1,3.4-3.4,3.4c-2.4,0-3-1.6-3-3.3v-0.5h2.1v0.4c0,1.2,0.2,1.8,1,1.8
					c0.8,0,1-0.6,1-1.8v-8.2H136.8z"/>
				<path class="st4" d="M138.9,97v-0.2c0-2,1.4-2.7,3-2.7c2.6,0,3.1,1.1,3.1,2.6v4.5c0,0.8,0,1.2,0.3,1.7h-2.1
					c-0.1-0.3-0.2-0.6-0.3-0.9h0c-0.5,0.9-1.1,1.1-2.2,1.1c-1.5,0-2.1-1.3-2.1-2.5c0-1.6,0.7-2.3,2.2-2.7l1.2-0.3
					c0.7-0.2,0.9-0.4,0.9-1c0-0.7-0.3-1.1-1-1.1c-0.7,0-1,0.4-1,1.1V97H138.9z M142.9,98.6c-0.3,0.2-0.7,0.4-0.9,0.4
					c-0.9,0.2-1.2,0.6-1.2,1.4c0,0.7,0.2,1.2,0.8,1.2c0.6,0,1.4-0.4,1.4-1.3V98.6z"/>
				<path class="st4" d="M149.5,91.5v6h0l2.2-3.2h2.4l-2.5,3.4l2.8,5.2h-2.4l-1.8-3.5l-0.8,1v2.5h-2.2V91.5H149.5z"/>
				<path class="st4" d="M155.8,97v-0.2c0-2,1.4-2.7,3-2.7c2.6,0,3.1,1.1,3.1,2.6v4.5c0,0.8,0,1.2,0.3,1.7h-2.1
					c-0.1-0.3-0.2-0.6-0.3-0.9h0c-0.5,0.9-1.1,1.1-2.2,1.1c-1.5,0-2.1-1.3-2.1-2.5c0-1.6,0.7-2.3,2.2-2.7l1.2-0.3
					c0.7-0.2,0.9-0.4,0.9-1c0-0.7-0.3-1.1-1-1.1c-0.7,0-1,0.4-1,1.1V97H155.8z M159.9,98.6c-0.3,0.2-0.7,0.4-0.9,0.4
					c-0.9,0.2-1.2,0.6-1.2,1.4c0,0.7,0.2,1.2,0.8,1.2c0.6,0,1.4-0.4,1.4-1.3V98.6z"/>
				<path class="st4" d="M164.2,94.3h2.1v1.2h0c0.4-0.8,1.1-1.4,2-1.4c0.1,0,0.3,0,0.4,0v2.1c-0.2,0-0.5,0-0.7,0
					c-0.8,0-1.6,0.4-1.6,1.6v5.2h-2.2V94.3z"/>
				<path class="st4" d="M170.6,91.9h2.2v2.5h1.3v1.5h-1.3v4.7c0,0.7,0.1,0.9,0.8,0.9c0.2,0,0.4,0,0.5,0v1.5c-0.5,0-0.9,0.1-1.4,0.1
					c-1.7,0-2-0.5-2-2.3v-4.9h-1.1v-1.5h1.1V91.9z"/>
				<path class="st4" d="M175.5,97v-0.2c0-2,1.4-2.7,3-2.7c2.6,0,3.1,1.1,3.1,2.6v4.5c0,0.8,0,1.2,0.3,1.7h-2.1
					c-0.1-0.3-0.2-0.6-0.3-0.9h0c-0.5,0.9-1.1,1.1-2.2,1.1c-1.5,0-2.1-1.3-2.1-2.5c0-1.6,0.7-2.3,2.2-2.7l1.2-0.3
					c0.7-0.2,0.9-0.4,0.9-1c0-0.7-0.3-1.1-1-1.1c-0.7,0-1,0.4-1,1.1V97H175.5z M179.5,98.6c-0.3,0.2-0.7,0.4-0.9,0.4
					c-0.9,0.2-1.2,0.6-1.2,1.4c0,0.7,0.2,1.2,0.8,1.2c0.6,0,1.4-0.4,1.4-1.3V98.6z"/>
			</g>
		</g>
	</g>
	<g>
		<g>
			<g>
				<path class="st4" d="M207.3,21.5v0.3c0,1.1,0.3,1.8,1.5,1.8c0.7,0,1.4-0.4,1.4-1.4c0-1-0.5-1.4-2-2c-2-0.7-3-1.6-3-3.5
					c0-2.2,1.4-3.4,3.5-3.4c2,0,3.5,0.9,3.5,3.1v0.3H210c0-1.1-0.4-1.7-1.2-1.7c-1,0-1.3,0.7-1.3,1.3c0,0.7,0.2,1.1,1.2,1.6l1.8,0.8
					c1.7,0.8,2.2,1.6,2.2,3c0,2.4-1.5,3.5-4,3.5c-2.6,0-3.6-1.2-3.6-3.3v-0.5H207.3z"/>
				<path class="st4" d="M216.2,21.1v0.7c0,1,0.3,2,1.1,2c0.7,0,1-0.6,1.2-1.6h2c-0.1,2-1,3.1-3.1,3.1c-3.2,0-3.3-2.5-3.3-4.6
					c0-2.3,0.4-4.4,3.4-4.4c2.6,0,3.2,1.7,3.2,4.4v0.5H216.2z M218.5,19.8c0-1.3-0.2-2-1.1-2c-0.9,0-1.1,0.9-1.1,1.7v0.3H218.5z"/>
				<path class="st4" d="M222.4,16.5h2.1v1.2h0c0.4-0.8,1.1-1.4,2-1.4c0.1,0,0.3,0,0.4,0v2.1c-0.2,0-0.5,0-0.7,0
					c-0.8,0-1.6,0.4-1.6,1.6v5.2h-2.2V16.5z"/>
				<path class="st4" d="M228.4,13.5h2.2v1.9h-2.2V13.5z M228.4,16.5h2.2v8.6h-2.2V16.5z"/>
				<path class="st4" d="M232.8,13.7h2.2v3.6h0c0.5-0.7,1-1,1.9-1c1.8,0,2.6,1.3,2.6,4.5s-0.8,4.5-2.6,4.5c-0.9,0-1.5-0.3-2-1.1h0
					v0.9h-2.1V13.7z M236.2,23.6c1,0,1.2-1,1.2-2.8c0-1.9-0.2-2.8-1.2-2.8c-1,0-1.2,1-1.2,2.8C235,22.7,235.2,23.6,236.2,23.6z"/>
				<path class="st4" d="M245.9,24.1L245.9,24.1c-0.5,0.8-1.3,1.2-2.2,1.2c-1.4,0-2.2-0.8-2.2-2.4v-6.4h2.2v5.9
					c0,0.9,0.3,1.2,0.9,1.2c0.8,0,1.2-0.5,1.2-1.4v-5.7h2.2v8.6h-2.1V24.1z"/>
			</g>
		</g>
	</g>
	<circle class="st3" cx="644.6" cy="64.5" r="4.3"/>
	<circle class="st3" cx="188.8" cy="22.8" r="4.3"/>
</g>
<g id="Städte">
</g>
<g id="Reise">
</g>
<g id="Typo">
	<g>
		<circle class="st6" cx="200.4" cy="69" r="5.5"/>
		<path class="st5" d="M200.3,73.5c-2.6,0-4.7-2.1-4.7-4.7s2.1-4.7,4.7-4.7c2.6,0,4.7,2.1,4.7,4.7C204.9,71.4,202.9,73.5,200.3,73.5
			z M200.3,59.9c-5,0-9,4-9,9c0,2,1.3,5.3,3.9,10c1.9,3.3,3.7,6.1,3.8,6.2l1.3,2l1.3-2c0.1-0.1,1.9-2.9,3.8-6.2
			c2.6-4.7,3.9-8,3.9-10C209.3,63.9,205.2,59.9,200.3,59.9z"/>
	</g>
</g>
</svg>
