<?xml version="1.0" encoding="utf-8"?>
<!-- Generator: Adobe Illustrator 21.0.2, SVG Export Plug-In . SVG Version: 6.00 Build 0)  -->
<svg version="1.1" id="Ebene_1" xmlns="http://www.w3.org/2000/svg" xmlns:xlink="http://www.w3.org/1999/xlink" x="0px" y="0px"
	 viewBox="0 0 42 63" style="enable-background:new 0 0 42 63;" xml:space="preserve">
<style type="text/css">
	.st0{fill:#FFFFFF;}
</style>
<path class="st0" d="M40.8,27.7c-1.4,0.6-3.9,1.8-5.7,2.9c-2.7,1.6-6.7,5.1-6.7,5.1s-0.5-2.1,1-3.5c1.5-1.5,2-2.3,4.3-5
	s4.8-5.6,3.8-11.3c-1-6-7.7-15.9-7.7-15.9s1.5,3.1,3.4,7.3s2.8,9.2,2,12.8c-0.7,3.5-6,6.9-8.2,8.6c-2.2,1.7-2.1,2.7-3.4,4.3
	c-0.9,1-2,1.4-2.7,1.5c-0.7-0.1-1.8-0.4-2.7-1.5c-1.3-1.6-1.2-2.5-3.4-4.3c-2.2-1.7-7.5-5.1-8.2-8.6c-0.7-3.5,0.1-8.6,2-12.8
	S12.1,0,12.1,0S5.4,9.9,4.4,15.9c-0.9,5.7,1.5,8.7,3.8,11.3s2.9,3.5,4.3,5c1.5,1.5,1,3.5,1,3.5s-3.9-3.5-6.7-5.1
	c-1.8-1.1-4.3-2.3-5.7-2.9c-0.5-0.2-0.9,0.2-0.8,0.7c0.5,1.6,1.4,4.3,2.3,5.5c1.3,1.6,2.6,2.9,4,2.9c1.3,0,3.6-0.7,4.9,0
	c1.3,0.7,1.3,0.8,2.5,5.3c1.2,4.6,3.7,11.4,3.7,12.9c0,1.4-1.1,2.5-1,3.9c0.1,1.4,2,3.5,3.1,3.8l0,0c0,0,0.4,0.1,1,0c0.6,0,1,0,1,0
	l0,0c1.1-0.3,3-2.4,3.1-3.8c0.1-1.4-1-2.5-1-3.9c0-1.4,2.5-8.3,3.7-12.9c1.2-4.6,1.2-4.7,2.5-5.3c1.3-0.7,3.6,0,4.9,0
	c1.3,0,2.7-1.3,4-2.9c0.9-1.1,1.8-3.9,2.3-5.5C41.7,27.9,41.2,27.4,40.8,27.7z"/>
</svg>
