<?xml version="1.0" encoding="utf-8"?>
<!-- Generator: Adobe Illustrator 21.0.2, SVG Export Plug-In . SVG Version: 6.00 Build 0)  -->
<svg version="1.1" id="Ebene_1" xmlns="http://www.w3.org/2000/svg" xmlns:xlink="http://www.w3.org/1999/xlink" x="0px" y="0px"
	 viewBox="0 0 48 59" style="enable-background:new 0 0 48 59;" xml:space="preserve">
<style type="text/css">
	.st0{fill:#FFFFFF;}
</style>
<g>
	<path class="st0" d="M18.2,58.8V48.8c0-2.3,1-3.1,2.5-4.3c0.8-0.7,1.8-1.4,2.7-2.6c0.9,1.1,1.8,1.9,2.7,2.6c1.5,1.2,2.5,2,2.5,4.3
		v10.1h19V38.6c0-0.6-0.5-1.1-1.1-1.1h-1.2v-0.8c1-1,1.8-2.8,0.5-4.6c-1.5-2.2-4.3-3.6-4.4-3.7c0,0,0,0-0.1,0c0,0-0.1,0-0.1,0
		c0,0-0.1,0-0.1,0c0,0-0.1,0-0.1,0c0,0-0.1,0-0.1,0c0,0-0.1,0-0.1,0c0,0-0.1,0-0.1,0c0,0-0.1,0-0.1,0c0,0-0.1,0-0.1,0c0,0,0,0-0.1,0
		c-0.1,0.1-2.5,1.3-4.1,3.2v-0.5c0.9-1,3.4-3.9,3.4-8.3c0-3.1-0.8-5.7-2.6-7.9c-1.6-2-3.7-3.4-5.7-4.8l-0.5-0.3
		C26,6.4,25,4,24.9,3.6V1.5c0-0.6-0.5-1.1-1.1-1.1s-1.1,0.5-1.1,1.1v2.1c-0.1,0.4-1.1,2.9-5.9,6.2l-0.5,0.3c-2,1.4-4.1,2.8-5.7,4.8
		c-1.7,2.2-2.6,4.8-2.6,7.9c0,4.2,2.2,7.1,3.2,8.2c0,0.2,0,0.3,0,0.5c-1.6-1.9-3.9-3-4-3.1c0,0,0,0-0.1,0c0,0-0.1,0-0.1,0
		c0,0-0.1,0-0.1,0c0,0-0.1,0-0.1,0c0,0-0.1,0-0.1,0c0,0-0.1,0-0.1,0c0,0-0.1,0-0.1,0c0,0-0.1,0-0.1,0c0,0-0.1,0-0.1,0c0,0,0,0-0.1,0
		c-0.1,0.1-2.9,1.5-4.4,3.7c-1.3,1.9-0.5,3.6,0.5,4.6v0.8H1.3c-0.6,0-1.1,0.5-1.1,1.1v20.2H18.2z"/>
</g>
</svg>
