<?xml version="1.0" encoding="utf-8"?>
<!-- Generator: Adobe Illustrator 25.0.1, SVG Export Plug-In . SVG Version: 6.00 Build 0)  -->
<svg version="1.1" xmlns="http://www.w3.org/2000/svg" xmlns:xlink="http://www.w3.org/1999/xlink" x="0px" y="0px"
	 viewBox="0 0 871.1 801.8" style="enable-background:new 0 0 871.1 801.8;" xml:space="preserve">
<style type="text/css">
	.st0{fill:none;stroke:#EDEDEC;stroke-width:1.5;stroke-miterlimit:10;}
	.st1{fill:#FFFFFF;stroke:#EDEDEC;stroke-width:1.5;stroke-miterlimit:10;}
	.st2{fill:#E2E2E3;}
	.st3{fill:none;stroke:#4EA1E1;stroke-miterlimit:10;}
	.st4{fill:#4EA1E1;}
	.st5{fill:#1D1D1B;}
	.st6{fill:#A6A6A5;}
	.st7{fill:#20201E;}
	.st8{fill:none;stroke:#FF9400;stroke-width:2;stroke-miterlimit:10;stroke-dasharray:4,4;}
	.st9{fill:none;stroke:#FF9400;stroke-width:2;stroke-miterlimit:10;}
	.st10{fill:#FFFFFF;}
	.st11{fill:#FF9400;}
</style>
<g id="China">
</g>
<g id="Bangladesch">
</g>
<g id="Nepal">
</g>
<g id="Butan">
</g>
<g id="Ebene_1">
</g>
<g id="Ebene_2">
	<path class="st0" d="M626,309.3c0,0,10.5,5.1,15.4,3.1c5-2,7.9-22.5,13.5-20.5c5.6,2,3.3,8.6,12.1,8.5s13.2-4.6,15.5-6.9
		c2.3-2.3-0.8-21.6,1.2-25.6c2-4,1.4-7.3,7.6-6.6c6.2,0.7,13.9-0.5,16.8,4c2.9,4.5,4.5,14.3,4.5,14.3l13.3-13.3l27.1-54.8l16.2-39.6
		l-68.3-20l-55.6-5.1h-20.6l-22.7,13.7l-6.3,42.1l-7.3,53.2l25.4,20.2L626,309.3z"/>
	<path class="st1" d="M419.8,15.3c0,0,2.4-11.7,9.7-9c7.3,2.6,3.3-2.4,16.5,4.3c13.2,6.7,14.1,7.6,22,15.5
		c7.9,7.9,10,22.9,17.3,24.6c7.3,1.8,10-8.4,15.5-6.4s-0.2,12.1,5.1,14.3c5.3,2.2,20-2.6,25.1,6.7s4.9,9.1,11.4,15.6
		s7.6,8.3,18.6,7.5s10.1-5.3,18.9-0.6s16.7,7.3,22,4.7c5.3-2.6,14.4,7.2,14.4,7.2l19.6,26.7l-22.2,27l-63.7,11.3l-150.3-53.2
		c0,0-19.4-41.9-18.1-42.7c1.4-0.9,9.3-46.2,9.3-46.2L419.8,15.3z"/>
	<path class="st1" d="M633.1,97c0,0,7.3-13.2,13.8-16.7s8.7-13.5,19.1-8.9s-0.3,7.7,15.1,9.5c15.4,1.9,15.6-4.4,24.3,0
		s20.6,7.5,20.6,7.5l24.2,46.8l-58.6,11.4L635.9,131l-7.9-25.3L633.1,97z"/>
	<path class="st2" d="M863.5,98.9l-8.5-2.5l-10.6-4.6l-6.3-2.1l-9.9,2.2l-6.6-6.6l1.1-15.4l-15.5-4.9l-10.8-1.7l-9.8,8.9l-9.6-2.6
		l-13.5,1.2l-10,7.3l-15.6,7.5l-13.8,2.3l4.7,20.9V121l-8.1,4.1l-24.4,1.4l-16.3-5.4l-13.6,2.7l-10.6,2.4l-9.9-11l-2.2-6.6
		l-8.8-14.3l-9.9-1.1l-10.9,5l2.1,1.6l-1.1,15.4l-5.6,7.8l7.7,8.6l-0.4,8.1l-5.8,6.5l-12.3,2.1l-13.4-3.4l-14.9-0.8l-23.8-12.1
		l-21.7,0.2l-11.6-12.8l-12.2-0.6l-9-10l-11.8-8.8L464,99.1l-18.5-9.1l-14.6-6.2l-14.6-6.2l-3.5-11.1l-16-6.3l-3.3-15.1L404,26.6
		l15.8-11.3l-8.5-9l-7.6-6.1H213.3l-1.1,10l-2,15.2l-12,10.5l-9,7.9l-9.9,9.9l-15.4,11l-12.1,17.6l-11,15.4l-13.2,3.3l-5.5-7.7
		l-6.6,16.5l-7.7,7.7l-8.8,15.4l6.6,8.8l5.5,4.4l-3.3,9.9v13.2l11,4.4l4.4,12.1l1.1,32.9l-8.8-2.2l-15.4-1.1l-9.9,1.1l-11,5.5
		l-3.3,12.3l3.7,0c-0.5,3-2.4,2.8-4.2,4.2c3.2,10.3,1.3,15.5,2.1,23.2c9.9,4,30.5,14.9,48.4,8.4c5.1-1.9,5.1-12.7,10.5-14.7
		c2.2-0.9,4.2,1.3,6.3,0c-3.2,5.1-4.5,12.1-8.4,16.9c-1.9,2.2-6.5,1.6-8.4,4.2c-2.2,2.9-1.3,8.7-4.2,10.5c-2.6,1.5-7.6-0.8-10.5,0
		c-1.6,0.4-5.4,6.1-6.3,6.3c-5.1,1.3-3.2-3-8.4-2.1c-1.3,0.1-3.9,3.8-6.3,4.2c2.9,4.6,5.9,8.7,8.4,12.6
		c10.6,16.2,22.7,26.6,33.7,42.1c3.7-1,6.8,0.9,10.5,0c2.2-0.6,4.7-5.4,6.3-6.3c11.7-6.9,25.1-9.5,27.4-25.3
		c2-14.4-1.7-18.7,2.1-31.6h4.2c1.4,4,0.3,1,4.2,2.1c0.5,4.4-1.1,3.4-2.1,6.3c0.3-1.8,4.2,4.2,4.2,4.2c-1,2.5-3.2,2.8-4.2,8.4
		c6.3,3.2,6.9,8.2,4.2,6.3c-1.1,0.5,1.6,4.9-2.1,2.1c0.1,0.7-0.6,6.8,2.1,4.2v8.4c3,4.9,9.2,5.1,8.4,14.7l-4.2,2.1
		c-1.6,4.1-10.7,34.4-10.5,35.8c0.3,3.1,9.6,10.1,10.5,12.6c1,2.9-2.8,5.9-2.1,6.3c7.4,3.7,1.4,15.4,0,21.1h4.2
		c-1.3,9.2-2.4,28.2,4.2,31.6c0.2,0.1-2.7,3.9-2.1,6.3c0.5,2,5.7,8,6.3,10.5c2.6,10.3,0.1,16.6,2.1,27.4
		c4.3,23.6,19.7,43.4,25.3,65.3c4.4,17.5,2.6,29.2,6.3,48.5c0.4,2.2,5.7,8.8,6.3,10.5c1.8,5.9-0.5,9.5,2.1,14.7
		c2,4.1,8.5,5.1,10.5,8.4c2.5,4.1,0.1,8,2.1,12.6c2,4.8,8.4,9.6,10.5,14.7c2.8,6.6,1.2,12.3,4.2,19c2.8,6.3,13.8,13.7,14.7,21.1
		c0.7,6.4-3.5,7.7-6.3,10.5c10,17.1,21.4,35.2,31.6,52.7c5.5-2.1,8,0.3,12.6-2.1c7.6-4.1,6-18.1,12.6-23.2c3-2.4,8.3-1.3,10.5-4.2
		c0.6-0.9-0.3-5.4,0-6.3c0.1-0.4,16.9-27.4,16.9-27.4c3-1.7,10.8-1.6,12.6-2.1c-2.7-14.3-8-36.3-4.2-48.4c1.4-4.7,8.9-9,10.5-12.6
		c2.7-6.4-0.5-10.3,2.1-16.9l4.2-2.1c1-7.3-3.6-14.2-4.2-19c-2-16.2-4.5-31.7-2.1-48.5c0.9-6.8,6.7-13.3,6.3-21.1h-2.1
		c-0.3-3.9-4-12-2.1-19c0.5-2.3,4.3-4.8,6.3-6.3c7.4-6,8-0.7,16.9-4.2c5.5-2.2,6.2-9.8,10.5-12.6c5.6-3.8,14.1-2.1,19-6.3
		c7.4-6.5,4.2-23.8,12.6-29.5c6.2-4.4,13.2-0.6,21.1-4.2v-2.1c3.8-2,5.2-6.6,8.4-8.4c5.1-3,12.3-0.7,16.9-4.2
		c2.8-2.2,2.1-9.5,4.2-12.6c2-3.2,8.4-5.3,10.5-8.4c2.8-4.1,1.4-8.5,4.2-12.6h4.2v-4.2c1.2-3.6,8.6-3.6,10.5-6.3l4.2-12.6
		c4.9-0.8,9.9,1.3,14.7,0c3.3-1,9.3-9.1,12.6-10.5c3.2-1.5,6-0.4,8.4-2.1c15.7-11.8,7.7-17.6,10.5-33.7c0.5-2.9,7.6-8.4,8.4-10.5
		c0.5-1.3-1-5.6,0-6.3c3.5-2.8,8.4-0.1,12.6-2.1c1.8-0.9,5.1-8.2,6.3-8.4c3.9-1,1.5,2,2.1,4.2c6.1-1.2,7.3-1.9,14.3-2.1l-0.1-8.3
		l5.6-10.3V278l-8.4-10.3l4.2-20.6l-5.6-10.3L606,229l-2.8-7.7l-3.4-20.6l11-6.6l13.2-5.5l4.4-12.1l-12.1-15.4l8.8-11l14.3,13.2
		l14.3-3.3l9.9,4.4l-3.3,18.7l2.2,22h8.8h18.7l15.4-1.1l15.4-4.4h19.8l-15.4,11l4.4,12.1c-5.6,3.9-6.6,14.3-6.6,14.3l-7.7,13.2
		l-4.4,20.9l2.2,9.9h13.2l3.3-14.3l12.2,20.6v15.5l2,12.2l8.3-2.5l7,6.4l7-6.6l4-6.1l1.1-8.8l-1.1-13.2l-4.4-11v-27.4l16.5,11
		l4.9-19l10.5-14.1v-7.4l-7-5.8l4.7-5l11.6-5l8.2-11.6l11.6-10.8v-8.3l8.2-18.5l16.5-2.2l10.2,2.5l9.3-16.6l0.4-17.2l-2.3-9.6
		L863.5,98.9z"/>
	<path class="st3" d="M626,309.3c0,0-13.3-25.7-12.2-34.5c1.1-8.9,0.6-8.9-0.6-12.9c-1.1-4-4-7.7-4.6-11.2
		c-0.6-3.4,5.7-10.6,2.3-14.6c-3.4-4-11.7-17.2-12.9-24.9c-1.1-7.7-5.5-19.8-10.9-19.8c-5.4,0-9.4,6.9-12.9,5.7
		c-3.4-1.1-3.7-5.2-7.1-3.4c-3.4,1.7-1.7,2.3-5.2,2.3c-3.4,0-3.4-2.3-5.7-1.1c-2.3,1.1-2,0.7-5.5,0.1c-3.4-0.6,5.2-7.8-0.5-7.3
		c-5.7,0.6-6.1,2.3-11.5,0c-5.4-2.3-8.9-6.9-14-8c-5.2-1.1-14.3-1.7-18.6,0.6c-4.3,2.3-7.1,6.3-10,6.3c-2.9,0-2-1.1-8,0.6
		c-6,1.7-8.3-1.4-12.3,1.1c-4,2.6-3.2,7.7-6.3,8.9c-3.1,1.1-10.9-0.6-15.2-0.6c-4.3,0-11.5-1.7-14.6-3.4c-3.1-1.7-3.7-6-8.3-8.9
		c-4.6-2.9-3.8-7.8-8-9.8c-4.3-2-8.9-5.4-13.5-6c-4.6-0.6-15.2-20.3-17.5-23.8c-2.3-3.4-13.8-26.9-19.2-28.1
		c-5.4-1.1-11.7,0.8-12.3-4.6c-0.6-5.4-3.7-6.6-6-6c-2.3,0.6-16.3-10.6-19.2-16.9c-2.9-6.3-2.3-15.7-5.2-19.8c-2.9-4-5.7-4.9-3.4-8
		c2.3-3.1,11.5-13.1,9.2-19.4c-2.3-6.3-4-10.1-2.3-12.6c1.7-2.6,8.3-7.7,7.1-11.2c-1.1-3.4-5.7-5.4-3.7-8.3c2-2.9,5.4-5.7,7.7-9.8
		 M320,0.2c0,4.2,3.2,5.3,0.1,9.8c-3.4,4.8-9.8,4.8-10.9,10c-1.1,5.2-3.1,16.3-6,18.6c-2.9,2.3-1.7,13.8-1.1,17.5
		c0.6,3.7-3.4,8.9-1.1,11.7c2.3,2.9,6.3,6,5.4,10c-0.8,4-2.9,6.3,1.1,8c4,1.7,7.5,3.1,6.9,6.6s-3.4,9.8-0.6,12.6
		c2.9,2.9,6.3,4.3,6.3,7.1c0,2.9-2.3,7.5-1.7,9.8c0.6,2.3,15.4,11.5,21.2,15.7c5.7,4.3,15.2,9.4,18,13.5c2.9,4,10.1,3.7,13.8,7.7
		c3.7,4,10.9,9.2,15.2,10.3c4.3,1.1,6,6,9.4,8.3c3.4,2.3,3.1,0,10,3.4c6.9,3.4,14.3,15.2,14.3,15.2c7.1,4.7,31.4-0.2,31.4-0.2
		 M219.8,373.3c0,0,11.2,10.3,15.7,11.5s14.3,6,19.2,7.1c4.8,1.1,16.6-1.1,20.6,2.9c4,4,4.3,9.4,10.3,10c6,0.6,21.2-4.6,24-2.3
		c2.9,2.3,6.1,10.3,10.3,10.3s16.6-10.3,19.4-8c2.9,2.3,3.4,5.2,6.9,3.4c3.4-1.7,6.6-4.6,10.6-2.9c4,1.7,10.1,9.8,14.3,10.3
		c4.3,0.6,7.5-4.6,12.3-2.3c4.8,2.3,8.9-0.8,11.2,4.6c2.3,5.4-2,8.3,4.6,10.6c6.6,2.3,9.4,5.4,8.9,8.9c-0.6,3.4,0.6,12,3.4,12.6
		c2.9,0.6,14,2,15.7,6c1.7,4,7.2,9.4,8.6,16.9c1.4,7.5,4.8,18.6,4.8,18.6 M367.9,300.9c0,0,7.7-10.9,11.2-8.6c3.4,2.3,7.8,0,8.6,2.9
		c0.8,2.9-1.5,7.7,0.8,11.7c2.3,4,2.6,8.9-0.8,11.5c-3.4,2.6-6.9,2.6-8.6,5.4c-1.7,2.9-6.3,7.8-6.3,13.2s0,7.1,4,10.6
		c4,3.4,9.2,6.6,9.2,10.6c0,4,0,10.6-2.9,13.5c-2.9,2.9-5.2,9.2-5.2,9.2s1.7,1.4,2.9,6c1.1,4.6,0.6,6.1,0.6,13.8
		c0,7.7,2.9,12.9,2.9,12.9 M446.6,366.7c0,0-3.2-5.2-8.6-5.2c-5.4,0-10.6-5.5-7.7-8c2.9-2.6,10-7.5,12.3-15.7
		c2.3-8.3,7.7-24,16.9-22.9c9.2,1.1,35.5-1.4,37.2,2.3c1.7,3.7,0.6,16-1.1,21.2c-1.7,5.2-5.2,9.2,0.6,10.3
		c5.7,1.1,12.3-4.6,15.2-0.6c2.9,4,4.8,7.1,8.9,7.1c4,0,8.6,1.1,11.5,4c2.9,2.9,12,5.2,17.5,4c5.4-1.1,4.8-1.7,10.6-0.6
		c5.7,1.1,22.6,0,22.6,0 M412.8,509.7c0,0-6.5-18.2-10.8-19.4c-4.3-1.2-9.4-5.3-12.3-7.7c-2.8-2.5-4.7-0.6-10.2,0
		c-5.5,0.6-5.3-4.5-10.2,1.6c-4.9,6.1-5.5,14.1-9.2,14.1c-3.7,0-4.1-2.2-7.7,0.6c-3.7,2.8-4.3,5.3-7.4,5.3c-3.1,0-1-3.1-7.1-1.2
		c-6.1,1.8-11,2.8-12.9-0.6c-1.8-3.4-0.4-10.2-7.7-9.6c-7.4,0.6-7,4.9-10.4,0c-3.4-4.9-6.5-13.9-10.2-13.9c-3.7,0,0.6-8.2-2.5-10.4
		c-3.1-2.2-7.1,0.2-13.3-2.2c-6.1-2.5-19-7.6-23.1-11.6c-4.1-4.1-12.6-6.5-12.6-10.2c0-3.7-2.1-7.4-4.3-7.4
		c-2.2,0-7.7-14.1-11.4-17.5c-3.7-3.4-13.9-14.5-13.9-14.5 M260.4,618.4c4.3-2.5,8.2-7.5,11.6-4.7c3.4,2.8,9.2,1.6,15.7,4.1
		c6.5,2.5,13.6,6.7,19.8,7.4c6.1,0.6,9.8,2.8,10.4,7.7c0.6,4.9-0.6,12.6-0.6,17.5c0,4.9-3.1,9.2,0.6,9.2c3.7,0,7.1-4.1,10.2,0.6
		c3.1,4.7,3.9,5.9,8,6.5c4.1,0.6,7.7-1.2,10.8,0.6c3.1,1.8,9.6,1.8,9.6,1.8l21.8-14.5 M375.9,696l-21-26.7 M372.8,674.1l-16.3-4.3
		 M189.6,310.7c0,0,5.6-6,9.9-4.2c4.3,1.8,7.1,4.9,15.1,3.7c8-1.2,20.4-6.5,26.5-7.1c6.1-0.6,22.5-1.8,26.1-3.1
		c3.7-1.2,9.6-6.1,12.6-4.9c3.1,1.2,5.8,5.5,8,5.5c2.2,0,4.7-12.3,9.6-11.6c4.9,0.6,15.1-1,18.2-3.4c3.1-2.5,5.9-9.2,10.2-8
		c4.3,1.2,3.7,1.2,8,1.2c4.3,0,8-11.4,15.7-10.8c7.7,0.6,14.1,4.1,20,4.1s8.6,3.7,15.1,6.7c6.5,3.1,16.1-13,22.8-9.6
		c6.7,3.4,8.2,7.7,12.3,7.7c4.1,0,12,0,12,0"/>
	<path class="st2" d="M758.9,570.1c-5.1,0.5-5.1,3.2-7.2,7.2c-2.1,4-4.6,5.6-2.1,8.6c2.6,3.1,6.7,13.7,10.3,10.2
		c3.6-3.5,0-9.1-0.5-12.2c-0.5-3.1,4.6-5.5,4.6-8.6C764,572.2,758.9,570.1,758.9,570.1L758.9,570.1z"/>
	<path class="st2" d="M749.8,600.2c-0.5,4.1,0,5.7,0,10.8s-2.5,8.1-3,12.7c-0.5,4.6,0.4,8.6,0.9,11.7c0.5,3.1-0.9,2.6-2.5,6.2
		c-1.5,3.6,5,4.6,8.1,3.6c3.1-1,2.6-6.8,1.5-12.3c-1-5.6,2.6-5.6,4.1-10.7c1.5-5.1-4.1-6.1-3.6-10.2c0.5-4.1,2.1-8.8,1-12.3
		C755.5,596.2,749.8,600.2,749.8,600.2L749.8,600.2z"/>
	<path class="st2" d="M743.2,668.1c-1.8,1.1-3,6.7,0.5,9.2c3.5,2.6,8.1,2.1,8.1-2.1c0-4.1-3-7.2-4.1-7.7
		C746.7,667.1,743.2,668.1,743.2,668.1S745.1,666.9,743.2,668.1z"/>
	<path class="st2" d="M760.7,719.9c-2.1,0.9-0.5,5.8,2,6.3c2.5,0.5,5.6,2.1,4-2.1C765.1,720.1,762.7,719,760.7,719.9z"/>
	<path class="st2" d="M773.4,750.7c0.2,2.6,2.8,4.1,4.3,3c1.5-1.1,2.9-3.7,1.9-5c-1-1.3-4.7-0.4-4.7-0.4S773.2,748.1,773.4,750.7z"
		/>
	<path class="st2" d="M760.4,630.1c-1,0.3-1.2,2.1,0.1,2.5c2.8,0.9,1.1,3.3,3,2.6c1.9-0.7,0.2-2.6-0.5-4.1S761.4,629.7,760.4,630.1z
		"/>
	<path class="st2" d="M783.7,757.1c-0.4,2.2-0.9,4.9,0.9,5.8c1.7,0.9,3.9,1.7,5,3.4c1.1,1.7,4.1,0.6,4.1-1.1c0-1.7-0.9-5.1-2.6-6.4
		c-1.7-1.3-3.4-2.6-5-2.6C784.6,756.3,783.7,757.1,783.7,757.1L783.7,757.1z"/>
	<path class="st2" d="M798.1,777.3c-1.7,1-4.9,3.2-3.2,4.7c1.7,1.5,6,1.5,4.7,2.8c-1.3,1.3-2.8,6.2-1.7,9.4c1.1,3.2,4.1,8.2,7.8,7.5
		c3.7-0.6,8.2-3,6.5-4.7c-1.7-1.7-5-1.7-4.5-5.3c0.4-3.7,1.5-7.3-0.9-8.4c-2.4-1.1-5.2-0.2-4.5-2.4c0.6-2.2,1.3-4-0.6-4.5
		C799.6,776,798.1,777.3,798.1,777.3L798.1,777.3z"/>
	<path class="st2" d="M788.2,741.4c-1,0.8-1.4,1.6-1.2,3c0.3,2.6,2.5,3.4,4,2.4c1.5-1.1,2.9-3.7,1.9-5
		C791.9,740.5,789.6,740.2,788.2,741.4L788.2,741.4z"/>
	<g>
		<path d="M321.3,339.2h2.5v11.4h-2.5V339.2z"/>
		<path d="M329.2,339.2h2.5l4.8,7.7h0v-7.7h2.4v11.4h-2.5l-4.8-7.7h0v7.7h-2.4V339.2z"/>
		<path d="M344.3,339.2h4.9c3,0,5.2,1.9,5.2,5.7c0,3.3-1.7,5.8-5.2,5.8h-4.9V339.2z M346.8,348.5h2.2c1.5,0,2.8-0.9,2.8-3.4
			c0-2.3-0.8-3.8-3.3-3.8h-1.8V348.5z"/>
		<path d="M359.3,339.2h2.5v11.4h-2.5V339.2z"/>
		<path d="M367.2,339.2h8.5v2.1h-6v2.4h5.5v2h-5.5v2.8h6.2v2.1h-8.7V339.2z"/>
		<path d="M380.8,339.2h2.5l4.8,7.7h0v-7.7h2.4v11.4h-2.5l-4.8-7.7h0v7.7h-2.4V339.2z"/>
	</g>
	<g>
		<path d="M695.5,696.2h2.6l4.3,11.4h-2.6l-0.9-2.5h-4.3l-0.9,2.5h-2.5L695.5,696.2z M695.3,703.2h3l-1.4-4.2h0L695.3,703.2z"/>
		<path d="M706.6,696.2h2.5l4.8,7.7h0v-7.7h2.4v11.4h-2.5L709,700h0v7.7h-2.4V696.2z"/>
		<path d="M721.6,696.2h4.9c3,0,5.2,1.9,5.2,5.7c0,3.3-1.7,5.8-5.2,5.8h-4.9V696.2z M724.1,705.5h2.2c1.5,0,2.8-0.9,2.8-3.4
			c0-2.3-0.8-3.8-3.3-3.8h-1.8V705.5z"/>
		<path d="M739.8,696.2h2.6l4.3,11.4H744l-0.9-2.5h-4.3l-0.9,2.5h-2.5L739.8,696.2z M739.6,703.2h3l-1.4-4.2h0L739.6,703.2z"/>
		<path d="M750.8,696.2h3.5l2.7,7.9h0l2.5-7.9h3.5v11.4h-2.4v-8.1h0l-2.8,8.1H756l-2.8-8h0v8h-2.4V696.2z"/>
		<path d="M771.7,696.2h2.6l4.3,11.4h-2.6l-0.9-2.5h-4.3l-0.9,2.5h-2.5L771.7,696.2z M771.4,703.2h3L773,699h0L771.4,703.2z"/>
		<path d="M782.7,696.2h2.5l4.8,7.7h0v-7.7h2.4v11.4h-2.5l-4.8-7.7h0v7.7h-2.4V696.2z"/>
		<path d="M797.8,696.2h8.5v2.1h-6v2.4h5.5v2h-5.5v2.8h6.2v2.1h-8.7V696.2z"/>
		<path d="M811.3,696.2h2.5l4.8,7.7h0v-7.7h2.4v11.4h-2.5l-4.8-7.7h0v7.7h-2.4V696.2z"/>
	</g>
	<g>
		<path class="st4" d="M7.9,535.4h2.6l4.3,11.4h-2.6l-0.9-2.5H7l-0.9,2.5H3.6L7.9,535.4z M7.7,542.4h3l-1.4-4.2h0L7.7,542.4z"/>
		<path class="st4" d="M18.9,535.4h6.2c2,0,3.3,1.4,3.3,3.2c0,1.3-0.5,2.4-1.8,2.9v0c1.2,0.3,1.6,1.5,1.7,2.7c0,0.7,0,2.1,0.5,2.7
			h-2.5c-0.3-0.7-0.3-1.8-0.4-2.7c-0.2-1.2-0.6-1.7-1.9-1.7h-2.5v4.5h-2.5V535.4z M21.4,540.6h2.8c1.1,0,1.7-0.5,1.7-1.6
			c0-1.1-0.6-1.6-1.7-1.6h-2.8V540.6z"/>
		<path class="st4" d="M36.8,535.4h2.6l4.3,11.4H41l-0.9-2.5h-4.3l-0.9,2.5h-2.5L36.8,535.4z M36.6,542.4h3l-1.4-4.2h0L36.6,542.4z"
			/>
		<path class="st4" d="M47.8,535.4h5.4c2.2,0,3.6,0.7,3.6,2.8c0,1.1-0.6,1.9-1.6,2.4c1.4,0.4,2.1,1.5,2.1,2.9c0,2.3-2,3.3-4,3.3
			h-5.5V535.4z M50.4,540h2.5c0.9,0,1.5-0.4,1.5-1.4c0-1.1-0.8-1.3-1.7-1.3h-2.4V540z M50.4,544.9H53c1,0,1.9-0.3,1.9-1.5
			c0-1.2-0.7-1.6-1.8-1.6h-2.7V544.9z"/>
		<path class="st4" d="M62.3,535.4h2.5v11.4h-2.5V535.4z"/>
		<path class="st4" d="M71.9,543c0,1.5,1.2,2.1,2.5,2.1c0.9,0,2.2-0.3,2.2-1.4c0-1.2-1.7-1.4-3.4-1.9c-1.7-0.4-3.4-1.1-3.4-3.2
			c0-2.3,2.2-3.5,4.3-3.5c2.4,0,4.6,1,4.6,3.7h-2.4c-0.1-1.4-1.1-1.7-2.3-1.7c-0.8,0-1.7,0.3-1.7,1.3c0,0.9,0.5,1,3.4,1.7
			c0.8,0.2,3.4,0.7,3.4,3.3c0,2.1-1.6,3.7-4.8,3.7c-2.5,0-4.9-1.2-4.9-4.1H71.9z"/>
		<path class="st4" d="M91.4,539.2c-0.2-1.1-1.2-2-2.5-2c-2.3,0-3.1,1.9-3.1,3.9c0,1.9,0.8,3.8,3.1,3.8c1.5,0,2.4-1.1,2.6-2.6H94
			c-0.3,2.8-2.2,4.7-5,4.7c-3.5,0-5.6-2.6-5.6-5.9c0-3.4,2.1-6,5.6-6c2.5,0,4.6,1.5,4.9,4.1H91.4z"/>
		<path class="st4" d="M98.9,535.4h2.5v4.4h4.6v-4.4h2.5v11.4H106v-4.9h-4.6v4.9h-2.5V535.4z"/>
		<path class="st4" d="M113.9,535.4h8.5v2.1h-6v2.4h5.5v2h-5.5v2.8h6.2v2.1h-8.7V535.4z"/>
		<path class="st4" d="M129.2,543c0,1.5,1.2,2.1,2.5,2.1c0.9,0,2.2-0.3,2.2-1.4c0-1.2-1.7-1.4-3.4-1.9c-1.7-0.4-3.4-1.1-3.4-3.2
			c0-2.3,2.2-3.5,4.3-3.5c2.4,0,4.6,1,4.6,3.7h-2.4c-0.1-1.4-1.1-1.7-2.3-1.7c-0.8,0-1.7,0.3-1.7,1.3c0,0.9,0.5,1,3.4,1.7
			c0.8,0.2,3.4,0.7,3.4,3.3c0,2.1-1.6,3.7-4.8,3.7c-2.5,0-4.9-1.2-4.9-4.1H129.2z"/>
		<path class="st4" d="M43.1,554.6h3.5l2.7,7.9h0l2.5-7.9h3.5V566h-2.4v-8.1h0l-2.8,8.1h-1.9l-2.8-8h0v8h-2.4V554.6z"/>
		<path class="st4" d="M60.8,554.6h8.5v2.1h-6v2.4h5.5v2h-5.5v2.8h6.2v2.1h-8.7V554.6z"/>
		<path class="st4" d="M74.4,554.6H83v2.1h-6v2.4h5.5v2h-5.5v2.8h6.2v2.1h-8.7V554.6z"/>
		<path class="st4" d="M88,554.6h6.2c2,0,3.3,1.4,3.3,3.2c0,1.3-0.5,2.4-1.8,2.9v0c1.2,0.3,1.6,1.5,1.7,2.7c0,0.7,0,2.1,0.5,2.7
			h-2.5c-0.3-0.7-0.3-1.8-0.4-2.7c-0.2-1.2-0.6-1.7-1.9-1.7h-2.5v4.5H88V554.6z M90.5,559.8h2.8c1.1,0,1.7-0.5,1.7-1.6
			c0-1.1-0.6-1.6-1.7-1.6h-2.8V559.8z"/>
	</g>
	<g>
		<path class="st4" d="M521.5,656.2c-0.9,1.1-2,1.6-3.1,1.6c-3.5,0-5.6-2.6-5.6-5.9c0-3.4,2.1-6,5.6-6c2.3,0,4.5,1.4,4.8,4h-2.4
			c-0.3-1.3-1.2-1.9-2.4-1.9c-2.3,0-3.1,1.9-3.1,3.9c0,1.9,0.8,3.8,3.1,3.8c1.6,0,2.6-0.9,2.7-2.5h-2.5v-1.9h4.8v6.2h-1.6
			L521.5,656.2z"/>
		<path class="st4" d="M533.7,645.8c3.5,0,5.6,2.6,5.6,6c0,3.3-2.1,5.9-5.6,5.9c-3.5,0-5.6-2.6-5.6-5.9
			C528.1,648.5,530.1,645.8,533.7,645.8z M533.7,655.7c2.3,0,3.1-1.9,3.1-3.8c0-2-0.8-3.9-3.1-3.9s-3.1,1.9-3.1,3.9
			C530.6,653.8,531.4,655.7,533.7,655.7z"/>
		<path class="st4" d="M544.2,646.1h2.5v9.3h5.6v2.1h-8.1V646.1z"/>
		<path class="st4" d="M556.9,646.1h8v2.1h-5.5v2.6h4.8v2h-4.8v4.7h-2.5V646.1z"/>
		<path class="st4" d="M582.5,657.5h-2.8l-3.7-11.4h2.6l2.5,8h0l2.6-8h2.6L582.5,657.5z"/>
		<path class="st4" d="M595.6,645.8c3.5,0,5.6,2.6,5.6,6c0,3.3-2.1,5.9-5.6,5.9s-5.6-2.6-5.6-5.9C590,648.5,592.1,645.8,595.6,645.8
			z M595.6,655.7c2.3,0,3.1-1.9,3.1-3.8c0-2-0.8-3.9-3.1-3.9s-3.1,1.9-3.1,3.9C592.5,653.8,593.4,655.7,595.6,655.7z"/>
		<path class="st4" d="M606.2,646.1h2.5l4.8,7.7h0v-7.7h2.4v11.4h-2.5l-4.8-7.7h0v7.7h-2.4V646.1z"/>
		<path class="st4" d="M510.3,665.3h5.4c2.2,0,3.7,0.7,3.7,2.8c0,1.1-0.6,1.9-1.6,2.4c1.4,0.4,2.1,1.5,2.1,2.9c0,2.3-2,3.3-4,3.3
			h-5.5V665.3z M512.8,669.9h2.5c0.9,0,1.5-0.4,1.5-1.4c0-1.1-0.8-1.3-1.7-1.3h-2.4V669.9z M512.8,674.8h2.7c1,0,1.9-0.3,1.9-1.5
			c0-1.2-0.7-1.6-1.8-1.6h-2.7V674.8z"/>
		<path class="st4" d="M524.7,665.3h8.5v2.1h-6v2.4h5.5v2h-5.5v2.8h6.2v2.1h-8.7V665.3z"/>
		<path class="st4" d="M538.3,665.3h2.5l4.8,7.7h0v-7.7h2.4v11.4h-2.5l-4.8-7.7h0v7.7h-2.4V665.3z"/>
		<path class="st4" d="M561.6,675.4c-0.9,1.1-2,1.6-3.1,1.6c-3.5,0-5.6-2.6-5.6-5.9c0-3.4,2.1-6,5.6-6c2.3,0,4.5,1.4,4.8,4h-2.4
			c-0.3-1.3-1.2-1.9-2.4-1.9c-2.3,0-3.1,1.9-3.1,3.9c0,1.9,0.8,3.8,3.1,3.8c1.6,0,2.6-0.9,2.7-2.5h-2.5v-1.9h4.8v6.2h-1.6
			L561.6,675.4z"/>
		<path class="st4" d="M571.8,665.3h2.6l4.3,11.4h-2.6l-0.9-2.5h-4.3l-0.9,2.5h-2.5L571.8,665.3z M571.6,672.3h3l-1.4-4.2h0
			L571.6,672.3z"/>
		<path class="st4" d="M582.8,665.3h2.5v9.3h5.6v2.1h-8.1V665.3z"/>
		<path class="st4" d="M595.5,665.3h8.5v2.1h-6v2.4h5.5v2H598v2.8h6.2v2.1h-8.7V665.3z"/>
		<path class="st4" d="M609.1,665.3h2.5l4.8,7.7h0v-7.7h2.4v11.4h-2.5l-4.8-7.7h0v7.7h-2.4V665.3z"/>
	</g>
	<circle class="st5" cx="295.1" cy="92.7" r="4.3"/>
	<circle class="st5" cx="322" cy="135.3" r="4.3"/>
	<circle class="st5" cx="468" cy="190.7" r="4.3"/>
	<circle class="st5" cx="194.3" cy="401.9" r="4.3"/>
	<circle class="st5" cx="364" cy="227.8" r="4.3"/>
	<g>
		<path class="st4" d="M496.5,167.4c0-0.6-0.3-1.4-1-1.4c-0.8,0-1.2,0.9-1.2,3c0,2.1,0.2,3.4,1.2,3.4c0.4,0,1.1-0.4,1.1-1.4v-0.9
			h-1.1v-1.3h2.8v4.6h-1.3v-0.8h0c-0.4,0.7-1,1-1.8,1c-2.1,0-2.5-1.6-2.5-4.5c0-2.9,0.7-4.4,2.9-4.4c1.9,0,2.7,1,2.7,2.7H496.5z"/>
		<path class="st4" d="M499.8,169v-0.2c0-1.5,1-2,2.3-2c2,0,2.3,0.8,2.3,2v3.4c0,0.6,0,0.9,0.2,1.2H503c-0.1-0.2-0.2-0.5-0.2-0.7h0
			c-0.4,0.7-0.9,0.8-1.6,0.8c-1.2,0-1.6-1-1.6-1.8c0-1.2,0.5-1.7,1.6-2l0.9-0.3c0.5-0.1,0.7-0.3,0.7-0.8c0-0.5-0.2-0.8-0.8-0.8
			c-0.5,0-0.8,0.3-0.8,0.8v0.2H499.8z M502.8,170.2c-0.2,0.2-0.5,0.3-0.7,0.3c-0.7,0.1-0.9,0.5-0.9,1c0,0.5,0.2,0.9,0.6,0.9
			c0.4,0,1-0.3,1-1V170.2z"/>
		<path class="st4" d="M506,167h1.6v0.8h0c0.3-0.6,0.9-0.9,1.6-0.9c1,0,1.6,0.6,1.6,1.8v4.8h-1.7V169c0-0.6-0.2-0.9-0.7-0.9
			c-0.6,0-0.9,0.3-0.9,1.1v4.3H506V167z"/>
		<path class="st4" d="M517.3,167v6.1c0,1.7-0.8,2.5-2.7,2.5c-1.4,0-2.2-0.6-2.2-1.7h1.6c0,0.2,0.1,0.4,0.3,0.5s0.3,0.2,0.6,0.2
			c0.7,0,0.9-0.5,0.9-1.2v-0.9h0c-0.3,0.5-0.9,0.8-1.4,0.8c-1.3,0-2-0.9-2-3.3c0-1.5,0.2-3.3,2-3.3c0.5,0,1,0.2,1.3,0.9h0V167H517.3
			z M514.9,172.1c0.7,0,0.9-0.8,0.9-1.8c0-1.6-0.2-2.2-0.9-2.2c-0.7,0-0.9,0.6-0.9,2.3C514,171.3,514.2,172.1,514.9,172.1z"/>
		<path class="st4" d="M520.4,170.4v0.5c0,0.8,0.2,1.5,0.8,1.5c0.6,0,0.8-0.4,0.9-1.2h1.5c-0.1,1.5-0.8,2.3-2.3,2.3
			c-2.4,0-2.5-1.8-2.5-3.5c0-1.7,0.3-3.3,2.6-3.3c1.9,0,2.4,1.3,2.4,3.3v0.4H520.4z M522.1,169.5c0-1-0.2-1.5-0.8-1.5
			c-0.7,0-0.9,0.7-0.9,1.3v0.3H522.1z"/>
		<path class="st4" d="M526.2,171.3v0.2c0,0.6,0.3,0.9,0.9,0.9c0.5,0,0.8-0.3,0.8-0.8c0-0.4-0.3-0.6-0.6-0.7l-1.2-0.4
			c-0.9-0.3-1.4-0.9-1.4-1.8c0-1.1,0.7-1.9,2.4-1.9c1.5,0,2.2,0.7,2.2,1.8v0.3h-1.5c0-0.6-0.2-1-0.7-1c-0.4,0-0.8,0.2-0.8,0.7
			c0,0.3,0.2,0.6,0.7,0.8l1,0.3c1,0.3,1.4,0.9,1.4,1.8c0,1.4-1,2-2.4,2c-1.9,0-2.4-0.8-2.4-2.1v-0.2H526.2z"/>
	</g>
	<g>
		<path class="st6" d="M477,79.9h1.9l3.6,5.7h0v-5.7h1.8v8.6h-1.9l-3.6-5.7h0v5.7H477V79.9z"/>
		<path class="st6" d="M488.3,79.9h6.4v1.6h-4.5v1.8h4.2v1.5h-4.2v2.1h4.6v1.6h-6.5V79.9z"/>
		<path class="st6" d="M498.5,79.9h3.9c2.1,0,3,1.4,3,2.7c0,1.4-0.8,2.7-3,2.7h-2v3.1h-1.9V79.9z M500.3,83.9h1.5
			c0.9,0,1.7-0.2,1.7-1.3c0-1.1-0.8-1.3-1.7-1.3h-1.5V83.9z"/>
		<path class="st6" d="M511.2,79.9h1.9l3.2,8.6h-2l-0.6-1.9h-3.2l-0.7,1.9h-1.9L511.2,79.9z M511,85.2h2.2l-1.1-3.1h0L511,85.2z"/>
		<path class="st6" d="M519.5,79.9h1.9v7h4.2v1.6h-6.1V79.9z"/>
	</g>
	<g>
		<path class="st6" d="M595.1,34.3c-0.1-0.9-0.9-1.5-1.9-1.5c-1.7,0-2.3,1.4-2.3,2.9c0,1.4,0.6,2.9,2.3,2.9c1.2,0,1.8-0.8,1.9-1.9
			h1.8c-0.2,2.1-1.7,3.5-3.8,3.5c-2.7,0-4.2-2-4.2-4.4c0-2.5,1.6-4.5,4.2-4.5c1.9,0,3.5,1.1,3.7,3.1H595.1z"/>
		<path class="st6" d="M600.7,31.5h1.9v3.3h3.5v-3.3h1.9V40H606v-3.7h-3.5V40h-1.9V31.5z"/>
		<path class="st6" d="M612,31.5h1.9V40H612V31.5z"/>
		<path class="st6" d="M617.9,31.5h1.9l3.6,5.7h0v-5.7h1.8V40h-1.9l-3.6-5.7h0V40h-1.8V31.5z"/>
		<path class="st6" d="M631.5,31.5h1.9l3.2,8.6h-2l-0.6-1.9h-3.2l-0.7,1.9h-1.9L631.5,31.5z M631.3,36.7h2.2l-1.1-3.1h0L631.3,36.7z
			"/>
	</g>
	<g>
		<path class="st6" d="M659,98.1h4c1.6,0,2.7,0.5,2.7,2.1c0,0.8-0.4,1.4-1.2,1.8c1,0.3,1.6,1.1,1.6,2.2c0,1.7-1.5,2.5-3,2.5H659
			V98.1z M660.8,101.5h1.9c0.7,0,1.2-0.3,1.2-1c0-0.8-0.6-1-1.3-1h-1.8V101.5z M660.8,105.2h2c0.7,0,1.4-0.2,1.4-1.1
			c0-0.9-0.6-1.2-1.4-1.2h-2.1V105.2z"/>
		<path class="st6" d="M677.1,103.4c0,2.3-1.4,3.4-3.7,3.4c-2.3,0-3.6-1.1-3.6-3.4v-5.3h1.9v5.3c0,0.9,0.2,1.9,1.8,1.9
			c1.3,0,1.8-0.6,1.8-1.9v-5.3h1.9V103.4z"/>
		<path class="st6" d="M683,99.7h-2.6v-1.6h7v1.6h-2.6v7H683V99.7z"/>
		<path class="st6" d="M693.2,98.1h1.9l3.2,8.6h-2l-0.6-1.9h-3.2l-0.7,1.9h-1.9L693.2,98.1z M693,103.3h2.2l-1.1-3.1h0L693,103.3z"
			/>
		<path class="st6" d="M701.5,98.1h1.9l3.6,5.7h0v-5.7h1.8v8.6h-1.9l-3.6-5.7h0v5.7h-1.8V98.1z"/>
	</g>
	<g>
		<path class="st6" d="M636.2,223.8h4c1.6,0,2.7,0.5,2.7,2.1c0,0.8-0.4,1.4-1.2,1.8c1,0.3,1.6,1.1,1.6,2.2c0,1.7-1.5,2.5-3,2.5h-4.1
			V223.8z M638.1,227.2h1.9c0.7,0,1.2-0.3,1.2-1c0-0.8-0.6-1-1.3-1h-1.8V227.2z M638.1,230.9h2c0.7,0,1.4-0.2,1.4-1.1
			c0-0.9-0.6-1.2-1.4-1.2h-2.1V230.9z"/>
		<path class="st6" d="M649.4,223.8h1.9l3.2,8.6h-2l-0.6-1.9h-3.2l-0.7,1.9h-1.9L649.4,223.8z M649.2,229h2.2l-1.1-3.1h0L649.2,229z
			"/>
		<path class="st6" d="M657.6,223.8h1.9l3.6,5.7h0v-5.7h1.8v8.6H663l-3.6-5.7h0v5.7h-1.8V223.8z"/>
		<path class="st6" d="M675.1,231.4c-0.7,0.9-1.5,1.2-2.4,1.2c-2.7,0-4.2-2-4.2-4.4c0-2.5,1.6-4.5,4.2-4.5c1.8,0,3.4,1.1,3.6,3h-1.8
			c-0.2-0.9-0.9-1.4-1.8-1.4c-1.7,0-2.3,1.4-2.3,2.9c0,1.4,0.6,2.9,2.3,2.9c1.2,0,1.9-0.7,2-1.8h-1.9v-1.4h3.6v4.6h-1.2L675.1,231.4
			z"/>
		<path class="st6" d="M680.4,223.8h1.9v7h4.2v1.6h-6.1V223.8z"/>
		<path class="st6" d="M692.3,223.8h1.9l3.2,8.6h-2l-0.6-1.9h-3.2l-0.7,1.9H689L692.3,223.8z M692.1,229h2.2l-1.1-3.1h0L692.1,229z"
			/>
		<path class="st6" d="M700.4,228.3h3.6v1.5h-3.6V228.3z"/>
		<path class="st6" d="M644.9,238.2h3.7c2.2,0,3.9,1.4,3.9,4.2c0,2.5-1.3,4.3-3.9,4.3h-3.7V238.2z M646.8,245.2h1.7
			c1.1,0,2.1-0.7,2.1-2.6c0-1.7-0.6-2.8-2.5-2.8h-1.3V245.2z"/>
		<path class="st6" d="M656.2,238.2h6.4v1.6h-4.5v1.8h4.1v1.5h-4.1v2.1h4.6v1.6h-6.5V238.2z"/>
		<path class="st6" d="M667.6,243.9c0,1.1,0.9,1.6,1.9,1.6c0.7,0,1.7-0.2,1.7-1.1c0-0.9-1.3-1.1-2.5-1.4c-1.3-0.3-2.6-0.8-2.6-2.4
			c0-1.8,1.7-2.6,3.2-2.6c1.8,0,3.4,0.8,3.4,2.8h-1.8c-0.1-1-0.8-1.3-1.7-1.3c-0.6,0-1.3,0.3-1.3,1c0,0.7,0.4,0.7,2.6,1.3
			c0.6,0.2,2.5,0.6,2.5,2.5c0,1.6-1.2,2.7-3.6,2.7c-1.9,0-3.7-0.9-3.6-3H667.6z"/>
		<path class="st6" d="M682.3,241.1c-0.1-0.9-0.9-1.5-1.9-1.5c-1.7,0-2.3,1.4-2.3,2.9c0,1.4,0.6,2.9,2.3,2.9c1.2,0,1.8-0.8,1.9-1.9
			h1.8c-0.2,2.1-1.7,3.5-3.8,3.5c-2.7,0-4.2-2-4.2-4.4c0-2.5,1.6-4.5,4.2-4.5c1.9,0,3.5,1.1,3.7,3.1H682.3z"/>
		<path class="st6" d="M687.8,238.2h1.9v3.3h3.5v-3.3h1.9v8.6h-1.9V243h-3.5v3.7h-1.9V238.2z"/>
	</g>
	<g>
		<path class="st7" d="M252.5,101.7h3.8c3.2,0,3.8,2.2,3.8,5.6c0,4-0.9,5.9-3.9,5.9h-3.6V101.7z M254.8,111.4h1c1.6,0,1.9-1,1.9-4.1
			c0-2.6-0.2-3.9-2-3.9h-1V111.4z"/>
		<path class="st7" d="M264,109.2v0.7c0,1,0.3,2,1.1,2c0.7,0,1-0.6,1.2-1.6h2c-0.1,2-1,3.1-3.1,3.1c-3.2,0-3.3-2.5-3.3-4.6
			c0-2.3,0.4-4.4,3.4-4.4c2.6,0,3.2,1.7,3.2,4.4v0.5H264z M266.3,107.9c0-1.3-0.2-2-1.1-2c-0.9,0-1.1,0.9-1.1,1.7v0.3H266.3z"/>
		<path class="st7" d="M270.2,101.7h2.2v11.4h-2.2V101.7z"/>
		<path class="st7" d="M274.6,101.7h2.2v3.7h0c0.4-0.7,1.2-1.1,2.1-1.1c1.4,0,2.2,0.8,2.2,2.4v6.4H279v-5.9c0-0.9-0.3-1.2-0.9-1.2
			c-0.8,0-1.2,0.5-1.2,1.4v5.7h-2.2V101.7z"/>
		<path class="st7" d="M283.4,101.6h2.2v1.9h-2.2V101.6z M283.4,104.5h2.2v8.6h-2.2V104.5z"/>
	</g>
	<g>
		<path class="st7" d="M292,142h2.8l3,11.4h-2.4L295,151h-3l-0.5,2.4H289L292,142z M292.3,149.1h2.2l-1.1-5.1h0L292.3,149.1z"/>
		<path class="st7" d="M305.7,144.8v8.2c0,2.3-1,3.4-3.6,3.4c-1.9,0-2.9-0.8-2.9-2.3h2.1c0,0.3,0.1,0.5,0.3,0.7s0.5,0.2,0.7,0.2
			c0.9,0,1.2-0.7,1.2-1.6v-1.1h0c-0.4,0.6-1.1,1.1-1.8,1.1c-1.8,0-2.6-1.2-2.6-4.4c0-2,0.3-4.4,2.7-4.4c0.6,0,1.4,0.3,1.8,1.2h0v-1
			H305.7z M302.4,151.6c0.9,0,1.2-1,1.2-2.5c0-2.1-0.3-2.9-1.2-2.9c-1,0-1.2,0.8-1.2,3.1C301.3,150.6,301.5,151.6,302.4,151.6z"/>
		<path class="st7" d="M307.9,144.8h2.1v1.2h0c0.4-0.8,1.1-1.4,2-1.4c0.1,0,0.3,0,0.4,0v2.1c-0.2,0-0.5,0-0.7,0
			c-0.8,0-1.6,0.4-1.6,1.6v5.2h-2.2V144.8z"/>
		<path class="st7" d="M313.9,147.4v-0.2c0-2,1.4-2.7,3-2.7c2.6,0,3.1,1.1,3.1,2.6v4.5c0,0.8,0,1.2,0.3,1.7h-2.1
			c-0.1-0.3-0.2-0.6-0.3-0.9h0c-0.5,0.9-1.1,1.1-2.2,1.1c-1.5,0-2.1-1.3-2.1-2.5c0-1.6,0.7-2.3,2.2-2.7l1.2-0.3
			c0.7-0.2,0.9-0.4,0.9-1c0-0.7-0.3-1.1-1-1.1c-0.7,0-1,0.4-1,1.1v0.2H313.9z M317.9,149.1c-0.3,0.2-0.7,0.4-0.9,0.4
			c-0.9,0.2-1.2,0.6-1.2,1.4c0,0.7,0.2,1.2,0.8,1.2s1.4-0.4,1.4-1.3V149.1z"/>
	</g>
	<g>
		<path class="st7" d="M475.1,198.4l1.6,8.5h0l1.7-8.5h2.4l-2.6,11.4h-3l-2.6-11.4H475.1z"/>
		<path class="st7" d="M482.2,203.8v-0.2c0-2,1.4-2.7,3-2.7c2.6,0,3.1,1.1,3.1,2.6v4.5c0,0.8,0,1.2,0.3,1.7h-2.1
			c-0.1-0.3-0.2-0.6-0.3-0.9h0c-0.5,0.9-1.1,1.1-2.2,1.1c-1.5,0-2.1-1.3-2.1-2.5c0-1.6,0.7-2.3,2.2-2.7l1.2-0.3
			c0.7-0.2,0.9-0.4,0.9-1c0-0.7-0.3-1.1-1-1.1c-0.7,0-1,0.4-1,1.1v0.2H482.2z M486.3,205.5c-0.3,0.2-0.7,0.4-0.9,0.4
			c-0.9,0.2-1.2,0.6-1.2,1.4c0,0.7,0.2,1.2,0.8,1.2c0.6,0,1.4-0.4,1.4-1.3V205.5z"/>
		<path class="st7" d="M490.6,201.2h2.1v1.2h0c0.4-0.8,1.1-1.4,2-1.4c0.1,0,0.3,0,0.4,0v2.1c-0.2,0-0.5,0-0.7,0
			c-0.8,0-1.6,0.4-1.6,1.6v5.2h-2.2V201.2z"/>
		<path class="st7" d="M496.5,203.8v-0.2c0-2,1.4-2.7,3-2.7c2.6,0,3.1,1.1,3.1,2.6v4.5c0,0.8,0,1.2,0.3,1.7h-2.1
			c-0.1-0.3-0.2-0.6-0.3-0.9h0c-0.5,0.9-1.1,1.1-2.2,1.1c-1.5,0-2.1-1.3-2.1-2.5c0-1.6,0.7-2.3,2.2-2.7l1.2-0.3
			c0.7-0.2,0.9-0.4,0.9-1c0-0.7-0.3-1.1-1-1.1c-0.7,0-1,0.4-1,1.1v0.2H496.5z M500.6,205.5c-0.3,0.2-0.7,0.4-0.9,0.4
			c-0.9,0.2-1.2,0.6-1.2,1.4c0,0.7,0.2,1.2,0.8,1.2c0.6,0,1.4-0.4,1.4-1.3V205.5z"/>
		<path class="st7" d="M504.9,201.2h2.1v1h0c0.5-0.8,1.3-1.2,2.2-1.2c1.4,0,2.2,0.8,2.2,2.4v6.4h-2.2v-5.9c0-0.9-0.3-1.2-0.9-1.2
			c-0.8,0-1.2,0.5-1.2,1.4v5.7h-2.2V201.2z"/>
		<path class="st7" d="M513.5,203.8v-0.2c0-2,1.4-2.7,3-2.7c2.6,0,3.1,1.1,3.1,2.6v4.5c0,0.8,0,1.2,0.3,1.7h-2.1
			c-0.1-0.3-0.2-0.6-0.3-0.9h0c-0.5,0.9-1.1,1.1-2.2,1.1c-1.5,0-2.1-1.3-2.1-2.5c0-1.6,0.7-2.3,2.2-2.7l1.2-0.3
			c0.7-0.2,0.9-0.4,0.9-1c0-0.7-0.3-1.1-1-1.1c-0.7,0-1,0.4-1,1.1v0.2H513.5z M517.6,205.5c-0.3,0.2-0.7,0.4-0.9,0.4
			c-0.9,0.2-1.2,0.6-1.2,1.4c0,0.7,0.2,1.2,0.8,1.2c0.6,0,1.4-0.4,1.4-1.3V205.5z"/>
		<path class="st7" d="M523.5,207v0.3c0,0.8,0.4,1.2,1.2,1.2c0.7,0,1.1-0.3,1.1-1c0-0.6-0.4-0.8-0.8-1l-1.6-0.6
			c-1.2-0.4-1.8-1.2-1.8-2.4c0-1.4,0.9-2.6,3.2-2.6c2,0,2.9,0.9,2.9,2.4v0.4h-2c0-0.9-0.3-1.3-1-1.3c-0.6,0-1,0.3-1,0.9
			c0,0.4,0.2,0.8,1,1l1.3,0.4c1.4,0.5,1.9,1.2,1.9,2.5c0,1.8-1.3,2.7-3.2,2.7c-2.5,0-3.2-1.1-3.2-2.7V207H523.5z"/>
		<path class="st7" d="M529.7,198.3h2.2v1.9h-2.2V198.3z M529.7,201.2h2.2v8.6h-2.2V201.2z"/>
	</g>
	<g>
		<path class="st7" d="M292.7,191.6c3.5,0,3.9,2.5,3.9,5.9c0,3.5-0.4,5.9-3.9,5.9s-3.9-2.5-3.9-5.9
			C288.8,194,289.3,191.6,292.7,191.6z M292.7,201.7c1.4,0,1.6-1.2,1.6-4.2c0-3.1-0.2-4.2-1.6-4.2c-1.4,0-1.6,1.2-1.6,4.2
			C291.1,200.6,291.4,201.7,292.7,201.7z"/>
		<path class="st7" d="M298.5,194.6h2.1v1.2h0c0.4-0.8,1.1-1.4,2-1.4c0.1,0,0.3,0,0.4,0v2.1c-0.2,0-0.5,0-0.7,0
			c-0.8,0-1.6,0.4-1.6,1.6v5.2h-2.2V194.6z"/>
		<path class="st7" d="M308.7,197.7c0-0.8-0.2-1.7-1-1.7c-1.1,0-1.3,1-1.3,2.9c0,2.1,0.2,3,1.2,3c0.7,0,1.1-0.6,1.1-2h2.1
			c0,2.3-0.9,3.5-3.3,3.5c-2.2,0-3.3-1.1-3.3-4.5c0-3.5,1.5-4.5,3.5-4.5c2,0,3.1,1.3,3.1,3.3H308.7z"/>
		<path class="st7" d="M312.6,191.8h2.2v3.7h0c0.4-0.7,1.2-1.1,2.1-1.1c1.4,0,2.2,0.8,2.2,2.4v6.4h-2.2v-5.9c0-0.9-0.3-1.2-0.9-1.2
			c-0.8,0-1.2,0.5-1.2,1.4v5.7h-2.2V191.8z"/>
		<path class="st7" d="M321.2,191.8h2.2v3.7h0c0.4-0.7,1.2-1.1,2.1-1.1c1.4,0,2.2,0.8,2.2,2.4v6.4h-2.2v-5.9c0-0.9-0.3-1.2-0.9-1.2
			c-0.8,0-1.2,0.5-1.2,1.4v5.7h-2.2V191.8z"/>
		<path class="st7" d="M329.8,197.2V197c0-2,1.4-2.7,3-2.7c2.6,0,3.1,1.1,3.1,2.6v4.5c0,0.8,0,1.2,0.3,1.7h-2.1
			c-0.1-0.3-0.2-0.6-0.3-0.9h0c-0.5,0.9-1.1,1.1-2.2,1.1c-1.5,0-2.1-1.3-2.1-2.5c0-1.6,0.7-2.3,2.2-2.7l1.2-0.3
			c0.7-0.2,0.9-0.4,0.9-1c0-0.7-0.3-1.1-1-1.1c-0.7,0-1,0.4-1,1.1v0.2H329.8z M333.9,198.9c-0.3,0.2-0.7,0.4-0.9,0.4
			c-0.9,0.2-1.2,0.6-1.2,1.4c0,0.7,0.2,1.2,0.8,1.2s1.4-0.4,1.4-1.3V198.9z"/>
	</g>
	<g>
		<path class="st7" d="M373.3,237.3v4.6h0l2.9-4.6h2.5l-3.1,4.9l3.5,6.5h-2.6l-2.4-4.7l-0.8,1.3v3.4H371v-11.4H373.3z"/>
		<path class="st7" d="M380.2,237.3h2.2v3.7h0c0.4-0.7,1.2-1.1,2.1-1.1c1.4,0,2.2,0.8,2.2,2.4v6.4h-2.2v-5.9c0-0.9-0.3-1.2-0.9-1.2
			c-0.8,0-1.2,0.5-1.2,1.4v5.7h-2.2V237.3z"/>
		<path class="st7" d="M388.8,242.7v-0.2c0-2,1.4-2.7,3-2.7c2.6,0,3.1,1.1,3.1,2.6v4.5c0,0.8,0,1.2,0.3,1.7h-2.1
			c-0.1-0.3-0.2-0.6-0.3-0.9h0c-0.5,0.9-1.1,1.1-2.2,1.1c-1.5,0-2.1-1.3-2.1-2.5c0-1.6,0.7-2.3,2.2-2.7l1.2-0.3
			c0.7-0.2,0.9-0.4,0.9-1c0-0.7-0.3-1.1-1-1.1c-0.7,0-1,0.4-1,1.1v0.2H388.8z M392.8,244.4c-0.3,0.2-0.7,0.4-0.9,0.4
			c-0.9,0.2-1.2,0.6-1.2,1.4c0,0.7,0.2,1.2,0.8,1.2c0.6,0,1.4-0.4,1.4-1.3V244.4z"/>
		<path class="st7" d="M397.2,240.1h2.2v9.2c0,1.4-0.5,2.2-2.5,2.2c-0.3,0-0.6,0-0.9,0v-1.6c0.1,0,0.2,0,0.4,0
			c0.8,0,0.9-0.4,0.9-1.4V240.1z M397.2,237.2h2.2v1.9h-2.2V237.2z"/>
		<path class="st7" d="M406,247.7L406,247.7c-0.5,0.8-1.3,1.2-2.2,1.2c-1.4,0-2.2-0.8-2.2-2.4v-6.4h2.2v5.9c0,0.9,0.3,1.2,0.9,1.2
			c0.8,0,1.2-0.5,1.2-1.4v-5.7h2.2v8.6H406V247.7z"/>
		<path class="st7" d="M410.3,240.1h2.1v1.2h0c0.4-0.8,1.1-1.4,2-1.4c0.1,0,0.3,0,0.4,0v2.1c-0.2,0-0.5,0-0.7,0
			c-0.8,0-1.6,0.4-1.6,1.6v5.2h-2.2V240.1z"/>
		<path class="st7" d="M416.2,242.7v-0.2c0-2,1.4-2.7,3-2.7c2.6,0,3.1,1.1,3.1,2.6v4.5c0,0.8,0,1.2,0.3,1.7h-2.1
			c-0.1-0.3-0.2-0.6-0.3-0.9h0c-0.5,0.9-1.1,1.1-2.2,1.1c-1.5,0-2.1-1.3-2.1-2.5c0-1.6,0.7-2.3,2.2-2.7l1.2-0.3
			c0.7-0.2,0.9-0.4,0.9-1c0-0.7-0.3-1.1-1-1.1c-0.7,0-1,0.4-1,1.1v0.2H416.2z M420.2,244.4c-0.3,0.2-0.7,0.4-0.9,0.4
			c-0.9,0.2-1.2,0.6-1.2,1.4c0,0.7,0.2,1.2,0.8,1.2c0.6,0,1.4-0.4,1.4-1.3V244.4z"/>
		<path class="st7" d="M424.6,237.3h2.2v3.7h0c0.4-0.7,1.2-1.1,2.1-1.1c1.4,0,2.2,0.8,2.2,2.4v6.4h-2.2v-5.9c0-0.9-0.3-1.2-0.9-1.2
			c-0.8,0-1.2,0.5-1.2,1.4v5.7h-2.2V237.3z"/>
		<path class="st7" d="M436.3,239.9c2.7,0,3.4,1.5,3.4,4.5c0,2.9-0.9,4.5-3.4,4.5c-2.7,0-3.4-1.5-3.4-4.5
			C432.9,241.5,433.8,239.9,436.3,239.9z M436.3,247.4c0.9,0,1.2-0.9,1.2-3s-0.3-3-1.2-3c-1.1,0-1.2,1.3-1.2,3
			S435.2,247.4,436.3,247.4z"/>
	</g>
	<g>
		<path class="st7" d="M396.6,606.2c0-1.7-0.3-2.4-1.4-2.4c-1.2,0-1.4,1.2-1.4,4.4c0,3.5,0.5,4.1,1.5,4.1c0.8,0,1.4-0.4,1.4-2.9h2.3
			c0,2.5-0.6,4.6-3.6,4.6c-3.5,0-3.9-2.5-3.9-5.9c0-3.5,0.4-5.9,3.9-5.9c3.3,0,3.5,2.4,3.5,4.1H396.6z"/>
		<path class="st7" d="M400.9,602.3h2.2v3.7h0c0.4-0.7,1.2-1.1,2.1-1.1c1.4,0,2.2,0.8,2.2,2.4v6.4h-2.2v-5.9c0-0.9-0.3-1.2-0.9-1.2
			c-0.8,0-1.2,0.5-1.2,1.4v5.7h-2.2V602.3z"/>
		<path class="st7" d="M411.4,609.8v0.7c0,1,0.3,2,1.1,2c0.7,0,1-0.6,1.2-1.6h2c-0.1,2-1,3.1-3.1,3.1c-3.2,0-3.3-2.5-3.3-4.6
			c0-2.3,0.4-4.5,3.4-4.5c2.6,0,3.2,1.7,3.2,4.4v0.5H411.4z M413.7,608.4c0-1.3-0.2-2-1.1-2c-0.9,0-1.1,0.9-1.1,1.7v0.3H413.7z"/>
		<path class="st7" d="M417.6,605.1h2.1v1h0c0.5-0.8,1.3-1.2,2.2-1.2c1.4,0,2.2,0.8,2.2,2.4v6.4h-2.2v-5.9c0-0.9-0.3-1.2-0.9-1.2
			c-0.8,0-1.2,0.5-1.2,1.4v5.7h-2.2V605.1z"/>
		<path class="st7" d="M426.2,605.1h2.1v1h0c0.5-0.8,1.3-1.2,2.2-1.2c1.4,0,2.2,0.8,2.2,2.4v6.4h-2.2v-5.9c0-0.9-0.3-1.2-0.9-1.2
			c-0.8,0-1.2,0.5-1.2,1.4v5.7h-2.2V605.1z"/>
		<path class="st7" d="M434.9,607.8v-0.2c0-2,1.4-2.7,3-2.7c2.6,0,3.1,1.1,3.1,2.6v4.5c0,0.8,0,1.2,0.3,1.7h-2.1
			c-0.1-0.3-0.2-0.6-0.3-0.9h0c-0.5,0.9-1.1,1.1-2.2,1.1c-1.5,0-2.1-1.3-2.1-2.5c0-1.6,0.7-2.3,2.2-2.7l1.2-0.3
			c0.7-0.2,0.9-0.4,0.9-1c0-0.7-0.3-1.1-1-1.1c-0.7,0-1,0.4-1,1.1v0.2H434.9z M438.9,609.4c-0.3,0.2-0.7,0.4-0.9,0.4
			c-0.9,0.2-1.2,0.6-1.2,1.4c0,0.7,0.2,1.2,0.8,1.2c0.6,0,1.4-0.4,1.4-1.3V609.4z"/>
		<path class="st7" d="M443.3,602.2h2.2v1.9h-2.2V602.2z M443.3,605.1h2.2v8.6h-2.2V605.1z"/>
	</g>
	<g>
		<path class="st7" d="M763.5,647.9h4c2.3,0,3.1,1.7,3.1,3.4c0,2.4-1.5,3.4-3.6,3.4h-1.2v4.6h-2.3V647.9z M765.8,653.1h1
			c0.9,0,1.5-0.5,1.5-1.7c0-1.1-0.4-1.8-1.6-1.8h-1V653.1z"/>
		<path class="st7" d="M775.5,650.5c2.7,0,3.4,1.5,3.4,4.5c0,2.9-0.9,4.5-3.4,4.5c-2.7,0-3.4-1.5-3.4-4.5
			C772.1,652.1,773,650.5,775.5,650.5z M775.5,658.1c0.9,0,1.2-0.9,1.2-3c0-2.1-0.3-3-1.2-3c-1.1,0-1.2,1.3-1.2,3
			S774.4,658.1,775.5,658.1z"/>
		<path class="st7" d="M780.7,650.8h2.1v1.2h0c0.4-0.8,1.1-1.4,2-1.4c0.1,0,0.3,0,0.4,0v2.1c-0.2,0-0.5,0-0.7,0
			c-0.8,0-1.6,0.4-1.6,1.6v5.2h-2.2V650.8z"/>
		<path class="st7" d="M787.2,648.3h2.2v2.5h1.3v1.5h-1.3v4.7c0,0.7,0.1,0.9,0.8,0.9c0.2,0,0.4,0,0.5,0v1.5c-0.5,0-0.9,0.1-1.4,0.1
			c-1.7,0-2-0.5-2-2.3v-4.9H786v-1.5h1.1V648.3z"/>
		<path class="st7" d="M796.6,647.9h3.9c1.9,0,3.2,0.7,3.2,2.9c0,1.2-0.6,2.2-1.7,2.5v0c1.3,0.2,2.1,1.1,2.1,2.7
			c0,1.8-0.9,3.3-3.6,3.3h-3.9V647.9z M798.9,652.6h0.7c1.3,0,1.8-0.4,1.8-1.5c0-1.1-0.5-1.5-1.7-1.5h-0.8V652.6z M798.9,657.7h0.9
			c1.1,0,1.9-0.4,1.9-1.7c0-1.3-0.8-1.7-1.8-1.7h-1V657.7z"/>
		<path class="st7" d="M806.2,647.9h2.2v11.4h-2.2V647.9z"/>
		<path class="st7" d="M810.5,653.4v-0.2c0-2,1.4-2.7,3-2.7c2.6,0,3.1,1.1,3.1,2.6v4.5c0,0.8,0,1.2,0.3,1.7h-2.1
			c-0.1-0.3-0.2-0.6-0.3-0.9h0c-0.5,0.9-1.1,1.1-2.2,1.1c-1.5,0-2.1-1.3-2.1-2.5c0-1.6,0.7-2.3,2.2-2.7l1.2-0.3
			c0.7-0.2,0.9-0.4,0.9-1c0-0.7-0.3-1.1-1-1.1c-0.7,0-1,0.4-1,1.1v0.2H810.5z M814.6,655.1c-0.3,0.2-0.7,0.4-0.9,0.4
			c-0.9,0.2-1.2,0.6-1.2,1.4c0,0.7,0.2,1.2,0.8,1.2c0.6,0,1.4-0.4,1.4-1.3V655.1z"/>
		<path class="st7" d="M819,647.8h2.2v1.9H819V647.8z M819,650.8h2.2v8.6H819V650.8z"/>
		<path class="st7" d="M823.4,650.8h2.1v1.2h0c0.4-0.8,1.1-1.4,2-1.4c0.1,0,0.3,0,0.4,0v2.1c-0.2,0-0.5,0-0.7,0
			c-0.8,0-1.6,0.4-1.6,1.6v5.2h-2.2V650.8z"/>
	</g>
	<g>
		<path class="st7" d="M776.8,617h2.3v4.4h2.7V617h2.3v11.4h-2.3v-5.1h-2.7v5.1h-2.3V617z"/>
		<path class="st7" d="M786.2,622.4v-0.2c0-2,1.4-2.7,3-2.7c2.6,0,3.1,1.1,3.1,2.6v4.5c0,0.8,0,1.2,0.3,1.7h-2.1
			c-0.1-0.3-0.2-0.6-0.3-0.9h0c-0.5,0.9-1.1,1.1-2.2,1.1c-1.5,0-2.1-1.3-2.1-2.5c0-1.6,0.7-2.3,2.2-2.7l1.2-0.3
			c0.7-0.2,0.9-0.4,0.9-1c0-0.7-0.3-1.1-1-1.1c-0.7,0-1,0.4-1,1.1v0.2H786.2z M790.3,624.1c-0.3,0.2-0.7,0.4-0.9,0.4
			c-0.9,0.2-1.2,0.6-1.2,1.4c0,0.7,0.2,1.2,0.8,1.2s1.4-0.4,1.4-1.3V624.1z"/>
		<path class="st7" d="M798.7,619.8h2.2l-2.2,8.6h-2.6l-2.2-8.6h2.3l1.2,6.2h0L798.7,619.8z"/>
		<path class="st7" d="M804.2,624.4v0.7c0,1,0.3,2,1.1,2c0.7,0,1-0.6,1.2-1.6h2c-0.1,2-1,3.1-3.1,3.1c-3.2,0-3.3-2.5-3.3-4.6
			c0-2.3,0.4-4.4,3.4-4.4c2.6,0,3.2,1.7,3.2,4.4v0.5H804.2z M806.5,623.1c0-1.3-0.2-2-1.1-2c-0.9,0-1.1,0.9-1.1,1.7v0.3H806.5z"/>
		<path class="st7" d="M810.4,617h2.2v11.4h-2.2V617z"/>
		<path class="st7" d="M818,619.6c2.7,0,3.4,1.5,3.4,4.5c0,2.9-0.9,4.5-3.4,4.5c-2.7,0-3.4-1.5-3.4-4.5
			C814.6,621.1,815.4,619.6,818,619.6z M818,627.1c0.9,0,1.2-0.9,1.2-3c0-2.1-0.3-3-1.2-3c-1.1,0-1.2,1.3-1.2,3
			S816.9,627.1,818,627.1z"/>
		<path class="st7" d="M827.3,622.9c0-0.8-0.2-1.7-1-1.7c-1.1,0-1.3,1-1.3,2.9c0,2.1,0.2,3,1.2,3c0.7,0,1.1-0.6,1.1-2h2.1
			c0,2.3-0.9,3.5-3.3,3.5c-2.2,0-3.3-1.1-3.3-4.5c0-3.5,1.5-4.5,3.5-4.5s3.1,1.3,3.1,3.3H827.3z"/>
		<path class="st7" d="M833.5,617v6h0l2.2-3.2h2.4l-2.5,3.4l2.8,5.2h-2.4l-1.8-3.5l-0.8,1v2.5h-2.2V617H833.5z"/>
	</g>
	<g>
		<path class="st7" d="M767.2,539.7c3.5,0,3.9,2.5,3.9,5.9c0,3.5-0.4,5.9-3.9,5.9c-3.5,0-3.9-2.5-3.9-5.9
			C763.3,542.2,763.7,539.7,767.2,539.7z M767.2,549.9c1.4,0,1.6-1.2,1.6-4.2c0-3.1-0.2-4.2-1.6-4.2s-1.6,1.2-1.6,4.2
			C765.6,548.7,765.8,549.9,767.2,549.9z"/>
		<path class="st7" d="M773,542.8h2.1v1.2h0c0.4-0.8,1.1-1.4,2-1.4c0.1,0,0.3,0,0.4,0v2.1c-0.2,0-0.5,0-0.7,0
			c-0.8,0-1.6,0.4-1.6,1.6v5.2H773V542.8z"/>
		<path class="st7" d="M783.1,545.9c0-0.8-0.2-1.7-1-1.7c-1.1,0-1.3,1-1.3,2.9c0,2.1,0.2,3,1.2,3c0.7,0,1.1-0.6,1.1-2h2.1
			c0,2.3-0.9,3.5-3.3,3.5c-2.2,0-3.3-1.1-3.3-4.5c0-3.5,1.5-4.5,3.5-4.5s3.1,1.3,3.1,3.3H783.1z"/>
		<path class="st7" d="M787,539.9h2.2v3.7h0c0.4-0.7,1.2-1.1,2.1-1.1c1.4,0,2.2,0.8,2.2,2.4v6.4h-2.2v-5.9c0-0.9-0.3-1.2-0.9-1.2
			c-0.8,0-1.2,0.5-1.2,1.4v5.7H787V539.9z"/>
		<path class="st7" d="M795.6,539.9h2.2v3.7h0c0.4-0.7,1.2-1.1,2.1-1.1c1.4,0,2.2,0.8,2.2,2.4v6.4H800v-5.9c0-0.9-0.3-1.2-0.9-1.2
			c-0.8,0-1.2,0.5-1.2,1.4v5.7h-2.2V539.9z"/>
		<path class="st7" d="M804.3,545.4v-0.2c0-2,1.4-2.7,3-2.7c2.6,0,3.1,1.1,3.1,2.6v4.5c0,0.8,0,1.2,0.3,1.7h-2.1
			c-0.1-0.3-0.2-0.6-0.3-0.9h0c-0.5,0.9-1.1,1.1-2.2,1.1c-1.5,0-2.1-1.3-2.1-2.5c0-1.6,0.7-2.3,2.2-2.7l1.2-0.3
			c0.7-0.2,0.9-0.4,0.9-1c0-0.7-0.3-1.1-1-1.1c-0.7,0-1,0.4-1,1.1v0.2H804.3z M808.3,547.1c-0.3,0.2-0.7,0.4-0.9,0.4
			c-0.9,0.2-1.2,0.6-1.2,1.4c0,0.7,0.2,1.2,0.8,1.2c0.6,0,1.4-0.4,1.4-1.3V547.1z"/>
	</g>
	<g>
		<path class="st7" d="M232.8,702.3c0-1.7-0.3-2.4-1.4-2.4c-1.2,0-1.4,1.2-1.4,4.4c0,3.5,0.5,4.1,1.5,4.1c0.8,0,1.4-0.4,1.4-2.9h2.3
			c0,2.5-0.6,4.6-3.6,4.6c-3.5,0-3.9-2.5-3.9-5.9c0-3.5,0.4-5.9,3.9-5.9c3.3,0,3.5,2.4,3.5,4.1H232.8z"/>
		<path class="st7" d="M240.2,701.1c2.7,0,3.4,1.5,3.4,4.5c0,2.9-0.9,4.5-3.4,4.5c-2.7,0-3.4-1.5-3.4-4.5
			C236.8,702.7,237.7,701.1,240.2,701.1z M240.2,708.6c0.9,0,1.2-0.9,1.2-3c0-2.1-0.3-3-1.2-3c-1.1,0-1.2,1.3-1.2,3
			S239.1,708.6,240.2,708.6z"/>
		<path class="st7" d="M249.6,704.4c0-0.8-0.2-1.7-1-1.7c-1.1,0-1.3,1-1.3,2.9c0,2.1,0.2,3,1.2,3c0.7,0,1.1-0.6,1.1-2h2.1
			c0,2.3-0.9,3.5-3.3,3.5c-2.2,0-3.3-1.1-3.3-4.5c0-3.5,1.5-4.5,3.5-4.5c2,0,3.1,1.3,3.1,3.3H249.6z"/>
		<path class="st7" d="M253.5,698.5h2.2v3.7h0c0.4-0.7,1.2-1.1,2.1-1.1c1.4,0,2.2,0.8,2.2,2.4v6.4h-2.2V704c0-0.9-0.3-1.2-0.9-1.2
			c-0.8,0-1.2,0.5-1.2,1.4v5.7h-2.2V698.5z"/>
		<path class="st7" d="M262.2,698.4h2.2v1.9h-2.2V698.4z M262.2,701.3h2.2v8.6h-2.2V701.3z"/>
		<path class="st7" d="M266.6,701.3h2.1v1h0c0.5-0.8,1.3-1.2,2.2-1.2c1.4,0,2.2,0.8,2.2,2.4v6.4h-2.2V704c0-0.9-0.3-1.2-0.9-1.2
			c-0.8,0-1.2,0.5-1.2,1.4v5.7h-2.2V701.3z"/>
	</g>
	<g>
		<path class="st7" d="M130.9,408.7h3.4l1.6,8.1h0l1.6-8.1h3.4v11.4h-2.1V411h0l-2,9.1h-1.8l-2-9.1h0v9.1h-2.1V408.7z"/>
		<path class="st7" d="M147.7,419.1L147.7,419.1c-0.5,0.8-1.3,1.2-2.2,1.2c-1.4,0-2.2-0.8-2.2-2.4v-6.4h2.2v5.9
			c0,0.9,0.3,1.2,0.9,1.2c0.8,0,1.2-0.5,1.2-1.4v-5.7h2.2v8.6h-2.1V419.1z"/>
		<path class="st7" d="M151.9,411.5h2.1v0.9h0c0.6-0.8,1.2-1.1,2.2-1.1c1,0,1.7,0.5,2,1.4h0c0.3-0.9,1.1-1.4,2.2-1.4
			c1.5,0,2.1,0.9,2.1,2.6v6.3h-2.2v-6c0-0.7-0.2-1.1-0.9-1.1c-0.7,0-1.2,0.5-1.2,1.5v5.7h-2.2v-6c0-0.7-0.2-1.1-0.9-1.1
			c-0.7,0-1.2,0.5-1.2,1.5v5.7h-2.2V411.5z"/>
		<path class="st7" d="M164.7,408.7h2.2v3.6h0c0.5-0.7,1-1,1.9-1c1.8,0,2.6,1.3,2.6,4.5s-0.8,4.5-2.6,4.5c-0.9,0-1.5-0.3-2-1.1h0
			v0.9h-2.1V408.7z M168,418.7c1,0,1.2-1,1.2-2.8c0-1.9-0.2-2.8-1.2-2.8c-1,0-1.2,1-1.2,2.8C166.9,417.7,167.1,418.7,168,418.7z"/>
		<path class="st7" d="M173.3,414.2V414c0-2,1.4-2.7,3-2.7c2.6,0,3.1,1.1,3.1,2.6v4.5c0,0.8,0,1.2,0.3,1.7h-2.1
			c-0.1-0.3-0.2-0.6-0.3-0.9h0c-0.5,0.9-1.1,1.1-2.2,1.1c-1.5,0-2.1-1.3-2.1-2.5c0-1.6,0.7-2.3,2.2-2.7l1.2-0.3
			c0.7-0.2,0.9-0.4,0.9-1c0-0.7-0.3-1.1-1-1.1c-0.7,0-1,0.4-1,1.1v0.2H173.3z M177.3,415.8c-0.3,0.2-0.7,0.4-0.9,0.4
			c-0.9,0.2-1.2,0.6-1.2,1.4c0,0.7,0.2,1.2,0.8,1.2s1.4-0.4,1.4-1.3V415.8z"/>
		<path class="st7" d="M181.7,408.6h2.2v1.9h-2.2V408.6z M181.7,411.5h2.2v8.6h-2.2V411.5z"/>
	</g>
	<g>
		<path class="st7" d="M209.8,723.7h2.8l3,11.4h-2.4l-0.5-2.4h-3l-0.5,2.4h-2.4L209.8,723.7z M210.1,730.8h2.2l-1.1-5.1h0
			L210.1,730.8z"/>
		<path class="st7" d="M217.1,723.7h2.2v11.4h-2.2V723.7z"/>
		<path class="st7" d="M221.5,729.1v-0.2c0-2,1.4-2.7,3-2.7c2.6,0,3.1,1.1,3.1,2.6v4.5c0,0.8,0,1.2,0.3,1.7h-2.1
			c-0.1-0.3-0.2-0.6-0.3-0.9h0c-0.5,0.9-1.1,1.1-2.2,1.1c-1.5,0-2.1-1.3-2.1-2.5c0-1.6,0.7-2.3,2.2-2.7l1.2-0.3
			c0.7-0.2,0.9-0.4,0.9-1c0-0.7-0.3-1.1-1-1.1c-0.7,0-1,0.4-1,1.1v0.2H221.5z M225.5,730.8c-0.3,0.2-0.7,0.4-0.9,0.4
			c-0.9,0.2-1.2,0.6-1.2,1.4c0,0.7,0.2,1.2,0.8,1.2c0.6,0,1.4-0.4,1.4-1.3V730.8z"/>
		<path class="st7" d="M229.8,726.5h2.1v0.9h0c0.5-0.8,1.1-1.1,2-1.1c1.8,0,2.6,1.3,2.6,4.5s-0.8,4.5-2.6,4.5c-0.8,0-1.4-0.3-1.9-1
			h0v3.6h-2.2V726.5z M233.2,733.6c1,0,1.2-1,1.2-2.8s-0.2-2.8-1.2-2.8c-1,0-1.2,1-1.2,2.8S232.2,733.6,233.2,733.6z"/>
		<path class="st7" d="M238.5,726.5h2.1v0.9h0c0.5-0.8,1.1-1.1,2-1.1c1.8,0,2.6,1.3,2.6,4.5s-0.8,4.5-2.6,4.5c-0.8,0-1.4-0.3-1.9-1
			h0v3.6h-2.2V726.5z M241.9,733.6c1,0,1.2-1,1.2-2.8s-0.2-2.8-1.2-2.8c-1,0-1.2,1-1.2,2.8S240.9,733.6,241.9,733.6z"/>
		<path class="st7" d="M251.5,734.1L251.5,734.1c-0.5,0.8-1.3,1.2-2.2,1.2c-1.4,0-2.2-0.8-2.2-2.4v-6.4h2.2v5.9
			c0,0.9,0.3,1.2,0.9,1.2c0.8,0,1.2-0.5,1.2-1.4v-5.7h2.2v8.6h-2.1V734.1z"/>
		<path class="st7" d="M255.4,733.4l3.4-5.1h-3.3v-1.8h5.9v1.7l-3.4,5.1h3.4v1.8h-6.1V733.4z"/>
		<path class="st7" d="M263.2,723.7h2.2v3.7h0c0.4-0.7,1.2-1.1,2.1-1.1c1.4,0,2.2,0.8,2.2,2.4v6.4h-2.2v-5.9c0-0.9-0.3-1.2-0.9-1.2
			c-0.8,0-1.2,0.5-1.2,1.4v5.7h-2.2V723.7z"/>
		<path class="st7" d="M271.8,729.1v-0.2c0-2,1.4-2.7,3-2.7c2.6,0,3.1,1.1,3.1,2.6v4.5c0,0.8,0,1.2,0.3,1.7h-2.1
			c-0.1-0.3-0.2-0.6-0.3-0.9h0c-0.5,0.9-1.1,1.1-2.2,1.1c-1.5,0-2.1-1.3-2.1-2.5c0-1.6,0.7-2.3,2.2-2.7l1.2-0.3
			c0.7-0.2,0.9-0.4,0.9-1c0-0.7-0.3-1.1-1-1.1c-0.7,0-1,0.4-1,1.1v0.2H271.8z M275.9,730.8c-0.3,0.2-0.7,0.4-0.9,0.4
			c-0.9,0.2-1.2,0.6-1.2,1.4c0,0.7,0.2,1.2,0.8,1.2c0.6,0,1.4-0.4,1.4-1.3V730.8z"/>
	</g>
	<path class="st8" d="M295.3,93c0,0-101-104.5-295.1-72.5"/>
	<polygon class="st9" points="295.3,93 322,135.3 342.2,188.2 364,227.8 468,191.6 	"/>
	<path class="st8" d="M364,227.8C200,452.9,282.3,696,282.3,696s82.4-22.7,99.6-98.5c0,0,196-87.7,373.6,44.8"/>
	<circle class="st5" cx="295.1" cy="92.7" r="4.3"/>
	<circle class="st5" cx="322" cy="135.3" r="4.3"/>
	<circle class="st5" cx="468" cy="190.7" r="4.3"/>
	<circle class="st5" cx="364" cy="227.8" r="4.3"/>
	<circle class="st5" cx="342.2" cy="188.2" r="4.3"/>
	<line class="st9" x1="285.8" y1="723.2" x2="282.3" y2="696"/>
	<circle class="st5" cx="282.3" cy="696.1" r="4.3"/>
	<circle class="st5" cx="285.8" cy="723.2" r="4.3"/>
	<circle class="st5" cx="381.9" cy="597.4" r="4.3"/>
	<g>
		<path class="st10" d="M302.3,74.8c0,3.4-3.1,6.1-6.9,6.1c-3.8,0-6.9-2.7-6.9-6.1c0-3.4,3.1-6.1,6.9-6.1
			C299.2,68.7,302.3,71.5,302.3,74.8z"/>
		<path class="st11" d="M295.1,79.4c-2.6,0-4.7-2.1-4.7-4.7s2.1-4.7,4.7-4.7c2.6,0,4.7,2.1,4.7,4.7
			C299.7,77.3,297.7,79.4,295.1,79.4z M295.1,65.8c-5,0-9,4-9,9c0,2,1.3,5.3,3.9,10c1.9,3.3,3.7,6.1,3.8,6.2l1.3,2l1.3-2
			c0.1-0.1,1.9-2.9,3.8-6.2c2.6-4.7,3.9-8,3.9-10C304.1,69.8,300,65.8,295.1,65.8z"/>
	</g>
	<line class="st9" x1="767.1" y1="631.1" x2="755.5" y2="642.9"/>
	<circle class="st5" cx="755.9" cy="642.2" r="4.3"/>
	<circle class="st5" cx="767.1" cy="631.1" r="4.3"/>
</g>
</svg>
