<?xml version="1.0" encoding="utf-8"?>
<!-- Generator: Adobe Illustrator 21.0.2, SVG Export Plug-In . SVG Version: 6.00 Build 0)  -->
<svg version="1.1" id="Ebene_1" xmlns="http://www.w3.org/2000/svg" xmlns:xlink="http://www.w3.org/1999/xlink" x="0px" y="0px"
	 viewBox="0 0 80 41" style="enable-background:new 0 0 80 41;" xml:space="preserve">
<style type="text/css">
	.st0{fill:#FFFFFF;}
</style>
<g>
	<rect x="36.9" y="3.8" class="st0" width="5.7" height="5.3"/>
	<polygon class="st0" points="73.5,34.2 73.5,28 49.8,28 51,34.2 51,34.3 52.3,40.5 79.4,40.5 79.4,34.2 	"/>
	<polygon class="st0" points="6.1,34.2 0.1,34.2 0.1,40.5 27.2,40.5 28.5,34.3 28.5,34.2 29.8,28 6.1,28 	"/>
	<polygon class="st0" points="48.5,34.2 47.6,28 31.9,28 31,34.2 31,34.3 30.2,40.5 49.4,40.5 48.5,34.3 	"/>
	<path class="st0" d="M67.5,21.7h-6v-6.2h-6V9.3h-6v-9H30v9h-6v6.2h-6v6.2h-6V28h17.8l1.3-6.2l0,0l1.2-6.2l0,0l1.2-6.2V9.3h1v0.1
		l-0.9,6.2l0,0l-0.9,6.2l0,0L31.9,28h15.7l-0.9-6.2l0,0l-0.9-6.2l0,0L45,9.3V9.2h1v0.1l1.2,6.2l0,0l1.2,6.2l0,0l1.3,6.2h17.8V21.7z
		 M42.6,9h-5.7V3.8h5.7V9z"/>
	<polygon class="st0" points="33.5,9.3 33.5,9.3 34.5,9.3 34.5,9.3 	"/>
	<polygon class="st0" points="45,9.3 45,9.3 46,9.3 46,9.3 	"/>
</g>
</svg>
