<?xml version="1.0" encoding="utf-8"?>
<!-- Generator: Adobe Illustrator 25.0.1, SVG Export Plug-In . SVG Version: 6.00 Build 0)  -->
<svg version="1.1" id="Ebene_1" xmlns="http://www.w3.org/2000/svg" xmlns:xlink="http://www.w3.org/1999/xlink" x="0px" y="0px"
	 viewBox="0 0 937.1 763.9" style="enable-background:new 0 0 937.1 763.9;" xml:space="preserve">
<style type="text/css">
	.st0{fill:#E3E3E3;}
	.st1{fill:none;stroke:#52A0D8;stroke-miterlimit:3.8637;}
	.st2{fill:#52A0D8;stroke:#52A0D8;stroke-miterlimit:3.8637;}
	.st3{fill:none;stroke:#009982;stroke-width:2;stroke-miterlimit:10;stroke-dasharray:3,3;}
	.st4{fill:none;stroke:#009982;stroke-width:2;stroke-miterlimit:3.8637;}
	.st5{fill:#1F1F1E;}
	.st6{fill:#52A0D8;}
	.st7{fill:#A6A6A5;}
	.st8{fill:#010101;}
	.st9{fill:#009982;}
</style>
<g>
	<path class="st0" d="M744.2,311.1c-4.9-3.1-17.7-0.5-19.3,1.5c-1.6,2-9.6,1.1-13.3-1.1c-3.8-2.2-4.2,0-9,0.5
		c-4.9,0.5-13.3,10.3-12.3,5.9c1.1-4.3-5.4-7.9-5.4-7.9s6.5,0,10.3-1.1c3.8-1.1,4.2-5.4,6.3-7.6s-3.2-6.9-3.2-9
		c0-2.2,3.2-8.1,3.2-8.1s-1.1-4.7-2.2-7.4c-1.1-2.7,1.6-5.4,3.2-8.5c1.6-3.1-8.5-8.6-11.7-11.3c-3.2-2.7-7-1.1-11.7-1.1
		c-4.7,0-14.4-10.6-17.7-15.4c-3.2-4.7-8.5-3.2-5.4,0.5c3.1,3.8-3.6,4.2-12.8,3.6c-9.2-0.5-9.6-7.4-13.9-10.1
		c-4.3-2.7-7.9-2.7-8.5-0.5c-0.5,2.2-6.5,8.5-6.5,8.5s-4.2-6.3-4.2-10.1s-4.9-8.5-7.6-10.6c-2.7-2.2-3.6,2.2-6.3,3.2
		c-2.7,1.1,0.5-6.5-3.2-12.3c-3.8-5.8-7.6-6.5-5.4-9.2c2.2-2.7,16.6,0,23.1-0.5c6.5-0.5,4.7-2.7,6.9-4.7c2.2-2,18.7-3.2,22.5-5.9
		c3.8-2.7-13,1.6-18.2,2.7c-5.2,1.1-28.3-0.5-34.8,0c-6.5,0.5-13.3,0-20.8,2.2c-7.4,2.2-29.4,2.2-39,1.6c-9.6-0.5-17.7,1.1-20.9,0
		c-3.2-1.1-2.7,5.2,0.5,7.4c3.2,2.2,12.8-2.2,17.1-2.2c4.3,0,13.9,2.2,12.8,4.9c-1.1,2.7-22.9,1.6-28.3,1.6c-5.4,0-7.9,6.9-10.1,8.5
		c-2.2,1.6-11.7,2.7-14.4,4.9c-2.7,2.2-3.2,6.9-9.2,7.4c-5.9,0.5-8.5,1.6-11.7,2.7c-3.2,1.1-4.2-0.5-6.9-2.7
		c-2.7-2.2-7-0.5-12.8-1.6c-5.8-1.1-17.7-5.2-24.1-6.9c-6.5-1.6-12.3-9.6-15.4-12.3c-3.1-2.7,1.5-3.8,4.2-4.3
		c2.7-0.5-12.3-5.9-15-6.9c-2.7-0.9-0.5,2.5-3.1,4.2c-2.5,1.6-22-0.5-26.7-0.5c-4.7,0-13.5,4.9-18.2,5.9c-4.7,1.1-31.6,3.8-37.9,3.2
		c-6.3-0.5-17.7-1.6-20.9-4.3c-3.2-2.7-6.9-11.2-6.9-13.3c0-2.2,4.2-2.7,5.2-4.9c1.1-2.2-6.9-11.2-14.4-19.1
		c-7.6-7.9-19.1-10.8-25.1-10.8c-5.9,0-9-3.6-16.6-5.8c-7.6-2.2-10.1,2.2-13.9,3.2c-3.8,1.1-9-2.2-11.2-6.5
		c-2.2-4.3-5.9-17.7-5.9-20.2c0-2.5-5.2-11.9-9-13c-3.8-1.1-11.2,4.3-13.3,7c-2.2,2.7-3.8,7.9-2.7,10.6c1.1,2.7,1.6,6.5,1.6,10.1
		c0,3.6,3.2,2.7,6.5,2.7c3.2,0,12.3-2.2,14.4-2.2c2.2,0,4.7,5.9,5.8,8.6c1.1,2.7-1.1,4.2-5.2,4.2c-3.3,0-10.6-3.4-13.3-4.7
		c1.4,0.8,3.7,2.4,2.5,4.3c-1.6,2.7-4.2,4.2-11.2,7.4c-7,3.2-21.8,4.9-29.4,4.9c-7.6,0-25.1,13.3-28.9,15c-3.8,1.6-9.6,1.5-9.6,1.5
		s2.7,1.6,2.7,4.3c0,2.7-2.7,3.2-5.4,4.3c-2.7,1.1-0.5,7.4-1.1,10.1c-0.5,2.7,4.3,6.5,7.6,12.3c3.2,5.8,15,26.7,18.1,32.1
		c3.1,5.4,0,8.5,0.5,12.8c0.5,4.3-0.5,16.6-2.5,17.1c-2,0.5-3.8,3.2-4.9,6.3c-1.1,3.1-12.3,7-20.9,7.6c-8.6,0.5-9-6.5-9.6-12.3
		c-0.5-5.8-2.7-6.5-5.8-9.2c-3.1-2.7-6.5-3.6-5.4-6.3c1.1-2.7-6.5-10.6-9-13.9c-2.5-3.2,1.1-3.2,4.2-7c3.1-3.8,1.6-6.9,2.7-10.6
		c1.1-3.8,1.1-1.6,4.3-2.7c3.2-1.1,13.9-16,15-18.1c1.1-2,2.2-11.9,2.2-14.4s-4.3-5.9-6.5-10.3c-2.2-4.3,1.6-5.2,5.4-5.8
		c3.8-0.5-10.8-9.2-12.8-9.7c-2-0.5-2.2,3.8-5.4,0c-3.2-3.8,0-7.9,0-11.7c0-3.8,0-7.9,3.8-12.3c3.8-4.3,17.5-3.8,26.2-5.8
		c8.6-2,4.7-7.6,4.7-7.6s-10.1,2.7-15.9,3.8c-5.8,1.1-16.6,5.8-19.3,7.9c-2.7,2.2-12.3,22.5-12.8,26.2c-0.5,3.6-10.1,0-13.3,3.8
		c-3.2,3.8-15.5,25.1-20.4,30.5c-4.9,5.4-7.9,38.4-9.6,44.4c-1.6,5.9-18.7,31-21.8,31.9c-3.1,0.9,3.1,3.2,7.4,3.8
		c4.3,0.5,13.9-10.1,14.4-6.9c0.5,3.2,3.8,6.9,7.9,6.3c4.2-0.5,5.4,3.8,8.1,18.2c2.7,14.4,10.1,18.7,15,22.9
		c4.9,4.2,2.7,3.8,2.7,6.5c0,2.7,2,6.9,3.6,10.1c1.6,3.2-3.1,3.8-6.3,5.9c-3.2,2.2-2.2,16.4-2.2,24.5c0,8.1,3.8,7.9,10.1,9.6
		c6.3,1.6,5.9,1.6,7,5.9s3.6,9.6,12.8,15.5c9.2,5.9,13.3-2.7,24-2.2c10.6,0.5,15,2.7,26.2,3.2c11.2,0.5,17.1-6.5,20.4-5.9
		c3.2,0.5,12.8,6.3,19.1,9c6.3,2.7,9.7-2.7,12.8-0.5c3.1,2.2,31.6,38,33.2,43.3c1.6,5.2,2.7,2.2,6.5-0.5c3.8-2.7,3.6,2.2,6.3,4.9
		c2.7,2.7,3.2-1.6,5.9-6.5c2.7-4.9,10.6,0,19.1,1.1c8.5,1.1,8.6,1.6,16.6-2.2c7.9-3.8,9.6,1.6,15-0.5c5.4-2.2,15.5,0,20.4-2.5
		c4.9-2.5,9-2.2,15.4-1.1c6.3,1.1,7.6,12.3,9.7,16c2.2,3.8-3.8,6.3-8.6,10.6c-4.9,4.3-1.6,7.9-2,14.4c0,0.2,0,0.4,0,0.5h0
		c-0.7,6.1-7.6,8.6-11.3,11.7c-3.8,3.2,0,8.5,0.5,14.4c0.5,5.9,0,20.2-1.1,28.3c-1.1,8.1-0.5,5.2,2.2,6.9c2.7,1.6,0.5,10.3,2.2,13.9
		c1.6,3.6,7.6,22,8.5,25.8c0.9,3.8,4.3,0.4,7,0.9c2.7,0.5,5.4,13.3,8.5,15c3.1,1.6,2.2,4.3,0.5,7.6s-29.9,28.9-29.9,28.9
		s7.6-0.5,13,0.5c5.4,1.1,20.2,17.5,26.2,22.9c5.9,5.4,0,4.3-2.2,7.9c-2.2,3.6,2.2,4.9,5.8,7.6c3.6,2.7,0,4.9,0.5,8.5
		c0.5,3.6,3.8,4.9,9.7,26.2c5.9,21.3,2.2,16.6,20.2,30.5c18.1,13.9,18.7,11.2,29.4,10.1c10.6-1.1,14.4-10.6,19.8-11.7
		c5.4-1.1,10.1,4.3,10.6,8.1c0.5,3.8-4.3,8.5-1.6,11.2c2.7,2.7,7.4-5.9,9-10.1c1.6-4.2,3.2-3.8,7.6-3.8c4.3,0,5.8-8.5,7.4-12.3
		c1.6-3.8,7.6-4.9,13.9-7.6c6.3-2.7,9.2-1.1,13.9-4.7c4.7-3.6,9.2-8.1,14.4-9.2c5.2-1.1-2.2,5.9,0.5,7c2.7,1.1,10.6-10.6,15-15
		c4.3-4.3,3.2-15.5,9-19.8c5.8-4.3,12.4-3.6,18.7-5.2c6.3-1.6,9-3.2,12.8-11.7c3.8-8.5-2.7-8.1-5.8-8.1c-3.1,0-29.4-2.7-32.1-5.8
		c-2.7-3.1,2.7-7.6,2.7-11.9c0-4.3-10.6-21.3-10.6-28.7c0-7.4-1.1-13.5,0.4-17.1c1.5-3.6-9.6-9.2-13.9-12.3
		c-4.3-3.1-14.8-15.5-17.5-19.8c-2.7-4.3-4.3-5.9-0.5-7.9c3.8-2,8.5,6.3,10.6,7.9c2.2,1.6,13.3-1.6,20.4-1.1c7,0.5,6.9,11.2,9,15
		c2.2,3.8,7.4-4.3,11.2-5.4c3.8-1.1,13.9,1.6,15,4.3s3.8,2.2,6.5-0.5c2.7-2.7,3.6-4.7,6.9-3.8c3.2,0.9,15,16.6,19.8,21.4
		c4.9,4.9,7.4-0.5,11.7-3.8c4.3-3.2-1.6-16-2.7-20.2c-1.1-4.2,10.1-3.2,13.9-3.2c3.8,0,1.6-1.6,2.7-5.4c1.1-3.8,14.4,1.6,22.4,0
		c7.9-1.6,8.1,0.5,13.9-0.5c5.8-1.1,4.3-3.6,9.6-5.2c5.2-1.6,6.5-0.5,10.8-2.7c4.3-2.2,1.1-2.7,4.2-5.9c3.1-3.2,4.3,0,7.6-1.1
		c3.2-1.1,0-3.1,2.2-5.8c2.2-2.7,7.4,1.1,15.5,1.1c8.1,0,4.2-5.9,7.4-9.7c3.2-3.8,5.4-3.6,10.6-5.8c5.2-2.2,7.6-11.2,7.6-11.2
		l-4.9-13.3l-5.8-1.1l-13.5-15l-21.8-24.1c0,0,7.9-12.3,11.2-14.3c3.2-2,1.1-4.9,1.6-9.7c0.5-4.9-3.2-13.9-1.6-19.1
		c1.6-5.2,7-3.8,10.6-3.8c3.6,0,3.2-1.6,3.8-4.3c0.5-2.7,8.6,1.6,13.9-1.1s7-3.2,14.4-9c7.4-5.8,4.3-5.9,3.2-10.1
		c-1.1-4.2-13.3,1.1-16.6,0.5c-3.2-0.5,0.5-10.8-1.1-13.9c-1.6-3.1-4.2-7.6-1.1-9.7s4.9-12.3,8.6-14.4c3.8-2.2,24-10.6,26.7-15
		c2.7-4.3,5.8-9,11.2-11.7C765.7,325.9,749.1,314.2,744.2,311.1z"/>
	<path class="st0" d="M182.5,154.3c-0.6-0.3-1.1-0.5-1.1-0.5S181.8,153.9,182.5,154.3z"/>
</g>
<g>
	<path class="st1" d="M687.5,313.6c0,0-0.8,2.5-12,0.7c-11.2-1.8-12.3-2.4-20-2.4s-14.6,0.9-17.6-0.9c-3.1-1.8-4.6-4.4-9.2-1.8
		c-4.6,2.6-8.8,6.8-13.4,7.3c-4.6,0.4-2-0.9-6.4,2.2c-4.4,3.1-9.5,7.3-12.6,7.3c-3.1,0-6.4,7-9.2,7.5c-2.9,0.4-11-3.1-15.4-2.6
		c-4.4,0.4-12.6,8.2-17.8,9.5c-5.3,1.3-11.7-1.8-16.1,0.4c-4.4,2.2-4.6,10.1-10.4,10.6c-5.7,0.4-11.7-6.2-15.6-6.6
		c-4-0.4-4.4,2.2-6.6,3.1c-2.2,0.9-8.2,0-10.4,2.2c-2.2,2.2,2.6,6,1.8,8.2c-0.9,2.2-1.5-0.4-7.5,3.1c-6,3.5-9.7,8.8-13.9,7.3
		c-4.2-1.6-6.6-9-13-9.9c-6.4-0.9-11-4-14.8-2.6c-3.8,1.3-6.6-0.9-10.8-0.9c-4.2,0-10.6,7.7-16.5,10.1c-6,2.4-7.5,1.1-14.6,2.4
		c-7,1.3-10.3,0.9-12.8,2.2c-2.4,1.3-6.8,9.9-10.8,13.9c-4,4,2,2.6-7.3,6.2c-9.2,3.5-19.2,4.6-20.9,8.2c-1.8,3.5,1.8,9.5,1.3,16.5
		c-0.4,7-2,6.4-5.5,13.9c-3.5,7.5-1.3,8.6-6.6,11.7c-5.3,3.1-5.5,4.8-9,7.5c-3.5,2.6-6.6,2.6-6.6,2.6 M691,316.5
		c0,0,0.3,0.7-7.7,1.7c-8,1.1-5.4,3.8-12.8,1.6c-7.4-2.2-6.5-4.3-13.3-5.9c-6.9-1.6-8.1-2.7-12.3,0c-4.2,2.7-2.6,4.8-8,2.7
		c-5.4-2.2-9-3.2-14.4-3.2c-5.4,0-5.4,2.7-5.4,2.7 M613.9,240.3c0.5,4.7,4.2,5.3,0.5,9.6c-3.7,4.3-5.3,8-4.7,10.1
		c0.5,2.2,4.8,2.8,2.7,7c-2.2,4.2-5.3,5.8-1.1,7.4c4.2,1.6,8-2.2,10.7,1.1c2.7,3.2,5.8,4.2,7.4,9c1.6,4.8,0.5,7.5,1.6,9.7
		c1.1,2.2,4.3,2,1.1,6.9c-3.2,4.8-5.5,9.5-5.5,9.5 M594.2,326.7c0,0,3.7,3.9-3.8,10.2c-7.4,6.4-11.7,9.2-11.7,14.4
		c0,5.3,2.7,10.7,2.7,10.7s8.5,12.9,9.6,18.2c1.1,5.3,3.2,8.1-1.1,12.8c-4.3,4.7-7,8.1-4.3,13.9c2.7,5.8,6.5,9.2,4.3,15
		c-2.2,5.8-10.1,13.2-9,17.5c1.1,4.3,9,9.2,7.4,17.1c-1.6,8-6.5,28.4-1.1,34.8c5.4,6.4,15.5,3.7,18.7,8c3.2,4.3,7,2.6,5.4,8.5
		c-1.6,5.9-0.6,13.9,3.7,19.3c4.3,5.4,6.9,5.8,13.9,6.9c7,1.1,10.7-0.4,13.3-4.2c2.7-3.8,1.2-8.1,8.1-4.8c6.9,3.2,13.9,13.8,16,11.2
		c2.2-2.6,10.7-22.4,11.7-19.2c1.1,3.2,9.2,12.3,14.4,13.3c5.3,1.1,12.8-1.7,12.8-7.5s0.1-14.3,2.7-17c2.6-2.7,8.5-1.1,8.5-1.1"/>
	<path class="st2" d="M579.5,364.9c-0.9,2.1-1.9,4.5-1.2,5.2c0.7,0.7,5.1,0.7,4.2,2.1c-0.9,1.4-3.5,4.6-1.8,4.9
		c1.8,0.4,4.7-3.4,5.8-2.5c1.1,0.9,3,3,3.5,6c0.5,2.9,1.1,6.5,0,8.4c-1.1,1.9-3.8,7.2-6.1,9.3c-2.3,2.1-3.2,1.6-3.2,4.8
		c0,3.2,1.5,6.7,3.7,8.9c1.4,1.4,2.9,2.5,3.7,3c0.5,0.3,1.2,0.3,1.6-0.1c0.8-0.7,1.8-2.1,0.1-3.5c-2.6-2.1-3.9-3.9-3.4-5.5
		c0.5-1.6,2.7-6.4,3.7-9.5c1.1-3.1,4.8-8.2,4.9-10.7c0.2-2.5-2.3-2.9-2.5-5.2c-0.2-2.3,1.8-2.5,2.6-3.9c0.9-1.4,2.5-2.6,0.7-3.2
		c-1.8-0.5-5.5-0.7-5.3-2.3c0.2-1.6,3-3.8,4.6-5.4c1.6-1.6-0.9-4.9-2.1-4.2c-1.2,0.7-6,3.7-7.2,2.6c-1.2-1.1-4.4-5.5-5.1-4.1
		C580.2,361.7,579.5,364.9,579.5,364.9L579.5,364.9z"/>
	<path class="st1" d="M700.9,282.1c0,0-5.1,1.4-13.7,7.1c-8.6,5.7-10.8,9.5-16.1,12.6c-5.3,3.1-22.9,10.3-22.9,10.3 M698.3,292.8
		c0,0-2.7,0.3-7.6,0.8c-4.8,0.4-12.7,2.7-12.7,2.7 M702.1,300.1c0,0-11.3,3.4-15.7,3.8c-4.4,0.4-6.2-1.8-14.3,0.9
		s-14.6,7.1-14.6,7.1"/>
</g>
<path class="st0" d="M502.1,176.1c-2.5,0.8-5.5,1.3-4.2,4.6c1.3,3.4,9.3,4.6,10.9,4.2c1.7-0.4,2.1-2.5,3.8-0.8
	c1.7,1.7,2.1,4.2,5.1,4.2c2.9,0,9.2-2.1,10.9-4.6c1.7-2.5,5.1-4.2,2.1-8c-3-3.8-3-8.9-6.3-5.5c-3.4,3.4-2.5,9.3-7.6,8.8
	c-5.1-0.4-4.6-2.5-8-2.9C505.5,175.7,502.1,176.1,502.1,176.1L502.1,176.1z"/>
<path class="st3" d="M937.1,4.8c-45.3-3.6-149.5-14.2-308.2,30C480.6,76,360.1,209.4,360.1,209.4"/>
<path class="st4" d="M358.3,212.1L299.2,230l-4.5-19.7L550,341.1 M688,316l-136.2,24.2l-54.6-117.8L358.6,212"/>
<line class="st3" x1="549.6" y1="341" x2="592.6" y2="442"/>
<path class="st5" d="M295.3,230.8c0-2.3,1.9-4.3,4.3-4.3c2.3,0,4.3,1.9,4.3,4.3c0,2.3-1.9,4.3-4.3,4.3
	C297.2,235,295.3,233.1,295.3,230.8L295.3,230.8z"/>
<path class="st5" d="M545.3,340.6c0-2.3,1.9-4.3,4.3-4.3c2.3,0,4.3,1.9,4.3,4.3c0,2.3-1.9,4.3-4.3,4.3
	C547.2,344.8,545.3,342.9,545.3,340.6L545.3,340.6z"/>
<path class="st5" d="M588.3,441.7c0-2.3,1.9-4.3,4.3-4.3c2.3,0,4.3,1.9,4.3,4.3c0,2.3-1.9,4.3-4.3,4.3
	C590.2,446,588.3,444.1,588.3,441.7L588.3,441.7z"/>
<path class="st5" d="M120.4,316.8c0-2.3,1.9-4.3,4.3-4.3c2.3,0,4.3,1.9,4.3,4.3c0,2.3-1.9,4.3-4.3,4.3
	C122.3,321,120.4,319.1,120.4,316.8L120.4,316.8z"/>
<path class="st5" d="M685.4,540.7c0-2.3,1.9-4.3,4.3-4.3c2.3,0,4.3,1.9,4.3,4.3c0,2.3-1.9,4.3-4.3,4.3
	C687.3,544.9,685.4,543,685.4,540.7L685.4,540.7z"/>
<path class="st5" d="M684.7,315.7c0-2.3,1.9-4.3,4.3-4.3c2.3,0,4.3,1.9,4.3,4.3c0,2.3-1.9,4.3-4.3,4.3
	C686.6,320,684.7,318.1,684.7,315.7L684.7,315.7z"/>
<path class="st5" d="M494,222.8c0-2.3,1.9-4.3,4.3-4.3c2.3,0,4.3,1.9,4.3,4.3c0,2.3-1.9,4.3-4.3,4.3
	C495.9,227.1,494,225.2,494,222.8L494,222.8z"/>
<path class="st5" d="M354.2,210.9c0-2.3,1.9-4.3,4.3-4.3c2.3,0,4.3,1.9,4.3,4.3c0,2.3-1.9,4.3-4.3,4.3
	C356.1,215.2,354.2,213.3,354.2,210.9L354.2,210.9z"/>
<g>
	<path class="st6" d="M300.7,101h2.5v4.7l4.5-4.7h3.1l-4.5,4.5l4.9,6.9h-3.2l-3.4-5.1l-1.4,1.5v3.7h-2.5V101z"/>
	<path class="st6" d="M318.6,101h2.6l4.3,11.4h-2.6l-0.9-2.5h-4.3l-0.9,2.5h-2.5L318.6,101z M318.3,108h3l-1.4-4.2h0L318.3,108z"/>
	<path class="st6" d="M329.6,101h6.2c2,0,3.3,1.4,3.3,3.2c0,1.3-0.5,2.4-1.8,2.9v0c1.2,0.3,1.6,1.5,1.7,2.7c0,0.7,0,2.1,0.5,2.7
		h-2.5c-0.3-0.7-0.3-1.8-0.4-2.7c-0.2-1.2-0.6-1.7-1.9-1.7h-2.5v4.5h-2.5V101z M332.1,106.2h2.8c1.1,0,1.7-0.5,1.7-1.6
		c0-1.1-0.6-1.6-1.7-1.6h-2.8V106.2z"/>
	<path class="st6" d="M344.4,101h2.5v11.4h-2.5V101z"/>
	<path class="st6" d="M352.3,101h5.4c2.2,0,3.6,0.7,3.6,2.8c0,1.1-0.6,1.9-1.6,2.4c1.4,0.4,2.1,1.5,2.1,2.9c0,2.3-2,3.3-4,3.3h-5.5
		V101z M354.8,105.6h2.5c0.9,0,1.5-0.4,1.5-1.4c0-1.1-0.8-1.3-1.7-1.3h-2.4V105.6z M354.8,110.5h2.7c1,0,1.9-0.3,1.9-1.5
		c0-1.2-0.7-1.6-1.8-1.6h-2.7V110.5z"/>
	<path class="st6" d="M366.8,101h2.5v11.4h-2.5V101z"/>
	<path class="st6" d="M374.7,101h2.5v4.7l4.5-4.7h3.1l-4.5,4.5l4.9,6.9h-3.2l-3.4-5.1l-1.4,1.5v3.7h-2.5V101z"/>
</g>
<g>
	<path class="st7" d="M93.9,523.2h2.5v4.7l4.5-4.7h3.1l-4.5,4.5l4.9,6.9h-3.2l-3.4-5.1l-1.4,1.5v3.7h-2.5V523.2z"/>
	<path class="st7" d="M113.8,522.9c3.5,0,5.6,2.6,5.6,6c0,3.3-2.1,5.9-5.6,5.9s-5.6-2.6-5.6-5.9
		C108.2,525.6,110.3,522.9,113.8,522.9z M113.8,532.8c2.3,0,3.1-1.9,3.1-3.8c0-2-0.8-3.9-3.1-3.9s-3.1,1.9-3.1,3.9
		C110.7,530.9,111.5,532.8,113.8,532.8z"/>
	<path class="st7" d="M124.3,523.2h2.5v9.3h5.6v2.1h-8.1V523.2z"/>
	<path class="st7" d="M146.7,530.3c0,3.1-1.8,4.6-4.9,4.6c-3.1,0-4.9-1.5-4.9-4.6v-7.1h2.5v7.1c0,1.2,0.3,2.5,2.4,2.5
		c1.8,0,2.4-0.8,2.4-2.5v-7.1h2.5V530.3z"/>
	<path class="st7" d="M152.1,523.2h3.5l2.7,7.9h0l2.5-7.9h3.5v11.4H162v-8.1h0l-2.8,8.1h-1.9l-2.8-8h0v8h-2.4V523.2z"/>
	<path class="st7" d="M169.8,523.2h5.4c2.2,0,3.6,0.7,3.6,2.8c0,1.1-0.6,1.9-1.6,2.4c1.4,0.4,2.1,1.5,2.1,2.9c0,2.3-2,3.3-4,3.3
		h-5.5V523.2z M172.3,527.8h2.5c0.9,0,1.5-0.4,1.5-1.4c0-1.1-0.8-1.3-1.7-1.3h-2.4V527.8z M172.3,532.7h2.7c1,0,1.9-0.3,1.9-1.5
		c0-1.2-0.7-1.6-1.8-1.6h-2.7V532.7z"/>
	<path class="st7" d="M184.2,523.2h2.5v11.4h-2.5V523.2z"/>
	<path class="st7" d="M192.2,523.2h8.5v2.1h-6v2.4h5.5v2h-5.5v2.8h6.2v2.1h-8.7V523.2z"/>
	<path class="st7" d="M205.7,523.2h2.5l4.8,7.7h0v-7.7h2.4v11.4h-2.5l-4.8-7.7h0v7.7h-2.4V523.2z"/>
</g>
<g>
	<path class="st7" d="M767.3,404.7c-0.9,1.1-2,1.6-3.1,1.6c-3.5,0-5.6-2.6-5.6-5.9c0-3.4,2.1-6,5.6-6c2.3,0,4.5,1.4,4.8,4h-2.4
		c-0.3-1.3-1.2-1.9-2.4-1.9c-2.3,0-3.1,1.9-3.1,3.9c0,1.9,0.8,3.8,3.1,3.8c1.6,0,2.6-0.9,2.7-2.5h-2.5v-1.9h4.8v6.2h-1.6
		L767.3,404.7z"/>
	<path class="st7" d="M784.1,401.6c0,3.1-1.8,4.6-4.9,4.6c-3.1,0-4.9-1.5-4.9-4.6v-7.1h2.5v7.1c0,1.2,0.3,2.5,2.4,2.5
		c1.8,0,2.4-0.8,2.4-2.5v-7.1h2.5V401.6z"/>
	<path class="st7" d="M792.4,401.5l-4.2-7h2.8l2.7,4.5l2.7-4.5h2.8l-4.2,7v4.4h-2.5V401.5z"/>
	<path class="st7" d="M806.4,394.5h2.6l4.3,11.4h-2.6l-0.9-2.5h-4.3l-0.9,2.5h-2.5L806.4,394.5z M806.2,401.5h3l-1.4-4.2h0
		L806.2,401.5z"/>
	<path class="st7" d="M817.4,394.5h2.5l4.8,7.7h0v-7.7h2.4v11.4h-2.5l-4.8-7.7h0v7.7h-2.4V394.5z"/>
	<path class="st7" d="M835.6,394.5h2.6l4.3,11.4h-2.6l-0.9-2.5h-4.3l-0.9,2.5h-2.5L835.6,394.5z M835.4,401.5h3l-1.4-4.2h0
		L835.4,401.5z"/>
</g>
<g>
	<path class="st7" d="M638.1,637.3h5.4c2.2,0,3.6,0.7,3.6,2.8c0,1.1-0.6,1.9-1.6,2.4c1.4,0.4,2.1,1.5,2.1,2.9c0,2.3-2,3.3-4,3.3
		h-5.5V637.3z M640.6,641.9h2.5c0.9,0,1.5-0.4,1.5-1.4c0-1.1-0.8-1.3-1.7-1.3h-2.4V641.9z M640.6,646.7h2.7c1,0,1.9-0.3,1.9-1.5
		c0-1.2-0.7-1.6-1.8-1.6h-2.7V646.7z"/>
	<path class="st7" d="M652.6,637.3h6.2c2,0,3.3,1.4,3.3,3.2c0,1.3-0.5,2.4-1.8,2.9v0c1.2,0.3,1.6,1.5,1.7,2.7c0,0.7,0,2.1,0.5,2.7
		h-2.5c-0.3-0.7-0.3-1.8-0.4-2.7c-0.2-1.2-0.6-1.7-1.9-1.7h-2.5v4.5h-2.5V637.3z M655.1,642.4h2.8c1.1,0,1.7-0.5,1.7-1.6
		c0-1.1-0.6-1.6-1.7-1.6h-2.8V642.4z"/>
	<path class="st7" d="M670.5,637.3h2.6l4.3,11.4h-2.6l-0.9-2.5h-4.3l-0.9,2.5h-2.5L670.5,637.3z M670.2,644.3h3l-1.4-4.2h0
		L670.2,644.3z"/>
	<path class="st7" d="M683.2,644.9c0,1.5,1.2,2.1,2.5,2.1c0.9,0,2.2-0.3,2.2-1.4c0-1.2-1.7-1.4-3.4-1.9c-1.7-0.4-3.4-1.1-3.4-3.2
		c0-2.3,2.2-3.5,4.3-3.5c2.4,0,4.6,1,4.6,3.7h-2.4c-0.1-1.4-1.1-1.7-2.3-1.7c-0.8,0-1.7,0.3-1.7,1.3c0,0.9,0.5,1,3.4,1.7
		c0.8,0.2,3.4,0.7,3.4,3.3c0,2.1-1.6,3.7-4.8,3.7c-2.5,0-4.9-1.2-4.9-4.1H683.2z"/>
	<path class="st7" d="M695.1,637.3h2.5v11.4h-2.5V637.3z"/>
	<path class="st7" d="M703,637.3h2.5v9.3h5.6v2.1H703V637.3z"/>
	<path class="st7" d="M715.7,637.3h2.5v11.4h-2.5V637.3z"/>
	<path class="st7" d="M723.6,637.3h8.5v2.1h-6v2.4h5.5v2h-5.5v2.8h6.2v2.1h-8.7V637.3z"/>
	<path class="st7" d="M737.2,637.3h2.5l4.8,7.7h0v-7.7h2.4v11.4h-2.5l-4.8-7.7h0v7.7h-2.4V637.3z"/>
</g>
<g>
	<path class="st8" d="M406.4,473.2h-2.8l-3.7-11.4h2.6l2.5,8h0l2.6-8h2.6L406.4,473.2z"/>
	<path class="st8" d="M414.3,461.8h8.5v2.1h-6v2.4h5.5v2h-5.5v2.8h6.2v2.1h-8.7V461.8z"/>
	<path class="st8" d="M427.9,461.8h2.5l4.8,7.7h0v-7.7h2.4v11.4h-2.5l-4.8-7.7h0v7.7h-2.4V461.8z"/>
	<path class="st8" d="M443,461.8h8.5v2.1h-6v2.4h5.5v2h-5.5v2.8h6.2v2.1H443V461.8z"/>
	<path class="st8" d="M455.8,471.2l6.1-7.3h-5.7v-2.1h9v2l-6.1,7.3h6.3v2.1h-9.6V471.2z"/>
	<path class="st8" d="M479.8,468.9c0,3.1-1.8,4.6-4.9,4.6c-3.1,0-4.9-1.5-4.9-4.6v-7.1h2.5v7.1c0,1.2,0.3,2.5,2.4,2.5
		c1.8,0,2.4-0.8,2.4-2.5v-7.1h2.5V468.9z"/>
	<path class="st8" d="M485.2,461.8h8.5v2.1h-6v2.4h5.5v2h-5.5v2.8h6.2v2.1h-8.7V461.8z"/>
	<path class="st8" d="M498.7,461.8h2.5v9.3h5.6v2.1h-8.1V461.8z"/>
	<path class="st8" d="M514.5,461.8h2.6l4.3,11.4h-2.6l-0.9-2.5h-4.3l-0.9,2.5h-2.5L514.5,461.8z M514.3,468.8h3l-1.4-4.2h0
		L514.3,468.8z"/>
</g>
<g>
	<path class="st5" d="M509.2,356.9c0-1.7-0.3-2.4-1.4-2.4c-1.2,0-1.4,1.2-1.4,4.4c0,3.5,0.5,4.1,1.5,4.1c0.8,0,1.4-0.4,1.4-2.9h2.3
		c0,2.5-0.6,4.6-3.6,4.6c-3.5,0-3.9-2.5-3.9-5.9c0-3.5,0.4-5.9,3.9-5.9c3.3,0,3.5,2.4,3.5,4.1H509.2z"/>
	<path class="st5" d="M513.6,352.9h2.2v1.9h-2.2V352.9z M513.6,355.9h2.2v8.6h-2.2V355.9z"/>
	<path class="st5" d="M522.4,363.5L522.4,363.5c-0.5,0.8-1.3,1.2-2.2,1.2c-1.4,0-2.2-0.8-2.2-2.4v-6.4h2.2v5.9
		c0,0.9,0.3,1.2,0.9,1.2c0.8,0,1.2-0.5,1.2-1.4v-5.7h2.2v8.6h-2.1V363.5z"/>
	<path class="st5" d="M531.1,363.6L531.1,363.6c-0.5,0.8-1.1,1.1-2,1.1c-1.8,0-2.6-1.3-2.6-4.5s0.8-4.5,2.6-4.5c0.8,0,1.4,0.3,1.9,1
		h0v-3.6h2.2v11.4h-2.1V363.6z M529.8,363c1,0,1.2-1,1.2-2.8c0-1.9-0.2-2.8-1.2-2.8c-1,0-1.2,1-1.2,2.8
		C528.6,362,528.8,363,529.8,363z"/>
	<path class="st5" d="M535.3,358.5v-0.2c0-2,1.4-2.7,3-2.7c2.6,0,3.1,1.1,3.1,2.6v4.5c0,0.8,0,1.2,0.3,1.7h-2.1
		c-0.1-0.3-0.2-0.6-0.3-0.9h0c-0.5,0.9-1.1,1.1-2.2,1.1c-1.5,0-2.1-1.3-2.1-2.5c0-1.6,0.7-2.3,2.2-2.7l1.2-0.3
		c0.7-0.2,0.9-0.4,0.9-1c0-0.7-0.3-1.1-1-1.1c-0.7,0-1,0.4-1,1.1v0.2H535.3z M539.3,360.2c-0.3,0.2-0.7,0.4-0.9,0.4
		c-0.9,0.2-1.2,0.6-1.2,1.4c0,0.7,0.2,1.2,0.8,1.2c0.6,0,1.4-0.4,1.4-1.3V360.2z"/>
	<path class="st5" d="M548,363.6L548,363.6c-0.5,0.8-1.1,1.1-2,1.1c-1.8,0-2.6-1.3-2.6-4.5s0.8-4.5,2.6-4.5c0.8,0,1.4,0.3,1.9,1h0
		v-3.6h2.2v11.4H548V363.6z M546.8,363c1,0,1.2-1,1.2-2.8c0-1.9-0.2-2.8-1.2-2.8c-1,0-1.2,1-1.2,2.8C545.6,362,545.8,363,546.8,363z
		"/>
	<path class="st5" d="M504.4,369.1h3.9c1.9,0,3.2,0.7,3.2,2.9c0,1.2-0.6,2.2-1.7,2.5v0c1.3,0.2,2.1,1.1,2.1,2.7
		c0,1.8-0.9,3.3-3.6,3.3h-3.9V369.1z M506.7,373.7h0.7c1.3,0,1.8-0.4,1.8-1.5c0-1.1-0.5-1.5-1.7-1.5h-0.8V373.7z M506.7,378.8h0.9
		c1.1,0,1.9-0.4,1.9-1.7s-0.8-1.7-1.8-1.7h-1V378.8z"/>
	<path class="st5" d="M516.9,371.6c2.7,0,3.4,1.5,3.4,4.5c0,2.9-0.9,4.5-3.4,4.5c-2.7,0-3.4-1.5-3.4-4.5
		C513.5,373.2,514.4,371.6,516.9,371.6z M516.9,379.2c0.9,0,1.2-0.9,1.2-3s-0.3-3-1.2-3c-1.1,0-1.2,1.3-1.2,3
		S515.8,379.2,516.9,379.2z"/>
	<path class="st5" d="M522.2,369.1h2.2v11.4h-2.2V369.1z"/>
	<path class="st5" d="M526.7,368.9h2.2v1.9h-2.2V368.9z M526.7,371.9h2.2v8.6h-2.2V371.9z"/>
	<path class="st5" d="M535.2,371.9h2.2l-2.2,8.6h-2.6l-2.2-8.6h2.3l1.2,6.2h0L535.2,371.9z"/>
	<path class="st5" d="M538.8,374.5v-0.2c0-2,1.4-2.7,3-2.7c2.6,0,3.1,1.1,3.1,2.6v4.5c0,0.8,0,1.2,0.3,1.7h-2.1
		c-0.1-0.3-0.2-0.6-0.3-0.9h0c-0.5,0.9-1.1,1.1-2.2,1.1c-1.5,0-2.1-1.3-2.1-2.5c0-1.6,0.7-2.3,2.2-2.7l1.2-0.3
		c0.7-0.2,0.9-0.4,0.9-1c0-0.7-0.3-1.1-1-1.1c-0.7,0-1,0.4-1,1.1v0.2H538.8z M542.9,376.2c-0.3,0.2-0.7,0.4-0.9,0.4
		c-0.9,0.2-1.2,0.6-1.2,1.4c0,0.7,0.2,1.2,0.8,1.2c0.6,0,1.4-0.4,1.4-1.3V376.2z"/>
	<path class="st5" d="M547.2,371.9h2.1v1.2h0c0.4-0.8,1.1-1.4,2-1.4c0.1,0,0.3,0,0.4,0v2.1c-0.2,0-0.5,0-0.7,0
		c-0.8,0-1.6,0.4-1.6,1.6v5.2h-2.2V371.9z"/>
</g>
<g>
	<path class="st5" d="M701.9,326.2c0-1.7-0.3-2.4-1.4-2.4c-1.2,0-1.4,1.2-1.4,4.4c0,3.5,0.5,4.1,1.5,4.1c0.8,0,1.4-0.4,1.4-2.9h2.3
		c0,2.5-0.6,4.6-3.6,4.6c-3.5,0-3.9-2.5-3.9-5.9c0-3.5,0.4-5.9,3.9-5.9c3.3,0,3.5,2.4,3.5,4.1H701.9z"/>
	<path class="st5" d="M710.6,332.7L710.6,332.7c-0.5,0.8-1.3,1.2-2.2,1.2c-1.4,0-2.2-0.8-2.2-2.4v-6.4h2.2v5.9
		c0,0.9,0.3,1.2,0.9,1.2c0.8,0,1.2-0.5,1.2-1.4v-5.7h2.2v8.6h-2.1V332.7z"/>
	<path class="st5" d="M714.9,325.1h2.1v1.2h0c0.4-0.8,1.1-1.4,2-1.4c0.1,0,0.3,0,0.4,0v2.1c-0.2,0-0.5,0-0.7,0
		c-0.8,0-1.6,0.4-1.6,1.6v5.2h-2.2V325.1z"/>
	<path class="st5" d="M720.9,322.2h2.2v1.9h-2.2V322.2z M720.9,325.1h2.2v8.6h-2.2V325.1z"/>
	<path class="st5" d="M725.3,327.8v-0.2c0-2,1.4-2.7,3-2.7c2.6,0,3.1,1.1,3.1,2.6v4.5c0,0.8,0,1.2,0.3,1.7h-2.1
		c-0.1-0.3-0.2-0.6-0.3-0.9h0c-0.5,0.9-1.1,1.1-2.2,1.1c-1.5,0-2.1-1.3-2.1-2.5c0-1.6,0.7-2.3,2.2-2.7l1.2-0.3
		c0.7-0.2,0.9-0.4,0.9-1c0-0.7-0.3-1.1-1-1.1c-0.7,0-1,0.4-1,1.1v0.2H725.3z M729.3,329.4c-0.3,0.2-0.7,0.4-0.9,0.4
		c-0.9,0.2-1.2,0.6-1.2,1.4c0,0.7,0.2,1.2,0.8,1.2c0.6,0,1.4-0.4,1.4-1.3V329.4z"/>
	<path class="st5" d="M733.7,325.1h2.1v0.9h0c0.5-0.8,1.1-1.1,2-1.1c1.8,0,2.6,1.3,2.6,4.5s-0.8,4.5-2.6,4.5c-0.8,0-1.4-0.3-1.9-1h0
		v3.6h-2.2V325.1z M737,332.3c1,0,1.2-1,1.2-2.8c0-1.9-0.2-2.8-1.2-2.8c-1,0-1.2,1-1.2,2.8C735.9,331.3,736.1,332.3,737,332.3z"/>
	<path class="st5" d="M745.4,324.9c2.7,0,3.4,1.5,3.4,4.5c0,2.9-0.9,4.5-3.4,4.5c-2.7,0-3.4-1.5-3.4-4.5
		C742,326.5,742.9,324.9,745.4,324.9z M745.4,332.5c0.9,0,1.2-0.9,1.2-3s-0.3-3-1.2-3c-1.1,0-1.2,1.3-1.2,3S744.3,332.5,745.4,332.5
		z"/>
</g>
<g>
	<path class="st5" d="M511.9,224.4h4c2.3,0,3.1,1.7,3.1,3.4c0,2.4-1.5,3.4-3.6,3.4h-1.2v4.6h-2.3V224.4z M514.2,229.6h1
		c0.9,0,1.5-0.5,1.5-1.7c0-1.1-0.4-1.8-1.6-1.8h-1V229.6z"/>
	<path class="st5" d="M525.2,234.8L525.2,234.8c-0.5,0.8-1.3,1.2-2.2,1.2c-1.4,0-2.2-0.8-2.2-2.4v-6.4h2.2v5.9
		c0,0.9,0.3,1.2,0.9,1.2c0.8,0,1.2-0.5,1.2-1.4v-5.7h2.2v8.6h-2.1V234.8z"/>
	<path class="st5" d="M531.3,231.9v0.7c0,1,0.3,2,1.1,2c0.7,0,1-0.6,1.2-1.6h2c-0.1,2-1,3.1-3.1,3.1c-3.2,0-3.3-2.5-3.3-4.6
		c0-2.3,0.4-4.4,3.4-4.4c2.6,0,3.2,1.7,3.2,4.4v0.5H531.3z M533.6,230.5c0-1.3-0.2-2-1.1-2c-0.9,0-1.1,0.9-1.1,1.7v0.3H533.6z"/>
	<path class="st5" d="M537.5,227.2h2.1v1.2h0c0.4-0.8,1.1-1.4,2-1.4c0.1,0,0.3,0,0.4,0v2.1c-0.2,0-0.5,0-0.7,0
		c-0.8,0-1.6,0.4-1.6,1.6v5.2h-2.2V227.2z"/>
	<path class="st5" d="M544,224.8h2.2v2.5h1.3v1.5h-1.3v4.7c0,0.7,0.1,0.9,0.8,0.9c0.2,0,0.4,0,0.5,0v1.5c-0.5,0-0.9,0.1-1.4,0.1
		c-1.7,0-2-0.5-2-2.3v-4.9h-1.1v-1.5h1.1V224.8z"/>
	<path class="st5" d="M552,227c2.7,0,3.4,1.5,3.4,4.5c0,2.9-0.9,4.5-3.4,4.5c-2.7,0-3.4-1.5-3.4-4.5C548.6,228.6,549.4,227,552,227z
		 M552,234.5c0.9,0,1.2-0.9,1.2-3s-0.3-3-1.2-3c-1.1,0-1.2,1.3-1.2,3S550.9,234.5,552,234.5z"/>
	<path class="st5" d="M561.7,224.4h2.2v11.4h-2.2V224.4z"/>
	<path class="st5" d="M566.1,229.9v-0.2c0-2,1.4-2.7,3-2.7c2.6,0,3.1,1.1,3.1,2.6v4.5c0,0.8,0,1.2,0.3,1.7h-2.1
		c-0.1-0.3-0.2-0.6-0.3-0.9h0c-0.5,0.9-1.1,1.1-2.2,1.1c-1.5,0-2.1-1.3-2.1-2.5c0-1.6,0.7-2.3,2.2-2.7l1.2-0.3
		c0.7-0.2,0.9-0.4,0.9-1c0-0.7-0.3-1.1-1-1.1c-0.7,0-1,0.4-1,1.1v0.2H566.1z M570.1,231.5c-0.3,0.2-0.7,0.4-0.9,0.4
		c-0.9,0.2-1.2,0.6-1.2,1.4c0,0.7,0.2,1.2,0.8,1.2c0.6,0,1.4-0.4,1.4-1.3V231.5z"/>
	<path class="st5" d="M583.9,228.3c0-1.7-0.3-2.4-1.4-2.4c-1.2,0-1.4,1.2-1.4,4.4c0,3.5,0.5,4.1,1.5,4.1c0.8,0,1.4-0.4,1.4-2.9h2.3
		c0,2.5-0.6,4.6-3.6,4.6c-3.5,0-3.9-2.5-3.9-5.9c0-3.5,0.4-5.9,3.9-5.9c3.3,0,3.5,2.4,3.5,4.1H583.9z"/>
	<path class="st5" d="M588.2,227.2h2.1v1.2h0c0.4-0.8,1.1-1.4,2-1.4c0.1,0,0.3,0,0.4,0v2.1c-0.2,0-0.5,0-0.7,0
		c-0.8,0-1.6,0.4-1.6,1.6v5.2h-2.2V227.2z"/>
	<path class="st5" d="M598.6,234.8L598.6,234.8c-0.5,0.8-1.3,1.2-2.2,1.2c-1.4,0-2.2-0.8-2.2-2.4v-6.4h2.2v5.9
		c0,0.9,0.3,1.2,0.9,1.2c0.8,0,1.2-0.5,1.2-1.4v-5.7h2.2v8.6h-2.1V234.8z"/>
	<path class="st5" d="M602.4,234.1l3.4-5.1h-3.3v-1.8h5.9v1.7L605,234h3.4v1.8h-6.1V234.1z"/>
</g>
<g>
	<path class="st5" d="M438.2,192.9h3.4l1.6,8.1h0l1.6-8.1h3.4v11.4h-2.1v-9.1h0l-2,9.1h-1.8l-2-9.1h0v9.1h-2.1V192.9z"/>
	<path class="st5" d="M453.7,195.5c2.7,0,3.4,1.5,3.4,4.5c0,2.9-0.9,4.5-3.4,4.5c-2.7,0-3.4-1.5-3.4-4.5
		C450.3,197.1,451.2,195.5,453.7,195.5z M453.7,203c0.9,0,1.2-0.9,1.2-3s-0.3-3-1.2-3c-1.1,0-1.2,1.3-1.2,3S452.6,203,453.7,203z"/>
	<path class="st5" d="M463.1,198.8c0-0.8-0.2-1.7-1-1.7c-1.1,0-1.3,1-1.3,2.9c0,2.1,0.2,3,1.2,3c0.7,0,1.1-0.6,1.1-2h2.1
		c0,2.3-0.9,3.5-3.3,3.5c-2.2,0-3.3-1.1-3.3-4.5c0-3.5,1.5-4.5,3.5-4.5s3.1,1.3,3.1,3.3H463.1z"/>
	<path class="st5" d="M467,192.9h2.2v3.7h0c0.4-0.7,1.2-1.1,2.1-1.1c1.4,0,2.2,0.8,2.2,2.4v6.4h-2.2v-5.9c0-0.9-0.3-1.2-0.9-1.2
		c-0.8,0-1.2,0.5-1.2,1.4v5.7H467V192.9z"/>
	<path class="st5" d="M475.7,192.8h2.2v1.9h-2.2V192.8z M475.7,195.7h2.2v8.6h-2.2V195.7z"/>
	<path class="st5" d="M480.1,195.7h2.1v0.9h0c0.6-0.8,1.2-1.1,2.2-1.1c1,0,1.7,0.5,2,1.4h0c0.3-0.9,1.1-1.4,2.2-1.4
		c1.5,0,2.1,0.9,2.1,2.6v6.3h-2.2v-6c0-0.7-0.2-1.1-0.9-1.1c-0.7,0-1.2,0.5-1.2,1.5v5.7h-2.2v-6c0-0.7-0.2-1.1-0.9-1.1
		c-0.7,0-1.2,0.5-1.2,1.5v5.7h-2.2V195.7z"/>
	<path class="st5" d="M492.8,198.3v-0.2c0-2,1.4-2.7,3-2.7c2.6,0,3.1,1.1,3.1,2.6v4.5c0,0.8,0,1.2,0.3,1.7h-2.1
		c-0.1-0.3-0.2-0.6-0.3-0.9h0c-0.5,0.9-1.1,1.1-2.2,1.1c-1.5,0-2.1-1.3-2.1-2.5c0-1.6,0.7-2.3,2.2-2.7l1.2-0.3
		c0.7-0.2,0.9-0.4,0.9-1c0-0.7-0.3-1.1-1-1.1c-0.7,0-1,0.4-1,1.1v0.2H492.8z M496.9,200c-0.3,0.2-0.7,0.4-0.9,0.4
		c-0.9,0.2-1.2,0.6-1.2,1.4c0,0.7,0.2,1.2,0.8,1.2c0.6,0,1.4-0.4,1.4-1.3V200z"/>
</g>
<g>
	<path class="st5" d="M373.8,220.7c0-1.7-0.3-2.4-1.4-2.4c-1.2,0-1.4,1.2-1.4,4.4c0,3.5,0.5,4.1,1.5,4.1c0.8,0,1.4-0.4,1.4-2.9h2.3
		c0,2.5-0.6,4.6-3.6,4.6c-3.5,0-3.9-2.5-3.9-5.9c0-3.5,0.4-5.9,3.9-5.9c3.3,0,3.5,2.4,3.5,4.1H373.8z"/>
	<path class="st5" d="M378.1,222.3v-0.2c0-2,1.4-2.7,3-2.7c2.6,0,3.1,1.1,3.1,2.6v4.5c0,0.8,0,1.2,0.3,1.7h-2.1
		c-0.1-0.3-0.2-0.6-0.3-0.9h0c-0.5,0.9-1.1,1.1-2.2,1.1c-1.5,0-2.1-1.3-2.1-2.5c0-1.6,0.7-2.3,2.2-2.7l1.2-0.3
		c0.7-0.2,0.9-0.4,0.9-1c0-0.7-0.3-1.1-1-1.1c-0.7,0-1,0.4-1,1.1v0.2H378.1z M382.1,224c-0.3,0.2-0.7,0.4-0.9,0.4
		c-0.9,0.2-1.2,0.6-1.2,1.4c0,0.7,0.2,1.2,0.8,1.2c0.6,0,1.4-0.4,1.4-1.3V224z"/>
	<path class="st5" d="M386.4,219.7h2.1v1.2h0c0.4-0.8,1.1-1.4,2-1.4c0.1,0,0.3,0,0.4,0v2.1c-0.2,0-0.5,0-0.7,0
		c-0.8,0-1.6,0.4-1.6,1.6v5.2h-2.2V219.7z"/>
	<path class="st5" d="M392.4,222.3v-0.2c0-2,1.4-2.7,3-2.7c2.6,0,3.1,1.1,3.1,2.6v4.5c0,0.8,0,1.2,0.3,1.7h-2.1
		c-0.1-0.3-0.2-0.6-0.3-0.9h0c-0.5,0.9-1.1,1.1-2.2,1.1c-1.5,0-2.1-1.3-2.1-2.5c0-1.6,0.7-2.3,2.2-2.7l1.2-0.3
		c0.7-0.2,0.9-0.4,0.9-1c0-0.7-0.3-1.1-1-1.1c-0.7,0-1,0.4-1,1.1v0.2H392.4z M396.4,224c-0.3,0.2-0.7,0.4-0.9,0.4
		c-0.9,0.2-1.2,0.6-1.2,1.4c0,0.7,0.2,1.2,0.8,1.2s1.4-0.4,1.4-1.3V224z"/>
	<path class="st5" d="M404.9,222.8c0-0.8-0.2-1.7-1-1.7c-1.1,0-1.3,1-1.3,2.9c0,2.1,0.2,3,1.2,3c0.7,0,1.1-0.6,1.1-2h2.1
		c0,2.3-0.9,3.5-3.3,3.5c-2.2,0-3.3-1.1-3.3-4.5c0-3.5,1.5-4.5,3.5-4.5c2,0,3.1,1.3,3.1,3.3H404.9z"/>
	<path class="st5" d="M408.7,222.3v-0.2c0-2,1.4-2.7,3-2.7c2.6,0,3.1,1.1,3.1,2.6v4.5c0,0.8,0,1.2,0.3,1.7H413
		c-0.1-0.3-0.2-0.6-0.3-0.9h0c-0.5,0.9-1.1,1.1-2.2,1.1c-1.5,0-2.1-1.3-2.1-2.5c0-1.6,0.7-2.3,2.2-2.7l1.2-0.3
		c0.7-0.2,0.9-0.4,0.9-1c0-0.7-0.3-1.1-1-1.1c-0.7,0-1,0.4-1,1.1v0.2H408.7z M412.8,224c-0.3,0.2-0.7,0.4-0.9,0.4
		c-0.9,0.2-1.2,0.6-1.2,1.4c0,0.7,0.2,1.2,0.8,1.2s1.4-0.4,1.4-1.3V224z"/>
	<path class="st5" d="M418.7,225.5v0.3c0,0.8,0.4,1.2,1.2,1.2c0.7,0,1.1-0.3,1.1-1c0-0.6-0.4-0.8-0.8-1l-1.6-0.6
		c-1.2-0.4-1.8-1.2-1.8-2.4c0-1.4,0.9-2.6,3.2-2.6c2,0,2.9,0.9,2.9,2.4v0.4h-2c0-0.9-0.3-1.3-1-1.3c-0.6,0-1,0.3-1,0.9
		c0,0.4,0.2,0.8,1,1l1.3,0.4c1.4,0.5,1.9,1.2,1.9,2.5c0,1.8-1.3,2.7-3.2,2.7c-2.5,0-3.2-1.1-3.2-2.7v-0.3H418.7z"/>
</g>
<g>
	<path class="st5" d="M242.4,238.7l1.6,8.5h0l1.7-8.5h2.4l-2.6,11.4h-3l-2.6-11.4H242.4z"/>
	<path class="st5" d="M249.6,244.1v-0.2c0-2,1.4-2.7,3-2.7c2.6,0,3.1,1.1,3.1,2.6v4.5c0,0.8,0,1.2,0.3,1.7h-2.1
		c-0.1-0.3-0.2-0.6-0.3-0.9h0c-0.5,0.9-1.1,1.1-2.2,1.1c-1.5,0-2.1-1.3-2.1-2.5c0-1.6,0.7-2.3,2.2-2.7l1.2-0.3
		c0.7-0.2,0.9-0.4,0.9-1c0-0.7-0.3-1.1-1-1.1c-0.7,0-1,0.4-1,1.1v0.2H249.6z M253.6,245.8c-0.3,0.2-0.7,0.4-0.9,0.4
		c-0.9,0.2-1.2,0.6-1.2,1.4c0,0.7,0.2,1.2,0.8,1.2s1.4-0.4,1.4-1.3V245.8z"/>
	<path class="st5" d="M258,238.7h2.2v11.4H258V238.7z"/>
	<path class="st5" d="M264.3,246.1v0.7c0,1,0.3,2,1.1,2c0.7,0,1-0.6,1.2-1.6h2c-0.1,2-1,3.1-3.1,3.1c-3.2,0-3.3-2.5-3.3-4.6
		c0-2.3,0.4-4.4,3.4-4.4c2.6,0,3.2,1.7,3.2,4.4v0.5H264.3z M266.5,244.8c0-1.3-0.2-2-1.1-2c-0.9,0-1.1,0.9-1.1,1.7v0.3H266.5z"/>
	<path class="st5" d="M270.4,241.5h2.1v1h0c0.5-0.8,1.3-1.2,2.2-1.2c1.4,0,2.2,0.8,2.2,2.4v6.4h-2.2v-5.9c0-0.9-0.3-1.2-0.9-1.2
		c-0.8,0-1.2,0.5-1.2,1.4v5.7h-2.2V241.5z"/>
	<path class="st5" d="M283.2,244.6c0-0.8-0.2-1.7-1-1.7c-1.1,0-1.3,1-1.3,2.9c0,2.1,0.2,3,1.2,3c0.7,0,1.1-0.6,1.1-2h2.1
		c0,2.3-0.9,3.5-3.3,3.5c-2.2,0-3.3-1.1-3.3-4.5c0-3.5,1.5-4.5,3.5-4.5s3.1,1.3,3.1,3.3H283.2z"/>
	<path class="st5" d="M287.2,238.6h2.2v1.9h-2.2V238.6z M287.2,241.5h2.2v8.6h-2.2V241.5z"/>
	<path class="st5" d="M291.6,244.1v-0.2c0-2,1.4-2.7,3-2.7c2.6,0,3.1,1.1,3.1,2.6v4.5c0,0.8,0,1.2,0.3,1.7h-2.1
		c-0.1-0.3-0.2-0.6-0.3-0.9h0c-0.5,0.9-1.1,1.1-2.2,1.1c-1.5,0-2.1-1.3-2.1-2.5c0-1.6,0.7-2.3,2.2-2.7l1.2-0.3
		c0.7-0.2,0.9-0.4,0.9-1c0-0.7-0.3-1.1-1-1.1c-0.7,0-1,0.4-1,1.1v0.2H291.6z M295.6,245.8c-0.3,0.2-0.7,0.4-0.9,0.4
		c-0.9,0.2-1.2,0.6-1.2,1.4c0,0.7,0.2,1.2,0.8,1.2c0.6,0,1.4-0.4,1.4-1.3V245.8z"/>
</g>
<g>
	<path class="st5" d="M190.9,209.8h4c2.3,0,3.1,1.7,3.1,3.4c0,2.4-1.5,3.4-3.6,3.4h-1.2v4.6h-2.3V209.8z M193.2,215h1
		c0.9,0,1.5-0.5,1.5-1.7c0-1.1-0.4-1.8-1.6-1.8h-1V215z"/>
	<path class="st5" d="M200.3,210.2h2.2v2.5h1.3v1.5h-1.3v4.7c0,0.7,0.1,0.9,0.8,0.9c0.2,0,0.4,0,0.5,0v1.5c-0.5,0-0.9,0.1-1.4,0.1
		c-1.7,0-2-0.5-2-2.3v-4.9h-1.1v-1.5h1.1V210.2z"/>
	<path class="st5" d="M208.3,212.4c2.7,0,3.4,1.5,3.4,4.5c0,2.9-0.9,4.5-3.4,4.5c-2.7,0-3.4-1.5-3.4-4.5
		C204.9,214,205.8,212.4,208.3,212.4z M208.3,220c0.9,0,1.2-0.9,1.2-3s-0.3-3-1.2-3c-1.1,0-1.2,1.3-1.2,3S207.2,220,208.3,220z"/>
	<path class="st5" d="M215.8,218.8v2.5h-2.1v-2.5H215.8z"/>
	<path class="st5" d="M227.4,213.7c0-1.7-0.3-2.4-1.4-2.4c-1.2,0-1.4,1.2-1.4,4.4c0,3.5,0.5,4.1,1.5,4.1c0.8,0,1.4-0.4,1.4-2.9h2.3
		c0,2.5-0.6,4.6-3.6,4.6c-3.5,0-3.9-2.5-3.9-5.9c0-3.5,0.4-5.9,3.9-5.9c3.3,0,3.5,2.4,3.5,4.1H227.4z"/>
	<path class="st5" d="M234.8,212.4c2.7,0,3.4,1.5,3.4,4.5c0,2.9-0.9,4.5-3.4,4.5c-2.7,0-3.4-1.5-3.4-4.5
		C231.4,214,232.3,212.4,234.8,212.4z M234.8,220c0.9,0,1.2-0.9,1.2-3s-0.3-3-1.2-3c-1.1,0-1.2,1.3-1.2,3S233.7,220,234.8,220z"/>
	<path class="st5" d="M240.1,209.8h2.2v11.4h-2.2V209.8z"/>
	<path class="st5" d="M247.6,212.4c2.7,0,3.4,1.5,3.4,4.5c0,2.9-0.9,4.5-3.4,4.5c-2.7,0-3.4-1.5-3.4-4.5
		C244.2,214,245.1,212.4,247.6,212.4z M247.6,220c0.9,0,1.2-0.9,1.2-3s-0.3-3-1.2-3c-1.1,0-1.2,1.3-1.2,3S246.5,220,247.6,220z"/>
	<path class="st5" d="M252.8,212.7h2.1v0.9h0c0.6-0.8,1.2-1.1,2.2-1.1c1,0,1.7,0.5,2,1.4h0c0.3-0.9,1.1-1.4,2.2-1.4
		c1.5,0,2.1,0.9,2.1,2.6v6.3h-2.2v-6c0-0.7-0.2-1.1-0.9-1.1c-0.7,0-1.2,0.5-1.2,1.5v5.7h-2.2v-6c0-0.7-0.2-1.1-0.9-1.1
		c-0.7,0-1.2,0.5-1.2,1.5v5.7h-2.2V212.7z"/>
	<path class="st5" d="M265.6,209.8h2.2v3.6h0c0.5-0.7,1-1,1.9-1c1.8,0,2.6,1.3,2.6,4.5s-0.8,4.5-2.6,4.5c-0.9,0-1.5-0.3-2-1.1h0v0.9
		h-2.1V209.8z M269,219.8c1,0,1.2-1,1.2-2.8c0-1.9-0.2-2.8-1.2-2.8c-1,0-1.2,1-1.2,2.8C267.8,218.8,268,219.8,269,219.8z"/>
	<path class="st5" d="M274.3,209.7h2.2v1.9h-2.2V209.7z M274.3,212.7h2.2v8.6h-2.2V212.7z"/>
	<path class="st5" d="M278.7,215.3v-0.2c0-2,1.4-2.7,3-2.7c2.6,0,3.1,1.1,3.1,2.6v4.5c0,0.8,0,1.2,0.3,1.7H283
		c-0.1-0.3-0.2-0.6-0.3-0.9h0c-0.5,0.9-1.1,1.1-2.2,1.1c-1.5,0-2.1-1.3-2.1-2.5c0-1.6,0.7-2.3,2.2-2.7l1.2-0.3
		c0.7-0.2,0.9-0.4,0.9-1c0-0.7-0.3-1.1-1-1.1c-0.7,0-1,0.4-1,1.1v0.2H278.7z M282.7,217c-0.3,0.2-0.7,0.4-0.9,0.4
		c-0.9,0.2-1.2,0.6-1.2,1.4c0,0.7,0.2,1.2,0.8,1.2c0.6,0,1.4-0.4,1.4-1.3V217z"/>
</g>
<g>
	<path class="st5" d="M206.2,179.3h3.4l1.6,8.1h0l1.6-8.1h3.4v11.4h-2.1v-9.1h0l-2,9.1h-1.8l-2-9.1h0v9.1h-2.1V179.3z"/>
	<path class="st5" d="M221.7,181.9c2.7,0,3.4,1.5,3.4,4.5c0,2.9-0.9,4.5-3.4,4.5c-2.7,0-3.4-1.5-3.4-4.5
		C218.3,183.5,219.2,181.9,221.7,181.9z M221.7,189.4c0.9,0,1.2-0.9,1.2-3s-0.3-3-1.2-3c-1.1,0-1.2,1.3-1.2,3
		S220.6,189.4,221.7,189.4z"/>
	<path class="st5" d="M226.9,182.1h2.1v1.2h0c0.4-0.8,1.1-1.4,2-1.4c0.1,0,0.3,0,0.4,0v2.1c-0.2,0-0.5,0-0.7,0
		c-0.8,0-1.6,0.4-1.6,1.6v5.2h-2.2V182.1z"/>
	<path class="st5" d="M232.9,182.1h2.1v1.2h0c0.4-0.8,1.1-1.4,2-1.4c0.1,0,0.3,0,0.4,0v2.1c-0.2,0-0.5,0-0.7,0
		c-0.8,0-1.6,0.4-1.6,1.6v5.2h-2.2V182.1z"/>
	<path class="st5" d="M242,181.9c2.7,0,3.4,1.5,3.4,4.5c0,2.9-0.9,4.5-3.4,4.5c-2.7,0-3.4-1.5-3.4-4.5
		C238.6,183.5,239.4,181.9,242,181.9z M242,189.4c0.9,0,1.2-0.9,1.2-3s-0.3-3-1.2-3c-1.1,0-1.2,1.3-1.2,3S240.9,189.4,242,189.4z"/>
	<path class="st5" d="M251.3,185.2c0-0.8-0.2-1.7-1-1.7c-1.1,0-1.3,1-1.3,2.9c0,2.1,0.2,3,1.2,3c0.7,0,1.1-0.6,1.1-2h2.1
		c0,2.3-0.9,3.5-3.3,3.5c-2.2,0-3.3-1.1-3.3-4.5c0-3.5,1.5-4.5,3.5-4.5c2,0,3.1,1.3,3.1,3.3H251.3z"/>
	<path class="st5" d="M258.3,181.9c2.7,0,3.4,1.5,3.4,4.5c0,2.9-0.9,4.5-3.4,4.5c-2.7,0-3.4-1.5-3.4-4.5
		C254.9,183.5,255.8,181.9,258.3,181.9z M258.3,189.4c0.9,0,1.2-0.9,1.2-3s-0.3-3-1.2-3c-1.1,0-1.2,1.3-1.2,3
		S257.2,189.4,258.3,189.4z"/>
	<path class="st5" d="M263.5,191.9c0.2,0,0.4,0,0.6,0c0.8,0,1.1-0.4,1.2-1.2l-2.4-8.6h2.3l1.3,6h0l1.1-6h2.2l-2.1,8
		c-0.8,3-1.3,3.4-3.3,3.4h-0.9V191.9z"/>
</g>
<g>
	<path class="st5" d="M73.2,324.9h3.4l1.6,8.1h0l1.6-8.1h3.4v11.4h-2.1v-9.1h0l-2,9.1h-1.8l-2-9.1h0v9.1h-2.1V324.9z"/>
	<path class="st5" d="M87.4,332.3v0.7c0,1,0.3,2,1.1,2c0.7,0,1-0.6,1.2-1.6h2c-0.1,2-1,3.1-3.1,3.1c-3.2,0-3.3-2.5-3.3-4.6
		c0-2.3,0.4-4.4,3.4-4.4c2.6,0,3.2,1.7,3.2,4.4v0.5H87.4z M89.7,331c0-1.3-0.2-2-1.1-2c-0.9,0-1.1,0.9-1.1,1.7v0.3H89.7z"/>
	<path class="st5" d="M93.6,327.7h2.1v1.2h0c0.4-0.8,1.1-1.4,2-1.4c0.1,0,0.3,0,0.4,0v2.1c-0.2,0-0.5,0-0.7,0
		c-0.8,0-1.6,0.4-1.6,1.6v5.2h-2.2V327.7z"/>
	<path class="st5" d="M99.6,324.7h2.2v1.9h-2.2V324.7z M99.6,327.7h2.2v8.6h-2.2V327.7z"/>
	<path class="st5" d="M108.5,335.4L108.5,335.4c-0.5,0.8-1.1,1.1-2,1.1c-1.8,0-2.6-1.3-2.6-4.5s0.8-4.5,2.6-4.5c0.8,0,1.4,0.3,1.9,1
		h0v-3.6h2.2v11.4h-2.1V335.4z M107.2,334.8c1,0,1.2-1,1.2-2.8c0-1.9-0.2-2.8-1.2-2.8c-1,0-1.2,1-1.2,2.8
		C106,333.9,106.2,334.8,107.2,334.8z"/>
	<path class="st5" d="M112.7,330.3v-0.2c0-2,1.4-2.7,3-2.7c2.6,0,3.1,1.1,3.1,2.6v4.5c0,0.8,0,1.2,0.3,1.7H117
		c-0.1-0.3-0.2-0.6-0.3-0.9h0c-0.5,0.9-1.1,1.1-2.2,1.1c-1.5,0-2.1-1.3-2.1-2.5c0-1.6,0.7-2.3,2.2-2.7l1.2-0.3
		c0.7-0.2,0.9-0.4,0.9-1c0-0.7-0.3-1.1-1-1.1c-0.7,0-1,0.4-1,1.1v0.2H112.7z M116.7,332c-0.3,0.2-0.7,0.4-0.9,0.4
		c-0.9,0.2-1.2,0.6-1.2,1.4c0,0.7,0.2,1.2,0.8,1.2s1.4-0.4,1.4-1.3V332z"/>
</g>
<g>
	<path class="st5" d="M606.6,450c0-1.7-0.3-2.4-1.4-2.4c-1.2,0-1.4,1.2-1.4,4.4c0,3.5,0.5,4.1,1.5,4.1c0.8,0,1.4-0.4,1.4-2.9h2.3
		c0,2.5-0.6,4.6-3.6,4.6c-3.5,0-3.9-2.5-3.9-5.9c0-3.5,0.4-5.9,3.9-5.9c3.3,0,3.5,2.4,3.5,4.1H606.6z"/>
	<path class="st5" d="M610.9,451.6v-0.2c0-2,1.4-2.7,3-2.7c2.6,0,3.1,1.1,3.1,2.6v4.5c0,0.8,0,1.2,0.3,1.7h-2.1
		c-0.1-0.3-0.2-0.6-0.3-0.9h0c-0.5,0.9-1.1,1.1-2.2,1.1c-1.5,0-2.1-1.3-2.1-2.5c0-1.6,0.7-2.3,2.2-2.7l1.2-0.3
		c0.7-0.2,0.9-0.4,0.9-1c0-0.7-0.3-1.1-1-1.1c-0.7,0-1,0.4-1,1.1v0.2H610.9z M614.9,453.3c-0.3,0.2-0.7,0.4-0.9,0.4
		c-0.9,0.2-1.2,0.6-1.2,1.4c0,0.7,0.2,1.2,0.8,1.2c0.6,0,1.4-0.4,1.4-1.3V453.3z"/>
	<path class="st5" d="M619.2,449h2.1v1h0c0.5-0.8,1.3-1.2,2.2-1.2c1.4,0,2.2,0.8,2.2,2.4v6.4h-2.2v-5.9c0-0.9-0.3-1.2-0.9-1.2
		c-0.8,0-1.2,0.5-1.2,1.4v5.7h-2.2V449z"/>
	<path class="st5" d="M627.9,451.6v-0.2c0-2,1.4-2.7,3-2.7c2.6,0,3.1,1.1,3.1,2.6v4.5c0,0.8,0,1.2,0.3,1.7h-2.1
		c-0.1-0.3-0.2-0.6-0.3-0.9h0c-0.5,0.9-1.1,1.1-2.2,1.1c-1.5,0-2.1-1.3-2.1-2.5c0-1.6,0.7-2.3,2.2-2.7l1.2-0.3
		c0.7-0.2,0.9-0.4,0.9-1c0-0.7-0.3-1.1-1-1.1c-0.7,0-1,0.4-1,1.1v0.2H627.9z M631.9,453.3c-0.3,0.2-0.7,0.4-0.9,0.4
		c-0.9,0.2-1.2,0.6-1.2,1.4c0,0.7,0.2,1.2,0.8,1.2c0.6,0,1.4-0.4,1.4-1.3V453.3z"/>
	<path class="st5" d="M636.3,446.1h2.2v1.9h-2.2V446.1z M636.3,449h2.2v8.6h-2.2V449z"/>
	<path class="st5" d="M640.7,449h2.1v0.9h0c0.6-0.8,1.2-1.1,2.2-1.1c1,0,1.7,0.5,2,1.4h0c0.3-0.9,1.1-1.4,2.2-1.4
		c1.5,0,2.1,0.9,2.1,2.6v6.3h-2.2v-6c0-0.7-0.2-1.1-0.9-1.1c-0.7,0-1.2,0.5-1.2,1.5v5.7h-2.2v-6c0-0.7-0.2-1.1-0.9-1.1
		c-0.7,0-1.2,0.5-1.2,1.5v5.7h-2.2V449z"/>
	<path class="st5" d="M653.5,451.6v-0.2c0-2,1.4-2.7,3-2.7c2.6,0,3.1,1.1,3.1,2.6v4.5c0,0.8,0,1.2,0.3,1.7h-2.1
		c-0.1-0.3-0.2-0.6-0.3-0.9h0c-0.5,0.9-1.1,1.1-2.2,1.1c-1.5,0-2.1-1.3-2.1-2.5c0-1.6,0.7-2.3,2.2-2.7l1.2-0.3
		c0.7-0.2,0.9-0.4,0.9-1c0-0.7-0.3-1.1-1-1.1c-0.7,0-1,0.4-1,1.1v0.2H653.5z M657.5,453.3c-0.3,0.2-0.7,0.4-0.9,0.4
		c-0.9,0.2-1.2,0.6-1.2,1.4c0,0.7,0.2,1.2,0.8,1.2c0.6,0,1.4-0.4,1.4-1.3V453.3z"/>
</g>
<g>
	<path class="st5" d="M696.8,559.3v0.3c0,1.1,0.3,1.8,1.5,1.8c0.7,0,1.4-0.4,1.4-1.4c0-1-0.5-1.4-2-2c-2-0.7-3-1.6-3-3.5
		c0-2.2,1.4-3.4,3.5-3.4c2,0,3.5,0.9,3.5,3.1v0.3h-2.2c0-1.1-0.4-1.7-1.2-1.7c-1,0-1.3,0.7-1.3,1.3c0,0.7,0.2,1.1,1.2,1.6l1.8,0.8
		c1.7,0.8,2.2,1.6,2.2,3c0,2.4-1.5,3.5-4,3.5c-2.6,0-3.6-1.2-3.6-3.3v-0.5H696.8z"/>
	<path class="st5" d="M703.8,556.9v-0.2c0-2,1.4-2.7,3-2.7c2.6,0,3.1,1.1,3.1,2.6v4.5c0,0.8,0,1.2,0.3,1.7h-2.1
		c-0.1-0.3-0.2-0.6-0.3-0.9h0c-0.5,0.9-1.1,1.1-2.2,1.1c-1.5,0-2.1-1.3-2.1-2.5c0-1.6,0.7-2.3,2.2-2.7l1.2-0.3
		c0.7-0.2,0.9-0.4,0.9-1c0-0.7-0.3-1.1-1-1.1c-0.7,0-1,0.4-1,1.1v0.2H703.8z M707.9,558.6c-0.3,0.2-0.7,0.4-0.9,0.4
		c-0.9,0.2-1.2,0.6-1.2,1.4c0,0.7,0.2,1.2,0.8,1.2s1.4-0.4,1.4-1.3V558.6z"/>
	<path class="st5" d="M712.2,554.3h2.1v1h0c0.5-0.8,1.3-1.2,2.2-1.2c1.4,0,2.2,0.8,2.2,2.4v6.4h-2.2v-5.9c0-0.9-0.3-1.2-0.9-1.2
		c-0.8,0-1.2,0.5-1.2,1.4v5.7h-2.2V554.3z"/>
	<path class="st5" d="M721.3,551.8h2.2v2.5h1.3v1.5h-1.3v4.7c0,0.7,0.1,0.9,0.8,0.9c0.2,0,0.4,0,0.5,0v1.5c-0.5,0-0.9,0.1-1.4,0.1
		c-1.7,0-2-0.5-2-2.3v-4.9h-1.1v-1.5h1.1V551.8z"/>
	<path class="st5" d="M726.2,556.9v-0.2c0-2,1.4-2.7,3-2.7c2.6,0,3.1,1.1,3.1,2.6v4.5c0,0.8,0,1.2,0.3,1.7h-2.1
		c-0.1-0.3-0.2-0.6-0.3-0.9h0c-0.5,0.9-1.1,1.1-2.2,1.1c-1.5,0-2.1-1.3-2.1-2.5c0-1.6,0.7-2.3,2.2-2.7l1.2-0.3
		c0.7-0.2,0.9-0.4,0.9-1c0-0.7-0.3-1.1-1-1.1c-0.7,0-1,0.4-1,1.1v0.2H726.2z M730.2,558.6c-0.3,0.2-0.7,0.4-0.9,0.4
		c-0.9,0.2-1.2,0.6-1.2,1.4c0,0.7,0.2,1.2,0.8,1.2s1.4-0.4,1.4-1.3V558.6z"/>
	<path class="st5" d="M745.5,551.4v1.9h-4.1v2.7h3.8v1.9h-3.8v3.1h4.2v1.9h-6.5v-11.4H745.5z"/>
	<path class="st5" d="M747.4,551.4h2.2v11.4h-2.2V551.4z"/>
	<path class="st5" d="M753.7,558.9v0.7c0,1,0.3,2,1.1,2c0.7,0,1-0.6,1.2-1.6h2c-0.1,2-1,3.1-3.1,3.1c-3.2,0-3.3-2.5-3.3-4.6
		c0-2.3,0.4-4.4,3.4-4.4c2.6,0,3.2,1.7,3.2,4.4v0.5H753.7z M756,557.6c0-1.3-0.2-2-1.1-2c-0.9,0-1.1,0.9-1.1,1.7v0.3H756z"/>
	<path class="st5" d="M759.9,554.3h2.1v1h0c0.5-0.8,1.3-1.2,2.2-1.2c1.4,0,2.2,0.8,2.2,2.4v6.4h-2.2v-5.9c0-0.9-0.3-1.2-0.9-1.2
		c-0.8,0-1.2,0.5-1.2,1.4v5.7h-2.2V554.3z"/>
	<path class="st5" d="M768.5,556.9v-0.2c0-2,1.4-2.7,3-2.7c2.6,0,3.1,1.1,3.1,2.6v4.5c0,0.8,0,1.2,0.3,1.7h-2.1
		c-0.1-0.3-0.2-0.6-0.3-0.9h0c-0.5,0.9-1.1,1.1-2.2,1.1c-1.5,0-2.1-1.3-2.1-2.5c0-1.6,0.7-2.3,2.2-2.7l1.2-0.3
		c0.7-0.2,0.9-0.4,0.9-1c0-0.7-0.3-1.1-1-1.1c-0.7,0-1,0.4-1,1.1v0.2H768.5z M772.5,558.6c-0.3,0.2-0.7,0.4-0.9,0.4
		c-0.9,0.2-1.2,0.6-1.2,1.4c0,0.7,0.2,1.2,0.8,1.2s1.4-0.4,1.4-1.3V558.6z"/>
</g>
<g>
	<path class="st6" d="M406.5,342.6h3.2c1.4,0,2.3,0.7,2.3,2.2c0,1.1-0.5,1.9-1.4,2.1v0c1.2,0.2,1.4,0.8,1.4,2.6
		c0,0.9,0.1,1.4,0.4,1.5v0.1h-1.9c-0.2-0.2-0.2-0.6-0.2-0.9l0-1.6c0-0.7-0.3-1.1-1-1.1h-0.9v3.6h-1.7V342.6z M408.2,346.3h0.7
		c0.8,0,1.3-0.4,1.3-1.3c0-0.8-0.4-1.2-1.2-1.2h-0.8V346.3z"/>
	<path class="st6" d="M413.7,342.5h1.7v1.4h-1.7V342.5z M413.7,344.7h1.7v6.5h-1.7V344.7z"/>
	<path class="st6" d="M419.3,344.5c2,0,2.5,1.2,2.5,3.4c0,2.2-0.6,3.4-2.5,3.4c-2,0-2.5-1.2-2.5-3.4
		C416.7,345.7,417.4,344.5,419.3,344.5z M419.3,350.2c0.7,0,0.9-0.7,0.9-2.3c0-1.6-0.2-2.3-0.9-2.3c-0.8,0-0.9,0.9-0.9,2.3
		S418.5,350.2,419.3,350.2z"/>
	<path class="st6" d="M429.3,342.4c2.6,0,2.9,1.8,2.9,4.4s-0.3,4.4-2.9,4.4c-2.6,0-2.9-1.8-2.9-4.4S426.8,342.4,429.3,342.4z
		 M429.3,350c1,0,1.2-0.9,1.2-3.2c0-2.3-0.2-3.2-1.2-3.2s-1.2,0.9-1.2,3.2C428.2,349.1,428.3,350,429.3,350z"/>
	<path class="st6" d="M433.7,344.7h1.6v0.9h0c0.3-0.6,0.8-1,1.5-1c0.1,0,0.2,0,0.3,0v1.6c-0.2,0-0.3,0-0.5,0c-0.6,0-1.2,0.3-1.2,1.2
		v3.9h-1.7V344.7z"/>
	<path class="st6" d="M438.2,342.5h1.7v1.4h-1.7V342.5z M438.2,344.7h1.7v6.5h-1.7V344.7z"/>
	<path class="st6" d="M441.5,344.7h1.6v0.8h0c0.3-0.6,0.9-0.9,1.6-0.9c1,0,1.6,0.6,1.6,1.8v4.8h-1.7v-4.4c0-0.6-0.2-0.9-0.7-0.9
		c-0.6,0-0.9,0.3-0.9,1.1v4.3h-1.7V344.7z"/>
	<path class="st6" d="M450.4,344.5c2,0,2.5,1.2,2.5,3.4c0,2.2-0.6,3.4-2.5,3.4c-2,0-2.5-1.2-2.5-3.4
		C447.8,345.7,448.5,344.5,450.4,344.5z M450.4,350.2c0.7,0,0.9-0.7,0.9-2.3c0-1.6-0.2-2.3-0.9-2.3c-0.8,0-0.9,0.9-0.9,2.3
		S449.5,350.2,450.4,350.2z"/>
	<path class="st6" d="M457.4,347c0-0.6-0.1-1.3-0.7-1.3c-0.8,0-0.9,0.7-0.9,2.2c0,1.6,0.1,2.3,0.9,2.3c0.6,0,0.8-0.5,0.8-1.5h1.6
		c0,1.7-0.7,2.6-2.5,2.6c-1.7,0-2.5-0.8-2.5-3.4c0-2.7,1.1-3.4,2.6-3.4c1.5,0,2.3,1,2.3,2.5H457.4z"/>
	<path class="st6" d="M462.6,344.5c2,0,2.5,1.2,2.5,3.4c0,2.2-0.6,3.4-2.5,3.4c-2,0-2.5-1.2-2.5-3.4
		C460.1,345.7,460.7,344.5,462.6,344.5z M462.6,350.2c0.7,0,0.9-0.7,0.9-2.3c0-1.6-0.2-2.3-0.9-2.3c-0.8,0-0.9,0.9-0.9,2.3
		S461.8,350.2,462.6,350.2z"/>
</g>
<g>
	<path class="st6" d="M656,264.3c2.6,0,2.9,1.8,2.9,4.4s-0.3,4.4-2.9,4.4c-2.6,0-2.9-1.8-2.9-4.4S653.4,264.3,656,264.3z M656,271.9
		c1,0,1.2-0.9,1.2-3.2c0-2.3-0.2-3.2-1.2-3.2s-1.2,0.9-1.2,3.2C654.9,271,655,271.9,656,271.9z"/>
	<path class="st6" d="M660.4,266.6h1.6v0.9h0c0.3-0.6,0.8-1,1.5-1c0.1,0,0.2,0,0.3,0v1.6c-0.2,0-0.3,0-0.5,0c-0.6,0-1.2,0.3-1.2,1.2
		v3.9h-1.7V266.6z"/>
	<path class="st6" d="M664.9,264.4h1.7v1.4h-1.7V264.4z M664.9,266.6h1.7v6.5h-1.7V266.6z"/>
	<path class="st6" d="M668.2,266.6h1.6v0.8h0c0.3-0.6,0.9-0.9,1.6-0.9c1,0,1.6,0.6,1.6,1.8v4.8h-1.7v-4.4c0-0.6-0.2-0.9-0.7-0.9
		c-0.6,0-0.9,0.3-0.9,1.1v4.3h-1.7V266.6z"/>
	<path class="st6" d="M677.1,266.4c2,0,2.5,1.2,2.5,3.4c0,2.2-0.6,3.4-2.5,3.4c-2,0-2.5-1.2-2.5-3.4
		C674.5,267.6,675.2,266.4,677.1,266.4z M677.1,272.1c0.7,0,0.9-0.7,0.9-2.3c0-1.6-0.2-2.3-0.9-2.3c-0.8,0-0.9,0.9-0.9,2.3
		S676.2,272.1,677.1,272.1z"/>
	<path class="st6" d="M684.1,268.9c0-0.6-0.1-1.3-0.7-1.3c-0.8,0-0.9,0.7-0.9,2.2c0,1.6,0.1,2.3,0.9,2.3c0.6,0,0.8-0.5,0.8-1.5h1.6
		c0,1.7-0.7,2.6-2.5,2.6c-1.7,0-2.5-0.8-2.5-3.4c0-2.7,1.1-3.4,2.6-3.4c1.5,0,2.3,1,2.3,2.5H684.1z"/>
	<path class="st6" d="M689.3,266.4c2,0,2.5,1.2,2.5,3.4c0,2.2-0.6,3.4-2.5,3.4c-2,0-2.5-1.2-2.5-3.4
		C686.8,267.6,687.4,266.4,689.3,266.4z M689.3,272.1c0.7,0,0.9-0.7,0.9-2.3c0-1.6-0.2-2.3-0.9-2.3c-0.8,0-0.9,0.9-0.9,2.3
		S688.5,272.1,689.3,272.1z"/>
	<path class="st6" d="M653.4,276.5h2.8c2.4,0,2.8,1.6,2.8,4.2c0,3-0.6,4.4-2.9,4.4h-2.7V276.5z M655.1,283.7h0.8
		c1.2,0,1.4-0.8,1.4-3.1c0-1.9-0.2-2.9-1.5-2.9h-0.7V283.7z"/>
	<path class="st6" d="M662,282v0.5c0,0.8,0.2,1.5,0.8,1.5c0.6,0,0.8-0.4,0.9-1.2h1.5c-0.1,1.5-0.8,2.3-2.3,2.3
		c-2.4,0-2.5-1.8-2.5-3.5c0-1.7,0.3-3.3,2.6-3.3c1.9,0,2.4,1.3,2.4,3.3v0.4H662z M663.7,281.1c0-1-0.2-1.5-0.8-1.5
		c-0.7,0-0.9,0.7-0.9,1.3v0.3H663.7z"/>
	<path class="st6" d="M666.7,276.5h1.7v8.6h-1.7V276.5z"/>
	<path class="st6" d="M670.4,276.7h1.7v1.8h1v1.1h-1v3.5c0,0.5,0.1,0.7,0.6,0.7c0.1,0,0.3,0,0.4,0v1.2c-0.4,0-0.7,0.1-1.1,0.1
		c-1.3,0-1.5-0.4-1.5-1.7v-3.7h-0.8v-1.1h0.8V276.7z"/>
	<path class="st6" d="M674,280.5v-0.2c0-1.5,1-2,2.3-2c2,0,2.3,0.8,2.3,2v3.4c0,0.6,0,0.9,0.2,1.2h-1.6c-0.1-0.2-0.2-0.5-0.2-0.7h0
		c-0.4,0.7-0.9,0.8-1.6,0.8c-1.2,0-1.6-1-1.6-1.8c0-1.2,0.5-1.7,1.6-2l0.9-0.3c0.5-0.1,0.7-0.3,0.7-0.8c0-0.5-0.2-0.8-0.8-0.8
		c-0.5,0-0.8,0.3-0.8,0.8v0.2H674z M677.1,281.8c-0.2,0.2-0.5,0.3-0.7,0.3c-0.7,0.1-0.9,0.5-0.9,1c0,0.5,0.2,0.9,0.6,0.9s1-0.3,1-1
		V281.8z"/>
</g>
<path class="st9" d="M358.4,184.2c-5,0-9,4-9,9c0,2,1.3,5.3,3.9,10c1.9,3.3,3.7,6.1,3.8,6.2l1.3,2l1.3-2c0.1-0.1,1.9-2.9,3.8-6.2
	c2.6-4.7,3.9-8,3.9-10C367.4,188.2,363.3,184.2,358.4,184.2z M358.4,197.8c-2.6,0-4.7-2.1-4.7-4.7c0-2.6,2.1-4.7,4.7-4.7
	s4.7,2.1,4.7,4.7C363,195.7,361,197.8,358.4,197.8z"/>
<line class="st4" x1="294.8" y1="212.2" x2="278.6" y2="187"/>
<path class="st5" d="M290.9,211.6c0-2.3,1.9-4.3,4.3-4.3c2.3,0,4.3,1.9,4.3,4.3c0,2.3-1.9,4.3-4.3,4.3
	C292.8,215.8,290.9,213.9,290.9,211.6L290.9,211.6z"/>
<path class="st5" d="M274.3,186.8c0-2.3,1.9-4.3,4.3-4.3c2.3,0,4.3,1.9,4.3,4.3c0,2.3-1.9,4.3-4.3,4.3
	C276.2,191,274.3,189.1,274.3,186.8L274.3,186.8z"/>
</svg>
