<svg xmlns="http://www.w3.org/2000/svg" width="188.49mm" height="241.51mm" viewBox="0 0 448.31 684.59">
  <defs>
    <style>
      .a {
        fill: #1a171b;
      }

      .b {
        fill: #f2f2f2;
      }

      .c {
        fill: #e9e9e9;
      }

      .d {
        fill: #dadada;
      }

      .e, .g, .h {
        fill: none;
      }

      .e {
        stroke: #6592b4;
      }

      .f {
        fill: #6592b4;
      }

      .g, .h {
        stroke: #f9b000;
        stroke-miterlimit: 10;
      }

      .g {
        stroke-dasharray: 3 3;
      }
    </style>
  </defs>
  <g>
    <g>
      <path class="a" d="M2.72,338.22H.16v-1.58h7v1.58H4.61v7H2.72Z"/>
      <path class="a" d="M10.56,336.64h1.88v3.29h3.47v-3.29h1.88v8.57H15.91v-3.7H12.44v3.7H10.56Z"/>
      <path class="a" d="M24.19,336.64h1.93l3.2,8.57H27.37l-.65-1.91h-3.2l-.67,1.91H20.94ZM24,341.89h2.22l-1.08-3.14h0Z"/>
      <path class="a" d="M32.47,336.64h1.88v8.57H32.47Z"/>
      <path class="a" d="M38.41,336.64h1.88v7h4.18v1.59H38.41Z"/>
      <path class="a" d="M50.27,336.64H52.2l3.2,8.57h-2l-.64-1.91H49.59l-.67,1.91H47Zm-.18,5.25H52.3l-1.07-3.14h0Z"/>
      <path class="a" d="M58.55,336.64h1.87L64,342.39h0v-5.75h1.76v8.57H63.9l-3.57-5.74h0v5.74H58.55Z"/>
      <path class="a" d="M69.84,336.64h3.69c2.22,0,3.89,1.39,3.89,4.24,0,2.48-1.27,4.33-3.89,4.33H69.84Zm1.88,7H73.4c1.09,0,2.14-.67,2.14-2.56,0-1.73-.6-2.84-2.47-2.84H71.72Z"/>
    </g>
    <g>
      <path class="a" d="M7.78,662a2.9,2.9,0,0,1-2.35,1.18,4.13,4.13,0,0,1-4.21-4.45c0-2.55,1.56-4.53,4.21-4.53a3.44,3.44,0,0,1,3.61,3H7.24a1.75,1.75,0,0,0-1.81-1.44c-1.69,0-2.33,1.44-2.33,2.94s.64,2.86,2.33,2.86a1.86,1.86,0,0,0,2-1.84H5.57v-1.41h3.6V663H8Z"/>
      <path class="a" d="M16.94,654.2c2.65,0,4.21,2,4.21,4.53a4.13,4.13,0,0,1-4.21,4.45,4.13,4.13,0,0,1-4.21-4.45C12.73,656.18,14.29,654.2,16.94,654.2Zm0,7.39c1.69,0,2.32-1.44,2.32-2.86s-.63-2.94-2.32-2.94-2.33,1.44-2.33,2.94S15.25,661.59,16.94,661.59Z"/>
      <path class="a" d="M24.83,654.41h1.89v7h4.17V663H24.83Z"/>
      <path class="a" d="M34.35,654.41h6V656H36.23v2h3.59v1.46H36.23V663H34.35Z"/>
      <path class="a" d="M53.58,663H51.46l-2.78-8.56h1.94l1.91,6h0l1.93-6h2Z"/>
      <path class="a" d="M63.4,654.2c2.65,0,4.21,2,4.21,4.53a4.22,4.22,0,1,1-8.42,0C59.19,656.18,60.75,654.2,63.4,654.2Zm0,7.39c1.69,0,2.33-1.44,2.33-2.86s-.64-2.94-2.33-2.94-2.33,1.44-2.33,2.94S61.71,661.59,63.4,661.59Z"/>
      <path class="a" d="M71.3,654.41h1.87l3.57,5.74h0v-5.74h1.76V663H76.65l-3.56-5.73h0V663H71.3Z"/>
      <path class="a" d="M3.49,670.39H.92v-1.58h7v1.58H5.37v7H3.49Z"/>
      <path class="a" d="M11.32,668.81h1.89v3.28h3.46v-3.28h1.89v8.56H16.67v-3.69H13.21v3.69H11.32Z"/>
      <path class="a" d="M25,668.81h1.93l3.21,8.56h-2l-.65-1.9h-3.2l-.67,1.9H21.7Zm-.18,5.25H27l-1.08-3.14h0Z"/>
      <path class="a" d="M33.24,668.81h1.88v8.56H33.24Z"/>
      <path class="a" d="M39.18,668.81h1.88v7h4.17v1.58h-6Z"/>
      <path class="a" d="M51,668.81H53l3.2,8.56H54.21l-.65-1.9h-3.2l-.67,1.9H47.78Zm-.18,5.25h2.22L52,670.92h0Z"/>
      <path class="a" d="M59.31,668.81h1.87l3.58,5.74h0v-5.74h1.76v8.56H64.66l-3.56-5.73h0v5.73H59.31Z"/>
      <path class="a" d="M70.6,668.81h3.7c2.22,0,3.88,1.39,3.88,4.23,0,2.48-1.27,4.33-3.88,4.33H70.6Zm1.89,7h1.68c1.09,0,2.13-.67,2.13-2.57,0-1.73-.6-2.83-2.47-2.83H72.49Z"/>
    </g>
    <g>
      <path class="a" d="M342.31,660.13c0,1.14.89,1.58,1.89,1.58.66,0,1.67-.19,1.67-1.07s-1.28-1.07-2.54-1.41-2.56-.83-2.56-2.43c0-1.76,1.66-2.6,3.2-2.6,1.79,0,3.44.78,3.44,2.76h-1.83c-.06-1-.79-1.29-1.69-1.29-.6,0-1.29.25-1.29,1s.4.74,2.55,1.29c.62.16,2.54.56,2.54,2.5,0,1.57-1.23,2.75-3.56,2.75-1.89,0-3.67-.94-3.65-3Z"/>
      <path class="a" d="M358.48,659.73c0,2.32-1.37,3.45-3.66,3.45s-3.64-1.12-3.64-3.45v-5.32h1.88v5.32c0,.94.24,1.86,1.76,1.86,1.35,0,1.78-.58,1.78-1.86v-5.32h1.88Zm-5.7-7.68h1.62v1.4h-1.62Zm2.47,0h1.62v1.4h-1.62Z"/>
      <path class="a" d="M362.5,654.41h3.7c2.22,0,3.88,1.39,3.88,4.23,0,2.48-1.27,4.33-3.88,4.33h-3.7Zm1.89,7h1.68c1.09,0,2.13-.67,2.13-2.57,0-1.72-.6-2.83-2.47-2.83h-1.34Z"/>
      <path class="a" d="M379.51,657.29a1.85,1.85,0,0,0-1.88-1.5c-1.69,0-2.32,1.44-2.32,2.94s.63,2.86,2.32,2.86a1.93,1.93,0,0,0,1.95-1.92h1.82a3.62,3.62,0,0,1-3.77,3.51,4.13,4.13,0,0,1-4.21-4.45c0-2.55,1.56-4.53,4.21-4.53a3.48,3.48,0,0,1,3.7,3.09Z"/>
      <path class="a" d="M385.09,654.41H387v3.28h3.47v-3.28h1.88V663h-1.88v-3.69H387V663h-1.88Z"/>
      <path class="a" d="M396.38,654.41h1.88V663h-1.88Z"/>
      <path class="a" d="M402.32,654.41h1.87l3.58,5.74h0v-5.74h1.76V663h-1.88l-3.56-5.73h0V663h-1.76Z"/>
      <path class="a" d="M413.61,654.41H420V656H415.5v1.84h4.15v1.46H415.5v2.1h4.61V663h-6.5Z"/>
      <path class="a" d="M425.07,660.13c0,1.14.89,1.58,1.9,1.58.66,0,1.66-.19,1.66-1.07s-1.28-1.07-2.54-1.41-2.55-.83-2.55-2.43c0-1.76,1.65-2.6,3.2-2.6,1.79,0,3.43.78,3.43,2.76h-1.82c-.06-1-.8-1.29-1.69-1.29-.6,0-1.3.25-1.3,1s.41.74,2.55,1.29c.63.16,2.55.56,2.55,2.5,0,1.57-1.24,2.75-3.57,2.75-1.89,0-3.67-.94-3.64-3Z"/>
      <path class="a" d="M434,654.41h1.88V663H434Z"/>
      <path class="a" d="M441.2,660.13c0,1.14.89,1.58,1.89,1.58.66,0,1.67-.19,1.67-1.07s-1.28-1.07-2.54-1.41-2.55-.83-2.55-2.43c0-1.76,1.65-2.6,3.2-2.6,1.78,0,3.43.78,3.43,2.76h-1.83c-.06-1-.79-1.29-1.69-1.29-.6,0-1.29.25-1.29,1s.41.74,2.55,1.29c.63.16,2.54.56,2.54,2.5,0,1.57-1.23,2.75-3.56,2.75-1.89,0-3.67-.94-3.64-3Z"/>
      <path class="a" d="M455.81,657.29a1.84,1.84,0,0,0-1.87-1.5c-1.69,0-2.32,1.44-2.32,2.94s.63,2.86,2.32,2.86a1.94,1.94,0,0,0,1.95-1.92h1.82a3.62,3.62,0,0,1-3.77,3.51,4.13,4.13,0,0,1-4.21-4.45c0-2.55,1.56-4.53,4.21-4.53a3.48,3.48,0,0,1,3.7,3.09Z"/>
      <path class="a" d="M461.4,654.41h1.88v3.28h3.47v-3.28h1.88V663h-1.88v-3.69h-3.47V663H461.4Z"/>
      <path class="a" d="M472.69,654.41h6.4V656h-4.52v1.84h4.15v1.46h-4.15v2.1h4.62V663h-6.5Z"/>
      <path class="a" d="M484.15,660.13c0,1.14.89,1.58,1.89,1.58.66,0,1.67-.19,1.67-1.07s-1.28-1.07-2.54-1.41-2.56-.83-2.56-2.43c0-1.76,1.66-2.6,3.21-2.6,1.78,0,3.43.78,3.43,2.76h-1.83c-.06-1-.79-1.29-1.69-1.29-.6,0-1.29.25-1.29,1s.4.74,2.55,1.29c.62.16,2.54.56,2.54,2.5,0,1.57-1.23,2.75-3.56,2.75-1.89,0-3.67-.94-3.64-3Z"/>
      <path class="a" d="M341,668.81h2.65l2,5.89h0l1.9-5.89h2.65v8.56h-1.77V671.3h0l-2.1,6.07h-1.45l-2.1-6h0v6H341Z"/>
      <path class="a" d="M354.31,668.81h6.4v1.58h-4.52v1.84h4.15v1.46h-4.15v2.1h4.62v1.58h-6.5Z"/>
      <path class="a" d="M364.48,668.81h6.41v1.58h-4.52v1.84h4.15v1.46h-4.15v2.1H371v1.58h-6.5Z"/>
      <path class="a" d="M374.66,668.81h4.62a2.35,2.35,0,0,1,2.5,2.36,2.11,2.11,0,0,1-1.35,2.15v0c.92.24,1.19,1.14,1.25,2a4.53,4.53,0,0,0,.36,2h-1.89a10.3,10.3,0,0,1-.3-2c-.13-.9-.48-1.29-1.42-1.29h-1.89v3.34h-1.88Zm1.88,3.87h2.07c.84,0,1.29-.36,1.29-1.22s-.45-1.19-1.29-1.19h-2.07Z"/>
    </g>
    <g>
      <path class="a" d="M331.27,202.49a2.89,2.89,0,0,1-2.35,1.18,4.13,4.13,0,0,1-4.21-4.45c0-2.55,1.56-4.53,4.21-4.53a3.44,3.44,0,0,1,3.61,3h-1.79a1.76,1.76,0,0,0-1.82-1.44c-1.69,0-2.32,1.44-2.32,2.94s.63,2.86,2.32,2.86a1.85,1.85,0,0,0,2-1.85h-1.89v-1.4h3.6v4.63h-1.2Z"/>
      <path class="a" d="M340.43,194.69c2.65,0,4.21,2,4.21,4.53a4.22,4.22,0,1,1-8.42,0C336.22,196.67,337.78,194.69,340.43,194.69Zm0,7.39c1.69,0,2.33-1.44,2.33-2.86s-.64-2.94-2.33-2.94-2.32,1.44-2.32,2.94S338.74,202.08,340.43,202.08Z"/>
      <path class="a" d="M348.33,194.9h1.88v7h4.18v1.58h-6.06Z"/>
      <path class="a" d="M357.85,194.9h6v1.58h-4.14v2h3.58v1.46h-3.58v3.54h-1.88Z"/>
      <path class="a" d="M377.08,203.46H375l-2.79-8.56h1.95l1.9,6h0l1.93-6h1.94Z"/>
      <path class="a" d="M386.9,194.69c2.65,0,4.2,2,4.2,4.53a4.21,4.21,0,1,1-8.41,0C382.69,196.67,384.24,194.69,386.9,194.69Zm0,7.39c1.69,0,2.32-1.44,2.32-2.86s-.63-2.94-2.32-2.94-2.33,1.44-2.33,2.94S385.2,202.08,386.9,202.08Z"/>
      <path class="a" d="M394.79,194.9h1.87l3.58,5.74h0V194.9H402v8.56h-1.89l-3.56-5.73h0v5.73h-1.77Z"/>
      <path class="a" d="M413.72,196.48h-2.57V194.9h7v1.58H415.6v7h-1.88Z"/>
      <path class="a" d="M425.39,194.69c2.65,0,4.21,2,4.21,4.53a4.22,4.22,0,1,1-8.42,0C421.18,196.67,422.74,194.69,425.39,194.69Zm0,7.39c1.69,0,2.33-1.44,2.33-2.86s-.64-2.94-2.33-2.94-2.33,1.44-2.33,2.94S423.7,202.08,425.39,202.08Z"/>
      <path class="a" d="M433.29,194.9h1.87l3.57,5.74h0V194.9h1.76v8.56h-1.88l-3.56-5.73h0v5.73h-1.76Z"/>
      <path class="a" d="M444.58,194.9h1.88v3.55l3.35-3.55h2.35l-3.35,3.38,3.67,5.18h-2.36l-2.58-3.85-1.08,1.09v2.76h-1.88Z"/>
      <path class="a" d="M455.65,194.9h1.88v8.56h-1.88Z"/>
      <path class="a" d="M461.58,194.9h1.88l3.57,5.74h0V194.9h1.77v8.56h-1.89l-3.56-5.73h0v5.73h-1.77Z"/>
    </g>
    <g>
      <path class="b" d="M217.39,431.18s15.17-10.92,17.86-21.55,3.4-19.84,4.11-30.47,13.7-19.8,8-24.33c-1.52-1.22-6.15-2.52-8.5-4.52-2.54-2.17-2.67-5.27-1.45-11.14,0,0-9.11-.61-14.38-5.13-5-4.33-13.12-14.39-15.59-20.31-4-9.55,4.82-36.86,0-41-2.47-2.11-10.85-7.08-17-15-5.84-7.52-9.37-18-14.89-22-11.34-8.22-23.12-11.12-31.48-7.15s-26.44,25-31.3,24c-12.23-2.51-8.23-8.4-20.6-14.45C87.85,236,48.68,274.86,39.1,271.3c-8.6-3.19,6.1-20.06,4-29.48-2.83-12.47,5.11-28.91,7.37-37.42,1.13-4.21-.66-23.32-2.26-33.44-1.05-6.61-29.77,5.81-32.89,0-8.5-15.88,5.82-24.67-.85-33-4.25-5.31-2.5-7.75-5.38-7.09-3.68.84-6.61,10-7.56,5.91-2.36-10.22-1.19-14,2.6-19.14.36-.5,7.54-3.11,10.34-3.11,4.73,0,17.53.28,11.06-3.26-3.93-2.16-3-6.52-2.74-7.33,2-7.56,2.37-10.56,4-12.66.89-1.12,13.34-4.23,15.45-5.67,5.34-3.64,5.49-10.66,6-8.22,2.26,11.91,20.41,21,26.64,17.58s0-1.14-1.13-11.34S64,53.6,64,48.5,64,35.2,78.78,34.33c9.64-.57,34.67,16.78,50.19,20,13.22,2.76,25.21,4.92,25.21,4.92L223.91,151l4.82,58.11,71.15,97.37,78.62,73.89-49.14,61L276.21,455Z"/>
      <path class="c" d="M333.9,401.13s-6.9,9.92-10.21,7.56-2.45-6.24-5.19-2.37-2.84,3.78-8.51,7.09-10.11,5.67-14.64.95-7.09-7.56-12.29-6.15-18.33,2.93-18.89,7.56,7.56,12.57,2.36,16.54-21.26.94-26.93-2.84-5.1-5.19-10.58-6.61-7-.19-9.07-1.89,4.25-6.14-9.08-6.61-20.22.94-30.8,1.41-26.55-2.74-36.66,1-16.25,7.08-21.92,15.59-12.1,21.54-16.06,21-5.67-5.38-6.62,2.65,2.84,14.65,3.78,21.26,1,14.84,5.2,18.43,5.67,12.47,5.67,19.46.66,9.35,2.83,16.44,7.28,8.51,9.55,15.12,2.83,5.86,2.26,11-1.41,19.75,1.89,20.22,1.8-.94,4.92-.94,5.67,4.72,7.37.94,5.85-18,9.07-12.28,8.88,13.23,3.68,16.53-10.86,8.79-4.72,11.25,10.68,0,14.64-.57,12.67-1.23,16.54,1.61a97.44,97.44,0,0,0,10.87,6.33l75.59-3,53.38-48.56,35.43-58.68.95-50.08-8.5-33.07Z"/>
      <path class="d" d="M346.37,83.18s0-4.07-5.1-4.07-8.13,1.7-11.91,1.7-2.83-4-5.67-3.4-1.7,4-4,2.84,1.42-6.81-2.26-6.81-7.94.38-10.21-2.08S301,62.1,295.35,62.1s-2.65-9.16-6.14-12.47-5.58-11-3.5-13,10.2-8.31,7.37-11.34-3.4-5.67-8.5-5.67-8.51,3.41-11.34,1.14-2.46-5.67-8.6-5.1-8.22,5.1-10.87,2.26-6.33-3.11-10-6.23S239.69,1.44,234.69.31s-3.6,1.13-10.21,2.27-13.61,5.1-14.17,9.63,1.89,7.56-3.31,10-3.68-2.08-9.16.47-2.84,8.79-9.08,5.39-6.23-10.21-10.2-3.4-.66,13-4.54,12.47-7.18-11.34-11.9-10.77-1.14,4.34-5.67,6.23-5.86-10.58-9.07-9-7.94,8.22-9.64,10.86-.19,6.05-4.91,4.35-18.14-17.57-23.62-14.17-5.2,7.93-9.45,13S92.2,42.83,96,46.8s12.66,6.8,14.17,13.6,3.78,10.21,6,14.18,3.4-1.33,6.23-2.27,9.07-3.4,7.94,1.7-4.53,14.74-3.4,22.11,10.58,21.54,17.2,22.49,9.82,4.72,14.17,5.29,6-9.07,15.12-10.2,14.17,1.32,18.42,4.91,12.19,2,9.36,6.42-1.7,2.08-6.24,5.86-5.1,6.05-.57,6.05,9.64-.1,9.64,2.83-4,5.11,0,5.67,9.64-3.4,10.77,1.7-2.83,7.37-5.1,12.48-1.13,5.29-5.1,8.59-3.59,3.31-7.94,3.31-11.72-2.27-16.63-1.7-6,1.7-4.35,6.8,1.14,4-3.4,7.37-4.63,3.59,2.27,6.9,23.25,12.38,28.35,16.35S222.78,212,223.35,215s-5.11,5.57,1.13,14.36,16.44,10.77,19.28,18.14,8.5,9.64,13.6,21,10.77,15.3,13,15.3,4-5,4.54-1.7,5.1,11.34,7.37,12.48,5.67.75,3.4,6.89,4,17.48,7.37,17.48,7.37-1.7,11.34,4.26,21.16,8.78,21.16,12.75-10.39,7.75-10.86,11.81,5.19,11.44,11.34,15.4,11.81,6.24,9.54,11.34-4,5.29-5.67,9.17-.57,1.79.57,7.27-.95,11.34-3.41,17.29-7.93,4.45-6.8,12.29,11.34,19.18,11.91,24.57,4,10.48,2.83,15-7.37,11.34-5.67,19,4.54,23.53,1.7,28.06-4,5.11-9.63,4.54-13.61,6.8-19,8.5-8.41,5.67-13.7,6.24-7-1.7-7.56,2.27,2.65,9.26-.56,10.77-10.21-1.7-16.44-1.13-9,.56-9,5.66-.66,9.36,2.74,14.74,11.91,6.81,11.34,11.34,3,7.18-.57,8.7-6.8.75-11.34-1.42-2-5.58-9.64-5S232,574,228.26,575.18s-9.45-8.32-10.87-2.84,3.69,9.92-1.41,13.61-7,6.8-10.87,6.8-5.67-4-9,0a51.69,51.69,0,0,1-6.47,6.53,8.07,8.07,0,0,1,4.77,4.81c1.56,4.3,2.84,7.37,5.11,6.8s3.21-5.1,5.57-3.4,12.76,4,12.76,7.37-7.56,9.07-8.7,17-1.22,36.57-1.7,39.68,6.24,2.84,3.4,5.11-12.85,7.93-9.07,7.93,19.75,0,23.81-7.37,8.89-18.71,14.93-19.84,23.06-4,25-8.22.85-9.45,4.26-10.87,11.9,3.22,14.17-1.89-3.4-15.3-3.4-15.3,11.34,5.1,12.47,2.83-3.4-7.37-3.4-7.37,7.93-2.27,6.8-6.23,0-13,0-13,7.94-5.11,11.34-1.71,14.74,3,20.41-1.7,14.74-7.93,22.39-13a185.12,185.12,0,0,1,20.13-11.33c4.53-2.27,6.05-6.81,15.78-10.78s10.86-5.66,11.81-10.77,8.69-5.67,8.69-10.77-.56-17.2,0-22.2-3.12-17.67,0-22.68,2.84-.47,6.24-3.87-2.18-16.07-2.65-21.64-9.26-60.57-14.36-73-4-19.28-5.67-22.4-2.27-7.65-4.53-5.38-14.27-15.31-18.71-20.41S359.13,331.4,354.87,328s-11.9-5.66-15.59-8.5-24.09-24.76-34.86-33.64S280,261.1,281.17,255.43s2.84-6.81.57-10.21-7.94-5.1-14.74-9.64-20.41-25.32-21.54-30.51,4.53-9.83,5.67-17.67,3.4-20.22,6.8-26.08,9.07-4,15.31-10.21,10.2-5.67,10.77-11.34,3.4-17.57,7.37-18.14,1.7-1.7,3.4-5.1,3.59-.76,7.18,1.61,1.32-3.31,3-7.28,6.24,1.42,10.21-2.27,3-15,9.45-15.49S332.2,95,335,89.88s0-6.23,4.25-5.1,7.09,3.88,8.22,1.14-1.13-2.74-1.13-2.74"/>
    </g>
    <path class="d" d="M170.27,598.84c-1.91,1.42-2.62,3-4.25,3s-3.12-1.42-1.92,1.28,1.56,1.06,3.69,6.37-.71,5.89,2.48,7.37.14-.28,1.49-4.53,2.41-6,1.7-9.21a6.14,6.14,0,0,0-3.19-4.26"/>
    <path class="e" d="M217.39,574s3.31-2.36,4.26,1.89.19,6.62,2.36,6.62,5.67-1.89,7.09,2.83,4.72,8.69,9,11.91,4.06,4.15,10.4,5.57,8,1.89,11.81,1.42,9.45-2.84,13.7-1.42,8.5,3.31,10.86,3.31,8.91.06,8.91.06"/>
    <path class="e" d="M289.68,617a11,11,0,0,1-10.4-3.72c-4.72-5.19-2.36-7.08-6.14-7.08A9.24,9.24,0,0,1,267,603.8"/>
    <path class="e" d="M280.57,621.62s-7-8.84-13.1-11.67-11.24-5.67-11.24-5.67"/>
    <path class="e" d="M47.32,79.11c-.71,6.81-14.89,9.5-19,11.62s-3,8.51-5.67,13.47,5.11,6.38,5.11,9.21-18-.71-23,3.69S0,133.25,1.25,137.51s.71-2.13,6.66-5.67,2.56.71,6.24,5.67,7.37,6.23,6.8,10.63-.56,12,5.11,9.92,8.5,0,14.88-.71,12.61,3.68,21.49,2.27c0,0,28.82-15.26,30.24-9.83s-.47,4.72-6,9.26c-11.85,9.81-13.28,15.87-10.21,21.54s.33,22.3-2.26,34.59S47,241.92,62,253.73c9.66,7.64,22.91-20.89,32.13-14.74s12.85,14.93,20.41,13,26.88-25.89,35.15-24.95,26.6,4.72,30.61,13.94,13.23,21.26,17,24.8,13.23,4.73,12.28,12.28-5.67,28.35-.94,36.85,13.6,24.95,27.21,23.82c4.92-.41-1.18,3.63.94,9.07s13.94,3.78,11.82,11.34-10.4,13.6,4.25,20.4c5.75,2.67,7.56,14.93,7.56,24.38s-3.12,20.13-.48,24.38,4.45,17.2.95,21.92-4.44,6.14-2.93,12.29,3.4,9,2,16.06,7.09,32.6.95,34.49-17-2.84-19.84.94-4.26,14.65-8,16.06-11.82-2.36-15.6,3.31-6.14,10.39-4.25,15.59a94.16,94.16,0,0,1,4.73,21.26c.47,6.62-1,6.62,1.89,12.29s6.14,6.61,10.86,14.17,9.45,8.5,12.76,12.75,10.2,9,14.55,13.7,5.76,5.67,6.71,9.45a58.17,58.17,0,0,0,2.83,8"/>
    <path class="e" d="M209.17,516.21s1.85-.21,1.49,5.11.36,5,0,9.92,2.85,9.13,2.85,9.13"/>
    <path class="f" d="M158.93,468.1a69.28,69.28,0,0,0,2.83,9.56c1.42,3.19,2.13,8.86,6,10.28s9.56-.71,10.63,3.54-1.3,3.55,3.07,7.44,7.91,1.42,11.81,4.61,4.72,3.54,8,7.09,4,5,7.91,6-2.83-2.48-3.89-7.8-2.13-6.37-5-7.08-4-2.84-5.32-7.09-1.77-1.77-5-4.25a34.57,34.57,0,0,1-7.44-7.09c-2.83-3.54-3.54-7.79-7.44-11s-3.07-2.84-7.91-3.9a22.43,22.43,0,0,0-8.39-.35"/>
    <g>
      <path class="a" d="M321.09,539.83H319l-2.78-8.56h1.94l1.91,6h0l1.93-6h1.95Z"/>
      <path class="a" d="M327.07,531.27H329v8.56h-1.89Z"/>
      <path class="a" d="M333,531.27h6.41v1.58H334.9v1.84H339v1.46H334.9v2.1h4.61v1.58H333Z"/>
      <path class="a" d="M345.08,532.85h-2.56v-1.58h7v1.58H347v7h-1.89Z"/>
      <path class="a" d="M352.92,531.27h1.87l3.58,5.74h0v-5.74h1.76v8.56h-1.88l-3.56-5.73h0v5.73h-1.76Z"/>
      <path class="a" d="M366.55,531.27h1.93l3.2,8.56h-1.95l-.65-1.9h-3.2l-.67,1.9H363.3Zm-.18,5.25h2.22l-1.08-3.14h0Z"/>
      <path class="a" d="M374.83,531.27h2.65l2,5.89h0l1.89-5.89h2.65v8.56h-1.76v-6.07h0l-2.1,6.07h-1.45l-2.1-6h0v6h-1.76Z"/>
    </g>
    <g>
      <path class="a" d="M111.62,160.88h1.88v7h4.18v1.59h-6.06Z"/>
      <path class="a" d="M123.48,160.88h1.93l3.2,8.57h-2l-.64-1.91H122.8l-.67,1.91h-1.9Zm-.18,5.26h2.22L124.44,163h0Z"/>
      <path class="a" d="M135.6,160.68c2.65,0,4.2,2,4.2,4.52a4.21,4.21,0,1,1-8.41,0C131.39,162.66,132.94,160.68,135.6,160.68Zm0,7.39c1.69,0,2.32-1.44,2.32-2.87s-.63-2.94-2.32-2.94-2.33,1.44-2.33,2.94S133.9,168.07,135.6,168.07Z"/>
      <path class="a" d="M144.78,166.6c0,1.14.88,1.59,1.89,1.59.66,0,1.67-.19,1.67-1.07s-1.28-1.08-2.54-1.41-2.56-.83-2.56-2.44,1.66-2.59,3.2-2.59c1.79,0,3.43.78,3.43,2.76h-1.82c-.06-1-.79-1.3-1.69-1.3-.6,0-1.3.25-1.3,1s.41.75,2.56,1.3c.62.16,2.54.55,2.54,2.49,0,1.58-1.23,2.75-3.56,2.75-1.89,0-3.67-.93-3.65-3.05Z"/>
    </g>
    <g>
      <path class="a" d="M206.22,477.44h1.88V481l3.35-3.55h2.35l-3.35,3.39,3.67,5.18h-2.36l-2.58-3.85-1.08,1.09V486h-1.88Z"/>
      <path class="a" d="M219.62,477.44h1.93l3.2,8.57H222.8l-.65-1.91H219l-.67,1.91h-1.91Zm-.18,5.26h2.22l-1.08-3.14h0Z"/>
      <path class="a" d="M227.9,477.44h2.65l2,5.89h0l1.89-5.89h2.65V486h-1.76v-6.07h0l-2.1,6.07h-1.45l-2.1-6h0v6H227.9Z"/>
      <path class="a" d="M241.19,477.44h4c1.63,0,2.73.53,2.73,2.13a1.87,1.87,0,0,1-1.16,1.78,2.1,2.1,0,0,1,1.57,2.17c0,1.74-1.48,2.49-3,2.49h-4.14Zm1.88,3.47H245c.66,0,1.15-.3,1.15-1s-.63-1-1.3-1h-1.76Zm0,3.63h2c.75,0,1.39-.24,1.39-1.12s-.55-1.23-1.35-1.23h-2.05Z"/>
      <path class="a" d="M255.87,477.24c2.65,0,4.21,2,4.21,4.52a4.22,4.22,0,1,1-8.42,0C251.66,479.22,253.22,477.24,255.87,477.24Zm0,7.39c1.69,0,2.33-1.44,2.33-2.87s-.64-2.94-2.33-2.94-2.33,1.44-2.33,2.94S254.18,484.63,255.87,484.63Z"/>
      <path class="a" d="M263.77,477.44h3.69c2.22,0,3.89,1.4,3.89,4.24,0,2.48-1.27,4.33-3.89,4.33h-3.69Zm1.88,7h1.68c1.09,0,2.14-.67,2.14-2.56,0-1.73-.6-2.83-2.47-2.83h-1.35Z"/>
      <path class="a" d="M276.34,483.17c0,1.13.89,1.58,1.9,1.58.66,0,1.67-.19,1.67-1.07s-1.29-1.08-2.55-1.42-2.55-.82-2.55-2.43,1.65-2.59,3.2-2.59c1.79,0,3.43.78,3.43,2.76h-1.82c-.06-1-.79-1.3-1.69-1.3-.6,0-1.3.26-1.3,1s.41.74,2.56,1.29c.62.16,2.54.55,2.54,2.5,0,1.57-1.24,2.74-3.56,2.74-1.9,0-3.67-.93-3.65-3Z"/>
      <path class="a" d="M291,480.32a1.86,1.86,0,0,0-1.87-1.5c-1.69,0-2.33,1.44-2.33,2.94s.64,2.87,2.33,2.87a1.92,1.92,0,0,0,1.94-1.92h1.82a3.61,3.61,0,0,1-3.76,3.5,4.13,4.13,0,0,1-4.21-4.45c0-2.54,1.56-4.52,4.21-4.52a3.47,3.47,0,0,1,3.69,3.08Z"/>
      <path class="a" d="M296.54,477.44h1.88v3.29h3.47v-3.29h1.88V486h-1.88v-3.7h-3.47V486h-1.88Z"/>
      <path class="a" d="M310.17,477.44h1.93l3.21,8.57h-2l-.65-1.91h-3.2l-.67,1.91h-1.91ZM310,482.7h2.22l-1.08-3.14h0Z"/>
    </g>
    <path class="a" d="M174.65,44.73a2.84,2.84,0,1,1,2.83,2.83,2.84,2.84,0,0,1-2.83-2.83Z"/>
    <g>
      <path class="a" d="M311.46,116.47v2.74h2.89v-2.74h1.57v7.14h-1.57v-3.08h-2.89v3.08h-1.57v-7.14Z"/>
      <path class="a" d="M317.39,120a1.6,1.6,0,0,1,.25-.83,1.58,1.58,0,0,1,.56-.53,2.31,2.31,0,0,1,.76-.29,5,5,0,0,1,.86-.08,7.13,7.13,0,0,1,.79,0,2.48,2.48,0,0,1,.73.22,1.37,1.37,0,0,1,.54.44,1.25,1.25,0,0,1,.21.76v2.69a4.92,4.92,0,0,0,0,.67,1.09,1.09,0,0,0,.14.48h-1.44a1.82,1.82,0,0,1-.07-.25,2.13,2.13,0,0,1,0-.25,2,2,0,0,1-.8.49,3.34,3.34,0,0,1-.94.14,2.5,2.5,0,0,1-.69-.09,1.64,1.64,0,0,1-.56-.28,1.37,1.37,0,0,1-.38-.48,1.67,1.67,0,0,1-.13-.69,1.55,1.55,0,0,1,.15-.73,1.35,1.35,0,0,1,.4-.45,1.8,1.8,0,0,1,.56-.26c.21-.05.42-.1.64-.13s.42-.06.63-.08a4,4,0,0,0,.55-.09,1,1,0,0,0,.38-.18.4.4,0,0,0,.13-.33.75.75,0,0,0-.08-.37.51.51,0,0,0-.2-.21.83.83,0,0,0-.29-.1l-.35,0a1.08,1.08,0,0,0-.66.18.78.78,0,0,0-.28.6Zm3.28,1a.71.71,0,0,1-.23.12,2,2,0,0,1-.29.08l-.32,0-.34,0a1.87,1.87,0,0,0-.32.08,1.13,1.13,0,0,0-.27.13.65.65,0,0,0-.18.22.62.62,0,0,0-.07.33.66.66,0,0,0,.07.32.52.52,0,0,0,.19.2.78.78,0,0,0,.28.11,1.69,1.69,0,0,0,.33,0,1.31,1.31,0,0,0,.65-.14,1.1,1.1,0,0,0,.34-.34,1,1,0,0,0,.13-.39,2.36,2.36,0,0,0,0-.32Z"/>
      <path class="a" d="M325,116.47v7.14h-1.42v-7.14Z"/>
      <path class="a" d="M326.4,119.9a2.36,2.36,0,0,1,1.38-1.41,2.92,2.92,0,0,1,1.1-.19,3,3,0,0,1,1.1.19,2.35,2.35,0,0,1,1.39,1.41,3.43,3.43,0,0,1,0,2.25,2.47,2.47,0,0,1-.54.85,2.45,2.45,0,0,1-.85.55,3.17,3.17,0,0,1-1.1.19,3.13,3.13,0,0,1-1.1-.19,2.38,2.38,0,0,1-1.38-1.4,3.43,3.43,0,0,1,0-2.25Zm1.29,1.73a1.67,1.67,0,0,0,.2.53,1.18,1.18,0,0,0,.39.38,1.36,1.36,0,0,0,1.2,0,1,1,0,0,0,.39-.38,1.47,1.47,0,0,0,.21-.53,3,3,0,0,0,.06-.6,3.08,3.08,0,0,0-.06-.61,1.47,1.47,0,0,0-.21-.53,1,1,0,0,0-.39-.38,1.36,1.36,0,0,0-1.2,0,1.18,1.18,0,0,0-.39.38,1.67,1.67,0,0,0-.2.53,3.08,3.08,0,0,0-.06.61A3,3,0,0,0,327.69,121.63Z"/>
      <path class="a" d="M334.13,118.44v.72h0a1.64,1.64,0,0,1,.7-.66,2.09,2.09,0,0,1,.88-.2,2.44,2.44,0,0,1,.93.15,1.45,1.45,0,0,1,.58.43,1.63,1.63,0,0,1,.29.67,4,4,0,0,1,.09.88v3.18h-1.42v-2.92a1.86,1.86,0,0,0-.2-1,.77.77,0,0,0-.71-.31,1,1,0,0,0-.84.34,2,2,0,0,0-.26,1.14v2.71h-1.42v-5.17Z"/>
      <path class="a" d="M343.89,124a1.76,1.76,0,0,1-.36.74,2.24,2.24,0,0,1-.81.59,3.52,3.52,0,0,1-1.42.24,3,3,0,0,1-.78-.1,2.53,2.53,0,0,1-.72-.29,2.05,2.05,0,0,1-.54-.52,1.51,1.51,0,0,1-.24-.75h1.41a.77.77,0,0,0,.39.55,1.3,1.3,0,0,0,.67.16,1,1,0,0,0,.87-.36,1.43,1.43,0,0,0,.27-.91v-.68h0a1.42,1.42,0,0,1-.66.6,2.1,2.1,0,0,1-.89.2,2.2,2.2,0,0,1-1-.21,1.8,1.8,0,0,1-.69-.56,2.37,2.37,0,0,1-.4-.83,4,4,0,0,1-.12-1,3.45,3.45,0,0,1,.14-1,2.57,2.57,0,0,1,.43-.82,2,2,0,0,1,1.65-.77,1.91,1.91,0,0,1,.89.19,1.53,1.53,0,0,1,.65.64h0v-.69H344v4.84A3.35,3.35,0,0,1,343.89,124ZM342,122.27a1.18,1.18,0,0,0,.38-.32,1.5,1.5,0,0,0,.22-.46,1.89,1.89,0,0,0,.08-.53,2.93,2.93,0,0,0-.06-.61,1.5,1.5,0,0,0-.2-.5,1,1,0,0,0-.37-.35,1.16,1.16,0,0,0-.58-.13,1.08,1.08,0,0,0-.52.12,1.22,1.22,0,0,0-.36.32,1.82,1.82,0,0,0-.21.47,2.53,2.53,0,0,0-.06.56,3.41,3.41,0,0,0,.05.55,1.57,1.57,0,0,0,.19.5,1.23,1.23,0,0,0,.36.36,1,1,0,0,0,.55.14A1.15,1.15,0,0,0,342,122.27Z"/>
    </g>
    <g>
      <path class="a" d="M342.46,309v2.74h2.89V309h1.57v7.14h-1.57V313h-2.89v3.08h-1.57V309Z"/>
      <path class="a" d="M352,316.11v-.72h0a1.68,1.68,0,0,1-.7.65,2.13,2.13,0,0,1-.88.2,2.54,2.54,0,0,1-.94-.15,1.31,1.31,0,0,1-.57-.43,1.65,1.65,0,0,1-.3-.67,4.6,4.6,0,0,1-.08-.87v-3.18h1.42v2.92a1.75,1.75,0,0,0,.2.95.77.77,0,0,0,.71.32,1,1,0,0,0,.84-.35,1.94,1.94,0,0,0,.26-1.13v-2.71h1.42v5.17Z"/>
      <path class="a" d="M356.2,314.87a1.29,1.29,0,0,0,.92.31,1.24,1.24,0,0,0,.74-.22.92.92,0,0,0,.38-.45h1.25a2.4,2.4,0,0,1-.92,1.33,2.8,2.8,0,0,1-1.5.4,2.92,2.92,0,0,1-1.1-.2,2.2,2.2,0,0,1-.83-.55,2.59,2.59,0,0,1-.53-.86,3.25,3.25,0,0,1-.18-1.1,2.92,2.92,0,0,1,.19-1.08,2.37,2.37,0,0,1,.54-.87A2.56,2.56,0,0,1,356,311a2.7,2.7,0,0,1,1.08-.21,2.47,2.47,0,0,1,1.15.25,2.32,2.32,0,0,1,.8.69,2.86,2.86,0,0,1,.46,1,4,4,0,0,1,.1,1.15h-3.73A1.41,1.41,0,0,0,356.2,314.87Zm1.6-2.72a1,1,0,0,0-.77-.28,1.35,1.35,0,0,0-.57.11,1.08,1.08,0,0,0-.55.65,1.52,1.52,0,0,0-.06.34h2.31A1.64,1.64,0,0,0,357.8,312.15Z"/>
    </g>
    <g>
      <path class="a" d="M113.86,456.67a1,1,0,0,0,.35.4,1.37,1.37,0,0,0,.5.24,3,3,0,0,0,.6.07l.45,0a1.69,1.69,0,0,0,.45-.14,1,1,0,0,0,.35-.28.63.63,0,0,0,.14-.44.64.64,0,0,0-.18-.47,1.57,1.57,0,0,0-.49-.3,5,5,0,0,0-.68-.21l-.77-.2a7.08,7.08,0,0,1-.78-.25,2.62,2.62,0,0,1-.68-.37,1.74,1.74,0,0,1-.67-1.41,1.87,1.87,0,0,1,.24-1,2.17,2.17,0,0,1,.61-.67,2.72,2.72,0,0,1,.86-.4,3.52,3.52,0,0,1,1-.13,4.26,4.26,0,0,1,1.08.13,2.58,2.58,0,0,1,.91.4,2.08,2.08,0,0,1,.64.71,2.3,2.3,0,0,1,.23,1.06h-1.52a1.33,1.33,0,0,0-.13-.53.9.9,0,0,0-.31-.33,1.25,1.25,0,0,0-.43-.17,3,3,0,0,0-.54-.05,1.64,1.64,0,0,0-.38,0,.94.94,0,0,0-.34.14.89.89,0,0,0-.26.25.65.65,0,0,0-.1.38.68.68,0,0,0,.08.34.65.65,0,0,0,.32.24,3.71,3.71,0,0,0,.65.22l1.08.28.56.15a2.46,2.46,0,0,1,.7.33,2.21,2.21,0,0,1,.61.61,1.77,1.77,0,0,1,.25,1,2.12,2.12,0,0,1-.19.91,1.86,1.86,0,0,1-.56.72,2.56,2.56,0,0,1-.93.48,4.53,4.53,0,0,1-1.29.17,4.35,4.35,0,0,1-1.14-.15,2.67,2.67,0,0,1-1-.45,2.26,2.26,0,0,1-.68-.79,2.52,2.52,0,0,1-.24-1.14h1.52A1.41,1.41,0,0,0,113.86,456.67Z"/>
      <path class="a" d="M119.34,452.46v-1.17h1.42v1.17Zm1.42.8v5.17h-1.42v-5.17Z"/>
      <path class="a" d="M123.7,457.19a1.47,1.47,0,0,0,1.66.1.88.88,0,0,0,.38-.46H127a2.35,2.35,0,0,1-.92,1.33,2.67,2.67,0,0,1-1.5.4,2.8,2.8,0,0,1-1.1-.2,2.28,2.28,0,0,1-.83-.55,2.57,2.57,0,0,1-.52-.86,3,3,0,0,1-.19-1.1,3.14,3.14,0,0,1,.19-1.08,2.77,2.77,0,0,1,.54-.87,2.5,2.5,0,0,1,.84-.57,2.65,2.65,0,0,1,1.07-.21,2.47,2.47,0,0,1,1.15.26,2.24,2.24,0,0,1,.81.68,2.75,2.75,0,0,1,.45,1,3.39,3.39,0,0,1,.1,1.15h-3.73A1.46,1.46,0,0,0,123.7,457.19Zm1.61-2.72a1,1,0,0,0-.78-.28,1.16,1.16,0,0,0-.56.12,1,1,0,0,0-.36.28.9.9,0,0,0-.19.36,1.72,1.72,0,0,0-.07.34h2.31A1.68,1.68,0,0,0,125.31,454.47Z"/>
      <path class="a" d="M129.6,453.26v.7h0a2,2,0,0,1,.68-.62,1.77,1.77,0,0,1,.9-.22,2,2,0,0,1,.9.19,1.26,1.26,0,0,1,.61.67,2.13,2.13,0,0,1,.63-.6,1.66,1.66,0,0,1,.93-.26,2.59,2.59,0,0,1,.76.1,1.44,1.44,0,0,1,1,.89,2.25,2.25,0,0,1,.14.86v3.46h-1.42V455.5a3.85,3.85,0,0,0,0-.49,1,1,0,0,0-.11-.4.75.75,0,0,0-.26-.27,1.15,1.15,0,0,0-1,0,.83.83,0,0,0-.29.3,1.23,1.23,0,0,0-.14.42,2.59,2.59,0,0,0,0,.48v2.88H131.5v-2.9c0-.15,0-.31,0-.46a1.15,1.15,0,0,0-.08-.41.69.69,0,0,0-.25-.31,1,1,0,0,0-.52-.11,1.14,1.14,0,0,0-.26.05.67.67,0,0,0-.32.17,1,1,0,0,0-.27.35,1.56,1.56,0,0,0-.11.62v3h-1.42v-5.17Z"/>
      <path class="a" d="M144.66,451.29a2.41,2.41,0,0,1,.87.15,2.28,2.28,0,0,1,.66.43,1.93,1.93,0,0,1,.42.63,2.1,2.1,0,0,1,.14.76,2.22,2.22,0,0,1-.26,1.09,1.67,1.67,0,0,1-.87.7v0a1.2,1.2,0,0,1,.48.24,1.49,1.49,0,0,1,.31.4,1.78,1.78,0,0,1,.18.49,5,5,0,0,1,.07.54c0,.11,0,.25,0,.4s0,.31,0,.47a2.11,2.11,0,0,0,.08.45,1,1,0,0,0,.16.37h-1.57a3.06,3.06,0,0,1-.16-.81q0-.47-.09-.9a1.36,1.36,0,0,0-.34-.82,1.17,1.17,0,0,0-.85-.26h-1.57v2.79h-1.57v-7.14Zm-.56,3.23a1.19,1.19,0,0,0,.81-.24,1,1,0,0,0,.27-.78.93.93,0,0,0-.27-.75,1.19,1.19,0,0,0-.81-.24h-1.72v2Z"/>
      <path class="a" d="M149.7,457.19a1.47,1.47,0,0,0,1.66.1.88.88,0,0,0,.38-.46H153a2.35,2.35,0,0,1-.92,1.33,2.67,2.67,0,0,1-1.5.4,2.8,2.8,0,0,1-1.1-.2,2.28,2.28,0,0,1-.83-.55,2.57,2.57,0,0,1-.52-.86,3,3,0,0,1-.19-1.1,3.14,3.14,0,0,1,.19-1.08,2.77,2.77,0,0,1,.54-.87,2.5,2.5,0,0,1,.84-.57,2.65,2.65,0,0,1,1.07-.21,2.47,2.47,0,0,1,1.15.26,2.24,2.24,0,0,1,.81.68,2.75,2.75,0,0,1,.45,1,3.39,3.39,0,0,1,.1,1.15h-3.73A1.46,1.46,0,0,0,149.7,457.19Zm1.61-2.72a1,1,0,0,0-.78-.28,1.16,1.16,0,0,0-.56.12,1,1,0,0,0-.36.28.9.9,0,0,0-.19.36,1.72,1.72,0,0,0-.07.34h2.31A1.68,1.68,0,0,0,151.31,454.47Z"/>
      <path class="a" d="M154.16,454.85a1.63,1.63,0,0,1,.25-.83,1.77,1.77,0,0,1,.56-.53,2.35,2.35,0,0,1,.77-.28,4,4,0,0,1,.85-.09,5.25,5.25,0,0,1,.79.06,2.14,2.14,0,0,1,.73.21,1.39,1.39,0,0,1,.54.45,1.21,1.21,0,0,1,.21.75v2.69c0,.23,0,.46,0,.67a1.25,1.25,0,0,0,.14.48H157.6a1.83,1.83,0,0,1-.06-.25,1.87,1.87,0,0,1,0-.25,1.79,1.79,0,0,1-.8.49,3.34,3.34,0,0,1-.94.14,2.56,2.56,0,0,1-.69-.09,1.55,1.55,0,0,1-.56-.28,1.35,1.35,0,0,1-.37-.48A1.6,1.6,0,0,1,154,457a1.4,1.4,0,0,1,.16-.72,1.13,1.13,0,0,1,.4-.46,1.68,1.68,0,0,1,.56-.25,4.75,4.75,0,0,1,.63-.14l.63-.08a3.71,3.71,0,0,0,.55-.09.9.9,0,0,0,.38-.18.34.34,0,0,0,.13-.33.82.82,0,0,0-.07-.37.67.67,0,0,0-.2-.21.7.7,0,0,0-.29-.09,2,2,0,0,0-.36,0,1.08,1.08,0,0,0-.66.18.82.82,0,0,0-.28.6Zm3.28,1a.52.52,0,0,1-.22.12,1.38,1.38,0,0,1-.29.08l-.33,0-.34.05-.31.08a.69.69,0,0,0-.27.14.55.55,0,0,0-.19.21.81.81,0,0,0-.07.33.76.76,0,0,0,.07.32.52.52,0,0,0,.19.2.63.63,0,0,0,.28.11,1.84,1.84,0,0,0,.33,0,1.28,1.28,0,0,0,.65-.14.92.92,0,0,0,.34-.34,1.22,1.22,0,0,0,.14-.39c0-.13,0-.24,0-.32Z"/>
      <path class="a" d="M161.61,453.26v.66h0a1.67,1.67,0,0,1,.66-.61,2,2,0,0,1,.88-.19,2.26,2.26,0,0,1,1.05.23,2.08,2.08,0,0,1,.73.61,2.38,2.38,0,0,1,.43.89,3.6,3.6,0,0,1,.14,1,3.31,3.31,0,0,1-.14,1,2.51,2.51,0,0,1-.42.85,2.06,2.06,0,0,1-1.71.81,1.87,1.87,0,0,1-.88-.2,1.75,1.75,0,0,1-.67-.57h0v2.45h-1.42v-7Zm1.85,4.1a1.31,1.31,0,0,0,.38-.36,1.67,1.67,0,0,0,.2-.53,3.13,3.13,0,0,0,0-1.22,1.69,1.69,0,0,0-.22-.53,1.15,1.15,0,0,0-.38-.38,1.06,1.06,0,0,0-.58-.15,1.1,1.1,0,0,0-1,.52,1.47,1.47,0,0,0-.21.53,3.18,3.18,0,0,0-.06.62,2.48,2.48,0,0,0,.07.61,1.47,1.47,0,0,0,.21.53,1.1,1.1,0,0,0,.38.36,1.18,1.18,0,0,0,.58.14A1.17,1.17,0,0,0,163.46,457.36Z"/>
    </g>
    <g>
      <path class="a" d="M227.38,547.63a3,3,0,0,1,1.14.19,2.14,2.14,0,0,1,.77.52,2,2,0,0,1,.43.73,2.65,2.65,0,0,1,.13.85,2.72,2.72,0,0,1-.13.84,2.12,2.12,0,0,1-.43.74,2.25,2.25,0,0,1-.77.51,3,3,0,0,1-1.14.2h-1.65v2.56h-1.57v-7.14ZM227,551a4.38,4.38,0,0,0,.52,0,1.15,1.15,0,0,0,.44-.16.87.87,0,0,0,.31-.32,1.25,1.25,0,0,0,.11-.55,1.22,1.22,0,0,0-.11-.55.9.9,0,0,0-.31-.33,1,1,0,0,0-.44-.15,3,3,0,0,0-.52,0h-1.22V551Z"/>
      <path class="a" d="M232.4,547.63v2.69h0a1.68,1.68,0,0,1,.69-.66,1.8,1.8,0,0,1,.82-.2,2.54,2.54,0,0,1,.94.15,1.39,1.39,0,0,1,.57.43,1.72,1.72,0,0,1,.3.67,4.71,4.71,0,0,1,.08.88v3.18h-1.42v-2.92a1.86,1.86,0,0,0-.2-1,.77.77,0,0,0-.71-.31,1,1,0,0,0-.84.34,2,2,0,0,0-.26,1.14v2.71H231v-7.14Z"/>
      <path class="a" d="M238.56,549.6v.72h0a1.64,1.64,0,0,1,.7-.66,2,2,0,0,1,.88-.2,2.54,2.54,0,0,1,.94.15,1.39,1.39,0,0,1,.57.43,1.72,1.72,0,0,1,.3.67,4.71,4.71,0,0,1,.08.88v3.18h-1.42v-2.92a1.86,1.86,0,0,0-.2-1,.77.77,0,0,0-.71-.31,1,1,0,0,0-.84.34,2,2,0,0,0-.26,1.14v2.71h-1.42V549.6Z"/>
      <path class="a" d="M243.47,551.06a2.52,2.52,0,0,1,.54-.86,2.4,2.4,0,0,1,.84-.55,3,3,0,0,1,1.1-.19,3,3,0,0,1,1.11.19,2.32,2.32,0,0,1,.84.55,2.52,2.52,0,0,1,.54.86,3.43,3.43,0,0,1,0,2.25,2.57,2.57,0,0,1-.54.85,2.32,2.32,0,0,1-.84.55,3.23,3.23,0,0,1-1.11.19,3.17,3.17,0,0,1-1.1-.19,2.4,2.4,0,0,1-.84-.55,2.57,2.57,0,0,1-.54-.85,3.43,3.43,0,0,1,0-2.25Zm1.29,1.73a1.55,1.55,0,0,0,.21.53,1.06,1.06,0,0,0,.38.38,1.21,1.21,0,0,0,.6.14,1.28,1.28,0,0,0,.61-.14,1.18,1.18,0,0,0,.39-.38,1.77,1.77,0,0,0,.2-.53,3.08,3.08,0,0,0,0-1.21,1.67,1.67,0,0,0-.2-.53,1.08,1.08,0,0,0-1-.52,1.11,1.11,0,0,0-.6.14,1.06,1.06,0,0,0-.38.38,1.47,1.47,0,0,0-.21.53,3.08,3.08,0,0,0,0,1.21Z"/>
      <path class="a" d="M251.23,549.6v.7h0a1.91,1.91,0,0,1,.68-.62,1.77,1.77,0,0,1,.9-.22,2,2,0,0,1,.9.19,1.23,1.23,0,0,1,.61.67,2.13,2.13,0,0,1,.63-.6,1.59,1.59,0,0,1,.93-.26,2.64,2.64,0,0,1,.76.1,1.45,1.45,0,0,1,.6.32,1.32,1.32,0,0,1,.39.57,2.22,2.22,0,0,1,.14.86v3.46h-1.42v-2.93a3.78,3.78,0,0,0,0-.49.94.94,0,0,0-.11-.4.62.62,0,0,0-.26-.27,1,1,0,0,0-.48-.1.85.85,0,0,0-.48.11.83.83,0,0,0-.29.3,1.1,1.1,0,0,0-.14.42,2.59,2.59,0,0,0,0,.48v2.88h-1.42v-2.9c0-.16,0-.31,0-.46A1.07,1.07,0,0,0,253,551a.69.69,0,0,0-.25-.31.94.94,0,0,0-.52-.11,1,1,0,0,0-.26,0,.9.9,0,0,0-.32.17,1,1,0,0,0-.27.36,1.53,1.53,0,0,0-.11.62v3h-1.42V549.6Z"/>
      <path class="a" d="M265.66,547.63a3,3,0,0,1,1.14.19,2.14,2.14,0,0,1,.77.52,2,2,0,0,1,.43.73,2.65,2.65,0,0,1,.13.85,2.72,2.72,0,0,1-.13.84,2.12,2.12,0,0,1-.43.74,2.25,2.25,0,0,1-.77.51,3,3,0,0,1-1.14.2H264v2.56h-1.57v-7.14Zm-.43,3.36a4.38,4.38,0,0,0,.52,0,1.21,1.21,0,0,0,.44-.16.87.87,0,0,0,.31-.32,1.25,1.25,0,0,0,.11-.55,1.22,1.22,0,0,0-.11-.55.9.9,0,0,0-.31-.33,1,1,0,0,0-.44-.15,3,3,0,0,0-.52,0H264V551Z"/>
      <path class="a" d="M270.78,553.53a1.44,1.44,0,0,0,1.66.09.87.87,0,0,0,.38-.45h1.25a2.4,2.4,0,0,1-.92,1.33,2.75,2.75,0,0,1-1.5.4,3,3,0,0,1-1.1-.2,2.28,2.28,0,0,1-.83-.55,2.42,2.42,0,0,1-.52-.86,3,3,0,0,1-.19-1.1,2.92,2.92,0,0,1,.19-1.08,2.56,2.56,0,0,1,.54-.87,2.5,2.5,0,0,1,.84-.57,2.65,2.65,0,0,1,1.07-.21,2.47,2.47,0,0,1,1.15.25,2.26,2.26,0,0,1,.81.69,2.67,2.67,0,0,1,.45,1,3.63,3.63,0,0,1,.1,1.15h-3.73A1.46,1.46,0,0,0,270.78,553.53Zm1.61-2.72a1,1,0,0,0-.78-.28,1.17,1.17,0,0,0-.56.11,1,1,0,0,0-.36.29.9.9,0,0,0-.19.36,1.58,1.58,0,0,0-.07.34h2.31A1.64,1.64,0,0,0,272.39,550.81Z"/>
      <path class="a" d="M276.65,549.6v.72h0a1.64,1.64,0,0,1,.7-.66,2,2,0,0,1,.88-.2,2.54,2.54,0,0,1,.94.15,1.39,1.39,0,0,1,.57.43,1.72,1.72,0,0,1,.3.67,4.71,4.71,0,0,1,.08.88v3.18h-1.42v-2.92a1.76,1.76,0,0,0-.2-1,.77.77,0,0,0-.71-.31,1,1,0,0,0-.84.34,2,2,0,0,0-.26,1.14v2.71H275.3V549.6Z"/>
      <path class="a" d="M283,547.63v2.69h0a1.68,1.68,0,0,1,.69-.66,1.8,1.8,0,0,1,.82-.2,2.54,2.54,0,0,1,.94.15,1.39,1.39,0,0,1,.57.43,1.72,1.72,0,0,1,.3.67,4.71,4.71,0,0,1,.08.88v3.18H285v-2.92a1.86,1.86,0,0,0-.2-1,.77.77,0,0,0-.71-.31,1,1,0,0,0-.84.34,2,2,0,0,0-.26,1.14v2.71h-1.42v-7.14Z"/>
    </g>
    <g>
      <path class="a" d="M221.91,627.28a1.44,1.44,0,0,0-.35-.39,1.42,1.42,0,0,0-.48-.27,1.67,1.67,0,0,0-.55-.09,1.81,1.81,0,0,0-.9.2,1.67,1.67,0,0,0-.6.55,2.45,2.45,0,0,0-.34.79,3.85,3.85,0,0,0-.1.91,3.57,3.57,0,0,0,.1.87,2.55,2.55,0,0,0,.34.77,1.74,1.74,0,0,0,.6.54,1.81,1.81,0,0,0,.9.21,1.45,1.45,0,0,0,1.12-.44,2.06,2.06,0,0,0,.5-1.16h1.52a3.59,3.59,0,0,1-.31,1.21,3.09,3.09,0,0,1-.66.92,2.9,2.9,0,0,1-1,.58,3.61,3.61,0,0,1-1.21.2,3.69,3.69,0,0,1-1.48-.29,3.24,3.24,0,0,1-1.1-.78,3.56,3.56,0,0,1-.69-1.18A4.28,4.28,0,0,1,217,629a4.48,4.48,0,0,1,.24-1.49,3.51,3.51,0,0,1,.69-1.19,3.15,3.15,0,0,1,1.1-.8,3.52,3.52,0,0,1,1.48-.29,3.39,3.39,0,0,1,1.11.17,2.81,2.81,0,0,1,.94.49,2.7,2.7,0,0,1,.69.81,2.9,2.9,0,0,1,.34,1.1h-1.52A1.43,1.43,0,0,0,221.91,627.28Z"/>
      <path class="a" d="M224.83,628.94a1.6,1.6,0,0,1,.25-.83,1.67,1.67,0,0,1,.56-.53,2.4,2.4,0,0,1,.76-.29,4.17,4.17,0,0,1,.86-.08,5.32,5.32,0,0,1,.79,0,2.39,2.39,0,0,1,.73.22,1.37,1.37,0,0,1,.54.44,1.25,1.25,0,0,1,.21.76v2.69a4.92,4.92,0,0,0,0,.67,1.25,1.25,0,0,0,.14.48h-1.44a2.33,2.33,0,0,1-.07-.25l0-.25a2,2,0,0,1-.8.49,3.34,3.34,0,0,1-.94.14,2.5,2.5,0,0,1-.69-.09,1.73,1.73,0,0,1-.56-.28,1.37,1.37,0,0,1-.38-.48,1.67,1.67,0,0,1-.13-.69,1.55,1.55,0,0,1,.15-.73,1.35,1.35,0,0,1,.4-.45,1.8,1.8,0,0,1,.56-.26,4.84,4.84,0,0,1,.64-.13c.21,0,.42-.06.63-.08a3.71,3.71,0,0,0,.55-.09.9.9,0,0,0,.38-.18.39.39,0,0,0,.13-.33.75.75,0,0,0-.08-.37.51.51,0,0,0-.2-.21.83.83,0,0,0-.29-.1,1.94,1.94,0,0,0-.35,0,1.08,1.08,0,0,0-.66.18.82.82,0,0,0-.28.6Zm3.28,1a.71.71,0,0,1-.23.12,2,2,0,0,1-.29.08l-.32,0-.34,0a1.87,1.87,0,0,0-.32.08.84.84,0,0,0-.27.13.79.79,0,0,0-.18.22.62.62,0,0,0-.07.33.66.66,0,0,0,.07.32.61.61,0,0,0,.19.2.78.78,0,0,0,.28.11,1.84,1.84,0,0,0,.33,0,1.28,1.28,0,0,0,.65-.14,1,1,0,0,0,.47-.73,2.36,2.36,0,0,0,0-.32Z"/>
      <path class="a" d="M232.28,627.35v.72h0a1.64,1.64,0,0,1,.7-.66,2,2,0,0,1,.88-.2,2.44,2.44,0,0,1,.93.15,1.36,1.36,0,0,1,.58.43,1.57,1.57,0,0,1,.29.67,4,4,0,0,1,.09.88v3.18h-1.42V629.6a1.86,1.86,0,0,0-.2-1,.77.77,0,0,0-.71-.31,1,1,0,0,0-.84.34,2,2,0,0,0-.26,1.14v2.71h-1.42v-5.17Z"/>
      <path class="a" d="M239.83,626.7v-1.32h5.85v1.32h-2.14v5.82H242V626.7Z"/>
      <path class="a" d="M248.07,625.38v2.69h0a1.68,1.68,0,0,1,.69-.66,1.8,1.8,0,0,1,.82-.2,2.44,2.44,0,0,1,.93.15,1.36,1.36,0,0,1,.58.43,1.57,1.57,0,0,1,.29.67,4,4,0,0,1,.09.88v3.18h-1.42V629.6a1.86,1.86,0,0,0-.2-1,.77.77,0,0,0-.71-.31,1,1,0,0,0-.84.34,2,2,0,0,0-.26,1.14v2.71h-1.42v-7.14Z"/>
      <path class="a" d="M252.91,628.81a2.52,2.52,0,0,1,.54-.86,2.32,2.32,0,0,1,.84-.55,3.28,3.28,0,0,1,2.2,0,2.36,2.36,0,0,1,.85.55,2.52,2.52,0,0,1,.54.86,3.43,3.43,0,0,1,0,2.25,2.57,2.57,0,0,1-.54.85,2.36,2.36,0,0,1-.85.55,3.28,3.28,0,0,1-2.2,0,2.32,2.32,0,0,1-.84-.55,2.57,2.57,0,0,1-.54-.85,3.43,3.43,0,0,1,0-2.25Zm1.29,1.73a1.77,1.77,0,0,0,.2.53,1.18,1.18,0,0,0,.39.38,1.36,1.36,0,0,0,1.2,0,1,1,0,0,0,.39-.38,1.55,1.55,0,0,0,.21-.53,3.08,3.08,0,0,0,0-1.21,1.47,1.47,0,0,0-.21-.53,1,1,0,0,0-.39-.38,1.36,1.36,0,0,0-1.2,0,1.18,1.18,0,0,0-.39.38,1.67,1.67,0,0,0-.2.53,3.08,3.08,0,0,0,0,1.21Z"/>
    </g>
    <g>
      <path class="a" d="M103.41,621.88a3.55,3.55,0,0,1,1.28.22,2.61,2.61,0,0,1,1,.66,3,3,0,0,1,.68,1.1,4.27,4.27,0,0,1,.25,1.55,5.06,5.06,0,0,1-.2,1.44,3.13,3.13,0,0,1-.61,1.14,2.73,2.73,0,0,1-1,.75,3.42,3.42,0,0,1-1.42.28h-3.08v-7.14Zm-.11,5.82a2.08,2.08,0,0,0,.66-.11,1.6,1.6,0,0,0,.57-.37,1.79,1.79,0,0,0,.4-.66,3,3,0,0,0,.15-1,4.2,4.2,0,0,0-.11-1,1.87,1.87,0,0,0-.34-.74,1.52,1.52,0,0,0-.63-.48,2.58,2.58,0,0,0-1-.16H101.9v4.5Z"/>
      <path class="a" d="M107.83,625.44a1.6,1.6,0,0,1,.25-.83,1.67,1.67,0,0,1,.56-.53,2.4,2.4,0,0,1,.76-.29,4.17,4.17,0,0,1,.86-.08,5.32,5.32,0,0,1,.79,0,2.39,2.39,0,0,1,.73.22,1.37,1.37,0,0,1,.54.44,1.25,1.25,0,0,1,.21.76v2.69a4.92,4.92,0,0,0,0,.67,1.25,1.25,0,0,0,.14.48h-1.44a1.14,1.14,0,0,1-.06-.25,2.17,2.17,0,0,1,0-.25,2,2,0,0,1-.8.49,3.34,3.34,0,0,1-.94.14,2.5,2.5,0,0,1-.69-.09,1.73,1.73,0,0,1-.56-.28,1.37,1.37,0,0,1-.38-.48,1.67,1.67,0,0,1-.13-.69,1.55,1.55,0,0,1,.15-.73,1.35,1.35,0,0,1,.4-.45,1.8,1.8,0,0,1,.56-.26,4.84,4.84,0,0,1,.64-.13c.21,0,.42-.06.63-.08a3.71,3.71,0,0,0,.55-.09.9.9,0,0,0,.38-.18.39.39,0,0,0,.13-.33A.75.75,0,0,0,111,625a.51.51,0,0,0-.2-.21.83.83,0,0,0-.29-.1,1.94,1.94,0,0,0-.35,0,1.08,1.08,0,0,0-.66.18.82.82,0,0,0-.28.6Zm3.28,1a.71.71,0,0,1-.23.12,2,2,0,0,1-.29.08l-.32,0-.34,0a1.87,1.87,0,0,0-.32.08.84.84,0,0,0-.27.13.79.79,0,0,0-.18.22.62.62,0,0,0-.07.33.66.66,0,0,0,.07.32.61.61,0,0,0,.19.2.78.78,0,0,0,.28.11,1.84,1.84,0,0,0,.33,0,1.28,1.28,0,0,0,.65-.14,1,1,0,0,0,.47-.73,2.36,2.36,0,0,0,0-.32Z"/>
      <path class="a" d="M114,625.31a2.52,2.52,0,0,1,.54-.86,2.32,2.32,0,0,1,.84-.55,3.28,3.28,0,0,1,2.2,0,2.27,2.27,0,0,1,.85.55,2.52,2.52,0,0,1,.54.86,3.43,3.43,0,0,1,0,2.25,2.57,2.57,0,0,1-.54.85,2.27,2.27,0,0,1-.85.55,3.28,3.28,0,0,1-2.2,0,2.32,2.32,0,0,1-.84-.55,2.57,2.57,0,0,1-.54-.85,3.43,3.43,0,0,1,0-2.25Zm1.29,1.73a1.55,1.55,0,0,0,.21.53,1.06,1.06,0,0,0,.38.38,1.36,1.36,0,0,0,1.2,0,1,1,0,0,0,.39-.38,1.55,1.55,0,0,0,.21-.53,3.08,3.08,0,0,0,0-1.21,1.47,1.47,0,0,0-.21-.53,1,1,0,0,0-.39-.38,1.36,1.36,0,0,0-1.2,0,1.06,1.06,0,0,0-.38.38,1.47,1.47,0,0,0-.21.53,3.08,3.08,0,0,0,0,1.21Z"/>
      <path class="a" d="M126.79,621.88a3,3,0,0,1,1.14.19,2.14,2.14,0,0,1,.77.52,2,2,0,0,1,.43.73,2.65,2.65,0,0,1,.13.85,2.72,2.72,0,0,1-.13.84,2.12,2.12,0,0,1-.43.74,2.25,2.25,0,0,1-.77.51,3,3,0,0,1-1.14.2h-1.65V629h-1.57v-7.14Zm-.43,3.36a4.38,4.38,0,0,0,.52,0,1.21,1.21,0,0,0,.44-.16.87.87,0,0,0,.31-.32,1.25,1.25,0,0,0,.11-.55,1.22,1.22,0,0,0-.11-.55.9.9,0,0,0-.31-.33,1,1,0,0,0-.44-.15,3,3,0,0,0-.52,0h-1.22v2.14Z"/>
      <path class="a" d="M131.81,621.88v2.69h0a1.68,1.68,0,0,1,.69-.66,1.8,1.8,0,0,1,.82-.2,2.54,2.54,0,0,1,.94.15,1.39,1.39,0,0,1,.57.43,1.72,1.72,0,0,1,.3.67,4.71,4.71,0,0,1,.08.88V629h-1.42V626.1a1.86,1.86,0,0,0-.2-1,.77.77,0,0,0-.71-.31,1,1,0,0,0-.84.34,2,2,0,0,0-.26,1.14V629h-1.42v-7.14Z"/>
      <path class="a" d="M140.12,629v-.72h0a1.62,1.62,0,0,1-.7.65,2.13,2.13,0,0,1-.88.2,2.44,2.44,0,0,1-.93-.15,1.36,1.36,0,0,1-.58-.43,1.57,1.57,0,0,1-.29-.67,3.88,3.88,0,0,1-.09-.87v-3.18H138v2.92a1.84,1.84,0,0,0,.2,1,.77.77,0,0,0,.71.32,1,1,0,0,0,.84-.35,1.94,1.94,0,0,0,.26-1.13v-2.71h1.42V629Z"/>
      <path class="a" d="M151,628.77a3.43,3.43,0,0,1-1.73.41,3.6,3.6,0,0,1-1.47-.29,3.18,3.18,0,0,1-1.11-.78,3.56,3.56,0,0,1-.69-1.18,4.28,4.28,0,0,1-.24-1.45A4.48,4.48,0,0,1,146,624a3.51,3.51,0,0,1,.69-1.19,3.1,3.1,0,0,1,1.11-.8,3.45,3.45,0,0,1,1.47-.29,3.49,3.49,0,0,1,1.48.29,3.15,3.15,0,0,1,1.1.8,3.51,3.51,0,0,1,.69,1.19,4.48,4.48,0,0,1,.24,1.49,4.28,4.28,0,0,1-.24,1.45,3.67,3.67,0,0,1-.69,1.18l.89.81-.73.76Zm-.23-1.65a2.32,2.32,0,0,0,.32-.67,3.43,3.43,0,0,0,.12-1,3.85,3.85,0,0,0-.1-.91,2.45,2.45,0,0,0-.34-.79,1.67,1.67,0,0,0-.6-.55,2.12,2.12,0,0,0-1.8,0,1.67,1.67,0,0,0-.6.55,2.48,2.48,0,0,0-.33.78,4,4,0,0,0-.11.91,3.58,3.58,0,0,0,.11.87,2.42,2.42,0,0,0,.33.77,1.74,1.74,0,0,0,.6.54,1.81,1.81,0,0,0,.9.21l.38,0a1,1,0,0,0,.25-.07l-.67-.61.73-.78Z"/>
      <path class="a" d="M157.51,629v-.72h0a1.62,1.62,0,0,1-.7.65,2.13,2.13,0,0,1-.88.2A2.44,2.44,0,0,1,155,629a1.36,1.36,0,0,1-.58-.43,1.57,1.57,0,0,1-.29-.67A3.88,3.88,0,0,1,154,627v-3.18h1.42v2.92a1.84,1.84,0,0,0,.2,1,.77.77,0,0,0,.71.32,1,1,0,0,0,.84-.35,1.94,1.94,0,0,0,.26-1.13v-2.71h1.42V629Z"/>
      <path class="a" d="M160.27,625.31a2.52,2.52,0,0,1,.54-.86,2.32,2.32,0,0,1,.84-.55,3,3,0,0,1,1.1-.19,3,3,0,0,1,1.11.19,2.32,2.32,0,0,1,.84.55,2.52,2.52,0,0,1,.54.86,3.43,3.43,0,0,1,0,2.25,2.57,2.57,0,0,1-.54.85,2.32,2.32,0,0,1-.84.55,3.23,3.23,0,0,1-1.11.19,3.17,3.17,0,0,1-1.1-.19,2.32,2.32,0,0,1-.84-.55,2.57,2.57,0,0,1-.54-.85,3.43,3.43,0,0,1,0-2.25Zm1.29,1.73a1.55,1.55,0,0,0,.21.53,1.06,1.06,0,0,0,.38.38,1.21,1.21,0,0,0,.6.14,1.28,1.28,0,0,0,.61-.14,1.18,1.18,0,0,0,.39-.38,1.77,1.77,0,0,0,.2-.53,3.08,3.08,0,0,0,0-1.21,1.67,1.67,0,0,0-.2-.53,1.08,1.08,0,0,0-1-.52,1.11,1.11,0,0,0-.6.14,1.06,1.06,0,0,0-.38.38,1.47,1.47,0,0,0-.21.53,3.08,3.08,0,0,0,0,1.21Z"/>
      <path class="a" d="M169.12,624.78a1,1,0,0,0-.57.15,1.18,1.18,0,0,0-.37.4,1.6,1.6,0,0,0-.21.54,3,3,0,0,0-.06.59,2.91,2.91,0,0,0,.06.57,1.81,1.81,0,0,0,.2.52,1,1,0,0,0,.36.39,1,1,0,0,0,.56.15,1.07,1.07,0,0,0,.79-.29,1.37,1.37,0,0,0,.34-.76h1.37a2.34,2.34,0,0,1-.8,1.57,2.58,2.58,0,0,1-1.69.54A2.78,2.78,0,0,1,168,629a2.39,2.39,0,0,1-.83-.54,2.61,2.61,0,0,1-.53-.84,2.81,2.81,0,0,1-.19-1.06,3.37,3.37,0,0,1,.18-1.12,2.38,2.38,0,0,1,.51-.89,2.35,2.35,0,0,1,.83-.58,2.83,2.83,0,0,1,1.12-.21,3.3,3.3,0,0,1,.89.12,2.53,2.53,0,0,1,.76.36,2,2,0,0,1,.54.61,1.93,1.93,0,0,1,.24.87h-1.39A.94.94,0,0,0,169.12,624.78Z"/>
    </g>
    <g>
      <path class="a" d="M303.89,575.69v2.74h2.89v-2.74h1.57v7.14h-1.57v-3.08h-2.89v3.08h-1.57v-7.14Z"/>
      <path class="a" d="M309.91,579.12a2.62,2.62,0,0,1,.54-.86,2.45,2.45,0,0,1,.84-.55,3,3,0,0,1,1.1-.19,3,3,0,0,1,1.11.19,2.45,2.45,0,0,1,.84.55,2.62,2.62,0,0,1,.54.86,3.15,3.15,0,0,1,.19,1.13,3.06,3.06,0,0,1-.19,1.12,2.47,2.47,0,0,1-.54.85,2.32,2.32,0,0,1-.84.55,3.23,3.23,0,0,1-1.11.19,3.17,3.17,0,0,1-1.1-.19,2.32,2.32,0,0,1-.84-.55,2.47,2.47,0,0,1-.54-.85,3.06,3.06,0,0,1-.19-1.12A3.15,3.15,0,0,1,309.91,579.12Zm1.29,1.73a1.47,1.47,0,0,0,.21.53,1,1,0,0,0,.38.38,1.21,1.21,0,0,0,.6.14,1.28,1.28,0,0,0,.61-.14,1.09,1.09,0,0,0,.39-.38,1.67,1.67,0,0,0,.2-.53,2.91,2.91,0,0,0,.06-.6,3.08,3.08,0,0,0-.06-.61,1.67,1.67,0,0,0-.2-.53,1.08,1.08,0,0,0-1-.52,1.21,1.21,0,0,0-.6.14,1.15,1.15,0,0,0-.38.38,1.47,1.47,0,0,0-.21.53,3.08,3.08,0,0,0-.06.61A2.91,2.91,0,0,0,311.2,580.85Z"/>
      <path class="a" d="M324.1,577.59a1.44,1.44,0,0,0-.35-.39,2,2,0,0,0-.47-.27,1.73,1.73,0,0,0-.56-.09,1.93,1.93,0,0,0-.9.2,1.86,1.86,0,0,0-.6.55,2.54,2.54,0,0,0-.33.79,3.84,3.84,0,0,0-.11.91,3.58,3.58,0,0,0,.11.87,2.42,2.42,0,0,0,.33.77,1.72,1.72,0,0,0,.6.54,1.81,1.81,0,0,0,.9.21,1.48,1.48,0,0,0,1.13-.44,2,2,0,0,0,.49-1.16h1.52a3.59,3.59,0,0,1-.31,1.21,2.67,2.67,0,0,1-.66.92,2.74,2.74,0,0,1-1,.58,3.57,3.57,0,0,1-1.21.2,3.64,3.64,0,0,1-1.47-.29,3.18,3.18,0,0,1-1.11-.78,3.47,3.47,0,0,1-.69-1.18,4.28,4.28,0,0,1-.24-1.45,4.52,4.52,0,0,1,.24-1.49,3.61,3.61,0,0,1,.69-1.19,3.1,3.1,0,0,1,1.11-.8,3.64,3.64,0,0,1,1.47-.29,3.7,3.7,0,0,1,1.12.17,3.12,3.12,0,0,1,.94.49,2.82,2.82,0,0,1,.68.81,3,3,0,0,1,.34,1.1h-1.52A1.25,1.25,0,0,0,324.1,577.59Z"/>
      <path class="a" d="M328.5,575.69v2.69h0a1.68,1.68,0,0,1,.69-.66,2,2,0,0,1,.82-.2,2.54,2.54,0,0,1,.94.15,1.48,1.48,0,0,1,.57.43,1.78,1.78,0,0,1,.3.67,4.79,4.79,0,0,1,.08.88v3.18h-1.42v-2.92a1.76,1.76,0,0,0-.2-1,.77.77,0,0,0-.71-.31,1,1,0,0,0-.84.34,2,2,0,0,0-.26,1.14v2.71h-1.42v-7.14Z"/>
      <path class="a" d="M333.35,576.86v-1.17h1.42v1.17Zm1.42.8v5.17h-1.42v-5.17Z"/>
      <path class="a" d="M341.63,575.69l1.67,4.91h0l1.58-4.91h2.21v7.14h-1.47v-5.06h0l-1.75,5.06h-1.21l-1.75-5h0v5h-1.47v-7.14Z"/>
      <path class="a" d="M348.68,576.86v-1.17h1.42v1.17Zm1.42.8v5.17h-1.42v-5.17Z"/>
      <path class="a" d="M352.87,577.66v.72h0a1.7,1.7,0,0,1,.7-.66,2.13,2.13,0,0,1,.88-.2,2.54,2.54,0,0,1,.94.15,1.48,1.48,0,0,1,.57.43,1.78,1.78,0,0,1,.3.67,4.79,4.79,0,0,1,.08.88v3.18H355v-2.92a1.76,1.76,0,0,0-.2-1,.77.77,0,0,0-.71-.31,1,1,0,0,0-.84.34,2,2,0,0,0-.26,1.14v2.71h-1.42v-5.17Z"/>
      <path class="a" d="M359.17,575.69v2.69h0a1.68,1.68,0,0,1,.69-.66,2,2,0,0,1,.82-.2,2.54,2.54,0,0,1,.94.15,1.48,1.48,0,0,1,.57.43,1.78,1.78,0,0,1,.3.67,4.79,4.79,0,0,1,.08.88v3.18h-1.42v-2.92a1.76,1.76,0,0,0-.2-1,.77.77,0,0,0-.71-.31,1,1,0,0,0-.84.34,2,2,0,0,0-.26,1.14v2.71h-1.42v-7.14Z"/>
      <path class="a" d="M371.79,577.59a1.44,1.44,0,0,0-.35-.39,2,2,0,0,0-.47-.27,1.77,1.77,0,0,0-.56-.09,1.93,1.93,0,0,0-.9.2,1.67,1.67,0,0,0-.6.55,2.54,2.54,0,0,0-.33.79,3.84,3.84,0,0,0-.11.91,3.58,3.58,0,0,0,.11.87,2.42,2.42,0,0,0,.33.77,1.56,1.56,0,0,0,.6.54,1.81,1.81,0,0,0,.9.21,1.48,1.48,0,0,0,1.13-.44,2,2,0,0,0,.49-1.16h1.52a3.59,3.59,0,0,1-.31,1.21,2.81,2.81,0,0,1-.66.92,2.74,2.74,0,0,1-1,.58,3.82,3.82,0,0,1-2.68-.09,3.18,3.18,0,0,1-1.11-.78,3.47,3.47,0,0,1-.69-1.18,4.28,4.28,0,0,1-.24-1.45,4.52,4.52,0,0,1,.24-1.49,3.61,3.61,0,0,1,.69-1.19,3.1,3.1,0,0,1,1.11-.8,3.64,3.64,0,0,1,1.47-.29,3.75,3.75,0,0,1,1.12.17,3.12,3.12,0,0,1,.94.49,2.82,2.82,0,0,1,.68.81,3,3,0,0,1,.34,1.1H372A1.43,1.43,0,0,0,371.79,577.59Z"/>
      <path class="a" d="M374.81,576.86v-1.17h1.42v1.17Zm1.42.8v5.17h-1.42v-5.17Z"/>
      <path class="a" d="M380.49,577.66v1h-1v2.56a.48.48,0,0,0,.6.6h.23l.21,0v1.1l-.4,0h-.43a4,4,0,0,1-.62,0,1.39,1.39,0,0,1-.52-.17,1,1,0,0,1-.36-.37,1.41,1.41,0,0,1-.13-.63v-3h-.86v-1H378v-1.55h1.42v1.55Z"/>
      <path class="a" d="M383.38,584.37a2,2,0,0,1-1.14.27l-.43,0-.44,0v-1.17l.41,0h.42a.55.55,0,0,0,.42-.22.72.72,0,0,0,.13-.42.87.87,0,0,0-.06-.32l-1.81-4.85h1.51l1.17,3.54h0l1.13-3.54h1.47L384,583.47A1.69,1.69,0,0,1,383.38,584.37Z"/>
    </g>
    <g>
      <path class="a" d="M369.8,331.64a3.78,3.78,0,0,1,1.28.21,2.89,2.89,0,0,1,1,.66,3.13,3.13,0,0,1,.67,1.1,4.35,4.35,0,0,1,.25,1.55,5.06,5.06,0,0,1-.2,1.44,3.18,3.18,0,0,1-.6,1.14,2.93,2.93,0,0,1-1,.76,3.51,3.51,0,0,1-1.43.27h-3.08v-7.13Zm-.11,5.81a2.07,2.07,0,0,0,.66-.1,1.6,1.6,0,0,0,.57-.37,1.76,1.76,0,0,0,.4-.67,2.89,2.89,0,0,0,.15-1,4.13,4.13,0,0,0-.1-1,2,2,0,0,0-.35-.74,1.52,1.52,0,0,0-.63-.48,2.57,2.57,0,0,0-1-.17h-1.12v4.5Z"/>
      <path class="a" d="M374.22,335.19a1.63,1.63,0,0,1,.25-.83,1.77,1.77,0,0,1,.56-.53,2.65,2.65,0,0,1,.76-.28,4.17,4.17,0,0,1,.86-.08,5.32,5.32,0,0,1,.79,0,2.7,2.7,0,0,1,.73.21,1.48,1.48,0,0,1,.54.45,1.23,1.23,0,0,1,.21.75v2.69a4.73,4.73,0,0,0,0,.67,1.14,1.14,0,0,0,.14.48h-1.44a1.05,1.05,0,0,1-.06-.24,2,2,0,0,1,0-.26,1.76,1.76,0,0,1-.8.49,3,3,0,0,1-.94.14,2.5,2.5,0,0,1-.69-.09,1.41,1.41,0,0,1-.56-.28,1.23,1.23,0,0,1-.37-.47,1.68,1.68,0,0,1-.14-.7,1.54,1.54,0,0,1,.15-.72,1.4,1.4,0,0,1,.41-.46,1.85,1.85,0,0,1,.55-.25c.21-.06.43-.1.64-.14s.42-.06.63-.07a5.53,5.53,0,0,0,.55-.1.89.89,0,0,0,.38-.17.39.39,0,0,0,.13-.34.64.64,0,0,0-.08-.36.48.48,0,0,0-.19-.21,1,1,0,0,0-.29-.1,2,2,0,0,0-.36,0,1,1,0,0,0-.66.19.79.79,0,0,0-.28.59Zm3.28,1.05a.54.54,0,0,1-.22.13,1.37,1.37,0,0,1-.29.07,1.88,1.88,0,0,1-.33.05l-.34.05-.32.08a.92.92,0,0,0-.26.14.76.76,0,0,0-.19.21.69.69,0,0,0-.07.34.59.59,0,0,0,.07.31.55.55,0,0,0,.19.21.77.77,0,0,0,.28.1,1.86,1.86,0,0,0,.33,0,1.18,1.18,0,0,0,.65-.15.9.9,0,0,0,.34-.33,1.22,1.22,0,0,0,.14-.39c0-.14,0-.25,0-.33Z"/>
      <path class="a" d="M385.11,331.64l3,4.79h0v-4.79h1.47v7.13H388L385,334h0v4.78h-1.47v-7.13Z"/>
      <path class="a" d="M391.05,335.19a1.63,1.63,0,0,1,.25-.83,1.77,1.77,0,0,1,.56-.53,2.61,2.61,0,0,1,.77-.28,4,4,0,0,1,.85-.08,5.32,5.32,0,0,1,.79,0,2.7,2.7,0,0,1,.73.21,1.48,1.48,0,0,1,.54.45,1.23,1.23,0,0,1,.21.75v2.69a4.73,4.73,0,0,0,0,.67,1.14,1.14,0,0,0,.14.48h-1.44a1.05,1.05,0,0,1-.06-.24,2,2,0,0,1,0-.26,1.71,1.71,0,0,1-.8.49,3,3,0,0,1-.94.14,2.5,2.5,0,0,1-.69-.09,1.41,1.41,0,0,1-.56-.28,1.23,1.23,0,0,1-.37-.47,1.68,1.68,0,0,1-.14-.7,1.42,1.42,0,0,1,.16-.72,1.27,1.27,0,0,1,.4-.46,1.91,1.91,0,0,1,.56-.25c.21-.06.42-.1.63-.14s.42-.06.63-.07a5.53,5.53,0,0,0,.55-.1.89.89,0,0,0,.38-.17.39.39,0,0,0,.13-.34.74.74,0,0,0-.07-.36.58.58,0,0,0-.2-.21.91.91,0,0,0-.29-.1,2,2,0,0,0-.36,0,1,1,0,0,0-.66.19.79.79,0,0,0-.28.59Zm3.28,1.05a.54.54,0,0,1-.22.13,1.37,1.37,0,0,1-.29.07,1.88,1.88,0,0,1-.33.05l-.34.05-.31.08a.86.86,0,0,0-.27.14.76.76,0,0,0-.19.21.69.69,0,0,0-.07.34.59.59,0,0,0,.07.31.55.55,0,0,0,.19.21.77.77,0,0,0,.28.1,1.86,1.86,0,0,0,.33,0,1.18,1.18,0,0,0,.65-.15.9.9,0,0,0,.34-.33,1.22,1.22,0,0,0,.14-.39c0-.14,0-.25,0-.33Z"/>
      <path class="a" d="M398.5,333.6v.72h0a1.62,1.62,0,0,1,.7-.65,2,2,0,0,1,.88-.2,2.54,2.54,0,0,1,.94.15,1.39,1.39,0,0,1,.57.43,1.72,1.72,0,0,1,.3.67,4.63,4.63,0,0,1,.08.88v3.17h-1.42v-2.92a1.84,1.84,0,0,0-.2-1,.77.77,0,0,0-.71-.32,1,1,0,0,0-.84.35,1.94,1.94,0,0,0-.26,1.13v2.71h-1.42V333.6Z"/>
      <path class="a" d="M408.27,339.15a1.76,1.76,0,0,1-.37.75,2.22,2.22,0,0,1-.81.58,3.49,3.49,0,0,1-1.42.24,3.44,3.44,0,0,1-.77-.09,2.11,2.11,0,0,1-.72-.3,1.65,1.65,0,0,1-.54-.51,1.43,1.43,0,0,1-.25-.76h1.41a.83.83,0,0,0,.39.56,1.44,1.44,0,0,0,.67.15,1,1,0,0,0,.88-.36,1.37,1.37,0,0,0,.26-.9v-.69h0a1.37,1.37,0,0,1-.65.61,2.17,2.17,0,0,1-.9.19,2.2,2.2,0,0,1-1-.2,1.9,1.9,0,0,1-.69-.56,2.27,2.27,0,0,1-.39-.83,3.68,3.68,0,0,1-.13-1,3.11,3.11,0,0,1,.15-1,2.36,2.36,0,0,1,.42-.82,2.06,2.06,0,0,1,1.65-.77,2.13,2.13,0,0,1,.9.18,1.57,1.57,0,0,1,.64.64h0v-.69h1.35v4.84A3.86,3.86,0,0,1,408.27,339.15Zm-1.95-1.72a1.07,1.07,0,0,0,.38-.32,1.37,1.37,0,0,0,.23-.45,1.9,1.9,0,0,0,.07-.54,2.91,2.91,0,0,0-.06-.6,1.65,1.65,0,0,0-.2-.51,1.13,1.13,0,0,0-.37-.35,1.24,1.24,0,0,0-.58-.13,1,1,0,0,0-.51.12,1,1,0,0,0-.36.33,1.26,1.26,0,0,0-.21.47,2,2,0,0,0-.07.56,2.57,2.57,0,0,0,.06.55,1.44,1.44,0,0,0,.19.5,1.06,1.06,0,0,0,.35.35,1,1,0,0,0,.55.15A1.12,1.12,0,0,0,406.32,337.43Z"/>
    </g>
    <g>
      <path class="a" d="M380.52,349.39v2.74h2.89v-2.74H385v7.14h-1.57v-3.08h-2.89v3.08H379v-7.14Z"/>
      <path class="a" d="M386.54,352.83a2.43,2.43,0,0,1,.54-.86,2.5,2.5,0,0,1,.84-.55,3.15,3.15,0,0,1,2.21,0,2.32,2.32,0,0,1,.84.55,2.18,2.18,0,0,1,.54.86,3.06,3.06,0,0,1,.19,1.12,3,3,0,0,1-.19,1.12,2.25,2.25,0,0,1-.54.86,2.29,2.29,0,0,1-.84.54,3.31,3.31,0,0,1-2.21,0,2.47,2.47,0,0,1-.84-.54,2.52,2.52,0,0,1-.54-.86,3.24,3.24,0,0,1-.19-1.12A3.29,3.29,0,0,1,386.54,352.83Zm1.29,1.73a1.63,1.63,0,0,0,.21.53,1,1,0,0,0,.38.37,1.11,1.11,0,0,0,.6.14,1.17,1.17,0,0,0,.61-.14,1.15,1.15,0,0,0,.39-.37,1.87,1.87,0,0,0,.2-.53,3.08,3.08,0,0,0,.06-.61,3.15,3.15,0,0,0-.06-.61,1.77,1.77,0,0,0-.2-.53,1.15,1.15,0,0,0-.39-.37,1.17,1.17,0,0,0-.61-.15,1.11,1.11,0,0,0-.6.15,1,1,0,0,0-.38.37,1.55,1.55,0,0,0-.21.53,3.15,3.15,0,0,0-.06.61A3.08,3.08,0,0,0,387.83,354.56Z"/>
      <path class="a" d="M393,350.56v-1.17h1.42v1.17Zm1.42.8v5.17H393v-5.17Z"/>
      <path class="a" d="M402.59,349.39l2.67,7.14h-1.63l-.54-1.59h-2.67l-.56,1.59h-1.58l2.7-7.14Zm.09,4.38-.9-2.62h0l-.93,2.62Z"/>
      <path class="a" d="M407.38,351.36v.72h0a1.61,1.61,0,0,1,.7-.65,2,2,0,0,1,.88-.21,2.33,2.33,0,0,1,.94.16,1.31,1.31,0,0,1,.57.43,1.65,1.65,0,0,1,.3.67,4.6,4.6,0,0,1,.08.87v3.18h-1.42v-2.92a1.75,1.75,0,0,0-.2-.95.77.77,0,0,0-.71-.32,1,1,0,0,0-.84.35,1.94,1.94,0,0,0-.26,1.13v2.71H406v-5.17Z"/>
    </g>
    <g>
      <path class="a" d="M254.92,90.33v2.73h2.89V90.33h1.57v7.14h-1.57V94.39h-2.89v3.08h-1.57V90.33Z"/>
      <path class="a" d="M260.85,93.89a1.57,1.57,0,0,1,.25-.83,1.7,1.7,0,0,1,.56-.54,2.54,2.54,0,0,1,.76-.28,4.11,4.11,0,0,1,.86-.08,5.32,5.32,0,0,1,.79,0,2.33,2.33,0,0,1,.72.22,1.24,1.24,0,0,1,.54.44,1.18,1.18,0,0,1,.21.76v2.68c0,.24,0,.46,0,.67a1.23,1.23,0,0,0,.15.49h-1.44a2.33,2.33,0,0,1-.07-.25,1.07,1.07,0,0,1,0-.25,2,2,0,0,1-.8.49,3.34,3.34,0,0,1-.94.14,3,3,0,0,1-.69-.09,1.49,1.49,0,0,1-.56-.29,1.26,1.26,0,0,1-.38-.47,1.67,1.67,0,0,1-.13-.69,1.55,1.55,0,0,1,.15-.73,1.25,1.25,0,0,1,.4-.45,1.7,1.7,0,0,1,.56-.26c.21-.06.42-.1.64-.14l.63-.07a3.88,3.88,0,0,0,.55-.1,1,1,0,0,0,.38-.17.38.38,0,0,0,.12-.33.76.76,0,0,0-.07-.37.58.58,0,0,0-.2-.21.83.83,0,0,0-.29-.1,2,2,0,0,0-.35,0,1.08,1.08,0,0,0-.66.19.76.76,0,0,0-.28.6Zm3.27,1a.48.48,0,0,1-.22.13l-.29.08-.32,0-.34,0-.32.08a1.15,1.15,0,0,0-.27.14.55.55,0,0,0-.18.22.62.62,0,0,0-.07.33.59.59,0,0,0,.07.31.48.48,0,0,0,.19.21,1,1,0,0,0,.28.11,3.11,3.11,0,0,0,.33,0,1.2,1.2,0,0,0,.65-.15.87.87,0,0,0,.33-.33,1,1,0,0,0,.14-.39,2.07,2.07,0,0,0,0-.32Z"/>
      <path class="a" d="M268.29,92.3V93h0a1.62,1.62,0,0,1,.7-.65,2,2,0,0,1,.88-.2,2.44,2.44,0,0,1,.93.15,1.43,1.43,0,0,1,.58.43,1.71,1.71,0,0,1,.29.67,4,4,0,0,1,.08.88v3.18h-1.41V94.55a1.75,1.75,0,0,0-.21-1,.76.76,0,0,0-.71-.32,1,1,0,0,0-.84.35,2,2,0,0,0-.25,1.14v2.71H267V92.3Z"/>
      <path class="a" d="M273.21,93.76a2.25,2.25,0,0,1,.54-.86,2.32,2.32,0,0,1,.84-.55,2.92,2.92,0,0,1,1.1-.19,3,3,0,0,1,1.1.19,2.45,2.45,0,0,1,.85.55,2.52,2.52,0,0,1,.54.86,3.43,3.43,0,0,1,0,2.25,2.57,2.57,0,0,1-.54.85,2.45,2.45,0,0,1-.85.55,3.21,3.21,0,0,1-1.1.19,3.13,3.13,0,0,1-1.1-.19,2.32,2.32,0,0,1-.84-.55,2.29,2.29,0,0,1-.54-.85,3.43,3.43,0,0,1,0-2.25Zm1.29,1.73a1.53,1.53,0,0,0,.2.53,1.06,1.06,0,0,0,.39.37,1.28,1.28,0,0,0,1.2,0,1.06,1.06,0,0,0,.39-.37,1.55,1.55,0,0,0,.21-.53,3.05,3.05,0,0,0,.06-.6,3.18,3.18,0,0,0-.06-.62,1.5,1.5,0,0,0-.21-.52,1.18,1.18,0,0,0-.39-.38,1.28,1.28,0,0,0-1.2,0,1.18,1.18,0,0,0-.39.38,1.48,1.48,0,0,0-.2.52,3.18,3.18,0,0,0-.06.62A3.05,3.05,0,0,0,274.5,95.49Z"/>
      <path class="a" d="M279.63,91.5V90.33h1.42V91.5Zm1.42.8v5.17h-1.42V92.3Z"/>
    </g>
    <g>
      <path class="a" d="M185.75,45.56v5.82h3.48V52.7h-5V45.56Z"/>
      <path class="a" d="M190.2,49.12a1.6,1.6,0,0,1,.25-.83,1.77,1.77,0,0,1,.56-.53,2.37,2.37,0,0,1,.77-.29,4.8,4.8,0,0,1,.85-.08,7,7,0,0,1,.79,0,2.39,2.39,0,0,1,.73.22,1.37,1.37,0,0,1,.54.44,1.25,1.25,0,0,1,.21.76v2.69c0,.23,0,.45,0,.67a1.25,1.25,0,0,0,.14.48h-1.44a1.83,1.83,0,0,1-.06-.25,2.17,2.17,0,0,1,0-.25,1.89,1.89,0,0,1-.8.49,3.34,3.34,0,0,1-.94.14,2.56,2.56,0,0,1-.69-.09,1.73,1.73,0,0,1-.56-.28,1.35,1.35,0,0,1-.37-.48,1.67,1.67,0,0,1-.14-.69,1.44,1.44,0,0,1,.16-.73,1.17,1.17,0,0,1,.4-.45,1.7,1.7,0,0,1,.56-.26c.21-.05.42-.1.63-.13s.42-.06.63-.08a3.71,3.71,0,0,0,.55-.09.9.9,0,0,0,.38-.18.35.35,0,0,0,.13-.33.76.76,0,0,0-.07-.37.58.58,0,0,0-.2-.21.91.91,0,0,0-.29-.1l-.36,0a1.08,1.08,0,0,0-.66.18.82.82,0,0,0-.28.6Zm3.28,1.05a.66.66,0,0,1-.22.12l-.29.08-.33.05-.34,0a1.77,1.77,0,0,0-.31.08.85.85,0,0,0-.27.13.67.67,0,0,0-.19.22.74.74,0,0,0-.07.33.79.79,0,0,0,.07.32.61.61,0,0,0,.19.2.78.78,0,0,0,.28.11,1.84,1.84,0,0,0,.33,0,1.28,1.28,0,0,0,.65-.14,1,1,0,0,0,.34-.34,1.22,1.22,0,0,0,.14-.39c0-.14,0-.24,0-.32Z"/>
      <path class="a" d="M196.33,49a2.62,2.62,0,0,1,.54-.86,2.55,2.55,0,0,1,.84-.55,3.31,3.31,0,0,1,2.21,0A2.36,2.36,0,0,1,201.3,49a3.43,3.43,0,0,1,0,2.25,2.38,2.38,0,0,1-1.38,1.4,3.31,3.31,0,0,1-2.21,0,2.4,2.4,0,0,1-.84-.55,2.47,2.47,0,0,1-.54-.85,3.43,3.43,0,0,1,0-2.25Zm1.29,1.73a1.47,1.47,0,0,0,.21.53,1.06,1.06,0,0,0,.38.38,1.21,1.21,0,0,0,.6.14,1.28,1.28,0,0,0,.61-.14,1.18,1.18,0,0,0,.39-.38,1.67,1.67,0,0,0,.2-.53,3,3,0,0,0,.06-.6,3.08,3.08,0,0,0-.06-.61,1.67,1.67,0,0,0-.2-.53,1.18,1.18,0,0,0-.39-.38,1.28,1.28,0,0,0-.61-.14,1.21,1.21,0,0,0-.6.14,1.06,1.06,0,0,0-.38.38,1.47,1.47,0,0,0-.21.53,3.08,3.08,0,0,0-.06.61A3,3,0,0,0,197.62,50.72Z"/>
      <path class="a" d="M210.52,47.46a1.44,1.44,0,0,0-.35-.39,1.69,1.69,0,0,0-.47-.27,1.73,1.73,0,0,0-.56-.09,1.93,1.93,0,0,0-.9.2,1.86,1.86,0,0,0-.6.55,2.44,2.44,0,0,0-.33.79,3.84,3.84,0,0,0-.11.91,3.58,3.58,0,0,0,.11.87,2.42,2.42,0,0,0,.33.77,1.74,1.74,0,0,0,1.5.75,1.48,1.48,0,0,0,1.13-.44,2.05,2.05,0,0,0,.49-1.16h1.52a3.59,3.59,0,0,1-.31,1.21,2.77,2.77,0,0,1-.66.92,2.9,2.9,0,0,1-1,.58,3.57,3.57,0,0,1-1.21.2,3.64,3.64,0,0,1-1.47-.29,3.18,3.18,0,0,1-1.11-.78,3.56,3.56,0,0,1-.69-1.18,4.28,4.28,0,0,1-.24-1.45,4.48,4.48,0,0,1,.24-1.49,3.61,3.61,0,0,1,.69-1.19,3.1,3.1,0,0,1,1.11-.8,3.48,3.48,0,0,1,1.47-.29,3.41,3.41,0,0,1,1.12.17,3.12,3.12,0,0,1,.94.49,2.82,2.82,0,0,1,.68.81,2.73,2.73,0,0,1,.34,1.1H210.7A1.12,1.12,0,0,0,210.52,47.46Z"/>
      <path class="a" d="M213.44,49.12a1.7,1.7,0,0,1,.25-.83,1.77,1.77,0,0,1,.56-.53,2.37,2.37,0,0,1,.77-.29,4.89,4.89,0,0,1,.85-.08,7,7,0,0,1,.79,0,2.39,2.39,0,0,1,.73.22,1.37,1.37,0,0,1,.54.44,1.25,1.25,0,0,1,.21.76v2.69c0,.23,0,.45,0,.67a1.45,1.45,0,0,0,.14.48h-1.44a1.83,1.83,0,0,1-.06-.25,2.17,2.17,0,0,1,0-.25,1.89,1.89,0,0,1-.8.49,3.29,3.29,0,0,1-.94.14,2.61,2.61,0,0,1-.69-.09,1.73,1.73,0,0,1-.56-.28,1.35,1.35,0,0,1-.37-.48,1.67,1.67,0,0,1-.14-.69,1.44,1.44,0,0,1,.16-.73,1.17,1.17,0,0,1,.4-.45,1.7,1.7,0,0,1,.56-.26c.21-.05.42-.1.63-.13s.43-.06.63-.08a3.71,3.71,0,0,0,.55-.09.9.9,0,0,0,.38-.18.35.35,0,0,0,.13-.33.76.76,0,0,0-.07-.37.58.58,0,0,0-.2-.21.91.91,0,0,0-.29-.1l-.36,0a1.08,1.08,0,0,0-.66.18.82.82,0,0,0-.28.6Zm3.28,1.05a.66.66,0,0,1-.22.12l-.29.08-.33.05-.34,0a1.77,1.77,0,0,0-.31.08.85.85,0,0,0-.27.13.67.67,0,0,0-.19.22.74.74,0,0,0-.07.33.79.79,0,0,0,.07.32.61.61,0,0,0,.19.2.86.86,0,0,0,.28.11,1.84,1.84,0,0,0,.33,0,1.28,1.28,0,0,0,.65-.14.92.92,0,0,0,.34-.34,1,1,0,0,0,.14-.39c0-.14,0-.24,0-.32Z"/>
      <path class="a" d="M219.58,46.73V45.56H221v1.17Zm1.42.8V52.7h-1.42V47.53Z"/>
    </g>
    <path class="g" d="M.76, 93.47 s123.05-74.27, 253.7, 11.22"/>
    <polyline class="h" points="302.48 113.07 254.46 104.69 243.15 211.25 283.65 268.82 334.25 317.51 358.77 337.9 370.81 353.7"/>
    <path class="g" d="M162.75,464.91C270.17,376.12,370.81,353.7,370.81,353.7"/>
    <polyline class="h" points="162.75 464.91 216.64 550.53 249.28 617.36 295.63 585.66"/>
    <path class="g" d="M170.27,616.84s73-37.47,125.36-31.18"/>
    <path class="a" d="M299.65,113.07a2.84,2.84,0,1,1,2.83,2.83,2.84,2.84,0,0,1-2.83-2.83Z"/>
    <path class="a" d="M251.62,104.69a2.84,2.84,0,1,1,2.84,2.83,2.84,2.84,0,0,1-2.84-2.83Z"/>
    <path class="a" d="M331.42,317.51a2.84,2.84,0,1,1,2.83,2.83,2.84,2.84,0,0,1-2.83-2.83Z"/>
    <path class="a" d="M355.93,337.9a2.84,2.84,0,1,1,2.84,2.84,2.84,2.84,0,0,1-2.84-2.84Z"/>
    <path class="a" d="M368,353.7a2.84,2.84,0,1,1,2.84,2.83A2.84,2.84,0,0,1,368,353.7Z"/>
    <path class="a" d="M159.92,464.91a2.84,2.84,0,1,1,2.83,2.83,2.84,2.84,0,0,1-2.83-2.83Z"/>
    <path class="a" d="M213.8,550.53a2.84,2.84,0,1,1,2.84,2.84,2.84,2.84,0,0,1-2.84-2.84Z"/>
    <path class="a" d="M246.45,616.92a2.84,2.84,0,1,1,2.83,2.83,2.84,2.84,0,0,1-2.83-2.83Z"/>
    <path class="a" d="M168,616.92a2.84,2.84,0,1,1,2.84,2.83,2.84,2.84,0,0,1-2.84-2.83Z"/>
    <path class="a" d="M292.8,585.66a2.84,2.84,0,1,1,2.83,2.84,2.83,2.83,0,0,1-2.83-2.84Z"/>
  </g>
</svg>
