<?xml version="1.0" encoding="utf-8"?>
<!-- Generator: Adobe Illustrator 25.2.0, SVG Export Plug-In . SVG Version: 6.00 Build 0)  -->
<svg version="1.1" id="Ebene_2_1_" xmlns="http://www.w3.org/2000/svg" xmlns:xlink="http://www.w3.org/1999/xlink" x="0px" y="0px"
	 viewBox="0 0 108.8 106.4" style="enable-background:new 0 0 108.8 106.4;" xml:space="preserve">
<style type="text/css">
	.st0{fill:#FFFFFF;}
</style>
<g>
	<path class="st0" d="M81.8,39.4H68.2v-13v-1.6h-1.6H42.2h-1.6v1.6v13H27h-1.6V41v24.4V67H27h13.6v13v1.6h1.6h24.4h1.6V80V67h13.6
		h1.6v-1.6V41v-1.6H81.8z M77.9,46.4V60v0v1.6h-1.6H62.7v13.6v1.6v0h-1.6H47.6H46v0v-1.6V61.6H32.4h-1.6v0V60V46.5v-1.6h1.6H46v0
		V31.3v-1.6h1.6h13.5h1.6v1.6v13.5h13.6h1.6V46.4z"/>
	<path class="st0" d="M61.1,46.5V31.3H47.6v15.1H32.4V60v0h15.2v15.2h13.5V60h15.2V46.5H61.1z M65.8,53.9H55.1v10.6h-1.4V53.9H43
		v-1.4h10.7V41.8h1.4v10.7h10.7V53.9z"/>
</g>
</svg>
