<!DOCTYPE svg PUBLIC "-//W3C//DTD SVG 1.1//EN" "http://www.w3.org/Graphics/SVG/1.1/DTD/svg11.dtd">
<svg xmlns="http://www.w3.org/2000/svg" version="1.1" x="0" y="0" width="800" height="655">
<svg version="1.1" x="0" y="0" width="800" height="655" viewBox="0 0 853 698">
<style type="text/css">
	.st0{opacity:0.2;fill:#CBBB9D;}
	.st1{fill:#B0D5EE;}
	.st2{fill:none;stroke:#B0D5EE;stroke-width:2;stroke-miterlimit:10;}
	.st3{fill:#74BAE3;}
	.st4{fill:#CBBB9D;}

#pin path {
    stroke: black;
    fill: black;
}   

path.land, path.air { fill: none; stroke: black; stroke-width: 2px; stroke-linecap: round;}
.land {  }
.air { stroke-dasharray: 4 6;}
</style>
<defs>
<marker id="pin" markerWidth="13px" markerHeight="13px" refX="250" refY="500" viewBox="0 0 466 466">
    <path d="M233.292,0c-85.1,0-154.334,69.234-154.334,154.333c0,34.275,21.887,90.155,66.908,170.834         c31.846,57.063,63.168,104.643,64.484,106.64l22.942,34.775l22.941-34.774c1.317-1.998,32.641-49.577,64.483-106.64         c45.023-80.68,66.908-136.559,66.908-170.834C387.625,69.234,318.391,0,233.292,0z M233.292,233.291c-44.182,0-80-35.817-80-80         s35.818-80,80-80c44.182,0,80,35.817,80,80S277.473,233.291,233.292,233.291z"/>
</marker>
</defs>

<g id="Umriss_Karte">
	<path class="st0" d="M262.8,69.3c-0.6,1.6-2.8,1.7-3.6,0.2c-3.1-5.8-9-16.2-10.8-16.2c-2.6,0-11.1-4.7-12.4,0   c-1.3,4.7-0.9,11.1-4.7,11.1c-3.8,0-2.6-1.4-12.4-2.2c-9.8-0.8-14.1-0.4-15.8,3c-1.7,3.4-6,9-5.1,15.4s1.9,11.1-0.1,14.9   s0.1,8.1-2.5,11.1c-2.6,3-10.2,12.4-12,24.3c-1.7,12-1.3,25.6-3,26.1c-1.7,0.4-13.8-1.6-21.4,0c-6.8,1.4-23.3,34.4-24.8,37.6   c-1.5,3.2-2.3,8.3-4.9,9.4c-2.6,1.1-7.5,1.5-8.8,4.9c-1.3,3.4,1.5,12,0,16.4c-1.5,4.5-9,11.1-8.8,14.3c0.2,3.2,6,3.2,4.7,6.2   s-5.3,9-4.7,12c0.6,3,4.9,4.9,3,6.8s-9.3,7.4-10.3,9.5c-1.1,2.1-5.9-12.5-11.2-10.8s-6.8,2.3-9.4,4.9c-2.6,2.6-8.5,12.4-9,14.9   c-0.4,2.6,4.7,18.6,2.3,22.8c-2.3,4.3-6.6,4.9-6.8,9.2c-0.2,4.3-3.4,11.5-5.3,16.7c-1.9,5.1-3,19-1.9,25.8   c1.1,6.8,3.2,37.2,1.7,40.4c-1.5,3.2-4.7,6.2-7.3,7.9s-4.7-0.4-9.6,1.3c-4.9,1.7-9,0.9-10.7-1.5c-1.7-2.3-23.7-2.6-25.4,0.4   s1.3,16-1.5,18.2s-12,10.5-10.2,15.8c1.7,5.3,10.7,1.9,13.5,4.1s3,5.1,6.6,5.1s4.9-3.6,7.9-1.7s9.8,0.2,13,3.8   c3.2,3.6,7.5,4.1,10.9,8.3c3.4,4.3,7.9,7.3,7.9,9.8c0,2.6-1.3,6.8,2.3,9.2c3.6,2.3,6.6,1.1,7.3,3c0.6,1.9,0.2,8.1,3.4,9.4   c3.2,1.3,10.9,0.6,13,4.1c2.1,3.4-1.1,9,1.3,10.5c2.3,1.5,6.2-1.5,9.4,1.3s5.8,11.3,7.9,15.8c2.1,4.5,6.8,16,9,20.7   c2.1,4.7,0.6,12.4,2.1,14.7c1.5,2.3,3.6,3.4,4.5,7.5c0.9,4.1,1.1,4.9,3.2,6.4c2.1,1.5,6.4,3,7.2,5.8c0.7,2.8,0.3,8.1,3.7,7.7   c3.4-0.4,5.6-5.8,9.2-4.7c3.6,1.1,4.1,3.2,7,3.4c3,0.2,5.8-1.3,7.5-0.2c1.7,1.1,4.7,2.3,4.7,4.5s-1.7,4.1-1.1,6   c0.6,1.9-0.6,8.3-1.3,12.6c-0.6,4.3,0,9.4,1.5,12.4c1.5,3,7.3,5.3,7.9,8.8c0.6,3.4,0.6,8.8,4.9,9.8c4.3,1.1,46.8-2.8,50.8,0   s63.8,47.2,69,47.6c5.1,0.4,29.5-1.9,32,0c2.6,1.9,2.8,5.6,7.3,5.8c4.5,0.2,15.6-2.1,19,0c3.4,2.1,4.3,3.2,9.8,3.2   s9.4-0.2,10.9,1.5c1.5,1.7,4.7,3,5.3,0c0.6-3,7.5-9.8,10.7-13.5c3.2-3.6,4.1-9.4,6.8-11.1c2.8-1.7,34.8-19,40-19.6   c5.2-0.6,7.2-1.1,8.7-2.3c1.5-1.3,3.6-3.8,5.3-1.3c1.7,2.6,2.3,6.6,4.7,7.3s5.3-0.2,7.3,3.6s4.7,7.9,8.3,7.7   c3.6-0.2,27.7-3.3,32.7-3c3.8,0.3,6.4,5.1,8.5,2.3c2.1-2.8,1.3-9.2,9.8-11.3c8.5-2.1,44.8-8.5,47.8-10.7c3-2.1,6.8-24.8,47.8-31.6   c41-6.8,70-0.9,70-0.9l175.1-179.8h-55.9l-170-57.5l-24.1-21.5c0,0-8.8,0.6-11.4-2.8c-2.6-3.4-4.6-10.8-7.1-13.1   c-2.6-2.3-4.3-7.1-5.1-11.7c-0.9-4.6-4.3-3.4-7.4-5.7s-3.1-7.7-6.3-10.2c-3.1-2.6-8-4.3-8.5-7.1c-0.6-2.8,0-12.2-3.4-15.1   s-8.5-9.4-6.8-10c1.7-0.6,2.3-3.4,4.3-5.7c2-2.3,5.4-8.3,7.7-9.4c2.3-1.1,6.5-4.3,2-5.1s-6-5.4-10.5-5.7   c-4.6-0.3-13.1,2.3-16.8,3.4c-3.7,1.1-15.7,0.3-16.8,1.4c-1.1,1.1-6,5.1-10.5,4c-4.6-1.1-8.5-2.8-8.5-2.8s0-21.4-1.1-25.3   c-1.1-4,0.6-12,1.1-15.1s5.1-6,8.5-10c3.4-4,24.2-36.2,24.2-36.2s-9.1-19.1-13.7-20.8c-4.6-1.7-8.5,0.3-10.8-4   c-2.3-4.3-7.1-19.9-12.5-23.3c-5.4-3.4-26.2-17.4-29-19.9c-2.8-2.6-13.7-23.3-17.7-26.5c-4-3.1-6.9-8-11.1-7.7   c-4.2,0.3-11.6-2.3-20.2-8.3c-8.5-6-10.5-10.2-17.4-9.2s-11.1,5.2-12.5,2.4c-1.4-2.8-5.4-5.7-9.7-4.6c-4.3,1.1-5.7-4.6-8.5-3.4   c-2.8,1.1-7.4,3.4-10.5,3.7c-3.1,0.3-8.3,6-8.8,4.3c-0.6-1.7-5.1-15.1-8.8-12.8s-4.6,7.1-10.5,8.8s-19.9,6.5-22.8,5.4   s-8.5-14.2-12.2-15.7s-6.3,0.3-10.5-2c-4.3-2.3-7.7-10.8-10.2-10.5C280.1,27.1,267.3,58.1,262.8,69.3z"/>
</g>
<g id="Seen_Flüsse">
	<path class="st1" d="M236.7,183c-3.2,0.4-7.1,5.3-7.2,12.5c-0.1,7.2,3.1,10.8,5.8,12.8c2.7,2.1,3.8,0,5.8,0c1.9,0,6.5,0,6.6,2.5   c0.1,2.5-1.3,8.5,1.2,9.2c2.5,0.7,5.3-8.7,7.1-10.1c1.8-1.3,7.4-11.5,7.8-15.4c0.4-3.8,0.7-12.4-5.2-14.7   c-4.6-1.8-8.3-0.9-10.5,1.7c-2.2,2.7-4.7,5.3-6.6,4.6C239.5,185.5,240,182.5,236.7,183z"/>
	<path class="st2" d="M116.6,244.4c0,0,9.3,0.8,9.3,6.2s-4.6,27.3-2.8,29.6c1.7,2.3,9.4,8,10,10.2c0.6,2.3,0.3,15.1,3.4,16.8   s6,1.2,9.1,3.3c3.1,2.1,5.7,7.8,8.3,7.5c2.6-0.3,2.8-5.1,4.6-5.7c1.7-0.6,6.5,1.1,6.5,1.1s4.3-6,7.1-6.5c2.8-0.6,9.7,2.6,12.8,0.9   c3.1-1.7,10-12.8,10.8-14.8c0.9-2,1.4-6.5,4.3-6.3c2.8,0.3,2.3,6.8,5.1,7.4s9.7-0.6,14.5,0.3c4.8,0.9,9.7,4.1,13.7,4.7   c4,0.7,7.4-0.5,8.3,1.2c0.9,1.7-1.4,7.7,2.3,10.1c3.7,2.4,11.1-0.1,14.2,1.8s4.6,10.8,11.1,12c6.5,1.1,22.2-10.2,28.5-12.5   c6.3-2.3,15.7-6.8,16.5-11.4c0.9-4.6-2.3-18.2,0-20.8c2.3-2.6,4.6-17.7,1.7-22.5c-2.8-4.8-12.5-8.7-19.6-9.6   c-7.1-0.9-21.9-4.6-25.9-10.7c-4-6.1-6.5-9.8-12.2-10.7c-5.7-0.9-9.5-7.3-9.5-7.3"/>
	<path class="st1" d="M276.5,518c-1.9,3.6,1.2,12.9-0.9,15.9c-2.1,3-11.1,8.3-9.4,11.5s9-0.2,10.9-2.8c1.9-2.6,2.8-7.2,5.3-10.2   c2.6-3,8.3-8.3,8.3-11.8c0-3.4-2.8-6.8-4.5-5.5c-1.7,1.2-3.4-0.9-5.3-0.3C279.1,515.5,276.5,518,276.5,518z"/>
	<path class="st1" d="M259.9,555c-1.5,3.2-3.6,6.4-2.1,8.3c1.5,1.9,2.6,0.2,5.8-2.3c3.2-2.6,4.8-6.2,2.6-8.5c-1.1-1.2-2.2-1.1-3.8,0   C260.4,553.6,259.9,555,259.9,555z"/>
	<path class="st1" d="M311.3,483.4c-1.2,1.2-3,6.8,0,7.7c3,0.9,6.8-6.4,4.7-7.7C313.9,482.1,312.6,482.2,311.3,483.4z"/>
	<path class="st1" d="M314.2,459.8c-0.7,0.1-1.4,0.3-2,0.8c-2.6,2-4.7,4.1-1.5,4.9c3.6,0.9,3.4-1.6,5.4,0s6.4,2.3,6.8-0.3   c0.4-2.6,1.3-4.7-2-5.3C318.7,459.5,315.7,459.7,314.2,459.8z"/>
	<path class="st1" d="M320.9,449.6c-0.7-0.2-1.6-0.1-2.2,0.4c-1.2,1.2-1.5,3-0.2,4.8c1.6,2.3,3,5.8,4.4,4.9c1.4-0.9,3.1-6,2.1-7.7   C324.4,450.8,322.2,450,320.9,449.6z"/>
	<path class="st1" d="M329.5,451.7c0.5-0.9,1.5-1.4,2.5-1.1c2,0.5,3.9,1.8,3.7,3.9c-0.3,2.7-3.4,6.4-5.4,6.4s-3.1-1.7-2.3-5.3   C328.5,453.9,329,452.6,329.5,451.7z"/>
	<path class="st1" d="M331.2,439.5c0.9,1.5,3.9,1,5.3,0c1.9-1.3,2.3-3.5,3.5-5.1c1.7-2.3,3.1-5.1,1.4-6.5c-1.7-1.4-2.5,1.2-4.7,1   c-1.1-0.1-2.1-3.1-4.1-1.4c-2,1.7-3.3,4.4-3.1,7C329.6,435.8,330.4,438.3,331.2,439.5z"/>
	<path class="st2" d="M499,245.1c0,0-3.6,0.9-6.3-3.4c-2.7-4.3,5.9-16,4.6-18.7c-1.3-2.7-7.7-0.3-11.1,0c-3.4,0.3-5.6-5-7.7-4.3   s-8.5,2.1-9.1-0.1s-4.2-6-8-4.8s-3.4,25.2-9.4,29s-20.1,5.6-23.1,14.9c-3,9.4,5.6,29.3,5.6,33.4s2.8,4.4,1.8,8.6s0.5,6.3,0,9.2   c-0.5,3-3.9,7.7-8,7.7s-10,2.4-11.3,7.6c-1.3,5.2,5.1,11.5,3.4,15.4c-1.7,3.9-5.4,2.2-9.6,8.6c-4.1,6.4-5.9,2.2-4.1,9.2   c1.7,7,8.3,12.2,4.1,19.4c-4.1,7.3-10.1,2.6-13.1,5.3s-0.9,5.2-4.3,8c-3.4,2.8-10.8,4.6-13.8,8.4s-8.4,10.7-13.5,10   c-5.1-0.6-8.7-4.5-12.7-4.1c-4,0.4-6.1,5.6-6.1,5.6s-3-1.3-7.3-1.5s-13.3-0.2-10.7-6.6c2.6-6.4,3.7-6.4-2-7.3s-1.9-4-6-4.6   c-4-0.6-6.3,0.7-9.4-3.1s-1.9-5.4-9.1-8.3c-7.3-2.8-7.7-6.2-12.2-4.3"/>
	<path class="st1" d="M506,238.3v14.2c0,0-7.7-1.7-7-7.3C499.7,239.5,506,238.3,506,238.3z"/>
	<path class="st1" d="M349.6,405.3c-0.3,0.1-0.5,0.2-0.8,0.4c-3.3,2.2-5,3.6-3.6,5.8c1.4,2.3,3.4,2.1,5,0c1.6-2.1,4.7-6.1,3.4-6.6   C352.6,404.4,350.5,405,349.6,405.3z"/>
</g>
<g id="Städte">
	<g>
		<path d="M242.8,356.5h2.8l3,11.4h-2.4l-0.5-2.4h-3l-0.5,2.4h-2.4L242.8,356.5z M243.1,363.6h2.2l-1.1-5.1h0L243.1,363.6z"/>
		<path d="M254.5,367L254.5,367c-0.5,0.8-1.1,1.1-2,1.1c-1.8,0-2.6-1.3-2.6-4.5s0.8-4.5,2.6-4.5c0.8,0,1.4,0.3,1.9,1h0v-3.6h2.2    v11.4h-2.1V367z M253.2,366.5c1,0,1.2-1,1.2-2.8s-0.2-2.8-1.2-2.8c-1,0-1.2,1-1.2,2.8S252.3,366.5,253.2,366.5z"/>
		<path d="M263.1,367L263.1,367c-0.5,0.8-1.1,1.1-2,1.1c-1.8,0-2.6-1.3-2.6-4.5s0.8-4.5,2.6-4.5c0.8,0,1.4,0.3,1.9,1h0v-3.6h2.2    v11.4h-2.1V367z M261.9,366.5c1,0,1.2-1,1.2-2.8s-0.2-2.8-1.2-2.8c-1,0-1.2,1-1.2,2.8S260.9,366.5,261.9,366.5z"/>
		<path d="M267.4,356.4h2.2v1.9h-2.2V356.4z M267.4,359.3h2.2v8.6h-2.2V359.3z"/>
		<path d="M273.4,365.1v0.3c0,0.8,0.4,1.2,1.2,1.2c0.7,0,1.1-0.3,1.1-1c0-0.6-0.4-0.8-0.8-1l-1.6-0.6c-1.2-0.4-1.8-1.2-1.8-2.4    c0-1.4,0.9-2.6,3.2-2.6c2,0,2.9,0.9,2.9,2.4v0.4h-2c0-0.9-0.3-1.3-1-1.3c-0.6,0-1,0.3-1,0.9c0,0.4,0.2,0.8,1,1l1.3,0.4    c1.4,0.5,1.9,1.2,1.9,2.5c0,1.8-1.3,2.7-3.2,2.7c-2.5,0-3.2-1.1-3.2-2.7v-0.3H273.4z"/>
		<path d="M286.3,356.5h2.8l3,11.4h-2.4l-0.5-2.4h-3l-0.5,2.4h-2.4L286.3,356.5z M286.6,363.6h2.2l-1.1-5.1h0L286.6,363.6z"/>
		<path d="M293.6,356.5h2.2v3.6h0c0.5-0.7,1-1,1.9-1c1.8,0,2.6,1.3,2.6,4.5s-0.8,4.5-2.6,4.5c-0.9,0-1.5-0.3-2-1.1h0v0.9h-2.1V356.5    z M297,366.5c1,0,1.2-1,1.2-2.8s-0.2-2.8-1.2-2.8c-1,0-1.2,1-1.2,2.8S296,366.5,297,366.5z"/>
		<path d="M304.1,364v0.7c0,1,0.3,2,1.1,2c0.7,0,1-0.6,1.2-1.6h2c-0.1,2-1,3.1-3.1,3.1c-3.2,0-3.3-2.5-3.3-4.6    c0-2.3,0.4-4.5,3.4-4.5c2.6,0,3.2,1.7,3.2,4.4v0.5H304.1z M306.4,362.7c0-1.3-0.2-2-1.1-2c-0.9,0-1.1,0.9-1.1,1.7v0.3H306.4z"/>
		<path d="M310.3,356.5h2.2v3.6h0c0.5-0.7,1-1,1.9-1c1.8,0,2.6,1.3,2.6,4.5s-0.8,4.5-2.6,4.5c-0.9,0-1.5-0.3-2-1.1h0v0.9h-2.1V356.5    z M313.6,366.5c1,0,1.2-1,1.2-2.8s-0.2-2.8-1.2-2.8c-1,0-1.2,1-1.2,2.8S312.7,366.5,313.6,366.5z"/>
		<path d="M318.9,362v-0.2c0-2,1.4-2.7,3-2.7c2.6,0,3.1,1.1,3.1,2.6v4.5c0,0.8,0,1.2,0.3,1.7h-2.1c-0.1-0.3-0.2-0.6-0.3-0.9h0    c-0.5,0.9-1.1,1.1-2.2,1.1c-1.5,0-2.1-1.3-2.1-2.5c0-1.6,0.7-2.3,2.2-2.7l1.2-0.3c0.7-0.2,0.9-0.4,0.9-1c0-0.7-0.3-1.1-1-1.1    c-0.7,0-1,0.4-1,1.1v0.2H318.9z M322.9,363.6c-0.3,0.2-0.7,0.4-0.9,0.4c-0.9,0.2-1.2,0.6-1.2,1.4c0,0.7,0.2,1.2,0.8,1.2    s1.4-0.4,1.4-1.3V363.6z"/>
	</g>
	<g>
		<path d="M214.9,531.2h2.8l3,11.4h-2.4l-0.5-2.4h-3l-0.5,2.4h-2.4L214.9,531.2z M215.2,538.3h2.2l-1.1-5.1h0L215.2,538.3z"/>
		<path d="M222.1,534h2.1v1.2h0c0.4-0.8,1.1-1.4,2-1.4c0.1,0,0.3,0,0.4,0v2.1c-0.2,0-0.5,0-0.7,0c-0.8,0-1.6,0.4-1.6,1.6v5.2h-2.2    V534z"/>
		<path d="M228.1,531.2h2.2v3.6h0c0.5-0.7,1-1,1.9-1c1.8,0,2.6,1.3,2.6,4.5s-0.8,4.5-2.6,4.5c-0.9,0-1.5-0.3-2-1.1h0v0.9h-2.1V531.2    z M231.5,541.2c1,0,1.2-1,1.2-2.8s-0.2-2.8-1.2-2.8c-1,0-1.2,1-1.2,2.8S230.5,541.2,231.5,541.2z"/>
		<path d="M236.7,536.7v-0.2c0-2,1.4-2.7,3-2.7c2.6,0,3.1,1.1,3.1,2.6v4.5c0,0.8,0,1.2,0.3,1.7H241c-0.1-0.3-0.2-0.6-0.3-0.9h0    c-0.5,0.9-1.1,1.1-2.2,1.1c-1.5,0-2.1-1.3-2.1-2.5c0-1.6,0.7-2.3,2.2-2.7l1.2-0.3c0.7-0.2,0.9-0.4,0.9-1c0-0.7-0.3-1.1-1-1.1    c-0.7,0-1,0.4-1,1.1v0.2H236.7z M240.8,538.3c-0.3,0.2-0.7,0.4-0.9,0.4c-0.9,0.2-1.2,0.6-1.2,1.4c0,0.7,0.2,1.2,0.8,1.2    s1.4-0.4,1.4-1.3V538.3z"/>
		<path d="M212.7,550.4h3.4l1.6,8.1h0l1.6-8.1h3.4v11.4h-2.1v-9.1h0l-2,9.1h-1.8l-2-9.1h0v9.1h-2.1V550.4z"/>
		<path d="M225.2,550.3h2.2v1.9h-2.2V550.3z M225.2,553.2h2.2v8.6h-2.2V553.2z"/>
		<path d="M229.6,553.2h2.1v1h0c0.5-0.8,1.3-1.2,2.2-1.2c1.4,0,2.2,0.8,2.2,2.4v6.4h-2.2v-5.9c0-0.9-0.3-1.2-0.9-1.2    c-0.8,0-1.2,0.5-1.2,1.4v5.7h-2.2V553.2z"/>
		<path d="M242.3,556.3c0-0.8-0.2-1.7-1-1.7c-1.1,0-1.3,1-1.3,2.9c0,2.1,0.2,3,1.2,3c0.7,0,1.1-0.6,1.1-2h2.1c0,2.3-0.9,3.5-3.3,3.5    c-2.2,0-3.3-1.1-3.3-4.5c0-3.5,1.5-4.5,3.5-4.5c2,0,3.1,1.3,3.1,3.3H242.3z"/>
		<path d="M246.2,550.4h2.2v3.7h0c0.4-0.7,1.2-1.1,2.1-1.1c1.4,0,2.2,0.8,2.2,2.4v6.4h-2.2v-5.9c0-0.9-0.3-1.2-0.9-1.2    c-0.8,0-1.2,0.5-1.2,1.4v5.7h-2.2V550.4z"/>
	</g>
	<g>
		<path d="M325.6,494.7h2.8l3,11.4H329l-0.5-2.4h-3l-0.5,2.4h-2.4L325.6,494.7z M325.9,501.8h2.2l-1.1-5.1h0L325.9,501.8z"/>
		<path d="M332.2,497.5h2.2l1,6.1h0l1.1-6.1h2.4l1.1,6.1h0l1-6.1h2.1l-1.9,8.6h-2.5l-1.1-6.1h0l-1.1,6.1H334L332.2,497.5z"/>
		<path d="M344.7,500.2V500c0-2,1.4-2.7,3-2.7c2.6,0,3.1,1.1,3.1,2.6v4.5c0,0.8,0,1.2,0.3,1.7H349c-0.1-0.3-0.2-0.6-0.3-0.9h0    c-0.5,0.9-1.1,1.1-2.2,1.1c-1.5,0-2.1-1.3-2.1-2.5c0-1.6,0.7-2.3,2.2-2.7l1.2-0.3c0.7-0.2,0.9-0.4,0.9-1c0-0.7-0.3-1.1-1-1.1    c-0.7,0-1,0.4-1,1.1v0.2H344.7z M348.7,501.8c-0.3,0.2-0.7,0.4-0.9,0.4c-0.9,0.2-1.2,0.6-1.2,1.4c0,0.7,0.2,1.2,0.8,1.2    s1.4-0.4,1.4-1.3V501.8z"/>
		<path d="M354.7,503.3v0.3c0,0.8,0.4,1.2,1.2,1.2c0.7,0,1.1-0.3,1.1-1c0-0.6-0.4-0.8-0.8-1l-1.6-0.6c-1.2-0.4-1.8-1.2-1.8-2.4    c0-1.4,0.9-2.6,3.2-2.6c2,0,2.9,0.9,2.9,2.4v0.4h-2c0-0.9-0.3-1.3-1-1.3c-0.6,0-1,0.3-1,0.9c0,0.4,0.2,0.8,1,1l1.3,0.4    c1.4,0.5,1.9,1.2,1.9,2.5c0,1.8-1.3,2.7-3.2,2.7c-2.5,0-3.2-1.1-3.2-2.7v-0.3H354.7z"/>
		<path d="M360.8,500.2V500c0-2,1.4-2.7,3-2.7c2.6,0,3.1,1.1,3.1,2.6v4.5c0,0.8,0,1.2,0.3,1.7h-2.1c-0.1-0.3-0.2-0.6-0.3-0.9h0    c-0.5,0.9-1.1,1.1-2.2,1.1c-1.5,0-2.1-1.3-2.1-2.5c0-1.6,0.7-2.3,2.2-2.7l1.2-0.3c0.7-0.2,0.9-0.4,0.9-1c0-0.7-0.3-1.1-1-1.1    c-0.7,0-1,0.4-1,1.1v0.2H360.8z M364.8,501.8c-0.3,0.2-0.7,0.4-0.9,0.4c-0.9,0.2-1.2,0.6-1.2,1.4c0,0.7,0.2,1.2,0.8,1.2    s1.4-0.4,1.4-1.3V501.8z"/>
	</g>
	<g>
		<path d="M362.8,430.6h3.9c1.9,0,3.2,0.7,3.2,2.9c0,1.2-0.6,2.2-1.7,2.5v0c1.3,0.2,2.1,1.1,2.1,2.7c0,1.8-0.9,3.3-3.6,3.3h-3.9    V430.6z M365.1,435.2h0.7c1.3,0,1.8-0.4,1.8-1.5c0-1.1-0.5-1.5-1.7-1.5h-0.8V435.2z M365.1,440.3h0.9c1.1,0,1.9-0.4,1.9-1.7    c0-1.3-0.8-1.7-1.8-1.7h-1V440.3z"/>
		<path d="M372.2,436v-0.2c0-2,1.4-2.7,3-2.7c2.6,0,3.1,1.1,3.1,2.6v4.5c0,0.8,0,1.2,0.3,1.7h-2.1c-0.1-0.3-0.2-0.6-0.3-0.9h0    c-0.5,0.9-1.1,1.1-2.2,1.1c-1.5,0-2.1-1.3-2.1-2.5c0-1.6,0.7-2.3,2.2-2.7l1.2-0.3c0.7-0.2,0.9-0.4,0.9-1c0-0.7-0.3-1.1-1-1.1    c-0.7,0-1,0.4-1,1.1v0.2H372.2z M376.3,437.7c-0.3,0.2-0.7,0.4-0.9,0.4c-0.9,0.2-1.2,0.6-1.2,1.4c0,0.7,0.2,1.2,0.8,1.2    s1.4-0.4,1.4-1.3V437.7z"/>
		<path d="M380.7,430.6h2.2V442h-2.2V430.6z"/>
		<path d="M387,438v0.7c0,1,0.3,2,1.1,2c0.7,0,1-0.6,1.2-1.6h2c-0.1,2-1,3.1-3.1,3.1c-3.2,0-3.3-2.5-3.3-4.6c0-2.3,0.4-4.5,3.4-4.5    c2.6,0,3.2,1.7,3.2,4.4v0.5H387z M389.2,436.7c0-1.3-0.2-2-1.1-2c-0.9,0-1.1,0.9-1.1,1.7v0.3H389.2z"/>
		<path d="M397.7,430.6h3.4l1.6,8.1h0l1.6-8.1h3.4V442h-2.1v-9.1h0l-2,9.1h-1.8l-2-9.1h0v9.1h-2.1V430.6z"/>
		<path d="M413.2,433.1c2.7,0,3.4,1.5,3.4,4.5c0,2.9-0.9,4.5-3.4,4.5c-2.7,0-3.4-1.5-3.4-4.5C409.8,434.7,410.7,433.1,413.2,433.1z     M413.2,440.7c0.9,0,1.2-0.9,1.2-3s-0.3-3-1.2-3c-1.1,0-1.2,1.3-1.2,3S412.1,440.7,413.2,440.7z"/>
		<path d="M422.8,441L422.8,441c-0.5,0.8-1.3,1.2-2.2,1.2c-1.4,0-2.2-0.8-2.2-2.4v-6.4h2.2v5.9c0,0.9,0.3,1.2,0.9,1.2    c0.8,0,1.2-0.5,1.2-1.4v-5.7h2.2v8.6h-2.1V441z"/>
		<path d="M427,433.4h2.1v1h0c0.5-0.8,1.3-1.2,2.2-1.2c1.4,0,2.2,0.8,2.2,2.4v6.4h-2.2V436c0-0.9-0.3-1.2-0.9-1.2    c-0.8,0-1.2,0.5-1.2,1.4v5.7H427V433.4z"/>
		<path d="M436.2,430.9h2.2v2.5h1.3v1.5h-1.3v4.7c0,0.7,0.1,0.9,0.8,0.9c0.2,0,0.4,0,0.5,0v1.5c-0.5,0-0.9,0.1-1.4,0.1    c-1.7,0-2-0.5-2-2.3v-4.9H435v-1.5h1.1V430.9z"/>
		<path d="M441,436v-0.2c0-2,1.4-2.7,3-2.7c2.6,0,3.1,1.1,3.1,2.6v4.5c0,0.8,0,1.2,0.3,1.7h-2.1c-0.1-0.3-0.2-0.6-0.3-0.9h0    c-0.5,0.9-1.1,1.1-2.2,1.1c-1.5,0-2.1-1.3-2.1-2.5c0-1.6,0.7-2.3,2.2-2.7l1.2-0.3c0.7-0.2,0.9-0.4,0.9-1c0-0.7-0.3-1.1-1-1.1    c-0.7,0-1,0.4-1,1.1v0.2H441z M445.1,437.7c-0.3,0.2-0.7,0.4-0.9,0.4c-0.9,0.2-1.2,0.6-1.2,1.4c0,0.7,0.2,1.2,0.8,1.2    c0.6,0,1.4-0.4,1.4-1.3V437.7z"/>
		<path d="M449.5,430.4h2.2v1.9h-2.2V430.4z M449.5,433.4h2.2v8.6h-2.2V433.4z"/>
		<path d="M453.9,433.4h2.1v1h0c0.5-0.8,1.3-1.2,2.2-1.2c1.4,0,2.2,0.8,2.2,2.4v6.4h-2.2V436c0-0.9-0.3-1.2-0.9-1.2    c-0.8,0-1.2,0.5-1.2,1.4v5.7h-2.2V433.4z"/>
		<path d="M469.7,430.6l2.8,7.8h0v-7.8h2.1V442H472l-2.8-8h0v8h-2.1v-11.4H469.7z"/>
		<path d="M476.9,430.6h4c2.3,0,3.1,1.7,3.1,3.4c0,2.4-1.5,3.4-3.6,3.4h-1.2v4.6h-2.3V430.6z M479.2,435.7h1c0.9,0,1.5-0.5,1.5-1.7    c0-1.1-0.4-1.8-1.6-1.8h-1V435.7z"/>
	</g>
	<g>
		<path d="M301.3,126.2v0.3c0,1.1,0.3,1.8,1.5,1.8c0.7,0,1.4-0.4,1.4-1.4c0-1-0.5-1.4-2-2c-2-0.7-3-1.6-3-3.5c0-2.2,1.4-3.4,3.5-3.4    c2,0,3.5,0.9,3.5,3.1v0.3H304c0-1.1-0.4-1.7-1.2-1.7c-1,0-1.3,0.7-1.3,1.3c0,0.7,0.2,1.1,1.2,1.6l1.8,0.8c1.7,0.8,2.2,1.6,2.2,3    c0,2.4-1.5,3.5-4,3.5c-2.6,0-3.6-1.2-3.6-3.3v-0.5H301.3z"/>
		<path d="M308.4,118.2h2.2v1.9h-2.2V118.2z M308.4,121.2h2.2v8.6h-2.2V121.2z"/>
		<path d="M312.8,121.2h2.1v0.9h0c0.6-0.8,1.2-1.1,2.2-1.1c1,0,1.7,0.5,2,1.4h0c0.3-0.9,1.1-1.4,2.2-1.4c1.5,0,2.1,0.9,2.1,2.6v6.3    h-2.2v-6c0-0.7-0.2-1.1-0.9-1.1c-0.7,0-1.2,0.5-1.2,1.5v5.7H317v-6c0-0.7-0.2-1.1-0.9-1.1c-0.7,0-1.2,0.5-1.2,1.5v5.7h-2.2V121.2z    "/>
		<path d="M325.7,118.2h2.2v1.9h-2.2V118.2z M325.7,121.2h2.2v8.6h-2.2V121.2z"/>
		<path d="M332,125.8v0.7c0,1,0.3,2,1.1,2c0.7,0,1-0.6,1.2-1.6h2c-0.1,2-1,3.1-3.1,3.1c-3.2,0-3.3-2.5-3.3-4.6    c0-2.3,0.4-4.4,3.4-4.4c2.6,0,3.2,1.7,3.2,4.4v0.5H332z M334.2,124.5c0-1.3-0.2-2-1.1-2c-0.9,0-1.1,0.9-1.1,1.7v0.3H334.2z"/>
		<path d="M338.1,121.2h2.1v1h0c0.5-0.8,1.3-1.2,2.2-1.2c1.4,0,2.2,0.8,2.2,2.4v6.4h-2.2v-5.9c0-0.9-0.3-1.2-0.9-1.2    c-0.8,0-1.2,0.5-1.2,1.4v5.7h-2.2V121.2z"/>
		<path d="M351.2,124.2v1.9h-4.5v-1.9H351.2z"/>
		<path d="M299.5,137.6h3.4l1.6,8.1h0l1.6-8.1h3.4V149h-2.1v-9.1h0l-2,9.1h-1.8l-2-9.1h0v9.1h-2.1V137.6z"/>
		<path d="M315,140.2c2.7,0,3.4,1.5,3.4,4.5c0,2.9-0.9,4.5-3.4,4.5c-2.7,0-3.4-1.5-3.4-4.5C311.6,141.7,312.5,140.2,315,140.2z     M315,147.7c0.9,0,1.2-0.9,1.2-3s-0.3-3-1.2-3c-1.1,0-1.2,1.3-1.2,3S313.9,147.7,315,147.7z"/>
		<path d="M324.6,148L324.6,148c-0.5,0.8-1.3,1.2-2.2,1.2c-1.4,0-2.2-0.8-2.2-2.4v-6.4h2.2v5.9c0,0.9,0.3,1.2,0.9,1.2    c0.8,0,1.2-0.5,1.2-1.4v-5.7h2.2v8.6h-2.1V148z"/>
		<path d="M328.8,140.4h2.1v1h0c0.5-0.8,1.3-1.2,2.2-1.2c1.4,0,2.2,0.8,2.2,2.4v6.4h-2.2v-5.9c0-0.9-0.3-1.2-0.9-1.2    c-0.8,0-1.2,0.5-1.2,1.4v5.7h-2.2V140.4z"/>
		<path d="M338,137.9h2.2v2.5h1.3v1.5h-1.3v4.7c0,0.7,0.1,0.9,0.8,0.9c0.2,0,0.4,0,0.5,0v1.5c-0.5,0-0.9,0.1-1.4,0.1    c-1.7,0-2-0.5-2-2.3v-4.9h-1.1v-1.5h1.1V137.9z"/>
		<path d="M342.8,143v-0.2c0-2,1.4-2.7,3-2.7c2.6,0,3.1,1.1,3.1,2.6v4.5c0,0.8,0,1.2,0.3,1.7h-2.1c-0.1-0.3-0.2-0.6-0.3-0.9h0    c-0.5,0.9-1.1,1.1-2.2,1.1c-1.5,0-2.1-1.3-2.1-2.5c0-1.6,0.7-2.3,2.2-2.7l1.2-0.3c0.7-0.2,0.9-0.4,0.9-1c0-0.7-0.3-1.1-1-1.1    c-0.7,0-1,0.4-1,1.1v0.2H342.8z M346.9,144.7c-0.3,0.2-0.7,0.4-0.9,0.4c-0.9,0.2-1.2,0.6-1.2,1.4c0,0.7,0.2,1.2,0.8,1.2    s1.4-0.4,1.4-1.3V144.7z"/>
		<path d="M351.3,137.4h2.2v1.9h-2.2V137.4z M351.3,140.4h2.2v8.6h-2.2V140.4z"/>
		<path d="M355.7,140.4h2.1v1h0c0.5-0.8,1.3-1.2,2.2-1.2c1.4,0,2.2,0.8,2.2,2.4v6.4H360v-5.9c0-0.9-0.3-1.2-0.9-1.2    c-0.8,0-1.2,0.5-1.2,1.4v5.7h-2.2V140.4z"/>
		<path d="M365.9,146.2v0.3c0,0.8,0.4,1.2,1.2,1.2c0.7,0,1.1-0.3,1.1-1c0-0.6-0.4-0.8-0.8-1l-1.6-0.6c-1.2-0.4-1.8-1.2-1.8-2.4    c0-1.4,0.9-2.6,3.2-2.6c2,0,2.9,0.9,2.9,2.4v0.4h-2c0-0.9-0.3-1.3-1-1.3c-0.6,0-1,0.3-1,0.9c0,0.4,0.2,0.8,1,1l1.3,0.4    c1.4,0.5,1.9,1.2,1.9,2.5c0,1.8-1.3,2.7-3.2,2.7c-2.5,0-3.2-1.1-3.2-2.7v-0.3H365.9z"/>
	</g>
	<g>
		<path d="M474.6,318.9h3.8c3.2,0,3.8,2.2,3.8,5.6c0,4-0.9,5.9-3.9,5.9h-3.6V318.9z M476.9,328.6h1c1.6,0,1.9-1,1.9-4.1    c0-2.6-0.2-3.9-2-3.9h-1V328.6z"/>
		<path d="M484.4,318.8h2.2v1.9h-2.2V318.8z M484.4,321.7h2.2v8.6h-2.2V321.7z"/>
		<path d="M488.8,321.7h2.1v1.2h0c0.4-0.8,1.1-1.4,2-1.4c0.1,0,0.3,0,0.4,0v2.1c-0.2,0-0.5,0-0.7,0c-0.8,0-1.6,0.4-1.6,1.6v5.2h-2.2    V321.7z"/>
		<path d="M496.6,326.4v0.7c0,1,0.3,2,1.1,2c0.7,0,1-0.6,1.2-1.6h2c-0.1,2-1,3.1-3.1,3.1c-3.2,0-3.3-2.5-3.3-4.6    c0-2.3,0.4-4.5,3.4-4.5c2.6,0,3.2,1.7,3.2,4.4v0.5H496.6z M498.9,325.1c0-1.3-0.2-2-1.1-2c-0.9,0-1.1,0.9-1.1,1.7v0.3H498.9z     M497.5,318.4h2.2l-1.6,2.3h-1.5L497.5,318.4z"/>
		<path d="M507.4,318.9h3.8c3.2,0,3.8,2.2,3.8,5.6c0,4-0.9,5.9-3.9,5.9h-3.6V318.9z M509.7,328.6h1c1.6,0,1.9-1,1.9-4.1    c0-2.6-0.2-3.9-2-3.9h-1V328.6z"/>
		<path d="M517.1,324.4v-0.2c0-2,1.4-2.7,3-2.7c2.6,0,3.1,1.1,3.1,2.6v4.5c0,0.8,0,1.2,0.3,1.7h-2.1c-0.1-0.3-0.2-0.6-0.3-0.9h0    c-0.5,0.9-1.1,1.1-2.2,1.1c-1.5,0-2.1-1.3-2.1-2.5c0-1.6,0.7-2.3,2.2-2.7l1.2-0.3c0.7-0.2,0.9-0.4,0.9-1c0-0.7-0.3-1.1-1-1.1    c-0.7,0-1,0.4-1,1.1v0.2H517.1z M521.1,326c-0.3,0.2-0.7,0.4-0.9,0.4c-0.9,0.2-1.2,0.6-1.2,1.4c0,0.7,0.2,1.2,0.8,1.2    c0.6,0,1.4-0.4,1.4-1.3V326z"/>
		<path d="M524.8,321.7h2.2l1,6.1h0l1.1-6.1h2.4l1.1,6.1h0l1-6.1h2.1l-1.9,8.6h-2.5l-1.1-6.1h0l-1.1,6.1h-2.6L524.8,321.7z"/>
		<path d="M537.3,324.4v-0.2c0-2,1.4-2.7,3-2.7c2.6,0,3.1,1.1,3.1,2.6v4.5c0,0.8,0,1.2,0.3,1.7h-2.1c-0.1-0.3-0.2-0.6-0.3-0.9h0    c-0.5,0.9-1.1,1.1-2.2,1.1c-1.5,0-2.1-1.3-2.1-2.5c0-1.6,0.7-2.3,2.2-2.7l1.2-0.3c0.7-0.2,0.9-0.4,0.9-1c0-0.7-0.3-1.1-1-1.1    c-0.7,0-1,0.4-1,1.1v0.2H537.3z M541.3,326c-0.3,0.2-0.7,0.4-0.9,0.4c-0.9,0.2-1.2,0.6-1.2,1.4c0,0.7,0.2,1.2,0.8,1.2    c0.6,0,1.4-0.4,1.4-1.3V326z"/>
	</g>
	<g>
		<path d="M428.7,129.9h3.8c3.2,0,3.8,2.2,3.8,5.6c0,4-0.9,5.9-3.9,5.9h-3.6V129.9z M431,139.7h1c1.6,0,1.9-1,1.9-4.1    c0-2.6-0.2-3.9-2-3.9h-1V139.7z"/>
		<path d="M438.3,135.4v-0.2c0-2,1.4-2.7,3-2.7c2.6,0,3.1,1.1,3.1,2.6v4.5c0,0.8,0,1.2,0.3,1.7h-2.1c-0.1-0.3-0.2-0.6-0.3-0.9h0    c-0.5,0.9-1.1,1.1-2.2,1.1c-1.5,0-2.1-1.3-2.1-2.5c0-1.6,0.7-2.3,2.2-2.7l1.2-0.3c0.7-0.2,0.9-0.4,0.9-1c0-0.7-0.3-1.1-1-1.1    c-0.7,0-1,0.4-1,1.1v0.2H438.3z M442.3,137c-0.3,0.2-0.7,0.4-0.9,0.4c-0.9,0.2-1.2,0.6-1.2,1.4c0,0.7,0.2,1.2,0.8,1.2    s1.4-0.4,1.4-1.3V137z"/>
		<path d="M446.6,132.7h2.1v1h0c0.5-0.8,1.3-1.2,2.2-1.2c1.4,0,2.2,0.8,2.2,2.4v6.4H451v-5.9c0-0.9-0.3-1.2-0.9-1.2    c-0.8,0-1.2,0.5-1.2,1.4v5.7h-2.2V132.7z"/>
		<path d="M455.3,135.4v-0.2c0-2,1.4-2.7,3-2.7c2.6,0,3.1,1.1,3.1,2.6v4.5c0,0.8,0,1.2,0.3,1.7h-2.1c-0.1-0.3-0.2-0.6-0.3-0.9h0    c-0.5,0.9-1.1,1.1-2.2,1.1c-1.5,0-2.1-1.3-2.1-2.5c0-1.6,0.7-2.3,2.2-2.7l1.2-0.3c0.7-0.2,0.9-0.4,0.9-1c0-0.7-0.3-1.1-1-1.1    c-0.7,0-1,0.4-1,1.1v0.2H455.3z M459.3,137c-0.3,0.2-0.7,0.4-0.9,0.4c-0.9,0.2-1.2,0.6-1.2,1.4c0,0.7,0.2,1.2,0.8,1.2    c0.6,0,1.4-0.4,1.4-1.3V137z"/>
		<path d="M465.9,129.9v6h0l2.2-3.2h2.4l-2.5,3.4l2.8,5.2h-2.4l-1.8-3.5l-0.8,1v2.5h-2.2v-11.4H465.9z"/>
		<path d="M472.3,129.8h2.2v1.9h-2.2V129.8z M472.3,132.7h2.2v8.6h-2.2V132.7z"/>
		<path d="M476.8,129.9h2.2v11.4h-2.2V129.9z"/>
	</g>
	<g>
		<path d="M430.1,381.7h2.8l3,11.4h-2.4l-0.5-2.4h-3l-0.5,2.4h-2.4L430.1,381.7z M430.4,388.8h2.2l-1.1-5.1h0L430.4,388.8z"/>
		<path d="M436.7,384.5h2.2l1,6.1h0l1.1-6.1h2.4l1.1,6.1h0l1-6.1h2.1l-1.9,8.6h-2.5l-1.1-6.1h0l-1.1,6.1h-2.6L436.7,384.5z"/>
		<path d="M449.2,387.2V387c0-2,1.4-2.7,3-2.7c2.6,0,3.1,1.1,3.1,2.6v4.5c0,0.8,0,1.2,0.3,1.7h-2.1c-0.1-0.3-0.2-0.6-0.3-0.9h0    c-0.5,0.9-1.1,1.1-2.2,1.1c-1.5,0-2.1-1.3-2.1-2.5c0-1.6,0.7-2.3,2.2-2.7l1.2-0.3c0.7-0.2,0.9-0.4,0.9-1c0-0.7-0.3-1.1-1-1.1    c-0.7,0-1,0.4-1,1.1v0.2H449.2z M453.3,388.8c-0.3,0.2-0.7,0.4-0.9,0.4c-0.9,0.2-1.2,0.6-1.2,1.4c0,0.7,0.2,1.2,0.8,1.2    c0.6,0,1.4-0.4,1.4-1.3V388.8z"/>
		<path d="M459.2,390.3v0.3c0,0.8,0.4,1.2,1.2,1.2c0.7,0,1.1-0.3,1.1-1c0-0.6-0.4-0.8-0.8-1l-1.6-0.6c-1.2-0.4-1.8-1.2-1.8-2.4    c0-1.4,0.9-2.6,3.2-2.6c2,0,2.9,0.9,2.9,2.4v0.4h-2c0-0.9-0.3-1.3-1-1.3c-0.6,0-1,0.3-1,0.9c0,0.4,0.2,0.8,1,1l1.3,0.4    c1.4,0.5,1.9,1.2,1.9,2.5c0,1.8-1.3,2.7-3.2,2.7c-2.5,0-3.2-1.1-3.2-2.7v-0.3H459.2z"/>
		<path d="M465.3,381.7h2.2v3.7h0c0.4-0.7,1.2-1.1,2.1-1.1c1.4,0,2.2,0.8,2.2,2.4v6.4h-2.2v-5.9c0-0.9-0.3-1.2-0.9-1.2    c-0.8,0-1.2,0.5-1.2,1.4v5.7h-2.2V381.7z"/>
	</g>
	<g>
		<path d="M295.2,207.6v-11.4h2.3v9.5h4.1v1.9H295.2z"/>
		<path d="M303.2,201.6v-0.2c0-2,1.4-2.7,3-2.7c2.6,0,3.1,1.1,3.1,2.6v4.5c0,0.8,0,1.2,0.3,1.7h-2.1c-0.1-0.3-0.2-0.6-0.3-0.9h0    c-0.5,0.9-1.1,1.1-2.2,1.1c-1.5,0-2.1-1.3-2.1-2.5c0-1.6,0.7-2.3,2.2-2.7l1.2-0.3c0.7-0.2,0.9-0.4,0.9-1c0-0.7-0.3-1.1-1-1.1    c-0.7,0-1,0.4-1,1.1v0.2H303.2z M307.2,203.2c-0.3,0.2-0.7,0.4-0.9,0.4c-0.9,0.2-1.2,0.6-1.2,1.4c0,0.7,0.2,1.2,0.8,1.2    s1.4-0.4,1.4-1.3V203.2z"/>
		<path d="M311.6,196.1h2.2v11.4h-2.2V196.1z"/>
		<path d="M316.1,196h2.2v1.9h-2.2V196z M316.1,198.9h2.2v8.6h-2.2V198.9z"/>
		<path d="M320.5,196.1h2.2v3.6h0c0.5-0.7,1-1,1.9-1c1.8,0,2.6,1.3,2.6,4.5s-0.8,4.5-2.6,4.5c-0.9,0-1.5-0.3-2-1.1h0v0.9h-2.1V196.1    z M323.9,206.1c1,0,1.2-1,1.2-2.8c0-1.9-0.2-2.8-1.2-2.8c-1,0-1.2,1-1.2,2.8C322.7,205.1,322.9,206.1,323.9,206.1z"/>
		<path d="M331,203.6v0.7c0,1,0.3,2,1.1,2c0.7,0,1-0.6,1.2-1.6h2c-0.1,2-1,3.1-3.1,3.1c-3.2,0-3.3-2.5-3.3-4.6    c0-2.3,0.4-4.4,3.4-4.4c2.6,0,3.2,1.7,3.2,4.4v0.5H331z M333.3,202.3c0-1.3-0.2-2-1.1-2c-0.9,0-1.1,0.9-1.1,1.7v0.3H333.3z"/>
		<path d="M337.3,196.1h2.2v11.4h-2.2V196.1z"/>
		<path d="M341.7,201.6v-0.2c0-2,1.4-2.7,3-2.7c2.6,0,3.1,1.1,3.1,2.6v4.5c0,0.8,0,1.2,0.3,1.7H346c-0.1-0.3-0.2-0.6-0.3-0.9h0    c-0.5,0.9-1.1,1.1-2.2,1.1c-1.5,0-2.1-1.3-2.1-2.5c0-1.6,0.7-2.3,2.2-2.7l1.2-0.3c0.7-0.2,0.9-0.4,0.9-1c0-0.7-0.3-1.1-1-1.1    c-0.7,0-1,0.4-1,1.1v0.2H341.7z M345.7,203.2c-0.3,0.2-0.7,0.4-0.9,0.4c-0.9,0.2-1.2,0.6-1.2,1.4c0,0.7,0.2,1.2,0.8,1.2    s1.4-0.4,1.4-1.3V203.2z"/>
	</g>
	<g>
		<path d="M529.7,365.2h2.3v4.4h2.7v-4.4h2.3v11.4h-2.3v-5.1H532v5.1h-2.3V365.2z"/>
		<path d="M539.1,370.7v-0.2c0-2,1.4-2.7,3-2.7c2.6,0,3.1,1.1,3.1,2.6v4.5c0,0.8,0,1.2,0.3,1.7h-2.1c-0.1-0.3-0.2-0.6-0.3-0.9h0    c-0.5,0.9-1.1,1.1-2.2,1.1c-1.5,0-2.1-1.3-2.1-2.5c0-1.6,0.7-2.3,2.2-2.7l1.2-0.3c0.7-0.2,0.9-0.4,0.9-1c0-0.7-0.3-1.1-1-1.1    c-0.7,0-1,0.4-1,1.1v0.2H539.1z M543.2,372.4c-0.3,0.2-0.7,0.4-0.9,0.4c-0.9,0.2-1.2,0.6-1.2,1.4c0,0.7,0.2,1.2,0.8,1.2    c0.6,0,1.4-0.4,1.4-1.3V372.4z"/>
		<path d="M547.5,368.1h2.1v1.2h0c0.4-0.8,1.1-1.4,2-1.4c0.1,0,0.3,0,0.4,0v2.1c-0.2,0-0.5,0-0.7,0c-0.8,0-1.6,0.4-1.6,1.6v5.2h-2.2    V368.1z"/>
		<path d="M553.4,370.7v-0.2c0-2,1.4-2.7,3-2.7c2.6,0,3.1,1.1,3.1,2.6v4.5c0,0.8,0,1.2,0.3,1.7h-2.1c-0.1-0.3-0.2-0.6-0.3-0.9h0    c-0.5,0.9-1.1,1.1-2.2,1.1c-1.5,0-2.1-1.3-2.1-2.5c0-1.6,0.7-2.3,2.2-2.7l1.2-0.3c0.7-0.2,0.9-0.4,0.9-1c0-0.7-0.3-1.1-1-1.1    c-0.7,0-1,0.4-1,1.1v0.2H553.4z M557.5,372.4c-0.3,0.2-0.7,0.4-0.9,0.4c-0.9,0.2-1.2,0.6-1.2,1.4c0,0.7,0.2,1.2,0.8,1.2    c0.6,0,1.4-0.4,1.4-1.3V372.4z"/>
		<path d="M561.8,368.1h2.1v1.2h0c0.4-0.8,1.1-1.4,2-1.4c0.1,0,0.3,0,0.4,0v2.1c-0.2,0-0.5,0-0.7,0c-0.8,0-1.6,0.4-1.6,1.6v5.2h-2.2    V368.1z"/>
	</g>
	<g>
		<path d="M184.3,229.3h3.9c1.9,0,3.2,0.7,3.2,2.9c0,1.2-0.6,2.2-1.7,2.5v0c1.3,0.2,2.1,1.1,2.1,2.7c0,1.8-0.9,3.3-3.6,3.3h-3.9    V229.3z M186.6,234h0.7c1.3,0,1.8-0.4,1.8-1.5c0-1.1-0.5-1.5-1.7-1.5h-0.8V234z M186.6,239h0.9c1.1,0,1.9-0.4,1.9-1.7    s-0.8-1.7-1.8-1.7h-1V239z"/>
		<path d="M193.7,234.8v-0.2c0-2,1.4-2.7,3-2.7c2.6,0,3.1,1.1,3.1,2.6v4.5c0,0.8,0,1.2,0.3,1.7h-2.1c-0.1-0.3-0.2-0.6-0.3-0.9h0    c-0.5,0.9-1.1,1.1-2.2,1.1c-1.5,0-2.1-1.3-2.1-2.5c0-1.6,0.7-2.3,2.2-2.7l1.2-0.3c0.7-0.2,0.9-0.4,0.9-1c0-0.7-0.3-1.1-1-1.1    c-0.7,0-1,0.4-1,1.1v0.2H193.7z M197.8,236.4c-0.3,0.2-0.7,0.4-0.9,0.4c-0.9,0.2-1.2,0.6-1.2,1.4c0,0.7,0.2,1.2,0.8,1.2    s1.4-0.4,1.4-1.3V236.4z"/>
		<path d="M202.1,229.3h2.2v3.7h0c0.4-0.7,1.2-1.1,2.1-1.1c1.4,0,2.2,0.8,2.2,2.4v6.4h-2.2v-5.9c0-0.9-0.3-1.2-0.9-1.2    c-0.8,0-1.2,0.5-1.2,1.4v5.7h-2.2V229.3z"/>
		<path d="M210.8,229.2h2.2v1.9h-2.2V229.2z M210.8,232.1h2.2v8.6h-2.2V232.1z"/>
		<path d="M215.2,232.1h2.1v1.2h0c0.4-0.8,1.1-1.4,2-1.4c0.1,0,0.3,0,0.4,0v2.1c-0.2,0-0.5,0-0.7,0c-0.8,0-1.6,0.4-1.6,1.6v5.2h-2.2    V232.1z"/>
		<path d="M225.8,229.3h3.8c3.2,0,3.8,2.2,3.8,5.6c0,4-0.9,5.9-3.9,5.9h-3.6V229.3z M228.1,239h1c1.6,0,1.9-1,1.9-4.1    c0-2.6-0.2-3.9-2-3.9h-1V239z"/>
		<path d="M235.5,234.8v-0.2c0-2,1.4-2.7,3-2.7c2.6,0,3.1,1.1,3.1,2.6v4.5c0,0.8,0,1.2,0.3,1.7h-2.1c-0.1-0.3-0.2-0.6-0.3-0.9h0    c-0.5,0.9-1.1,1.1-2.2,1.1c-1.5,0-2.1-1.3-2.1-2.5c0-1.6,0.7-2.3,2.2-2.7l1.2-0.3c0.7-0.2,0.9-0.4,0.9-1c0-0.7-0.3-1.1-1-1.1    c-0.7,0-1,0.4-1,1.1v0.2H235.5z M239.5,236.4c-0.3,0.2-0.7,0.4-0.9,0.4c-0.9,0.2-1.2,0.6-1.2,1.4c0,0.7,0.2,1.2,0.8,1.2    s1.4-0.4,1.4-1.3V236.4z"/>
		<path d="M243.8,232.1h2.1v1.2h0c0.4-0.8,1.1-1.4,2-1.4c0.1,0,0.3,0,0.4,0v2.1c-0.2,0-0.5,0-0.7,0c-0.8,0-1.6,0.4-1.6,1.6v5.2h-2.2    V232.1z"/>
	</g>
	<g>
		<path d="M163.1,272.1h3.8c3.2,0,3.8,2.2,3.8,5.6c0,4-0.9,5.9-3.9,5.9h-3.6V272.1z M165.4,281.9h1c1.6,0,1.9-1,1.9-4.1    c0-2.6-0.2-3.9-2-3.9h-1V281.9z"/>
		<path d="M174.7,279.6v0.7c0,1,0.3,2,1.1,2c0.7,0,1-0.6,1.2-1.6h2c-0.1,2-1,3.1-3.1,3.1c-3.2,0-3.3-2.5-3.3-4.6    c0-2.3,0.4-4.4,3.4-4.4c2.6,0,3.2,1.7,3.2,4.4v0.5H174.7z M176.9,278.3c0-1.3-0.2-2-1.1-2c-0.9,0-1.1,0.9-1.1,1.7v0.3H176.9z"/>
		<path d="M180.8,272.1h2.2v3.6h0c0.5-0.7,1-1,1.9-1c1.8,0,2.6,1.3,2.6,4.5s-0.8,4.5-2.6,4.5c-0.9,0-1.5-0.3-2-1.1h0v0.9h-2.1V272.1    z M184.2,282.1c1,0,1.2-1,1.2-2.8s-0.2-2.8-1.2-2.8c-1,0-1.2,1-1.2,2.8S183.2,282.1,184.2,282.1z"/>
		<path d="M189.5,275h2.1v1.2h0c0.4-0.8,1.1-1.4,2-1.4c0.1,0,0.3,0,0.4,0v2.1c-0.2,0-0.5,0-0.7,0c-0.8,0-1.6,0.4-1.6,1.6v5.2h-2.2    V275z"/>
		<path d="M197.3,279.6v0.7c0,1,0.3,2,1.1,2c0.7,0,1-0.6,1.2-1.6h2c-0.1,2-1,3.1-3.1,3.1c-3.2,0-3.3-2.5-3.3-4.6    c0-2.3,0.4-4.4,3.4-4.4c2.6,0,3.2,1.7,3.2,4.4v0.5H197.3z M199.6,278.3c0-1.3-0.2-2-1.1-2c-0.9,0-1.1,0.9-1.1,1.7v0.3H199.6z"/>
		<path d="M208.1,272.1h3.4l1.6,8.1h0l1.6-8.1h3.4v11.4h-2.1v-9.1h0l-2,9.1h-1.8l-2-9.1h0v9.1h-2.1V272.1z"/>
		<path d="M220.4,277.6v-0.2c0-2,1.4-2.7,3-2.7c2.6,0,3.1,1.1,3.1,2.6v4.5c0,0.8,0,1.2,0.3,1.7h-2.1c-0.1-0.3-0.2-0.6-0.3-0.9h0    c-0.5,0.9-1.1,1.1-2.2,1.1c-1.5,0-2.1-1.3-2.1-2.5c0-1.6,0.7-2.3,2.2-2.7l1.2-0.3c0.7-0.2,0.9-0.4,0.9-1c0-0.7-0.3-1.1-1-1.1    c-0.7,0-1,0.4-1,1.1v0.2H220.4z M224.4,279.3c-0.3,0.2-0.7,0.4-0.9,0.4c-0.9,0.2-1.2,0.6-1.2,1.4c0,0.7,0.2,1.2,0.8,1.2    s1.4-0.4,1.4-1.3V279.3z"/>
		<path d="M228.8,275h2.1v1.2h0c0.4-0.8,1.1-1.4,2-1.4c0.1,0,0.3,0,0.4,0v2.1c-0.2,0-0.5,0-0.7,0c-0.8,0-1.6,0.4-1.6,1.6v5.2h-2.2    V275z"/>
		<path d="M237,272.1v6h0l2.2-3.2h2.4l-2.5,3.4l2.8,5.2h-2.4l-1.8-3.5l-0.8,1v2.5h-2.2v-11.4H237z"/>
		<path d="M246.5,274.7c2.7,0,3.4,1.5,3.4,4.5c0,2.9-0.9,4.5-3.4,4.5c-2.7,0-3.4-1.5-3.4-4.5C243.1,276.3,243.9,274.7,246.5,274.7z     M246.5,282.3c0.9,0,1.2-0.9,1.2-3c0-2.1-0.3-3-1.2-3c-1.1,0-1.2,1.3-1.2,3S245.4,282.3,246.5,282.3z"/>
		<path d="M253.3,280.8v0.3c0,0.8,0.4,1.2,1.2,1.2c0.7,0,1.1-0.3,1.1-1c0-0.6-0.4-0.8-0.8-1l-1.6-0.6c-1.2-0.4-1.8-1.2-1.8-2.4    c0-1.4,0.9-2.6,3.2-2.6c2,0,2.9,0.9,2.9,2.4v0.4h-2c0-0.9-0.3-1.3-1-1.3c-0.6,0-1,0.3-1,0.9c0,0.4,0.2,0.8,1,1l1.3,0.4    c1.4,0.5,1.9,1.2,1.9,2.5c0,1.8-1.3,2.7-3.2,2.7c-2.5,0-3.2-1.1-3.2-2.7v-0.3H253.3z"/>
	</g>
	<g>
		<path d="M268.4,167.3c0-0.8-0.4-1.9-1.3-1.9c-1.1,0-1.6,1.2-1.6,4c0,2.8,0.3,4.5,1.6,4.5c0.5,0,1.4-0.6,1.4-1.8v-1.2H267v-1.7h3.7    v6.2h-1.7v-1.1h0c-0.5,0.9-1.3,1.3-2.4,1.3c-2.8,0-3.4-2.1-3.4-6.1c0-3.8,0.9-5.8,3.8-5.8c2.5,0,3.6,1.3,3.6,3.6H268.4z"/>
		<path d="M275.9,166.5c2.7,0,3.4,1.5,3.4,4.5c0,2.9-0.9,4.5-3.4,4.5c-2.7,0-3.4-1.5-3.4-4.5C272.5,168.1,273.4,166.5,275.9,166.5z     M275.9,174.1c0.9,0,1.2-0.9,1.2-3s-0.3-3-1.2-3c-1.1,0-1.2,1.3-1.2,3S274.8,174.1,275.9,174.1z"/>
		<path d="M281.1,166.8h2.1v1h0c0.5-0.8,1.3-1.2,2.2-1.2c1.4,0,2.2,0.8,2.2,2.4v6.4h-2.2v-5.9c0-0.9-0.3-1.2-0.9-1.2    c-0.8,0-1.2,0.5-1.2,1.4v5.7h-2.2V166.8z"/>
		<path d="M294.2,174.4L294.2,174.4c-0.5,0.8-1.1,1.1-2,1.1c-1.8,0-2.6-1.3-2.6-4.5s0.8-4.5,2.6-4.5c0.8,0,1.4,0.3,1.9,1h0v-3.6h2.2    v11.4h-2.1V174.4z M292.9,173.9c1,0,1.2-1,1.2-2.8c0-1.9-0.2-2.8-1.2-2.8c-1,0-1.2,1-1.2,2.8C291.8,172.9,292,173.9,292.9,173.9z"/>
		<path d="M300.3,171.4v0.7c0,1,0.3,2,1.1,2c0.7,0,1-0.6,1.2-1.6h2c-0.1,2-1,3.1-3.1,3.1c-3.2,0-3.3-2.5-3.3-4.6    c0-2.3,0.4-4.4,3.4-4.4c2.6,0,3.2,1.7,3.2,4.4v0.5H300.3z M302.6,170.1c0-1.3-0.2-2-1.1-2c-0.9,0-1.1,0.9-1.1,1.7v0.3H302.6z"/>
		<path d="M306.5,166.8h2.1v1.2h0c0.4-0.8,1.1-1.4,2-1.4c0.1,0,0.3,0,0.4,0v2.1c-0.2,0-0.5,0-0.7,0c-0.8,0-1.6,0.4-1.6,1.6v5.2h-2.2    V166.8z"/>
	</g>
	<g>
		<path class="st3" d="M167.9,182.7v1.9h-2.5v9.5h-2.3v-9.5h-2.5v-1.9H167.9z"/>
		<path class="st3" d="M169.5,188.1v-0.2c0-2,1.4-2.7,3-2.7c2.6,0,3.1,1.1,3.1,2.6v4.5c0,0.8,0,1.2,0.3,1.7h-2.1    c-0.1-0.3-0.2-0.6-0.3-0.9h0c-0.5,0.9-1.1,1.1-2.2,1.1c-1.5,0-2.1-1.3-2.1-2.5c0-1.6,0.7-2.3,2.2-2.7l1.2-0.3    c0.7-0.2,0.9-0.4,0.9-1c0-0.7-0.3-1.1-1-1.1c-0.7,0-1,0.4-1,1.1v0.2H169.5z M173.5,189.8c-0.3,0.2-0.7,0.4-0.9,0.4    c-0.9,0.2-1.2,0.6-1.2,1.4c0,0.7,0.2,1.2,0.8,1.2s1.4-0.4,1.4-1.3V189.8z"/>
		<path class="st3" d="M177.8,185.5h2.1v1h0c0.5-0.8,1.3-1.2,2.2-1.2c1.4,0,2.2,0.8,2.2,2.4v6.4h-2.2v-5.9c0-0.9-0.3-1.2-0.9-1.2    c-0.8,0-1.2,0.5-1.2,1.4v5.7h-2.2V185.5z"/>
		<path class="st3" d="M186.5,188.1v-0.2c0-2,1.4-2.7,3-2.7c2.6,0,3.1,1.1,3.1,2.6v4.5c0,0.8,0,1.2,0.3,1.7h-2.1    c-0.1-0.3-0.2-0.6-0.3-0.9h0c-0.5,0.9-1.1,1.1-2.2,1.1c-1.5,0-2.1-1.3-2.1-2.5c0-1.6,0.7-2.3,2.2-2.7l1.2-0.3    c0.7-0.2,0.9-0.4,0.9-1c0-0.7-0.3-1.1-1-1.1c-0.7,0-1,0.4-1,1.1v0.2H186.5z M190.5,189.8c-0.3,0.2-0.7,0.4-0.9,0.4    c-0.9,0.2-1.2,0.6-1.2,1.4c0,0.7,0.2,1.2,0.8,1.2s1.4-0.4,1.4-1.3V189.8z"/>
		<path class="st3" d="M199.3,188.5v1.9h-4.5v-1.9H199.3z"/>
		<path class="st3" d="M203.3,190.5v0.3c0,1.1,0.3,1.8,1.5,1.8c0.7,0,1.4-0.4,1.4-1.4c0-1-0.5-1.4-2-2c-2-0.7-3-1.6-3-3.5    c0-2.2,1.4-3.4,3.5-3.4c2,0,3.5,0.9,3.5,3.1v0.3H206c0-1.1-0.4-1.7-1.2-1.7c-1,0-1.3,0.7-1.3,1.3c0,0.7,0.2,1.1,1.2,1.6l1.8,0.8    c1.7,0.8,2.2,1.6,2.2,3c0,2.4-1.5,3.5-4,3.5c-2.6,0-3.6-1.2-3.6-3.3v-0.5H203.3z"/>
		<path class="st3" d="M212.2,190.1v0.7c0,1,0.3,2,1.1,2c0.7,0,1-0.6,1.2-1.6h2c-0.1,2-1,3.1-3.1,3.1c-3.2,0-3.3-2.5-3.3-4.6    c0-2.3,0.4-4.4,3.4-4.4c2.6,0,3.2,1.7,3.2,4.4v0.5H212.2z M214.5,188.8c0-1.3-0.2-2-1.1-2c-0.9,0-1.1,0.9-1.1,1.7v0.3H214.5z"/>
		<path class="st3" d="M220.2,190.1v0.7c0,1,0.3,2,1.1,2c0.7,0,1-0.6,1.2-1.6h2c-0.1,2-1,3.1-3.1,3.1c-3.2,0-3.3-2.5-3.3-4.6    c0-2.3,0.4-4.4,3.4-4.4c2.6,0,3.2,1.7,3.2,4.4v0.5H220.2z M222.5,188.8c0-1.3-0.2-2-1.1-2c-0.9,0-1.1,0.9-1.1,1.7v0.3H222.5z"/>
	</g>
	<g>
		<path d="M380.6,104.5h3.4l1.6,8.1h0l1.6-8.1h3.4V116h-2.1v-9.1h0l-2,9.1h-1.8l-2-9.1h0v9.1h-2.1V104.5z"/>
		<path d="M394.8,112v0.7c0,1,0.3,2,1.1,2c0.7,0,1-0.6,1.2-1.6h2c-0.1,2-1,3.1-3.1,3.1c-3.2,0-3.3-2.5-3.3-4.6    c0-2.3,0.4-4.4,3.4-4.4c2.6,0,3.2,1.7,3.2,4.4v0.5H394.8z M397.1,110.7c0-1.3-0.2-2-1.1-2c-0.9,0-1.1,0.9-1.1,1.7v0.3H397.1z"/>
		<path d="M403.3,104.5v6h0l2.2-3.2h2.4l-2.5,3.4l2.8,5.2h-2.4l-1.8-3.5l-0.8,1v2.5h-2.2v-11.4H403.3z"/>
		<path d="M411.5,112v0.7c0,1,0.3,2,1.1,2c0.7,0,1-0.6,1.2-1.6h2c-0.1,2-1,3.1-3.1,3.1c-3.2,0-3.3-2.5-3.3-4.6    c0-2.3,0.4-4.4,3.4-4.4c2.6,0,3.2,1.7,3.2,4.4v0.5H411.5z M413.8,110.7c0-1.3-0.2-2-1.1-2c-0.9,0-1.1,0.9-1.1,1.7v0.3H413.8z"/>
		<path d="M417.8,104.5h2.2V116h-2.2V104.5z"/>
		<path d="M424.1,112v0.7c0,1,0.3,2,1.1,2c0.7,0,1-0.6,1.2-1.6h2c-0.1,2-1,3.1-3.1,3.1c-3.2,0-3.3-2.5-3.3-4.6    c0-2.3,0.4-4.4,3.4-4.4c2.6,0,3.2,1.7,3.2,4.4v0.5H424.1z M426.3,110.7c0-1.3-0.2-2-1.1-2c-0.9,0-1.1,0.9-1.1,1.7v0.3H426.3z"/>
	</g>
	<g>
		<path d="M269.9,60.6h2.8l3,11.4h-2.4l-0.5-2.4h-3l-0.5,2.4h-2.4L269.9,60.6z M270.2,67.7h2.2l-1.1-5.1h0L270.2,67.7z"/>
		<path d="M279.4,60.6v6h0l2.2-3.2h2.4l-2.5,3.4l2.8,5.2H282l-1.8-3.5l-0.8,1V72h-2.2V60.6H279.4z"/>
		<path d="M287.4,69.2v0.3c0,0.8,0.4,1.2,1.2,1.2c0.7,0,1.1-0.3,1.1-1c0-0.6-0.4-0.8-0.8-1l-1.6-0.6c-1.2-0.4-1.8-1.2-1.8-2.4    c0-1.4,0.9-2.6,3.2-2.6c2,0,2.9,0.9,2.9,2.4v0.4h-2c0-0.9-0.3-1.3-1-1.3c-0.6,0-1,0.3-1,0.9c0,0.4,0.2,0.8,1,1l1.3,0.4    c1.4,0.5,1.9,1.2,1.9,2.5c0,1.8-1.3,2.7-3.2,2.7c-2.5,0-3.2-1.1-3.2-2.7v-0.3H287.4z"/>
		<path d="M297.9,71L297.9,71c-0.5,0.8-1.3,1.2-2.2,1.2c-1.4,0-2.2-0.8-2.2-2.4v-6.4h2.2v5.9c0,0.9,0.3,1.2,0.9,1.2    c0.8,0,1.2-0.5,1.2-1.4v-5.7h2.2V72h-2.1V71z"/>
		<path d="M302.1,63.4h2.1v0.9h0c0.6-0.8,1.2-1.1,2.2-1.1c1,0,1.7,0.5,2,1.4h0c0.3-0.9,1.1-1.4,2.2-1.4c1.5,0,2.1,0.9,2.1,2.6V72    h-2.2v-6c0-0.7-0.2-1.1-0.9-1.1c-0.7,0-1.2,0.5-1.2,1.5V72h-2.2v-6c0-0.7-0.2-1.1-0.9-1.1c-0.7,0-1.2,0.5-1.2,1.5V72h-2.2V63.4z"/>
	</g>
	<circle cx="256.7" cy="159.3" r="4.3"/>
	<circle cx="261.8" cy="291.4" r="4.3"/>
	<circle cx="251" cy="223" r="4.3"/>
	<circle cx="331.8" cy="374.8" r="4.3"/>
	<circle cx="423.7" cy="374.8" r="4.3"/>
	<circle cx="510.3" cy="339.9" r="4.3"/>
	<circle cx="524.1" cy="357.7" r="4.3"/>
	<circle cx="259.8" cy="548.1" r="4.3"/>
	<circle cx="317.7" cy="491.2" r="4.3"/>
	<circle cx="372.5" cy="108.7" r="4.3"/>
	<circle cx="355.5" cy="212.1" r="4.3"/>
	<g>
		<path d="M484.4,506.9h2.6l4.3,11.4h-2.6l-0.9-2.5h-4.3l-0.9,2.5H480L484.4,506.9z M482.9,503.7h2.2v1.9h-2.2V503.7z M484.1,513.9    h3l-1.4-4.2h0L484.1,513.9z M486.2,503.7h2.2v1.9h-2.2V503.7z"/>
		<path d="M497.9,509h-3.4v-2.1h9.4v2.1h-3.4v9.3h-2.5V509z"/>
		<path d="M508.4,506.9h2.5v4.4h4.6v-4.4h2.5v11.4h-2.5v-4.9h-4.6v4.9h-2.5V506.9z"/>
		<path d="M523.5,506.9h2.5v11.4h-2.5V506.9z"/>
		<path d="M536.5,506.6c3.5,0,5.6,2.6,5.6,6c0,3.3-2.1,5.9-5.6,5.9s-5.6-2.6-5.6-5.9C530.9,509.2,533,506.6,536.5,506.6z     M536.5,516.4c2.3,0,3.1-1.9,3.1-3.8c0-2-0.8-3.9-3.1-3.9s-3.1,1.9-3.1,3.9C533.4,514.5,534.2,516.4,536.5,516.4z"/>
		<path d="M547,506.9h5.2c2.8,0,4,1.8,4,3.7c0,1.9-1.1,3.7-4,3.7h-2.6v4.1H547V506.9z M549.5,512.2h2c1.2,0,2.2-0.3,2.2-1.7    c0-1.5-1-1.7-2.2-1.7h-2V512.2z"/>
		<path d="M560.9,506.9h2.5v11.4h-2.5V506.9z"/>
		<path d="M568.8,506.9h8.5v2.1h-6v2.4h5.5v2h-5.5v2.8h6.2v2.1h-8.7V506.9z"/>
		<path d="M582.4,506.9h2.5l4.8,7.7h0v-7.7h2.4v11.4h-2.5l-4.8-7.7h0v7.7h-2.4V506.9z"/>
	</g>
	<g>
		<path class="st4" d="M544.6,208.4h4.9c3,0,5.2,1.9,5.2,5.7c0,3.3-1.7,5.8-5.2,5.8h-4.9V208.4z M547.1,217.7h2.2    c1.5,0,2.8-0.9,2.8-3.4c0-2.3-0.8-3.8-3.3-3.8h-1.8V217.7z"/>
		<path class="st4" d="M566.3,216.2c0,1.5-0.4,3.9-3.8,3.9c-1.9,0-3.8-1-3.8-3.5v-1h2.3v0.5c0,1.1,0.3,1.9,1.5,1.9    c1.3,0,1.3-1.1,1.3-1.9v-7.7h2.5V216.2z"/>
		<path class="st4" d="M571.7,208.4h2.5v11.4h-2.5V208.4z"/>
		<path class="st4" d="M579.7,208.4h5.4c2.2,0,3.6,0.7,3.6,2.8c0,1.1-0.6,1.9-1.6,2.4c1.4,0.4,2.1,1.5,2.1,2.9c0,2.3-2,3.3-4,3.3    h-5.5V208.4z M582.2,213h2.5c0.9,0,1.5-0.4,1.5-1.4c0-1.1-0.8-1.3-1.7-1.3h-2.4V213z M582.2,217.8h2.7c1,0,1.9-0.3,1.9-1.5    c0-1.2-0.7-1.6-1.8-1.6h-2.7V217.8z"/>
		<path class="st4" d="M599.3,208.1c3.5,0,5.6,2.6,5.6,6c0,3.3-2.1,5.9-5.6,5.9s-5.6-2.6-5.6-5.9    C593.6,210.7,595.7,208.1,599.3,208.1z M599.3,217.9c2.3,0,3.1-1.9,3.1-3.8c0-2-0.8-3.9-3.1-3.9s-3.1,1.9-3.1,3.9    C596.1,216,597,217.9,599.3,217.9z"/>
		<path class="st4" d="M619.5,215.5c0,3.1-1.8,4.6-4.9,4.6c-3.1,0-4.9-1.5-4.9-4.6v-7.1h2.5v7.1c0,1.2,0.3,2.5,2.4,2.5    c1.8,0,2.4-0.8,2.4-2.5v-7.1h2.5V215.5z"/>
		<path class="st4" d="M627.4,210.5h-3.4v-2.1h9.4v2.1h-3.4v9.3h-2.5V210.5z"/>
		<path class="st4" d="M637.8,208.4h2.5v11.4h-2.5V208.4z"/>
	</g>
	<g>
		<path class="st4" d="M56.1,105.9c0,1.5,1.2,2.1,2.5,2.1c0.9,0,2.2-0.3,2.2-1.4c0-1.2-1.7-1.4-3.4-1.9c-1.7-0.4-3.4-1.1-3.4-3.2    c0-2.3,2.2-3.5,4.3-3.5c2.4,0,4.6,1,4.6,3.7h-2.4c-0.1-1.4-1.1-1.7-2.3-1.7c-0.8,0-1.7,0.3-1.7,1.3c0,0.9,0.5,1,3.4,1.7    c0.8,0.2,3.4,0.7,3.4,3.3c0,2.1-1.6,3.7-4.8,3.7c-2.5,0-4.9-1.2-4.9-4.1H56.1z"/>
		<path class="st4" d="M77.6,105.4c0,3.1-1.8,4.6-4.9,4.6c-3.1,0-4.9-1.5-4.9-4.6v-7.1h2.5v7.1c0,1.2,0.3,2.5,2.4,2.5    c1.8,0,2.4-0.8,2.4-2.5v-7.1h2.5V105.4z"/>
		<path class="st4" d="M83,98.3h4.9c3,0,5.2,1.9,5.2,5.7c0,3.3-1.7,5.8-5.2,5.8H83V98.3z M85.5,107.6h2.2c1.5,0,2.8-0.9,2.8-3.4    c0-2.3-0.8-3.8-3.3-3.8h-1.8V107.6z"/>
		<path class="st4" d="M101.2,98.3h2.6l4.3,11.4h-2.6l-0.9-2.5h-4.3l-0.9,2.5h-2.5L101.2,98.3z M100.9,105.3h3l-1.4-4.2h0    L100.9,105.3z"/>
		<path class="st4" d="M112.2,98.3h2.5l4.8,7.7h0v-7.7h2.4v11.4h-2.5l-4.8-7.7h0v7.7h-2.4V98.3z"/>
	</g>
	<g>
		<path class="st4" d="M310.2,0h8.5v2.1h-6v2.4h5.5v2h-5.5v2.8h6.2v2.1h-8.7V0z"/>
		<path class="st4" d="M323.8,0h6.2c2,0,3.3,1.4,3.3,3.2c0,1.3-0.5,2.4-1.8,2.9v0c1.2,0.3,1.6,1.5,1.7,2.7c0,0.7,0,2.1,0.5,2.7h-2.5    c-0.3-0.7-0.3-1.8-0.4-2.7c-0.2-1.2-0.6-1.7-1.9-1.7h-2.5v4.5h-2.5V0z M326.3,5.2h2.8c1.1,0,1.7-0.5,1.7-1.6    c0-1.1-0.6-1.6-1.7-1.6h-2.8V5.2z"/>
		<path class="st4" d="M338.6,0h2.5v11.4h-2.5V0z"/>
		<path class="st4" d="M349,2.1h-3.4V0h9.4v2.1h-3.4v9.3H349V2.1z"/>
		<path class="st4" d="M359.5,0h6.2c2,0,3.3,1.4,3.3,3.2c0,1.3-0.5,2.4-1.8,2.9v0c1.2,0.3,1.6,1.5,1.7,2.7c0,0.7,0,2.1,0.5,2.7h-2.5    c-0.3-0.7-0.3-1.8-0.4-2.7c-0.2-1.2-0.6-1.7-1.9-1.7H362v4.5h-2.5V0z M362,5.2h2.8c1.1,0,1.7-0.5,1.7-1.6c0-1.1-0.6-1.6-1.7-1.6    H362V5.2z"/>
		<path class="st4" d="M374.2,0h8.5v2.1h-6v2.4h5.5v2h-5.5v2.8h6.2v2.1h-8.7V0z"/>
		<path class="st4" d="M390.9,0h2.6l4.3,11.4h-2.6l-0.9-2.5H390l-0.9,2.5h-2.5L390.9,0z M390.7,7h3l-1.4-4.2h0L390.7,7z"/>
	</g>
	<g>
		<path class="st4" d="M167.2,679.8h2.5v4.7l4.5-4.7h3.1l-4.5,4.5l4.9,6.9h-3.2l-3.4-5.1l-1.4,1.5v3.7h-2.5V679.8z"/>
		<path class="st4" d="M182,679.8h8.5v2.1h-6v2.4h5.5v2h-5.5v2.8h6.2v2.1H182V679.8z"/>
		<path class="st4" d="M195.6,679.8h2.5l4.8,7.7h0v-7.7h2.4v11.4h-2.5l-4.8-7.7h0v7.7h-2.4V679.8z"/>
		<path class="st4" d="M210.6,679.8h2.5v11.4h-2.5V679.8z"/>
		<path class="st4" d="M221.7,679.8h2.6l4.3,11.4h-2.6l-0.9-2.5h-4.3l-0.9,2.5h-2.5L221.7,679.8z M221.4,686.8h3l-1.4-4.2h0    L221.4,686.8z"/>
	</g>
	<g>
		<path class="st4" d="M657.3,336.6c0,1.5,1.2,2.1,2.5,2.1c0.9,0,2.2-0.3,2.2-1.4c0-1.2-1.7-1.4-3.4-1.9c-1.7-0.4-3.4-1.1-3.4-3.2    c0-2.3,2.2-3.5,4.3-3.5c2.4,0,4.6,1,4.6,3.7h-2.4c-0.1-1.4-1.1-1.7-2.3-1.7c-0.8,0-1.7,0.3-1.7,1.3c0,0.9,0.5,1,3.4,1.7    c0.8,0.2,3.4,0.7,3.4,3.3c0,2.1-1.6,3.7-4.8,3.7c-2.5,0-4.9-1.2-4.9-4.1H657.3z"/>
		<path class="st4" d="M674.3,328.7c3.5,0,5.6,2.6,5.6,6c0,3.3-2.1,5.9-5.6,5.9s-5.6-2.6-5.6-5.9    C668.7,331.3,670.8,328.7,674.3,328.7z M674.3,338.6c2.3,0,3.1-1.9,3.1-3.8c0-2-0.8-3.9-3.1-3.9s-3.1,1.9-3.1,3.9    C671.2,336.6,672,338.6,674.3,338.6z"/>
		<path class="st4" d="M684.8,329h3.5l2.7,7.9h0l2.5-7.9h3.5v11.4h-2.4v-8.1h0l-2.8,8.1H690l-2.8-8h0v8h-2.4V329z"/>
		<path class="st4" d="M705.7,329h2.6l4.3,11.4h-2.6l-0.9-2.5h-4.3l-0.9,2.5h-2.5L705.7,329z M705.4,336h3l-1.4-4.2h0L705.4,336z"/>
		<path class="st4" d="M716.7,329h2.5v9.3h5.6v2.1h-8.1V329z"/>
		<path class="st4" d="M729.4,329h2.5v11.4h-2.5V329z"/>
		<path class="st4" d="M740.4,329h2.6l4.3,11.4h-2.6l-0.9-2.5h-4.3l-0.9,2.5h-2.5L740.4,329z M740.2,336h3l-1.4-4.2h0L740.2,336z"/>
	</g>
	<circle cx="321.5" cy="72.2" r="4.3"/>
</g>
</svg>
<svg xmlns:svg="http://www.w3.org/2000/svg" foo="bar" id="routepath" x="0" y="0" width="800" height="655"><path class="land" d="M312,351L312,351"/><path class="land" d="M312,351L246,272"/><path class="land" d="M246,272L236,208"/><path class="land" d="M236,208L255,180"/><path class="land" d="M255,180L241,150"/><path class="land" d="M241,150L274,123"/><path class="land" d="M274,123L268,74"/><path class="land" d="M268,74L305,68"/><path class="land" d="M305,68L335,70"/><path class="land" d="M335,70L356,75"/><path class="land" d="M356,75L349,101"/><path class="land" d="M349,101L393,73"/><path class="land" d="M393,73L433,106"/><path class="land" d="M349,101L368,207"/><path class="land" d="M368,207L334,198"/><path class="air" d="M334,198L312,350"/><path class="air" d="M312,350L299,460"/><path class="air" d="M299,460L245,512" marker-end="url(#pin)"/></svg>

</svg>
