<?xml version="1.0" encoding="utf-8"?>
<!-- Generator: Adobe Illustrator 25.0.1, SVG Export Plug-In . SVG Version: 6.00 Build 0)  -->
<svg version="1.1" xmlns="http://www.w3.org/2000/svg" xmlns:xlink="http://www.w3.org/1999/xlink" x="0px" y="0px"
	 viewBox="0 0 867.2 616.1" style="enable-background:new 0 0 867.2 616.1;" xml:space="preserve">
<style type="text/css">
	.st0{display:none;}
	.st1{display:inline;}
	.st2{display:inline;opacity:0.5;}
	.st3{fill:#E2E2E3;}
	.st4{opacity:0.6;fill:#FFFFFF;stroke:#FFFFFF;stroke-width:0.75;stroke-miterlimit:10;}
	.st5{fill:none;stroke:#3AC7E3;stroke-width:2;stroke-miterlimit:10;}
	.st6{fill-rule:evenodd;clip-rule:evenodd;fill:#1D1D1B;}
	.st7{fill:none;stroke:#3AC7E3;stroke-width:2;stroke-miterlimit:10;stroke-dasharray:3,3;}
	.st8{fill:#FFFFFF;}
	.st9{fill:#3AC7E3;}
</style>
<g id="Ebene_1" class="st0">
	<g class="st1">
		<g>
			<defs>
				<rect id="SVGID_1_" x="147.4" y="86.1" width="604.2" height="439.3"/>
			</defs>
			<clipPath id="SVGID_2_">
				<use xlink:href="#SVGID_1_"  style="overflow:visible;"/>
			</clipPath>
			<g style="clip-path:url(#SVGID_2_);">
				
					<image style="overflow:visible;" width="960" height="698" xlink:href="454F38EA81343876.jpg"  transform="matrix(0.6294 0 0 0.6294 147.4375 86.0695)">
				</image>
			</g>
		</g>
	</g>
</g>
<g id="Ebene_3" class="st0">
	<g class="st2">
		
			<image style="overflow:visible;" width="1042" height="748" xlink:href="454F38EA8134387A.jpg"  transform="matrix(0.5584 0 0 0.5759 153.6363 85.193)">
		</image>
	</g>
</g>
<g id="Ebene_2">
	<path class="st3" d="M0.1,199.2c-0.8-2.5,3.5-7.7,7.5-7.7s4.8-1,4.8-4.7s3-11.2,5-11.2c2,0,22.8,11.7,25,14.7
		c2.2,3,10.2,10.3,12.2,9.3c2-1,5,0.3,2.2-3.8c-2.8-4-20.8-18.2-17-19.5c3.7-1.3,6.8,0.7,10,3.5c3.2,2.8,10.5,4.5,10.2,3
		c-0.2-1.5-19.8-13.8-21-17.2s-5-17.5-2.2-20c2.8-2.5,15,7.5,22.8,13.5c7.7,6,16.5,9.7,17,12.5c0.5,2.8-1.1,13.9,1.5,12.6
		s2.4-6.6,4.9-6.8s-0.9,1.5,3.2,0.4s-1.1-2.4,4.7-3.6s9.6-2.1,7.7-3.9s-9.2,4.1-14.6-1.1s-7.3-7.3-3.6-7.3s9.4-3.8,15.4-3.4
		s7.9-3,8.1-3.6s5.2-6,1.5-5.2s-4.1,3.4-5.6,3.9s-25.5,1.3-28.9-1.1s-14.4-17.4-14.4-23.8s0.9-7.9,7.1-4.9c6.2,3,9.6,8.4,11.8,8.8
		s6-1.3,8.1-0.2s7.3,5.4,10.1,5.2s-6.8-7.9-10.9-9.4S62,110.3,60.6,105.2s3.2-9,5.1-8.6s15.6,4.1,18.9,6.9s8.4,5.2,4.7,1.1
		S72.3,90.8,72.6,88.7s6.2-5.1,10.1-1.9s8.1,5.2,7.5,3.9s-3.4-9.9-8.1-9s-3.6-1.9-0.2-3.9s8.8-5.2,14.2-3.2s8.4,3.6,9,6
		c0,0,8.2,2.4,8.6,4.5s-1.1,7.5-0.4,9.2s8.4-1.3,8.8,0s3.9,5.1,2.1,8.2s-8.6,11.4-6.4,12s9.2-13.5,9.4-12s2.1,7.3,1.7,9.8
		s-2.8,11.4-2.8,11.4s8.6-8.1,8.6-10.7s-1.9,8.6-2.4,12.8s-2.2,4.7-0.4,5.2s7.5-9.9,7.3-18s2.1-12,3.9-10.3s6.6,8.2,7.5,10.5
		s2.4,4.5,2.2,7.5s-10.5,20.6-6.6,21.4s9.2-12.8,9.4-16.9c0.2-4.1,0.8-11.4,2.4-9.6c1.7,1.9,7.3,9.8,6.4,13.3
		c-0.9,3.6-6,15.9-8.1,18.6c-2.1,2.6,0,6,2.1,3c2.1-3,10.3-21.4,10.3-21.4s2.6-9,0.8-11.4s-10.7-9.9-10.3-11.1s6.9-7.7,8.1-9.4
		s0-2.8-2.1-2.2c-2.1,0.6-5.1,1.5-11.2-2.8c-6.2-4.3-5.6-3.8-13.5-7.1s-17.8-16.3-14.8-18.4c3-2.1,3.8-3.2,6-4.9s7.7-1.1,11.6,2.1
		s5.8,1.7,7.3,2.8s6.2,9.2,5.8,5.2s0.2-5.5,1.4-5.5c1.3,0,10.9-1.9,10.9-3.9c0-2-5-0.7-8.1-0.5c-3.1,0.2-5.3-0.6-3.6-2.1
		c1.6-1.5,6.9-5,6-6.8c-0.9-1.7-2.6-1.9-3.6-1c-1,0.9-6.6,5.5-9,5.1c-2.4-0.4-6.2-0.5-4.9-2.4c1.4-1.9,5.9-9.2,4-10.9
		c-1.9-1.6-6,4.5-8,5.9c-2,1.4-5.1,3.9-5.5,2.9c-0.4-1,8.1-11.9,3.8-10.5c-4.4,1.4-13.6,15.6-17.7,13.4s-14.8-11.2-14.1-11.8
		c0.6-0.5,1.5-2,6.2,0.1c4.8,2.1,5.8,1.2,7.3-0.3s-6.1-9-6.8-11.1c-0.6-2.1,0.9-3.6,2.1-3c1.3,0.6,3.6,2.9,4.9,2.1
		c1.3-0.8,3.1-0.5,5.1-3.1c2-2.6,2-5.1,3.8-5.2c1.7-0.1,5.4,4.8,8.9,6.5c3.5,1.7,6.5,7.9,8,5.9s2.5-15.5,6.2-12.8
		c3.8,2.8,6.8,11.9,8.2,11.2s2.6-9,4.5-7.3s5.6,10.1,6,10.9s10.3,7.5,10.1,11.2c-0.2,3.8-4.1,13.9-2.4,13.7
		c1.7-0.2,17.8-1.7,19.7,0.4s4.5,10.9,4.5,10.9s9,5.1,10.9,8.6s0.9,4.1,0,6c-0.9,1.9-4.9,4.3-0.9,5.2c3.9,0.9,4.9,6.9,4.9,7.5
		s3.4-2.4,4.7-0.6c1.3,1.9,5.6-4.7,7.9-3s2.4,5.8,2.6,8.8c0.2,3-3.4,3.4,0.9,3.6c4.3,0.2,12-2.2,12.8-0.4s-2.1,4.7-5.6,6
		c-3.6,1.3-15.6,3.6-14.4,5.8s8.6,0.2,11.1,0.8c2.4,0.6,0.2,1.9,3,2.4c2.8,0.6,9.9-1.5,9.9,0.8s0.4,6.9-0.9,8.6
		c-1.3,1.7,1.9-1.5,0.4,5.1s-1.7,11.8-3.9,12.4s-4.1,3.4-4.1,3.4l-3,2.2c0,0,6,2.2,4.1,6.4s-9,8.4-12.6,6.6
		c-3.6-1.9-4.1-10.5-9.6-13.5c-5.4-3-8.4-0.4-8.4-0.4s6.8,6.9,6.6,10.5c-0.2,3.6,2.8,11.6,6.4,12.6c3.6,0.9,16.7,0.8,16.7,3.2
		s-9.2,11.6-7.7,12.4s13.3-10.1,14.4-6s-1.3,13.3-3.4,16.9c-2.1,3.6-10.7,10.3-10.9,11.6c-0.2,1.3,0.9,2.6,2.8,1.5
		s8.6-10.7,11.8-8.2c3.2,2.4,3.9,0.9,6.4,10.7s-0.2,19.5,1.7,24.4s8.2,18.9,8.2,18.9s2.1-12.9,1.1-22.5s-1.5-27.2-0.2-27.2
		s6.6,14.4,8.8,16.7s4.1,5.2,3.6,0.8s-7.1-31.3,0.9-42s16.3-19.3,18.4-18.4s3.4,17.1,3.4,17.1s21.6-2.8,23.2-7.3s3-27.2,0.9-37.3
		s-12.6-37.1-9-42s4.1-9.8,8.1-9.2s6.6,0.8,6.8-0.2s6.2-7.5,9.6-0.2s13.1,25.3,16.1,31.5s9.9,3.4,11.8,7.7s6.8,17.2,7.1,21.6
		s2.4,8.8,4.1,7.7s3.2-3.9,5.1-4.1s4.1,4.1,6.6,3.4s7.9-15.4,5.6-21.4s-7.5-15.2-8.8-16.5s-3.2-2.8-1.3-4.7s6.4-1.3,6.6-3.4
		s-4.1-8.6-2.4-11.6s10.5-7.9,15-6.9s12.6,0.4,12.2-3.2s4.9-14.6,8.2-15s2.6,4.9,5.1,4.1s4.9-10.3,6.6-8.8s3.8,6.8,3.2,9.2
		s4.1-4.5,7.1-1.5s5.8,3.9,4.5,8.1s-1.5,7.1-1.5,7.1s3.6-7.3,6.6-3.6s3.2,23.4,3.2,23.4s11.4-1.5,17.4,12s11.8,33.4,14.6,35.8
		s6.2,6.2,5.8,3.9s-1.9-16.3-1.7-18.9s0.4-18.4-6-24.2s-12.9-22.5-14.6-31.1s-4.9-15.8,2.1-16.3s9-2.6,12,0.8s3,3.4,3,3.4
		s6-5.1,10.9-0.4s7.9,5.8,11.2,8.6s9.6,6.9,9.9,9.9s-2.1,9.2,1.1,9.6s16.5,1.9,17.2-1.5s4.5-20.8,6.8-21.2s6,1.9,4.9-5.2
		s-0.8-12.4,2.6-12s4.5-1.3,8.1-1.9s10.5,3.6,10.5,6.4s0.6,6.8,2.6,6.8s15.8-4.3,22.9-9.2s16.5-10.4,15.3-16.6
		c-1.3-6.3-8-16.5-8.2-21.3c-0.3-4.7,2-7-1-12s-7-11.7-1.2-14.5s7.7,4,13.2,3s1.8-12.3,13.8-9.5s7.5-2.5,13.7,2.8s2.2,9.2,3.3,13
		s3.3,3,9,3.8s12,3,11,8c-1,5-4.7,13.7-4.2,16.5c0.5,2.8,5,1.5,5.5,3.5c0.5,2-2,7.7,1.3,8c3.2,0.3,7.5-5,11-2.2
		c3.5,2.8,8.2,12.3,12,11c3.8-1.3-1-16,2.7-17.2c3.8-1.3,14.8-2.5,16-5.2c1.2-2.8,6-5.2,8-13c2-7.8,7-10.5,11-10
		c4,0.5,3.2,3.5,7.7,3.8s9-5.8,12-5.2c3,0.5-3.5,7-8.7,9.8c-5.2,2.8-12.2,4.8-16.2,10.8s-3.4,6.3-2.2,7.4s5.6,5.6,4.1,8.6
		s-17.1,12.9-17.1,15.2s3.6,5.4,5.8,4.9s3-1.9,3.4-0.6S725,91.2,730,91.2s17.8-13.5,20.8-12.6s12.8,8.2,12,17.6s-6.2,20.2-8.6,22.1
		s-2.6,0.9-3.9,2.2s-3.2,7.5-3,11.2s-1.1,12.8,5.1,8.6s19.9-5.1,22.3-8.2s11.8-7.7,12.6-6s3.2,2.8-0.4,7.5s-4.7,4.1-2.4,5.8
		s8.6,11.2,18.4,13.3s18.8-2.6,22.1,0.2s3.6,3.4,3.8,5.8s4.3,11.4,5.2,10.9s1.5-7.9,6.2-6.4s1.5-1.9,4.7,3.8s4.3,7.7,3.6,10.3
		s-3,8.6-1.7,10.7s3.2,0,0.8,4.5s-3.6,6-7.7,6.9s-12.4,2.6-6.8,3s9.2,4.3,8.2,5.4s-14.1,3.9-14.8,6s4.5,0,12-0.9s16.1-4.3,17.1-0.8
		s-0.8,8.8-3.2,11.4s-7.1,4.9-15,5.2s-12.2,3.8-12.2,3.8s21.4-0.2,25.9-1.1s2.2,0,2.1,3.6s-3,5.8-3,5.8s4.5,10.3,6.2,6.9
		s8.2-16.9,8.4-15.2s-1.5,14.1-0.8,14.8s3.9,0.9,3.2,3.8s-10.5,1.1-6.6,8.4s1.7,6.4-1.3,7.3s-11.4,5.4-14.6,1.3
		s-10.9-12.9-14.4-11.1s-10.7,6.9-11.8,7.5s-6.6,1.7-6.6,1.7s17.1-2.2,24,2.8s17.4,9,18.9,9s2.4,2.1,2.1,3.4s6.6,2.2-3.9,2.1
		s-19.5-0.6-20.2-0.4s-2.8,0.9-2.8,0.9s19.5,3.2,20.1,5.2s0,9-3.6,9s-7.9-0.6-7.9-0.6s6.8,6.2,4.3,6.9s-8.6,1.1-11.1,3
		s0.2,4.9,1.1,7.1s3,4.9-0.9,6.9s-15,6-17.2,4.5s-9.8-6.9-12.2-10.1s-7.3-7.5-8.6-6.4s1.1,4.9,3.4,7.5s8.1,9.6,10.3,11.8
		s3.6,4.1,3.6,4.1s-8.6,1.3-11.6,1.5s-6.9-0.4-3.8,1.9s8.4,2.1,7.7,5.8s-11.1,3-12.4,8.6s8.4,9.4,8.4,16.1s3.2,13.3-1.9,15.4
		s-12.9,5.7-17.4,9.9s-9.5,12.8-10.8,15.8c-1.2,3-3.2,8.2-7,6.3c-3.8-2-10.8-5.7-16.3-3.5s-6.2-5.7-11,2.2c-4.8,8-3,9.5-12.3,12
		c-9.3,2.5-9.8,3-16,8c-6.2,5-24.5,15-35.2,28c-10.7,13-32,47.5-35.5,50.2c-3.5,2.8-30.8,5.5-47,7.5c-16.2,2-34.2,8.3-40,16.8
		s-12.5,29.7-22.5,35.7s-38,19-47.8,21.3c-9.8,2.2-16.8,5.5-26.5,2.5s-4.5-4.5-9.8-3s-8,4-12.5,2.8s-13.5-9.5-32-15
		c-18.5-5.5-39.5-8.7-47.8-7.5s-7.5,0.5-12.5-3.8c-5-4.2-40.2-40.3-57.8-47.5c-17.5-7.2-22.8-12.2-28-11s-2,3.5-8.5,5
		c-6.5,1.5-16.5,4.5-22.5,4.5s-3.5-8.7-6.9-9.3s-9.6,3.6-20.2,5.1c-10.7,1.5-22.1,0.4-26.1-2.1c-3.9-2.4-1.5-3.9-5.8-1.1
		c-4.3,2.8-10.9,3.2-16.7,5.6s-6.4,4.3-8.6,3.8s-1.5-6.2-1.5-13.3s-1.1-9,0-9.8s2.1-3,2.1-3s-7.1-3.6-4.7-9.2s1.5-8.1,1.3-11.1
		s2.2-9.2,4.7-6.2s9.4,9.6,9.4,12s1.5,9.2,7.3,9.2c5.8,0,10.7-9.9,15-10.1c4.3-0.3,6.8,2.2,10.3,0c3.5-2.2,3.2-3.5,7.7-4
		c4.5-0.5,8-0.8,5.5-3.3c-2.5-2.5-4.2-6.5-1-6.8c3.2-0.2,4,1.5,4.5-2c0.5-3.5-10.1-6.9-6-8.4s15.9,1.1,17.4,0.4s11.1,0.9,10.9-4.1
		c-0.2-5.1-9.4-5.4-10.5-9.9s-2.8-5.8-2.3-7.2c0.5-1.5,3.3-8.9,7.8-10.8s8.6-2.2,9.6-4.1c0.9-1.9,3.4-4.9,7.3-3
		c3.9,1.9,4.3,2.2,6.2,1.5s9.6-4.9,5.2-5.2c-4.3-0.4-8.8-3.6-16.1-3.6c-7.3,0-11.2,7.9-13.9,10.1s-15.4,10.5-18.9,10.1
		c-3.6-0.4-6.6-6-4.5-7.5c2.1-1.5,6-6.8,5.2-8.2s-2.8-4.7-2.6-8.1c0.2-3.4,10.7-16.5,10.7-17.6s0.4-6.4-3.8-4.5s-3.2,0.9-7.7,4.9
		s-1.1,6.4-3.8,7.7s-8.6,4.9-9.8,1.5s-2.1-19.3-3.9-18.8s-4.7,5.4-7.5,4.1c-2.8-1.3,0.8-11.4-0.2-14.2c-0.9-2.8-6.6-6.9-5.6-8.8
		c0.9-1.9,6.4-5.4,4.9-7.3s-3.9-0.8-4.5-6.2c-0.6-5.4,1.1-5.1,0.2-7.5c-0.9-2.4,2.2-4.1-2.4-4.1c-4.7,0-8.2,0.4-9,2.2
		s-2.4,4.1-5.5,1.4c-3.1-2.6-0.9-4.5-5.1-4.5s-5.4-1.9-4.2,0s5.4,5.4,4.1,5.6c-1.3,0.2,1.2-1.6-6.3-3.4c-7.5-1.8-1.6,1.4-10.6-0.8
		c-9-2.1-7.6-0.6-14.1-2c-6.5-1.4-10.1-8.9-15.4-6.3s-4.6,3.6-10.6,3.8c-6,0.1-5.6-1.9-8.5,0.3c-2.9,2.1-7.5,7.1-8,9.6
		c-0.5,2.5-0.5,3.8-4.3,3.9c-3.8,0.1-8.9,0.4-10.5,0.3c-1.6-0.1-9-6.8-12.1-10.9c-3.1-4.1-6.1-11.9-3.9-14.8
		c2.2-2.9,11.6-11.5,14.5-10.6s11.2,8.1,15.1,7.6c3.9-0.5,1.5-3.2,5.1-4.6c3.6-1.4,6.5-0.4,6.5-1.8c0-1.4,0.2-5.2,4.9-4.7
		c4.6,0.5,1.2,1,3.6-1.1c2.4-2.1,2.2-4.6,4-2.5c1.8,2.1,6.6,9.1,8.4,10c1.7,0.9,4,1.9,4.1-1.9c0.1-3.8-3.6-8.5-2.9-10.6
		c0.8-2.1,3.9-3.5,5.6-3.4c1.7,0.1,4.9-2.2,5.1,0.1c0.2,2.4-2.7,1.6-3.6,6.1c-0.9,4.5,0.6,9.6,1.7,7.6c1.1-2,5.8-12.4,9.1-13
		c3.4-0.6,8.4,1.4,10,0.1c1.6-1.2-1.7-6.9,3.9-8.9c5.6-2,8.5-4.4,9.1-3.3s-2.1,3.6,1.3,8.1s10.3,12.6,9.2,9s-3.6-7.9-0.2-11.4
		s-0.2-9.8,5.8-7.5s45.2,15.4,49.9,12.9c4.7-2.4,7.9-2.1,7.9-4.3s-4.7-1.7-3.9-4.3s12-17.1,10.9-20.4s-1.7-12.2-4.5-9.4
		c-2.8,2.8-10.5,15.8-16.9,18s-2.6,3.2-12.2,0.8c-9.6-2.4-12.8-4.5-16.7-6.6c-3.9-2.1-0.4-3-5.2-1.1s-7.5,2.2-9,0.6
		s-3.6-6.2-1.5-6.8c2.1-0.6,3.2-4.1,6.2-7.7s9-10.9,12.8-12.2s6.8,0.9,12.8-5.4s12.9-10.7,14.8-12s-3.4-4.9,4.5-3.9s8.5,0.6,12-1.3
		c3.5-1.9,9.8-5.5,7.3-6.1c-2.5-0.6-3.6,2.5-8.9,2.5s-8.5-0.6-11.6-4.1c-3.1-3.5-1-8.4-6.6-10.1c-5.6-1.7-5.9-5.8-7.4-0.1
		s-7.1,16.8-11,15.1c-3.9-1.6-5.6-6.5-7.4-6.5c-1.8,0-5.5-1.6-4.8-3.1s5.5-4.8,8.9-5.5s5.1-1.6,8.7-6.8c3.6-5.1,5-6.8,2.6-5.2
		c-2.4,1.5-5.5,7.6-8.9,8.1c-3.4,0.5-4.2,0.1-4.7-0.4c-0.5-0.5,3.1-6.3,1.5-5.9c-1.6,0.4-8.6,10.1-12.1,11.2
		c-3.5,1.1-2.4-9.9-2.6-11.4c-0.2-1.5-4-14.6-4.9-13.3c-0.9,1.4,0,9.4,0.1,12.1c0.1,2.7-0.4,5.7-1.5,6.6c-1.1,0.9-2.5,0.1-2.5-4.3
		c0-4.4-1.1-11.9-2-11.1c-0.9,0.8,0.2,18.5-2,18.5s-4.7-6.1-4.9-9.6c-0.1-3.5,4-7.6,2-8.7c-2-1.1,0.1-0.3-3-0.6
		c-3.1-0.4-4.8,0.1-3.6,2.8s1.2,9.6,1.1,12.2s-0.1,6-3.9,4c-3.8-2-6.4-1.2-3.6-6.8c2.8-5.5,3.8-6.5,2.2-8.6
		c-1.5-2.1-2.9-2.4-2.9-2.4s0.2,6.1-1.1,7.6s-1.9,1.7-2.4-0.9s-0.4-6.6-2.2-6.2s-2.8,12.2-5.1,12.9s-4.1,0.4-6.8-1.7
		s-3.8-5.8-3.8-5.8s-1.5-3.4-2.4,2.8s-0.8,11.8-4.1,13.5s-7.9-4.1-11.4-4.7s-4.1-1.5-4.7,0.8s-0.8,3.2-3.4,4.3s-9.9,1.3-13.3,2.8
		s-2.8,9.2-9.9,9.6c-7.1,0.4-12.9,1.3-14.6-0.9s1.3-9.9-1.7-10.7c-3-0.8-7.9-4.5-16.5-4.9s-11.4-0.4-15.6-0.2S0.8,201.7,0.1,199.2z"
		/>
	<path class="st4" d="M607.2,321.4c-4.1,0-12-1.9-18,2.2s-4.1,6.4-10.5,6.8s-9-6-14.2,3.8s-13.9,24-19.1,25.5s-7.5,0-13.1,6
		s-13.1,13.5-10.1,16.9s12.8,2.6,9.4,3.8s-4.1-1.1-8.2,5.2s2.6,6.4-6,14.6s-13.1,22.1-7.5,25.5s6,8.6,8.2,11.2s4.9,15,12,16.9
		s15.8-2.6,15-8.6s-1.1-14.2,0-14.2s1.5,10.5,5.6,10.1s2.2-8.6,6.8-7.9s9,4.1,9,1.9s1.9-6,3.8-4.1s9,9.4,6.4,18.8
		s-7.1,19.1-4.9,19.9s16.9,5.2,18.8,2.6s6.4-6.8,6.8-9s-4.5-3-4.9-6s3.4-6.4,4.9-7.1s9.8-4.5,13.9-2.2s2.2,1.1,2.2,1.1
		s8.6,0,7.1,1.9s-6,1.5-6.8,7.5s5.6-6.8,9-2.6s2.2,3.4,4.5,11.2s7.9,11.2,10.5,9.8s-1.9-6.8,6-9.8s8.6-9.8,12-12s14.2-6.4,13.5-9.8
		s-5.2-9-5.7-16.2c-0.5-7.2,1-14.2,1.7-12.2s2.8,16.7,4.8,14c2-2.7-4.8-13.2,0.5-14s36.5,5.2,30-3c-6.5-8.2-9.2-8-6.5-8.2
		s13.5,3.8,13.8,2.2c0.2-1.5-8-5.5-12.3-8.5s-9.5-13.5,4.2-7.8c13.8,5.8,15.8,9.5,16.5,8s-11.5-14.5-9.8-15c1.8-0.5,5.7-6.7,5.7-8.7
		c0-2,6,0.2,7,2.5c1,2.2,3,2.2,5,1.5c2-0.8,3.5-2.2-1.2-5.7c-4.8-3.5-9.5-9.5-4.5-9c5,0.5,15.2-1,15.5-3.3c0.3-2.2-6.3-10.2-1.5-10
		c4.8,0.2,5-1.3,3.3-5.5c-1.8-4.2-2.7-9.5-7.2-9.5s-12.3,0.8-12.3,0.8s5-7.8-1.8-8.5s-9.3,6.3-11.2,7.5c-2,1.2-2,1.5-5.2,1
		c-3.2-0.5-5-4.8-6-9.3c-1-4.5-0.7-6.5-7.7-8.7s-20.2-4.5-24-1s-13,9-14.5,11.2s-6.8,6-8.2,10.8c-1.5,4.7-5,9-6.3,9.8s-5.2,2-5.2,2
		s9.3-11,4.3-14.2s-6.5-5.7-7.3-3s-6.2,11-6.5,9.3c-0.3-1.8-3-4-0.5-7s8.5-14,8-16.8c-0.5-2.7-1.8-6-4.8-6S607.2,321.4,607.2,321.4z
		"/>
	<path class="st4" d="M318.8,355.2c-2.6,0.8-7.5,1.9-10.5,7.9s-1.9,5.6-3.8,8.6s-1.9,3.8-1.5,5.2s7.9,2.2,10.1,4.9
		s8.6,16.1,10.5,13.5s4.1-6,5.6-4.9s3,9,7.9,3.8s12.8-12.4,15-13.5s6.4-5.6,7.1-13.5s1.5-8.6,4.9-13.5s9-9.4,9-12.4
		s-4.1-6.4-1.1-10.5s8.2-9.8-0.8-12.8s-22.9,0.4-23.2,7.9s3.8,13.1-5.2,15.8s-7.1,5.2-7.9,7.9s0.4,3-5.6,3.8
		S318.8,355.2,318.8,355.2z"/>
	<path class="st4" d="M447.1,301.9c-7,2-8.8,6-14.2,12.3c-5.5,6.3-12.5,6.5-12.2,11.2c0.2,4.8,3.8,7.2,2.8,11.7
		c-1,4.5,2.2,9.5,3.5,11.2c1.3,1.8,10.3,7.5,11.5,9.3c1.2,1.8,4.2,7.3,6.2,6.3c2-1,2.5-11,6-10c3.5,1,3.5,7.8,6.5,7.8
		s8.2-1.7,6.8-6.8c-1.5-5-2.2-5.5,0-6c2.2-0.5,4.7,2.7,9.2-3.3s3.7-19.5,3.2-25c-0.5-5.5-1.2-10.5-4.7-13.2c-3.5-2.7-4-6.2-7.5-5
		c-3.5,1.2,0.8,3-6,1.2C451.3,301.9,447.1,301.9,447.1,301.9z"/>
	<path class="st4" d="M394.4,550c-4.3-0.9-7.1-1.7-9.8,0.2s-4.1,2.2-2.8,4.3s8.4,7.3,12.8,7.3s7.9-0.4,9-3.6s5.2-5.6,0.8-7.3
		S394.4,550,394.4,550z"/>
	<path class="st4" d="M270.1,438.4c-3-2-3.2,1.7-7,4s-5.5,4.2-5.2,8.2c0.2,4,2,12.5,4.3,12.5s4.8,1.2,7.5-0.3c2.7-1.5,1-5.2-0.5-8.7
		s-2.5-6-0.8-8.2c1.7-2.2,3.8-3.8,3.8-5C272.1,439.7,270.1,438.4,270.1,438.4z"/>
	<polyline class="st5" points="157.3,504.2 194.6,457.4 266.6,434.2 327.1,428.7 348.1,421.2 313.6,491.7 363.1,470.7 421.3,478.7 	
		"/>
	<polyline class="st5" points="313.6,491.7 386.6,563.2 402.6,562.2 433.6,596.2 448.1,574.7 439.3,529.9 673.3,460.2 612.6,467.2 	
		"/>
	<polyline class="st5" points="137.3,287.2 65.5,341.6 203.1,382.4 187.8,424.9 194.3,458.7 	"/>
	<path class="st6" d="M61.4,340.7c0-2.4,1.9-4.3,4.3-4.3c2.3,0,4.3,1.9,4.3,4.3c0,2.4-1.9,4.3-4.3,4.3
		C63.3,344.9,61.4,343,61.4,340.7z"/>
	<path class="st6" d="M198.5,382.3c0-2.4,1.9-4.3,4.3-4.3c2.3,0,4.3,1.9,4.3,4.3c0,2.4-1.9,4.3-4.3,4.3
		C200.4,386.6,198.5,384.7,198.5,382.3z"/>
	<path class="st6" d="M184,424.8c0-2.4,1.9-4.3,4.3-4.3c2.3,0,4.3,1.9,4.3,4.3c0,2.4-1.9,4.3-4.3,4.3
		C185.9,429.1,184,427.2,184,424.8z"/>
	<path class="st6" d="M262,434.1c0-2.4,1.9-4.3,4.3-4.3c2.3,0,4.3,1.9,4.3,4.3c0,2.4-1.9,4.3-4.3,4.3
		C263.9,438.3,262,436.4,262,434.1z"/>
	<path class="st6" d="M322.7,428.3c0-2.4,1.9-4.3,4.3-4.3c2.3,0,4.3,1.9,4.3,4.3c0,2.4-1.9,4.3-4.3,4.3
		C324.6,432.6,322.7,430.7,322.7,428.3z"/>
	<path class="st6" d="M344.2,421.3c0-2.4,1.9-4.3,4.3-4.3c2.3,0,4.3,1.9,4.3,4.3c0,2.4-1.9,4.3-4.3,4.3
		C346.1,425.6,344.2,423.7,344.2,421.3z"/>
	<path class="st6" d="M133,286.8c0-2.4,1.9-4.3,4.3-4.3c2.3,0,4.3,1.9,4.3,4.3c0,2.4-1.9,4.3-4.3,4.3
		C134.9,291.1,133,289.2,133,286.8z"/>
	<path class="st6" d="M153,503.8c0-2.4,1.9-4.3,4.3-4.3c2.3,0,4.3,1.9,4.3,4.3c0,2.4-1.9,4.3-4.3,4.3
		C154.9,508.1,153,506.2,153,503.8z"/>
	<path class="st6" d="M358.7,471.1c0-2.4,1.9-4.3,4.3-4.3c2.3,0,4.3,1.9,4.3,4.3c0,2.4-1.9,4.3-4.3,4.3
		C360.6,475.3,358.7,473.4,358.7,471.1z"/>
	<path class="st6" d="M309.8,491.2c0-2.4,1.9-4.3,4.3-4.3c2.3,0,4.3,1.9,4.3,4.3c0,2.4-1.9,4.3-4.3,4.3
		C311.7,495.4,309.8,493.5,309.8,491.2z"/>
	<path class="st6" d="M417,478.6c0-2.4,1.9-4.3,4.3-4.3c2.3,0,4.3,1.9,4.3,4.3c0,2.4-1.9,4.3-4.3,4.3
		C418.9,482.8,417,480.9,417,478.6z"/>
	<path class="st6" d="M443.3,574.7c0-2.4,1.9-4.3,4.3-4.3c2.3,0,4.3,1.9,4.3,4.3c0,2.4-1.9,4.3-4.3,4.3
		C445.2,578.9,443.3,577,443.3,574.7z"/>
	<path class="st6" d="M435.1,529.9c0-2.4,1.9-4.3,4.3-4.3c2.3,0,4.3,1.9,4.3,4.3c0,2.4-1.9,4.3-4.3,4.3
		C437,534.2,435.1,532.3,435.1,529.9z"/>
	<path class="st6" d="M429.5,595.3c0-2.4,1.9-4.3,4.3-4.3c2.3,0,4.3,1.9,4.3,4.3c0,2.4-1.9,4.3-4.3,4.3
		C431.4,599.6,429.5,597.7,429.5,595.3z"/>
	<path class="st6" d="M382.5,562.3c0-2.4,1.9-4.3,4.3-4.3c2.3,0,4.3,1.9,4.3,4.3c0,2.4-1.9,4.3-4.3,4.3
		C384.4,566.6,382.5,564.7,382.5,562.3z"/>
	<path class="st6" d="M398.5,562.3c0-2.4,1.9-4.3,4.3-4.3c2.3,0,4.3,1.9,4.3,4.3c0,2.4-1.9,4.3-4.3,4.3
		C400.4,566.6,398.5,564.7,398.5,562.3z"/>
	<path class="st6" d="M606,467c0-2.4,1.9-4.3,4.3-4.3c2.3,0,4.3,1.9,4.3,4.3c0,2.4-1.9,4.3-4.3,4.3C607.9,471.3,606,469.4,606,467z"
		/>
	<path class="st6" d="M667.9,460c0-2.4,1.9-4.3,4.3-4.3c2.3,0,4.3,1.9,4.3,4.3c0,2.4-1.9,4.3-4.3,4.3
		C669.8,464.3,667.9,462.4,667.9,460z"/>
	<g>
		<path d="M570.3,209.8h2.5v11.4h-2.5V209.8z"/>
		<path d="M580,217.5c0,1.5,1.2,2.1,2.5,2.1c0.9,0,2.2-0.3,2.2-1.4c0-1.2-1.7-1.4-3.4-1.9c-1.7-0.4-3.4-1.1-3.4-3.2
			c0-2.3,2.2-3.5,4.3-3.5c2.4,0,4.6,1,4.6,3.7h-2.4c-0.1-1.4-1.1-1.7-2.3-1.7c-0.8,0-1.7,0.3-1.7,1.3c0,0.9,0.5,1,3.4,1.7
			c0.8,0.2,3.4,0.7,3.4,3.3c0,2.1-1.6,3.7-4.8,3.7c-2.5,0-4.9-1.2-4.9-4.1H580z"/>
		<path d="M591.8,209.8h2.5v9.3h5.6v2.1h-8.1V209.8z"/>
		<path d="M607.6,209.8h2.6l4.3,11.4h-2.6l-0.9-2.5h-4.3l-0.9,2.5h-2.5L607.6,209.8z M607.4,216.8h3l-1.4-4.2h0L607.4,216.8z"/>
		<path d="M618.7,209.8h2.5l4.8,7.7h0v-7.7h2.4v11.4h-2.5l-4.8-7.7h0v7.7h-2.4V209.8z"/>
		<path d="M633.7,209.8h4.9c3,0,5.2,1.9,5.2,5.7c0,3.3-1.7,5.8-5.2,5.8h-4.9V209.8z M636.3,219.1h2.2c1.5,0,2.8-0.9,2.8-3.4
			c0-2.3-0.8-3.8-3.3-3.8h-1.8V219.1z"/>
	</g>
	<g>
		<path d="M62.2,509.8H66c1.9,0,3.2,0.7,3.2,2.9c0,1.2-0.6,2.2-1.7,2.5v0c1.3,0.2,2.1,1.1,2.1,2.7c0,1.8-0.9,3.3-3.6,3.3h-3.9V509.8
			z M64.5,514.5h0.7c1.3,0,1.8-0.4,1.8-1.5c0-1.1-0.5-1.5-1.7-1.5h-0.8V514.5z M64.5,519.6h0.9c1.1,0,1.9-0.4,1.9-1.7
			c0-1.3-0.8-1.7-1.8-1.7h-1V519.6z"/>
		<path d="M71.7,509.8h2.2v11.4h-2.2V509.8z"/>
		<path d="M76.1,515.3v-0.2c0-2,1.4-2.7,3-2.7c2.6,0,3.1,1.1,3.1,2.6v4.5c0,0.8,0,1.2,0.3,1.7h-2.1c-0.1-0.3-0.2-0.6-0.3-0.9h0
			c-0.5,0.9-1.1,1.1-2.2,1.1c-1.5,0-2.1-1.3-2.1-2.5c0-1.6,0.7-2.3,2.2-2.7l1.2-0.3c0.7-0.2,0.9-0.4,0.9-1c0-0.7-0.3-1.1-1-1.1
			c-0.7,0-1,0.4-1,1.1v0.2H76.1z M80.1,517c-0.3,0.2-0.7,0.4-0.9,0.4c-0.9,0.2-1.2,0.6-1.2,1.4c0,0.7,0.2,1.2,0.8,1.2
			s1.4-0.4,1.4-1.3V517z"/>
		<path d="M88.9,520.3L88.9,520.3c-0.5,0.8-1.3,1.2-2.2,1.2c-1.4,0-2.2-0.8-2.2-2.4v-6.4h2.2v5.9c0,0.9,0.3,1.2,0.9,1.2
			c0.8,0,1.2-0.5,1.2-1.4v-5.7H91v8.6h-2.1V520.3z"/>
		<path d="M95,517.3v0.7c0,1,0.3,2,1.1,2c0.7,0,1-0.6,1.2-1.6h2c-0.1,2-1,3.1-3.1,3.1c-3.2,0-3.3-2.5-3.3-4.6c0-2.3,0.4-4.5,3.4-4.5
			c2.6,0,3.2,1.7,3.2,4.4v0.5H95z M97.2,516c0-1.3-0.2-2-1.1-2c-0.9,0-1.1,0.9-1.1,1.7v0.3H97.2z"/>
		<path d="M105.7,521.3v-11.4h2.3v9.5h4.1v1.9H105.7z"/>
		<path d="M113.6,515.3v-0.2c0-2,1.4-2.7,3-2.7c2.6,0,3.1,1.1,3.1,2.6v4.5c0,0.8,0,1.2,0.3,1.7h-2.1c-0.1-0.3-0.2-0.6-0.3-0.9h0
			c-0.5,0.9-1.1,1.1-2.2,1.1c-1.5,0-2.1-1.3-2.1-2.5c0-1.6,0.7-2.3,2.2-2.7l1.2-0.3c0.7-0.2,0.9-0.4,0.9-1c0-0.7-0.3-1.1-1-1.1
			c-0.7,0-1,0.4-1,1.1v0.2H113.6z M117.7,517c-0.3,0.2-0.7,0.4-0.9,0.4c-0.9,0.2-1.2,0.6-1.2,1.4c0,0.7,0.2,1.2,0.8,1.2
			s1.4-0.4,1.4-1.3V517z"/>
		<path d="M128.4,512.7v8.2c0,2.3-1,3.4-3.6,3.4c-1.9,0-2.9-0.8-2.9-2.3h2.1c0,0.3,0.1,0.5,0.3,0.7c0.2,0.1,0.5,0.2,0.7,0.2
			c0.9,0,1.2-0.7,1.2-1.6v-1.1h0c-0.4,0.6-1.1,1.1-1.8,1.1c-1.8,0-2.6-1.2-2.6-4.4c0-2,0.3-4.4,2.7-4.4c0.6,0,1.4,0.3,1.8,1.2h0v-1
			H128.4z M125.1,519.5c0.9,0,1.2-1,1.2-2.5c0-2.1-0.3-2.9-1.2-2.9c-1,0-1.2,0.8-1.2,3.1C124,518.4,124.2,519.5,125.1,519.5z"/>
		<path d="M135.1,520.3L135.1,520.3c-0.5,0.8-1.3,1.2-2.2,1.2c-1.4,0-2.2-0.8-2.2-2.4v-6.4h2.2v5.9c0,0.9,0.3,1.2,0.9,1.2
			c0.8,0,1.2-0.5,1.2-1.4v-5.7h2.2v8.6h-2.1V520.3z"/>
		<path d="M139.3,512.7h2.1v1h0c0.5-0.8,1.3-1.2,2.2-1.2c1.4,0,2.2,0.8,2.2,2.4v6.4h-2.2v-5.9c0-0.9-0.3-1.2-0.9-1.2
			c-0.8,0-1.2,0.5-1.2,1.4v5.7h-2.2V512.7z"/>
		<path d="M149.8,517.3v0.7c0,1,0.3,2,1.1,2c0.7,0,1-0.6,1.2-1.6h2c-0.1,2-1,3.1-3.1,3.1c-3.2,0-3.3-2.5-3.3-4.6
			c0-2.3,0.4-4.5,3.4-4.5c2.6,0,3.2,1.7,3.2,4.4v0.5H149.8z M152.1,516c0-1.3-0.2-2-1.1-2c-0.9,0-1.1,0.9-1.1,1.7v0.3H152.1z"/>
	</g>
	<g>
		<path d="M117.9,450.5h4.3c1.9,0,3,1,3,2.9c0,1.5-0.6,2.5-1.9,2.8v0c1.6,0.2,1.8,1.1,1.8,3.5c0,1.2,0.1,1.8,0.5,2v0.1h-2.5
			c-0.2-0.3-0.3-0.8-0.3-1.2l-0.1-2.2c0-0.9-0.4-1.4-1.4-1.4h-1.2v4.8h-2.3V450.5z M120.2,455.5h1c1.1,0,1.7-0.5,1.7-1.7
			c0-1.1-0.6-1.6-1.6-1.6h-1.1V455.5z"/>
		<path d="M129.3,457.9v0.7c0,1,0.3,2,1.1,2c0.7,0,1-0.6,1.2-1.6h2c-0.1,2-1,3.1-3.1,3.1c-3.2,0-3.3-2.5-3.3-4.6
			c0-2.3,0.4-4.5,3.4-4.5c2.6,0,3.2,1.7,3.2,4.4v0.5H129.3z M131.6,456.6c0-1.3-0.2-2-1.1-2c-0.9,0-1.1,0.9-1.1,1.7v0.3H131.6z"/>
		<path d="M135.5,463.1c0.2,0,0.4,0,0.6,0c0.8,0,1.1-0.4,1.2-1.2l-2.4-8.6h2.3l1.3,6h0l1.1-6h2.2l-2.1,8c-0.8,3-1.3,3.4-3.3,3.4
			h-0.9V463.1z"/>
		<path d="M145.5,450.5v6h0l2.2-3.2h2.4l-2.5,3.4l2.8,5.2h-2.4l-1.8-3.5l-0.8,1v2.5h-2.2v-11.4H145.5z"/>
		<path d="M151.9,453.3h2.2v9.2c0,1.4-0.5,2.2-2.5,2.2c-0.3,0-0.6,0-0.9,0v-1.6c0.1,0,0.2,0,0.4,0c0.8,0,0.9-0.4,0.9-1.4V453.3z
			 M151.9,450.4h2.2v1.9h-2.2V450.4z"/>
		<path d="M156.3,455.9v-0.2c0-2,1.4-2.7,3-2.7c2.6,0,3.1,1.1,3.1,2.6v4.5c0,0.8,0,1.2,0.3,1.7h-2.1c-0.1-0.3-0.2-0.6-0.3-0.9h0
			c-0.5,0.9-1.1,1.1-2.2,1.1c-1.5,0-2.1-1.3-2.1-2.5c0-1.6,0.7-2.3,2.2-2.7l1.2-0.3c0.7-0.2,0.9-0.4,0.9-1c0-0.7-0.3-1.1-1-1.1
			c-0.7,0-1,0.4-1,1.1v0.2H156.3z M160.3,457.6c-0.3,0.2-0.7,0.4-0.9,0.4c-0.9,0.2-1.2,0.6-1.2,1.4c0,0.7,0.2,1.2,0.8,1.2
			s1.4-0.4,1.4-1.3V457.6z"/>
		<path d="M168.7,453.3h2.2l-2.2,8.6h-2.6l-2.2-8.6h2.3l1.2,6.2h0L168.7,453.3z"/>
		<path d="M172.5,450.4h2.2v1.9h-2.2V450.4z M172.5,453.3h2.2v8.6h-2.2V453.3z"/>
		<path d="M179.2,450.5v6h0l2.2-3.2h2.4l-2.5,3.4l2.8,5.2h-2.4l-1.8-3.5l-0.8,1v2.5H177v-11.4H179.2z"/>
	</g>
	<g>
		<path d="M125.6,418.4h2.8l3,11.4H129l-0.5-2.4h-3l-0.5,2.4h-2.4L125.6,418.4z M125.9,425.5h2.2l-1.1-5.1h0L125.9,425.5z"/>
		<path d="M135.1,418.4v6h0l2.2-3.2h2.4l-2.5,3.4l2.8,5.2h-2.4l-1.8-3.5l-0.8,1v2.5h-2.2v-11.4H135.1z"/>
		<path d="M141.5,421.2h2.1v1.2h0c0.4-0.8,1.1-1.4,2-1.4c0.1,0,0.3,0,0.4,0v2.1c-0.2,0-0.5,0-0.7,0c-0.8,0-1.6,0.4-1.6,1.6v5.2h-2.2
			V421.2z"/>
		<path d="M147.4,423.8v-0.2c0-2,1.4-2.7,3-2.7c2.6,0,3.1,1.1,3.1,2.6v4.5c0,0.8,0,1.2,0.3,1.7h-2.1c-0.1-0.3-0.2-0.6-0.3-0.9h0
			c-0.5,0.9-1.1,1.1-2.2,1.1c-1.5,0-2.1-1.3-2.1-2.5c0-1.6,0.7-2.3,2.2-2.7l1.2-0.3c0.7-0.2,0.9-0.4,0.9-1c0-0.7-0.3-1.1-1-1.1
			c-0.7,0-1,0.4-1,1.1v0.2H147.4z M151.4,425.5c-0.3,0.2-0.7,0.4-0.9,0.4c-0.9,0.2-1.2,0.6-1.2,1.4c0,0.7,0.2,1.2,0.8,1.2
			s1.4-0.4,1.4-1.3V425.5z"/>
		<path d="M155.8,421.2h2.1v1h0c0.5-0.8,1.3-1.2,2.2-1.2c1.4,0,2.2,0.8,2.2,2.4v6.4h-2.2v-5.9c0-0.9-0.3-1.2-0.9-1.2
			c-0.8,0-1.2,0.5-1.2,1.4v5.7h-2.2V421.2z"/>
		<path d="M166.3,425.8v0.7c0,1,0.3,2,1.1,2c0.7,0,1-0.6,1.2-1.6h2c-0.1,2-1,3.1-3.1,3.1c-3.2,0-3.3-2.5-3.3-4.6
			c0-2.3,0.4-4.5,3.4-4.5c2.6,0,3.2,1.7,3.2,4.4v0.5H166.3z M168.6,424.5c0-1.3-0.2-2-1.1-2c-0.9,0-1.1,0.9-1.1,1.7v0.3H168.6z"/>
		<path d="M174.1,427v0.3c0,0.8,0.4,1.2,1.2,1.2c0.7,0,1.1-0.3,1.1-1c0-0.6-0.4-0.8-0.8-1L174,426c-1.2-0.4-1.8-1.2-1.8-2.4
			c0-1.4,0.9-2.6,3.2-2.6c2,0,2.9,0.9,2.9,2.4v0.4h-2c0-0.9-0.3-1.3-1-1.3c-0.6,0-1,0.3-1,0.9c0,0.4,0.2,0.8,1,1l1.3,0.4
			c1.4,0.5,1.9,1.2,1.9,2.5c0,1.8-1.3,2.7-3.2,2.7c-2.5,0-3.2-1.1-3.2-2.7V427H174.1z"/>
	</g>
	<g>
		<path d="M119.5,384.5h3.9c1.9,0,3.2,0.7,3.2,2.9c0,1.2-0.6,2.2-1.7,2.5v0c1.3,0.2,2.1,1.1,2.1,2.7c0,1.8-0.9,3.3-3.6,3.3h-3.9
			V384.5z M121.8,389.2h0.7c1.3,0,1.8-0.4,1.8-1.5c0-1.1-0.5-1.5-1.7-1.5h-0.8V389.2z M121.8,394.3h0.9c1.1,0,1.9-0.4,1.9-1.7
			c0-1.3-0.8-1.7-1.8-1.7h-1V394.3z"/>
		<path d="M132.1,387.1c2.7,0,3.4,1.5,3.4,4.5c0,2.9-0.9,4.5-3.4,4.5c-2.7,0-3.4-1.5-3.4-4.5C128.7,388.7,129.6,387.1,132.1,387.1z
			 M132.1,394.7c0.9,0,1.2-0.9,1.2-3s-0.3-3-1.2-3c-1.1,0-1.2,1.3-1.2,3S131,394.7,132.1,394.7z"/>
		<path d="M137.3,387.4h2.1v1.2h0c0.4-0.8,1.1-1.4,2-1.4c0.1,0,0.3,0,0.4,0v2.1c-0.2,0-0.5,0-0.7,0c-0.8,0-1.6,0.4-1.6,1.6v5.2h-2.2
			V387.4z"/>
		<path d="M149.7,387.4v8.2c0,2.3-1,3.4-3.6,3.4c-1.9,0-2.9-0.8-2.9-2.3h2.1c0,0.3,0.1,0.5,0.3,0.7c0.2,0.1,0.5,0.2,0.7,0.2
			c0.9,0,1.2-0.7,1.2-1.6v-1.1h0c-0.4,0.6-1.1,1.1-1.8,1.1c-1.8,0-2.6-1.2-2.6-4.4c0-2,0.3-4.4,2.7-4.4c0.6,0,1.4,0.3,1.8,1.2h0v-1
			H149.7z M146.4,394.2c0.9,0,1.2-1,1.2-2.5c0-2.1-0.3-2.9-1.2-2.9c-1,0-1.2,0.8-1.2,3.1C145.3,393.1,145.5,394.2,146.4,394.2z"/>
		<path d="M151.9,390v-0.2c0-2,1.4-2.7,3-2.7c2.6,0,3.1,1.1,3.1,2.6v4.5c0,0.8,0,1.2,0.3,1.7h-2.1c-0.1-0.3-0.2-0.6-0.3-0.9h0
			c-0.5,0.9-1.1,1.1-2.2,1.1c-1.5,0-2.1-1.3-2.1-2.5c0-1.6,0.7-2.3,2.2-2.7l1.2-0.3c0.7-0.2,0.9-0.4,0.9-1c0-0.7-0.3-1.1-1-1.1
			c-0.7,0-1,0.4-1,1.1v0.2H151.9z M155.9,391.7c-0.3,0.2-0.7,0.4-0.9,0.4c-0.9,0.2-1.2,0.6-1.2,1.4c0,0.7,0.2,1.2,0.8,1.2
			s1.4-0.4,1.4-1.3V391.7z"/>
		<path d="M160.3,387.4h2.1v1.2h0c0.4-0.8,1.1-1.4,2-1.4c0.1,0,0.3,0,0.4,0v2.1c-0.2,0-0.5,0-0.7,0c-0.8,0-1.6,0.4-1.6,1.6v5.2h-2.2
			V387.4z"/>
		<path d="M166.2,387.4h2.1v1h0c0.5-0.8,1.3-1.2,2.2-1.2c1.4,0,2.2,0.8,2.2,2.4v6.4h-2.2V390c0-0.9-0.3-1.2-0.9-1.2
			c-0.8,0-1.2,0.5-1.2,1.4v5.7h-2.2V387.4z"/>
		<path d="M176.8,392v0.7c0,1,0.3,2,1.1,2c0.7,0,1-0.6,1.2-1.6h2c-0.1,2-1,3.1-3.1,3.1c-3.2,0-3.3-2.5-3.3-4.6
			c0-2.3,0.4-4.5,3.4-4.5c2.6,0,3.2,1.7,3.2,4.4v0.5H176.8z M179,390.7c0-1.3-0.2-2-1.1-2c-0.9,0-1.1,0.9-1.1,1.7v0.3H179z"/>
		<path d="M184.5,393.2v0.3c0,0.8,0.4,1.2,1.2,1.2c0.7,0,1.1-0.3,1.1-1c0-0.6-0.4-0.8-0.8-1l-1.6-0.6c-1.2-0.4-1.8-1.2-1.8-2.4
			c0-1.4,0.9-2.6,3.2-2.6c2,0,2.9,0.9,2.9,2.4v0.4h-2c0-0.9-0.3-1.3-1-1.3c-0.6,0-1,0.3-1,0.9c0,0.4,0.2,0.8,1,1l1.3,0.4
			c1.4,0.5,1.9,1.2,1.9,2.5c0,1.8-1.3,2.7-3.2,2.7c-2.5,0-3.2-1.1-3.2-2.7v-0.3H184.5z"/>
	</g>
	<g>
		<path d="M25.4,349.6h2.3v4.4h2.7v-4.4h2.3V361h-2.3V356h-2.7v5.1h-2.3V349.6z"/>
		<path d="M36.7,357.1v0.7c0,1,0.3,2,1.1,2c0.7,0,1-0.6,1.2-1.6h2c-0.1,2-1,3.1-3.1,3.1c-3.2,0-3.3-2.5-3.3-4.6
			c0-2.3,0.4-4.5,3.4-4.5c2.6,0,3.2,1.7,3.2,4.4v0.5H36.7z M39,355.8c0-1.3-0.2-2-1.1-2c-0.9,0-1.1,0.9-1.1,1.7v0.3H39z"/>
		<path d="M43,349.6h2.2V361H43V349.6z"/>
		<path d="M47.5,349.6h2.2V361h-2.2V349.6z"/>
		<path d="M51.9,352.4H54v1h0c0.5-0.8,1.3-1.2,2.2-1.2c1.4,0,2.2,0.8,2.2,2.4v6.4h-2.2v-5.9c0-0.9-0.3-1.2-0.9-1.2
			c-0.8,0-1.2,0.5-1.2,1.4v5.7h-2.2V352.4z"/>
		<path d="M60.5,355.1v-0.2c0-2,1.4-2.7,3-2.7c2.6,0,3.1,1.1,3.1,2.6v4.5c0,0.8,0,1.2,0.3,1.7h-2.1c-0.1-0.3-0.2-0.6-0.3-0.9h0
			c-0.5,0.9-1.1,1.1-2.2,1.1c-1.5,0-2.1-1.3-2.1-2.5c0-1.6,0.7-2.3,2.2-2.7l1.2-0.3c0.7-0.2,0.9-0.4,0.9-1c0-0.7-0.3-1.1-1-1.1
			c-0.7,0-1,0.4-1,1.1v0.2H60.5z M64.5,356.7c-0.3,0.2-0.7,0.4-0.9,0.4c-0.9,0.2-1.2,0.6-1.2,1.4c0,0.7,0.2,1.2,0.8,1.2
			s1.4-0.4,1.4-1.3V356.7z"/>
	</g>
	<g>
		<path d="M30.5,279v0.3c0,1.1,0.3,1.8,1.5,1.8c0.7,0,1.4-0.4,1.4-1.4c0-1-0.5-1.4-2-2c-2-0.7-3-1.6-3-3.5c0-2.2,1.4-3.4,3.5-3.4
			c2,0,3.5,0.9,3.5,3.1v0.3h-2.2c0-1.1-0.4-1.7-1.2-1.7c-1,0-1.3,0.7-1.3,1.3c0,0.7,0.2,1.1,1.2,1.6l1.8,0.8c1.7,0.8,2.2,1.6,2.2,3
			c0,2.4-1.5,3.5-4,3.5c-2.6,0-3.6-1.2-3.6-3.3V279H30.5z"/>
		<path d="M38,271.5h2.2v2.5h1.3v1.5h-1.3v4.7c0,0.7,0.1,0.9,0.8,0.9c0.2,0,0.4,0,0.5,0v1.5c-0.5,0-0.9,0.1-1.4,0.1
			c-1.7,0-2-0.5-2-2.3v-4.9h-1.1V274H38V271.5z"/>
		<path d="M42.9,283.7c0.2,0,0.4,0,0.6,0c0.8,0,1.1-0.4,1.2-1.2l-2.4-8.6h2.3l1.3,6h0l1.1-6h2.2l-2.1,8c-0.8,3-1.3,3.4-3.3,3.4h-0.9
			V283.7z"/>
		<path d="M52.9,271.1v6h0l2.2-3.2h2.4l-2.5,3.4l2.8,5.2h-2.4l-1.8-3.5l-0.8,1v2.5h-2.2v-11.4H52.9z"/>
		<path d="M61.5,271.1v6h0l2.2-3.2h2.4l-2.5,3.4l2.8,5.2h-2.4l-1.8-3.5l-0.8,1v2.5h-2.2v-11.4H61.5z"/>
		<path d="M68,271h2.2v1.9H68V271z M68,274h2.2v8.6H68V274z"/>
		<path d="M74,279.8v0.3c0,0.8,0.4,1.2,1.2,1.2c0.7,0,1.1-0.3,1.1-1c0-0.6-0.4-0.8-0.8-1l-1.6-0.6c-1.2-0.4-1.8-1.2-1.8-2.4
			c0-1.4,0.9-2.6,3.2-2.6c2,0,2.9,0.9,2.9,2.4v0.4h-2c0-0.9-0.3-1.3-1-1.3c-0.6,0-1,0.3-1,0.9c0,0.4,0.2,0.8,1,1l1.3,0.4
			c1.4,0.5,1.9,1.2,1.9,2.5c0,1.8-1.3,2.7-3.2,2.7c-2.5,0-3.2-1.1-3.2-2.7v-0.3H74z"/>
		<path d="M80.1,271.1h2.2v3.7h0c0.4-0.7,1.2-1.1,2.1-1.1c1.4,0,2.2,0.8,2.2,2.4v6.4h-2.2v-5.9c0-0.9-0.3-1.2-0.9-1.2
			c-0.8,0-1.2,0.5-1.2,1.4v5.7h-2.2V271.1z"/>
		<path d="M91.9,273.7c2.7,0,3.4,1.5,3.4,4.5c0,2.9-0.9,4.5-3.4,4.5c-2.7,0-3.4-1.5-3.4-4.5C88.5,275.3,89.3,273.7,91.9,273.7z
			 M91.9,281.3c0.9,0,1.2-0.9,1.2-3s-0.3-3-1.2-3c-1.1,0-1.2,1.3-1.2,3S90.8,281.3,91.9,281.3z M91.7,270.6h2.2l-1.6,2.3h-1.5
			L91.7,270.6z"/>
		<path d="M97.1,271.1h2.2v11.4h-2.2V271.1z"/>
		<path d="M101.5,274h2.1v0.9h0c0.6-0.8,1.2-1.1,2.2-1.1c1,0,1.7,0.5,2,1.4h0c0.3-0.9,1.1-1.4,2.2-1.4c1.5,0,2.1,0.9,2.1,2.6v6.3
			H110v-6c0-0.7-0.2-1.1-0.9-1.1c-0.7,0-1.2,0.5-1.2,1.5v5.7h-2.2v-6c0-0.7-0.2-1.1-0.9-1.1c-0.7,0-1.2,0.5-1.2,1.5v5.7h-2.2V274z"
			/>
		<path d="M118.7,281.6L118.7,281.6c-0.5,0.8-1.3,1.2-2.2,1.2c-1.4,0-2.2-0.8-2.2-2.4V274h2.2v5.9c0,0.9,0.3,1.2,0.9,1.2
			c0.8,0,1.2-0.5,1.2-1.4V274h2.2v8.6h-2.1V281.6z"/>
		<path d="M123,274h2.1v1.2h0c0.4-0.8,1.1-1.4,2-1.4c0.1,0,0.3,0,0.4,0v2.1c-0.2,0-0.5,0-0.7,0c-0.8,0-1.6,0.4-1.6,1.6v5.2H123V274z
			"/>
	</g>
	<g>
		<path d="M286.2,483.4v0.3c0,1.1,0.3,1.8,1.5,1.8c0.7,0,1.4-0.4,1.4-1.4c0-1-0.5-1.4-2-2c-2-0.7-3-1.6-3-3.5c0-2.2,1.4-3.4,3.5-3.4
			c2,0,3.5,0.9,3.5,3.1v0.3H289c0-1.1-0.4-1.7-1.2-1.7c-1,0-1.3,0.7-1.3,1.3c0,0.7,0.2,1.1,1.2,1.6l1.8,0.8c1.7,0.8,2.2,1.6,2.2,3
			c0,2.4-1.5,3.5-4,3.5c-2.6,0-3.6-1.2-3.6-3.3v-0.5H286.2z"/>
		<path d="M295.1,483v0.7c0,1,0.3,2,1.1,2c0.7,0,1-0.6,1.2-1.6h2c-0.1,2-1,3.1-3.1,3.1c-3.2,0-3.3-2.5-3.3-4.6
			c0-2.3,0.4-4.5,3.4-4.5c2.6,0,3.2,1.7,3.2,4.4v0.5H295.1z M297.4,481.6c0-1.3-0.2-2-1.1-2c-0.9,0-1.1,0.9-1.1,1.7v0.3H297.4z"/>
		<path d="M301.4,475.5h2.2v11.4h-2.2V475.5z"/>
	</g>
	<g>
		<path d="M288.3,411.2c0-0.8-0.4-1.9-1.3-1.9c-1.1,0-1.6,1.2-1.6,4c0,2.8,0.3,4.5,1.6,4.5c0.5,0,1.4-0.6,1.4-1.8v-1.2h-1.5v-1.7
			h3.7v6.2H289v-1.1h0c-0.5,0.9-1.3,1.3-2.4,1.3c-2.8,0-3.4-2.1-3.4-6.1c0-3.8,0.9-5.8,3.8-5.8c2.5,0,3.6,1.3,3.6,3.6H288.3z"/>
		<path d="M294.6,415.3v0.7c0,1,0.3,2,1.1,2c0.7,0,1-0.6,1.2-1.6h2c-0.1,2-1,3.1-3.1,3.1c-3.2,0-3.3-2.5-3.3-4.6
			c0-2.3,0.4-4.5,3.4-4.5c2.6,0,3.2,1.7,3.2,4.4v0.5H294.6z M296.9,414c0-1.3-0.2-2-1.1-2c-0.9,0-1.1,0.9-1.1,1.7v0.3H296.9z"/>
		<path d="M300.8,420.4c0.2,0,0.4,0,0.6,0c0.8,0,1.1-0.4,1.2-1.2l-2.4-8.6h2.3l1.3,6h0l1.1-6h2.2l-2.1,8c-0.8,3-1.3,3.4-3.3,3.4
			h-0.9V420.4z"/>
		<path d="M310.1,416.5v0.3c0,0.8,0.4,1.2,1.2,1.2c0.7,0,1.1-0.3,1.1-1c0-0.6-0.4-0.8-0.8-1l-1.6-0.6c-1.2-0.4-1.8-1.2-1.8-2.4
			c0-1.4,0.9-2.6,3.2-2.6c2,0,2.9,0.9,2.9,2.4v0.4h-2c0-0.9-0.3-1.3-1-1.3c-0.6,0-1,0.3-1,0.9c0,0.4,0.2,0.8,1,1l1.3,0.4
			c1.4,0.5,1.9,1.2,1.9,2.5c0,1.8-1.3,2.7-3.2,2.7c-2.5,0-3.2-1.1-3.2-2.7v-0.3H310.1z"/>
		<path d="M316.4,407.7h2.2v1.9h-2.2V407.7z M316.4,410.7h2.2v8.6h-2.2V410.7z"/>
		<path d="M320.8,410.7h2.1v1.2h0c0.4-0.8,1.1-1.4,2-1.4c0.1,0,0.3,0,0.4,0v2.1c-0.2,0-0.5,0-0.7,0c-0.8,0-1.6,0.4-1.6,1.6v5.2h-2.2
			V410.7z"/>
	</g>
	<g>
		<path d="M252.8,444.4h2.3v2h1.7c2.3,0,3.1,1.7,3.1,3.4c0,2.4-1.5,3.4-3.6,3.4h-1.2v2.5h-2.3V444.4z M255.1,451.6h1
			c0.9,0,1.5-0.5,1.5-1.7c0-1.1-0.4-1.8-1.6-1.8h-1V451.6z"/>
		<path d="M261.8,444.2h2.2v1.9h-2.2V444.2z M261.8,447.2h2.2v8.6h-2.2V447.2z"/>
		<path d="M266.2,447.2h2.1v1h0c0.5-0.8,1.3-1.2,2.2-1.2c1.4,0,2.2,0.8,2.2,2.4v6.4h-2.2v-5.9c0-0.9-0.3-1.2-0.9-1.2
			c-0.8,0-1.2,0.5-1.2,1.4v5.7h-2.2V447.2z"/>
		<path d="M281.3,447.2v8.2c0,2.3-1,3.4-3.6,3.4c-1.9,0-2.9-0.8-2.9-2.3h2.1c0,0.3,0.1,0.5,0.3,0.7c0.2,0.1,0.5,0.2,0.7,0.2
			c0.9,0,1.2-0.7,1.2-1.6v-1.1h0c-0.4,0.6-1.1,1.1-1.8,1.1c-1.8,0-2.6-1.2-2.6-4.4c0-2,0.3-4.4,2.7-4.4c0.6,0,1.4,0.3,1.8,1.2h0v-1
			H281.3z M278,454c0.9,0,1.2-1,1.2-2.5c0-2.1-0.3-2.9-1.2-2.9c-1,0-1.2,0.8-1.2,3.1C276.9,452.9,277,454,278,454z"/>
		<path d="M287.5,447.2h2.2l-2.2,8.6H285l-2.2-8.6h2.3l1.2,6.2h0L287.5,447.2z"/>
		<path d="M293.1,451.8v0.7c0,1,0.3,2,1.1,2c0.7,0,1-0.6,1.2-1.6h2c-0.1,2-1,3.1-3.1,3.1c-3.2,0-3.3-2.5-3.3-4.6
			c0-2.3,0.4-4.5,3.4-4.5c2.6,0,3.2,1.7,3.2,4.4v0.5H293.1z M295.4,450.5c0-1.3-0.2-2-1.1-2c-0.9,0-1.1,0.9-1.1,1.7v0.3H295.4z"/>
		<path d="M299.3,444.4h2.2v11.4h-2.2V444.4z"/>
		<path d="M303.8,444.4h2.2v11.4h-2.2V444.4z"/>
		<path d="M308.3,444.2h2.2v1.9h-2.2V444.2z M308.3,447.2h2.2v8.6h-2.2V447.2z"/>
		<path d="M312.7,447.2h2.1v1.2h0c0.4-0.8,1.1-1.4,2-1.4c0.1,0,0.3,0,0.4,0v2.1c-0.2,0-0.5,0-0.7,0c-0.8,0-1.6,0.4-1.6,1.6v5.2h-2.2
			V447.2z"/>
	</g>
	<g>
		<path d="M350.1,401.9c0-0.8-0.4-1.9-1.3-1.9c-1.1,0-1.6,1.2-1.6,4c0,2.8,0.3,4.5,1.6,4.5c0.5,0,1.4-0.6,1.4-1.8v-1.2h-1.5v-1.7
			h3.7v6.2h-1.7v-1.1h0c-0.5,0.9-1.3,1.3-2.4,1.3c-2.8,0-3.4-2.1-3.4-6.1c0-3.8,0.9-5.8,3.8-5.8c2.5,0,3.6,1.3,3.6,3.6H350.1z"/>
		<path d="M358.9,408.9L358.9,408.9c-0.5,0.8-1.3,1.2-2.2,1.2c-1.4,0-2.2-0.8-2.2-2.4v-6.4h2.2v5.9c0,0.9,0.3,1.2,0.9,1.2
			c0.8,0,1.2-0.5,1.2-1.4v-5.7h2.2v8.6h-2.1V408.9z"/>
		<path d="M363.2,398.5h2.2v11.4h-2.2V398.5z"/>
		<path d="M367.7,398.5h2.2v11.4h-2.2V398.5z"/>
		<path d="M372.6,402.8h-1.1v-1.5h1.1v-1c0-1.6,0.9-2.1,2.3-2.1c0.4,0,0.8,0,1.2,0v1.6c-0.1,0-0.3,0-0.4,0c-0.6,0-0.8,0.2-0.8,0.7
			v0.8h1.3v1.5h-1.3v7.1h-2.2V402.8z"/>
		<path d="M380.6,401.1c2.7,0,3.4,1.5,3.4,4.5c0,2.9-0.9,4.5-3.4,4.5c-2.7,0-3.4-1.5-3.4-4.5C377.2,402.7,378.1,401.1,380.6,401.1z
			 M380.6,408.6c0.9,0,1.2-0.9,1.2-3s-0.3-3-1.2-3c-1.1,0-1.2,1.3-1.2,3S379.5,408.6,380.6,408.6z"/>
		<path d="M387.4,407.1v0.3c0,0.8,0.4,1.2,1.2,1.2c0.7,0,1.1-0.3,1.1-1c0-0.6-0.4-0.8-0.8-1l-1.6-0.6c-1.2-0.4-1.8-1.2-1.8-2.4
			c0-1.4,0.9-2.6,3.2-2.6c2,0,2.9,0.9,2.9,2.4v0.4h-2c0-0.9-0.3-1.3-1-1.3c-0.6,0-1,0.3-1,0.9c0,0.4,0.2,0.8,1,1l1.3,0.4
			c1.4,0.5,1.9,1.2,1.9,2.5c0,1.8-1.3,2.7-3.2,2.7c-2.5,0-3.2-1.1-3.2-2.7v-0.3H387.4z"/>
		<path d="M395.2,407.1v0.3c0,0.8,0.4,1.2,1.2,1.2c0.7,0,1.1-0.3,1.1-1c0-0.6-0.4-0.8-0.8-1l-1.6-0.6c-1.2-0.4-1.8-1.2-1.8-2.4
			c0-1.4,0.9-2.6,3.2-2.6c2,0,2.9,0.9,2.9,2.4v0.4h-2c0-0.9-0.3-1.3-1-1.3c-0.6,0-1,0.3-1,0.9c0,0.4,0.2,0.8,1,1l1.3,0.4
			c1.4,0.5,1.9,1.2,1.9,2.5c0,1.8-1.3,2.7-3.2,2.7c-2.5,0-3.2-1.1-3.2-2.7v-0.3H395.2z"/>
	</g>
	<g>
		<path d="M361.4,455.4v0.3c0,1.1,0.3,1.8,1.5,1.8c0.7,0,1.4-0.4,1.4-1.4c0-1-0.5-1.4-2-2c-2-0.7-3-1.6-3-3.5c0-2.2,1.4-3.4,3.5-3.4
			c2,0,3.5,0.9,3.5,3.1v0.3h-2.2c0-1.1-0.4-1.7-1.2-1.7c-1,0-1.3,0.7-1.3,1.3c0,0.7,0.2,1.1,1.2,1.6l1.8,0.8c1.7,0.8,2.2,1.6,2.2,3
			c0,2.4-1.5,3.5-4,3.5c-2.6,0-3.6-1.2-3.6-3.3v-0.5H361.4z"/>
		<path d="M372.8,458L372.8,458c-0.5,0.8-1.3,1.2-2.2,1.2c-1.4,0-2.2-0.8-2.2-2.4v-6.4h2.2v5.9c0,0.9,0.3,1.2,0.9,1.2
			c0.8,0,1.2-0.5,1.2-1.4v-5.7h2.2v8.6h-2.1V458z"/>
		<path d="M377.4,449l1.2-0.7c-0.4-0.4-0.7-0.7-1.1-1l1.7-1c0.4,0.3,0.7,0.7,1.1,1l1.2-0.7l0.7,0.7l-1.2,0.7
			c1.7,1.9,2.6,3.8,2.6,6.7c0,2.9-0.9,4.5-3.4,4.5c-2.7,0-3.4-1.5-3.4-4.5c0-2.5,0.8-4.2,2.8-4.2c0.4,0,0.8,0.1,1.1,0.4l0,0
			c-0.4-0.6-0.9-1.3-1.5-1.9l-1.2,0.7L377.4,449z M380.2,457.7c0.9,0,1.2-0.8,1.2-2.9c0-2-0.3-2.8-1.2-2.8c-1.1,0-1.2,1.2-1.2,2.8
			C379,456.5,379.1,457.7,380.2,457.7z"/>
		<path d="M389.8,458L389.8,458c-0.5,0.8-1.3,1.2-2.2,1.2c-1.4,0-2.2-0.8-2.2-2.4v-6.4h2.2v5.9c0,0.9,0.3,1.2,0.9,1.2
			c0.8,0,1.2-0.5,1.2-1.4v-5.7h2.2v8.6h-2.1V458z"/>
		<path d="M394,450.4h2.1v1.2h0c0.4-0.8,1.1-1.4,2-1.4c0.1,0,0.3,0,0.4,0v2.1c-0.2,0-0.5,0-0.7,0c-0.8,0-1.6,0.4-1.6,1.6v5.2H394
			V450.4z"/>
		<path d="M400.1,447.5h2.2V459h-2.2V447.5z"/>
		<path d="M404.4,453v-0.2c0-2,1.4-2.7,3-2.7c2.6,0,3.1,1.1,3.1,2.6v4.5c0,0.8,0,1.2,0.3,1.7h-2.1c-0.1-0.3-0.2-0.6-0.3-0.9h0
			c-0.5,0.9-1.1,1.1-2.2,1.1c-1.5,0-2.1-1.3-2.1-2.5c0-1.6,0.7-2.3,2.2-2.7l1.2-0.3c0.7-0.2,0.9-0.4,0.9-1c0-0.7-0.3-1.1-1-1.1
			c-0.7,0-1,0.4-1,1.1v0.2H404.4z M408.5,454.7c-0.3,0.2-0.7,0.4-0.9,0.4c-0.9,0.2-1.2,0.6-1.2,1.4c0,0.7,0.2,1.2,0.8,1.2
			s1.4-0.4,1.4-1.3V454.7z"/>
		<path d="M412.8,450.4h2.1v1h0c0.5-0.8,1.3-1.2,2.2-1.2c1.4,0,2.2,0.8,2.2,2.4v6.4h-2.2V453c0-0.9-0.3-1.2-0.9-1.2
			c-0.8,0-1.2,0.5-1.2,1.4v5.7h-2.2V450.4z"/>
		<path d="M425.9,458.1L425.9,458.1c-0.5,0.8-1.1,1.1-2,1.1c-1.8,0-2.6-1.3-2.6-4.5s0.8-4.5,2.6-4.5c0.8,0,1.4,0.3,1.9,1h0v-3.6h2.2
			V459h-2.1V458.1z M424.6,457.5c1,0,1.2-1,1.2-2.8s-0.2-2.8-1.2-2.8c-1,0-1.2,1-1.2,2.8S423.6,457.5,424.6,457.5z"/>
		<path d="M430.6,451.9h-1.1v-1.5h1.1v-1c0-1.6,0.9-2.1,2.3-2.1c0.4,0,0.8,0,1.2,0v1.6c-0.1,0-0.3,0-0.4,0c-0.6,0-0.8,0.2-0.8,0.7
			v0.8h1.3v1.5h-1.3v7.1h-2.2V451.9z"/>
		<path d="M438.6,450.1c2.7,0,3.4,1.5,3.4,4.5c0,2.9-0.9,4.5-3.4,4.5c-2.7,0-3.4-1.5-3.4-4.5C435.2,451.7,436,450.1,438.6,450.1z
			 M438.6,457.7c0.9,0,1.2-0.9,1.2-3s-0.3-3-1.2-3c-1.1,0-1.2,1.3-1.2,3S437.5,457.7,438.6,457.7z"/>
		<path d="M445.4,456.2v0.3c0,0.8,0.4,1.2,1.2,1.2c0.7,0,1.1-0.3,1.1-1c0-0.6-0.4-0.8-0.8-1l-1.6-0.6c-1.2-0.4-1.8-1.2-1.8-2.4
			c0-1.4,0.9-2.6,3.2-2.6c2,0,2.9,0.9,2.9,2.4v0.4h-2c0-0.9-0.3-1.3-1-1.3c-0.6,0-1,0.3-1,0.9c0,0.4,0.2,0.8,1,1l1.3,0.4
			c1.4,0.5,1.9,1.2,1.9,2.5c0,1.8-1.3,2.7-3.2,2.7c-2.5,0-3.2-1.1-3.2-2.7v-0.3H445.4z"/>
		<path d="M453.1,456.2v0.3c0,0.8,0.4,1.2,1.2,1.2c0.7,0,1.1-0.3,1.1-1c0-0.6-0.4-0.8-0.8-1l-1.6-0.6c-1.2-0.4-1.8-1.2-1.8-2.4
			c0-1.4,0.9-2.6,3.2-2.6c2,0,2.9,0.9,2.9,2.4v0.4h-2c0-0.9-0.3-1.3-1-1.3c-0.6,0-1,0.3-1,0.9c0,0.4,0.2,0.8,1,1l1.3,0.4
			c1.4,0.5,1.9,1.2,1.9,2.5c0,1.8-1.3,2.7-3.2,2.7c-2.5,0-3.2-1.1-3.2-2.7v-0.3H453.1z"/>
	</g>
	<g>
		<path d="M411.4,498.1v-11.4h2.3v9.5h4.1v1.9H411.4z"/>
		<path d="M419.4,492.1v-0.2c0-2,1.4-2.7,3-2.7c2.6,0,3.1,1.1,3.1,2.6v4.5c0,0.8,0,1.2,0.3,1.7h-2.1c-0.1-0.3-0.2-0.6-0.3-0.9h0
			c-0.5,0.9-1.1,1.1-2.2,1.1c-1.5,0-2.1-1.3-2.1-2.5c0-1.6,0.7-2.3,2.2-2.7l1.2-0.3c0.7-0.2,0.9-0.4,0.9-1c0-0.7-0.3-1.1-1-1.1
			c-0.7,0-1,0.4-1,1.1v0.2H419.4z M423.4,493.8c-0.3,0.2-0.7,0.4-0.9,0.4c-0.9,0.2-1.2,0.6-1.2,1.4c0,0.7,0.2,1.2,0.8,1.2
			s1.4-0.4,1.4-1.3V493.8z"/>
		<path d="M427.7,489.5h2.1v1h0c0.5-0.8,1.3-1.2,2.2-1.2c1.4,0,2.2,0.8,2.2,2.4v6.4H432v-5.9c0-0.9-0.3-1.2-0.9-1.2
			c-0.8,0-1.2,0.5-1.2,1.4v5.7h-2.2V489.5z"/>
		<path d="M440.8,497.2L440.8,497.2c-0.5,0.8-1.1,1.1-2,1.1c-1.8,0-2.6-1.3-2.6-4.5s0.8-4.5,2.6-4.5c0.8,0,1.4,0.3,1.9,1h0v-3.6h2.2
			v11.4h-2.1V497.2z M439.5,496.6c1,0,1.2-1,1.2-2.8s-0.2-2.8-1.2-2.8c-1,0-1.2,1-1.2,2.8S438.6,496.6,439.5,496.6z"/>
		<path d="M445,489.5h2.1v0.9h0c0.6-0.8,1.2-1.1,2.2-1.1c1,0,1.7,0.5,2,1.4h0c0.3-0.9,1.1-1.4,2.2-1.4c1.5,0,2.1,0.9,2.1,2.6v6.3
			h-2.2v-6c0-0.7-0.2-1.1-0.9-1.1c-0.7,0-1.2,0.5-1.2,1.5v5.7h-2.2v-6c0-0.7-0.2-1.1-0.9-1.1c-0.7,0-1.2,0.5-1.2,1.5v5.7H445V489.5z
			"/>
		<path d="M457.8,492.1v-0.2c0-2,1.4-2.7,3-2.7c2.6,0,3.1,1.1,3.1,2.6v4.5c0,0.8,0,1.2,0.3,1.7h-2.1c-0.1-0.3-0.2-0.6-0.3-0.9h0
			c-0.5,0.9-1.1,1.1-2.2,1.1c-1.5,0-2.1-1.3-2.1-2.5c0-1.6,0.7-2.3,2.2-2.7l1.2-0.3c0.7-0.2,0.9-0.4,0.9-1c0-0.7-0.3-1.1-1-1.1
			c-0.7,0-1,0.4-1,1.1v0.2H457.8z M461.8,493.8c-0.3,0.2-0.7,0.4-0.9,0.4c-0.9,0.2-1.2,0.6-1.2,1.4c0,0.7,0.2,1.2,0.8,1.2
			s1.4-0.4,1.4-1.3V493.8z"/>
		<path d="M466.1,489.5h2.1v1h0c0.5-0.8,1.3-1.2,2.2-1.2c1.4,0,2.2,0.8,2.2,2.4v6.4h-2.2v-5.9c0-0.9-0.3-1.2-0.9-1.2
			c-0.8,0-1.2,0.5-1.2,1.4v5.7h-2.2V489.5z"/>
		<path d="M474.7,489.5h2.1v1h0c0.5-0.8,1.3-1.2,2.2-1.2c1.4,0,2.2,0.8,2.2,2.4v6.4h-2.2v-5.9c0-0.9-0.3-1.2-0.9-1.2
			c-0.8,0-1.2,0.5-1.2,1.4v5.7h-2.2V489.5z"/>
		<path d="M483.4,492.1v-0.2c0-2,1.4-2.7,3-2.7c2.6,0,3.1,1.1,3.1,2.6v4.5c0,0.8,0,1.2,0.3,1.7h-2.1c-0.1-0.3-0.2-0.6-0.3-0.9h0
			c-0.5,0.9-1.1,1.1-2.2,1.1c-1.5,0-2.1-1.3-2.1-2.5c0-1.6,0.7-2.3,2.2-2.7l1.2-0.3c0.7-0.2,0.9-0.4,0.9-1c0-0.7-0.3-1.1-1-1.1
			c-0.7,0-1,0.4-1,1.1v0.2H483.4z M487.4,493.8c-0.3,0.2-0.7,0.4-0.9,0.4c-0.9,0.2-1.2,0.6-1.2,1.4c0,0.7,0.2,1.2,0.8,1.2
			c0.6,0,1.4-0.4,1.4-1.3V493.8z"/>
		<path d="M491.8,486.7h2.2v11.4h-2.2V486.7z"/>
		<path d="M496.2,492.1v-0.2c0-2,1.4-2.7,3-2.7c2.6,0,3.1,1.1,3.1,2.6v4.5c0,0.8,0,1.2,0.3,1.7h-2.1c-0.1-0.3-0.2-0.6-0.3-0.9h0
			c-0.5,0.9-1.1,1.1-2.2,1.1c-1.5,0-2.1-1.3-2.1-2.5c0-1.6,0.7-2.3,2.2-2.7l1.2-0.3c0.7-0.2,0.9-0.4,0.9-1c0-0.7-0.3-1.1-1-1.1
			c-0.7,0-1,0.4-1,1.1v0.2H496.2z M500.2,493.8c-0.3,0.2-0.7,0.4-0.9,0.4c-0.9,0.2-1.2,0.6-1.2,1.4c0,0.7,0.2,1.2,0.8,1.2
			c0.6,0,1.4-0.4,1.4-1.3V493.8z"/>
		<path d="M509,497.1L509,497.1c-0.5,0.8-1.3,1.2-2.2,1.2c-1.4,0-2.2-0.8-2.2-2.4v-6.4h2.2v5.9c0,0.9,0.3,1.2,0.9,1.2
			c0.8,0,1.2-0.5,1.2-1.4v-5.7h2.2v8.6H509V497.1z"/>
		<path d="M519.6,489.5v8.2c0,2.3-1,3.4-3.6,3.4c-1.9,0-2.9-0.8-2.9-2.3h2.1c0,0.3,0.1,0.5,0.3,0.7c0.2,0.1,0.5,0.2,0.7,0.2
			c0.9,0,1.2-0.7,1.2-1.6v-1.1h0c-0.4,0.6-1.1,1.1-1.8,1.1c-1.8,0-2.6-1.2-2.6-4.4c0-2,0.3-4.4,2.7-4.4c0.6,0,1.4,0.3,1.8,1.2h0v-1
			H519.6z M516.3,496.3c0.9,0,1.2-1,1.2-2.5c0-2.1-0.3-2.9-1.2-2.9c-1,0-1.2,0.8-1.2,3.1C515.2,495.2,515.4,496.3,516.3,496.3z"/>
		<path d="M521.8,492.1v-0.2c0-2,1.4-2.7,3-2.7c2.6,0,3.1,1.1,3.1,2.6v4.5c0,0.8,0,1.2,0.3,1.7h-2.1c-0.1-0.3-0.2-0.6-0.3-0.9h0
			c-0.5,0.9-1.1,1.1-2.2,1.1c-1.5,0-2.1-1.3-2.1-2.5c0-1.6,0.7-2.3,2.2-2.7l1.2-0.3c0.7-0.2,0.9-0.4,0.9-1c0-0.7-0.3-1.1-1-1.1
			c-0.7,0-1,0.4-1,1.1v0.2H521.8z M525.8,493.8c-0.3,0.2-0.7,0.4-0.9,0.4c-0.9,0.2-1.2,0.6-1.2,1.4c0,0.7,0.2,1.2,0.8,1.2
			c0.6,0,1.4-0.4,1.4-1.3V493.8z"/>
		<path d="M530.1,489.5h2.1v1.2h0c0.4-0.8,1.1-1.4,2-1.4c0.1,0,0.3,0,0.4,0v2.1c-0.2,0-0.5,0-0.7,0c-0.8,0-1.6,0.4-1.6,1.6v5.2h-2.2
			V489.5z"/>
	</g>
	<g>
		<path d="M296.4,561.8v0.3c0,1.1,0.3,1.8,1.5,1.8c0.7,0,1.4-0.4,1.4-1.4c0-1-0.5-1.4-2-2c-2-0.7-3-1.6-3-3.5c0-2.2,1.4-3.4,3.5-3.4
			c2,0,3.5,0.9,3.5,3.1v0.3h-2.2c0-1.1-0.4-1.7-1.2-1.7c-1,0-1.3,0.7-1.3,1.3c0,0.7,0.2,1.1,1.2,1.6l1.8,0.8c1.7,0.8,2.2,1.6,2.2,3
			c0,2.4-1.5,3.5-4,3.5c-2.6,0-3.6-1.2-3.6-3.3v-0.5H296.4z"/>
		<path d="M305.7,553.9v6h0l2.2-3.2h2.4l-2.5,3.4l2.8,5.2h-2.4l-1.8-3.5l-0.8,1v2.5h-2.2v-11.4H305.7z"/>
		<path d="M315.2,556.5c2.7,0,3.4,1.5,3.4,4.5c0,2.9-0.9,4.5-3.4,4.5c-2.7,0-3.4-1.5-3.4-4.5C311.8,558.1,312.7,556.5,315.2,556.5z
			 M315.2,564c0.9,0,1.2-0.9,1.2-3s-0.3-3-1.2-3c-1.1,0-1.2,1.3-1.2,3S314.1,564,315.2,564z M315,553.4h2.2l-1.6,2.3h-1.5L315,553.4
			z"/>
		<path d="M326.9,556.7v8.2c0,2.3-1,3.4-3.6,3.4c-1.9,0-2.9-0.8-2.9-2.3h2.1c0,0.3,0.1,0.5,0.3,0.7c0.2,0.1,0.5,0.2,0.7,0.2
			c0.9,0,1.2-0.7,1.2-1.6v-1.1h0c-0.4,0.6-1.1,1.1-1.8,1.1c-1.8,0-2.6-1.2-2.6-4.4c0-2,0.3-4.4,2.7-4.4c0.6,0,1.4,0.3,1.8,1.2h0v-1
			H326.9z M323.6,563.5c0.9,0,1.2-1,1.2-2.5c0-2.1-0.3-2.9-1.2-2.9c-1,0-1.2,0.8-1.2,3.1C322.4,562.5,322.6,563.5,323.6,563.5z"/>
		<path d="M329,559.4v-0.2c0-2,1.4-2.7,3-2.7c2.6,0,3.1,1.1,3.1,2.6v4.5c0,0.8,0,1.2,0.3,1.7h-2.1c-0.1-0.3-0.2-0.6-0.3-0.9h0
			c-0.5,0.9-1.1,1.1-2.2,1.1c-1.5,0-2.1-1.3-2.1-2.5c0-1.6,0.7-2.3,2.2-2.7l1.2-0.3c0.7-0.2,0.9-0.4,0.9-1c0-0.7-0.3-1.1-1-1.1
			c-0.7,0-1,0.4-1,1.1v0.2H329z M333.1,561c-0.3,0.2-0.7,0.4-0.9,0.4c-0.9,0.2-1.2,0.6-1.2,1.4c0,0.7,0.2,1.2,0.8,1.2
			s1.4-0.4,1.4-1.3V561z"/>
		<path d="M337.4,556.7h2.1v1.2h0c0.4-0.8,1.1-1.4,2-1.4c0.1,0,0.3,0,0.4,0v2.1c-0.2,0-0.5,0-0.7,0c-0.8,0-1.6,0.4-1.6,1.6v5.2h-2.2
			V556.7z"/>
		<path d="M343.8,558.2h-1.1v-1.5h1.1v-1c0-1.6,0.9-2.1,2.3-2.1c0.4,0,0.8,0,1.2,0v1.6c-0.1,0-0.3,0-0.4,0c-0.6,0-0.8,0.2-0.8,0.7
			v0.8h1.3v1.5H346v7.1h-2.2V558.2z"/>
		<path d="M351.8,556.5c2.7,0,3.4,1.5,3.4,4.5c0,2.9-0.9,4.5-3.4,4.5c-2.7,0-3.4-1.5-3.4-4.5C348.4,558.1,349.3,556.5,351.8,556.5z
			 M351.8,564c0.9,0,1.2-0.9,1.2-3s-0.3-3-1.2-3c-1.1,0-1.2,1.3-1.2,3S350.8,564,351.8,564z"/>
		<path d="M358.7,562.5v0.3c0,0.8,0.4,1.2,1.2,1.2c0.7,0,1.1-0.3,1.1-1c0-0.6-0.4-0.8-0.8-1l-1.6-0.6c-1.2-0.4-1.8-1.2-1.8-2.4
			c0-1.4,0.9-2.6,3.2-2.6c2,0,2.9,0.9,2.9,2.4v0.4h-2c0-0.9-0.3-1.3-1-1.3c-0.6,0-1,0.3-1,0.9c0,0.4,0.2,0.8,1,1l1.3,0.4
			c1.4,0.5,1.9,1.2,1.9,2.5c0,1.8-1.3,2.7-3.2,2.7c-2.5,0-3.2-1.1-3.2-2.7v-0.3H358.7z"/>
		<path d="M366.4,562.5v0.3c0,0.8,0.4,1.2,1.2,1.2c0.7,0,1.1-0.3,1.1-1c0-0.6-0.4-0.8-0.8-1l-1.6-0.6c-1.2-0.4-1.8-1.2-1.8-2.4
			c0-1.4,0.9-2.6,3.2-2.6c2,0,2.9,0.9,2.9,2.4v0.4h-2c0-0.9-0.3-1.3-1-1.3c-0.6,0-1,0.3-1,0.9c0,0.4,0.2,0.8,1,1l1.3,0.4
			c1.4,0.5,1.9,1.2,1.9,2.5c0,1.8-1.3,2.7-3.2,2.7c-2.5,0-3.2-1.1-3.2-2.7v-0.3H366.4z"/>
	</g>
	<g>
		<path d="M305.5,580.6v0.3c0,1.1,0.3,1.8,1.5,1.8c0.7,0,1.4-0.4,1.4-1.4c0-1-0.5-1.4-2-2c-2-0.7-3-1.6-3-3.5c0-2.2,1.4-3.4,3.5-3.4
			c2,0,3.5,0.9,3.5,3.1v0.3h-2.2c0-1.1-0.4-1.7-1.2-1.7c-1,0-1.3,0.7-1.3,1.3c0,0.7,0.2,1.1,1.2,1.6l1.8,0.8c1.7,0.8,2.2,1.6,2.2,3
			c0,2.4-1.5,3.5-4,3.5c-2.6,0-3.6-1.2-3.6-3.3v-0.5H305.5z"/>
		<path d="M315.7,575.3c2.7,0,3.4,1.5,3.4,4.5c0,2.9-0.9,4.5-3.4,4.5c-2.7,0-3.4-1.5-3.4-4.5C312.3,576.9,313.1,575.3,315.7,575.3z
			 M315.7,582.8c0.9,0,1.2-0.9,1.2-3s-0.3-3-1.2-3c-1.1,0-1.2,1.3-1.2,3S314.6,582.8,315.7,582.8z M315.5,572.2h2.2l-1.6,2.3h-1.5
			L315.5,572.2z"/>
		<path d="M321,572.7h2.2v11.4H321V572.7z"/>
		<path d="M325.4,572.7h2.2v3.7h0c0.4-0.7,1.2-1.1,2.1-1.1c1.4,0,2.2,0.8,2.2,2.4v6.4h-2.2v-5.9c0-0.9-0.3-1.2-0.9-1.2
			c-0.8,0-1.2,0.5-1.2,1.4v5.7h-2.2V572.7z"/>
		<path d="M335.9,580.2v0.7c0,1,0.3,2,1.1,2c0.7,0,1-0.6,1.2-1.6h2c-0.1,2-1,3.1-3.1,3.1c-3.2,0-3.3-2.5-3.3-4.6
			c0-2.3,0.4-4.5,3.4-4.5c2.6,0,3.2,1.7,3.2,4.4v0.5H335.9z M338.2,578.8c0-1.3-0.2-2-1.1-2c-0.9,0-1.1,0.9-1.1,1.7v0.3H338.2z"/>
		<path d="M342.1,572.6h2.2v1.9h-2.2V572.6z M342.1,575.5h2.2v8.6h-2.2V575.5z"/>
		<path d="M346.5,575.5h2.1v0.9h0c0.6-0.8,1.2-1.1,2.2-1.1c1,0,1.7,0.5,2,1.4h0c0.3-0.9,1.1-1.4,2.2-1.4c1.5,0,2.1,0.9,2.1,2.6v6.3
			H355v-6c0-0.7-0.2-1.1-0.9-1.1c-0.7,0-1.2,0.5-1.2,1.5v5.7h-2.2v-6c0-0.7-0.2-1.1-0.9-1.1c-0.7,0-1.2,0.5-1.2,1.5v5.7h-2.2V575.5z
			"/>
		<path d="M359.3,578.2v-0.2c0-2,1.4-2.7,3-2.7c2.6,0,3.1,1.1,3.1,2.6v4.5c0,0.8,0,1.2,0.3,1.7h-2.1c-0.1-0.3-0.2-0.6-0.3-0.9h0
			c-0.5,0.9-1.1,1.1-2.2,1.1c-1.5,0-2.1-1.3-2.1-2.5c0-1.6,0.7-2.3,2.2-2.7l1.2-0.3c0.7-0.2,0.9-0.4,0.9-1c0-0.7-0.3-1.1-1-1.1
			c-0.7,0-1,0.4-1,1.1v0.2H359.3z M363.3,579.8c-0.3,0.2-0.7,0.4-0.9,0.4c-0.9,0.2-1.2,0.6-1.2,1.4c0,0.7,0.2,1.2,0.8,1.2
			s1.4-0.4,1.4-1.3V579.8z"/>
		<path d="M367.7,575.5h2.2v9.2c0,1.4-0.5,2.2-2.5,2.2c-0.3,0-0.6,0-0.9,0v-1.6c0.1,0,0.2,0,0.4,0c0.8,0,0.9-0.4,0.9-1.4V575.5z
			 M367.7,572.6h2.2v1.9h-2.2V572.6z"/>
		<path d="M375.2,575.3c2.7,0,3.4,1.5,3.4,4.5c0,2.9-0.9,4.5-3.4,4.5c-2.7,0-3.4-1.5-3.4-4.5C371.8,576.9,372.7,575.3,375.2,575.3z
			 M373,572.5h1.8v1.9H373V572.5z M375.2,582.8c0.9,0,1.2-0.9,1.2-3s-0.3-3-1.2-3c-1.1,0-1.2,1.3-1.2,3S374.1,582.8,375.2,582.8z
			 M375.7,572.5h1.8v1.9h-1.8V572.5z"/>
		<path d="M382.7,572.7v6h0l2.2-3.2h2.4l-2.5,3.4l2.8,5.2h-2.4l-1.8-3.5l-0.8,1v2.5h-2.2v-11.4H382.7z"/>
		<path d="M393.5,583.1L393.5,583.1c-0.5,0.8-1.3,1.2-2.2,1.2c-1.4,0-2.2-0.8-2.2-2.4v-6.4h2.2v5.9c0,0.9,0.3,1.2,0.9,1.2
			c0.8,0,1.2-0.5,1.2-1.4v-5.7h2.2v8.6h-2.1V583.1z"/>
		<path d="M397.8,572.7h2.2v11.4h-2.2V572.7z"/>
		<path d="M402.3,572.7h2.2v11.4h-2.2V572.7z"/>
	</g>
	<g>
		<path d="M363.9,601.1h3.8c3.2,0,3.8,2.2,3.8,5.6c0,4-0.9,5.9-3.9,5.9h-3.6V601.1z M366.2,610.9h1c1.6,0,1.9-1,1.9-4.1
			c0-2.6-0.2-3.9-2-3.9h-1V610.9z"/>
		<path d="M373.5,613.7c0.2,0,0.4,0,0.6,0c0.8,0,1.1-0.4,1.2-1.2l-2.4-8.6h2.3l1.3,6h0l1.1-6h2.2l-2.1,8c-0.8,3-1.3,3.4-3.3,3.4
			h-0.9V613.7z"/>
		<path d="M381.3,603.9h2.1v1.2h0c0.4-0.8,1.1-1.4,2-1.4c0.1,0,0.3,0,0.4,0v2.1c-0.2,0-0.5,0-0.7,0c-0.8,0-1.6,0.4-1.6,1.6v5.2h-2.2
			V603.9z"/>
		<path d="M387.3,601.1h2.2v3.7h0c0.4-0.7,1.2-1.1,2.1-1.1c1.4,0,2.2,0.8,2.2,2.4v6.4h-2.2v-5.9c0-0.9-0.3-1.2-0.9-1.2
			c-0.8,0-1.2,0.5-1.2,1.4v5.7h-2.2V601.1z"/>
		<path d="M399,603.7c2.7,0,3.4,1.5,3.4,4.5c0,2.9-0.9,4.5-3.4,4.5c-2.7,0-3.4-1.5-3.4-4.5C395.6,605.3,396.5,603.7,399,603.7z
			 M399,611.3c0.9,0,1.2-0.9,1.2-3s-0.3-3-1.2-3c-1.1,0-1.2,1.3-1.2,3S397.9,611.3,399,611.3z M398.8,600.6h2.2l-1.6,2.3H398
			L398.8,600.6z"/>
		<path d="M404.3,601.1h2.2v11.4h-2.2V601.1z"/>
		<path d="M408.7,606.6v-0.2c0-2,1.4-2.7,3-2.7c2.6,0,3.1,1.1,3.1,2.6v4.5c0,0.8,0,1.2,0.3,1.7H413c-0.1-0.3-0.2-0.6-0.3-0.9h0
			c-0.5,0.9-1.1,1.1-2.2,1.1c-1.5,0-2.1-1.3-2.1-2.5c0-1.6,0.7-2.3,2.2-2.7l1.2-0.3c0.7-0.2,0.9-0.4,0.9-1c0-0.7-0.3-1.1-1-1.1
			c-0.7,0-1,0.4-1,1.1v0.2H408.7z M412.7,608.3c-0.3,0.2-0.7,0.4-0.9,0.4c-0.9,0.2-1.2,0.6-1.2,1.4c0,0.7,0.2,1.2,0.8,1.2
			s1.4-0.4,1.4-1.3V608.3z"/>
		<path d="M418.9,608.6v0.7c0,1,0.3,2,1.1,2c0.7,0,1-0.6,1.2-1.6h2c-0.1,2-1,3.1-3.1,3.1c-3.2,0-3.3-2.5-3.3-4.6
			c0-2.3,0.4-4.5,3.4-4.5c2.6,0,3.2,1.7,3.2,4.4v0.5H418.9z M421.2,607.3c0-1.3-0.2-2-1.1-2c-0.9,0-1.1,0.9-1.1,1.7v0.3H421.2z"/>
		<path d="M425.1,613.7c0.2,0,0.4,0,0.6,0c0.8,0,1.1-0.4,1.2-1.2l-2.4-8.6h2.3l1.3,6h0l1.1-6h2.2l-2.1,8c-0.8,3-1.3,3.4-3.3,3.4
			h-0.9V613.7z"/>
	</g>
	<g>
		<path d="M458.3,569.8h2.3v2h1.7c2.3,0,3.1,1.7,3.1,3.4c0,2.4-1.5,3.4-3.6,3.4h-1.2v2.5h-2.3V569.8z M460.6,577h1
			c0.9,0,1.5-0.5,1.5-1.7c0-1.1-0.4-1.8-1.6-1.8h-1V577z"/>
		<path d="M467.2,575.2V575c0-2,1.4-2.7,3-2.7c2.6,0,3.1,1.1,3.1,2.6v4.5c0,0.8,0,1.2,0.3,1.7h-2.1c-0.1-0.3-0.2-0.6-0.3-0.9h0
			c-0.5,0.9-1.1,1.1-2.2,1.1c-1.5,0-2.1-1.3-2.1-2.5c0-1.6,0.7-2.3,2.2-2.7l1.2-0.3c0.7-0.2,0.9-0.4,0.9-1c0-0.7-0.3-1.1-1-1.1
			c-0.7,0-1,0.4-1,1.1v0.2H467.2z M471.2,576.9c-0.3,0.2-0.7,0.4-0.9,0.4c-0.9,0.2-1.2,0.6-1.2,1.4c0,0.7,0.2,1.2,0.8,1.2
			s1.4-0.4,1.4-1.3V576.9z"/>
		<path d="M477.8,569.8v6h0l2.2-3.2h2.4L480,576l2.8,5.2h-2.4l-1.8-3.5l-0.8,1v2.5h-2.2v-11.4H477.8z"/>
		<path d="M490.6,572.6v8.2c0,2.3-1,3.4-3.6,3.4c-1.9,0-2.9-0.8-2.9-2.3h2.1c0,0.3,0.1,0.5,0.3,0.7c0.2,0.1,0.5,0.2,0.7,0.2
			c0.9,0,1.2-0.7,1.2-1.6V580h0c-0.4,0.6-1.1,1.1-1.8,1.1c-1.8,0-2.6-1.2-2.6-4.4c0-2,0.3-4.4,2.7-4.4c0.6,0,1.4,0.3,1.8,1.2h0v-1
			H490.6z M487.3,579.4c0.9,0,1.2-1,1.2-2.5c0-2.1-0.3-2.9-1.2-2.9c-1,0-1.2,0.8-1.2,3.1C486.2,578.3,486.4,579.4,487.3,579.4z"/>
		<path d="M492.9,569.6h2.2v1.9h-2.2V569.6z M492.9,572.6h2.2v8.6h-2.2V572.6z"/>
		<path d="M497.4,569.8h2.2v11.4h-2.2V569.8z"/>
	</g>
	<g>
		<path d="M452.7,533.1h3.4l1.6,8.1h0l1.6-8.1h3.4v11.4h-2.1v-9.1h0l-2,9.1h-1.8l-2-9.1h0v9.1h-2.1V533.1z"/>
		<path d="M465.1,545.7c0.2,0,0.4,0,0.6,0c0.8,0,1.1-0.4,1.2-1.2l-2.4-8.6h2.3l1.3,6h0l1.1-6h2.2l-2.1,8c-0.8,3-1.3,3.4-3.3,3.4
			h-0.9V545.7z M467.7,532.6h2.2l-1.6,2.3h-1.5L467.7,532.6z"/>
		<path d="M472.8,535.9h2.1v1.2h0c0.4-0.8,1.1-1.4,2-1.4c0.1,0,0.3,0,0.4,0v2.1c-0.2,0-0.5,0-0.7,0c-0.8,0-1.6,0.4-1.6,1.6v5.2h-2.2
			V535.9z"/>
		<path d="M483.2,543.6L483.2,543.6c-0.5,0.8-1.1,1.1-2,1.1c-1.8,0-2.6-1.3-2.6-4.5s0.8-4.5,2.6-4.5c0.8,0,1.4,0.3,1.9,1h0v-3.6h2.2
			v11.4h-2.1V543.6z M481.9,543c1,0,1.2-1,1.2-2.8s-0.2-2.8-1.2-2.8c-1,0-1.2,1-1.2,2.8S481,543,481.9,543z"/>
		<path d="M487.4,538.6v-0.2c0-2,1.4-2.7,3-2.7c2.6,0,3.1,1.1,3.1,2.6v4.5c0,0.8,0,1.2,0.3,1.7h-2.1c-0.1-0.3-0.2-0.6-0.3-0.9h0
			c-0.5,0.9-1.1,1.1-2.2,1.1c-1.5,0-2.1-1.3-2.1-2.5c0-1.6,0.7-2.3,2.2-2.7l1.2-0.3c0.7-0.2,0.9-0.4,0.9-1c0-0.7-0.3-1.1-1-1.1
			c-0.7,0-1,0.4-1,1.1v0.2H487.4z M491.4,540.2c-0.3,0.2-0.7,0.4-0.9,0.4c-0.9,0.2-1.2,0.6-1.2,1.4c0,0.7,0.2,1.2,0.8,1.2
			c0.6,0,1.4-0.4,1.4-1.3V540.2z"/>
		<path d="M495.8,533.1h2.2v11.4h-2.2V533.1z"/>
		<path d="M501.8,541.7v0.3c0,0.8,0.4,1.2,1.2,1.2c0.7,0,1.1-0.3,1.1-1c0-0.6-0.4-0.8-0.8-1l-1.6-0.6c-1.2-0.4-1.8-1.2-1.8-2.4
			c0-1.4,0.9-2.6,3.2-2.6c2,0,2.9,0.9,2.9,2.4v0.4h-2c0-0.9-0.3-1.3-1-1.3c-0.6,0-1,0.3-1,0.9c0,0.4,0.2,0.8,1,1l1.3,0.4
			c1.4,0.5,1.9,1.2,1.9,2.5c0,1.8-1.3,2.7-3.2,2.7c-2.5,0-3.2-1.1-3.2-2.7v-0.3H501.8z"/>
		<path d="M508,535.9h2.2v9.2c0,1.4-0.5,2.2-2.5,2.2c-0.3,0-0.6,0-0.9,0v-1.6c0.1,0,0.2,0,0.4,0c0.8,0,0.9-0.4,0.9-1.4V535.9z
			 M508,533h2.2v1.9H508V533z"/>
		<path d="M515.6,535.7c2.7,0,3.4,1.5,3.4,4.5c0,2.9-0.9,4.5-3.4,4.5c-2.7,0-3.4-1.5-3.4-4.5C512.2,537.3,513,535.7,515.6,535.7z
			 M513.3,532.9h1.8v1.9h-1.8V532.9z M515.6,543.2c0.9,0,1.2-0.9,1.2-3s-0.3-3-1.2-3c-1.1,0-1.2,1.3-1.2,3S514.5,543.2,515.6,543.2z
			 M516,532.9h1.8v1.9H516V532.9z"/>
		<path d="M523.1,533.1v6h0l2.2-3.2h2.4l-2.5,3.4l2.8,5.2h-2.4l-1.8-3.5l-0.8,1v2.5h-2.2v-11.4H523.1z"/>
		<path d="M533.8,543.5L533.8,543.5c-0.5,0.8-1.3,1.2-2.2,1.2c-1.4,0-2.2-0.8-2.2-2.4v-6.4h2.2v5.9c0,0.9,0.3,1.2,0.9,1.2
			c0.8,0,1.2-0.5,1.2-1.4v-5.7h2.2v8.6h-2.1V543.5z"/>
		<path d="M538.1,533.1h2.2v11.4h-2.2V533.1z"/>
		<path d="M542.6,533.1h2.2v11.4h-2.2V533.1z"/>
	</g>
	<g>
		<path d="M540.5,455.6v0.3c0,1.1,0.3,1.8,1.5,1.8c0.7,0,1.4-0.4,1.4-1.4c0-1-0.5-1.4-2-2c-2-0.7-3-1.6-3-3.5c0-2.2,1.4-3.4,3.5-3.4
			c2,0,3.5,0.9,3.5,3.1v0.3h-2.2c0-1.1-0.4-1.7-1.2-1.7c-1,0-1.3,0.7-1.3,1.3c0,0.7,0.2,1.1,1.2,1.6l1.8,0.8c1.7,0.8,2.2,1.6,2.2,3
			c0,2.4-1.5,3.5-4,3.5c-2.6,0-3.6-1.2-3.6-3.3v-0.5H540.5z"/>
		<path d="M551.6,450.6h2.2l-2.2,8.6h-2.6l-2.2-8.6h2.3l1.2,6.2h0L551.6,450.6z"/>
		<path d="M555.3,453.2V453c0-2,1.4-2.7,3-2.7c2.6,0,3.1,1.1,3.1,2.6v4.5c0,0.8,0,1.2,0.3,1.7h-2.1c-0.1-0.3-0.2-0.6-0.3-0.9h0
			c-0.5,0.9-1.1,1.1-2.2,1.1c-1.5,0-2.1-1.3-2.1-2.5c0-1.6,0.7-2.3,2.2-2.7l1.2-0.3c0.7-0.2,0.9-0.4,0.9-1c0-0.7-0.3-1.1-1-1.1
			c-0.7,0-1,0.4-1,1.1v0.2H555.3z M559.3,454.9c-0.3,0.2-0.7,0.4-0.9,0.4c-0.9,0.2-1.2,0.6-1.2,1.4c0,0.7,0.2,1.2,0.8,1.2
			c0.6,0,1.4-0.4,1.4-1.3V454.9z"/>
		<path d="M563.6,450.6h2.1v1.2h0c0.4-0.8,1.1-1.4,2-1.4c0.1,0,0.3,0,0.4,0v2.1c-0.2,0-0.5,0-0.7,0c-0.8,0-1.6,0.4-1.6,1.6v5.2h-2.2
			V450.6z"/>
		<path d="M570.1,448.1h2.2v2.5h1.3v1.5h-1.3v4.7c0,0.7,0.1,0.9,0.8,0.9c0.2,0,0.4,0,0.5,0v1.5c-0.5,0-0.9,0.1-1.4,0.1
			c-1.7,0-2-0.5-2-2.3v-4.9h-1.1v-1.5h1.1V448.1z"/>
		<path d="M575,447.6h2.2v1.9H575V447.6z M575,450.6h2.2v8.6H575V450.6z"/>
		<path d="M579.9,452.1h-1.1v-1.5h1.1v-1c0-1.6,0.9-2.1,2.3-2.1c0.4,0,0.8,0,1.2,0v1.6c-0.1,0-0.3,0-0.4,0c-0.6,0-0.8,0.2-0.8,0.7
			v0.8h1.3v1.5h-1.3v7.1h-2.2V452.1z"/>
		<path d="M587.9,450.4c2.7,0,3.4,1.5,3.4,4.5c0,2.9-0.9,4.5-3.4,4.5c-2.7,0-3.4-1.5-3.4-4.5C584.5,452,585.4,450.4,587.9,450.4z
			 M587.9,457.9c0.9,0,1.2-0.9,1.2-3s-0.3-3-1.2-3c-1.1,0-1.2,1.3-1.2,3S586.8,457.9,587.9,457.9z"/>
		<path d="M594.8,456.4v0.3c0,0.8,0.4,1.2,1.2,1.2c0.7,0,1.1-0.3,1.1-1c0-0.6-0.4-0.8-0.8-1l-1.6-0.6c-1.2-0.4-1.8-1.2-1.8-2.4
			c0-1.4,0.9-2.6,3.2-2.6c2,0,2.9,0.9,2.9,2.4v0.4h-2c0-0.9-0.3-1.3-1-1.3c-0.6,0-1,0.3-1,0.9c0,0.4,0.2,0.8,1,1l1.3,0.4
			c1.4,0.5,1.9,1.2,1.9,2.5c0,1.8-1.3,2.7-3.2,2.7c-2.5,0-3.2-1.1-3.2-2.7v-0.3H594.8z"/>
		<path d="M602.5,456.4v0.3c0,0.8,0.4,1.2,1.2,1.2c0.7,0,1.1-0.3,1.1-1c0-0.6-0.4-0.8-0.8-1l-1.6-0.6c-1.2-0.4-1.8-1.2-1.8-2.4
			c0-1.4,0.9-2.6,3.2-2.6c2,0,2.9,0.9,2.9,2.4v0.4h-2c0-0.9-0.3-1.3-1-1.3c-0.6,0-1,0.3-1,0.9c0,0.4,0.2,0.8,1,1l1.3,0.4
			c1.4,0.5,1.9,1.2,1.9,2.5c0,1.8-1.3,2.7-3.2,2.7c-2.5,0-3.2-1.1-3.2-2.7v-0.3H602.5z"/>
	</g>
	<g>
		<path d="M683.1,468.7v8.2c0,2.4-1.1,3.4-3.4,3.4c-2.4,0-3-1.6-3-3.3v-0.5h2.1v0.4c0,1.2,0.2,1.8,1,1.8c0.8,0,1-0.6,1-1.8v-8.2
			H683.1z"/>
		<path d="M688.3,471.3c2.7,0,3.4,1.5,3.4,4.5c0,2.9-0.9,4.5-3.4,4.5c-2.7,0-3.4-1.5-3.4-4.5C684.9,472.9,685.8,471.3,688.3,471.3z
			 M686,468.5h1.8v1.9H686V468.5z M688.3,478.8c0.9,0,1.2-0.9,1.2-3s-0.3-3-1.2-3c-1.1,0-1.2,1.3-1.2,3S687.2,478.8,688.3,478.8z
			 M688.8,468.5h1.8v1.9h-1.8V468.5z"/>
		<path d="M695.8,468.7v6h0l2.2-3.2h2.4l-2.5,3.4l2.8,5.2h-2.4l-1.8-3.5l-0.8,1v2.5h-2.2v-11.4H695.8z"/>
		<path d="M706.6,479.1L706.6,479.1c-0.5,0.8-1.3,1.2-2.2,1.2c-1.4,0-2.2-0.8-2.2-2.4v-6.4h2.2v5.9c0,0.9,0.3,1.2,0.9,1.2
			c0.8,0,1.2-0.5,1.2-1.4v-5.7h2.2v8.6h-2.1V479.1z"/>
		<path d="M710.9,468.7h2.2v11.4h-2.2V468.7z"/>
		<path d="M716.9,477.3v0.3c0,0.8,0.4,1.2,1.2,1.2c0.7,0,1.1-0.3,1.1-1c0-0.6-0.4-0.8-0.8-1l-1.6-0.6c-1.2-0.4-1.8-1.2-1.8-2.4
			c0-1.4,0.9-2.6,3.2-2.6c2,0,2.9,0.9,2.9,2.4v0.4h-2c0-0.9-0.3-1.3-1-1.3c-0.6,0-1,0.3-1,0.9c0,0.4,0.2,0.8,1,1l1.3,0.4
			c1.4,0.5,1.9,1.2,1.9,2.5c0,1.8-1.3,2.7-3.2,2.7c-2.5,0-3.2-1.1-3.2-2.7v-0.3H716.9z"/>
		<path d="M723,474.1v-0.2c0-2,1.4-2.7,3-2.7c2.6,0,3.1,1.1,3.1,2.6v4.5c0,0.8,0,1.2,0.3,1.7h-2.1c-0.1-0.3-0.2-0.6-0.3-0.9h0
			c-0.5,0.9-1.1,1.1-2.2,1.1c-1.5,0-2.1-1.3-2.1-2.5c0-1.6,0.7-2.3,2.2-2.7l1.2-0.3c0.7-0.2,0.9-0.4,0.9-1c0-0.7-0.3-1.1-1-1.1
			c-0.7,0-1,0.4-1,1.1v0.2H723z M727,475.8c-0.3,0.2-0.7,0.4-0.9,0.4c-0.9,0.2-1.2,0.6-1.2,1.4c0,0.7,0.2,1.2,0.8,1.2
			c0.6,0,1.4-0.4,1.4-1.3V475.8z M726,468.2h2.2l-1.6,2.3h-1.5L726,468.2z"/>
		<path d="M731.4,471.5h2.1v1.2h0c0.4-0.8,1.1-1.4,2-1.4c0.1,0,0.3,0,0.4,0v2.1c-0.2,0-0.5,0-0.7,0c-0.8,0-1.6,0.4-1.6,1.6v5.2h-2.2
			V471.5z"/>
		<path d="M737.4,468.7h2.2v11.4h-2.2V468.7z"/>
		<path d="M744.9,471.3c2.7,0,3.4,1.5,3.4,4.5c0,2.9-0.9,4.5-3.4,4.5c-2.7,0-3.4-1.5-3.4-4.5C741.5,472.9,742.4,471.3,744.9,471.3z
			 M744.9,478.8c0.9,0,1.2-0.9,1.2-3s-0.3-3-1.2-3c-1.1,0-1.2,1.3-1.2,3S743.8,478.8,744.9,478.8z M744.7,468.2h2.2l-1.6,2.3h-1.5
			L744.7,468.2z"/>
		<path d="M750.1,471.5h2.1v1h0c0.5-0.8,1.3-1.2,2.2-1.2c1.4,0,2.2,0.8,2.2,2.4v6.4h-2.2v-5.9c0-0.9-0.3-1.2-0.9-1.2
			c-0.8,0-1.2,0.5-1.2,1.4v5.7h-2.2V471.5z"/>
	</g>
	<g>
		<path d="M120.6,317.6c0,1.1,0.9,1.6,1.9,1.6c0.7,0,1.7-0.2,1.7-1.1c0-0.9-1.3-1.1-2.5-1.4c-1.3-0.3-2.6-0.8-2.6-2.4
			c0-1.8,1.7-2.6,3.2-2.6c1.8,0,3.4,0.8,3.4,2.8h-1.8c-0.1-1-0.8-1.3-1.7-1.3c-0.6,0-1.3,0.3-1.3,1c0,0.7,0.4,0.7,2.6,1.3
			c0.6,0.2,2.5,0.6,2.5,2.5c0,1.6-1.2,2.7-3.6,2.7c-1.9,0-3.7-0.9-3.6-3H120.6z"/>
		<path d="M129.5,311.9h1.9l3.6,5.7h0v-5.7h1.8v8.6h-1.9l-3.6-5.7h0v5.7h-1.8V311.9z"/>
		<path d="M143.9,311.9h7.3v1.6h-4v1.8h3.7v1.5h-3.7v2.1h4.1v1.6h-5.9v-1.9h-2.7l-0.9,1.9h-2L143.9,311.9z M143.3,317.1h2.1v-3.7
			h-0.4L143.3,317.1z"/>
		<path d="M154.9,311.9h6v1.6h-4.1v2h3.6v1.5h-3.6v3.5h-1.9V311.9z"/>
		<path d="M164.4,311.9h6.4v1.6h-4.5v1.8h4.1v1.5h-4.1v2.1h4.6v1.6h-6.5V311.9z"/>
		<path d="M174.6,311.9h1.9v7h4.2v1.6h-6.1V311.9z"/>
		<path d="M184.1,311.9h1.9v7h4.2v1.6h-6.1V311.9z"/>
		<path d="M194.9,317.6c0,1.1,0.9,1.6,1.9,1.6c0.7,0,1.7-0.2,1.7-1.1c0-0.9-1.3-1.1-2.5-1.4c-1.3-0.3-2.6-0.8-2.6-2.4
			c0-1.8,1.7-2.6,3.2-2.6c1.8,0,3.4,0.8,3.4,2.8h-1.8c-0.1-1-0.8-1.3-1.7-1.3c-0.6,0-1.3,0.3-1.3,1c0,0.7,0.4,0.7,2.6,1.3
			c0.6,0.2,2.5,0.6,2.5,2.5c0,1.6-1.2,2.7-3.6,2.7c-1.9,0-3.7-0.9-3.6-3H194.9z"/>
		<path d="M203.8,311.9h1.9l3.6,5.7h0v-5.7h1.8v8.6h-1.9l-3.6-5.7h0v5.7h-1.8V311.9z"/>
		<path d="M215.1,311.9h6.4v1.6H217v1.8h4.1v1.5H217v2.1h4.6v1.6h-6.5V311.9z"/>
		<path d="M226.6,317.6c0,1.1,0.9,1.6,1.9,1.6c0.7,0,1.7-0.2,1.7-1.1c0-0.9-1.3-1.1-2.5-1.4c-1.3-0.3-2.6-0.8-2.6-2.4
			c0-1.8,1.7-2.6,3.2-2.6c1.8,0,3.4,0.8,3.4,2.8h-1.8c-0.1-1-0.8-1.3-1.7-1.3c-0.6,0-1.3,0.3-1.3,1c0,0.7,0.4,0.7,2.6,1.3
			c0.6,0.2,2.5,0.6,2.5,2.5c0,1.6-1.2,2.7-3.6,2.7c-1.9,0-3.7-0.9-3.6-3H226.6z"/>
	</g>
	<g>
		<path d="M563.6,401.7h-2.1l-2.8-8.6h1.9l1.9,6h0l1.9-6h1.9L563.6,401.7z"/>
		<path d="M571.9,393.2h1.9l3.2,8.6h-2l-0.6-1.9h-3.2l-0.7,1.9h-1.9L571.9,393.2z M571.7,398.4h2.2l-1.1-3.1h0L571.7,398.4z"/>
		<path d="M582.1,394.8h-2.6v-1.6h7v1.6H584v7h-1.9V394.8z"/>
		<path d="M589.9,393.2h1.9l3.6,5.7h0v-5.7h1.8v8.6h-1.9l-3.6-5.7h0v5.7h-1.8V393.2z"/>
		<path d="M603.6,393.2h1.9l3.2,8.6h-2l-0.6-1.9h-3.2l-0.7,1.9h-1.9L603.6,393.2z M603.4,398.4h2.2l-1.1-3.1h0L603.4,398.4z"/>
		<path d="M616.8,399c0,1.1-0.3,2.9-2.9,2.9c-1.4,0-2.8-0.8-2.8-2.7v-0.7h1.7v0.4c0,0.8,0.2,1.4,1.1,1.4c1,0,1-0.8,1-1.4v-5.8h1.9
			V399z"/>
		<path d="M624.7,393c2.7,0,4.2,2,4.2,4.5c0,2.5-1.6,4.5-4.2,4.5c-2.7,0-4.2-2-4.2-4.5C620.5,394.9,622.1,393,624.7,393z
			 M624.7,400.4c1.7,0,2.3-1.4,2.3-2.9c0-1.5-0.6-2.9-2.3-2.9c-1.7,0-2.3,1.4-2.3,2.9C622.4,398.9,623.1,400.4,624.7,400.4z
			 M622.7,390.8h1.6v1.4h-1.6V390.8z M625.2,390.8h1.6v1.4h-1.6V390.8z"/>
		<path d="M632.6,393.2h1.9v3.5l3.3-3.5h2.4l-3.3,3.4l3.7,5.2h-2.4l-2.6-3.8l-1.1,1.1v2.8h-1.9V393.2z"/>
		<path d="M651,398.5c0,2.3-1.4,3.4-3.7,3.4c-2.3,0-3.6-1.1-3.6-3.4v-5.3h1.9v5.3c0,0.9,0.2,1.9,1.8,1.9c1.3,0,1.8-0.6,1.8-1.9v-5.3
			h1.9V398.5z"/>
		<path d="M655,393.2h1.9v7h4.2v1.6H655V393.2z"/>
		<path d="M664.5,393.2h1.9v7h4.2v1.6h-6.1V393.2z"/>
	</g>
	<path class="st7" d="M194.7,458.3c0,0,234.7-234.9,672.5-131.5"/>
	<path class="st6" d="M190.5,457.3c0-2.4,1.9-4.3,4.3-4.3c2.3,0,4.3,1.9,4.3,4.3c0,2.4-1.9,4.3-4.3,4.3
		C192.4,461.6,190.5,459.7,190.5,457.3z"/>
	<g>
		<path class="st8" d="M189.1,439.4c0.5-3.1,3.4-5.2,6.5-4.7c3.1,0.5,5.2,3.4,4.7,6.5c-0.5,3.1-3.4,5.2-6.5,4.7
			S188.6,442.6,189.1,439.4z"/>
		<path class="st9" d="M194.7,431.1c-5,0-9,4-9,9c0,2,1.3,5.3,3.9,10c1.9,3.3,3.7,6.1,3.8,6.2l1.3,2l1.3-2c0.1-0.1,1.9-2.9,3.8-6.2
			c2.6-4.7,3.9-8,3.9-10C203.7,435.1,199.6,431.1,194.7,431.1z M194.7,444.7c-2.6,0-4.7-2.1-4.7-4.7c0-2.6,2.1-4.7,4.7-4.7
			s4.7,2.1,4.7,4.7C199.3,442.6,197.3,444.7,194.7,444.7z"/>
	</g>
</g>
</svg>
