<svg version="1.1" id="Ebene_2" xmlns="http://www.w3.org/2000/svg" width="386px" height="160px">
<g>
	<path fill="#FFFFFF" d="M384.39,77.77H0l17.63,26.60L0,130.98h384.39l-18.01-26.60L384.39,77.77z M83.38,91.36
		c-0.29,0.04-0.58,0.12-0.87,0.25c-0.29,0.12-0.43,0.41-0.43,0.87v23.75c0,0.45,0.14,0.75,0.43,0.87
		c0.29,0.12,0.58,0.20,0.87,0.25v0.75H72.95v-0.75c0.45-0.04,0.84-0.12,1.15-0.25s0.46-0.41,0.46-0.87v-17.75h-0.12
		l-9.31,18.06l-9-18.06h-0.12v17.75c0,0.45,0.16,0.75,0.5,0.87c0.33,0.12,0.75,0.20,1.25,0.25v0.75h-9.81v-0.75
		c0.33-0.04,0.65-0.12,0.96-0.25s0.46-0.41,0.46-0.87v-23.75c0-0.45-0.15-0.75-0.46-0.87s-0.63-0.20-0.96-0.25
		v-0.75h13.56v0.75c-0.33,0.04-0.61,0.08-0.84,0.12c-0.22,0.04-0.34,0.16-0.34,0.37c0,0.16,0.23,0.77,0.71,1.81
		c0.47,1.04,1.03,2.18,1.65,3.43s1.20,2.42,1.75,3.53c0.54,1.10,0.87,1.82,1,2.15c0.5-1,1.07-2.09,1.71-3.28
		c0.64-1.18,1.25-2.31,1.81-3.37s1.03-1.98,1.40-2.78c0.37-0.79,0.56-1.29,0.56-1.5c0-0.20-0.11-0.33-0.34-0.37
		c-0.22-0.04-0.51-0.08-0.84-0.12v-0.75h13.62V91.36z M127.01,118.11h-10.37v-0.75c0.12,0,0.29-0.02,0.5-0.06
		c0.20-0.04,0.31-0.20,0.31-0.5c0-0.16-0.07-0.42-0.21-0.78c-0.14-0.35-0.31-0.73-0.5-1.15
		c-0.18-0.41-0.38-0.83-0.59-1.25c-0.20-0.41-0.37-0.77-0.5-1.06h-14.5c-0.08,0.29-0.21,0.64-0.40,1.06
		c-0.18,0.41-0.38,0.83-0.59,1.25c-0.20,0.41-0.39,0.80-0.56,1.15c-0.16,0.35-0.25,0.61-0.25,0.78
		c0,0.29,0.10,0.45,0.31,0.5c0.20,0.04,0.37,0.06,0.5,0.06v0.75h-9.37v-0.75c0.25,0,0.5-0.05,0.75-0.15
		c0.25-0.10,0.41-0.26,0.5-0.46c1.25-2.91,2.52-5.80,3.81-8.65c1.29-2.85,2.44-5.43,3.46-7.75
		c1.02-2.31,1.86-4.22,2.53-5.75c0.66-1.52,1-2.38,1-2.59c0-0.37-0.27-0.58-0.81-0.62v-0.75h13.06v0.75
		c-0.54,0.04-0.81,0.25-0.81,0.62c0,0.12,0.21,0.67,0.65,1.65c0.43,0.97,1.01,2.20,1.71,3.68
		c0.70,1.47,1.48,3.11,2.34,4.90c0.85,1.79,1.70,3.58,2.56,5.37c0.85,1.79,1.65,3.49,2.40,5.09
		c0.75,1.60,1.35,2.94,1.81,4.03c0.08,0.20,0.25,0.36,0.5,0.46c0.25,0.10,0.5,0.15,0.75,0.15V118.11z M162.69,119.49
		h-0.75c0-0.66-0.12-1.06-0.37-1.18s-0.5-0.18-0.75-0.18h-27.18v-0.75c0.45-0.04,0.85-0.12,1.18-0.25
		c0.33-0.12,0.5-0.41,0.5-0.87v-23.75c0-0.45-0.16-0.75-0.5-0.87c-0.33-0.12-0.72-0.20-1.18-0.25v-0.75h11.68v0.75
		c-0.45,0.04-0.84,0.12-1.15,0.25s-0.46,0.41-0.46,0.87v19.25h17.12c0.25,0,0.5-0.09,0.75-0.28s0.37-0.61,0.37-1.28
		h0.75V119.49z M203.44,118.11h-10.37v-0.75c0.12,0,0.29-0.02,0.5-0.06c0.20-0.04,0.31-0.20,0.31-0.5
		c0-0.16-0.07-0.42-0.21-0.78c-0.14-0.35-0.31-0.73-0.5-1.15c-0.18-0.41-0.38-0.83-0.59-1.25
		c-0.20-0.41-0.37-0.77-0.5-1.06h-14.5c-0.08,0.29-0.21,0.64-0.40,1.06c-0.18,0.41-0.38,0.83-0.59,1.25
		c-0.20,0.41-0.39,0.80-0.56,1.15c-0.16,0.35-0.25,0.61-0.25,0.78c0,0.29,0.10,0.45,0.31,0.5
		c0.20,0.04,0.37,0.06,0.5,0.06v0.75h-9.37v-0.75c0.25,0,0.5-0.05,0.75-0.15c0.25-0.10,0.41-0.26,0.5-0.46
		c1.25-2.91,2.52-5.80,3.81-8.65c1.29-2.85,2.44-5.43,3.46-7.75c1.02-2.31,1.86-4.22,2.53-5.75
		c0.66-1.52,1-2.38,1-2.59c0-0.37-0.27-0.58-0.81-0.62v-0.75h13.06v0.75c-0.54,0.04-0.81,0.25-0.81,0.62
		c0,0.12,0.21,0.67,0.65,1.65c0.43,0.97,1.01,2.20,1.71,3.68c0.70,1.47,1.48,3.11,2.34,4.90
		c0.85,1.79,1.70,3.58,2.56,5.37c0.85,1.79,1.65,3.49,2.40,5.09c0.75,1.60,1.35,2.94,1.81,4.03
		c0.08,0.20,0.25,0.36,0.5,0.46c0.25,0.10,0.5,0.15,0.75,0.15V118.11z M242.32,91.36c-0.20,0-0.5,0.04-0.87,0.12
		c-0.37,0.08-0.64,0.25-0.81,0.5l-10.68,15.93v8.31c0,0.45,0.14,0.75,0.43,0.87c0.29,0.12,0.58,0.20,0.87,0.25v0.75
		h-11v-0.75c0.29-0.04,0.58-0.12,0.87-0.25c0.29-0.12,0.43-0.41,0.43-0.87v-8.06l-11.93-16.18
		c-0.16-0.25-0.44-0.41-0.84-0.5c-0.39-0.08-0.71-0.12-0.96-0.12v-0.75h13.43v0.75c-0.25,0-0.55,0.03-0.90,0.09
		c-0.35,0.06-0.53,0.26-0.53,0.59c0,0.20,0.19,0.59,0.59,1.15c0.39,0.56,0.88,1.24,1.46,2.03
		c0.58,0.79,1.22,1.63,1.93,2.53c0.70,0.89,1.37,1.76,2,2.59c0.16-0.33,0.54-0.91,1.12-1.75
		c0.58-0.83,1.19-1.70,1.84-2.62c0.64-0.91,1.21-1.75,1.71-2.5s0.75-1.22,0.75-1.43c0-0.33-0.16-0.53-0.5-0.59
		c-0.33-0.06-0.60-0.09-0.81-0.09v-0.75h12.37V91.36z M275.51,112.83c-0.54,1.10-1.37,2.07-2.5,2.90
		c-1.12,0.83-2.55,1.46-4.28,1.90c-1.72,0.43-3.78,0.65-6.15,0.65c-1.5,0-3.02-0.09-4.56-0.28
		s-2.95-0.41-4.25-0.68c-1.29-0.27-2.36-0.52-3.21-0.75c-0.85-0.22-1.34-0.34-1.46-0.34
		c-0.29,0-0.55,0.09-0.78,0.28s-0.44,0.38-0.65,0.59l-0.68-0.18l2.56-8.37l0.81,0.37c0,0.08-0.01,0.17-0.03,0.28
		c-0.02,0.10-0.03,0.24-0.03,0.40c0,0.41,0.39,0.81,1.18,1.18s1.80,0.71,3.03,1.03s2.56,0.56,4,0.75
		s2.78,0.28,4.03,0.28c0.37,0,0.88-0.02,1.53-0.06c0.64-0.04,1.28-0.15,1.90-0.34s1.15-0.45,1.59-0.81
		c0.43-0.35,0.65-0.84,0.65-1.46c0-0.83-0.5-1.42-1.5-1.78c-1-0.35-2.26-0.62-3.78-0.81
		c-1.52-0.18-3.16-0.38-4.93-0.59c-1.77-0.20-3.41-0.57-4.93-1.09c-1.52-0.52-2.78-1.27-3.78-2.25
		c-1-0.97-1.5-2.34-1.5-4.09c0-0.95,0.25-1.98,0.75-3.09c0.5-1.10,1.29-2.11,2.37-3.03
		c1.08-0.91,2.51-1.67,4.28-2.28c1.77-0.60,3.92-0.90,6.46-0.90c1.5,0,2.92,0.08,4.28,0.25
		c1.35,0.16,2.58,0.35,3.68,0.56c1.10,0.20,2.04,0.39,2.81,0.56c0.77,0.16,1.32,0.25,1.65,0.25
		c0.33,0,0.60-0.09,0.81-0.28c0.20-0.18,0.39-0.34,0.56-0.46l0.68,0.25l-3.75,7.87l-0.81-0.37
		c0-0.08,0.01-0.18,0.03-0.31c0.02-0.12,0.03-0.25,0.03-0.37c0-0.16-0.25-0.37-0.75-0.62s-1.15-0.5-1.96-0.75
		s-1.72-0.46-2.75-0.65c-1.02-0.18-2.07-0.28-3.15-0.28c-0.37,0-0.95,0.01-1.75,0.03
		c-0.79,0.02-1.58,0.12-2.37,0.31s-1.49,0.45-2.09,0.81c-0.60,0.35-0.90,0.88-0.90,1.59c0,0.75,0.5,1.28,1.5,1.59
		s2.26,0.56,3.78,0.75c1.52,0.18,3.16,0.39,4.93,0.62c1.77,0.22,3.41,0.61,4.93,1.15
		c1.52,0.54,2.78,1.32,3.78,2.34c1,1.02,1.5,2.44,1.5,4.28C276.32,110.57,276.05,111.73,275.51,112.83z
		 M295.94,91.36c-0.62,0.04-1.11,0.12-1.46,0.25c-0.35,0.12-0.53,0.41-0.53,0.87v23.75c0,0.45,0.17,0.75,0.53,0.87
		c0.35,0.12,0.84,0.20,1.46,0.25v0.75h-12.37v-0.75c0.62-0.04,1.11-0.12,1.46-0.25c0.35-0.12,0.53-0.41,0.53-0.87
		v-23.75c0-0.45-0.17-0.75-0.53-0.87c-0.35-0.12-0.84-0.20-1.46-0.25v-0.75h12.37V91.36z M338.88,118.11H328.51v-0.75
		c0.12,0,0.29-0.02,0.5-0.06c0.20-0.04,0.31-0.20,0.31-0.5c0-0.16-0.07-0.42-0.21-0.78
		c-0.14-0.35-0.31-0.73-0.5-1.15c-0.18-0.41-0.38-0.83-0.59-1.25c-0.20-0.41-0.37-0.77-0.5-1.06h-14.5
		c-0.08,0.29-0.21,0.64-0.40,1.06c-0.18,0.41-0.38,0.83-0.59,1.25c-0.20,0.41-0.39,0.80-0.56,1.15
		c-0.16,0.35-0.25,0.61-0.25,0.78c0,0.29,0.10,0.45,0.31,0.5c0.20,0.04,0.37,0.06,0.5,0.06v0.75h-9.37v-0.75
		c0.25,0,0.5-0.05,0.75-0.15c0.25-0.10,0.41-0.26,0.5-0.46c1.25-2.91,2.52-5.80,3.81-8.65
		c1.29-2.85,2.44-5.43,3.46-7.75c1.02-2.31,1.86-4.22,2.53-5.75c0.66-1.52,1-2.38,1-2.59
		c0-0.37-0.27-0.58-0.81-0.62v-0.75h13.06v0.75c-0.54,0.04-0.81,0.25-0.81,0.62c0,0.12,0.21,0.67,0.65,1.65
		c0.43,0.97,1.01,2.20,1.71,3.68c0.70,1.47,1.48,3.11,2.34,4.90c0.85,1.79,1.70,3.58,2.56,5.37
		c0.85,1.79,1.65,3.49,2.40,5.09c0.75,1.60,1.35,2.94,1.81,4.03c0.08,0.20,0.25,0.36,0.5,0.46
		c0.25,0.10,0.5,0.15,0.75,0.15V118.11z"/>
	<polygon fill="#FFFFFF" points="103.13,108.05 113.51,108.05 108.26,97.11 	"/>
	<polygon fill="#FFFFFF" points="315.01,108.05 325.38,108.05 320.13,97.11 	"/>
	<polygon fill="#FFFFFF" points="179.57,108.05 189.94,108.05 184.69,97.11 	"/>
</g>
<g>
	<path fill="#FFFFFF" d="M139.40,45.06l5.60,14.99h-3.42l-1.13-3.33h-5.60l-1.17,3.33h-3.31l5.67-14.99H139.40z
		 M139.59,54.25l-1.89-5.50h-0.04l-1.95,5.50H139.59z"/>
	<path fill="#FFFFFF" d="M151.71,45.06v12.22h7.30v2.77h-10.60V45.06H151.71z"/>
	<path fill="#FFFFFF" d="M166.26,45.06v14.99h-3.29V45.06H166.26z"/>
	<path fill="#FFFFFF" d="M181.70,53.19c0-0.88-0.16-1.38-0.34-1.72c-0.25-0.45-0.54-0.63-0.54-1.08
		c0-0.50,0.37-0.93,0.88-0.93c1.06,0,1.33,1.31,1.33,2.37c0,2.32-1.09,4.68-1.90,5.61
		c0.54,0.61,0.95,1.11,1.45,1.11c0.45,0,0.79-0.45,1.04-0.45c0.14,0,0.28,0.09,0.28,0.25
		c0,0.75-1.24,1.63-2.14,1.63c-0.59,0-1.11-0.18-1.98-1.17c-0.84,0.70-1.85,1.22-2.98,1.22
		c-1.54,0-3.00-1.04-3.00-2.59s1.20-2.64,2.39-3.60c-0.54-0.91-0.9-1.71-0.9-2.23c0-1.31,1.17-2.30,2.48-2.30
		c1.04,0,2.07,0.63,2.07,1.67c0,1.20-0.77,2.05-1.65,2.79c0.66,0.95,1.49,2.03,2.28,2.93
		C181.14,55.94,181.70,54.65,181.70,53.19z M175.85,56.75c0,1.00,0.9,1.74,1.90,1.74c0.37,0,0.84-0.19,1.33-0.54
		c-0.73-0.95-1.54-2.03-2.23-3.06C176.28,55.44,175.85,56.02,175.85,56.75z M178.41,51.23
		c0-0.45-0.34-0.84-0.79-0.84c-0.52,0-0.81,0.52-0.81,1.04c0,0.16,0.27,0.66,0.70,1.33
		C178.05,52.25,178.41,51.77,178.41,51.23z"/>
	<path fill="#FFFFFF" d="M200.86,45.06v2.77h-7.24v3.46h6.27v2.56h-6.27v6.19h-3.29V45.06H200.86z"/>
	<path fill="#FFFFFF" d="M216.09,45.06v2.77h-7.91v3.21h7.26v2.56h-7.26v3.67h8.08v2.77h-11.38V45.06H216.09z"/>
	<path fill="#FFFFFF" d="M223.88,45.06v12.22h7.30v2.77h-10.60V45.06H223.88z"/>
	<path fill="#FFFFFF" d="M238.43,45.06v14.99h-3.29V45.06H238.43z"/>
	<path fill="#FFFFFF" d="M242.28,45.06h3.82l2.93,4.78l3.04-4.78h3.61l-4.80,7.16l5.22,7.83h-3.92l-3.27-5.18
		l-3.33,5.18h-3.69l5.23-7.85L242.28,45.06z"/>
</g>
<g>
	<path fill="#FFFFFF" d="M100.52,156.98c-0.27,1.44-0.21,1.62,1.38,1.76l-0.16,0.59h-5.51l0.12-0.59
		c1.45-0.14,1.58-0.32,1.87-1.76l1.22-6.17c0.23-1.17,0.07-1.31-0.86-1.36l-0.55-0.01l0.16-0.57
		c1.15-0.14,2.64-0.45,4.06-0.93L100.52,156.98z"/>
	<path fill="#FFFFFF" d="M112.54,150.03h-4.39l-0.88,2.73c1.00-0.30,1.63-0.46,2.05-0.46
		c1.69,0,3.27,1.00,3.27,2.88c0,1.40-0.93,2.61-2.37,3.47c-1.08,0.64-2.08,0.9-2.91,0.9
		c-0.86,0-1.62-0.30-2.01-0.64c-0.30-0.23-0.48-0.52-0.46-0.82c0-0.30,0.36-0.75,0.64-0.91
		c0.18-0.10,0.32-0.09,0.46,0.03c0.36,0.34,1.20,1.33,2.52,1.33c1.27,0,1.80-1.00,1.80-2.30
		c0-1.87-1.08-2.70-2.57-2.70c-0.57,0-1.09,0.10-1.40,0.21l-0.12-0.18l1.53-5.43h5.63L112.54,150.03z"/>
	<path fill="#FFFFFF" d="M115.22,160.15h-1.20l5.52-12.76h1.22L115.22,160.15z"/>
	<path fill="#FFFFFF" d="M129.18,152.91c-0.23,2.93-1.80,6.64-4.98,6.64c-2.61,0-3.31-2.52-3.04-5.18
		c0.21-2.70,1.85-6.46,5.07-6.46C128.76,147.91,129.43,150.39,129.18,152.91z M123.50,154.97
		c-0.23,1.98-0.14,3.87,0.79,3.87c1.35,0,2.25-4.14,2.50-6.48c0.23-1.83,0.16-3.74-0.72-3.74
		C124.62,148.61,123.76,152.62,123.50,154.97z"/>
	<path fill="#FFFFFF" d="M138.48,150.55c0,0.68-0.39,1.24-0.88,1.65c-0.28,0.19-0.55,0.39-1.45,0.93
		c1.11,0.81,1.98,1.62,1.98,2.95c0,2.03-2.16,3.45-4.33,3.45c-1.96,0-3.58-1.00-3.58-2.88
		c0-0.75,0.39-1.38,1.02-1.83c0.50-0.36,1.31-0.84,1.87-1.15c-0.82-0.64-1.45-1.36-1.47-2.50
		c0-1.89,1.76-3.27,3.79-3.27C137.02,147.91,138.48,148.83,138.48,150.55z M135.85,156.84
		c0-1.17-0.79-1.85-2.14-2.73c-0.79,0.55-1.35,1.49-1.35,2.59c0,1.06,0.57,2.12,1.76,2.12
		C135.13,158.82,135.85,157.99,135.85,156.84z M133.69,150.28c0,1.27,1.02,1.92,1.80,2.43
		c0.61-0.45,1.08-1.20,1.08-2.26c0-0.95-0.52-1.81-1.42-1.81C134.34,148.63,133.69,149.37,133.69,150.28z"/>
	<path fill="#FFFFFF" d="M140.41,160.15h-1.20l5.52-12.76h1.22L140.41,160.15z"/>
	<path fill="#FFFFFF" d="M148.42,148.95c0.70-0.66,1.54-1.04,2.64-1.04c1.76,0,3.06,1.09,3.06,2.93
		c0,2.12-1.85,3.42-4.42,5.49l-1.31,1.08h2.84c1.08,0,1.24-0.09,1.90-1.08l0.55,0.23c-0.37,0.9-0.72,1.90-1.00,2.77
		h-7.23l0.10-0.46c0.95-0.77,2.23-1.85,3.31-2.89c1.33-1.31,2.89-3.04,2.89-4.60c0-1.17-0.55-1.85-1.69-1.85
		c-0.99,0-1.80,0.72-2.43,1.49l-0.45-0.46L148.42,148.95z"/>
	<path fill="#FFFFFF" d="M163.81,152.91c-0.23,2.93-1.8,6.64-4.98,6.64c-2.61,0-3.31-2.52-3.04-5.18
		c0.21-2.70,1.85-6.46,5.07-6.46C163.39,147.91,164.06,150.39,163.81,152.91z M158.14,154.97
		c-0.23,1.98-0.14,3.87,0.79,3.87c1.35,0,2.25-4.14,2.50-6.48c0.23-1.83,0.16-3.74-0.72-3.74
		C159.25,148.61,158.39,152.62,158.14,154.97z"/>
	<path fill="#FFFFFF" d="M169.78,156.98c-0.27,1.44-0.21,1.62,1.38,1.76l-0.16,0.59h-5.51l0.12-0.59
		c1.45-0.14,1.58-0.32,1.87-1.76l1.22-6.17c0.23-1.17,0.07-1.31-0.86-1.36l-0.55-0.01l0.16-0.57
		c1.15-0.14,2.64-0.45,4.06-0.93L169.78,156.98z"/>
	<path fill="#FFFFFF" d="M181.81,150.03h-4.39l-0.88,2.73c1.00-0.30,1.63-0.46,2.05-0.46
		c1.69,0,3.27,1.00,3.27,2.88c0,1.40-0.93,2.61-2.37,3.47c-1.08,0.64-2.08,0.9-2.91,0.9
		c-0.86,0-1.62-0.30-2.01-0.64c-0.30-0.23-0.48-0.52-0.46-0.82c0-0.30,0.36-0.75,0.64-0.91
		c0.18-0.10,0.32-0.09,0.46,0.03c0.36,0.34,1.20,1.33,2.52,1.33c1.27,0,1.80-1.00,1.80-2.30
		c0-1.87-1.08-2.70-2.57-2.70c-0.57,0-1.09,0.10-1.40,0.21l-0.12-0.18l1.53-5.43h5.63L181.81,150.03z"/>
	<path fill="#FFFFFF" d="M195.77,155.78h-7.14l0.23-1.17h7.16L195.77,155.78z"/>
	<path fill="#FFFFFF" d="M210.66,152.91c-0.23,2.93-1.8,6.64-4.98,6.64c-2.61,0-3.31-2.52-3.04-5.18
		c0.21-2.70,1.85-6.46,5.07-6.46C210.25,147.91,210.91,150.39,210.66,152.91z M204.99,154.97
		c-0.23,1.98-0.14,3.87,0.79,3.87c1.35,0,2.25-4.14,2.50-6.48c0.23-1.83,0.16-3.74-0.72-3.74
		C206.10,148.61,205.24,152.62,204.99,154.97z"/>
	<path fill="#FFFFFF" d="M220.60,148.47c-0.63,0.10-1.40,0.36-2.01,0.61c-0.97,0.45-2.73,1.42-3.74,3.70l0.03,0.03
		l0.9-0.41c0.34-0.14,0.68-0.27,1.04-0.28c1.69,0,2.95,1.13,2.95,3.15c0,2.23-1.85,4.28-4.41,4.28
		c-2.19,0-3.51-1.60-3.51-3.85c0-2.98,1.90-6.08,5.94-7.34c0.9-0.27,2.03-0.46,2.68-0.55L220.60,148.47z
		 M214.60,153.58c-0.23,0.59-0.43,1.38-0.43,2.55c0,1.29,0.52,2.71,1.54,2.71c1.24,0,1.72-1.87,1.72-3.06
		c0-1.58-0.64-2.48-1.81-2.48C215.14,153.31,214.89,153.43,214.60,153.58z"/>
	<path fill="#FFFFFF" d="M221.89,160.15h-1.20l5.52-12.76h1.22L221.89,160.15z"/>
	<path fill="#FFFFFF" d="M235.84,152.91c-0.23,2.93-1.79,6.64-4.98,6.64c-2.61,0-3.31-2.52-3.04-5.18
		c0.21-2.70,1.85-6.46,5.07-6.46C235.43,147.91,236.1,150.39,235.84,152.91z M230.17,154.97
		c-0.23,1.98-0.14,3.87,0.79,3.87c1.35,0,2.25-4.14,2.50-6.48c0.23-1.83,0.16-3.74-0.72-3.74
		C231.29,148.61,230.42,152.62,230.17,154.97z"/>
	<path fill="#FFFFFF" d="M245.45,151.90c0,3.06-1.96,5.94-5.27,7.16c-0.79,0.27-2.18,0.54-2.93,0.55l-0.10-0.61
		c2.34-0.52,4.59-2.21,5.47-4.71l-0.97,0.46c-0.41,0.19-0.77,0.27-0.95,0.27c-1.60,0-2.98-1.02-2.98-2.98
		c0-2.17,1.92-4.14,4.30-4.14C244.21,147.91,245.45,149.49,245.45,151.90z M240.05,151.49
		c0,1.36,0.61,2.35,1.83,2.35c0.30,0,0.68-0.12,0.9-0.27c0.19-0.46,0.35-1.36,0.35-2.44
		c0-1.00-0.27-2.50-1.36-2.50C240.72,148.63,240.05,150.21,240.05,151.49z"/>
	<path fill="#FFFFFF" d="M247.07,160.15h-1.20l5.52-12.76h1.22L247.07,160.15z"/>
	<path fill="#FFFFFF" d="M255.08,148.95c0.70-0.66,1.54-1.04,2.64-1.04c1.76,0,3.06,1.09,3.06,2.93
		c0,2.12-1.85,3.42-4.43,5.49l-1.31,1.08h2.84c1.08,0,1.24-0.09,1.90-1.08l0.55,0.23c-0.37,0.9-0.72,1.90-1.00,2.77
		h-7.23l0.10-0.46c0.95-0.77,2.23-1.85,3.31-2.89c1.33-1.31,2.89-3.04,2.89-4.60c0-1.17-0.55-1.85-1.69-1.85
		c-0.99,0-1.80,0.72-2.43,1.49l-0.44-0.46L255.08,148.95z"/>
	<path fill="#FFFFFF" d="M270.47,152.91c-0.23,2.93-1.79,6.64-4.98,6.64c-2.61,0-3.31-2.52-3.04-5.18
		c0.21-2.70,1.85-6.46,5.07-6.46C270.06,147.91,270.73,150.39,270.47,152.91z M264.80,154.97
		c-0.23,1.98-0.14,3.87,0.79,3.87c1.35,0,2.25-4.14,2.50-6.48c0.23-1.83,0.16-3.74-0.72-3.74
		C265.92,148.61,265.06,152.62,264.80,154.97z"/>
	<path fill="#FFFFFF" d="M276.45,156.98c-0.27,1.44-0.21,1.62,1.38,1.76l-0.16,0.59h-5.51l0.12-0.59
		c1.45-0.14,1.58-0.32,1.87-1.76l1.22-6.17c0.23-1.17,0.07-1.31-0.86-1.36l-0.55-0.01l0.16-0.57
		c1.15-0.14,2.64-0.45,4.06-0.93L276.45,156.98z"/>
	<path fill="#FFFFFF" d="M288.48,150.03h-4.39l-0.88,2.73c1.01-0.30,1.63-0.46,2.05-0.46c1.69,0,3.27,1.00,3.27,2.88
		c0,1.40-0.93,2.61-2.37,3.47c-1.08,0.64-2.08,0.9-2.91,0.9c-0.86,0-1.62-0.30-2.01-0.64
		c-0.30-0.23-0.48-0.52-0.46-0.82c0-0.30,0.35-0.75,0.64-0.91c0.18-0.10,0.32-0.09,0.46,0.03
		c0.36,0.34,1.20,1.33,2.52,1.33c1.27,0,1.80-1.00,1.80-2.30c0-1.87-1.08-2.70-2.57-2.70
		c-0.57,0-1.09,0.10-1.40,0.21l-0.12-0.18l1.52-5.43h5.63L288.48,150.03z"/>
</g>
<path fill="#FFFFFF" d="M168.62,24.72l0.09,0.15c-1.24,2.01-0.90,3.63-0.90,3.63l1.48,1.47
	c-0.23-0.36,0.28-1.54,0.28-1.54c0.70-1.28,0.77-2.37,0.77-2.37c0.40-2.27-0.39-2.35-0.39-2.35
	c0.28-0.23,1.92-1.55,1.92-1.55l-0.23,0.45c-1.37,2.15-0.08,4.97-0.08,4.97c0.50,0.99,0.56,2.77,0.56,2.77
	c1.04,2.43,1.92,1.71,1.92,1.71c1.57-0.48-0.23-6.02-0.23-6.02c-0.22-0.46-0.18-2.20-0.18-2.20
	c-0.41-2.16-1.45-1.85-1.45-1.85c0.31-0.37,2.36-1.36,2.36-1.36c0.65-0.44,0.00,0.38,0.00,0.38
	c-1.18,1.90,0.47,4.68,0.47,4.68c0.82,1.28,0.99,2.57,0.99,2.57c0.43,1.76,1.84,2.43,1.84,2.43
	c2.49,0.81,0.75-4.90,0.75-4.90c0.56,0.34,0.99,1.85,0.99,1.85c0.12,0.58,1.37,1.83,1.37,1.83
	c0.78,0.83,0.39-0.23,0.39-0.23c-0.29-0.72-0.18-2.45-0.18-2.45c0.33-2.80-0.14-5.29-0.14-5.29
	c-0.64-3.33-2.5-2.78-2.5-2.78l3.32-1.20c0.38-0.16,0.23,0.09,0.23,0.09c-1.52,2.44,0.50,7.46,0.50,7.46
	c1.24,3.33,2.37,3.64,2.37,3.64c1.91,0.18,0.15-8.69,0.15-8.69c-1.31-3.10-2.87-2.68-2.87-2.68l3.73-1.14
	c0.46-0.19,0.04,0.34,0.04,0.34c-1.37,2.70,0.70,6.54,0.70,6.54c0.78,2.69,2.70,4.19,2.70,4.19
	c2.52,0.62,0.98-4.20,0.98-4.20c-0.33-1.56-1.09-3.95-1.09-3.95c-0.84-3.40-2.88-3.11-2.88-3.11l3.68-1.06
	c0.54-0.22,0.07,0.47,0.07,0.47c-0.84,2.19,1.69,6.78,1.69,6.78c1.80,3.51,3.04,2.92,3.04,2.92
	c2.25-0.62-1.17-7.55-1.17-7.55c-1.17-3.32-3.10-2.81-3.10-2.81l3.92-1.17c0.43-0.22,0.04,0.67,0.04,0.67
	c0.30,5.35,4.25,8.70,4.25,8.70c1.60,1.07,1.77-0.47,1.77-0.47c-1-8.96-5.58-9.15-5.58-9.15l3.76-1.01
	c0.50-0.18,0.31,0.47,0.31,0.47c-0.01,4.21,5.44,7.23,5.44,7.23c1.97,0.97,1.57-1.11,1.57-1.11
	c-3.17-7.41-6.48-6.88-6.48-6.88l3.73-1.03c0.60-0.05,0.38,0.46,0.38,0.46c2.10,3.97,6.20,4.82,6.20,4.82
	c2.13,0.45,1.44-1.23,1.44-1.23c-3.06-5.12-6.38-4.56-6.38-4.56l1.08-0.37c0.49-0.22,1.36-0.27,1.36-0.27
	c6.56-0.95,8.39-3.12,8.39-3.12c1.20-1.12-1.15-1.22-1.15-1.22c-3.45-0.94-7.47,3.29-7.47,3.29
	c-0.15,0.15-0.81,0.79-0.81,0.79c-0.64,0.53-2.55,1.06-2.55,1.06c-0.43,0.08-0.02-0.24-0.02-0.24
	c4.37-3.16,5.36-6.65,5.36-6.65c0.62-1.78-1.24-0.72-1.24-0.72c-4.82,2.93-4.65,7.29-4.65,7.29
	c0.21,0.30-0.10,0.43-0.10,0.43c-0.19,0.05-3.37,1.14-3.72,1.13c-0.34-0.01-0.00-0.30-0.00-0.30
	c3.02-1.96,4.04-6.65,4.04-6.65c1.27-2.49,0.62-2.95,0.62-2.95c-1.07-1.01-2.03,0.86-2.03,0.86
	c-1.40,0.89-2.45,4.47-2.45,4.47c-1.26,2.26-0.69,4.27-0.69,4.27c0.20,0.36-0.15,0.42-0.15,0.42l-3.50,1.05
	c-0.35-0.02,0.01-0.26,0.01-0.26c3.05-2.72,4.20-8.95,4.20-8.95c0.10-1.42-2.50,0.67-2.50,0.67
	c-1.27,0.72-1.36,2.19-1.36,2.19c-0.12,0.86-0.56,1.83-0.56,1.83c-0.84,1.92-0.26,4.27-0.26,4.27
	c0.22,0.35-0.15,0.34-0.15,0.34c-0.23,0.17-3.65,1.17-3.65,1.17c-0.24,0,0.05-0.22,0.05-0.22
	c2.84-1.95,3.18-4.52,3.18-4.52c0.77-1.52,0.63-4.50,0.63-4.50c0.25-1.08-1.83,1.26-1.83,1.26
	c-1.18,0.78-1.53,2.92-1.53,2.92c-1.48,2.81-0.93,4.75-0.93,4.75c0.30,0.27-0.09,0.42-0.09,0.42
	c-0.17,0.15-3.85,1.29-3.98,1.20c-0.12-0.09,0.12-0.26,0.12-0.26c0.95-0.63,1.52-1.56,1.52-1.56
	c1.73-2.51,1.12-7.31,1.12-7.31c-0.48-0.97-1.69,1.12-1.69,1.12c-0.98,1.09-0.86,2.41-0.86,2.41
	c0.50,0.58-0.40,0.85-0.40,0.85c-1.31,1.34-0.15,4.46-0.15,4.46c0.16,0.32-0.01,0.42-0.01,0.42l-3.63,1.16
	c-0.12-0.20,0.21-0.30,0.21-0.30c2.83-3.26,2.4-7.41,2.4-7.41c-0.04-0.39,0.08-0.68,0.08-0.68
	c0.39-0.37,0.53-0.89,0.53-0.89c0.33-1.76-1.31-1.17-1.31-1.17c-1.28,0.25-1.70,3.22-1.70,3.22
	c0.19,0.71-1.11,3.26-1.11,3.26c-0.66,1.63,0.54,3.76,0.54,3.76c0.19,0.21,0.12,0.26-0.08,0.32
	s-3.45,1.28-3.45,1.28l-0.01-0.23l0.34-0.53c2.15-3.15,1.54-5.12,1.54-5.12c-0.17-0.58-0.04-2.06-0.04-2.06
	c0.35-0.76,0.48-1.45,0.48-1.45c0.13-1.06-0.95-0.13-0.95-0.13c-1.18,0.72-0.99,1.63-0.99,1.63
	c-0.13,0.90-0.92,3.09-0.92,3.09c-0.72,0.23-1.20,1.15-1.20,1.15c-0.29,0.90-2.00,2.84-2.00,2.84
	c-0.49,0.55,0.14,2.13,0.14,2.13c0.19,0.27-0.31,0.53-0.31,0.53c-0.30,0.13-2.24,1.29-2.24,1.29
	c-0.30,0.11-0.16-0.32-0.16-0.32c1.12-2.42,0.54-4.15,0.54-4.15c-0.22-0.51-0.15-2.03-0.15-2.03
	c0.09-1.13-0.56-0.72-0.56-0.72c-1.77,0.66-1.43,2.26-1.43,2.26c0.16,0.60-0.25,3.08-0.25,3.08
	c0.26,1.68,1.49,1.87,1.49,1.87c0.28,0.15-0.01,0.34-0.01,0.34c-0.57,0.33-1.98,1.52-1.98,1.52
	c0.12-0.23-0.15-0.47-0.15-0.47c-1.44-1.78-6.25,1.51-6.25,1.51l1.22,1.16c1.49-0.51,4.74-2.24,4.74-2.24
	C170.43,23.13,168.62,24.72,168.62,24.72z M175.30,19.89l0.02-0.22c0,0,1.87-1.34,2.41-2.23
	c0,0,0.33,0.60,0.67,0.79c0,0,0.18,0.13-0.11,0.28C178.30,18.52,175.68,19.79,175.30,19.89z M175.10,20.27
	c0,0,2.63-1.27,3.12-1.36c0,0-0.86,1.36-0.68,2.80c0,0-0.98-1.56-2.35-1.36
	C175.19,20.35,175.03,20.36,175.10,20.27z"/>
</svg>
