<?xml version="1.0" encoding="utf-8"?>
<!-- Generator: Adobe Illustrator 16.0.0, SVG Export Plug-In . SVG Version: 6.00 Build 0)  -->
<!DOCTYPE svg PUBLIC "-//W3C//DTD SVG 1.1//EN" "http://www.w3.org/Graphics/SVG/1.1/DTD/svg11.dtd">
<svg version="1.1" id="Ebene_1" xmlns="http://www.w3.org/2000/svg" xmlns:xlink="http://www.w3.org/1999/xlink" x="0px" y="0px"
	 width="555.008px" height="644.908px" viewBox="0 0 555.008 644.908" enable-background="new 0 0 555.008 644.908"
	 xml:space="preserve">
<g id="Malysia_Peninsula">
</g>
<g id="Indonesien">
	<path opacity="0.6" fill="#FFFFFF" enable-background="new    " d="M37.518,356.708c-2.445,1.629-8.553,6.109-10.997,6.924
		s-6.517,3.257-6.517,8.146c0,4.888,1.899,7.467-2.444,9.367c-4.345,1.9-5.43,4.345-7.603,8.962
		c-2.174,4.615-3.26,5.431-3.803,8.418c-0.542,2.984-0.271,7.602,2.174,6.243c2.444-1.355,7.603-8.959,8.688-5.43
		c1.087,3.531-6.381,13.577-9.64,13.168c-3.258-0.405-4.887-0.814-4.684,2.648s1.391,2.851-0.017,6.925
		c-1.408,4.073-2.019,4.073-1.205,11.608c0.815,7.534-3.378,25.861-0.366,26.064c3.014,0.205,5.255-0.813,6.679,1.63
		c1.426,2.443,13.238,11.812,12.016,14.256c-1.222,2.443-2.239,2.238-2.851,4.889c-0.611,2.646,2.444,10.386,0.612,11.402
		c-1.833,1.019-6.11-1.629-7.942,1.019c-1.834,2.646,4.073,2.444,3.666,5.904c-0.407,3.465-7.129,7.333-0.61,9.98
		c6.516,2.647,12.625,1.833,14.663,5.906c2.035,4.072,6.517,10.385,4.683,11.199c-1.833,0.814-5.703-2.239-6.11,1.223
		c-0.408,3.461,1.833,7.941,3.871,6.109c2.036-1.834,3.257-3.463,5.09-1.631c1.833,1.834,3.461,2.889,5.294,2.056
		s2.852-5.518,6.109-4.293c3.259,1.22,0,8.553,3.461,9.979c3.464,1.425,5.297-1.833,6.927,1.22c1.629,3.057,3.462,6.11,4.887,5.297
		c1.425-0.813,2.444-18.938,4.479-17.922c2.037,1.019-0.202,13.709,3.054,18.056c3.259,4.349,9.573,7.81,10.592,11.474
		c1.018,3.667,1.221,7.128-2.852,7.331c-4.074,0.204-8.554,0.612-6.11,2.853c2.445,2.24,1.629,5.5,1.223,11.607
		c-0.407,6.109,3.666,7.331,7.33,7.129c3.668-0.205,9.573-13.44,13.239-9.773c3.665,3.663,6.312,5.335,6.107,9.793
		c-0.202,4.46,1.224,3.688,3.87,0c2.648-3.688,9.164-9.999,10.997-7.147c1.833,2.854,1.02,5.091-1.833,5.702
		c-2.852,0.611-4.56,9.775,2.812,7.943c7.37-1.833,14.702-10.59,19.591-10.999c4.885-0.405,8.959-0.813,10.792,2.037
		c1.833,2.852,2.85,4.073,4.887,2.852s1.427-12.83,2.037-15.274c0.609-2.44,1.222-5.496,4.48-1.83
		c3.258,3.664,5.905,7.737,7.534,8.553c1.629,0.814-0.405,3.259-1.22,5.903c-0.814,2.648,3.461,16.294,2.849,20.162
		c-0.611,3.868,2.362,6.519,0.062,8.352c-2.302,1.831-5.15,3.46-3.725,4.887c1.423,1.426,10.385-2.85,12.625-5.499
		c2.239-2.646,6.313-6.923,10.184-5.295c3.867,1.631,11.199,7.332,14.661,6.312c3.462-1.019,9.979-13.439,14.866-14.459
		c4.888-1.018,7.942-2.239,7.737-3.868c-0.202-1.63-3.034-7.332,0.012-9.775c3.045-2.443,5.081-2.443,7.117-0.611
		c2.037,1.833,7.128,2.24,7.535,5.703c0.406,3.46-0.61,5.499,1.833,4.481c2.443-1.021,5.497-6.722,7.535-3.87
		c2.035,2.849-0.203,5.09,3.056,4.888c3.257-0.203,7.126-2.241,9.569,1.018c2.444,3.259,1.223,5.092,1.428,9.979
		c0.201,4.887,5.294,5.906,8.755,4.48c3.463-1.427,14.46-18.532,16.904-15.478c2.441,3.054,0.812,8.35,3.258,7.738
		c2.443-0.612,5.498-10.997,8.756-7.941c3.26,3.054,0,9.774,0,12.422c0,2.646,6.723-6.312,9.774-3.056
		c3.057,3.259-0.609,8.509,2.444,13.113c3.055,4.604,2.853,17.229,4.277,22.322c1.424,5.091,5.498,6.312,12.424,2.443
		c6.922-3.872,30.342-17.719,36.655-17.922c6.312-0.203,8.349,0,12.625-3.056c4.276-3.055,9.979-9.367,9.979-13.235
		c0-3.871,1.019-9.572,5.091-10.184c4.073-0.61,4.073-4.687,3.87-7.943c-0.205-3.256-8.555-6.924-7.942-9.57
		c0.61-2.647,4.479-12.424,7.127-10.996c2.647,1.427,8.961,13.44,10.185,11.403c1.221-2.036-7.535-29.121-4.076-30.749
		c3.464-1.631,8.963-3.87,9.98,0c1.018,3.867,2.852,13.236,5.092,11.199c2.239-2.035,7.738-11.812,6.109-15.683
		c-1.631-3.869-4.904-13.438,0.297-14.863c5.203-1.428,7.033-1.225,6.627,4.07c-0.408,5.294-0.814,12.22,3.463,10.996
		c4.275-1.22,16.697-24.232,20.363-24.438c3.666-0.204,5.295,1.629,8.758,0.611c3.461-1.02,11.811-3.869,8.145-5.499
		s-3.666-4.889-1.832-7.736c1.832-2.854,0.609-8.353-1.426-7.13c-2.037,1.223-6.518,3.87-5.498-0.203
		c1.02-4.072,2.646-12.424,1.02-16.292c-1.631-3.869,0.609-5.702,0.404-13.441c-0.203-7.737,1.834-19.957,5.5-27.084
		c3.664-7.128,11.812-24.642,15.07-25.457c3.258-0.813,5.701,1.02,7.127-1.223c1.424-2.24-8.145-17.311-4.889-17.919
		c3.26-0.612,13.85,17.919,17.719,17.919c3.867,0,19.549-4.072,23.826-2.851c4.275,1.221,5.703,4.072,7.941,2.646
		s9.367-6.72,8.352-9.774c-1.021-3.055-5.5-2.647-7.129-3.87c-1.629-1.222,1.018-6.312-1.02-7.738
		c-2.037-1.427-12.422-6.313-16.697-9.775c-4.277-3.462-39.715-27.697-37.676-37.471c2.035-9.775,10.182-16.496,8.959-21.383
		c-1.221-4.889-4.072-8.554-7.941-9.979c-3.869-1.425-3.664-5.091-4.684-7.94c-1.018-2.853-8.35-5.296-8.553-7.332
		c-0.205-2.037,3.055-3.056,2.852-5.905c-0.203-2.853-5.906-0.204-7.332-1.426c-1.426-1.222,1.834-9.368,0-11.608
		c-1.832-2.24-6.518,0.611-7.127-1.018c-0.611-1.63,0-2.037-3.057-2.444c-3.055-0.407-8.959-0.611-7.738-3.666
		c1.223-3.055,9.367-5.905,8.146-10.182c-1.223-4.277-6.518-0.815-7.943-2.648c-1.424-1.833-2.035-6.72-6.107-7.738
		c-4.074-1.019-7.332-3.462-5.906-6.721s5.906-3.259,11.811-2.444c5.908,0.815,10.186,2.647,11.812,1.63
		c1.631-1.018,1.631-5.294,5.295-4.073c3.666,1.222,10.387,6.312,11.811,4.685c1.426-1.629,1.426-7.535-2.852-7.943
		c-4.275-0.407-7.332-1.018-7.535-4.276c-0.203-3.259-0.203-8.96-3.258-10.386c-3.055-1.426-6.924-7.738-4.684-8.146
		c2.24-0.407,9.773,1.222,10.387-2.036c0.609-3.259,2.24-13.237,5.09-11.812c2.852,1.425,5.092,1.833,8.352,3.055
		c3.26,1.222,3.055,6.517,8.35,5.09c5.295-1.424,9.572-5.498,15.885-6.108c6.312-0.611,15.682-2.241,15.271-4.889
		c-0.404-2.646-6.107-3.868-6.719-5.905c-0.609-2.036-0.609-2.851-4.889-5.091c-4.275-2.24-15.68-14.459-11.404-20.772
		s11.404-8.96,15.273-6.517c3.869,2.444,8.146,6.313,12.422,6.924c4.277,0.612,7.535-2.647,12.422-3.055
		c4.889-0.407,15.887-5.702,16.904-9.165c1.018-3.461,4.072-11.812,0-12.218c-4.072-0.408-12.219,1.019-13.645-1.019
		c-1.426-2.037-6.107,0-7.943-1.833c-1.832-1.833-1.223-5.498-4.275-5.906c-3.055-0.407-6.924,2.037-8.35-1.222
		c-1.426-3.258-0.408-8.757-6.312-11.201c-5.906-2.443-7.535-1.833-12.221,0c-4.684,1.833-7.941,5.499-10.588,4.073
		c-2.646-1.425-5.906-6.516-3.057-7.534c2.852-1.019,6.518-1.629,6.314-3.055c-0.203-1.425-3.666-3.461-3.869-6.924
		c-0.203-3.462-0.408-5.905-2.24-5.091c-1.834,0.814-3.463,7.942-7.537,8.349c-4.07,0.408-5.496,4.685-9.162,4.481
		c-3.664-0.203-6.721,2.036-9.57,3.259c-2.854,1.221-8.758-0.611-6.111-5.499c2.648-4.887,7.129-10.498,10.389-10.748
		s5.701-1.675,4.887-3.916c-0.814-2.239-5.498-6.108-3.258-7.127c2.24-1.018,3.869-3.666,4.684-8.146
		c0.814-4.48-6.721-5.498-8.553-6.924c-1.834-1.425-6.721-0.611-10.184-2.24c-3.463-1.629-7.332-5.906-7.129-11.812
		c0.205-5.906,1.834-12.422-2.035-12.625c-3.869-0.205-5.5,3.258-8.35,4.073c-2.854,0.814-1.426,1.221-1.02,4.276
		c0.408,3.056-3.055,7.943-5.496,9.979c-2.445,2.036-4.277,3.869-6.314,2.851s0.408-7.331,0-9.979
		c-0.408-2.647,5.498-8.553,1.426-10.183c-4.073-1.63-8.961-1.629-8.146,1.629c0.813,3.258,3.666,6.924,1.426,8.961
		c-2.24,2.036-3.055,6.923-8.146,12.625c-5.092,5.703-6.721,10.386-7.738,10.997c-1.018,0.611-3.666-0.407-4.686,1.63
		c-1.018,2.036-0.406,5.091-2.443,6.72c-2.035,1.629-8.756,4.276-8.959,7.127c-0.205,2.851-1.223,15.885-3.463,18.125
		c-2.24,2.241-7.33,7.535-8.146,10.183c-0.812,2.647-2.441,2.647-3.461,4.888c-1.018,2.24,1.222,5.906-3.869,6.11
		c-5.092,0.203-7.129-1.223-9.164-4.278c-2.035-3.054-2.646-1.832-3.869,0.815c-1.223,2.648-2.24,1.629-2.852,4.48
		s-3.666,1.629-3.259,5.295c0.408,3.666,2.036,6.924,4.276,8.757c2.24,1.833,6.109-0.408,6.517,3.054s-2.239,9.979-4.888,10.182
		c-2.646,0.205-3.258,0-5.09,2.444c-1.834,2.444-3.666,5.295-5.703,5.092c-2.036-0.205-0.408-3.055-3.258-2.648
		c-2.852,0.408-5.5,8.757-10.387,7.128c-4.889-1.629,1.631-10.182-1.427-11.811c-3.055-1.629-7.737,3.257-12.22,5.905
		c-4.479,2.648-10.182,9.572-13.236,12.218c-3.055,2.648-9.367,6.517-13.439,7.943c-4.073,1.425-17.31,0.407-18.328,3.258
		s6.72,6.109,5.294,8.145c-1.424,2.038-16.697,23.42-22.809,31.159c-6.108,7.738-13.033,13.44-16.29,19.753
		c-3.259,6.314-9.98,18.939-14.053,21.18c-4.074,2.24-7.738,2.62-9.367,4.874c-1.631,2.253-1.425,4.086-5.092,4.29
		c-3.666,0.204-12.015,5.499-19.347,7.332c-7.331,1.833-17.311,6.109-22.809,4.889c-5.499-1.223-10.589-2.037-14.459-0.611
		c-3.869,1.425-11.609-0.204-13.44,0.611c-1.835,0.813,2.647,4.888,3.461,8.553c0.815,3.666-0.407,13.034,3.055,15.682
		c3.463,2.647,13.645,4.276,19.347,6.72c5.701,2.444,12.627,5.093,12.017,6.313c-0.611,1.222-6.315,0.204-12.831-1.833
		c-6.517-2.036-20.568-8.349-23.623-6.517c-3.055,1.834-6.108,3.463-5.906,5.296c0.204,1.833,2.444,2.646,1.223,3.868
		c-1.223,1.223-3.665,2.853-4.075,0.611c-0.405-2.24-1.017-5.295-4.275-5.091c-3.257,0.203-4.887,0.813-4.276,6.312
		c0.611,5.498,1.427,11.2,0,16.089c-1.425,4.888-3.461,6.517-2.646,8.757c0.814,2.241,5.906,6.312,5.498,8.146
		c-0.407,1.832-2.24-0.61-3.869,0c-1.629,0.61,6.312,6.516,4.48,7.942c-1.834,1.425-6.312-3.463-9.164-2.241
		c-2.852,1.223-2.037,9.164,1.222,9.979c3.258,0.814,8.146,2.24,11.608,4.888c3.462,2.646,5.703,7.127,3.869,8.146
		c-1.834,1.02-8.758-4.887-13.848-7.128c-5.093-2.239-5.703-9.978-11.2-9.57c-5.499,0.407-7.74,5.499-9.981,4.888
		c-2.238-0.61,0.612-7.535-2.442-8.553c-3.056-1.019-8.146,0.61-8.961-1.223c-0.814-1.833-6.923-6.312-9.367-5.702
		c-2.443,0.611-4.276,1.833-4.48,3.87s-0.61,3.26-2.036,2.852c-1.426-0.407,2.036-5.702-1.833-6.109
		c-3.87-0.408-8.146,1.02-10.998,0.61c-2.85-0.408-10.589-4.685-13.439-9.368c-2.851-4.684-4.481-8.554-4.481-10.182
		C39.146,357.115,37.518,356.708,37.518,356.708z"/>
	<path fill="#FFFFFF" d="M118.125,303.458c-2.247,0.292-2.441,2.439-2.441,4.785s0.544,4.985,0.544,6.208
		c0,1.222,3.156,2.545,3.156-2.545s0.407-7.282,0-7.918C118.978,303.353,118.125,303.458,118.125,303.458z"/>
	<path fill="#FFFFFF" d="M125.086,306.814c-2.312,1.139-3.666,6.516-2.036,7.737c1.629,1.222,2.852,3.666,5.904,3.461
		c3.056-0.203,3.666-3.671,5.094-2.446c1.424,1.226-0.205,6.113,1.831,7.945c2.036,1.833,3.463-1.425,2.851-4.684
		c-0.61-3.258-0.22-7.638-3.054-10.182C132.656,305.936,127.397,305.674,125.086,306.814z"/>
	<path fill="#FFFFFF" d="M117.625,324.043c-2.314,2.321-1.964,5.986,0,5.171c1.961-0.813,5.611-4.276,4.907-6.312
		C121.827,320.866,117.625,324.043,117.625,324.043z"/>
	<path fill="#FFFFFF" d="M114.291,319.236c-1.375,0.17-3.869,2.1-1.628,2.984c2.24,0.886,4.83-0.406,4.962-1.492
		C117.755,319.643,115.667,319.066,114.291,319.236z"/>
	<path fill="#FFFFFF" d="M130.702,324.043c2.43,0.592,4.564,4.386,2.325,5.289c-2.238,0.902-5.906-0.692-5.702-2.645
		C127.531,324.735,128.272,323.451,130.702,324.043z"/>
	<path fill="#FFFFFF" d="M127.318,330.641c1.133,0.12,6.118,2.444,2.044,2.647c-4.072,0.204-9.817-2.24-6.742-2.647
		C125.695,330.234,126.186,330.521,127.318,330.641z"/>
	<path fill="#FFFFFF" d="M331.995,145.932c-2.455-0.046-5.298,4.888-5.908,6.924s1.426,2.443,5.908,2.443
		c4.478,0,6.516-1.018,6.107-3.054s-1.115-3.554-2.396-4.522C334.47,146.786,334.447,145.977,331.995,145.932z"/>
	<path fill="#FFFFFF" d="M367.836,22.317c-3.465,1.426-8.147,5.295-5.297,5.905c2.853,0.612,7.535,2.241,8.553,0
		c1.02-2.239,1.426-3.462,0-4.479C369.668,22.725,367.836,22.317,367.836,22.317z"/>
	<path fill="#FFFFFF" d="M422.415,39.016c-3.463,0.203-5.908,1.019-6.519,2.444c-0.61,1.426,0.813,2.647,3.259,3.055
		c2.441,0.407,5.701-1.018,5.701-2.75C424.856,40.035,422.415,39.016,422.415,39.016z"/>
	<path fill="#FFFFFF" d="M431.78,39.016c-2.24-0.814-3.258,0.07-3.461,2.785c-0.205,2.714-0.408,8.009,1.73,7.194
		s1.117-2.647,3.768-2.445c2.646,0.205,4.072-0.614,2.85-2.649C435.446,41.867,431.78,39.016,431.78,39.016z"/>
	<path fill="#FFFFFF" d="M454.385,65.49c-2.646,1.019-4.479,1.019-4.684,3.055c-0.203,2.037,1.223,3.462,4.684,2.851
		c3.463-0.61,6.723-3.054,5.703-4.887S454.385,65.49,454.385,65.49z"/>
	<path fill="#FFFFFF" d="M462.186,256.167c-4.584-0.152-9.627,0-7.793,2.292c1.836,2.292,7.486,1.069,11.768,1.069
		c4.277,0,8.709,0.131,7.486-1.539c-1.225-1.67-0.768-4.573-2.445-4.878c-1.68-0.306-1.682,1.987-3.82,2.292
		C465.243,255.708,462.186,256.167,462.186,256.167z"/>
	<path fill="#FFFFFF" d="M485.258,249.903c-2.635,0.026-3.057,2.905-2.598,4.584c0.459,1.68,3.057,1.826,5.191,1.982
		c2.141,0.156,5.354,0.004,3.213-1.982C488.924,252.501,487.889,249.876,485.258,249.903z"/>
	<path fill="#FFFFFF" d="M473.036,210.941c-1.986,0.306-3.209,1.681-2.445,3.515c0.764,1.833,2.141,4.125,4.277,4.125
		c2.139,0,1.682,1.527,4.279,1.069c2.596-0.458,6.252-3.123,3.43-4.311c-2.818-1.189-5.418,0.032-6.334-1.648
		C475.327,212.012,473.036,210.941,473.036,210.941z"/>
	<path fill="#FFFFFF" d="M468.627,221.714c-1.553,0.224-3.109,0.778-2.221,2.444s3.889,3.887,4.889,2.998
		c0.998-0.888,1.998-1.131,1.109-2.62C471.516,223.047,468.627,221.714,468.627,221.714z"/>
	<path fill="#FFFFFF" d="M514.729,208.607c-2.111-0.222-2.666,3-2.557,4.776c0.109,1.778,0.557,2.888,2.557,2.444
		c1.996-0.445,3.107-2.124,2.887-3.561C517.393,210.828,516.838,208.829,514.729,208.607z"/>
</g>
<g id="Ost-Malaysia">
</g>
<g id="Brunei">
	<g>
		<path fill="#FFFFFF" d="M339.101,176.446c-0.043-0.001-0.081-0.006-0.127-0.006C339.02,176.44,339.058,176.445,339.101,176.446z"
			/>
		<path fill="#FFFFFF" d="M340.131,176.893c-0.01-0.014-0.021-0.026-0.03-0.04C340.111,176.867,340.122,176.879,340.131,176.893z"/>
		<path fill="#FFFFFF" d="M340.254,177.082c0,0.001,0.002,0.002,0.002,0.003C340.256,177.084,340.256,177.083,340.254,177.082z"/>
		<path fill="#FFFFFF" d="M339.907,176.676c0.021,0.015,0.041,0.031,0.061,0.047C339.947,176.707,339.928,176.691,339.907,176.676z"
			/>
		<path fill="#FFFFFF" d="M287.01,198.084c0.011-0.002,0.02-0.005,0.029-0.008C287.03,198.079,287.021,198.082,287.01,198.084z"/>
		<path fill="#FFFFFF" d="M552.95,145.932c-4.07-0.408-12.217,1.019-13.645-1.019c-1.426-2.037-6.107,0-7.941-1.833
			c-1.832-1.833-1.223-5.498-4.275-5.906c-3.055-0.407-6.924,2.037-8.35-1.222c-1.426-3.258-0.408-8.757-6.314-11.201
			c-5.904-2.443-7.535-1.833-12.219,0s-7.941,5.499-10.588,4.073c-2.648-1.425-5.906-6.516-3.059-7.534
			c2.854-1.019,6.52-1.629,6.316-3.055c-0.205-1.425-3.668-3.461-3.871-6.924c-0.203-3.462-0.408-5.905-2.24-5.091
			c-1.834,0.814-3.463,7.942-7.535,8.349c-4.072,0.408-5.496,4.685-9.162,4.481c-3.666-0.203-6.723,2.036-9.572,3.259
			c-2.852,1.221-8.756-0.611-6.109-5.499c2.648-4.887,7.127-10.498,10.389-10.748c3.258-0.25,5.699-1.675,4.887-3.916
			c-0.814-2.239-5.5-6.108-3.258-7.127c2.238-1.018,3.869-3.666,4.682-8.146c0.816-4.48-6.719-5.498-8.551-6.924
			c-1.834-1.425-6.721-0.611-10.186-2.24c-3.463-1.629-7.332-5.906-7.127-11.812c0.205-5.906,1.832-12.422-2.035-12.625
			c-3.871-0.205-5.5,3.258-8.35,4.073c-2.854,0.814-1.428,1.221-1.02,4.276c0.406,3.056-3.055,7.943-5.498,9.979
			s-4.277,3.869-6.314,2.851c-2.035-1.018,0.41-7.331,0-9.979c-0.406-2.647,5.5-8.553,1.426-10.183
			c-4.072-1.63-8.96-1.629-8.145,1.629c0.812,3.258,3.666,6.924,1.424,8.961c-2.239,2.036-3.053,6.923-8.146,12.625
			c-5.092,5.703-6.72,10.386-7.739,10.997c-1.017,0.611-3.666-0.407-4.685,1.63c-1.019,2.036-0.406,5.091-2.442,6.72
			c-2.035,1.629-8.757,4.276-8.959,7.127c-0.205,2.851-1.224,15.885-3.464,18.125c-2.241,2.241-7.33,7.535-8.146,10.183
			c-0.813,2.647-2.442,2.647-3.461,4.888c-1.019,2.24,1.221,5.906-3.869,6.11c-5.092,0.203-7.129-1.223-9.166-4.278
			c-2.034-3.054-2.645-1.832-3.868,0.815c-1.222,2.648-2.24,1.629-2.851,4.48c-0.611,2.851-3.668,1.629-3.26,5.295
			s2.036,6.924,4.276,8.757c2.239,1.833,6.108-0.408,6.517,3.054c0.407,3.462-2.24,9.979-4.888,10.182
			c-2.646,0.205-3.258,0-5.09,2.444c-1.834,2.444-3.666,5.295-5.703,5.092c-0.187-0.019-0.334-0.066-0.465-0.125
			c0.12,2.297,0.17,4.504,0.057,6.199c-0.405,6.074,4.074,13.883,1.63,21.894c-2.443,8.013-11.811,7.874-10.923,1.5
			c0.892-6.373-1.702-20.916-2.925-22.952c-1.223-2.037-5.295,3.258-6.518,9.775s1.631,6.109-2.442,10.997
			c-4.074,4.888,0,10.997-8.554,20.944c-8.555,9.948-27.78-28.83-27.78-28.83l0,0c-5.513,0.494-13.588,0.389-14.375,2.591
			c-1.018,2.851,6.72,6.109,5.294,8.145c-1.424,2.038-16.697,23.42-22.809,31.159c-6.108,7.738-13.033,13.44-16.29,19.753
			c-3.259,6.314-9.98,18.939-14.053,21.18c-4.074,2.24-7.738,2.62-9.367,4.874c-1.631,2.253-1.425,4.086-5.092,4.29
			c-3.666,0.204-12.015,5.499-19.347,7.332c-7.331,1.833-17.311,6.109-22.809,4.889c-5.499-1.223-10.589-2.037-14.459-0.611
			c-3.869,1.425-11.609-0.204-13.44,0.611c-1.835,0.813,2.647,4.888,3.461,8.553c0.815,3.666-0.407,13.034,3.055,15.682
			c3.463,2.647,13.645,4.276,19.347,6.721c5.701,2.443,12.627,5.092,12.017,6.312c-0.611,1.222-6.315,0.204-12.831-1.833
			c-6.517-2.036-20.568-8.349-23.623-6.517c-3.055,1.834-6.108,3.463-5.906,5.296c0.204,1.833,2.444,2.646,1.223,3.869
			c-1.223,1.222-3.665,2.852-4.075,0.61c-0.405-2.239-1.017-5.295-4.275-5.091c-3.257,0.203-4.887,0.814-4.276,6.313
			c0.611,5.498,1.427,11.2,0,16.088c-1.425,4.888-3.461,6.517-2.646,8.757c0.814,2.241,5.906,6.312,5.498,8.146
			c-0.407,1.832-2.24-0.61-3.869,0s6.312,6.516,4.48,7.942c-1.834,1.425-6.312-3.463-9.164-2.241
			c-2.852,1.224-2.037,9.164,1.222,9.979c3.258,0.814,8.146,2.241,11.608,4.888c3.462,2.647,5.703,7.127,3.869,8.146
			c-1.834,1.019-8.758-4.888-13.848-7.129c-5.093-2.239-5.703-9.978-11.2-9.57c-5.499,0.408-7.74,5.499-9.981,4.888
			c-2.238-0.61,0.612-7.535-2.442-8.553c-3.056-1.019-8.146,0.61-8.961-1.222c-0.814-1.834-6.923-6.313-9.367-5.702
			c-2.443,0.61-4.276,1.833-4.48,3.87c-0.204,2.036-0.61,3.259-2.036,2.851c-1.426-0.407,2.036-5.702-1.833-6.109
			c-3.87-0.407-8.146,1.02-10.998,0.61c-2.85-0.408-10.589-4.684-13.439-9.368c-2.851-4.684-4.481-8.554-4.481-10.182
			c0-1.629-1.628-2.036-1.628-2.036c-0.935,0.623-2.409,1.664-4.006,2.758v11.497l6.449,6.109c0,0,9.369,8.146,15.071,13.44
			c5.702,5.295,32.991,35.437,41.137,33.806c8.146-1.63,26.734-12.628,37.805-10.183c11.07,2.443,24.918,6.518,33.879-3.258
			s15.071-33.399,25.253-35.028c10.184-1.629,26.066-5.294,29.325-0.813c3.258,4.479,7.74,6.924,14.256,10.183
			c6.517,3.258,17.921,9.774,23.217,7.738c5.294-2.036,9.142-12.218,17.605-11.812c8.459,0.407,11.312-2.852,21.088-1.629
			c9.773,1.223,8.959,0,12.625-8.961c3.666-8.96,13.439-17.732,10.998-21.493c-2.445-3.759-9.775-5.796-4.889-9.868
			c4.888-4.073,14.355-11.041,20.822-15.295c6.465-4.256,5.651-4.771,1.578-8.79c-4.072-4.019-7.637-15.829-1.578-21.532
			c6.059-5.702,6.873,3.259,11.354,0c4.48-3.258,5.296-16.699,7.332-24.03c2.037-7.332,2.443-14.663,0-24.03
			c-2.444-9.368,0.273-35.147,4.82-36.92c4.547-1.773,9.027,3.041,16.766,6.744s9.775-5.167,16.699-4.398
			c6.925,0.769,8.146,6.397,15.479,4.398c7.33-2,7.496-3.75,17.596-3.08c10.102,0.673,8.471-4.337,17.432,0
			c3.107,1.505,7.455,3.782,11.805,6.114c3.094,0.1,8.068,0.643,8.561-1.98c0.611-3.259,2.24-13.237,5.09-11.812
			c2.854,1.425,5.092,1.833,8.354,3.055c3.258,1.222,3.053,6.517,8.348,5.09c5.295-1.424,9.572-5.498,15.885-6.108
			c6.312-0.611,15.682-2.241,15.271-4.889c-0.404-2.646-6.107-3.868-6.717-5.905c-0.611-2.036-0.611-2.851-4.891-5.091
			c-4.275-2.24-15.68-14.459-11.404-20.772s11.404-8.96,15.273-6.517c3.869,2.444,8.146,6.313,12.422,6.924
			c4.277,0.612,7.535-2.647,12.422-3.055c4.891-0.407,15.889-5.702,16.904-9.165C553.969,154.688,557.024,146.338,552.95,145.932z"
			/>
		<path fill="#FFFFFF" d="M339.663,176.545c0.03,0.012,0.059,0.027,0.088,0.041C339.721,176.572,339.693,176.557,339.663,176.545z"
			/>
		<path fill="#FFFFFF" d="M339.354,176.465c0.041,0.006,0.076,0.017,0.113,0.026C339.431,176.482,339.396,176.471,339.354,176.465z"
			/>
	</g>
</g>
<g enable-background="new    ">
	<path d="M25.128,400.96v4.006h0.028l2.549-4.006h2.185l-2.717,4.286l3.025,5.715H27.93l-2.059-4.104l-0.743,1.135v2.97h-2.017
		V400.96H25.128z"/>
	<path d="M34.438,410.078h-0.028c-0.406,0.743-1.106,1.079-1.919,1.079c-1.205,0-1.919-0.658-1.919-2.144v-5.589h1.933v5.197
		c0,0.756,0.252,1.05,0.827,1.05c0.658,0,1.022-0.406,1.022-1.246v-5.001h1.933v7.536h-1.849V410.078z"/>
	<path d="M41.201,406.143c0-0.729-0.14-1.513-0.869-1.513c-0.953,0-1.106,0.84-1.106,2.577c0,1.863,0.168,2.633,1.037,2.633
		c0.644,0,0.938-0.546,0.938-1.765h1.849c0,1.976-0.826,3.082-2.871,3.082c-1.933,0-2.886-0.938-2.886-3.964
		c0-3.096,1.274-3.965,3.054-3.965c1.779,0,2.703,1.135,2.703,2.914H41.201z"/>
	<path d="M44.055,400.96h1.933v3.235h0.028c0.364-0.645,1.022-0.967,1.835-0.967c1.205,0,1.919,0.658,1.919,2.144v5.589h-1.933
		v-5.197c0-0.756-0.252-1.05-0.826-1.05c-0.659,0-1.023,0.406-1.023,1.246v5.001h-1.933V400.96z"/>
	<path d="M51.125,400.848h1.933v1.652h-1.933V400.848z M51.125,403.425h1.933v7.536h-1.933V403.425z"/>
	<path d="M54.415,403.425h1.849v0.883h0.028c0.406-0.743,1.106-1.079,1.919-1.079c1.205,0,1.919,0.658,1.919,2.144v5.589h-1.933
		v-5.197c0-0.756-0.252-1.05-0.826-1.05c-0.659,0-1.022,0.406-1.022,1.246v5.001h-1.933V403.425z"/>
	<path d="M67.06,403.425v7.158c0,1.989-0.883,2.955-3.138,2.955c-1.639,0-2.563-0.729-2.563-2.017h1.849
		c0,0.252,0.112,0.448,0.294,0.574s0.406,0.21,0.645,0.21c0.784,0,1.064-0.588,1.064-1.358v-0.995h-0.028
		c-0.393,0.561-0.995,0.925-1.611,0.925c-1.541,0-2.311-1.051-2.311-3.811c0-1.765,0.266-3.838,2.367-3.838
		c0.532,0,1.191,0.252,1.555,1.037h0.028v-0.841H67.06z M64.16,409.393c0.812,0,1.051-0.883,1.051-2.157
		c0-1.835-0.238-2.521-1.009-2.521c-0.854,0-1.008,0.687-1.008,2.717C63.194,408.468,63.348,409.393,64.16,409.393z"/>
</g>
<path d="M65.997,395.15c0-2.351,1.905-4.251,4.252-4.251c2.35,0,4.252,1.9,4.252,4.251c0,2.35-1.902,4.251-4.252,4.251
	C67.903,399.402,65.997,397.5,65.997,395.15L65.997,395.15z"/>
<path d="M72.259,381.787c0-2.351,1.905-4.251,4.252-4.251c2.35,0,4.252,1.9,4.252,4.251c0,2.35-1.902,4.251-4.252,4.251
	C74.166,386.038,72.259,384.137,72.259,381.787L72.259,381.787z"/>
<g enable-background="new    ">
	<path fill="#FFFFFF" d="M243.311,202.593h2.998l1.429,7.06h0.028l1.443-7.06h2.983v10.001h-1.849v-7.984h-0.028l-1.779,7.984
		h-1.569l-1.779-7.984h-0.028v7.984h-1.849V202.593z"/>
	<path fill="#FFFFFF" d="M253.643,202.481h1.933v1.652h-1.933V202.481z M253.643,205.058h1.933v7.536h-1.933V205.058z"/>
	<path fill="#FFFFFF" d="M256.933,205.058h1.849v1.009h0.028c0.392-0.729,0.938-1.205,1.737-1.205c0.112,0,0.238,0.015,0.35,0.028
		v1.849c-0.196-0.014-0.406-0.027-0.602-0.027c-0.672,0-1.429,0.35-1.429,1.358v4.524h-1.933V205.058z"/>
	<path fill="#FFFFFF" d="M261.665,202.481h1.933v1.652h-1.933V202.481z M261.665,205.058h1.933v7.536h-1.933V205.058z"/>
</g>
<g enable-background="new    ">
	<path d="M303.068,240.314h2.062l0.936,6.524h0.024l3.718-6.524h2.123l-1.764,8.563h-1.438l1.487-6.86h-0.023l-3.875,6.86h-1.175
		l-1.079-6.86h-0.024l-1.308,6.86h-1.439L303.068,240.314z"/>
	<path d="M317.178,248.877h-1.283l0.192-0.899l-0.024-0.024c-0.491,0.684-1.284,1.092-2.136,1.092c-1.246,0-1.811-0.647-1.811-1.644
		c0-0.228,0.012-0.552,0.061-0.768l0.827-3.957h1.367l-0.792,3.825c-0.047,0.204-0.096,0.408-0.096,0.576
		c0,0.204-0.06,0.888,0.947,0.888c1.057,0,1.775-1.008,1.967-1.932l0.696-3.357h1.367L317.178,248.877z"/>
	<path d="M320.431,240.314h1.368l-1.775,8.563h-1.367L320.431,240.314z"/>
	<path d="M326.958,248.877h-1.283l0.191-0.899l-0.023-0.024c-0.492,0.684-1.284,1.092-2.135,1.092c-1.248,0-1.812-0.647-1.812-1.644
		c0-0.228,0.012-0.552,0.06-0.768l0.828-3.957h1.367l-0.792,3.825c-0.048,0.204-0.096,0.408-0.096,0.576
		c0,0.204-0.06,0.888,0.947,0.888c1.056,0,1.774-1.008,1.967-1.932l0.696-3.357h1.367L326.958,248.877z"/>
</g>
<g enable-background="new    ">
	<path d="M281.037,254.314h1.643l2.627,6.393h0.023l1.307-6.393h1.5l-1.775,8.563h-1.643l-2.639-6.356h-0.023l-1.296,6.356h-1.499
		L281.037,254.314z"/>
	<path d="M293.287,261.079c-0.049,0.228-0.121,0.443-0.121,0.611s0.072,0.276,0.289,0.276c0.155,0,0.323-0.061,0.479-0.072
		l-0.215,0.983c-0.348,0.084-0.708,0.168-1.068,0.168c-0.467,0-0.803-0.312-0.827-0.792c-0.54,0.54-1.331,0.792-2.087,0.792
		c-1.02,0-1.931-0.563-1.931-1.655c0-1.523,1.235-2.051,2.603-2.135c0.455-0.024,0.924-0.072,1.367-0.107
		c0.492-0.036,0.72-0.349,0.72-0.816c0-0.587-0.479-0.743-1.044-0.743c-0.743,0-1.355,0.204-1.547,0.972h-1.295
		c0.3-1.535,1.451-2.051,2.926-2.051c2.256,0,2.327,0.995,2.327,1.438c0,0.265-0.036,0.552-0.12,0.936L293.287,261.079z
		 M290.263,261.966c1.332,0,1.775-0.96,1.955-2.135l-0.023-0.024c-0.191,0.191-0.552,0.252-0.852,0.288
		c-0.768,0.06-2.171,0.048-2.171,1.079C289.172,261.774,289.76,261.966,290.263,261.966z"/>
	<path d="M296.492,254.818h1.332l-0.385,1.859h1.236l-0.217,1.019h-1.234l-0.637,3.035c-0.06,0.264-0.119,0.527-0.119,0.671
		c0,0.265,0.084,0.456,0.491,0.456c0.204,0,0.468,0,0.731-0.06l-0.228,1.007c-0.348,0.084-0.78,0.132-1.128,0.132
		c-0.982,0-1.234-0.575-1.234-1.151c0-0.239,0.06-0.587,0.084-0.695l0.707-3.395h-1.079l0.216-1.019h1.079L296.492,254.818z"/>
	<path d="M299.72,256.677h1.367l-1.283,6.2h-1.367L299.72,256.677z M300.212,254.314h1.354l-0.264,1.296h-1.355L300.212,254.314z"/>
	<path d="M301.617,260.334c0-2.038,1.403-3.825,3.538-3.825c1.703,0,2.71,0.936,2.71,2.662c0,2.171-1.331,3.874-3.537,3.874
		C302.625,263.045,301.617,262.062,301.617,260.334z M302.984,260.371c0,0.912,0.432,1.596,1.428,1.596
		c1.402,0,2.086-1.523,2.086-2.783c0-0.911-0.432-1.595-1.427-1.595C303.667,257.588,302.984,259.135,302.984,260.371z"/>
	<path d="M309.728,256.677h1.283l-0.191,0.899l0.023,0.023c0.492-0.684,1.283-1.091,2.135-1.091c1.247,0,1.811,0.647,1.811,1.643
		c0,0.229-0.012,0.552-0.06,0.768l-0.827,3.958h-1.367l0.791-3.826c0.048-0.203,0.096-0.407,0.096-0.575
		c0-0.204,0.049-0.888-0.947-0.888c-0.539,0-0.959,0.264-1.295,0.6c-0.312,0.324-0.564,0.827-0.672,1.331l-0.695,3.358h-1.367
		L309.728,256.677z"/>
	<path d="M320.849,261.079c-0.047,0.228-0.119,0.443-0.119,0.611s0.072,0.276,0.287,0.276c0.156,0,0.324-0.061,0.48-0.072
		l-0.217,0.983c-0.348,0.084-0.707,0.168-1.066,0.168c-0.469,0-0.805-0.312-0.828-0.792c-0.539,0.54-1.331,0.792-2.086,0.792
		c-1.02,0-1.932-0.563-1.932-1.655c0-1.523,1.235-2.051,2.603-2.135c0.456-0.024,0.923-0.072,1.367-0.107
		c0.491-0.036,0.72-0.349,0.72-0.816c0-0.587-0.48-0.743-1.043-0.743c-0.744,0-1.355,0.204-1.548,0.972h-1.295
		c0.3-1.535,1.451-2.051,2.927-2.051c2.254,0,2.326,0.995,2.326,1.438c0,0.265-0.036,0.552-0.12,0.936L320.849,261.079z
		 M317.828,261.966c1.331,0,1.775-0.96,1.955-2.135l-0.024-0.024c-0.192,0.191-0.552,0.252-0.852,0.288
		c-0.768,0.06-2.171,0.048-2.171,1.079C316.736,261.774,317.324,261.966,317.828,261.966z"/>
	<path d="M323.779,254.314h1.368l-1.775,8.563h-1.367L323.779,254.314z"/>
	<path d="M326.205,256.677h1.354l-0.18,0.791l0.024,0.024c0.432-0.624,1.188-0.983,1.955-0.983c1.547,0,2.35,1.091,2.35,2.566
		c0,1.895-1.031,3.97-3.178,3.97c-0.9,0-1.643-0.252-2.027-1.127h-0.023l-0.672,3.25h-1.367L326.205,256.677z M328.218,261.966
		c1.476,0,2.123-1.464,2.123-2.759c0-0.899-0.42-1.619-1.367-1.619c-1.475,0-2.123,1.487-2.123,2.782
		C326.851,261.258,327.248,261.966,328.218,261.966z"/>
	<path d="M337.746,261.079c-0.049,0.228-0.121,0.443-0.121,0.611s0.072,0.276,0.289,0.276c0.155,0,0.323-0.061,0.479-0.072
		l-0.215,0.983c-0.348,0.084-0.708,0.168-1.068,0.168c-0.467,0-0.803-0.312-0.827-0.792c-0.54,0.54-1.331,0.792-2.087,0.792
		c-1.02,0-1.931-0.563-1.931-1.655c0-1.523,1.235-2.051,2.603-2.135c0.455-0.024,0.924-0.072,1.367-0.107
		c0.492-0.036,0.72-0.349,0.72-0.816c0-0.587-0.479-0.743-1.044-0.743c-0.743,0-1.355,0.204-1.547,0.972h-1.295
		c0.3-1.535,1.451-2.051,2.926-2.051c2.256,0,2.327,0.995,2.327,1.438c0,0.265-0.036,0.552-0.12,0.936L337.746,261.079z
		 M334.722,261.966c1.332,0,1.775-0.96,1.955-2.135l-0.023-0.024c-0.191,0.191-0.552,0.252-0.852,0.288
		c-0.768,0.06-2.171,0.048-2.171,1.079C333.631,261.774,334.219,261.966,334.722,261.966z"/>
	<path d="M340.183,256.677h1.296l-0.252,1.211l0.024,0.024c0.371-0.684,1.139-1.403,1.979-1.403c0.216,0,0.443,0,0.66,0.036
		l-0.288,1.307c-0.156-0.023-0.323-0.048-0.479-0.048c-1.416,0-2.016,1.079-2.279,2.327l-0.576,2.746H338.9L340.183,256.677z"/>
	<path d="M345.115,254.314h1.368l-1.008,4.846l0.024,0.023l2.807-2.506h1.727l-2.734,2.278l1.512,3.922h-1.512l-1.092-3.011
		l-1.055,0.899l-0.444,2.111h-1.367L345.115,254.314z"/>
</g>
<path d="M273.251,204.144c0-2.35,1.905-4.251,4.252-4.251c2.35,0,4.252,1.902,4.252,4.251s-1.902,4.251-4.252,4.251
	C275.158,208.395,273.251,206.494,273.251,204.144L273.251,204.144z"/>
<path d="M316.059,228.992c0-2.35,1.904-4.251,4.252-4.251c2.35,0,4.252,1.902,4.252,4.251c0,2.349-1.902,4.251-4.252,4.251
	C317.963,233.243,316.059,231.341,316.059,228.992L316.059,228.992z"/>
<g enable-background="new    ">
	<path fill="#FFFFFF" d="M300.74,115.11v4.006h0.028l2.55-4.006h2.185l-2.718,4.286l3.025,5.715h-2.269l-2.059-4.104l-0.743,1.135
		v2.97h-2.017V115.11H300.74z"/>
	<path fill="#FFFFFF" d="M308.902,117.379c2.325-0.042,2.97,1.345,2.97,3.965c0,2.577-0.757,3.964-2.97,3.964
		c-2.325,0.042-2.97-1.345-2.97-3.964C305.932,118.766,306.689,117.379,308.902,117.379z M308.902,123.99
		c0.785,0,1.037-0.77,1.037-2.646c0-1.878-0.252-2.647-1.037-2.647c-0.953,0-1.037,1.106-1.037,2.647
		C307.865,122.884,307.949,123.99,308.902,123.99z"/>
	<path fill="#FFFFFF" d="M313.325,115.418h1.933v2.157h1.121v1.316h-1.121v4.076c0,0.589,0.127,0.827,0.688,0.827
		c0.153,0,0.308-0.015,0.434-0.028v1.345c-0.42,0.042-0.812,0.084-1.261,0.084c-1.513,0-1.793-0.462-1.793-1.989v-4.314h-0.98
		v-1.316h0.98V115.418z"/>
	<path fill="#FFFFFF" d="M317.035,119.887v-0.183c0-1.736,1.19-2.325,2.647-2.325c2.298,0,2.731,0.953,2.731,2.312v3.964
		c0,0.7,0.042,1.022,0.238,1.457h-1.85c-0.125-0.238-0.182-0.532-0.238-0.784h-0.027c-0.448,0.784-0.994,0.98-1.919,0.98
		c-1.345,0-1.821-1.148-1.821-2.157c0-1.415,0.574-1.989,1.905-2.354l1.093-0.294c0.574-0.154,0.77-0.378,0.77-0.883
		c0-0.574-0.252-0.924-0.896-0.924c-0.588,0-0.896,0.392-0.896,0.98v0.21H317.035z M320.564,121.344
		c-0.266,0.195-0.588,0.321-0.826,0.378c-0.784,0.168-1.092,0.546-1.092,1.219c0,0.574,0.209,1.05,0.729,1.05
		c0.518,0,1.189-0.336,1.189-1.162V121.344z"/>
	<path fill="#FFFFFF" d="M329.214,115.11v4.006h0.029l2.549-4.006h2.186l-2.718,4.286l3.025,5.715h-2.269l-2.06-4.104l-0.743,1.135
		v2.97h-2.017V115.11H329.214z"/>
	<path fill="#FFFFFF" d="M334.73,114.998h1.934v1.652h-1.934V114.998z M334.73,117.575h1.934v7.536h-1.934V117.575z"/>
	<path fill="#FFFFFF" d="M338.02,117.575h1.849v0.883h0.028c0.406-0.743,1.106-1.079,1.919-1.079c1.205,0,1.919,0.658,1.919,2.144
		v5.589h-1.933v-5.197c0-0.756-0.252-1.05-0.826-1.05c-0.659,0-1.023,0.406-1.023,1.246v5.001h-1.933V117.575z"/>
	<path fill="#FFFFFF" d="M345.005,119.887v-0.183c0-1.736,1.191-2.325,2.648-2.325c2.297,0,2.73,0.953,2.73,2.312v3.964
		c0,0.7,0.043,1.022,0.238,1.457h-1.849c-0.126-0.238-0.183-0.532-0.238-0.784h-0.028c-0.447,0.784-0.994,0.98-1.918,0.98
		c-1.346,0-1.822-1.148-1.822-2.157c0-1.415,0.574-1.989,1.906-2.354l1.092-0.294c0.574-0.154,0.771-0.378,0.771-0.883
		c0-0.574-0.252-0.924-0.896-0.924c-0.589,0-0.896,0.392-0.896,0.98v0.21H345.005z M348.536,121.344
		c-0.267,0.195-0.589,0.321-0.826,0.378c-0.784,0.168-1.093,0.546-1.093,1.219c0,0.574,0.21,1.05,0.729,1.05
		c0.518,0,1.19-0.336,1.19-1.162V121.344z"/>
	<path fill="#FFFFFF" d="M351.753,115.11h1.934v3.165h0.027c0.406-0.603,0.896-0.896,1.625-0.896c1.583,0,2.312,1.163,2.312,3.965
		c0,2.801-0.729,3.964-2.312,3.964c-0.756,0-1.289-0.294-1.709-0.995h-0.027v0.799h-1.85V115.11z M354.709,123.822
		c0.841,0,1.009-0.84,1.009-2.479c0-1.64-0.168-2.479-1.009-2.479c-0.854,0-1.022,0.84-1.022,2.479
		C353.687,122.982,353.855,123.822,354.709,123.822z"/>
	<path fill="#FFFFFF" d="M358.74,119.887v-0.183c0-1.736,1.19-2.325,2.647-2.325c2.298,0,2.731,0.953,2.731,2.312v3.964
		c0,0.7,0.042,1.022,0.238,1.457h-1.85c-0.125-0.238-0.182-0.532-0.238-0.784h-0.027c-0.448,0.784-0.994,0.98-1.919,0.98
		c-1.345,0-1.821-1.148-1.821-2.157c0-1.415,0.574-1.989,1.905-2.354l1.093-0.294c0.574-0.154,0.77-0.378,0.77-0.883
		c0-0.574-0.252-0.924-0.896-0.924c-0.588,0-0.896,0.392-0.896,0.98v0.21H358.74z M362.269,121.344
		c-0.266,0.195-0.588,0.321-0.826,0.378c-0.784,0.168-1.092,0.546-1.092,1.219c0,0.574,0.209,1.05,0.729,1.05
		c0.518,0,1.189-0.336,1.189-1.162V121.344z"/>
	<path fill="#FFFFFF" d="M365.558,115.11h1.933v10.001h-1.933V115.11z"/>
	<path fill="#FFFFFF" d="M372.713,124.229h-0.028c-0.406,0.743-1.105,1.079-1.918,1.079c-1.205,0-1.92-0.658-1.92-2.144v-5.589
		h1.934v5.197c0,0.756,0.252,1.05,0.826,1.05c0.658,0,1.022-0.406,1.022-1.246v-5.001h1.933v7.536h-1.849V124.229z"/>
</g>
<g enable-background="new    ">
	<path d="M401.69,129.488h1.498l-0.803,3.886l0.023,0.024l4.365-3.91h2.004l-4.114,3.538l2.687,5.025h-1.703l-2.146-4.09
		l-1.512,1.295l-0.575,2.795h-1.499L401.69,129.488z"/>
	<path d="M409.261,131.852h1.368l-1.284,6.2h-1.367L409.261,131.852z M409.752,129.488h1.355l-0.264,1.296h-1.355L409.752,129.488z"
		/>
	<path d="M412.153,131.852h1.284l-0.192,0.899l0.024,0.023c0.491-0.684,1.283-1.091,2.135-1.091c1.247,0,1.812,0.647,1.812,1.643
		c0,0.229-0.013,0.552-0.061,0.768l-0.828,3.958h-1.367l0.792-3.826c0.048-0.203,0.097-0.407,0.097-0.575
		c0-0.204,0.047-0.888-0.948-0.888c-0.54,0-0.96,0.264-1.296,0.6c-0.311,0.324-0.562,0.827-0.671,1.331l-0.696,3.358h-1.367
		L412.153,131.852z"/>
	<path d="M423.276,136.253c-0.049,0.228-0.121,0.443-0.121,0.611s0.072,0.276,0.289,0.276c0.155,0,0.323-0.061,0.479-0.072
		l-0.215,0.983c-0.348,0.084-0.708,0.168-1.068,0.168c-0.467,0-0.803-0.312-0.827-0.792c-0.54,0.54-1.331,0.792-2.087,0.792
		c-1.02,0-1.931-0.563-1.931-1.655c0-1.523,1.235-2.051,2.603-2.135c0.455-0.024,0.924-0.072,1.367-0.107
		c0.492-0.036,0.72-0.349,0.72-0.816c0-0.587-0.479-0.743-1.044-0.743c-0.743,0-1.355,0.204-1.547,0.972h-1.295
		c0.3-1.535,1.451-2.051,2.926-2.051c2.256,0,2.327,0.995,2.327,1.438c0,0.265-0.036,0.552-0.12,0.936L423.276,136.253z
		 M420.252,137.141c1.332,0,1.775-0.96,1.955-2.135l-0.023-0.024c-0.191,0.191-0.552,0.252-0.852,0.288
		c-0.768,0.06-2.171,0.048-2.171,1.079C419.162,136.948,419.75,137.141,420.252,137.141z"/>
	<path d="M426.206,129.488h1.367l-0.636,3.07l0.024,0.024c0.467-0.6,1.104-0.899,1.883-0.899c1.475,0,2.338,1.079,2.338,2.555
		c0,1.942-1.104,3.981-3.25,3.981c-0.959,0-1.643-0.324-2.051-1.211h-0.023l-0.18,1.043h-1.248L426.206,129.488z M426.313,135.581
		c0,0.947,0.443,1.56,1.451,1.56c1.367,0,2.051-1.56,2.051-2.807c0-0.947-0.443-1.571-1.451-1.571
		C426.997,132.763,426.313,134.334,426.313,135.581z"/>
	<path d="M437.28,136.253c-0.049,0.228-0.121,0.443-0.121,0.611s0.072,0.276,0.289,0.276c0.155,0,0.323-0.061,0.479-0.072
		l-0.215,0.983c-0.348,0.084-0.708,0.168-1.068,0.168c-0.467,0-0.803-0.312-0.827-0.792c-0.54,0.54-1.331,0.792-2.087,0.792
		c-1.02,0-1.931-0.563-1.931-1.655c0-1.523,1.235-2.051,2.603-2.135c0.455-0.024,0.924-0.072,1.367-0.107
		c0.492-0.036,0.72-0.349,0.72-0.816c0-0.587-0.479-0.743-1.044-0.743c-0.743,0-1.355,0.204-1.547,0.972h-1.295
		c0.3-1.535,1.451-2.051,2.926-2.051c2.256,0,2.327,0.995,2.327,1.438c0,0.265-0.036,0.552-0.12,0.936L437.28,136.253z
		 M434.256,137.141c1.332,0,1.775-0.96,1.955-2.135l-0.023-0.024c-0.191,0.191-0.552,0.252-0.852,0.288
		c-0.768,0.06-2.171,0.048-2.171,1.079C433.166,136.948,433.753,137.141,434.256,137.141z"/>
	<path d="M440.209,129.488h1.367l-1.775,8.563h-1.367L440.209,129.488z"/>
	<path d="M446.735,138.052h-1.283l0.192-0.899l-0.024-0.024c-0.491,0.684-1.283,1.092-2.135,1.092c-1.247,0-1.811-0.647-1.811-1.644
		c0-0.228,0.012-0.552,0.06-0.768l0.827-3.957h1.367l-0.791,3.825c-0.048,0.204-0.096,0.408-0.096,0.576
		c0,0.204-0.061,0.888,0.947,0.888c1.056,0,1.775-1.008,1.967-1.932l0.695-3.357h1.367L446.735,138.052z"/>
</g>
<g enable-background="new    ">
	<path d="M391.454,143.488h1.643l2.627,6.393h0.023l1.308-6.393h1.499l-1.774,8.563h-1.644l-2.639-6.356h-0.023l-1.295,6.356h-1.5
		L391.454,143.488z"/>
	<path d="M403.704,150.253c-0.048,0.228-0.12,0.443-0.12,0.611s0.072,0.276,0.288,0.276c0.156,0,0.324-0.061,0.479-0.072
		l-0.216,0.983c-0.348,0.084-0.707,0.168-1.067,0.168c-0.468,0-0.804-0.312-0.827-0.792c-0.54,0.54-1.332,0.792-2.087,0.792
		c-1.02,0-1.931-0.563-1.931-1.655c0-1.523,1.234-2.051,2.602-2.135c0.456-0.024,0.924-0.072,1.367-0.107
		c0.492-0.036,0.721-0.349,0.721-0.816c0-0.587-0.48-0.743-1.044-0.743c-0.743,0-1.355,0.204-1.548,0.972h-1.295
		c0.301-1.535,1.451-2.051,2.927-2.051c2.255,0,2.327,0.995,2.327,1.438c0,0.265-0.037,0.552-0.121,0.936L403.704,150.253z
		 M400.681,151.141c1.331,0,1.775-0.96,1.955-2.135l-0.024-0.024c-0.191,0.191-0.551,0.252-0.852,0.288
		c-0.768,0.06-2.17,0.048-2.17,1.079C399.59,150.948,400.178,151.141,400.681,151.141z"/>
	<path d="M406.909,143.992h1.332l-0.384,1.859h1.235l-0.216,1.019h-1.235l-0.636,3.035c-0.06,0.264-0.12,0.527-0.12,0.671
		c0,0.265,0.084,0.456,0.492,0.456c0.203,0,0.467,0,0.731-0.06l-0.228,1.007c-0.348,0.084-0.78,0.132-1.128,0.132
		c-0.983,0-1.235-0.575-1.235-1.151c0-0.239,0.061-0.587,0.084-0.695l0.707-3.395h-1.078l0.215-1.019h1.08L406.909,143.992z"/>
	<path d="M410.137,145.852h1.367l-1.283,6.2h-1.367L410.137,145.852z M410.629,143.488h1.355l-0.264,1.296h-1.355L410.629,143.488z"
		/>
	<path d="M412.034,149.509c0-2.038,1.404-3.825,3.539-3.825c1.703,0,2.71,0.936,2.71,2.662c0,2.171-1.331,3.874-3.538,3.874
		C413.042,152.22,412.034,151.236,412.034,149.509z M413.401,149.545c0,0.912,0.432,1.596,1.428,1.596
		c1.403,0,2.087-1.523,2.087-2.783c0-0.911-0.433-1.595-1.427-1.595C414.084,146.763,413.401,148.31,413.401,149.545z"/>
	<path d="M420.145,145.852h1.283l-0.191,0.899l0.023,0.023c0.492-0.684,1.283-1.091,2.135-1.091c1.248,0,1.812,0.647,1.812,1.643
		c0,0.229-0.013,0.552-0.06,0.768l-0.828,3.958h-1.367l0.791-3.826c0.049-0.203,0.097-0.407,0.097-0.575
		c0-0.204,0.048-0.888-0.948-0.888c-0.539,0-0.959,0.264-1.295,0.6c-0.312,0.324-0.563,0.827-0.672,1.331l-0.695,3.358h-1.367
		L420.145,145.852z"/>
	<path d="M431.267,150.253c-0.048,0.228-0.12,0.443-0.12,0.611s0.072,0.276,0.288,0.276c0.155,0,0.323-0.061,0.479-0.072
		l-0.216,0.983c-0.348,0.084-0.708,0.168-1.067,0.168c-0.468,0-0.804-0.312-0.828-0.792c-0.539,0.54-1.33,0.792-2.086,0.792
		c-1.02,0-1.932-0.563-1.932-1.655c0-1.523,1.236-2.051,2.604-2.135c0.455-0.024,0.923-0.072,1.367-0.107
		c0.491-0.036,0.719-0.349,0.719-0.816c0-0.587-0.479-0.743-1.043-0.743c-0.744,0-1.355,0.204-1.547,0.972h-1.295
		c0.299-1.535,1.451-2.051,2.926-2.051c2.255,0,2.326,0.995,2.326,1.438c0,0.265-0.035,0.552-0.119,0.936L431.267,150.253z
		 M428.245,151.141c1.332,0,1.775-0.96,1.955-2.135l-0.023-0.024c-0.192,0.191-0.553,0.252-0.852,0.288
		c-0.768,0.06-2.172,0.048-2.172,1.079C427.153,150.948,427.741,151.141,428.245,151.141z"/>
	<path d="M434.197,143.488h1.368l-1.775,8.563h-1.367L434.197,143.488z"/>
	<path d="M436.622,145.852h1.355l-0.18,0.791l0.023,0.024c0.432-0.624,1.188-0.983,1.955-0.983c1.547,0,2.351,1.091,2.351,2.566
		c0,1.895-1.032,3.97-3.179,3.97c-0.899,0-1.643-0.252-2.026-1.127h-0.024l-0.672,3.25h-1.367L436.622,145.852z M438.636,151.141
		c1.476,0,2.123-1.464,2.123-2.759c0-0.899-0.42-1.619-1.367-1.619c-1.476,0-2.123,1.487-2.123,2.782
		C437.269,150.433,437.665,151.141,438.636,151.141z"/>
	<path d="M448.163,150.253c-0.048,0.228-0.12,0.443-0.12,0.611s0.072,0.276,0.288,0.276c0.156,0,0.324-0.061,0.479-0.072
		l-0.216,0.983c-0.348,0.084-0.707,0.168-1.067,0.168c-0.468,0-0.804-0.312-0.827-0.792c-0.54,0.54-1.332,0.792-2.087,0.792
		c-1.02,0-1.931-0.563-1.931-1.655c0-1.523,1.234-2.051,2.602-2.135c0.456-0.024,0.924-0.072,1.367-0.107
		c0.492-0.036,0.721-0.349,0.721-0.816c0-0.587-0.48-0.743-1.044-0.743c-0.743,0-1.355,0.204-1.548,0.972h-1.295
		c0.301-1.535,1.451-2.051,2.927-2.051c2.255,0,2.327,0.995,2.327,1.438c0,0.265-0.037,0.552-0.121,0.936L448.163,150.253z
		 M445.14,151.141c1.331,0,1.775-0.96,1.955-2.135l-0.024-0.024c-0.191,0.191-0.551,0.252-0.852,0.288
		c-0.768,0.06-2.17,0.048-2.17,1.079C444.049,150.948,444.637,151.141,445.14,151.141z"/>
	<path d="M450.601,145.852h1.296l-0.252,1.211l0.023,0.024c0.372-0.684,1.14-1.403,1.979-1.403c0.217,0,0.444,0,0.66,0.036
		l-0.287,1.307c-0.156-0.023-0.324-0.048-0.48-0.048c-1.415,0-2.015,1.079-2.279,2.327l-0.575,2.746h-1.367L450.601,145.852z"/>
	<path d="M455.533,143.488h1.368l-1.008,4.846l0.023,0.023l2.807-2.506h1.727l-2.734,2.278l1.512,3.922h-1.512l-1.091-3.011
		l-1.056,0.899l-0.443,2.111h-1.367L455.533,143.488z"/>
</g>
<path d="M379.739,125.148c0-2.35,1.905-4.251,4.253-4.251c2.35,0,4.252,1.901,4.252,4.251s-1.902,4.251-4.252,4.251
	C381.645,129.4,379.739,127.498,379.739,125.148L379.739,125.148z"/>
<path d="M419.424,116c0-2.35,1.904-4.252,4.252-4.252c2.352,0,4.254,1.902,4.254,4.252s-1.902,4.252-4.254,4.252
	C421.329,120.251,419.424,118.35,419.424,116L419.424,116z"/>
<g enable-background="new    ">
	<path fill="#010102" d="M234.994,332.737c-0.06,1.331,0.72,1.811,1.967,1.811c0.815,0,1.907-0.372,1.907-1.367
		c0-0.972-0.995-1.211-2.051-1.499c-0.755-0.204-2.338-0.588-2.338-2.219c0-1.547,1.163-2.663,3.19-2.663
		c1.787,0,3.238,0.72,3.167,2.735h-1.439c-0.012-1.067-0.587-1.512-1.751-1.512c-0.408,0-1.667,0.12-1.667,1.26
		c0,0.839,0.839,1.043,1.787,1.283c1.211,0.312,2.603,0.636,2.603,2.435c0,1.331-0.972,2.771-3.562,2.771
		c-2.015,0-3.311-0.899-3.25-3.034H234.994z"/>
	<path fill="#010102" d="M247.543,333.769c-0.048,0.228-0.12,0.443-0.12,0.611s0.072,0.276,0.288,0.276
		c0.156,0,0.324-0.061,0.479-0.072l-0.216,0.983c-0.348,0.084-0.708,0.168-1.067,0.168c-0.468,0-0.803-0.312-0.828-0.792
		c-0.54,0.54-1.331,0.792-2.087,0.792c-1.019,0-1.931-0.563-1.931-1.655c0-1.523,1.235-2.051,2.603-2.135
		c0.456-0.024,0.923-0.072,1.367-0.107c0.492-0.036,0.72-0.349,0.72-0.816c0-0.587-0.48-0.743-1.043-0.743
		c-0.744,0-1.355,0.204-1.547,0.972h-1.295c0.3-1.535,1.451-2.051,2.926-2.051c2.255,0,2.327,0.995,2.327,1.438
		c0,0.265-0.036,0.552-0.12,0.936L247.543,333.769z M244.521,334.656c1.332,0,1.775-0.96,1.955-2.135l-0.024-0.024
		c-0.192,0.191-0.552,0.252-0.852,0.288c-0.768,0.06-2.171,0.048-2.171,1.079C243.43,334.464,244.018,334.656,244.521,334.656z"/>
	<path fill="#010102" d="M250.978,329.367h1.295l-0.252,1.211l0.024,0.024c0.372-0.684,1.14-1.403,1.979-1.403
		c0.216,0,0.444,0,0.66,0.036l-0.288,1.307c-0.156-0.023-0.324-0.048-0.48-0.048c-1.415,0-2.015,1.079-2.279,2.327l-0.576,2.746
		h-1.367L250.978,329.367z"/>
	<path fill="#010102" d="M260.647,333.769c-0.048,0.228-0.12,0.443-0.12,0.611s0.072,0.276,0.288,0.276
		c0.156,0,0.324-0.061,0.479-0.072l-0.216,0.983c-0.348,0.084-0.708,0.168-1.067,0.168c-0.468,0-0.804-0.312-0.828-0.792
		c-0.54,0.54-1.331,0.792-2.086,0.792c-1.02,0-1.931-0.563-1.931-1.655c0-1.523,1.235-2.051,2.603-2.135
		c0.456-0.024,0.923-0.072,1.367-0.107c0.492-0.036,0.72-0.349,0.72-0.816c0-0.587-0.48-0.743-1.043-0.743
		c-0.744,0-1.355,0.204-1.547,0.972h-1.295c0.3-1.535,1.451-2.051,2.926-2.051c2.255,0,2.327,0.995,2.327,1.438
		c0,0.265-0.036,0.552-0.12,0.936L260.647,333.769z M257.625,334.656c1.332,0,1.775-0.96,1.955-2.135l-0.024-0.024
		c-0.192,0.191-0.552,0.252-0.852,0.288c-0.768,0.06-2.171,0.048-2.171,1.079C256.534,334.464,257.122,334.656,257.625,334.656z"/>
	<path fill="#010102" d="M263.29,329.367h1.403l0.372,4.474h0.024l2.062-4.474h1.427l0.264,4.474h0.036l2.147-4.474h1.439
		l-3.227,6.2H267.8l-0.264-4.521h-0.024l-2.062,4.521h-1.427L263.29,329.367z"/>
	<path fill="#010102" d="M278.647,333.769c-0.047,0.228-0.119,0.443-0.119,0.611s0.072,0.276,0.287,0.276
		c0.156,0,0.324-0.061,0.48-0.072l-0.217,0.983c-0.348,0.084-0.707,0.168-1.066,0.168c-0.468,0-0.804-0.312-0.828-0.792
		c-0.54,0.54-1.331,0.792-2.086,0.792c-1.02,0-1.931-0.563-1.931-1.655c0-1.523,1.235-2.051,2.603-2.135
		c0.456-0.024,0.923-0.072,1.367-0.107c0.492-0.036,0.72-0.349,0.72-0.816c0-0.587-0.48-0.743-1.043-0.743
		c-0.744,0-1.355,0.204-1.547,0.972h-1.295c0.3-1.535,1.451-2.051,2.926-2.051c2.254,0,2.327,0.995,2.327,1.438
		c0,0.265-0.036,0.552-0.12,0.936L278.647,333.769z M275.625,334.656c1.332,0,1.775-0.96,1.955-2.135l-0.024-0.024
		c-0.192,0.191-0.552,0.252-0.852,0.288c-0.768,0.06-2.171,0.048-2.171,1.079C274.534,334.464,275.122,334.656,275.625,334.656z"/>
	<path fill="#010102" d="M282.573,327.004h1.368l-1.008,4.846l0.024,0.023l2.807-2.506h1.727l-2.734,2.278l1.512,3.922h-1.512
		l-1.092-3.011l-1.055,0.899l-0.444,2.111h-1.367L282.573,327.004z"/>
</g>
<g enable-background="new    ">
	<path fill="#FFFFFF" d="M232.748,167.084h4.707c1.905,0,3.194,0.616,3.194,2.479c0,0.98-0.49,1.667-1.359,2.088
		c1.219,0.35,1.835,1.288,1.835,2.535c0,2.031-1.723,2.899-3.53,2.899h-4.847V167.084z M234.947,171.132h2.228
		c0.77,0,1.345-0.351,1.345-1.19c0-0.953-0.729-1.149-1.513-1.149h-2.059V171.132z M234.947,175.376h2.354
		c0.869,0,1.625-0.28,1.625-1.316c0-1.022-0.645-1.429-1.583-1.429h-2.396V175.376z"/>
	<path fill="#FFFFFF" d="M244.381,169.843h1.891v1.345h0.028c0.364-0.91,1.345-1.541,2.312-1.541c0.14,0,0.308,0.028,0.434,0.07
		v1.85c-0.182-0.042-0.476-0.07-0.714-0.07c-1.457,0-1.961,1.051-1.961,2.325v3.264h-1.989V169.843z"/>
	<path fill="#FFFFFF" d="M258.609,177.085h-1.891v-1.009h-0.042c-0.504,0.812-1.373,1.205-2.213,1.205
		c-2.115,0-2.647-1.19-2.647-2.983v-4.455h1.989v4.091c0,1.19,0.35,1.778,1.274,1.778c1.079,0,1.541-0.602,1.541-2.073v-3.796h1.989
		V177.085z"/>
	<path fill="#FFFFFF" d="M262.105,169.843h1.891v1.009h0.042c0.504-0.812,1.373-1.205,2.213-1.205c2.115,0,2.647,1.191,2.647,2.984
		v4.454h-1.989v-4.09c0-1.191-0.35-1.779-1.275-1.779c-1.079,0-1.541,0.603-1.541,2.073v3.796h-1.989V169.843z"/>
	<path fill="#FFFFFF" d="M274.034,173.947c0.056,1.261,0.672,1.835,1.779,1.835c0.798,0,1.443-0.49,1.569-0.938h1.751
		c-0.561,1.709-1.751,2.438-3.391,2.438c-2.283,0-3.698-1.569-3.698-3.811c0-2.171,1.499-3.824,3.698-3.824
		c2.465,0,3.656,2.073,3.516,4.301H274.034z M277.27,172.687c-0.182-1.009-0.616-1.541-1.583-1.541c-1.261,0-1.625,0.98-1.653,1.541
		H277.27z"/>
	<path fill="#FFFFFF" d="M284.463,168.723h-1.988v-1.639h1.988V168.723z M282.475,169.843h1.988v7.242h-1.988V169.843z"/>
</g>
<g enable-background="new    ">
	<path fill="#010102" d="M393.086,180.737c-0.061,1.331,0.72,1.811,1.967,1.811c0.815,0,1.906-0.372,1.906-1.367
		c0-0.972-0.994-1.211-2.051-1.499c-0.755-0.204-2.338-0.588-2.338-2.219c0-1.547,1.163-2.663,3.189-2.663
		c1.787,0,3.238,0.72,3.167,2.735h-1.439c-0.012-1.067-0.587-1.512-1.751-1.512c-0.408,0-1.667,0.12-1.667,1.26
		c0,0.839,0.839,1.043,1.787,1.283c1.212,0.312,2.603,0.636,2.603,2.435c0,1.331-0.972,2.771-3.562,2.771
		c-2.015,0-3.311-0.899-3.25-3.034H393.086z"/>
	<path fill="#010102" d="M405.636,181.769c-0.048,0.228-0.12,0.443-0.12,0.611s0.072,0.276,0.288,0.276
		c0.155,0,0.323-0.061,0.479-0.072l-0.216,0.983c-0.348,0.084-0.708,0.168-1.067,0.168c-0.468,0-0.803-0.312-0.828-0.792
		c-0.539,0.54-1.33,0.792-2.086,0.792c-1.02,0-1.932-0.563-1.932-1.655c0-1.523,1.236-2.051,2.604-2.135
		c0.455-0.024,0.923-0.072,1.367-0.107c0.491-0.036,0.719-0.349,0.719-0.816c0-0.587-0.479-0.743-1.043-0.743
		c-0.744,0-1.355,0.204-1.547,0.972h-1.295c0.299-1.535,1.451-2.051,2.926-2.051c2.255,0,2.326,0.995,2.326,1.438
		c0,0.265-0.035,0.552-0.119,0.936L405.636,181.769z M402.614,182.656c1.332,0,1.775-0.96,1.955-2.135l-0.023-0.024
		c-0.192,0.191-0.553,0.252-0.852,0.288c-0.768,0.06-2.172,0.048-2.172,1.079C401.522,182.464,402.11,182.656,402.614,182.656z"/>
	<path fill="#010102" d="M409.563,175.004h1.367l-0.637,3.07l0.024,0.024c0.468-0.6,1.104-0.899,1.883-0.899
		c1.476,0,2.339,1.079,2.339,2.555c0,1.942-1.104,3.981-3.25,3.981c-0.959,0-1.644-0.324-2.051-1.211h-0.024l-0.18,1.043h-1.247
		L409.563,175.004z M409.67,181.097c0,0.947,0.443,1.56,1.451,1.56c1.367,0,2.051-1.56,2.051-2.807c0-0.947-0.443-1.571-1.451-1.571
		C410.354,178.278,409.67,179.85,409.67,181.097z"/>
	<path fill="#010102" d="M421.632,181.769c-0.048,0.228-0.12,0.443-0.12,0.611s0.072,0.276,0.288,0.276
		c0.155,0,0.323-0.061,0.479-0.072l-0.216,0.983c-0.348,0.084-0.708,0.168-1.067,0.168c-0.468,0-0.803-0.312-0.828-0.792
		c-0.539,0.54-1.33,0.792-2.086,0.792c-1.02,0-1.932-0.563-1.932-1.655c0-1.523,1.236-2.051,2.604-2.135
		c0.455-0.024,0.923-0.072,1.367-0.107c0.491-0.036,0.719-0.349,0.719-0.816c0-0.587-0.479-0.743-1.043-0.743
		c-0.744,0-1.355,0.204-1.547,0.972h-1.295c0.299-1.535,1.451-2.051,2.926-2.051c2.255,0,2.326,0.995,2.326,1.438
		c0,0.265-0.035,0.552-0.119,0.936L421.632,181.769z M418.61,182.656c1.332,0,1.775-0.96,1.955-2.135l-0.023-0.024
		c-0.192,0.191-0.553,0.252-0.852,0.288c-0.768,0.06-2.172,0.048-2.172,1.079C417.518,182.464,418.106,182.656,418.61,182.656z"/>
	<path fill="#010102" d="M425.559,175.004h1.367l-0.672,3.238h0.023c0.468-0.624,1.26-1.043,2.039-1.043
		c1.247,0,1.811,0.647,1.811,1.643c0,0.229-0.012,0.552-0.06,0.768l-0.827,3.958h-1.367l0.791-3.826
		c0.048-0.203,0.096-0.407,0.096-0.575c0-0.204,0.049-0.888-0.947-0.888c-0.539,0-0.959,0.264-1.295,0.6
		c-0.312,0.324-0.564,0.827-0.672,1.331l-0.695,3.358h-1.367L425.559,175.004z"/>
</g>
<g enable-background="new    ">
	<path fill="#FFFFFF" d="M69.67,347.465h3.694c2.267,0,2.507,1.38,2.507,2.003c0,1.008-0.636,1.871-1.643,2.039v0.024
		c0.875,0.264,1.283,0.899,1.283,1.799c0,0.888-0.564,2.698-3.214,2.698h-4.401L69.67,347.465z M69.646,354.805h2.146
		c0.504,0,2.087,0.072,2.219-1.331c0.048-0.407,0-1.343-1.535-1.343H70.21L69.646,354.805z M70.426,351.051h2.243
		c1.487,0,1.703-0.888,1.703-1.343c0-0.348-0.096-1.02-1.319-1.02h-2.135L70.426,351.051z"/>
	<path fill="#FFFFFF" d="M81.704,354.229c-0.048,0.228-0.12,0.443-0.12,0.611s0.072,0.276,0.288,0.276
		c0.156,0,0.324-0.061,0.479-0.072l-0.216,0.983c-0.348,0.084-0.708,0.168-1.067,0.168c-0.468,0-0.803-0.312-0.828-0.792
		c-0.54,0.54-1.331,0.792-2.087,0.792c-1.019,0-1.931-0.563-1.931-1.655c0-1.523,1.235-2.051,2.603-2.135
		c0.456-0.024,0.923-0.072,1.367-0.107c0.492-0.036,0.72-0.349,0.72-0.816c0-0.587-0.48-0.743-1.043-0.743
		c-0.744,0-1.355,0.204-1.547,0.972h-1.295c0.3-1.535,1.451-2.051,2.926-2.051c2.255,0,2.327,0.995,2.327,1.438
		c0,0.265-0.036,0.552-0.12,0.936L81.704,354.229z M78.682,355.117c1.332,0,1.775-0.96,1.955-2.135l-0.024-0.024
		c-0.192,0.191-0.552,0.252-0.852,0.288c-0.768,0.06-2.171,0.048-2.171,1.079C77.59,354.925,78.178,355.117,78.682,355.117z"/>
	<path fill="#FFFFFF" d="M84.634,347.465h1.368l-1.008,4.846l0.024,0.023l2.807-2.506h1.727l-2.734,2.278l1.511,3.922h-1.511
		l-1.091-3.011l-1.056,0.899l-0.444,2.111h-1.367L84.634,347.465z"/>
	<path fill="#FFFFFF" d="M89.375,353.485c0-2.038,1.403-3.825,3.538-3.825c1.703,0,2.71,0.936,2.71,2.662
		c0,2.171-1.332,3.874-3.538,3.874C90.382,356.196,89.375,355.213,89.375,353.485z M90.742,353.521c0,0.912,0.432,1.596,1.427,1.596
		c1.403,0,2.087-1.523,2.087-2.783c0-0.911-0.432-1.595-1.427-1.595C91.426,350.739,90.742,352.286,90.742,353.521z"/>
</g>
<g enable-background="new    ">
	<path fill="#FFFFFF" d="M48.239,361.465h1.643l2.626,6.393h0.024l1.307-6.393h1.5l-1.775,8.563h-1.644l-2.638-6.356h-0.024
		l-1.295,6.356h-1.499L48.239,361.465z"/>
	<path fill="#FFFFFF" d="M60.489,368.229c-0.048,0.228-0.12,0.443-0.12,0.611s0.072,0.276,0.288,0.276
		c0.156,0,0.324-0.061,0.479-0.072l-0.216,0.983c-0.348,0.084-0.708,0.168-1.067,0.168c-0.468,0-0.804-0.312-0.828-0.792
		c-0.54,0.54-1.331,0.792-2.086,0.792c-1.02,0-1.931-0.563-1.931-1.655c0-1.523,1.235-2.051,2.603-2.135
		c0.456-0.024,0.923-0.072,1.367-0.107c0.492-0.036,0.72-0.349,0.72-0.816c0-0.587-0.48-0.743-1.043-0.743
		c-0.744,0-1.355,0.204-1.547,0.972h-1.295c0.3-1.535,1.451-2.051,2.926-2.051c2.255,0,2.327,0.995,2.327,1.438
		c0,0.265-0.036,0.552-0.12,0.936L60.489,368.229z M57.467,369.117c1.332,0,1.775-0.96,1.955-2.135l-0.024-0.024
		c-0.192,0.191-0.552,0.252-0.852,0.288c-0.768,0.06-2.171,0.048-2.171,1.079C56.375,368.925,56.963,369.117,57.467,369.117z"/>
	<path fill="#FFFFFF" d="M63.695,361.969h1.332l-0.384,1.859h1.235l-0.216,1.019h-1.235l-0.636,3.035
		c-0.06,0.264-0.12,0.527-0.12,0.671c0,0.265,0.084,0.456,0.492,0.456c0.204,0,0.468,0,0.732-0.06l-0.228,1.007
		c-0.348,0.084-0.78,0.132-1.127,0.132c-0.983,0-1.235-0.575-1.235-1.151c0-0.239,0.06-0.587,0.084-0.695l0.708-3.395h-1.079
		l0.216-1.019h1.079L63.695,361.969z"/>
	<path fill="#FFFFFF" d="M66.923,363.828h1.368l-1.284,6.2H65.64L66.923,363.828z M67.415,361.465h1.355l-0.264,1.296h-1.355
		L67.415,361.465z"/>
	<path fill="#FFFFFF" d="M68.82,367.485c0-2.038,1.403-3.825,3.538-3.825c1.703,0,2.71,0.936,2.71,2.662
		c0,2.171-1.332,3.874-3.538,3.874C69.827,370.196,68.82,369.213,68.82,367.485z M70.187,367.521c0,0.912,0.432,1.596,1.427,1.596
		c1.403,0,2.087-1.523,2.087-2.783c0-0.911-0.432-1.595-1.427-1.595C70.871,364.739,70.187,366.286,70.187,367.521z"/>
	<path fill="#FFFFFF" d="M76.931,363.828h1.284l-0.192,0.899l0.024,0.023c0.492-0.684,1.283-1.091,2.135-1.091
		c1.247,0,1.811,0.647,1.811,1.643c0,0.229-0.012,0.552-0.06,0.768l-0.828,3.958h-1.367l0.792-3.826
		c0.048-0.203,0.096-0.407,0.096-0.575c0-0.204,0.048-0.888-0.948-0.888c-0.54,0-0.959,0.264-1.295,0.6
		c-0.312,0.324-0.563,0.827-0.671,1.331l-0.696,3.358h-1.367L76.931,363.828z"/>
	<path fill="#FFFFFF" d="M88.053,368.229c-0.048,0.228-0.12,0.443-0.12,0.611s0.072,0.276,0.288,0.276
		c0.156,0,0.324-0.061,0.479-0.072l-0.216,0.983c-0.348,0.084-0.708,0.168-1.067,0.168c-0.468,0-0.804-0.312-0.828-0.792
		c-0.54,0.54-1.331,0.792-2.086,0.792c-1.02,0-1.931-0.563-1.931-1.655c0-1.523,1.235-2.051,2.603-2.135
		c0.456-0.024,0.923-0.072,1.367-0.107c0.492-0.036,0.72-0.349,0.72-0.816c0-0.587-0.48-0.743-1.043-0.743
		c-0.744,0-1.355,0.204-1.547,0.972h-1.295c0.3-1.535,1.451-2.051,2.926-2.051c2.255,0,2.327,0.995,2.327,1.438
		c0,0.265-0.036,0.552-0.12,0.936L88.053,368.229z M85.03,369.117c1.332,0,1.775-0.96,1.955-2.135l-0.024-0.024
		c-0.192,0.191-0.552,0.252-0.852,0.288c-0.768,0.06-2.171,0.048-2.171,1.079C83.939,368.925,84.527,369.117,85.03,369.117z"/>
	<path fill="#FFFFFF" d="M90.982,361.465h1.368l-1.775,8.563h-1.367L90.982,361.465z"/>
	<path fill="#FFFFFF" d="M93.407,363.828h1.355l-0.18,0.791l0.024,0.024c0.432-0.624,1.188-0.983,1.955-0.983
		c1.547,0,2.351,1.091,2.351,2.566c0,1.895-1.032,3.97-3.178,3.97c-0.9,0-1.643-0.252-2.027-1.127h-0.024l-0.671,3.25h-1.367
		L93.407,363.828z M95.422,369.117c1.475,0,2.123-1.464,2.123-2.759c0-0.899-0.42-1.619-1.367-1.619
		c-1.476,0-2.123,1.487-2.123,2.782C94.055,368.409,94.45,369.117,95.422,369.117z"/>
	<path fill="#FFFFFF" d="M104.948,368.229c-0.048,0.228-0.12,0.443-0.12,0.611s0.072,0.276,0.288,0.276
		c0.156,0,0.324-0.061,0.479-0.072l-0.216,0.983c-0.348,0.084-0.708,0.168-1.067,0.168c-0.468,0-0.804-0.312-0.828-0.792
		c-0.54,0.54-1.331,0.792-2.086,0.792c-1.02,0-1.931-0.563-1.931-1.655c0-1.523,1.235-2.051,2.603-2.135
		c0.456-0.024,0.923-0.072,1.367-0.107c0.492-0.036,0.72-0.349,0.72-0.816c0-0.587-0.48-0.743-1.043-0.743
		c-0.744,0-1.355,0.204-1.547,0.972h-1.295c0.3-1.535,1.451-2.051,2.926-2.051c2.255,0,2.327,0.995,2.327,1.438
		c0,0.265-0.036,0.552-0.12,0.936L104.948,368.229z M101.926,369.117c1.332,0,1.775-0.96,1.955-2.135l-0.024-0.024
		c-0.192,0.191-0.552,0.252-0.852,0.288c-0.768,0.06-2.171,0.048-2.171,1.079C100.834,368.925,101.422,369.117,101.926,369.117z"/>
	<path fill="#FFFFFF" d="M107.387,363.828h1.295l-0.252,1.211l0.024,0.024c0.372-0.684,1.14-1.403,1.979-1.403
		c0.216,0,0.444,0,0.66,0.036l-0.288,1.307c-0.156-0.023-0.324-0.048-0.48-0.048c-1.415,0-2.015,1.079-2.279,2.327l-0.576,2.746
		h-1.367L107.387,363.828z"/>
	<path fill="#FFFFFF" d="M112.318,361.465h1.368l-1.008,4.846l0.024,0.023l2.807-2.506h1.727l-2.734,2.278l1.511,3.922h-1.511
		l-1.091-3.011l-1.056,0.899l-0.444,2.111h-1.367L112.318,361.465z"/>
</g>
<g enable-background="new    ">
	<path fill="#FFFFFF" d="M257.3,462.565h4.707c1.905,0,3.194,0.616,3.194,2.479c0,0.98-0.49,1.667-1.359,2.088
		c1.219,0.35,1.835,1.288,1.835,2.535c0,2.031-1.723,2.899-3.53,2.899H257.3V462.565z M259.5,466.613h2.228
		c0.77,0,1.345-0.351,1.345-1.19c0-0.953-0.729-1.149-1.513-1.149H259.5V466.613z M259.5,470.857h2.354
		c0.869,0,1.625-0.28,1.625-1.316c0-1.022-0.645-1.429-1.583-1.429H259.5V470.857z"/>
	<path fill="#FFFFFF" d="M273.626,462.327c3.096,0,4.917,2.311,4.917,5.28c0,2.886-1.821,5.197-4.917,5.197
		c-3.095,0-4.917-2.312-4.917-5.197C268.71,464.638,270.531,462.327,273.626,462.327z M273.626,470.955
		c1.975,0,2.718-1.681,2.718-3.348c0-1.751-0.743-3.432-2.718-3.432s-2.717,1.681-2.717,3.432
		C270.909,469.274,271.651,470.955,273.626,470.955z"/>
	<path fill="#FFFFFF" d="M282.024,462.565h5.394c1.793,0,2.928,1.246,2.928,2.759c0,1.177-0.477,2.06-1.583,2.508v0.027
		c1.078,0.28,1.387,1.331,1.457,2.34c0.042,0.63,0.027,1.807,0.42,2.367h-2.199c-0.266-0.63-0.238-1.597-0.35-2.396
		c-0.154-1.051-0.561-1.513-1.668-1.513h-2.199v3.908h-2.199V462.565z M284.223,467.09h2.41c0.98,0,1.513-0.421,1.513-1.429
		c0-0.967-0.532-1.388-1.513-1.388h-2.41V467.09z"/>
	<path fill="#FFFFFF" d="M294.12,462.565h2.186l4.175,6.709h0.028v-6.709h2.059v10.001h-2.199l-4.16-6.695h-0.027v6.695h-2.061
		V462.565z"/>
	<path fill="#FFFFFF" d="M306.482,462.565h7.48v1.849h-5.281v2.144h4.847v1.708h-4.847v2.452h5.394v1.849h-7.593V462.565z"/>
	<path fill="#FFFFFF" d="M322.024,462.327c3.096,0,4.918,2.311,4.918,5.28c0,2.886-1.822,5.197-4.918,5.197
		s-4.916-2.312-4.916-5.197C317.108,464.638,318.928,462.327,322.024,462.327z M322.024,470.955c1.976,0,2.719-1.681,2.719-3.348
		c0-1.751-0.743-3.432-2.719-3.432c-1.975,0-2.717,1.681-2.717,3.432C319.307,469.274,320.049,470.955,322.024,470.955z"/>
</g>
<path fill="none" stroke="#000000" stroke-miterlimit="10" d="M378.322,125.148"/>
<path fill="none" stroke="#000000" stroke-miterlimit="10" d="M383.991,125.148"/>
</svg>
