<?xml version="1.0" encoding="utf-8"?>
<!-- Generator: Adobe Illustrator 25.0.1, SVG Export Plug-In . SVG Version: 6.00 Build 0)  -->
<svg version="1.1" xmlns="http://www.w3.org/2000/svg" xmlns:xlink="http://www.w3.org/1999/xlink" x="0px" y="0px"
	 viewBox="0 0 1007 793.5" style="enable-background:new 0 0 1007 793.5;" xml:space="preserve">
<style type="text/css">
	.st0{fill:#EDEDEC;}
	.st1{fill:#E2E2E2;}
	.st2{fill:#FFFFFF;}
	.st3{fill:none;stroke:#618A2E;stroke-width:2;stroke-miterlimit:10;stroke-dasharray:4,4;}
	.st4{fill:none;stroke:#618A2E;stroke-width:2;stroke-miterlimit:10;}
	.st5{fill:#1D1D1B;}
	.st6{fill:#010000;}
	.st7{fill:none;stroke:#1D1D1B;stroke-miterlimit:10;}
	.st8{fill:#A5A4A4;}
	.st9{fill:#618A2E;}
	
		.st10{fill:none;stroke:#618A2E;stroke-width:2;stroke-linecap:round;stroke-linejoin:round;stroke-miterlimit:10;stroke-dasharray:0,5,0,5,0,5;}
	.st11{fill:#080908;}
</style>
<g id="Malysia_Peninsula">
</g>
<g id="Indonesien">
	<path class="st0" d="M489.5,505.3c-2.4,1.6-8.6,6.1-11,6.9c-2.4,0.8-6.5,3.3-6.5,8.1c0,4.9,1.9,7.5-2.4,9.4c-4.3,1.9-5.4,4.3-7.6,9
		c-2.2,4.6-3.3,5.4-3.8,8.4c-0.5,3-0.3,7.6,2.2,6.2c2.4-1.4,7.6-9,8.7-5.4c1.1,3.5-6.4,13.6-9.6,13.2c-3.3-0.4-4.9-0.8-4.7,2.6
		c0.2,3.5,1.4,2.9,0,6.9c-1.4,4.1-2,4.1-1.2,11.6c0.8,7.5-3.4,25.9-0.4,26.1c3,0.2,5.3-0.8,6.7,1.6c1.4,2.4,13.2,11.8,12,14.3
		c-1.2,2.4-2.2,2.2-2.9,4.9c-0.6,2.6,2.4,10.4,0.6,11.4c-1.8,1-6.1-1.6-7.9,1c-1.8,2.6,4.1,2.4,3.7,5.9c-0.4,3.5-7.1,7.3-0.6,10
		c6.5,2.6,12.6,1.8,14.7,5.9c2,4.1,6.5,10.4,4.7,11.2c-1.8,0.8-5.7-2.2-6.1,1.2c-0.4,3.5,1.8,7.9,3.9,6.1c2-1.8,3.3-3.5,5.1-1.6
		c1.8,1.8,3.5,2.9,5.3,2.1c1.8-0.8,2.9-5.5,6.1-4.3c3.3,1.2,0,8.6,3.5,10c3.5,1.4,5.3-1.8,6.9,1.2c1.6,3.1,3.5,6.1,4.9,5.3
		c1.4-0.8,2.4-18.9,4.5-17.9c2,1-0.2,13.7,3.1,18.1c3.3,4.3,9.6,7.8,10.6,11.5c1,3.7,1.2,7.1-2.9,7.3c-4.1,0.2-8.6,0.6-6.1,2.9
		c2.4,2.2,1.6,5.5,1.2,11.6c-0.4,6.1,3.7,7.3,7.3,7.1c3.7-0.2,9.6-13.4,13.2-9.8c3.7,3.7,6.3,5.3,6.1,9.8c-0.2,4.5,1.2,3.7,3.9,0
		c2.6-3.7,9.2-10,11-7.1c1.8,2.9,1,5.1-1.8,5.7c-2.9,0.6-4.6,9.8,2.8,7.9c7.4-1.8,14.7-10.6,19.6-11c4.9-0.4,9-0.8,10.8,2
		c1.8,2.9,2.8,4.1,4.9,2.9c2-1.2,1.4-12.8,2-15.3c0.6-2.4,1.2-5.5,4.5-1.8c3.3,3.7,5.9,7.7,7.5,8.6c1.6,0.8-0.4,3.3-1.2,5.9
		c-0.8,2.6,3.5,16.3,2.8,20.2c-0.6,3.9,2.4,6.5,0.1,8.4c-2.3,1.8-5.2,3.5-3.7,4.9c1.4,1.4,10.4-2.8,12.6-5.5
		c2.2-2.6,6.3-6.9,10.2-5.3c3.9,1.6,11.2,7.3,14.7,6.3c3.5-1,10-13.4,14.9-14.5c4.9-1,7.9-2.2,7.7-3.9c-0.2-1.6-3-7.3,0-9.8
		c3-2.4,5.1-2.4,7.1-0.6c2,1.8,7.1,2.2,7.5,5.7c0.4,3.5-0.6,5.5,1.8,4.5c2.4-1,5.5-6.7,7.5-3.9c2,2.8-0.2,5.1,3.1,4.9
		c3.3-0.2,7.1-2.2,9.6,1c2.4,3.3,1.2,5.1,1.4,10c0.2,4.9,5.3,5.9,8.8,4.5c3.5-1.4,14.5-18.5,16.9-15.5c2.4,3.1,0.8,8.3,3.3,7.7
		c2.4-0.6,5.5-11,8.8-7.9c3.3,3.1,0,9.8,0,12.4c0,2.6,6.7-6.3,9.8-3.1c3.1,3.3-0.6,8.5,2.4,13.1c3.1,4.6,2.9,17.2,4.3,22.3
		c1.4,5.1,5.5,6.3,12.4,2.4c6.9-3.9,30.3-17.7,36.7-17.9c6.3-0.2,8.3,0,12.6-3.1c4.3-3.1,10-9.4,10-13.2c0-3.9,1-9.6,5.1-10.2
		c4.1-0.6,4.1-4.7,3.9-7.9c-0.2-3.3-8.6-6.9-7.9-9.6c0.6-2.6,4.5-12.4,7.1-11c2.6,1.4,9,13.4,10.2,11.4c1.2-2-7.5-29.1-4.1-30.7
		c3.5-1.6,9-3.9,10,0c1,3.9,2.9,13.2,5.1,11.2c2.2-2,7.7-11.8,6.1-15.7c-1.6-3.9-4.9-13.4,0.3-14.9c5.2-1.4,7-1.2,6.6,4.1
		c-0.4,5.3-0.8,12.2,3.5,11c4.3-1.2,16.7-24.2,20.4-24.4c3.7-0.2,5.3,1.6,8.8,0.6c3.5-1,11.8-3.9,8.1-5.5c-3.7-1.6-3.7-4.9-1.8-7.7
		c1.8-2.9,0.6-8.4-1.4-7.1c-2,1.2-6.5,3.9-5.5-0.2c1-4.1,2.6-12.4,1-16.3c-1.6-3.9,0.6-5.7,0.4-13.4c-0.2-7.7,1.8-20,5.5-27.1
		c3.7-7.1,11.8-24.6,15.1-25.5c3.3-0.8,5.7,1,7.1-1.2c1.4-2.2-8.1-17.3-4.9-17.9c3.3-0.6,13.8,17.9,17.7,17.9
		c3.9,0,19.5-4.1,23.8-2.8c4.3,1.2,5.7,4.1,7.9,2.6c2.2-1.4,9.4-6.7,8.3-9.8c-1-3.1-5.5-2.6-7.1-3.9c-1.6-1.2,1-6.3-1-7.7
		c-2-1.4-12.4-6.3-16.7-9.8c-4.3-3.5-39.7-27.7-37.7-37.5c2-9.8,10.2-16.5,9-21.4c-1.2-4.9-4.1-8.6-7.9-10c-3.9-1.4-3.7-5.1-4.7-7.9
		c-1-2.9-8.3-5.3-8.6-7.3c-0.2-2,3.1-3.1,2.9-5.9c-0.2-2.9-5.9-0.2-7.3-1.4c-1.4-1.2,1.8-9.4,0-11.6c-1.8-2.2-6.5,0.6-7.1-1
		c-0.6-1.6,0-2-3.1-2.4c-3.1-0.4-9-0.6-7.7-3.7c1.2-3.1,9.4-5.9,8.1-10.2c-1.2-4.3-6.5-0.8-7.9-2.6c-1.4-1.8-2-6.7-6.1-7.7
		c-4.1-1-7.3-3.5-5.9-6.7c1.4-3.3,5.9-3.3,11.8-2.4c5.9,0.8,10.2,2.6,11.8,1.6c1.6-1,1.6-5.3,5.3-4.1c3.7,1.2,10.4,6.3,11.8,4.7
		c1.4-1.6,1.4-7.5-2.9-7.9c-4.3-0.4-7.3-1-7.5-4.3c-0.2-3.3-0.2-9-3.3-10.4c-3.1-1.4-6.9-7.7-4.7-8.1c2.2-0.4,9.8,1.2,10.4-2
		c0.6-3.3,2.2-13.2,5.1-11.8c2.9,1.4,5.1,1.8,8.4,3.1c3.3,1.2,3.1,6.5,8.3,5.1c5.3-1.4,9.6-5.5,15.9-6.1c6.3-0.6,15.7-2.2,15.3-4.9
		c-0.4-2.6-6.1-3.9-6.7-5.9c-0.6-2-0.6-2.9-4.9-5.1c-4.3-2.2-15.7-14.5-11.4-20.8c4.3-6.3,11.4-9,15.3-6.5c3.9,2.4,8.1,6.3,12.4,6.9
		c4.3,0.6,7.5-2.6,12.4-3.1c4.9-0.4,15.9-5.7,16.9-9.2c1-3.5,4.1-11.8,0-12.2c-4.1-0.4-12.2,1-13.6-1c-1.4-2-6.1,0-7.9-1.8
		c-1.8-1.8-1.2-5.5-4.3-5.9c-3.1-0.4-6.9,2-8.3-1.2c-1.4-3.3-0.4-8.8-6.3-11.2c-5.9-2.4-7.5-1.8-12.2,0c-4.7,1.8-7.9,5.5-10.6,4.1
		c-2.6-1.4-5.9-6.5-3.1-7.5c2.9-1,6.5-1.6,6.3-3.1c-0.2-1.4-3.7-3.5-3.9-6.9c-0.2-3.5-0.4-5.9-2.2-5.1c-1.8,0.8-3.5,7.9-7.5,8.3
		c-4.1,0.4-5.5,4.7-9.2,4.5c-3.7-0.2-6.7,2-9.6,3.3c-2.9,1.2-8.8-0.6-6.1-5.5c2.6-4.9,7.1-10.5,10.4-10.7c3.3-0.2,5.7-1.7,4.9-3.9
		c-0.8-2.2-5.5-6.1-3.3-7.1c2.2-1,3.9-3.7,4.7-8.1c0.8-4.5-6.7-5.5-8.6-6.9c-1.8-1.4-6.7-0.6-10.2-2.2c-3.5-1.6-7.3-5.9-7.1-11.8
		c0.2-5.9,1.8-12.4-2-12.6c-3.9-0.2-5.5,3.3-8.3,4.1c-2.9,0.8-1.4,1.2-1,4.3c0.4,3.1-3.1,7.9-5.5,10c-2.4,2-4.3,3.9-6.3,2.9
		c-2-1,0.4-7.3,0-10c-0.4-2.6,5.5-8.6,1.4-10.2c-4.1-1.6-9-1.6-8.1,1.6c0.8,3.3,3.7,6.9,1.4,9c-2.2,2-3.1,6.9-8.1,12.6
		c-5.1,5.7-6.7,10.4-7.7,11c-1,0.6-3.7-0.4-4.7,1.6c-1,2-0.4,5.1-2.4,6.7c-2,1.6-8.8,4.3-9,7.1c-0.2,2.9-1.2,15.9-3.5,18.1
		c-2.2,2.2-7.3,7.5-8.1,10.2c-0.8,2.6-2.4,2.6-3.5,4.9c-1,2.2,1.2,5.9-3.9,6.1c-5.1,0.2-7.1-1.2-9.2-4.3c-2-3.1-2.6-1.8-3.9,0.8
		c-1.2,2.6-2.2,1.6-2.9,4.5c-0.6,2.9-3.7,1.6-3.3,5.3c0.4,3.7,2,6.9,4.3,8.8c2.2,1.8,6.1-0.4,6.5,3.1c0.4,3.5-2.2,10-4.9,10.2
		c-2.6,0.2-3.3,0-5.1,2.4c-1.8,2.4-3.7,5.3-5.7,5.1c-2-0.2-0.4-3.1-3.3-2.6c-2.9,0.4-5.5,8.8-10.4,7.1c-4.9-1.6,1.6-10.2-1.4-11.8
		c-3.1-1.6-7.7,3.3-12.2,5.9c-4.5,2.6-10.2,9.6-13.2,12.2c-3.1,2.6-9.4,6.5-13.4,7.9c-4.1,1.4-17.3,0.4-18.3,3.3
		c-1,2.9,6.7,6.1,5.3,8.1c-1.4,2-16.7,23.4-22.8,31.2c-6.1,7.7-13,13.4-16.3,19.8c-3.3,6.3-10,18.9-14.1,21.2
		c-4.1,2.2-7.7,2.6-9.4,4.9c-1.6,2.3-1.4,4.1-5.1,4.3c-3.7,0.2-12,5.5-19.3,7.3c-7.3,1.8-17.3,6.1-22.8,4.9
		c-5.5-1.2-10.6-2-14.5-0.6c-3.9,1.4-11.6-0.2-13.4,0.6c-1.8,0.8,2.6,4.9,3.5,8.6c0.8,3.7-0.4,13,3.1,15.7
		c3.5,2.6,13.6,4.3,19.3,6.7c5.7,2.4,12.6,5.1,12,6.3c-0.6,1.2-6.3,0.2-12.8-1.8c-6.5-2-20.6-8.3-23.6-6.5c-3.1,1.8-6.1,3.5-5.9,5.3
		c0.2,1.8,2.4,2.6,1.2,3.9c-1.2,1.2-3.7,2.9-4.1,0.6c-0.4-2.2-1-5.3-4.3-5.1c-3.3,0.2-4.9,0.8-4.3,6.3c0.6,5.5,1.4,11.2,0,16.1
		c-1.4,4.9-3.5,6.5-2.6,8.8c0.8,2.2,5.9,6.3,5.5,8.1c-0.4,1.8-2.2-0.6-3.9,0c-1.6,0.6,6.3,6.5,4.5,7.9c-1.8,1.4-6.3-3.5-9.2-2.2
		c-2.9,1.2-2,9.2,1.2,10c3.3,0.8,8.1,2.2,11.6,4.9c3.5,2.6,5.7,7.1,3.9,8.1c-1.8,1-8.8-4.9-13.8-7.1c-5.1-2.2-5.7-10-11.2-9.6
		c-5.5,0.4-7.7,5.5-10,4.9c-2.2-0.6,0.6-7.5-2.4-8.6c-3.1-1-8.1,0.6-9-1.2c-0.8-1.8-6.9-6.3-9.4-5.7c-2.4,0.6-4.3,1.8-4.5,3.9
		c-0.2,2-0.6,3.3-2,2.9c-1.4-0.4,2-5.7-1.8-6.1c-3.9-0.4-8.1,1-11,0.6c-2.9-0.4-10.6-4.7-13.4-9.4c-2.9-4.7-4.5-8.6-4.5-10.2
		C491.2,505.7,489.5,505.3,489.5,505.3z"/>
	<path class="st1" d="M570.1,452.1c-2.2,0.3-2.4,2.4-2.4,4.8c0,2.3,0.5,5,0.5,6.2c0,1.2,3.2,2.5,3.2-2.5s0.4-7.3,0-7.9
		C571,452,570.1,452.1,570.1,452.1z"/>
	<path class="st1" d="M577.1,455.4c-2.3,1.1-3.7,6.5-2,7.7c1.6,1.2,2.9,3.7,5.9,3.5c3.1-0.2,3.7-3.7,5.1-2.4
		c1.4,1.2-0.2,6.1,1.8,7.9c2,1.8,3.5-1.4,2.9-4.7c-0.6-3.3-0.2-7.6-3.1-10.2C584.7,454.5,579.4,454.3,577.1,455.4z"/>
	<path class="st1" d="M569.6,472.6c-2.3,2.3-2,6,0,5.2c2-0.8,5.6-4.3,4.9-6.3C573.8,469.5,569.6,472.6,569.6,472.6z"/>
	<path class="st1" d="M566.3,467.8c-1.4,0.2-3.9,2.1-1.6,3c2.2,0.9,4.8-0.4,5-1.5C569.8,468.2,567.7,467.7,566.3,467.8z"/>
	<path class="st1" d="M582.7,472.6c2.4,0.6,4.6,4.4,2.3,5.3c-2.2,0.9-5.9-0.7-5.7-2.6C579.6,473.3,580.3,472.1,582.7,472.6z"/>
	<path class="st1" d="M579.3,479.2c1.1,0.1,6.1,2.4,2,2.6c-4.1,0.2-9.8-2.2-6.7-2.6C577.7,478.8,578.2,479.1,579.3,479.2z"/>
	<path class="st2" d="M784,294.5c-2.5,0-5.3,4.9-5.9,6.9c-0.6,2,1.4,2.4,5.9,2.4c4.5,0,6.5-1,6.1-3.1c-0.4-2-1.1-3.6-2.4-4.5
		C786.5,295.4,786.5,294.6,784,294.5z"/>
	<path class="st1" d="M819.9,170.9c-3.5,1.4-8.1,5.3-5.3,5.9c2.9,0.6,7.5,2.2,8.6,0c1-2.2,1.4-3.5,0-4.5
		C821.7,171.3,819.9,170.9,819.9,170.9z"/>
	<path class="st1" d="M874.4,187.6c-3.5,0.2-5.9,1-6.5,2.4c-0.6,1.4,0.8,2.6,3.3,3.1c2.4,0.4,5.7-1,5.7-2.7
		C876.9,188.6,874.4,187.6,874.4,187.6z"/>
	<path class="st1" d="M883.8,187.6c-2.2-0.8-3.3,0.1-3.5,2.8c-0.2,2.7-0.4,8,1.7,7.2c2.1-0.8,1.1-2.6,3.8-2.4
		c2.6,0.2,4.1-0.6,2.9-2.6C887.5,190.5,883.8,187.6,883.8,187.6z"/>
	<path class="st1" d="M906.4,214.1c-2.6,1-4.5,1-4.7,3.1c-0.2,2,1.2,3.5,4.7,2.9c3.5-0.6,6.7-3.1,5.7-4.9
		C911.1,213.3,906.4,214.1,906.4,214.1z"/>
	<path class="st0" d="M914.2,404.8c-4.6-0.2-9.6,0-7.8,2.3c1.8,2.3,7.5,1.1,11.8,1.1c4.3,0,8.7,0.1,7.5-1.5
		c-1.2-1.7-0.8-4.6-2.4-4.9c-1.7-0.3-1.7,2-3.8,2.3C917.3,404.3,914.2,404.8,914.2,404.8z"/>
	<path class="st0" d="M937.3,398.5c-2.6,0-3.1,2.9-2.6,4.6c0.5,1.7,3.1,1.8,5.2,2c2.1,0.2,5.4,0,3.2-2
		C940.9,401.1,939.9,398.5,937.3,398.5z"/>
	<path class="st0" d="M925.1,359.5c-2,0.3-3.2,1.7-2.4,3.5c0.8,1.8,2.1,4.1,4.3,4.1c2.1,0,1.7,1.5,4.3,1.1c2.6-0.5,6.3-3.1,3.4-4.3
		c-2.8-1.2-5.4,0-6.3-1.6C927.3,360.6,925.1,359.5,925.1,359.5z"/>
	<path class="st0" d="M920.6,370.3c-1.6,0.2-3.1,0.8-2.2,2.4c0.9,1.7,3.9,3.9,4.9,3c1-0.9,2-1.1,1.1-2.6
		C923.5,371.6,920.6,370.3,920.6,370.3z"/>
	<path class="st0" d="M966.7,357.2c-2.1-0.2-2.7,3-2.6,4.8c0.1,1.8,0.6,2.9,2.6,2.4c2-0.4,3.1-2.1,2.9-3.6
		C969.4,359.4,968.9,357.4,966.7,357.2z"/>
</g>
<g id="Ost-Malaysia">
</g>
<g id="Brunei">
	<g>
		<path class="st1" d="M791.1,325c0,0-0.1,0-0.1,0C791,325,791.1,325,791.1,325z"/>
		<path class="st1" d="M792.2,325.5C792.1,325.5,792.1,325.5,792.2,325.5C792.1,325.5,792.1,325.5,792.2,325.5z"/>
		<path class="st1" d="M792.3,325.7C792.3,325.7,792.3,325.7,792.3,325.7C792.3,325.7,792.3,325.7,792.3,325.7z"/>
		<path class="st1" d="M791.9,325.3C791.9,325.3,792,325.3,791.9,325.3C792,325.3,791.9,325.3,791.9,325.3z"/>
		<path class="st1" d="M739,346.7C739,346.7,739,346.7,739,346.7C739,346.7,739,346.7,739,346.7z"/>
		<path class="st1" d="M1005,294.5c-4.1-0.4-12.2,1-13.6-1c-1.4-2-6.1,0-7.9-1.8c-1.8-1.8-1.2-5.5-4.3-5.9c-3.1-0.4-6.9,2-8.3-1.2
			c-1.4-3.3-0.4-8.8-6.3-11.2c-5.9-2.4-7.5-1.8-12.2,0c-4.7,1.8-7.9,5.5-10.6,4.1c-2.6-1.4-5.9-6.5-3.1-7.5c2.9-1,6.5-1.6,6.3-3.1
			c-0.2-1.4-3.7-3.5-3.9-6.9c-0.2-3.5-0.4-5.9-2.2-5.1c-1.8,0.8-3.5,7.9-7.5,8.3c-4.1,0.4-5.5,4.7-9.2,4.5c-3.7-0.2-6.7,2-9.6,3.3
			c-2.9,1.2-8.8-0.6-6.1-5.5c2.6-4.9,7.1-10.5,10.4-10.7c3.3-0.2,5.7-1.7,4.9-3.9c-0.8-2.2-5.5-6.1-3.3-7.1c2.2-1,3.9-3.7,4.7-8.1
			c0.8-4.5-6.7-5.5-8.6-6.9c-1.8-1.4-6.7-0.6-10.2-2.2c-3.5-1.6-7.3-5.9-7.1-11.8c0.2-5.9,1.8-12.4-2-12.6c-3.9-0.2-5.5,3.3-8.3,4.1
			c-2.9,0.8-1.4,1.2-1,4.3c0.4,3.1-3.1,7.9-5.5,10c-2.4,2-4.3,3.9-6.3,2.9c-2-1,0.4-7.3,0-10c-0.4-2.6,5.5-8.6,1.4-10.2
			c-4.1-1.6-9-1.6-8.1,1.6c0.8,3.3,3.7,6.9,1.4,9c-2.2,2-3.1,6.9-8.1,12.6c-5.1,5.7-6.7,10.4-7.7,11c-1,0.6-3.7-0.4-4.7,1.6
			c-1,2-0.4,5.1-2.4,6.7c-2,1.6-8.8,4.3-9,7.1c-0.2,2.9-1.2,15.9-3.5,18.1c-2.2,2.2-7.3,7.5-8.1,10.2c-0.8,2.6-2.4,2.6-3.5,4.9
			c-1,2.2,1.2,5.9-3.9,6.1c-5.1,0.2-7.1-1.2-9.2-4.3c-2-3.1-2.6-1.8-3.9,0.8c-1.2,2.6-2.2,1.6-2.9,4.5c-0.6,2.9-3.7,1.6-3.3,5.3
			c0.4,3.7,2,6.9,4.3,8.8c2.2,1.8,6.1-0.4,6.5,3.1c0.4,3.5-2.2,10-4.9,10.2c-2.6,0.2-3.3,0-5.1,2.4c-1.8,2.4-3.7,5.3-5.7,5.1
			c-0.2,0-0.3-0.1-0.5-0.1c0.1,2.3,0.2,4.5,0.1,6.2c-0.4,6.1,4.1,13.9,1.6,21.9c-2.4,8-11.8,7.9-10.9,1.5c0.9-6.4-1.7-20.9-2.9-23
			c-1.2-2-5.3,3.3-6.5,9.8c-1.2,6.5,1.6,6.1-2.4,11c-4.1,4.9,0,11-8.6,20.9c-8.6,9.9-27.8-28.8-27.8-28.8v0
			c-5.5,0.5-13.6,0.4-14.4,2.6c-1,2.9,6.7,6.1,5.3,8.1c-1.4,2-16.7,23.4-22.8,31.2c-6.1,7.7-13,13.4-16.3,19.8
			c-3.3,6.3-10,18.9-14.1,21.2c-4.1,2.2-7.7,2.6-9.4,4.9c-1.6,2.3-1.4,4.1-5.1,4.3c-3.7,0.2-12,5.5-19.3,7.3
			c-7.3,1.8-17.3,6.1-22.8,4.9c-5.5-1.2-10.6-2-14.5-0.6c-3.9,1.4-11.6-0.2-13.4,0.6c-1.8,0.8,2.6,4.9,3.5,8.6
			c0.8,3.7-0.4,13,3.1,15.7c3.5,2.6,13.6,4.3,19.3,6.7c5.7,2.4,12.6,5.1,12,6.3c-0.6,1.2-6.3,0.2-12.8-1.8c-6.5-2-20.6-8.3-23.6-6.5
			c-3.1,1.8-6.1,3.5-5.9,5.3c0.2,1.8,2.4,2.6,1.2,3.9c-1.2,1.2-3.7,2.9-4.1,0.6c-0.4-2.2-1-5.3-4.3-5.1c-3.3,0.2-4.9,0.8-4.3,6.3
			c0.6,5.5,1.4,11.2,0,16.1c-1.4,4.9-3.5,6.5-2.6,8.8c0.8,2.2,5.9,6.3,5.5,8.1c-0.4,1.8-2.2-0.6-3.9,0c-1.6,0.6,6.3,6.5,4.5,7.9
			c-1.8,1.4-6.3-3.5-9.2-2.2c-2.9,1.2-2,9.2,1.2,10c3.3,0.8,8.1,2.2,11.6,4.9c3.5,2.6,5.7,7.1,3.9,8.1c-1.8,1-8.8-4.9-13.8-7.1
			c-5.1-2.2-5.7-10-11.2-9.6c-5.5,0.4-7.7,5.5-10,4.9c-2.2-0.6,0.6-7.5-2.4-8.6c-3.1-1-8.1,0.6-9-1.2c-0.8-1.8-6.9-6.3-9.4-5.7
			c-2.4,0.6-4.3,1.8-4.5,3.9c-0.2,2-0.6,3.3-2,2.9c-1.4-0.4,2-5.7-1.8-6.1c-3.9-0.4-8.1,1-11,0.6c-2.9-0.4-10.6-4.7-13.4-9.4
			c-2.9-4.7-4.5-8.6-4.5-10.2c0-1.6-1.6-2-1.6-2c-0.9,0.6-2.4,1.7-4,2.8v11.5l6.4,6.1c0,0,9.4,8.1,15.1,13.4
			c5.7,5.3,33,35.4,41.1,33.8c8.1-1.6,26.7-12.6,37.8-10.2c11.1,2.4,24.9,6.5,33.9-3.3c9-9.8,15.1-33.4,25.3-35
			c10.2-1.6,26.1-5.3,29.3-0.8c3.3,4.5,7.7,6.9,14.3,10.2c6.5,3.3,17.9,9.8,23.2,7.7c5.3-2,9.1-12.2,17.6-11.8
			c8.5,0.4,11.3-2.9,21.1-1.6c9.8,1.2,9,0,12.6-9c3.7-9,13.4-17.7,11-21.5c-2.4-3.8-9.8-5.8-4.9-9.9c4.9-4.1,14.4-11,20.8-15.3
			c6.5-4.3,5.7-4.8,1.6-8.8c-4.1-4-7.6-15.8-1.6-21.5c6.1-5.7,6.9,3.3,11.4,0c4.5-3.3,5.3-16.7,7.3-24c2-7.3,2.4-14.7,0-24
			c-2.4-9.4,0.3-35.1,4.8-36.9c4.5-1.8,9,3,16.8,6.7c7.7,3.7,9.8-5.2,16.7-4.4c6.9,0.8,8.1,6.4,15.5,4.4c7.3-2,7.5-3.8,17.6-3.1
			c10.1,0.7,8.5-4.3,17.4,0c3.1,1.5,7.5,3.8,11.8,6.1c3.1,0.1,8.1,0.6,8.6-2c0.6-3.3,2.2-13.2,5.1-11.8c2.9,1.4,5.1,1.8,8.4,3.1
			c3.3,1.2,3.1,6.5,8.3,5.1c5.3-1.4,9.6-5.5,15.9-6.1c6.3-0.6,15.7-2.2,15.3-4.9c-0.4-2.6-6.1-3.9-6.7-5.9c-0.6-2-0.6-2.9-4.9-5.1
			c-4.3-2.2-15.7-14.5-11.4-20.8c4.3-6.3,11.4-9,15.3-6.5c3.9,2.4,8.1,6.3,12.4,6.9c4.3,0.6,7.5-2.6,12.4-3.1
			c4.9-0.4,15.9-5.7,16.9-9.2C1006,303.3,1009,294.9,1005,294.5z"/>
		<path class="st1" d="M791.7,325.1C791.7,325.2,791.7,325.2,791.7,325.1C791.7,325.2,791.7,325.2,791.7,325.1z"/>
		<path class="st1" d="M791.4,325.1c0,0,0.1,0,0.1,0C791.4,325.1,791.4,325.1,791.4,325.1z"/>
	</g>
</g>
<g id="Städte">
	<path class="st1" d="M63.9,14.2c0,0,2.9-0.8,2.4-5.7c-0.4-4.9,2.4-11.1,10.6-7.4c8.1,3.7,2.4,17.2,8.6,17.6
		c6.1,0.4,10.2-3.3,16.3,0c6.1,3.3,16.7-2,18.7,3.7c2,5.7-3.3,18.7,4.5,19.1c7.7,0.4,14.7-4.1,17.1,4.5c2.4,8.6,0.8,24.8-3.3,28.5
		c-4.1,3.7-6.5,6.1-4.9,8.1c1.6,2,4.1,8.1,5.7,10.6c1.6,2.4,3.3,2,5.3,0c2-2,2-11,6.5-11.8c4.5-0.8,15.5-4.5,19.1-6.1
		c3.7-1.6,10.2-3.3,11.8-0.4c1.6,2.9,0.4,12.2,3.7,11.8c3.3-0.4,3.7-1.6,5.3,1.6c1.6,3.3,4.1,6.1,5.7,2.4c1.6-3.7,3.3-5.7,6.1-6.5
		c2.9-0.8,2-11.4,5.7-13.8c3.7-2.4,6.5-9,8.6-11.8c2-2.9,0-14.3,0-14.3s5.7,3.3,11.4,7.3c5.7,4.1,2.9,7.7,5.7,8.6
		c2.9,0.8,5.3-4.9,8.1-1.2c2.9,3.7,11.8,26.1,17.5,31c5.7,4.9,18.3,22.4,24.8,25.3c6.5,2.9,17.1,9.8,27.3,30.1
		c10.2,20.4,13.8,32.2,13.8,38.3s-3.7,9.4-3.7,12.6s6.9,17.1,3.7,23.2c-3.3,6.1-8.6,15.5-10.6,23.6c-2,8.1-9,16.3-6.9,20.4
		c2,4.1,7.7,11.8,7.3,19.6c-0.4,7.7-2,23.2-2.4,28.9c-0.4,5.7-6.1,15.1-2.4,18.3c3.7,3.3,15.2,13,15.9,16.3
		c0.8,3.3,8.5,9.8,11.8,12.2c3.3,2.4,6.1,2.9,4.1,6.1c-2,3.3,0.4,9.8,3.3,11.8c2.9,2,8.6,6.1,5.7,9c-2.9,2.9-1.3,4.1,0.8,7.3
		c2.1,3.3,7.8,7.3,7,12.6c-0.8,5.3-3.1,10.2,0.1,13.4c3.2,3.3,10.1,15.1,10.1,22c0,6.9,0.8,17.5-5.3,18.7
		c-6.1,1.2-11.8-2.8-13.4-6.1c-1.6-3.3-2-6.9-5.3-5.3c-3.3,1.6-6.9,1.2-11.4-1.2c-4.5-2.4-11-6.5-13-2.4c-2,4.1-2.9,10.6-7.7,9
		c-4.9-1.6-6.5-6.5-6.9-2.9c-0.4,3.7,5.7,11.4-0.4,9.2c-6.1-2.3-16.3-29.1-22.8-31.2c-6.5-2-31-15.1-39.5-20.4
		c-8.6-5.3-13.4-15.5-19.6-18.3c-6.1-2.9-24.4-11.3-28.9-17.9c-4.5-6.6-2-6.6-6.9-7.8c-4.9-1.2-13.8-15.9-20.8-18.7
		c-6.9-2.9-18.3-17.5-25.3-20c-6.9-2.4-12.2-5.3-10.6-8.6c1.6-3.3-1.2-26.1-4.1-32.2c-2.9-6.1-13-20-14.3-24.8
		c-1.2-4.9-5.7-11-9.8-14.3c-4.1-3.3-2.4-8.1,0.8-8.6c3.3-0.4,5.7-3.3,1.2-3.3c-4.5,0-9.4,1.2-11.4,0c-2-1.2,2-8.9,0.8-14.6
		c-1.2-5.7-4.5-10.2-7.3-12.2c-2.9-2-0.8-11.4-0.8-16.7c0-5.3-0.8-9,2.4-12.6c3.3-3.7,4.5-11.4,1.2-15.5c-3.3-4.1-0.4-8.6-5.7-13
		c-5.3-4.5-8.1-1.2-10.2-7.3c-2-6.1,2-10.2,1.6-16.3c-0.4-6.1-3.3-28.5-1.6-37.9c1.6-9.4,6.1-18.3,1.6-29.7
		c-4.5-11.4-16.7-22.4-15.5-31.4C62.3,17.9,63.9,14.2,63.9,14.2z"/>
	<path class="st3" d="M231.3,66.8c0,0,371.1-92.6,602,207"/>
	<polyline class="st4" points="523.4,539.5 549.8,533.6 772.6,377.5 833.3,273.7 875.7,264.6 	"/>
	<path class="st5" d="M519.2,539.5c0-2.3,1.9-4.3,4.3-4.3c2.3,0,4.3,1.9,4.3,4.3c0,2.3-1.9,4.3-4.3,4.3
		C521.1,543.8,519.2,541.8,519.2,539.5L519.2,539.5z"/>
	<path class="st5" d="M545.6,533.6c0-2.3,1.9-4.3,4.3-4.3c2.3,0,4.3,1.9,4.3,4.3s-1.9,4.3-4.3,4.3
		C547.5,537.9,545.6,536,545.6,533.6L545.6,533.6z"/>
	<g>
		<g>
			<path class="st5" d="M772.7,387.4h3.4l1.6,8.1h0l1.6-8.1h3.4v11.4h-2.1v-9.1h0l-2,9.1h-1.8l-2-9.1h0v9.1h-2.1V387.4z"/>
			<path class="st5" d="M789.4,397.8L789.4,397.8c-0.5,0.8-1.3,1.2-2.2,1.2c-1.4,0-2.2-0.8-2.2-2.4v-6.4h2.2v5.9
				c0,0.9,0.3,1.2,0.9,1.2c0.8,0,1.2-0.5,1.2-1.4v-5.7h2.2v8.6h-2.1V397.8z"/>
			<path class="st5" d="M793.7,387.4h2.2v11.4h-2.2V387.4z"/>
			<path class="st5" d="M802.6,397.8L802.6,397.8c-0.5,0.8-1.3,1.2-2.2,1.2c-1.4,0-2.2-0.8-2.2-2.4v-6.4h2.2v5.9
				c0,0.9,0.3,1.2,0.9,1.2c0.8,0,1.2-0.5,1.2-1.4v-5.7h2.2v8.6h-2.1V397.8z"/>
			<path class="st5" d="M775.3,403.4l2.8,7.8h0v-7.8h2.1v11.4h-2.6l-2.8-8h0v8h-2.1v-11.4H775.3z"/>
			<path class="st5" d="M782.4,408.9v-0.2c0-2,1.4-2.7,3-2.7c2.6,0,3.1,1.1,3.1,2.6v4.5c0,0.8,0,1.2,0.3,1.7h-2.1
				c-0.1-0.3-0.2-0.6-0.3-0.9h0c-0.5,0.9-1.1,1.1-2.2,1.1c-1.5,0-2.1-1.3-2.1-2.5c0-1.6,0.7-2.3,2.2-2.7l1.2-0.3
				c0.7-0.2,0.9-0.4,0.9-1c0-0.7-0.3-1.1-1-1.1c-0.7,0-1,0.4-1,1.1v0.2H782.4z M786.4,410.5c-0.3,0.2-0.7,0.4-0.9,0.4
				c-0.9,0.2-1.2,0.6-1.2,1.4c0,0.7,0.2,1.2,0.8,1.2c0.6,0,1.4-0.4,1.4-1.3V410.5z"/>
			<path class="st5" d="M791.2,403.8h2.2v2.5h1.3v1.5h-1.3v4.7c0,0.7,0.1,0.9,0.8,0.9c0.2,0,0.4,0,0.5,0v1.5c-0.5,0-0.9,0.1-1.4,0.1
				c-1.7,0-2-0.5-2-2.3v-4.9h-1.1v-1.5h1.1V403.8z"/>
			<path class="st5" d="M796.2,403.3h2.2v1.9h-2.2V403.3z M796.2,406.2h2.2v8.6h-2.2V406.2z"/>
			<path class="st5" d="M803.7,406c2.7,0,3.4,1.5,3.4,4.5c0,2.9-0.9,4.5-3.4,4.5c-2.7,0-3.4-1.5-3.4-4.5
				C800.3,407.6,801.1,406,803.7,406z M803.7,413.6c0.9,0,1.2-0.9,1.2-3s-0.3-3-1.2-3c-1.1,0-1.2,1.3-1.2,3S802.6,413.6,803.7,413.6
				z"/>
			<path class="st5" d="M808.9,406.2h2.1v1h0c0.5-0.8,1.3-1.2,2.2-1.2c1.4,0,2.2,0.8,2.2,2.4v6.4h-2.2v-5.9c0-0.9-0.3-1.2-0.9-1.2
				c-0.8,0-1.2,0.5-1.2,1.4v5.7h-2.2V406.2z"/>
			<path class="st5" d="M817.5,408.9v-0.2c0-2,1.4-2.7,3-2.7c2.6,0,3.1,1.1,3.1,2.6v4.5c0,0.8,0,1.2,0.3,1.7h-2.1
				c-0.1-0.3-0.2-0.6-0.3-0.9h0c-0.5,0.9-1.1,1.1-2.2,1.1c-1.5,0-2.1-1.3-2.1-2.5c0-1.6,0.7-2.3,2.2-2.7l1.2-0.3
				c0.7-0.2,0.9-0.4,0.9-1c0-0.7-0.3-1.1-1-1.1c-0.7,0-1,0.4-1,1.1v0.2H817.5z M821.5,410.5c-0.3,0.2-0.7,0.4-0.9,0.4
				c-0.9,0.2-1.2,0.6-1.2,1.4c0,0.7,0.2,1.2,0.8,1.2c0.6,0,1.4-0.4,1.4-1.3V410.5z"/>
			<path class="st5" d="M825.9,403.4h2.2v11.4h-2.2V403.4z"/>
			<path class="st5" d="M830.3,406.2h2.1v0.9h0c0.5-0.8,1.1-1.1,2-1.1c1.8,0,2.6,1.3,2.6,4.5s-0.8,4.5-2.6,4.5c-0.8,0-1.4-0.3-1.9-1
				h0v3.6h-2.2V406.2z M833.7,413.4c1,0,1.2-1,1.2-2.8s-0.2-2.8-1.2-2.8c-1,0-1.2,1-1.2,2.8S832.7,413.4,833.7,413.4z"/>
			<path class="st5" d="M839,408.9v-0.2c0-2,1.4-2.7,3-2.7c2.6,0,3.1,1.1,3.1,2.6v4.5c0,0.8,0,1.2,0.3,1.7h-2.1
				c-0.1-0.3-0.2-0.6-0.3-0.9h0c-0.5,0.9-1.1,1.1-2.2,1.1c-1.5,0-2.1-1.3-2.1-2.5c0-1.6,0.7-2.3,2.2-2.7l1.2-0.3
				c0.7-0.2,0.9-0.4,0.9-1c0-0.7-0.3-1.1-1-1.1c-0.7,0-1,0.4-1,1.1v0.2H839z M843,410.5c-0.3,0.2-0.7,0.4-0.9,0.4
				c-0.9,0.2-1.2,0.6-1.2,1.4c0,0.7,0.2,1.2,0.8,1.2c0.6,0,1.4-0.4,1.4-1.3V410.5z"/>
			<path class="st5" d="M847.3,406.2h2.1v1.2h0c0.4-0.8,1.1-1.4,2-1.4c0.1,0,0.3,0,0.4,0v2.1c-0.2,0-0.5,0-0.7,0
				c-0.8,0-1.6,0.4-1.6,1.6v5.2h-2.2V406.2z"/>
			<path class="st5" d="M855.6,403.4v6h0l2.2-3.2h2.4l-2.5,3.4l2.8,5.2h-2.4l-1.8-3.5l-0.8,1v2.5h-2.2v-11.4H855.6z"/>
		</g>
	</g>
	<path class="st5" d="M768.1,377.6c0-2.3,1.9-4.3,4.3-4.3c2.3,0,4.3,1.9,4.3,4.3s-1.9,4.3-4.3,4.3
		C770,381.8,768.1,379.9,768.1,377.6L768.1,377.6z"/>
	<g>
		<g>
			<path class="st5" d="M725.7,266.8v4.6h0l2.9-4.6h2.5l-3.1,4.9l3.5,6.5h-2.6l-2.4-4.7l-0.8,1.3v3.4h-2.3v-11.4H725.7z"/>
			<path class="st5" d="M735.7,269.4c2.7,0,3.4,1.5,3.4,4.5c0,2.9-0.9,4.5-3.4,4.5c-2.7,0-3.4-1.5-3.4-4.5
				C732.3,271,733.1,269.4,735.7,269.4z M735.7,276.9c0.9,0,1.2-0.9,1.2-3s-0.3-3-1.2-3c-1.1,0-1.2,1.3-1.2,3
				S734.6,276.9,735.7,276.9z"/>
			<path class="st5" d="M741.4,267.1h2.2v2.5h1.3v1.5h-1.3v4.7c0,0.7,0.1,0.9,0.8,0.9c0.2,0,0.4,0,0.5,0v1.5c-0.5,0-0.9,0.1-1.4,0.1
				c-1.7,0-2-0.5-2-2.3v-4.9h-1.1v-1.5h1.1V267.1z"/>
			<path class="st5" d="M746.2,272.2V272c0-2,1.4-2.7,3-2.7c2.6,0,3.1,1.1,3.1,2.6v4.5c0,0.8,0,1.2,0.3,1.7h-2.1
				c-0.1-0.3-0.2-0.6-0.3-0.9h0c-0.5,0.9-1.1,1.1-2.2,1.1c-1.5,0-2.1-1.3-2.1-2.5c0-1.6,0.7-2.3,2.2-2.7l1.2-0.3
				c0.7-0.2,0.9-0.4,0.9-1c0-0.7-0.3-1.1-1-1.1c-0.7,0-1,0.4-1,1.1v0.2H746.2z M750.3,273.9c-0.3,0.2-0.7,0.4-0.9,0.4
				c-0.9,0.2-1.2,0.6-1.2,1.4c0,0.7,0.2,1.2,0.8,1.2c0.6,0,1.4-0.4,1.4-1.3V273.9z"/>
			<path class="st5" d="M761.4,266.8v4.6h0l2.9-4.6h2.5l-3.1,4.9l3.5,6.5h-2.6l-2.4-4.7l-0.8,1.3v3.4h-2.3v-11.4H761.4z"/>
			<path class="st5" d="M768.4,266.7h2.2v1.9h-2.2V266.7z M768.4,269.6h2.2v8.6h-2.2V269.6z"/>
			<path class="st5" d="M772.8,269.6h2.1v1h0c0.5-0.8,1.3-1.2,2.2-1.2c1.4,0,2.2,0.8,2.2,2.4v6.4h-2.2v-5.9c0-0.9-0.3-1.2-0.9-1.2
				c-0.8,0-1.2,0.5-1.2,1.4v5.7h-2.2V269.6z"/>
			<path class="st5" d="M781.4,272.2V272c0-2,1.4-2.7,3-2.7c2.6,0,3.1,1.1,3.1,2.6v4.5c0,0.8,0,1.2,0.3,1.7h-2.1
				c-0.1-0.3-0.2-0.6-0.3-0.9h0c-0.5,0.9-1.1,1.1-2.2,1.1c-1.5,0-2.1-1.3-2.1-2.5c0-1.6,0.7-2.3,2.2-2.7l1.2-0.3
				c0.7-0.2,0.9-0.4,0.9-1c0-0.7-0.3-1.1-1-1.1c-0.7,0-1,0.4-1,1.1v0.2H781.4z M785.4,273.9c-0.3,0.2-0.7,0.4-0.9,0.4
				c-0.9,0.2-1.2,0.6-1.2,1.4c0,0.7,0.2,1.2,0.8,1.2c0.6,0,1.4-0.4,1.4-1.3V273.9z"/>
			<path class="st5" d="M789.8,266.8h2.2v3.6h0c0.5-0.7,1-1,1.9-1c1.8,0,2.6,1.3,2.6,4.5s-0.8,4.5-2.6,4.5c-0.9,0-1.5-0.3-2-1.1h0
				v0.9h-2.1V266.8z M793.1,276.7c1,0,1.2-1,1.2-2.8s-0.2-2.8-1.2-2.8c-1,0-1.2,1-1.2,2.8S792.2,276.7,793.1,276.7z"/>
			<path class="st5" d="M798.4,272.2V272c0-2,1.4-2.7,3-2.7c2.6,0,3.1,1.1,3.1,2.6v4.5c0,0.8,0,1.2,0.3,1.7h-2.1
				c-0.1-0.3-0.2-0.6-0.3-0.9h0c-0.5,0.9-1.1,1.1-2.2,1.1c-1.5,0-2.1-1.3-2.1-2.5c0-1.6,0.7-2.3,2.2-2.7l1.2-0.3
				c0.7-0.2,0.9-0.4,0.9-1c0-0.7-0.3-1.1-1-1.1c-0.7,0-1,0.4-1,1.1v0.2H798.4z M802.4,273.9c-0.3,0.2-0.7,0.4-0.9,0.4
				c-0.9,0.2-1.2,0.6-1.2,1.4c0,0.7,0.2,1.2,0.8,1.2c0.6,0,1.4-0.4,1.4-1.3V273.9z"/>
			<path class="st5" d="M806.8,266.8h2.2v11.4h-2.2V266.8z"/>
			<path class="st5" d="M815.6,277.2L815.6,277.2c-0.5,0.8-1.3,1.2-2.2,1.2c-1.4,0-2.2-0.8-2.2-2.4v-6.4h2.2v5.9
				c0,0.9,0.3,1.2,0.9,1.2c0.8,0,1.2-0.5,1.2-1.4v-5.7h2.2v8.6h-2.1V277.2z"/>
		</g>
	</g>
	<g>
		<g>
			<path class="st5" d="M875.9,275.4v4.6h0l2.9-4.6h2.5l-3.1,4.9l3.5,6.5h-2.6l-2.4-4.7l-0.8,1.3v3.4h-2.3v-11.4H875.9z"/>
			<path class="st5" d="M882.9,275.3h2.2v1.9h-2.2V275.3z M882.9,278.2h2.2v8.6h-2.2V278.2z"/>
			<path class="st5" d="M887.3,278.2h2.1v1h0c0.5-0.8,1.3-1.2,2.2-1.2c1.4,0,2.2,0.8,2.2,2.4v6.4h-2.2v-5.9c0-0.9-0.3-1.2-0.9-1.2
				c-0.8,0-1.2,0.5-1.2,1.4v5.7h-2.2V278.2z"/>
			<path class="st5" d="M895.9,280.9v-0.2c0-2,1.4-2.7,3-2.7c2.6,0,3.1,1.1,3.1,2.6v4.5c0,0.8,0,1.2,0.3,1.7h-2.1
				c-0.1-0.3-0.2-0.6-0.3-0.9h0c-0.5,0.9-1.1,1.1-2.2,1.1c-1.5,0-2.1-1.3-2.1-2.5c0-1.6,0.7-2.3,2.2-2.7l1.2-0.3
				c0.7-0.2,0.9-0.4,0.9-1c0-0.7-0.3-1.1-1-1.1c-0.7,0-1,0.4-1,1.1v0.2H895.9z M899.9,282.5c-0.3,0.2-0.7,0.4-0.9,0.4
				c-0.9,0.2-1.2,0.6-1.2,1.4c0,0.7,0.2,1.2,0.8,1.2c0.6,0,1.4-0.4,1.4-1.3V282.5z"/>
			<path class="st5" d="M904.3,275.4h2.2v3.6h0c0.5-0.7,1-1,1.9-1c1.8,0,2.6,1.3,2.6,4.5s-0.8,4.5-2.6,4.5c-0.9,0-1.5-0.3-2-1.1h0
				v0.9h-2.1V275.4z M907.6,285.4c1,0,1.2-1,1.2-2.8s-0.2-2.8-1.2-2.8c-1,0-1.2,1-1.2,2.8S906.7,285.4,907.6,285.4z"/>
			<path class="st5" d="M912.9,280.9v-0.2c0-2,1.4-2.7,3-2.7c2.6,0,3.1,1.1,3.1,2.6v4.5c0,0.8,0,1.2,0.3,1.7h-2.1
				c-0.1-0.3-0.2-0.6-0.3-0.9h0c-0.5,0.9-1.1,1.1-2.2,1.1c-1.5,0-2.1-1.3-2.1-2.5c0-1.6,0.7-2.3,2.2-2.7l1.2-0.3
				c0.7-0.2,0.9-0.4,0.9-1c0-0.7-0.3-1.1-1-1.1c-0.7,0-1,0.4-1,1.1v0.2H912.9z M916.9,282.5c-0.3,0.2-0.7,0.4-0.9,0.4
				c-0.9,0.2-1.2,0.6-1.2,1.4c0,0.7,0.2,1.2,0.8,1.2c0.6,0,1.4-0.4,1.4-1.3V282.5z"/>
			<path class="st5" d="M921.3,275.4h2.2v11.4h-2.2V275.4z"/>
			<path class="st5" d="M930.1,285.8L930.1,285.8c-0.5,0.8-1.3,1.2-2.2,1.2c-1.4,0-2.2-0.8-2.2-2.4v-6.4h2.2v5.9
				c0,0.9,0.3,1.2,0.9,1.2c0.8,0,1.2-0.5,1.2-1.4v-5.7h2.2v8.6h-2.1V285.8z"/>
			<path class="st5" d="M876.3,291.4l2.8,7.8h0v-7.8h2.1v11.4h-2.6l-2.8-8h0v8h-2.1v-11.4H876.3z"/>
			<path class="st5" d="M883.4,296.9v-0.2c0-2,1.4-2.7,3-2.7c2.6,0,3.1,1.1,3.1,2.6v4.5c0,0.8,0,1.2,0.3,1.7h-2.1
				c-0.1-0.3-0.2-0.6-0.3-0.9h0c-0.5,0.9-1.1,1.1-2.2,1.1c-1.5,0-2.1-1.3-2.1-2.5c0-1.6,0.7-2.3,2.2-2.7l1.2-0.3
				c0.7-0.2,0.9-0.4,0.9-1c0-0.7-0.3-1.1-1-1.1c-0.7,0-1,0.4-1,1.1v0.2H883.4z M887.4,298.5c-0.3,0.2-0.7,0.4-0.9,0.4
				c-0.9,0.2-1.2,0.6-1.2,1.4c0,0.7,0.2,1.2,0.8,1.2c0.6,0,1.4-0.4,1.4-1.3V298.5z"/>
			<path class="st5" d="M892.2,291.7h2.2v2.5h1.3v1.5h-1.3v4.7c0,0.7,0.1,0.9,0.8,0.9c0.2,0,0.4,0,0.5,0v1.5c-0.5,0-0.9,0.1-1.4,0.1
				c-1.7,0-2-0.5-2-2.3v-4.9h-1.1v-1.5h1.1V291.7z"/>
			<path class="st5" d="M897.2,291.3h2.2v1.9h-2.2V291.3z M897.2,294.2h2.2v8.6h-2.2V294.2z"/>
			<path class="st5" d="M904.7,294c2.7,0,3.4,1.5,3.4,4.5c0,2.9-0.9,4.5-3.4,4.5c-2.7,0-3.4-1.5-3.4-4.5
				C901.3,295.6,902.2,294,904.7,294z M904.7,301.5c0.9,0,1.2-0.9,1.2-3s-0.3-3-1.2-3c-1.1,0-1.2,1.3-1.2,3S903.6,301.5,904.7,301.5
				z"/>
			<path class="st5" d="M909.9,294.2h2.1v1h0c0.5-0.8,1.3-1.2,2.2-1.2c1.4,0,2.2,0.8,2.2,2.4v6.4h-2.2v-5.9c0-0.9-0.3-1.2-0.9-1.2
				c-0.8,0-1.2,0.5-1.2,1.4v5.7h-2.2V294.2z"/>
			<path class="st5" d="M918.5,296.9v-0.2c0-2,1.4-2.7,3-2.7c2.6,0,3.1,1.1,3.1,2.6v4.5c0,0.8,0,1.2,0.3,1.7h-2.1
				c-0.1-0.3-0.2-0.6-0.3-0.9h0c-0.5,0.9-1.1,1.1-2.2,1.1c-1.5,0-2.1-1.3-2.1-2.5c0-1.6,0.7-2.3,2.2-2.7l1.2-0.3
				c0.7-0.2,0.9-0.4,0.9-1c0-0.7-0.3-1.1-1-1.1c-0.7,0-1,0.4-1,1.1v0.2H918.5z M922.6,298.5c-0.3,0.2-0.7,0.4-0.9,0.4
				c-0.9,0.2-1.2,0.6-1.2,1.4c0,0.7,0.2,1.2,0.8,1.2c0.6,0,1.4-0.4,1.4-1.3V298.5z"/>
			<path class="st5" d="M927,291.4h2.2v11.4H927V291.4z"/>
			<path class="st5" d="M931.4,294.2h2.1v0.9h0c0.5-0.8,1.1-1.1,2-1.1c1.8,0,2.6,1.3,2.6,4.5s-0.8,4.5-2.6,4.5c-0.8,0-1.4-0.3-1.9-1
				h0v3.6h-2.2V294.2z M934.7,301.4c1,0,1.2-1,1.2-2.8s-0.2-2.8-1.2-2.8c-1,0-1.2,1-1.2,2.8S933.8,301.4,934.7,301.4z"/>
			<path class="st5" d="M940,296.9v-0.2c0-2,1.4-2.7,3-2.7c2.6,0,3.1,1.1,3.1,2.6v4.5c0,0.8,0,1.2,0.3,1.7h-2.1
				c-0.1-0.3-0.2-0.6-0.3-0.9h0c-0.5,0.9-1.1,1.1-2.2,1.1c-1.5,0-2.1-1.3-2.1-2.5c0-1.6,0.7-2.3,2.2-2.7l1.2-0.3
				c0.7-0.2,0.9-0.4,0.9-1c0-0.7-0.3-1.1-1-1.1c-0.7,0-1,0.4-1,1.1v0.2H940z M944,298.5c-0.3,0.2-0.7,0.4-0.9,0.4
				c-0.9,0.2-1.2,0.6-1.2,1.4c0,0.7,0.2,1.2,0.8,1.2c0.6,0,1.4-0.4,1.4-1.3V298.5z"/>
			<path class="st5" d="M948.3,294.2h2.1v1.2h0c0.4-0.8,1.1-1.4,2-1.4c0.1,0,0.3,0,0.4,0v2.1c-0.2,0-0.5,0-0.7,0
				c-0.8,0-1.6,0.4-1.6,1.6v5.2h-2.2V294.2z"/>
			<path class="st5" d="M956.6,291.4v6h0l2.2-3.2h2.4l-2.5,3.4l2.8,5.2h-2.4l-1.8-3.5l-0.8,1v2.5h-2.2v-11.4H956.6z"/>
		</g>
	</g>
	<path class="st5" d="M828.9,273.7c0-2.3,1.9-4.3,4.3-4.3c2.3,0,4.3,1.9,4.3,4.3s-1.9,4.3-4.3,4.3
		C830.8,278,828.9,276.1,828.9,273.7L828.9,273.7z"/>
	<path class="st5" d="M871.4,264.6c0-2.4,1.9-4.3,4.3-4.3c2.3,0,4.3,1.9,4.3,4.3s-1.9,4.3-4.3,4.3
		C873.3,268.9,871.4,266.9,871.4,264.6L871.4,264.6z"/>
	<g>
		<g>
			<path class="st6" d="M671.6,488.6c0,1.1,0.9,1.6,1.9,1.6c0.7,0,1.7-0.2,1.7-1.1c0-0.9-1.3-1.1-2.5-1.4c-1.3-0.3-2.6-0.8-2.6-2.4
				c0-1.8,1.7-2.6,3.2-2.6c1.8,0,3.4,0.8,3.4,2.8h-1.8c-0.1-1-0.8-1.3-1.7-1.3c-0.6,0-1.3,0.3-1.3,1c0,0.7,0.4,0.7,2.6,1.3
				c0.6,0.2,2.5,0.6,2.5,2.5c0,1.6-1.2,2.7-3.6,2.7c-1.9,0-3.7-0.9-3.6-3H671.6z"/>
			<path class="st6" d="M682.8,482.9h1.9l3.2,8.6h-2l-0.6-1.9h-3.2l-0.7,1.9h-1.9L682.8,482.9z M682.7,488.1h2.2l-1.1-3.1h0
				L682.7,488.1z"/>
			<path class="st6" d="M691.1,482.9h4.6c1.5,0,2.5,1.1,2.5,2.4c0,1-0.4,1.8-1.4,2.1v0c0.9,0.2,1.2,1.1,1.2,2c0,0.5,0,1.5,0.4,2
				h-1.9c-0.2-0.5-0.2-1.4-0.3-2.1c-0.1-0.9-0.5-1.3-1.4-1.3H693v3.3h-1.9V482.9z M693,486.7h2.1c0.8,0,1.3-0.4,1.3-1.2
				c0-0.8-0.5-1.2-1.3-1.2H693V486.7z"/>
			<path class="st6" d="M704.5,482.9h1.9l3.2,8.6h-2l-0.6-1.9h-3.2l-0.7,1.9h-1.9L704.5,482.9z M704.3,488.1h2.2l-1.1-3.1h0
				L704.3,488.1z"/>
			<path class="st6" d="M721,491.4h-1.9l-1.5-5.8h0l-1.4,5.8h-1.9l-2.3-8.6h1.9l1.4,5.8h0l1.5-5.8h1.8l1.5,5.9h0l1.4-5.9h1.8
				L721,491.4z"/>
			<path class="st6" d="M728.9,482.9h1.9l3.2,8.6h-2l-0.6-1.9h-3.2l-0.7,1.9h-1.9L728.9,482.9z M728.7,488.1h2.2l-1.1-3.1h0
				L728.7,488.1z"/>
			<path class="st6" d="M737.2,482.9h1.9v3.5l3.3-3.5h2.4l-3.3,3.4l3.7,5.2h-2.4l-2.6-3.8l-1.1,1.1v2.8h-1.9V482.9z"/>
		</g>
	</g>
	<g>
		<g>
			<path class="st6" d="M857.7,329.1c0,1.1,0.9,1.6,1.9,1.6c0.7,0,1.7-0.2,1.7-1.1c0-0.9-1.3-1.1-2.5-1.4c-1.3-0.3-2.6-0.8-2.6-2.4
				c0-1.8,1.7-2.6,3.2-2.6c1.8,0,3.4,0.8,3.4,2.8H861c-0.1-1-0.8-1.3-1.7-1.3c-0.6,0-1.3,0.3-1.3,1c0,0.7,0.4,0.7,2.6,1.3
				c0.6,0.2,2.5,0.6,2.5,2.5c0,1.6-1.2,2.7-3.6,2.7c-1.9,0-3.7-0.9-3.6-3H857.7z"/>
			<path class="st6" d="M868.9,323.4h1.9l3.2,8.6h-2l-0.6-1.9h-3.2l-0.7,1.9h-1.9L868.9,323.4z M868.7,328.7h2.2l-1.1-3.1h0
				L868.7,328.7z"/>
			<path class="st6" d="M877.2,323.4h4c1.6,0,2.7,0.5,2.7,2.1c0,0.8-0.4,1.4-1.2,1.8c1,0.3,1.6,1.1,1.6,2.2c0,1.7-1.5,2.5-3,2.5
				h-4.1V323.4z M879.1,326.9h1.9c0.7,0,1.2-0.3,1.2-1c0-0.8-0.6-1-1.3-1h-1.8V326.9z M879.1,330.5h2c0.7,0,1.4-0.2,1.4-1.1
				c0-0.9-0.6-1.2-1.4-1.2h-2.1V330.5z"/>
			<path class="st6" d="M890.4,323.4h1.9l3.2,8.6h-2l-0.6-1.9h-3.2L889,332h-1.9L890.4,323.4z M890.2,328.7h2.2l-1.1-3.1h0
				L890.2,328.7z"/>
			<path class="st6" d="M898.7,323.4h1.9v3.3h3.5v-3.3h1.9v8.6H904v-3.7h-3.5v3.7h-1.9V323.4z"/>
		</g>
	</g>
	<path class="st1" d="M2,22c-2.7,1.6-3.3,7.7,2,9c5.3,1.2,6.9,0.4,7.3,3.3c0.4,2.9-0.8,7.7,2.4,6.5c3.3-1.2,3.7-8.1,8.6-7.3
		c4.9,0.8,12.2,1.8,12.2-1.9c0-3.8-1.6-7.4,0-9.5c1.6-2-6.5-1.2-8.6-3.3c-2-2-1.2-3.3-6.5,0C14.2,22,12.6,22,7.3,22
		C2,22,4.7,20.4,2,22z"/>
	<path class="st1" d="M48,105.2c-1.8,1.8,1,4.7,0,6.1c-1,1.4-4.9,2.2-3.7,4.9c1.2,2.6,1.8,5.7,1.8,7.7c0,2,3.3,1.6,5.7,1.6
		c2.4,0,6.3-1.2,6.7-4.1c0.4-2.9-0.4-4.9,2.4-7.3c2.7-2.4,3.3-3.7,1.3-5.7c-2-2-3.3-3.9-6.7-3.3C52.1,105.9,48,105.2,48,105.2z"/>
	<path class="st1" d="M74.1,229.3c0,2.4,0.4,6.5,3.5,6.9c3.1,0.4,4.9-0.2,4.5-2.1c-0.4-1.8-1.8-3.2-2.2-4.9
		c-0.4-1.6-1.8-4.1-3.5-3.5C74.7,226.4,74.1,229.3,74.1,229.3z"/>
	<path class="st1" d="M272.5,86.2c-0.4,0.7-2.1,1.9-0.7,2.3c1.4,0.4,3.4-1.4,5-2.3c1.6-0.9,2.2-1.1,1.4-2.2c-0.8-1.1-2.6-0.5-3.3,0
		C274.2,84.5,272.5,86.2,272.5,86.2z"/>
	<path class="st1" d="M288.1,94.3c-1.6,0.6-3.7,4.3-2.2,5.7c1.4,1.3,3.7,1.1,5.1,0c1.8-1.4,2.4-3.1,1.4-4.5
		C291.4,94,289.8,93.6,288.1,94.3z"/>
	<path class="st1" d="M356.9,320c-1.5,0.5-2.2,2.9-1.2,4.4c1,1.5,0.7,2.9-0.5,4.6c-1.2,1.7-2.9,6.6,0,6.6c2.9,0,12.2-0.3,10.3-3.6
		c-1.9-3.2-2.9-3.6-2.7-6.6c0.2-3,1.2-4.9-1.2-5.4C359.3,319.5,356.9,320,356.9,320z"/>
	<path class="st1" d="M328.5,452.2c-4.7,0-6.9,2.4-8.8,3.4c-1.9,1-0.5,3.2-2.2,4.8c-1.7,1.6-6.8,2.6-6.6,4.5c0.2,1.9,2,3.6,5.3,2.9
		c3.2-0.7,5.6-2.4,7.8-0.7c2.2,1.7,3.6,2.9,6.1,2.5c2.5-0.3,4.7-3.6,6.8-3.1c2,0.5,10.5,3.9,11.7,1.5c1.2-2.4,0.2-6.3-3.2-6.4
		c-3.4-0.2-2-0.3-6.4-3.6C334.4,454.9,333.2,452.2,328.5,452.2z"/>
	<g>
		<g>
			<path class="st6" d="M162.6,226.1h3.5l2.7,7.9h0l2.5-7.9h3.5v11.4h-2.4v-8.1h0l-2.8,8.1h-1.9l-2.8-8h0v8h-2.4V226.1z"/>
			<path class="st6" d="M183.4,226.1h2.6l4.3,11.4h-2.6l-0.9-2.5h-4.3l-0.9,2.5h-2.5L183.4,226.1z M183.2,233.1h3l-1.4-4.2h0
				L183.2,233.1z"/>
			<path class="st6" d="M194.4,226.1h2.5v9.3h5.6v2.1h-8.1V226.1z"/>
			<path class="st6" d="M210.2,226.1h2.6l4.3,11.4h-2.6l-0.9-2.5h-4.3l-0.9,2.5h-2.5L210.2,226.1z M210,233.1h3l-1.4-4.2h0
				L210,233.1z"/>
			<path class="st6" d="M224.2,233.1l-4.2-7h2.8l2.7,4.5l2.7-4.5h2.8l-4.2,7v4.4h-2.5V233.1z"/>
			<path class="st6" d="M236.9,233.7c0,1.5,1.2,2.1,2.5,2.1c0.9,0,2.2-0.3,2.2-1.4c0-1.2-1.7-1.4-3.4-1.9c-1.7-0.4-3.4-1.1-3.4-3.2
				c0-2.3,2.2-3.5,4.3-3.5c2.4,0,4.6,1,4.6,3.7h-2.4c-0.1-1.4-1.1-1.7-2.3-1.7c-0.8,0-1.7,0.3-1.7,1.3c0,0.9,0.5,1,3.4,1.7
				c0.8,0.2,3.4,0.7,3.4,3.3c0,2.1-1.6,3.7-4.8,3.7c-2.5,0-4.9-1.2-4.9-4.1H236.9z"/>
			<path class="st6" d="M248.7,226.1h2.5v11.4h-2.5V226.1z"/>
			<path class="st6" d="M259.8,226.1h2.6l4.3,11.4H264l-0.9-2.5h-4.3l-0.9,2.5h-2.5L259.8,226.1z M259.5,233.1h3l-1.4-4.2h0
				L259.5,233.1z"/>
		</g>
	</g>
	<g>
		<g>
			<path class="st8" d="M244.1,496c0,1.5,1.2,2.1,2.5,2.1c0.9,0,2.2-0.3,2.2-1.4c0-1.2-1.7-1.4-3.4-1.9c-1.7-0.4-3.4-1.1-3.4-3.2
				c0-2.3,2.2-3.5,4.3-3.5c2.4,0,4.6,1,4.6,3.7h-2.4c-0.1-1.4-1.1-1.7-2.3-1.7c-0.8,0-1.7,0.3-1.7,1.3c0,0.9,0.5,1,3.4,1.7
				c0.8,0.2,3.4,0.7,3.4,3.3c0,2.1-1.6,3.7-4.8,3.7c-2.5,0-4.9-1.2-4.9-4.1H244.1z"/>
			<path class="st8" d="M255.9,488.4h2.5v11.4h-2.5V488.4z"/>
			<path class="st8" d="M263.8,488.4h2.5l4.8,7.7h0v-7.7h2.4v11.4H271l-4.8-7.7h0v7.7h-2.4V488.4z"/>
			<path class="st8" d="M287.2,498.5c-0.9,1.1-2,1.6-3.1,1.6c-3.5,0-5.6-2.6-5.6-5.9c0-3.4,2.1-6,5.6-6c2.3,0,4.5,1.4,4.8,4h-2.4
				c-0.3-1.3-1.2-1.9-2.4-1.9c-2.3,0-3.1,1.9-3.1,3.9c0,1.9,0.8,3.8,3.1,3.8c1.6,0,2.6-0.9,2.7-2.5h-2.5v-1.9h4.8v6.2h-1.6
				L287.2,498.5z"/>
			<path class="st8" d="M297.4,488.4h2.6l4.3,11.4h-2.6l-0.9-2.5h-4.3l-0.9,2.5H293L297.4,488.4z M297.1,495.4h3l-1.4-4.2h0
				L297.1,495.4z"/>
			<path class="st8" d="M308.4,488.4h5.2c2.8,0,4,1.8,4,3.7s-1.1,3.7-4,3.7h-2.6v4.1h-2.5V488.4z M310.9,493.8h2
				c1.2,0,2.2-0.3,2.2-1.7s-1-1.7-2.2-1.7h-2V493.8z"/>
			<path class="st8" d="M332,495.5c0,3.1-1.8,4.6-4.9,4.6c-3.1,0-4.9-1.5-4.9-4.6v-7.1h2.5v7.1c0,1.2,0.3,2.5,2.4,2.5
				c1.8,0,2.4-0.8,2.4-2.5v-7.1h2.5V495.5z"/>
			<path class="st8" d="M337.3,488.4h6.2c2,0,3.3,1.4,3.3,3.2c0,1.3-0.5,2.4-1.8,2.9v0c1.2,0.3,1.6,1.5,1.7,2.7c0,0.7,0,2.1,0.5,2.7
				h-2.5c-0.3-0.7-0.3-1.8-0.4-2.7c-0.2-1.2-0.6-1.7-1.9-1.7h-2.5v4.5h-2.5V488.4z M339.8,493.6h2.8c1.1,0,1.7-0.5,1.7-1.6
				c0-1.1-0.6-1.6-1.7-1.6h-2.8V493.6z"/>
		</g>
	</g>
	<g>
		<g>
			<path class="st6" d="M706.9,600.2h5.4c2.2,0,3.6,0.7,3.6,2.8c0,1.1-0.6,1.9-1.6,2.4c1.4,0.4,2.1,1.5,2.1,2.9c0,2.3-2,3.3-4,3.3
				h-5.5V600.2z M709.4,604.9h2.5c0.9,0,1.5-0.4,1.5-1.4c0-1.1-0.8-1.3-1.7-1.3h-2.4V604.9z M709.4,609.7h2.7c1,0,1.9-0.3,1.9-1.5
				c0-1.2-0.7-1.6-1.8-1.6h-2.7V609.7z"/>
			<path class="st6" d="M726.4,600c3.5,0,5.6,2.6,5.6,6c0,3.3-2.1,5.9-5.6,5.9c-3.5,0-5.6-2.6-5.6-5.9
				C720.8,602.6,722.9,600,726.4,600z M726.4,609.8c2.3,0,3.1-1.9,3.1-3.8c0-2-0.8-3.9-3.1-3.9s-3.1,1.9-3.1,3.9
				C723.3,607.9,724.2,609.8,726.4,609.8z"/>
			<path class="st6" d="M737,600.2h6.2c2,0,3.3,1.4,3.3,3.2c0,1.3-0.5,2.4-1.8,2.9v0c1.2,0.3,1.6,1.5,1.7,2.7c0,0.7,0,2.1,0.5,2.7
				h-2.5c-0.3-0.7-0.3-1.8-0.4-2.7c-0.2-1.2-0.6-1.7-1.9-1.7h-2.5v4.5H737V600.2z M739.5,605.4h2.8c1.1,0,1.7-0.5,1.7-1.6
				c0-1.1-0.6-1.6-1.7-1.6h-2.8V605.4z"/>
			<path class="st6" d="M751.7,600.2h2.5l4.8,7.7h0v-7.7h2.4v11.4h-2.5l-4.8-7.7h0v7.7h-2.4V600.2z"/>
			<path class="st6" d="M766.8,600.2h8.5v2.1h-6v2.4h5.5v2h-5.5v2.8h6.2v2.1h-8.7V600.2z"/>
			<path class="st6" d="M785.5,600c3.5,0,5.6,2.6,5.6,6c0,3.3-2.1,5.9-5.6,5.9c-3.5,0-5.6-2.6-5.6-5.9
				C779.9,602.6,781.9,600,785.5,600z M785.5,609.8c2.3,0,3.1-1.9,3.1-3.8c0-2-0.8-3.9-3.1-3.9s-3.1,1.9-3.1,3.9
				C782.4,607.9,783.2,609.8,785.5,609.8z"/>
		</g>
	</g>
	<g>
		<g>
			<path class="st8" d="M672,314.5h5.4c2.2,0,3.7,0.7,3.7,2.8c0,1.1-0.6,1.9-1.6,2.4c1.4,0.4,2.1,1.5,2.1,2.9c0,2.3-2,3.3-4,3.3H672
				V314.5z M674.6,319.2h2.5c0.9,0,1.5-0.4,1.5-1.4c0-1.1-0.8-1.3-1.7-1.3h-2.4V319.2z M674.6,324h2.7c1,0,1.9-0.3,1.9-1.5
				c0-1.2-0.7-1.6-1.8-1.6h-2.7V324z"/>
			<path class="st8" d="M686.5,314.5h6.2c2,0,3.3,1.4,3.3,3.2c0,1.3-0.5,2.4-1.8,2.9v0c1.2,0.3,1.6,1.5,1.7,2.7c0,0.7,0,2.1,0.5,2.7
				h-2.5c-0.3-0.7-0.3-1.8-0.4-2.7c-0.2-1.2-0.6-1.7-1.9-1.7H689v4.5h-2.5V314.5z M689,319.7h2.8c1.1,0,1.7-0.5,1.7-1.6
				c0-1.1-0.6-1.6-1.7-1.6H689V319.7z"/>
			<path class="st8" d="M711,321.6c0,3.1-1.8,4.6-4.9,4.6c-3.1,0-4.9-1.5-4.9-4.6v-7.1h2.5v7.1c0,1.2,0.3,2.5,2.4,2.5
				c1.8,0,2.4-0.8,2.4-2.5v-7.1h2.5V321.6z"/>
			<path class="st8" d="M716.3,314.5h2.5l4.8,7.7h0v-7.7h2.4V326h-2.5l-4.8-7.7h0v7.7h-2.4V314.5z"/>
			<path class="st8" d="M731.4,314.5h8.5v2.1h-6v2.4h5.5v2h-5.5v2.8h6.2v2.1h-8.7V314.5z"/>
			<path class="st8" d="M744.9,314.5h2.5V326h-2.5V314.5z"/>
		</g>
	</g>
	<g>
		<path class="st5" d="M467,542.9v4.6h0l2.9-4.6h2.5l-3.1,4.9l3.5,6.5h-2.6l-2.4-4.7l-0.8,1.3v3.4h-2.3v-11.4H467z"/>
		<path class="st5" d="M478.3,553.3L478.3,553.3c-0.5,0.8-1.3,1.2-2.2,1.2c-1.4,0-2.2-0.8-2.2-2.4v-6.4h2.2v5.9
			c0,0.9,0.3,1.2,0.9,1.2c0.8,0,1.2-0.5,1.2-1.4v-5.7h2.2v8.6h-2.1V553.3z"/>
		<path class="st5" d="M486.6,548.8c0-0.8-0.2-1.7-1-1.7c-1.1,0-1.3,1-1.3,2.9c0,2.1,0.2,3,1.2,3c0.7,0,1.1-0.6,1.1-2h2.1
			c0,2.3-0.9,3.5-3.3,3.5c-2.2,0-3.3-1.1-3.3-4.5c0-3.5,1.5-4.5,3.5-4.5c2,0,3.1,1.3,3.1,3.3H486.6z"/>
		<path class="st5" d="M490.5,542.9h2.2v3.7h0c0.4-0.7,1.2-1.1,2.1-1.1c1.4,0,2.2,0.8,2.2,2.4v6.4h-2.2v-5.9c0-0.9-0.3-1.2-0.9-1.2
			c-0.8,0-1.2,0.5-1.2,1.4v5.7h-2.2V542.9z"/>
		<path class="st5" d="M499.3,542.7h2.2v1.9h-2.2V542.7z M499.3,545.7h2.2v8.6h-2.2V545.7z"/>
		<path class="st5" d="M503.7,545.7h2.1v1h0c0.5-0.8,1.3-1.2,2.2-1.2c1.4,0,2.2,0.8,2.2,2.4v6.4H508v-5.9c0-0.9-0.3-1.2-0.9-1.2
			c-0.8,0-1.2,0.5-1.2,1.4v5.7h-2.2V545.7z"/>
		<path class="st5" d="M518.7,545.7v8.2c0,2.3-1,3.4-3.6,3.4c-1.9,0-2.9-0.8-2.9-2.3h2.1c0,0.3,0.1,0.5,0.3,0.7s0.5,0.2,0.7,0.2
			c0.9,0,1.2-0.7,1.2-1.6v-1.1h0c-0.4,0.6-1.1,1.1-1.8,1.1c-1.8,0-2.6-1.2-2.6-4.4c0-2,0.3-4.4,2.7-4.4c0.6,0,1.4,0.3,1.8,1.2h0v-1
			H518.7z M515.4,552.5c0.9,0,1.2-1,1.2-2.5c0-2.1-0.3-2.9-1.2-2.9c-1,0-1.2,0.8-1.2,3.1C514.3,551.4,514.5,552.5,515.4,552.5z"/>
	</g>
	<g>
		<path class="st5" d="M547.2,542.9h3.9c1.9,0,3.2,0.7,3.2,2.9c0,1.2-0.6,2.2-1.7,2.5v0c1.3,0.2,2.1,1.1,2.1,2.7
			c0,1.8-0.9,3.3-3.6,3.3h-3.9V542.9z M549.5,547.5h0.7c1.3,0,1.8-0.4,1.8-1.5c0-1.1-0.5-1.5-1.7-1.5h-0.8V547.5z M549.5,552.6h0.9
			c1.1,0,1.9-0.4,1.9-1.7s-0.8-1.7-1.8-1.7h-1V552.6z"/>
		<path class="st5" d="M556.7,548.3v-0.2c0-2,1.4-2.7,3-2.7c2.6,0,3.1,1.1,3.1,2.6v4.5c0,0.8,0,1.2,0.3,1.7H561
			c-0.1-0.3-0.2-0.6-0.3-0.9h0c-0.5,0.9-1.1,1.1-2.2,1.1c-1.5,0-2.1-1.3-2.1-2.5c0-1.6,0.7-2.3,2.2-2.7l1.2-0.3
			c0.7-0.2,0.9-0.4,0.9-1c0-0.7-0.3-1.1-1-1.1c-0.7,0-1,0.4-1,1.1v0.2H556.7z M560.7,550c-0.3,0.2-0.7,0.4-0.9,0.4
			c-0.9,0.2-1.2,0.6-1.2,1.4c0,0.7,0.2,1.2,0.8,1.2c0.6,0,1.4-0.4,1.4-1.3V550z"/>
		<path class="st5" d="M567.3,542.9v6h0l2.2-3.2h2.4l-2.5,3.4l2.8,5.2H570l-1.8-3.5l-0.8,1v2.5h-2.2v-11.4H567.3z"/>
		<path class="st5" d="M576.8,545.5c2.7,0,3.4,1.5,3.4,4.5c0,2.9-0.9,4.5-3.4,4.5c-2.7,0-3.4-1.5-3.4-4.5
			C573.4,547,574.3,545.5,576.8,545.5z M576.8,553c0.9,0,1.2-0.9,1.2-3s-0.3-3-1.2-3c-1.1,0-1.2,1.3-1.2,3S575.7,553,576.8,553z"/>
		<path class="st5" d="M549.9,558.9l2.8,7.8h0v-7.8h2.1v11.4h-2.6l-2.8-8h0v8h-2.1v-11.4H549.9z"/>
		<path class="st5" d="M557,564.3v-0.2c0-2,1.4-2.7,3-2.7c2.6,0,3.1,1.1,3.1,2.6v4.5c0,0.8,0,1.2,0.3,1.7h-2.1
			c-0.1-0.3-0.2-0.6-0.3-0.9h0c-0.5,0.9-1.1,1.1-2.2,1.1c-1.5,0-2.1-1.3-2.1-2.5c0-1.6,0.7-2.3,2.2-2.7l1.2-0.3
			c0.7-0.2,0.9-0.4,0.9-1c0-0.7-0.3-1.1-1-1.1c-0.7,0-1,0.4-1,1.1v0.2H557z M561,566c-0.3,0.2-0.7,0.4-0.9,0.4
			c-0.9,0.2-1.2,0.6-1.2,1.4c0,0.7,0.2,1.2,0.8,1.2c0.6,0,1.4-0.4,1.4-1.3V566z"/>
		<path class="st5" d="M565.8,559.2h2.2v2.5h1.3v1.5H568v4.7c0,0.7,0.1,0.9,0.8,0.9c0.2,0,0.4,0,0.5,0v1.5c-0.5,0-0.9,0.1-1.4,0.1
			c-1.7,0-2-0.5-2-2.3v-4.9h-1.1v-1.5h1.1V559.2z"/>
		<path class="st5" d="M570.8,558.7h2.2v1.9h-2.2V558.7z M570.8,561.7h2.2v8.6h-2.2V561.7z"/>
		<path class="st5" d="M578.3,561.5c2.7,0,3.4,1.5,3.4,4.5c0,2.9-0.9,4.5-3.4,4.5c-2.7,0-3.4-1.5-3.4-4.5
			C574.9,563,575.8,561.5,578.3,561.5z M578.3,569c0.9,0,1.2-0.9,1.2-3s-0.3-3-1.2-3c-1.1,0-1.2,1.3-1.2,3S577.2,569,578.3,569z"/>
		<path class="st5" d="M583.5,561.7h2.1v1h0c0.5-0.8,1.3-1.2,2.2-1.2c1.4,0,2.2,0.8,2.2,2.4v6.4h-2.2v-5.9c0-0.9-0.3-1.2-0.9-1.2
			c-0.8,0-1.2,0.5-1.2,1.4v5.7h-2.2V561.7z"/>
		<path class="st5" d="M592.1,564.3v-0.2c0-2,1.4-2.7,3-2.7c2.6,0,3.1,1.1,3.1,2.6v4.5c0,0.8,0,1.2,0.3,1.7h-2.1
			c-0.1-0.3-0.2-0.6-0.3-0.9h0c-0.5,0.9-1.1,1.1-2.2,1.1c-1.5,0-2.1-1.3-2.1-2.5c0-1.6,0.7-2.3,2.2-2.7l1.2-0.3
			c0.7-0.2,0.9-0.4,0.9-1c0-0.7-0.3-1.1-1-1.1c-0.7,0-1,0.4-1,1.1v0.2H592.1z M596.2,566c-0.3,0.2-0.7,0.4-0.9,0.4
			c-0.9,0.2-1.2,0.6-1.2,1.4c0,0.7,0.2,1.2,0.8,1.2c0.6,0,1.4-0.4,1.4-1.3V566z"/>
		<path class="st5" d="M600.6,558.9h2.2v11.4h-2.2V558.9z"/>
		<path class="st5" d="M605,561.7h2.1v0.9h0c0.5-0.8,1.1-1.1,2-1.1c1.8,0,2.6,1.3,2.6,4.5s-0.8,4.5-2.6,4.5c-0.8,0-1.4-0.3-1.9-1h0
			v3.6H605V561.7z M608.3,568.8c1,0,1.2-1,1.2-2.8c0-1.9-0.2-2.8-1.2-2.8c-1,0-1.2,1-1.2,2.8C607.2,567.9,607.4,568.8,608.3,568.8z"
			/>
		<path class="st5" d="M613.6,564.3v-0.2c0-2,1.4-2.7,3-2.7c2.6,0,3.1,1.1,3.1,2.6v4.5c0,0.8,0,1.2,0.3,1.7h-2.1
			c-0.1-0.3-0.2-0.6-0.3-0.9h0c-0.5,0.9-1.1,1.1-2.2,1.1c-1.5,0-2.1-1.3-2.1-2.5c0-1.6,0.7-2.3,2.2-2.7l1.2-0.3
			c0.7-0.2,0.9-0.4,0.9-1c0-0.7-0.3-1.1-1-1.1c-0.7,0-1,0.4-1,1.1v0.2H613.6z M617.6,566c-0.3,0.2-0.7,0.4-0.9,0.4
			c-0.9,0.2-1.2,0.6-1.2,1.4c0,0.7,0.2,1.2,0.8,1.2c0.6,0,1.4-0.4,1.4-1.3V566z"/>
		<path class="st5" d="M621.9,561.7h2.1v1.2h0c0.4-0.8,1.1-1.4,2-1.4c0.1,0,0.3,0,0.4,0v2.1c-0.2,0-0.5,0-0.7,0
			c-0.8,0-1.6,0.4-1.6,1.6v5.2h-2.2V561.7z"/>
		<path class="st5" d="M630.2,558.9v6h0l2.2-3.2h2.4l-2.5,3.4l2.8,5.2h-2.4l-1.8-3.5l-0.8,1v2.5H628v-11.4H630.2z"/>
	</g>
	<g>
		<path class="st5" d="M287.9,66.6h4c2.3,0,3.1,1.7,3.1,3.4c0,2.4-1.5,3.4-3.6,3.4h-1.2V78h-2.3V66.6z M290.2,71.8h1
			c0.9,0,1.5-0.5,1.5-1.7c0-1.1-0.4-1.8-1.6-1.8h-1V71.8z"/>
		<path class="st5" d="M301.1,77L301.1,77c-0.5,0.8-1.3,1.2-2.2,1.2c-1.4,0-2.2-0.8-2.2-2.4v-6.4h2.2v5.9c0,0.9,0.3,1.2,0.9,1.2
			c0.8,0,1.2-0.5,1.2-1.4v-5.7h2.2V78h-2.1V77z"/>
		<path class="st5" d="M305.5,66.6h2.2V78h-2.2V66.6z"/>
		<path class="st5" d="M309.8,72v-0.2c0-2,1.4-2.7,3-2.7c2.6,0,3.1,1.1,3.1,2.6v4.5c0,0.8,0,1.2,0.3,1.7h-2.1
			c-0.1-0.3-0.2-0.6-0.3-0.9h0c-0.5,0.9-1.1,1.1-2.2,1.1c-1.5,0-2.1-1.3-2.1-2.5c0-1.6,0.7-2.3,2.2-2.7l1.2-0.3
			c0.7-0.2,0.9-0.4,0.9-1c0-0.7-0.3-1.1-1-1.1c-0.7,0-1,0.4-1,1.1V72H309.8z M313.9,73.7c-0.3,0.2-0.7,0.4-0.9,0.4
			c-0.9,0.2-1.2,0.6-1.2,1.4c0,0.7,0.2,1.2,0.8,1.2s1.4-0.4,1.4-1.3V73.7z"/>
		<path class="st5" d="M322.6,77L322.6,77c-0.5,0.8-1.3,1.2-2.2,1.2c-1.4,0-2.2-0.8-2.2-2.4v-6.4h2.2v5.9c0,0.9,0.3,1.2,0.9,1.2
			c0.8,0,1.2-0.5,1.2-1.4v-5.7h2.2V78h-2.1V77z"/>
		<path class="st5" d="M331.4,66.6h4c2.3,0,3.1,1.7,3.1,3.4c0,2.4-1.5,3.4-3.6,3.4h-1.2V78h-2.3V66.6z M333.7,71.8h1
			c0.9,0,1.5-0.5,1.5-1.7c0-1.1-0.4-1.8-1.6-1.8h-1V71.8z"/>
		<path class="st5" d="M342.1,74v0.7c0,1,0.3,2,1.1,2c0.7,0,1-0.6,1.2-1.6h2c-0.1,2-1,3.1-3.1,3.1c-3.2,0-3.3-2.5-3.3-4.6
			c0-2.3,0.4-4.4,3.4-4.4c2.6,0,3.2,1.7,3.2,4.4V74H342.1z M344.4,72.7c0-1.3-0.2-2-1.1-2c-0.9,0-1.1,0.9-1.1,1.7v0.3H344.4z"/>
		<path class="st5" d="M348.3,69.4h2.1v1.2h0c0.4-0.8,1.1-1.4,2-1.4c0.1,0,0.3,0,0.4,0v2.1c-0.2,0-0.5,0-0.7,0
			c-0.8,0-1.6,0.4-1.6,1.6V78h-2.2V69.4z"/>
		<path class="st5" d="M354.3,66.6h2.2v3.7h0c0.4-0.7,1.2-1.1,2.1-1.1c1.4,0,2.2,0.8,2.2,2.4V78h-2.2v-5.9c0-0.9-0.3-1.2-0.9-1.2
			c-0.8,0-1.2,0.5-1.2,1.4V78h-2.2V66.6z"/>
		<path class="st5" d="M364.8,74v0.7c0,1,0.3,2,1.1,2c0.7,0,1-0.6,1.2-1.6h2c-0.1,2-1,3.1-3.1,3.1c-3.2,0-3.3-2.5-3.3-4.6
			c0-2.3,0.4-4.4,3.4-4.4c2.6,0,3.2,1.7,3.2,4.4V74H364.8z M367.1,72.7c0-1.3-0.2-2-1.1-2c-0.9,0-1.1,0.9-1.1,1.7v0.3H367.1z"/>
		<path class="st5" d="M371,69.4h2.1v1h0c0.5-0.8,1.3-1.2,2.2-1.2c1.4,0,2.2,0.8,2.2,2.4V78h-2.2v-5.9c0-0.9-0.3-1.2-0.9-1.2
			c-0.8,0-1.2,0.5-1.2,1.4V78H371V69.4z"/>
		<path class="st5" d="M380.1,66.9h2.2v2.5h1.3v1.5h-1.3v4.7c0,0.7,0.1,0.9,0.8,0.9c0.2,0,0.4,0,0.5,0V78c-0.5,0-0.9,0.1-1.4,0.1
			c-1.7,0-2-0.5-2-2.3v-4.9H379v-1.5h1.1V66.9z"/>
		<path class="st5" d="M385.1,66.5h2.2v1.9h-2.2V66.5z M385.1,69.4h2.2V78h-2.2V69.4z"/>
		<path class="st5" d="M389.4,72v-0.2c0-2,1.4-2.7,3-2.7c2.6,0,3.1,1.1,3.1,2.6v4.5c0,0.8,0,1.2,0.3,1.7h-2.1
			c-0.1-0.3-0.2-0.6-0.3-0.9h0c-0.5,0.9-1.1,1.1-2.2,1.1c-1.5,0-2.1-1.3-2.1-2.5c0-1.6,0.7-2.3,2.2-2.7l1.2-0.3
			c0.7-0.2,0.9-0.4,0.9-1c0-0.7-0.3-1.1-1-1.1c-0.7,0-1,0.4-1,1.1V72H389.4z M393.5,73.7c-0.3,0.2-0.7,0.4-0.9,0.4
			c-0.9,0.2-1.2,0.6-1.2,1.4c0,0.7,0.2,1.2,0.8,1.2s1.4-0.4,1.4-1.3V73.7z"/>
		<path class="st5" d="M397.8,69.4h2.1v1h0c0.5-0.8,1.3-1.2,2.2-1.2c1.4,0,2.2,0.8,2.2,2.4V78h-2.2v-5.9c0-0.9-0.3-1.2-0.9-1.2
			c-0.8,0-1.2,0.5-1.2,1.4V78h-2.2V69.4z"/>
	</g>
	<g>
		<path class="st5" d="M159.4,74.3v4.6h0l2.9-4.6h2.5l-3.1,4.9l3.5,6.5h-2.6l-2.4-4.7l-0.8,1.3v3.4h-2.3V74.3H159.4z"/>
		<path class="st5" d="M169.4,76.9c2.7,0,3.4,1.5,3.4,4.5c0,2.9-0.9,4.5-3.4,4.5c-2.7,0-3.4-1.5-3.4-4.5
			C166,78.4,166.8,76.9,169.4,76.9z M169.4,84.4c0.9,0,1.2-0.9,1.2-3s-0.3-3-1.2-3c-1.1,0-1.2,1.3-1.2,3S168.3,84.4,169.4,84.4z"/>
		<path class="st5" d="M175.1,74.6h2.2v2.5h1.3v1.5h-1.3v4.7c0,0.7,0.1,0.9,0.8,0.9c0.2,0,0.4,0,0.5,0v1.5c-0.5,0-0.9,0.1-1.4,0.1
			c-1.7,0-2-0.5-2-2.3v-4.9H174v-1.5h1.1V74.6z"/>
		<path class="st5" d="M180,79.7v-0.2c0-2,1.4-2.7,3-2.7c2.6,0,3.1,1.1,3.1,2.6V84c0,0.8,0,1.2,0.3,1.7h-2.1
			c-0.1-0.3-0.2-0.6-0.3-0.9h0c-0.5,0.9-1.1,1.1-2.2,1.1c-1.5,0-2.1-1.3-2.1-2.5c0-1.6,0.7-2.3,2.2-2.7l1.2-0.3
			c0.7-0.2,0.9-0.4,0.9-1c0-0.7-0.3-1.1-1-1.1c-0.7,0-1,0.4-1,1.1v0.2H180z M184,81.4c-0.3,0.2-0.7,0.4-0.9,0.4
			c-0.9,0.2-1.2,0.6-1.2,1.4c0,0.7,0.2,1.2,0.8,1.2s1.4-0.4,1.4-1.3V81.4z"/>
		<path class="st5" d="M192.8,74.3h3.9c1.9,0,3.2,0.7,3.2,2.9c0,1.2-0.6,2.2-1.7,2.5v0c1.3,0.2,2.1,1.1,2.1,2.7
			c0,1.8-0.9,3.3-3.6,3.3h-3.9V74.3z M195.2,79h0.7c1.3,0,1.8-0.4,1.8-1.5c0-1.1-0.5-1.5-1.7-1.5h-0.8V79z M195.2,84h0.9
			c1.1,0,1.9-0.4,1.9-1.7s-0.8-1.7-1.8-1.7h-1V84z"/>
		<path class="st5" d="M202.3,74.3h2.2V78h0c0.4-0.7,1.2-1.1,2.1-1.1c1.4,0,2.2,0.8,2.2,2.4v6.4h-2.2v-5.9c0-0.9-0.3-1.2-0.9-1.2
			c-0.8,0-1.2,0.5-1.2,1.4v5.7h-2.2V74.3z"/>
		<path class="st5" d="M210.9,79.7v-0.2c0-2,1.4-2.7,3-2.7c2.6,0,3.1,1.1,3.1,2.6V84c0,0.8,0,1.2,0.3,1.7h-2.1
			c-0.1-0.3-0.2-0.6-0.3-0.9h0c-0.5,0.9-1.1,1.1-2.2,1.1c-1.5,0-2.1-1.3-2.1-2.5c0-1.6,0.7-2.3,2.2-2.7l1.2-0.3
			c0.7-0.2,0.9-0.4,0.9-1c0-0.7-0.3-1.1-1-1.1c-0.7,0-1,0.4-1,1.1v0.2H210.9z M215,81.4c-0.3,0.2-0.7,0.4-0.9,0.4
			c-0.9,0.2-1.2,0.6-1.2,1.4c0,0.7,0.2,1.2,0.8,1.2s1.4-0.4,1.4-1.3V81.4z"/>
		<path class="st5" d="M219.3,77.1h2.1v1.2h0c0.4-0.8,1.1-1.4,2-1.4c0.1,0,0.3,0,0.4,0V79c-0.2,0-0.5,0-0.7,0
			c-0.8,0-1.6,0.4-1.6,1.6v5.2h-2.2V77.1z"/>
		<path class="st5" d="M229.7,84.7L229.7,84.7c-0.5,0.8-1.3,1.2-2.2,1.2c-1.4,0-2.2-0.8-2.2-2.4v-6.4h2.2V83c0,0.9,0.3,1.2,0.9,1.2
			c0.8,0,1.2-0.5,1.2-1.4v-5.7h2.2v8.6h-2.1V84.7z"/>
	</g>
	<g>
		<path class="st2" d="M530.6,521.8c0,3.4-3.1,6.1-6.9,6.1c-3.8,0-6.9-2.7-6.9-6.1c0-3.4,3.1-6.1,6.9-6.1
			C527.5,515.7,530.6,518.4,530.6,521.8z"/>
		<path class="st9" d="M523.4,512.8c-5,0-9,4-9,9c0,2,1.3,5.3,3.9,10c1.9,3.3,3.7,6.1,3.8,6.2l1.3,2l1.3-2c0.1-0.1,1.9-2.9,3.8-6.2
			c2.6-4.7,3.9-8,3.9-10C532.4,516.8,528.3,512.8,523.4,512.8z M523.4,526.4c-2.6,0-4.7-2.1-4.7-4.7s2.1-4.7,4.7-4.7
			s4.7,2.1,4.7,4.7C528,524.3,526,526.4,523.4,526.4z"/>
	</g>
	<line class="st10" x1="281" y1="82.9" x2="231.3" y2="66.8"/>
	<path class="st5" d="M227.1,66.7c0-2.3,1.9-4.3,4.3-4.3c2.4,0,4.3,1.9,4.3,4.3s-1.9,4.3-4.3,4.3C229,71,227.1,69.1,227.1,66.7
		L227.1,66.7z"/>
	<path class="st11" d="M274.3,82.1c0-2.3,1.9-4.3,4.3-4.3c2.3,0,4.3,1.9,4.3,4.3c0,2.3-1.9,4.3-4.3,4.3
		C276.2,86.4,274.3,84.5,274.3,82.1L274.3,82.1z"/>
</g>
</svg>
