<?xml version="1.0" encoding="utf-8"?>
<!-- Generator: Adobe Illustrator 16.0.0, SVG Export Plug-In . SVG Version: 6.00 Build 0)  -->
<!DOCTYPE svg PUBLIC "-//W3C//DTD SVG 1.1//EN" "http://www.w3.org/Graphics/SVG/1.1/DTD/svg11.dtd">
<svg version="1.1" xmlns="http://www.w3.org/2000/svg" xmlns:xlink="http://www.w3.org/1999/xlink" x="0px" y="0px" width="392px"
	 height="492.486px" viewBox="0 0 392 492.486" enable-background="new 0 0 392 492.486" xml:space="preserve">
<g id="Malysia_Peninsula">
</g>
<g id="Städte">
	<g>
		<path fill="#FFFFFF" d="M69.483,15.791c0,0,2.85-0.815,2.443-5.702C71.52,5.201,74.37-1.012,82.516,2.706
			c8.146,3.718,2.444,17.159,8.553,17.566c6.11,0.408,10.184-3.259,16.292,0c6.11,3.258,16.7-2.036,18.736,3.665
			c2.037,5.703-3.259,18.736,4.48,19.143c7.739,0.408,14.663-4.073,17.106,4.481c2.444,8.553,0.814,24.844-3.258,28.511
			c-4.074,3.666-6.517,6.109-4.889,8.146c1.629,2.037,4.074,8.146,5.703,10.59c1.629,2.443,3.258,2.036,5.294,0
			s2.037-10.998,6.517-11.812c4.48-0.814,15.478-4.479,19.144-6.109c3.665-1.629,10.182-3.258,11.812-0.408
			c1.628,2.853,0.407,12.22,3.665,11.812c3.259-0.407,3.667-1.629,5.295,1.629c1.629,3.259,4.073,6.109,5.702,2.443
			c1.629-3.665,3.259-5.702,6.11-6.517c2.851-0.814,2.036-11.404,5.702-13.848c3.666-2.444,6.517-8.961,8.553-11.812
			c2.036-2.852,0-14.255,0-14.255s5.703,3.258,11.404,7.331c5.702,4.073,2.851,7.739,5.702,8.554
			c2.852,0.814,5.295-4.888,8.146-1.222c2.851,3.666,11.812,26.067,17.514,30.954c5.702,4.888,18.329,22.402,24.845,25.252
			c6.517,2.852,17.106,9.776,27.289,30.14c10.182,20.365,13.848,32.177,13.848,38.286s-3.666,9.368-3.666,12.626
			s6.924,17.106,3.666,23.217c-3.259,6.108-8.554,15.477-10.59,23.623c-2.036,8.146-8.961,16.285-6.924,20.361
			c2.037,4.076,7.739,11.814,7.331,19.554c-0.407,7.739-2.036,23.216-2.443,28.918c-0.408,5.703-6.11,15.07-2.444,18.329
			c3.666,3.258,15.185,13.034,15.942,16.292c0.757,3.258,8.496,9.773,11.754,12.218c3.259,2.442,6.109,2.852,4.072,6.11
			c-2.036,3.258,0.408,9.774,3.259,11.811c2.852,2.037,8.554,6.11,5.702,8.961c-2.851,2.853-1.296,4.072,0.777,7.33
			c2.074,3.259,7.776,7.333,6.961,12.629c-0.814,5.292-3.1,10.181,0.08,13.439c3.18,3.258,10.104,15.07,10.104,21.993
			c0,6.925,0.814,17.515-5.296,18.735c-6.109,1.224-11.812-2.849-13.44-6.108c-1.629-3.259-2.036-6.926-5.294-5.297
			c-3.259,1.631-6.924,1.224-11.405-1.219c-4.479-2.445-10.997-6.518-13.032-2.445c-2.037,4.074-2.852,10.591-7.739,8.961
			c-4.888-1.629-6.517-6.516-6.925-2.851c-0.407,3.664,5.703,11.441-0.407,9.183c-6.11-2.259-16.292-29.141-22.809-31.178
			c-6.517-2.035-30.955-15.069-39.508-20.364c-8.553-5.296-13.44-15.479-19.55-18.327c-6.109-2.853-24.438-11.277-28.917-17.859
			c-4.481-6.58-2.037-6.58-6.925-7.803c-4.888-1.22-13.848-15.883-20.772-18.734c-6.924-2.852-18.328-17.513-25.252-19.958
			c-6.924-2.443-12.218-5.294-10.589-8.553s-1.222-26.067-4.073-32.176c-2.852-6.109-13.034-19.958-14.255-24.845
			c-1.222-4.889-5.703-10.998-9.775-14.256c-4.074-3.258-2.444-8.145,0.815-8.553c3.258-0.407,5.701-3.286,1.222-3.271
			c-4.481,0.013-9.368,1.208-11.404,0c-2.037-1.208,2.036-8.948,0.815-14.648c-1.222-5.703-4.48-10.183-7.332-12.22
			c-2.851-2.036-0.814-11.403-0.814-16.699c0-5.294-0.814-8.961,2.444-12.626c3.258-3.665,4.48-11.405,1.222-15.477
			c-3.259-4.073-0.408-8.554-5.703-13.034c-5.294-4.479-8.146-1.222-10.182-7.331c-2.037-6.11,2.036-10.183,1.629-16.292
			c-0.408-6.109-3.258-28.511-1.629-37.879c1.629-9.368,6.109-18.328,1.629-29.732c-4.48-11.404-16.699-22.402-15.477-31.362
			C67.854,19.457,69.483,15.791,69.483,15.791z"/>
		<path fill="#FFFFFF" d="M7.574,23.53c-2.688,1.592-3.259,7.738,2.036,8.96c5.294,1.222,6.924,0.407,7.332,3.258
			c0.407,2.851-0.815,7.739,2.443,6.516c3.258-1.221,3.665-8.145,8.553-7.33c4.888,0.814,12.219,1.821,12.219-1.94
			s-1.629-7.428,0-9.464c1.63-2.037-6.516-1.222-8.554-3.258c-2.036-2.036-1.221-3.259-6.516,0
			c-5.295,3.258-6.925,3.258-12.219,3.258S10.263,21.937,7.574,23.53z"/>
		<path fill="#FFFFFF" d="M53.599,106.822c-1.833,1.833,1.019,4.685,0,6.109c-1.019,1.426-4.888,2.24-3.666,4.887
			c1.222,2.648,1.823,5.702,1.828,7.739c0.005,2.037,3.263,1.629,5.707,1.629c2.443,0,6.312-1.222,6.72-4.073
			c0.408-2.852-0.374-4.888,2.359-7.332c2.732-2.444,3.343-3.666,1.307-5.703c-2.038-2.036-3.259-3.869-6.72-3.258
			C57.672,107.433,53.599,106.822,53.599,106.822z"/>
		<path fill="#FFFFFF" d="M79.665,230.844c0,2.443,0.407,6.517,3.462,6.924c3.055,0.407,4.888-0.231,4.48-2.05
			s-1.833-3.246-2.24-4.874c-0.407-1.629-1.833-4.074-3.462-3.462C80.276,227.993,79.665,230.844,79.665,230.844z"/>
		<path fill="#FFFFFF" d="M278.046,87.746c-0.434,0.679-2.063,1.901-0.706,2.308c1.357,0.408,3.394-1.358,5.023-2.308
			c1.628-0.95,2.172-1.054,1.357-2.156s-2.599-0.527-3.268,0C279.784,86.118,278.046,87.746,278.046,87.746z"/>
		<path fill="#FFFFFF" d="M293.7,95.824c-1.644,0.647-3.688,4.314-2.241,5.703c1.38,1.322,3.727,1.115,5.093,0
			c1.762-1.44,2.443-3.055,1.424-4.48C296.958,95.622,295.343,95.178,293.7,95.824z"/>
		<path fill="#FFFFFF" d="M362.518,321.567c-1.525,0.51-2.204,2.882-1.187,4.407c1.018,1.526,0.727,2.88-0.484,4.575
			c-1.21,1.697-2.855,6.611,0,6.611c2.857,0,12.179-0.338,10.315-3.559c-1.864-3.22-2.881-3.56-2.712-6.61
			c0.17-3.05,1.187-4.915-1.186-5.424C364.891,321.058,362.518,321.567,362.518,321.567z"/>
		<path opacity="0.6" fill="#FFFFFF" d="M334.042,453.777c-4.746,0-6.949,2.37-8.813,3.389c-1.865,1.019-0.508,3.229-2.204,4.835
			c-1.695,1.606-6.78,2.623-6.611,4.488c0.169,1.865,2.034,3.559,5.254,2.882c3.221-0.68,5.593-2.372,7.797-0.68
			c2.204,1.694,3.56,2.882,6.103,2.544c2.542-0.339,4.745-3.561,6.779-3.053c2.033,0.509,10.509,3.901,11.695,1.527
			c1.187-2.374,0.168-6.271-3.221-6.44c-3.39-0.172-2.034-0.341-6.441-3.562C339.974,456.488,338.788,453.777,334.042,453.777z"/>
		<g>
			<path d="M161.096,319.25v4.006h0.028l2.549-4.006h2.185l-2.717,4.286l3.025,5.715h-2.269l-2.059-4.104l-0.743,1.135v2.97h-2.017
				V319.25H161.096z"/>
			<path d="M170.686,328.368h-0.028c-0.406,0.743-1.106,1.079-1.919,1.079c-1.205,0-1.919-0.658-1.919-2.144v-5.589h1.933v5.197
				c0,0.756,0.252,1.05,0.826,1.05c0.658,0,1.022-0.406,1.022-1.246v-5.001h1.933v7.536h-1.849V328.368z"/>
			<path d="M174.086,324.026v-0.183c0-1.736,1.19-2.325,2.647-2.325c2.297,0,2.731,0.953,2.731,2.312v3.964
				c0,0.7,0.042,1.022,0.238,1.457h-1.849c-0.126-0.238-0.182-0.532-0.238-0.784h-0.028c-0.448,0.784-0.995,0.98-1.919,0.98
				c-1.345,0-1.821-1.148-1.821-2.157c0-1.415,0.574-1.989,1.905-2.354l1.092-0.294c0.575-0.154,0.771-0.378,0.771-0.883
				c0-0.574-0.252-0.924-0.896-0.924c-0.588,0-0.896,0.392-0.896,0.98v0.21H174.086z M177.616,325.483
				c-0.266,0.195-0.588,0.321-0.826,0.378c-0.785,0.168-1.093,0.546-1.093,1.219c0,0.574,0.21,1.05,0.729,1.05
				c0.518,0,1.19-0.336,1.19-1.162V325.483z"/>
			<path d="M181.184,319.25h1.933v10.001h-1.933V319.25z"/>
			<path d="M184.74,324.026v-0.183c0-1.736,1.19-2.325,2.647-2.325c2.297,0,2.731,0.953,2.731,2.312v3.964
				c0,0.7,0.042,1.022,0.238,1.457h-1.849c-0.126-0.238-0.182-0.532-0.238-0.784h-0.028c-0.448,0.784-0.995,0.98-1.919,0.98
				c-1.345,0-1.821-1.148-1.821-2.157c0-1.415,0.574-1.989,1.905-2.354l1.092-0.294c0.575-0.154,0.771-0.378,0.771-0.883
				c0-0.574-0.252-0.924-0.896-0.924c-0.588,0-0.896,0.392-0.896,0.98v0.21H184.74z M188.27,325.483
				c-0.266,0.195-0.588,0.321-0.826,0.378c-0.785,0.168-1.093,0.546-1.093,1.219c0,0.574,0.21,1.05,0.729,1.05
				c0.518,0,1.19-0.336,1.19-1.162V325.483z"/>
			<path d="M195.464,329.25V319.25h2.017v8.348h3.572v1.653H195.464z"/>
			<path d="M206.036,328.368h-0.028c-0.406,0.743-1.106,1.079-1.919,1.079c-1.205,0-1.919-0.658-1.919-2.144v-5.589h1.933v5.197
				c0,0.756,0.252,1.05,0.826,1.05c0.658,0,1.022-0.406,1.022-1.246v-5.001h1.933v7.536h-1.849V328.368z"/>
			<path d="M209.45,321.714h1.849v0.771h0.028c0.49-0.687,1.092-0.967,1.905-0.967c0.883,0,1.527,0.435,1.737,1.205h0.028
				c0.294-0.799,0.995-1.205,1.905-1.205c1.275,0,1.877,0.799,1.877,2.256v5.477h-1.933v-5.267c0-0.631-0.21-0.98-0.757-0.98
				c-0.616,0-1.008,0.42-1.008,1.288v4.959h-1.933v-5.267c0-0.631-0.21-0.98-0.756-0.98c-0.616,0-1.008,0.42-1.008,1.288v4.959
				h-1.933V321.714z"/>
			<path d="M220.342,321.714h1.849v0.799h0.028c0.42-0.701,0.953-0.995,1.709-0.995c1.583,0,2.311,1.163,2.311,3.965
				c0,2.801-0.729,3.964-2.311,3.964c-0.729,0-1.219-0.294-1.625-0.896h-0.028v3.165h-1.933V321.714z M223.297,327.961
				c0.84,0,1.008-0.84,1.008-2.479c0-1.64-0.168-2.479-1.008-2.479c-0.854,0-1.022,0.84-1.022,2.479
				C222.275,327.122,222.443,327.961,223.297,327.961z"/>
			<path d="M231.487,328.368h-0.028c-0.406,0.743-1.106,1.079-1.919,1.079c-1.205,0-1.919-0.658-1.919-2.144v-5.589h1.933v5.197
				c0,0.756,0.252,1.05,0.827,1.05c0.658,0,1.022-0.406,1.022-1.246v-5.001h1.933v7.536h-1.849V328.368z"/>
			<path d="M234.902,321.714h1.849v1.009h0.028c0.392-0.729,0.938-1.205,1.737-1.205c0.112,0,0.238,0.015,0.35,0.028v1.849
				c-0.196-0.014-0.406-0.027-0.602-0.027c-0.672,0-1.429,0.35-1.429,1.358v4.524h-1.933V321.714z"/>
		</g>
		<path d="M151.292,308.32c0-2.35,1.904-4.251,4.251-4.251c2.351,0,4.253,1.901,4.253,4.251s-1.902,4.251-4.253,4.251
			C153.196,312.571,151.292,310.67,151.292,308.32L151.292,308.32z"/>
		<g>
			<path fill="#FFFFFF" d="M245.963,46.1v4.006h0.028l2.549-4.006h2.185l-2.717,4.286l3.025,5.715h-2.269l-2.059-4.104l-0.743,1.135
				v2.97h-2.017V46.1H245.963z"/>
			<path fill="#FFFFFF" d="M254.405,48.369c2.325-0.042,2.97,1.345,2.97,3.965c0,2.577-0.756,3.964-2.97,3.964
				c-2.325,0.042-2.97-1.345-2.97-3.964C251.435,49.755,252.191,48.369,254.405,48.369z M254.405,54.98
				c0.784,0,1.037-0.77,1.037-2.646c0-1.878-0.252-2.647-1.037-2.647c-0.953,0-1.037,1.106-1.037,2.647
				C253.368,53.874,253.452,54.98,254.405,54.98z"/>
			<path fill="#FFFFFF" d="M259.107,46.408h1.933v2.157h1.121v1.316h-1.121v4.076c0,0.589,0.126,0.827,0.687,0.827
				c0.154,0,0.308-0.015,0.434-0.028v1.345c-0.42,0.042-0.812,0.084-1.261,0.084c-1.513,0-1.793-0.462-1.793-1.989v-4.314h-0.98
				v-1.316h0.98V46.408z"/>
			<path fill="#FFFFFF" d="M263.097,50.876v-0.183c0-1.736,1.19-2.325,2.647-2.325c2.297,0,2.731,0.953,2.731,2.312v3.964
				c0,0.7,0.042,1.022,0.238,1.457h-1.849c-0.126-0.238-0.182-0.532-0.238-0.784h-0.028c-0.448,0.784-0.995,0.98-1.919,0.98
				c-1.345,0-1.821-1.148-1.821-2.157c0-1.415,0.574-1.989,1.905-2.354l1.092-0.294c0.575-0.154,0.771-0.378,0.771-0.883
				c0-0.574-0.252-0.924-0.896-0.924c-0.588,0-0.896,0.392-0.896,0.98v0.21H263.097z M266.627,52.333
				c-0.266,0.195-0.588,0.321-0.826,0.378c-0.785,0.168-1.093,0.546-1.093,1.219c0,0.574,0.21,1.05,0.729,1.05
				c0.518,0,1.19-0.336,1.19-1.162V52.333z"/>
			<path fill="#FFFFFF" d="M273.821,46.1h3.376c1.653,0,2.844,0.616,2.844,2.535c0,1.078-0.519,1.905-1.513,2.185v0.028
				c1.107,0.154,1.821,0.995,1.821,2.325c0,1.569-0.771,2.928-3.124,2.928h-3.404V46.1z M275.838,50.204h0.575
				c1.106,0,1.611-0.378,1.611-1.316c0-0.952-0.462-1.303-1.457-1.303h-0.729V50.204z M275.838,54.617h0.785
				c0.966,0,1.625-0.351,1.625-1.514c0-1.162-0.659-1.498-1.541-1.498h-0.869V54.617z"/>
			<path fill="#FFFFFF" d="M281.83,46.1h1.933v3.235h0.028c0.364-0.645,1.022-0.967,1.835-0.967c1.205,0,1.919,0.658,1.919,2.144
				v5.589h-1.933v-5.197c0-0.756-0.252-1.05-0.826-1.05c-0.659,0-1.023,0.406-1.023,1.246v5.001h-1.933V46.1z"/>
			<path fill="#FFFFFF" d="M289.095,50.876v-0.183c0-1.736,1.19-2.325,2.647-2.325c2.297,0,2.731,0.953,2.731,2.312v3.964
				c0,0.7,0.042,1.022,0.238,1.457h-1.849c-0.126-0.238-0.182-0.532-0.238-0.784h-0.028c-0.448,0.784-0.995,0.98-1.919,0.98
				c-1.345,0-1.821-1.148-1.821-2.157c0-1.415,0.574-1.989,1.905-2.354l1.092-0.294c0.575-0.154,0.771-0.378,0.771-0.883
				c0-0.574-0.252-0.924-0.896-0.924c-0.588,0-0.896,0.392-0.896,0.98v0.21H289.095z M292.625,52.333
				c-0.266,0.195-0.588,0.321-0.826,0.378c-0.785,0.168-1.093,0.546-1.093,1.219c0,0.574,0.21,1.05,0.729,1.05
				c0.518,0,1.19-0.336,1.19-1.162V52.333z"/>
			<path fill="#FFFFFF" d="M296.124,48.565h1.849v1.009H298c0.392-0.729,0.938-1.205,1.737-1.205c0.112,0,0.238,0.015,0.35,0.028
				v1.849c-0.196-0.014-0.406-0.027-0.602-0.027c-0.672,0-1.429,0.35-1.429,1.358v4.524h-1.933V48.565z"/>
			<path fill="#FFFFFF" d="M304.931,55.218h-0.028c-0.406,0.743-1.106,1.079-1.919,1.079c-1.205,0-1.919-0.658-1.919-2.144v-5.589
				h1.933v5.197c0,0.756,0.252,1.05,0.826,1.05c0.658,0,1.022-0.406,1.022-1.246v-5.001h1.933v7.536h-1.849V55.218z"/>
		</g>
		<g>
			<path fill="#FFFFFF" d="M293.142,73.698h3.53c2.045,0,2.745,1.498,2.745,2.997c0,2.073-1.274,3.012-3.18,3.012h-1.079v3.992
				h-2.017V73.698z M295.159,78.222h0.896c0.799,0,1.345-0.477,1.345-1.499c0-0.98-0.392-1.541-1.4-1.541h-0.841V78.222z"/>
			<path fill="#FFFFFF" d="M304.498,82.816h-0.028c-0.406,0.743-1.106,1.079-1.919,1.079c-1.205,0-1.919-0.658-1.919-2.144v-5.589
				h1.933v5.197c0,0.756,0.252,1.05,0.827,1.05c0.658,0,1.022-0.406,1.022-1.246v-5.001h1.933v7.536h-1.849V82.816z"/>
			<path fill="#FFFFFF" d="M307.982,73.698h1.933v10.001h-1.933V73.698z"/>
			<path fill="#FFFFFF" d="M311.538,78.474v-0.183c0-1.736,1.19-2.325,2.647-2.325c2.297,0,2.731,0.953,2.731,2.312v3.964
				c0,0.7,0.042,1.022,0.238,1.457h-1.849c-0.126-0.238-0.182-0.532-0.238-0.784h-0.028c-0.448,0.784-0.995,0.98-1.919,0.98
				c-1.345,0-1.821-1.148-1.821-2.157c0-1.415,0.574-1.989,1.905-2.354l1.092-0.294c0.575-0.154,0.771-0.378,0.771-0.883
				c0-0.574-0.252-0.924-0.896-0.924c-0.588,0-0.896,0.392-0.896,0.98v0.21H311.538z M315.068,79.931
				c-0.266,0.195-0.588,0.321-0.826,0.378c-0.785,0.168-1.093,0.546-1.093,1.219c0,0.574,0.21,1.05,0.729,1.05
				c0.518,0,1.19-0.336,1.19-1.162V79.931z"/>
			<path fill="#FFFFFF" d="M322.432,82.816h-0.028c-0.406,0.743-1.106,1.079-1.919,1.079c-1.205,0-1.919-0.658-1.919-2.144v-5.589
				h1.933v5.197c0,0.756,0.252,1.05,0.826,1.05c0.658,0,1.022-0.406,1.022-1.246v-5.001h1.933v7.536h-1.849V82.816z"/>
			<path fill="#FFFFFF" d="M329.542,73.698h3.53c2.045,0,2.745,1.498,2.745,2.997c0,2.073-1.274,3.012-3.18,3.012h-1.079v3.992
				h-2.017V73.698z M331.559,78.222h0.896c0.799,0,1.345-0.477,1.345-1.499c0-0.98-0.392-1.541-1.4-1.541h-0.841V78.222z"/>
			<path fill="#FFFFFF" d="M338.685,80.225v0.603c0,0.882,0.238,1.75,0.952,1.75c0.645,0,0.911-0.49,1.023-1.414h1.737
				c-0.07,1.751-0.911,2.731-2.731,2.731c-2.802,0-2.914-2.157-2.914-4.034c0-2.018,0.392-3.895,2.998-3.895
				c2.255,0,2.759,1.513,2.759,3.824v0.435H338.685z M340.66,79.077c-0.042-1.149-0.182-1.793-0.98-1.793
				c-0.771,0-0.995,0.798-0.995,1.498v0.295H340.66z"/>
			<path fill="#FFFFFF" d="M343.794,76.163h1.849v1.009h0.028c0.392-0.729,0.938-1.205,1.737-1.205c0.112,0,0.238,0.015,0.35,0.028
				v1.849c-0.196-0.014-0.406-0.027-0.602-0.027c-0.672,0-1.429,0.35-1.429,1.358v4.524h-1.933V76.163z"/>
			<path fill="#FFFFFF" d="M348.736,73.698h1.933v3.235h0.028c0.364-0.645,1.022-0.967,1.835-0.967c1.205,0,1.919,0.658,1.919,2.144
				v5.589h-1.933v-5.197c0-0.756-0.252-1.05-0.826-1.05c-0.659,0-1.022,0.406-1.022,1.246v5.001h-1.933V73.698z"/>
			<path fill="#FFFFFF" d="M357.669,80.225v0.603c0,0.882,0.238,1.75,0.953,1.75c0.644,0,0.91-0.49,1.022-1.414h1.737
				c-0.07,1.751-0.911,2.731-2.731,2.731c-2.802,0-2.914-2.157-2.914-4.034c0-2.018,0.392-3.895,2.998-3.895
				c2.255,0,2.759,1.513,2.759,3.824v0.435H357.669z M359.644,79.077c-0.042-1.149-0.182-1.793-0.98-1.793
				c-0.771,0-0.995,0.798-0.995,1.498v0.295H359.644z"/>
			<path fill="#FFFFFF" d="M362.778,76.163h1.849v0.883h0.028c0.406-0.743,1.106-1.079,1.919-1.079c1.205,0,1.919,0.658,1.919,2.144
				v5.589h-1.933v-5.197c0-0.756-0.252-1.05-0.826-1.05c-0.659,0-1.022,0.406-1.022,1.246v5.001h-1.933V76.163z"/>
			<path fill="#FFFFFF" d="M370.478,74.005h1.933v2.157h1.121v1.316h-1.121v4.076c0,0.589,0.126,0.827,0.687,0.827
				c0.154,0,0.308-0.015,0.434-0.028v1.345c-0.42,0.042-0.812,0.084-1.261,0.084c-1.513,0-1.793-0.462-1.793-1.989v-4.314h-0.98
				v-1.316h0.98V74.005z"/>
			<path fill="#FFFFFF" d="M374.552,73.585h1.933v1.652h-1.933V73.585z M374.552,76.163h1.933v7.536h-1.933V76.163z"/>
			<path fill="#FFFFFF" d="M378.108,78.474v-0.183c0-1.736,1.19-2.325,2.647-2.325c2.297,0,2.731,0.953,2.731,2.312v3.964
				c0,0.7,0.042,1.022,0.238,1.457h-1.849c-0.126-0.238-0.182-0.532-0.238-0.784h-0.028c-0.448,0.784-0.995,0.98-1.919,0.98
				c-1.345,0-1.821-1.148-1.821-2.157c0-1.415,0.574-1.989,1.905-2.354l1.092-0.294c0.575-0.154,0.771-0.378,0.771-0.883
				c0-0.574-0.252-0.924-0.896-0.924c-0.588,0-0.896,0.392-0.896,0.98v0.21H378.108z M381.638,79.931
				c-0.266,0.195-0.588,0.321-0.826,0.378c-0.785,0.168-1.093,0.546-1.093,1.219c0,0.574,0.21,1.05,0.729,1.05
				c0.518,0,1.19-0.336,1.19-1.162V79.931z"/>
			<path fill="#FFFFFF" d="M385.136,76.163h1.849v0.883h0.028c0.406-0.743,1.106-1.079,1.919-1.079c1.205,0,1.919,0.658,1.919,2.144
				v5.589h-1.933v-5.197c0-0.756-0.252-1.05-0.826-1.05c-0.659,0-1.023,0.406-1.023,1.246v5.001h-1.933V76.163z"/>
		</g>
		<path d="M232.67,68.32c0-2.35,1.904-4.251,4.251-4.251c2.35,0,4.253,1.902,4.253,4.251s-1.903,4.251-4.253,4.251
			C234.574,72.571,232.67,70.669,232.67,68.32L232.67,68.32z"/>
		<path fill="#010102" d="M279.843,83.698c0-2.35,1.904-4.251,4.251-4.251c2.35,0,4.252,1.902,4.252,4.251s-1.903,4.251-4.252,4.251
			C281.748,87.95,279.843,86.048,279.843,83.698L279.843,83.698z"/>
		<g>
			<path fill="#FFFFFF" d="M243.639,483.687c0,1.33,1.037,1.85,2.213,1.85c0.77,0,1.947-0.225,1.947-1.248
				c0-1.078-1.499-1.26-2.97-1.652c-1.484-0.393-2.983-0.967-2.983-2.844c0-2.045,1.933-3.025,3.74-3.025
				c2.087,0,4.006,0.91,4.006,3.223h-2.129c-0.07-1.205-0.925-1.514-1.975-1.514c-0.701,0-1.513,0.295-1.513,1.135
				c0,0.77,0.476,0.869,2.983,1.514c0.729,0.182,2.97,0.643,2.97,2.912c0,1.836-1.443,3.209-4.16,3.209
				c-2.213,0-4.287-1.094-4.259-3.559H243.639z"/>
			<path fill="#FFFFFF" d="M254.026,477.005h2.199v10.002h-2.199V477.005z"/>
			<path fill="#FFFFFF" d="M260.956,477.005h2.186l4.174,6.709h0.028v-6.709h2.059v10.002h-2.199l-4.16-6.695h-0.028v6.695h-2.06
				V477.005z"/>
			<path fill="#FFFFFF" d="M281.358,485.873c-0.771,0.994-1.779,1.373-2.746,1.373c-3.096,0-4.917-2.312-4.917-5.197
				c0-2.971,1.821-5.281,4.917-5.281c2.045,0,3.979,1.262,4.216,3.529h-2.101c-0.252-1.105-1.079-1.68-2.115-1.68
				c-1.975,0-2.717,1.68-2.717,3.432c0,1.666,0.743,3.348,2.717,3.348c1.429,0,2.255-0.77,2.381-2.156h-2.213v-1.641h4.202v5.408
				h-1.401L281.358,485.873z"/>
			<path fill="#FFFFFF" d="M290.288,477.005h2.255l3.74,10.002H294l-0.756-2.229h-3.74l-0.785,2.229h-2.227L290.288,477.005z
				 M290.078,483.14h2.591l-1.261-3.67h-0.028L290.078,483.14z"/>
			<path fill="#FFFFFF" d="M299.946,477.005h4.511c2.493,0,3.46,1.582,3.46,3.207s-0.967,3.209-3.46,3.209h-2.312v3.586h-2.199
				V477.005z M302.145,481.712h1.709c1.022,0,1.933-0.225,1.933-1.5c0-1.273-0.911-1.498-1.933-1.498h-1.709V481.712z"/>
			<path fill="#FFFFFF" d="M320.572,483.224c0,2.705-1.597,4.021-4.272,4.021c-2.689,0-4.258-1.303-4.258-4.021v-6.219h2.199v6.219
				c0,1.094,0.28,2.172,2.059,2.172c1.569,0,2.073-0.686,2.073-2.172v-6.219h2.199V483.224z"/>
			<path fill="#FFFFFF" d="M325.258,477.005h5.393c1.793,0,2.928,1.246,2.928,2.76c0,1.176-0.477,2.059-1.583,2.508v0.027
				c1.079,0.279,1.387,1.33,1.457,2.34c0.042,0.629,0.028,1.807,0.42,2.367h-2.199c-0.266-0.631-0.238-1.598-0.35-2.396
				c-0.154-1.051-0.56-1.512-1.667-1.512h-2.199v3.908h-2.199V477.005z M327.457,481.531h2.41c0.98,0,1.513-0.422,1.513-1.43
				c0-0.967-0.532-1.387-1.513-1.387h-2.41V481.531z"/>
		</g>
		<g>
			<path d="M200.122,236.548h3.096l2.339,6.878h0.028l2.213-6.878h3.096v10.001h-2.059v-7.088h-0.028l-2.452,7.088h-1.695
				l-2.451-7.018h-0.028v7.018h-2.059V236.548z"/>
			<path d="M218.352,236.548h2.255l3.74,10.001h-2.283l-0.757-2.227h-3.739l-0.785,2.227h-2.227L218.352,236.548z M218.142,242.683
				h2.591l-1.261-3.67h-0.027L218.142,242.683z"/>
			<path d="M228.01,236.548h2.199v8.152h4.874v1.849h-7.073V236.548z"/>
			<path d="M241.844,236.548h2.255l3.74,10.001h-2.283l-0.757-2.227h-3.739l-0.785,2.227h-2.227L241.844,236.548z M241.634,242.683
				h2.591l-1.261-3.67h-0.027L241.634,242.683z"/>
			<path d="M254.093,242.655l-3.684-6.107h2.479l2.339,3.95l2.325-3.95h2.451l-3.712,6.164v3.838h-2.199V242.655z"/>
			<path d="M265.138,243.229c0,1.331,1.037,1.849,2.214,1.849c0.771,0,1.947-0.224,1.947-1.247c0-1.079-1.499-1.261-2.97-1.653
				c-1.485-0.393-2.984-0.967-2.984-2.844c0-2.045,1.934-3.026,3.74-3.026c2.088,0,4.007,0.911,4.007,3.222h-2.13
				c-0.069-1.205-0.924-1.513-1.975-1.513c-0.7,0-1.513,0.294-1.513,1.135c0,0.771,0.476,0.869,2.983,1.513
				c0.729,0.182,2.97,0.645,2.97,2.914c0,1.835-1.443,3.208-4.16,3.208c-2.214,0-4.286-1.093-4.259-3.558H265.138z"/>
			<path d="M275.525,236.548h2.199v10.001h-2.199V236.548z"/>
			<path d="M285.187,236.548h2.255l3.74,10.001h-2.283l-0.757-2.227h-3.74l-0.784,2.227h-2.227L285.187,236.548z M284.977,242.683
				h2.591l-1.261-3.67h-0.027L284.977,242.683z"/>
		</g>
	</g>
</g>
</svg>
