<?xml version="1.0" encoding="utf-8"?>
<!-- Generator: Adobe Illustrator 25.0.1, SVG Export Plug-In . SVG Version: 6.00 Build 0)  -->
<svg version="1.1" id="Ebene_1" xmlns="http://www.w3.org/2000/svg" xmlns:xlink="http://www.w3.org/1999/xlink" x="0px" y="0px"
	 viewBox="0 0 862.5 698.1" style="enable-background:new 0 0 862.5 698.1;" xml:space="preserve">
<style type="text/css">
	.st0{fill:none;stroke:#947F52;stroke-width:2;stroke-miterlimit:10;}
	.st1{fill:none;stroke:#947F52;stroke-width:2;stroke-miterlimit:10;stroke-dasharray:4,4;}
	.st2{opacity:0.2;fill:#CBBB9D;enable-background:new    ;}
	.st3{fill:#B0D5EE;}
	.st4{fill:none;stroke:#B0D5EE;stroke-width:2;stroke-miterlimit:10;}
	.st5{fill:#74BAE3;}
	.st6{fill:#CBBB9D;}
	.st7{fill:#FFFFFF;}
	.st8{fill:#947F52;}
	.st9{enable-background:new    ;}
	.st10{fill:#1F1F1E;}
</style>
<polyline class="st0" points="448.7,103.2 425.6,72 376.9,108.7 "/>
<path class="st1" d="M317.7,491.2c0,0,97.9-123.4,42.1-279.1"/>
<path class="st0" d="M331.8,374.7l-70-83.3L251,223c0,0,11.1-15.5,15-25.1c5.4-13.2-9.3-38.6-9.3-38.6l30.9-26.6l33.9-60.6
	l55.4,36.6l-17.1,103.4"/>
<g id="Umriss_Karte">
	<path class="st2" d="M262.8,69.3c-0.6,1.6-2.8,1.7-3.6,0.2c-3.1-5.8-9-16.2-10.8-16.2c-2.6,0-11.1-4.7-12.4,0
		c-1.3,4.7-0.9,11.1-4.7,11.1s-2.6-1.4-12.4-2.2c-9.8-0.8-14.1-0.4-15.8,3c-1.7,3.4-6,9-5.1,15.4s1.9,11.1-0.1,14.9
		s0.1,8.1-2.5,11.1s-10.2,12.4-12,24.3c-1.7,12-1.3,25.6-3,26.1c-1.7,0.4-13.8-1.6-21.4,0c-6.8,1.4-23.3,34.4-24.8,37.6
		c-1.5,3.2-2.3,8.3-4.9,9.4c-2.6,1.1-7.5,1.5-8.8,4.9s1.5,12,0,16.4c-1.5,4.5-9,11.1-8.8,14.3s6,3.2,4.7,6.2s-5.3,9-4.7,12
		c0.6,3,4.9,4.9,3,6.8s-9.3,7.4-10.3,9.5c-1.1,2.1-5.9-12.5-11.2-10.8s-6.8,2.3-9.4,4.9s-8.5,12.4-9,14.9
		c-0.4,2.6,4.7,18.6,2.3,22.8c-2.3,4.3-6.6,4.9-6.8,9.2c-0.2,4.3-3.4,11.5-5.3,16.7c-1.9,5.1-3,19-1.9,25.8s3.2,37.2,1.7,40.4
		c-1.5,3.2-4.7,6.2-7.3,7.9s-4.7-0.4-9.6,1.3c-4.9,1.7-9,0.9-10.7-1.5c-1.7-2.3-23.7-2.6-25.4,0.4s1.3,16-1.5,18.2
		s-12,10.5-10.2,15.8c1.7,5.3,10.7,1.9,13.5,4.1s3,5.1,6.6,5.1s4.9-3.6,7.9-1.7s9.8,0.2,13,3.8c3.2,3.6,7.5,4.1,10.9,8.3
		c3.4,4.3,7.9,7.3,7.9,9.8c0,2.6-1.3,6.8,2.3,9.2c3.6,2.3,6.6,1.1,7.3,3c0.6,1.9,0.2,8.1,3.4,9.4c3.2,1.3,10.9,0.6,13,4.1
		c2.1,3.4-1.1,9,1.3,10.5c2.3,1.5,6.2-1.5,9.4,1.3s5.8,11.3,7.9,15.8s6.8,16,9,20.7c2.1,4.7,0.6,12.4,2.1,14.7s3.6,3.4,4.5,7.5
		s1.1,4.9,3.2,6.4s6.4,3,7.2,5.8c0.7,2.8,0.3,8.1,3.7,7.7c3.4-0.4,5.6-5.8,9.2-4.7c3.6,1.1,4.1,3.2,7,3.4c3,0.2,5.8-1.3,7.5-0.2
		s4.7,2.3,4.7,4.5s-1.7,4.1-1.1,6c0.6,1.9-0.6,8.3-1.3,12.6c-0.6,4.3,0,9.4,1.5,12.4s7.3,5.3,7.9,8.8c0.6,3.4,0.6,8.8,4.9,9.8
		c4.3,1.1,46.8-2.8,50.8,0s63.8,47.2,69,47.6c5.1,0.4,29.5-1.9,32,0c2.6,1.9,2.8,5.6,7.3,5.8s15.6-2.1,19,0s4.3,3.2,9.8,3.2
		s9.4-0.2,10.9,1.5s4.7,3,5.3,0c0.6-3,7.5-9.8,10.7-13.5c3.2-3.6,4.1-9.4,6.8-11.1c2.8-1.7,34.8-19,40-19.6s7.2-1.1,8.7-2.3
		c1.5-1.3,3.6-3.8,5.3-1.3c1.7,2.6,2.3,6.6,4.7,7.3s5.3-0.2,7.3,3.6s4.7,7.9,8.3,7.7c3.6-0.2,27.7-3.3,32.7-3
		c3.8,0.3,6.4,5.1,8.5,2.3s1.3-9.2,9.8-11.3s44.8-8.5,47.8-10.7c3-2.1,6.8-24.8,47.8-31.6s70-0.9,70-0.9l175.1-179.8h-55.9
		l-170-57.5l-24.1-21.5c0,0-8.8,0.6-11.4-2.8c-2.6-3.4-4.6-10.8-7.1-13.1c-2.6-2.3-4.3-7.1-5.1-11.7c-0.9-4.6-4.3-3.4-7.4-5.7
		s-3.1-7.7-6.3-10.2c-3.1-2.6-8-4.3-8.5-7.1c-0.6-2.8,0-12.2-3.4-15.1s-8.5-9.4-6.8-10s2.3-3.4,4.3-5.7c2-2.3,5.4-8.3,7.7-9.4
		s6.5-4.3,2-5.1s-6-5.4-10.5-5.7c-4.6-0.3-13.1,2.3-16.8,3.4c-3.7,1.1-15.7,0.3-16.8,1.4s-6,5.1-10.5,4c-4.6-1.1-8.5-2.8-8.5-2.8
		s0-21.4-1.1-25.3c-1.1-4,0.6-12,1.1-15.1s5.1-6,8.5-10s24.2-36.2,24.2-36.2s-9.1-19.1-13.7-20.8c-4.6-1.7-8.5,0.3-10.8-4
		s-7.1-19.9-12.5-23.3s-26.2-17.4-29-19.9c-2.8-2.6-13.7-23.3-17.7-26.5c-4-3.1-6.9-8-11.1-7.7s-11.6-2.3-20.2-8.3
		c-8.5-6-10.5-10.2-17.4-9.2s-11.1,5.2-12.5,2.4s-5.4-5.7-9.7-4.6c-4.3,1.1-5.7-4.6-8.5-3.4c-2.8,1.1-7.4,3.4-10.5,3.7
		s-8.3,6-8.8,4.3c-0.6-1.7-5.1-15.1-8.8-12.8s-4.6,7.1-10.5,8.8s-19.9,6.5-22.8,5.4s-8.5-14.2-12.2-15.7s-6.3,0.3-10.5-2
		c-4.3-2.3-7.7-10.8-10.2-10.5C280.1,27.1,267.3,58.1,262.8,69.3z"/>
</g>
<g id="Seen_Flüsse">
	<path class="st3" d="M236.7,183c-3.2,0.4-7.1,5.3-7.2,12.5c-0.1,7.2,3.1,10.8,5.8,12.8c2.7,2.1,3.8,0,5.8,0c1.9,0,6.5,0,6.6,2.5
		s-1.3,8.5,1.2,9.2s5.3-8.7,7.1-10.1c1.8-1.3,7.4-11.5,7.8-15.4c0.4-3.8,0.7-12.4-5.2-14.7c-4.6-1.8-8.3-0.9-10.5,1.7
		c-2.2,2.7-4.7,5.3-6.6,4.6C239.5,185.5,240,182.5,236.7,183z"/>
	<path class="st4" d="M116.6,244.4c0,0,9.3,0.8,9.3,6.2s-4.6,27.3-2.8,29.6c1.7,2.3,9.4,8,10,10.2c0.6,2.3,0.3,15.1,3.4,16.8
		s6,1.2,9.1,3.3c3.1,2.1,5.7,7.8,8.3,7.5s2.8-5.1,4.6-5.7c1.7-0.6,6.5,1.1,6.5,1.1s4.3-6,7.1-6.5c2.8-0.6,9.7,2.6,12.8,0.9
		s10-12.8,10.8-14.8c0.9-2,1.4-6.5,4.3-6.3c2.8,0.3,2.3,6.8,5.1,7.4s9.7-0.6,14.5,0.3s9.7,4.1,13.7,4.7c4,0.7,7.4-0.5,8.3,1.2
		c0.9,1.7-1.4,7.7,2.3,10.1s11.1-0.1,14.2,1.8c3.1,1.9,4.6,10.8,11.1,12c6.5,1.1,22.2-10.2,28.5-12.5s15.7-6.8,16.5-11.4
		c0.9-4.6-2.3-18.2,0-20.8c2.3-2.6,4.6-17.7,1.7-22.5c-2.8-4.8-12.5-8.7-19.6-9.6c-7.1-0.9-21.9-4.6-25.9-10.7
		c-4-6.1-6.5-9.8-12.2-10.7c-5.7-0.9-9.5-7.3-9.5-7.3"/>
	<path class="st3" d="M276.5,518c-1.9,3.6,1.2,12.9-0.9,15.9s-11.1,8.3-9.4,11.5s9-0.2,10.9-2.8s2.8-7.2,5.3-10.2
		c2.6-3,8.3-8.3,8.3-11.8c0-3.4-2.8-6.8-4.5-5.5c-1.7,1.2-3.4-0.9-5.3-0.3C279.1,515.5,276.5,518,276.5,518z"/>
	<path class="st3" d="M259.9,555c-1.5,3.2-3.6,6.4-2.1,8.3c1.5,1.9,2.6,0.2,5.8-2.3c3.2-2.6,4.8-6.2,2.6-8.5c-1.1-1.2-2.2-1.1-3.8,0
		C260.4,553.6,259.9,555,259.9,555z"/>
	<path class="st3" d="M311.3,483.4c-1.2,1.2-3,6.8,0,7.7c3,0.9,6.8-6.4,4.7-7.7C313.9,482.1,312.6,482.2,311.3,483.4z"/>
	<path class="st3" d="M314.2,459.8c-0.7,0.1-1.4,0.3-2,0.8c-2.6,2-4.7,4.1-1.5,4.9c3.6,0.9,3.4-1.6,5.4,0s6.4,2.3,6.8-0.3
		c0.4-2.6,1.3-4.7-2-5.3C318.7,459.5,315.7,459.7,314.2,459.8z"/>
	<path class="st3" d="M320.9,449.6c-0.7-0.2-1.6-0.1-2.2,0.4c-1.2,1.2-1.5,3-0.2,4.8c1.6,2.3,3,5.8,4.4,4.9s3.1-6,2.1-7.7
		C324.4,450.8,322.2,450,320.9,449.6z"/>
	<path class="st3" d="M329.5,451.7c0.5-0.9,1.5-1.4,2.5-1.1c2,0.5,3.9,1.8,3.7,3.9c-0.3,2.7-3.4,6.4-5.4,6.4s-3.1-1.7-2.3-5.3
		C328.5,453.9,329,452.6,329.5,451.7z"/>
	<path class="st3" d="M331.2,439.5c0.9,1.5,3.9,1,5.3,0c1.9-1.3,2.3-3.5,3.5-5.1c1.7-2.3,3.1-5.1,1.4-6.5s-2.5,1.2-4.7,1
		c-1.1-0.1-2.1-3.1-4.1-1.4s-3.3,4.4-3.1,7C329.6,435.8,330.4,438.3,331.2,439.5z"/>
	<path class="st4" d="M499,245.1c0,0-3.6,0.9-6.3-3.4c-2.7-4.3,5.9-16,4.6-18.7s-7.7-0.3-11.1,0s-5.6-5-7.7-4.3s-8.5,2.1-9.1-0.1
		s-4.2-6-8-4.8s-3.4,25.2-9.4,29s-20.1,5.6-23.1,14.9c-3,9.4,5.6,29.3,5.6,33.4s2.8,4.4,1.8,8.6s0.5,6.3,0,9.2c-0.5,3-3.9,7.7-8,7.7
		s-10,2.4-11.3,7.6s5.1,11.5,3.4,15.4s-5.4,2.2-9.6,8.6c-4.1,6.4-5.9,2.2-4.1,9.2c1.7,7,8.3,12.2,4.1,19.4
		c-4.1,7.3-10.1,2.6-13.1,5.3s-0.9,5.2-4.3,8s-10.8,4.6-13.8,8.4s-8.4,10.7-13.5,10c-5.1-0.6-8.7-4.5-12.7-4.1s-6.1,5.6-6.1,5.6
		s-3-1.3-7.3-1.5s-13.3-0.2-10.7-6.6c2.6-6.4,3.7-6.4-2-7.3s-1.9-4-6-4.6c-4-0.6-6.3,0.7-9.4-3.1s-1.9-5.4-9.1-8.3
		c-7.3-2.8-7.7-6.2-12.2-4.3"/>
	<path class="st3" d="M506,238.3v14.2c0,0-7.7-1.7-7-7.3C499.7,239.5,506,238.3,506,238.3z"/>
	<path class="st3" d="M349.6,405.3c-0.3,0.1-0.5,0.2-0.8,0.4c-3.3,2.2-5,3.6-3.6,5.8c1.4,2.3,3.4,2.1,5,0s4.7-6.1,3.4-6.6
		C352.6,404.4,350.5,405,349.6,405.3z"/>
</g>
<g>
	<path d="M241.4,366.5h2.8l3,11.4h-2.4l-0.5-2.4h-3l-0.5,2.4h-2.4L241.4,366.5z M241.7,373.6h2.2l-1.1-5.1l0,0L241.7,373.6z"/>
	<path d="M253.1,377L253.1,377c-0.5,0.8-1.1,1.1-2,1.1c-1.8,0-2.6-1.3-2.6-4.5s0.8-4.5,2.6-4.5c0.8,0,1.4,0.3,1.9,1l0,0v-3.6h2.2
		v11.4h-2.1L253.1,377L253.1,377z M251.8,376.5c1,0,1.2-1,1.2-2.8s-0.2-2.8-1.2-2.8s-1.2,1-1.2,2.8S250.9,376.5,251.8,376.5z"/>
	<path d="M261.7,377L261.7,377c-0.5,0.8-1.1,1.1-2,1.1c-1.8,0-2.6-1.3-2.6-4.5s0.8-4.5,2.6-4.5c0.8,0,1.4,0.3,1.9,1l0,0v-3.6h2.2
		v11.4h-2.1V377z M260.5,376.5c1,0,1.2-1,1.2-2.8s-0.2-2.8-1.2-2.8s-1.2,1-1.2,2.8S259.5,376.5,260.5,376.5z"/>
	<path d="M266,366.4h2.2v1.9H266V366.4z M266,369.3h2.2v8.6H266V369.3z"/>
	<path d="M272,375.1v0.3c0,0.8,0.4,1.2,1.2,1.2c0.7,0,1.1-0.3,1.1-1c0-0.6-0.4-0.8-0.8-1l-1.6-0.6c-1.2-0.4-1.8-1.2-1.8-2.4
		c0-1.4,0.9-2.6,3.2-2.6c2,0,2.9,0.9,2.9,2.4v0.4h-2c0-0.9-0.3-1.3-1-1.3c-0.6,0-1,0.3-1,0.9c0,0.4,0.2,0.8,1,1l1.3,0.4
		c1.4,0.5,1.9,1.2,1.9,2.5c0,1.8-1.3,2.7-3.2,2.7c-2.5,0-3.2-1.1-3.2-2.7V375h2V375.1z"/>
	<path d="M284.8,366.5h2.8l3,11.4h-2.4l-0.5-2.4h-3l-0.5,2.4h-2.4L284.8,366.5z M285.2,373.6h2.2l-1.1-5.1l0,0L285.2,373.6z"/>
	<path d="M292.2,366.5h2.2v3.6l0,0c0.5-0.7,1-1,1.9-1c1.8,0,2.6,1.3,2.6,4.5s-0.8,4.5-2.6,4.5c-0.9,0-1.5-0.3-2-1.1l0,0v0.9h-2.1
		V366.5z M295.5,376.5c1,0,1.2-1,1.2-2.8s-0.2-2.8-1.2-2.8s-1.2,1-1.2,2.8S294.5,376.5,295.5,376.5z"/>
	<path d="M302.7,374v0.7c0,1,0.3,2,1.1,2c0.7,0,1-0.6,1.2-1.6h2c-0.1,2-1,3.1-3.1,3.1c-3.2,0-3.3-2.5-3.3-4.6c0-2.3,0.4-4.5,3.4-4.5
		c2.6,0,3.2,1.7,3.2,4.4v0.5H302.7z M305,372.7c0-1.3-0.2-2-1.1-2s-1.1,0.9-1.1,1.7v0.3H305z"/>
	<path d="M308.8,366.5h2.2v3.6l0,0c0.5-0.7,1-1,1.9-1c1.8,0,2.6,1.3,2.6,4.5s-0.8,4.5-2.6,4.5c-0.9,0-1.5-0.3-2-1.1l0,0v0.9h-2.1
		V366.5z M312.2,376.5c1,0,1.2-1,1.2-2.8s-0.2-2.8-1.2-2.8s-1.2,1-1.2,2.8S311.2,376.5,312.2,376.5z"/>
	<path d="M317.5,372v-0.2c0-2,1.4-2.7,3-2.7c2.6,0,3.1,1.1,3.1,2.6v4.5c0,0.8,0,1.2,0.3,1.7h-2.1c-0.1-0.3-0.2-0.6-0.3-0.9l0,0
		c-0.5,0.9-1.1,1.1-2.2,1.1c-1.5,0-2.1-1.3-2.1-2.5c0-1.6,0.7-2.3,2.2-2.7l1.2-0.3c0.7-0.2,0.9-0.4,0.9-1c0-0.7-0.3-1.1-1-1.1
		s-1,0.4-1,1.1v0.2h-2V372z M321.5,373.6c-0.3,0.2-0.7,0.4-0.9,0.4c-0.9,0.2-1.2,0.6-1.2,1.4c0,0.7,0.2,1.2,0.8,1.2s1.4-0.4,1.4-1.3
		L321.5,373.6L321.5,373.6z"/>
</g>
<g>
	<path d="M214.9,531.2h2.8l3,11.4h-2.4l-0.5-2.4h-3l-0.5,2.4h-2.4L214.9,531.2z M215.2,538.3h2.2l-1.1-5.1l0,0L215.2,538.3z"/>
	<path d="M222.1,534h2.1v1.2l0,0c0.4-0.8,1.1-1.4,2-1.4c0.1,0,0.3,0,0.4,0v2.1c-0.2,0-0.5,0-0.7,0c-0.8,0-1.6,0.4-1.6,1.6v5.2h-2.2
		V534z"/>
	<path d="M228.1,531.2h2.2v3.6l0,0c0.5-0.7,1-1,1.9-1c1.8,0,2.6,1.3,2.6,4.5s-0.8,4.5-2.6,4.5c-0.9,0-1.5-0.3-2-1.1l0,0v0.9h-2.1
		L228.1,531.2L228.1,531.2z M231.5,541.2c1,0,1.2-1,1.2-2.8s-0.2-2.8-1.2-2.8s-1.2,1-1.2,2.8S230.5,541.2,231.5,541.2z"/>
	<path d="M236.7,536.7v-0.2c0-2,1.4-2.7,3-2.7c2.6,0,3.1,1.1,3.1,2.6v4.5c0,0.8,0,1.2,0.3,1.7H241c-0.1-0.3-0.2-0.6-0.3-0.9l0,0
		c-0.5,0.9-1.1,1.1-2.2,1.1c-1.5,0-2.1-1.3-2.1-2.5c0-1.6,0.7-2.3,2.2-2.7l1.2-0.3c0.7-0.2,0.9-0.4,0.9-1c0-0.7-0.3-1.1-1-1.1
		s-1,0.4-1,1.1v0.2h-2L236.7,536.7L236.7,536.7z M240.8,538.3c-0.3,0.2-0.7,0.4-0.9,0.4c-0.9,0.2-1.2,0.6-1.2,1.4
		c0,0.7,0.2,1.2,0.8,1.2s1.4-0.4,1.4-1.3v-1.7L240.8,538.3L240.8,538.3z"/>
	<path d="M212.7,550.4h3.4l1.6,8.1l0,0l1.6-8.1h3.4v11.4h-2.1v-9.1l0,0l-2,9.1h-1.8l-2-9.1l0,0v9.1h-2.1L212.7,550.4L212.7,550.4z"
		/>
	<path d="M225.2,550.3h2.2v1.9h-2.2V550.3z M225.2,553.2h2.2v8.6h-2.2V553.2z"/>
	<path d="M229.6,553.2h2.1v1l0,0c0.5-0.8,1.3-1.2,2.2-1.2c1.4,0,2.2,0.8,2.2,2.4v6.4h-2.2v-5.9c0-0.9-0.3-1.2-0.9-1.2
		c-0.8,0-1.2,0.5-1.2,1.4v5.7h-2.2L229.6,553.2L229.6,553.2z"/>
	<path d="M242.3,556.3c0-0.8-0.2-1.7-1-1.7c-1.1,0-1.3,1-1.3,2.9c0,2.1,0.2,3,1.2,3c0.7,0,1.1-0.6,1.1-2h2.1c0,2.3-0.9,3.5-3.3,3.5
		c-2.2,0-3.3-1.1-3.3-4.5c0-3.5,1.5-4.5,3.5-4.5s3.1,1.3,3.1,3.3H242.3z"/>
	<path d="M246.2,550.4h2.2v3.7l0,0c0.4-0.7,1.2-1.1,2.1-1.1c1.4,0,2.2,0.8,2.2,2.4v6.4h-2.2v-5.9c0-0.9-0.3-1.2-0.9-1.2
		c-0.8,0-1.2,0.5-1.2,1.4v5.7h-2.2L246.2,550.4L246.2,550.4z"/>
</g>
<g>
	<path d="M325.6,494.7h2.8l3,11.4H329l-0.5-2.4h-3l-0.5,2.4h-2.4L325.6,494.7z M325.9,501.8h2.2l-1.1-5.1l0,0L325.9,501.8z"/>
	<path d="M332.2,497.5h2.2l1,6.1l0,0l1.1-6.1h2.4l1.1,6.1l0,0l1-6.1h2.1l-1.9,8.6h-2.5l-1.1-6.1l0,0l-1.1,6.1H334L332.2,497.5z"/>
	<path d="M344.7,500.2V500c0-2,1.4-2.7,3-2.7c2.6,0,3.1,1.1,3.1,2.6v4.5c0,0.8,0,1.2,0.3,1.7H349c-0.1-0.3-0.2-0.6-0.3-0.9l0,0
		c-0.5,0.9-1.1,1.1-2.2,1.1c-1.5,0-2.1-1.3-2.1-2.5c0-1.6,0.7-2.3,2.2-2.7l1.2-0.3c0.7-0.2,0.9-0.4,0.9-1c0-0.7-0.3-1.1-1-1.1
		s-1,0.4-1,1.1v0.2h-2V500.2z M348.7,501.8c-0.3,0.2-0.7,0.4-0.9,0.4c-0.9,0.2-1.2,0.6-1.2,1.4c0,0.7,0.2,1.2,0.8,1.2
		s1.4-0.4,1.4-1.3L348.7,501.8L348.7,501.8z"/>
	<path d="M354.7,503.3v0.3c0,0.8,0.4,1.2,1.2,1.2c0.7,0,1.1-0.3,1.1-1c0-0.6-0.4-0.8-0.8-1l-1.6-0.6c-1.2-0.4-1.8-1.2-1.8-2.4
		c0-1.4,0.9-2.6,3.2-2.6c2,0,2.9,0.9,2.9,2.4v0.4h-2c0-0.9-0.3-1.3-1-1.3c-0.6,0-1,0.3-1,0.9c0,0.4,0.2,0.8,1,1l1.3,0.4
		c1.4,0.5,1.9,1.2,1.9,2.5c0,1.8-1.3,2.7-3.2,2.7c-2.5,0-3.2-1.1-3.2-2.7v-0.3h2V503.3z"/>
	<path d="M360.8,500.2V500c0-2,1.4-2.7,3-2.7c2.6,0,3.1,1.1,3.1,2.6v4.5c0,0.8,0,1.2,0.3,1.7h-2.1c-0.1-0.3-0.2-0.6-0.3-0.9l0,0
		c-0.5,0.9-1.1,1.1-2.2,1.1c-1.5,0-2.1-1.3-2.1-2.5c0-1.6,0.7-2.3,2.2-2.7l1.2-0.3c0.7-0.2,0.9-0.4,0.9-1c0-0.7-0.3-1.1-1-1.1
		s-1,0.4-1,1.1v0.2h-2V500.2z M364.8,501.8c-0.3,0.2-0.7,0.4-0.9,0.4c-0.9,0.2-1.2,0.6-1.2,1.4c0,0.7,0.2,1.2,0.8,1.2
		s1.4-0.4,1.4-1.3L364.8,501.8L364.8,501.8z"/>
</g>
<g>
	<path d="M290.4,149.6v0.3c0,1.1,0.3,1.8,1.5,1.8c0.7,0,1.4-0.4,1.4-1.4s-0.5-1.4-2-2c-2-0.7-3-1.6-3-3.5c0-2.2,1.4-3.4,3.5-3.4
		c2,0,3.5,0.9,3.5,3.1v0.3h-2.2c0-1.1-0.4-1.7-1.2-1.7c-1,0-1.3,0.7-1.3,1.3c0,0.7,0.2,1.1,1.2,1.6l1.8,0.8c1.7,0.8,2.2,1.6,2.2,3
		c0,2.4-1.5,3.5-4,3.5c-2.6,0-3.6-1.2-3.6-3.3v-0.5L290.4,149.6L290.4,149.6z"/>
	<path d="M297.5,141.6h2.2v1.9h-2.2V141.6z M297.5,144.6h2.2v8.6h-2.2V144.6z"/>
	<path d="M301.9,144.6h2.1v0.9l0,0c0.6-0.8,1.2-1.1,2.2-1.1s1.7,0.5,2,1.4l0,0c0.3-0.9,1.1-1.4,2.2-1.4c1.5,0,2.1,0.9,2.1,2.6v6.3
		h-2.2v-6c0-0.7-0.2-1.1-0.9-1.1c-0.7,0-1.2,0.5-1.2,1.5v5.7h-2.1v-6c0-0.7-0.2-1.1-0.9-1.1c-0.7,0-1.2,0.5-1.2,1.5v5.7h-2.2
		L301.9,144.6L301.9,144.6z"/>
	<path d="M314.8,141.6h2.2v1.9h-2.2V141.6z M314.8,144.6h2.2v8.6h-2.2V144.6z"/>
	<path d="M321.1,149.2v0.7c0,1,0.3,2,1.1,2c0.7,0,1-0.6,1.2-1.6h2c-0.1,2-1,3.1-3.1,3.1c-3.2,0-3.3-2.5-3.3-4.6
		c0-2.3,0.4-4.4,3.4-4.4c2.6,0,3.2,1.7,3.2,4.4v0.5L321.1,149.2L321.1,149.2z M323.3,147.9c0-1.3-0.2-2-1.1-2s-1.1,0.9-1.1,1.7v0.3
		H323.3z"/>
	<path d="M327.2,144.6h2.1v1l0,0c0.5-0.8,1.3-1.2,2.2-1.2c1.4,0,2.2,0.8,2.2,2.4v6.4h-2.2v-5.9c0-0.9-0.3-1.2-0.9-1.2
		c-0.8,0-1.2,0.5-1.2,1.4v5.7h-2.2V144.6z"/>
	<path d="M340.3,147.6v1.9h-4.5v-1.9H340.3z"/>
	<path d="M288.6,157.8h3.4l1.6,8.1l0,0l1.6-8.1h3.4v11.4h-2.1v-9.1l0,0l-2,9.1h-1.8l-2-9.1l0,0v9.1h-2.1V157.8z"/>
	<path d="M304.1,160.4c2.7,0,3.4,1.5,3.4,4.5c0,2.9-0.9,4.5-3.4,4.5c-2.7,0-3.4-1.5-3.4-4.5S301.6,160.4,304.1,160.4z M304.1,167.9
		c0.9,0,1.2-0.9,1.2-3s-0.3-3-1.2-3c-1.1,0-1.2,1.3-1.2,3S303,167.9,304.1,167.9z"/>
	<path d="M313.8,168.2L313.8,168.2c-0.5,0.8-1.3,1.2-2.2,1.2c-1.4,0-2.2-0.8-2.2-2.4v-6.4h2.2v5.9c0,0.9,0.3,1.2,0.9,1.2
		c0.8,0,1.2-0.5,1.2-1.4v-5.7h2.2v8.6h-2.1V168.2z"/>
	<path d="M317.9,160.6h2.1v1l0,0c0.5-0.8,1.3-1.2,2.2-1.2c1.4,0,2.2,0.8,2.2,2.4v6.4h-2.2v-5.9c0-0.9-0.3-1.2-0.9-1.2
		c-0.8,0-1.2,0.5-1.2,1.4v5.7h-2.2V160.6z"/>
	<path d="M327.1,158.1h2.2v2.5h1.3v1.5h-1.3v4.7c0,0.7,0.1,0.9,0.8,0.9c0.2,0,0.4,0,0.5,0v1.5c-0.5,0-0.9,0.1-1.4,0.1
		c-1.7,0-2-0.5-2-2.3v-4.9h-1.1v-1.5h1.1v-2.5H327.1z"/>
	<path d="M331.9,163.2V163c0-2,1.4-2.7,3-2.7c2.6,0,3.1,1.1,3.1,2.6v4.5c0,0.8,0,1.2,0.3,1.7h-2.1c-0.1-0.3-0.2-0.6-0.3-0.9l0,0
		c-0.5,0.9-1.1,1.1-2.2,1.1c-1.5,0-2.1-1.3-2.1-2.5c0-1.6,0.7-2.3,2.2-2.7l1.2-0.3c0.7-0.2,0.9-0.4,0.9-1c0-0.7-0.3-1.1-1-1.1
		s-1,0.4-1,1.1v0.2h-2V163.2z M336,164.9c-0.3,0.2-0.7,0.4-0.9,0.4c-0.9,0.2-1.2,0.6-1.2,1.4c0,0.7,0.2,1.2,0.8,1.2s1.4-0.4,1.4-1.3
		L336,164.9L336,164.9z"/>
	<path d="M340.4,157.6h2.2v1.9h-2.2V157.6z M340.4,160.6h2.2v8.6h-2.2V160.6z"/>
	<path d="M344.8,160.6h2.1v1l0,0c0.5-0.8,1.3-1.2,2.2-1.2c1.4,0,2.2,0.8,2.2,2.4v6.4h-2.2v-5.9c0-0.9-0.3-1.2-0.9-1.2
		c-0.8,0-1.2,0.5-1.2,1.4v5.7h-2.2V160.6L344.8,160.6z"/>
	<path d="M355,166.4v0.3c0,0.8,0.4,1.2,1.2,1.2c0.7,0,1.1-0.3,1.1-1c0-0.6-0.4-0.8-0.8-1l-1.6-0.6c-1.2-0.4-1.8-1.2-1.8-2.4
		c0-1.4,0.9-2.6,3.2-2.6c2,0,2.9,0.9,2.9,2.4v0.4h-2c0-0.9-0.3-1.3-1-1.3c-0.6,0-1,0.3-1,0.9c0,0.4,0.2,0.8,1,1l1.3,0.4
		c1.4,0.5,1.9,1.2,1.9,2.5c0,1.8-1.3,2.7-3.2,2.7c-2.5,0-3.2-1.1-3.2-2.7v-0.3h2V166.4z"/>
</g>
<g>
	<path d="M430.1,381.7h2.8l3,11.4h-2.4l-0.5-2.4h-3l-0.5,2.4h-2.4L430.1,381.7z M430.4,388.8h2.2l-1.1-5.1l0,0L430.4,388.8z"/>
	<path d="M436.7,384.5h2.2l1,6.1l0,0l1.1-6.1h2.4l1.1,6.1l0,0l1-6.1h2.1l-1.9,8.6h-2.5l-1.1-6.1l0,0l-1.1,6.1h-2.6L436.7,384.5z"/>
	<path d="M449.2,387.2V387c0-2,1.4-2.7,3-2.7c2.6,0,3.1,1.1,3.1,2.6v4.5c0,0.8,0,1.2,0.3,1.7h-2.1c-0.1-0.3-0.2-0.6-0.3-0.9l0,0
		c-0.5,0.9-1.1,1.1-2.2,1.1c-1.5,0-2.1-1.3-2.1-2.5c0-1.6,0.7-2.3,2.2-2.7l1.2-0.3c0.7-0.2,0.9-0.4,0.9-1c0-0.7-0.3-1.1-1-1.1
		s-1,0.4-1,1.1v0.2h-2V387.2z M453.3,388.8c-0.3,0.2-0.7,0.4-0.9,0.4c-0.9,0.2-1.2,0.6-1.2,1.4c0,0.7,0.2,1.2,0.8,1.2
		c0.6,0,1.4-0.4,1.4-1.3L453.3,388.8L453.3,388.8z"/>
	<path d="M459.2,390.3v0.3c0,0.8,0.4,1.2,1.2,1.2c0.7,0,1.1-0.3,1.1-1c0-0.6-0.4-0.8-0.8-1l-1.6-0.6c-1.2-0.4-1.8-1.2-1.8-2.4
		c0-1.4,0.9-2.6,3.2-2.6c2,0,2.9,0.9,2.9,2.4v0.4h-2c0-0.9-0.3-1.3-1-1.3c-0.6,0-1,0.3-1,0.9c0,0.4,0.2,0.8,1,1l1.3,0.4
		c1.4,0.5,1.9,1.2,1.9,2.5c0,1.8-1.3,2.7-3.2,2.7c-2.5,0-3.2-1.1-3.2-2.7v-0.3h2V390.3z"/>
	<path d="M465.3,381.7h2.2v3.7l0,0c0.4-0.7,1.2-1.1,2.1-1.1c1.4,0,2.2,0.8,2.2,2.4v6.4h-2.2v-5.9c0-0.9-0.3-1.2-0.9-1.2
		c-0.8,0-1.2,0.5-1.2,1.4v5.7h-2.2V381.7z"/>
</g>
<g>
	<path d="M296.4,210.4V199h2.3v9.5h4.1v1.9H296.4z"/>
	<path d="M304.4,204.4v-0.2c0-2,1.4-2.7,3-2.7c2.6,0,3.1,1.1,3.1,2.6v4.5c0,0.8,0,1.2,0.3,1.7h-2.1c-0.1-0.3-0.2-0.6-0.3-0.9l0,0
		c-0.5,0.9-1.1,1.1-2.2,1.1c-1.5,0-2.1-1.3-2.1-2.5c0-1.6,0.7-2.3,2.2-2.7l1.2-0.3c0.7-0.2,0.9-0.4,0.9-1c0-0.7-0.3-1.1-1-1.1
		s-1,0.4-1,1.1v0.2h-2V204.4z M308.4,206c-0.3,0.2-0.7,0.4-0.9,0.4c-0.9,0.2-1.2,0.6-1.2,1.4c0,0.7,0.2,1.2,0.8,1.2s1.4-0.4,1.4-1.3
		L308.4,206L308.4,206z"/>
	<path d="M312.8,198.9h2.2v11.4h-2.2V198.9z"/>
	<path d="M317.2,198.8h2.2v1.9h-2.2V198.8z M317.2,201.7h2.2v8.6h-2.2V201.7z"/>
	<path d="M321.7,198.9h2.2v3.6l0,0c0.5-0.7,1-1,1.9-1c1.8,0,2.6,1.3,2.6,4.5s-0.8,4.5-2.6,4.5c-0.9,0-1.5-0.3-2-1.1l0,0v0.9h-2.1
		V198.9z M325,208.9c1,0,1.2-1,1.2-2.8c0-1.9-0.2-2.8-1.2-2.8s-1.2,1-1.2,2.8C323.9,207.9,324,208.9,325,208.9z"/>
	<path d="M332.2,206.4v0.7c0,1,0.3,2,1.1,2c0.7,0,1-0.6,1.2-1.6h2c-0.1,2-1,3.1-3.1,3.1c-3.2,0-3.3-2.5-3.3-4.6
		c0-2.3,0.4-4.4,3.4-4.4c2.6,0,3.2,1.7,3.2,4.4v0.5L332.2,206.4L332.2,206.4z M334.5,205.1c0-1.3-0.2-2-1.1-2s-1.1,0.9-1.1,1.7v0.3
		H334.5z"/>
	<path d="M338.5,198.9h2.2v11.4h-2.2V198.9z"/>
	<path d="M342.9,204.4v-0.2c0-2,1.4-2.7,3-2.7c2.6,0,3.1,1.1,3.1,2.6v4.5c0,0.8,0,1.2,0.3,1.7h-2.1c-0.1-0.3-0.2-0.6-0.3-0.9l0,0
		c-0.5,0.9-1.1,1.1-2.2,1.1c-1.5,0-2.1-1.3-2.1-2.5c0-1.6,0.7-2.3,2.2-2.7l1.2-0.3c0.7-0.2,0.9-0.4,0.9-1c0-0.7-0.3-1.1-1-1.1
		s-1,0.4-1,1.1v0.2h-2V204.4z M346.9,206c-0.3,0.2-0.7,0.4-0.9,0.4c-0.9,0.2-1.2,0.6-1.2,1.4c0,0.7,0.2,1.2,0.8,1.2s1.4-0.4,1.4-1.3
		L346.9,206L346.9,206z"/>
</g>
<g>
	<path d="M529.7,365.2h2.3v4.4h2.7v-4.4h2.3v11.4h-2.3v-5.1H532v5.1h-2.3V365.2z"/>
	<path d="M539.1,370.7v-0.2c0-2,1.4-2.7,3-2.7c2.6,0,3.1,1.1,3.1,2.6v4.5c0,0.8,0,1.2,0.3,1.7h-2.1c-0.1-0.3-0.2-0.6-0.3-0.9l0,0
		c-0.5,0.9-1.1,1.1-2.2,1.1c-1.5,0-2.1-1.3-2.1-2.5c0-1.6,0.7-2.3,2.2-2.7l1.2-0.3c0.7-0.2,0.9-0.4,0.9-1c0-0.7-0.3-1.1-1-1.1
		s-1,0.4-1,1.1v0.2h-2L539.1,370.7L539.1,370.7z M543.2,372.4c-0.3,0.2-0.7,0.4-0.9,0.4c-0.9,0.2-1.2,0.6-1.2,1.4
		c0,0.7,0.2,1.2,0.8,1.2s1.4-0.4,1.4-1.3L543.2,372.4L543.2,372.4z"/>
	<path d="M547.5,368.1h2.1v1.2l0,0c0.4-0.8,1.1-1.4,2-1.4c0.1,0,0.3,0,0.4,0v2.1c-0.2,0-0.5,0-0.7,0c-0.8,0-1.6,0.4-1.6,1.6v5.2
		h-2.2V368.1z"/>
	<path d="M553.4,370.7v-0.2c0-2,1.4-2.7,3-2.7c2.6,0,3.1,1.1,3.1,2.6v4.5c0,0.8,0,1.2,0.3,1.7h-2.1c-0.1-0.3-0.2-0.6-0.3-0.9l0,0
		c-0.5,0.9-1.1,1.1-2.2,1.1c-1.5,0-2.1-1.3-2.1-2.5c0-1.6,0.7-2.3,2.2-2.7l1.2-0.3c0.7-0.2,0.9-0.4,0.9-1c0-0.7-0.3-1.1-1-1.1
		s-1,0.4-1,1.1v0.2h-2L553.4,370.7L553.4,370.7z M557.5,372.4c-0.3,0.2-0.7,0.4-0.9,0.4c-0.9,0.2-1.2,0.6-1.2,1.4
		c0,0.7,0.2,1.2,0.8,1.2s1.4-0.4,1.4-1.3L557.5,372.4L557.5,372.4z"/>
	<path d="M561.8,368.1h2.1v1.2l0,0c0.4-0.8,1.1-1.4,2-1.4c0.1,0,0.3,0,0.4,0v2.1c-0.2,0-0.5,0-0.7,0c-0.8,0-1.6,0.4-1.6,1.6v5.2
		h-2.2V368.1z"/>
</g>
<g>
	<path d="M178.1,223.4h3.9c1.9,0,3.2,0.7,3.2,2.9c0,1.2-0.6,2.2-1.7,2.5l0,0c1.3,0.2,2.1,1.1,2.1,2.7c0,1.8-0.9,3.3-3.6,3.3h-3.9
		V223.4z M180.4,228.1h0.7c1.3,0,1.8-0.4,1.8-1.5s-0.5-1.5-1.7-1.5h-0.8V228.1z M180.4,233.1h0.9c1.1,0,1.9-0.4,1.9-1.7
		s-0.8-1.7-1.8-1.7h-1L180.4,233.1L180.4,233.1z"/>
	<path d="M187.5,228.9v-0.2c0-2,1.4-2.7,3-2.7c2.6,0,3.1,1.1,3.1,2.6v4.5c0,0.8,0,1.2,0.3,1.7h-2.1c-0.1-0.3-0.2-0.6-0.3-0.9l0,0
		c-0.5,0.9-1.1,1.1-2.2,1.1c-1.5,0-2.1-1.3-2.1-2.5c0-1.6,0.7-2.3,2.2-2.7l1.2-0.3c0.7-0.2,0.9-0.4,0.9-1c0-0.7-0.3-1.1-1-1.1
		s-1,0.4-1,1.1v0.2h-2L187.5,228.9L187.5,228.9z M191.6,230.5c-0.3,0.2-0.7,0.4-0.9,0.4c-0.9,0.2-1.2,0.6-1.2,1.4
		c0,0.7,0.2,1.2,0.8,1.2s1.4-0.4,1.4-1.3v-1.7L191.6,230.5L191.6,230.5z"/>
	<path d="M195.9,223.4h2.2v3.7l0,0c0.4-0.7,1.2-1.1,2.1-1.1c1.4,0,2.2,0.8,2.2,2.4v6.4h-2.2v-5.9c0-0.9-0.3-1.2-0.9-1.2
		c-0.8,0-1.2,0.5-1.2,1.4v5.7h-2.2L195.9,223.4L195.9,223.4z"/>
	<path d="M204.6,223.3h2.2v1.9h-2.2V223.3z M204.6,226.2h2.2v8.6h-2.2V226.2z"/>
	<path d="M209,226.2h2.1v1.2l0,0c0.4-0.8,1.1-1.4,2-1.4c0.1,0,0.3,0,0.4,0v2.1c-0.2,0-0.5,0-0.7,0c-0.8,0-1.6,0.4-1.6,1.6v5.2H209
		V226.2z"/>
	<path d="M219.6,223.4h3.8c3.2,0,3.8,2.2,3.8,5.6c0,4-0.9,5.9-3.9,5.9h-3.6v-11.5H219.6z M221.9,233.1h1c1.6,0,1.9-1,1.9-4.1
		c0-2.6-0.2-3.9-2-3.9h-1v8H221.9z"/>
	<path d="M229.3,228.9v-0.2c0-2,1.4-2.7,3-2.7c2.6,0,3.1,1.1,3.1,2.6v4.5c0,0.8,0,1.2,0.3,1.7h-2.1c-0.1-0.3-0.2-0.6-0.3-0.9l0,0
		c-0.5,0.9-1.1,1.1-2.2,1.1c-1.5,0-2.1-1.3-2.1-2.5c0-1.6,0.7-2.3,2.2-2.7l1.2-0.3c0.7-0.2,0.9-0.4,0.9-1c0-0.7-0.3-1.1-1-1.1
		s-1,0.4-1,1.1v0.2h-2L229.3,228.9L229.3,228.9z M233.3,230.5c-0.3,0.2-0.7,0.4-0.9,0.4c-0.9,0.2-1.2,0.6-1.2,1.4
		c0,0.7,0.2,1.2,0.8,1.2s1.4-0.4,1.4-1.3v-1.7L233.3,230.5L233.3,230.5z"/>
	<path d="M237.6,226.2h2.1v1.2l0,0c0.4-0.8,1.1-1.4,2-1.4c0.1,0,0.3,0,0.4,0v2.1c-0.2,0-0.5,0-0.7,0c-0.8,0-1.6,0.4-1.6,1.6v5.2
		h-2.2V226.2z"/>
</g>
<g>
	<path d="M157.3,273.3h3.8c3.2,0,3.8,2.2,3.8,5.6c0,4-0.9,5.9-3.9,5.9h-3.6v-11.5H157.3z M159.6,283.1h1c1.6,0,1.9-1,1.9-4.1
		c0-2.6-0.2-3.9-2-3.9h-1v8H159.6z"/>
	<path d="M168.9,280.8v0.7c0,1,0.3,2,1.1,2c0.7,0,1-0.6,1.2-1.6h2c-0.1,2-1,3.1-3.1,3.1c-3.2,0-3.3-2.5-3.3-4.6
		c0-2.3,0.4-4.4,3.4-4.4c2.6,0,3.2,1.7,3.2,4.4v0.5h-4.5L168.9,280.8L168.9,280.8z M171.1,279.5c0-1.3-0.2-2-1.1-2
		c-0.9,0-1.1,0.9-1.1,1.7v0.3H171.1z"/>
	<path d="M175,273.3h2.2v3.6l0,0c0.5-0.7,1-1,1.9-1c1.8,0,2.6,1.3,2.6,4.5s-0.8,4.5-2.6,4.5c-0.9,0-1.5-0.3-2-1.1l0,0v0.9H175V273.3
		L175,273.3z M178.4,283.3c1,0,1.2-1,1.2-2.8s-0.2-2.8-1.2-2.8s-1.2,1-1.2,2.8S177.4,283.3,178.4,283.3z"/>
	<path d="M183.7,276.2h2.1v1.2l0,0c0.4-0.8,1.1-1.4,2-1.4c0.1,0,0.3,0,0.4,0v2.1c-0.2,0-0.5,0-0.7,0c-0.8,0-1.6,0.4-1.6,1.6v5.2
		h-2.2V276.2z"/>
	<path d="M191.5,280.8v0.7c0,1,0.3,2,1.1,2c0.7,0,1-0.6,1.2-1.6h2c-0.1,2-1,3.1-3.1,3.1c-3.2,0-3.3-2.5-3.3-4.6
		c0-2.3,0.4-4.4,3.4-4.4c2.6,0,3.2,1.7,3.2,4.4v0.5h-4.5L191.5,280.8L191.5,280.8z M193.8,279.5c0-1.3-0.2-2-1.1-2
		c-0.9,0-1.1,0.9-1.1,1.7v0.3H193.8z"/>
	<path d="M202.3,273.3h3.4l1.6,8.1l0,0l1.6-8.1h3.4v11.4h-2.1v-9.1l0,0l-2,9.1h-1.8l-2-9.1l0,0v9.1h-2.1L202.3,273.3L202.3,273.3z"
		/>
	<path d="M214.6,278.8v-0.2c0-2,1.4-2.7,3-2.7c2.6,0,3.1,1.1,3.1,2.6v4.5c0,0.8,0,1.2,0.3,1.7h-2.1c-0.1-0.3-0.2-0.6-0.3-0.9l0,0
		c-0.5,0.9-1.1,1.1-2.2,1.1c-1.5,0-2.1-1.3-2.1-2.5c0-1.6,0.7-2.3,2.2-2.7l1.2-0.3c0.7-0.2,0.9-0.4,0.9-1c0-0.7-0.3-1.1-1-1.1
		s-1,0.4-1,1.1v0.2h-2L214.6,278.8L214.6,278.8z M218.6,280.5c-0.3,0.2-0.7,0.4-0.9,0.4c-0.9,0.2-1.2,0.6-1.2,1.4
		c0,0.7,0.2,1.2,0.8,1.2s1.4-0.4,1.4-1.3v-1.7H218.6z"/>
	<path d="M223,276.2h2.1v1.2l0,0c0.4-0.8,1.1-1.4,2-1.4c0.1,0,0.3,0,0.4,0v2.1c-0.2,0-0.5,0-0.7,0c-0.8,0-1.6,0.4-1.6,1.6v5.2H223
		V276.2z"/>
	<path d="M231.2,273.3v6l0,0l2.2-3.2h2.4l-2.5,3.4l2.8,5.2h-2.4l-1.8-3.5l-0.8,1v2.5h-2.2v-11.4H231.2z"/>
	<path d="M240.7,275.9c2.7,0,3.4,1.5,3.4,4.5c0,2.9-0.9,4.5-3.4,4.5c-2.7,0-3.4-1.5-3.4-4.5C237.3,277.5,238.1,275.9,240.7,275.9z
		 M240.7,283.5c0.9,0,1.2-0.9,1.2-3s-0.3-3-1.2-3c-1.1,0-1.2,1.3-1.2,3S239.6,283.5,240.7,283.5z"/>
	<path d="M247.5,282v0.3c0,0.8,0.4,1.2,1.2,1.2c0.7,0,1.1-0.3,1.1-1c0-0.6-0.4-0.8-0.8-1l-1.6-0.6c-1.2-0.4-1.8-1.2-1.8-2.4
		c0-1.4,0.9-2.6,3.2-2.6c2,0,2.9,0.9,2.9,2.4v0.4h-2c0-0.9-0.3-1.3-1-1.3c-0.6,0-1,0.3-1,0.9c0,0.4,0.2,0.8,1,1l1.3,0.4
		c1.4,0.5,1.9,1.2,1.9,2.5c0,1.8-1.3,2.7-3.2,2.7c-2.5,0-3.2-1.1-3.2-2.7v-0.3h2L247.5,282L247.5,282z"/>
</g>
<g>
	<path d="M207.1,147.3c0-0.8-0.4-1.9-1.3-1.9c-1.1,0-1.6,1.2-1.6,4s0.3,4.5,1.6,4.5c0.5,0,1.4-0.6,1.4-1.8v-1.2h-1.5v-1.7h3.7v6.2
		h-1.7v-1.1l0,0c-0.5,0.9-1.3,1.3-2.4,1.3c-2.8,0-3.4-2.1-3.4-6.1c0-3.8,0.9-5.8,3.8-5.8c2.5,0,3.6,1.3,3.6,3.6H207.1z"/>
	<path d="M214.6,146.5c2.7,0,3.4,1.5,3.4,4.5c0,2.9-0.9,4.5-3.4,4.5c-2.7,0-3.4-1.5-3.4-4.5C211.2,148.1,212.1,146.5,214.6,146.5z
		 M214.6,154.1c0.9,0,1.2-0.9,1.2-3s-0.3-3-1.2-3c-1.1,0-1.2,1.3-1.2,3S213.5,154.1,214.6,154.1z"/>
	<path d="M219.8,146.8h2.1v1l0,0c0.5-0.8,1.3-1.2,2.2-1.2c1.4,0,2.2,0.8,2.2,2.4v6.4h-2.2v-5.9c0-0.9-0.3-1.2-0.9-1.2
		c-0.8,0-1.2,0.5-1.2,1.4v5.7h-2.2L219.8,146.8L219.8,146.8z"/>
	<path d="M232.9,154.4L232.9,154.4c-0.5,0.8-1.1,1.1-2,1.1c-1.8,0-2.6-1.3-2.6-4.5s0.8-4.5,2.6-4.5c0.8,0,1.4,0.3,1.9,1l0,0v-3.6
		h2.2v11.4h-2.1L232.9,154.4L232.9,154.4z M231.6,153.9c1,0,1.2-1,1.2-2.8c0-1.9-0.2-2.8-1.2-2.8s-1.2,1-1.2,2.8
		C230.5,152.9,230.7,153.9,231.6,153.9z"/>
	<path d="M239,151.4v0.7c0,1,0.3,2,1.1,2c0.7,0,1-0.6,1.2-1.6h2c-0.1,2-1,3.1-3.1,3.1c-3.2,0-3.3-2.5-3.3-4.6c0-2.3,0.4-4.4,3.4-4.4
		c2.6,0,3.2,1.7,3.2,4.4v0.5L239,151.4L239,151.4z M241.3,150.1c0-1.3-0.2-2-1.1-2s-1.1,0.9-1.1,1.7v0.3H241.3z"/>
	<path d="M245.2,146.8h2.1v1.2l0,0c0.4-0.8,1.1-1.4,2-1.4c0.1,0,0.3,0,0.4,0v2.1c-0.2,0-0.5,0-0.7,0c-0.8,0-1.6,0.4-1.6,1.6v5.2
		h-2.2V146.8L245.2,146.8z"/>
</g>
<g>
	<path class="st5" d="M167.9,182.7v1.9h-2.5v9.5h-2.3v-9.5h-2.5v-1.9H167.9z"/>
	<path class="st5" d="M169.5,188.1v-0.2c0-2,1.4-2.7,3-2.7c2.6,0,3.1,1.1,3.1,2.6v4.5c0,0.8,0,1.2,0.3,1.7h-2.1
		c-0.1-0.3-0.2-0.6-0.3-0.9l0,0c-0.5,0.9-1.1,1.1-2.2,1.1c-1.5,0-2.1-1.3-2.1-2.5c0-1.6,0.7-2.3,2.2-2.7l1.2-0.3
		c0.7-0.2,0.9-0.4,0.9-1c0-0.7-0.3-1.1-1-1.1s-1,0.4-1,1.1v0.2h-2L169.5,188.1L169.5,188.1z M173.5,189.8c-0.3,0.2-0.7,0.4-0.9,0.4
		c-0.9,0.2-1.2,0.6-1.2,1.4c0,0.7,0.2,1.2,0.8,1.2s1.4-0.4,1.4-1.3v-1.7L173.5,189.8L173.5,189.8z"/>
	<path class="st5" d="M177.8,185.5h2.1v1l0,0c0.5-0.8,1.3-1.2,2.2-1.2c1.4,0,2.2,0.8,2.2,2.4v6.4h-2.2v-5.9c0-0.9-0.3-1.2-0.9-1.2
		c-0.8,0-1.2,0.5-1.2,1.4v5.7h-2.2L177.8,185.5L177.8,185.5z"/>
	<path class="st5" d="M186.5,188.1v-0.2c0-2,1.4-2.7,3-2.7c2.6,0,3.1,1.1,3.1,2.6v4.5c0,0.8,0,1.2,0.3,1.7h-2.1
		c-0.1-0.3-0.2-0.6-0.3-0.9l0,0c-0.5,0.9-1.1,1.1-2.2,1.1c-1.5,0-2.1-1.3-2.1-2.5c0-1.6,0.7-2.3,2.2-2.7l1.2-0.3
		c0.7-0.2,0.9-0.4,0.9-1c0-0.7-0.3-1.1-1-1.1s-1,0.4-1,1.1v0.2h-2L186.5,188.1L186.5,188.1z M190.5,189.8c-0.3,0.2-0.7,0.4-0.9,0.4
		c-0.9,0.2-1.2,0.6-1.2,1.4c0,0.7,0.2,1.2,0.8,1.2s1.4-0.4,1.4-1.3v-1.7L190.5,189.8L190.5,189.8z"/>
	<path class="st5" d="M199.3,188.5v1.9h-4.5v-1.9H199.3z"/>
	<path class="st5" d="M203.3,190.5v0.3c0,1.1,0.3,1.8,1.5,1.8c0.7,0,1.4-0.4,1.4-1.4s-0.5-1.4-2-2c-2-0.7-3-1.6-3-3.5
		c0-2.2,1.4-3.4,3.5-3.4c2,0,3.5,0.9,3.5,3.1v0.3H206c0-1.1-0.4-1.7-1.2-1.7c-1,0-1.3,0.7-1.3,1.3c0,0.7,0.2,1.1,1.2,1.6l1.8,0.8
		c1.7,0.8,2.2,1.6,2.2,3c0,2.4-1.5,3.5-4,3.5c-2.6,0-3.6-1.2-3.6-3.3v-0.5L203.3,190.5L203.3,190.5z"/>
	<path class="st5" d="M212.2,190.1v0.7c0,1,0.3,2,1.1,2c0.7,0,1-0.6,1.2-1.6h2c-0.1,2-1,3.1-3.1,3.1c-3.2,0-3.3-2.5-3.3-4.6
		c0-2.3,0.4-4.4,3.4-4.4c2.6,0,3.2,1.7,3.2,4.4v0.5L212.2,190.1L212.2,190.1z M214.5,188.8c0-1.3-0.2-2-1.1-2
		c-0.9,0-1.1,0.9-1.1,1.7v0.3H214.5z"/>
	<path class="st5" d="M220.2,190.1v0.7c0,1,0.3,2,1.1,2c0.7,0,1-0.6,1.2-1.6h2c-0.1,2-1,3.1-3.1,3.1c-3.2,0-3.3-2.5-3.3-4.6
		c0-2.3,0.4-4.4,3.4-4.4c2.6,0,3.2,1.7,3.2,4.4v0.5L220.2,190.1L220.2,190.1z M222.5,188.8c0-1.3-0.2-2-1.1-2
		c-0.9,0-1.1,0.9-1.1,1.7v0.3H222.5z"/>
</g>
<g>
	<path d="M320.4,109.8h3.4l1.6,8.1l0,0l1.6-8.1h3.4v11.5h-2.1v-9.1l0,0l-2,9.1h-1.8l-2-9.1l0,0v9.1h-2.1V109.8z"/>
	<path d="M334.6,117.3v0.7c0,1,0.3,2,1.1,2c0.7,0,1-0.6,1.2-1.6h2c-0.1,2-1,3.1-3.1,3.1c-3.2,0-3.3-2.5-3.3-4.6
		c0-2.3,0.4-4.4,3.4-4.4c2.6,0,3.2,1.7,3.2,4.4v0.5L334.6,117.3L334.6,117.3z M336.9,116c0-1.3-0.2-2-1.1-2s-1.1,0.9-1.1,1.7v0.3
		H336.9z"/>
	<path d="M343.1,109.8v6l0,0l2.2-3.2h2.4l-2.5,3.4l2.8,5.2h-2.4l-1.8-3.5l-0.8,1v2.5h-2.2v-11.4H343.1z"/>
	<path d="M351.3,117.3v0.7c0,1,0.3,2,1.1,2c0.7,0,1-0.6,1.2-1.6h2c-0.1,2-1,3.1-3.1,3.1c-3.2,0-3.3-2.5-3.3-4.6
		c0-2.3,0.4-4.4,3.4-4.4c2.6,0,3.2,1.7,3.2,4.4v0.5L351.3,117.3L351.3,117.3z M353.6,116c0-1.3-0.2-2-1.1-2s-1.1,0.9-1.1,1.7v0.3
		H353.6z"/>
	<path d="M357.6,109.8h2.2v11.5h-2.2V109.8z"/>
	<path d="M363.9,117.3v0.7c0,1,0.3,2,1.1,2c0.7,0,1-0.6,1.2-1.6h2c-0.1,2-1,3.1-3.1,3.1c-3.2,0-3.3-2.5-3.3-4.6
		c0-2.3,0.4-4.4,3.4-4.4c2.6,0,3.2,1.7,3.2,4.4v0.5L363.9,117.3L363.9,117.3z M366.1,116c0-1.3-0.2-2-1.1-2s-1.1,0.9-1.1,1.7v0.3
		H366.1z"/>
</g>
<g>
	<path d="M269.9,60.6h2.8l3,11.4h-2.4l-0.5-2.4h-3l-0.5,2.4h-2.4L269.9,60.6z M270.2,67.7h2.2l-1.1-5.1l0,0L270.2,67.7z"/>
	<path d="M279.4,60.6v6l0,0l2.2-3.2h2.4l-2.5,3.4l2.8,5.2H282l-1.8-3.5l-0.8,1V72h-2.2V60.6H279.4z"/>
	<path d="M287.4,69.2v0.3c0,0.8,0.4,1.2,1.2,1.2c0.7,0,1.1-0.3,1.1-1c0-0.6-0.4-0.8-0.8-1l-1.6-0.6c-1.2-0.4-1.8-1.2-1.8-2.4
		c0-1.4,0.9-2.6,3.2-2.6c2,0,2.9,0.9,2.9,2.4v0.4h-2c0-0.9-0.3-1.3-1-1.3c-0.6,0-1,0.3-1,0.9c0,0.4,0.2,0.8,1,1l1.3,0.4
		c1.4,0.5,1.9,1.2,1.9,2.5c0,1.8-1.3,2.7-3.2,2.7c-2.5,0-3.2-1.1-3.2-2.7v-0.3L287.4,69.2L287.4,69.2z"/>
	<path d="M297.9,71L297.9,71c-0.5,0.8-1.3,1.2-2.2,1.2c-1.4,0-2.2-0.8-2.2-2.4v-6.4h2.2v5.9c0,0.9,0.3,1.2,0.9,1.2
		c0.8,0,1.2-0.5,1.2-1.4v-5.7h2.2V72h-2.1V71z"/>
	<path d="M302.1,63.4h2.1v0.9l0,0c0.6-0.8,1.2-1.1,2.2-1.1s1.7,0.5,2,1.4l0,0c0.3-0.9,1.1-1.4,2.2-1.4c1.5,0,2.1,0.9,2.1,2.6V72
		h-2.2v-6c0-0.7-0.2-1.1-0.9-1.1c-0.7,0-1.2,0.5-1.2,1.5V72h-2.2v-6c0-0.7-0.2-1.1-0.9-1.1c-0.7,0-1.2,0.5-1.2,1.5V72h-2.2v-8.6
		H302.1z"/>
</g>
<ellipse transform="matrix(0.3162 -0.9487 0.9487 0.3162 24.4009 352.4542)" cx="256.7" cy="159.3" rx="4.3" ry="4.3"/>
<ellipse transform="matrix(0.1602 -0.9871 0.9871 0.1602 112.3907 395.3828)" cx="288.6" cy="131.6" rx="4.3" ry="4.3"/>
<circle cx="261.8" cy="291.4" r="4.3"/>
<circle cx="251" cy="223" r="4.3"/>
<circle cx="423.7" cy="374.8" r="4.3"/>
<circle cx="524.1" cy="357.7" r="4.3"/>
<circle cx="376.9" cy="108.7" r="4.3"/>
<circle cx="448.9" cy="103.2" r="4.3"/>
<circle cx="426.2" cy="72" r="4.3"/>
<circle cx="359.8" cy="212.1" r="4.3"/>
<g>
	<path d="M484.4,506.9h2.6l4.3,11.4h-2.6l-0.9-2.5h-4.3l-0.9,2.5H480L484.4,506.9z M482.9,503.7h2.2v1.9h-2.2V503.7z M484.1,513.9h3
		l-1.4-4.2l0,0L484.1,513.9z M486.2,503.7h2.2v1.9h-2.2V503.7z"/>
	<path d="M497.9,509h-3.4v-2.1h9.4v2.1h-3.4v9.3H498V509H497.9z"/>
	<path d="M508.4,506.9h2.5v4.4h4.6v-4.4h2.5v11.4h-2.5v-4.9h-4.6v4.9h-2.5V506.9z"/>
	<path d="M523.5,506.9h2.5v11.4h-2.5V506.9z"/>
	<path d="M536.5,506.6c3.5,0,5.6,2.6,5.6,6c0,3.3-2.1,5.9-5.6,5.9s-5.6-2.6-5.6-5.9C530.9,509.2,533,506.6,536.5,506.6z
		 M536.5,516.4c2.3,0,3.1-1.9,3.1-3.8c0-2-0.8-3.9-3.1-3.9s-3.1,1.9-3.1,3.9C533.4,514.5,534.2,516.4,536.5,516.4z"/>
	<path d="M547,506.9h5.2c2.8,0,4,1.8,4,3.7c0,1.9-1.1,3.7-4,3.7h-2.6v4.1H547V506.9z M549.5,512.2h2c1.2,0,2.2-0.3,2.2-1.7
		c0-1.5-1-1.7-2.2-1.7h-2V512.2z"/>
	<path d="M560.9,506.9h2.5v11.4h-2.5V506.9z"/>
	<path d="M568.8,506.9h8.5v2.1h-6v2.4h5.5v2h-5.5v2.8h6.2v2.1h-8.7V506.9z"/>
	<path d="M582.4,506.9h2.5l4.8,7.7l0,0v-7.7h2.4v11.4h-2.5l-4.8-7.7l0,0v7.7h-2.4V506.9z"/>
</g>
<g>
	<path class="st6" d="M544.6,208.4h4.9c3,0,5.2,1.9,5.2,5.7c0,3.3-1.7,5.8-5.2,5.8h-4.9V208.4z M547.1,217.7h2.2
		c1.5,0,2.8-0.9,2.8-3.4c0-2.3-0.8-3.8-3.3-3.8H547L547.1,217.7L547.1,217.7z"/>
	<path class="st6" d="M566.3,216.2c0,1.5-0.4,3.9-3.8,3.9c-1.9,0-3.8-1-3.8-3.5v-1h2.3v0.5c0,1.1,0.3,1.9,1.5,1.9
		c1.3,0,1.3-1.1,1.3-1.9v-7.7h2.5V216.2z"/>
	<path class="st6" d="M571.7,208.4h2.5v11.4h-2.5V208.4z"/>
	<path class="st6" d="M579.7,208.4h5.4c2.2,0,3.6,0.7,3.6,2.8c0,1.1-0.6,1.9-1.6,2.4c1.4,0.4,2.1,1.5,2.1,2.9c0,2.3-2,3.3-4,3.3
		h-5.5V208.4z M582.2,213h2.5c0.9,0,1.5-0.4,1.5-1.4c0-1.1-0.8-1.3-1.7-1.3h-2.4v2.7H582.2z M582.2,217.8h2.7c1,0,1.9-0.3,1.9-1.5
		s-0.7-1.6-1.8-1.6h-2.7v3.1H582.2z"/>
	<path class="st6" d="M599.3,208.1c3.5,0,5.6,2.6,5.6,6c0,3.3-2.1,5.9-5.6,5.9s-5.6-2.6-5.6-5.9
		C593.6,210.7,595.7,208.1,599.3,208.1z M599.3,217.9c2.3,0,3.1-1.9,3.1-3.8c0-2-0.8-3.9-3.1-3.9s-3.1,1.9-3.1,3.9
		C596.1,216,597,217.9,599.3,217.9z"/>
	<path class="st6" d="M619.5,215.5c0,3.1-1.8,4.6-4.9,4.6c-3.1,0-4.9-1.5-4.9-4.6v-7.1h2.5v7.1c0,1.2,0.3,2.5,2.4,2.5
		c1.8,0,2.4-0.8,2.4-2.5v-7.1h2.5V215.5z"/>
	<path class="st6" d="M627.4,210.5H624v-2.1h9.4v2.1H630v9.3h-2.5L627.4,210.5L627.4,210.5z"/>
	<path class="st6" d="M637.8,208.4h2.5v11.4h-2.5V208.4z"/>
</g>
<g>
	<path class="st6" d="M56.1,105.9c0,1.5,1.2,2.1,2.5,2.1c0.9,0,2.2-0.3,2.2-1.4c0-1.2-1.7-1.4-3.4-1.9c-1.7-0.4-3.4-1.1-3.4-3.2
		c0-2.3,2.2-3.5,4.3-3.5c2.4,0,4.6,1,4.6,3.7h-2.4c-0.1-1.4-1.1-1.7-2.3-1.7c-0.8,0-1.7,0.3-1.7,1.3c0,0.9,0.5,1,3.4,1.7
		c0.8,0.2,3.4,0.7,3.4,3.3c0,2.1-1.6,3.7-4.8,3.7c-2.5,0-4.9-1.2-4.9-4.1H56.1z"/>
	<path class="st6" d="M77.6,105.4c0,3.1-1.8,4.6-4.9,4.6s-4.9-1.5-4.9-4.6v-7.1h2.5v7.1c0,1.2,0.3,2.5,2.4,2.5
		c1.8,0,2.4-0.8,2.4-2.5v-7.1h2.5V105.4z"/>
	<path class="st6" d="M83,98.3h4.9c3,0,5.2,1.9,5.2,5.7c0,3.3-1.7,5.8-5.2,5.8H83V98.3z M85.5,107.6h2.2c1.5,0,2.8-0.9,2.8-3.4
		c0-2.3-0.8-3.8-3.3-3.8h-1.8v7.2C85.4,107.6,85.5,107.6,85.5,107.6z"/>
	<path class="st6" d="M101.2,98.3h2.6l4.3,11.4h-2.6l-0.9-2.5h-4.3l-0.9,2.5h-2.5L101.2,98.3z M100.9,105.3h3l-1.4-4.2l0,0
		L100.9,105.3z"/>
	<path class="st6" d="M112.2,98.3h2.5l4.8,7.7l0,0v-7.7h2.4v11.4h-2.5l-4.8-7.7l0,0v7.7h-2.4V98.3z"/>
</g>
<g>
	<path class="st6" d="M310.2,0h8.5v2.1h-6v2.4h5.5v2h-5.5v2.8h6.2v2.1h-8.7V0z"/>
	<path class="st6" d="M323.8,0h6.2c2,0,3.3,1.4,3.3,3.2c0,1.3-0.5,2.4-1.8,2.9l0,0c1.2,0.3,1.6,1.5,1.7,2.7c0,0.7,0,2.1,0.5,2.7
		h-2.5c-0.3-0.7-0.3-1.8-0.4-2.7c-0.2-1.2-0.6-1.7-1.9-1.7h-2.5v4.5h-2.5V0H323.8z M326.3,5.2h2.8c1.1,0,1.7-0.5,1.7-1.6
		S330.2,2,329.1,2h-2.8L326.3,5.2L326.3,5.2z"/>
	<path class="st6" d="M338.6,0h2.5v11.4h-2.5V0z"/>
	<path class="st6" d="M349,2.1h-3.4V0h9.4v2.1h-3.4v9.3H349V2.1z"/>
	<path class="st6" d="M359.5,0h6.2c2,0,3.3,1.4,3.3,3.2c0,1.3-0.5,2.4-1.8,2.9l0,0c1.2,0.3,1.6,1.5,1.7,2.7c0,0.7,0,2.1,0.5,2.7
		h-2.5c-0.3-0.7-0.3-1.8-0.4-2.7c-0.2-1.2-0.6-1.7-1.9-1.7H362v4.5h-2.5V0z M362,5.2h2.8c1.1,0,1.7-0.5,1.7-1.6S365.9,2,364.8,2H362
		V5.2z"/>
	<path class="st6" d="M374.2,0h8.5v2.1h-6v2.4h5.5v2h-5.5v2.8h6.2v2.1h-8.7V0z"/>
	<path class="st6" d="M390.9,0h2.6l4.3,11.4h-2.6l-0.9-2.5H390l-0.9,2.5h-2.5L390.9,0z M390.7,7h3l-1.4-4.2l0,0L390.7,7z"/>
</g>
<g>
	<path class="st6" d="M167.2,679.8h2.5v4.7l4.5-4.7h3.1l-4.5,4.5l4.9,6.9h-3.2l-3.4-5.1l-1.4,1.5v3.7h-2.5L167.2,679.8L167.2,679.8z
		"/>
	<path class="st6" d="M182,679.8h8.5v2.1h-6v2.4h5.5v2h-5.5v2.8h6.2v2.1H182V679.8z"/>
	<path class="st6" d="M195.6,679.8h2.5l4.8,7.7l0,0v-7.7h2.4v11.4h-2.5l-4.8-7.7l0,0v7.7h-2.4V679.8z"/>
	<path class="st6" d="M210.6,679.8h2.5v11.4h-2.5V679.8z"/>
	<path class="st6" d="M221.7,679.8h2.6l4.3,11.4H226l-0.9-2.5h-4.3l-0.9,2.5h-2.5L221.7,679.8z M221.4,686.8h3l-1.4-4.2l0,0
		L221.4,686.8z"/>
</g>
<g>
	<path class="st6" d="M657.3,336.6c0,1.5,1.2,2.1,2.5,2.1c0.9,0,2.2-0.3,2.2-1.4c0-1.2-1.7-1.4-3.4-1.9c-1.7-0.4-3.4-1.1-3.4-3.2
		c0-2.3,2.2-3.5,4.3-3.5c2.4,0,4.6,1,4.6,3.7h-2.4c-0.1-1.4-1.1-1.7-2.3-1.7c-0.8,0-1.7,0.3-1.7,1.3c0,0.9,0.5,1,3.4,1.7
		c0.8,0.2,3.4,0.7,3.4,3.3c0,2.1-1.6,3.7-4.8,3.7c-2.5,0-4.9-1.2-4.9-4.1H657.3z"/>
	<path class="st6" d="M674.3,328.7c3.5,0,5.6,2.6,5.6,6c0,3.3-2.1,5.9-5.6,5.9s-5.6-2.6-5.6-5.9
		C668.7,331.3,670.8,328.7,674.3,328.7z M674.3,338.6c2.3,0,3.1-1.9,3.1-3.8c0-2-0.8-3.9-3.1-3.9s-3.1,1.9-3.1,3.9
		C671.2,336.6,672,338.6,674.3,338.6z"/>
	<path class="st6" d="M684.8,329h3.5l2.7,7.9l0,0l2.5-7.9h3.5v11.4h-2.4v-8.1l0,0l-2.8,8.1H690l-2.8-8l0,0v8h-2.4V329z"/>
	<path class="st6" d="M705.7,329h2.6l4.3,11.4H710l-0.9-2.5h-4.3l-0.9,2.5h-2.5L705.7,329z M705.4,336h3l-1.4-4.2l0,0L705.4,336z"/>
	<path class="st6" d="M716.7,329h2.5v9.3h5.6v2.1h-8.1V329z"/>
	<path class="st6" d="M729.4,329h2.5v11.4h-2.5V329z"/>
	<path class="st6" d="M740.4,329h2.6l4.3,11.4h-2.6l-0.9-2.5h-4.3l-0.9,2.5h-2.5L740.4,329z M740.2,336h3l-1.4-4.2l0,0L740.2,336z"
		/>
</g>
<circle cx="321.5" cy="72.2" r="4.3"/>
<path class="st1" d="M259.8,548.1c0,0,42.4,2.2,57.9-56.9c0,0,28.9-71.8,14.1-116.5"/>
<g>
	<ellipse class="st7" cx="332.1" cy="356.5" rx="6.9" ry="6.1"/>
	<path class="st8" d="M331.8,347.5c-5,0-9,4-9,9c0,2,1.3,5.3,3.9,10c1.9,3.3,3.7,6.1,3.8,6.2l1.3,2l1.3-2c0.1-0.1,1.9-2.9,3.8-6.2
		c2.6-4.7,3.9-8,3.9-10C340.8,351.5,336.7,347.5,331.8,347.5z M331.8,361c-2.6,0-4.7-2.1-4.7-4.7s2.1-4.7,4.7-4.7s4.7,2.1,4.7,4.7
		C336.4,359,334.4,361,331.8,361z"/>
</g>
<circle cx="259.8" cy="548.1" r="4.3"/>
<circle cx="318.3" cy="490.4" r="4.3"/>
<g class="st9">
	<path class="st10" d="M380.4,58.5h3.8c3.2,0,3.8,2.2,3.8,5.6c0,4-0.9,5.9-3.9,5.9h-3.6V58.5z M382.7,68.3h1c1.6,0,1.9-1,1.9-4.1
		c0-2.6-0.2-3.9-2-3.9h-1V68.3z"/>
	<path class="st10" d="M389.4,64v-0.2c0-2,1.4-2.7,3-2.7c2.6,0,3.1,1.1,3.1,2.6v4.5c0,0.8,0,1.2,0.3,1.7h-2.1
		c-0.1-0.3-0.2-0.6-0.3-0.9h0c-0.5,0.9-1.1,1.1-2.2,1.1c-1.5,0-2.1-1.3-2.1-2.5c0-1.6,0.7-2.3,2.2-2.7l1.2-0.3
		c0.7-0.2,0.9-0.4,0.9-1c0-0.7-0.3-1.1-1-1.1c-0.7,0-1,0.4-1,1.1V64H389.4z M393.4,65.6c-0.3,0.2-0.7,0.4-0.9,0.4
		c-0.9,0.2-1.2,0.6-1.2,1.4c0,0.7,0.2,1.2,0.8,1.2s1.4-0.4,1.4-1.3V65.6z"/>
	<path class="st10" d="M397.2,58.5h2.2v11.4h-2.2V58.5z"/>
	<path class="st10" d="M401,58.5h2.2v11.4H401V58.5z"/>
	<path class="st10" d="M407.9,61.1c2.7,0,3.4,1.5,3.4,4.5c0,2.9-0.9,4.5-3.4,4.5c-2.7,0-3.4-1.5-3.4-4.5
		C404.5,62.7,405.4,61.1,407.9,61.1z M407.9,68.7c0.9,0,1.2-0.9,1.2-3s-0.3-3-1.2-3c-1.1,0-1.2,1.3-1.2,3S406.8,68.7,407.9,68.7z"/>
	<path class="st10" d="M412.5,58.5h2.2v11.4h-2.2V58.5z"/>
</g>
<g class="st9">
	<path class="st10" d="M430.4,110.1v1.9h-4.1v2.7h3.8v1.9h-3.8v3.1h4.2v1.9H424v-11.4H430.4z"/>
	<path class="st10" d="M431.6,112.9h2.1v1.2h0c0.4-0.8,1.1-1.4,2-1.4c0.1,0,0.3,0,0.4,0v2.1c-0.2,0-0.5,0-0.7,0
		c-0.8,0-1.6,0.4-1.6,1.6v5.2h-2.2V112.9z"/>
	<path class="st10" d="M437.4,110.5h2.2v2.5h1.3v1.5h-1.3v4.7c0,0.7,0.1,0.9,0.8,0.9c0.2,0,0.4,0,0.5,0v1.5c-0.5,0-0.9,0.1-1.4,0.1
		c-1.7,0-2-0.5-2-2.3v-4.9h-1.1v-1.5h1.1V110.5z"/>
	<path class="st10" d="M441.7,115.6v-0.2c0-2,1.4-2.7,3-2.7c2.6,0,3.1,1.1,3.1,2.6v4.5c0,0.8,0,1.2,0.3,1.7H446
		c-0.1-0.3-0.2-0.6-0.3-0.9h0c-0.5,0.9-1.1,1.1-2.2,1.1c-1.5,0-2.1-1.3-2.1-2.5c0-1.6,0.7-2.3,2.2-2.7l1.2-0.3
		c0.7-0.2,0.9-0.4,0.9-1c0-0.7-0.3-1.1-1-1.1c-0.7,0-1,0.4-1,1.1v0.2H441.7z M445.7,117.2c-0.3,0.2-0.7,0.4-0.9,0.4
		c-0.9,0.2-1.2,0.6-1.2,1.4c0,0.7,0.2,1.2,0.8,1.2c0.6,0,1.4-0.4,1.4-1.3V117.2z"/>
	<path class="st10" d="M455.5,110.1h2.8l3,11.4H459l-0.5-2.4h-3l-0.5,2.4h-2.4L455.5,110.1z M455.8,117.2h2.2l-1.1-5.1h0
		L455.8,117.2z"/>
	<path class="st10" d="M462.2,110.1h2.2v11.4h-2.2V110.1z"/>
	<path class="st10" d="M467.9,117.6v0.7c0,1,0.3,2,1.1,2c0.7,0,1-0.6,1.2-1.6h2c-0.1,2-1,3.1-3.1,3.1c-3.2,0-3.3-2.5-3.3-4.6
		c0-2.3,0.4-4.5,3.4-4.5c2.6,0,3.2,1.7,3.2,4.4v0.5H467.9z M470.1,116.3c0-1.3-0.2-2-1.1-2c-0.9,0-1.1,0.9-1.1,1.7v0.3H470.1z"/>
</g>
<circle cx="331.8" cy="374.8" r="4.3"/>
</svg>
