<svg version="1.1" xmlns="http://www.w3.org/2000/svg" viewBox="0 0 81.1 58.5">
<style type="text/css">
	.st0{fill:#FFFFFF;}
</style>
<path class="st0" d="M43.3,35v-7.3C57.4,26.3,68.5,14.5,68.5,0h-5.4c0,11.5-8.7,20.9-19.8,22.2v-7.1C50.5,13.8,55.9,7.5,55.9,0h-5.4
	c0,4.5-3.1,8.3-7.2,9.5l0-9.5h-5.4v9.5c-4.2-1.2-7.2-5-7.2-9.5h-5.4c0,7.5,5.5,13.8,12.6,15.1v7.1C26.7,20.9,18,11.5,18,0l-5.4,0
	c0,14.5,11.1,26.3,25.2,27.7V35C19.7,33.6,5.4,18.5,5.4,0L0,0c0,21.4,16.7,39,37.8,40.4V53h-9.9v5.4h25.3V53h-9.9V40.4
	C64.4,39,81.1,21.5,81.1,0h-5.4C75.7,18.5,61.4,33.6,43.3,35L43.3,35z"/>
</svg>
