<?xml version="1.0" encoding="utf-8"?>
<!-- Generator: Adobe Illustrator 22.1.0, SVG Export Plug-In . SVG Version: 6.00 Build 0)  -->
<svg version="1.1" id="Ebene_1" xmlns="http://www.w3.org/2000/svg" xmlns:xlink="http://www.w3.org/1999/xlink" x="0px" y="0px"
	 viewBox="0 0 59.2 63.1" style="enable-background:new 0 0 59.2 63.1;" xml:space="preserve">
<style type="text/css">
	.st0{fill:#FFFFFF;}
</style>
<g>
	<path class="st0" d="M25.3,17.9c0.4,1.9,2.2,3.4,4.2,3.4c2.4,0,4.4-1.9,4.4-4.4c0-0.2,0-0.5-0.1-0.7c0.9-0.8,1.7-1.8,2.2-2.9
		c0.6,0.2,1.2,0.2,1.8,0.2c3.3,0,6-2.3,6.6-5.4c0.6,0.3,1.3,0.5,2,0.5c2,0,3.7-1.4,4.2-3.2c0.6,0.8,1.6,1.3,2.7,1.3
		c1.9,0,3.4-1.5,3.4-3.4c0-1.9-1.5-3.4-3.4-3.4c-1.4,0-2.6,0.9-3.1,2.1C49.3,0.8,48,0,46.4,0c-1.6,0-2.9,0.8-3.7,2.1
		c-1.2-1.3-3-2.1-4.9-2.1c-2,0-3.8,0.8-5,2.2c-1.4-0.9-3-1.4-4.7-1.4c-4.8,0-8.8,3.9-8.8,8.8C19.4,13.4,21.8,16.7,25.3,17.9z"/>
	<path class="st0" d="M21.3,33.2c0.5,0.2,0.9,0.6,1,1.2l1.4,8l2.2-5.5c0.2-0.6,0.8-1,1.4-1c0.6,0,1.2,0.3,1.5,0.9l4.6,9.9l0.8-9.2
		c0.1-0.6,0.5-1.1,1.1-1.3c0.6-0.2,1.2,0,1.7,0.4l0.1,0.1l9.6,13.3l1.8-3.4c-5.5-8.7-8.9-16.4-10.4-20c-0.6-1.3-1.9-2.2-3.3-2.2
		H24.5c-1.5,0-2.8,0.9-3.3,2.2c-0.8,1.9-2.2,5.1-4.1,8.9l2.6-2C20.2,33.1,20.8,33,21.3,33.2z"/>
	<path class="st0" d="M58.8,60.7c-3.5-4-6.5-8.1-9.2-12.1L48.3,51c-0.3,0.6-0.8,1-1.4,1.1c-0.1,0-0.2,0-0.3,0c-0.5,0-1-0.2-1.4-0.6
		l-0.1-0.1l-9.1-12.6l-0.8,8.5c-0.1,0.8-0.7,1.5-1.5,1.7c-0.9,0.1-1.7-0.3-2-1.1l-4.4-9.4l-1.9,5c-0.3,0.8-1.1,1.3-1.9,1.2
		c-0.8-0.1-1.5-0.7-1.7-1.5l-1.4-7.7l-5.5,4.2c-3.5,6.4-8.3,13.9-14.5,21c-0.8,1-0.2,2.5,1.1,2.5h56.2C59,63.1,59.7,61.6,58.8,60.7z
		"/>
</g>
</svg>
