<?xml version="1.0" encoding="utf-8"?>
<!-- Generator: Adobe Illustrator 25.0.1, SVG Export Plug-In . SVG Version: 6.00 Build 0)  -->
<svg version="1.1" xmlns="http://www.w3.org/2000/svg" xmlns:xlink="http://www.w3.org/1999/xlink" x="0px" y="0px"
	 viewBox="0 0 575 602.2" style="enable-background:new 0 0 575 602.2;" xml:space="preserve">
<style type="text/css">
	.st0{display:none;}
	.st1{fill:#E2E2E2;}
	.st2{display:inline;fill:none;stroke:#009EE2;stroke-miterlimit:10;}
	.st3{fill:none;stroke:#5F738C;stroke-miterlimit:10;}
	.st4{fill:#1F1F1E;}
	.st5{fill:#5F738C;}
	.st6{fill:#A6A6A5;}
	.st7{fill:#FFFFFF;}
	.st8{fill:none;stroke:#947F52;stroke-width:2;stroke-miterlimit:10;}
	.st9{fill:none;stroke:#947F52;stroke-width:2;stroke-miterlimit:10;stroke-dasharray:4,4;}
	.st10{fill:#1D1D1B;}
	.st11{fill:#947F52;}
	
		.st12{fill:none;stroke:#947F52;stroke-width:2;stroke-linecap:round;stroke-linejoin:round;stroke-miterlimit:10;stroke-dasharray:0,5,0,5,0,5;}
</style>
<g id="andere_L채nder" class="st0">
</g>
<g id="Landesgrenze">
	<path class="st1" d="M71.6,180.5l2.6-7.4h3.5c0,0-4.8-6.2-3-7.2c1.8-1,3-2.5,3-2.5l4.5,7l8.2-4l-1.8-4.5l1.8-5.8h5
		c0,0-0.5-4.2-2.8-6.5s-1.2-0.5-2.2-2.2s-1.8-5.5-1.8-5.5l-4-2.5l1.8-5.5h4.8l0.8,1.8l1,4.5l4.8,1.2l2.2,5l1.2,0.2l1.8,1.5v7.2
		l2,4.2l3.8-1.2c0,0,1.8-1.8,1.5-6.2s-1.5-6-1.5-6s1.2-4.6-0.4-5.9c-1.7-1.3-3.8-3.2-3.8-3.2l1-1.7l8-1.5c0,0-0.8-2.5,1.2-3
		s3-0.7,3-0.7l6.2-5.3c0,0,4.8-6,5.2-6.7c0.3-0.7,0.7-4,0.7-4l3.5-3l5.7-3h2.5l8.3-1l1.8-5.2l-6.5-3.2l2.2-2.7c0,0,4.5-7.7,4.3-10.5
		c-0.2-2.8,0-4,0-4s-1.6,0.4-1.4-0.1s-0.6-1.4-0.6-1.4l2-1.2l-1.2-2.5l2-3.5h2.3l-1.5-3.8l8.2-4l2.7-4l3-0.7l7-8.5l12,4.7
		c0,0,1,2.3,0,2.3s-3.5,1.8-3.5,1.8l2.7,3.3l2.3-2.2l1.2,2h2.7l2.2-7.5c0,0,3.3-4.8,3.3-5.3s0-7.7,0-7.7l4.7-2.2l7.3,5.7l17.7,0.5
		c0,0,14-13.5,18.2-14.2c4.2-0.7,14.3-4.5,14.3-4.5l4.8-6.5v-6.8l5.8-0.8c0,0-2.3,3.2-1,3.8c1.3,0.7,4-1.2,4-1.2v-2.7l-1.7-1.8
		l1.7-1.2c0,0,2,3,3.5,1.2s1.5-1.8,1.5-1.8s2.3,0.7,2.5-0.7s-2.8-2.2-2.8-2.2h7.5l2.7,2.5l2.2,0.3l4.5,2.2l4,9.2l-7,6l-22.5,6.3
		l-8.7,16.7l-8,1.3c0,0,0.2,2.8-1.8,5.2c-2,2.3-4,3.5-4,3.5s-0.8,6.2-3.2,8.5c-2.4,2.3-5.4,4-5.4,4s1.3,3.8,0.5,8.5
		c-0.8,4.7-1.7,14-1.7,14s-2.3,1.8-2.8,3.5c-0.5,1.7-0.5,3.8-0.5,3.8s-4.2,3.8-6.5,6.2c-2.3,2.3-4.3,7.8-4.3,7.8l7.2,0.3l6-5.2
		l1,7.5l3.2-0.5l3.4-1.2l3.7,17.7l9.8,9l1,10.2l-5.5,4.5c0,0-0.3,14.3,0.8,15.3c1.2,1,9.5,2,9.5,2s1.7,9.8,6.2,11
		c4.5,1.2,9.2-2.5,10.7-1.8s13,1.2,13,1.2s2.3,2.8,6.7,2c4.3-0.8,8-3.7,8-3.7l11,0.2c0,0,0.5,3.3,4.7,3.7c4.2,0.3,7,0,7,0l24,30.1
		c0,0,0.8-3.9,3.8-2.9s4,2.9,4,2.9s3.5-4.6,6-4.2c2.5,0.3,11,1,11,1s3.5-0.7,7.5-0.3c4,0.3,8.3-2.7,11-2.2c2.7,0.5,2.3,1.2,4.3,0.8
		s3-3.7,6.5-3.2s8.3-0.3,11.2,2.5c2.8,2.8,4.5,5.7,3.7,8.7c-0.8,3-6.3,6.7-6.7,9.3c-0.3,2.7,1.8,6.7-1,9.7c-2.8,3-6.7,3-6,6
		c0.7,3,1.5,8.7,1.5,11.3c0,2.7-3.5,11.7-2.7,12.8s3.3,3.3,3.2,5.3c-0.2,2,0,8,1.7,9.2c1.7,1.2-1.3,5.8,1.7,8.7
		c3,2.8,6.3,4.5,6.3,4.5l2.2,7.2c0,0,3.8,0.5,3.6,2.8c-0.2,2.3-1.8,4.5-3.8,5.5s-4.2,2-4.2,2l-11,10.8c0,0,7-1.7,8.8,0.8
		s5.3,6.8,8,9c2.7,2.2,6.7,3.7,7,6.3c0.3,2.7,0,3.5,0,5.3s2.5,2.3,3.2,4.8c0.7,2.5,3.5,13,5.5,18.8c2,5.8,1.2,10.3,1.2,10.3
		l-8.8,2.2c0,0,2.5-12,1.2-15.7c-1.3-3.7-7.5-11.8-7.5-12.3s0.5-6.2-3.5-5.7s-9.7,10-12.3,11.5c-2.7,1.5-5.3,2.8-7,1.7
		c-1.7-1.2-5.2-9.3-7.3-7.8s0.5,9,0.5,9l-39.7-0.2l-6.2-2.5l-9.7,2.8l0.2,19.2c0,0,1.8-0.8,3.7,0c1.8,0.8,7.2,0.5,10,1.3
		c2.8,0.8,6-0.3,8.2,2s2.8,6.3,2.5,7.9c-0.3,1.6,1.5,5.7,0.3,6.7c-1.2,1-4.3,1.3-7.7-0.8c-3.3-2.2-4-5.5-5.8-4
		c-1.8,1.5-6.2,2.5-6.2,2.5l-13,3.1l0.7,25.2l9.7,9.3c0,0,5.7-0.7,6.7,1.8s-2.3,7.8-2.3,7.8s9.2,8.3,8.7,11.8s0.7,6.8-1,9.2
		c-1.7,2.3-3.3,6.7-3.3,6.7l-14.5,85.8c0,0-3.3-1.7-6.3-3.7c-6.4-4.3-3.8-8.7-5.7-8.3c-3.5,0.6-6.2,2.3-6.2,2.3s-1.5-0.8-4.5,0.1
		s-5-2.1-5-2.1l21.7-34.5c0,0-3-0.2-3.7-1.9c-0.7-1.8-2.3-3.4-2.3-3.4s-1.7,1-3-0.3c-1.3-1.3-2.3-1.8-2.3-1.8l-1.8-1.2
		c0,0-2,3.3-3.8,2.3c-1.8-1-1.7-6.3-4.2-7c-2.5-0.7-4.5-4.2-6.2-3.3c-1.7,0.8-1.2,1.2-2.7,2.3s-0.8,4.9-4.2,4.4
		c-3.3-0.5-8.3,0.2-8.5-1s-3-3.3-4.7-3.4c-1.7-0.1-3.2-2.4-5.5-2.4c-2.3,0-3.8,3.5-5.5,5.2c-1.7,1.7-4.2,0.3-6.2,1.7
		c-2,1.3-1.5,3.2-5.2,3.3c-3.7,0.2-6-2.8-9.5-2.3s-4.8,2.7-6.3,2.3c-1.5-0.3-1.3-2.3-2.9-1.7c-1.6,0.7-4.1,1.5-5.4,0.7
		c-1.3-0.8-3.2-2.3-3.2-2.3s-6.2-2.5-6.5-5.8c-0.3-3.3,3.2-3.5,2.2-6.3c-1-2.8-2.3-8.3-2.3-8.3s-3,3-7.5,0c-4.5-3-3.2-9.2-3.2-9.2
		s-1.5-5.2-4-6.8s-3.7-1.3-5.5-1.3s-4.7-4.5-4.7-4.5s-4-0.2-3.8-2c0.2-1.8-5.2,1.7-6.7-2.7s-2.2-7.7-2.2-7.7s-3.5-3.8-3.8-6.3
		c-0.3-2.5-0.3-2.5-0.3-2.5s-5.2-1.5-5.8-3.5c-0.7-2-5,0.3-5.2-1.5s1-5-0.8-4.8c-1.8,0.2-4.3,1.5-5.3,0.3s-5.5-7.5-7-6.3
		c-1.5,1.2-1,3.2-2.8,3.2s-4.7-1.2-7.5-2.8s-4.3-3.3-4.3-3.3s-3.8,1.5-6.3,0.2c-2.5-1.3-11.7-11.3-14.7-12c-3-0.7-2.7,2.5-5,1.1
		c-2.3-1.4-0.5,2.8-4.5,2.9c-4,0.2-5.7-2.2-8.3-1.3c-2.7,0.8-4.8,1.5-8.8-0.7c-4-2.2-9,0.5-12.5-2s-0.5-6.5-2.8-8.7
		c-2.3-2.2-6.5-3.5-6.5-3.5s0.5-5.7-2-5.2s-5.2,2.4-5.2,2.4s-0.8-4.1-3.8-3.8c-3,0.3-7.5,0.5-11.3-3.8c-3.8-4.3-3.5-6.7-6.3-6.7
		c-2.8,0-5.2-2-7.5-4.3c-2.3-2.3-3.7-3-3.7-3s0.2-3.4-1.8-4.4s-6.6,0.1-5.2-2.4c1.4-2.5,4-7,7.2-6.1s7.2,1,7.8,1.6s3-1.6,1.9-4.5
		s-2.4-3.2-3.6-5.9s-1-8.2,1.8-9.8c2.8-1.7,6-3.5,6-3.5s2,2,3.3,1.2s0.8-2.3,3.2-2.2c2.3,0.2,4.2,1.5,5.5,0.7c1.3-0.8,3,0.5,4.7-1.5
		s0-4.5,2.3-6c2.3-1.5,5.5-5.3,6.8-7.7c1.3-2.3,1.7-4.2,0.7-4.5c-1-0.3,1.5-3.3,3.8-6c2.3-2.7,4-1.3,5.3-3.3s2-3.2,4.5-6.8
		c2.5-3.7,2.2-7.5,4.5-8.8c2.3-1.3,4.3-3.3,1.7-3.3c-2.7,0-5.8,3.8-7,2.7c-1.2-1.2,5.2-4.4,3.3-6.2s-5.3-2.9-6,0
		c-0.7,2.9-1.8,1.3-3.7-1.2c-1.8-2.5-3.7-6.1-2.7-7.5c1-1.3,5.3,1.2,5.7-0.3c0.3-1.5-1.5-2.3-0.3-3.8s1.8-0.3,2-4.8s1.5-7.2,1.5-7.2
		s-3.7-3.2-3-8.5c0.7-5.3,2-12.2-0.5-13.7s-6.5-1.3-5.8-2.8c0.7-1.5,1.7-4,4.5-3.7c2.8,0.3,6.2-1,6.3-2.8c0.2-1.8-1.2-7.8-4-10.8
		s-5.8-7.5-4.5-8.5s2.3,1.7,3.5,0.7s-1.2-3.7,0.3-4c1.5-0.3,3.3-3.8,1.3-7c-2-3.2-4.7-3.3-6.3-3c-1.7,0.3,1.7-2.7-1-4.3
		c-2.7-1.7-5.7-1.5-4.8-3s4-2.7,0.8-5.8C74.6,183.4,71.6,180.5,71.6,180.5z"/>
</g>
<g id="Fl체sse">
</g>
<g id="Fl체sse_2" class="st0">
	<path class="st2" d="M173.9,52c0,0,5.4,8.1,4.8,13c-0.6,4.9-5.3,15.3-6,17.4c-0.8,2.1,3.6,2.5,3,5.8c-0.6,3.2-5,3.8-3,7
		c2,3.2,3.4,3.2,2.8,7.2s-2.7,1.8,0,6.8s1.3,9.2,3.2,11.2c1.9,2,3.9,0,4.7,6.8c0.8,6.7-0.5,8.7-1,11.5s3,6.2-0.2,8s-6.7,1.5-7.3,4.5
		s-1.9,4-6.9,4.5s-7.5-4-7.5,0s3.5,7.2,0,10.5s-6.3,6.2-4.9,8c1.4,1.8,3.3,2-0.4,3.8c-3.7,1.8,1.2,3.8-3.1,4.5s-6.3,0.9-9.8,5.1
		s-5.8,8.4-4,10.9s5,5.2,3,8.5c-2,3.2-0.8,11.7-2,13.1c-1.2,1.4-1.5,4.4,3,7.9s7.2,2.5,6.2,5.8s0.2,6.8-2,9.2s-4.8,1.2-6.2,5.5
		s-1.5,7-3.8,10.8s-0.5,6.8-3.8,10.1s-9.2,13.5-10.2,19.4s-3,10.2-4.5,14.5s6.8,5.2,1.2,10.2s-12,8.5-10.8,13s-0.6,5.2-0.2,9.5
		s2.9,1.5,5.4,5.2s5.5,5.2,4.2,8.8"/>
	<path class="st2" d="M114.4,358.7c0,0,2.5,3.1,10.2,2.4s2.2-1.5,10-4.8s10-4.8,11.3-9.2c1.2-4.5,2.9-12.5,7.5-15.8s3.5-14,8-21
		s7.8-17.7,10.2-21.7s0-11.4,1.8-16.1s-4.5-18.2,0-24.4s7-10,7-14.8s-2-11,0-15.5s4-3,6.5-7.5s-0.5-7.1,5.2-9.4
		c5.8-2.3,12.9-7,12.6-13.5c-0.3-6.6-4.1-7.3,0-15.6c4.2-8.2-3.2-13.8,0-16.8c3.2-3,5.4-2.5,3.4-12.8s1.5-10.8-1.2-14.7
		c-2.8-4-7-3.5-10.4-7.2c-3.4-3.8-9.9-7.8-11.6-7s-7.1-6.8-8.2-5.5s-1.8-0.1-1.8-0.1"/>
	<path class="st2" d="M411.4,288.7c0,0-2.6,3.5-5.9,4s-6.8-3.2-12.8,0s-3,6.5-13.5,6.8s-13.2,3-20.8,2.2s-4.8-2.8-12.8,1.2
		s-11,6.5-14,9s-5,2.3-6.8,7.3s-1.8,10.5-9.2,10.2s-13.8-0.5-17.8-1s-19-1.5-26.5-0.2s-9.1,1.5-18.4,5c-9.3,3.5-12.8,2-19.9,6.2
		c-7.1,4.2-7.9,7.5-14.1,6.2s-6.8,9.5-12.2,4.2s-2-10.2-7.5-11.5s-9.5-1-10.8-7s-1.5-5.8-4.8-9.5s-2.7-5-2-9.5s2-8,2-8"/>
	<path class="st2" d="M352.4,219.9c0,0,2.5,3.4-3.2,3.4s-8.5-1.8-10.5,2.2s-2,11.2-8.5,12.8s-11.8,0.5-14.2,4.8s-10,8.8-12.2,11.5
		s-5.2,8-12.2,10.5s-15.2,3.6-18.2,7.4s-2.4,6.8-5.8,6.1c-3.4-0.8-2.7-4.8-8.4-2c-5.8,2.8-2.8,3.6-10.7,4.8
		c-7.8,1.2-10.7,0.7-12.5,5c-1.8,4.2,0.4,7.5-5.8,6.2s-7,1.2-13.8-2s-12.2-10.8-12.5-14.2"/>
	<path class="st2" d="M235.7,351.3c3.9,0.3,7.9,9.5,11.7,9.9c3.8,0.4,8.8-0.4,8.5,3.6c-0.2,4-4.7,8.2,0,9.2c4.7,1,14.2,2.8,13.7,5.5
		s-4,5.5,3,4.8s11.5-3.2,13,1.2s2.8,3.8,5.5,4.5s0.8,2,4,2.2s5.5,6.8,6.8,4.8s2.2-4,4.8-3.3s6.8,0.2,4.2-3.2s-5-7.8-0.5-6.5
		s7.5,3.8,10.8,2s5-8.8,8.2-5.1s0.2,10.9,5,9.6s2.1-6,7.6-5.1c5.6,0.9,5,0.6,10.9,1.4c5.9,0.8,5.8-2.4,9.6,2.3s2,5.9,2.6,9.5
		c0.6,3.6-2.5,5.9-2.5,5.9"/>
	<path class="st2" d="M109.9,366.9c3.2,0.8,5.8,0.2,4.5,4.5s2.2,6.8,2.2,9.6s-5.2,6.9,2,8.9s12.2-4.3,16-1.8s1.8,6.5,6.5,7
		s6.8,0.3,9,2s7-1.9,8,1.9s1.8,7.6,5,8.3s4.2-1.5,5.2,3s-2.5,5.8,1.8,6.5s8.2-1,8.8,3s-2,8.5,3.2,8.6s8-0.9,9.5,1.1s9,1,9.6,3.5
		c0.6,2.5-1.1,4.5,4.6,4.5s1.2-2.5,5.8,0s6.2,4.2,10.2,3.2s2.5,3.5,6.5,3.2s0.8-4.5,5.8-2.5s5.9,4,8.7,2.5c2.8-1.5,2.7,4.2,5.4,3
		c2.7-1.2,2.3-7.2,4.7-5.2s2.7,4.5,5.7,3.2c3-1.2,5-3.8,5.8-2.2s2.2,6.8,4,7s2-3.8,4.8,0s2.8,7.5,7,6.8s3.8,1,3.5,2.8
		s3.5,3.5,5.8,1.8s2.8-3.5,5.8-1.5s4.8,6.2,8,6.5s2.8,1.2,6.2,3s5-2.8,7.2,0s4.8,0.5,8.8,3.2s6,4.8,7.8,3s2-11,6-11s4.9,3.6,8.5,3.3
		c3.5-0.3,5.8-4.8,7-2.6c1.3,2.3-1.1,7.3-1.1,7.3"/>
</g>
<g id="St채dte">
	<path class="st3" d="M560.6,497.9c0,0-6.2,17.5-11.2,18.5s-9.3-9.5-13.7-14.6c-4.3-5.1-11.5,11.7-16,12.5c-4.5,0.8-1.8-4.1-4-6.1
		c-2.2-2-2.7,4.7-4.2,6.8c-1.5,2.2-6.5-6.2-10.5-6.7s-10.3,3.7-16.5,3.5s-8-1.7-8-1.7s-3.7-5-6-4c-2.3,1-4.3,2.3-5.7,0
		c-1.3-2.3-4,4.7-6.7,4c-2.7-0.7-3-7.7-6-6s-1,9.5-4.7,10.1s-3.7-1.9-6.5,0c-2.8,1.9-5.2,3.2-6.5,2.2s0.3-4.7-2.7-4.3
		c-3,0.3,0-0.7-3,0.3c-3,1-1.3-2.2-4-2.1c-2.7,0.1-2.5,5.8-5.4,6.5c-2.9,0.7-10.9,0.7-12.9,5.3s0,10.7-4,12s-8.7,0.3-11.7,1.7
		c-3,1.3-10.7,1.3-15,2.3c-4.3,1-7.8-2-10.8,0s-7.2,0.7-8.6,2.7s-3.9,4.2-3.4,7s0.6,5.5-0.2,8.4c-0.6,1.9-2.5,1.9-0.8,4.1
		c1.8,2.3,2.2,3.5-0.5,4.8s-9.5,5.2-12.2,3.5s1.3-2.8-2.9-6.2c-4.1-3.4-6.1-3.3-8.4-6.3c-2.2-3-0.1-6.8-3.7-5.6
		c-2.6,0.9-4.7,1.7-5.7,2.2c-0.4,0.2-0.9,0.2-1.3,0.2c-0.8-0.1-2.3-0.2-3.9,0.1c-4,0.8-11.8,7.2-15.2,5.3c-3.5-1.9-1-5.9-6-5.3
		c-5,0.7-7.2,1.4-12.2-3.8s1-13.2-5.5-12.6c-6.5,0.6-10,5.9-17,5.9c-7,0-5.8-3.2-10-3s-8.2-0.2-13,1.5s-8,5.2-8,6.8s-0.2,1.2,0,3.8
		s0.5,5.2,1,6.9c0.5,1.6,2.3,4.9-1.1,4.1c-3.4-0.8-2.4-2.2-5.1,0s2.5,1.5,0,3.8s-0.2,5.8-2.8,6.5l-13.8,10.2c0,0-15-1.4-15,2.3
		c0,3.7,4.3,10.1,0,13.1"/>
	<path class="st3" d="M339.4,568.6c0,0,0,0-2.9,0.8c-2.9,0.8-1.1-0.5-4.3-2.8c-3.1-2.2-0.9,4.5-5.1,6s-1.2-6.8-2.2-10.2
		s-10,0.8-12.5,0s-3.2,1.8-7,5.5s-5.2,3-9,2s-4.8,3.5-8,2.8s-4.5,2.2-11,2s-6.2,2-9,3.2c0,0-7.5,3.6-8.8,7.3
		c-1.3,3.7,1.3,9.4-3.3,10.4c-4.7,1-20.3,2.7-20.5,6.7"/>
	<path class="st3" d="M405.5,527.9c0,0-5.8,1.8-6.3,0s0.5-3.1-2.5-2.8s-2.8,1-5.5-2s-0.8-2.5-8.2-3s-8.8-1-9.5,1.5s-2.5,3.4-4,2.6
		c-1.5-0.8-2,0.1-4.3,0c-2.2-0.1-0.5-1.3-6.2-2.6s-7.8,3-10.2,1s-2.9-2.6-3.9-4.5c-1.1-2,0.4-3.2-3.3-2.7s0-0.9-4.9-1.1
		s-6.6,3.4-9,0c-2.3-3.4-2.6-1.5-4.8-3.3s-4.7-3.4-4.7-3.4s-2.4,3.2-3.4,2.5s-2.5-5.8-3.6-6.5c-1-0.7-4.9-4.6-6.4-4.1
		c-1.5,0.5-3.7,2.3-4.1,3.2c-0.4,1,0.1,3.7-2.5,3.5c-2.6-0.1-8.1,1-8.8,0c-0.7-1-3.5-4.6-5.4-4.4s-3.1-3.7-5.5-2.4
		c-2.4,1.3-4.1,5.7-6.8,5.9s-3.4-0.7-4.9,0.9c-1.5,1.6-0.1,3.5-4,3.2c-3.9-0.3-6.9-2.9-9.8-2.2c-2.9,0.6-6,3.3-7.2,2.4
		c-1.2-0.9-1.6-2.1-2.9-1.7c-1.3,0.5-2.9,2-4.7,0.9c-1.8-1-7.8-4.6-9.4-6.3c-1.6-1.7-0.6-3,0-5.1c0.6-2,2.4,1,1.3-2.7
		s-2.5-9.1-2.5-9.1s-4.4,4.7-7.5,0s-1.9-5.9-3.2-9.2c-1.3-3.2-0.6-5.7-4.7-7.3c-4.1-1.6-5.7,1-7.1-1.6s-1.4-2.2-3.8-4
		c-2.3-1.8,0.4-2.4-3.2-2.4c-3.6,0.1-4.4,1.3-5.3-1.2c-1-2.5-1.7-8-3.8-11.6s-0.2-4.4-3.7-6c-3.5-1.6-3.8-4.2-6.3-4.1
		s-2.9,0.7-3.5,0c-0.5-0.7,2.1-5.1-0.5-5.1c-2.7,0-4.9,1.2-5.7,0.3c-0.9-0.9-6.9-7.3-7.4-6.7c-0.6,0.6,1.1,3.2-2,3
		c-3.1-0.2-6.3-1.1-8.9-3s-3.7-3-3.7-3s-3.6,2.3-6.3,0.2c-2.7-2.2-10.7-9.9-12.7-10.9c-2-1.1-2.7-1.5-4.4-0.6
		c-1.7,0.9-2.9,2.2-3.9,0.6c-1-1.6-3.8-1.9-4.5-6.6s-0.2-5.4-4.5-8.1s-7.2-5.5-8.9-8.2s-2.1-4.5,0-5.5s2.5-3.6,2.5-3.6"/>
	<g>
		<g>
			<path class="st4" d="M141.6,274.1h3.9c1.9,0,3.2,0.7,3.2,2.9c0,1.2-0.6,2.2-1.7,2.5v0c1.3,0.2,2.1,1.1,2.1,2.7
				c0,1.8-0.9,3.3-3.6,3.3h-3.9V274.1z M143.9,278.8h0.7c1.3,0,1.8-0.4,1.8-1.5c0-1.1-0.5-1.5-1.7-1.5h-0.8V278.8z M143.9,283.8h0.9
				c1.1,0,1.9-0.4,1.9-1.7s-0.8-1.7-1.8-1.7h-1V283.8z"/>
			<path class="st4" d="M154.2,276.7c2.7,0,3.4,1.5,3.4,4.5c0,2.9-0.9,4.5-3.4,4.5c-2.7,0-3.4-1.5-3.4-4.5
				C150.8,278.2,151.7,276.7,154.2,276.7z M154.2,284.2c0.9,0,1.2-0.9,1.2-3s-0.3-3-1.2-3c-1.1,0-1.2,1.3-1.2,3
				S153.1,284.2,154.2,284.2z"/>
			<path class="st4" d="M165.9,276.9v8.2c0,2.3-1,3.4-3.6,3.4c-1.9,0-2.9-0.8-2.9-2.3h2.1c0,0.3,0.1,0.5,0.3,0.7
				c0.2,0.1,0.5,0.2,0.7,0.2c0.9,0,1.2-0.7,1.2-1.6v-1.1h0c-0.4,0.6-1.1,1.1-1.8,1.1c-1.8,0-2.6-1.2-2.6-4.4c0-2,0.3-4.4,2.7-4.4
				c0.6,0,1.4,0.3,1.8,1.2h0v-1H165.9z M162.5,283.7c0.9,0,1.2-1,1.2-2.5c0-2.1-0.3-2.9-1.2-2.9c-1,0-1.2,0.8-1.2,3.1
				C161.4,282.6,161.6,283.7,162.5,283.7z"/>
			<path class="st4" d="M171.2,276.7c2.7,0,3.4,1.5,3.4,4.5c0,2.9-0.9,4.5-3.4,4.5c-2.7,0-3.4-1.5-3.4-4.5
				C167.8,278.2,168.6,276.7,171.2,276.7z M171.2,284.2c0.9,0,1.2-0.9,1.2-3s-0.3-3-1.2-3c-1.1,0-1.2,1.3-1.2,3
				S170.1,284.2,171.2,284.2z"/>
			<path class="st4" d="M176.9,274.4h2.2v2.5h1.3v1.5h-1.3v4.7c0,0.7,0.1,0.9,0.8,0.9c0.2,0,0.4,0,0.5,0v1.5c-0.5,0-0.9,0.1-1.4,0.1
				c-1.7,0-2-0.5-2-2.3v-4.9h-1.1v-1.5h1.1V274.4z"/>
			<path class="st4" d="M181.7,279.5v-0.2c0-2,1.4-2.7,3-2.7c2.6,0,3.1,1.1,3.1,2.6v4.5c0,0.8,0,1.2,0.3,1.7H186
				c-0.1-0.3-0.2-0.6-0.3-0.9h0c-0.5,0.9-1.1,1.1-2.2,1.1c-1.5,0-2.1-1.3-2.1-2.5c0-1.6,0.7-2.3,2.2-2.7l1.2-0.3
				c0.7-0.2,0.9-0.4,0.9-1c0-0.7-0.3-1.1-1-1.1c-0.7,0-1,0.4-1,1.1v0.2H181.7z M185.8,281.2c-0.3,0.2-0.7,0.4-0.9,0.4
				c-0.9,0.2-1.2,0.6-1.2,1.4c0,0.7,0.2,1.2,0.8,1.2s1.4-0.4,1.4-1.3V281.2z M184.7,273.6h2.2l-1.6,2.3h-1.5L184.7,273.6z"/>
		</g>
	</g>
	<g>
		<g>
			<path class="st4" d="M79.9,68.1c0-1.7-0.3-2.4-1.4-2.4c-1.2,0-1.4,1.2-1.4,4.4c0,3.5,0.5,4.1,1.5,4.1c0.8,0,1.4-0.4,1.4-2.9h2.3
				c0,2.5-0.6,4.6-3.6,4.6c-3.5,0-3.9-2.5-3.9-5.9c0-3.5,0.4-5.9,3.9-5.9c3.3,0,3.5,2.4,3.5,4.1H79.9z"/>
			<path class="st4" d="M84.2,69.7v-0.2c0-2,1.4-2.7,3-2.7c2.6,0,3.1,1.1,3.1,2.6V74c0,0.8,0,1.2,0.3,1.7h-2.1
				c-0.1-0.3-0.2-0.6-0.3-0.9h0c-0.5,0.9-1.1,1.1-2.2,1.1c-1.5,0-2.1-1.3-2.1-2.5c0-1.6,0.7-2.3,2.2-2.7l1.2-0.3
				c0.7-0.2,0.9-0.4,0.9-1c0-0.7-0.3-1.1-1-1.1c-0.7,0-1,0.4-1,1.1v0.2H84.2z M88.2,71.4c-0.3,0.2-0.7,0.4-0.9,0.4
				C86.4,72,86,72.4,86,73.2c0,0.7,0.2,1.2,0.8,1.2s1.4-0.4,1.4-1.3V71.4z"/>
			<path class="st4" d="M92.5,67.1h2.1v1.2h0c0.4-0.8,1.1-1.4,2-1.4c0.1,0,0.3,0,0.4,0V69c-0.2,0-0.5,0-0.7,0
				c-0.8,0-1.6,0.4-1.6,1.6v5.2h-2.2V67.1z"/>
			<path class="st4" d="M99,64.6h2.2v2.5h1.3v1.5h-1.3v4.7c0,0.7,0.1,0.9,0.8,0.9c0.2,0,0.4,0,0.5,0v1.5c-0.5,0-0.9,0.1-1.4,0.1
				c-1.7,0-2-0.5-2-2.3v-4.9h-1.1v-1.5H99V64.6z"/>
			<path class="st4" d="M103.9,69.7v-0.2c0-2,1.4-2.7,3-2.7c2.6,0,3.1,1.1,3.1,2.6V74c0,0.8,0,1.2,0.3,1.7h-2.1
				c-0.1-0.3-0.2-0.6-0.3-0.9h0c-0.5,0.9-1.1,1.1-2.2,1.1c-1.5,0-2.1-1.3-2.1-2.5c0-1.6,0.7-2.3,2.2-2.7l1.2-0.3
				c0.7-0.2,0.9-0.4,0.9-1c0-0.7-0.3-1.1-1-1.1c-0.7,0-1,0.4-1,1.1v0.2H103.9z M107.9,71.4c-0.3,0.2-0.7,0.4-0.9,0.4
				c-0.9,0.2-1.2,0.6-1.2,1.4c0,0.7,0.2,1.2,0.8,1.2s1.4-0.4,1.4-1.3V71.4z"/>
			<path class="st4" d="M118.7,67.1v8.2c0,2.3-1,3.4-3.6,3.4c-1.9,0-2.9-0.8-2.9-2.3h2.1c0,0.3,0.1,0.5,0.3,0.7s0.5,0.2,0.7,0.2
				c0.9,0,1.2-0.7,1.2-1.6v-1.1h0c-0.4,0.6-1.1,1.1-1.8,1.1c-1.8,0-2.6-1.2-2.6-4.4c0-2,0.3-4.4,2.7-4.4c0.6,0,1.4,0.3,1.8,1.2h0v-1
				H118.7z M115.4,73.9c0.9,0,1.2-1,1.2-2.5c0-2.1-0.3-2.9-1.2-2.9c-1,0-1.2,0.8-1.2,3.1C114.3,72.8,114.4,73.9,115.4,73.9z"/>
			<path class="st4" d="M122.8,71.7v0.7c0,1,0.3,2,1.1,2c0.7,0,1-0.6,1.2-1.6h2c-0.1,2-1,3.1-3.1,3.1c-3.2,0-3.3-2.5-3.3-4.6
				c0-2.3,0.4-4.4,3.4-4.4c2.6,0,3.2,1.7,3.2,4.4v0.5H122.8z M125,70.4c0-1.3-0.2-2-1.1-2c-0.9,0-1.1,0.9-1.1,1.7v0.3H125z"/>
			<path class="st4" d="M128.9,67.1h2.1v1h0c0.5-0.8,1.3-1.2,2.2-1.2c1.4,0,2.2,0.8,2.2,2.4v6.4h-2.2v-5.9c0-0.9-0.3-1.2-0.9-1.2
				c-0.8,0-1.2,0.5-1.2,1.4v5.7h-2.2V67.1z"/>
			<path class="st4" d="M137.5,69.7v-0.2c0-2,1.4-2.7,3-2.7c2.6,0,3.1,1.1,3.1,2.6V74c0,0.8,0,1.2,0.3,1.7h-2.1
				c-0.1-0.3-0.2-0.6-0.3-0.9h0c-0.5,0.9-1.1,1.1-2.2,1.1c-1.5,0-2.1-1.3-2.1-2.5c0-1.6,0.7-2.3,2.2-2.7l1.2-0.3
				c0.7-0.2,0.9-0.4,0.9-1c0-0.7-0.3-1.1-1-1.1c-0.7,0-1,0.4-1,1.1v0.2H137.5z M141.6,71.4c-0.3,0.2-0.7,0.4-0.9,0.4
				c-0.9,0.2-1.2,0.6-1.2,1.4c0,0.7,0.2,1.2,0.8,1.2s1.4-0.4,1.4-1.3V71.4z"/>
		</g>
	</g>
	<g>
		<g>
			<path class="st4" d="M83.2,43h3.9c1.9,0,3.2,0.7,3.2,2.9c0,1.2-0.6,2.2-1.7,2.5v0c1.3,0.2,2.1,1.1,2.1,2.7c0,1.8-0.9,3.3-3.6,3.3
				h-3.9V43z M85.5,47.7h0.7c1.3,0,1.8-0.4,1.8-1.5c0-1.1-0.5-1.5-1.7-1.5h-0.8V47.7z M85.5,52.7h0.9c1.1,0,1.9-0.4,1.9-1.7
				s-0.8-1.7-1.8-1.7h-1V52.7z"/>
			<path class="st4" d="M92.7,48.5v-0.2c0-2,1.4-2.7,3-2.7c2.6,0,3.1,1.1,3.1,2.6v4.5c0,0.8,0,1.2,0.3,1.7H97
				c-0.1-0.3-0.2-0.6-0.3-0.9h0c-0.5,0.9-1.1,1.1-2.2,1.1c-1.5,0-2.1-1.3-2.1-2.5c0-1.6,0.7-2.3,2.2-2.7l1.2-0.3
				c0.7-0.2,0.9-0.4,0.9-1c0-0.7-0.3-1.1-1-1.1c-0.7,0-1,0.4-1,1.1v0.2H92.7z M96.7,50.1c-0.3,0.2-0.7,0.4-0.9,0.4
				c-0.9,0.2-1.2,0.6-1.2,1.4c0,0.7,0.2,1.2,0.8,1.2s1.4-0.4,1.4-1.3V50.1z"/>
			<path class="st4" d="M101,45.8h2.1V47h0c0.4-0.8,1.1-1.4,2-1.4c0.1,0,0.3,0,0.4,0v2.1c-0.2,0-0.5,0-0.7,0c-0.8,0-1.6,0.4-1.6,1.6
				v5.2H101V45.8z"/>
			<path class="st4" d="M107,48.5v-0.2c0-2,1.4-2.7,3-2.7c2.6,0,3.1,1.1,3.1,2.6v4.5c0,0.8,0,1.2,0.3,1.7h-2.1
				c-0.1-0.3-0.2-0.6-0.3-0.9h0c-0.5,0.9-1.1,1.1-2.2,1.1c-1.5,0-2.1-1.3-2.1-2.5c0-1.6,0.7-2.3,2.2-2.7l1.2-0.3
				c0.7-0.2,0.9-0.4,0.9-1c0-0.7-0.3-1.1-1-1.1c-0.7,0-1,0.4-1,1.1v0.2H107z M111,50.1c-0.3,0.2-0.7,0.4-0.9,0.4
				c-0.9,0.2-1.2,0.6-1.2,1.4c0,0.7,0.2,1.2,0.8,1.2s1.4-0.4,1.4-1.3V50.1z"/>
			<path class="st4" d="M115.3,45.8h2.1v1h0c0.5-0.8,1.3-1.2,2.2-1.2c1.4,0,2.2,0.8,2.2,2.4v6.4h-2.2v-5.9c0-0.9-0.3-1.2-0.9-1.2
				c-0.8,0-1.2,0.5-1.2,1.4v5.7h-2.2V45.8z"/>
			<path class="st4" d="M128.3,53.6L128.3,53.6c-0.5,0.7-1.1,1-1.9,1c-1.8,0-2.6-1.3-2.6-4.5s0.8-4.5,2.6-4.5c0.9,0,1.5,0.3,2,1.1h0
				v-0.9h2.1v11.4h-2.2V53.6z M127.1,47.3c-1,0-1.2,1-1.2,2.8c0,1.9,0.2,2.8,1.2,2.8c1,0,1.2-1,1.2-2.8
				C128.3,48.3,128.1,47.3,127.1,47.3z"/>
			<path class="st4" d="M137,53.4L137,53.4c-0.5,0.8-1.3,1.2-2.2,1.2c-1.4,0-2.2-0.8-2.2-2.4v-6.4h2.2v5.9c0,0.9,0.3,1.2,0.9,1.2
				c0.8,0,1.2-0.5,1.2-1.4v-5.7h2.2v8.6H137V53.4z"/>
			<path class="st4" d="M141.3,42.9h2.2v1.9h-2.2V42.9z M141.3,45.8h2.2v8.6h-2.2V45.8z"/>
			<path class="st4" d="M145.8,43h2.2v11.4h-2.2V43z"/>
			<path class="st4" d="M150.3,43h2.2v11.4h-2.2V43z"/>
			<path class="st4" d="M154.7,48.5v-0.2c0-2,1.4-2.7,3-2.7c2.6,0,3.1,1.1,3.1,2.6v4.5c0,0.8,0,1.2,0.3,1.7H159
				c-0.1-0.3-0.2-0.6-0.3-0.9h0c-0.5,0.9-1.1,1.1-2.2,1.1c-1.5,0-2.1-1.3-2.1-2.5c0-1.6,0.7-2.3,2.2-2.7l1.2-0.3
				c0.7-0.2,0.9-0.4,0.9-1c0-0.7-0.3-1.1-1-1.1c-0.7,0-1,0.4-1,1.1v0.2H154.7z M158.7,50.1c-0.3,0.2-0.7,0.4-0.9,0.4
				c-0.9,0.2-1.2,0.6-1.2,1.4c0,0.7,0.2,1.2,0.8,1.2s1.4-0.4,1.4-1.3V50.1z"/>
		</g>
	</g>
	<g>
		<g>
			<path class="st4" d="M0.9,102.8V91.4h2.3v11.4H0.9z"/>
			<path class="st4" d="M7.1,100v0.3c0,0.8,0.4,1.2,1.2,1.2c0.7,0,1.1-0.3,1.1-1c0-0.6-0.4-0.8-0.8-1L7,99c-1.2-0.4-1.8-1.2-1.8-2.4
				c0-1.4,0.9-2.6,3.2-2.6c2,0,2.9,0.9,2.9,2.4v0.4h-2c0-0.9-0.3-1.3-1-1.3c-0.6,0-1,0.3-1,0.9c0,0.4,0.2,0.8,1,1l1.3,0.4
				c1.4,0.5,1.9,1.2,1.9,2.5c0,1.8-1.3,2.7-3.2,2.7c-2.5,0-3.2-1.1-3.2-2.7V100H7.1z"/>
			<path class="st4" d="M13.3,91.4h2.2v11.4h-2.2V91.4z"/>
			<path class="st4" d="M17.7,96.9v-0.2c0-2,1.4-2.7,3-2.7c2.6,0,3.1,1.1,3.1,2.6v4.5c0,0.8,0,1.2,0.3,1.7H22
				c-0.1-0.3-0.2-0.6-0.3-0.9h0c-0.5,0.9-1.1,1.1-2.2,1.1c-1.5,0-2.1-1.3-2.1-2.5c0-1.6,0.7-2.3,2.2-2.7l1.2-0.3
				c0.7-0.2,0.9-0.4,0.9-1c0-0.7-0.3-1.1-1-1.1c-0.7,0-1,0.4-1,1.1v0.2H17.7z M21.7,98.5c-0.3,0.2-0.7,0.4-0.9,0.4
				c-0.9,0.2-1.2,0.6-1.2,1.4c0,0.7,0.2,1.2,0.8,1.2s1.4-0.4,1.4-1.3V98.5z"/>
			<path class="st4" d="M27.7,100v0.3c0,0.8,0.4,1.2,1.2,1.2c0.7,0,1.1-0.3,1.1-1c0-0.6-0.4-0.8-0.8-1L27.6,99
				c-1.2-0.4-1.8-1.2-1.8-2.4c0-1.4,0.9-2.6,3.2-2.6c2,0,2.9,0.9,2.9,2.4v0.4h-2c0-0.9-0.3-1.3-1-1.3c-0.6,0-1,0.3-1,0.9
				c0,0.4,0.2,0.8,1,1l1.3,0.4c1.4,0.5,1.9,1.2,1.9,2.5c0,1.8-1.3,2.7-3.2,2.7c-2.5,0-3.2-1.1-3.2-2.7V100H27.7z"/>
			<path class="st4" d="M42.7,101.9L42.7,101.9c-0.5,0.8-1.1,1.1-2,1.1c-1.8,0-2.6-1.3-2.6-4.5s0.8-4.5,2.6-4.5c0.8,0,1.4,0.3,1.9,1
				h0v-3.6h2.2v11.4h-2.1V101.9z M41.4,101.4c1,0,1.2-1,1.2-2.8c0-1.9-0.2-2.8-1.2-2.8c-1,0-1.2,1-1.2,2.8
				C40.3,100.4,40.5,101.4,41.4,101.4z"/>
			<path class="st4" d="M48.8,98.9v0.7c0,1,0.3,2,1.1,2c0.7,0,1-0.6,1.2-1.6h2c-0.1,2-1,3.1-3.1,3.1c-3.2,0-3.3-2.5-3.3-4.6
				c0-2.3,0.4-4.4,3.4-4.4c2.6,0,3.2,1.7,3.2,4.4v0.5H48.8z M51.1,97.5c0-1.3-0.2-2-1.1-2c-0.9,0-1.1,0.9-1.1,1.7v0.3H51.1z"/>
			<path class="st4" d="M55.1,91.4h2.2v11.4h-2.2V91.4z"/>
			<path class="st4" d="M64,91.4h4.3c1.9,0,3,1,3,2.9c0,1.5-0.6,2.5-1.9,2.8v0c1.6,0.2,1.8,1.1,1.8,3.5c0,1.2,0.1,1.8,0.5,2v0.1
				h-2.5c-0.2-0.3-0.3-0.8-0.3-1.2l-0.1-2.2c0-0.9-0.4-1.4-1.4-1.4h-1.2v4.8H64V91.4z M66.3,96.4h1c1.1,0,1.7-0.5,1.7-1.7
				c0-1.1-0.6-1.6-1.6-1.6h-1.1V96.4z"/>
			<path class="st4" d="M76.6,94c2.7,0,3.4,1.5,3.4,4.5c0,2.9-0.9,4.5-3.4,4.5c-2.7,0-3.4-1.5-3.4-4.5C73.2,95.6,74,94,76.6,94z
				 M76.6,101.5c0.9,0,1.2-0.9,1.2-3s-0.3-3-1.2-3c-1.1,0-1.2,1.3-1.2,3S75.5,101.5,76.6,101.5z"/>
			<path class="st4" d="M83.4,100v0.3c0,0.8,0.4,1.2,1.2,1.2c0.7,0,1.1-0.3,1.1-1c0-0.6-0.4-0.8-0.8-1L83.3,99
				c-1.2-0.4-1.8-1.2-1.8-2.4c0-1.4,0.9-2.6,3.2-2.6c2,0,2.9,0.9,2.9,2.4v0.4h-2c0-0.9-0.3-1.3-1-1.3c-0.6,0-1,0.3-1,0.9
				c0,0.4,0.2,0.8,1,1l1.3,0.4c1.4,0.5,1.9,1.2,1.9,2.5c0,1.8-1.3,2.7-3.2,2.7c-2.5,0-3.2-1.1-3.2-2.7V100H83.4z"/>
			<path class="st4" d="M89.5,96.9v-0.2c0-2,1.4-2.7,3-2.7c2.6,0,3.1,1.1,3.1,2.6v4.5c0,0.8,0,1.2,0.3,1.7h-2.1
				c-0.1-0.3-0.2-0.6-0.3-0.9h0c-0.5,0.9-1.1,1.1-2.2,1.1c-1.5,0-2.1-1.3-2.1-2.5c0-1.6,0.7-2.3,2.2-2.7l1.2-0.3
				c0.7-0.2,0.9-0.4,0.9-1c0-0.7-0.3-1.1-1-1.1c-0.7,0-1,0.4-1,1.1v0.2H89.5z M93.6,98.5c-0.3,0.2-0.7,0.4-0.9,0.4
				c-0.9,0.2-1.2,0.6-1.2,1.4c0,0.7,0.2,1.2,0.8,1.2s1.4-0.4,1.4-1.3V98.5z"/>
			<path class="st4" d="M97.9,94.2h2.1v1.2h0c0.4-0.8,1.1-1.4,2-1.4c0.1,0,0.3,0,0.4,0v2.1c-0.2,0-0.5,0-0.7,0
				c-0.8,0-1.6,0.4-1.6,1.6v5.2h-2.2V94.2z"/>
			<path class="st4" d="M103.9,91.3h2.2v1.9h-2.2V91.3z M103.9,94.2h2.2v8.6h-2.2V94.2z"/>
			<path class="st4" d="M111.4,94c2.7,0,3.4,1.5,3.4,4.5c0,2.9-0.9,4.5-3.4,4.5c-2.7,0-3.4-1.5-3.4-4.5C108,95.6,108.9,94,111.4,94z
				 M111.4,101.5c0.9,0,1.2-0.9,1.2-3s-0.3-3-1.2-3c-1.1,0-1.2,1.3-1.2,3S110.3,101.5,111.4,101.5z"/>
			<path class="st4" d="M118.3,100v0.3c0,0.8,0.4,1.2,1.2,1.2c0.7,0,1.1-0.3,1.1-1c0-0.6-0.4-0.8-0.8-1l-1.6-0.6
				c-1.2-0.4-1.8-1.2-1.8-2.4c0-1.4,0.9-2.6,3.2-2.6c2,0,2.9,0.9,2.9,2.4v0.4h-2c0-0.9-0.3-1.3-1-1.3c-0.6,0-1,0.3-1,0.9
				c0,0.4,0.2,0.8,1,1l1.3,0.4c1.4,0.5,1.9,1.2,1.9,2.5c0,1.8-1.3,2.7-3.2,2.7c-2.5,0-3.2-1.1-3.2-2.7V100H118.3z"/>
		</g>
	</g>
	<g>
		<path class="st4" d="M226.3,35.8h4c2.3,0,3.1,1.7,3.1,3.4c0,2.4-1.5,3.4-3.6,3.4h-1.2v4.6h-2.3V35.8z M228.6,40.9h1
			c0.9,0,1.5-0.5,1.5-1.7c0-1.1-0.4-1.8-1.6-1.8h-1V40.9z"/>
		<path class="st4" d="M235.1,41.2V41c0-2,1.4-2.7,3-2.7c2.6,0,3.1,1.1,3.1,2.6v4.5c0,0.8,0,1.2,0.3,1.7h-2.1
			c-0.1-0.3-0.2-0.6-0.3-0.9h0c-0.5,0.9-1.1,1.1-2.2,1.1c-1.5,0-2.1-1.3-2.1-2.5c0-1.6,0.7-2.3,2.2-2.7l1.2-0.3
			c0.7-0.2,0.9-0.4,0.9-1c0-0.7-0.3-1.1-1-1.1c-0.7,0-1,0.4-1,1.1v0.2H235.1z M239.2,42.9c-0.3,0.2-0.7,0.4-0.9,0.4
			c-0.9,0.2-1.2,0.6-1.2,1.4c0,0.7,0.2,1.2,0.8,1.2s1.4-0.4,1.4-1.3V42.9z"/>
		<path class="st4" d="M243.6,35.8h2.2v11.4h-2.2V35.8z"/>
		<path class="st4" d="M251.1,38.4c2.7,0,3.4,1.5,3.4,4.5c0,2.9-0.9,4.5-3.4,4.5c-2.7,0-3.4-1.5-3.4-4.5
			C247.7,39.9,248.5,38.4,251.1,38.4z M251.1,45.9c0.9,0,1.2-0.9,1.2-3s-0.3-3-1.2-3c-1.1,0-1.2,1.3-1.2,3S250,45.9,251.1,45.9z"/>
		<path class="st4" d="M256.3,38.6h2.1v0.9h0c0.6-0.8,1.2-1.1,2.2-1.1c1,0,1.7,0.5,2,1.4h0c0.3-0.9,1.1-1.4,2.2-1.4
			c1.5,0,2.1,0.9,2.1,2.6v6.3h-2.2v-6c0-0.7-0.2-1.1-0.9-1.1c-0.7,0-1.2,0.5-1.2,1.5v5.7h-2.2v-6c0-0.7-0.2-1.1-0.9-1.1
			c-0.7,0-1.2,0.5-1.2,1.5v5.7h-2.2V38.6z"/>
		<path class="st4" d="M269.1,35.6h2.2v1.9h-2.2V35.6z M269.1,38.6h2.2v8.6h-2.2V38.6z"/>
		<path class="st4" d="M273.5,38.6h2.1v1h0c0.5-0.8,1.3-1.2,2.2-1.2c1.4,0,2.2,0.8,2.2,2.4v6.4h-2.2v-5.9c0-0.9-0.3-1.2-0.9-1.2
			c-0.8,0-1.2,0.5-1.2,1.4v5.7h-2.2V38.6z"/>
		<path class="st4" d="M285.3,38.4c2.7,0,3.4,1.5,3.4,4.5c0,2.9-0.9,4.5-3.4,4.5c-2.7,0-3.4-1.5-3.4-4.5
			C281.9,39.9,282.7,38.4,285.3,38.4z M285.3,45.9c0.9,0,1.2-0.9,1.2-3s-0.3-3-1.2-3c-1.1,0-1.2,1.3-1.2,3S284.2,45.9,285.3,45.9z"
			/>
	</g>
	<g>
		<g>
			<path class="st4" d="M237.5,241.6l1.6,8.5h0l1.7-8.5h2.4l-2.6,11.4h-3l-2.6-11.4H237.5z"/>
			<path class="st4" d="M244.8,241.4h2.2v1.9h-2.2V241.4z M244.8,244.4h2.2v8.6h-2.2V244.4z"/>
			<path class="st4" d="M249.2,241.6h2.2V253h-2.2V241.6z"/>
			<path class="st4" d="M253.7,241.6h2.2V253h-2.2V241.6z"/>
			<path class="st4" d="M258.1,247v-0.2c0-2,1.4-2.7,3-2.7c2.6,0,3.1,1.1,3.1,2.6v4.5c0,0.8,0,1.2,0.3,1.7h-2.1
				c-0.1-0.3-0.2-0.6-0.3-0.9h0c-0.5,0.9-1.1,1.1-2.2,1.1c-1.5,0-2.1-1.3-2.1-2.5c0-1.6,0.7-2.3,2.2-2.7l1.2-0.3
				c0.7-0.2,0.9-0.4,0.9-1c0-0.7-0.3-1.1-1-1.1c-0.7,0-1,0.4-1,1.1v0.2H258.1z M262.1,248.7c-0.3,0.2-0.7,0.4-0.9,0.4
				c-0.9,0.2-1.2,0.6-1.2,1.4c0,0.7,0.2,1.2,0.8,1.2c0.6,0,1.4-0.4,1.4-1.3V248.7z"/>
			<path class="st4" d="M240.2,269.1L240.2,269.1c-0.5,0.8-1.1,1.1-2,1.1c-1.8,0-2.6-1.3-2.6-4.5s0.8-4.5,2.6-4.5
				c0.8,0,1.4,0.3,1.9,1h0v-3.6h2.2V270h-2.1V269.1z M238.9,268.5c1,0,1.2-1,1.2-2.8s-0.2-2.8-1.2-2.8c-1,0-1.2,1-1.2,2.8
				S237.9,268.5,238.9,268.5z"/>
			<path class="st4" d="M246.3,266v0.7c0,1,0.3,2,1.1,2c0.7,0,1-0.6,1.2-1.6h2c-0.1,2-1,3.1-3.1,3.1c-3.2,0-3.3-2.5-3.3-4.6
				c0-2.3,0.4-4.5,3.4-4.5c2.6,0,3.2,1.7,3.2,4.4v0.5H246.3z M248.5,264.7c0-1.3-0.2-2-1.1-2c-0.9,0-1.1,0.9-1.1,1.7v0.3H248.5z"/>
			<path class="st4" d="M257,270v-11.4h2.3v9.5h4.1v1.9H257z"/>
			<path class="st4" d="M266.8,266v0.7c0,1,0.3,2,1.1,2c0.7,0,1-0.6,1.2-1.6h2c-0.1,2-1,3.1-3.1,3.1c-3.2,0-3.3-2.5-3.3-4.6
				c0-2.3,0.4-4.5,3.4-4.5c2.6,0,3.2,1.7,3.2,4.4v0.5H266.8z M269.1,264.7c0-1.3-0.2-2-1.1-2c-0.9,0-1.1,0.9-1.1,1.7v0.3H269.1z"/>
			<path class="st4" d="M273,271.2c0.2,0,0.4,0,0.6,0c0.8,0,1.1-0.4,1.2-1.2l-2.4-8.6h2.3l1.3,6h0l1.1-6h2.2l-2.1,8
				c-0.8,3-1.3,3.4-3.3,3.4H273V271.2z"/>
			<path class="st4" d="M284.8,261.4h2.2l-2.2,8.6h-2.6l-2.2-8.6h2.3l1.2,6.2h0L284.8,261.4z"/>
			<path class="st4" d="M288.5,264v-0.2c0-2,1.4-2.7,3-2.7c2.6,0,3.1,1.1,3.1,2.6v4.5c0,0.8,0,1.2,0.3,1.7h-2.1
				c-0.1-0.3-0.2-0.6-0.3-0.9h0c-0.5,0.9-1.1,1.1-2.2,1.1c-1.5,0-2.1-1.3-2.1-2.5c0-1.6,0.7-2.3,2.2-2.7l1.2-0.3
				c0.7-0.2,0.9-0.4,0.9-1c0-0.7-0.3-1.1-1-1.1c-0.7,0-1,0.4-1,1.1v0.2H288.5z M292.5,265.7c-0.3,0.2-0.7,0.4-0.9,0.4
				c-0.9,0.2-1.2,0.6-1.2,1.4c0,0.7,0.2,1.2,0.8,1.2c0.6,0,1.4-0.4,1.4-1.3V265.7z"/>
		</g>
	</g>
	<g>
		<g>
			<path class="st5" d="M168.5,547.9h2.1l2.3,8.6h-1.8l-0.4-1.8h-2.3l-0.4,1.8h-1.8L168.5,547.9z M168.8,553.2h1.7l-0.8-3.9h0
				L168.8,553.2z"/>
			<path class="st5" d="M174,550h1.6v0.7h0c0.4-0.6,0.9-0.8,1.6-0.8c0.8,0,1.3,0.4,1.5,1h0c0.3-0.7,0.9-1,1.6-1
				c1.1,0,1.6,0.7,1.6,1.9v4.7h-1.7V552c0-0.5-0.2-0.8-0.6-0.8c-0.5,0-0.9,0.4-0.9,1.1v4.2h-1.7V552c0-0.5-0.2-0.8-0.6-0.8
				c-0.5,0-0.9,0.4-0.9,1.1v4.2H174V550z"/>
			<path class="st5" d="M183.5,552v-0.2c0-1.5,1-2,2.3-2c2,0,2.3,0.8,2.3,2v3.4c0,0.6,0,0.9,0.2,1.2h-1.6c-0.1-0.2-0.2-0.5-0.2-0.7
				h0c-0.4,0.7-0.9,0.8-1.6,0.8c-1.2,0-1.6-1-1.6-1.8c0-1.2,0.5-1.7,1.6-2l0.9-0.3c0.5-0.1,0.7-0.3,0.7-0.8c0-0.5-0.2-0.8-0.8-0.8
				c-0.5,0-0.8,0.3-0.8,0.8v0.2H183.5z M186.6,553.2c-0.2,0.2-0.5,0.3-0.7,0.3c-0.7,0.1-0.9,0.5-0.9,1c0,0.5,0.2,0.9,0.6,0.9
				c0.4,0,1-0.3,1-1V553.2z"/>
			<path class="st5" d="M189.5,555.2l2.6-3.8h-2.5V550h4.4v1.3l-2.6,3.8h2.6v1.3h-4.5V555.2z"/>
			<path class="st5" d="M197.7,549.9c2,0,2.5,1.2,2.5,3.4c0,2.2-0.6,3.4-2.5,3.4c-2,0-2.5-1.2-2.5-3.4
				C195.2,551,195.8,549.9,197.7,549.9z M197.7,555.5c0.7,0,0.9-0.7,0.9-2.3c0-1.6-0.2-2.3-0.9-2.3c-0.8,0-0.9,0.9-0.9,2.3
				S196.9,555.5,197.7,555.5z"/>
			<path class="st5" d="M201.6,550h1.6v0.8h0c0.3-0.6,0.9-0.9,1.6-0.9c1,0,1.6,0.6,1.6,1.8v4.8h-1.7V552c0-0.6-0.2-0.9-0.7-0.9
				c-0.6,0-0.9,0.3-0.9,1.1v4.3h-1.7V550z"/>
			<path class="st5" d="M208.1,552v-0.2c0-1.5,1-2,2.3-2c2,0,2.3,0.8,2.3,2v3.4c0,0.6,0,0.9,0.2,1.2h-1.6c-0.1-0.2-0.2-0.5-0.2-0.7
				h0c-0.4,0.7-0.9,0.8-1.6,0.8c-1.2,0-1.6-1-1.6-1.8c0-1.2,0.5-1.7,1.6-2l0.9-0.3c0.5-0.1,0.7-0.3,0.7-0.8c0-0.5-0.2-0.8-0.8-0.8
				c-0.5,0-0.8,0.3-0.8,0.8v0.2H208.1z M211.1,553.2c-0.2,0.2-0.5,0.3-0.7,0.3c-0.7,0.1-0.9,0.5-0.9,1c0,0.5,0.2,0.9,0.6,0.9
				c0.4,0,1-0.3,1-1V553.2z"/>
			<path class="st5" d="M215.6,554.4v0.2c0,0.6,0.3,0.9,0.9,0.9c0.5,0,0.8-0.3,0.8-0.8c0-0.4-0.3-0.6-0.6-0.7l-1.2-0.4
				c-0.9-0.3-1.4-0.9-1.4-1.8c0-1.1,0.7-1.9,2.4-1.9c1.5,0,2.2,0.7,2.2,1.8v0.3h-1.5c0-0.6-0.2-1-0.7-1c-0.4,0-0.8,0.2-0.8,0.7
				c0,0.3,0.2,0.6,0.7,0.8l1,0.3c1,0.3,1.4,0.9,1.4,1.8c0,1.4-1,2-2.4,2c-1.9,0-2.4-0.8-2.4-2.1v-0.2H215.6z"/>
		</g>
	</g>
	<g>
		<g>
			<path class="st5" d="M453.1,519.7h2.1l2.3,8.6h-1.8l-0.4-1.8H453l-0.4,1.8h-1.8L453.1,519.7z M453.3,525h1.7l-0.8-3.8h0
				L453.3,525z"/>
			<path class="st5" d="M458.5,521.8h1.6v0.7h0c0.4-0.6,0.9-0.8,1.6-0.8c0.8,0,1.3,0.4,1.5,1h0c0.3-0.7,0.9-1,1.6-1
				c1.1,0,1.6,0.7,1.6,1.9v4.7h-1.7v-4.5c0-0.5-0.2-0.8-0.6-0.8c-0.5,0-0.9,0.4-0.9,1.1v4.2h-1.7v-4.5c0-0.5-0.2-0.8-0.6-0.8
				c-0.5,0-0.9,0.4-0.9,1.1v4.2h-1.7V521.8z"/>
			<path class="st5" d="M468.1,523.8v-0.2c0-1.5,1-2,2.3-2c2,0,2.3,0.8,2.3,2v3.4c0,0.6,0,0.9,0.2,1.2h-1.6
				c-0.1-0.2-0.2-0.5-0.2-0.7h0c-0.4,0.7-0.9,0.8-1.6,0.8c-1.2,0-1.6-1-1.6-1.8c0-1.2,0.5-1.7,1.6-2l0.9-0.3
				c0.5-0.1,0.7-0.3,0.7-0.8c0-0.5-0.2-0.8-0.8-0.8c-0.5,0-0.8,0.3-0.8,0.8v0.2H468.1z M471.1,525c-0.2,0.2-0.5,0.3-0.7,0.3
				c-0.7,0.1-0.9,0.5-0.9,1c0,0.5,0.2,0.9,0.6,0.9c0.4,0,1-0.3,1-1V525z"/>
			<path class="st5" d="M474.1,527l2.6-3.8h-2.5v-1.3h4.4v1.3l-2.6,3.8h2.6v1.3h-4.5V527z"/>
			<path class="st5" d="M482.3,521.6c2,0,2.5,1.2,2.5,3.4c0,2.2-0.6,3.4-2.5,3.4c-2,0-2.5-1.2-2.5-3.4
				C479.7,522.8,480.4,521.6,482.3,521.6z M482.3,527.3c0.7,0,0.9-0.7,0.9-2.3s-0.2-2.3-0.9-2.3c-0.8,0-0.9,0.9-0.9,2.3
				S481.5,527.3,482.3,527.3z"/>
			<path class="st5" d="M486.2,521.8h1.6v0.8h0c0.3-0.6,0.9-0.9,1.6-0.9c1,0,1.6,0.6,1.6,1.8v4.8h-1.7v-4.5c0-0.6-0.2-0.9-0.7-0.9
				c-0.6,0-0.9,0.3-0.9,1.1v4.3h-1.7V521.8z"/>
			<path class="st5" d="M492.7,523.8v-0.2c0-1.5,1-2,2.3-2c2,0,2.3,0.8,2.3,2v3.4c0,0.6,0,0.9,0.2,1.2h-1.6
				c-0.1-0.2-0.2-0.5-0.2-0.7h0c-0.4,0.7-0.9,0.8-1.6,0.8c-1.2,0-1.6-1-1.6-1.8c0-1.2,0.5-1.7,1.6-2l0.9-0.3
				c0.5-0.1,0.7-0.3,0.7-0.8c0-0.5-0.2-0.8-0.8-0.8c-0.5,0-0.8,0.3-0.8,0.8v0.2H492.7z M495.7,525c-0.2,0.2-0.5,0.3-0.7,0.3
				c-0.7,0.1-0.9,0.5-0.9,1c0,0.5,0.2,0.9,0.6,0.9c0.4,0,1-0.3,1-1V525z"/>
			<path class="st5" d="M500.1,526.2v0.2c0,0.6,0.3,0.9,0.9,0.9c0.5,0,0.8-0.3,0.8-0.8c0-0.4-0.3-0.6-0.6-0.7l-1.2-0.4
				c-0.9-0.3-1.4-0.9-1.4-1.8c0-1.1,0.7-1.9,2.4-1.9c1.5,0,2.2,0.7,2.2,1.8v0.3h-1.5c0-0.6-0.2-1-0.7-1c-0.4,0-0.8,0.2-0.8,0.7
				c0,0.3,0.2,0.6,0.7,0.8l1,0.3c1,0.3,1.4,0.9,1.4,1.8c0,1.4-1,2-2.4,2c-1.9,0-2.4-0.8-2.4-2.1v-0.2H500.1z"/>
		</g>
	</g>
	<g>
		<g>
			<path class="st5" d="M225.4,583v6.2c0,1.8-0.8,2.6-2.6,2.6c-1.8,0-2.3-1.2-2.3-2.5v-0.4h1.6v0.3c0,0.9,0.1,1.3,0.8,1.3
				c0.6,0,0.8-0.4,0.8-1.3V583H225.4z"/>
			<path class="st5" d="M226.9,587.1v-0.2c0-1.5,1-2,2.3-2c2,0,2.3,0.8,2.3,2v3.4c0,0.6,0,0.9,0.2,1.2h-1.6
				c-0.1-0.2-0.2-0.5-0.2-0.7h0c-0.4,0.7-0.9,0.8-1.6,0.8c-1.2,0-1.6-1-1.6-1.8c0-1.2,0.5-1.7,1.6-2l0.9-0.3
				c0.5-0.1,0.7-0.3,0.7-0.8c0-0.5-0.2-0.8-0.8-0.8c-0.5,0-0.8,0.3-0.8,0.8v0.2H226.9z M230,588.3c-0.2,0.2-0.5,0.3-0.7,0.3
				c-0.7,0.1-0.9,0.5-0.9,1c0,0.5,0.2,0.9,0.6,0.9c0.4,0,1-0.3,1-1V588.3z"/>
			<path class="st5" d="M236.3,585.1h1.7l-1.6,6.5h-1.9l-1.7-6.5h1.7l0.9,4.6h0L236.3,585.1z"/>
			<path class="st5" d="M239,587.1v-0.2c0-1.5,1-2,2.3-2c2,0,2.3,0.8,2.3,2v3.4c0,0.6,0,0.9,0.2,1.2h-1.6c-0.1-0.2-0.2-0.5-0.2-0.7
				h0c-0.4,0.7-0.9,0.8-1.6,0.8c-1.2,0-1.6-1-1.6-1.8c0-1.2,0.5-1.7,1.6-2l0.9-0.3c0.5-0.1,0.7-0.3,0.7-0.8c0-0.5-0.2-0.8-0.8-0.8
				c-0.5,0-0.8,0.3-0.8,0.8v0.2H239z M242,588.3c-0.2,0.2-0.5,0.3-0.7,0.3c-0.7,0.1-0.9,0.5-0.9,1c0,0.5,0.2,0.9,0.6,0.9
				c0.4,0,1-0.3,1-1V588.3z"/>
			<path class="st5" d="M245.3,585.1h1.6v0.9h0c0.3-0.6,0.8-1,1.5-1c0.1,0,0.2,0,0.3,0v1.6c-0.2,0-0.3,0-0.5,0
				c-0.6,0-1.2,0.3-1.2,1.2v3.9h-1.7V585.1z"/>
			<path class="st5" d="M249.8,582.9h1.7v1.4h-1.7V582.9z M249.8,585.1h1.7v6.5h-1.7V585.1z"/>
		</g>
	</g>
	<g>
		<g>
			<path class="st4" d="M252.2,202.5c0-0.8-0.4-1.9-1.3-1.9c-1.1,0-1.6,1.2-1.6,4c0,2.8,0.3,4.5,1.6,4.5c0.5,0,1.4-0.6,1.4-1.8V206
				h-1.5v-1.7h3.7v6.2h-1.7v-1.1h0c-0.5,0.9-1.3,1.3-2.4,1.3c-2.8,0-3.4-2.1-3.4-6.1c0-3.8,0.9-5.8,3.8-5.8c2.5,0,3.6,1.3,3.6,3.6
				H252.2z"/>
			<path class="st4" d="M261,209.5L261,209.5c-0.5,0.8-1.3,1.2-2.2,1.2c-1.4,0-2.2-0.8-2.2-2.4v-6.4h2.2v5.9c0,0.9,0.3,1.2,0.9,1.2
				c0.8,0,1.2-0.5,1.2-1.4v-5.7h2.2v8.6H261V209.5z M257.6,198.9h1.8v1.9h-1.8V198.9z M260.4,198.9h1.8v1.9h-1.8V198.9z"/>
			<path class="st4" d="M265.3,199h2.2v1.9h-2.2V199z M265.3,201.9h2.2v8.6h-2.2V201.9z"/>
			<path class="st4" d="M273.9,205c0-0.8-0.2-1.7-1-1.7c-1.1,0-1.3,1-1.3,2.9c0,2.1,0.2,3,1.2,3c0.7,0,1.1-0.6,1.1-2h2.1
				c0,2.3-0.9,3.5-3.3,3.5c-2.2,0-3.3-1.1-3.3-4.5c0-3.5,1.5-4.5,3.5-4.5c2,0,3.1,1.3,3.1,3.3H273.9z"/>
			<path class="st4" d="M277.8,204.5v-0.2c0-2,1.4-2.7,3-2.7c2.6,0,3.1,1.1,3.1,2.6v4.5c0,0.8,0,1.2,0.3,1.7h-2.1
				c-0.1-0.3-0.2-0.6-0.3-0.9h0c-0.5,0.9-1.1,1.1-2.2,1.1c-1.5,0-2.1-1.3-2.1-2.5c0-1.6,0.7-2.3,2.2-2.7l1.2-0.3
				c0.7-0.2,0.9-0.4,0.9-1c0-0.7-0.3-1.1-1-1.1c-0.7,0-1,0.4-1,1.1v0.2H277.8z M281.8,206.2c-0.3,0.2-0.7,0.4-0.9,0.4
				c-0.9,0.2-1.2,0.6-1.2,1.4c0,0.7,0.2,1.2,0.8,1.2c0.6,0,1.4-0.4,1.4-1.3V206.2z M280.7,198.6h2.2l-1.6,2.3h-1.5L280.7,198.6z"/>
			<path class="st4" d="M286.1,201.9h2.1v1h0c0.5-0.8,1.3-1.2,2.2-1.2c1.4,0,2.2,0.8,2.2,2.4v6.4h-2.2v-5.9c0-0.9-0.3-1.2-0.9-1.2
				c-0.8,0-1.2,0.5-1.2,1.4v5.7h-2.2V201.9z"/>
		</g>
	</g>
	<g>
		<g>
			<path class="st4" d="M284.8,232.4c0-1.7-0.3-2.4-1.4-2.4c-1.2,0-1.4,1.2-1.4,4.4c0,3.5,0.5,4.1,1.5,4.1c0.8,0,1.4-0.4,1.4-2.9
				h2.3c0,2.5-0.6,4.6-3.6,4.6c-3.5,0-3.9-2.5-3.9-5.9c0-3.5,0.4-5.9,3.9-5.9c3.3,0,3.5,2.4,3.5,4.1H284.8z"/>
			<path class="st4" d="M292.2,231.1c2.7,0,3.4,1.5,3.4,4.5c0,2.9-0.9,4.5-3.4,4.5c-2.7,0-3.4-1.5-3.4-4.5
				C288.8,232.7,289.6,231.1,292.2,231.1z M292.2,238.6c0.9,0,1.2-0.9,1.2-3s-0.3-3-1.2-3c-1.1,0-1.2,1.3-1.2,3
				S291.1,238.6,292.2,238.6z"/>
			<path class="st4" d="M301.5,234.4c0-0.8-0.2-1.7-1-1.7c-1.1,0-1.3,1-1.3,2.9c0,2.1,0.2,3,1.2,3c0.7,0,1.1-0.6,1.1-2h2.1
				c0,2.3-0.9,3.5-3.3,3.5c-2.2,0-3.3-1.1-3.3-4.5c0-3.5,1.5-4.5,3.5-4.5c2,0,3.1,1.3,3.1,3.3H301.5z"/>
			<path class="st4" d="M309.8,238.9L309.8,238.9c-0.5,0.8-1.3,1.2-2.2,1.2c-1.4,0-2.2-0.8-2.2-2.4v-6.4h2.2v5.9
				c0,0.9,0.3,1.2,0.9,1.2c0.8,0,1.2-0.5,1.2-1.4v-5.7h2.2v8.6h-2.1V238.9z"/>
			<path class="st4" d="M314.1,241.1c0.2,0,0.4,0,0.6,0c0.8,0,1.1-0.4,1.2-1.2l-2.4-8.6h2.3l1.3,6h0l1.1-6h2.2l-2.1,8
				c-0.8,3-1.3,3.4-3.3,3.4h-0.9V241.1z"/>
		</g>
	</g>
	<g>
		<g>
			<g>
				<path d="M263.8,299.9h2.5v4.7l4.5-4.7h3.1l-4.5,4.5l4.9,6.9h-3.2l-3.4-5.1l-1.4,1.5v3.7h-2.5V299.9z"/>
				<path d="M283.7,299.7c3.5,0,5.6,2.6,5.6,6c0,3.3-2.1,5.9-5.6,5.9c-3.5,0-5.6-2.6-5.6-5.9C278,302.3,280.1,299.7,283.7,299.7z
					 M283.7,309.5c2.3,0,3.1-1.9,3.1-3.8c0-2-0.8-3.9-3.1-3.9s-3.1,1.9-3.1,3.9C280.6,307.6,281.4,309.5,283.7,309.5z"/>
				<path d="M294.2,299.9h2.5v9.3h5.6v2.1h-8.1V299.9z"/>
				<path d="M316.6,307c0,3.1-1.8,4.6-4.9,4.6c-3.1,0-4.9-1.5-4.9-4.6v-7.1h2.5v7.1c0,1.2,0.3,2.5,2.4,2.5c1.8,0,2.4-0.8,2.4-2.5
					v-7.1h2.5V307z"/>
				<path d="M321.9,299.9h3.5l2.7,7.9h0l2.5-7.9h3.5v11.4h-2.4v-8.1h0l-2.8,8.1h-1.9l-2.8-8h0v8h-2.4V299.9z"/>
				<path d="M339.6,299.9h5.4c2.2,0,3.7,0.7,3.7,2.8c0,1.1-0.6,1.9-1.6,2.4c1.4,0.4,2.1,1.5,2.1,2.9c0,2.3-2,3.3-4,3.3h-5.5V299.9z
					 M342.2,304.6h2.5c0.9,0,1.5-0.4,1.5-1.4c0-1.1-0.8-1.3-1.7-1.3h-2.4V304.6z M342.2,309.4h2.7c1,0,1.9-0.3,1.9-1.5
					c0-1.2-0.7-1.6-1.8-1.6h-2.7V309.4z"/>
				<path d="M354.1,299.9h2.5v11.4h-2.5V299.9z"/>
				<path d="M362,299.9h8.5v2.1h-6v2.4h5.5v2h-5.5v2.8h6.2v2.1H362V299.9z"/>
				<path d="M375.6,299.9h2.5l4.8,7.7h0v-7.7h2.4v11.4h-2.5l-4.8-7.7h0v7.7h-2.4V299.9z"/>
			</g>
		</g>
	</g>
	<g>
		<g>
			<g>
				<path class="st6" d="M397,441.7h5.4c2.2,0,3.6,0.7,3.6,2.8c0,1.1-0.6,1.9-1.6,2.4c1.4,0.4,2.1,1.5,2.1,2.9c0,2.3-2,3.3-4,3.3
					H397V441.7z M399.5,446.3h2.5c0.9,0,1.5-0.4,1.5-1.4c0-1.1-0.8-1.3-1.7-1.3h-2.4V446.3z M399.5,451.1h2.7c1,0,1.9-0.3,1.9-1.5
					c0-1.2-0.7-1.6-1.8-1.6h-2.7V451.1z"/>
				<path class="st6" d="M411.5,441.7h6.2c2,0,3.3,1.4,3.3,3.2c0,1.3-0.5,2.4-1.8,2.9v0c1.2,0.3,1.6,1.5,1.7,2.7
					c0,0.7,0,2.1,0.5,2.7h-2.5c-0.3-0.7-0.3-1.8-0.4-2.7c-0.2-1.2-0.6-1.7-1.9-1.7H414v4.5h-2.5V441.7z M414,446.8h2.8
					c1.1,0,1.7-0.5,1.7-1.6c0-1.1-0.6-1.6-1.7-1.6H414V446.8z"/>
				<path class="st6" d="M429.3,441.7h2.6l4.3,11.4h-2.6l-0.9-2.5h-4.3l-0.9,2.5H425L429.3,441.7z M429.1,448.7h3l-1.4-4.2h0
					L429.1,448.7z"/>
				<path class="st6" d="M442.1,449.3c0,1.5,1.2,2.1,2.5,2.1c0.9,0,2.2-0.3,2.2-1.4c0-1.2-1.7-1.4-3.4-1.9c-1.7-0.4-3.4-1.1-3.4-3.2
					c0-2.3,2.2-3.5,4.3-3.5c2.4,0,4.6,1,4.6,3.7h-2.4c-0.1-1.4-1.1-1.7-2.3-1.7c-0.8,0-1.7,0.3-1.7,1.3c0,0.9,0.5,1,3.4,1.7
					c0.8,0.2,3.4,0.7,3.4,3.3c0,2.1-1.6,3.7-4.8,3.7c-2.5,0-4.9-1.2-4.9-4.1H442.1z"/>
				<path class="st6" d="M454,441.7h2.5v11.4H454V441.7z"/>
				<path class="st6" d="M461.9,441.7h2.5v9.3h5.6v2.1h-8.1V441.7z"/>
				<path class="st6" d="M474.6,441.7h2.5v11.4h-2.5V441.7z"/>
				<path class="st6" d="M482.5,441.7h8.5v2.1h-6v2.4h5.5v2H485v2.8h6.2v2.1h-8.7V441.7z"/>
				<path class="st6" d="M496.1,441.7h2.5l4.8,7.7h0v-7.7h2.4v11.4h-2.5l-4.8-7.7h0v7.7h-2.4V441.7z"/>
			</g>
		</g>
	</g>
	<g>
		<g>
			<g>
				<path class="st6" d="M87.5,496.7h5.2c2.8,0,4,1.8,4,3.7c0,1.9-1.1,3.7-4,3.7H90v4.1h-2.5V496.7z M90,502h2
					c1.2,0,2.2-0.3,2.2-1.7c0-1.5-1-1.7-2.2-1.7h-2V502z"/>
				<path class="st6" d="M101.3,496.7h8.5v2.1h-6v2.4h5.5v2h-5.5v2.8h6.2v2.1h-8.7V496.7z"/>
				<path class="st6" d="M114.9,496.7h6.2c2,0,3.3,1.4,3.3,3.2c0,1.3-0.5,2.4-1.8,2.9v0c1.2,0.3,1.6,1.5,1.7,2.7
					c0,0.7,0,2.1,0.5,2.7h-2.5c-0.3-0.7-0.3-1.8-0.4-2.7c-0.2-1.2-0.6-1.7-1.9-1.7h-2.5v4.5h-2.5V496.7z M117.4,501.8h2.8
					c1.1,0,1.7-0.5,1.7-1.6c0-1.1-0.6-1.6-1.7-1.6h-2.8V501.8z"/>
				<path class="st6" d="M139.4,503.8c0,3.1-1.8,4.6-4.9,4.6c-3.1,0-4.9-1.5-4.9-4.6v-7.1h2.5v7.1c0,1.2,0.3,2.5,2.4,2.5
					c1.8,0,2.4-0.8,2.4-2.5v-7.1h2.5V503.8z"/>
			</g>
		</g>
	</g>
	<g>
		<circle class="st7" cx="199.2" cy="254.7" r="5.7"/>
	</g>
	<g>
		<g>
			<path class="st4" d="M282.3,545.7v-11.4h2.3v9.5h4.1v1.9H282.3z"/>
			<path class="st4" d="M292.1,541.7v0.7c0,1,0.3,2,1.1,2c0.7,0,1-0.6,1.2-1.6h2c-0.1,2-1,3.1-3.1,3.1c-3.2,0-3.3-2.5-3.3-4.6
				c0-2.3,0.4-4.4,3.4-4.4c2.6,0,3.2,1.7,3.2,4.4v0.5H292.1z M294.4,540.4c0-1.3-0.2-2-1.1-2c-0.9,0-1.1,0.9-1.1,1.7v0.3H294.4z"/>
			<path class="st4" d="M298.8,534.6h2.2v2.5h1.3v1.5H301v4.7c0,0.7,0.1,0.9,0.8,0.9c0.2,0,0.4,0,0.5,0v1.5c-0.5,0-0.9,0.1-1.4,0.1
				c-1.7,0-2-0.5-2-2.3v-4.9h-1.1v-1.5h1.1V534.6z"/>
			<path class="st4" d="M303.7,534.1h2.2v1.9h-2.2V534.1z M303.7,537.1h2.2v8.6h-2.2V537.1z"/>
			<path class="st4" d="M312.3,540.2c0-0.8-0.2-1.7-1-1.7c-1.1,0-1.3,1-1.3,2.9c0,2.1,0.2,3,1.2,3c0.7,0,1.1-0.6,1.1-2h2.1
				c0,2.3-0.9,3.5-3.3,3.5c-2.2,0-3.3-1.1-3.3-4.5c0-3.5,1.5-4.5,3.5-4.5c2,0,3.1,1.3,3.1,3.3H312.3z"/>
			<path class="st4" d="M316.3,534.1h2.2v1.9h-2.2V534.1z M316.3,537.1h2.2v8.6h-2.2V537.1z"/>
			<path class="st4" d="M320.6,539.7v-0.2c0-2,1.4-2.7,3-2.7c2.6,0,3.1,1.1,3.1,2.6v4.5c0,0.8,0,1.2,0.3,1.7H325
				c-0.1-0.3-0.2-0.6-0.3-0.9h0c-0.5,0.9-1.1,1.1-2.2,1.1c-1.5,0-2.1-1.3-2.1-2.5c0-1.6,0.7-2.3,2.2-2.7l1.2-0.3
				c0.7-0.2,0.9-0.4,0.9-1c0-0.7-0.3-1.1-1-1.1c-0.7,0-1,0.4-1,1.1v0.2H320.6z M324.7,541.4c-0.3,0.2-0.7,0.4-0.9,0.4
				c-0.9,0.2-1.2,0.6-1.2,1.4c0,0.7,0.2,1.2,0.8,1.2c0.6,0,1.4-0.4,1.4-1.3V541.4z"/>
		</g>
	</g>
	<g>
		<g>
			<path class="st4" d="M273.6,578.2h4c2.3,0,3.1,1.7,3.1,3.4c0,2.4-1.5,3.4-3.6,3.4h-1.2v4.6h-2.3V578.2z M275.9,583.4h1
				c0.9,0,1.5-0.5,1.5-1.7c0-1.1-0.4-1.8-1.6-1.8h-1V583.4z"/>
			<path class="st4" d="M282.4,583.7v-0.2c0-2,1.4-2.7,3-2.7c2.6,0,3.1,1.1,3.1,2.6v4.5c0,0.8,0,1.2,0.3,1.7h-2.1
				c-0.1-0.3-0.2-0.6-0.3-0.9h0c-0.5,0.9-1.1,1.1-2.2,1.1c-1.5,0-2.1-1.3-2.1-2.5c0-1.6,0.7-2.3,2.2-2.7l1.2-0.3
				c0.7-0.2,0.9-0.4,0.9-1c0-0.7-0.3-1.1-1-1.1c-0.7,0-1,0.4-1,1.1v0.2H282.4z M286.5,585.4c-0.3,0.2-0.7,0.4-0.9,0.4
				c-0.9,0.2-1.2,0.6-1.2,1.4c0,0.7,0.2,1.2,0.8,1.2c0.6,0,1.4-0.4,1.4-1.3V585.4z"/>
			<path class="st4" d="M290.9,578.2h2.2v11.4h-2.2V578.2z"/>
			<path class="st4" d="M295.3,581.1h2.1v0.9h0c0.6-0.8,1.2-1.1,2.2-1.1c1,0,1.7,0.5,2,1.4h0c0.3-0.9,1.1-1.4,2.2-1.4
				c1.5,0,2.1,0.9,2.1,2.6v6.3h-2.2v-6c0-0.7-0.2-1.1-0.9-1.1c-0.7,0-1.2,0.5-1.2,1.5v5.7h-2.2v-6c0-0.7-0.2-1.1-0.9-1.1
				c-0.7,0-1.2,0.5-1.2,1.5v5.7h-2.2V581.1z"/>
			<path class="st4" d="M308,583.7v-0.2c0-2,1.4-2.7,3-2.7c2.6,0,3.1,1.1,3.1,2.6v4.5c0,0.8,0,1.2,0.3,1.7h-2.1
				c-0.1-0.3-0.2-0.6-0.3-0.9h0c-0.5,0.9-1.1,1.1-2.2,1.1c-1.5,0-2.1-1.3-2.1-2.5c0-1.6,0.7-2.3,2.2-2.7l1.2-0.3
				c0.7-0.2,0.9-0.4,0.9-1c0-0.7-0.3-1.1-1-1.1c-0.7,0-1,0.4-1,1.1v0.2H308z M312.1,585.4c-0.3,0.2-0.7,0.4-0.9,0.4
				c-0.9,0.2-1.2,0.6-1.2,1.4c0,0.7,0.2,1.2,0.8,1.2c0.6,0,1.4-0.4,1.4-1.3V585.4z"/>
			<path class="st4" d="M316.4,581.1h2.1v1.2h0c0.4-0.8,1.1-1.4,2-1.4c0.1,0,0.3,0,0.4,0v2.1c-0.2,0-0.5,0-0.7,0
				c-0.8,0-1.6,0.4-1.6,1.6v5.2h-2.2V581.1z"/>
			<path class="st4" d="M322.4,578.1h2.2v1.9h-2.2V578.1z M322.4,581.1h2.2v8.6h-2.2V581.1z"/>
		</g>
	</g>
	<line class="st8" x1="199.2" y1="272.6" x2="225.5" y2="236.6"/>
	<path class="st9" d="M334.9,555c0,0-24.8-144-135.8-282.4"/>
	<circle class="st10" cx="334.9" cy="555" r="4.3"/>
	<polyline class="st8" points="225.5,236.6 265.2,218.1 273.3,226.2 	"/>
	<circle class="st10" cx="265.2" cy="218.1" r="4.3"/>
	<circle class="st10" cx="273.3" cy="226.2" r="4.3"/>
	<circle class="st10" cx="225.5" cy="236.6" r="4.3"/>
	<polyline class="st8" points="199.2,272.6 152,79.2 164.2,61.6 218.9,52.2 	"/>
	<circle class="st10" cx="218.9" cy="52.2" r="4.3"/>
	<circle class="st10" cx="152" cy="79.2" r="4.3"/>
	<circle class="st10" cx="164.2" cy="61.6" r="4.3"/>
	<circle class="st10" cx="131.1" cy="91.8" r="4.3"/>
	<circle class="st10" cx="199.2" cy="272.6" r="4.3"/>
	<g>
		<path class="st11" d="M136.1,88.6c-0.3-0.5-0.1-1.1,0.3-1.4l0,0c0.5-0.3,1.1-0.1,1.4,0.3l0,0c0.3,0.5,0.1,1.1-0.3,1.4l0,0
			c-0.2,0.1-0.3,0.1-0.5,0.1l0,0C136.6,89.1,136.3,88.9,136.1,88.6z M140.4,86c-0.3-0.5-0.1-1.1,0.3-1.4l0,0
			c0.5-0.3,1.1-0.1,1.4,0.3l0,0c0.3,0.5,0.1,1.1-0.3,1.4l0,0c-0.2,0.1-0.3,0.1-0.5,0.1l0,0C140.9,86.5,140.6,86.3,140.4,86z
			 M144.7,83.4c-0.3-0.5-0.1-1.1,0.3-1.4l0,0c0.5-0.3,1.1-0.1,1.4,0.3l0,0c0.3,0.5,0.1,1.1-0.3,1.4l0,0c-0.2,0.1-0.3,0.1-0.5,0.1
			l0,0C145.2,83.9,144.8,83.7,144.7,83.4z"/>
	</g>
	<line class="st12" x1="271.9" y1="568.4" x2="329.2" y2="556.3"/>
	<circle class="st10" cx="269.1" cy="569.7" r="4.3"/>
</g>
<g id="Route">
	<path class="st9" d="M200.5,270.6c0,0,48.2-263,374.5-269.6"/>
	<g>
		<ellipse class="st7" cx="199.5" cy="254.5" rx="6.9" ry="6.1"/>
		<path class="st11" d="M199.2,245.4c-5,0-9,4-9,9c0,2,1.3,5.3,3.9,10c1.9,3.3,3.7,6.1,3.8,6.2l1.3,2l1.3-2c0.1-0.1,1.9-2.9,3.8-6.2
			c2.6-4.7,3.9-8,3.9-10C208.2,249.4,204.1,245.4,199.2,245.4z M199.2,259c-2.6,0-4.7-2.1-4.7-4.7c0-2.6,2.1-4.7,4.7-4.7
			s4.7,2.1,4.7,4.7C203.8,256.9,201.8,259,199.2,259z"/>
	</g>
</g>
</svg>
