<svg version="1.1" xmlns="http://www.w3.org/2000/svg" viewBox="0 0 69 50">
<style>path{fill:#FFF}</style>
<path d="M22.7,31c8,0,14.5-6.5,14.5-14.5S30.7,2,22.7,2S8.1,8.5,8.1,16.5S14.6,31,22.7,31"/>
<path d="M38.7,30.2c-0.7-0.7-1.7-0.7-2.3,0c-3.7,3.6-8.5,5.7-13.7,5.7C12,35.9,3.3,27.1,3.3,16.5 c0-5.2,2-10.1,5.7-13.7c0.7-0.7,0.7-1.7,0-2.3c-0.7-0.7-1.7-0.7-2.3,0C2.3,4.7,0,10.4,0,16.5C0,28.3,9.1,38,20.7,39.1v0.1v7.6H14 c-0.9,0-1.6,0.7-1.6,1.6c0,0.9,0.7,1.6,1.6,1.6h16.4c0.9,0,1.6-0.7,1.6-1.6c0-0.9-0.7-1.6-1.6-1.6h-6.5v-7.6 c5.6-0.3,10.8-2.6,14.7-6.6C39.3,31.9,39.3,30.8,38.7,30.2"/>
<path d="M63.4,26.9L63.4,26.9c0.3-0.2,0.4-0.6,0.3-0.9l-2.5-16l7.1-6.4C69,3,69.2,2,68.8,1.3c-0.6-1.1-2-1.3-2.8-0.5 l-7.1,6.5L43.2,3.4c-0.3-0.1-0.7,0-1,0.2c-0.5,0.5-0.4,1.3,0.2,1.7l11.4,6.5l-6.4,5.9c-0.3,0.3-0.8,0.4-1.3,0.3l-2.3-0.6 c-0.3-0.1-0.6,0-0.9,0.2l-0.2,0.2c-0.5,0.4-0.4,1.2,0.2,1.5l2.9,1.6c0.3,0.2,0.5,0.4,0.6,0.7l1.4,3c0.3,0.6,1,0.7,1.5,0.3l0.2-0.2 c0.2-0.2,0.3-0.5,0.3-0.8l-0.4-2.3c-0.1-0.5,0.1-0.9,0.4-1.2l6.4-5.9l5.5,12C62.1,27.2,62.9,27.4,63.4,26.9"/>
</svg>
