<?xml version="1.0" encoding="utf-8"?>
<!-- Generator: Adobe Illustrator 25.0.1, SVG Export Plug-In . SVG Version: 6.00 Build 0)  -->
<svg version="1.1" id="Ebene_1" xmlns="http://www.w3.org/2000/svg" xmlns:xlink="http://www.w3.org/1999/xlink" x="0px" y="0px"
	 viewBox="0 0 1140.6 512.8" style="enable-background:new 0 0 1140.6 512.8;" xml:space="preserve">
<style type="text/css">
	.st0{fill:#E2E2E2;}
	.st1{fill-rule:evenodd;clip-rule:evenodd;fill:#E2E2E2;}
	.st2{fill:#010101;}
	.st3{fill:#3E6C93;}
	.st4{fill:#1F1F1E;}
	.st5{fill:none;stroke:#C0212F;stroke-width:2;stroke-miterlimit:10;}
	.st6{fill:none;stroke:#C0212F;stroke-width:2;stroke-miterlimit:10;stroke-dasharray:4,4;}
	.st7{fill:#FFFFFF;}
	.st8{fill:#C0212F;}
</style>
<path class="st0" d="M944.8,109.7c-10.9,0-28,13.5-32.3,13.5c-4.3,0-8.7-3-13.5,1.8c-4.8,4.8-41,35.4-44.9,40.6
	c-3.9,5.2-4.8,12.2-9.6,13.9c-4.8,1.8-10,2.6-12.7,4.8c-2.6,2.2-6.5,7.4-8.3,7.4c-1.8,0-4.8-1.3-4.8,0c0,1.3-1.3,3.9-2.6,3.1
	c-1.3-0.9-6.6-7.4-7.9-6.1c-1.3,1.3,2.2,10.5,0.4,12.2c-1.8,1.8-5.7,4.8-6.5,7c-0.9,2.2-3.5,3.1-6.1,3.9c-2.6,0.9-7-0.9-9.6,0.4
	c-2.6,1.3-7,7-7.9,9.2c-0.8,2.2-9.2,10.1-8.3,12.7c0.9,2.6,3.5,13.5,3.1,16.6c-0.4,3.1-4.4,5.2-0.9,8.3c3.5,3.1,12.3,7.8,14,16.6
	c1.7,8.7,8.3,40.2,6.5,52.4c-1.8,12.2-10.9,56.3-11.4,58.9c-0.4,2.6-2.6,6.1-0.4,5.2c2.2-0.9,3-3.1,7.8-3.1c4.8,0,9.2,1.3,5.7,3.1
	c-3.5,1.8-9.2,6.5-10.5,10.9c-1.3,4.4,0,7.4-2.2,7.8c-2.2,0.4-4.3-2.6-7-2.6c-2.6,0-6.1,0.9-5.3-3c0.9-3.9,4.8-6.5,4.8-8.3
	c0-1.8,2.2-8.3,0.9-9.6c-1.3-1.3-5.3-3.5-6.1-2.2c-0.9,1.3,0.5,6.5-1.7,8.3c-2.2,1.8-2.7,6.1-7.9,6.5c-5.2,0.4-7-7.4-9.6-7.4
	c-2.6,0-10.9-2.2-13.1-0.9c-2.2,1.3-6.2,3.9-6.6,7c-0.4,3.1-0.4,6.6-3.9,7.9c-3.5,1.3-7.4,4.3-12.7,3c-5.2-1.3-7-3-10-4.3
	c-3-1.3-1.7-5.3-3.9-5.3s-4.9,2.6-7.4,2.2c-2.6-0.4-9.2-3.9-9.6-6.1c-0.4-2.2,0.8-9.2-0.9-9.2c-1.7,0-5.7-0.9-7.8,0.4
	c-2.2,1.3-1.3,1.7-4.8,5.7c-3.5,3.9-6.6,8.7-6.1,10.5c0.4,1.8,2.6,8.8,1.8,13.5c-0.9,4.8-2.6,11.8-2.6,14.8c0,3.1,5.2,1.8,6.5,3.1
	c1.3,1.3,2.2,5.2,2.2,5.2s22.7,2.2,24,3.9c1.3,1.8,11,9.6,13.5,9.2c2.6-0.4,13.1-4.4,14.8-1.8c1.8,2.6,8.7,14.4,10,15.3
	c1.3,0.9,11.4,6.5,14,10c2.6,3.5,9.6,8.8,13.1,7.4c3.5-1.3,7.4-5.3,6.6-8.3c-0.9-3-10.4-7.4-8.7-9.6c1.7-2.2,8.7-5.7,10.9-5.2
	c2.2,0.4,4.9,3.9,7,1.3c2.2-2.6,13.9-5.7,15.7-3.9c1.8,1.8,1.8,2.6-1.3,3.5c-3.1,0.9-10.9,3.9-10.9,7.4c0,3.5,7.4,3.9,9.6,3.9
	s3.5,2.6,4.4,5.2c0.9,2.6,3.5-3,4.3-5.2c0.9-2.2,8.3-7,10.9-7c2.6,0,7.4,2.2,14.9,0.9c7.4-1.3,14.4-4.7,15.7-2.2
	c1.3,2.6-2.6,15.2,2.2,20.5c4.8,5.3,13.5,4.8,15.3,4.8s6.5-6.5,8.3-6.5c1.8,0,7.8,4.3,10.9,4.8c3.1,0.4,4.8,1.8,5.3,3.5
	c0.4,1.8,3,2.6,5.2-0.4c2.2-3.1,1.4-5.3,4.4-3.9c3,1.3,7.4,4.8,9.2,3.5c1.8-1.3,1.3-6.5,4.3-7c3.1-0.4,7,3.5,10,2.6
	c3.1-0.9,11.8-6.5,11.4-3.5c-0.4,3-1.8,4.8,0.4,6.5c2.2,1.8,8.7,10,10.9,9.2c2.2-0.9,5.2-7.8,5.2-10c0-2.2,3.5-4.8,6.1-3.9
	c2.6,0.9,6.5,7,6.1,10c-0.4,3.1-6.5,12.7-3.9,14.4c2.6,1.8,10.4,6.5,13.5,0c3.1-6.5-0.9-13.1,0.9-16.1c1.8-3.1,5.6-11.4,5.2-13.1
	c-0.4-1.8-11.8-13.9-11.3-16.1c0.4-2.2,4.8-7,6.1-6.1c1.3,0.9,3.1,5.7,4.8,5.3c1.7-0.4,3.5-13.1,6.1-13.5c2.6-0.4,5.7-4.4,6.5-1.3
	c0.9,3.1,6.1,9.2,7,7c0.9-2.2,0.4-8.8,1.8-8.8c1.3,0,5.3-0.8,6.6-2.2c1.3-1.3,3.9-4.8,4.8-3.5c0.9,1.3-3.5,20.9-4.8,24.9
	c-1.3,3.9-2.6,11.4-3.9,14.4c-1.3,3.1-10,8.7-8.7,10.5c1.3,1.8,16.1,3.1,18.8,3.1c2.6,0,11.4-2.2,13.1-5.3c1.7-3.1,6.1-7,6.1-7
	s0,7.4,3.1,7.4c3,0,30.5-9.6,31-12.2c0.4-2.6,0.9-7.8,2.2-7.8c1.3,0,11.8,0,11.8-3.1c0-3,0-5.7-2.2-5.7s-7,2.2-10.5,3.1
	c-3.5,0.9-3-3.1-3-3.1s-5.3,0.4-7-0.4c-1.7-0.9-5.7-0.4-5.7,1.3c0,1.8-3.1,2.2-3.1,2.2s3.5-11,1.3-14.4c-2.2-3.5-8.7-6.5-8.7-6.5
	s3.1,5.2,0.4,5.7c-2.6,0.4-4-2.2-4.8,0c-0.8,2.2,1.4,4.4-0.8,4.4s-3.1-1.3-3.5,0.4c-0.4,1.8,1.3,7.8-0.4,7.4
	c-1.8-0.4-4.9-4.8-5.3-6.5c-0.4-1.8,4.4-15.3,2.2-16.2c-2.2-0.9-7,2.2-7.8-0.4c-0.9-2.6-0.4-4.8,1.8-4.3c2.2,0.4,6.5-0.4,8.3-3.1
	c1.8-2.6-0.8-7,2.6-9.2c3.5-2.2,19.2-14.4,21-16.6c1.7-2.2,2.2-14.4,4.3-15.7c2.2-1.3,17.4-31,21-34.5c3.5-3.5,9.6-10.9,12.2-17.9
	c2.6-7,2.2-12.2,7.8-17.4c5.7-5.3,17.4-15.3,17-19.2c-0.4-3.9-6.6-6.1-3.9-14.4c2.6-8.3,9.6-16.2,10.5-19.2c0.9-3-0.4-8.3-1.7-5.7
	c-1.3,2.6-2.2,5.7-3.9,5.7c-1.8,0-2.2-3.9-1.8-6.1c0.4-2.2,21.8-23.1,23.1-23.1c1.3,0,1.4-4.4,2.2-7.8c0.8-3.5,9.2-24,7.4-33.1
	c-1.8-9.2-7.8-11.4-12.2-16.6c-4.4-5.2-24-28.4-27.5-28.8c-3.5-0.4-17-1.3-28.4-4.8c-11.4-3.5-27.5-13.1-32.3-12.7
	c-4.8,0.4-11.8,1.3-14.4-0.4c-2.6-1.8-5.2-7-10.5-8.7c-5.3-1.8-24.5-9.6-32.3-10.5c-7.8-0.9-21.8-0.9-24.9-2.2c-3.1-1.3-3.5-3-6.1-3
	C949.2,107.5,944.8,109.7,944.8,109.7L944.8,109.7z"/>
<path class="st0" d="M772.4,176.3c-2.1,0.6-2.7,2.4-2.8,4.2c-0.1,1.8,0.7,5.6,1.6,6.6c0.9,1,3.4,0.3,4.3-1.8
	c0.9-2.1,1.1-6.1,0.5-7.3C775.3,176.8,772.4,176.3,772.4,176.3L772.4,176.3z"/>
<path class="st0" d="M782.8,180c-1.1,0.7-1.5,0.6-1,2.6c0.5,1.9,2.2,6.4,2.7,5.3c0.5-1.1,1.2-2.4,1.3-3.8c0.1-1.3-0.4-2.8-0.7-3.7
	C784.8,179.6,782.8,180,782.8,180L782.8,180z"/>
<path class="st0" d="M797.2,183.8c-1.2,0.5-3,1.4-3.2,2.7c-0.1,1.3,0.2,2.7,0.9,2.9c0.6,0.2,5.2,1,5.1,0c-0.1-1,0.4-5.5-0.5-5.7
	C798.6,183.5,797.2,183.8,797.2,183.8L797.2,183.8z"/>
<path class="st1" d="M2.9,78.2c0.4-4,0.7-6,4.4-5.6c3.6,0.4,12.8,4,16,2.8c3.2-1.2,5.7-4,8.9-1.2c3.2,2.8,8.7,7.2,11.6,13.2
	c2.8,6,9.3,5.6,6.8,8.8c-2.4,3.2-6.8,8.4-4,9.6c2.8,1.2,10.1-6.4,13.2-8.4c3.2-2,6.4-6.8,7.2-4.4c0.8,2.4-0.3,7.2,2.8,6
	c3.2-1.2,4.9-0.8,3.2-2.1c-1.7-1.3-2-0.2-2.3-2.1c-0.3-1.9-0.6-2.8,2.1-4.5c2.7-1.7,12-7.1,13.3-6.4c1.3,0.8,2.1,1.1,1.6,3.3
	c-0.5,2.2-2.2,6.9-1.1,8c1.1,1.1,2.2-1.7,3-1c0.8,0.8,0.4,1.6,1.7,1.6c1.3,0,1.1-2.7,2.2-2.5c1.1,0.2,2.4,1,2.9,0.2
	c0.5-0.8,0-2.1,1-3.1c1-1,1.4-2.4,2.2-1.7c0.9,0.6-0.4,1.2,0.9,2.1c1.3,0.9,3.2-1.4,4-1.1c0.8,0.3,1.1,0.4,2.2,1.5
	c1.1,1.1,3.4,4.9,4.5,4.3c1.1-0.6,0.5-2.2,1.4-2.9c1-0.6,5.5,3,6.7,4.4c1.2,1.4,2.3,3,3.2,2.4c1-0.6,0.5-1.6,1.3-1.6
	c0.8,0,1.5,2.2,3.8,2.5c2.3,0.4,1.8-1.3,6.1-1.4c4.3-0.2,7.5-0.4,9.1,1c1.6,1.3,2.9,2.3,4.1,3.6c1.3,1.3,0.9,1.9,2,1.4
	c1.1-0.5,1.6-2.4,2.7-2.4c1.1,0,1.1-0.8,1.1,1.4c0,2.2,7.7,2.1,9.4,3.2c1.7,1.1,5,5.6,8.2,6.3c3.2,0.6,12.5,2.2,17,3.5
	c4.4,1.3,12.5,2.9,13.4,3.7c1,0.8,0,1.4,1,2.2c1,0.8,4.5-1.3,5.3-1c0.8,0.3,0.3,2.7,1.6,3.2c1.3,0.5,2.7,1.4,3.3,0.2
	c0.6-1.3,0-2.7,1-3c1-0.3,1.9,0.2,2.1,2.1c0.2,1.9,1,2.5,2.1,2.2c1.1-0.3,2.2-1.9,3.3-1.6c1.1,0.3,8.3,4.3,11.3,3.5
	c3.1-0.8,16-4.4,18.1-5.1c2.1-0.6,3.7-0.5,3.3-1.9c-0.3-1.4-0.4-2.5,0.3-2.8c0.7-0.3,1.3,0.7,2.3,1.7c1,1,8.5-0.7,10.2-0.7
	c1.7,0,20.3,0.6,23.2,0c2.9-0.6,9.3-2.5,10.9-2.9c1.6-0.3,4,0.2,5.6,0.3c1.6,0.2,1.7-1.4,2.2-3c0.5-1.6,0.9-2.9,3-2.7
	c2.1,0.2,5.3-0.1,5.9-1.1c0.6-1,0.5-3.9,1.7-4.7c1.3-0.8,6.3-3.7,8.8-5c2.5-1.3,5.2-3.2,4.8-4.6c-0.3-1.4,0.5-0.2,1.9-1.3
	c1.4-1.1,3.9-5.2,6.1-7.1c2.2-1.9,3-5.2,6-7.1c3-1.9,35.4-21.1,38.1-22.5c2.7-1.4,3.2-2.1,6.1-2.1c2.9,0,11.2-1.3,13.4-0.3
	c2.2,1,7.9,5.6,13.1,6.5c5.2,0.9,20.2,4.4,24.4,5.3c4.1,1,6.6,2.1,10.1,4.7c3.5,2.5,15.8,7.9,20.6,8.6c4.8,0.7,11.4-0.2,13.5,1.5
	c2.1,1.7,8.2,10.1,11.8,10.1c3.7,0,16.5,4.3,19.4,5.2c2.9,1,7.5,5.5,9.3,6.3c1.7,0.8,12.2,3,16.3,4.3c4.1,1.3,6,0.1,6.8,1.9
	c0.8,1.8,4.8,8.6,7.5,9c2.7,0.3,7.4,1.3,8,2.5c0.6,1.1,0.3,3.5,2.7,3.5c2.4,0,5.2,0.5,6.3,2.1c1.1,1.6-0.2,5.2,3.2,6.3
	c3.4,1.1,21.2,10,25.9,14c4.8,4,23.1,26.6,25.8,30.1c2.7,3.5,7.6,5.4,7.8,7.1c0.2,1.7,3.9,10.5,6.3,12.8c2.4,2.4,5.6,4.4,8.2,4.8
	c2.5,0.3,14,3.9,19,7.4c5.1,3.5,4.9,4.3,6.4,4.6c1.5,0.3,2.5-0.7,2.8,0.5c0.3,1.2,0.5,2.9,1,4c0.5,1.1,4.4,2.5,4.6,5.2
	c0.2,2.8,2.9,8.4,1.1,12.4c-1.7,4-5.7,8.5-7,10.9c-1.3,2.4-8.7,12.9-12.7,14.2c-4,1.3-9,4.4-11.2,5.5c-2.2,1.1-10.8,4.4-14,8.8
	c-3.2,4.4-7.7,11.1-8.5,14.5c-0.8,3.4,1,5.2-1.3,4.8c-2.2-0.3-5.3-1.1-7.7,0.5c-2.4,1.6-6.4,6.7-7.7,6.4c-1.3-0.3-12.8-6-14.4-6.2
	c-1.6-0.2-4.4,1.3-6.3-0.2c-1.9-1.4-5.3-3-7.9-2.2c-2.5,0.8-9.8,4-9.9,6.2c-0.2,2.2,2.5,6.7,1.9,8.5c-0.6,1.7,1.1,3.9-2.1,5.5
	c-3.2,1.6-10.1,5.6-12.9,6c-2.9,0.5-8.1-0.4-10.9,1.6c-2.8,2-4.6,7.1-8.5,8.6c-3.9,1.5-15,4-20.3,3.9c-5.3-0.2-18-0.8-22.3,0.8
	c-4.3,1.6-14.1,8.9-19.4,12.9c-5.2,4-18.5,16.6-23.3,20.8c-4.8,4.2-14.1,10.6-14.3,12.2c-0.2,1.6,1.3,8.8,1.8,12.3
	c0.5,3.5,1.5,9.4-0.5,11c-2,1.6-9.2,3.3-11.3,4.1c-2.1,0.9-8,3.9-9.8,5.3c-1.7,1.4-3,1.3-4.4,2.7c-1.4,1.4-1.3,2.3-2.2,5.3
	c-1,3-2.1,7.6-2.1,4.8c0-2.9,1.9-7.7,0.5-8.4c-1.3-0.7-2.1-1.4-4.5,0.8c-2.4,2.2-5.8,3.2-7.2,4.4c-1.4,1.3-5.2,9.8-3,10.7
	c2.2,1,3.6-1,4.4,1.3c0.9,2.3,0.4,5.6,3.2,7.4c2.9,1.7,9.8,7.2,10.2,6.1c0.5-1.1-1.4-4.4-1.6-5.5c-0.2-1.1,1-1.3,1.4-2.5
	c0.5-1.3,0.5-2.6-0.3-4.4c-0.8-1.7-1.7-4.8-0.6-4.9c1.1-0.2,1-1.1,2.4-1.6c1.4-0.5,2.1-1,2.4,1.7c0.3,2.7,0.5,8.6,1.1,10.6
	c0.6,1.9,2.9,7.1,3.9,9.1c1,2.1,0.5,3.3,1.9,4.6c1.4,1.3,3,1.7,1.6,2.1c-1.4,0.5-1.2,0.9-6.6,7.1c-5.4,6.3-10.3,9.8-18.9,12.4
	c-8.6,2.5-19.9,3.5-28.5,2.5c-8.6-1-24-4.2-26.2-6.1c-2.2-1.9-3.5-6.7-0.5-9.1c3-2.4,11.7-5.6,13.7-7c2.1-1.4,1.4-5.3,2.4-5.9
	c1-0.6,2.3-0.6,3.7-1.4c1.4-0.8,6.9-5.5,9.1-5.9c2.2-0.5,3.5-0.8,5.2-0.2c1.7,0.6,3.6,2.5,4.5,1.6c1-1,5.6-9.3,5.4-10.9
	c-0.2-1.6-5.1-6.6-5.6-9.1c-0.5-2.5,4.9-12.3,4.9-14s-6.1-17.4-8.8-20.9c-2.7-3.6-11.4-12.8-15.3-14.1c-3.9-1.3-9.5-4.7-12.1-7.1
	c-2.5-2.4-9-11.5-9.6-14.2c-0.6-2.7-0.3-3.2-3.3-7.2c-3-4-18-17.5-23.8-22.2c-5.8-4.7-18.4-12.8-19-14.1c-0.6-1.3-0.4-4.3-2.1-5.6
	c-1.7-1.3-20-14.4-22.7-16.7c-2.7-2.2-2.9-6.4-6.9-8.6c-4-2.2-42.2-20-50.2-22.2c-8-2.2-9.1-0.6-11.2-2.1c-2.1-1.4-9.9-4.4-10.6-6.9
	c-0.6-2.5-1.8-5.2-3-5.3c-1.2-0.2-29.3-8.6-38.7-8.3c-9.4,0.3-37.8,4.3-42.4,5.1c-4.6,0.8-9.8,1.4-16.5,0.8
	c-6.7-0.6-7.8-2.9-7.8-2.9s0.7,1.4-1.7,1.4c-2.4,0-8.3-1.1-9-2.5c-0.6-1.4-0.2-1.3-1.9-4.7c-1.7-3.3-13.3-17.3-15.5-19
	c-2.1-1.7-2.5-2.9-2.9-4.4c-0.5-1.6-10.7-5.6-12.6-9.1c-1.9-3.5-3.2-3.9-1.9-5c1.3-1.1,2.4-1.9,1.7-4.1c-0.6-2.2-1.8-5-6.7-8.3
	c-4.9-3.3-12.8-9.4-14.7-14.7c-1.9-5.3-4.5-15.5-7.7-18.1c-3.2-2.6-9.3-8.8-11.2-16.3c-1.9-7.5-1.8-10.2-3.6-12.5
	c-1.7-2.3-4.1-5.2-3.5-7.5c0.6-2.4,0.6-2.5,0.6-2.5s1.4-2.3,2.5-2.1c1.2,0.2,1.5,0.9,1.5,1.8c0,1,3.2,1.3,3.2,2.9
	c0,1.6-1,3.2,0.2,3.3c1.1,0.2,0.6-1,2.1-1.4c1.4-0.5,2.1,0.6,2.5-0.5c0.5-1.1-0.1-3,1-2.5c1,0.5,1.2,2.1,2.8,1.4
	c1.6-0.6,3.5-2.5,2.2-2.9c-1.3-0.3-1.1-0.3-2.2-0.3s-0.9-0.9-2.2-1.2c-1.3-0.3-4-0.2-5.3-1.6c-1.3-1.4-2.1-3.9-1.7-6.8
	c0.3-2.9,0.2-5.5-0.8-7.7c-1-2.2-4.8-4.8-4.8-6.6C1.5,85.4,2.9,78.2,2.9,78.2L2.9,78.2z"/>
<path class="st0" d="M535.1,380.7c-1.6-0.5-6.8-0.7-8,0c-1.2,0.7-2.4,1.4-2.4,2.9c0,1.5,1,3.1,0.6,3.8c-0.5,0.7-0.7,1.5-2,1.5
	c-1.3,0-6.4,0.6-7.3,2c-0.9,1.4-2,4.1-0.7,4.4c1.3,0.3,4.6,0.9,5.3,1.4c0.7,0.5,3.1,1.3,4,0.7c0.9-0.6,5.1-4.7,6.4-5.9
	c1.3-1.2,7.3-4.7,6.7-5.7c-0.6-0.9-3.5-1.5-5.3-1.3c-1.9,0.2-4.1,0.8-4.1-0.3c0-1.2-0.7-1.7,0.5-2.1c1.2-0.3,1.6-0.3,3.1-0.1
	c1.5,0.2,3.3,0.2,3.8-0.1C536.3,381.5,535.1,380.7,535.1,380.7L535.1,380.7z"/>
<path class="st0" d="M551.2,384.9c-1.6,0.1-2.5,2.3-4.5,3.7c-2,1.4-7.3,6-8.4,7.5c-1.2,1.5-1.7,2-1.7,2.9c0,0.9-0.1,2.7-1,3.2
	c-0.9,0.6-4.4,3.1-4.5,3.9c-0.1,0.8,1.7,2.2,0.9,2.7c-0.8,0.5-6.6,1.9-6.6,3.6c0,1.7,1.6,3.7,0.7,4.5c-0.9,0.8-4.1,1.3-1.6,1.7
	c2.4,0.5,3.8,0.6,4.2,1.6c0.3,1,0.1,1.6-0.6,3c-0.7,1.4-0.8,2.7,1.9,2.7c2.7,0,5.3-1.3,6.2-0.5c0.9,0.8,7.3,3.1,7.6,3.9
	c0.3,0.8,3,3.2,2.4,4.2c-0.6,0.9-1.5,2.1-0.7,2.5c0.8,0.5,7.3,1.8,8.2,2.4c0.9,0.6,5.6,0.3,6.5,1.9c0.9,1.5,7.6,11.1,8.6,11.5
	c0.9,0.3,9.4,1.5,10.3,2.5c0.9,1,4.7,4.3,6,4.2c1.3-0.1,3.2-1.4,3.6,0.2c0.3,1.6,0.2,3.1,1.3,2.9c1-0.2,2.7-1.2,3.5-0.5
	c0.8,0.7,3.9,3.1,5.7,2.5c1.7-0.6,5.1-3.6,6.1-3.9c1-0.3,5.1-0.5,5.4-1.4c0.3-0.9-1.4-6.6-0.9-7.9c0.5-1.3,6-8.6,7.3-9.3
	c1.3-0.7,5-1.9,5.2-3.2c0.2-1.4-2.7-5-2.8-6.2c-0.1-1.3,1-2.4,0-3.7c-1-1.3-9.7-12.7-11-13.3c-1.3-0.6-3.5-0.9-3.7-2
	c-0.2-1,0.7-3.9,0.1-4.5c-0.6-0.6-3.7-3.1-4.3-4.2c-0.6-1-3.8-11.7-5.9-14.1c-2.1-2.4-8-5.7-11.8-5.3c-3.8,0.3-12.5,2.8-15.4,2.5
	C564.5,387.1,551.2,384.9,551.2,384.9L551.2,384.9z"/>
<path class="st0" d="M535.5,393.1c-1.5,0.9-4.4,3.3-6.4,4.5c-1.9,1.2-7,2.7-7.7,4.4c-0.6,1.7-2.6,4.4-0.6,5.4c1.9,1,5.1-3,6.6-4.5
	c1.5-1.5,4-2.7,5.4-4.1c1.4-1.4,3.3-2.9,3.6-4.2C536.6,393.3,535.5,393.1,535.5,393.1L535.5,393.1z"/>
<g>
	<path class="st2" d="M377.6,211.8h5.4c2.2,0,3.6,0.7,3.6,2.8c0,1.1-0.6,1.9-1.6,2.4c1.4,0.4,2.1,1.5,2.1,2.9c0,2.3-2,3.3-4,3.3
		h-5.5V211.8z M380.1,216.5h2.5c0.9,0,1.5-0.4,1.5-1.4c0-1.1-0.8-1.3-1.7-1.3h-2.4V216.5z M380.1,221.3h2.7c1,0,1.9-0.3,1.9-1.5
		c0-1.2-0.7-1.6-1.8-1.6h-2.7V221.3z"/>
	<path class="st2" d="M395.2,211.8h2.6l4.3,11.4h-2.6l-0.9-2.5h-4.3l-0.9,2.5h-2.5L395.2,211.8z M395,218.9h3l-1.4-4.2h0L395,218.9z
		"/>
	<path class="st2" d="M406.2,211.8h2.5v9.3h5.6v2.1h-8.1V211.8z"/>
	<path class="st2" d="M418.9,211.8h2.5v11.4h-2.5V211.8z"/>
</g>
<g>
	<path class="st3" d="M357.4,9.5c0,1.5-0.4,3.9-3.8,3.9c-1.9,0-3.8-1-3.8-3.5v-1h2.3v0.5c0,1.1,0.3,1.9,1.5,1.9
		c1.3,0,1.3-1.1,1.3-1.9V1.6h2.5V9.5z"/>
	<path class="st3" d="M366,1.6h2.6l4.3,11.4h-2.6l-0.9-2.5h-4.3l-0.9,2.5h-2.5L366,1.6z M365.7,8.6h3l-1.4-4.2h0L365.7,8.6z"/>
	<path class="st3" d="M382.3,13.1h-2.8l-3.7-11.4h2.6l2.5,8h0l2.6-8h2.6L382.3,13.1z"/>
	<path class="st3" d="M393.4,1.6h2.6l4.3,11.4h-2.6l-0.9-2.5h-4.3l-0.9,2.5h-2.5L393.4,1.6z M393.2,8.6h3l-1.4-4.2h0L393.2,8.6z"/>
	<path class="st3" d="M413.8,9.3c0,1.5,1.2,2.1,2.5,2.1c0.9,0,2.2-0.3,2.2-1.4c0-1.2-1.7-1.4-3.4-1.9c-1.7-0.4-3.4-1.1-3.4-3.2
		c0-2.3,2.2-3.5,4.3-3.5c2.4,0,4.6,1,4.6,3.7h-2.4c-0.1-1.4-1.1-1.7-2.3-1.7c-0.8,0-1.7,0.3-1.7,1.3c0,0.9,0.5,1,3.4,1.7
		c0.8,0.2,3.4,0.7,3.4,3.3c0,2.1-1.6,3.7-4.8,3.7c-2.5,0-4.9-1.2-4.9-4.1H413.8z"/>
	<path class="st3" d="M425.7,1.6h8.5v2.1h-6v2.4h5.5v2h-5.5V11h6.2v2.1h-8.7V1.6z"/>
	<path class="st3" d="M439.2,1.6h8.5v2.1h-6v2.4h5.5v2h-5.5V11h6.2v2.1h-8.7V1.6z"/>
</g>
<g>
	<path class="st3" d="M96,386.2h2.5v11.4H96V386.2z"/>
	<path class="st3" d="M103.9,386.2h2.5l4.8,7.7h0v-7.7h2.4v11.4H111l-4.8-7.7h0v7.7h-2.4V386.2z"/>
	<path class="st3" d="M119,386.2h4.9c3,0,5.2,1.9,5.2,5.7c0,3.3-1.7,5.8-5.2,5.8H119V386.2z M121.5,395.5h2.2c1.5,0,2.8-0.9,2.8-3.4
		c0-2.3-0.8-3.8-3.3-3.8h-1.8V395.5z"/>
	<path class="st3" d="M134,386.2h2.5v11.4H134V386.2z"/>
	<path class="st3" d="M143.7,393.8c0,1.5,1.2,2.1,2.5,2.1c0.9,0,2.2-0.3,2.2-1.4c0-1.2-1.7-1.4-3.4-1.9c-1.7-0.4-3.4-1.1-3.4-3.2
		c0-2.3,2.2-3.5,4.3-3.5c2.4,0,4.6,1,4.6,3.7H148c-0.1-1.4-1.1-1.7-2.3-1.7c-0.8,0-1.7,0.3-1.7,1.3c0,0.9,0.5,1,3.4,1.7
		c0.8,0.2,3.4,0.7,3.4,3.3c0,2.1-1.6,3.7-4.8,3.7c-2.5,0-4.9-1.2-4.9-4.1H143.7z"/>
	<path class="st3" d="M163.1,390c-0.2-1.1-1.2-2-2.5-2c-2.3,0-3.1,1.9-3.1,3.9c0,1.9,0.8,3.8,3.1,3.8c1.5,0,2.4-1.1,2.6-2.6h2.4
		c-0.3,2.8-2.2,4.7-5,4.7c-3.5,0-5.6-2.6-5.6-5.9c0-3.4,2.1-6,5.6-6c2.5,0,4.6,1.5,4.9,4.1H163.1z"/>
	<path class="st3" d="M170.6,386.2h2.5v4.4h4.6v-4.4h2.5v11.4h-2.5v-4.9h-4.6v4.9h-2.5V386.2z"/>
	<path class="st3" d="M185.6,386.2h8.5v2.1h-6v2.4h5.5v2h-5.5v2.8h6.2v2.1h-8.7V386.2z"/>
	<path class="st3" d="M199.2,386.2h6.2c2,0,3.3,1.4,3.3,3.2c0,1.3-0.5,2.4-1.8,2.9v0c1.2,0.3,1.6,1.5,1.7,2.7c0,0.7,0,2.1,0.5,2.7
		h-2.5c-0.3-0.7-0.3-1.8-0.4-2.7c-0.2-1.2-0.6-1.7-1.9-1.7h-2.5v4.5h-2.5V386.2z M201.7,391.3h2.8c1.1,0,1.7-0.5,1.7-1.6
		c0-1.1-0.6-1.6-1.7-1.6h-2.8V391.3z"/>
	<path class="st3" d="M124.1,405.1c3.5,0,5.6,2.6,5.6,6c0,3.3-2.1,5.9-5.6,5.9s-5.6-2.6-5.6-5.9
		C118.5,407.7,120.6,405.1,124.1,405.1z M124.1,415c2.3,0,3.1-1.9,3.1-3.8c0-2-0.8-3.9-3.1-3.9s-3.1,1.9-3.1,3.9
		C121,413,121.8,415,124.1,415z"/>
	<path class="st3" d="M133.9,414.8l6.1-7.3h-5.7v-2.1h9v2l-6.1,7.3h6.3v2.1h-9.6V414.8z"/>
	<path class="st3" d="M148.2,405.4h8.5v2.1h-6v2.4h5.5v2h-5.5v2.8h6.2v2.1h-8.7V405.4z"/>
	<path class="st3" d="M164.9,405.4h2.6l4.3,11.4h-2.6l-0.9-2.5H164l-0.9,2.5h-2.5L164.9,405.4z M164.6,412.4h3l-1.4-4.2h0
		L164.6,412.4z"/>
	<path class="st3" d="M175.9,405.4h2.5l4.8,7.7h0v-7.7h2.4v11.4h-2.5l-4.8-7.7h0v7.7h-2.4V405.4z"/>
</g>
<g>
	<path class="st2" d="M902.7,294.5h2.5v9.3h5.6v2.1h-8.1V294.5z"/>
	<path class="st2" d="M920.5,294.2c3.5,0,5.6,2.6,5.6,6c0,3.3-2.1,5.9-5.6,5.9c-3.5,0-5.6-2.6-5.6-5.9
		C914.9,296.8,916.9,294.2,920.5,294.2z M920.5,304.1c2.3,0,3.1-1.9,3.1-3.8c0-2-0.8-3.9-3.1-3.9s-3.1,1.9-3.1,3.9
		C917.4,302.1,918.2,304.1,920.5,304.1z"/>
	<path class="st2" d="M931,294.5h3.5l2.7,7.9h0l2.5-7.9h3.5v11.4H941v-8.1h0l-2.8,8.1h-1.9l-2.8-8h0v8H931V294.5z"/>
	<path class="st2" d="M948.7,294.5h5.4c2.2,0,3.6,0.7,3.6,2.8c0,1.1-0.6,1.9-1.6,2.4c1.4,0.4,2.1,1.5,2.1,2.9c0,2.3-2,3.3-4,3.3
		h-5.5V294.5z M951.2,299.1h2.5c0.9,0,1.5-0.4,1.5-1.4c0-1.1-0.8-1.3-1.7-1.3h-2.4V299.1z M951.2,303.9h2.7c1,0,1.9-0.3,1.9-1.5
		c0-1.2-0.7-1.6-1.8-1.6h-2.7V303.9z"/>
	<path class="st2" d="M968.3,294.2c3.5,0,5.6,2.6,5.6,6c0,3.3-2.1,5.9-5.6,5.9s-5.6-2.6-5.6-5.9
		C962.7,296.8,964.8,294.2,968.3,294.2z M968.3,304.1c2.3,0,3.1-1.9,3.1-3.8c0-2-0.8-3.9-3.1-3.9s-3.1,1.9-3.1,3.9
		C965.2,302.1,966,304.1,968.3,304.1z"/>
	<path class="st2" d="M978.8,294.5h2.5v4.7l4.5-4.7h3.1l-4.5,4.5l4.9,6.9h-3.2l-3.4-5.1l-1.4,1.5v3.7h-2.5V294.5z"/>
</g>
<g>
	<path class="st4" d="M453.7,276.7v8c0,1.1,0.3,2,1.3,2s1.3-0.8,1.3-2v-8h2.3v8c0,2.9-1.8,3.7-3.6,3.7c-1.9,0-3.6-0.6-3.6-3.7v-8
		H453.7z"/>
	<path class="st4" d="M460.7,276.7h2.2v3.6h0c0.5-0.7,1-1,1.9-1c1.8,0,2.6,1.3,2.6,4.5s-0.8,4.5-2.6,4.5c-0.9,0-1.5-0.3-2-1.1h0v0.9
		h-2.1V276.7z M464.1,286.7c1,0,1.2-1,1.2-2.8c0-1.9-0.2-2.8-1.2-2.8c-1,0-1.2,1-1.2,2.8C462.9,285.7,463.1,286.7,464.1,286.7z"/>
	<path class="st4" d="M473.8,287.1L473.8,287.1c-0.5,0.8-1.3,1.2-2.2,1.2c-1.4,0-2.2-0.8-2.2-2.4v-6.4h2.2v5.9
		c0,0.9,0.3,1.2,0.9,1.2c0.8,0,1.2-0.5,1.2-1.4v-5.7h2.2v8.6h-2.1V287.1z"/>
	<path class="st4" d="M482.4,287.2L482.4,287.2c-0.5,0.8-1.1,1.1-2,1.1c-1.8,0-2.6-1.3-2.6-4.5s0.8-4.5,2.6-4.5c0.8,0,1.4,0.3,1.9,1
		h0v-3.6h2.2v11.4h-2.1V287.2z M481.1,286.7c1,0,1.2-1,1.2-2.8c0-1.9-0.2-2.8-1.2-2.8c-1,0-1.2,1-1.2,2.8
		C480,285.7,480.2,286.7,481.1,286.7z"/>
</g>
<g>
	<path class="st4" d="M496.1,318.7h4c2.3,0,3.1,1.7,3.1,3.4c0,2.4-1.5,3.4-3.6,3.4h-1.2v4.6h-2.3V318.7z M498.4,323.9h1
		c0.9,0,1.5-0.5,1.5-1.7c0-1.1-0.4-1.8-1.6-1.8h-1V323.9z"/>
	<path class="st4" d="M504.9,324.2V324c0-2,1.4-2.7,3-2.7c2.6,0,3.1,1.1,3.1,2.6v4.5c0,0.8,0,1.2,0.3,1.7h-2.1
		c-0.1-0.3-0.2-0.6-0.3-0.9h0c-0.5,0.9-1.1,1.1-2.2,1.1c-1.5,0-2.1-1.3-2.1-2.5c0-1.6,0.7-2.3,2.2-2.7l1.2-0.3
		c0.7-0.2,0.9-0.4,0.9-1c0-0.7-0.3-1.1-1-1.1c-0.7,0-1,0.4-1,1.1v0.2H504.9z M509,325.8c-0.3,0.2-0.7,0.4-0.9,0.4
		c-0.9,0.2-1.2,0.6-1.2,1.4c0,0.7,0.2,1.2,0.8,1.2s1.4-0.4,1.4-1.3V325.8z"/>
	<path class="st4" d="M517.7,329.2L517.7,329.2c-0.5,0.8-1.1,1.1-2,1.1c-1.8,0-2.6-1.3-2.6-4.5s0.8-4.5,2.6-4.5c0.8,0,1.4,0.3,1.9,1
		h0v-3.6h2.2v11.4h-2.1V329.2z M516.4,328.7c1,0,1.2-1,1.2-2.8s-0.2-2.8-1.2-2.8c-1,0-1.2,1-1.2,2.8S515.5,328.7,516.4,328.7z"/>
	<path class="st4" d="M521.9,324.2V324c0-2,1.4-2.7,3-2.7c2.6,0,3.1,1.1,3.1,2.6v4.5c0,0.8,0,1.2,0.3,1.7h-2.1
		c-0.1-0.3-0.2-0.6-0.3-0.9h0c-0.5,0.9-1.1,1.1-2.2,1.1c-1.5,0-2.1-1.3-2.1-2.5c0-1.6,0.7-2.3,2.2-2.7l1.2-0.3
		c0.7-0.2,0.9-0.4,0.9-1c0-0.7-0.3-1.1-1-1.1c-0.7,0-1,0.4-1,1.1v0.2H521.9z M525.9,325.8c-0.3,0.2-0.7,0.4-0.9,0.4
		c-0.9,0.2-1.2,0.6-1.2,1.4c0,0.7,0.2,1.2,0.8,1.2s1.4-0.4,1.4-1.3V325.8z"/>
	<path class="st4" d="M530.3,321.5h2.1v1h0c0.5-0.8,1.3-1.2,2.2-1.2c1.4,0,2.2,0.8,2.2,2.4v6.4h-2.2v-5.9c0-0.9-0.3-1.2-0.9-1.2
		c-0.8,0-1.2,0.5-1.2,1.4v5.7h-2.2V321.5z"/>
	<path class="st4" d="M545.4,321.5v8.2c0,2.3-1,3.4-3.6,3.4c-1.9,0-2.9-0.8-2.9-2.3h2.1c0,0.3,0.1,0.5,0.3,0.7
		c0.2,0.1,0.5,0.2,0.7,0.2c0.9,0,1.2-0.7,1.2-1.6V329h0c-0.4,0.6-1.1,1.1-1.8,1.1c-1.8,0-2.6-1.2-2.6-4.4c0-2,0.3-4.4,2.7-4.4
		c0.6,0,1.4,0.3,1.8,1.2h0v-1H545.4z M542,328.4c0.9,0,1.2-1,1.2-2.5c0-2.1-0.3-2.9-1.2-2.9c-1,0-1.2,0.8-1.2,3.1
		C540.9,327.3,541.1,328.4,542,328.4z"/>
	<path class="st4" d="M552.1,318.7h3.9c1.9,0,3.2,0.7,3.2,2.9c0,1.2-0.6,2.2-1.7,2.5v0c1.3,0.2,2.1,1.1,2.1,2.7
		c0,1.8-0.9,3.3-3.6,3.3h-3.9V318.7z M554.4,323.4h0.7c1.3,0,1.8-0.4,1.8-1.5c0-1.1-0.5-1.5-1.7-1.5h-0.8V323.4z M554.4,328.4h0.9
		c1.1,0,1.9-0.4,1.9-1.7c0-1.3-0.8-1.7-1.8-1.7h-1V328.4z"/>
	<path class="st4" d="M561.5,324.2V324c0-2,1.4-2.7,3-2.7c2.6,0,3.1,1.1,3.1,2.6v4.5c0,0.8,0,1.2,0.3,1.7h-2.1
		c-0.1-0.3-0.2-0.6-0.3-0.9h0c-0.5,0.9-1.1,1.1-2.2,1.1c-1.5,0-2.1-1.3-2.1-2.5c0-1.6,0.7-2.3,2.2-2.7l1.2-0.3
		c0.7-0.2,0.9-0.4,0.9-1c0-0.7-0.3-1.1-1-1.1c-0.7,0-1,0.4-1,1.1v0.2H561.5z M565.6,325.8c-0.3,0.2-0.7,0.4-0.9,0.4
		c-0.9,0.2-1.2,0.6-1.2,1.4c0,0.7,0.2,1.2,0.8,1.2s1.4-0.4,1.4-1.3V325.8z"/>
	<path class="st4" d="M570,318.6h2.2v1.9H570V318.6z M570,321.5h2.2v8.6H570V321.5z"/>
</g>
<g>
	<path class="st4" d="M770.3,149c0-0.8-0.4-1.9-1.3-1.9c-1.1,0-1.6,1.2-1.6,4c0,2.8,0.3,4.5,1.6,4.5c0.5,0,1.4-0.6,1.4-1.8v-1.2
		h-1.5v-1.7h3.7v6.2h-1.7V156h0c-0.5,0.9-1.3,1.3-2.4,1.3c-2.8,0-3.4-2.1-3.4-6.1c0-3.8,0.9-5.8,3.8-5.8c2.5,0,3.6,1.3,3.6,3.6
		H770.3z"/>
	<path class="st4" d="M774.8,145.5h2.2v1.9h-2.2V145.5z M774.8,148.4h2.2v8.6h-2.2V148.4z"/>
	<path class="st4" d="M779.2,145.6h2.2v11.4h-2.2V145.6z"/>
	<path class="st4" d="M783.7,145.5h2.2v1.9h-2.2V145.5z M783.7,148.4h2.2v8.6h-2.2V148.4z"/>
	<path class="st4" d="M771.9,161.6v1.9h-2.5v9.5h-2.3v-9.5h-2.5v-1.9H771.9z"/>
	<path class="st4" d="M773.5,164.4h2.1v1.2h0c0.4-0.8,1.1-1.4,2-1.4c0.1,0,0.3,0,0.4,0v2.1c-0.2,0-0.5,0-0.7,0
		c-0.8,0-1.6,0.4-1.6,1.6v5.2h-2.2V164.4z"/>
	<path class="st4" d="M779.4,167.1v-0.2c0-2,1.4-2.7,3-2.7c2.6,0,3.1,1.1,3.1,2.6v4.5c0,0.8,0,1.2,0.3,1.7h-2.1
		c-0.1-0.3-0.2-0.6-0.3-0.9h0c-0.5,0.9-1.1,1.1-2.2,1.1c-1.5,0-2.1-1.3-2.1-2.5c0-1.6,0.7-2.3,2.2-2.7l1.2-0.3
		c0.7-0.2,0.9-0.4,0.9-1c0-0.7-0.3-1.1-1-1.1c-0.7,0-1,0.4-1,1.1v0.2H779.4z M783.4,168.7c-0.3,0.2-0.7,0.4-0.9,0.4
		c-0.9,0.2-1.2,0.6-1.2,1.4c0,0.7,0.2,1.2,0.8,1.2c0.6,0,1.4-0.4,1.4-1.3V168.7z"/>
	<path class="st4" d="M787.1,164.4h2.2l1,6.1h0l1.1-6.1h2.4l1.1,6.1h0l1-6.1h2.1l-1.9,8.6h-2.5l-1.1-6.1h0l-1.1,6.1H789L787.1,164.4
		z"/>
	<path class="st4" d="M799.7,167.1v-0.2c0-2,1.4-2.7,3-2.7c2.6,0,3.1,1.1,3.1,2.6v4.5c0,0.8,0,1.2,0.3,1.7H804
		c-0.1-0.3-0.2-0.6-0.3-0.9h0c-0.5,0.9-1.1,1.1-2.2,1.1c-1.5,0-2.1-1.3-2.1-2.5c0-1.6,0.7-2.3,2.2-2.7l1.2-0.3
		c0.7-0.2,0.9-0.4,0.9-1c0-0.7-0.3-1.1-1-1.1c-0.7,0-1,0.4-1,1.1v0.2H799.7z M803.7,168.7c-0.3,0.2-0.7,0.4-0.9,0.4
		c-0.9,0.2-1.2,0.6-1.2,1.4c0,0.7,0.2,1.2,0.8,1.2c0.6,0,1.4-0.4,1.4-1.3V168.7z"/>
	<path class="st4" d="M808,164.4h2.1v1h0c0.5-0.8,1.3-1.2,2.2-1.2c1.4,0,2.2,0.8,2.2,2.4v6.4h-2.2v-5.9c0-0.9-0.3-1.2-0.9-1.2
		c-0.8,0-1.2,0.5-1.2,1.4v5.7H808V164.4z"/>
	<path class="st4" d="M823.1,164.4v8.2c0,2.3-1,3.4-3.6,3.4c-1.9,0-2.9-0.8-2.9-2.3h2.1c0,0.3,0.1,0.5,0.3,0.7s0.5,0.2,0.7,0.2
		c0.9,0,1.2-0.7,1.2-1.6v-1.1h0c-0.4,0.6-1.1,1.1-1.8,1.1c-1.8,0-2.6-1.2-2.6-4.4c0-2,0.3-4.4,2.7-4.4c0.6,0,1.4,0.3,1.8,1.2h0v-1
		H823.1z M819.8,171.3c0.9,0,1.2-1,1.2-2.5c0-2.1-0.3-2.9-1.2-2.9c-1,0-1.2,0.8-1.2,3.1C818.7,170.2,818.9,171.3,819.8,171.3z"/>
	<path class="st4" d="M825.3,167.1v-0.2c0-2,1.4-2.7,3-2.7c2.6,0,3.1,1.1,3.1,2.6v4.5c0,0.8,0,1.2,0.3,1.7h-2.1
		c-0.1-0.3-0.2-0.6-0.3-0.9h0c-0.5,0.9-1.1,1.1-2.2,1.1c-1.5,0-2.1-1.3-2.1-2.5c0-1.6,0.7-2.3,2.2-2.7l1.2-0.3
		c0.7-0.2,0.9-0.4,0.9-1c0-0.7-0.3-1.1-1-1.1c-0.7,0-1,0.4-1,1.1v0.2H825.3z M829.3,168.7c-0.3,0.2-0.7,0.4-0.9,0.4
		c-0.9,0.2-1.2,0.6-1.2,1.4c0,0.7,0.2,1.2,0.8,1.2c0.6,0,1.4-0.4,1.4-1.3V168.7z"/>
	<path class="st4" d="M833.6,164.4h2.1v1h0c0.5-0.8,1.3-1.2,2.2-1.2c1.4,0,2.2,0.8,2.2,2.4v6.4h-2.2v-5.9c0-0.9-0.3-1.2-0.9-1.2
		c-0.8,0-1.2,0.5-1.2,1.4v5.7h-2.2V164.4z"/>
</g>
<g>
	<path class="st4" d="M528.7,392.7l2.8,7.8h0v-7.8h2.1v11.4H531l-2.8-8h0v8H526v-11.4H528.7z"/>
	<path class="st4" d="M540.2,403.1L540.2,403.1c-0.5,0.8-1.3,1.2-2.2,1.2c-1.4,0-2.2-0.8-2.2-2.4v-6.4h2.2v5.9
		c0,0.9,0.3,1.2,0.9,1.2c0.8,0,1.2-0.5,1.2-1.4v-5.7h2.2v8.6h-2.1V403.1z"/>
	<path class="st4" d="M546.1,401.3v0.3c0,0.8,0.4,1.2,1.2,1.2c0.7,0,1.1-0.3,1.1-1c0-0.6-0.4-0.8-0.8-1l-1.6-0.6
		c-1.2-0.4-1.8-1.2-1.8-2.4c0-1.4,0.9-2.6,3.2-2.6c2,0,2.9,0.9,2.9,2.4v0.4h-2c0-0.9-0.3-1.3-1-1.3c-0.6,0-1,0.3-1,0.9
		c0,0.4,0.2,0.8,1,1l1.3,0.4c1.4,0.5,1.9,1.2,1.9,2.5c0,1.8-1.3,2.7-3.2,2.7c-2.5,0-3.2-1.1-3.2-2.7v-0.3H546.1z"/>
	<path class="st4" d="M552.2,398.1v-0.2c0-2,1.4-2.7,3-2.7c2.6,0,3.1,1.1,3.1,2.6v4.5c0,0.8,0,1.2,0.3,1.7h-2.1
		c-0.1-0.3-0.2-0.6-0.3-0.9h0c-0.5,0.9-1.1,1.1-2.2,1.1c-1.5,0-2.1-1.3-2.1-2.5c0-1.6,0.7-2.3,2.2-2.7l1.2-0.3
		c0.7-0.2,0.9-0.4,0.9-1c0-0.7-0.3-1.1-1-1.1c-0.7,0-1,0.4-1,1.1v0.2H552.2z M556.2,399.8c-0.3,0.2-0.7,0.4-0.9,0.4
		c-0.9,0.2-1.2,0.6-1.2,1.4c0,0.7,0.2,1.2,0.8,1.2s1.4-0.4,1.4-1.3V399.8z"/>
	<path class="st4" d="M526,420.1v-11.4h2.3v9.5h4.1v1.9H526z"/>
	<path class="st4" d="M535.9,416.1v0.7c0,1,0.3,2,1.1,2c0.7,0,1-0.6,1.2-1.6h2c-0.1,2-1,3.1-3.1,3.1c-3.2,0-3.3-2.5-3.3-4.6
		c0-2.3,0.4-4.5,3.4-4.5c2.6,0,3.2,1.7,3.2,4.4v0.5H535.9z M538.2,414.8c0-1.3-0.2-2-1.1-2c-0.9,0-1.1,0.9-1.1,1.7v0.3H538.2z"/>
	<path class="st4" d="M542.1,411.5h2.1v0.9h0c0.6-0.8,1.2-1.1,2.2-1.1c1,0,1.7,0.5,2,1.4h0c0.3-0.9,1.1-1.4,2.2-1.4
		c1.5,0,2.1,0.9,2.1,2.6v6.3h-2.2v-6c0-0.7-0.2-1.1-0.9-1.1c-0.7,0-1.2,0.5-1.2,1.5v5.7h-2.2v-6c0-0.7-0.2-1.1-0.9-1.1
		c-0.7,0-1.2,0.5-1.2,1.5v5.7h-2.2V411.5z"/>
	<path class="st4" d="M554.8,408.7h2.2v3.6h0c0.5-0.7,1-1,1.9-1c1.8,0,2.6,1.3,2.6,4.5s-0.8,4.5-2.6,4.5c-0.9,0-1.5-0.3-2-1.1h0v0.9
		h-2.1V408.7z M558.2,418.6c1,0,1.2-1,1.2-2.8c0-1.9-0.2-2.8-1.2-2.8c-1,0-1.2,1-1.2,2.8C557.1,417.7,557.2,418.6,558.2,418.6z"/>
	<path class="st4" d="M566.6,411.3c2.7,0,3.4,1.5,3.4,4.5c0,2.9-0.9,4.5-3.4,4.5c-2.7,0-3.4-1.5-3.4-4.5
		C563.2,412.9,564.1,411.3,566.6,411.3z M566.6,418.8c0.9,0,1.2-0.9,1.2-3c0-2.1-0.3-3-1.2-3c-1.1,0-1.2,1.3-1.2,3
		S565.5,418.8,566.6,418.8z"/>
	<path class="st4" d="M571.8,411.5h2.1v1h0c0.5-0.8,1.3-1.2,2.2-1.2c1.4,0,2.2,0.8,2.2,2.4v6.4h-2.2v-5.9c0-0.9-0.3-1.2-0.9-1.2
		c-0.8,0-1.2,0.5-1.2,1.4v5.7h-2.2V411.5z"/>
	<path class="st4" d="M586.9,411.5v8.2c0,2.3-1,3.4-3.6,3.4c-1.9,0-2.9-0.8-2.9-2.3h2.1c0,0.3,0.1,0.5,0.3,0.7
		c0.2,0.1,0.5,0.2,0.7,0.2c0.9,0,1.2-0.7,1.2-1.6V419h0c-0.4,0.6-1.1,1.1-1.8,1.1c-1.8,0-2.6-1.2-2.6-4.4c0-2,0.3-4.4,2.7-4.4
		c0.6,0,1.4,0.3,1.8,1.2h0v-1H586.9z M583.6,418.3c0.9,0,1.2-1,1.2-2.5c0-2.1-0.3-2.9-1.2-2.9c-1,0-1.2,0.8-1.2,3.1
		C582.5,417.3,582.6,418.3,583.6,418.3z"/>
	<path class="st4" d="M589.1,414.1v-0.2c0-2,1.4-2.7,3-2.7c2.6,0,3.1,1.1,3.1,2.6v4.5c0,0.8,0,1.2,0.3,1.7h-2.1
		c-0.1-0.3-0.2-0.6-0.3-0.9h0c-0.5,0.9-1.1,1.1-2.2,1.1c-1.5,0-2.1-1.3-2.1-2.5c0-1.6,0.7-2.3,2.2-2.7l1.2-0.3
		c0.7-0.2,0.9-0.4,0.9-1c0-0.7-0.3-1.1-1-1.1c-0.7,0-1,0.4-1,1.1v0.2H589.1z M593.1,415.8c-0.3,0.2-0.7,0.4-0.9,0.4
		c-0.9,0.2-1.2,0.6-1.2,1.4c0,0.7,0.2,1.2,0.8,1.2c0.6,0,1.4-0.4,1.4-1.3V415.8z"/>
	<path class="st4" d="M597.4,411.5h2.1v1h0c0.5-0.8,1.3-1.2,2.2-1.2c1.4,0,2.2,0.8,2.2,2.4v6.4h-2.2v-5.9c0-0.9-0.3-1.2-0.9-1.2
		c-0.8,0-1.2,0.5-1.2,1.4v5.7h-2.2V411.5z"/>
</g>
<g>
	<path class="st4" d="M285.7,356v1.9h-2.5v9.5h-2.3v-9.5h-2.5V356H285.7z"/>
	<path class="st4" d="M287.3,361.4v-0.2c0-2,1.4-2.7,3-2.7c2.6,0,3.1,1.1,3.1,2.6v4.5c0,0.8,0,1.2,0.3,1.7h-2.1
		c-0.1-0.3-0.2-0.6-0.3-0.9h0c-0.5,0.9-1.1,1.1-2.2,1.1c-1.5,0-2.1-1.3-2.1-2.5c0-1.6,0.7-2.3,2.2-2.7l1.2-0.3
		c0.7-0.2,0.9-0.4,0.9-1c0-0.7-0.3-1.1-1-1.1c-0.7,0-1,0.4-1,1.1v0.2H287.3z M291.3,363.1c-0.3,0.2-0.7,0.4-0.9,0.4
		c-0.9,0.2-1.2,0.6-1.2,1.4c0,0.7,0.2,1.2,0.8,1.2s1.4-0.4,1.4-1.3V363.1z"/>
	<path class="st4" d="M295.6,358.8h2.1v1h0c0.5-0.8,1.3-1.2,2.2-1.2c1.4,0,2.2,0.8,2.2,2.4v6.4H300v-5.9c0-0.9-0.3-1.2-0.9-1.2
		c-0.8,0-1.2,0.5-1.2,1.4v5.7h-2.2V358.8z"/>
	<path class="st4" d="M304.3,361.4v-0.2c0-2,1.4-2.7,3-2.7c2.6,0,3.1,1.1,3.1,2.6v4.5c0,0.8,0,1.2,0.3,1.7h-2.1
		c-0.1-0.3-0.2-0.6-0.3-0.9h0c-0.5,0.9-1.1,1.1-2.2,1.1c-1.5,0-2.1-1.3-2.1-2.5c0-1.6,0.7-2.3,2.2-2.7l1.2-0.3
		c0.7-0.2,0.9-0.4,0.9-1c0-0.7-0.3-1.1-1-1.1c-0.7,0-1,0.4-1,1.1v0.2H304.3z M308.3,363.1c-0.3,0.2-0.7,0.4-0.9,0.4
		c-0.9,0.2-1.2,0.6-1.2,1.4c0,0.7,0.2,1.2,0.8,1.2s1.4-0.4,1.4-1.3V363.1z"/>
	<path class="st4" d="M312.6,356h2.2v3.7h0c0.4-0.7,1.2-1.1,2.1-1.1c1.4,0,2.2,0.8,2.2,2.4v6.4h-2.2v-5.9c0-0.9-0.3-1.2-0.9-1.2
		c-0.8,0-1.2,0.5-1.2,1.4v5.7h-2.2V356z"/>
	<path class="st4" d="M325.8,367.4V356h2.3v9.5h4.1v1.9H325.8z"/>
	<path class="st4" d="M336.9,358.6c2.7,0,3.4,1.5,3.4,4.5c0,2.9-0.9,4.5-3.4,4.5c-2.7,0-3.4-1.5-3.4-4.5
		C333.5,360.2,334.4,358.6,336.9,358.6z M336.9,366.1c0.9,0,1.2-0.9,1.2-3c0-2.1-0.3-3-1.2-3c-1.1,0-1.2,1.3-1.2,3
		C335.7,364.9,335.8,366.1,336.9,366.1z"/>
	<path class="st4" d="M342.6,356.3h2.2v2.5h1.3v1.5h-1.3v4.7c0,0.7,0.1,0.9,0.8,0.9c0.2,0,0.4,0,0.5,0v1.5c-0.5,0-0.9,0.1-1.4,0.1
		c-1.7,0-2-0.5-2-2.3v-4.9h-1.1v-1.5h1.1V356.3z"/>
</g>
<g>
	<path class="st4" d="M321.3,425.9h3.8c3.2,0,3.8,2.2,3.8,5.6c0,4-0.9,5.9-3.9,5.9h-3.6V425.9z M323.6,435.7h1c1.6,0,1.9-1,1.9-4.1
		c0-2.6-0.2-3.9-2-3.9h-1V435.7z"/>
	<path class="st4" d="M332.8,433.4v0.7c0,1,0.3,2,1.1,2c0.7,0,1-0.6,1.2-1.6h2c-0.1,2-1,3.1-3.1,3.1c-3.2,0-3.3-2.5-3.3-4.6
		c0-2.3,0.4-4.5,3.4-4.5c2.6,0,3.2,1.7,3.2,4.4v0.5H332.8z M335,432.1c0-1.3-0.2-2-1.1-2c-0.9,0-1.1,0.9-1.1,1.7v0.3H335z"/>
	<path class="st4" d="M338.9,428.8h2.1v1h0c0.5-0.8,1.3-1.2,2.2-1.2c1.4,0,2.2,0.8,2.2,2.4v6.4h-2.2v-5.9c0-0.9-0.3-1.2-0.9-1.2
		c-0.8,0-1.2,0.5-1.2,1.4v5.7h-2.2V428.8z"/>
	<path class="st4" d="M347.6,428.8h2.1v0.9h0c0.5-0.8,1.1-1.1,2-1.1c1.8,0,2.6,1.3,2.6,4.5s-0.8,4.5-2.6,4.5c-0.8,0-1.4-0.3-1.9-1h0
		v3.6h-2.2V428.8z M351,435.9c1,0,1.2-1,1.2-2.8c0-1.9-0.2-2.8-1.2-2.8c-1,0-1.2,1-1.2,2.8C349.8,434.9,350,435.9,351,435.9z"/>
	<path class="st4" d="M356.2,431.4v-0.2c0-2,1.4-2.7,3-2.7c2.6,0,3.1,1.1,3.1,2.6v4.5c0,0.8,0,1.2,0.3,1.7h-2.1
		c-0.1-0.3-0.2-0.6-0.3-0.9h0c-0.5,0.9-1.1,1.1-2.2,1.1c-1.5,0-2.1-1.3-2.1-2.5c0-1.6,0.7-2.3,2.2-2.7l1.2-0.3
		c0.7-0.2,0.9-0.4,0.9-1c0-0.7-0.3-1.1-1-1.1c-0.7,0-1,0.4-1,1.1v0.2H356.2z M360.2,433.1c-0.3,0.2-0.7,0.4-0.9,0.4
		c-0.9,0.2-1.2,0.6-1.2,1.4c0,0.7,0.2,1.2,0.8,1.2s1.4-0.4,1.4-1.3V433.1z"/>
	<path class="st4" d="M366.2,434.5v0.3c0,0.8,0.4,1.2,1.2,1.2c0.7,0,1.1-0.3,1.1-1c0-0.6-0.4-0.8-0.8-1l-1.6-0.6
		c-1.2-0.4-1.8-1.2-1.8-2.4c0-1.4,0.9-2.6,3.2-2.6c2,0,2.9,0.9,2.9,2.4v0.4h-2c0-0.9-0.3-1.3-1-1.3c-0.6,0-1,0.3-1,0.9
		c0,0.4,0.2,0.8,1,1l1.3,0.4c1.4,0.5,1.9,1.2,1.9,2.5c0,1.8-1.3,2.7-3.2,2.7c-2.5,0-3.2-1.1-3.2-2.7v-0.3H366.2z"/>
	<path class="st4" d="M372.3,431.4v-0.2c0-2,1.4-2.7,3-2.7c2.6,0,3.1,1.1,3.1,2.6v4.5c0,0.8,0,1.2,0.3,1.7h-2.1
		c-0.1-0.3-0.2-0.6-0.3-0.9h0c-0.5,0.9-1.1,1.1-2.2,1.1c-1.5,0-2.1-1.3-2.1-2.5c0-1.6,0.7-2.3,2.2-2.7l1.2-0.3
		c0.7-0.2,0.9-0.4,0.9-1c0-0.7-0.3-1.1-1-1.1c-0.7,0-1,0.4-1,1.1v0.2H372.3z M376.3,433.1c-0.3,0.2-0.7,0.4-0.9,0.4
		c-0.9,0.2-1.2,0.6-1.2,1.4c0,0.7,0.2,1.2,0.8,1.2s1.4-0.4,1.4-1.3V433.1z"/>
	<path class="st4" d="M380.6,428.8h2.1v1.2h0c0.4-0.8,1.1-1.4,2-1.4c0.1,0,0.3,0,0.4,0v2.1c-0.2,0-0.5,0-0.7,0
		c-0.8,0-1.6,0.4-1.6,1.6v5.2h-2.2V428.8z"/>
</g>
<g>
	<path class="st4" d="M317.2,393v0.3c0,1.1,0.3,1.8,1.5,1.8c0.7,0,1.4-0.4,1.4-1.4c0-1-0.5-1.4-2-2c-2-0.7-3-1.6-3-3.5
		c0-2.2,1.4-3.4,3.5-3.4c2,0,3.5,0.9,3.5,3.1v0.3H320c0-1.1-0.4-1.7-1.2-1.7c-1,0-1.3,0.7-1.3,1.3c0,0.7,0.2,1.1,1.2,1.6l1.8,0.8
		c1.7,0.8,2.2,1.6,2.2,3c0,2.4-1.5,3.5-4,3.5c-2.6,0-3.6-1.2-3.6-3.3V393H317.2z"/>
	<path class="st4" d="M326.2,392.6v0.7c0,1,0.3,2,1.1,2c0.7,0,1-0.6,1.2-1.6h2c-0.1,2-1,3.1-3.1,3.1c-3.2,0-3.3-2.5-3.3-4.6
		c0-2.3,0.4-4.5,3.4-4.5c2.6,0,3.2,1.7,3.2,4.4v0.5H326.2z M328.4,391.3c0-1.3-0.2-2-1.1-2c-0.9,0-1.1,0.9-1.1,1.7v0.3H328.4z"/>
	<path class="st4" d="M332.3,387.9h2.1v0.9h0c0.6-0.8,1.2-1.1,2.2-1.1c1,0,1.7,0.5,2,1.4h0c0.3-0.9,1.1-1.4,2.2-1.4
		c1.5,0,2.1,0.9,2.1,2.6v6.3h-2.2v-6c0-0.7-0.2-1.1-0.9-1.1c-0.7,0-1.2,0.5-1.2,1.5v5.7h-2.2v-6c0-0.7-0.2-1.1-0.9-1.1
		c-0.7,0-1.2,0.5-1.2,1.5v5.7h-2.2V387.9z"/>
	<path class="st4" d="M345.2,385h2.2v1.9h-2.2V385z M345.2,387.9h2.2v8.6h-2.2V387.9z"/>
	<path class="st4" d="M349.6,387.9h2.1v1h0c0.5-0.8,1.3-1.2,2.2-1.2c1.4,0,2.2,0.8,2.2,2.4v6.4h-2.2v-5.9c0-0.9-0.3-1.2-0.9-1.2
		c-0.8,0-1.2,0.5-1.2,1.4v5.7h-2.2V387.9z"/>
	<path class="st4" d="M358.2,397.7c0.2,0,0.4,0,0.6,0c0.8,0,1.1-0.4,1.2-1.2l-2.4-8.6h2.3l1.3,6h0l1.1-6h2.2l-2.1,8
		c-0.8,3-1.3,3.4-3.3,3.4h-0.9V397.7z"/>
	<path class="st4" d="M365.9,390.6v-0.2c0-2,1.4-2.7,3-2.7c2.6,0,3.1,1.1,3.1,2.6v4.5c0,0.8,0,1.2,0.3,1.7h-2.1
		c-0.1-0.3-0.2-0.6-0.3-0.9h0c-0.5,0.9-1.1,1.1-2.2,1.1c-1.5,0-2.1-1.3-2.1-2.5c0-1.6,0.7-2.3,2.2-2.7l1.2-0.3
		c0.7-0.2,0.9-0.4,0.9-1c0-0.7-0.3-1.1-1-1.1c-0.7,0-1,0.4-1,1.1v0.2H365.9z M370,392.3c-0.3,0.2-0.7,0.4-0.9,0.4
		c-0.9,0.2-1.2,0.6-1.2,1.4c0,0.7,0.2,1.2,0.8,1.2s1.4-0.4,1.4-1.3V392.3z"/>
	<path class="st4" d="M376.6,385.1v6h0l2.2-3.2h2.4l-2.5,3.4l2.8,5.2h-2.4l-1.8-3.5l-0.8,1v2.5h-2.2v-11.4H376.6z"/>
</g>
<g>
	<path class="st4" d="M361.2,406.9v4.6h0l2.9-4.6h2.5l-3.1,4.9l3.5,6.5h-2.6l-2.4-4.7l-0.8,1.3v3.4h-2.3v-11.4H361.2z"/>
	<path class="st4" d="M372.5,417.3L372.5,417.3c-0.5,0.8-1.3,1.2-2.2,1.2c-1.4,0-2.2-0.8-2.2-2.4v-6.4h2.2v5.9
		c0,0.9,0.3,1.2,0.9,1.2c0.8,0,1.2-0.5,1.2-1.4v-5.7h2.2v8.6h-2.1V417.3z"/>
	<path class="st4" d="M377.2,407.2h2.2v2.5h1.3v1.5h-1.3v4.7c0,0.7,0.1,0.9,0.8,0.9c0.2,0,0.4,0,0.5,0v1.5c-0.5,0-0.9,0.1-1.4,0.1
		c-1.7,0-2-0.5-2-2.3v-4.9H376v-1.5h1.1V407.2z"/>
	<path class="st4" d="M382,412.4v-0.2c0-2,1.4-2.7,3-2.7c2.6,0,3.1,1.1,3.1,2.6v4.5c0,0.8,0,1.2,0.3,1.7h-2.1
		c-0.1-0.3-0.2-0.6-0.3-0.9h0c-0.5,0.9-1.1,1.1-2.2,1.1c-1.5,0-2.1-1.3-2.1-2.5c0-1.6,0.7-2.3,2.2-2.7l1.2-0.3
		c0.7-0.2,0.9-0.4,0.9-1c0-0.7-0.3-1.1-1-1.1c-0.7,0-1,0.4-1,1.1v0.2H382z M386.1,414c-0.3,0.2-0.7,0.4-0.9,0.4
		c-0.9,0.2-1.2,0.6-1.2,1.4c0,0.7,0.2,1.2,0.8,1.2s1.4-0.4,1.4-1.3V414z"/>
</g>
<g>
	<path class="st4" d="M444,398.3v0.3c0,1.1,0.3,1.8,1.5,1.8c0.7,0,1.4-0.4,1.4-1.4c0-1-0.5-1.4-2-2c-2-0.7-3-1.6-3-3.5
		c0-2.2,1.4-3.4,3.5-3.4c2,0,3.5,0.9,3.5,3.1v0.3h-2.2c0-1.1-0.4-1.7-1.2-1.7c-1,0-1.3,0.7-1.3,1.3c0,0.7,0.2,1.1,1.2,1.6l1.8,0.8
		c1.7,0.8,2.2,1.6,2.2,3c0,2.4-1.5,3.5-4,3.5c-2.6,0-3.6-1.2-3.6-3.3v-0.5H444z"/>
	<path class="st4" d="M451,395.9v-0.2c0-2,1.4-2.7,3-2.7c2.6,0,3.1,1.1,3.1,2.6v4.5c0,0.8,0,1.2,0.3,1.7h-2.1
		c-0.1-0.3-0.2-0.6-0.3-0.9h0c-0.5,0.9-1.1,1.1-2.2,1.1c-1.5,0-2.1-1.3-2.1-2.5c0-1.6,0.7-2.3,2.2-2.7l1.2-0.3
		c0.7-0.2,0.9-0.4,0.9-1c0-0.7-0.3-1.1-1-1.1c-0.7,0-1,0.4-1,1.1v0.2H451z M455.1,397.5c-0.3,0.2-0.7,0.4-0.9,0.4
		c-0.9,0.2-1.2,0.6-1.2,1.4c0,0.7,0.2,1.2,0.8,1.2s1.4-0.4,1.4-1.3V397.5z"/>
	<path class="st4" d="M459.4,393.2h2.1v1h0c0.5-0.8,1.3-1.2,2.2-1.2c1.4,0,2.2,0.8,2.2,2.4v6.4h-2.2v-5.9c0-0.9-0.3-1.2-0.9-1.2
		c-0.8,0-1.2,0.5-1.2,1.4v5.7h-2.2V393.2z"/>
	<path class="st4" d="M472.5,400.8L472.5,400.8c-0.5,0.8-1.3,1.2-2.2,1.2c-1.4,0-2.2-0.8-2.2-2.4v-6.4h2.2v5.9
		c0,0.9,0.3,1.2,0.9,1.2c0.8,0,1.2-0.5,1.2-1.4v-5.7h2.2v8.6h-2.1V400.8z"/>
	<path class="st4" d="M476.7,393.2h2.1v1.2h0c0.4-0.8,1.1-1.4,2-1.4c0.1,0,0.3,0,0.4,0v2.1c-0.2,0-0.5,0-0.7,0
		c-0.8,0-1.6,0.4-1.6,1.6v5.2h-2.2V393.2z"/>
</g>
<g>
	<path class="st4" d="M256.7,472.3h4c2.3,0,3.1,1.7,3.1,3.4c0,2.4-1.5,3.4-3.6,3.4H259v4.6h-2.3V472.3z M259,477.5h1
		c0.9,0,1.5-0.5,1.5-1.7c0-1.1-0.4-1.8-1.6-1.8h-1V477.5z"/>
	<path class="st4" d="M270,482.8L270,482.8c-0.5,0.8-1.3,1.2-2.2,1.2c-1.4,0-2.2-0.8-2.2-2.4v-6.4h2.2v5.9c0,0.9,0.3,1.2,0.9,1.2
		c0.8,0,1.2-0.5,1.2-1.4v-5.7h2.2v8.6H270V482.8z"/>
	<path class="st4" d="M274.3,475.1h2.1v1.2h0c0.4-0.8,1.1-1.4,2-1.4c0.1,0,0.3,0,0.4,0v2.1c-0.2,0-0.5,0-0.7,0
		c-0.8,0-1.6,0.4-1.6,1.6v5.2h-2.2V475.1z"/>
	<path class="st4" d="M280.2,477.8v-0.2c0-2,1.4-2.7,3-2.7c2.6,0,3.1,1.1,3.1,2.6v4.5c0,0.8,0,1.2,0.3,1.7h-2.1
		c-0.1-0.3-0.2-0.6-0.3-0.9h0c-0.5,0.9-1.1,1.1-2.2,1.1c-1.5,0-2.1-1.3-2.1-2.5c0-1.6,0.7-2.3,2.2-2.7l1.2-0.3
		c0.7-0.2,0.9-0.4,0.9-1c0-0.7-0.3-1.1-1-1.1c-0.7,0-1,0.4-1,1.1v0.2H280.2z M284.2,479.5c-0.3,0.2-0.7,0.4-0.9,0.4
		c-0.9,0.2-1.2,0.6-1.2,1.4c0,0.7,0.2,1.2,0.8,1.2s1.4-0.4,1.4-1.3V479.5z"/>
	<path class="st4" d="M295.3,472.3v8c0,1.1,0.3,2,1.3,2c1.1,0,1.3-0.8,1.3-2v-8h2.3v8c0,2.9-1.8,3.7-3.6,3.7c-1.9,0-3.6-0.6-3.6-3.7
		v-8H295.3z"/>
	<path class="st4" d="M302.4,472.3h2.2v11.4h-2.2V472.3z"/>
	<path class="st4" d="M311.2,482.8L311.2,482.8c-0.5,0.8-1.3,1.2-2.2,1.2c-1.4,0-2.2-0.8-2.2-2.4v-6.4h2.2v5.9
		c0,0.9,0.3,1.2,0.9,1.2c0.8,0,1.2-0.5,1.2-1.4v-5.7h2.2v8.6h-2.1V482.8z"/>
	<path class="st4" d="M314.8,475.1h2.2l1,6.1h0l1.1-6.1h2.4l1.1,6.1h0l1-6.1h2.1l-1.9,8.6h-2.5l-1.1-6.1h0l-1.1,6.1h-2.6
		L314.8,475.1z"/>
	<path class="st4" d="M327.3,477.8v-0.2c0-2,1.4-2.7,3-2.7c2.6,0,3.1,1.1,3.1,2.6v4.5c0,0.8,0,1.2,0.3,1.7h-2.1
		c-0.1-0.3-0.2-0.6-0.3-0.9h0c-0.5,0.9-1.1,1.1-2.2,1.1c-1.5,0-2.1-1.3-2.1-2.5c0-1.6,0.7-2.3,2.2-2.7l1.2-0.3
		c0.7-0.2,0.9-0.4,0.9-1c0-0.7-0.3-1.1-1-1.1c-0.7,0-1,0.4-1,1.1v0.2H327.3z M331.3,479.5c-0.3,0.2-0.7,0.4-0.9,0.4
		c-0.9,0.2-1.2,0.6-1.2,1.4c0,0.7,0.2,1.2,0.8,1.2s1.4-0.4,1.4-1.3V479.5z"/>
	<path class="st4" d="M336.1,472.7h2.2v2.5h1.3v1.5h-1.3v4.7c0,0.7,0.1,0.9,0.8,0.9c0.2,0,0.4,0,0.5,0v1.5c-0.5,0-0.9,0.1-1.4,0.1
		c-1.7,0-2-0.5-2-2.3v-4.9H335v-1.5h1.1V472.7z"/>
	<path class="st4" d="M345.4,482.8L345.4,482.8c-0.5,0.8-1.3,1.2-2.2,1.2c-1.4,0-2.2-0.8-2.2-2.4v-6.4h2.2v5.9
		c0,0.9,0.3,1.2,0.9,1.2c0.8,0,1.2-0.5,1.2-1.4v-5.7h2.2v8.6h-2.1V482.8z"/>
</g>
<polyline class="st5" points="353.8,354.3 389.6,388.9 399.5,410.5 443.3,295.1 575,310.1 "/>
<polyline class="st6" points="575,310.1 769.6,183.9 520,387.4 441.4,382.6 "/>
<line class="st5" x1="354.6" y1="470.9" x2="441.4" y2="382.6"/>
<path class="st4" d="M439.1,295.1c0-2.3,1.9-4.3,4.3-4.3c2.3,0,4.3,1.9,4.3,4.3c0,2.3-1.9,4.3-4.3,4.3
	C441,299.3,439.1,297.4,439.1,295.1L439.1,295.1z"/>
<path class="st4" d="M570.8,310.1c0-2.3,1.9-4.3,4.3-4.3c2.3,0,4.3,1.9,4.3,4.3s-1.9,4.3-4.3,4.3
	C572.7,314.4,570.8,312.5,570.8,310.1L570.8,310.1z"/>
<path class="st4" d="M349.6,354.3c0-2.3,1.9-4.3,4.3-4.3c2.3,0,4.3,1.9,4.3,4.3s-1.9,4.3-4.3,4.3
	C351.5,358.6,349.6,356.7,349.6,354.3L349.6,354.3z"/>
<path class="st4" d="M437.1,382.6c0-2.3,1.9-4.3,4.3-4.3c2.3,0,4.3,1.9,4.3,4.3c0,2.3-1.9,4.3-4.3,4.3
	C439,386.8,437.1,384.9,437.1,382.6L437.1,382.6z"/>
<path class="st4" d="M350.4,470.9c0-2.3,1.9-4.3,4.3-4.3c2.3,0,4.3,1.9,4.3,4.3c0,2.3-1.9,4.3-4.3,4.3
	C352.3,475.2,350.4,473.2,350.4,470.9L350.4,470.9z"/>
<path class="st4" d="M516.4,387.4c0-2.3,1.9-4.3,4.3-4.3c2.3,0,4.3,1.9,4.3,4.3s-1.9,4.3-4.3,4.3
	C518.3,391.6,516.4,389.7,516.4,387.4L516.4,387.4z"/>
<path class="st4" d="M764.4,183.6c0-2.3,1.9-4.3,4.3-4.3c2.3,0,4.3,1.9,4.3,4.3s-1.9,4.3-4.3,4.3C766.3,187.9,764.4,186,764.4,183.6
	L764.4,183.6z"/>
<path class="st6" d="M49,0c0,0,320,112.5,343.8,425.3"/>
<path class="st4" d="M385.3,388.7c0-2.3,1.9-4.3,4.3-4.3c2.3,0,4.3,1.9,4.3,4.3s-1.9,4.3-4.3,4.3C387.2,392.9,385.3,391,385.3,388.7
	L385.3,388.7z"/>
<line class="st5" x1="399.5" y1="410.5" x2="392.9" y2="425.3"/>
<path class="st4" d="M395.3,410.5c0-2.3,1.9-4.3,4.3-4.3c2.3,0,4.3,1.9,4.3,4.3s-1.9,4.3-4.3,4.3
	C397.2,414.7,395.3,412.8,395.3,410.5L395.3,410.5z"/>
<path class="st4" d="M388.6,425.3c0-2.3,1.9-4.3,4.3-4.3c2.3,0,4.3,1.9,4.3,4.3s-1.9,4.3-4.3,4.3
	C390.5,429.6,388.6,427.7,388.6,425.3L388.6,425.3z"/>
<g>
	<path class="st7" d="M406.7,393.1c0,3.4-3.1,6.1-6.9,6.1c-3.8,0-6.9-2.7-6.9-6.1c0-3.4,3.1-6.1,6.9-6.1
		C403.6,387,406.7,389.7,406.7,393.1z"/>
	<path class="st8" d="M399.5,397.6c-2.6,0-4.7-2.1-4.7-4.7c0-2.6,2.1-4.7,4.7-4.7s4.7,2.1,4.7,4.7
		C404.1,395.5,402.1,397.6,399.5,397.6z M399.5,384c-5,0-9,4-9,9c0,2,1.3,5.3,3.9,10c1.9,3.3,3.7,6.1,3.8,6.2l1.3,2l1.3-2
		c0.1-0.1,1.9-2.9,3.8-6.2c2.6-4.7,3.9-8,3.9-10C408.5,388,404.4,384,399.5,384z"/>
</g>
</svg>
