<?xml version="1.0" encoding="utf-8"?>
<!-- Generator: Adobe Illustrator 25.0.1, SVG Export Plug-In . SVG Version: 6.00 Build 0)  -->
<svg version="1.1" id="Ebene_1" xmlns="http://www.w3.org/2000/svg" xmlns:xlink="http://www.w3.org/1999/xlink" x="0px" y="0px"
	 viewBox="0 0 1088.3 615.8" style="enable-background:new 0 0 1088.3 615.8;" xml:space="preserve">
<style type="text/css">
	.st0{fill:#E2E2E2;}
	.st1{fill:#EDEDEC;}
	.st2{fill:#DADADA;stroke:#DADADA;stroke-miterlimit:3.8637;}
	.st3{fill:#52A0D8;stroke:#52A0D8;stroke-miterlimit:10;}
	.st4{fill:none;stroke:#52A0D8;stroke-miterlimit:10;}
	.st5{fill:none;stroke:#FC1262;stroke-width:2;stroke-miterlimit:10;stroke-dasharray:4,4;}
	.st6{fill:none;stroke:#FC1262;stroke-width:2;stroke-miterlimit:10;}
	.st7{fill:#1F1F1E;}
	.st8{fill:#52A0D8;}
	.st9{fill:#020203;}
	.st10{fill:#FFFFFF;}
	.st11{fill:#FC1262;}
</style>
<path class="st0" d="M378.4,445.7l8.6-38l-2-3.1l-3.5-8.6l-3.1-5.1l3.1-10.6l1-11.7l39-21.8l39-26.8l23.5-28.3
	c1.9-0.2,4-0.6,5.2-1.2c3.6-1.6,3.6-3.6,7.9-3.2c4.4,0.4,1.2,3.6,5.5,4c4.4,0.4,7.5-4.4,11.1-7.1c3.6-2.8,15.1-11.5,18.2-13.1
	c3.2-1.6,7.1-1.6,12.3-4.4s17,0.8,23.8,6.3c6.7,5.5,10.3,7.5,16.2,7.1s7.1-4,9.5-5.9c2.4-2,9.1,2,13.1,4s33.7,4.7,41.6,4.7
	c7.9,0,36-2.4,44.4-3.6c8.3-1.2,7.5-0.8,16.2,0.4c8.7,1.2,10.3-1.6,22.6-8.7s11.9-3.6,17.8-4c5.9-0.4,15.8-6.7,16.6-8.7s0-4,2.4-4.4
	s14.7,5.1,18.2,6.3c3.6,1.2,14.3,6.7,22.6,9.5s19.8-0.4,29.3-1.6s21.8-9.9,25.7-11.5c4-1.6,24.2,2,27.7,3.2
	c3.6,1.2-7.1,6.3-3.2,11.1c4,4.7,3.2,0.4,8.3-0.8c5.2-1.2,15.1,0.8,17.8,3.2c2.8,2.4,5.5,5.5,9.9,5.5s3.6-4.8,3.6-4.8
	s13.5,2,20.2,2.4s15.5,8.7,17.4,11.1c2,2.4,2.4,12.7,2.8,15.8c0.4,3.2-4.7,5.9-9.1,6.7c-4.4,0.8,2.8,5.2,5.5,5.2
	c2.8,0,2-3.6,4.4-3.2s4-1.2,6.3-3.6c2.4-2.4-0.4-9.5-0.4-9.5l-5.2-7.9c0,0,39.2,32.9,36.4,31.7c-2.8-1.2-9.9-2-9.9-2
	s0.8-2.4-1.2-4.4s-9.5-4-13.5-4.4s-7.5,4.4-9.9,9.5s1.6,9.5,4,11.9s5.9,2.8,7.1,5.2c1.2,2.4,3.2,0.4,5.2,0.8s2.4,4,6.3,7.1
	c4,3.2,6.3,1.6,10.7,0.4s2.4-2.8,0-4.7c-2.4-2-4-1.6-3.2-4.4s-2.8-3.2-5.2-2.8c-2.4,0.4-4-1.6-3.2-4.4s15.1,8.3,17,10.7
	c2,2.4,6.7,4,9.1,3.2c2.4-0.8,5.5-5.2,5.5-7.1c0-2-4.8-5.1-5.9-8.3c-1.2-3.2,23.4,9.1,25.7,9.1c2.4,0,13.1,4.4,16.6,5.9
	c3.6,1.6,2.4,11.9,6.3,13.9c4,2,19.4,10,19.4,10s-11.8,4.5-18.1,3.6c-6.3-0.9-22.6,1.8-27.1,3.6c-4.5,1.8-22.6,15.4-26.3,17.2
	c-3.6,1.8-18.1,9-23.6,8.1c-5.4-0.9-16.3,5.4-21.7,7.3c-5.4,1.8-7.2-1.8-11.8-2.7c-4.5-0.9-2.7,10-2.7,10l-11.8-6.3
	c0,0-4.5,10-12.7,12.7s-3.6-1.8-8.1-4.5s-14.5-2.7-19-4.5s-7.2-7.2-8.1-13.6c-0.9-6.3-7.2-2.7-14.5-0.9
	c-7.3,1.8-15.4,17.2-13.6,23.5c1.8,6.3-5.4,8.2-12.7,5.4c-7.3-2.7-2.7,5.4-5.4,11.8c-2.7,6.3-1.8,13.6,1.8,19s-2.7,9-9.1,9
	c-6.3,0-10,1.8-15.4,7.2c-5.4,5.4-11.8,12.7-16.3,15.4c-4.5,2.7-23.5,10-27.2,14.5c-3.6,4.5-3.6,15.4-9,15.4s-9.1-4.5-8.2-10.9
	c0.9-6.3-11.8-6.3-14.5-10c-2.7-3.6,0.9-4.5,2.7-9s-13.6,0-19,2.7s-21.7,31.7-29,33.5c-7.2,1.8-16.3-6.3-21.7-6.3s-19,2.7-19,2.7
	s-3.6,12.7-2.7,18.1c0.9,5.4,8.2,38.9,5.4,42.6c-2.7,3.6-10,1.8-13.6-2.7s-9,6.3-11.8,11.8c-2.7,5.4-2.7,19.9-7.2,22.6
	c-4.5,2.7-35.3,0.9-39.8-1.8s0.9-9,5.4-18.1c4.5-9-12.7,6.3-19.9,3.6s1.8-18.1,0.9-24.4c-0.9-6.3-10.9,3.6-17.2,8.1
	s-6.3-5.4-3.6-11.8c2.7-6.3-0.9-9-0.9-9s-10.9,10.9-16.3,14.5c-5.4,3.6-5.4-4.5,0.9-14.5s0-7.3,0-7.3s2.7-8.1,1.8-12.7
	c-0.9-4.5,4.5-10.9,9-14.5s-2.7-11.8-5.4-17.2c-2.7-5.4-22.6-2.7-22.6-2.7s-9,5.4-9,0s-5.4-3.6-9.1-6.3c-3.6-2.7,1.8-8.1,4.5-14.5
	c2.7-6.3-9,0.9-15.4,2.7c-6.3,1.8-5.4,16.3-8.1,19.9s-20.8,8.1-25.4,4.5c-4.5-3.6,0.9-5.4,0-11.8c-0.9-6.3-21.7-7.2-27.2-8.1
	c-5.4-0.9-3.6-6.3-6.3-11.8c-2.7-5.4-19-8.2-25.4-10.9c-6.3-2.7-11.8-11.8-14.5-15.4C391.8,452.3,384.3,447.4,378.4,445.7
	L378.4,445.7z"/>
<path class="st1" d="M158.4,13.3c0,0,3.3-3.2,5.7-3.2s219.5,1.6,219.5,1.6v79.2c0,0-9.5,146.2-9.9,154.1c-0.4,7.9-1.2,7.1,1.2,9.9
	c2.4,2.8,10.7-0.8,15.8-0.8c5.2,0,22.6,2.8,28.1,4.7c5.5,2,10.7,4.8,12.3,5.2c1.6,0.4,9.9,8.7,13.9,8.7s6.3-2.8,8.7-5.5
	c2.4-2.8,0-5.9,2.8-5.5s15.8,6.7,16.2,9.9c0.4,3.2-0.8,7.5,1.6,6.3s4.8-11.9,4.8-11.9l13.9,12.3c0,0-8.3,6.7-12.7,10.7
	c-2.8,2.6,0.3,3.1,3.9,2.8L460.6,320l-39,26.8l-39,21.8l-1,11.7l-3.1,10.6l3.1,5.1l3.5,8.6l2,3.1l-8.6,38c-1.7-0.5-3.3-0.7-4.5-0.5
	c-5.4,0.9-22.6-4.5-22.6-4.5s-5.4,2.7-10,3.6c-4.5,0.9-5.4,0-10.9-0.9c-5.4-0.9,0.9,19,2.7,22.6c1.8,3.6-10.9,6.3-15.4,7.2
	c-4.5,0.9-9,16.3-10,23.6c-0.9,7.3-4.5-1.8-6.3-6.3s-10.9-1.8-15.4,1.8c-4.5,3.6-10.9,10.9-15.4,17.2c-4.5,6.3-6.3,19-6.3,19
	s-50.7-18.1-60.7-21.7s-69.7,0-84.2-2.7s-48.9-25.4-63.4-35.3C41.6,458.8,0,421.6,0,421.6s10-14.5,10.9-21.7
	c0.9-7.3-3.6-14.5-3.6-22.6s12.7-17.2,14.5-20.8c1.8-3.6-16.3-21.7-15.4-27.2c0.9-5.4,53.4-94.2,58-97.8c4.5-3.6,17.2-0.9,34.4-1.8
	c17.2-0.9,115.9,1.8,121.3,0s3.6-9.1,4.5-19c0.9-10,2.7-18.1,4.5-22.6s-20.8-5.4-26.3-9c-5.4-3.6-7.3-18.1-10.9-27.2
	c-3.6-9-11.8-14.5-21.7-15.4c-10-0.9-6.3-4.5-8.1-8.1c-1.8-3.6-3.6,4.5-8.1,2.7s-8.2-10.9-10.9-17.2c-2.7-6.3-18.1-12.7-18.1-17.2
	s-3.6-4.5-9-4.5s-14.5-10.9-14.5-10.9l53.4,0.9L158.4,13.3L158.4,13.3z"/>
<path class="st0" d="M648.4,241.6c-6.8,1-10.2,1.8-8.5,3.2s4.1,1,5.1,2.7s2.9,3.1,5.1,2.4c2.2-0.7,6.2-3.8,4.9-6.2
	C653.6,241.2,648.4,241.6,648.4,241.6L648.4,241.6z"/>
<path class="st0" d="M704.3,207.4c-3.5,0-14.8,6.8-16.5,8.1c-1.7,1.4-7.1,5.9-4.4,5.9c2.7,0,14.3-6.2,16.4-6.9
	c2.2-0.7,12.4-6.8,14.8-7.5c2.4-0.7,13.4-0.2,15.1-0.7c1.7-0.5,5.4-2.2,2-2.5s-17.5,0-20.9,0.7C707.3,205.2,704.3,207.4,704.3,207.4
	L704.3,207.4z"/>
<path class="st0" d="M740.3,200.8c-2.5,0.7-3.2,0.7-3.8,2.4c-0.7,1.7,0.6,2.7,2.7,1.4C741.3,203.2,740.3,200.8,740.3,200.8
	L740.3,200.8z"/>
<path class="st0" d="M770,192.9c-2.4,0.5-4.9,3.5-6.2,4.9c-1.4,1.4-6.5,7.1-4.1,6.8s5.9-4.1,7.2-4.1c1.4,0,2.7,0.3,4.4-2.7
	c1.7-3.1,3.7-3.8,1.4-4.5C770.4,192.6,770,192.9,770,192.9L770,192.9z"/>
<path class="st2" d="M449.9,245.6c-2.5,0.7-4.6,3.2-2.1,3.9s5.3,2.8,6.3,4.6c1.1,1.8,7.4,5.6,7.4,5.6s8.1,7,8.1,4.6
	S449.9,245.6,449.9,245.6L449.9,245.6z"/>
<path class="st3" d="M422.3,260.3c0,0-5.4,9.6-7.4,10.4s-6.7,4.8-7.1,6.7c-0.4,2-3.2,4.4-6.3,7.1c-3.2,2.8-8.7,8.7-11.5,9.9
	c-2.8,1.2-3.2,1.6-7.5,1.6c-4.4,0-7.5-1.2-9.5,0s-1.2,3.6-4.4,5.5c-3.2,2-2.8,1.2-7.1,1.2c-4.4,0-7.9,0-7.9,2.4s2,2.8,2,4.8
	s2.4,0.8,2.8,4s-2,7.1,0.8,7.9s6.3-4.8,9.5-5.1c3.2-0.4,13.9,2.4,17.4,0.4c3.6-2,9.5-8.7,11.9-10.3c2.4-1.6,4-4,3.6-6.3
	c-0.4-2.4-2.8-3.6-2.4-5.9c0.4-2.4,2.8-4,0.8-4.4s1.6-4.8,1.6-4.8l6.7-4.8c0,0,4,1.6,5.9-0.8c2-2.4,4.8-7.5,5.9-10.7
	c1.2-3.2,5.9-7.9,5.9-7.9L422.3,260.3L422.3,260.3z"/>
<path class="st4" d="M357.1,311.5c0,0-2,6.7-5.1,6.7c-3.2,0-5.1-2-8.7-0.4s-2-1.2-6.7-2c-4.8-0.8-6,0.8-11.1,0.8
	c-4.8,0-9.1-3.1-13.1-5.1c-4.1-2.1-6.9-4.8-13.7-5.3c-6.8-0.5-12.4-6-16.1-5.1s-4.4-1.9-13.9,1.5s-12.9,3.1-19.5,6.2"/>
<path class="st3" d="M125.2,409.3c-3.3,0.3-8,0.7-10,2s-1.8,2.9,0.7,4.6c2.4,1.8,2.7,4.7,3.1,7c0.3,2.3,3-3.6,5-4
	c2-0.3,5.4-1.3,6.1,1s0.7,7.9,3,5.6s5.3-8,3.3-10.4c-2-2.3-4.7-6-7.4-6.6C126.2,408,125.2,409.3,125.2,409.3L125.2,409.3z"/>
<path class="st4" d="M794.4,264.8c0,0,2.4,5.5-3.2,7.9c-5.5,2.4-15.8,3.2-21.4,8.7c-5.5,5.5-19.6,21.2-30.7,26.7
	c-11.1,5.5-18.4,8.1-31.1,8.9c-12.7,0.8-22.2,0-29.3,4.8s-10.3,12.7-16.6,17.4c-6.3,4.8-12.7,8.7-7.9,11.1s7.9,4,2.4,8.7
	s-10.3,4.8-2.4,10.3c7.9,5.5,18.2,12.7,18.2,12.7 M541.6,268.2c0,0-1.7,9.3,0.6,10.4c2.2,1.1,5.8-0.2,6.7,3.7
	c0.9,3.9-0.6,5.8-2.2,11.2c-1.7,5.4,5.6,8.4,2.2,13.8c-3.4,5.4-0.6,8.5-5.6,15.3c-5,6.7-7.6,9.3-10.4,13.8
	c-2.8,4.5-6.2,11.6-4.5,13.8c1.7,2.2,13.8,0.6,15.5,3.9c1.7,3.4,2,0.3,6.5,6.5s1.1,10.4,3.4,13.8c2.2,3.4,7.8,3,5,7.3
	s-7.8,9.5-4.5,14.4c3.4,4.8,9.3,5,9.3,11s4.3,13.6-0.6,16.9s-10.4-0.3-6.5,8.4c3.9,8.8,4.5,19.7,4.5,19.7 M584.1,380.1
	c-2.8-1.7-3-11.6-8.4-11s-3.7,2.6-8.2,4.3c-4.5,1.7-14.4-2.2-14.4-2.2 M603.8,276.4c0,0-2.2,0.8-1.1,5c1.1,4.3,7.6,8.4,0.6,12.7
	c-7.1,4.3-3.4,3.4-12.1,9.9c-8.8,6.5-6.9,7.6-16.9,6.5c-10.1-1.1-17.9,4.2-21.1,6.1c-3.2,2-11.2,7.6-11.2,7.6"/>
<path class="st3" d="M303.2,109c-5.8-0.3-3.1,0-7.9,3.1s-18.8,14.4-11,13c7.9-1.4,10.9-5.8,15.1-6.9c4.1-1,13,3.8,15.1,1
	c2.1-2.7,7.5-4.1,1-6.5C309,110.4,303.2,109,303.2,109L303.2,109z"/>
<path class="st4" d="M953.4,277.9c0,0-5.3,7.8-8.2,13.1c-2.9,5.3-4.5,10.4-2.9,14.5c1.7,4.1,2.4,7.3-4.3,12.1
	c-6.7,4.7-10.2,6.6-13.3,10.2c-3.1,3.7-4.5,4.1-7.3,9.6c-2.9,5.5-1.7,19.2-5.9,21.1c-4.3,1.8-18.6,6.3-24.1,11s-4.7,7.8-9,9.6
	c-4.3,1.8-9-1.1-12.7,3.1c-3.7,4.1-26.6,32.7-29,36.8c-2.4,4.1,0,6.1-3.7,14.5s-9.2,13.7-16.3,18c-7.2,4.3-18.2,11.9-24.7,9.6
	c-6.6-2.3-18-7.8-21.1-9.6c-3.1-1.8-12.5-13.3-18.6-9.6s1.1,4.9-6.1,11.5c-7.2,6.6-12.7,9.8-13.3,15.1c-0.6,5.3,3.1,8.4,2.4,10.8
	c-0.6,2.4-3.1-6.8-5.5-1.8c-6.1,12.8-4.3,14.5-12.7,14.5s-7.2-2.4-18-3.1c-10.8-0.6-12.1,1.8-12.1,1.8"/>
<path class="st5" d="M860.3,1c-384.9,45.6-652,415.4-652,415.4"/>
<path class="st6" d="M207.6,416.9l-26,11l4-24.3 M130.3,404.4l50.8,21.4 M208.3,417.5L232.4,309l37.4-12.1 M327.4,80.5l-42.2,45.4
	L232.4,309 M285.3,125.9l117.5,158.5L390,395.1l129.7-78.5l75.2-35.4l70.7,3.8L650,248.1"/>
<path class="st7" d="M515.1,316.6c0-2.5,2-4.5,4.5-4.5s4.5,2,4.5,4.5s-2,4.5-4.5,4.5C517.2,321.1,515.1,319.1,515.1,316.6
	L515.1,316.6z"/>
<path class="st7" d="M385.4,395.1c0-2.5,2-4.5,4.5-4.5s4.5,2,4.5,4.5s-2,4.5-4.5,4.5S385.4,397.6,385.4,395.1L385.4,395.1z"/>
<path class="st7" d="M420.1,262.9c0-2.5,2-4.5,4.5-4.5s4.5,2,4.5,4.5s-2,4.5-4.5,4.5S420.1,265.3,420.1,262.9L420.1,262.9z"/>
<path class="st7" d="M398.6,284.4c0-2.5,2-4.5,4.5-4.5s4.5,2,4.5,4.5s-2,4.5-4.5,4.5S398.6,286.9,398.6,284.4L398.6,284.4z"/>
<path class="st7" d="M228.2,308.8c0-2.3,1.9-4.3,4.3-4.3c2.3,0,4.3,1.9,4.3,4.3c0,2.3-1.9,4.3-4.3,4.3
	C230.1,313,228.2,311.1,228.2,308.8L228.2,308.8z"/>
<path class="st7" d="M265.5,296.8c0-2.3,1.9-4.3,4.3-4.3c2.3,0,4.3,1.9,4.3,4.3c0,2.3-1.9,4.3-4.3,4.3
	C267.4,301.1,265.5,299.2,265.5,296.8L265.5,296.8z"/>
<path class="st7" d="M203.7,416.6c0-2.3,1.9-4.3,4.3-4.3c2.3,0,4.3,1.9,4.3,4.3c0,2.3-1.9,4.3-4.3,4.3
	C205.6,420.8,203.7,418.9,203.7,416.6L203.7,416.6z"/>
<path class="st7" d="M178.4,427.3c0-2.3,1.9-4.3,4.3-4.3c2.3,0,4.3,1.9,4.3,4.3c0,2.3-1.9,4.3-4.3,4.3
	C180.3,431.5,178.4,429.6,178.4,427.3L178.4,427.3z"/>
<path class="st7" d="M127,403.7c0-2.3,1.9-4.3,4.3-4.3c2.3,0,4.3,1.9,4.3,4.3c0,2.3-1.9,4.3-4.3,4.3C128.9,407.9,127,406,127,403.7
	L127,403.7z"/>
<path class="st7" d="M181.7,403.9c0-2.3,1.9-4.3,4.3-4.3c2.3,0,4.3,1.9,4.3,4.3c0,2.3-1.9,4.3-4.3,4.3
	C183.6,408.1,181.7,406.2,181.7,403.9L181.7,403.9z"/>
<path class="st7" d="M323.2,80.6c0-2.3,1.9-4.3,4.3-4.3c2.3,0,4.3,1.9,4.3,4.3c0,2.3-1.9,4.3-4.3,4.3
	C325.1,84.8,323.2,82.9,323.2,80.6L323.2,80.6z"/>
<path class="st7" d="M281.2,125.9c0-2.3,1.9-4.3,4.3-4.3c2.3,0,4.3,1.9,4.3,4.3c0,2.3-1.9,4.3-4.3,4.3S281.2,128.3,281.2,125.9
	L281.2,125.9z"/>
<path class="st7" d="M590.7,281.5c0-2.5,2-4.5,4.5-4.5s4.5,2,4.5,4.5s-2,4.5-4.5,4.5C592.8,286,590.7,284,590.7,281.5L590.7,281.5z"
	/>
<path class="st7" d="M662.4,285.9c0-2.5,2-4.5,4.5-4.5s4.5,2,4.5,4.5s-2,4.5-4.5,4.5S662.4,288.3,662.4,285.9L662.4,285.9z"/>
<path class="st7" d="M645.5,248.1c0-2.5,2-4.5,4.5-4.5s4.5,2,4.5,4.5s-2,4.5-4.5,4.5S645.5,250.6,645.5,248.1L645.5,248.1z"/>
<path class="st7" d="M607,485.7c0-2.5,2-4.5,4.5-4.5s4.5,2,4.5,4.5s-2,4.5-4.5,4.5S607,488.2,607,485.7L607,485.7z"/>
<g>
	<path class="st8" d="M860.3,154.3h2.5v4.7l4.5-4.7h3.1l-4.5,4.5l4.9,6.9h-3.2l-3.4-5.1l-1.4,1.5v3.7h-2.5L860.3,154.3L860.3,154.3z
		"/>
	<path class="st8" d="M878.2,154.3h2.6l4.3,11.4h-2.6l-0.9-2.5h-4.3l-0.9,2.5h-2.5L878.2,154.3z M878,161.3h3l-1.4-4.2l0,0
		L878,161.3z"/>
	<path class="st8" d="M889.2,154.3h6.2c2,0,3.3,1.4,3.3,3.2c0,1.3-0.5,2.4-1.8,2.9l0,0c1.2,0.3,1.6,1.5,1.7,2.7c0,0.7,0,2.1,0.5,2.7
		h-2.5c-0.3-0.7-0.3-1.8-0.4-2.7c-0.2-1.2-0.6-1.7-1.9-1.7h-2.5v4.5h-2.5L889.2,154.3L889.2,154.3z M891.7,159.5h2.8
		c1.1,0,1.7-0.5,1.7-1.6s-0.6-1.6-1.7-1.6h-2.8V159.5z"/>
	<path class="st8" d="M904,154.3h2.5v11.4H904V154.3z"/>
	<path class="st8" d="M911.9,154.3h5.4c2.2,0,3.6,0.7,3.6,2.8c0,1.1-0.6,1.9-1.6,2.4c1.4,0.4,2.1,1.5,2.1,2.9c0,2.3-2,3.3-4,3.3
		h-5.5V154.3z M914.4,158.9h2.5c0.9,0,1.5-0.4,1.5-1.4c0-1.1-0.8-1.3-1.7-1.3h-2.4v2.7H914.4z M914.4,163.8h2.7c1,0,1.9-0.3,1.9-1.5
		s-0.7-1.6-1.8-1.6h-2.7v3.1H914.4z"/>
	<path class="st8" d="M926.4,154.3h2.5v11.4h-2.5V154.3z"/>
	<path class="st8" d="M934.3,154.3h2.5v4.7l4.5-4.7h3.1l-4.5,4.5l4.9,6.9h-3.2l-3.4-5.1l-1.4,1.5v3.7h-2.5L934.3,154.3L934.3,154.3z
		"/>
</g>
<g>
	<path class="st8" d="M463.7,207c-0.9,1.1-2,1.6-3.1,1.6c-3.5,0-5.6-2.6-5.6-5.9c0-3.4,2.1-6,5.6-6c2.3,0,4.5,1.4,4.8,4H463
		c-0.3-1.3-1.2-1.9-2.4-1.9c-2.3,0-3.1,1.9-3.1,3.9c0,1.9,0.8,3.8,3.1,3.8c1.6,0,2.6-0.9,2.7-2.5h-2.5v-1.9h4.8v6.2H464L463.7,207z"
		/>
	<path class="st8" d="M475.9,196.6c3.5,0,5.6,2.6,5.6,6c0,3.3-2.1,5.9-5.6,5.9s-5.6-2.6-5.6-5.9
		C470.3,199.3,472.4,196.6,475.9,196.6z M475.9,206.5c2.3,0,3.1-1.9,3.1-3.8c0-2-0.8-3.9-3.1-3.9s-3.1,1.9-3.1,3.9
		C472.8,204.6,473.6,206.5,475.9,206.5z"/>
	<path class="st8" d="M486.4,196.9h2.5v9.3h5.6v2.1h-8.1V196.9z"/>
	<path class="st8" d="M499.1,196.9h8v2.1h-5.5v2.6h4.8v2h-4.8v4.7h-2.5V196.9z"/>
	<path class="st8" d="M524.8,208.3H522l-3.7-11.4h2.6l2.5,8l0,0l2.6-8h2.6L524.8,208.3z"/>
	<path class="st8" d="M537.8,196.6c3.5,0,5.6,2.6,5.6,6c0,3.3-2.1,5.9-5.6,5.9s-5.6-2.6-5.6-5.9
		C532.2,199.3,534.3,196.6,537.8,196.6z M537.8,206.5c2.3,0,3.1-1.9,3.1-3.8c0-2-0.8-3.9-3.1-3.9s-3.1,1.9-3.1,3.9
		C534.7,204.6,535.6,206.5,537.8,206.5z"/>
	<path class="st8" d="M548.4,196.9h2.5l4.8,7.7l0,0v-7.7h2.4v11.4h-2.5l-4.8-7.7l0,0v7.7h-2.4V196.9z"/>
	<path class="st8" d="M454.1,216.1h2.5v4.4h4.6v-4.4h2.5v11.4h-2.5v-4.9h-4.6v4.9h-2.5V216.1z"/>
	<path class="st8" d="M474.2,215.8c3.5,0,5.6,2.6,5.6,6c0,3.3-2.1,5.9-5.6,5.9s-5.6-2.6-5.6-5.9
		C468.6,218.5,470.7,215.8,474.2,215.8z M474.2,225.7c2.3,0,3.1-1.9,3.1-3.8c0-2-0.8-3.9-3.1-3.9s-3.1,1.9-3.1,3.9
		C471.1,223.8,472,225.7,474.2,225.7z"/>
	<path class="st8" d="M484.8,216.1h2.5l4.8,7.7l0,0v-7.7h2.4v11.4H492l-4.8-7.7l0,0v7.7h-2.4L484.8,216.1L484.8,216.1z"/>
	<path class="st8" d="M499.8,216.1h4.9c3,0,5.2,1.9,5.2,5.7c0,3.3-1.7,5.8-5.2,5.8h-4.9V216.1z M502.3,225.4h2.2
		c1.5,0,2.8-0.9,2.8-3.4c0-2.3-0.8-3.8-3.3-3.8h-1.8L502.3,225.4L502.3,225.4z"/>
	<path class="st8" d="M524.6,223.2c0,3.1-1.8,4.6-4.9,4.6c-3.1,0-4.9-1.5-4.9-4.6v-7.1h2.5v7.1c0,1.2,0.3,2.5,2.4,2.5
		c1.8,0,2.4-0.8,2.4-2.5v-7.1h2.5V223.2z"/>
	<path class="st8" d="M529.9,216.1h6.2c2,0,3.3,1.4,3.3,3.2c0,1.3-0.5,2.4-1.8,2.9l0,0c1.2,0.3,1.6,1.5,1.7,2.7c0,0.7,0,2.1,0.5,2.7
		h-2.5c-0.3-0.7-0.3-1.8-0.4-2.7c-0.2-1.2-0.6-1.7-1.9-1.7h-2.5v4.5H530L529.9,216.1L529.9,216.1z M532.5,221.3h2.8
		c1.1,0,1.7-0.5,1.7-1.6s-0.6-1.6-1.7-1.6h-2.8V221.3z"/>
	<path class="st8" d="M547.8,216.1h2.6l4.3,11.4h-2.6l-0.9-2.5h-4.3l-0.9,2.5h-2.5L547.8,216.1z M547.6,223.1h3l-1.4-4.2l0,0
		L547.6,223.1z"/>
	<path class="st8" d="M560.6,223.7c0,1.5,1.2,2.1,2.5,2.1c0.9,0,2.2-0.3,2.2-1.4c0-1.2-1.7-1.4-3.4-1.9c-1.7-0.4-3.4-1.1-3.4-3.2
		c0-2.3,2.2-3.5,4.3-3.5c2.4,0,4.6,1,4.6,3.7H565c-0.1-1.4-1.1-1.7-2.3-1.7c-0.8,0-1.7,0.3-1.7,1.3c0,0.9,0.5,1,3.4,1.7
		c0.8,0.2,3.4,0.7,3.4,3.3c0,2.1-1.6,3.7-4.8,3.7c-2.5,0-4.9-1.2-4.9-4.1L560.6,223.7L560.6,223.7z"/>
</g>
<g>
	<path class="st8" d="M157.9,600.1h5.2c2.8,0,4,1.8,4,3.7s-1.1,3.7-4,3.7h-2.6v4.1H158L157.9,600.1L157.9,600.1z M160.4,605.5h2
		c1.2,0,2.2-0.3,2.2-1.7c0-1.5-1-1.7-2.2-1.7h-2V605.5z"/>
	<path class="st8" d="M174.9,600.1h2.6l4.3,11.4h-2.6l-0.9-2.5H174l-0.9,2.5h-2.5L174.9,600.1z M174.6,607.1h3l-1.4-4.2l0,0
		L174.6,607.1z"/>
	<path class="st8" d="M185.2,609.6l6.1-7.3h-5.7v-2.1h9v2l-6.1,7.3h6.3v2.1h-9.6V609.6z"/>
	<path class="st8" d="M199.5,600.1h2.5v11.4h-2.5V600.1z"/>
	<path class="st8" d="M207.4,600.1h8v2.1h-5.5v2.6h4.8v2h-4.8v4.7h-2.5V600.1z"/>
	<path class="st8" d="M220.1,600.1h2.5v11.4h-2.5V600.1z"/>
	<path class="st8" d="M228,600.1h2.5v4.7l4.5-4.7h3.1l-4.5,4.5l4.9,6.9h-3.2l-3.4-5.1l-1.4,1.5v3.7H228V600.1z"/>
</g>
<g>
	<path class="st8" d="M311.4,132.3v-8.6h1.7v7.1h3.1v1.4h-4.8L311.4,132.3L311.4,132.3z"/>
	<path class="st8" d="M317.4,127.8v-0.2c0-1.5,1-2,2.3-2c2,0,2.3,0.8,2.3,2v3.4c0,0.6,0,0.9,0.2,1.2h-1.6c-0.1-0.2-0.2-0.5-0.2-0.7
		l0,0c-0.4,0.7-0.9,0.8-1.6,0.8c-1.2,0-1.6-1-1.6-1.8c0-1.2,0.5-1.7,1.6-2l0.9-0.3c0.5-0.1,0.7-0.3,0.7-0.8s-0.2-0.8-0.8-0.8
		c-0.5,0-0.8,0.3-0.8,0.8v0.2h-1.4V127.8z M320.4,129.1c-0.2,0.2-0.5,0.3-0.7,0.3c-0.7,0.1-0.9,0.5-0.9,1s0.2,0.9,0.6,0.9s1-0.3,1-1
		V129.1z"/>
	<path class="st8" d="M328.5,125.8v6.1c0,1.7-0.8,2.5-2.7,2.5c-1.4,0-2.2-0.6-2.2-1.7h1.6c0,0.2,0.1,0.4,0.3,0.5
		c0.2,0.1,0.3,0.2,0.6,0.2c0.7,0,0.9-0.5,0.9-1.2v-0.9l0,0c-0.3,0.5-0.9,0.8-1.4,0.8c-1.3,0-2-0.9-2-3.3c0-1.5,0.2-3.3,2-3.3
		c0.5,0,1,0.2,1.3,0.9l0,0v-0.7L328.5,125.8L328.5,125.8z M326,130.9c0.7,0,0.9-0.8,0.9-1.8c0-1.6-0.2-2.2-0.9-2.2
		c-0.7,0-0.9,0.6-0.9,2.3C325.2,130.2,325.3,130.9,326,130.9z"/>
	<path class="st8" d="M332.5,125.7c2,0,2.5,1.2,2.5,3.4s-0.6,3.4-2.5,3.4c-2,0-2.5-1.2-2.5-3.4C329.9,126.9,330.6,125.7,332.5,125.7
		z M332.5,131.3c0.7,0,0.9-0.7,0.9-2.3c0-1.6-0.2-2.3-0.9-2.3c-0.8,0-0.9,0.9-0.9,2.3C331.6,130.4,331.6,131.3,332.5,131.3z"/>
	<path class="st8" d="M343,131.6L343,131.6c-0.4,0.6-0.8,0.9-1.5,0.9c-1.4,0-2-1-2-3.4c0-2.4,0.6-3.4,2-3.4c0.6,0,1,0.3,1.4,0.8l0,0
		v-2.7h1.7v8.6H343V131.6z M342.1,131.2c0.7,0,0.9-0.7,0.9-2.1c0-1.4-0.1-2.1-0.9-2.1c-0.7,0-0.9,0.7-0.9,2.1
		C341.2,130.5,341.4,131.2,342.1,131.2z"/>
	<path class="st8" d="M347.6,129.3v0.5c0,0.8,0.2,1.5,0.8,1.5c0.6,0,0.8-0.4,0.9-1.2h1.5c-0.1,1.5-0.8,2.3-2.3,2.3
		c-2.4,0-2.5-1.8-2.5-3.5s0.3-3.3,2.6-3.3c1.9,0,2.4,1.3,2.4,3.3v0.4H347.6z M349.3,128.3c0-1-0.2-1.5-0.8-1.5
		c-0.7,0-0.9,0.7-0.9,1.3v0.3h1.7L349.3,128.3L349.3,128.3z"/>
	<path class="st8" d="M307.5,135.7h3c1.8,0,2.4,1.3,2.4,2.6c0,1.8-1.1,2.6-2.7,2.6h-0.9v3.4h-1.7L307.5,135.7L307.5,135.7z
		 M309.2,139.6h0.8c0.7,0,1.2-0.4,1.2-1.3c0-0.8-0.3-1.3-1.2-1.3h-0.7L309.2,139.6L309.2,139.6z"/>
	<path class="st8" d="M315.5,141.3v0.5c0,0.8,0.2,1.5,0.8,1.5c0.6,0,0.8-0.4,0.9-1.2h1.5c-0.1,1.5-0.8,2.3-2.3,2.3
		c-2.4,0-2.5-1.8-2.5-3.5s0.3-3.3,2.6-3.3c1.9,0,2.4,1.3,2.4,3.3v0.4H315.5z M317.2,140.3c0-1-0.2-1.5-0.8-1.5
		c-0.7,0-0.9,0.7-0.9,1.3v0.3h1.7L317.2,140.3L317.2,140.3z"/>
	<path class="st8" d="M320.5,136h1.7v1.8h1v1.1h-1v3.5c0,0.5,0.1,0.7,0.6,0.7c0.1,0,0.3,0,0.4,0v1.2c-0.4,0-0.7,0.1-1.1,0.1
		c-1.3,0-1.5-0.4-1.5-1.7V139h-0.8v-1.1h0.8V136H320.5z"/>
	<path class="st8" d="M325.6,141.3v0.5c0,0.8,0.2,1.5,0.8,1.5c0.6,0,0.8-0.4,0.9-1.2h1.5c-0.1,1.5-0.8,2.3-2.3,2.3
		c-2.4,0-2.5-1.8-2.5-3.5s0.3-3.3,2.6-3.3c1.9,0,2.4,1.3,2.4,3.3v0.4H325.6z M326.1,137.1l-1.2-1.7h1.7l0.6,1.7H326.1z M327.3,140.3
		c0-1-0.2-1.5-0.8-1.5c-0.7,0-0.9,0.7-0.9,1.3v0.3h1.7L327.3,140.3L327.3,140.3z"/>
	<path class="st8" d="M330.2,137.8h1.6v0.8l0,0c0.3-0.6,0.9-0.9,1.6-0.9c1,0,1.6,0.6,1.6,1.8v4.8h-1.7v-4.4c0-0.6-0.2-0.9-0.7-0.9
		c-0.6,0-0.9,0.3-0.9,1.1v4.3H330v-6.6L330.2,137.8L330.2,137.8z"/>
	<path class="st8" d="M340.2,144.3v-8.6h1.7v8.6H340.2z"/>
	<path class="st8" d="M344,136h1.7v1.8h1v1.1h-1v3.5c0,0.5,0.1,0.7,0.6,0.7c0.1,0,0.3,0,0.4,0v1.2c-0.4,0-0.7,0.1-1.1,0.1
		c-1.3,0-1.5-0.4-1.5-1.7V139h-0.8v-1.1h0.8V136H344z"/>
	<path class="st8" d="M347.4,143l2.6-3.8h-2.5v-1.3h4.4v1.3l-2.6,3.8h2.6v1.3h-4.5V143z"/>
	<path class="st8" d="M353.3,139.8v-0.2c0-1.5,1-2,2.3-2c2,0,2.3,0.8,2.3,2v3.4c0,0.6,0,0.9,0.2,1.2h-1.6c-0.1-0.2-0.2-0.5-0.2-0.7
		l0,0c-0.4,0.7-0.9,0.8-1.6,0.8c-1.2,0-1.6-1-1.6-1.8c0-1.2,0.5-1.7,1.6-2l0.9-0.3c0.5-0.1,0.7-0.3,0.7-0.8s-0.2-0.8-0.8-0.8
		c-0.5,0-0.8,0.3-0.8,0.8v0.2h-1.4V139.8z M356.3,141.1c-0.2,0.2-0.5,0.3-0.7,0.3c-0.7,0.1-0.9,0.5-0.9,1s0.2,0.9,0.6,0.9s1-0.3,1-1
		V141.1z M355.5,135.4h1.7l-1.2,1.7h-1.1L355.5,135.4z"/>
</g>
<g>
	<path class="st8" d="M346,338.6V330h1.7v7.1h3.1v1.4H346V338.6z"/>
	<path class="st8" d="M351.9,334.1V334c0-1.5,1-2,2.3-2c2,0,2.3,0.8,2.3,2v3.4c0,0.6,0,0.9,0.2,1.2h-1.6c-0.1-0.2-0.2-0.5-0.2-0.7
		l0,0c-0.4,0.7-0.9,0.8-1.6,0.8c-1.2,0-1.6-1-1.6-1.8c0-1.2,0.5-1.7,1.6-2l0.9-0.3c0.5-0.1,0.7-0.3,0.7-0.8s-0.2-0.8-0.8-0.8
		c-0.5,0-0.8,0.3-0.8,0.8v0.2L351.9,334.1L351.9,334.1z M355,335.4c-0.2,0.2-0.5,0.3-0.7,0.3c-0.7,0.1-0.9,0.5-0.9,1
		s0.2,0.9,0.6,0.9s1-0.3,1-1V335.4z"/>
	<path class="st8" d="M363,332.1v6.1c0,1.7-0.8,2.5-2.7,2.5c-1.4,0-2.2-0.6-2.2-1.7h1.6c0,0.2,0.1,0.4,0.3,0.5
		c0.2,0.1,0.3,0.2,0.6,0.2c0.7,0,0.9-0.5,0.9-1.2v-0.9l0,0c-0.3,0.5-0.9,0.8-1.4,0.8c-1.3,0-2-0.9-2-3.3c0-1.5,0.2-3.3,2-3.3
		c0.5,0,1,0.2,1.3,0.9l0,0V332h1.6L363,332.1L363,332.1z M360.5,337.2c0.7,0,0.9-0.8,0.9-1.8c0-1.6-0.2-2.2-0.9-2.2
		c-0.7,0-0.9,0.6-0.9,2.3C359.7,336.5,359.8,337.2,360.5,337.2z"/>
	<path class="st8" d="M367,332c2,0,2.5,1.2,2.5,3.4c0,2.2-0.6,3.4-2.5,3.4c-2,0-2.5-1.2-2.5-3.4S365.1,332,367,332z M367,337.6
		c0.7,0,0.9-0.7,0.9-2.3s-0.2-2.3-0.9-2.3c-0.8,0-0.9,0.9-0.9,2.3S366.2,337.6,367,337.6z"/>
	<path class="st8" d="M377.6,337.9L377.6,337.9c-0.4,0.6-0.8,0.9-1.5,0.9c-1.4,0-2-1-2-3.4s0.6-3.4,2-3.4c0.6,0,1,0.3,1.4,0.8l0,0
		V330h1.7v8.6h-1.6V337.9z M376.6,337.5c0.7,0,0.9-0.7,0.9-2.1s-0.1-2.1-0.9-2.1c-0.7,0-0.9,0.7-0.9,2.1S375.9,337.5,376.6,337.5z"
		/>
	<path class="st8" d="M382.2,335.6v0.5c0,0.8,0.2,1.5,0.8,1.5c0.6,0,0.8-0.4,0.9-1.2h1.5c-0.1,1.5-0.8,2.3-2.3,2.3
		c-2.4,0-2.5-1.8-2.5-3.5s0.3-3.3,2.6-3.3c1.9,0,2.4,1.3,2.4,3.3v0.4L382.2,335.6L382.2,335.6z M383.9,334.6c0-1-0.2-1.5-0.8-1.5
		c-0.7,0-0.9,0.7-0.9,1.3v0.3L383.9,334.6L383.9,334.6z"/>
	<path class="st8" d="M352.4,350.6V342h1.7v8.6H352.4z"/>
	<path class="st8" d="M355.6,349.3l2.6-3.8h-2.5v-1.3h4.4v1.3l-2.6,3.8h2.6v1.3h-4.5V349.3z"/>
	<path class="st8" d="M361.4,346.1V346c0-1.5,1-2,2.3-2c2,0,2.3,0.8,2.3,2v3.4c0,0.6,0,0.9,0.2,1.2h-1.6c-0.1-0.2-0.2-0.5-0.2-0.7
		l0,0c-0.4,0.7-0.9,0.8-1.6,0.8c-1.2,0-1.6-1-1.6-1.8c0-1.2,0.5-1.7,1.6-2l0.9-0.3c0.5-0.1,0.7-0.3,0.7-0.8s-0.2-0.8-0.8-0.8
		c-0.5,0-0.8,0.3-0.8,0.8v0.2L361.4,346.1L361.4,346.1z M364.4,347.4c-0.2,0.2-0.5,0.3-0.7,0.3c-0.7,0.1-0.9,0.5-0.9,1
		s0.2,0.9,0.6,0.9s1-0.3,1-1V347.4z"/>
	<path class="st8" d="M367.7,342h1.7v2.7l0,0c0.3-0.5,0.8-0.8,1.4-0.8c1.4,0,2,1,2,3.4s-0.6,3.4-2,3.4c-0.6,0-1.1-0.3-1.5-0.9l0,0
		v0.7h-1.6V342z M370.2,349.5c0.7,0,0.9-0.7,0.9-2.1s-0.1-2.1-0.9-2.1c-0.7,0-0.9,0.7-0.9,2.1S369.5,349.5,370.2,349.5z"/>
	<path class="st8" d="M374.2,346.1V346c0-1.5,1-2,2.3-2c2,0,2.3,0.8,2.3,2v3.4c0,0.6,0,0.9,0.2,1.2h-1.6c-0.1-0.2-0.2-0.5-0.2-0.7
		l0,0c-0.4,0.7-0.9,0.8-1.6,0.8c-1.2,0-1.6-1-1.6-1.8c0-1.2,0.5-1.7,1.6-2l0.9-0.3c0.5-0.1,0.7-0.3,0.7-0.8s-0.2-0.8-0.8-0.8
		c-0.5,0-0.8,0.3-0.8,0.8v0.2L374.2,346.1L374.2,346.1z M377.2,347.4c-0.2,0.2-0.5,0.3-0.7,0.3c-0.7,0.1-0.9,0.5-0.9,1
		s0.2,0.9,0.6,0.9s1-0.3,1-1V347.4z"/>
	<path class="st8" d="M380.5,342h1.7v8.6h-1.7V342z"/>
</g>
<g>
	<path class="st9" d="M256.8,266.7v0.3c0,1.1,0.3,1.8,1.5,1.8c0.7,0,1.4-0.4,1.4-1.4s-0.5-1.4-2-2c-2-0.7-3-1.6-3-3.5
		c0-2.2,1.4-3.4,3.5-3.4c2,0,3.5,0.9,3.5,3.1v0.3h-2.2c0-1.1-0.4-1.7-1.2-1.7c-1,0-1.3,0.7-1.3,1.3c0,0.7,0.2,1.1,1.2,1.6l1.8,0.8
		c1.7,0.8,2.2,1.6,2.2,3c0,2.4-1.5,3.5-4,3.5c-2.6,0-3.6-1.2-3.6-3.3v-0.5h2.2V266.7z"/>
	<path class="st9" d="M265.7,266.3v0.7c0,1,0.3,2,1.1,2c0.7,0,1-0.6,1.2-1.6h2c-0.1,2-1,3.1-3.1,3.1c-3.2,0-3.3-2.5-3.3-4.6
		c0-2.3,0.4-4.4,3.4-4.4c2.6,0,3.2,1.7,3.2,4.4v0.5h-4.5L265.7,266.3L265.7,266.3z M268,265c0-1.3-0.2-2-1.1-2s-1.1,0.9-1.1,1.7v0.3
		H268z"/>
	<path class="st9" d="M271.9,261.7h2.1v0.9l0,0c0.6-0.8,1.2-1.1,2.2-1.1s1.7,0.5,2,1.4l0,0c0.3-0.9,1.1-1.4,2.2-1.4
		c1.5,0,2.1,0.9,2.1,2.6v6.3h-2.2v-6c0-0.7-0.2-1.1-0.9-1.1c-0.7,0-1.2,0.5-1.2,1.5v5.7H276v-6c0-0.7-0.2-1.1-0.9-1.1
		c-0.7,0-1.2,0.5-1.2,1.5v5.7h-2.2v-8.9H271.9z"/>
	<path class="st9" d="M289.1,269.3L289.1,269.3c-0.5,0.8-1.3,1.2-2.2,1.2c-1.4,0-2.2-0.8-2.2-2.4v-6.4h2.2v5.9
		c0,0.9,0.3,1.2,0.9,1.2c0.8,0,1.2-0.5,1.2-1.4v-5.7h2.2v8.6h-2.1V269.3z"/>
	<path class="st9" d="M297.5,264.8c0-0.8-0.2-1.7-1-1.7c-1.1,0-1.3,1-1.3,2.9c0,2.1,0.2,3,1.2,3c0.7,0,1.1-0.6,1.1-2h2.1
		c0,2.3-0.9,3.5-3.3,3.5c-2.2,0-3.3-1.1-3.3-4.5c0-3.5,1.5-4.5,3.5-4.5s3.1,1.3,3.1,3.3L297.5,264.8L297.5,264.8z"/>
	<path class="st9" d="M259.9,278.7c0-1.7-0.3-2.4-1.4-2.4c-1.2,0-1.4,1.2-1.4,4.4c0,3.5,0.5,4.1,1.5,4.1c0.8,0,1.4-0.4,1.4-2.9h2.3
		c0,2.5-0.6,4.6-3.6,4.6c-3.5,0-3.9-2.5-3.9-5.9c0-3.5,0.4-5.9,3.9-5.9c3.3,0,3.5,2.4,3.5,4.1h-2.3V278.7z"/>
	<path class="st9" d="M264.1,274.9h2.2v3.7l0,0c0.4-0.7,1.2-1.1,2.1-1.1c1.4,0,2.2,0.8,2.2,2.4v6.4h-2.2v-5.9c0-0.9-0.3-1.2-0.9-1.2
		c-0.8,0-1.2,0.5-1.2,1.4v5.7h-2.2V274.9z"/>
	<path class="st9" d="M272.8,280.3v-0.2c0-2,1.4-2.7,3-2.7c2.6,0,3.1,1.1,3.1,2.6v4.5c0,0.8,0,1.2,0.3,1.7h-2.1
		c-0.1-0.3-0.2-0.6-0.3-0.9l0,0c-0.5,0.9-1.1,1.1-2.2,1.1c-1.5,0-2.1-1.3-2.1-2.5c0-1.6,0.7-2.3,2.2-2.7l1.2-0.3
		c0.7-0.2,0.9-0.4,0.9-1c0-0.7-0.3-1.1-1-1.1s-1,0.4-1,1.1v0.2h-2V280.3z M276.8,282c-0.3,0.2-0.7,0.4-0.9,0.4
		c-0.9,0.2-1.2,0.6-1.2,1.4c0,0.7,0.2,1.2,0.8,1.2s1.4-0.4,1.4-1.3L276.8,282L276.8,282z"/>
	<path class="st9" d="M281.1,277.7h2.1v0.9l0,0c0.6-0.8,1.2-1.1,2.2-1.1s1.7,0.5,2,1.4l0,0c0.3-0.9,1.1-1.4,2.2-1.4
		c1.5,0,2.1,0.9,2.1,2.6v6.3h-2.2v-6c0-0.7-0.2-1.1-0.9-1.1c-0.7,0-1.2,0.5-1.2,1.5v5.7h-2.2v-6c0-0.7-0.2-1.1-0.9-1.1
		c-0.7,0-1.2,0.5-1.2,1.5v5.7h-2.2v-8.9H281.1z"/>
	<path class="st9" d="M293.9,277.7h2.1v0.9l0,0c0.5-0.8,1.1-1.1,2-1.1c1.8,0,2.6,1.3,2.6,4.5s-0.8,4.5-2.6,4.5c-0.8,0-1.4-0.3-1.9-1
		l0,0v3.6h-2.2V277.7z M297.3,284.8c1,0,1.2-1,1.2-2.8c0-1.9-0.2-2.8-1.2-2.8s-1.2,1-1.2,2.8C296.1,283.9,296.3,284.8,297.3,284.8z"
		/>
	<path class="st9" d="M304.4,282.3v0.7c0,1,0.3,2,1.1,2c0.7,0,1-0.6,1.2-1.6h2c-0.1,2-1,3.1-3.1,3.1c-3.2,0-3.3-2.5-3.3-4.6
		c0-2.3,0.4-4.4,3.4-4.4c2.6,0,3.2,1.7,3.2,4.4v0.5h-4.5L304.4,282.3L304.4,282.3z M306.7,281c0-1.3-0.2-2-1.1-2s-1.1,0.9-1.1,1.7
		v0.3H306.7z"/>
	<path class="st9" d="M310.6,287.5c0.2,0,0.4,0,0.6,0c0.8,0,1.1-0.4,1.2-1.2l-2.4-8.6h2.3l1.3,6l0,0l1.1-6h2.2l-2.1,8
		c-0.8,3-1.3,3.4-3.3,3.4h-0.9L310.6,287.5L310.6,287.5z"/>
</g>
<g>
	<path class="st9" d="M357.9,260.5h4.3c1.9,0,3,1,3,2.9c0,1.5-0.6,2.5-1.9,2.8l0,0c1.6,0.2,1.8,1.1,1.8,3.5c0,1.2,0.1,1.8,0.5,2v0.1
		h-2.5c-0.2-0.3-0.3-0.8-0.3-1.2l-0.1-2.2c0-0.9-0.4-1.4-1.4-1.4h-1.2v4.8h-2.3v-11.3L357.9,260.5L357.9,260.5z M360.2,265.5h1
		c1.1,0,1.7-0.5,1.7-1.7c0-1.1-0.6-1.6-1.6-1.6h-1.1V265.5z"/>
	<path class="st9" d="M367.4,260.3h2.2v1.9h-2.2V260.3z M367.4,263.3h2.2v8.6h-2.2V263.3z"/>
	<path class="st9" d="M374.9,263.1c2.7,0,3.4,1.5,3.4,4.5c0,2.9-0.9,4.5-3.4,4.5c-2.7,0-3.4-1.5-3.4-4.5S372.4,263.1,374.9,263.1z
		 M374.9,270.6c0.9,0,1.2-0.9,1.2-3s-0.3-3-1.2-3c-1.1,0-1.2,1.3-1.2,3S373.8,270.6,374.9,270.6z"/>
	<path class="st9" d="M358,276.5h3.8c3.2,0,3.8,2.2,3.8,5.6c0,4-0.9,5.9-3.9,5.9H358V276.5z M360.3,286.2h1c1.6,0,1.9-1,1.9-4.1
		c0-2.6-0.2-3.9-2-3.9h-1v8H360.3z"/>
	<path class="st9" d="M372,286.9L372,286.9c-0.5,0.8-1.3,1.2-2.2,1.2c-1.4,0-2.2-0.8-2.2-2.4v-6.4h2.2v5.9c0,0.9,0.3,1.2,0.9,1.2
		c0.8,0,1.2-0.5,1.2-1.4v-5.7h2.2v8.6H372V286.9z"/>
	<path class="st9" d="M376.3,276.5h2.2v11.4h-2.2V276.5z"/>
	<path class="st9" d="M384.9,282.4c0-0.8-0.2-1.7-1-1.7c-1.1,0-1.3,1-1.3,2.9c0,2.1,0.2,3,1.2,3c0.7,0,1.1-0.6,1.1-2h2.1
		c0,2.3-0.9,3.5-3.3,3.5c-2.2,0-3.3-1.1-3.3-4.5c0-3.5,1.5-4.5,3.5-4.5s3.1,1.3,3.1,3.3L384.9,282.4L384.9,282.4z"/>
	<path class="st9" d="M390.7,283.9v0.7c0,1,0.3,2,1.1,2c0.7,0,1-0.6,1.2-1.6h2c-0.1,2-1,3.1-3.1,3.1c-3.2,0-3.3-2.5-3.3-4.6
		c0-2.3,0.4-4.4,3.4-4.4c2.6,0,3.2,1.7,3.2,4.4v0.5h-4.5L390.7,283.9L390.7,283.9z M392.9,282.6c0-1.3-0.2-2-1.1-2s-1.1,0.9-1.1,1.7
		v0.3H392.9z"/>
</g>
<g>
	<path class="st8" d="M104.5,440.3v-8.6h1.7v7.1h3.1v1.4h-4.8C104.5,440.2,104.5,440.3,104.5,440.3z"/>
	<path class="st8" d="M110.5,435.8v-0.2c0-1.5,1-2,2.3-2c2,0,2.3,0.8,2.3,2v3.4c0,0.6,0,0.9,0.2,1.2h-1.6c-0.1-0.2-0.2-0.5-0.2-0.7
		l0,0c-0.4,0.7-0.9,0.8-1.6,0.8c-1.2,0-1.6-1-1.6-1.8c0-1.2,0.5-1.7,1.6-2l0.9-0.3c0.5-0.1,0.7-0.3,0.7-0.8s-0.2-0.8-0.8-0.8
		c-0.5,0-0.8,0.3-0.8,0.8v0.2h-1.4V435.8z M113.5,437.1c-0.2,0.2-0.5,0.3-0.7,0.3c-0.7,0.1-0.9,0.5-0.9,1s0.2,0.9,0.6,0.9s1-0.3,1-1
		V437.1z"/>
	<path class="st8" d="M121.6,433.8v6.1c0,1.7-0.8,2.5-2.7,2.5c-1.4,0-2.2-0.6-2.2-1.7h1.6c0,0.2,0.1,0.4,0.3,0.5
		c0.2,0.1,0.3,0.2,0.6,0.2c0.7,0,0.9-0.5,0.9-1.2v-0.9l0,0c-0.3,0.5-0.9,0.8-1.4,0.8c-1.3,0-2-0.9-2-3.3c0-1.5,0.2-3.3,2-3.3
		c0.5,0,1,0.2,1.3,0.9l0,0v-0.7h1.6C121.6,433.7,121.6,433.8,121.6,433.8z M119.1,439c0.7,0,0.9-0.8,0.9-1.8c0-1.6-0.2-2.2-0.9-2.2
		c-0.7,0-0.9,0.6-0.9,2.3C118.3,438.2,118.4,439,119.1,439z"/>
	<path class="st8" d="M125.6,433.7c2,0,2.5,1.2,2.5,3.4c0,2.2-0.6,3.4-2.5,3.4c-2,0-2.5-1.2-2.5-3.4
		C123,434.9,123.7,433.7,125.6,433.7z M125.6,439.3c0.7,0,0.9-0.7,0.9-2.3c0-1.6-0.2-2.3-0.9-2.3c-0.8,0-0.9,0.9-0.9,2.3
		S124.8,439.3,125.6,439.3z"/>
	<path class="st8" d="M136.2,439.6L136.2,439.6c-0.4,0.6-0.8,0.9-1.5,0.9c-1.4,0-2-1-2-3.4s0.6-3.4,2-3.4c0.6,0,1,0.3,1.4,0.8l0,0
		v-2.7h1.7v8.6h-1.6L136.2,439.6L136.2,439.6z M135.2,439.2c0.7,0,0.9-0.7,0.9-2.1s-0.1-2.1-0.9-2.1c-0.7,0-0.9,0.7-0.9,2.1
		S134.5,439.2,135.2,439.2z"/>
	<path class="st8" d="M140.7,437.3v0.5c0,0.8,0.2,1.5,0.8,1.5s0.8-0.4,0.9-1.2h1.5c-0.1,1.5-0.8,2.3-2.3,2.3c-2.4,0-2.5-1.8-2.5-3.5
		s0.3-3.3,2.6-3.3c1.9,0,2.4,1.3,2.4,3.3v0.4L140.7,437.3L140.7,437.3z M142.4,436.3c0-1-0.2-1.5-0.8-1.5c-0.7,0-0.9,0.7-0.9,1.3
		v0.3L142.4,436.3L142.4,436.3z"/>
	<path class="st8" d="M111,443.7h2.1l2.3,8.6h-1.8l-0.4-1.8h-2.3l-0.4,1.8h-1.8L111,443.7z M111.2,449.1h1.7l-0.8-3.9l0,0
		L111.2,449.1z"/>
	<path class="st8" d="M116.8,444h1.7v1.8h1v1.1h-1v3.5c0,0.5,0.1,0.7,0.6,0.7c0.1,0,0.3,0,0.4,0v1.2c-0.4,0-0.7,0.1-1.1,0.1
		c-1.3,0-1.5-0.4-1.5-1.7V447h-0.8v-1.1h0.8L116.8,444L116.8,444z"/>
	<path class="st8" d="M120.5,443.6h1.7v1.4h-1.7V443.6z M120.5,445.8h1.7v6.5h-1.7V445.8z"/>
	<path class="st8" d="M124.2,444h1.7v1.8h1v1.1h-1v3.5c0,0.5,0.1,0.7,0.6,0.7c0.1,0,0.3,0,0.4,0v1.2c-0.4,0-0.7,0.1-1.1,0.1
		c-1.3,0-1.5-0.4-1.5-1.7V447h-0.8v-1.1h0.8L124.2,444L124.2,444z"/>
	<path class="st8" d="M127.9,443.7h1.7v8.6h-1.7C127.9,452.3,127.9,443.7,127.9,443.7z"/>
	<path class="st8" d="M131.2,447.8v-0.2c0-1.5,1-2,2.3-2c2,0,2.3,0.8,2.3,2v3.4c0,0.6,0,0.9,0.2,1.2h-1.6c-0.1-0.2-0.2-0.5-0.2-0.7
		l0,0c-0.4,0.7-0.9,0.8-1.6,0.8c-1.2,0-1.6-1-1.6-1.8c0-1.2,0.5-1.7,1.6-2l0.9-0.3c0.5-0.1,0.7-0.3,0.7-0.8s-0.2-0.8-0.8-0.8
		c-0.5,0-0.8,0.3-0.8,0.8v0.2h-1.4L131.2,447.8L131.2,447.8z M134.2,449.1c-0.2,0.2-0.5,0.3-0.7,0.3c-0.7,0.1-0.9,0.5-0.9,1
		s0.2,0.9,0.6,0.9s1-0.3,1-1L134.2,449.1L134.2,449.1z"/>
	<path class="st8" d="M137.5,445.8h1.6v0.8l0,0c0.3-0.6,0.9-0.9,1.6-0.9c1,0,1.6,0.6,1.6,1.8v4.8h-1.7v-4.4c0-0.6-0.2-0.9-0.7-0.9
		c-0.6,0-0.9,0.3-0.9,1.1v4.3h-1.7v-6.6L137.5,445.8L137.5,445.8z"/>
</g>
<g>
	<path class="st9" d="M617.7,411.9h2.5v4.4h4.6v-4.4h2.5v11.4h-2.5v-4.9h-4.6v4.9h-2.5V411.9z"/>
	<path class="st9" d="M637.9,411.7c3.5,0,5.6,2.6,5.6,6c0,3.3-2.1,5.9-5.6,5.9s-5.6-2.6-5.6-5.9
		C632.3,414.3,634.4,411.7,637.9,411.7z M637.9,421.5c2.3,0,3.1-1.9,3.1-3.8c0-2-0.8-3.9-3.1-3.9s-3.1,1.9-3.1,3.9
		C634.8,419.6,635.6,421.5,637.9,421.5z"/>
	<path class="st9" d="M648.4,411.9h2.5l4.8,7.7l0,0v-7.7h2.4v11.4h-2.5l-4.8-7.7l0,0v7.7h-2.4V411.9z"/>
	<path class="st9" d="M663.5,411.9h4.9c3,0,5.2,1.9,5.2,5.7c0,3.3-1.7,5.8-5.2,5.8h-4.9V411.9z M666,421.2h2.2
		c1.5,0,2.8-0.9,2.8-3.4c0-2.3-0.8-3.8-3.3-3.8H666V421.2z"/>
	<path class="st9" d="M688.2,419c0,3.1-1.8,4.6-4.9,4.6c-3.1,0-4.9-1.5-4.9-4.6v-7.1h2.5v7.1c0,1.2,0.3,2.5,2.4,2.5
		c1.8,0,2.4-0.8,2.4-2.5v-7.1h2.5V419z"/>
	<path class="st9" d="M693.6,411.9h6.2c2,0,3.3,1.4,3.3,3.2c0,1.3-0.5,2.4-1.8,2.9l0,0c1.2,0.3,1.6,1.5,1.7,2.7c0,0.7,0,2.1,0.5,2.7
		H701c-0.3-0.7-0.3-1.8-0.4-2.7c-0.2-1.2-0.6-1.7-1.9-1.7h-2.5v4.5h-2.5L693.6,411.9L693.6,411.9z M696.1,417.1h2.8
		c1.1,0,1.7-0.5,1.7-1.6s-0.6-1.6-1.7-1.6h-2.8V417.1z"/>
	<path class="st9" d="M711.5,411.9h2.6l4.3,11.4h-2.6l-0.9-2.5h-4.3l-0.9,2.5h-2.5L711.5,411.9z M711.2,418.9h3l-1.4-4.2l0,0
		L711.2,418.9z"/>
	<path class="st9" d="M724.2,419.6c0,1.5,1.2,2.1,2.5,2.1c0.9,0,2.2-0.3,2.2-1.4c0-1.2-1.7-1.4-3.4-1.9c-1.7-0.4-3.4-1.1-3.4-3.2
		c0-2.3,2.2-3.5,4.3-3.5c2.4,0,4.6,1,4.6,3.7h-2.4c-0.1-1.4-1.1-1.7-2.3-1.7c-0.8,0-1.7,0.3-1.7,1.3c0,0.9,0.5,1,3.4,1.7
		c0.8,0.2,3.4,0.7,3.4,3.3c0,2.1-1.6,3.7-4.8,3.7c-2.5,0-4.9-1.2-4.9-4.1H724.2z"/>
</g>
<g>
	<path class="st9" d="M55.9,332.4c-0.9,1.1-2,1.6-3.1,1.6c-3.5,0-5.6-2.6-5.6-5.9c0-3.4,2.1-6,5.6-6c2.3,0,4.5,1.4,4.8,4h-2.4
		c-0.3-1.3-1.2-1.9-2.4-1.9c-2.3,0-3.1,1.9-3.1,3.9c0,1.9,0.8,3.8,3.1,3.8c1.6,0,2.6-0.9,2.7-2.5H53v-1.9h4.8v6.2h-1.6L55.9,332.4z"
		/>
	<path class="st9" d="M72.7,329.3c0,3.1-1.8,4.6-4.9,4.6s-4.9-1.5-4.9-4.6v-7.1h2.5v7.1c0,1.2,0.3,2.5,2.4,2.5
		c1.8,0,2.4-0.8,2.4-2.5v-7.1h2.5V329.3z"/>
	<path class="st9" d="M81.2,322.2h2.6l4.3,11.4h-2.6l-0.9-2.5h-4.3l-0.9,2.5h-2.5L81.2,322.2z M80.9,329.2h3l-1.4-4.2l0,0
		L80.9,329.2z"/>
	<path class="st9" d="M94.8,324.3h-3.4v-2.1h9.4v2.1h-3.4v9.3h-2.5L94.8,324.3L94.8,324.3z"/>
	<path class="st9" d="M105.2,322.2h8.5v2.1h-6v2.4h5.5v2h-5.5v2.8h6.2v2.1h-8.7V322.2z"/>
	<path class="st9" d="M118.8,322.2h3.5l2.7,7.9l0,0l2.5-7.9h3.5v11.4h-2.4v-8.1l0,0l-2.8,8.1H124l-2.8-8l0,0v8h-2.4
		C118.8,333.6,118.8,322.2,118.8,322.2z"/>
	<path class="st9" d="M139.6,322.2h2.6l4.3,11.4h-2.6l-0.9-2.5h-4.3l-0.9,2.5h-2.5L139.6,322.2z M139.4,329.2h3L141,325l0,0
		L139.4,329.2z"/>
	<path class="st9" d="M150.6,322.2h2.5v9.3h5.6v2.1h-8.1V322.2z"/>
	<path class="st9" d="M166.5,322.2h2.6l4.3,11.4h-2.6l-0.9-2.5h-4.3l-0.9,2.5h-2.5L166.5,322.2z M166.2,329.2h3l-1.4-4.2l0,0
		L166.2,329.2z"/>
</g>
<g>
	<path class="st9" d="M342.5,88.2v1.9H340v9.5h-2.3v-9.5h-2.5v-1.9H342.5z"/>
	<path class="st9" d="M344.1,88.1h2.2V90h-2.2V88.1z M344.1,91.1h2.2v8.6h-2.2V91.1z"/>
	<path class="st9" d="M350.8,88.2v6l0,0L353,91h2.4l-2.5,3.4l2.8,5.2h-2.4l-1.8-3.5l-0.8,1v2.5h-2.2V88.2H350.8z"/>
	<path class="st9" d="M357.2,93.7v-0.2c0-2,1.4-2.7,3-2.7c2.6,0,3.1,1.1,3.1,2.6V98c0,0.8,0,1.2,0.3,1.7h-2.1
		c-0.1-0.3-0.2-0.6-0.3-0.9l0,0c-0.5,0.9-1.1,1.1-2.2,1.1c-1.5,0-2.1-1.3-2.1-2.5c0-1.6,0.7-2.3,2.2-2.7l1.2-0.3
		c0.7-0.2,0.9-0.4,0.9-1c0-0.7-0.3-1.1-1-1.1s-1,0.4-1,1.1v0.2h-2V93.7z M361.2,95.4c-0.3,0.2-0.7,0.4-0.9,0.4
		c-0.9,0.2-1.2,0.6-1.2,1.4c0,0.7,0.2,1.2,0.8,1.2s1.4-0.4,1.4-1.3L361.2,95.4L361.2,95.4z"/>
	<path class="st9" d="M365.6,88.2h2.2v11.4h-2.2V88.2z"/>
</g>
<g>
	<path class="st9" d="M233.2,118.9h6.4v1.9h-4.1v2.7h3.8v1.9h-3.8v5h-2.3L233.2,118.9L233.2,118.9z"/>
	<path class="st9" d="M241.3,118.9h2.2v11.4h-2.2V118.9z"/>
	<path class="st9" d="M248.8,121.5c2.7,0,3.4,1.5,3.4,4.5c0,2.9-0.9,4.5-3.4,4.5c-2.7,0-3.4-1.5-3.4-4.5
		C245.4,123.1,246.2,121.5,248.8,121.5z M248.8,129c0.9,0,1.2-0.9,1.2-3c0-2.1-0.3-3-1.2-3c-1.1,0-1.2,1.3-1.2,3
		S247.7,129,248.8,129z"/>
	<path class="st9" d="M254,121.7h2.1v1.2l0,0c0.4-0.8,1.1-1.4,2-1.4c0.1,0,0.3,0,0.4,0v2.1c-0.2,0-0.5,0-0.7,0
		c-0.8,0-1.6,0.4-1.6,1.6v5.2H254V121.7z"/>
	<path class="st9" d="M261.9,126.4v0.7c0,1,0.3,2,1.1,2c0.7,0,1-0.6,1.2-1.6h2c-0.1,2-1,3.1-3.1,3.1c-3.2,0-3.3-2.5-3.3-4.6
		c0-2.3,0.4-4.4,3.4-4.4c2.6,0,3.2,1.7,3.2,4.4v0.5h-4.5L261.9,126.4L261.9,126.4z M264.1,125c0-1.3-0.2-2-1.1-2s-1.1,0.9-1.1,1.7
		v0.3H264.1z"/>
	<path class="st9" d="M269.6,127.5v0.3c0,0.8,0.4,1.2,1.2,1.2c0.7,0,1.1-0.3,1.1-1c0-0.6-0.4-0.8-0.8-1l-1.6-0.6
		c-1.2-0.4-1.8-1.2-1.8-2.4c0-1.4,0.9-2.6,3.2-2.6c2,0,2.9,0.9,2.9,2.4v0.4h-2c0-0.9-0.3-1.3-1-1.3c-0.6,0-1,0.3-1,0.9
		c0,0.4,0.2,0.8,1,1l1.3,0.4c1.4,0.5,1.9,1.2,1.9,2.5c0,1.8-1.3,2.7-3.2,2.7c-2.5,0-3.2-1.1-3.2-2.7v-0.3L269.6,127.5L269.6,127.5z"
		/>
</g>
<g>
	<path class="st9" d="M189.5,294.8c0-1.7-0.3-2.4-1.4-2.4c-1.2,0-1.4,1.2-1.4,4.4c0,3.5,0.5,4.1,1.5,4.1c0.8,0,1.4-0.4,1.4-2.9h2.3
		c0,2.5-0.6,4.6-3.6,4.6c-3.5,0-3.9-2.5-3.9-5.9c0-3.5,0.4-5.9,3.9-5.9c3.3,0,3.5,2.4,3.5,4.1h-2.3V294.8z"/>
	<path class="st9" d="M196.9,293.6c2.7,0,3.4,1.5,3.4,4.5c0,2.9-0.9,4.5-3.4,4.5c-2.7,0-3.4-1.5-3.4-4.5S194.4,293.6,196.9,293.6z
		 M196.9,301.1c0.9,0,1.2-0.9,1.2-3s-0.3-3-1.2-3c-1.1,0-1.2,1.3-1.2,3S195.8,301.1,196.9,301.1z"/>
	<path class="st9" d="M202.1,291h2.2v3.6l0,0c0.5-0.7,1-1,1.9-1c1.8,0,2.6,1.3,2.6,4.5s-0.8,4.5-2.6,4.5c-0.9,0-1.5-0.3-2-1.1l0,0
		v0.9h-2.1L202.1,291L202.1,291z M205.5,300.9c1,0,1.2-1,1.2-2.8c0-1.9-0.2-2.8-1.2-2.8s-1.2,1-1.2,2.8
		C204.4,300,204.5,300.9,205.5,300.9z"/>
	<path class="st9" d="M210.8,296.4v-0.2c0-2,1.4-2.7,3-2.7c2.6,0,3.1,1.1,3.1,2.6v4.5c0,0.8,0,1.2,0.3,1.7h-2.1
		c-0.1-0.3-0.2-0.6-0.3-0.9l0,0c-0.5,0.9-1.1,1.1-2.2,1.1c-1.5,0-2.1-1.3-2.1-2.5c0-1.6,0.7-2.3,2.2-2.7l1.2-0.3
		c0.7-0.2,0.9-0.4,0.9-1c0-0.7-0.3-1.1-1-1.1s-1,0.4-1,1.1v0.2h-2L210.8,296.4L210.8,296.4z M214.8,298.1c-0.3,0.2-0.7,0.4-0.9,0.4
		c-0.9,0.2-1.2,0.6-1.2,1.4c0,0.7,0.2,1.2,0.8,1.2s1.4-0.4,1.4-1.3v-1.7H214.8z M213.7,290.5h2.2l-1.6,2.3h-1.5L213.7,290.5z"/>
	<path class="st9" d="M219.1,293.8h2.1v1l0,0c0.5-0.8,1.3-1.2,2.2-1.2c1.4,0,2.2,0.8,2.2,2.4v6.4h-2.2v-5.9c0-0.9-0.3-1.2-0.9-1.2
		c-0.8,0-1.2,0.5-1.2,1.4v5.7h-2.2L219.1,293.8L219.1,293.8z"/>
</g>
<g>
	<path class="st9" d="M225.7,415.7c0-0.8-0.4-1.9-1.3-1.9c-1.1,0-1.6,1.2-1.6,4s0.3,4.5,1.6,4.5c0.5,0,1.4-0.6,1.4-1.8v-1.2h-1.5
		v-1.7h3.7v6.2h-1.7v-1.1l0,0c-0.5,0.9-1.3,1.3-2.4,1.3c-2.8,0-3.4-2.1-3.4-6.1c0-3.8,0.9-5.8,3.8-5.8c2.5,0,3.6,1.3,3.6,3.6H225.7z
		"/>
	<path class="st9" d="M234.5,422.8L234.5,422.8c-0.5,0.8-1.3,1.2-2.2,1.2c-1.4,0-2.2-0.8-2.2-2.4v-6.4h2.2v5.9
		c0,0.9,0.3,1.2,0.9,1.2c0.8,0,1.2-0.5,1.2-1.4v-5.7h2.2v8.6h-2.1L234.5,422.8L234.5,422.8z"/>
	<path class="st9" d="M238.8,417.8v-0.2c0-2,1.4-2.7,3-2.7c2.6,0,3.1,1.1,3.1,2.6v4.5c0,0.8,0,1.2,0.3,1.7h-2.1
		c-0.1-0.3-0.2-0.6-0.3-0.9l0,0c-0.5,0.9-1.1,1.1-2.2,1.1c-1.5,0-2.1-1.3-2.1-2.5c0-1.6,0.7-2.3,2.2-2.7l1.2-0.3
		c0.7-0.2,0.9-0.4,0.9-1c0-0.7-0.3-1.1-1-1.1s-1,0.4-1,1.1v0.2h-2L238.8,417.8L238.8,417.8z M242.8,419.5c-0.3,0.2-0.7,0.4-0.9,0.4
		c-0.9,0.2-1.2,0.6-1.2,1.4c0,0.7,0.2,1.2,0.8,1.2s1.4-0.4,1.4-1.3v-1.7H242.8z"/>
	<path class="st9" d="M247.6,412.7h2.2v2.5h1.3v1.5h-1.3v4.7c0,0.7,0.1,0.9,0.8,0.9c0.2,0,0.4,0,0.5,0v1.5c-0.5,0-0.9,0.1-1.4,0.1
		c-1.7,0-2-0.5-2-2.3v-4.9h-1.1v-1.5h1.1v-2.5L247.6,412.7L247.6,412.7z"/>
	<path class="st9" d="M254.4,419.8v0.7c0,1,0.3,2,1.1,2c0.7,0,1-0.6,1.2-1.6h2c-0.1,2-1,3.1-3.1,3.1c-3.2,0-3.3-2.5-3.3-4.6
		c0-2.3,0.4-4.5,3.4-4.5c2.6,0,3.2,1.7,3.2,4.4v0.5H254.4z M256.6,418.5c0-1.3-0.2-2-1.1-2s-1.1,0.9-1.1,1.7v0.3H256.6z"/>
	<path class="st9" d="M260.5,415.2h2.1v0.9l0,0c0.6-0.8,1.2-1.1,2.2-1.1s1.7,0.5,2,1.4l0,0c0.3-0.9,1.1-1.4,2.2-1.4
		c1.5,0,2.1,0.9,2.1,2.6v6.3H269v-6c0-0.7-0.2-1.1-0.9-1.1c-0.7,0-1.2,0.5-1.2,1.5v5.7h-2.2v-6c0-0.7-0.2-1.1-0.9-1.1
		c-0.7,0-1.2,0.5-1.2,1.5v5.7h-2.2v-8.9H260.5z"/>
	<path class="st9" d="M273.3,417.8v-0.2c0-2,1.4-2.7,3-2.7c2.6,0,3.1,1.1,3.1,2.6v4.5c0,0.8,0,1.2,0.3,1.7h-2.1
		c-0.1-0.3-0.2-0.6-0.3-0.9l0,0c-0.5,0.9-1.1,1.1-2.2,1.1c-1.5,0-2.1-1.3-2.1-2.5c0-1.6,0.7-2.3,2.2-2.7l1.2-0.3
		c0.7-0.2,0.9-0.4,0.9-1c0-0.7-0.3-1.1-1-1.1s-1,0.4-1,1.1v0.2h-2V417.8z M277.3,419.5c-0.3,0.2-0.7,0.4-0.9,0.4
		c-0.9,0.2-1.2,0.6-1.2,1.4c0,0.7,0.2,1.2,0.8,1.2s1.4-0.4,1.4-1.3L277.3,419.5L277.3,419.5z"/>
	<path class="st9" d="M281.7,412.3h2.2v11.4h-2.2V412.3z"/>
	<path class="st9" d="M286.1,417.8v-0.2c0-2,1.4-2.7,3-2.7c2.6,0,3.1,1.1,3.1,2.6v4.5c0,0.8,0,1.2,0.3,1.7h-2.1
		c-0.1-0.3-0.2-0.6-0.3-0.9l0,0c-0.5,0.9-1.1,1.1-2.2,1.1c-1.5,0-2.1-1.3-2.1-2.5c0-1.6,0.7-2.3,2.2-2.7l1.2-0.3
		c0.7-0.2,0.9-0.4,0.9-1c0-0.7-0.3-1.1-1-1.1s-1,0.4-1,1.1v0.2h-2V417.8z M290.1,419.5c-0.3,0.2-0.7,0.4-0.9,0.4
		c-0.9,0.2-1.2,0.6-1.2,1.4c0,0.7,0.2,1.2,0.8,1.2s1.4-0.4,1.4-1.3L290.1,419.5L290.1,419.5z"/>
	<path class="st9" d="M303.9,416.2c0-1.7-0.3-2.4-1.4-2.4c-1.2,0-1.4,1.2-1.4,4.4c0,3.5,0.5,4.1,1.5,4.1c0.8,0,1.4-0.4,1.4-2.9h2.3
		c0,2.5-0.6,4.6-3.6,4.6c-3.5,0-3.9-2.5-3.9-5.9c0-3.5,0.4-5.9,3.9-5.9c3.3,0,3.5,2.4,3.5,4.1h-2.3V416.2z"/>
	<path class="st9" d="M308.2,412.2h2.2v1.9h-2.2V412.2z M308.2,415.2h2.2v8.6h-2.2V415.2z"/>
	<path class="st9" d="M313.1,412.7h2.2v2.5h1.3v1.5h-1.3v4.7c0,0.7,0.1,0.9,0.8,0.9c0.2,0,0.4,0,0.5,0v1.5c-0.5,0-0.9,0.1-1.4,0.1
		c-1.7,0-2-0.5-2-2.3v-4.9H312v-1.5h1.1V412.7z"/>
	<path class="st9" d="M318,424.9c0.2,0,0.4,0,0.6,0c0.8,0,1.1-0.4,1.2-1.2l-2.4-8.6h2.3l1.3,6l0,0l1.1-6h2.2l-2.1,8
		c-0.8,3-1.3,3.4-3.3,3.4H318V424.9z"/>
</g>
<g>
	<path class="st9" d="M403.7,404.1c0-1.7-0.3-2.4-1.4-2.4c-1.2,0-1.4,1.2-1.4,4.4c0,3.5,0.5,4.1,1.5,4.1c0.8,0,1.4-0.4,1.4-2.9h2.3
		c0,2.5-0.6,4.6-3.6,4.6c-3.5,0-3.9-2.5-3.9-5.9c0-3.5,0.4-5.9,3.9-5.9c3.3,0,3.5,2.4,3.5,4.1h-2.3V404.1z"/>
	<path class="st9" d="M411.1,402.9c2.7,0,3.4,1.5,3.4,4.5c0,2.9-0.9,4.5-3.4,4.5c-2.7,0-3.4-1.5-3.4-4.5S408.6,402.9,411.1,402.9z
		 M411.1,410.4c0.9,0,1.2-0.9,1.2-3s-0.3-3-1.2-3c-1.1,0-1.2,1.3-1.2,3S410,410.4,411.1,410.4z"/>
	<path class="st9" d="M416.3,403.1h2.1v0.9l0,0c0.5-0.8,1.1-1.1,2-1.1c1.8,0,2.6,1.3,2.6,4.5s-0.8,4.5-2.6,4.5c-0.8,0-1.4-0.3-1.9-1
		l0,0v3.6h-2.2V403.1z M419.7,410.2c1,0,1.2-1,1.2-2.8c0-1.9-0.2-2.8-1.2-2.8s-1.2,1-1.2,2.8C418.5,409.3,418.7,410.2,419.7,410.2z"
		/>
	<path class="st9" d="M425,405.7v-0.2c0-2,1.4-2.7,3-2.7c2.6,0,3.1,1.1,3.1,2.6v4.5c0,0.8,0,1.2,0.3,1.7h-2.1
		c-0.1-0.3-0.2-0.6-0.3-0.9l0,0c-0.5,0.9-1.1,1.1-2.2,1.1c-1.5,0-2.1-1.3-2.1-2.5c0-1.6,0.7-2.3,2.2-2.7l1.2-0.3
		c0.7-0.2,0.9-0.4,0.9-1c0-0.7-0.3-1.1-1-1.1s-1,0.4-1,1.1v0.2h-2V405.7z M429,407.4c-0.3,0.2-0.7,0.4-0.9,0.4
		c-0.9,0.2-1.2,0.6-1.2,1.4c0,0.7,0.2,1.2,0.8,1.2s1.4-0.4,1.4-1.3L429,407.4L429,407.4z M427.9,399.8h2.2l-1.6,2.3H427L427.9,399.8
		z"/>
	<path class="st9" d="M433.3,403.1h2.1v1l0,0c0.5-0.8,1.3-1.2,2.2-1.2c1.4,0,2.2,0.8,2.2,2.4v6.4h-2.2v-5.9c0-0.9-0.3-1.2-0.9-1.2
		c-0.8,0-1.2,0.5-1.2,1.4v5.7h-2.2V403.1z"/>
	<path class="st9" d="M398.9,416.3h4.3c1.9,0,3,1,3,2.9c0,1.5-0.6,2.5-1.9,2.8l0,0c1.6,0.2,1.8,1.1,1.8,3.5c0,1.2,0.1,1.8,0.5,2v0.1
		h-2.5c-0.2-0.3-0.3-0.8-0.3-1.2l-0.1-2.2c0-0.9-0.4-1.4-1.4-1.4h-1.2v4.8h-2.3v-11.3L398.9,416.3L398.9,416.3z M401.2,421.3h1
		c1.1,0,1.7-0.5,1.7-1.7c0-1.1-0.6-1.6-1.6-1.6h-1.1V421.3z"/>
	<path class="st9" d="M412.7,426.7L412.7,426.7c-0.5,0.8-1.3,1.2-2.2,1.2c-1.4,0-2.2-0.8-2.2-2.4v-6.4h2.2v5.9
		c0,0.9,0.3,1.2,0.9,1.2c0.8,0,1.2-0.5,1.2-1.4v-5.7h2.2v8.6h-2.1V426.7z"/>
	<path class="st9" d="M417,416.1h2.2v1.9H417V416.1z M417,419.1h2.2v8.6H417V419.1z"/>
	<path class="st9" d="M421.4,419.1h2.1v1l0,0c0.5-0.8,1.3-1.2,2.2-1.2c1.4,0,2.2,0.8,2.2,2.4v6.4h-2.2v-5.9c0-0.9-0.3-1.2-0.9-1.2
		c-0.8,0-1.2,0.5-1.2,1.4v5.7h-2.2V419.1z"/>
	<path class="st9" d="M430.1,421.7v-0.2c0-2,1.4-2.7,3-2.7c2.6,0,3.1,1.1,3.1,2.6v4.5c0,0.8,0,1.2,0.3,1.7h-2.1
		c-0.1-0.3-0.2-0.6-0.3-0.9l0,0c-0.5,0.9-1.1,1.1-2.2,1.1c-1.5,0-2.1-1.3-2.1-2.5c0-1.6,0.7-2.3,2.2-2.7l1.2-0.3
		c0.7-0.2,0.9-0.4,0.9-1c0-0.7-0.3-1.1-1-1.1s-1,0.4-1,1.1v0.2h-2V421.7z M434.1,423.4c-0.3,0.2-0.7,0.4-0.9,0.4
		c-0.9,0.2-1.2,0.6-1.2,1.4c0,0.7,0.2,1.2,0.8,1.2s1.4-0.4,1.4-1.3L434.1,423.4L434.1,423.4z"/>
	<path class="st9" d="M440,424.9v0.3c0,0.8,0.4,1.2,1.2,1.2c0.7,0,1.1-0.3,1.1-1c0-0.6-0.4-0.8-0.8-1l-1.6-0.6
		c-1.2-0.4-1.8-1.2-1.8-2.4c0-1.4,0.9-2.6,3.2-2.6c2,0,2.9,0.9,2.9,2.4v0.4h-2c0-0.9-0.3-1.3-1-1.3c-0.6,0-1,0.3-1,0.9
		c0,0.4,0.2,0.8,1,1l1.3,0.4c1.4,0.5,1.9,1.2,1.9,2.5c0,1.8-1.3,2.7-3.2,2.7c-2.5,0-3.2-1.1-3.2-2.7v-0.3h2V424.9z"/>
</g>
<g>
	<path class="st9" d="M529.2,465.1v1.9h-2.5v9.5h-2.3V467h-2.5v-1.9H529.2z"/>
	<path class="st9" d="M532.7,472.6v0.7c0,1,0.3,2,1.1,2c0.7,0,1-0.6,1.2-1.6h2c-0.1,2-1,3.1-3.1,3.1c-3.2,0-3.3-2.5-3.3-4.6
		c0-2.3,0.4-4.4,3.4-4.4c2.6,0,3.2,1.7,3.2,4.4v0.5h-4.5L532.7,472.6L532.7,472.6z M534.9,471.3c0-1.3-0.2-2-1.1-2
		c-0.9,0-1.1,0.9-1.1,1.7v0.3H534.9z"/>
	<path class="st9" d="M545.3,468v8.2c0,2.3-1,3.4-3.6,3.4c-1.9,0-2.9-0.8-2.9-2.3h2.1c0,0.3,0.1,0.5,0.3,0.7
		c0.2,0.1,0.5,0.2,0.7,0.2c0.9,0,1.2-0.7,1.2-1.6v-1.1l0,0c-0.4,0.6-1.1,1.1-1.8,1.1c-1.8,0-2.6-1.2-2.6-4.4c0-2,0.3-4.4,2.7-4.4
		c0.6,0,1.4,0.3,1.8,1.2l0,0v-1L545.3,468L545.3,468z M542,474.8c0.9,0,1.2-1,1.2-2.5c0-2.1-0.3-2.9-1.2-2.9c-1,0-1.2,0.8-1.2,3.1
		C540.9,473.7,541,474.8,542,474.8z"/>
	<path class="st9" d="M551.9,475.6L551.9,475.6c-0.5,0.8-1.3,1.2-2.2,1.2c-1.4,0-2.2-0.8-2.2-2.4V468h2.2v5.9c0,0.9,0.3,1.2,0.9,1.2
		c0.8,0,1.2-0.5,1.2-1.4V468h2.2v8.6h-2.1L551.9,475.6L551.9,475.6z"/>
	<path class="st9" d="M560.3,471.1c0-0.8-0.2-1.7-1-1.7c-1.1,0-1.3,1-1.3,2.9c0,2.1,0.2,3,1.2,3c0.7,0,1.1-0.6,1.1-2h2.1
		c0,2.3-0.9,3.5-3.3,3.5c-2.2,0-3.3-1.1-3.3-4.5c0-3.5,1.5-4.5,3.5-4.5s3.1,1.3,3.1,3.3L560.3,471.1L560.3,471.1z"/>
	<path class="st9" d="M564.2,465h2.2v1.9h-2.2V465z M564.2,468h2.2v8.6h-2.2V468z"/>
	<path class="st9" d="M575.1,468v8.2c0,2.3-1,3.4-3.6,3.4c-1.9,0-2.9-0.8-2.9-2.3h2.1c0,0.3,0.1,0.5,0.3,0.7
		c0.2,0.1,0.5,0.2,0.7,0.2c0.9,0,1.2-0.7,1.2-1.6v-1.1l0,0c-0.4,0.6-1.1,1.1-1.8,1.1c-1.8,0-2.6-1.2-2.6-4.4c0-2,0.3-4.4,2.7-4.4
		c0.6,0,1.4,0.3,1.8,1.2l0,0v-1L575.1,468L575.1,468z M571.8,474.8c0.9,0,1.2-1,1.2-2.5c0-2.1-0.3-2.9-1.2-2.9c-1,0-1.2,0.8-1.2,3.1
		C570.7,473.7,570.9,474.8,571.8,474.8z"/>
	<path class="st9" d="M577.3,470.6v-0.2c0-2,1.4-2.7,3-2.7c2.6,0,3.1,1.1,3.1,2.6v4.5c0,0.8,0,1.2,0.3,1.7h-2.1
		c-0.1-0.3-0.2-0.6-0.3-0.9l0,0c-0.5,0.9-1.1,1.1-2.2,1.1c-1.5,0-2.1-1.3-2.1-2.5c0-1.6,0.7-2.3,2.2-2.7l1.2-0.3
		c0.7-0.2,0.9-0.4,0.9-1c0-0.7-0.3-1.1-1-1.1s-1,0.4-1,1.1v0.2h-2L577.3,470.6L577.3,470.6z M581.3,472.3c-0.3,0.2-0.7,0.4-0.9,0.4
		c-0.9,0.2-1.2,0.6-1.2,1.4c0,0.7,0.2,1.2,0.8,1.2s1.4-0.4,1.4-1.3L581.3,472.3L581.3,472.3z"/>
	<path class="st9" d="M585.7,465.1h2.2v11.4h-2.2V465.1z"/>
	<path class="st9" d="M590.1,468h2.1v0.9l0,0c0.5-0.8,1.1-1.1,2-1.1c1.8,0,2.6,1.3,2.6,4.5s-0.8,4.5-2.6,4.5c-0.8,0-1.4-0.3-1.9-1
		l0,0v3.6h-2.2L590.1,468L590.1,468z M593.5,475.1c1,0,1.2-1,1.2-2.8s-0.2-2.8-1.2-2.8s-1.2,1-1.2,2.8S592.5,475.1,593.5,475.1z"/>
	<path class="st9" d="M598.7,470.6v-0.2c0-2,1.4-2.7,3-2.7c2.6,0,3.1,1.1,3.1,2.6v4.5c0,0.8,0,1.2,0.3,1.7H603
		c-0.1-0.3-0.2-0.6-0.3-0.9l0,0c-0.5,0.9-1.1,1.1-2.2,1.1c-1.5,0-2.1-1.3-2.1-2.5c0-1.6,0.7-2.3,2.2-2.7l1.2-0.3
		c0.7-0.2,0.9-0.4,0.9-1c0-0.7-0.3-1.1-1-1.1s-1,0.4-1,1.1v0.2h-2L598.7,470.6L598.7,470.6z M602.8,472.3c-0.3,0.2-0.7,0.4-0.9,0.4
		c-0.9,0.2-1.2,0.6-1.2,1.4c0,0.7,0.2,1.2,0.8,1.2s1.4-0.4,1.4-1.3L602.8,472.3L602.8,472.3z"/>
</g>
<g>
	<path class="st9" d="M673.1,307.3v-11.4h2.3v9.5h4.1v1.9H673.1z"/>
	<path class="st9" d="M681.1,301.3v-0.2c0-2,1.4-2.7,3-2.7c2.6,0,3.1,1.1,3.1,2.6v4.5c0,0.8,0,1.2,0.3,1.7h-2.1
		c-0.1-0.3-0.2-0.6-0.3-0.9l0,0c-0.5,0.9-1.1,1.1-2.2,1.1c-1.5,0-2.1-1.3-2.1-2.5c0-1.6,0.7-2.3,2.2-2.7l1.2-0.3
		c0.7-0.2,0.9-0.4,0.9-1c0-0.7-0.3-1.1-1-1.1s-1,0.4-1,1.1v0.2h-2L681.1,301.3L681.1,301.3z M685.1,303c-0.3,0.2-0.7,0.4-0.9,0.4
		c-0.9,0.2-1.2,0.6-1.2,1.4c0,0.7,0.2,1.2,0.8,1.2s1.4-0.4,1.4-1.3L685.1,303L685.1,303z"/>
	<path class="st9" d="M698.9,299.7c0-1.7-0.3-2.4-1.4-2.4c-1.2,0-1.4,1.2-1.4,4.4c0,3.5,0.5,4.1,1.5,4.1c0.8,0,1.4-0.4,1.4-2.9h2.3
		c0,2.5-0.6,4.6-3.6,4.6c-3.5,0-3.9-2.5-3.9-5.9c0-3.5,0.4-5.9,3.9-5.9c3.3,0,3.5,2.4,3.5,4.1h-2.3V299.7z"/>
	<path class="st9" d="M705.1,303.3v0.7c0,1,0.3,2,1.1,2c0.7,0,1-0.6,1.2-1.6h2c-0.1,2-1,3.1-3.1,3.1c-3.2,0-3.3-2.5-3.3-4.6
		c0-2.3,0.4-4.4,3.4-4.4c2.6,0,3.2,1.7,3.2,4.4v0.5h-4.5L705.1,303.3L705.1,303.3z M707.3,302c0-1.3-0.2-2-1.1-2
		c-0.9,0-1.1,0.9-1.1,1.7v0.3H707.3z"/>
	<path class="st9" d="M711.3,295.7h2.2v1.9h-2.2V295.7z M711.3,298.7h2.2v8.6h-2.2V298.7z"/>
	<path class="st9" d="M715.7,295.8h2.2v3.6l0,0c0.5-0.7,1-1,1.9-1c1.8,0,2.6,1.3,2.6,4.5s-0.8,4.5-2.6,4.5c-0.9,0-1.5-0.3-2-1.1l0,0
		v0.9h-2.1L715.7,295.8L715.7,295.8z M719.1,305.8c1,0,1.2-1,1.2-2.8c0-1.9-0.2-2.8-1.2-2.8s-1.2,1-1.2,2.8
		C717.9,304.8,718.1,305.8,719.1,305.8z"/>
	<path class="st9" d="M724.3,301.3v-0.2c0-2,1.4-2.7,3-2.7c2.6,0,3.1,1.1,3.1,2.6v4.5c0,0.8,0,1.2,0.3,1.7h-2.1
		c-0.1-0.3-0.2-0.6-0.3-0.9l0,0c-0.5,0.9-1.1,1.1-2.2,1.1c-1.5,0-2.1-1.3-2.1-2.5c0-1.6,0.7-2.3,2.2-2.7l1.2-0.3
		c0.7-0.2,0.9-0.4,0.9-1c0-0.7-0.3-1.1-1-1.1s-1,0.4-1,1.1v0.2h-2L724.3,301.3L724.3,301.3z M728.3,303c-0.3,0.2-0.7,0.4-0.9,0.4
		c-0.9,0.2-1.2,0.6-1.2,1.4c0,0.7,0.2,1.2,0.8,1.2s1.4-0.4,1.4-1.3L728.3,303L728.3,303z"/>
</g>
<g>
	<path class="st9" d="M587.8,258.4v1.9h-2.5v9.5H583v-9.5h-2.5v-1.9H587.8z"/>
	<path class="st9" d="M591.2,265.9v0.7c0,1,0.3,2,1.1,2c0.7,0,1-0.6,1.2-1.6h2c-0.1,2-1,3.1-3.1,3.1c-3.2,0-3.3-2.5-3.3-4.6
		c0-2.3,0.4-4.4,3.4-4.4c2.6,0,3.2,1.7,3.2,4.4v0.5h-4.5L591.2,265.9L591.2,265.9z M593.5,264.6c0-1.3-0.2-2-1.1-2
		c-0.9,0-1.1,0.9-1.1,1.7v0.3H593.5z"/>
	<path class="st9" d="M597.5,258.4h2.2v11.4h-2.2V258.4z"/>
	<path class="st9" d="M601.9,263.9v-0.2c0-2,1.4-2.7,3-2.7c2.6,0,3.1,1.1,3.1,2.6v4.5c0,0.8,0,1.2,0.3,1.7h-2.1
		c-0.1-0.3-0.2-0.6-0.3-0.9l0,0c-0.5,0.9-1.1,1.1-2.2,1.1c-1.5,0-2.1-1.3-2.1-2.5c0-1.6,0.7-2.3,2.2-2.7l1.2-0.3
		c0.7-0.2,0.9-0.4,0.9-1c0-0.7-0.3-1.1-1-1.1s-1,0.4-1,1.1v0.2h-2L601.9,263.9L601.9,263.9z M605.9,265.6c-0.3,0.2-0.7,0.4-0.9,0.4
		c-0.9,0.2-1.2,0.6-1.2,1.4c0,0.7,0.2,1.2,0.8,1.2s1.4-0.4,1.4-1.3L605.9,265.6L605.9,265.6z"/>
</g>
<g>
	<path class="st9" d="M617.6,224.1v8c0,1.1,0.3,2,1.3,2s1.3-0.8,1.3-2v-8h2.3v8c0,2.9-1.8,3.7-3.6,3.7c-1.9,0-3.6-0.6-3.6-3.7v-8
		H617.6z"/>
	<path class="st9" d="M625.1,224.4h2.2v2.5h1.3v1.5h-1.3v4.7c0,0.7,0.1,0.9,0.8,0.9c0.2,0,0.4,0,0.5,0v1.5c-0.5,0-0.9,0.1-1.4,0.1
		c-1.7,0-2-0.5-2-2.3v-4.9H624v-1.5h1.1V224.4z"/>
	<path class="st9" d="M630.1,224h2.2v1.9h-2.2V224z M630.1,226.9h2.2v8.6h-2.2V226.9z"/>
	<path class="st9" d="M634.6,224.1h2.2v11.4h-2.2V224.1z"/>
	<path class="st9" d="M638.9,229.6v-0.2c0-2,1.4-2.7,3-2.7c2.6,0,3.1,1.1,3.1,2.6v4.5c0,0.8,0,1.2,0.3,1.7h-2.1
		c-0.1-0.3-0.2-0.6-0.3-0.9l0,0c-0.5,0.9-1.1,1.1-2.2,1.1c-1.5,0-2.1-1.3-2.1-2.5c0-1.6,0.7-2.3,2.2-2.7l1.2-0.3
		c0.7-0.2,0.9-0.4,0.9-1c0-0.7-0.3-1.1-1-1.1s-1,0.4-1,1.1v0.2h-2L638.9,229.6L638.9,229.6z M643,231.2c-0.3,0.2-0.7,0.4-0.9,0.4
		c-0.9,0.2-1.2,0.6-1.2,1.4c0,0.7,0.2,1.2,0.8,1.2s1.4-0.4,1.4-1.3L643,231.2L643,231.2z"/>
</g>
<g>
	<path class="st9" d="M432.7,256.6v-11.4h2.3v9.5h4.1v1.9H432.7z"/>
	<path class="st9" d="M440.7,245.1h2.2v1.9h-2.2V245.1z M440.7,248h2.2v8.6h-2.2V248z"/>
	<path class="st9" d="M449.2,248h2.2l-2.2,8.6h-2.6l-2.2-8.6h2.3l1.2,6.2l0,0L449.2,248z"/>
	<path class="st9" d="M453,245.1h2.2v1.9H453V245.1z M453,248h2.2v8.6H453V248z"/>
	<path class="st9" d="M457.4,248h2.1v1l0,0c0.5-0.8,1.3-1.2,2.2-1.2c1.4,0,2.2,0.8,2.2,2.4v6.4h-2.2v-5.9c0-0.9-0.3-1.2-0.9-1.2
		c-0.8,0-1.2,0.5-1.2,1.4v5.7h-2.2V248z"/>
	<path class="st9" d="M472.5,248v8.2c0,2.3-1,3.4-3.6,3.4c-1.9,0-2.9-0.8-2.9-2.3h2.1c0,0.3,0.1,0.5,0.3,0.7s0.5,0.2,0.7,0.2
		c0.9,0,1.2-0.7,1.2-1.6v-1.1l0,0c-0.4,0.6-1.1,1.1-1.8,1.1c-1.8,0-2.6-1.2-2.6-4.4c0-2,0.3-4.4,2.7-4.4c0.6,0,1.4,0.3,1.8,1.2l0,0
		v-1L472.5,248L472.5,248z M469.1,254.8c0.9,0,1.2-1,1.2-2.5c0-2.1-0.3-2.9-1.2-2.9c-1,0-1.2,0.8-1.2,3.1
		C468,253.8,468.2,254.8,469.1,254.8z"/>
	<path class="st9" d="M476.3,253.8v0.3c0,0.8,0.4,1.2,1.2,1.2c0.7,0,1.1-0.3,1.1-1c0-0.6-0.4-0.8-0.8-1l-1.6-0.6
		c-1.2-0.4-1.8-1.2-1.8-2.4c0-1.4,0.9-2.6,3.2-2.6c2,0,2.9,0.9,2.9,2.4v0.4h-2c0-0.9-0.3-1.3-1-1.3c-0.6,0-1,0.3-1,0.9
		c0,0.4,0.2,0.8,1,1l1.3,0.4c1.4,0.5,1.9,1.2,1.9,2.5c0,1.8-1.3,2.7-3.2,2.7c-2.5,0-3.2-1.1-3.2-2.7v-0.3h2V253.8z"/>
	<path class="st9" d="M482.9,245.6h2.2v2.5h1.3v1.5h-1.3v4.7c0,0.7,0.1,0.9,0.8,0.9c0.2,0,0.4,0,0.5,0v1.5c-0.5,0-0.9,0.1-1.4,0.1
		c-1.7,0-2-0.5-2-2.3v-4.9h-1.1V248h1.1v-2.4H482.9z"/>
	<path class="st9" d="M490.9,247.8c2.7,0,3.4,1.5,3.4,4.5c0,2.9-0.9,4.5-3.4,4.5c-2.7,0-3.4-1.5-3.4-4.5
		C487.5,249.4,488.3,247.8,490.9,247.8z M490.9,255.3c0.9,0,1.2-0.9,1.2-3s-0.3-3-1.2-3c-1.1,0-1.2,1.3-1.2,3
		S489.8,255.3,490.9,255.3z"/>
	<path class="st9" d="M496.1,248h2.1v1l0,0c0.5-0.8,1.3-1.2,2.2-1.2c1.4,0,2.2,0.8,2.2,2.4v6.4h-2.2v-5.9c0-0.9-0.3-1.2-0.9-1.2
		c-0.8,0-1.2,0.5-1.2,1.4v5.7h-2.2V248z"/>
</g>
<g>
	<path class="st9" d="M447,307v0.3c0,1.1,0.3,1.8,1.5,1.8c0.7,0,1.4-0.4,1.4-1.4s-0.5-1.4-2-2c-2-0.7-3-1.6-3-3.5
		c0-2.2,1.4-3.4,3.5-3.4c2,0,3.5,0.9,3.5,3.1v0.3h-2.2c0-1.1-0.4-1.7-1.2-1.7c-1,0-1.3,0.7-1.3,1.3c0,0.7,0.2,1.1,1.2,1.6l1.8,0.8
		c1.7,0.8,2.2,1.6,2.2,3c0,2.4-1.5,3.5-4,3.5c-2.6,0-3.6-1.2-3.6-3.3V307H447z"/>
	<path class="st9" d="M454,304.6v-0.2c0-2,1.4-2.7,3-2.7c2.6,0,3.1,1.1,3.1,2.6v4.5c0,0.8,0,1.2,0.3,1.7h-2.1
		c-0.1-0.3-0.2-0.6-0.3-0.9l0,0c-0.5,0.9-1.1,1.1-2.2,1.1c-1.5,0-2.1-1.3-2.1-2.5c0-1.6,0.7-2.3,2.2-2.7l1.2-0.3
		c0.7-0.2,0.9-0.4,0.9-1c0-0.7-0.3-1.1-1-1.1s-1,0.4-1,1.1v0.2h-2V304.6z M458.1,306.3c-0.3,0.2-0.7,0.4-0.9,0.4
		c-0.9,0.2-1.2,0.6-1.2,1.4c0,0.7,0.2,1.2,0.8,1.2s1.4-0.4,1.4-1.3L458.1,306.3L458.1,306.3z"/>
	<path class="st9" d="M462.4,301.9h2.1v1l0,0c0.5-0.8,1.3-1.2,2.2-1.2c1.4,0,2.2,0.8,2.2,2.4v6.4h-2.2v-5.9c0-0.9-0.3-1.2-0.9-1.2
		c-0.8,0-1.2,0.5-1.2,1.4v5.7h-2.2V301.9z"/>
	<path class="st9" d="M475.6,299.1h4c2.3,0,3.1,1.7,3.1,3.4c0,2.4-1.5,3.4-3.6,3.4h-1.2v4.6h-2.3V299.1z M477.9,304.3h1
		c0.9,0,1.5-0.5,1.5-1.7c0-1.1-0.4-1.8-1.6-1.8h-1v3.5H477.9z"/>
	<path class="st9" d="M486.4,306.6v0.7c0,1,0.3,2,1.1,2c0.7,0,1-0.6,1.2-1.6h2c-0.1,2-1,3.1-3.1,3.1c-3.2,0-3.3-2.5-3.3-4.6
		c0-2.3,0.4-4.4,3.4-4.4c2.6,0,3.2,1.7,3.2,4.4v0.5h-4.5L486.4,306.6L486.4,306.6z M488.6,305.3c0-1.3-0.2-2-1.1-2s-1.1,0.9-1.1,1.7
		v0.3H488.6z"/>
	<path class="st9" d="M496.9,309.6L496.9,309.6c-0.5,0.8-1.1,1.1-2,1.1c-1.8,0-2.6-1.3-2.6-4.5s0.8-4.5,2.6-4.5c0.8,0,1.4,0.3,1.9,1
		l0,0v-3.6h2.2v11.4h-2.1V309.6z M495.7,309.1c1,0,1.2-1,1.2-2.8c0-1.9-0.2-2.8-1.2-2.8s-1.2,1-1.2,2.8S494.7,309.1,495.7,309.1z"/>
	<path class="st9" d="M501.2,301.9h2.1v1.2l0,0c0.4-0.8,1.1-1.4,2-1.4c0.1,0,0.3,0,0.4,0v2.1c-0.2,0-0.5,0-0.7,0
		c-0.8,0-1.6,0.4-1.6,1.6v5.2h-2.2L501.2,301.9L501.2,301.9z"/>
	<path class="st9" d="M510.2,301.7c2.7,0,3.4,1.5,3.4,4.5c0,2.9-0.9,4.5-3.4,4.5c-2.7,0-3.4-1.5-3.4-4.5
		C506.8,303.3,507.7,301.7,510.2,301.7z M510.2,309.3c0.9,0,1.2-0.9,1.2-3s-0.3-3-1.2-3c-1.1,0-1.2,1.3-1.2,3
		S509.1,309.3,510.2,309.3z"/>
	<path class="st9" d="M447,323v0.3c0,1.1,0.3,1.8,1.5,1.8c0.7,0,1.4-0.4,1.4-1.4s-0.5-1.4-2-2c-2-0.7-3-1.6-3-3.5
		c0-2.2,1.4-3.4,3.5-3.4c2,0,3.5,0.9,3.5,3.1v0.3h-2.2c0-1.1-0.4-1.7-1.2-1.7c-1,0-1.3,0.7-1.3,1.3c0,0.7,0.2,1.1,1.2,1.6l1.8,0.8
		c1.7,0.8,2.2,1.6,2.2,3c0,2.4-1.5,3.5-4,3.5c-2.6,0-3.6-1.2-3.6-3.3V323H447z"/>
	<path class="st9" d="M458.5,325.6L458.5,325.6c-0.5,0.8-1.3,1.2-2.2,1.2c-1.4,0-2.2-0.8-2.2-2.4V318h2.2v5.9c0,0.9,0.3,1.2,0.9,1.2
		c0.8,0,1.2-0.5,1.2-1.4V318h2.2v8.6h-2.1V325.6z"/>
	<path class="st9" d="M462.8,315.1h2.2v11.4h-2.2V315.1z"/>
	<path class="st9" d="M467.2,320.6v-0.2c0-2,1.4-2.7,3-2.7c2.6,0,3.1,1.1,3.1,2.6v4.5c0,0.8,0,1.2,0.3,1.7h-2.1
		c-0.1-0.3-0.2-0.6-0.3-0.9l0,0c-0.5,0.9-1.1,1.1-2.2,1.1c-1.5,0-2.1-1.3-2.1-2.5c0-1.6,0.7-2.3,2.2-2.7l1.2-0.3
		c0.7-0.2,0.9-0.4,0.9-1c0-0.7-0.3-1.1-1-1.1s-1,0.4-1,1.1v0.2h-2V320.6z M471.2,322.3c-0.3,0.2-0.7,0.4-0.9,0.4
		c-0.9,0.2-1.2,0.6-1.2,1.4c0,0.7,0.2,1.2,0.8,1.2s1.4-0.4,1.4-1.3L471.2,322.3L471.2,322.3z"/>
</g>
<g>
	<path class="st9" d="M180.7,438.1h2.8l3,11.4h-2.4l-0.5-2.4h-3l-0.5,2.4h-2.4L180.7,438.1z M181,445.2h2.2l-1.1-5.1l0,0L181,445.2z
		"/>
	<path class="st9" d="M188,440.9h2.1v1l0,0c0.5-0.8,1.3-1.2,2.2-1.2c1.4,0,2.2,0.8,2.2,2.4v6.4h-2.2v-5.9c0-0.9-0.3-1.2-0.9-1.2
		c-0.8,0-1.2,0.5-1.2,1.4v5.7H188V440.9z"/>
	<path class="st9" d="M197.1,438.5h2.2v2.5h1.3v1.5h-1.3v4.7c0,0.7,0.1,0.9,0.8,0.9c0.2,0,0.4,0,0.5,0v1.5c-0.5,0-0.9,0.1-1.4,0.1
		c-1.7,0-2-0.5-2-2.3v-4.9H196V441h1.1V438.5z"/>
	<path class="st9" d="M202.1,438h2.2v1.9h-2.2V438z M202.1,440.9h2.2v8.6h-2.2V440.9z"/>
	<path class="st9" d="M212.9,440.9v8.2c0,2.3-1,3.4-3.6,3.4c-1.9,0-2.9-0.8-2.9-2.3h2.1c0,0.3,0.1,0.5,0.3,0.7
		c0.2,0.1,0.5,0.2,0.7,0.2c0.9,0,1.2-0.7,1.2-1.6v-1.1l0,0c-0.4,0.6-1.1,1.1-1.8,1.1c-1.8,0-2.6-1.2-2.6-4.4c0-2,0.3-4.4,2.7-4.4
		c0.6,0,1.4,0.3,1.8,1.2l0,0v-1L212.9,440.9L212.9,440.9z M209.6,447.7c0.9,0,1.2-1,1.2-2.5c0-2.1-0.3-2.9-1.2-2.9
		c-1,0-1.2,0.8-1.2,3.1C208.5,446.7,208.7,447.7,209.6,447.7z"/>
	<path class="st9" d="M219.5,448.5L219.5,448.5c-0.5,0.8-1.3,1.2-2.2,1.2c-1.4,0-2.2-0.8-2.2-2.4v-6.4h2.2v5.9
		c0,0.9,0.3,1.2,0.9,1.2c0.8,0,1.2-0.5,1.2-1.4v-5.7h2.2v8.6h-2.1L219.5,448.5L219.5,448.5z"/>
	<path class="st9" d="M223.7,443.6v-0.2c0-2,1.4-2.7,3-2.7c2.6,0,3.1,1.1,3.1,2.6v4.5c0,0.8,0,1.2,0.3,1.7H228
		c-0.1-0.3-0.2-0.6-0.3-0.9l0,0c-0.5,0.9-1.1,1.1-2.2,1.1c-1.5,0-2.1-1.3-2.1-2.5c0-1.6,0.7-2.3,2.2-2.7l1.2-0.3
		c0.7-0.2,0.9-0.4,0.9-1c0-0.7-0.3-1.1-1-1.1s-1,0.4-1,1.1v0.2h-2L223.7,443.6L223.7,443.6z M227.8,445.2c-0.3,0.2-0.7,0.4-0.9,0.4
		c-0.9,0.2-1.2,0.6-1.2,1.4c0,0.7,0.2,1.2,0.8,1.2s1.4-0.4,1.4-1.3v-1.7H227.8z"/>
	<path class="st9" d="M183.6,457.5c0-0.8-0.4-1.9-1.3-1.9c-1.1,0-1.6,1.2-1.6,4s0.3,4.5,1.6,4.5c0.5,0,1.4-0.6,1.4-1.8v-1.2h-1.5
		v-1.7h3.7v6.2h-1.7v-1.1l0,0c-0.5,0.9-1.3,1.3-2.4,1.3c-2.8,0-3.4-2.1-3.4-6.1c0-3.8,0.9-5.8,3.8-5.8c2.5,0,3.6,1.3,3.6,3.6H183.6z
		"/>
	<path class="st9" d="M192.4,464.5L192.4,464.5c-0.5,0.8-1.3,1.2-2.2,1.2c-1.4,0-2.2-0.8-2.2-2.4v-6.4h2.2v5.9
		c0,0.9,0.3,1.2,0.9,1.2c0.8,0,1.2-0.5,1.2-1.4v-5.7h2.2v8.6h-2.1L192.4,464.5L192.4,464.5z"/>
	<path class="st9" d="M196.6,459.6v-0.2c0-2,1.4-2.7,3-2.7c2.6,0,3.1,1.1,3.1,2.6v4.5c0,0.8,0,1.2,0.3,1.7h-2.1
		c-0.1-0.3-0.2-0.6-0.3-0.9l0,0c-0.5,0.9-1.1,1.1-2.2,1.1c-1.5,0-2.1-1.3-2.1-2.5c0-1.6,0.7-2.3,2.2-2.7l1.2-0.3
		c0.7-0.2,0.9-0.4,0.9-1c0-0.7-0.3-1.1-1-1.1s-1,0.4-1,1.1v0.2h-2L196.6,459.6L196.6,459.6z M200.6,461.2c-0.3,0.2-0.7,0.4-0.9,0.4
		c-0.9,0.2-1.2,0.6-1.2,1.4c0,0.7,0.2,1.2,0.8,1.2s1.4-0.4,1.4-1.3v-1.7H200.6z"/>
	<path class="st9" d="M205.4,454.5h2.2v2.5h1.3v1.5h-1.3v4.7c0,0.7,0.1,0.9,0.8,0.9c0.2,0,0.4,0,0.5,0v1.5c-0.5,0-0.9,0.1-1.4,0.1
		c-1.7,0-2-0.5-2-2.3v-4.9h-1.1V457h1.1v-2.5H205.4z"/>
	<path class="st9" d="M212.2,461.6v0.7c0,1,0.3,2,1.1,2c0.7,0,1-0.6,1.2-1.6h2c-0.1,2-1,3.1-3.1,3.1c-3.2,0-3.3-2.5-3.3-4.6
		c0-2.3,0.4-4.5,3.4-4.5c2.6,0,3.2,1.7,3.2,4.4v0.5H212.2z M214.5,460.2c0-1.3-0.2-2-1.1-2c-0.9,0-1.1,0.9-1.1,1.7v0.3H214.5z"/>
	<path class="st9" d="M218.4,456.9h2.1v0.9l0,0c0.6-0.8,1.2-1.1,2.2-1.1s1.7,0.5,2,1.4l0,0c0.3-0.9,1.1-1.4,2.2-1.4
		c1.5,0,2.1,0.9,2.1,2.6v6.3h-2.2v-6c0-0.7-0.2-1.1-0.9-1.1s-1.2,0.5-1.2,1.5v5.7h-2.2v-6c0-0.7-0.2-1.1-0.9-1.1s-1.2,0.5-1.2,1.5
		v5.7h-2.2v-8.9H218.4z"/>
	<path class="st9" d="M231.1,459.6v-0.2c0-2,1.4-2.7,3-2.7c2.6,0,3.1,1.1,3.1,2.6v4.5c0,0.8,0,1.2,0.3,1.7h-2.1
		c-0.1-0.3-0.2-0.6-0.3-0.9l0,0c-0.5,0.9-1.1,1.1-2.2,1.1c-1.5,0-2.1-1.3-2.1-2.5c0-1.6,0.7-2.3,2.2-2.7l1.2-0.3
		c0.7-0.2,0.9-0.4,0.9-1c0-0.7-0.3-1.1-1-1.1s-1,0.4-1,1.1v0.2h-2L231.1,459.6L231.1,459.6z M235.2,461.2c-0.3,0.2-0.7,0.4-0.9,0.4
		c-0.9,0.2-1.2,0.6-1.2,1.4c0,0.7,0.2,1.2,0.8,1.2s1.4-0.4,1.4-1.3v-1.7H235.2z"/>
	<path class="st9" d="M239.6,454.1h2.2v11.4h-2.2V454.1z"/>
	<path class="st9" d="M243.9,459.6v-0.2c0-2,1.4-2.7,3-2.7c2.6,0,3.1,1.1,3.1,2.6v4.5c0,0.8,0,1.2,0.3,1.7h-2.1
		c-0.1-0.3-0.2-0.6-0.3-0.9l0,0c-0.5,0.9-1.1,1.1-2.2,1.1c-1.5,0-2.1-1.3-2.1-2.5c0-1.6,0.7-2.3,2.2-2.7l1.2-0.3
		c0.7-0.2,0.9-0.4,0.9-1c0-0.7-0.3-1.1-1-1.1s-1,0.4-1,1.1v0.2h-2L243.9,459.6L243.9,459.6z M248,461.2c-0.3,0.2-0.7,0.4-0.9,0.4
		c-0.9,0.2-1.2,0.6-1.2,1.4c0,0.7,0.2,1.2,0.8,1.2s1.4-0.4,1.4-1.3v-1.7H248z"/>
</g>
<g>
	<path class="st9" d="M133.6,369.8v0.3c0,1.1,0.3,1.8,1.5,1.8c0.7,0,1.4-0.4,1.4-1.4s-0.5-1.4-2-2c-2-0.7-3-1.6-3-3.5
		c0-2.2,1.4-3.4,3.5-3.4c2,0,3.5,0.9,3.5,3.1v0.3h-2.2c0-1.1-0.4-1.7-1.2-1.7c-1,0-1.3,0.7-1.3,1.3c0,0.7,0.2,1.1,1.2,1.6l1.8,0.8
		c1.7,0.8,2.2,1.6,2.2,3c0,2.4-1.5,3.5-4,3.5c-2.6,0-3.6-1.2-3.6-3.3v-0.5h2.2L133.6,369.8L133.6,369.8z"/>
	<path class="st9" d="M140.6,367.4v-0.2c0-2,1.4-2.7,3-2.7c2.6,0,3.1,1.1,3.1,2.6v4.5c0,0.8,0,1.2,0.3,1.7h-2.1
		c-0.1-0.3-0.2-0.6-0.3-0.9l0,0c-0.5,0.9-1.1,1.1-2.2,1.1c-1.5,0-2.1-1.3-2.1-2.5c0-1.6,0.7-2.3,2.2-2.7l1.2-0.3
		c0.7-0.2,0.9-0.4,0.9-1c0-0.7-0.3-1.1-1-1.1s-1,0.4-1,1.1v0.2h-2L140.6,367.4L140.6,367.4z M144.6,369.1c-0.3,0.2-0.7,0.4-0.9,0.4
		c-0.9,0.2-1.2,0.6-1.2,1.4c0,0.7,0.2,1.2,0.8,1.2s1.4-0.4,1.4-1.3v-1.7H144.6z"/>
	<path class="st9" d="M149,364.8h2.1v1l0,0c0.5-0.8,1.3-1.2,2.2-1.2c1.4,0,2.2,0.8,2.2,2.4v6.4h-2.2v-5.9c0-0.9-0.3-1.2-0.9-1.2
		c-0.8,0-1.2,0.5-1.2,1.4v5.7H149V364.8z"/>
	<path class="st9" d="M158.1,362.3h2.2v2.5h1.3v1.5h-1.3v4.7c0,0.7,0.1,0.9,0.8,0.9c0.2,0,0.4,0,0.5,0v1.5c-0.5,0-0.9,0.1-1.4,0.1
		c-1.7,0-2-0.5-2-2.3v-4.9H157v-1.5h1.1V362.3z"/>
	<path class="st9" d="M163.1,361.8h2.2v1.9h-2.2V361.8z M163.1,364.8h2.2v8.6h-2.2V364.8z"/>
	<path class="st9" d="M167.4,367.4v-0.2c0-2,1.4-2.7,3-2.7c2.6,0,3.1,1.1,3.1,2.6v4.5c0,0.8,0,1.2,0.3,1.7h-2.1
		c-0.1-0.3-0.2-0.6-0.3-0.9l0,0c-0.5,0.9-1.1,1.1-2.2,1.1c-1.5,0-2.1-1.3-2.1-2.5c0-1.6,0.7-2.3,2.2-2.7l1.2-0.3
		c0.7-0.2,0.9-0.4,0.9-1c0-0.7-0.3-1.1-1-1.1s-1,0.4-1,1.1v0.2h-2L167.4,367.4L167.4,367.4z M171.5,369.1c-0.3,0.2-0.7,0.4-0.9,0.4
		c-0.9,0.2-1.2,0.6-1.2,1.4c0,0.7,0.2,1.2,0.8,1.2s1.4-0.4,1.4-1.3v-1.7H171.5z"/>
	<path class="st9" d="M182.2,364.8v8.2c0,2.3-1,3.4-3.6,3.4c-1.9,0-2.9-0.8-2.9-2.3h2.1c0,0.3,0.1,0.5,0.3,0.7
		c0.2,0.1,0.5,0.2,0.7,0.2c0.9,0,1.2-0.7,1.2-1.6v-1.1l0,0c-0.4,0.6-1.1,1.1-1.8,1.1c-1.8,0-2.6-1.2-2.6-4.4c0-2,0.3-4.4,2.7-4.4
		c0.6,0,1.4,0.3,1.8,1.2l0,0v-1L182.2,364.8L182.2,364.8z M178.9,371.6c0.9,0,1.2-1,1.2-2.5c0-2.1-0.3-2.9-1.2-2.9
		c-1,0-1.2,0.8-1.2,3.1C177.8,370.6,178,371.6,178.9,371.6z"/>
	<path class="st9" d="M187.5,364.6c2.7,0,3.4,1.5,3.4,4.5c0,2.9-0.9,4.5-3.4,4.5c-2.7,0-3.4-1.5-3.4-4.5
		C184.1,366.2,185,364.6,187.5,364.6z M187.5,372.1c0.9,0,1.2-0.9,1.2-3s-0.3-3-1.2-3c-1.1,0-1.2,1.3-1.2,3S186.5,372.1,187.5,372.1
		z"/>
	<path class="st9" d="M98.1,385.8v0.3c0,1.1,0.3,1.8,1.5,1.8c0.7,0,1.4-0.4,1.4-1.4s-0.5-1.4-2-2c-2-0.7-3-1.6-3-3.5
		c0-2.2,1.4-3.4,3.5-3.4c2,0,3.5,0.9,3.5,3.1v0.3h-2.2c0-1.1-0.4-1.7-1.2-1.7c-1,0-1.3,0.7-1.3,1.3c0,0.7,0.2,1.1,1.2,1.6l1.8,0.8
		c1.7,0.8,2.2,1.6,2.2,3c0,2.4-1.5,3.5-4,3.5c-2.6,0-3.6-1.2-3.6-3.3v-0.5h2.2V385.8z"/>
	<path class="st9" d="M105.1,383.4v-0.2c0-2,1.4-2.7,3-2.7c2.6,0,3.1,1.1,3.1,2.6v4.5c0,0.8,0,1.2,0.3,1.7h-2.1
		c-0.1-0.3-0.2-0.6-0.3-0.9l0,0c-0.5,0.9-1.1,1.1-2.2,1.1c-1.5,0-2.1-1.3-2.1-2.5c0-1.6,0.7-2.3,2.2-2.7l1.2-0.3
		c0.7-0.2,0.9-0.4,0.9-1c0-0.7-0.3-1.1-1-1.1s-1,0.4-1,1.1v0.2h-2V383.4z M109.2,385.1c-0.3,0.2-0.7,0.4-0.9,0.4
		c-0.9,0.2-1.2,0.6-1.2,1.4c0,0.7,0.2,1.2,0.8,1.2s1.4-0.4,1.4-1.3v-1.7H109.2z"/>
	<path class="st9" d="M117.6,383.9c0-0.8-0.2-1.7-1-1.7c-1.1,0-1.3,1-1.3,2.9c0,2.1,0.2,3,1.2,3c0.7,0,1.1-0.6,1.1-2h2.1
		c0,2.3-0.9,3.5-3.3,3.5c-2.2,0-3.3-1.1-3.3-4.5c0-3.5,1.5-4.5,3.5-4.5s3.1,1.3,3.1,3.3L117.6,383.9L117.6,383.9z"/>
	<path class="st9" d="M121.5,383.4v-0.2c0-2,1.4-2.7,3-2.7c2.6,0,3.1,1.1,3.1,2.6v4.5c0,0.8,0,1.2,0.3,1.7h-2.1
		c-0.1-0.3-0.2-0.6-0.3-0.9l0,0c-0.5,0.9-1.1,1.1-2.2,1.1c-1.5,0-2.1-1.3-2.1-2.5c0-1.6,0.7-2.3,2.2-2.7l1.2-0.3
		c0.7-0.2,0.9-0.4,0.9-1c0-0.7-0.3-1.1-1-1.1s-1,0.4-1,1.1v0.2h-2V383.4z M125.5,385.1c-0.3,0.2-0.7,0.4-0.9,0.4
		c-0.9,0.2-1.2,0.6-1.2,1.4c0,0.7,0.2,1.2,0.8,1.2s1.4-0.4,1.4-1.3v-1.7H125.5z"/>
	<path class="st9" d="M130.3,378.3h2.2v2.5h1.3v1.5h-1.3v4.7c0,0.7,0.1,0.9,0.8,0.9c0.2,0,0.4,0,0.5,0v1.5c-0.5,0-0.9,0.1-1.4,0.1
		c-1.7,0-2-0.5-2-2.3v-4.9h-1.1v-1.5h1.1v-2.5L130.3,378.3L130.3,378.3z"/>
	<path class="st9" d="M137.1,385.4v0.7c0,1,0.3,2,1.1,2c0.7,0,1-0.6,1.2-1.6h2c-0.1,2-1,3.1-3.1,3.1c-3.2,0-3.3-2.5-3.3-4.6
		c0-2.3,0.4-4.4,3.4-4.4c2.6,0,3.2,1.7,3.2,4.4v0.5h-4.5L137.1,385.4L137.1,385.4z M139.4,384.1c0-1.3-0.2-2-1.1-2
		c-0.9,0-1.1,0.9-1.1,1.7v0.3H139.4z"/>
	<path class="st9" d="M143.3,380.8h2.1v0.9l0,0c0.5-0.8,1.1-1.1,2-1.1c1.8,0,2.6,1.3,2.6,4.5s-0.8,4.5-2.6,4.5c-0.8,0-1.4-0.3-1.9-1
		l0,0v3.6h-2.2L143.3,380.8L143.3,380.8z M146.7,387.9c1,0,1.2-1,1.2-2.8s-0.2-2.8-1.2-2.8s-1.2,1-1.2,2.8S145.7,387.9,146.7,387.9z
		"/>
	<path class="st9" d="M153.8,385.4v0.7c0,1,0.3,2,1.1,2c0.7,0,1-0.6,1.2-1.6h2c-0.1,2-1,3.1-3.1,3.1c-3.2,0-3.3-2.5-3.3-4.6
		c0-2.3,0.4-4.4,3.4-4.4c2.6,0,3.2,1.7,3.2,4.4v0.5h-4.5L153.8,385.4L153.8,385.4z M156.1,384.1c0-1.3-0.2-2-1.1-2
		c-0.9,0-1.1,0.9-1.1,1.7v0.3H156.1z"/>
	<path class="st9" d="M164.3,388.6L164.3,388.6c-0.5,0.7-1.1,1-1.9,1c-1.8,0-2.6-1.3-2.6-4.5s0.8-4.5,2.6-4.5c0.9,0,1.5,0.3,2,1.1
		l0,0v-0.9h2.1v11.4h-2.2L164.3,388.6L164.3,388.6z M163.1,382.3c-1,0-1.2,1-1.2,2.8s0.2,2.8,1.2,2.8s1.2-1,1.2-2.8
		S164.1,382.3,163.1,382.3z"/>
	<path class="st9" d="M173,388.4L173,388.4c-0.5,0.8-1.3,1.2-2.2,1.2c-1.4,0-2.2-0.8-2.2-2.4v-6.4h2.2v5.9c0,0.9,0.3,1.2,0.9,1.2
		c0.8,0,1.2-0.5,1.2-1.4v-5.7h2.2v8.6H173V388.4z"/>
	<path class="st9" d="M179.1,385.4v0.7c0,1,0.3,2,1.1,2c0.7,0,1-0.6,1.2-1.6h2c-0.1,2-1,3.1-3.1,3.1c-3.2,0-3.3-2.5-3.3-4.6
		c0-2.3,0.4-4.4,3.4-4.4c2.6,0,3.2,1.7,3.2,4.4v0.5h-4.5L179.1,385.4L179.1,385.4z M181.4,384.1c0-1.3-0.2-2-1.1-2
		c-0.9,0-1.1,0.9-1.1,1.7v0.3H181.4z"/>
	<path class="st9" d="M184.9,387.7l3.4-5.1H185v-1.8h5.9v1.7l-3.4,5.1h3.4v1.8h-6.1v-1.7H184.9z"/>
</g>
<g>
	<path class="st9" d="M46.6,396.5h4c2.3,0,3.1,1.7,3.1,3.4c0,2.4-1.5,3.4-3.6,3.4h-1.2v4.6h-2.3V396.5z M48.9,401.7h1
		c0.9,0,1.5-0.5,1.5-1.7c0-1.1-0.4-1.8-1.6-1.8h-1L48.9,401.7L48.9,401.7z"/>
	<path class="st9" d="M55.4,401.9v-0.2c0-2,1.4-2.7,3-2.7c2.6,0,3.1,1.1,3.1,2.6v4.5c0,0.8,0,1.2,0.3,1.7h-2.1
		c-0.1-0.3-0.2-0.6-0.3-0.9l0,0c-0.5,0.9-1.1,1.1-2.2,1.1c-1.5,0-2.1-1.3-2.1-2.5c0-1.6,0.7-2.3,2.2-2.7l1.2-0.3
		c0.7-0.2,0.9-0.4,0.9-1c0-0.7-0.3-1.1-1-1.1s-1,0.4-1,1.1v0.2h-2C55.4,401.7,55.4,401.9,55.4,401.9z M59.5,403.6
		c-0.3,0.2-0.7,0.4-0.9,0.4c-0.9,0.2-1.2,0.6-1.2,1.4c0,0.7,0.2,1.2,0.8,1.2s1.4-0.4,1.4-1.3L59.5,403.6L59.5,403.6z"/>
	<path class="st9" d="M63.8,399.3h2.1v1l0,0c0.5-0.8,1.3-1.2,2.2-1.2c1.4,0,2.2,0.8,2.2,2.4v6.4h-2.2V402c0-0.9-0.3-1.2-0.9-1.2
		c-0.8,0-1.2,0.5-1.2,1.4v5.7h-2.2V399.3z"/>
	<path class="st9" d="M72.4,401.9v-0.2c0-2,1.4-2.7,3-2.7c2.6,0,3.1,1.1,3.1,2.6v4.5c0,0.8,0,1.2,0.3,1.7h-2.1
		c-0.1-0.3-0.2-0.6-0.3-0.9l0,0c-0.5,0.9-1.1,1.1-2.2,1.1c-1.5,0-2.1-1.3-2.1-2.5c0-1.6,0.7-2.3,2.2-2.7l1.2-0.3
		c0.7-0.2,0.9-0.4,0.9-1c0-0.7-0.3-1.1-1-1.1s-1,0.4-1,1.1v0.2h-2V401.9z M76.4,403.6c-0.3,0.2-0.7,0.4-0.9,0.4
		c-0.9,0.2-1.2,0.6-1.2,1.4c0,0.7,0.2,1.2,0.8,1.2s1.4-0.4,1.4-1.3v-1.7H76.4z"/>
	<path class="st9" d="M80.8,399.3H83v9.2c0,1.4-0.5,2.2-2.5,2.2c-0.3,0-0.6,0-0.9,0v-1.6c0.1,0,0.2,0,0.4,0c0.8,0,0.9-0.4,0.9-1.4
		L80.8,399.3L80.8,399.3z M80.8,396.4H83v1.9h-2.2V396.4z"/>
	<path class="st9" d="M85.2,401.9v-0.2c0-2,1.4-2.7,3-2.7c2.6,0,3.1,1.1,3.1,2.6v4.5c0,0.8,0,1.2,0.3,1.7h-2.1
		c-0.1-0.3-0.2-0.6-0.3-0.9l0,0c-0.5,0.9-1.1,1.1-2.2,1.1c-1.5,0-2.1-1.3-2.1-2.5c0-1.6,0.7-2.3,2.2-2.7l1.2-0.3
		c0.7-0.2,0.9-0.4,0.9-1c0-0.7-0.3-1.1-1-1.1s-1,0.4-1,1.1v0.2h-2V401.9z M89.3,403.6c-0.3,0.2-0.7,0.4-0.9,0.4
		c-0.9,0.2-1.2,0.6-1.2,1.4c0,0.7,0.2,1.2,0.8,1.2s1.4-0.4,1.4-1.3v-1.7H89.3z"/>
	<path class="st9" d="M97.7,402.4c0-0.8-0.2-1.7-1-1.7c-1.1,0-1.3,1-1.3,2.9c0,2.1,0.2,3,1.2,3c0.7,0,1.1-0.6,1.1-2h2.1
		c0,2.3-0.9,3.5-3.3,3.5c-2.2,0-3.3-1.1-3.3-4.5c0-3.5,1.5-4.5,3.5-4.5s3.1,1.3,3.1,3.3L97.7,402.4L97.7,402.4z"/>
	<path class="st9" d="M101.6,396.5h2.2v3.7l0,0c0.4-0.7,1.2-1.1,2.1-1.1c1.4,0,2.2,0.8,2.2,2.4v6.4h-2.2V402c0-0.9-0.3-1.2-0.9-1.2
		c-0.8,0-1.2,0.5-1.2,1.4v5.7h-2.2V396.5z"/>
	<path class="st9" d="M112.1,403.9v0.7c0,1,0.3,2,1.1,2c0.7,0,1-0.6,1.2-1.6h2c-0.1,2-1,3.1-3.1,3.1c-3.2,0-3.3-2.5-3.3-4.6
		c0-2.3,0.4-4.5,3.4-4.5c2.6,0,3.2,1.7,3.2,4.4v0.5H112.1z M114.4,402.6c0-1.3-0.2-2-1.1-2s-1.1,0.9-1.1,1.7v0.3H114.4z"/>
	<path class="st9" d="M118.4,396.5h2.2v11.4h-2.2V396.5z"/>
</g>
<g>
	<circle class="st10" cx="207.6" cy="399.5" r="6.4"/>
	<path class="st11" d="M207.6,390c-5,0-9,4-9,9c0,2,1.3,5.3,3.9,10c1.9,3.3,3.7,6.1,3.8,6.2l1.3,2l1.3-2c0.1-0.1,1.9-2.9,3.8-6.2
		c2.6-4.7,3.9-8,3.9-10C216.6,394,212.5,390,207.6,390z M207.6,403.6c-2.6,0-4.7-2.1-4.7-4.7s2.1-4.7,4.7-4.7c2.6,0,4.7,2.1,4.7,4.7
		C212.2,401.5,210.2,403.6,207.6,403.6z"/>
</g>
</svg>
