<?xml version="1.0" encoding="utf-8"?>
<!-- Generator: Adobe Illustrator 25.0.1, SVG Export Plug-In . SVG Version: 6.00 Build 0)  -->
<svg version="1.1" xmlns="http://www.w3.org/2000/svg" xmlns:xlink="http://www.w3.org/1999/xlink" x="0px" y="0px"
	 viewBox="0 0 752.7 578.1" style="enable-background:new 0 0 752.7 578.1;" xml:space="preserve">
<style type="text/css">
	.st0{fill:none;stroke:#EDEDEC;stroke-width:2;stroke-miterlimit:3.8637;}
	.st1{fill:#D9D9D9;}
	.st2{fill:#EDEDEC;}
	.st3{fill:#E2E2E3;}
	.st4{fill:#CECFCF;}
	.st5{fill:none;stroke:#6886AB;stroke-miterlimit:3.8637;}
	.st6{fill:#6886AB;}
	.st7{fill:#A6A6A5;}
	.st8{fill:#20201E;}
	.st9{fill:#6E6E6D;}
	.st10{fill:none;stroke:#B85C35;stroke-width:2;stroke-miterlimit:10;stroke-dasharray:3,3;}
	.st11{fill:none;stroke:#B85C35;stroke-width:2;stroke-miterlimit:10;}
	.st12{fill:#FFFFFF;}
	.st13{fill:#B85C35;}
</style>
<g id="Sambia">
	<path class="st0" d="M692.1,291.8c0,0,8.5-4.1,13.3-4.1c7.7,0,12.4,0.4,14.7,0.7c1.1,0.1,2.1,0.5,3.1,0.9c1.7,0.8,4.5,2.2,6.2,2.4
		c0,0,5.7,2.5,11.2,2.7s12.1,0,12.1,0"/>
	<path class="st1" d="M408,0.4l27.2,106l54.7,16.9c0,0,57.2-5.8,60.9-7c2.1-0.7,5.2-2.5,7.3-2.4c1.5,0.1,2.1,2,3.6,2.3
		c6.1,1.3,10.4-0.2,14.3-2.2c3.9-2,5.3-2.4,12.4,0.5c6.9,2.9,8.3,3.7,18.1,0c8.4-3.2,7.7-4.2,11.6-8.2c4-4,15.7-22.4,15.7-22.4
		l7.7-7.9l12.6-8.9l12.1-7.8L677,57c0,0,4.5-3.6,3.9-8.8c-0.8-7.7,2.1-13.9,10.7-20.1C710.7,14.4,752.7,18,752.7,18V0L408,0.4z"/>
</g>
<g id="Angola">
	<path class="st2" d="M14.1,92.5c0,0,5.5-21.3,4.2-31.8c-1.3-10.6-2.4-16.4-2-20.2c0.4-3.9-1.5-4.9-2.2-7.2
		c-0.7-2.3-0.5-5.6,2.2-6.6s5-3.3,7.3-5.6s-3.3-6.9,0-12.9s3.3-7.9,3.3-7.9h391.5c0,0-2.8,30.9,0,37.2s2.2,9.9,4.9,14.4
		c2.8,4.5,3.3,11.9,5.6,14.5c2.3,2.6,12.3,11.3,16.3,16.4s8.8,8.5,12.1,11.1s5.5,1.8,5,6.3c-0.5,4.5-0.5,6.2-0.5,6.2l-163.1,42.8
		L156,122.1L14.1,92.5z"/>
</g>
<g id="Ebene_1">
	<path class="st1" d="M330.4,398.6c0,0,17.7,4.9,21.9,9.4c4.2,4.5,16.7,26.1,16.7,30.6c0,4.5-3.8,26.1-5.9,31.3
		c-2.1,5.2-7.3,13.2-0.7,13.9c6.6,0.7,2.4-0.7,19.8,0c17.4,0.7,20.5-5.6,23.3-9.4c2.8-3.8,10.1-1,11.5-4.5c1.4-3.5,5.2-10.8,8-11.5
		c2.8-0.7,11.8-6.3,12.5-9.4c0.7-3.1,11.1-30.9,15-33.7c3.8-2.8,12.9-6.3,17-2.8c4.2,3.5,11.1,12.2,15.7,12.2c4.5,0,12.9,0.3,16,3.1
		c3.1,2.8,9.4,6.3,14.6,4.9c5.2-1.4,15.6-4.9,19.8-4.9c4.2,0,10.8,0,10.8,0s6.6-27.1,7.3-29.9c0.7-2.8,4.2-4.2,8-3.5
		c3.8,0.7,26.4-16.3,28.5-19.1c2.1-2.8,7.3-21.6,10.8-26.1c3.5-4.5,17.4-11.8,17.4-11.8s2.8-9.7,6.6-8.7c3.8,1,4.5,2.1,7.3-0.7
		c2.8-2.8,12.5-18.1,15.3-19.5c2.8-1.4,11.8-1.7,15.3-3.1c3.5-1.4,10.1-4.9,10.1-4.9l7.3-8.7c0,0,11.8,2.4,13.2,0
		c1.4-2.4-13.9-5.6-13.9-9.4c0-3.8,3.1-9-1.4-9.7s-15.3-8.3-22.6-8c-7.3,0.3-12.5,4.2-15.3,1c-2.8-3.1-5.6-19.5-8.7-22.6
		c-3.1-3.1,7.7-20.2,4.2-23.3c-3.5-3.1-12.5,3.5-15.3,0.7c-2.8-2.8-2.4-15-8-18.1c-5.6-3.1-23.7-6.6-28.2-13.2s-9.1-11.8-10.8-15.3
		c-1.7-3.5-6.6-8.3-5.9-13.9c0.7-5.6,4.5-4.2,0-10.1c-4.5-5.9-11.8-13.9-14.6-16c-2.8-2.1-1.7-4.2-3.8-10.8c-2.1-6.6-7-13.9-7-13.9
		h-41.7l-66.8,7.3l-70.6,13.9l-16.7,106.8l-36.9,74.1L330.4,398.6L330.4,398.6z"/>
	<path class="st3" d="M544.1,108.2c0,0-3.6-7.3-9.3-8.8c-5.6-1.4-7.7,1.5-12,1.1c-4.3-0.5-7.4-5.4-9.8-5.4c-2.4,0-15.6,2.7-17.9,2.7
		c-2.3,0-45.7,7.5-49.4,8c-3.7,0.5-40,7.5-46.1,8c-6.1,0.5-9.8-3.7-13.1-3.2c-3.3,0.5-8.5,4.2-11.8,5.2c-3.3,1-4.5,1.5-6.9,0.5
		c-2.4-1-14.3-7.1-14.3-7.1s-11.2,2.4-15,1.4c-3.8-1-15.5-3.8-17.9-3.8c-2.4,0-13.1-2.1-15.5-1.8c-2.4,0.4-5.1,2.3-8.5,1.3
		c-3.3-1-17.8-18.3-20.2-18.3c-2.4,0-75.2-1.3-80.5,0.5c-5.3,1.8-42,2.3-44.8,2.3c-2.7,0-35.3-1.4-40,0c-4.7,1.4-6.2,1.9-9.9,1
		c-3.7-1-23.4-18.4-26.7-18.4c-3.3,0-6.7-0.5-10.4,1.9c-3.7,2.4-13.7,11.3-16.5,11.3c-2.7,0-7.2,0-9.4,0c-2.3,0-6.1,1.9-6.1,1.9
		s-6.1-4.8-8.5-3.8c-2.4,1-9.9,5.6-9.9,8.5c0,2.9,0,13.6,0,13.6s4.3,11,4.3,14.2c0,3.2,6.1,17.3,8,19.7c1.9,2.4,17.6,14.6,18.4,17.4
		c0.8,2.9,10.3,19.2,11.2,22.6c1,3.3,11.9,21.7,13.3,25.4c1.3,3.7,8.4,9.3,8.4,14.1c0,4.8,1.9,9.6,3.8,11.8
		c1.9,2.3,1.8,5.1,5.6,12.2c3.8,7,23,38.1,23,38.1s17.4,24.1,18.9,27.8c1.4,3.7,1,15,1,15s-5.6,4.2-5.6,6.1c0,1.9,5.6,7,4.2,10.4
		c-1.4,3.3-2.9,5.6-1.9,7.5c1,1.9,3.8,3.8,3.3,8.5c-0.5,4.7-2.4,16.6-1.4,18.9c1,2.3,14.1,22.1,14.1,28.7c0,6.6,2.9,20.7,2.4,23.5
		c-0.5,2.9,3.3,5.6,2.4,9c-1,3.3-2.4,6.1-1.9,8.5c0.5,2.4,4.7,6.2,4.7,9.4c0,3.2-1.4,10.7,0.5,12.7c1.9,1.9,7,5.1,8,8.5
		c1,3.3,0.4,5.3-0.5,9.4c-0.8,4.2,6.7,12.2,6.7,14.1c0,1.9-1.3,10,0,11.8c1.3,1.8,14.4,27.8,17.8,31s22.2,23,22.2,23s6,0.6,7.7-1
		c2.6-2.6,2.8-5.9,3.8-8c1.4-2.8,4.9-5.1,6.4-6.3c4.5-1.6,0-9.6,5.6-8.6c5.6,1,5,7.1,7.2,7.6c2.3,0.5,3.4,0.7,4.3,3
		c1,2.3-3.3,10.2-1.4,13c1.9,2.9,2.3,2.6,6.4,4.5c2.2,1,4.5,2.8,8,3.3c5.6,0.9,11.5,1.2,11.5,1.2s4,1,6.8,1c2.7,0,3.6,0.7,7.9,0.7
		c4.3,0,4-0.4,11.6-0.4c8.5,0,11.1,3.3,13.4,1.4c2.3-1.9,7-5.7,7-5.7s3.7,1.4,5-0.7c2.3-3.5,2.3-5,2.3-5s16.7-8,17.9-9.7
		c1.7-2.4,1.7-269.7,1.7-269.7l37.6-0.5c0,0-0.5-5.1-0.5-7.5c0-2.4,1.9-82.9,1.9-82.9s2.4-24.4,2.4-27.7c0-3.3-0.5-36.8-0.5-36.8
		s40-4.2,45.6-4.7c5.6-0.5,34.7-11.8,39.5-10.4c4.8,1.4,14.1,11.2,15,13.6c1,2.4,7,5.3,9,3.8c1.9-1.4,19-15,21.3-16
		c2.3-1,8.4,5.5,10.3,4.2c1.9-1.3,3.2-6.7,7-8.5c3.8-1.8,7.8-5.4,10.2-4.4c2.4,1,5.1,5.7,8,4.3C547.2,111.8,544.1,108.2,544.1,108.2
		L544.1,108.2z"/>
	<path class="st4" d="M446,240.2c0,0-3.5,45-4.5,47c-1,2-1.5,25.5-2,27.5c-0.5,2-2.5,16.5-2.5,16.5s46.5,1,46,3.5
		c-0.5,2.5-6.5,14.5-2.5,15.5c4,1,8.5,0,12,0c3.5,0,8-18,16.5-18c8.5,0,18.5,0.5,21.5-0.5c3-1,10-6,10.5-9c0.5-3,3.5-0.5,0.5-5.5
		c-3-5-24.5-32-24.5-32s-6-11-7.5-14s-13.5-12.5-16.5-20s-6.5-11-6.5-11H467H446L446,240.2z"/>
	<path class="st1" d="M149.5,458.4c0.1-1.1,0.2-2.1,0.2-2.8c0-3.2-4.2-7-4.7-9.4c-0.5-2.4,1-5.1,1.9-8.5c1-3.3-2.9-6.1-2.4-9
		c0.5-2.9-2.4-17-2.4-23.5c0-6.6-13.1-26.4-14.1-28.7c-1-2.3,1-14.2,1.4-18.9c0.5-4.7-2.4-6.6-3.3-8.5c-1-1.9,0.5-4.2,1.9-7.5
		c1.4-3.3-4.2-8.5-4.2-10.4c0-1.9,5.6-6.1,5.6-6.1s0.5-11.3-1-15c-1.4-3.7-18.9-27.8-18.9-27.8s-19.2-31-23-38.1
		c-3.8-7-3.7-9.9-5.6-12.2c-1.9-2.3-3.8-7-3.8-11.8c0-4.8-7-10.4-8.4-14.1c-1.3-3.7-12.3-22.1-13.3-25.4c-1-3.3-10.4-19.7-11.2-22.6
		c-0.8-2.9-16.5-15-18.4-17.4c-1.9-2.4-8-16.5-8-19.7c0-3.2-4.3-14.2-4.3-14.2V93.2c0-2.9,7.5-7.5,9.9-8.5c0.6-0.2,1.4-0.1,2.3,0.2
		c0.7,11.4,1.7,26.6,2.1,33c0.8,11,13.7,21.7,15.2,24.8C44.8,145.8,65,174,65,174s2.3,3,6.5,3.4c4.2,0.4,19,38.9,24,48
		c5,9.1,27.8,48.8,32.8,56.8c5,8,16,27,22.5,32c6.5,5,17.5-1.9,20.6,2.3c3,4.2-0.8,5-0.8,11c0,6.1,6.5,6.5,8.8,9.9
		c2.3,3.4,0,7.6-1.5,11c-1.5,3.4,2.3,2.3,4.2,5.7c1.9,3.4-4.2,20.6-4.2,20.6s9.5,5,11,0.8c1.5-4.2,5-7.2,9.1-4.6
		c4.2,2.7,1.5,8.8-1.1,13.3c-2.7,4.6-4.6,5-11,4.2c-6.5-0.8-7.2,14.5-7.2,18.3c0,3.8,8.8-3,8.8-3s0,5.7-1.5,13.7
		c-1.5,8,9.5,11.8,10.3,16c0.8,4.2-9.5-1.1-9.5-1.1s0.8,4.2,5.7,6.5c5,2.3,0.8,6.5,1.5,10.7c0.8,4.2,3.4,6.1,5,8.8
		c1.5,2.7,7.2,6.1,7.2,11c0,5-2.7,6.5-8,6.5s-0.8,6.5-0.8,6.5s-10.7-5-16-5c-5.3,0-10.7,2.3-10.7,2.3l-2.3-24L149.5,458.4
		L149.5,458.4z"/>
	<path class="st5" d="M45.6,161.8c0,0,5.1-5.8,8.6-5.8c3.5,0,6.3,1.8,6.3-2.2c0-4.1-1.8-13.2,1.1-16c2.9-2.8,8.7-7.9,10.4-9.7
		c1.7-1.8,10.2-11.5,11.9-11.5s9.8-1.8,12.1,1.7s5.1,9.3,5.1,9.3l-1.1,6.7 M14.1,92.5c0,0,4.7-6.5,9.3-7.4c1.9-0.4,4.1-0.4,5.2,1.3
		c1.1,1.7,5.2,2.7,7.4,0.5c2.2-2.2,5.3,0,11.1,0S66,70.7,75.1,74c8.9,3.3,21.8,19.4,28.4,18.7c7.6-0.8,8.6-1.2,21.1-9.2
		c0,0,5.6-9.1,14.5-16.3c8.9-7.2,7.6-10.7,10.9-11.6c3.3-0.9,4.4-5.5,3.3-12.6c-1.1-7-4.6-18.7-1.3-27.5c3.3-8.8,4.2-15.3,4.2-15.3
		 M212.5,0.3c0,0,1.3,1.6,3.3,5.2s7.6,5.9,13.7,7.9c6.1,2,8.4,5,14.3,12.9c5.9,7.9,4,12,4,12c1.7,5.8,4.6,16,8.5,22.3
		c3.9,6.3,16.5,25.8,20,27.1c3.4,1.3,16.3,18.2,20.4,19c2.9,0.6,9.1-2.2,22.5-0.1c10.4,1.6,7.4,2.2,17.5,3.4
		c11.4,1.4,16-1.4,18.8,0.3s8.4,5.1,13.6,6.2c5.2,1.1,8-3.8,11.9-1.6c3.9,2.2,8.6,3.2,9.1,6.2c0.6,2.9-0.1,6.9,3.9,6.9s8,5.2,8,5.2
		s-0.1,4.6,1.7,6.3c1.8,1.7,8,0.4,8,3.9c0,3.5,0.1,7.4,4.1,8c3.9,0.6,5.8,1.3,6.3,3.5c0.6,2.2,0,6.3,1.7,8c1.7,1.7,8,1.5,8,5.6
		c0,4.1,2.4,2.8-1.1,7.4c-3.5,4.6-4.1,7.6-4.1,9.8c0,2.2,0.6,8,0.6,8s2.4,7.4,4.1,9.7c1.7,2.2,3.9-0.1,3.4,4.5
		c-0.6,4.6-2.2,13.2-2.2,13.2 M305.3,0.3c0,0,1.3,3.6,1.7,10.5c0.3,6.9-2.3,25.1-5.6,35.7s0.3,13.9,8.1,22.8S333.1,91,333.1,91
		c2.2,4.5,6.3,3.9,8.6,9.7c2.2,5.8,14.7,10.2,14.7,10.2 M418.4,0.3c0,0-0.7,10-1.2,21.9s0.5,14.6,2.4,18.2c1.8,3.6,2.3,8.4,4.3,12.5
		c2,4.1,3.6,11.2,3.6,11.2c1.7,4.5,17.5,17,19.9,21.6c2.4,4.6,12.6,8.7,14.3,12.1c1.7,3.4-1.1,11.2,1.1,13.1c2.2,1.8,5.9,2.1,7,7.8
		c1.1,5.8,11.1,15.9,14.6,15.3c3.5-0.6,17.9-14.1,23.6-15.8c5.6-1.7,7,5.6,10.5,2.6c3.5-2.9,11.8-12.3,15.2-12.3s1,0.7,12.4,5.9
		c7.6,3.5,10.1-1.8,12.7-0.4c2.2,1.1,1.5,3.2,9.5,2.7c8-0.6,9.6-5.4,14.7-4.1c5.1,1.3,10.5,6.1,15.8,4.1c5.3-1.9,14.3-2.8,17.2-8.2
		s13.7-21.5,19.2-27c5.5-5.5,15.9-17.4,25.1-19.8s17.8-4.2,20-8.6c2.2-4.4-1.3-9.8,2.2-14.9c3.5-5.1,5-9.4,13.9-13.3
		c23.1-10.1,56.3-7,56.3-7 M453.3,0.4c0,0-0.2,1.2,0.7,4.7s1.5,1.3,5.1,5c3.6,3.6,2.1,0.5,1.3,6.4s-0.1,5.8,3.8,11.9
		s-0.3,9.2,1.2,16.2s15,18,22.8,23.8c7.8,5.8,11.6,19.8,13.5,23.9s12.3,2.7,12.3,2.7c2.2,0.7,6.1,5.6,8.9,5.6s7.8-1.4,10.6-1.4
		c2.8,0,8.3,4.6,9.4,6.3c1.1,1.7,3.8,9.1,3.8,9.1 M422.1,154.5c0,0,2.7-0.2,4.4,1.5c1.7,1.7,3.3,3.3,5,5.3c1.7,2,4.8,1.1,5.2,5.4
		c0.4,4.3-0.9,7.3,3.6,7c4.4-0.2,6.2-2.2,10.7-1.5c4.6,0.7,6.5,2,7.8,3c1.2,1,2.8-1.7,5.5-0.7c2.7,1,5.8,3.1,7.5,3.1
		c1.7,0,6.6-3.7,12.2-0.6c5.5,3.1,5,2.5,3.6,5.5c-1.5,3.1-2.8,5.5-3.3,7c-0.5,1.5-3.8,7-6.4,7.5c-2.6,0.5-4.7,4.1-7,7
		c-2.3,3-7.3,5-6,6.3c1.2,1.2,8.4-0.7,10.7,0.2c2.3,1,4.1,3.7,6,3.7c2,0,7.8,2.2,8.5,1c0.7-1.2,5-6.9,6.5-6.3c1.5,0.6,3.3,5,5.8,5
		c2.5,0,11-0.7,11.4,1s-0.2,5.5-1,7c-0.7,1.5-3.2,8.9-3,11.8c0.2,3,6.9,9.2,6.9,9.2 M427.2,194.2c0,0-4.3,3.6-7.3,5.4
		c-3,1.8-7.3,3.6-10.2,3.6c-3,0-0.7,2.2-7,1.2c-6.3-1-11-3.2-11-3.2 M437.1,172.5c0,0-2.1,1.4-1.8,4.2c0.2,2.8,2.8,5.8,4.3,5.5
		c1.5-0.2,6.8,2.1,7.8,4.1c1,2,3.1,11.7,5.7,12.9c2.6,1.2,6.3,3.1,7,4.6c0.7,1.5,0,5.8,0,5.8 M447.5,180.2c1.2,0.5,4.3,3,5.4,3.7
		c1.1,0.7,4.6,3.8,5.5,5c1,1.2,2.6,3.6,3.3,5.5c0.7,2,0.2,2.5,2.7,3.7c2.5,1.2,4.6,2.2,5.3,2.5c0.7,0.2,1.2-2.5,0.2-4.4
		c-1-2-5-4.3-6.3-6.5c-1.2-2.2-3.6-5.8-6-7.8c-2.5-2-2.3-4.3-6.8-5c-4.4-0.7-6.3-0.5-8.5-1.2c-2.2-0.7-3-2.2-3-2.2l0.2,0.7"/>
	<g>
		<g>
			<path d="M412.3,346h5.4c2.2,0,3.7,0.7,3.7,2.8c0,1.1-0.6,1.9-1.6,2.4c1.4,0.4,2.1,1.5,2.1,2.9c0,2.3-2,3.3-4,3.3h-5.5V346z
				 M414.9,350.6h2.5c0.9,0,1.5-0.4,1.5-1.4c0-1.1-0.8-1.3-1.7-1.3h-2.4V350.6z M414.9,355.5h2.7c1,0,1.9-0.3,1.9-1.5
				c0-1.2-0.7-1.6-1.8-1.6h-2.7V355.5z"/>
			<path d="M431.9,345.7c3.5,0,5.6,2.6,5.6,6c0,3.3-2.1,5.9-5.6,5.9c-3.5,0-5.6-2.6-5.6-5.9C426.3,348.4,428.4,345.7,431.9,345.7z
				 M431.9,355.6c2.3,0,3.1-1.9,3.1-3.8c0-2-0.8-3.9-3.1-3.9s-3.1,1.9-3.1,3.9C428.8,353.7,429.7,355.6,431.9,355.6z"/>
			<path d="M445,348.1h-3.4V346h9.4v2.1h-3.4v9.3H445V348.1z"/>
			<path d="M457.1,353.6c0,1.5,1.2,2.1,2.5,2.1c0.9,0,2.2-0.3,2.2-1.4c0-1.2-1.7-1.4-3.4-1.9c-1.7-0.4-3.4-1.1-3.4-3.2
				c0-2.3,2.2-3.5,4.3-3.5c2.4,0,4.6,1,4.6,3.7h-2.4c-0.1-1.4-1.1-1.7-2.3-1.7c-0.8,0-1.7,0.3-1.7,1.3c0,0.9,0.5,1,3.4,1.7
				c0.8,0.2,3.4,0.7,3.4,3.3c0,2.1-1.6,3.7-4.8,3.7c-2.5,0-4.9-1.2-4.9-4.1H457.1z"/>
			<path d="M479.9,357.4h-2.5l-1.9-7.8h0l-1.9,7.8H471l-3-11.4h2.5l1.8,7.8h0l2-7.8h2.4l2,7.9h0l1.9-7.9h2.5L479.9,357.4z"/>
			<path d="M490.4,346h2.6l4.3,11.4h-2.6l-0.9-2.5h-4.3l-0.9,2.5h-2.5L490.4,346z M490.2,353h3l-1.4-4.2h0L490.2,353z"/>
			<path d="M501.5,346h2.5l4.8,7.7h0V346h2.4v11.4h-2.5l-4.8-7.7h0v7.7h-2.4V346z"/>
			<path d="M519.7,346h2.6l4.3,11.4h-2.6l-0.9-2.5h-4.3l-0.9,2.5h-2.5L519.7,346z M519.4,353h3l-1.4-4.2h0L519.4,353z"/>
		</g>
	</g>
	<g>
		<path d="M181.8,179.6h2.5l4.8,7.7h0v-7.7h2.4V191H189l-4.8-7.7h0v7.7h-2.4V179.6z"/>
		<path d="M200,179.6h2.6l4.3,11.4h-2.6l-0.9-2.5h-4.3l-0.9,2.5h-2.5L200,179.6z M199.8,186.6h3l-1.4-4.2h0L199.8,186.6z"/>
		<path d="M211,179.6h3.5l2.7,7.9h0l2.5-7.9h3.5V191H221v-8.1h0l-2.8,8.1h-1.9l-2.8-8h0v8H211V179.6z"/>
		<path d="M228.8,179.6h2.5V191h-2.5V179.6z"/>
		<path d="M236.7,179.6h5.4c2.2,0,3.6,0.7,3.6,2.8c0,1.1-0.6,1.9-1.6,2.4c1.4,0.4,2.1,1.5,2.1,2.9c0,2.3-2,3.3-4,3.3h-5.5V179.6z
			 M239.2,184.2h2.5c0.9,0,1.5-0.4,1.5-1.4c0-1.1-0.8-1.3-1.7-1.3h-2.4V184.2z M239.2,189h2.7c1,0,1.9-0.3,1.9-1.5
			c0-1.2-0.7-1.6-1.8-1.6h-2.7V189z"/>
		<path d="M251.1,179.6h2.5V191h-2.5V179.6z"/>
		<path d="M262.2,179.6h2.6L269,191h-2.6l-0.9-2.5h-4.3l-0.9,2.5h-2.5L262.2,179.6z M261.9,186.6h3l-1.4-4.2h0L261.9,186.6z"/>
	</g>
	<g>
		<path class="st6" d="M4.3,455.8h2.6l4.3,11.4H8.6l-0.9-2.5H3.4l-0.9,2.5H0L4.3,455.8z M4.1,462.9h3l-1.4-4.2h0L4.1,462.9z"/>
		<path class="st6" d="M17.9,458h-3.4v-2.1h9.4v2.1h-3.4v9.3h-2.5V458z"/>
		<path class="st6" d="M28.4,455.8h2.5v9.3h5.6v2.1h-8.1V455.8z"/>
		<path class="st6" d="M44.2,455.8h2.6l4.3,11.4h-2.6l-0.9-2.5h-4.3l-0.9,2.5h-2.5L44.2,455.8z M43.9,462.9h3l-1.4-4.2h0L43.9,462.9
			z"/>
		<path class="st6" d="M55.2,455.8h2.5l4.8,7.7h0v-7.7h2.4v11.4h-2.5l-4.8-7.7h0v7.7h-2.4V455.8z"/>
		<path class="st6" d="M72.8,458h-3.4v-2.1h9.4v2.1h-3.4v9.3h-2.5V458z"/>
		<path class="st6" d="M83.2,455.8h2.5v11.4h-2.5V455.8z"/>
		<path class="st6" d="M91.2,455.8h2.5v4.7l4.5-4.7h3.1l-4.5,4.5l4.9,6.9h-3.2l-3.4-5.1l-1.4,1.5v3.7h-2.5V455.8z"/>
	</g>
	<g>
		<path class="st7" d="M564.4,463.5c0,1.5,1.2,2.1,2.5,2.1c0.9,0,2.2-0.3,2.2-1.4c0-1.2-1.7-1.4-3.4-1.9c-1.7-0.4-3.4-1.1-3.4-3.2
			c0-2.3,2.2-3.5,4.3-3.5c2.4,0,4.6,1,4.6,3.7h-2.4c-0.1-1.4-1.1-1.7-2.3-1.7c-0.8,0-1.7,0.3-1.7,1.3c0,0.9,0.5,1,3.4,1.7
			c0.8,0.2,3.4,0.7,3.4,3.3c0,2.1-1.6,3.7-4.8,3.7c-2.5,0-4.9-1.2-4.9-4.1H564.4z"/>
		<path class="st7" d="M586,463c0,3.1-1.8,4.6-4.9,4.6c-3.1,0-4.9-1.5-4.9-4.6v-7.1h2.5v7.1c0,1.2,0.3,2.5,2.4,2.5
			c1.8,0,2.4-0.8,2.4-2.5v-7.1h2.5V463z M578.4,452.7h2.2v1.9h-2.2V452.7z M581.7,452.7h2.2v1.9h-2.2V452.7z"/>
		<path class="st7" d="M591.4,455.8h4.9c3,0,5.2,1.9,5.2,5.7c0,3.3-1.7,5.8-5.2,5.8h-4.9V455.8z M593.9,465.2h2.2
			c1.5,0,2.8-0.9,2.8-3.4c0-2.3-0.8-3.8-3.3-3.8h-1.8V465.2z"/>
		<path class="st7" d="M609.5,455.8h2.6l4.3,11.4h-2.6l-0.9-2.5h-4.3l-0.9,2.5h-2.5L609.5,455.8z M609.3,462.9h3l-1.4-4.2h0
			L609.3,462.9z"/>
		<path class="st7" d="M620.6,455.8h8v2.1h-5.5v2.6h4.8v2h-4.8v4.7h-2.5V455.8z"/>
		<path class="st7" d="M633.3,455.8h6.2c2,0,3.3,1.4,3.3,3.2c0,1.3-0.5,2.4-1.8,2.9v0c1.2,0.3,1.6,1.5,1.7,2.7c0,0.7,0,2.1,0.5,2.7
			h-2.5c-0.3-0.7-0.3-1.8-0.4-2.7c-0.2-1.2-0.6-1.7-1.9-1.7h-2.5v4.5h-2.5V455.8z M635.8,461h2.8c1.1,0,1.7-0.5,1.7-1.6
			c0-1.1-0.6-1.6-1.7-1.6h-2.8V461z"/>
		<path class="st7" d="M648,455.8h2.5v11.4H648V455.8z"/>
		<path class="st7" d="M655.9,455.8h2.5v4.7l4.5-4.7h3.1l-4.5,4.5l4.9,6.9h-3.2l-3.4-5.1l-1.4,1.5v3.7h-2.5V455.8z"/>
		<path class="st7" d="M673.8,455.8h2.6l4.3,11.4H678l-0.9-2.5h-4.3l-0.9,2.5h-2.5L673.8,455.8z M673.6,462.9h3l-1.4-4.2h0
			L673.6,462.9z"/>
	</g>
	<g>
		<path class="st7" d="M624.8,185.1l6.1-7.3h-5.7v-2.1h9v2l-6.1,7.3h6.3v2.1h-9.6V185.1z"/>
		<path class="st7" d="M639.2,175.6h2.5v11.4h-2.5V175.6z"/>
		<path class="st7" d="M647.1,175.6h3.5l2.7,7.9h0l2.5-7.9h3.5v11.4H657V179h0l-2.8,8.1h-1.9l-2.8-8h0v8h-2.4V175.6z"/>
		<path class="st7" d="M664.8,175.6h5.4c2.2,0,3.6,0.7,3.6,2.8c0,1.1-0.6,1.9-1.6,2.4c1.4,0.4,2.1,1.5,2.1,2.9c0,2.3-2,3.3-4,3.3
			h-5.5V175.6z M667.3,180.3h2.5c0.9,0,1.5-0.4,1.5-1.4c0-1.1-0.8-1.3-1.7-1.3h-2.4V180.3z M667.3,185.1h2.7c1,0,1.9-0.3,1.9-1.5
			c0-1.2-0.7-1.6-1.8-1.6h-2.7V185.1z"/>
		<path class="st7" d="M682.4,175.6h2.6l4.3,11.4h-2.6l-0.9-2.5h-4.3l-0.9,2.5H678L682.4,175.6z M682.1,182.6h3l-1.4-4.2h0
			L682.1,182.6z"/>
		<path class="st7" d="M693.4,175.6h5.4c2.2,0,3.6,0.7,3.6,2.8c0,1.1-0.6,1.9-1.6,2.4c1.4,0.4,2.1,1.5,2.1,2.9c0,2.3-2,3.3-4,3.3
			h-5.5V175.6z M695.9,180.3h2.5c0.9,0,1.5-0.4,1.5-1.4c0-1.1-0.8-1.3-1.7-1.3h-2.4V180.3z M695.9,185.1h2.7c1,0,1.9-0.3,1.9-1.5
			c0-1.2-0.7-1.6-1.8-1.6h-2.7V185.1z"/>
		<path class="st7" d="M718.8,187.1h-2.5l-1.9-7.8h0l-1.9,7.8h-2.5l-3-11.4h2.5l1.8,7.8h0l2-7.8h2.4l2,7.9h0l1.9-7.9h2.5
			L718.8,187.1z"/>
		<path class="st7" d="M726.2,175.6h8.5v2.1h-6v2.4h5.5v2h-5.5v2.8h6.2v2.1h-8.7V175.6z"/>
	</g>
	<g>
		<path class="st7" d="M519.5,59.8c0,1.5,1.2,2.1,2.5,2.1c0.9,0,2.2-0.3,2.2-1.4c0-1.2-1.7-1.4-3.4-1.9c-1.7-0.4-3.4-1.1-3.4-3.2
			c0-2.3,2.2-3.5,4.3-3.5c2.4,0,4.6,1,4.6,3.7h-2.4c-0.1-1.4-1.1-1.7-2.3-1.7c-0.8,0-1.7,0.3-1.7,1.3c0,0.9,0.5,1,3.4,1.7
			c0.8,0.2,3.4,0.7,3.4,3.3c0,2.1-1.6,3.7-4.8,3.7c-2.5,0-4.9-1.2-4.9-4.1H519.5z"/>
		<path class="st7" d="M534.5,52.2h2.6l4.3,11.4h-2.6l-0.9-2.5h-4.3l-0.9,2.5h-2.5L534.5,52.2z M534.3,59.2h3l-1.4-4.2h0L534.3,59.2
			z"/>
		<path class="st7" d="M545.6,52.2h3.5l2.7,7.9h0l2.5-7.9h3.5v11.4h-2.4v-8.1h0l-2.8,8.1h-1.9l-2.8-8h0v8h-2.4V52.2z"/>
		<path class="st7" d="M563.3,52.2h5.4c2.2,0,3.6,0.7,3.6,2.8c0,1.1-0.6,1.9-1.6,2.4c1.4,0.4,2.1,1.5,2.1,2.9c0,2.3-2,3.3-4,3.3
			h-5.5V52.2z M565.8,56.8h2.5c0.9,0,1.5-0.4,1.5-1.4c0-1.1-0.8-1.3-1.7-1.3h-2.4V56.8z M565.8,61.6h2.7c1,0,1.9-0.3,1.9-1.5
			c0-1.2-0.7-1.6-1.8-1.6h-2.7V61.6z"/>
		<path class="st7" d="M577.7,52.2h2.5v11.4h-2.5V52.2z"/>
		<path class="st7" d="M588.8,52.2h2.6l4.3,11.4H593l-0.9-2.5h-4.3l-0.9,2.5h-2.5L588.8,52.2z M588.5,59.2h3L590,55h0L588.5,59.2z"
			/>
	</g>
	<g>
		<path class="st7" d="M332.5,52.2h2.6l4.3,11.4h-2.6l-0.9-2.5h-4.3l-0.9,2.5h-2.5L332.5,52.2z M332.3,59.2h3l-1.4-4.2h0L332.3,59.2
			z"/>
		<path class="st7" d="M343.5,52.2h2.5l4.8,7.7h0v-7.7h2.4v11.4h-2.5l-4.8-7.7h0v7.7h-2.4V52.2z"/>
		<path class="st7" d="M366.9,62.3c-0.9,1.1-2,1.6-3.1,1.6c-3.5,0-5.6-2.6-5.6-5.9c0-3.4,2.1-6,5.6-6c2.3,0,4.5,1.4,4.8,4h-2.4
			c-0.3-1.3-1.2-1.9-2.4-1.9c-2.3,0-3.1,1.9-3.1,3.9c0,1.9,0.8,3.8,3.1,3.8c1.6,0,2.6-0.9,2.7-2.5h-2.5v-1.9h4.8v6.2h-1.6
			L366.9,62.3z"/>
		<path class="st7" d="M379.1,51.9c3.5,0,5.6,2.6,5.6,6c0,3.3-2.1,5.9-5.6,5.9s-5.6-2.6-5.6-5.9C373.5,54.5,375.5,51.9,379.1,51.9z
			 M379.1,61.8c2.3,0,3.1-1.9,3.1-3.8c0-2-0.8-3.9-3.1-3.9s-3.1,1.9-3.1,3.9C376,59.8,376.8,61.8,379.1,61.8z"/>
		<path class="st7" d="M389.6,52.2h2.5v9.3h5.6v2.1h-8.1V52.2z"/>
		<path class="st7" d="M405.4,52.2h2.6l4.3,11.4h-2.6l-0.9-2.5h-4.3l-0.9,2.5h-2.5L405.4,52.2z M405.2,59.2h3l-1.4-4.2h0L405.2,59.2
			z"/>
	</g>
	<g>
		<path class="st8" d="M540.8,99.8V88.4h2.3v9.5h4.1v1.9H540.8z"/>
		<path class="st8" d="M548.5,88.2h2.2v1.9h-2.2V88.2z M548.5,91.2h2.2v8.6h-2.2V91.2z"/>
		<path class="st8" d="M556.7,91.2h2.2l-2.2,8.6h-2.6l-2.2-8.6h2.3l1.2,6.2h0L556.7,91.2z"/>
		<path class="st8" d="M560.1,88.2h2.2v1.9h-2.2V88.2z M560.1,91.2h2.2v8.6h-2.2V91.2z"/>
		<path class="st8" d="M564.2,91.2h2.1v1h0c0.5-0.8,1.3-1.2,2.2-1.2c1.4,0,2.2,0.8,2.2,2.4v6.4h-2.2v-5.9c0-0.9-0.3-1.2-0.9-1.2
			c-0.8,0-1.2,0.5-1.2,1.4v5.7h-2.2V91.2z"/>
		<path class="st8" d="M579,91.2v8.2c0,2.3-1,3.4-3.6,3.4c-1.9,0-2.9-0.8-2.9-2.3h2.1c0,0.3,0.1,0.5,0.3,0.7s0.5,0.2,0.7,0.2
			c0.9,0,1.2-0.7,1.2-1.6v-1.1h0c-0.4,0.6-1.1,1.1-1.8,1.1c-1.8,0-2.6-1.2-2.6-4.4c0-2,0.3-4.4,2.7-4.4c0.6,0,1.4,0.3,1.8,1.2h0v-1
			H579z M575.6,98c0.9,0,1.2-1,1.2-2.5c0-2.1-0.3-2.9-1.2-2.9c-1,0-1.2,0.8-1.2,3.1C574.5,96.9,574.7,98,575.6,98z"/>
		<path class="st8" d="M582.4,97v0.3c0,0.8,0.4,1.2,1.2,1.2c0.7,0,1.1-0.3,1.1-1c0-0.6-0.4-0.8-0.8-1l-1.6-0.6
			c-1.2-0.4-1.8-1.2-1.8-2.4c0-1.4,0.9-2.6,3.2-2.6c2,0,2.9,0.9,2.9,2.4v0.4h-2c0-0.9-0.3-1.3-1-1.3c-0.6,0-1,0.3-1,0.9
			c0,0.4,0.2,0.8,1,1l1.3,0.4c1.4,0.5,1.9,1.2,1.9,2.5c0,1.8-1.3,2.7-3.2,2.7c-2.5,0-3.2-1.1-3.2-2.7V97H582.4z"/>
		<path class="st8" d="M588.7,88.7h2.2v2.5h1.3v1.5h-1.3v4.7c0,0.7,0.1,0.9,0.8,0.9c0.2,0,0.4,0,0.5,0v1.5c-0.5,0-0.9,0.1-1.4,0.1
			c-1.7,0-2-0.5-2-2.3v-4.9h-1.1v-1.5h1.1V88.7z"/>
		<path class="st8" d="M596.4,91c2.7,0,3.4,1.5,3.4,4.5c0,2.9-0.9,4.5-3.4,4.5c-2.7,0-3.4-1.5-3.4-4.5C593,92.5,593.9,91,596.4,91z
			 M596.4,98.5c0.9,0,1.2-0.9,1.2-3s-0.3-3-1.2-3c-1.1,0-1.2,1.3-1.2,3S595.3,98.5,596.4,98.5z"/>
		<path class="st8" d="M601.3,91.2h2.1v1h0c0.5-0.8,1.3-1.2,2.2-1.2c1.4,0,2.2,0.8,2.2,2.4v6.4h-2.2v-5.9c0-0.9-0.3-1.2-0.9-1.2
			c-0.8,0-1.2,0.5-1.2,1.4v5.7h-2.2V91.2z"/>
		<path class="st8" d="M611.5,95.8v0.7c0,1,0.3,2,1.1,2c0.7,0,1-0.6,1.2-1.6h2c-0.1,2-1,3.1-3.1,3.1c-3.2,0-3.3-2.5-3.3-4.6
			c0-2.3,0.4-4.4,3.4-4.4c2.6,0,3.2,1.7,3.2,4.4v0.5H611.5z M613.8,94.5c0-1.3-0.2-2-1.1-2c-0.9,0-1.1,0.9-1.1,1.7v0.3H613.8z"/>
	</g>
	<g>
		<path class="st8" d="M487.6,106.4v4.6h0l2.9-4.6h2.5l-3.1,4.9l3.5,6.5h-2.6l-2.4-4.7l-0.8,1.3v3.4h-2.3v-11.4H487.6z"/>
		<path class="st8" d="M494.4,111.9v-0.2c0-2,1.4-2.7,3-2.7c2.6,0,3.1,1.1,3.1,2.6v4.5c0,0.8,0,1.2,0.3,1.7h-2.1
			c-0.1-0.3-0.2-0.6-0.3-0.9h0c-0.5,0.9-1.1,1.1-2.2,1.1c-1.5,0-2.1-1.3-2.1-2.5c0-1.6,0.7-2.3,2.2-2.7l1.2-0.3
			c0.7-0.2,0.9-0.4,0.9-1c0-0.7-0.3-1.1-1-1.1c-0.7,0-1,0.4-1,1.1v0.2H494.4z M498.5,113.5c-0.3,0.2-0.7,0.4-0.9,0.4
			c-0.9,0.2-1.2,0.6-1.2,1.4c0,0.7,0.2,1.2,0.8,1.2c0.6,0,1.4-0.4,1.4-1.3V113.5z"/>
		<path class="st8" d="M504.4,115v0.3c0,0.8,0.4,1.2,1.2,1.2c0.7,0,1.1-0.3,1.1-1c0-0.6-0.4-0.8-0.8-1l-1.6-0.6
			c-1.2-0.4-1.8-1.2-1.8-2.4c0-1.4,0.9-2.6,3.2-2.6c2,0,2.9,0.9,2.9,2.4v0.4h-2c0-0.9-0.3-1.3-1-1.3c-0.6,0-1,0.3-1,0.9
			c0,0.4,0.2,0.8,1,1l1.3,0.4c1.4,0.5,1.9,1.2,1.9,2.5c0,1.8-1.3,2.7-3.2,2.7c-2.5,0-3.2-1.1-3.2-2.7V115H504.4z"/>
		<path class="st8" d="M510.5,111.9v-0.2c0-2,1.4-2.7,3-2.7c2.6,0,3.1,1.1,3.1,2.6v4.5c0,0.8,0,1.2,0.3,1.7h-2.1
			c-0.1-0.3-0.2-0.6-0.3-0.9h0c-0.5,0.9-1.1,1.1-2.2,1.1c-1.5,0-2.1-1.3-2.1-2.5c0-1.6,0.7-2.3,2.2-2.7l1.2-0.3
			c0.7-0.2,0.9-0.4,0.9-1c0-0.7-0.3-1.1-1-1.1c-0.7,0-1,0.4-1,1.1v0.2H510.5z M514.5,113.5c-0.3,0.2-0.7,0.4-0.9,0.4
			c-0.9,0.2-1.2,0.6-1.2,1.4c0,0.7,0.2,1.2,0.8,1.2c0.6,0,1.4-0.4,1.4-1.3V113.5z"/>
		<path class="st8" d="M518.9,109.2h2.1v1h0c0.5-0.8,1.3-1.2,2.2-1.2c1.4,0,2.2,0.8,2.2,2.4v6.4h-2.2v-5.9c0-0.9-0.3-1.2-0.9-1.2
			c-0.8,0-1.2,0.5-1.2,1.4v5.7h-2.2V109.2z"/>
		<path class="st8" d="M529.4,113.9v0.7c0,1,0.3,2,1.1,2c0.7,0,1-0.6,1.2-1.6h2c-0.1,2-1,3.1-3.1,3.1c-3.2,0-3.3-2.5-3.3-4.6
			c0-2.3,0.4-4.4,3.4-4.4c2.6,0,3.2,1.7,3.2,4.4v0.5H529.4z M531.7,112.5c0-1.3-0.2-2-1.1-2c-0.9,0-1.1,0.9-1.1,1.7v0.3H531.7z"/>
	</g>
	<g>
		<path class="st8" d="M584.1,134.3l1.6,8.5h0l1.7-8.5h2.4l-2.6,11.4h-3l-2.6-11.4H584.1z"/>
		<path class="st8" d="M591.3,134.2h2.2v1.9h-2.2V134.2z M591.3,137.1h2.2v8.6h-2.2V137.1z"/>
		<path class="st8" d="M599.9,140.2c0-0.8-0.2-1.7-1-1.7c-1.1,0-1.3,1-1.3,2.9c0,2.1,0.2,3,1.2,3c0.7,0,1.1-0.6,1.1-2h2.1
			c0,2.3-0.9,3.5-3.3,3.5c-2.2,0-3.3-1.1-3.3-4.5c0-3.5,1.5-4.5,3.5-4.5c2,0,3.1,1.3,3.1,3.3H599.9z"/>
		<path class="st8" d="M604.3,134.7h2.2v2.5h1.3v1.5h-1.3v4.7c0,0.7,0.1,0.9,0.8,0.9c0.2,0,0.4,0,0.5,0v1.5c-0.5,0-0.9,0.1-1.4,0.1
			c-1.7,0-2-0.5-2-2.3v-4.9h-1.1v-1.5h1.1V134.7z"/>
		<path class="st8" d="M612.3,136.9c2.7,0,3.4,1.5,3.4,4.5c0,2.9-0.9,4.5-3.4,4.5c-2.7,0-3.4-1.5-3.4-4.5
			C608.9,138.5,609.7,136.9,612.3,136.9z M612.3,144.5c0.9,0,1.2-0.9,1.2-3s-0.3-3-1.2-3c-1.1,0-1.2,1.3-1.2,3
			S611.2,144.5,612.3,144.5z"/>
		<path class="st8" d="M617.5,137.1h2.1v1.2h0c0.4-0.8,1.1-1.4,2-1.4c0.1,0,0.3,0,0.4,0v2.1c-0.2,0-0.5,0-0.7,0
			c-0.8,0-1.6,0.4-1.6,1.6v5.2h-2.2V137.1z"/>
		<path class="st8" d="M623.5,134.2h2.2v1.9h-2.2V134.2z M623.5,137.1h2.2v8.6h-2.2V137.1z"/>
		<path class="st8" d="M627.9,139.8v-0.2c0-2,1.4-2.7,3-2.7c2.6,0,3.1,1.1,3.1,2.6v4.5c0,0.8,0,1.2,0.3,1.7h-2.1
			c-0.1-0.3-0.2-0.6-0.3-0.9h0c-0.5,0.9-1.1,1.1-2.2,1.1c-1.5,0-2.1-1.3-2.1-2.5c0-1.6,0.7-2.3,2.2-2.7l1.2-0.3
			c0.7-0.2,0.9-0.4,0.9-1c0-0.7-0.3-1.1-1-1.1c-0.7,0-1,0.4-1,1.1v0.2H627.9z M632,141.4c-0.3,0.2-0.7,0.4-0.9,0.4
			c-0.9,0.2-1.2,0.6-1.2,1.4c0,0.7,0.2,1.2,0.8,1.2c0.6,0,1.4-0.4,1.4-1.3V141.4z"/>
		<path class="st8" d="M640.8,134.3h6.4v1.9h-4.1v2.7h3.8v1.9h-3.8v5h-2.3V134.3z"/>
		<path class="st8" d="M648.8,139.8v-0.2c0-2,1.4-2.7,3-2.7c2.6,0,3.1,1.1,3.1,2.6v4.5c0,0.8,0,1.2,0.3,1.7h-2.1
			c-0.1-0.3-0.2-0.6-0.3-0.9h0c-0.5,0.9-1.1,1.1-2.2,1.1c-1.5,0-2.1-1.3-2.1-2.5c0-1.6,0.7-2.3,2.2-2.7l1.2-0.3
			c0.7-0.2,0.9-0.4,0.9-1c0-0.7-0.3-1.1-1-1.1c-0.7,0-1,0.4-1,1.1v0.2H648.8z M652.8,141.4c-0.3,0.2-0.7,0.4-0.9,0.4
			c-0.9,0.2-1.2,0.6-1.2,1.4c0,0.7,0.2,1.2,0.8,1.2c0.6,0,1.4-0.4,1.4-1.3V141.4z"/>
		<path class="st8" d="M657.2,134.3h2.2v11.4h-2.2V134.3z"/>
		<path class="st8" d="M661.7,134.3h2.2v11.4h-2.2V134.3z"/>
		<path class="st8" d="M667.7,142.9v0.3c0,0.8,0.4,1.2,1.2,1.2c0.7,0,1.1-0.3,1.1-1c0-0.6-0.4-0.8-0.8-1l-1.6-0.6
			c-1.2-0.4-1.8-1.2-1.8-2.4c0-1.4,0.9-2.6,3.2-2.6c2,0,2.9,0.9,2.9,2.4v0.4h-2c0-0.9-0.3-1.3-1-1.3c-0.6,0-1,0.3-1,0.9
			c0,0.4,0.2,0.8,1,1l1.3,0.4c1.4,0.5,1.9,1.2,1.9,2.5c0,1.8-1.3,2.7-3.2,2.7c-2.5,0-3.2-1.1-3.2-2.7v-0.3H667.7z"/>
	</g>
	<g>
		<path class="st8" d="M486.4,190.3h3.4l1.6,8.1h0l1.6-8.1h3.4v11.4h-2.1v-9.1h0l-2,9.1h-1.8l-2-9.1h0v9.1h-2.1V190.3z"/>
		<path class="st8" d="M498.8,195.8v-0.2c0-2,1.4-2.7,3-2.7c2.6,0,3.1,1.1,3.1,2.6v4.5c0,0.8,0,1.2,0.3,1.7h-2.1
			c-0.1-0.3-0.2-0.6-0.3-0.9h0c-0.5,0.9-1.1,1.1-2.2,1.1c-1.5,0-2.1-1.3-2.1-2.5c0-1.6,0.7-2.3,2.2-2.7l1.2-0.3
			c0.7-0.2,0.9-0.4,0.9-1c0-0.7-0.3-1.1-1-1.1c-0.7,0-1,0.4-1,1.1v0.2H498.8z M502.8,197.4c-0.3,0.2-0.7,0.4-0.9,0.4
			c-0.9,0.2-1.2,0.6-1.2,1.4c0,0.7,0.2,1.2,0.8,1.2c0.6,0,1.4-0.4,1.4-1.3V197.4z"/>
		<path class="st8" d="M511.5,200.7L511.5,200.7c-0.5,0.8-1.3,1.2-2.2,1.2c-1.4,0-2.2-0.8-2.2-2.4v-6.4h2.2v5.9
			c0,0.9,0.3,1.2,0.9,1.2c0.8,0,1.2-0.5,1.2-1.4v-5.7h2.2v8.6h-2.1V200.7z"/>
		<path class="st8" d="M515.8,193.1h2.1v1h0c0.5-0.8,1.3-1.2,2.2-1.2c1.4,0,2.2,0.8,2.2,2.4v6.4h-2.2v-5.9c0-0.9-0.3-1.2-0.9-1.2
			c-0.8,0-1.2,0.5-1.2,1.4v5.7h-2.2V193.1z"/>
	</g>
	<g>
		<path class="st8" d="M451.7,275.9c0-0.8-0.4-1.9-1.3-1.9c-1.1,0-1.6,1.2-1.6,4c0,2.8,0.3,4.5,1.6,4.5c0.5,0,1.4-0.6,1.4-1.8v-1.2
			h-1.5v-1.7h3.7v6.2h-1.7v-1.1h0c-0.5,0.9-1.3,1.3-2.4,1.3c-2.8,0-3.4-2.1-3.4-6.1c0-3.8,0.9-5.8,3.8-5.8c2.5,0,3.6,1.3,3.6,3.6
			H451.7z"/>
		<path class="st8" d="M456.1,272.5h2.2v3.7h0c0.4-0.7,1.2-1.1,2.1-1.1c1.4,0,2.2,0.8,2.2,2.4v6.4h-2.2V278c0-0.9-0.3-1.2-0.9-1.2
			c-0.8,0-1.2,0.5-1.2,1.4v5.7h-2.2V272.5z"/>
		<path class="st8" d="M464.7,278v-0.2c0-2,1.4-2.7,3-2.7c2.6,0,3.1,1.1,3.1,2.6v4.5c0,0.8,0,1.2,0.3,1.7H469
			c-0.1-0.3-0.2-0.6-0.3-0.9h0c-0.5,0.9-1.1,1.1-2.2,1.1c-1.5,0-2.1-1.3-2.1-2.5c0-1.6,0.7-2.3,2.2-2.7l1.2-0.3
			c0.7-0.2,0.9-0.4,0.9-1c0-0.7-0.3-1.1-1-1.1c-0.7,0-1,0.4-1,1.1v0.2H464.7z M468.8,279.6c-0.3,0.2-0.7,0.4-0.9,0.4
			c-0.9,0.2-1.2,0.6-1.2,1.4c0,0.7,0.2,1.2,0.8,1.2c0.6,0,1.4-0.4,1.4-1.3V279.6z"/>
		<path class="st8" d="M473.1,275.3h2.1v1h0c0.5-0.8,1.3-1.2,2.2-1.2c1.4,0,2.2,0.8,2.2,2.4v6.4h-2.2V278c0-0.9-0.3-1.2-0.9-1.2
			c-0.8,0-1.2,0.5-1.2,1.4v5.7h-2.2V275.3z"/>
		<path class="st8" d="M481.4,282.3l3.4-5.1h-3.3v-1.8h5.9v1.7l-3.4,5.1h3.4v1.8h-6.1V282.3z"/>
		<path class="st8" d="M489.3,272.4h2.2v1.9h-2.2V272.4z M489.3,275.3h2.2v8.6h-2.2V275.3z"/>
	</g>
	<g>
		<path class="st8" d="M325.1,320.3c0-0.8-0.4-1.9-1.3-1.9c-1.1,0-1.6,1.2-1.6,4c0,2.8,0.3,4.5,1.6,4.5c0.5,0,1.4-0.6,1.4-1.8v-1.2
			h-1.5v-1.7h3.7v6.2h-1.7v-1.1h0c-0.5,0.9-1.3,1.3-2.4,1.3c-2.8,0-3.4-2.1-3.4-6.1c0-3.8,0.9-5.8,3.8-5.8c2.5,0,3.6,1.3,3.6,3.6
			H325.1z"/>
		<path class="st8" d="M332.6,319.5c2.7,0,3.4,1.5,3.4,4.5c0,2.9-0.9,4.5-3.4,4.5c-2.7,0-3.4-1.5-3.4-4.5
			C329.2,321.1,330.1,319.5,332.6,319.5z M332.6,327.1c0.9,0,1.2-0.9,1.2-3c0-2.1-0.3-3-1.2-3c-1.1,0-1.2,1.3-1.2,3
			S331.5,327.1,332.6,327.1z"/>
		<path class="st8" d="M337.8,316.9h2.2v3.6h0c0.5-0.7,1-1,1.9-1c1.8,0,2.6,1.3,2.6,4.5s-0.8,4.5-2.6,4.5c-0.9,0-1.5-0.3-2-1.1h0
			v0.9h-2.1V316.9z M341.2,326.9c1,0,1.2-1,1.2-2.8c0-1.9-0.2-2.8-1.2-2.8c-1,0-1.2,1-1.2,2.8C340,325.9,340.2,326.9,341.2,326.9z"
			/>
		<path class="st8" d="M346.5,322.4v-0.2c0-2,1.4-2.7,3-2.7c2.6,0,3.1,1.1,3.1,2.6v4.5c0,0.8,0,1.2,0.3,1.7h-2.1
			c-0.1-0.3-0.2-0.6-0.3-0.9h0c-0.5,0.9-1.1,1.1-2.2,1.1c-1.5,0-2.1-1.3-2.1-2.5c0-1.6,0.7-2.3,2.2-2.7l1.2-0.3
			c0.7-0.2,0.9-0.4,0.9-1c0-0.7-0.3-1.1-1-1.1c-0.7,0-1,0.4-1,1.1v0.2H346.5z M350.5,324c-0.3,0.2-0.7,0.4-0.9,0.4
			c-0.9,0.2-1.2,0.6-1.2,1.4c0,0.7,0.2,1.2,0.8,1.2c0.6,0,1.4-0.4,1.4-1.3V324z"/>
		<path class="st8" d="M354.8,316.9h2.2v3.6h0c0.5-0.7,1-1,1.9-1c1.8,0,2.6,1.3,2.6,4.5s-0.8,4.5-2.6,4.5c-0.9,0-1.5-0.3-2-1.1h0
			v0.9h-2.1V316.9z M358.2,326.9c1,0,1.2-1,1.2-2.8c0-1.9-0.2-2.8-1.2-2.8c-1,0-1.2,1-1.2,2.8C357,325.9,357.2,326.9,358.2,326.9z"
			/>
		<path class="st8" d="M363.5,316.8h2.2v1.9h-2.2V316.8z M363.5,319.7h2.2v8.6h-2.2V319.7z"/>
		<path class="st8" d="M369.5,325.5v0.3c0,0.8,0.4,1.2,1.2,1.2c0.7,0,1.1-0.3,1.1-1c0-0.6-0.4-0.8-0.8-1l-1.6-0.6
			c-1.2-0.4-1.8-1.2-1.8-2.4c0-1.4,0.9-2.6,3.2-2.6c2,0,2.9,0.9,2.9,2.4v0.4h-2c0-0.9-0.3-1.3-1-1.3c-0.6,0-1,0.3-1,0.9
			c0,0.4,0.2,0.8,1,1l1.3,0.4c1.4,0.5,1.9,1.2,1.9,2.5c0,1.8-1.3,2.7-3.2,2.7c-2.5,0-3.2-1.1-3.2-2.7v-0.3H369.5z"/>
	</g>
	<g>
		<path class="st8" d="M231.2,320.8h2.2l1.3,8.5h0l1.3-8.5h2.2l1.3,8.5h0l1.3-8.5h2.2l-2.1,11.4h-2.6l-1.3-8.3h0l-1.3,8.3h-2.6
			L231.2,320.8z"/>
		<path class="st8" d="M244.7,320.7h2.2v1.9h-2.2V320.7z M244.7,323.6h2.2v8.6h-2.2V323.6z"/>
		<path class="st8" d="M249.1,323.6h2.1v1h0c0.5-0.8,1.3-1.2,2.2-1.2c1.4,0,2.2,0.8,2.2,2.4v6.4h-2.2v-5.9c0-0.9-0.3-1.2-0.9-1.2
			c-0.8,0-1.2,0.5-1.2,1.4v5.7h-2.2V323.6z"/>
		<path class="st8" d="M262.1,331.3L262.1,331.3c-0.5,0.8-1.1,1.1-2,1.1c-1.8,0-2.6-1.3-2.6-4.5s0.8-4.5,2.6-4.5
			c0.8,0,1.4,0.3,1.9,1h0v-3.6h2.2v11.4h-2.1V331.3z M260.9,330.8c1,0,1.2-1,1.2-2.8c0-1.9-0.2-2.8-1.2-2.8c-1,0-1.2,1-1.2,2.8
			C259.7,329.8,259.9,330.8,260.9,330.8z"/>
		<path class="st8" d="M266.3,320.8h2.2v3.7h0c0.4-0.7,1.2-1.1,2.1-1.1c1.4,0,2.2,0.8,2.2,2.4v6.4h-2.2v-5.9c0-0.9-0.3-1.2-0.9-1.2
			c-0.8,0-1.2,0.5-1.2,1.4v5.7h-2.2V320.8z"/>
		<path class="st8" d="M278.1,323.4c2.7,0,3.4,1.5,3.4,4.5c0,2.9-0.9,4.5-3.4,4.5c-2.7,0-3.4-1.5-3.4-4.5
			C274.7,325,275.6,323.4,278.1,323.4z M278.1,331c0.9,0,1.2-0.9,1.2-3c0-2.1-0.3-3-1.2-3c-1.1,0-1.2,1.3-1.2,3S277,331,278.1,331z"
			/>
		<path class="st8" d="M285.2,328.3v0.7c0,1,0.3,2,1.1,2c0.7,0,1-0.6,1.2-1.6h2c-0.1,2-1,3.1-3.1,3.1c-3.2,0-3.3-2.5-3.3-4.6
			c0-2.3,0.4-4.5,3.4-4.5c2.6,0,3.2,1.7,3.2,4.4v0.5H285.2z M287.5,327c0-1.3-0.2-2-1.1-2c-0.9,0-1.1,0.9-1.1,1.7v0.3H287.5z"/>
		<path class="st8" d="M293.6,320.8v6h0l2.2-3.2h2.4l-2.5,3.4l2.8,5.2h-2.4l-1.8-3.5l-0.8,1v2.5h-2.2v-11.4H293.6z"/>
	</g>
	<g>
		<path class="st8" d="M43.1,331.8h2.2l1.3,8.5h0l1.3-8.5h2.2l1.3,8.5h0l1.3-8.5H55l-2.1,11.4h-2.6l-1.3-8.3h0l-1.3,8.3h-2.6
			L43.1,331.8z"/>
		<path class="st8" d="M56.5,337.2V337c0-2,1.4-2.7,3-2.7c2.6,0,3.1,1.1,3.1,2.6v4.5c0,0.8,0,1.2,0.3,1.7h-2.1
			c-0.1-0.3-0.2-0.6-0.3-0.9h0c-0.5,0.9-1.1,1.1-2.2,1.1c-1.5,0-2.1-1.3-2.1-2.5c0-1.6,0.7-2.3,2.2-2.7l1.2-0.3
			c0.7-0.2,0.9-0.4,0.9-1c0-0.7-0.3-1.1-1-1.1c-0.7,0-1,0.4-1,1.1v0.2H56.5z M60.5,338.9c-0.3,0.2-0.7,0.4-0.9,0.4
			c-0.9,0.2-1.2,0.6-1.2,1.4c0,0.7,0.2,1.2,0.8,1.2c0.6,0,1.4-0.4,1.4-1.3V338.9z"/>
		<path class="st8" d="M64.9,331.8h2.2v11.4h-2.2V331.8z"/>
		<path class="st8" d="M73.4,334.6h2.2l-2.2,8.6h-2.6l-2.2-8.6H71l1.2,6.2h0L73.4,334.6z"/>
		<path class="st8" d="M77.1,331.6h2.2v1.9h-2.2V331.6z M77.1,334.6h2.2v8.6h-2.2V334.6z"/>
		<path class="st8" d="M83.1,340.4v0.3c0,0.8,0.4,1.2,1.2,1.2c0.7,0,1.1-0.3,1.1-1c0-0.6-0.4-0.8-0.8-1l-1.6-0.6
			c-1.2-0.4-1.8-1.2-1.8-2.4c0-1.4,0.9-2.6,3.2-2.6c2,0,2.9,0.9,2.9,2.4v0.4h-2c0-0.9-0.3-1.3-1-1.3c-0.6,0-1,0.3-1,0.9
			c0,0.4,0.2,0.8,1,1l1.3,0.4c1.4,0.5,1.9,1.2,1.9,2.5c0,1.8-1.3,2.7-3.2,2.7c-2.5,0-3.2-1.1-3.2-2.7v-0.3H83.1z"/>
		<path class="st8" d="M93.8,331.8h3.9c1.9,0,3.2,0.7,3.2,2.9c0,1.2-0.6,2.2-1.7,2.5v0c1.3,0.2,2.1,1.1,2.1,2.7
			c0,1.8-0.9,3.3-3.6,3.3h-3.9V331.8z M96.1,336.5h0.7c1.3,0,1.8-0.4,1.8-1.5c0-1.1-0.5-1.5-1.7-1.5h-0.8V336.5z M96.1,341.5H97
			c1.1,0,1.9-0.4,1.9-1.7c0-1.3-0.8-1.7-1.8-1.7h-1V341.5z"/>
		<path class="st8" d="M103.3,337.2V337c0-2,1.4-2.7,3-2.7c2.6,0,3.1,1.1,3.1,2.6v4.5c0,0.8,0,1.2,0.3,1.7h-2.1
			c-0.1-0.3-0.2-0.6-0.3-0.9h0c-0.5,0.9-1.1,1.1-2.2,1.1c-1.5,0-2.1-1.3-2.1-2.5c0-1.6,0.7-2.3,2.2-2.7l1.2-0.3
			c0.7-0.2,0.9-0.4,0.9-1c0-0.7-0.3-1.1-1-1.1c-0.7,0-1,0.4-1,1.1v0.2H103.3z M107.3,338.9c-0.3,0.2-0.7,0.4-0.9,0.4
			c-0.9,0.2-1.2,0.6-1.2,1.4c0,0.7,0.2,1.2,0.8,1.2c0.6,0,1.4-0.4,1.4-1.3V338.9z"/>
		<path class="st8" d="M111.6,344.4c0.2,0,0.4,0,0.6,0c0.8,0,1.1-0.4,1.2-1.2l-2.4-8.6h2.3l1.3,6h0l1.1-6h2.2l-2.1,8
			c-0.8,3-1.3,3.4-3.3,3.4h-0.9V344.4z"/>
	</g>
	<g>
		<path class="st8" d="M120.1,261.2c0-1.7-0.3-2.4-1.4-2.4c-1.2,0-1.4,1.2-1.4,4.4c0,3.5,0.5,4.1,1.5,4.1c0.8,0,1.4-0.4,1.4-2.9h2.3
			c0,2.5-0.6,4.6-3.6,4.6c-3.5,0-3.9-2.5-3.9-5.9c0-3.5,0.4-5.9,3.9-5.9c3.3,0,3.5,2.4,3.5,4.1H120.1z"/>
		<path class="st8" d="M124.4,262.8v-0.2c0-2,1.4-2.7,3-2.7c2.6,0,3.1,1.1,3.1,2.6v4.5c0,0.8,0,1.2,0.3,1.7h-2.1
			c-0.1-0.3-0.2-0.6-0.3-0.9h0c-0.5,0.9-1.1,1.1-2.2,1.1c-1.5,0-2.1-1.3-2.1-2.5c0-1.6,0.7-2.3,2.2-2.7l1.2-0.3
			c0.7-0.2,0.9-0.4,0.9-1c0-0.7-0.3-1.1-1-1.1c-0.7,0-1,0.4-1,1.1v0.2H124.4z M128.4,264.5c-0.3,0.2-0.7,0.4-0.9,0.4
			c-0.9,0.2-1.2,0.6-1.2,1.4c0,0.7,0.2,1.2,0.8,1.2c0.6,0,1.4-0.4,1.4-1.3V264.5z"/>
		<path class="st8" d="M132.7,260.2h2.1v0.9h0c0.5-0.8,1.1-1.1,2-1.1c1.8,0,2.6,1.3,2.6,4.5s-0.8,4.5-2.6,4.5c-0.8,0-1.4-0.3-1.9-1
			h0v3.6h-2.2V260.2z M136.1,267.3c1,0,1.2-1,1.2-2.8c0-1.9-0.2-2.8-1.2-2.8c-1,0-1.2,1-1.2,2.8
			C134.9,266.4,135.1,267.3,136.1,267.3z"/>
		<path class="st8" d="M143.2,264.8v0.7c0,1,0.3,2,1.1,2c0.7,0,1-0.6,1.2-1.6h2c-0.1,2-1,3.1-3.1,3.1c-3.2,0-3.3-2.5-3.3-4.6
			c0-2.3,0.4-4.4,3.4-4.4c2.6,0,3.2,1.7,3.2,4.4v0.5H143.2z M145.5,263.5c0-1.3-0.2-2-1.1-2c-0.9,0-1.1,0.9-1.1,1.7v0.3H145.5z"/>
		<path class="st8" d="M158.8,261.2c0-1.7-0.3-2.4-1.4-2.4c-1.2,0-1.4,1.2-1.4,4.4c0,3.5,0.5,4.1,1.5,4.1c0.8,0,1.4-0.4,1.4-2.9h2.3
			c0,2.5-0.6,4.6-3.6,4.6c-3.5,0-3.9-2.5-3.9-5.9c0-3.5,0.4-5.9,3.9-5.9c3.3,0,3.5,2.4,3.5,4.1H158.8z"/>
		<path class="st8" d="M163.1,260.2h2.1v1.2h0c0.4-0.8,1.1-1.4,2-1.4c0.1,0,0.3,0,0.4,0v2.1c-0.2,0-0.5,0-0.7,0
			c-0.8,0-1.6,0.4-1.6,1.6v5.2h-2.2V260.2z"/>
		<path class="st8" d="M172.2,260c2.7,0,3.4,1.5,3.4,4.5c0,2.9-0.9,4.5-3.4,4.5c-2.7,0-3.4-1.5-3.4-4.5
			C168.8,261.5,169.7,260,172.2,260z M172.2,267.5c0.9,0,1.2-0.9,1.2-3s-0.3-3-1.2-3c-1.1,0-1.2,1.3-1.2,3S171.1,267.5,172.2,267.5z
			"/>
		<path class="st8" d="M179,266v0.3c0,0.8,0.4,1.2,1.2,1.2c0.7,0,1.1-0.3,1.1-1c0-0.6-0.4-0.8-0.8-1l-1.6-0.6
			c-1.2-0.4-1.8-1.2-1.8-2.4c0-1.4,0.9-2.6,3.2-2.6c2,0,2.9,0.9,2.9,2.4v0.4h-2c0-0.9-0.3-1.3-1-1.3c-0.6,0-1,0.3-1,0.9
			c0,0.4,0.2,0.8,1,1l1.3,0.4c1.4,0.5,1.9,1.2,1.9,2.5c0,1.8-1.3,2.7-3.2,2.7c-2.5,0-3.2-1.1-3.2-2.7V266H179z"/>
		<path class="st8" d="M186.8,266v0.3c0,0.8,0.4,1.2,1.2,1.2c0.7,0,1.1-0.3,1.1-1c0-0.6-0.4-0.8-0.8-1l-1.6-0.6
			c-1.2-0.4-1.8-1.2-1.8-2.4c0-1.4,0.9-2.6,3.2-2.6c2,0,2.9,0.9,2.9,2.4v0.4h-2c0-0.9-0.3-1.3-1-1.3c-0.6,0-1,0.3-1,0.9
			c0,0.4,0.2,0.8,1,1l1.3,0.4c1.4,0.5,1.9,1.2,1.9,2.5c0,1.8-1.3,2.7-3.2,2.7c-2.5,0-3.2-1.1-3.2-2.7V266H186.8z"/>
	</g>
	<g>
		<path class="st8" d="M191.7,405.9v0.3c0,1.1,0.3,1.8,1.5,1.8c0.7,0,1.4-0.4,1.4-1.4c0-1-0.5-1.4-2-2c-2-0.7-3-1.6-3-3.5
			c0-2.2,1.4-3.4,3.5-3.4c2,0,3.5,0.9,3.5,3.1v0.3h-2.2c0-1.1-0.4-1.7-1.2-1.7c-1,0-1.3,0.7-1.3,1.3c0,0.7,0.2,1.1,1.2,1.6l1.8,0.8
			c1.7,0.8,2.2,1.6,2.2,3c0,2.4-1.5,3.5-4,3.5c-2.6,0-3.6-1.2-3.6-3.3v-0.5H191.7z"/>
		<path class="st8" d="M200.6,405.5v0.7c0,1,0.3,2,1.1,2c0.7,0,1-0.6,1.2-1.6h2c-0.1,2-1,3.1-3.1,3.1c-3.2,0-3.3-2.5-3.3-4.6
			c0-2.3,0.4-4.4,3.4-4.4c2.6,0,3.2,1.7,3.2,4.4v0.5H200.6z M202.8,404.2c0-1.3-0.2-2-1.1-2c-0.9,0-1.1,0.9-1.1,1.7v0.3H202.8z"/>
		<path class="st8" d="M208.3,406.7v0.3c0,0.8,0.4,1.2,1.2,1.2c0.7,0,1.1-0.3,1.1-1c0-0.6-0.4-0.8-0.8-1l-1.6-0.6
			c-1.2-0.4-1.8-1.2-1.8-2.4c0-1.4,0.9-2.6,3.2-2.6c2,0,2.9,0.9,2.9,2.4v0.4h-2c0-0.9-0.3-1.3-1-1.3c-0.6,0-1,0.3-1,0.9
			c0,0.4,0.2,0.8,1,1l1.3,0.4c1.4,0.5,1.9,1.2,1.9,2.5c0,1.8-1.3,2.7-3.2,2.7c-2.5,0-3.2-1.1-3.2-2.7v-0.3H208.3z"/>
		<path class="st8" d="M214.5,400.9h2.1v1.2h0c0.4-0.8,1.1-1.4,2-1.4c0.1,0,0.3,0,0.4,0v2.1c-0.2,0-0.5,0-0.7,0
			c-0.8,0-1.6,0.4-1.6,1.6v5.2h-2.2V400.9z"/>
		<path class="st8" d="M220.5,397.9h2.2v1.9h-2.2V397.9z M220.5,400.9h2.2v8.6h-2.2V400.9z"/>
		<path class="st8" d="M226.8,405.5v0.7c0,1,0.3,2,1.1,2c0.7,0,1-0.6,1.2-1.6h2c-0.1,2-1,3.1-3.1,3.1c-3.2,0-3.3-2.5-3.3-4.6
			c0-2.3,0.4-4.4,3.4-4.4c2.6,0,3.2,1.7,3.2,4.4v0.5H226.8z M229.1,404.2c0-1.3-0.2-2-1.1-2c-0.9,0-1.1,0.9-1.1,1.7v0.3H229.1z"/>
		<path class="st8" d="M233,400.9h2.1v0.9h0c0.6-0.8,1.2-1.1,2.2-1.1c1,0,1.7,0.5,2,1.4h0c0.3-0.9,1.1-1.4,2.2-1.4
			c1.5,0,2.1,0.9,2.1,2.6v6.3h-2.2v-6c0-0.7-0.2-1.1-0.9-1.1c-0.7,0-1.2,0.5-1.2,1.5v5.7h-2.2v-6c0-0.7-0.2-1.1-0.9-1.1
			c-0.7,0-1.2,0.5-1.2,1.5v5.7H233V400.9z"/>
	</g>
	<g>
		<path class="st8" d="M101.8,424v0.3c0,1.1,0.3,1.8,1.5,1.8c0.7,0,1.4-0.4,1.4-1.4c0-1-0.5-1.4-2-2c-2-0.7-3-1.6-3-3.5
			c0-2.2,1.4-3.4,3.5-3.4c2,0,3.5,0.9,3.5,3.1v0.3h-2.2c0-1.1-0.4-1.7-1.2-1.7c-1,0-1.3,0.7-1.3,1.3c0,0.7,0.2,1.1,1.2,1.6l1.8,0.8
			c1.7,0.8,2.2,1.6,2.2,3c0,2.4-1.5,3.5-4,3.5c-2.6,0-3.6-1.2-3.6-3.3V424H101.8z"/>
		<path class="st8" d="M112,418.7c2.7,0,3.4,1.5,3.4,4.5c0,2.9-0.9,4.5-3.4,4.5c-2.7,0-3.4-1.5-3.4-4.5
			C108.6,420.3,109.4,418.7,112,418.7z M112,426.3c0.9,0,1.2-0.9,1.2-3c0-2.1-0.3-3-1.2-3c-1.1,0-1.2,1.3-1.2,3
			S110.9,426.3,112,426.3z"/>
		<path class="st8" d="M118.8,424.8v0.3c0,0.8,0.4,1.2,1.2,1.2c0.7,0,1.1-0.3,1.1-1c0-0.6-0.4-0.8-0.8-1l-1.6-0.6
			c-1.2-0.4-1.8-1.2-1.8-2.4c0-1.4,0.9-2.6,3.2-2.6c2,0,2.9,0.9,2.9,2.4v0.4h-2c0-0.9-0.3-1.3-1-1.3c-0.6,0-1,0.3-1,0.9
			c0,0.4,0.2,0.8,1,1l1.3,0.4c1.4,0.5,1.9,1.2,1.9,2.5c0,1.8-1.3,2.7-3.2,2.7c-2.5,0-3.2-1.1-3.2-2.7v-0.3H118.8z"/>
		<path class="st8" d="M126.5,424.8v0.3c0,0.8,0.4,1.2,1.2,1.2c0.7,0,1.1-0.3,1.1-1c0-0.6-0.4-0.8-0.8-1l-1.6-0.6
			c-1.2-0.4-1.8-1.2-1.8-2.4c0-1.4,0.9-2.6,3.2-2.6c2,0,2.9,0.9,2.9,2.4v0.4h-2c0-0.9-0.3-1.3-1-1.3c-0.6,0-1,0.3-1,0.9
			c0,0.4,0.2,0.8,1,1l1.3,0.4c1.4,0.5,1.9,1.2,1.9,2.5c0,1.8-1.3,2.7-3.2,2.7c-2.5,0-3.2-1.1-3.2-2.7v-0.3H126.5z"/>
		<path class="st8" d="M137.1,426.6L137.1,426.6c-0.5,0.8-1.3,1.2-2.2,1.2c-1.4,0-2.2-0.8-2.2-2.4V419h2.2v5.9
			c0,0.9,0.3,1.2,0.9,1.2c0.8,0,1.2-0.5,1.2-1.4V419h2.2v8.6h-2.1V426.6z"/>
		<path class="st8" d="M145.4,419h2.2l-2.2,8.6h-2.6l-2.2-8.6h2.3l1.2,6.2h0L145.4,419z"/>
		<path class="st8" d="M149.1,416.1h2.2v11.4h-2.2V416.1z"/>
		<path class="st8" d="M155.4,423.6v0.7c0,1,0.3,2,1.1,2c0.7,0,1-0.6,1.2-1.6h2c-0.1,2-1,3.1-3.1,3.1c-3.2,0-3.3-2.5-3.3-4.6
			c0-2.3,0.4-4.4,3.4-4.4c2.6,0,3.2,1.7,3.2,4.4v0.5H155.4z M157.7,422.3c0-1.3-0.2-2-1.1-2c-0.9,0-1.1,0.9-1.1,1.7v0.3H157.7z"/>
		<path class="st8" d="M161.6,416h2.2v1.9h-2.2V416z M161.6,419h2.2v8.6h-2.2V419z"/>
	</g>
	<g>
		<path class="st8" d="M31.9,317.4v0.3c0,1.1,0.3,1.8,1.5,1.8c0.7,0,1.4-0.4,1.4-1.4c0-1-0.5-1.4-2-2c-2-0.7-3-1.6-3-3.5
			c0-2.2,1.4-3.4,3.5-3.4c2,0,3.5,0.9,3.5,3.1v0.3h-2.2c0-1.1-0.4-1.7-1.2-1.7c-1,0-1.3,0.7-1.3,1.3c0,0.7,0.2,1.1,1.2,1.6l1.8,0.8
			c1.7,0.8,2.2,1.6,2.2,3c0,2.4-1.5,3.5-4,3.5c-2.6,0-3.6-1.2-3.6-3.3v-0.5H31.9z"/>
		<path class="st8" d="M38.3,312.3h2.2l1,6.1h0l1.1-6.1H45l1.1,6.1h0l1-6.1h2.1l-1.9,8.6H45l-1.1-6.1h0l-1.1,6.1h-2.6L38.3,312.3z"
			/>
		<path class="st8" d="M50.8,315v-0.2c0-2,1.4-2.7,3-2.7c2.6,0,3.1,1.1,3.1,2.6v4.5c0,0.8,0,1.2,0.3,1.7h-2.1
			c-0.1-0.3-0.2-0.6-0.3-0.9h0c-0.5,0.9-1.1,1.1-2.2,1.1c-1.5,0-2.1-1.3-2.1-2.5c0-1.6,0.7-2.3,2.2-2.7l1.2-0.3
			c0.7-0.2,0.9-0.4,0.9-1c0-0.7-0.3-1.1-1-1.1c-0.7,0-1,0.4-1,1.1v0.2H50.8z M54.8,316.7c-0.3,0.2-0.7,0.4-0.9,0.4
			c-0.9,0.2-1.2,0.6-1.2,1.4c0,0.7,0.2,1.2,0.8,1.2c0.6,0,1.4-0.4,1.4-1.3V316.7z"/>
		<path class="st8" d="M61.4,309.5v6h0l2.2-3.2h2.4l-2.5,3.4l2.8,5.2h-2.4l-1.8-3.5l-0.8,1v2.5h-2.2v-11.4H61.4z"/>
		<path class="st8" d="M70.9,312.1c2.7,0,3.4,1.5,3.4,4.5c0,2.9-0.9,4.5-3.4,4.5c-2.7,0-3.4-1.5-3.4-4.5
			C67.5,313.7,68.4,312.1,70.9,312.1z M70.9,319.7c0.9,0,1.2-0.9,1.2-3c0-2.1-0.3-3-1.2-3c-1.1,0-1.2,1.3-1.2,3
			S69.8,319.7,70.9,319.7z"/>
		<path class="st8" d="M76.1,312.3h2.1v0.9h0c0.5-0.8,1.1-1.1,2-1.1c1.8,0,2.6,1.3,2.6,4.5s-0.8,4.5-2.6,4.5c-0.8,0-1.4-0.3-1.9-1h0
			v3.6h-2.2V312.3z M79.5,319.5c1,0,1.2-1,1.2-2.8c0-1.9-0.2-2.8-1.2-2.8c-1,0-1.2,1-1.2,2.8C78.3,318.5,78.5,319.5,79.5,319.5z"/>
		<path class="st8" d="M84.8,312.3h2.1v0.9h0c0.6-0.8,1.2-1.1,2.2-1.1c1,0,1.7,0.5,2,1.4h0c0.3-0.9,1.1-1.4,2.2-1.4
			c1.5,0,2.1,0.9,2.1,2.6v6.3h-2.2v-6c0-0.7-0.2-1.1-0.9-1.1c-0.7,0-1.2,0.5-1.2,1.5v5.7H89v-6c0-0.7-0.2-1.1-0.9-1.1
			c-0.7,0-1.2,0.5-1.2,1.5v5.7h-2.2V312.3z"/>
		<path class="st8" d="M101.9,319.9L101.9,319.9c-0.5,0.8-1.3,1.2-2.2,1.2c-1.4,0-2.2-0.8-2.2-2.4v-6.4h2.2v5.9
			c0,0.9,0.3,1.2,0.9,1.2c0.8,0,1.2-0.5,1.2-1.4v-5.7h2.2v8.6h-2.1V319.9z"/>
		<path class="st8" d="M106.2,312.3h2.1v1h0c0.5-0.8,1.3-1.2,2.2-1.2c1.4,0,2.2,0.8,2.2,2.4v6.4h-2.2V315c0-0.9-0.3-1.2-0.9-1.2
			c-0.8,0-1.2,0.5-1.2,1.4v5.7h-2.2V312.3z"/>
		<path class="st8" d="M119.2,320L119.2,320c-0.5,0.8-1.1,1.1-2,1.1c-1.8,0-2.6-1.3-2.6-4.5s0.8-4.5,2.6-4.5c0.8,0,1.4,0.3,1.9,1h0
			v-3.6h2.2V321h-2.1V320z M118,319.5c1,0,1.2-1,1.2-2.8c0-1.9-0.2-2.8-1.2-2.8c-1,0-1.2,1-1.2,2.8C116.8,318.5,117,319.5,118,319.5
			z"/>
	</g>
	<g>
		<path class="st9" d="M462.8,303.5v3.4h0l2.2-3.4h1.9l-2.3,3.7l2.6,4.9h-1.9l-1.8-3.5l-0.6,1v2.5h-1.7v-8.6H462.8z"/>
		<path class="st9" d="M467.9,307.6v-0.2c0-1.5,1-2,2.3-2c2,0,2.3,0.8,2.3,2v3.4c0,0.6,0,0.9,0.2,1.2h-1.6c-0.1-0.2-0.2-0.5-0.2-0.7
			h0c-0.4,0.7-0.9,0.8-1.6,0.8c-1.2,0-1.6-1-1.6-1.8c0-1.2,0.5-1.7,1.6-2l0.9-0.3c0.5-0.1,0.7-0.3,0.7-0.8c0-0.5-0.2-0.8-0.8-0.8
			c-0.5,0-0.8,0.3-0.8,0.8v0.2H467.9z M471,308.8c-0.2,0.2-0.5,0.3-0.7,0.3c-0.7,0.1-0.9,0.5-0.9,1c0,0.5,0.2,0.9,0.6,0.9
			c0.4,0,1-0.3,1-1V308.8z"/>
		<path class="st9" d="M474.3,303.5h1.7v8.6h-1.7V303.5z"/>
		<path class="st9" d="M477.6,307.6v-0.2c0-1.5,1-2,2.3-2c2,0,2.3,0.8,2.3,2v3.4c0,0.6,0,0.9,0.2,1.2h-1.6c-0.1-0.2-0.2-0.5-0.2-0.7
			h0c-0.4,0.7-0.9,0.8-1.6,0.8c-1.2,0-1.6-1-1.6-1.8c0-1.2,0.5-1.7,1.6-2l0.9-0.3c0.5-0.1,0.7-0.3,0.7-0.8c0-0.5-0.2-0.8-0.8-0.8
			c-0.5,0-0.8,0.3-0.8,0.8v0.2H477.6z M480.6,308.8c-0.2,0.2-0.5,0.3-0.7,0.3c-0.7,0.1-0.9,0.5-0.9,1c0,0.5,0.2,0.9,0.6,0.9
			c0.4,0,1-0.3,1-1V308.8z"/>
		<path class="st9" d="M483.8,303.5h1.7v2.8h0c0.3-0.6,0.9-0.8,1.6-0.8c1,0,1.6,0.6,1.6,1.8v4.8h-1.7v-4.4c0-0.6-0.2-0.9-0.7-0.9
			c-0.6,0-0.9,0.3-0.9,1.1v4.3h-1.7V303.5z"/>
		<path class="st9" d="M490.3,307.6v-0.2c0-1.5,1-2,2.3-2c2,0,2.3,0.8,2.3,2v3.4c0,0.6,0,0.9,0.2,1.2h-1.6c-0.1-0.2-0.2-0.5-0.2-0.7
			h0c-0.4,0.7-0.9,0.8-1.6,0.8c-1.2,0-1.6-1-1.6-1.8c0-1.2,0.5-1.7,1.6-2l0.9-0.3c0.5-0.1,0.7-0.3,0.7-0.8c0-0.5-0.2-0.8-0.8-0.8
			c-0.5,0-0.8,0.3-0.8,0.8v0.2H490.3z M493.3,308.8c-0.2,0.2-0.5,0.3-0.7,0.3c-0.7,0.1-0.9,0.5-0.9,1c0,0.5,0.2,0.9,0.6,0.9
			c0.4,0,1-0.3,1-1V308.8z"/>
		<path class="st9" d="M496.6,305.6h1.6v0.9h0c0.3-0.6,0.8-1,1.5-1c0.1,0,0.2,0,0.3,0v1.6c-0.2,0-0.3,0-0.5,0
			c-0.6,0-1.2,0.3-1.2,1.2v3.9h-1.7V305.6z"/>
		<path class="st9" d="M501.1,303.4h1.7v1.4h-1.7V303.4z M501.1,305.6h1.7v6.5h-1.7V305.6z"/>
	</g>
	<g>
		<path class="st9" d="M136.6,355.2l2.1,5.9h0v-5.9h1.6v8.6h-2l-2.1-6h0v6h-1.6v-8.6H136.6z"/>
		<path class="st9" d="M141.9,359.2v-0.2c0-1.5,1-2,2.3-2c2,0,2.3,0.8,2.3,2v3.4c0,0.6,0,0.9,0.2,1.2h-1.6c-0.1-0.2-0.2-0.5-0.2-0.7
			h0c-0.4,0.7-0.9,0.8-1.6,0.8c-1.2,0-1.6-1-1.6-1.8c0-1.2,0.5-1.7,1.6-2l0.9-0.3c0.5-0.1,0.7-0.3,0.7-0.8c0-0.5-0.2-0.8-0.8-0.8
			c-0.5,0-0.8,0.3-0.8,0.8v0.2H141.9z M145,360.5c-0.2,0.2-0.5,0.3-0.7,0.3c-0.7,0.1-0.9,0.5-0.9,1c0,0.5,0.2,0.9,0.6,0.9
			c0.4,0,1-0.3,1-1V360.5z"/>
		<path class="st9" d="M148.2,357.3h1.6v0.7h0c0.4-0.6,0.9-0.8,1.6-0.8c0.8,0,1.3,0.4,1.5,1h0c0.3-0.7,0.9-1,1.6-1
			c1.1,0,1.6,0.7,1.6,1.9v4.7h-1.7v-4.5c0-0.5-0.2-0.8-0.6-0.8c-0.5,0-0.9,0.4-0.9,1.1v4.2h-1.7v-4.5c0-0.5-0.2-0.8-0.6-0.8
			c-0.5,0-0.9,0.4-0.9,1.1v4.2h-1.7V357.3z"/>
		<path class="st9" d="M157.8,355.1h1.7v1.4h-1.7V355.1z M157.8,357.3h1.7v6.5h-1.7V357.3z"/>
		<path class="st9" d="M161.1,355.2h1.7v2.7h0c0.3-0.5,0.8-0.8,1.4-0.8c1.4,0,2,1,2,3.4c0,2.4-0.6,3.4-2,3.4c-0.6,0-1.1-0.3-1.5-0.9
			h0v0.7h-1.6V355.2z M163.7,362.6c0.7,0,0.9-0.7,0.9-2.1c0-1.4-0.1-2.1-0.9-2.1c-0.7,0-0.9,0.7-0.9,2.1
			C162.8,361.9,162.9,362.6,163.7,362.6z"/>
		<path class="st9" d="M136.6,367.2l2.1,5.9h0v-5.9h1.6v8.6h-2l-2.1-6h0v6h-1.6v-8.6H136.6z"/>
		<path class="st9" d="M141.9,371.2v-0.2c0-1.5,1-2,2.3-2c2,0,2.3,0.8,2.3,2v3.4c0,0.6,0,0.9,0.2,1.2h-1.6c-0.1-0.2-0.2-0.5-0.2-0.7
			h0c-0.4,0.7-0.9,0.8-1.6,0.8c-1.2,0-1.6-1-1.6-1.8c0-1.2,0.5-1.7,1.6-2l0.9-0.3c0.5-0.1,0.7-0.3,0.7-0.8c0-0.5-0.2-0.8-0.8-0.8
			c-0.5,0-0.8,0.3-0.8,0.8v0.2H141.9z M145,372.5c-0.2,0.2-0.5,0.3-0.7,0.3c-0.7,0.1-0.9,0.5-0.9,1c0,0.5,0.2,0.9,0.6,0.9
			c0.4,0,1-0.3,1-1V372.5z"/>
		<path class="st9" d="M151.5,375L151.5,375c-0.4,0.6-1,0.9-1.7,0.9c-1,0-1.6-0.6-1.6-1.8v-4.8h1.7v4.4c0,0.6,0.2,0.9,0.7,0.9
			c0.6,0,0.9-0.3,0.9-1.1v-4.3h1.7v6.5h-1.6V375z"/>
		<path class="st9" d="M156.4,367.2v4.5h0l1.7-2.4h1.8l-1.9,2.5l2.1,3.9h-1.8l-1.4-2.7l-0.6,0.8v1.9h-1.7v-8.6H156.4z"/>
		<path class="st9" d="M161.2,367.2h1.7v8.6h-1.7V367.2z"/>
		<path class="st9" d="M167.8,375L167.8,375c-0.4,0.6-1,0.9-1.7,0.9c-1,0-1.6-0.6-1.6-1.8v-4.8h1.7v4.4c0,0.6,0.2,0.9,0.7,0.9
			c0.6,0,0.9-0.3,0.9-1.1v-4.3h1.7v6.5h-1.6V375z"/>
		<path class="st9" d="M171.4,370.4h-0.8v-1.1h0.8v-0.7c0-1.2,0.7-1.5,1.7-1.5c0.3,0,0.6,0,0.9,0v1.2c-0.1,0-0.2,0-0.3,0
			c-0.5,0-0.6,0.1-0.6,0.5v0.6h1v1.1h-1v5.3h-1.7V370.4z"/>
		<path class="st9" d="M175.4,367.4h1.7v1.8h1v1.1h-1v3.5c0,0.5,0.1,0.7,0.6,0.7c0.1,0,0.3,0,0.4,0v1.2c-0.4,0-0.7,0.1-1.1,0.1
			c-1.3,0-1.5-0.4-1.5-1.7v-3.7h-0.8v-1.1h0.8V367.4z"/>
	</g>
	<g>
		<path class="st6" d="M429.3,140.5c2.6,0,2.9,1.8,2.9,4.4s-0.3,4.4-2.9,4.4c-2.6,0-2.9-1.8-2.9-4.4S426.7,140.5,429.3,140.5z
			 M429.3,148.1c1,0,1.2-0.9,1.2-3.2c0-2.3-0.2-3.2-1.2-3.2c-1,0-1.2,0.9-1.2,3.2C428.1,147.2,428.3,148.1,429.3,148.1z"/>
		<path class="st6" d="M435.4,140.7v4.5h0l1.7-2.4h1.8l-1.9,2.5l2.1,3.9h-1.8l-1.4-2.7l-0.6,0.8v1.9h-1.7v-8.6H435.4z"/>
		<path class="st6" d="M440.1,144.7v-0.2c0-1.5,1-2,2.3-2c2,0,2.3,0.8,2.3,2v3.4c0,0.6,0,0.9,0.2,1.2h-1.6c-0.1-0.2-0.2-0.5-0.2-0.7
			h0c-0.4,0.7-0.9,0.8-1.6,0.8c-1.2,0-1.6-1-1.6-1.8c0-1.2,0.5-1.7,1.6-2l0.9-0.3c0.5-0.1,0.7-0.3,0.7-0.8c0-0.5-0.2-0.8-0.8-0.8
			c-0.5,0-0.8,0.3-0.8,0.8v0.2H440.1z M443.1,146c-0.2,0.2-0.5,0.3-0.7,0.3c-0.7,0.1-0.9,0.5-0.9,1c0,0.5,0.2,0.9,0.6,0.9
			c0.4,0,1-0.3,1-1V146z"/>
		<path class="st6" d="M449.4,142.8h1.7l-1.6,6.5h-1.9l-1.7-6.5h1.7l0.9,4.6h0L449.4,142.8z"/>
		<path class="st6" d="M452.2,144.7v-0.2c0-1.5,1-2,2.3-2c2,0,2.3,0.8,2.3,2v3.4c0,0.6,0,0.9,0.2,1.2h-1.6c-0.1-0.2-0.2-0.5-0.2-0.7
			h0c-0.4,0.7-0.9,0.8-1.6,0.8c-1.2,0-1.6-1-1.6-1.8c0-1.2,0.5-1.7,1.6-2l0.9-0.3c0.5-0.1,0.7-0.3,0.7-0.8c0-0.5-0.2-0.8-0.8-0.8
			c-0.5,0-0.8,0.3-0.8,0.8v0.2H452.2z M455.2,146c-0.2,0.2-0.5,0.3-0.7,0.3c-0.7,0.1-0.9,0.5-0.9,1c0,0.5,0.2,0.9,0.6,0.9
			c0.4,0,1-0.3,1-1V146z"/>
		<path class="st6" d="M458.4,142.8h1.6v0.8h0c0.3-0.6,0.9-0.9,1.6-0.9c1,0,1.6,0.6,1.6,1.8v4.8h-1.7v-4.4c0-0.6-0.2-0.9-0.7-0.9
			c-0.6,0-0.9,0.3-0.9,1.1v4.3h-1.7V142.8z"/>
		<path class="st6" d="M469.8,142.8v6.1c0,1.7-0.8,2.5-2.7,2.5c-1.4,0-2.2-0.6-2.2-1.7h1.6c0,0.2,0.1,0.4,0.3,0.5
			c0.2,0.1,0.3,0.2,0.6,0.2c0.7,0,0.9-0.5,0.9-1.2v-0.9h0c-0.3,0.5-0.9,0.8-1.4,0.8c-1.3,0-2-0.9-2-3.3c0-1.5,0.2-3.3,2-3.3
			c0.5,0,1,0.2,1.3,0.9h0v-0.7H469.8z M467.3,147.9c0.7,0,0.9-0.8,0.9-1.8c0-1.6-0.2-2.2-0.9-2.2c-0.7,0-0.9,0.6-0.9,2.3
			C466.4,147.1,466.6,147.9,467.3,147.9z"/>
		<path class="st6" d="M473.7,142.6c2,0,2.5,1.2,2.5,3.4c0,2.2-0.6,3.4-2.5,3.4c-2,0-2.5-1.2-2.5-3.4
			C471.2,143.8,471.8,142.6,473.7,142.6z M473.7,148.3c0.7,0,0.9-0.7,0.9-2.3c0-1.6-0.2-2.3-0.9-2.3c-0.8,0-0.9,0.9-0.9,2.3
			S472.9,148.3,473.7,148.3z"/>
		<path class="st6" d="M438.7,152.7h2.8c2.4,0,2.8,1.6,2.8,4.2c0,3-0.6,4.4-2.9,4.4h-2.7V152.7z M440.4,160h0.8
			c1.2,0,1.4-0.8,1.4-3.1c0-1.9-0.2-2.9-1.5-2.9h-0.7V160z"/>
		<path class="st6" d="M447.3,158.2v0.5c0,0.8,0.2,1.5,0.8,1.5c0.6,0,0.8-0.4,0.9-1.2h1.5c-0.1,1.5-0.8,2.3-2.3,2.3
			c-2.4,0-2.5-1.8-2.5-3.5c0-1.7,0.3-3.3,2.6-3.3c1.9,0,2.4,1.3,2.4,3.3v0.4H447.3z M449,157.3c0-1-0.2-1.5-0.8-1.5
			c-0.7,0-0.9,0.7-0.9,1.3v0.3H449z"/>
		<path class="st6" d="M452,152.7h1.7v8.6H452V152.7z"/>
		<path class="st6" d="M455.7,152.9h1.7v1.8h1v1.1h-1v3.5c0,0.5,0.1,0.7,0.6,0.7c0.1,0,0.3,0,0.4,0v1.2c-0.4,0-0.7,0.1-1.1,0.1
			c-1.3,0-1.5-0.4-1.5-1.7v-3.7h-0.8v-1.1h0.8V152.9z"/>
		<path class="st6" d="M459.3,156.7v-0.2c0-1.5,1-2,2.3-2c2,0,2.3,0.8,2.3,2v3.4c0,0.6,0,0.9,0.2,1.2h-1.6c-0.1-0.2-0.2-0.5-0.2-0.7
			h0c-0.4,0.7-0.9,0.8-1.6,0.8c-1.2,0-1.6-1-1.6-1.8c0-1.2,0.5-1.7,1.6-2l0.9-0.3c0.5-0.1,0.7-0.3,0.7-0.8c0-0.5-0.2-0.8-0.8-0.8
			c-0.5,0-0.8,0.3-0.8,0.8v0.2H459.3z M462.4,158c-0.2,0.2-0.5,0.3-0.7,0.3c-0.7,0.1-0.9,0.5-0.9,1c0,0.5,0.2,0.9,0.6,0.9
			c0.4,0,1-0.3,1-1V158z"/>
	</g>
	<g>
		<path class="st6" d="M610.8,122.3v0.3c0,0.8,0.2,1.3,1.1,1.3c0.5,0,1-0.3,1-1.1c0-0.8-0.4-1.1-1.5-1.5c-1.5-0.5-2.2-1.2-2.2-2.6
			c0-1.7,1-2.5,2.7-2.5c1.5,0,2.7,0.7,2.7,2.3v0.2h-1.7c0-0.8-0.3-1.3-0.9-1.3c-0.8,0-1,0.5-1,1c0,0.5,0.2,0.9,0.9,1.2l1.3,0.6
			c1.3,0.6,1.6,1.2,1.6,2.3c0,1.8-1.1,2.6-3,2.6c-2,0-2.7-0.9-2.7-2.5v-0.3H610.8z"/>
		<path class="st6" d="M616.1,120.5v-0.2c0-1.5,1-2,2.3-2c2,0,2.3,0.8,2.3,2v3.4c0,0.6,0,0.9,0.2,1.2h-1.6c-0.1-0.2-0.2-0.5-0.2-0.7
			h0c-0.4,0.7-0.9,0.8-1.6,0.8c-1.2,0-1.6-1-1.6-1.8c0-1.2,0.5-1.7,1.6-2l0.9-0.3c0.5-0.1,0.7-0.3,0.7-0.8c0-0.5-0.2-0.8-0.8-0.8
			c-0.5,0-0.8,0.3-0.8,0.8v0.2H616.1z M619.1,121.8c-0.2,0.2-0.5,0.3-0.7,0.3c-0.7,0.1-0.9,0.5-0.9,1c0,0.5,0.2,0.9,0.6,0.9
			s1-0.3,1-1V121.8z"/>
		<path class="st6" d="M622.4,118.6h1.6v0.7h0c0.4-0.6,0.9-0.8,1.6-0.8c0.8,0,1.3,0.4,1.5,1h0c0.3-0.7,0.9-1,1.6-1
			c1.1,0,1.6,0.7,1.6,1.9v4.7h-1.7v-4.5c0-0.5-0.2-0.8-0.6-0.8c-0.5,0-0.9,0.4-0.9,1.1v4.2h-1.7v-4.5c0-0.5-0.2-0.8-0.6-0.8
			c-0.5,0-0.9,0.4-0.9,1.1v4.2h-1.7V118.6z"/>
		<path class="st6" d="M631.9,116.4h1.7v2.7h0c0.3-0.5,0.8-0.8,1.4-0.8c1.4,0,2,1,2,3.4c0,2.4-0.6,3.4-2,3.4c-0.6,0-1.1-0.3-1.5-0.9
			h0v0.7h-1.6V116.4z M634.5,123.9c0.7,0,0.9-0.7,0.9-2.1s-0.1-2.1-0.9-2.1c-0.7,0-0.9,0.7-0.9,2.1S633.7,123.9,634.5,123.9z"/>
		<path class="st6" d="M639.8,122v0.5c0,0.8,0.2,1.5,0.8,1.5c0.6,0,0.8-0.4,0.9-1.2h1.5c-0.1,1.5-0.8,2.3-2.3,2.3
			c-2.4,0-2.5-1.8-2.5-3.5c0-1.7,0.3-3.3,2.6-3.3c1.9,0,2.4,1.3,2.4,3.3v0.4H639.8z M641.5,121.1c0-1-0.2-1.5-0.8-1.5
			c-0.7,0-0.9,0.7-0.9,1.3v0.3H641.5z"/>
		<path class="st6" d="M645.7,122.9v0.2c0,0.6,0.3,0.9,0.9,0.9c0.5,0,0.8-0.3,0.8-0.8c0-0.4-0.3-0.6-0.6-0.7l-1.2-0.4
			c-0.9-0.3-1.4-0.9-1.4-1.8c0-1.1,0.7-1.9,2.4-1.9c1.5,0,2.2,0.7,2.2,1.8v0.3h-1.5c0-0.6-0.2-1-0.7-1c-0.4,0-0.8,0.2-0.8,0.7
			c0,0.3,0.2,0.6,0.7,0.8l1,0.3c1,0.3,1.4,0.9,1.4,1.8c0,1.4-1,2-2.4,2c-1.9,0-2.4-0.8-2.4-2.1v-0.2H645.7z"/>
		<path class="st6" d="M650.3,116.4h1.7v1.4h-1.7V116.4z M650.3,118.6h1.7v6.5h-1.7V118.6z"/>
	</g>
	<path class="st10" d="M226.9,311.2c0,0,165.6-137.2,350.4-186.1"/>
	<polyline class="st11" points="546.1,114.6 570.4,108.6 577.3,125 	"/>
	<polyline class="st11" points="226.9,311.2 442.7,262.9 475.5,200.7 317.3,312 226.9,311.2 131.6,316.7 127.3,332.2 180.7,352.1 
		180.7,394.1 226.9,311.2 	"/>
	<line class="st11" x1="110.2" y1="276.7" x2="131.6" y2="316.7"/>
	<line class="st11" x1="167.3" y1="407" x2="180.7" y2="394.1"/>
	<path d="M542.3,114.6c0-2.3,1.9-4.3,4.3-4.3c2.3,0,4.3,1.9,4.3,4.3c0,2.3-1.9,4.3-4.3,4.3C544.2,118.8,542.3,116.9,542.3,114.6
		L542.3,114.6z"/>
	<path d="M471.1,200.7c0-2.3,1.9-4.3,4.3-4.3c2.3,0,4.3,1.9,4.3,4.3c0,2.3-1.9,4.3-4.3,4.3C473,204.9,471.1,203,471.1,200.7
		L471.1,200.7z"/>
	<path d="M438.4,262.9c0-2.3,1.9-4.3,4.3-4.3c2.3,0,4.3,1.9,4.3,4.3c0,2.3-1.9,4.3-4.3,4.3C440.3,267.1,438.4,265.2,438.4,262.9
		L438.4,262.9z"/>
	<path d="M566.1,108.6c0-2.3,1.9-4.3,4.3-4.3c2.3,0,4.3,1.9,4.3,4.3c0,2.3-1.9,4.3-4.3,4.3C568,112.8,566.1,110.9,566.1,108.6
		L566.1,108.6z"/>
	<path d="M573.1,125c0-2.3,1.9-4.3,4.3-4.3c2.3,0,4.3,1.9,4.3,4.3c0,2.3-1.9,4.3-4.3,4.3C575,129.3,573.1,127.4,573.1,125L573.1,125
		z"/>
	<path d="M313,311.2c0-2.3,1.9-4.3,4.3-4.3c2.3,0,4.3,1.9,4.3,4.3c0,2.3-1.9,4.3-4.3,4.3C314.9,315.4,313,313.5,313,311.2L313,311.2
		z"/>
	<path d="M222.6,311.2c0-2.3,1.9-4.3,4.3-4.3c2.3,0,4.3,1.9,4.3,4.3c0,2.3-1.9,4.3-4.3,4.3C224.6,315.4,222.6,313.5,222.6,311.2
		L222.6,311.2z"/>
	<path d="M105.9,276.7c0-2.3,1.9-4.3,4.3-4.3c2.3,0,4.3,1.9,4.3,4.3c0,2.3-1.9,4.3-4.3,4.3C107.8,280.9,105.9,279,105.9,276.7
		L105.9,276.7z"/>
	<path d="M127.3,316.7c0-2.3,1.9-4.3,4.3-4.3c2.3,0,4.3,1.9,4.3,4.3c0,2.3-1.9,4.3-4.3,4.3C129.2,321,127.3,319.1,127.3,316.7
		L127.3,316.7z"/>
	<path d="M123.4,332.1c0-2.3,1.9-4.3,4.3-4.3c2.3,0,4.3,1.9,4.3,4.3c0,2.3-1.9,4.3-4.3,4.3C125.3,336.3,123.4,334.4,123.4,332.1
		L123.4,332.1z"/>
	<path d="M163.7,407c0-2.3,1.9-4.3,4.3-4.3c2.3,0,4.3,1.9,4.3,4.3c0,2.3-1.9,4.3-4.3,4.3C165.6,411.2,163.7,409.3,163.7,407
		L163.7,407z"/>
	<path d="M176.5,394.1c0-2.3,1.9-4.3,4.3-4.3c2.3,0,4.3,1.9,4.3,4.3c0,2.3-1.9,4.3-4.3,4.3C178.4,398.3,176.5,396.4,176.5,394.1
		L176.5,394.1z"/>
	<path d="M176.5,352.1c0-2.3,1.9-4.3,4.3-4.3c2.3,0,4.3,1.9,4.3,4.3c0,2.3-1.9,4.3-4.3,4.3C178.4,356.4,176.5,354.5,176.5,352.1
		L176.5,352.1z"/>
	<g>
		<circle class="st12" cx="226.9" cy="293.3" r="5.7"/>
		<path class="st13" d="M226.9,284c-5,0-9,4-9,9c0,2,1.3,5.3,3.9,10c1.9,3.3,3.7,6.1,3.8,6.2l1.3,2l1.3-2c0.1-0.1,1.9-2.9,3.8-6.2
			c2.6-4.7,3.9-8,3.9-10C235.9,288,231.8,284,226.9,284z M226.9,297.6c-2.6,0-4.7-2.1-4.7-4.7s2.1-4.7,4.7-4.7s4.7,2.1,4.7,4.7
			C231.5,295.5,229.5,297.6,226.9,297.6z"/>
	</g>
	<path class="st6" d="M672.2,53.4c-8.6,1-9.9,2.4-15.9,5.7c-5.9,3.2-6.3,8.3-8.9,8.1c-2.6-0.2-0.6-3.7-3.9-2.6
		c-3.7,1.3,0.1,6.4-2.3,7.9s-4,1.4-5.3,4.8s-5.7,1.5-7.6,6c-1.8,4.5-3.7,4.4-3.6,7.8s-6.7,9.5-9,13.1s1.2,4.6,4.2,1
		s5.6-9.6,9.6-10.9c4-1.3,6.8-3.4,7.6-9.6c0.8-6.1,4-2.6,5.8-4.1s1.3-5.9,3.8-6s5.8,4.3,6.3,0c0.5-4.3,0.7-4.5,3.7-7.5
		c3-3,3.9-3.3,6.2-1.7c2.3,1.5,1,4.3,3.5,1.7s2.8-6.5,5.8-5.8s3.6,6.4,6.6,5.8c3-0.6,0.7-4.9,3-6.2c2.3-1.3,1.8-4.5,0.6-6.2
		C680.4,52,672.2,53.4,672.2,53.4z"/>
</g>
</svg>
