<svg xmlns="http://www.w3.org/2000/svg" viewBox="0 11 422.715 444.458">
  <defs>
    <style>
      .a {
        fill: #dadada;
      }

      .b, .c {
        fill: #1d1d1b;
      }

      .c, .e {
        fill-rule: evenodd;
      }

      .d, .e {
        fill: #d2007f;
      }

      .f {
        fill: #fff;
      }
    </style>
  </defs>
  <g id="bigmap">
    <path class="a" d="M175.056,473.651c-1.97,0,1.34,1.3-5.32,3.645s-8.295-.335-12.315,2.01-2.01,5.36-4.355,5.36-2.64-1.34-3.98-1-11.015-.71-12.355-6.03-1-18.345,0-21.99,5.025-6.325,4.02-7.665-5.36-4.65-4.69-7.33,3.39-5.36,4.69-11.015,2.64-23.33,2.64-23.33-12.985-7.29-12.985-10.64,4.985-4.985,4.65-7-2.64-12.355-5.655-12.355-9.675,5.615-15.33,5.32-13.32-4.315-14.66-10.64,2.01-14.66,0-17-5.025-10.975-1.675-13.655,1.38-.966,3.685.335,2.345-4.69,5.655-3.685,3.645-2.01,5.99-2.345,4.355,1.635,4.355-1.005-.375-8.63.63-11.98,2.345-4.65,2.345-6.325a33.776,33.776,0,0,1,3.35-10.345c1.34-2.01,5.99-8.3,6.325-5.655s2.68,4.61,3.015,2.64-3.015-6.955-2.01-8.965,3.35-2.01.335-3.685-6.365-5.616-4.355-12.65,5.36-13.32,5.7-16-.71-3.35,1.97-3.35,5.025,0,5.025-1.34-4.69-10.305-1.675-10.975,5.32,2.68,6.325,0-1-12.985.335-16.335a59.09,59.09,0,0,0,2.345-8.335s-6.325-4.02-7.665-5.025.63-3.31,2.64-4.985,5.7.04,6.03,1.675,1.3,5.32,2.305,3.645,3.35-9.3,3.015-11.645-4.02-5.32-3.015-7.665,5.695-.67,6.03-2.68-1.635-6.03,0-9.34a7.92,7.92,0,0,1,6.66-4.65c2.01,0-.63-7.665,2.01-7.665s5.32-.335,5.99-3.015,1.635-11.35,4.65-10.01,2.345,8,8.67,9,3.31-4.315,5.99-5.32,6.07-1.97,7.035-5.99,2.305-15.33,4.985-16.335,4.985-3.35,7-1.34,12.65,1.97,14.325,5.655,3.98,7.33,7,8.67,7.7-2.68,12.355-1,6.66,2.68,8,2.345,1.3-3.35,3.98-2.01,10.01.335,11.015,2.345,4.355,3.98,8.335,3.98,10.975-2.01,13.32,1.34,7.33,7,7.33,7,16.63-2.01,23.33-1.675,19.015-.67,21.025.67,7.37,4.69,9,4.02.63-4.985,2.305-4.985,6.07,1.93,7.035.295,1.635-8.67,3.645-8,4.315,1.38,5.32-.295,4.69-6.365,4.69-6.365,3.98-.04,3.98-1.34.04-7.29,3.685-9.635,11.645-.335,13.32-3.015,2.345-7.33,1-7.665,8-12.02,10.01-11.685,1.044,2.68,1.675,4.355,3.98-.3,5.32,1.675,8.67,9,8.67,9-7.33,3.31-7.665,4.65-2.72,9.045-4.355,11.015.3,5.655-1.34,7.33-4.65-.04-5.99,2.305.67,4.02-6.325,11.015-10.64,6.7-12.315,10.01-4.69,11.98-10.01,14.325S355.746,197,353.4,195.661s-2.975-3.35-5.655-1.675-17.045,1.34-21.36.67-11.645-1.715-13.655-4.355-8.375-10.975-10.345-10.975-1.3,1.97-2.975,3.31-6.03,2.345-12.69,1.675-23.625-1.34-26.64-1.34-3.98,1.34-8.335,1.34-5.025-2.64-11.685-3.31-9.97,2.975-18.64,2.975-9.675-.67-11.685-.335-.63,2.68-4.315,3.015-17.715-6.7-21.36-4.69-13.32,8.71-15.33,12.02-3.645,11.31-3.98,13.99-2.01,16.04-2.01,20.02-.3,10.64,2.68,12.65,10.305,2.64,11.645,5.32,5.655,6.325,6.325,8.335,4.4.335,6.03,2.345-1.715,10.719.965,12.02,7.665-5.32,11.015-2.345,11.31,8,13.99,5.655,6.7-16.63,11.015-19.645,5.655-6.03,8-5.695,2.975-4.985,4.65-3.645.335,3.645,1.34,5.32,4.02,4.059,9.005,4.69,6.325-.966,8.335-.335,3.31,3.605,3.98,1.635,2.385-7.665,5.695-7.33,11.98.965,14.66-.335,6.7-4.65,11.685-4.65,23.29-4.69,26.64-.67,7.625,6.03,5.32,11.015-3.685,12.65-5.99,12.65-10.975-8.67-10.975-8.67a65.177,65.177,0,0,0-8.335,0c-2.68.335-9.34.71-9.34,3.015s1.675,8.965-1.34,10.3-4.985,4.394-7.33,7.37-8.71,4.69-11.35,6.66-5.36,5.655-8.67,5.655-7.96-1-8.965.67.63,4.65-3.685,4.65-4.315-.67-5.99,1.34-5.32,6.365-9,5.36a21.511,21.511,0,0,1-9.005-5.36c-2.01-2.01-6.995-3.35-5.99-1s9.635,12.395,12.985,14.03,18.385,12.61,19.685,16.63,6.7,15,8,16.67,13.32,4.985,11.98,7-4.02,6.325-2.68,8.335,10.345,2.05,9.34,6.365-5.99,2.305-5.99,3.98,2.01,4.059,0,5.025-4.65-1.635-5.655,0,5.36,3.35,1.675,6.325-8,4.315-3.685,5.99,18.68,8.04,19.35,11.015-.965,8.295,1,9.3,5.025-3.606,6.66-1.97,7.665,5.655,4.985,12.315-6.66,7.625-8,5.655.63,1.34-2.01,2.68-4.65-2.01-6.325-1.34-3.31,4.02-6.995,4.355-9.3,1.379-12.65,2.01-5.695-.04-6.03,2.975,4.02,9.34,2.01,10.01-7.705,3.015-10.345,2.68-12.355,0-16.335-3.35-5.655-3.98-4.65-7.665,3.685-16.965,2.345-20.985-3.645-5.065-1-7.035,3.685-5.025,2.345-7-8-1.97-10.345-3.98-15.665-12.65-18.68-15.33-4.355-6.325-2.345-8,7.33-5.32,7.33-8,1.675-1.715,2.345-4.355,2.68-14.7,1.675-18.01-4.355-11.31-11.015-10.975-15.96,5.32-18.64,7.665-6.995,7.7-9.675,9.675-7.625,3.31-5.99,4.985,4.985,2.64,4.315,5.655a3.134,3.134,0,0,0,3.685,4.02c1.97-.335,2.64-.3,2.975,2.68s-.67,10.64.335,13.32,3.685,4.69,2.01,8.335-3.685,9.97-3.015,13.32,3.35,5.32,1.675,8.67-3.015,4.985-2.01,8.335,5.695,10.345,4.02,17-6.62,13.695-5.32,17.675,8,14.955,8,18.64,1.675,8-.335,8.67-5.695-5.32-5.695-5.32Z" transform="translate(-68.966 -76.276)"/>
    <path class="a" d="M231.675,214.018c-1.649,1.031-3.633,2.886-2.229,3.3s3.878,0,4.7-1.031,1.443-2.473.412-2.473-2.885.206-2.885.206Z" transform="translate(-68.966 -76.276)"/>
    <path class="a" d="M248.293,221.232c-1.237,1.2.58,3.259-1.649,3.878s-4.083-.168-4.5,2.473,1.482,3.015,3.5,2.229,2.847-.618,2.641.824,1.855-.373,2.268-2.228.656-3.5,2.061-3.3,4.908,1.236,4.908-.619-1.61-5.114-3.878-5.114-5.359,1.855-5.359,1.855Z" transform="translate(-68.966 -76.276)"/>
    <path class="a" d="M269.446,216.9c-1.855,0-4.74-.207-4.328,1.236s4.5,3.053,5.732,3.466,2.68-.206,3.711,1.03,3.916,2.435,3.091.413-1.855-4.5-3.5-4.5-4.7-1.649-4.7-1.649Z" transform="translate(-68.966 -76.276)"/>
    <path class="a" d="M263.262,223.255c-1.236.206-2.4-.206-1.61,1.236s2.435,2.474,2.847,1.443-1.237-2.679-1.237-2.679Z" transform="translate(-68.966 -76.276)"/>
    <path class="a" d="M282.148,229.812c-1.03.206-2.267,0-2.061,1.649a2.813,2.813,0,0,0,2.68,2.473,2.865,2.865,0,0,0,2.473-2.061c.206-1.031,2.267-3.221.412-2.847s-3.5.786-3.5.786Z" transform="translate(-68.966 -76.276)"/>
    <path class="a" d="M181.358,485.694c0,3.622-1.208,10.06-1.208,13.634s1.562,13.183,2.367,15.2,2.817-5.633,3.219-10.817,1.207-9.609-.8-13.988-3.573-4.024-3.573-4.024Z" transform="translate(-68.966 -76.276)"/>
    <path class="a" d="M421.97,132.258c-1.174,1.059-2.116,3.175-2.7,3.881s-4.943,1.648-5.061,3.06,2.237,3.29,3.531,2.351,1.65-1.88,2.942-4.116a11.871,11.871,0,0,0,1.292-5.176Z" transform="translate(-68.966 -76.276)"/>
    <path class="a" d="M300.146,269.172a10.958,10.958,0,0,0-5.061,7.759c-.241,2.939-1.2,7.806,1.446,9.493s5.831-5.785,7.759-7.518,4.1-1.929,3.856.482-2.892,3.9-2.892,6.313,2.892,2.41,3.133,3.856-.195,2.892,1.734,1.687,6.025-2.123,4.82-4.338-1.928-4.626-.482-4.385,3.9,3.615,6.554,2.651,5.83-5.256,5.83-7.712,1.883-4.144-1.251-4.626-4.82,2.169-6.025-.241-2.7-5.062-3.18-2.41,0,7.518-1.928,7.518-4.579-.288-3.374-2.7,3.9-5.59,1.205-6.313-4.867,1.975-6.8,1.493-5.349-1.011-5.349-1.011Z" transform="translate(-68.966 -76.276)"/>
    <path class="a" d="M307.9,294.183c-1.446.482-3.615-.482-3.374,3.133s1.446,7.323,2.169,4.867,1.687-1.493,2.169-4.144a4.039,4.039,0,0,0-.964-3.856Z" transform="translate(-68.966 -76.276)"/>
    <path class="a" d="M317.351,291.967c-2.169,1.734-3.615.528-3.374,2.457s1.975,3.615,4.144,1.928,3.856-2.939,2.651-3.9-3.421-.482-3.421-.482Z" transform="translate(-68.966 -76.276)"/>
    <path class="a" d="M328.049,284.449c-.723,2.457-1.159,3.9-1.687,6.313s-1.205,4.867.964,4.144,3.374-.288,3.615-3.9,1.446-3.81-.241-5.3-2.651-1.252-2.651-1.252Z" transform="translate(-68.966 -76.276)"/>
    <path class="b" d="M243.923,89.792h1.044a2.855,2.855,0,0,0-.374-1.1,2.7,2.7,0,0,0-.715-.8,3.129,3.129,0,0,0-.978-.484,4.044,4.044,0,0,0-1.167-.165,3.745,3.745,0,0,0-1.606.33,3.314,3.314,0,0,0-1.165.88,3.942,3.942,0,0,0-.7,1.32,5.2,5.2,0,0,0-.241,1.606,5.688,5.688,0,0,0,.219,1.606,3.783,3.783,0,0,0,.682,1.3,3.2,3.2,0,0,0,1.133.869,3.837,3.837,0,0,0,1.595.308,3.309,3.309,0,0,0,2.376-.825,3.567,3.567,0,0,0,1.024-2.31H244a2.96,2.96,0,0,1-.2.9,2.187,2.187,0,0,1-.462.726,2.1,2.1,0,0,1-.693.473,2.357,2.357,0,0,1-.913.165,2.581,2.581,0,0,1-1.209-.264,2.429,2.429,0,0,1-.837-.7,3.191,3.191,0,0,1-.473-1.045,5.181,5.181,0,0,1-.154-1.276,4.58,4.58,0,0,1,.154-1.188,3.082,3.082,0,0,1,.473-1.012,2.428,2.428,0,0,1,.825-.715,2.588,2.588,0,0,1,1.21-.264,2.4,2.4,0,0,1,1.419.418,1.938,1.938,0,0,1,.782,1.254Z" transform="translate(-68.966 -76.276)"/>
    <polygon class="b" points="177.927 11.152 177.927 19.006 183.383 19.006 183.383 18.126 178.972 18.126 178.972 15.408 183.053 15.408 183.053 14.529 178.972 14.529 178.972 12.032 183.35 12.032 183.35 11.152 177.927 11.152 177.927 11.152"/>
    <polygon class="b" points="185.197 11.152 185.197 19.006 190.4 19.006 190.4 18.126 186.242 18.126 186.242 11.152 185.197 11.152 185.197 11.152"/>
    <polygon class="b" points="191.863 11.152 191.863 19.006 197.319 19.006 197.319 18.126 192.908 18.126 192.908 15.408 196.989 15.408 196.989 14.529 192.908 14.529 192.908 12.032 197.287 12.032 197.287 11.152 191.863 11.152 191.863 11.152"/>
    <path class="c" d="M269.145,90.8v-2.5h2.09a4.4,4.4,0,0,1,.638.044,1.37,1.37,0,0,1,.539.165.94.94,0,0,1,.363.374,1.387,1.387,0,0,1,.132.66,1.143,1.143,0,0,1-.4.946,2.057,2.057,0,0,1-1.276.308ZM268.1,87.427v7.854H271.9a2.59,2.59,0,0,0,1.023-.187,2.319,2.319,0,0,0,.748-.506,2.119,2.119,0,0,0,.462-.726,2.335,2.335,0,0,0,.154-.836,1.974,1.974,0,0,0-.385-1.232,1.809,1.809,0,0,0-1.111-.66v-.022a1.757,1.757,0,0,0,.858-.671,1.912,1.912,0,0,0,.308-1.089,1.751,1.751,0,0,0-.275-1,1.994,1.994,0,0,0-.649-.638,1.353,1.353,0,0,0-.429-.165,3.636,3.636,0,0,0-.528-.077,5.074,5.074,0,0,0-.583-.033c-.19-.007-.37-.011-.539-.011Zm1.045,6.974V91.684h2.387a3.035,3.035,0,0,1,.638.066,1.416,1.416,0,0,1,.539.209,1.046,1.046,0,0,1,.385.4,1.279,1.279,0,0,1,.143.638,1.353,1.353,0,0,1-.4,1.034,1.479,1.479,0,0,1-1.078.374Z" transform="translate(-68.966 -76.276)"/>
    <polygon class="b" points="207.219 11.152 207.219 19.006 212.675 19.006 212.675 18.126 208.264 18.126 208.264 15.408 212.345 15.408 212.345 14.529 208.264 14.529 208.264 12.032 212.642 12.032 212.642 11.152 207.219 11.152 207.219 11.152"/>
    <path class="b" d="M288,89.726h.99a2.656,2.656,0,0,0-.253-1.111,2.081,2.081,0,0,0-.616-.781,2.5,2.5,0,0,0-.9-.451,4.208,4.208,0,0,0-1.122-.143,3.96,3.96,0,0,0-1.056.143,2.828,2.828,0,0,0-.913.418,2.077,2.077,0,0,0-.638.715,2.053,2.053,0,0,0-.242,1.023,1.786,1.786,0,0,0,.209.9,1.882,1.882,0,0,0,.572.583,3.734,3.734,0,0,0,.814.363q.452.132.913.242t.924.2a3.821,3.821,0,0,1,.8.264,1.465,1.465,0,0,1,.572.407.969.969,0,0,1,.22.66,1.287,1.287,0,0,1-.176.7,1.316,1.316,0,0,1-.462.44,2.168,2.168,0,0,1-.649.22,3.812,3.812,0,0,1-.7.066,3.332,3.332,0,0,1-.858-.11,2.2,2.2,0,0,1-.737-.341A1.667,1.667,0,0,1,284,92.7h-.99a2.857,2.857,0,0,0,.253,1.243,2.515,2.515,0,0,0,.7.858,3.227,3.227,0,0,0,1.034.5,4.665,4.665,0,0,0,1.254.165,4.511,4.511,0,0,0,1.078-.132,3.1,3.1,0,0,0,.99-.4,2.315,2.315,0,0,0,.715-.726,1.966,1.966,0,0,0,.286-1.078,1.928,1.928,0,0,0-.22-.968,1.841,1.841,0,0,0-.572-.638,2.8,2.8,0,0,0-.8-.4c-.3-.1-.608-.19-.924-.264s-.612-.139-.913-.2a5.274,5.274,0,0,1-.814-.242,1.7,1.7,0,0,1-.572-.363.853.853,0,0,1-.209-.594,1.287,1.287,0,0,1,.143-.638,1.214,1.214,0,0,1,.4-.418,1.788,1.788,0,0,1,.572-.22,3.2,3.2,0,0,1,.649-.066,2.166,2.166,0,0,1,1.331.385A1.608,1.608,0,0,1,288,89.726Z" transform="translate(-68.966 -76.276)"/>
    <path class="b" d="M299.285,89.726h.99a2.656,2.656,0,0,0-.253-1.111,2.081,2.081,0,0,0-.616-.781,2.494,2.494,0,0,0-.9-.451,4.2,4.2,0,0,0-1.122-.143,3.96,3.96,0,0,0-1.056.143,2.828,2.828,0,0,0-.913.418,2.077,2.077,0,0,0-.638.715,2.053,2.053,0,0,0-.242,1.023,1.786,1.786,0,0,0,.209.9,1.894,1.894,0,0,0,.572.583,3.734,3.734,0,0,0,.814.363q.451.132.913.242t.924.2a3.8,3.8,0,0,1,.8.264,1.465,1.465,0,0,1,.572.407.969.969,0,0,1,.22.66,1.278,1.278,0,0,1-.176.7,1.316,1.316,0,0,1-.462.44,2.168,2.168,0,0,1-.649.22,3.8,3.8,0,0,1-.7.066,3.332,3.332,0,0,1-.858-.11,2.189,2.189,0,0,1-.737-.341,1.667,1.667,0,0,1-.693-1.441h-.99a2.857,2.857,0,0,0,.253,1.243,2.515,2.515,0,0,0,.7.858,3.227,3.227,0,0,0,1.034.5,4.665,4.665,0,0,0,1.254.165,4.511,4.511,0,0,0,1.078-.132,3.1,3.1,0,0,0,.99-.4,2.315,2.315,0,0,0,.715-.726,1.966,1.966,0,0,0,.286-1.078,1.928,1.928,0,0,0-.22-.968,1.841,1.841,0,0,0-.572-.638,2.813,2.813,0,0,0-.8-.4c-.3-.1-.609-.19-.924-.264s-.612-.139-.913-.2a5.308,5.308,0,0,1-.814-.242,1.693,1.693,0,0,1-.572-.363.853.853,0,0,1-.209-.594,1.287,1.287,0,0,1,.143-.638,1.214,1.214,0,0,1,.4-.418,1.779,1.779,0,0,1,.572-.22,3.2,3.2,0,0,1,.649-.066,2.166,2.166,0,0,1,1.331.385,1.608,1.608,0,0,1,.616,1.221Z" transform="translate(-68.966 -76.276)"/>
    <polygon class="b" points="233.454 11.152 233.454 19.006 238.91 19.006 238.91 18.126 234.499 18.126 234.499 15.408 238.58 15.408 238.58 14.529 234.499 14.529 234.499 12.032 238.878 12.032 238.878 11.152 233.454 11.152 233.454 11.152"/>
    <polygon class="b" points="240.725 11.152 240.725 19.006 246.181 19.006 246.181 18.126 241.77 18.126 241.77 15.408 245.851 15.408 245.851 14.529 241.77 14.529 241.77 12.032 246.148 12.032 246.148 11.152 240.725 11.152 240.725 11.152"/>
    <polygon class="b" points="300.637 154.935 300.637 162.789 301.627 162.789 301.627 156.255 301.649 156.255 304.102 162.789 304.993 162.789 307.446 156.255 307.468 156.255 307.468 162.789 308.458 162.789 308.458 154.935 307.028 154.935 304.542 161.535 302.067 154.935 300.637 154.935 300.637 154.935"/>
    <path class="c" d="M380.317,235.137a4.455,4.455,0,0,1,.154-1.166,3.168,3.168,0,0,1,.484-1.045,2.426,2.426,0,0,1,.847-.737,2.8,2.8,0,0,1,2.463,0,2.417,2.417,0,0,1,.847.737,3.17,3.17,0,0,1,.485,1.045,4.5,4.5,0,0,1,.154,1.166,4.616,4.616,0,0,1-.154,1.177,3.17,3.17,0,0,1-.485,1.034,2.509,2.509,0,0,1-.847.748,2.885,2.885,0,0,1-2.463,0,2.518,2.518,0,0,1-.847-.748,3.168,3.168,0,0,1-.484-1.034,4.572,4.572,0,0,1-.154-1.177Zm-1.045,0a5.188,5.188,0,0,0,.231,1.551,3.954,3.954,0,0,0,.715,1.309,3.441,3.441,0,0,0,1.177.913,4.233,4.233,0,0,0,3.277,0A3.454,3.454,0,0,0,385.85,238a3.824,3.824,0,0,0,.7-1.309,5.01,5.01,0,0,0,.241-1.551,4.918,4.918,0,0,0-.241-1.54,3.83,3.83,0,0,0-.7-1.32,3.479,3.479,0,0,0-1.178-.913,4.118,4.118,0,0,0-3.277,0,3.466,3.466,0,0,0-1.177.913,3.957,3.957,0,0,0-.715,1.32,5.092,5.092,0,0,0-.231,1.54Z" transform="translate(-68.966 -76.276)"/>
    <polygon class="b" points="319.656 154.935 319.656 162.789 324.859 162.789 324.859 161.909 320.701 161.909 320.701 154.935 319.656 154.935 319.656 154.935"/>
    <path class="b" d="M401.558,236.226V231.21h-1.045v5.016a2.231,2.231,0,0,1-.529,1.606,2,2,0,0,1-1.518.54,2.244,2.244,0,0,1-1.617-.54,2.149,2.149,0,0,1-.561-1.606V231.21h-1.044v5.016a2.866,2.866,0,0,0,.847,2.3,3.6,3.6,0,0,0,2.375.715,3.235,3.235,0,0,0,2.289-.748,2.975,2.975,0,0,0,.8-2.266Z" transform="translate(-68.966 -76.276)"/>
    <polygon class="b" points="334.814 154.935 334.814 162.789 335.858 162.789 335.858 160.039 337.168 158.818 340.005 162.789 341.326 162.789 337.883 158.103 341.194 154.935 339.841 154.935 335.858 158.851 335.858 154.935 334.814 154.935 334.814 154.935"/>
    <polygon class="b" points="342.701 154.935 342.701 162.789 343.745 162.789 343.745 160.039 345.055 158.818 347.892 162.789 349.212 162.789 345.77 158.103 349.08 154.935 347.727 154.935 343.745 158.851 343.745 154.935 342.701 154.935 342.701 154.935"/>
    <polygon class="b" points="350.588 154.935 350.588 162.789 356.044 162.789 356.044 161.909 351.632 161.909 351.632 159.192 355.714 159.192 355.714 158.312 351.632 158.312 351.632 155.815 356.01 155.815 356.01 154.935 350.588 154.935 350.588 154.935"/>
    <polygon class="b" points="357.848 154.935 357.848 162.789 358.838 162.789 358.838 156.486 358.86 156.486 362.963 162.789 364.107 162.789 364.107 154.935 363.117 154.935 363.117 161.304 363.094 161.304 358.959 154.935 357.848 154.935 357.848 154.935"/>
    <path class="b" d="M443.467,233.509h.99a2.652,2.652,0,0,0-.253-1.11,2.1,2.1,0,0,0-.616-.782,2.484,2.484,0,0,0-.9-.45,4.168,4.168,0,0,0-1.122-.143,3.92,3.92,0,0,0-1.056.143,2.8,2.8,0,0,0-.913.417,2.086,2.086,0,0,0-.638.715,2.053,2.053,0,0,0-.242,1.023,1.786,1.786,0,0,0,.209.9,1.872,1.872,0,0,0,.572.583,3.734,3.734,0,0,0,.814.363q.451.132.913.243c.315.065.624.131.924.2a3.821,3.821,0,0,1,.8.264,1.476,1.476,0,0,1,.572.407.97.97,0,0,1,.22.661,1.277,1.277,0,0,1-.176.7,1.316,1.316,0,0,1-.462.44,2.168,2.168,0,0,1-.649.22,3.814,3.814,0,0,1-.7.067,3.332,3.332,0,0,1-.858-.111,2.2,2.2,0,0,1-.737-.341,1.667,1.667,0,0,1-.693-1.44h-.99a2.842,2.842,0,0,0,.253,1.242,2.515,2.515,0,0,0,.7.858,3.2,3.2,0,0,0,1.034.495,4.665,4.665,0,0,0,1.254.165,4.511,4.511,0,0,0,1.078-.132,3.077,3.077,0,0,0,.99-.4,2.3,2.3,0,0,0,.715-.726,1.966,1.966,0,0,0,.286-1.078,1.928,1.928,0,0,0-.22-.968A1.841,1.841,0,0,0,444,235.3a2.852,2.852,0,0,0-.8-.4c-.3-.1-.608-.19-.924-.264s-.612-.139-.913-.2a5.274,5.274,0,0,1-.814-.242,1.7,1.7,0,0,1-.572-.363.853.853,0,0,1-.209-.594,1.29,1.29,0,0,1,.143-.638,1.214,1.214,0,0,1,.4-.418,1.812,1.812,0,0,1,.572-.22,3.269,3.269,0,0,1,.649-.065,2.174,2.174,0,0,1,1.331.384,1.613,1.613,0,0,1,.616,1.221Z" transform="translate(-68.966 -76.276)"/>
    <polygon class="b" points="377.636 154.935 377.636 162.789 383.092 162.789 383.092 161.909 378.681 161.909 378.681 159.192 382.762 159.192 382.762 158.312 378.681 158.312 378.681 155.815 383.059 155.815 383.059 154.935 377.636 154.935 377.636 154.935"/>
    <polygon class="b" points="384.907 154.935 384.907 162.789 390.363 162.789 390.363 161.909 385.952 161.909 385.952 159.192 390.033 159.192 390.033 158.312 385.952 158.312 385.952 155.815 390.33 155.815 390.33 154.935 384.907 154.935 384.907 154.935"/>
    <path class="d" d="M286.847,156.006l0-1q1.509,0,3-.016l.009,1Q288.359,156,286.847,156.006Zm-3,0q-1.491,0-3-.017l.008-1q1.509.012,3,.017Zm9.007-.049-.014-1q1.51-.021,3-.051l.02,1Q294.365,155.935,292.851,155.957Zm-15.013,0q-1.491-.019-3-.049l.019-1q1.509.028,3,.049Zm-6-.114q-1.491-.036-3-.081l.029-1q1.507.045,3,.081Zm27.022,0-.025-1q1.509-.039,3-.086l.031,1Q300.369,155.8,298.856,155.838Zm-33.023-.172q-1.493-.051-3-.111l.039-1q1.507.058,3,.11Zm39.026-.018-.038-1q1.51-.057,2.994-.123l.044,1Q306.373,155.591,304.859,155.648Zm-45.027-.219q-1.491-.066-3-.14l.049-1q1.506.075,2.994.14Zm51.027-.045-.05-1q1.509-.076,2.992-.16l.057,1Q312.373,155.307,310.859,155.384Zm-57.025-.25q-1.489-.081-3-.169l.059-1q1.5.088,2.992.168Zm63.022-.091-.064-1q1.511-.1,2.99-.2l.071,1Q318.368,154.947,316.856,155.043Zm-69.016-.262q-1.489-.095-3-.2l.068-1q1.5.1,2.991.2Zm75.008-.158-.077-1q1.509-.115,2.987-.24l.083,1Q324.361,154.508,322.848,154.623Zm-81-.25q-1.489-.109-2.994-.225l.078-1q1.5.115,2.989.225Zm86.984-.253-.091-1q1.511-.138,2.983-.282l.1.995Q330.347,153.983,328.833,154.12Zm-92.97-.211q-1.488-.121-2.992-.252l.086-1q1.5.129,2.987.251Zm98.949-.379-.106-.994q1.509-.161,2.978-.327l.113.993Q336.324,153.37,334.812,153.53Zm-104.932-.137q-1.486-.135-2.989-.278l.095-1q1.5.144,2.985.278Zm110.9-.542-.121-.993q1.509-.183,2.972-.374l.129.991Q342.293,152.667,340.78,152.851ZM223.9,152.824q-1.486-.149-2.986-.3l.1-.995q1.5.154,2.982.3Zm-5.972-.619-.8-.087q-1.1-.119-2.187-.245l.115-.993q1.086.125,2.18.244l.8.087Zm128.807-.129-.137-.99q1.507-.21,2.965-.424l.146.989Q348.25,151.867,346.738,152.076Zm-134.774-.557q-1.5-.183-2.981-.377l.13-.991q1.479.192,2.973.376Zm140.718-.319-.154-.988q1.507-.235,2.956-.476l.164.986Q354.194,150.964,352.682,151.2Zm-146.675-.458q-1.5-.207-2.975-.424l.146-.989q1.475.216,2.966.423Zm152.6-.525-.173-.985q1.507-.266,2.947-.533l.183.983Q360.122,149.952,358.61,150.217Zm-158.548-.346q-1.491-.231-2.967-.47l.16-.988q1.473.24,2.96.47Zm164.457-.754-.193-.981q1.509-.3,2.935-.594l.2.979Q366.033,148.818,364.519,149.117Zm-170.387-.211q-1.488-.254-2.959-.518l.176-.984q1.469.263,2.952.517ZM370.4,147.892l-.215-.976q1.513-.333,2.92-.661l.227.973Q371.923,147.558,370.4,147.892Zm-182.186-.045q-1.483-.279-2.95-.565l.192-.982q1.463.286,2.942.564Zm-5.9-1.154q-1.479-.3-2.941-.613l.208-.978q1.458.31,2.933.612Zm193.938-.166-.239-.971q1.521-.375,2.9-.737l.254.967Q377.79,146.149,376.26,146.527Zm-199.814-1.084q-1.476-.327-2.931-.661l.224-.975q1.452.333,2.923.66ZM382.079,145l-.268-.963q1.551-.434,2.873-.829l.286.958Q383.641,144.564,382.079,145Zm-211.489-.9q-1.469-.351-2.919-.71l.24-.97q1.446.357,2.912.707Zm217.257-.82-.306-.953c1.151-.37,2.1-.692,2.829-.953l.335.942C389.963,142.577,389.011,142.9,387.847,143.277Zm-223.09-.623q-1.464-.375-2.907-.757l.256-.967q1.439.381,2.9.756Zm-5.807-1.54q-1.458-.4-2.894-.807l.272-.962q1.432.407,2.886.805Zm-5.782-1.638q-1.451-.424-2.879-.856l.289-.957q1.423.429,2.871.853Zm-5.752-1.736q-1.445-.45-2.865-.906l.305-.952q1.416.454,2.857.9Zm-5.723-1.836q-1.437-.476-2.848-.956l.322-.946q1.407.478,2.841.953Zm-5.688-1.936q-1.431-.5-2.832-1l.339-.941q1.4.5,2.823,1Zm-5.654-2.037q-1.424-.526-2.813-1.056l.356-.935q1.386.528,2.8,1.053Zm-5.617-2.139q-1.413-.552-2.793-1.108l.373-.927q1.376.552,2.785,1.1Zm-5.576-2.242q-1.4-.579-2.772-1.159l.39-.921q1.364.578,2.764,1.157Zm-5.533-2.346q-1.4-.607-2.75-1.213l.408-.913q1.35.6,2.741,1.209Zm-5.488-2.454q-1.387-.635-2.726-1.267l.426-.9q1.335.629,2.717,1.262Zm-5.438-2.561q-1.377-.666-2.7-1.323l.444-.895q1.319.654,2.691,1.318Zm-5.386-2.674q-1.368-.7-2.671-1.38l.464-.885q1.3.68,2.661,1.375Zm-5.327-2.789q-1.359-.73-2.64-1.44l.484-.875q1.275.707,2.63,1.434Zm-5.263-2.912q-1.353-.769-2.605-1.5l.505-.863q1.246.731,2.594,1.5Zm-5.192-3.04q-1.356-.817-2.566-1.574l.53-.848q1.2.75,2.552,1.566Zm-5.108-3.186q-1.386-.9-2.518-1.657l.558-.83q1.124.755,2.5,1.646Zm-5-3.364c-1.607-1.131-2.419-1.764-2.453-1.79l.615-.788c.008.006.83.645,2.414,1.76Z" transform="translate(-68.966 -76.276)"/>
    <path class="a" d="M418.315,117.214c-1.231.82-2.872,2.643-2.051,4.694s2.256,5.083,2.871,3.464,2.029-2.028,2.644-3.259.022-1.458-1-3.281-2.051-3.259-2.051-3.259l-.41,1.641Z" transform="translate(-68.966 -76.276)"/>
    <path class="a" d="M413.973,108.326c-2.983,2.983-7.247,7-5.24,7s4.739-3.038,5.993-4.766a1.308,1.308,0,0,0-.753-2.231Z" transform="translate(-68.966 -76.276)"/>
    <rect class="d" x="388.982" y="129.712" width="37.272" height="1" transform="translate(-68.156 186.657) rotate(-35.785)"/>

    <path class="b" d="M389.52,140.955a2.835,2.835,0,1,1,2.834,2.834,2.834,2.834,0,0,1-2.834-2.834Z" transform="translate(-68.966 -76.276)"/>
    <polygon class="b" points="329.205 69.291 329.205 77.145 330.196 77.145 330.196 70.611 330.218 70.611 332.67 77.145 333.562 77.145 336.015 70.611 336.037 70.611 336.037 77.145 337.027 77.145 337.027 69.291 335.596 69.291 333.111 75.891 330.636 69.291 329.205 69.291 329.205 69.291"/>
    <path class="c" d="M412.614,153.4v-.726a.915.915,0,0,1-.286.055c-.146,0-.234-.051-.264-.154a2.546,2.546,0,0,1-.033-.484v-2.926a1.527,1.527,0,0,0-.187-.8,1.27,1.27,0,0,0-.5-.473,1.942,1.942,0,0,0-.693-.231,5.157,5.157,0,0,0-.759-.055,4,4,0,0,0-.9.1,2.152,2.152,0,0,0-.759.33,1.615,1.615,0,0,0-.528.583,2.024,2.024,0,0,0-.22.891h.935a.942.942,0,0,1,.429-.847,1.939,1.939,0,0,1,.99-.231,2.952,2.952,0,0,1,.44.033,1.154,1.154,0,0,1,.407.132.736.736,0,0,1,.3.286.9.9,0,0,1,.121.5.526.526,0,0,1-.154.407,1.106,1.106,0,0,1-.418.209,5.174,5.174,0,0,1-.616.11q-.34.033-.726.11-.363.066-.715.165a2.01,2.01,0,0,0-.616.3,1.4,1.4,0,0,0-.429.5,1.669,1.669,0,0,0-.165.792,1.743,1.743,0,0,0,.143.737,1.491,1.491,0,0,0,.407.5,1.662,1.662,0,0,0,.605.264,2.877,2.877,0,0,0,.726.088,2.991,2.991,0,0,0,1.1-.2,2.267,2.267,0,0,0,.9-.671.92.92,0,0,0,.209.671.839.839,0,0,0,.583.2,1.325,1.325,0,0,0,.671-.143Zm-1.518-2.915v.957a1.1,1.1,0,0,1-.1.429,1.323,1.323,0,0,1-.308.418,1.8,1.8,0,0,1-.539.319,2.3,2.3,0,0,1-.792.121,2.047,2.047,0,0,1-.418-.044,1.072,1.072,0,0,1-.352-.143.887.887,0,0,1-.242-.253.839.839,0,0,1-.088-.4.879.879,0,0,1,.154-.55,1.068,1.068,0,0,1,.418-.319,2.186,2.186,0,0,1,.572-.154q.32-.056.627-.088t.605-.1a1.216,1.216,0,0,0,.462-.2Z" transform="translate(-68.966 -76.276)"/>
    <path class="b" d="M413.483,147.734v5.687h.935v-3.212a2.367,2.367,0,0,1,.1-.7,1.671,1.671,0,0,1,.319-.572,1.414,1.414,0,0,1,.517-.374,1.948,1.948,0,0,1,.748-.132,1.146,1.146,0,0,1,.847.308,1.13,1.13,0,0,1,.308.836v3.85h.935v-3.74a3.266,3.266,0,0,0-.1-.836,1.479,1.479,0,0,0-.924-1.089,2.46,2.46,0,0,0-.935-.154,1.968,1.968,0,0,0-1.848,1.034h-.022v-.9Z" transform="translate(-68.966 -76.276)"/>
    <path class="c" d="M424.637,153.4v-.726a.915.915,0,0,1-.286.055c-.146,0-.235-.051-.264-.154a2.546,2.546,0,0,1-.033-.484v-2.926a1.527,1.527,0,0,0-.187-.8,1.27,1.27,0,0,0-.5-.473,1.942,1.942,0,0,0-.693-.231,5.157,5.157,0,0,0-.759-.055,4,4,0,0,0-.9.1,2.152,2.152,0,0,0-.759.33,1.615,1.615,0,0,0-.528.583,2.024,2.024,0,0,0-.22.891h.935a.942.942,0,0,1,.429-.847,1.939,1.939,0,0,1,.99-.231,2.962,2.962,0,0,1,.44.033,1.154,1.154,0,0,1,.407.132.736.736,0,0,1,.3.286.9.9,0,0,1,.121.5.526.526,0,0,1-.154.407,1.113,1.113,0,0,1-.418.209,5.174,5.174,0,0,1-.616.11q-.341.033-.726.11-.363.066-.715.165a2.01,2.01,0,0,0-.616.3,1.4,1.4,0,0,0-.429.5,1.669,1.669,0,0,0-.165.792,1.743,1.743,0,0,0,.143.737,1.491,1.491,0,0,0,.407.5,1.662,1.662,0,0,0,.605.264,2.877,2.877,0,0,0,.726.088,2.991,2.991,0,0,0,1.1-.2,2.274,2.274,0,0,0,.9-.671.92.92,0,0,0,.209.671.839.839,0,0,0,.583.2,1.325,1.325,0,0,0,.671-.143Zm-1.518-2.915v.957a1.1,1.1,0,0,1-.1.429,1.338,1.338,0,0,1-.308.418,1.8,1.8,0,0,1-.539.319,2.3,2.3,0,0,1-.792.121,2.047,2.047,0,0,1-.418-.044,1.072,1.072,0,0,1-.352-.143.887.887,0,0,1-.242-.253.827.827,0,0,1-.088-.4.873.873,0,0,1,.154-.55,1.061,1.061,0,0,1,.418-.319,2.176,2.176,0,0,1,.572-.154q.319-.056.627-.088c.213-.029.414-.062.6-.1a1.216,1.216,0,0,0,.462-.2Z" transform="translate(-68.966 -76.276)"/>
    <path class="c" d="M426.188,150.627a3.718,3.718,0,0,1,.088-.814,2.158,2.158,0,0,1,.286-.7,1.5,1.5,0,0,1,.528-.5,1.6,1.6,0,0,1,.8-.187,1.688,1.688,0,0,1,.825.187,1.507,1.507,0,0,1,.55.473,1.935,1.935,0,0,1,.319.693,3.212,3.212,0,0,1,.1.8,3.126,3.126,0,0,1-.1.781,2.041,2.041,0,0,1-.3.693,1.633,1.633,0,0,1-.539.484,1.6,1.6,0,0,1-.8.187,1.706,1.706,0,0,1-.792-.176,1.63,1.63,0,0,1-.55-.473,2.272,2.272,0,0,1-.319-.671,3.126,3.126,0,0,1-.1-.781Zm4.4,2.794v-7.854h-.935v2.926h-.022a1.4,1.4,0,0,0-.385-.418,1.836,1.836,0,0,0-.473-.275,2.222,2.222,0,0,0-.506-.154,2.813,2.813,0,0,0-.473-.044,2.581,2.581,0,0,0-1.144.242,2.32,2.32,0,0,0-.814.638,2.758,2.758,0,0,0-.484.935,4.133,4.133,0,0,0-.154,1.144,3.887,3.887,0,0,0,.165,1.144,2.889,2.889,0,0,0,.484.946,2.445,2.445,0,0,0,.814.649,2.605,2.605,0,0,0,1.155.242,2.778,2.778,0,0,0,1.089-.209,1.376,1.376,0,0,0,.726-.682h.022v.77Z" transform="translate(-68.966 -76.276)"/>
    <path class="c" d="M432.711,150.583a2.884,2.884,0,0,1,.132-.913,2.028,2.028,0,0,1,.385-.682,1.612,1.612,0,0,1,.561-.418,1.713,1.713,0,0,1,.693-.143,1.639,1.639,0,0,1,.682.143,1.6,1.6,0,0,1,.572.418,1.914,1.914,0,0,1,.374.682,2.688,2.688,0,0,1,.143.913,2.784,2.784,0,0,1-.143.924,1.923,1.923,0,0,1-.374.671,1.711,1.711,0,0,1-1.254.55,1.73,1.73,0,0,1-.693-.143,1.684,1.684,0,0,1-.561-.407,2.043,2.043,0,0,1-.385-.671,2.987,2.987,0,0,1-.132-.924Zm-.99,0a3.749,3.749,0,0,0,.176,1.166,2.708,2.708,0,0,0,.528.946,2.521,2.521,0,0,0,.869.627,3.022,3.022,0,0,0,1.188.22,2.977,2.977,0,0,0,1.188-.22,2.53,2.53,0,0,0,.869-.627,2.724,2.724,0,0,0,.528-.946,3.95,3.95,0,0,0,0-2.332,2.6,2.6,0,0,0-.528-.946,2.469,2.469,0,0,0-.869-.638,2.842,2.842,0,0,0-1.188-.231,2.885,2.885,0,0,0-1.188.231,2.46,2.46,0,0,0-.869.638,2.581,2.581,0,0,0-.528.946,3.744,3.744,0,0,0-.176,1.166Z" transform="translate(-68.966 -76.276)"/>
    <path class="b" d="M144.188,247.068a2.835,2.835,0,1,1,2.834,2.834,2.834,2.834,0,0,1-2.834-2.834Z" transform="translate(-68.966 -76.276)"/>
    <path class="c" d="M118.524,245.987v-2.882h2.046a1.876,1.876,0,0,1,1.3.374,1.338,1.338,0,0,1,.418,1.067,1.375,1.375,0,0,1-.418,1.078,1.847,1.847,0,0,1-1.3.363Zm-1.045-3.762v7.854h1.045v-3.212h2.4a2.378,2.378,0,0,0,1.793-.6,2.323,2.323,0,0,0,.616-1.716,2.283,2.283,0,0,0-.616-1.7,2.406,2.406,0,0,0-1.793-.616Z" transform="translate(-68.966 -76.276)"/>
    <path class="c" d="M129.491,250.057v-.726a.944.944,0,0,1-.286.055c-.147,0-.235-.052-.264-.154a2.546,2.546,0,0,1-.033-.484v-2.926a1.527,1.527,0,0,0-.187-.8,1.277,1.277,0,0,0-.5-.473,1.91,1.91,0,0,0-.693-.231,5.177,5.177,0,0,0-.759-.055,4,4,0,0,0-.9.1,2.152,2.152,0,0,0-.759.33,1.615,1.615,0,0,0-.528.583,2.011,2.011,0,0,0-.22.891h.935a.942.942,0,0,1,.429-.847,1.939,1.939,0,0,1,.99-.231,2.972,2.972,0,0,1,.44.033,1.154,1.154,0,0,1,.407.132.742.742,0,0,1,.3.286.894.894,0,0,1,.121.5.531.531,0,0,1-.154.407,1.128,1.128,0,0,1-.418.209,5.424,5.424,0,0,1-.616.11,7.137,7.137,0,0,0-.726.11c-.242.044-.481.1-.715.165a1.988,1.988,0,0,0-.616.3,1.4,1.4,0,0,0-.429.5,1.669,1.669,0,0,0-.165.792,1.73,1.73,0,0,0,.143.737,1.479,1.479,0,0,0,.407.5,1.7,1.7,0,0,0,.605.264,2.924,2.924,0,0,0,.726.087,3.012,3.012,0,0,0,1.1-.2,2.283,2.283,0,0,0,.9-.671.918.918,0,0,0,.209.671.843.843,0,0,0,.583.2,1.326,1.326,0,0,0,.671-.142Zm-1.518-2.915v.957a1.1,1.1,0,0,1-.1.429,1.35,1.35,0,0,1-.308.418,1.83,1.83,0,0,1-.539.319,2.322,2.322,0,0,1-.792.121,2.047,2.047,0,0,1-.418-.044,1.1,1.1,0,0,1-.352-.143.886.886,0,0,1-.242-.253.827.827,0,0,1-.088-.4.873.873,0,0,1,.154-.55,1.051,1.051,0,0,1,.418-.319,2.128,2.128,0,0,1,.572-.154q.32-.055.627-.088t.6-.1a1.231,1.231,0,0,0,.462-.2Z" transform="translate(-68.966 -76.276)"/>
    <polygon class="b" points="61.449 165.949 61.449 173.803 62.384 173.803 62.384 165.949 61.449 165.949 61.449 165.949"/>
    <path class="b" d="M137.51,250.079v-5.687h-.935V247.6a2.232,2.232,0,0,1-.111.715,1.537,1.537,0,0,1-.308.561,1.386,1.386,0,0,1-.527.374,1.867,1.867,0,0,1-.737.132,1.148,1.148,0,0,1-.848-.308,1.132,1.132,0,0,1-.308-.836v-3.85H132.8v3.74a3.786,3.786,0,0,0,.088.847,1.657,1.657,0,0,0,.33.649,1.539,1.539,0,0,0,.6.429,2.645,2.645,0,0,0,.934.142,2.321,2.321,0,0,0,1.09-.241,1.958,1.958,0,0,0,.759-.781h.022v.9Z" transform="translate(-68.966 -76.276)"/>
    <path class="b" d="M189.188,272.568a2.835,2.835,0,1,1,2.834,2.834,2.834,2.834,0,0,1-2.834-2.834Z" transform="translate(-68.966 -76.276)"/>
    <path class="c" d="M161.747,272.123v-2.882h2.046a1.881,1.881,0,0,1,1.3.374,1.336,1.336,0,0,1,.418,1.067,1.369,1.369,0,0,1-.418,1.078,1.838,1.838,0,0,1-1.3.363Zm-1.045-3.762v7.854h1.045V273h2.4a2.369,2.369,0,0,0,1.793-.6,2.316,2.316,0,0,0,.616-1.716,2.282,2.282,0,0,0-.616-1.705,2.4,2.4,0,0,0-1.793-.616Z" transform="translate(-68.966 -76.276)"/>
    <path class="c" d="M168.358,273.377a2.889,2.889,0,0,1,.132-.913,2.072,2.072,0,0,1,.385-.682,1.656,1.656,0,0,1,.561-.418,1.73,1.73,0,0,1,.693-.143,1.651,1.651,0,0,1,.682.143,1.612,1.612,0,0,1,.572.418,1.907,1.907,0,0,1,.374.682,2.668,2.668,0,0,1,.143.913,2.758,2.758,0,0,1-.143.924,1.907,1.907,0,0,1-.374.671,1.658,1.658,0,0,1-.572.407,1.635,1.635,0,0,1-.682.143,1.664,1.664,0,0,1-1.254-.55,2.079,2.079,0,0,1-.385-.671,2.987,2.987,0,0,1-.132-.924Zm-.99,0a3.744,3.744,0,0,0,.176,1.166,2.731,2.731,0,0,0,.528.946,2.53,2.53,0,0,0,.869.627,3.008,3.008,0,0,0,1.188.22,2.953,2.953,0,0,0,1.188-.22,2.511,2.511,0,0,0,.869-.627,2.7,2.7,0,0,0,.528-.946,3.95,3.95,0,0,0,0-2.332,2.589,2.589,0,0,0-.528-.946,2.451,2.451,0,0,0-.869-.638,2.836,2.836,0,0,0-1.188-.231,2.888,2.888,0,0,0-1.188.231,2.469,2.469,0,0,0-.869.638,2.618,2.618,0,0,0-.528.946,3.744,3.744,0,0,0-.176,1.166Z" transform="translate(-68.966 -76.276)"/>
    <path class="b" d="M174.562,274.422h-.935a2.1,2.1,0,0,0,.22.9,1.718,1.718,0,0,0,.528.594,2.271,2.271,0,0,0,.759.319,4,4,0,0,0,.9.1,4.236,4.236,0,0,0,.858-.088,2.2,2.2,0,0,0,.781-.286,1.6,1.6,0,0,0,.561-.55,1.549,1.549,0,0,0,.22-.858,1.307,1.307,0,0,0-.165-.682,1.29,1.29,0,0,0-.418-.451,2.065,2.065,0,0,0-.594-.3,6.887,6.887,0,0,0-.682-.187q-.33-.077-.66-.143a4.754,4.754,0,0,1-.594-.176,1.586,1.586,0,0,1-.44-.264.552.552,0,0,1-.165-.407.535.535,0,0,1,.11-.352.731.731,0,0,1,.286-.22,1.313,1.313,0,0,1,.385-.121,2.9,2.9,0,0,1,.429-.033,1.882,1.882,0,0,1,.451.055,1.313,1.313,0,0,1,.418.154.917.917,0,0,1,.451.748h.935a2.043,2.043,0,0,0-.22-.858,1.409,1.409,0,0,0-.506-.55,1.889,1.889,0,0,0-.715-.286,4.258,4.258,0,0,0-.891-.088,3.043,3.043,0,0,0-.759.1,2.187,2.187,0,0,0-.682.286,1.6,1.6,0,0,0-.5.5,1.4,1.4,0,0,0-.187.737,1.244,1.244,0,0,0,.275.858,1.919,1.919,0,0,0,.682.484,5.429,5.429,0,0,0,.9.264,8.632,8.632,0,0,1,.891.209,2.243,2.243,0,0,1,.693.3.621.621,0,0,1,.275.55.712.712,0,0,1-.132.44.839.839,0,0,1-.341.253,1.6,1.6,0,0,1-.44.121,3.416,3.416,0,0,1-.462.033,2.838,2.838,0,0,1-.561-.055,1.7,1.7,0,0,1-.484-.176,1.078,1.078,0,0,1-.341-.341,1.091,1.091,0,0,1-.143-.528Z" transform="translate(-68.966 -76.276)"/>
    <path class="c" d="M180.172,273.377a2.889,2.889,0,0,1,.132-.913,2.072,2.072,0,0,1,.385-.682,1.656,1.656,0,0,1,.561-.418,1.73,1.73,0,0,1,.693-.143,1.651,1.651,0,0,1,.682.143,1.612,1.612,0,0,1,.572.418,1.907,1.907,0,0,1,.374.682,2.668,2.668,0,0,1,.143.913,2.758,2.758,0,0,1-.143.924,1.907,1.907,0,0,1-.374.671,1.658,1.658,0,0,1-.572.407,1.635,1.635,0,0,1-.682.143,1.664,1.664,0,0,1-1.254-.55,2.079,2.079,0,0,1-.385-.671,2.987,2.987,0,0,1-.132-.924Zm-.99,0a3.744,3.744,0,0,0,.176,1.166,2.731,2.731,0,0,0,.528.946,2.53,2.53,0,0,0,.869.627,3.008,3.008,0,0,0,1.188.22,2.953,2.953,0,0,0,1.188-.22,2.511,2.511,0,0,0,.869-.627,2.7,2.7,0,0,0,.528-.946,3.95,3.95,0,0,0,0-2.332,2.589,2.589,0,0,0-.528-.946,2.451,2.451,0,0,0-.869-.638,2.836,2.836,0,0,0-1.188-.231,2.888,2.888,0,0,0-1.188.231,2.469,2.469,0,0,0-.869.638,2.618,2.618,0,0,0-.528.946,3.744,3.744,0,0,0-.176,1.166Z" transform="translate(-68.966 -76.276)"/>
    <path class="b" d="M301.188,252.068a2.835,2.835,0,1,1,2.834,2.834,2.834,2.834,0,0,1-2.834-2.834Z" transform="translate(-68.966 -76.276)"/>
    <polygon class="b" points="243.561 171.927 243.561 179.781 248.764 179.781 248.764 178.901 244.605 178.901 244.605 171.927 243.561 171.927 243.561 171.927"/>
    <path class="b" d="M323.2,256.057V250.37h-.935v3.212a2.26,2.26,0,0,1-.109.715,1.569,1.569,0,0,1-.309.561,1.386,1.386,0,0,1-.527.374,1.868,1.868,0,0,1-.738.132,1.147,1.147,0,0,1-.847-.308,1.132,1.132,0,0,1-.308-.836v-3.85h-.934v3.74a3.786,3.786,0,0,0,.088.847,1.656,1.656,0,0,0,.329.649,1.543,1.543,0,0,0,.606.429,2.643,2.643,0,0,0,.934.143,2.324,2.324,0,0,0,1.09-.242,1.956,1.956,0,0,0,.758-.781h.023v.9Z" transform="translate(-68.966 -76.276)"/>
    <polygon class="b" points="261.271 179.781 263.086 174.094 262.118 174.094 260.842 178.747 260.82 178.747 259.632 174.094 258.609 174.094 257.465 178.747 257.443 178.747 256.156 174.094 255.122 174.094 256.948 179.781 257.959 179.781 259.104 175.26 259.125 175.26 260.281 179.781 261.271 179.781 261.271 179.781"/>
    <path class="b" d="M337.651,256.057V250.37h-.936v3.212a2.232,2.232,0,0,1-.11.715,1.552,1.552,0,0,1-.308.561,1.386,1.386,0,0,1-.527.374,1.867,1.867,0,0,1-.737.132,1.148,1.148,0,0,1-.848-.308,1.132,1.132,0,0,1-.308-.836v-3.85h-.935v3.74a3.845,3.845,0,0,0,.088.847,1.646,1.646,0,0,0,.331.649,1.543,1.543,0,0,0,.6.429,2.655,2.655,0,0,0,.936.143,2.313,2.313,0,0,0,1.088-.242,1.951,1.951,0,0,0,.759-.781h.022v.9Z" transform="translate(-68.966 -76.276)"/>
    <polygon class="b" points="270.148 171.927 270.148 179.781 271.083 179.781 271.083 177.625 271.962 176.811 273.91 179.781 275.098 179.781 272.678 176.162 274.933 174.094 273.679 174.094 271.083 176.58 271.083 171.927 270.148 171.927 270.148 171.927"/>
    <path class="b" d="M278.688,398.068a2.835,2.835,0,1,1,2.834,2.834,2.834,2.834,0,0,1-2.834-2.834Z" transform="translate(-68.966 -76.276)"/>
    <polygon class="b" points="167.553 317.586 167.553 325.44 168.598 325.44 168.598 322.69 169.907 321.469 172.745 325.44 174.065 325.44 170.622 320.754 173.933 317.586 172.58 317.586 168.598 321.502 168.598 317.586 167.553 317.586 167.553 317.586"/>
    <path class="c" d="M247.651,398.327h-3.267a1.869,1.869,0,0,1,.143-.616,1.622,1.622,0,0,1,.33-.517,1.466,1.466,0,0,1,.5-.341,1.607,1.607,0,0,1,.66-.132,1.508,1.508,0,0,1,.638.132,1.6,1.6,0,0,1,.847.847,1.863,1.863,0,0,1,.154.627Zm.9,1.584h-.924a1.318,1.318,0,0,1-.5.836,1.59,1.59,0,0,1-.968.275,1.93,1.93,0,0,1-.8-.154,1.582,1.582,0,0,1-.561-.407,1.679,1.679,0,0,1-.32-.594,2.312,2.312,0,0,1-.087-.715h4.257a4.433,4.433,0,0,0-.1-1.089,3.013,3.013,0,0,0-.419-1.056,2.374,2.374,0,0,0-.8-.792,2.271,2.271,0,0,0-1.254-.319,2.535,2.535,0,0,0-1.926.836,2.9,2.9,0,0,0-.549.935,3.4,3.4,0,0,0-.2,1.188,4.682,4.682,0,0,0,.187,1.2,2.665,2.665,0,0,0,.517.946,2.332,2.332,0,0,0,.836.616,2.951,2.951,0,0,0,1.187.22,2.582,2.582,0,0,0,1.607-.484,2.271,2.271,0,0,0,.824-1.441Z" transform="translate(-68.966 -76.276)"/>
    <path class="b" d="M249.608,396.028v5.687h.935V398.5a2.339,2.339,0,0,1,.1-.7,1.663,1.663,0,0,1,.319-.572,1.4,1.4,0,0,1,.516-.374,1.948,1.948,0,0,1,.748-.132,1.144,1.144,0,0,1,.847.308,1.128,1.128,0,0,1,.308.836v3.85h.935v-3.74a3.228,3.228,0,0,0-.1-.836,1.474,1.474,0,0,0-.924-1.089,2.48,2.48,0,0,0-.935-.154,1.97,1.97,0,0,0-1.848,1.034h-.021v-.9Z" transform="translate(-68.966 -76.276)"/>
    <path class="c" d="M256.406,398.921a3.787,3.787,0,0,1,.088-.814,2.167,2.167,0,0,1,.286-.7,1.5,1.5,0,0,1,.528-.5,1.614,1.614,0,0,1,.8-.187,1.7,1.7,0,0,1,.825.187,1.491,1.491,0,0,1,.55.473,1.935,1.935,0,0,1,.319.693,3.172,3.172,0,0,1,.1.8,3.074,3.074,0,0,1-.1.781,2.012,2.012,0,0,1-.3.693,1.626,1.626,0,0,1-.54.484,1.6,1.6,0,0,1-.8.187,1.7,1.7,0,0,1-.792-.176,1.63,1.63,0,0,1-.55-.473,2.285,2.285,0,0,1-.319-.671,3.167,3.167,0,0,1-.1-.781Zm4.4,2.794v-7.854h-.934v2.926h-.022a1.419,1.419,0,0,0-.386-.418,1.8,1.8,0,0,0-.473-.275,2.258,2.258,0,0,0-.506-.154,2.794,2.794,0,0,0-.473-.044,2.573,2.573,0,0,0-1.143.242,2.32,2.32,0,0,0-.814.638,2.74,2.74,0,0,0-.484.935,4.133,4.133,0,0,0-.155,1.144,3.883,3.883,0,0,0,.165,1.144,2.889,2.889,0,0,0,.484.946,2.43,2.43,0,0,0,.814.649,2.608,2.608,0,0,0,1.155.242,2.774,2.774,0,0,0,1.089-.209,1.374,1.374,0,0,0,.727-.682h.022v.77Z" transform="translate(-68.966 -76.276)"/>
    <path class="c" d="M267.285,401.693v-.726a.915.915,0,0,1-.286.055c-.146,0-.234-.051-.264-.154a2.539,2.539,0,0,1-.033-.484v-2.926a1.527,1.527,0,0,0-.187-.8,1.27,1.27,0,0,0-.5-.473,1.942,1.942,0,0,0-.693-.231,5.157,5.157,0,0,0-.759-.055,4,4,0,0,0-.9.1,2.152,2.152,0,0,0-.759.33,1.623,1.623,0,0,0-.528.583,2.024,2.024,0,0,0-.22.891h.935a.943.943,0,0,1,.429-.847,1.939,1.939,0,0,1,.99-.231,2.952,2.952,0,0,1,.44.033,1.154,1.154,0,0,1,.407.132.743.743,0,0,1,.3.286.9.9,0,0,1,.121.495.526.526,0,0,1-.154.407,1.106,1.106,0,0,1-.418.209,5.174,5.174,0,0,1-.616.11q-.34.033-.726.11-.363.066-.715.165a2.01,2.01,0,0,0-.616.3,1.417,1.417,0,0,0-.429.5,1.674,1.674,0,0,0-.165.792,1.743,1.743,0,0,0,.143.737,1.5,1.5,0,0,0,.407.5,1.662,1.662,0,0,0,.605.264,2.888,2.888,0,0,0,.726.088,2.991,2.991,0,0,0,1.1-.2,2.267,2.267,0,0,0,.9-.671.92.92,0,0,0,.209.671.839.839,0,0,0,.583.2,1.325,1.325,0,0,0,.671-.143Zm-1.518-2.915v.957a1.1,1.1,0,0,1-.1.429,1.323,1.323,0,0,1-.308.418,1.8,1.8,0,0,1-.539.319,2.3,2.3,0,0,1-.792.121,1.979,1.979,0,0,1-.418-.044,1.072,1.072,0,0,1-.352-.143.887.887,0,0,1-.242-.253.839.839,0,0,1-.088-.4.881.881,0,0,1,.154-.55,1.077,1.077,0,0,1,.418-.319,2.226,2.226,0,0,1,.572-.154c.213-.036.422-.066.627-.088s.415-.062.605-.1a1.216,1.216,0,0,0,.462-.2Z" transform="translate(-68.966 -76.276)"/>
    <path class="b" d="M268.121,396.028v5.687h.935v-2.53a3.843,3.843,0,0,1,.11-.968,1.879,1.879,0,0,1,.352-.726,1.51,1.51,0,0,1,.638-.451,2.659,2.659,0,0,1,.957-.154v-.99a2.106,2.106,0,0,0-1.254.308,2.538,2.538,0,0,0-.836,1.023H269v-1.2Z" transform="translate(-68.966 -76.276)"/>
    <path class="c" d="M272.807,395.005v-1.144h-.935v1.144Zm-.935,1.023v5.687h.935v-5.687Z" transform="translate(-68.966 -76.276)"/>
    <path class="b" d="M137.188,462.068a2.835,2.835,0,1,1,2.834,2.834,2.834,2.834,0,0,1-2.834-2.834Z" transform="translate(-68.966 -76.276)"/>
    <polygon class="b" points="16.017 380.949 16.017 388.803 17.007 388.803 17.007 382.269 17.029 382.269 19.481 388.803 20.373 388.803 22.826 382.269 22.848 382.269 22.848 388.803 23.838 388.803 23.838 380.949 22.408 380.949 19.922 387.549 17.447 380.949 16.017 380.949 16.017 380.949"/>
    <path class="c" d="M99.425,465.057v-.726a.944.944,0,0,1-.286.055c-.146,0-.234-.052-.264-.154a2.546,2.546,0,0,1-.033-.484v-2.926a1.527,1.527,0,0,0-.187-.8,1.263,1.263,0,0,0-.5-.473,1.9,1.9,0,0,0-.693-.231,5.157,5.157,0,0,0-.759-.055,4,4,0,0,0-.9.1,2.152,2.152,0,0,0-.759.33,1.615,1.615,0,0,0-.528.583,2.024,2.024,0,0,0-.22.891h.935a.942.942,0,0,1,.429-.847,1.939,1.939,0,0,1,.99-.231,2.952,2.952,0,0,1,.44.033,1.154,1.154,0,0,1,.407.132.736.736,0,0,1,.3.286.894.894,0,0,1,.121.5.528.528,0,0,1-.154.407,1.12,1.12,0,0,1-.418.209,5.384,5.384,0,0,1-.616.11,7.137,7.137,0,0,0-.726.11q-.363.066-.715.165a2.01,2.01,0,0,0-.616.3,1.4,1.4,0,0,0-.429.5,1.669,1.669,0,0,0-.165.792,1.746,1.746,0,0,0,.143.737,1.5,1.5,0,0,0,.407.5,1.7,1.7,0,0,0,.6.264,2.936,2.936,0,0,0,.726.087,3.012,3.012,0,0,0,1.1-.2,2.276,2.276,0,0,0,.9-.671.922.922,0,0,0,.209.671.843.843,0,0,0,.583.2,1.326,1.326,0,0,0,.671-.142Zm-1.518-2.915v.957a1.1,1.1,0,0,1-.1.429,1.334,1.334,0,0,1-.308.418,1.817,1.817,0,0,1-.539.319,2.318,2.318,0,0,1-.792.121,2.055,2.055,0,0,1-.418-.044,1.1,1.1,0,0,1-.352-.143.9.9,0,0,1-.242-.253.839.839,0,0,1-.088-.4.879.879,0,0,1,.154-.55,1.059,1.059,0,0,1,.418-.319,2.186,2.186,0,0,1,.572-.155q.32-.054.627-.087t.6-.1a1.216,1.216,0,0,0,.462-.2Z" transform="translate(-68.966 -76.276)"/>
    <polygon class="b" points="31.383 380.949 31.383 388.803 32.318 388.803 32.318 386.647 33.198 385.833 35.145 388.803 36.333 388.803 33.914 385.184 36.168 383.116 34.914 383.116 32.318 385.602 32.318 380.949 31.383 380.949 31.383 380.949"/>
    <path class="c" d="M111.041,465.057v-.726a.944.944,0,0,1-.286.055c-.146,0-.235-.052-.264-.154a2.546,2.546,0,0,1-.033-.484v-2.926a1.527,1.527,0,0,0-.187-.8,1.27,1.27,0,0,0-.5-.473,1.9,1.9,0,0,0-.693-.231,5.157,5.157,0,0,0-.759-.055,4,4,0,0,0-.9.1,2.152,2.152,0,0,0-.759.33,1.615,1.615,0,0,0-.528.583,2.024,2.024,0,0,0-.22.891h.935a.942.942,0,0,1,.429-.847,1.939,1.939,0,0,1,.99-.231,2.962,2.962,0,0,1,.44.033,1.154,1.154,0,0,1,.407.132.736.736,0,0,1,.3.286.894.894,0,0,1,.121.5.528.528,0,0,1-.154.407,1.12,1.12,0,0,1-.418.209,5.384,5.384,0,0,1-.616.11,7.137,7.137,0,0,0-.726.11q-.363.066-.715.165a2.01,2.01,0,0,0-.616.3,1.4,1.4,0,0,0-.429.5,1.669,1.669,0,0,0-.165.792,1.746,1.746,0,0,0,.143.737,1.5,1.5,0,0,0,.407.5,1.7,1.7,0,0,0,.6.264,2.924,2.924,0,0,0,.726.087,3.012,3.012,0,0,0,1.1-.2,2.276,2.276,0,0,0,.9-.671.922.922,0,0,0,.209.671.843.843,0,0,0,.583.2,1.326,1.326,0,0,0,.671-.142Zm-1.518-2.915v.957a1.1,1.1,0,0,1-.1.429,1.35,1.35,0,0,1-.308.418,1.817,1.817,0,0,1-.539.319,2.322,2.322,0,0,1-.792.121,2.047,2.047,0,0,1-.418-.044,1.1,1.1,0,0,1-.352-.143.9.9,0,0,1-.242-.253.827.827,0,0,1-.088-.4.879.879,0,0,1,.154-.55,1.051,1.051,0,0,1,.418-.319,2.186,2.186,0,0,1,.572-.155q.32-.054.627-.087t.605-.1a1.216,1.216,0,0,0,.462-.2Z" transform="translate(-68.966 -76.276)"/>
    <path class="b" d="M112.482,463.286h-.935a2.1,2.1,0,0,0,.22.9,1.718,1.718,0,0,0,.528.594,2.292,2.292,0,0,0,.759.319,4,4,0,0,0,.9.1,4.307,4.307,0,0,0,.858-.087,2.227,2.227,0,0,0,.781-.286,1.615,1.615,0,0,0,.561-.55,1.554,1.554,0,0,0,.22-.858,1.3,1.3,0,0,0-.583-1.133,2.041,2.041,0,0,0-.594-.3,6.38,6.38,0,0,0-.682-.187c-.22-.052-.44-.1-.66-.143a4.93,4.93,0,0,1-.594-.176,1.62,1.62,0,0,1-.44-.264.554.554,0,0,1-.165-.407.533.533,0,0,1,.11-.352.706.706,0,0,1,.286-.22,1.3,1.3,0,0,1,.385-.121,2.9,2.9,0,0,1,.429-.033,1.838,1.838,0,0,1,.451.055,1.275,1.275,0,0,1,.418.154.917.917,0,0,1,.451.748h.935a2.039,2.039,0,0,0-.22-.858,1.409,1.409,0,0,0-.506-.55,1.864,1.864,0,0,0-.715-.286,4.192,4.192,0,0,0-.891-.088,3.043,3.043,0,0,0-.759.1,2.154,2.154,0,0,0-.682.286,1.58,1.58,0,0,0-.495.5,1.39,1.39,0,0,0-.187.737,1.247,1.247,0,0,0,.275.858,1.935,1.935,0,0,0,.682.484,5.4,5.4,0,0,0,.9.264,8.142,8.142,0,0,1,.891.209,2.219,2.219,0,0,1,.693.3.622.622,0,0,1,.275.55.714.714,0,0,1-.132.44.855.855,0,0,1-.341.253,1.644,1.644,0,0,1-.44.121,3.416,3.416,0,0,1-.462.033,2.9,2.9,0,0,1-.561-.055,1.766,1.766,0,0,1-.484-.176,1,1,0,0,1-.484-.869Z" transform="translate(-68.966 -76.276)"/>
    <path class="b" d="M117.982,463.286h-.935a2.1,2.1,0,0,0,.22.9,1.718,1.718,0,0,0,.528.594,2.292,2.292,0,0,0,.759.319,4,4,0,0,0,.9.1,4.307,4.307,0,0,0,.858-.087,2.227,2.227,0,0,0,.781-.286,1.615,1.615,0,0,0,.561-.55,1.554,1.554,0,0,0,.22-.858,1.3,1.3,0,0,0-.583-1.133,2.041,2.041,0,0,0-.594-.3,6.38,6.38,0,0,0-.682-.187c-.22-.052-.44-.1-.66-.143a4.93,4.93,0,0,1-.594-.176,1.62,1.62,0,0,1-.44-.264.554.554,0,0,1-.165-.407.533.533,0,0,1,.11-.352.706.706,0,0,1,.286-.22,1.3,1.3,0,0,1,.385-.121,2.9,2.9,0,0,1,.429-.033,1.838,1.838,0,0,1,.451.055,1.275,1.275,0,0,1,.418.154.917.917,0,0,1,.451.748h.935a2.039,2.039,0,0,0-.22-.858,1.409,1.409,0,0,0-.506-.55,1.864,1.864,0,0,0-.715-.286,4.192,4.192,0,0,0-.891-.088,3.043,3.043,0,0,0-.759.1,2.154,2.154,0,0,0-.682.286,1.58,1.58,0,0,0-.495.5,1.39,1.39,0,0,0-.187.737,1.247,1.247,0,0,0,.275.858,1.935,1.935,0,0,0,.682.484,5.4,5.4,0,0,0,.9.264,8.142,8.142,0,0,1,.891.209,2.219,2.219,0,0,1,.693.3.622.622,0,0,1,.275.55.714.714,0,0,1-.132.44.855.855,0,0,1-.341.253,1.644,1.644,0,0,1-.44.121,3.416,3.416,0,0,1-.462.033,2.9,2.9,0,0,1-.561-.055,1.766,1.766,0,0,1-.484-.176,1,1,0,0,1-.484-.869Z" transform="translate(-68.966 -76.276)"/>
    <path class="c" d="M127.948,465.057v-.726a.944.944,0,0,1-.286.055c-.147,0-.235-.052-.264-.154a2.546,2.546,0,0,1-.033-.484v-2.926a1.527,1.527,0,0,0-.187-.8,1.277,1.277,0,0,0-.495-.473,1.9,1.9,0,0,0-.693-.231,5.157,5.157,0,0,0-.759-.055,4,4,0,0,0-.9.1,2.152,2.152,0,0,0-.759.33,1.615,1.615,0,0,0-.528.583,2.024,2.024,0,0,0-.22.891h.935a.942.942,0,0,1,.429-.847,1.939,1.939,0,0,1,.99-.231,2.962,2.962,0,0,1,.44.033,1.154,1.154,0,0,1,.407.132.736.736,0,0,1,.3.286.894.894,0,0,1,.121.5.528.528,0,0,1-.154.407,1.128,1.128,0,0,1-.418.209,5.384,5.384,0,0,1-.616.11,7.137,7.137,0,0,0-.726.11q-.363.066-.715.165a2,2,0,0,0-.616.3,1.4,1.4,0,0,0-.429.5,1.669,1.669,0,0,0-.165.792,1.746,1.746,0,0,0,.143.737,1.491,1.491,0,0,0,.407.5,1.7,1.7,0,0,0,.605.264,2.924,2.924,0,0,0,.726.087,3.012,3.012,0,0,0,1.1-.2,2.283,2.283,0,0,0,.9-.671.922.922,0,0,0,.209.671.843.843,0,0,0,.583.2,1.326,1.326,0,0,0,.671-.142Zm-1.518-2.915v.957a1.1,1.1,0,0,1-.1.429,1.35,1.35,0,0,1-.308.418,1.817,1.817,0,0,1-.539.319,2.322,2.322,0,0,1-.792.121,2.047,2.047,0,0,1-.418-.044,1.1,1.1,0,0,1-.352-.143.9.9,0,0,1-.242-.253.839.839,0,0,1-.088-.4.873.873,0,0,1,.154-.55,1.051,1.051,0,0,1,.418-.319,2.176,2.176,0,0,1,.572-.155q.319-.054.627-.087c.213-.03.414-.063.605-.1a1.216,1.216,0,0,0,.462-.2Z" transform="translate(-68.966 -76.276)"/>
    <path class="b" d="M128.784,459.392v5.687h.935v-2.53a3.787,3.787,0,0,1,.11-.968,1.851,1.851,0,0,1,.352-.726,1.5,1.5,0,0,1,.638-.451,2.637,2.637,0,0,1,.957-.154v-.99a2.1,2.1,0,0,0-1.254.308,2.53,2.53,0,0,0-.836,1.023h-.022v-1.2Z" transform="translate(-68.966 -76.276)"/>
    <path class="c" d="M335.983,125.046v-2.27h1.9a3.924,3.924,0,0,1,.58.04,1.242,1.242,0,0,1,.489.15.838.838,0,0,1,.33.34,1.259,1.259,0,0,1,.12.6,1.04,1.04,0,0,1-.36.86,1.869,1.869,0,0,1-1.159.28Zm-.95-3.07v7.14h3.451a2.371,2.371,0,0,0,.93-.17,2.116,2.116,0,0,0,.68-.46,1.916,1.916,0,0,0,.419-.66,2.118,2.118,0,0,0,.14-.76,1.8,1.8,0,0,0-.349-1.12,1.645,1.645,0,0,0-1.01-.6v-.02a1.6,1.6,0,0,0,.779-.61,1.74,1.74,0,0,0,.28-.99,1.591,1.591,0,0,0-.249-.91,1.823,1.823,0,0,0-.59-.58,1.209,1.209,0,0,0-.391-.15,3.291,3.291,0,0,0-.48-.07,4.6,4.6,0,0,0-.53-.03c-.173-.007-.336-.01-.49-.01Zm.95,6.34v-2.47h2.17a2.773,2.773,0,0,1,.581.06,1.276,1.276,0,0,1,.489.19.963.963,0,0,1,.351.36,1.172,1.172,0,0,1,.129.58,1.231,1.231,0,0,1-.36.94,1.349,1.349,0,0,1-.979.34Z" transform="translate(-68.966 -76.276)"/>
    <path class="b" d="M348.083,126.536v-4.56h-.95v4.56a2.024,2.024,0,0,1-.48,1.46,1.827,1.827,0,0,1-1.38.49,2.044,2.044,0,0,1-1.47-.49,1.954,1.954,0,0,1-.509-1.46v-4.56h-.951v4.56a2.61,2.61,0,0,0,.77,2.09,3.28,3.28,0,0,0,2.16.65,2.944,2.944,0,0,0,2.081-.68,2.707,2.707,0,0,0,.729-2.06Z" transform="translate(-68.966 -76.276)"/>
    <polygon class="b" points="281.127 45.7 281.127 52.84 282.027 52.84 282.027 47.11 282.047 47.11 285.777 52.84 286.818 52.84 286.818 45.7 285.918 45.7 285.918 51.49 285.898 51.49 282.138 45.7 281.127 45.7 281.127 45.7"/>
    <path class="c" d="M359.053,126.166l1.21-3.33h.02l1.19,3.33Zm.71-4.19-2.78,7.14h.97l.8-2.15h3.02l.78,2.15h1.05l-2.79-7.14Z" transform="translate(-68.966 -76.276)"/>
    <polygon class="b" points="295.838 45.7 295.838 52.84 296.787 52.84 296.787 50.34 297.977 49.23 300.557 52.84 301.757 52.84 298.627 48.58 301.637 45.7 300.407 45.7 296.787 49.26 296.787 45.7 295.838 45.7 295.838 45.7"/>
    <polygon class="b" points="303.007 45.7 303.007 52.84 307.967 52.84 307.967 52.04 303.957 52.04 303.957 49.57 307.667 49.57 307.667 48.77 303.957 48.77 303.957 46.5 307.937 46.5 307.937 45.7 303.007 45.7 303.007 45.7"/>
    <polygon class="b" points="309.607 45.7 309.607 52.84 310.507 52.84 310.507 47.11 310.527 47.11 314.257 52.84 315.297 52.84 315.297 45.7 314.397 45.7 314.397 51.49 314.377 51.49 310.617 45.7 309.607 45.7 309.607 45.7"/>
    <path class="b" d="M155.191,307.518h.99a2.656,2.656,0,0,0-.253-1.111,2.074,2.074,0,0,0-.616-.781,2.462,2.462,0,0,0-.9-.451,4.163,4.163,0,0,0-1.122-.143,3.92,3.92,0,0,0-1.056.143,2.807,2.807,0,0,0-.913.418,2.046,2.046,0,0,0-.88,1.738,1.789,1.789,0,0,0,.209.9,1.9,1.9,0,0,0,.572.583,3.832,3.832,0,0,0,.814.363c.3.088.605.168.913.242s.624.132.924.2a3.745,3.745,0,0,1,.8.264,1.455,1.455,0,0,1,.572.407.966.966,0,0,1,.22.66,1.281,1.281,0,0,1-.176.7,1.334,1.334,0,0,1-.462.44,2.2,2.2,0,0,1-.649.22,3.8,3.8,0,0,1-.7.066,3.376,3.376,0,0,1-.858-.11,2.218,2.218,0,0,1-.737-.341,1.667,1.667,0,0,1-.693-1.441h-.99a2.861,2.861,0,0,0,.253,1.243,2.534,2.534,0,0,0,.7.858,3.2,3.2,0,0,0,1.034.494,4.665,4.665,0,0,0,1.254.165,4.51,4.51,0,0,0,1.078-.131,3.123,3.123,0,0,0,.99-.4,2.325,2.325,0,0,0,.715-.726,1.969,1.969,0,0,0,.286-1.078,1.923,1.923,0,0,0-.22-.968,1.824,1.824,0,0,0-.572-.638,2.813,2.813,0,0,0-.8-.4,9.266,9.266,0,0,0-.924-.264q-.462-.111-.913-.2a5.422,5.422,0,0,1-.814-.242,1.734,1.734,0,0,1-.572-.363.853.853,0,0,1-.209-.594,1.284,1.284,0,0,1,.143-.638,1.217,1.217,0,0,1,.4-.419,1.81,1.81,0,0,1,.572-.219,3.2,3.2,0,0,1,.649-.066,2.166,2.166,0,0,1,1.331.385,1.607,1.607,0,0,1,.616,1.221Z" transform="translate(-68.966 -76.276)"/>
    <path class="b" d="M164.6,310.235v-5.016h-1.045v5.016a2.228,2.228,0,0,1-.528,1.6,2,2,0,0,1-1.518.54,2.24,2.24,0,0,1-1.617-.54,2.147,2.147,0,0,1-.561-1.6v-5.016h-1.045v5.016a2.873,2.873,0,0,0,.847,2.3,3.607,3.607,0,0,0,2.376.714,3.235,3.235,0,0,0,2.288-.747,2.977,2.977,0,0,0,.8-2.266Z" transform="translate(-68.966 -76.276)"/>
    <polygon class="b" points="97.852 228.943 97.852 236.797 103.055 236.797 103.055 235.917 98.897 235.917 98.897 228.943 97.852 228.943 97.852 228.943"/>
    <path class="c" d="M174.837,309.828l1.331-3.663h.022l1.309,3.663Zm.781-4.609-3.058,7.853h1.067l.88-2.364h3.322l.858,2.364h1.155l-3.069-7.853Z" transform="translate(-68.966 -76.276)"/>
    <polygon class="b" points="119.027 236.797 121.128 228.943 120.083 228.943 118.489 235.477 118.466 235.477 116.728 228.943 115.595 228.943 113.835 235.477 113.813 235.477 112.273 228.943 111.207 228.943 113.219 236.797 114.308 236.797 116.124 230.197 116.145 230.197 117.938 236.797 119.027 236.797 119.027 236.797"/>
    <polygon class="b" points="122.668 228.943 122.668 236.797 128.124 236.797 128.124 235.917 123.713 235.917 123.713 233.2 127.794 233.2 127.794 232.32 123.713 232.32 123.713 229.823 128.092 229.823 128.092 228.943 122.668 228.943 122.668 228.943"/>
    <path class="b" d="M203.448,307.518h.99a2.656,2.656,0,0,0-.253-1.111,2.074,2.074,0,0,0-.616-.781,2.47,2.47,0,0,0-.9-.451,4.168,4.168,0,0,0-1.122-.143,3.92,3.92,0,0,0-1.056.143,2.807,2.807,0,0,0-.913.418,2.046,2.046,0,0,0-.88,1.738,1.789,1.789,0,0,0,.209.9,1.9,1.9,0,0,0,.572.583,3.832,3.832,0,0,0,.814.363c.3.088.6.168.913.242s.624.132.924.2a3.764,3.764,0,0,1,.8.264,1.455,1.455,0,0,1,.572.407.966.966,0,0,1,.22.66,1.281,1.281,0,0,1-.176.7,1.334,1.334,0,0,1-.462.44,2.2,2.2,0,0,1-.649.22,3.8,3.8,0,0,1-.7.066,3.376,3.376,0,0,1-.858-.11,2.218,2.218,0,0,1-.737-.341,1.667,1.667,0,0,1-.693-1.441h-.99a2.861,2.861,0,0,0,.253,1.243,2.534,2.534,0,0,0,.7.858,3.194,3.194,0,0,0,1.034.494,4.665,4.665,0,0,0,1.254.165,4.516,4.516,0,0,0,1.078-.131,3.123,3.123,0,0,0,.99-.4,2.325,2.325,0,0,0,.715-.726,1.969,1.969,0,0,0,.286-1.078,1.923,1.923,0,0,0-.22-.968,1.824,1.824,0,0,0-.572-.638,2.8,2.8,0,0,0-.8-.4,9.266,9.266,0,0,0-.924-.264q-.462-.111-.913-.2a5.387,5.387,0,0,1-.814-.242,1.724,1.724,0,0,1-.572-.363.853.853,0,0,1-.209-.594,1.284,1.284,0,0,1,.143-.638,1.217,1.217,0,0,1,.4-.419,1.8,1.8,0,0,1,.572-.219,3.2,3.2,0,0,1,.649-.066,2.166,2.166,0,0,1,1.331.385,1.607,1.607,0,0,1,.616,1.221Z" transform="translate(-68.966 -76.276)"/>
    <polygon class="b" points="137.661 228.943 137.661 236.797 138.706 236.797 138.706 228.943 137.661 228.943 137.661 228.943"/>

	<!-- bangka dot -->
    <g>
      <path class="d" d="M418.985,117.405a5.29,5.29,0,1,1,5.29,5.29,5.289,5.289,0,0,1-5.29-5.29Z" transform="translate(-68.966 -76.276)"/>
      <path class="d" d="M424.275,123.2a5.791,5.791,0,1,1,5.79-5.791A5.8,5.8,0,0,1,424.275,123.2Zm0-10.581a4.791,4.791,0,1,0,4.79,4.79A4.8,4.8,0,0,0,424.275,112.614Z" transform="translate(-68.966 -76.276)"/>
    </g>
    <path class="b" d="M435.809,133.4H402.836V101.411h32.973Zm-32.273-.7h31.573v-30.59H403.536Z" transform="translate(-68.966 -76.276)"/>
    <polygon class="f" points="364.643 34.032 373.238 34.032 373.238 49.091 364.643 49.091 364.643 34.032 364.643 34.032"/>
    <path class="b" d="M421.441,117.405a2.835,2.835,0,1,1,2.834,2.835,2.834,2.834,0,0,1-2.834-2.835Z" transform="translate(-68.966 -76.276)"/>
    <path class="c" d="M435.831,116.872V114.6h1.9a3.924,3.924,0,0,1,.58.04,1.247,1.247,0,0,1,.49.15.851.851,0,0,1,.33.34,1.256,1.256,0,0,1,.12.6,1.038,1.038,0,0,1-.36.86,1.874,1.874,0,0,1-1.16.28Zm-.95-3.07v7.14h3.45a2.371,2.371,0,0,0,.93-.17,2.121,2.121,0,0,0,.68-.46,1.943,1.943,0,0,0,.42-.66,2.139,2.139,0,0,0,.14-.76,1.8,1.8,0,0,0-.35-1.12,1.642,1.642,0,0,0-1.01-.6v-.02a1.6,1.6,0,0,0,.78-.61,1.748,1.748,0,0,0,.28-.99,1.592,1.592,0,0,0-.25-.91,1.813,1.813,0,0,0-.59-.58,1.212,1.212,0,0,0-.39-.15,3.332,3.332,0,0,0-.48-.07,4.634,4.634,0,0,0-.531-.03c-.173-.007-.336-.01-.489-.01Zm.95,6.34v-2.47H438a2.77,2.77,0,0,1,.58.06,1.281,1.281,0,0,1,.49.19.953.953,0,0,1,.35.36,1.171,1.171,0,0,1,.13.58,1.232,1.232,0,0,1-.361.94,1.343,1.343,0,0,1-.979.34Z" transform="translate(-68.966 -76.276)"/>
    <path class="c" d="M443.461,117.992l1.21-3.33h.02l1.19,3.33Zm.709-4.19-2.779,7.14h.97l.8-2.15h3.019l.781,2.15h1.05l-2.79-7.14Z" transform="translate(-68.966 -76.276)"/>
    <polygon class="b" points="380.235 37.526 380.235 44.666 381.135 44.666 381.135 38.936 381.155 38.936 384.885 44.666 385.925 44.666 385.925 37.526 385.025 37.526 385.025 43.316 385.005 43.316 381.245 37.526 380.235 37.526 380.235 37.526"/>
    <path class="b" d="M462.271,120.052l.25.89h.6v-3.76h-3.13v.8h2.281a2.471,2.471,0,0,1-.13.92,2.1,2.1,0,0,1-.451.74,2.061,2.061,0,0,1-.72.49,2.54,2.54,0,0,1-.989.18,2.339,2.339,0,0,1-1.06-.23,2.386,2.386,0,0,1-.76-.63,2.86,2.86,0,0,1-.47-.91,3.645,3.645,0,0,1-.161-1.08,4.42,4.42,0,0,1,.14-1.11,2.985,2.985,0,0,1,.431-.97,2.158,2.158,0,0,1,1.88-.95,2.713,2.713,0,0,1,.75.1,1.993,1.993,0,0,1,.64.28,1.652,1.652,0,0,1,.469.49,1.8,1.8,0,0,1,.26.7h.95a2.784,2.784,0,0,0-.379-1.07,2.428,2.428,0,0,0-.68-.74,2.643,2.643,0,0,0-.92-.42,4.12,4.12,0,0,0-1.09-.14,3.293,3.293,0,0,0-1.49.32,3.111,3.111,0,0,0-1.061.84,3.775,3.775,0,0,0-.639,1.24,5.091,5.091,0,0,0-.21,1.48,4.03,4.03,0,0,0,.229,1.35,3.491,3.491,0,0,0,.671,1.15,3.3,3.3,0,0,0,1.069.8,3.393,3.393,0,0,0,1.431.29,3.445,3.445,0,0,0,1.25-.24,2.417,2.417,0,0,0,1.04-.81Z" transform="translate(-68.966 -76.276)"/>
    <polygon class="b" points="396.055 37.526 396.055 44.666 397.005 44.666 397.005 42.166 398.195 41.056 400.774 44.666 401.975 44.666 398.845 40.406 401.855 37.526 400.625 37.526 397.005 41.086 397.005 37.526 396.055 37.526 396.055 37.526"/>
    <path class="c" d="M473.42,117.992l1.21-3.33h.02l1.19,3.33Zm.71-4.19-2.78,7.14h.971l.8-2.15h3.02l.781,2.15h1.049l-2.789-7.14Z" transform="translate(-68.966 -76.276)"/>
  </g>

</svg>
