<svg version="1.1" xmlns="http://www.w3.org/2000/svg" viewBox="0 0 70.5 45">
<style type="text/css">
	.st0{fill:#FFFFFF;}
</style>
<g>
	<path class="st0" d="M70.4,43L58.8,12.5c-0.3-0.8-1.1-1.3-1.9-1.1l-3.5,0.5c-0.8,0.1-1.6-0.3-1.9-1L48,3.1
		c-0.3-0.8-0.9-1.4-1.7-1.8l-1.7-0.9c-1-0.6-2.3-0.5-3.2,0.2l-11,8.5c-1.3,1-2.2,2.5-2.5,4.2l-1.9,10.9l5,0.5
		c1.3,0.1,2.4,0.7,3.3,1.7l14.8,17.2l1.1,1.3h18.9C70.1,45,70.8,44,70.4,43z"/>
	<path class="st0" d="M30.8,26.7l-5.1-0.5l-2.6-0.3c-0.8-0.1-1.6-0.4-2.4-0.8l-5.7-3.8c-0.4-0.3-0.7-0.6-0.9-1.1
		c-0.7-1.7-2.5-5.8-2.5-5.8c-0.3-0.6-0.9-0.9-1.5-0.9c-0.4,0-0.8,0.2-1.2,0.5L7.9,15c-0.6,0.6-1,1.3-1.3,2L0,43.4
		C-0.2,44.2,0.4,45,1.2,45h23.4h22.9L32.8,27.7C32.3,27.1,31.6,26.8,30.8,26.7z"/>
</g>
</svg>
