<?xml version="1.0" encoding="utf-8"?>
<!-- Generator: Adobe Illustrator 21.0.2, SVG Export Plug-In . SVG Version: 6.00 Build 0)  -->
<svg version="1.1" id="Ebene_1" xmlns="http://www.w3.org/2000/svg" xmlns:xlink="http://www.w3.org/1999/xlink" x="0px" y="0px"
	 viewBox="0 0 60 67" style="enable-background:new 0 0 60 67;" xml:space="preserve">
<style type="text/css">
	.st0{fill:#FFFFFF;}
</style>
<g>
	<path class="st0" d="M34.8,20.3c-2.2-0.7-6.9-2.5-7.1-4c-0.2-1.9,0.2-7.8-2.1-9.9c-1.5-1.4-5.3-2.9-9.9,0
		c-4.6,2.9-9.5,6.3-8.4,17.5c0.1,1.1,0.2,2.1,0.3,3c0,0-0.1-0.1-0.1-0.1c-1.3-1.2-2.3-2.5-2.7-3.3c-0.5-0.8-0.5-1.5-1-1.4
		c-0.7,0.1-4.2,1.5-3.9,8.2c0.3,6.7,2.2,12.3,4.1,12.6c1,0.3,1-0.6,1.6-1.8c0.6-1.1,2.4-4,3.4-5.1c0.2,1.5,0.2,2.8,0,4.9
		c-0.6,5.3-2.3,11.7-1.9,15.5c0.3,3.3,3.8,9.7,10.4,9.8c7.5,0.1,10.4-4.9,9.6-9.5c-0.8-4.6-6.2-5.7-6.2-5.7v2.5c0,0,3.1,0.9,3.2,3.4
		c0.1,2.5-2.1,5-4.7,4.8c-2.6-0.3-5.2-2-5.1-4.7c0.1-2.7,1.7-5,5-8.3c0,0,0,0,0,0c0.1,0,0.1,0,0.2,0l3.3-0.6c0.3,0,0.4-0.3,0.4-0.5
		l-0.2-2.7c0-0.3,0.1-0.5,0.3-0.7l2.6-1.7c0.2-0.1,0.3-0.3,0.2-0.5l-0.7-3.5c0-0.2,0-0.4,0.1-0.6l1.9-2.8c0.1-0.2,0.1-0.5-0.1-0.6
		l-2.4-2.6c-0.2-0.2-0.2-0.4-0.2-0.7l0.7-3.7c0-0.2-0.1-0.5-0.3-0.6c-0.6-0.2-1.9-0.6-2.9-1.1c-1.4-0.7-2.9-2.2-3.8-3.3
		c-0.6-0.7-0.9-1.1-0.9-1.1s1.8,1,4,1c2.2-0.1,4.6-1,5.2-0.9c0.5,0.1,3.6,2.4,4.9,3.4c0.3,0.2,0.7,0.1,0.9-0.2l0.5-1.2
		c0.4-0.9,1-1.7,1.8-2.3C35.3,21,35.2,20.4,34.8,20.3z M21.1,17.2c-1.8,0-3.3-1.5-3.3-3.3c0-1.8,1.5-3.3,3.3-3.3s3.3,1.5,3.3,3.3
		C24.5,15.7,23,17.2,21.1,17.2z"/>
	<circle class="st0" cx="21.1" cy="13.8" r="1.4"/>
	<circle class="st0" cx="44.8" cy="16.6" r="4.1"/>
	<circle class="st0" cx="56.9" cy="11.2" r="2.9"/>
	<circle class="st0" cx="48.4" cy="2.7" r="2.1"/>
</g>
</svg>
