<?xml version="1.0" encoding="utf-8"?>
<!-- Generator: Adobe Illustrator 25.0.1, SVG Export Plug-In . SVG Version: 6.00 Build 0)  -->
<svg version="1.1" id="Ebene_1" xmlns="http://www.w3.org/2000/svg" xmlns:xlink="http://www.w3.org/1999/xlink" x="0px" y="0px"
	 viewBox="0 0 703 552.7" style="enable-background:new 0 0 703 552.7;" xml:space="preserve">
<style type="text/css">
	.st0{fill:#E2E2E3;}
	.st1{fill:none;stroke:#5C7277;stroke-width:2;stroke-miterlimit:10;stroke-dasharray:3,3;}
	.st2{fill:none;stroke:#5C7277;stroke-width:2;stroke-miterlimit:3.8637;}
	.st3{fill:none;stroke:#829CAA;stroke-width:2;stroke-miterlimit:3.8637;}
	.st4{fill:#FFFFFF;stroke:#FFFFFF;stroke-miterlimit:3.8637;}
	.st5{fill:#3AA8B5;}
	.st6{fill:#20201E;}
	.st7{fill:#FFFFFF;}
	.st8{fill:#5C7277;}
</style>
<path class="st0" d="M442.3,137.1c2.4-0.3,3.9-2.6,6.3-1.4c2.3,1.1,18.6,11.8,21.3,11.5c2.7-0.3,7.7-1.7,7.7-4.1
	c0-2.4-1.2-7.2,0.3-6.6c1.5,0.6,5.6,6.2,5.6,8.3c0,2.1-2.3,3.1-3.5,7.2c-1.2,4.1-1.5,7.3-1.5,11.5s1,7.4,2.4,9.5
	c1.4,2.1,5,1.3,5.3,3c0.3,1.7-1.2,3.2-0.3,4.7c0.9,1.5,3,0.4,3.6,3c0.6,2.6-7.4,15.6-8,18.3c-0.6,2.7-0.3,5.6-2.1,8
	c-1.8,2.4-5.6,7.5-5.6,5.7s4.1-4.5,2-4.5s-5.3,1.8-7.4,2.7c-2.1,0.9-5,2.3-6.5,4.7c-1.5,2.4-3,3.9-1.8,5.1c1.2,1.1,3.3-0.4,2.7,1.7
	c-0.6,2.1-6.2,9.5-6.5,11.9c-0.3,2.4-0.2,3.8,1.5,3.8c1.7,0,1.4,0.3,1.1,2.4c-0.3,2.1,3,9.2,4.2,10.4c1.2,1.2,4.2,2.3,2.1,3.5
	c-2.1,1.2-3,1.2-3,3.6c0,2.4,3.6,5.6,3.6,8.3s0.2,5,1.4,6.5c1.2,1.5,8.6,4.2,10.1,4.5c1.5,0.2,4.2,0,2.4-1.2c-1.8-1.2-8.9-5.4-8-6.3
	c0.9-0.8,1.7,0,3.8,1.2c2.1,1.2,6.9,6,6.6,4.2c-0.3-1.8-3.6-4.2-2.4-5.7c1.2-1.4,3.8,1.5,3.8,1.5s0.9-5.3,3-5.9
	c2.1-0.6,10.3,0.1,13.9,2.7c3.6,2.6,5.1,2.3,5.7,5.6c0.5,3.3-1.8,6.5-0.9,8.3c0.9,1.8,2.3,2.1,4.1,1.8c1.8-0.3,4.2-1,3.3-4.2
	c-0.9-3.2-2.4-5.6-0.9-6.5c1.5-0.9,2.6,2.4,5,3.3c2.4,0.9,7.4,0.5,9.8,1.7c2.4,1.2,9.2,4.5,7.1,5.4c-2.1,0.9-13-0.2-13.3,1.8
	c-0.3,2,2,5,4.1,6.2c2.1,1.2,5.9,5.3,8.6,5.3c2.7,0,6.2-0.3,6.8,1.2c0.6,1.5-1.1,2.1-3.8,1.8c-2.7-0.3-6.2-0.9-7.7-0.3
	c-1.5,0.6-4.8,1.7-3,3.2c1.8,1.5,3.5-1.2,5-0.9c1.5,0.3,3.3,4.2,4.8,3.6c1.5-0.6,4.7-2.7,4.7-1.2c0,1.5-1.7,3.6-1.7,5.1
	c0,1.4,0.9,10.9-1.5,10.9c-2.4,0-5.4-1.4-6.3-3.5c-0.8-2.1-0.9-5.1,0.6-5.4c1.5-0.3,3.9-1.4,3-2.6c-0.9-1.2-2-1.8-3.8-0.6
	c-1.8,1.2-2.8,3.2-6.3,1.7c-3.5-1.4-5.9-4.7-7.4-4.7c-1.5,0-3.8,0.3-3.8,0.3s1.2-4.4,0.3-5.6c-0.9-1.2-2.7-2.5-3.3-4.5
	c-0.6-2-0.1-3.5-3.3-4.4c-3.2-0.9-5.9-0.3-6.8-2.7c-0.9-2.4-2.3-5.3-4.7-7.1c-2.4-1.8-5-5.2-5.9-3.5c-0.9,1.7,0.9,3.2,0.3,5
	c-0.6,1.8,0.8,4.1,2.3,6.5c1.5,2.4,3.9,6.8,2.7,9.5c-1.2,2.7-2.8,4.2-3.6,2.1c-0.8-2.1-0.5-5.9-2.6-8c-2.1-2.1-5.3-4.5-7.1-4.8
	c-1.8-0.3-1.2-2.3-3-3.8c-1.8-1.5-8.7-6-11-6.3c-2.3-0.2-2.6-0.9-5.3,0.6c-2.7,1.5-4.1,2.4-4.1,4.8c0,2.4-2.7,3.5-4.2,3.5
	s-4.7,0.3-6.5,0.3s-1.3-3.5-3.6-3.5c-2.3,0,0.1-3.6-2.6-4.2c-2.7-0.6-5.4-1.8-6.3,0.3c-0.8,2.1-0.8-5.6-2.3-7.4
	c-1.5-1.8-1.2-3.5,0.3-4.7c1.5-1.2,9.5-4.4,9.5-7.1c0-2.7,2.4-4.5-0.6-6.3c-3-1.7-6.2-1.4-7.4-2.6c-1.2-1.2-3.6-4.5-3.3-1.2
	c0.3,3.3,2.4,8.7,1.2,10.1c-1.2,1.4-2.8,2.7-4.5,0.9c-1.7-1.8-0.8-4.8-2.6-4.8s-3-0.8-2.7-2.9c0.3-2.1,1.5-4.8-0.3-4.5
	c-1.8,0.3-2.3,4.5-3.8,3.3c-1.5-1.2-2.1-3.8-2.4-7.4c-0.3-3.6-0.3-9.5-2.4-11.3c-2.1-1.8,0.5-3.6-1.2-9.2c-1.7-5.6-5.6-6.3-5.3-8.9
	c0.3-2.6-1.2-10.6,1.2-12.4c2.4-1.8,5.9-2,6.5,1.5c0.6,3.5,1.6,8.6,3.9,8.3c2.3-0.3,6.3,0,7.4-2.4c1.1-2.4,0.9-5-0.6-6.8
	c-1.5-1.8-2.4-12.4-1.5-14.2c0.9-1.8,3.5-2.5,3.8-5.4c0.3-2.9,1.7-12.4,0.3-15.1c-1.4-2.7-4.1-2.3-3.2-4.4c0.9-2.1,3.5-2.8,3.5-6.3
	c0-3.5,0.9-8.5,2.1-11.2c1.2-2.7,3-3.2,2.7-6.5c-0.3-3.3-1.7-5.1,0.3-5.1s2,1.5,3.5,0.9c1.5-0.6,0.3-5,1.8-4.1
	C439.7,135.9,442.3,137.1,442.3,137.1L442.3,137.1z"/>
<path class="st0" d="M414.5,281.7c0,0,3.2,1.8,5.3,1.8c2.1,0,3.6,0,3.6,0s-0.3,2.4-0.6,3.6c-0.3,1.2-3.8,1.8-5.6,0
	C415.4,285.2,414.5,281.7,414.5,281.7L414.5,281.7z"/>
<path class="st0" d="M424.9,292c0,0,10,4.2,12.4,3.3c2.4-0.9,5.9-2.1,5.9-2.1s1.8,3.2,3.3,3.2c1.5,0,3.8-0.5,3.8-0.5l10.4,10.6
	c0,0-1.8,1.9-2.1,3.9c-0.3,2-1.5,4.7-0.3,6.5c1.2,1.8,3.2,2.3,1.5,4.4c-1.7,2.1-1.1,4.2-3.5,6.9s-5.9,2.6-7.7,3.8
	c-1.8,1.2-5.7,1.8-4.5-0.3c1.2-2.1,0.6-4.1-0.6-5.6c-1.2-1.5-2.3-7.4-4.1-8.3c-1.8-0.9-3.3-0.1-3-3.6c0.3-3.5-0.5-8.2-3.2-10.3
	c-2.7-2.1-3.9-1.5-4.8-3.9c-0.9-2.4-0.4-4.9-1.8-4.1c-1.4,0.8-2.9,3.8-3.5,0.8C422.5,293.8,424.9,292,424.9,292L424.9,292z"/>
<path class="st0" d="M469.3,292.6c-0.6,1.5-1.8,1.7-1.2,5c0.6,3.3,0.3,5.1,0.3,5.1s1.2-2.7,2.7-1.2c1.5,1.5,2,3,3.5,1.5
	c1.5-1.5,0.6-3,2.1-4.5c1.5-1.5,3.5-4.1,0.3-5C473.7,292.6,469.3,292.6,469.3,292.6L469.3,292.6z"/>
<path class="st0" d="M410.3,330c1.8-0.3,1.5,1.5,4.2,2.1c2.7,0.6,6.2,0.4,7.7,2.4c1.5,2,3.6,4.1,0,4.7c-3.6,0.6-5,3.3-7.7,1.2
	c-2.7-2.1-3.6-3.5-3.9-6.2C410.3,331.4,410.3,330,410.3,330L410.3,330z"/>
<path class="st0" d="M409.7,339.4c-1.5,1.2-2.6,0.9-0.9,2.7c1.7,1.8-0.4,2.9,1.7,4.7c2.1,1.8,1.8,2.1,3.6,0.6
	c1.8-1.5,4.5-2.9,2.1-3.8c-2.4-0.9-1.3-1.5-4.2-3C409.2,339.1,409.7,339.4,409.7,339.4L409.7,339.4z"/>
<path class="st0" d="M397.8,358c-2,0.3-0.7,1.6-3,3.6c-2.3,2-5,0-4.3,2.4c0.7,2.4,0.7,4,2,5.3c1.3,1.3-0.7,2,0.3,3.4
	c1,1.3,3.6,0.7,3.6,2.4s0.3,3-1.3,2.6c-1.6-0.3-2.3-4-2.6-0.7c-0.3,3.4,0.3,5.1-2,7.1c-2.4,2-5.3,0.3-6.7,1.3
	c-1.3,1-1.7,6.3-3.7,7.7c-2,1.3-2.3-0.7-4,1.3c-1.7,2-5.3,8.4-8.3,11.7c-3,3.3-11.3,12.6-13.6,14c-2.4,1.3-1.7-0.7-3.7,0.3
	c-2,1-5,5.6-6.7,6.7c-1.7,1-0.1-1.7-3.4,1c-3.3,2.7-9.6,11.3-11,14.3c-1.3,3-3,7.7-3,7.7s3-4.6,5.6-4.3c2.7,0.3,5,1,5-1.7
	c0-2.7-0.7-3.6,1.3-4c2-0.3,5.6,0.3,8.3-2.4c2.7-2.7,6.1-4.3,7.1-7c0.9-2.7-0.4-3.4,2.6-4.4c3-1,6.7-0.3,8.7-3
	c2-2.7,7.3-7.4,8.7-11.4c1.3-4,0.1-10.7,2.4-11c2.3-0.3,12-0.3,13-2c1-1.7,1.7-8.3,3.7-9.3c2-1,6.3-0.3,7.7-1.7c1.3-1.3,3-2,3-4.6
	c0-2.7-0.6-2.7-2-5c-1.3-2.3-1-3-2.4-5c-1.3-2-1.3-3.3-0.3-6c1-2.7,2.7-3.1,1.3-6C398.8,358.4,397.8,358,397.8,358L397.8,358z"/>
<path class="st0" d="M320.2,457c-1,1.7-1.3,3.4-1.3,5.4c0,2-0.3,5.3,2,4c2.3-1.3,5.6-3.6,3.6-6.3C322.5,457.3,320.2,457,320.2,457
	L320.2,457z"/>
<path class="st0" d="M326.5,455.9c2,0,5.5-2.7,4.8-4.7c-0.7-2-2.8-4.9-3.5-3.2c-0.7,1.7-2,2.4-2,2.4S324.5,455.9,326.5,455.9
	L326.5,455.9z"/>
<path class="st0" d="M477.1,318.5c-1.8,1.8-2.7-0.9-3.4,2.3c-0.7,3.2-0.4,3.7-1.8,6.7c-1.4,3,0.7,4.5,1.1,6.6c0.4,2.1,1.6,2,2.7-2.8
	c1.1-4.8,3.2-8.2,2.5-10.5C477.5,318.5,477.1,318.5,477.1,318.5L477.1,318.5z"/>
<path class="st0" d="M491.7,324.3c2.1,1.1,2.1-0.6,2.5,2.5c0.4,3,1.8,4.5-0.7,4.1c-2.5-0.4-1.6-3.4-3.2-3.4c-1.6,0-4.8-0.7-3-2.5
	C489,323.3,491.7,324.3,491.7,324.3L491.7,324.3z"/>
<path class="st0" d="M472.3,337.5c0,0-1.6,5,1.1,5.7c2.7,0.7,11,2.7,11.7,4.8c0.7,2.1,3.4,6.9,5.5,6.6c2.1-0.4,6.6-4.7,8-3.4
	c1.4,1.3,0,4.1,2.5,3.7c2.5-0.4,6.9-3.5,6.9-1.4c0,2.1-0.2,10.6-3.7,13c-3.5,2.3-7.3,2.7-7.6,4.5c-0.4,1.8,1.4,2.5-0.7,3.5
	c-2.1,1.1-1.9-0.5-3.9,2c-2,2.5-3,4.3-5.9,4.3c-2.8,0-3.7-2.5-6.9,0.4c-3.2,2.8-5.5,8-7.3,7.3c-1.8-0.7,1.1-7.4,0.4-9.8
	c-0.7-2.3-1.1-4.5,0.4-6.9c1.4-2.5,2.3-8.2,2.7-13.2c0.4-5,3.4-10.1,1.1-10.5c-2.3-0.4-3,0-5.2-0.4c-2.1-0.4-1.1-5.9-1.1-8.4
	C470.2,336.8,472.3,337.5,472.3,337.5L472.3,337.5z"/>
<path class="st0" d="M544.3,319.9c3.4,2.7,7.1,4.8,10.7,3.4c3.5-1.4,7.8-6.4,11.5-3.4c3.7,3,6.6,3.7,6.6,5.9c0,2.1-1.8,3-0.4,4.1
	c1.4,1.1,3.7-0.4,5.9,2.8c2.1,3.2,2.3,2.3,0.4,5.2c-2,2.8-0.4,10.6,0,12.6c0.4,2,1.1,3.7,2.5,5.9c1.4,2.1,3.2,4.5,1.1,6.2
	c-2.1,1.8-1.3,4.6-5.2,3.9c-3.9-0.7-5.2,0-7.6-2.5c-2.5-2.5-2.6-1.9-5.7-3.2c-3-1.3,0.7,2.6,1.1,6c0.4,3.4-2.1,7.1-0.7,8.7
	c1.4,1.6,4.3,2.3,5,4.8c0.7,2.5,5.2,8.4,3,10.1c-2.1,1.8-3.2,1.3-2.7,3.7c0.6,2.5,6.2,8.4,4.1,7.6c-2.1-0.7-4.1-1.3-5.2-3.7
	s-4.6-11.4-4.6-8.4c0,3,2.8,10.1,1.4,10.1c-1.4,0-4.8-2.8-6.6-4.3c-1.8-1.4-1.4-5-2.1-8.4c-0.7-3.4,3.2-8.2,1.1-11.4
	c-2.1-3.2-1.6-7.8-4.5-6.4c-2.8,1.4,0.7,5.3-2.1,5.7c-2.8,0.4-5.2-5.5-5.5-9.8c-0.4-4.3-5.7-15.8-3.2-13.9c2.5,2,4.5,5.9,6.6,5.9
	c2.1,0-0.7,1.6,2.1,2.5c2.8,0.9,4.1,0.4,6.2-1.8c2.1-2.1,3.9-3,3.9-5c0-2,4.5-3.7,3-5.5c-1.4-1.8-0.2,0.6-3.4-2.1
	c-3.2-2.7-4.8-8-8-8.4c-3.2-0.4-5.2,0.7-7.6-4.5c-2.5-5.2-5.3-8.9-3.9-10.8C542.9,319.9,544.3,319.9,544.3,319.9L544.3,319.9z"/>
<path class="st0" d="M511.8,321.3c0,0-2,2.7-2,6.1c0,2.5,3.5,3.3,1.3,6.7c-2.1,3.4-3.9,8.4-3.9,8.4s7.3-7,10.3-8.2
	c2.4-0.9,5.7,2.5,8.2,5.3c2.5,2.8,9.2,7.3,10.3,7c1.9-0.5-1.4-9.7-3.7-12.2c-2.3-2.5-3.4-1.4-5.2-2.8c-1.8-1.4-5.2-5.5-9.1-8
	C514.3,321.2,511.8,321.3,511.8,321.3L511.8,321.3z"/>
<path class="st0" d="M490.1,383.2c-0.4,3.7-3.7,5.2-0.7,5.2c3,0,4.5,1.6,5.2-2.1c0.7-3.7,3.9-8,1.1-7.6
	C492.7,378.9,490.1,383.2,490.1,383.2L490.1,383.2z"/>
<path class="st0" d="M507.3,371.3c-2.7,0.7-3.7,0.9-4.1,4.6c-0.4,3.7-2.3,6.4-4.3,7.6c-2,1.3,0,4.6,0.4,6.9c0.4,2.3,1.6,5.7-1.3,8
	c-2.8,2.3-8,0.9-9.8,2.7c-1.8,1.8-3.5,3-1.4,8.4c2.1,5.3,3.4,8,6.6,9.4c3.2,1.4,4.5-2.3,5.5,2.5c1.1,4.8,4.1,10.1,6.7,9.1
	c2.7-1.1,8-4.5,7.6-6.9c-0.4-2.5-2.1-6.2-3.9-9.1c-1.8-2.8-2.8-7.1-0.7-11.5c2.1-4.5,3.7-10.7,5.9-14.2c2.1-3.5,5.3-6.4,5-10.8
	c-0.4-4.5-1.2-6.6-4.6-7.3C511.6,369.9,507.3,371.3,507.3,371.3L507.3,371.3z"/>
<path class="st0" d="M531.3,371.9c-0.5,1.5-0.5,2.1-2.3,4.6c-1.8,2.5-5.1,8.7-6.4,11.5c-1.3,2.8-5.2,6.7-5.9,10.5
	c-0.7,3.7-3.4,12.5-3.4,14.9c0,2.5,0.2,7.8,2.3,4.1c2.1-3.7,5.9-15.5,8-18.7c2.1-3.2,2.3-5.7,4.6-6c2.3-0.4,4.5,3,5.5,0.4
	c1.1-2.7,2.5-7.1,1.8-10.7c-0.7-3.5-1.4-6.6-0.7-9.8C535.6,369.5,532.6,368,531.3,371.9L531.3,371.9z"/>
<path class="st0" d="M536.3,361.6c-1.6,0.5-3.2,0.5-3.6,1.9c-0.3,1.5-1.8,3.2,0,3.1c1.8-0.2,2.3,0.3,3.1-1.6
	C536.6,363,536.3,361.6,536.3,361.6L536.3,361.6z"/>
<path class="st0" d="M541.4,395.6c-3.4,1.1-3.8,3.8-6.9,5c-3,1.1-6.5,1.5-6.5,4.6c0,3,1.5,3.1-0.8,6.5c-2.3,3.4-3,4.9-0.4,3.8
	c2.7-1.1,3.8-3.4,6.9-2.3c3,1.1,8.7,1.5,11.8-1.1c3.1-2.7,3.1-4.2,5-4.2c1.9,0,1.5-3.4,1.5-7.2c0-3.8,0-0.8-4.9-2.7
	C542.2,396,541.4,395.6,541.4,395.6L541.4,395.6z"/>
<path class="st0" d="M486.2,458.8c-3.4,1.9-8.4,3.8-8.8,8c-0.4,4.2,0,11.4-1.9,14.1c-1.9,2.7-4.2,5-4.2,8c0,3,0,6.8,3.1,6.8
	c3,0,6.4-3,7.2-7.2c0.8-4.2,0.4-3.4,2.3-6.5c1.9-3.1,4.2-9.2,7.2-11.1c3-1.9,6.8-5,6.8-1.1c0,3.8-2.3,13.7,0.4,13.7
	c2.7,0,6.8-8.7,7.6-10.3c0.8-1.5,4.2-4.2,3.8-0.8c-0.4,3.4-3.4,4.6-0.8,4.6c2.7,0,1.9-1.9,3.4-0.4c1.5,1.5,3.1,5.7,4.6,4.6
	c1.5-1.2-1.9-5.3-0.4-7.2c1.5-1.9,1.1-5.7,1.9-6.9c0.8-1.1,5.7-2.3,6.9,0.4c1.1,2.7,3.1,3.8,5,3.8c1.9,0,7.2,3.4,8.4,5.7
	c1.1,2.3,3.8,1.9,3.4,3.4c-0.4,1.5-0.4,3.8-3.4,6.5c-3.1,2.7-4.2,1.9-4.6,6.1c-0.4,4.2,3,5.7,2.3,9.9c-0.8,4.2,2.7,14.1,11.8,18.7
	c9.1,4.6,16.4,6.5,18.3,4.6c1.9-1.9,4.6-7.6,6.1-6.5c1.5,1.2,2.3,3,0.4,6.1c-1.9,3.1,2.3,5,2.3,6.9s0,4.6,2.3,3
	c2.3-1.5,5.7-5.3,7.6-9.1c1.9-3.8,3.4-12.6,0.8-16c-2.7-3.4-9.9-6.9-8.8-9.9c1.2-3,2.3-6.1,3.4-8c1.1-1.9,4.5-5.7,5.3-3.4
	c0.8,2.3,0,7.2,1.9,6.1c1.9-1.1,3.4-4.5,1.9-6.8c-1.5-2.3-4.6-1.2-3.4-3.4c1.1-2.3,3.4-6.1,4.2-3.8c0.8,2.3-0.8,3.8,1.1,5.7
	c1.9,1.9,5,5.3,5.7,8c0.8,2.7,1.5,7.6,2.3,10.7c0.8,3,3.4,7.6,3.4,7.6s2.3-12.2,0.4-14.9c-1.9-2.7-1.5-5,0.4-4.6
	c1.9,0.4,6.1-0.8,6.5-2.7c0.4-1.9,3-3.8,3.4-10.3c0.4-6.5,1.5-9.2-1.5-11.8c-3.1-2.7-5-1.2-3.4-5c1.5-3.8,2.3-10.3,2.3-10.3
	s-4.6,3-4.6,1.1c0-1.9,3.8-8.8,0.8-9.5c-3-0.8-8,0.8-7.6-1.9c0.4-2.7,6.9-7.2,5.7-10.3c-1.1-3.1-6.1-3.8-5.3-7.2
	c0.8-3.4,3-5.7,1.1-5c-1.9,0.8-4.9,3-5.7,1.1c-0.8-1.9-1.5-6.9-6.1-8.8c-4.6-1.9-10.3-10.7-11-7.2c-0.8,3.4,1.5,9.9,1.9,14.1
	c0.4,4.2,3.4,9.1-0.8,9.9c-4.2,0.8-7.6-1.9-7.6-1.9s0.7,8-1.9,7.6c-2.7-0.4-8.8-7.6-9.9-5.7c-1.1,1.9,0,8-1.5,11.1
	c-1.5,3-0.7,6.1-3.4,4.9c-2.7-1.1-6.1-5.7-8-3.8c-1.9,1.9-2.7,10.3-5.7,11.4c-3,1.1-7.6,2.7-10.7,4.6c-3.1,1.9-2.3,5.3-4.6,4.6
	c-2.3-0.8-1.5-1.1,0.8-3.4c2.3-2.3,5.4-6.5,3.8-9.9c-1.5-3.4-3.4-7.6-6.1-8.4c-2.7-0.8-5-0.4-6.5-1.2c-1.5-0.8-1.9,3.1-4.6,3.8
	c-2.7,0.8-7.2-0.4-8.4,3.8c-1.1,4.2,2.3,7.2-2.3,8.4C498.4,457.3,486.2,458.8,486.2,458.8L486.2,458.8z"/>
<path class="st0" d="M584.8,383c0,0-2.7,6.1-3.4,9.1c-0.8,3.1-2.7,4.2-0.4,5.7c2.3,1.5,1.5,6.5,3.8,6.1c2.3-0.4,2.3-5.3,1.1-9.9
	c-1.1-4.6-0.4-3.8-0.4-6.9C585.6,384.1,584.8,383,584.8,383L584.8,383z"/>
<path class="st0" d="M597.8,398.6c0,0-4.6,2.3-4.2,4.2c0.4,1.9-0.4,3.1-0.8,6.1c-0.4,3-0.4,6.5,0.8,4.6c1.2-1.9,0.4-6.5,3.4-5.7
	c3,0.8,4.2,1.5,3-2.3c-1.1-3.8,0-3-0.8-4.9C598.5,398.6,597.8,398.6,597.8,398.6L597.8,398.6z"/>
<path class="st0" d="M475.9,501.1c-2.7,0-2.3,1.1-5.7,1.9c-3.4,0.8-8.4-0.7-4.6,1.9c3.8,2.7,2.7,4.2,6.1,5.7
	c3.4,1.5,5.7-1.9,7.6-1.9s0-3,1.9-3.4c1.9-0.4,6.5-1.2,3.1-1.9C480.8,502.6,475.9,501.1,475.9,501.1L475.9,501.1z"/>
<path class="st0" d="M447.3,521.7c-3-0.8-3.1-2.3-5.7,0.8c-2.7,3-7.6,4.9-1.9,4.6c5.7-0.4,7.2-1.1,9.9-0.8c2.7,0.4,8,1.9,8-0.8
	c0-2.7-1.5-3.4-4.9-3C449.2,522.8,447.3,521.7,447.3,521.7L447.3,521.7z"/>
<path class="st0" d="M523.9,422.2c-1.5,1.1-5-0.4-5.3,1.9c-0.4,2.3-1.5,4.2,1.5,4.2c3.1,0,6.5,1.2,5.3-1.5
	C524.3,424.1,523.9,422.2,523.9,422.2L523.9,422.2z"/>
<path class="st0" d="M555.9,423c-1.9,0.4-3.8-0.4-2.3,1.9c1.5,2.3,1.2,4.2,3.4,3.8c2.3-0.4,3.4-0.4,1.9-2.7
	C557.4,423.8,555.9,423,555.9,423L555.9,423z"/>
<path class="st0" d="M418.4,543c-4.2,1.1-4.7,0.4-8.4,3.7c-3.8,3.2-10.2,5.9-5.9,5.4c4.3-0.5,8.1-4.3,11.2-3.2
	c3.1,1.1,5.8,1.6,5.8-1.1S418.4,543,418.4,543L418.4,543z"/>
<path class="st0" d="M0,192.7c65.9,12.6,147.9-10.2,147.9-10.2s20-10,25-10c5,0,13,4,21,0c8-4,27-6,28-15c1-9,1-25,6-20
	c5,5,3,9,15,10c12,1,23-10,31-11c8-1,9,1,17,2c8,1,21-4,29-15c8-11,12-17,17-19c5-2,28-4,30-13c2-9,0-17,5-18c5-1,17-6,17-6
	s17-12,21-19c4-7,8-13,14-28s5-20,5-20H0.5L0,192.7z"/>
<path class="st1" d="M241.3,146.8c66.2,138.1,201.6,114.1,201.6,114.1"/>
<polyline class="st2" points="442.9,260.9 452.3,277.1 435.3,295.5 "/>
<path class="st1" d="M442.9,260.9c0,0-43.5,16.1-63.1,53.1c-20.5,38.6-7,99-7,99"/>
<line class="st2" x1="372.8" y1="412.9" x2="363.4" y2="405.5"/>
<path class="st1" d="M372.8,412.9c0,0,3.7-40.4,42.4-66.8 M415.2,346.1c0,0-12.9-50.6,27.7-85.2 M442.9,260.9
	c0,0,6.5,57.2,29.1,87.4c24.4,32.6,60.2,43.5,60.2,43.5"/>
<line class="st3" x1="532.2" y1="391.8" x2="531.2" y2="362.1"/>
<polygon class="st4" points="367.6,295.8 392.4,298.1 385.9,312.6 367.6,313.9 367.6,295.8 "/>
<polygon class="st4" points="399.5,295.8 421.1,301.3 424.4,309.8 405.2,311.9 399.5,295.8 "/>
<path d="M438.3,261.1c0-2.3,1.9-4.3,4.3-4.3c2.3,0,4.3,1.9,4.3,4.3c0,2.3-1.9,4.3-4.3,4.3C440.2,265.4,438.3,263.5,438.3,261.1
	L438.3,261.1z"/>
<path d="M368.5,412.9c0-2.3,1.9-4.3,4.3-4.3c2.3,0,4.3,1.9,4.3,4.3c0,2.3-1.9,4.3-4.3,4.3C370.4,417.2,368.5,415.3,368.5,412.9
	L368.5,412.9z"/>
<path d="M527.9,391.8c0-2.3,1.9-4.3,4.3-4.3c2.3,0,4.3,1.9,4.3,4.3c0,2.3-1.9,4.3-4.3,4.3C529.8,396,527.9,394.1,527.9,391.8
	L527.9,391.8z"/>
<path d="M359.1,405.5c0-2.3,1.9-4.3,4.3-4.3c2.3,0,4.3,1.9,4.3,4.3s-1.9,4.3-4.3,4.3C361,409.8,359.1,407.9,359.1,405.5L359.1,405.5
	z"/>
<path d="M526.8,362.1c0-2.3,1.9-4.3,4.3-4.3c2.3,0,4.3,1.9,4.3,4.3c0,2.3-1.9,4.3-4.3,4.3C528.7,366.3,526.8,364.4,526.8,362.1
	L526.8,362.1z"/>
<path d="M410.8,346.1c0-2.3,1.9-4.3,4.3-4.3c2.3,0,4.3,1.9,4.3,4.3c0,2.3-1.9,4.3-4.3,4.3C412.7,350.3,410.8,348.4,410.8,346.1
	L410.8,346.1z"/>
<path d="M448,277.1c0-2.3,1.9-4.3,4.3-4.3c2.3,0,4.3,1.9,4.3,4.3c0,2.3-1.9,4.3-4.3,4.3C450,281.3,448,279.4,448,277.1L448,277.1z"
	/>
<path d="M238,147.9c0-2.3,1.9-4.3,4.3-4.3c2.3,0,4.3,1.9,4.3,4.3c0,2.3-1.9,4.3-4.3,4.3C240,152.1,238,150.2,238,147.9L238,147.9z"
	/>
<path d="M431,295.5c0-2.3,1.9-4.3,4.3-4.3c2.3,0,4.3,1.9,4.3,4.3c0,2.3-1.9,4.3-4.3,4.3C432.9,299.7,431,297.8,431,295.5L431,295.5z
	"/>
<g>
	<path d="M81.5,127.3c-0.2-1.1-1.2-2-2.5-2c-2.3,0-3.1,1.9-3.1,3.9c0,1.9,0.8,3.8,3.1,3.8c1.5,0,2.4-1.1,2.6-2.6H84
		c-0.3,2.8-2.2,4.7-5,4.7c-3.5,0-5.6-2.6-5.6-5.9c0-3.4,2.1-6,5.6-6c2.5,0,4.6,1.5,4.9,4.1H81.5z"/>
	<path d="M88.9,123.5h2.5v4.4H96v-4.4h2.5v11.4H96V130h-4.6v4.9h-2.5V123.5z"/>
	<path d="M104,123.5h2.5v11.4H104V123.5z"/>
	<path d="M111.9,123.5h2.5l4.8,7.7h0v-7.7h2.4v11.4H119l-4.8-7.7h0v7.7h-2.4V123.5z"/>
	<path d="M130.1,123.5h2.6l4.3,11.4h-2.6l-0.9-2.5h-4.3l-0.9,2.5h-2.5L130.1,123.5z M129.8,130.5h3l-1.4-4.2h0L129.8,130.5z"/>
</g>
<g>
	<path d="M453.5,184.9h5.2c2.8,0,4,1.8,4,3.7s-1.1,3.7-4,3.7H456v4.1h-2.5V184.9z M456,190.3h2c1.2,0,2.2-0.3,2.2-1.7
		s-1-1.7-2.2-1.7h-2V190.3z"/>
	<path d="M467.4,184.9h2.5v4.4h4.6v-4.4h2.5v11.4h-2.5v-4.9h-4.6v4.9h-2.5V184.9z"/>
	<path d="M482.4,184.9h2.5v11.4h-2.5V184.9z"/>
	<path d="M490.4,184.9h2.5v9.3h5.6v2.1h-8.1V184.9z"/>
	<path d="M503.1,184.9h2.5v11.4h-2.5V184.9z"/>
	<path d="M511,184.9h5.2c2.8,0,4,1.8,4,3.7s-1.1,3.7-4,3.7h-2.6v4.1H511V184.9z M513.5,190.3h2c1.2,0,2.2-0.3,2.2-1.7
		s-1-1.7-2.2-1.7h-2V190.3z"/>
	<path d="M524.8,184.9h5.2c2.8,0,4,1.8,4,3.7s-1.1,3.7-4,3.7h-2.6v4.1h-2.5V184.9z M527.4,190.3h2c1.2,0,2.2-0.3,2.2-1.7
		s-1-1.7-2.2-1.7h-2V190.3z"/>
	<path d="M538.7,184.9h2.5v11.4h-2.5V184.9z"/>
	<path d="M546.6,184.9h2.5l4.8,7.7h0v-7.7h2.4v11.4h-2.5l-4.8-7.7h0v7.7h-2.4V184.9z"/>
	<path d="M561.7,184.9h8.5v2.1h-6v2.4h5.5v2h-5.5v2.8h6.2v2.1h-8.7V184.9z"/>
	<path d="M575.3,184.9h2.5l4.8,7.7h0v-7.7h2.4v11.4h-2.5l-4.8-7.7h0v7.7h-2.4V184.9z"/>
</g>
<g>
	<path class="st5" d="M106.6,331.9c0,1.1,0.9,1.6,1.9,1.6c0.7,0,1.7-0.2,1.7-1.1c0-0.9-1.3-1.1-2.5-1.4c-1.3-0.3-2.6-0.8-2.6-2.4
		c0-1.8,1.7-2.6,3.2-2.6c1.8,0,3.4,0.8,3.4,2.8h-1.8c-0.1-1-0.8-1.3-1.7-1.3c-0.6,0-1.3,0.3-1.3,1c0,0.7,0.4,0.7,2.6,1.3
		c0.6,0.2,2.5,0.6,2.5,2.5c0,1.6-1.2,2.7-3.6,2.7c-1.9,0-3.7-0.9-3.6-3H106.6z"/>
	<path class="st5" d="M122.7,331.5c0,2.3-1.4,3.4-3.7,3.4c-2.3,0-3.6-1.1-3.6-3.4v-5.3h1.9v5.3c0,0.9,0.2,1.9,1.8,1.9
		c1.3,0,1.8-0.6,1.8-1.9v-5.3h1.9V331.5z M117,323.8h1.6v1.4H117V323.8z M119.5,323.8h1.6v1.4h-1.6V323.8z"/>
	<path class="st5" d="M126.8,326.1h3.7c2.2,0,3.9,1.4,3.9,4.2c0,2.5-1.3,4.3-3.9,4.3h-3.7V326.1z M128.6,333.1h1.7
		c1.1,0,2.1-0.7,2.1-2.6c0-1.7-0.6-2.8-2.5-2.8h-1.3V333.1z"/>
	<path class="st5" d="M143.8,329c-0.1-0.9-0.9-1.5-1.9-1.5c-1.7,0-2.3,1.4-2.3,2.9c0,1.4,0.6,2.9,2.3,2.9c1.2,0,1.8-0.8,1.9-1.9h1.8
		c-0.2,2.1-1.7,3.5-3.8,3.5c-2.7,0-4.2-2-4.2-4.5c0-2.5,1.6-4.5,4.2-4.5c1.9,0,3.5,1.1,3.7,3.1H143.8z"/>
	<path class="st5" d="M149.3,326.1h1.9v3.3h3.5v-3.3h1.9v8.6h-1.9V331h-3.5v3.7h-1.9V326.1z"/>
	<path class="st5" d="M160.6,326.1h1.9v8.6h-1.9V326.1z"/>
	<path class="st5" d="M166.6,326.1h1.9l3.6,5.7h0v-5.7h1.8v8.6h-1.9l-3.6-5.7h0v5.7h-1.8V326.1z"/>
	<path class="st5" d="M177.9,326.1h6.4v1.6h-4.5v1.8h4.1v1.5h-4.1v2.1h4.6v1.6h-6.5V326.1z"/>
	<path class="st5" d="M189.3,331.9c0,1.1,0.9,1.6,1.9,1.6c0.7,0,1.7-0.2,1.7-1.1c0-0.9-1.3-1.1-2.5-1.4c-1.3-0.3-2.6-0.8-2.6-2.4
		c0-1.8,1.7-2.6,3.2-2.6c1.8,0,3.4,0.8,3.4,2.8h-1.8c-0.1-1-0.8-1.3-1.7-1.3c-0.6,0-1.3,0.3-1.3,1c0,0.7,0.4,0.7,2.6,1.3
		c0.6,0.2,2.5,0.6,2.5,2.5c0,1.6-1.2,2.7-3.6,2.7c-1.9,0-3.7-0.9-3.6-3H189.3z"/>
	<path class="st5" d="M198.2,326.1h1.9v8.6h-1.9V326.1z"/>
	<path class="st5" d="M205.5,331.9c0,1.1,0.9,1.6,1.9,1.6c0.7,0,1.7-0.2,1.7-1.1c0-0.9-1.3-1.1-2.5-1.4c-1.3-0.3-2.6-0.8-2.6-2.4
		c0-1.8,1.7-2.6,3.2-2.6c1.8,0,3.4,0.8,3.4,2.8h-1.8c-0.1-1-0.8-1.3-1.7-1.3c-0.6,0-1.3,0.3-1.3,1c0,0.7,0.4,0.7,2.6,1.3
		c0.6,0.2,2.5,0.6,2.5,2.5c0,1.6-1.2,2.7-3.6,2.7c-1.9,0-3.7-0.9-3.6-3H205.5z"/>
	<path class="st5" d="M220.1,329c-0.1-0.9-0.9-1.5-1.9-1.5c-1.7,0-2.3,1.4-2.3,2.9c0,1.4,0.6,2.9,2.3,2.9c1.2,0,1.8-0.8,1.9-1.9h1.8
		c-0.2,2.1-1.7,3.5-3.8,3.5c-2.7,0-4.2-2-4.2-4.5c0-2.5,1.6-4.5,4.2-4.5c1.9,0,3.5,1.1,3.7,3.1H220.1z"/>
	<path class="st5" d="M225.7,326.1h1.9v3.3h3.5v-3.3h1.9v8.6H231V331h-3.5v3.7h-1.9V326.1z"/>
	<path class="st5" d="M236.9,326.1h6.4v1.6h-4.5v1.8h4.1v1.5h-4.1v2.1h4.6v1.6h-6.5V326.1z"/>
	<path class="st5" d="M248.4,331.9c0,1.1,0.9,1.6,1.9,1.6c0.7,0,1.7-0.2,1.7-1.1c0-0.9-1.3-1.1-2.5-1.4c-1.3-0.3-2.6-0.8-2.6-2.4
		c0-1.8,1.7-2.6,3.2-2.6c1.8,0,3.4,0.8,3.4,2.8h-1.8c-0.1-1-0.8-1.3-1.7-1.3c-0.6,0-1.3,0.3-1.3,1c0,0.7,0.4,0.7,2.6,1.3
		c0.6,0.2,2.5,0.6,2.5,2.5c0,1.6-1.2,2.7-3.6,2.7c-1.9,0-3.7-0.9-3.6-3H248.4z"/>
	<path class="st5" d="M158.9,340.1h2.7l2,5.9h0l1.9-5.9h2.7v8.6h-1.8v-6.1h0l-2.1,6.1h-1.5l-2.1-6h0v6h-1.8V340.1z"/>
	<path class="st5" d="M172.2,340.1h6.4v1.6h-4.5v1.8h4.1v1.5h-4.1v2.1h4.6v1.6h-6.5V340.1z"/>
	<path class="st5" d="M182.4,340.1h6.4v1.6h-4.5v1.8h4.1v1.5h-4.1v2.1h4.6v1.6h-6.5V340.1z"/>
	<path class="st5" d="M192.6,340.1h4.6c1.5,0,2.5,1.1,2.5,2.4c0,1-0.4,1.8-1.4,2.1v0c0.9,0.2,1.2,1.1,1.2,2c0,0.5,0,1.5,0.4,2h-1.9
		c-0.2-0.5-0.2-1.4-0.3-2.1c-0.1-0.9-0.5-1.3-1.4-1.3h-1.9v3.3h-1.9V340.1z M194.5,344h2.1c0.8,0,1.3-0.4,1.3-1.2
		c0-0.8-0.5-1.2-1.3-1.2h-2.1V344z"/>
</g>
<g>
	<path class="st5" d="M551,256.8h3.9c2.1,0,3,1.4,3,2.7s-0.8,2.7-3,2.7h-2v3.1H551V256.8z M552.9,260.9h1.5c0.9,0,1.7-0.2,1.7-1.3
		s-0.8-1.3-1.7-1.3h-1.5V260.9z"/>
	<path class="st5" d="M561.4,256.8h1.9v3.3h3.5v-3.3h1.9v8.6h-1.9v-3.7h-3.5v3.7h-1.9V256.8z"/>
	<path class="st5" d="M572.7,256.8h1.9v8.6h-1.9V256.8z"/>
	<path class="st5" d="M578.7,256.8h1.9v7h4.2v1.6h-6.1V256.8z"/>
	<path class="st5" d="M588.2,256.8h1.9v8.6h-1.9V256.8z"/>
	<path class="st5" d="M594.1,256.8h3.9c2.1,0,3,1.4,3,2.7s-0.8,2.7-3,2.7h-2v3.1h-1.9V256.8z M596,260.9h1.5c0.9,0,1.7-0.2,1.7-1.3
		s-0.8-1.3-1.7-1.3H596V260.9z"/>
	<path class="st5" d="M604.5,256.8h3.9c2.1,0,3,1.4,3,2.7s-0.8,2.7-3,2.7h-2v3.1h-1.9V256.8z M606.4,260.9h1.5
		c0.9,0,1.7-0.2,1.7-1.3s-0.8-1.3-1.7-1.3h-1.5V260.9z"/>
	<path class="st5" d="M614.9,256.8h1.9v8.6h-1.9V256.8z"/>
	<path class="st5" d="M620.9,256.8h1.9l3.6,5.7h0v-5.7h1.8v8.6h-1.9l-3.6-5.7h0v5.7h-1.8V256.8z"/>
	<path class="st5" d="M632.2,256.8h1.9v8.6h-1.9V256.8z"/>
	<path class="st5" d="M639.4,262.6c0,1.1,0.9,1.6,1.9,1.6c0.7,0,1.7-0.2,1.7-1.1c0-0.9-1.3-1.1-2.5-1.4c-1.3-0.3-2.6-0.8-2.6-2.4
		c0-1.8,1.7-2.6,3.2-2.6c1.8,0,3.4,0.8,3.4,2.8h-1.8c-0.1-1-0.8-1.3-1.7-1.3c-0.6,0-1.3,0.3-1.3,1c0,0.7,0.4,0.7,2.6,1.3
		c0.6,0.2,2.5,0.6,2.5,2.5c0,1.6-1.2,2.7-3.6,2.7c-1.9,0-3.7-0.9-3.6-3H639.4z"/>
	<path class="st5" d="M654,259.7c-0.1-0.9-0.9-1.5-1.9-1.5c-1.7,0-2.3,1.4-2.3,2.9c0,1.4,0.6,2.9,2.3,2.9c1.2,0,1.8-0.8,1.9-1.9h1.8
		c-0.2,2.1-1.7,3.5-3.8,3.5c-2.7,0-4.2-2-4.2-4.4c0-2.5,1.6-4.5,4.2-4.5c1.9,0,3.5,1.1,3.7,3.1H654z"/>
	<path class="st5" d="M659.6,256.8h1.9v3.3h3.5v-3.3h1.9v8.6h-1.9v-3.7h-3.5v3.7h-1.9V256.8z"/>
	<path class="st5" d="M670.9,256.8h6.4v1.6h-4.5v1.8h4.1v1.5h-4.1v2.1h4.6v1.6h-6.5V256.8z"/>
	<path class="st5" d="M682.3,262.6c0,1.1,0.9,1.6,1.9,1.6c0.7,0,1.7-0.2,1.7-1.1c0-0.9-1.3-1.1-2.5-1.4c-1.3-0.3-2.6-0.8-2.6-2.4
		c0-1.8,1.7-2.6,3.2-2.6c1.8,0,3.4,0.8,3.4,2.8h-1.8c-0.1-1-0.8-1.3-1.7-1.3c-0.6,0-1.3,0.3-1.3,1c0,0.7,0.4,0.7,2.6,1.3
		c0.6,0.2,2.5,0.6,2.5,2.5c0,1.6-1.2,2.7-3.6,2.7c-1.9,0-3.7-0.9-3.6-3H682.3z"/>
	<path class="st5" d="M598.8,270.8h2.7l2,5.9h0l1.9-5.9h2.7v8.6h-1.8v-6.1h0l-2.1,6.1h-1.5l-2.1-6h0v6h-1.8V270.8z"/>
	<path class="st5" d="M612.1,270.8h6.4v1.6h-4.5v1.8h4.1v1.5h-4.1v2.1h4.6v1.6h-6.5V270.8z"/>
	<path class="st5" d="M622.2,270.8h6.4v1.6h-4.5v1.8h4.1v1.5h-4.1v2.1h4.6v1.6h-6.5V270.8z"/>
	<path class="st5" d="M632.4,270.8h4.6c1.5,0,2.5,1.1,2.5,2.4c0,1-0.4,1.8-1.4,2.1v0c0.9,0.2,1.2,1.1,1.2,2c0,0.5,0,1.5,0.4,2h-1.9
		c-0.2-0.5-0.2-1.4-0.3-2.1c-0.1-0.9-0.5-1.3-1.4-1.3h-1.9v3.3h-1.9V270.8z M634.3,274.7h2.1c0.8,0,1.3-0.4,1.3-1.2
		c0-0.8-0.5-1.2-1.3-1.2h-2.1V274.7z"/>
</g>
<g>
	<path class="st5" d="M324.5,512.5c0,1.1,0.9,1.6,1.9,1.6c0.7,0,1.7-0.2,1.7-1.1c0-0.9-1.3-1.1-2.5-1.4c-1.3-0.3-2.6-0.8-2.6-2.4
		c0-1.8,1.7-2.6,3.2-2.6c1.8,0,3.4,0.8,3.4,2.8h-1.8c-0.1-1-0.8-1.3-1.7-1.3c-0.6,0-1.3,0.3-1.3,1c0,0.7,0.4,0.7,2.6,1.3
		c0.6,0.2,2.5,0.6,2.5,2.5c0,1.6-1.2,2.7-3.6,2.7c-1.9,0-3.7-0.9-3.6-3H324.5z"/>
	<path class="st5" d="M340.7,512.1c0,2.3-1.4,3.4-3.7,3.4c-2.3,0-3.6-1.1-3.6-3.4v-5.3h1.9v5.3c0,0.9,0.2,1.9,1.8,1.9
		c1.3,0,1.8-0.6,1.8-1.9v-5.3h1.9V512.1z"/>
	<path class="st5" d="M344.7,506.7h1.9v7h4.2v1.6h-6.1V506.7z"/>
	<path class="st5" d="M361.5,512.1c0,2.3-1.4,3.4-3.7,3.4c-2.3,0-3.6-1.1-3.6-3.4v-5.3h1.9v5.3c0,0.9,0.2,1.9,1.8,1.9
		c1.3,0,1.8-0.6,1.8-1.9v-5.3h1.9V512.1z"/>
	<path class="st5" d="M366.8,512.5c0,1.1,0.9,1.6,1.9,1.6c0.7,0,1.7-0.2,1.7-1.1c0-0.9-1.3-1.1-2.5-1.4c-1.3-0.3-2.6-0.8-2.6-2.4
		c0-1.8,1.7-2.6,3.2-2.6c1.8,0,3.4,0.8,3.4,2.8H370c-0.1-1-0.8-1.3-1.7-1.3c-0.6,0-1.3,0.3-1.3,1c0,0.7,0.4,0.7,2.6,1.3
		c0.6,0.2,2.5,0.6,2.5,2.5c0,1.6-1.2,2.7-3.6,2.7c-1.9,0-3.7-0.9-3.6-3H366.8z"/>
	<path class="st5" d="M375.7,506.7h6.4v1.6h-4.5v1.8h4.1v1.5h-4.1v2.1h4.6v1.6h-6.5V506.7z"/>
	<path class="st5" d="M385.9,506.7h6.4v1.6h-4.5v1.8h4.1v1.5h-4.1v2.1h4.6v1.6h-6.5V506.7z"/>
</g>
<g>
	<path class="st6" d="M257.4,146.9h2.3v4.4h2.7v-4.4h2.3v11.4h-2.3v-5.1h-2.7v5.1h-2.3V146.9z"/>
	<path class="st6" d="M270,149.5c2.7,0,3.4,1.5,3.4,4.5c0,2.9-0.9,4.5-3.4,4.5c-2.7,0-3.4-1.5-3.4-4.5
		C266.6,151.1,267.5,149.5,270,149.5z M270,157.1c0.9,0,1.2-0.9,1.2-3s-0.3-3-1.2-3c-1.1,0-1.2,1.3-1.2,3S268.9,157.1,270,157.1z"/>
	<path class="st6" d="M275.2,149.8h2.1v1h0c0.5-0.8,1.3-1.2,2.2-1.2c1.4,0,2.2,0.8,2.2,2.4v6.4h-2.2v-5.9c0-0.9-0.3-1.2-0.9-1.2
		c-0.8,0-1.2,0.5-1.2,1.4v5.7h-2.2V149.8z"/>
	<path class="st6" d="M290.3,149.8v8.2c0,2.3-1,3.4-3.6,3.4c-1.9,0-2.9-0.8-2.9-2.3h2.1c0,0.3,0.1,0.5,0.3,0.7s0.5,0.2,0.7,0.2
		c0.9,0,1.2-0.7,1.2-1.6v-1.1h0c-0.4,0.6-1.1,1.1-1.8,1.1c-1.8,0-2.6-1.2-2.6-4.4c0-2,0.3-4.4,2.7-4.4c0.6,0,1.4,0.3,1.8,1.2h0v-1
		H290.3z M287,156.6c0.9,0,1.2-1,1.2-2.5c0-2.1-0.3-2.9-1.2-2.9c-1,0-1.2,0.8-1.2,3.1C285.9,155.5,286.1,156.6,287,156.6z"/>
	<path class="st6" d="M299.4,146.9v4.6h0l2.9-4.6h2.5l-3.1,4.9l3.5,6.5h-2.6l-2.4-4.7l-0.8,1.3v3.4h-2.3v-11.4H299.4z"/>
	<path class="st6" d="M309.3,149.5c2.7,0,3.4,1.5,3.4,4.5c0,2.9-0.9,4.5-3.4,4.5c-2.7,0-3.4-1.5-3.4-4.5
		C305.9,151.1,306.8,149.5,309.3,149.5z M309.3,157.1c0.9,0,1.2-0.9,1.2-3s-0.3-3-1.2-3c-1.1,0-1.2,1.3-1.2,3
		S308.2,157.1,309.3,157.1z"/>
	<path class="st6" d="M314.5,149.8h2.1v1h0c0.5-0.8,1.3-1.2,2.2-1.2c1.4,0,2.2,0.8,2.2,2.4v6.4h-2.2v-5.9c0-0.9-0.3-1.2-0.9-1.2
		c-0.8,0-1.2,0.5-1.2,1.4v5.7h-2.2V149.8z"/>
	<path class="st6" d="M329.6,149.8v8.2c0,2.3-1,3.4-3.6,3.4c-1.9,0-2.9-0.8-2.9-2.3h2.1c0,0.3,0.1,0.5,0.3,0.7s0.5,0.2,0.7,0.2
		c0.9,0,1.2-0.7,1.2-1.6v-1.1h0c-0.4,0.6-1.1,1.1-1.8,1.1c-1.8,0-2.6-1.2-2.6-4.4c0-2,0.3-4.4,2.7-4.4c0.6,0,1.4,0.3,1.8,1.2h0v-1
		H329.6z M326.3,156.6c0.9,0,1.2-1,1.2-2.5c0-2.1-0.3-2.9-1.2-2.9c-1,0-1.2,0.8-1.2,3.1C325.2,155.5,325.4,156.6,326.3,156.6z"/>
</g>
<g>
	<path class="st6" d="M450.3,243h3.4l1.6,8.1h0l1.6-8.1h3.4v11.4h-2.1v-9.1h0l-2,9.1h-1.8l-2-9.1h0v9.1h-2.1V243z"/>
	<path class="st6" d="M462.7,248.5v-0.2c0-2,1.4-2.7,3-2.7c2.6,0,3.1,1.1,3.1,2.6v4.5c0,0.8,0,1.2,0.3,1.7H467
		c-0.1-0.3-0.2-0.6-0.3-0.9h0c-0.5,0.9-1.1,1.1-2.2,1.1c-1.5,0-2.1-1.3-2.1-2.5c0-1.6,0.7-2.3,2.2-2.7l1.2-0.3
		c0.7-0.2,0.9-0.4,0.9-1c0-0.7-0.3-1.1-1-1.1c-0.7,0-1,0.4-1,1.1v0.2H462.7z M466.7,250.1c-0.3,0.2-0.7,0.4-0.9,0.4
		c-0.9,0.2-1.2,0.6-1.2,1.4c0,0.7,0.2,1.2,0.8,1.2s1.4-0.4,1.4-1.3V250.1z"/>
	<path class="st6" d="M471,245.8h2.1v1h0c0.5-0.8,1.3-1.2,2.2-1.2c1.4,0,2.2,0.8,2.2,2.4v6.4h-2.2v-5.9c0-0.9-0.3-1.2-0.9-1.2
		c-0.8,0-1.2,0.5-1.2,1.4v5.7H471V245.8z"/>
	<path class="st6" d="M479.7,242.9h2.2v1.9h-2.2V242.9z M479.7,245.8h2.2v8.6h-2.2V245.8z"/>
	<path class="st6" d="M484.2,243h2.2v11.4h-2.2V243z"/>
	<path class="st6" d="M488.6,248.5v-0.2c0-2,1.4-2.7,3-2.7c2.6,0,3.1,1.1,3.1,2.6v4.5c0,0.8,0,1.2,0.3,1.7h-2.1
		c-0.1-0.3-0.2-0.6-0.3-0.9h0c-0.5,0.9-1.1,1.1-2.2,1.1c-1.5,0-2.1-1.3-2.1-2.5c0-1.6,0.7-2.3,2.2-2.7l1.2-0.3
		c0.7-0.2,0.9-0.4,0.9-1c0-0.7-0.3-1.1-1-1.1c-0.7,0-1,0.4-1,1.1v0.2H488.6z M492.6,250.1c-0.3,0.2-0.7,0.4-0.9,0.4
		c-0.9,0.2-1.2,0.6-1.2,1.4c0,0.7,0.2,1.2,0.8,1.2c0.6,0,1.4-0.4,1.4-1.3V250.1z"/>
</g>
<g>
	<path class="st6" d="M461.5,279.8h4c2.3,0,3.1,1.7,3.1,3.4c0,2.4-1.5,3.4-3.6,3.4h-1.2v4.6h-2.3V279.8z M463.8,284.9h1
		c0.9,0,1.5-0.5,1.5-1.7c0-1.1-0.4-1.8-1.6-1.8h-1V284.9z"/>
	<path class="st6" d="M470.3,285.2V285c0-2,1.4-2.7,3-2.7c2.6,0,3.1,1.1,3.1,2.6v4.5c0,0.8,0,1.2,0.3,1.7h-2.1
		c-0.1-0.3-0.2-0.6-0.3-0.9h0c-0.5,0.9-1.1,1.1-2.2,1.1c-1.5,0-2.1-1.3-2.1-2.5c0-1.6,0.7-2.3,2.2-2.7l1.2-0.3
		c0.7-0.2,0.9-0.4,0.9-1c0-0.7-0.3-1.1-1-1.1c-0.7,0-1,0.4-1,1.1v0.2H470.3z M474.4,286.9c-0.3,0.2-0.7,0.4-0.9,0.4
		c-0.9,0.2-1.2,0.6-1.2,1.4c0,0.7,0.2,1.2,0.8,1.2s1.4-0.4,1.4-1.3V286.9z"/>
	<path class="st6" d="M485.1,282.6v8.2c0,2.3-1,3.4-3.6,3.4c-1.9,0-2.9-0.8-2.9-2.3h2.1c0,0.3,0.1,0.5,0.3,0.7
		c0.2,0.1,0.5,0.2,0.7,0.2c0.9,0,1.2-0.7,1.2-1.6v-1.1h0c-0.4,0.6-1.1,1.1-1.8,1.1c-1.8,0-2.6-1.2-2.6-4.4c0-2,0.3-4.4,2.7-4.4
		c0.6,0,1.4,0.3,1.8,1.2h0v-1H485.1z M481.8,289.4c0.9,0,1.2-1,1.2-2.5c0-2.1-0.3-2.9-1.2-2.9c-1,0-1.2,0.8-1.2,3.1
		C480.7,288.4,480.9,289.4,481.8,289.4z"/>
	<path class="st6" d="M488.9,288.4v0.3c0,0.8,0.4,1.2,1.2,1.2c0.7,0,1.1-0.3,1.1-1c0-0.6-0.4-0.8-0.8-1l-1.6-0.6
		c-1.2-0.4-1.8-1.2-1.8-2.4c0-1.4,0.9-2.6,3.2-2.6c2,0,2.9,0.9,2.9,2.4v0.4h-2c0-0.9-0.3-1.3-1-1.3c-0.6,0-1,0.3-1,0.9
		c0,0.4,0.2,0.8,1,1l1.3,0.4c1.4,0.5,1.9,1.2,1.9,2.5c0,1.8-1.3,2.7-3.2,2.7c-2.5,0-3.2-1.1-3.2-2.7v-0.3H488.9z"/>
	<path class="st6" d="M495.1,285.2V285c0-2,1.4-2.7,3-2.7c2.6,0,3.1,1.1,3.1,2.6v4.5c0,0.8,0,1.2,0.3,1.7h-2.1
		c-0.1-0.3-0.2-0.6-0.3-0.9h0c-0.5,0.9-1.1,1.1-2.2,1.1c-1.5,0-2.1-1.3-2.1-2.5c0-1.6,0.7-2.3,2.2-2.7l1.2-0.3
		c0.7-0.2,0.9-0.4,0.9-1c0-0.7-0.3-1.1-1-1.1c-0.7,0-1,0.4-1,1.1v0.2H495.1z M499.1,286.9c-0.3,0.2-0.7,0.4-0.9,0.4
		c-0.9,0.2-1.2,0.6-1.2,1.4c0,0.7,0.2,1.2,0.8,1.2c0.6,0,1.4-0.4,1.4-1.3V286.9z"/>
	<path class="st6" d="M503.4,282.6h2.1v1h0c0.5-0.8,1.3-1.2,2.2-1.2c1.4,0,2.2,0.8,2.2,2.4v6.4h-2.2v-5.9c0-0.9-0.3-1.2-0.9-1.2
		c-0.8,0-1.2,0.5-1.2,1.4v5.7h-2.2V282.6z"/>
	<path class="st6" d="M512.1,282.6h2.2v9.2c0,1.4-0.5,2.2-2.5,2.2c-0.3,0-0.6,0-0.9,0v-1.6c0.1,0,0.2,0,0.4,0c0.8,0,0.9-0.4,0.9-1.4
		V282.6z M512.1,279.6h2.2v1.9h-2.2V279.6z"/>
	<path class="st6" d="M516.5,285.2V285c0-2,1.4-2.7,3-2.7c2.6,0,3.1,1.1,3.1,2.6v4.5c0,0.8,0,1.2,0.3,1.7h-2.1
		c-0.1-0.3-0.2-0.6-0.3-0.9h0c-0.5,0.9-1.1,1.1-2.2,1.1c-1.5,0-2.1-1.3-2.1-2.5c0-1.6,0.7-2.3,2.2-2.7l1.2-0.3
		c0.7-0.2,0.9-0.4,0.9-1c0-0.7-0.3-1.1-1-1.1c-0.7,0-1,0.4-1,1.1v0.2H516.5z M520.5,286.9c-0.3,0.2-0.7,0.4-0.9,0.4
		c-0.9,0.2-1.2,0.6-1.2,1.4c0,0.7,0.2,1.2,0.8,1.2c0.6,0,1.4-0.4,1.4-1.3V286.9z"/>
	<path class="st6" d="M524.9,282.6h2.1v1h0c0.5-0.8,1.3-1.2,2.2-1.2c1.4,0,2.2,0.8,2.2,2.4v6.4h-2.2v-5.9c0-0.9-0.3-1.2-0.9-1.2
		c-0.8,0-1.2,0.5-1.2,1.4v5.7h-2.2V282.6z"/>
</g>
<g>
	<path class="st6" d="M376.4,299.5h3.4l1.6,8.1h0l1.6-8.1h3.4v11.4h-2.1v-9.1h0l-2,9.1h-1.8l-2-9.1h0v9.1h-2.1V299.5z"/>
	<path class="st6" d="M388.9,299.4h2.2v1.9h-2.2V299.4z M388.9,302.3h2.2v8.6h-2.2V302.3z"/>
	<path class="st6" d="M393.3,302.3h2.1v1h0c0.5-0.8,1.3-1.2,2.2-1.2c1.4,0,2.2,0.8,2.2,2.4v6.4h-2.2V305c0-0.9-0.3-1.2-0.9-1.2
		c-0.8,0-1.2,0.5-1.2,1.4v5.7h-2.2V302.3z"/>
	<path class="st6" d="M406.4,310L406.4,310c-0.5,0.8-1.1,1.1-2,1.1c-1.8,0-2.6-1.3-2.6-4.5s0.8-4.5,2.6-4.5c0.8,0,1.4,0.3,1.9,1h0
		v-3.6h2.2v11.4h-2.1V310z M405.1,309.4c1,0,1.2-1,1.2-2.8s-0.2-2.8-1.2-2.8c-1,0-1.2,1-1.2,2.8S404.1,309.4,405.1,309.4z"/>
	<path class="st6" d="M413.7,302.1c2.7,0,3.4,1.5,3.4,4.5c0,2.9-0.9,4.5-3.4,4.5c-2.7,0-3.4-1.5-3.4-4.5
		C410.3,303.7,411.1,302.1,413.7,302.1z M413.7,309.6c0.9,0,1.2-0.9,1.2-3c0-2.1-0.3-3-1.2-3c-1.1,0-1.2,1.3-1.2,3
		C412.5,308.4,412.6,309.6,413.7,309.6z"/>
	<path class="st6" d="M418.9,302.3h2.1v1.2h0c0.4-0.8,1.1-1.4,2-1.4c0.1,0,0.3,0,0.4,0v2.1c-0.2,0-0.5,0-0.7,0
		c-0.8,0-1.6,0.4-1.6,1.6v5.2h-2.2V302.3z"/>
	<path class="st6" d="M428,302.1c2.7,0,3.4,1.5,3.4,4.5c0,2.9-0.9,4.5-3.4,4.5c-2.7,0-3.4-1.5-3.4-4.5
		C424.6,303.7,425.4,302.1,428,302.1z M428,309.6c0.9,0,1.2-0.9,1.2-3c0-2.1-0.3-3-1.2-3c-1.1,0-1.2,1.3-1.2,3
		C426.8,308.4,426.9,309.6,428,309.6z"/>
</g>
<g>
	<path class="st6" d="M424.6,357.3c0-1.7-0.3-2.4-1.4-2.4c-1.2,0-1.4,1.2-1.4,4.4c0,3.5,0.5,4.1,1.5,4.1c0.8,0,1.4-0.4,1.4-2.9h2.3
		c0,2.5-0.6,4.6-3.6,4.6c-3.5,0-3.9-2.5-3.9-5.9s0.4-5.9,3.9-5.9c3.3,0,3.5,2.4,3.5,4.1H424.6z"/>
	<path class="st6" d="M432,356.1c2.7,0,3.4,1.5,3.4,4.5c0,2.9-0.9,4.5-3.4,4.5c-2.7,0-3.4-1.5-3.4-4.5
		C428.6,357.7,429.4,356.1,432,356.1z M432,363.6c0.9,0,1.2-0.9,1.2-3c0-2.1-0.3-3-1.2-3c-1.1,0-1.2,1.3-1.2,3
		S430.9,363.6,432,363.6z"/>
	<path class="st6" d="M437.2,356.3h2.1v1.2h0c0.4-0.8,1.1-1.4,2-1.4c0.1,0,0.3,0,0.4,0v2.1c-0.2,0-0.5,0-0.7,0
		c-0.8,0-1.6,0.4-1.6,1.6v5.2h-2.2V356.3z"/>
	<path class="st6" d="M446.3,356.1c2.7,0,3.4,1.5,3.4,4.5c0,2.9-0.9,4.5-3.4,4.5c-2.7,0-3.4-1.5-3.4-4.5
		C442.9,357.7,443.7,356.1,446.3,356.1z M446.3,363.6c0.9,0,1.2-0.9,1.2-3c0-2.1-0.3-3-1.2-3c-1.1,0-1.2,1.3-1.2,3
		S445.2,363.6,446.3,363.6z"/>
	<path class="st6" d="M451.5,356.3h2.1v1h0c0.5-0.8,1.3-1.2,2.2-1.2c1.4,0,2.2,0.8,2.2,2.4v6.4h-2.2V359c0-0.9-0.3-1.2-0.9-1.2
		c-0.8,0-1.2,0.5-1.2,1.4v5.7h-2.2V356.3z"/>
</g>
<g>
	<path class="st6" d="M305.2,399.1v0.3c0,1.1,0.3,1.8,1.5,1.8c0.7,0,1.4-0.4,1.4-1.4c0-1-0.5-1.4-2-2c-2-0.7-3-1.6-3-3.5
		c0-2.2,1.4-3.4,3.5-3.4c2,0,3.5,0.9,3.5,3.1v0.3h-2.2c0-1.1-0.4-1.7-1.2-1.7c-1,0-1.3,0.7-1.3,1.3c0,0.7,0.2,1.1,1.2,1.6l1.8,0.8
		c1.7,0.8,2.2,1.6,2.2,3c0,2.4-1.5,3.5-4,3.5c-2.6,0-3.6-1.2-3.6-3.3v-0.5H305.2z"/>
	<path class="st6" d="M312.2,396.7v-0.2c0-2,1.4-2.7,3-2.7c2.6,0,3.1,1.1,3.1,2.6v4.5c0,0.8,0,1.2,0.3,1.7h-2.1
		c-0.1-0.3-0.2-0.6-0.3-0.9h0c-0.5,0.9-1.1,1.1-2.2,1.1c-1.5,0-2.1-1.3-2.1-2.5c0-1.6,0.7-2.3,2.2-2.7l1.2-0.3
		c0.7-0.2,0.9-0.4,0.9-1c0-0.7-0.3-1.1-1-1.1c-0.7,0-1,0.4-1,1.1v0.2H312.2z M316.3,398.4c-0.3,0.2-0.7,0.4-0.9,0.4
		c-0.9,0.2-1.2,0.6-1.2,1.4c0,0.7,0.2,1.2,0.8,1.2s1.4-0.4,1.4-1.3V398.4z"/>
	<path class="st6" d="M320.6,391.3h2.2v3.6h0c0.5-0.7,1-1,1.9-1c1.8,0,2.6,1.3,2.6,4.5s-0.8,4.5-2.6,4.5c-0.9,0-1.5-0.3-2-1.1h0v0.9
		h-2.1V391.3z M323.9,401.2c1,0,1.2-1,1.2-2.8c0-1.9-0.2-2.8-1.2-2.8c-1,0-1.2,1-1.2,2.8C322.8,400.3,323,401.2,323.9,401.2z"/>
	<path class="st6" d="M329.2,396.7v-0.2c0-2,1.4-2.7,3-2.7c2.6,0,3.1,1.1,3.1,2.6v4.5c0,0.8,0,1.2,0.3,1.7h-2.1
		c-0.1-0.3-0.2-0.6-0.3-0.9h0c-0.5,0.9-1.1,1.1-2.2,1.1c-1.5,0-2.1-1.3-2.1-2.5c0-1.6,0.7-2.3,2.2-2.7l1.2-0.3
		c0.7-0.2,0.9-0.4,0.9-1c0-0.7-0.3-1.1-1-1.1c-0.7,0-1,0.4-1,1.1v0.2H329.2z M333.2,398.4c-0.3,0.2-0.7,0.4-0.9,0.4
		c-0.9,0.2-1.2,0.6-1.2,1.4c0,0.7,0.2,1.2,0.8,1.2s1.4-0.4,1.4-1.3V398.4z"/>
	<path class="st6" d="M337.5,394.1h2.1v1h0c0.5-0.8,1.3-1.2,2.2-1.2c1.4,0,2.2,0.8,2.2,2.4v6.4h-2.2v-5.9c0-0.9-0.3-1.2-0.9-1.2
		c-0.8,0-1.2,0.5-1.2,1.4v5.7h-2.2V394.1z"/>
	<path class="st6" d="M352.6,394.1v8.2c0,2.3-1,3.4-3.6,3.4c-1.9,0-2.9-0.8-2.9-2.3h2.1c0,0.3,0.1,0.5,0.3,0.7
		c0.2,0.1,0.5,0.2,0.7,0.2c0.9,0,1.2-0.7,1.2-1.6v-1.1h0c-0.4,0.6-1.1,1.1-1.8,1.1c-1.8,0-2.6-1.2-2.6-4.4c0-2,0.3-4.4,2.7-4.4
		c0.6,0,1.4,0.3,1.8,1.2h0v-1H352.6z M349.3,400.9c0.9,0,1.2-1,1.2-2.5c0-2.1-0.3-2.9-1.2-2.9c-1,0-1.2,0.8-1.2,3.1
		C348.2,399.9,348.4,400.9,349.3,400.9z"/>
</g>
<g>
	<path class="st6" d="M382.1,417.2h4c2.3,0,3.1,1.7,3.1,3.4c0,2.4-1.5,3.4-3.6,3.4h-1.2v4.6h-2.3V417.2z M384.4,422.3h1
		c0.9,0,1.5-0.5,1.5-1.7c0-1.1-0.4-1.8-1.6-1.8h-1V422.3z"/>
	<path class="st6" d="M395.4,427.6L395.4,427.6c-0.5,0.8-1.3,1.2-2.2,1.2c-1.4,0-2.2-0.8-2.2-2.4V420h2.2v5.9c0,0.9,0.3,1.2,0.9,1.2
		c0.8,0,1.2-0.5,1.2-1.4V420h2.2v8.6h-2.1V427.6z"/>
	<path class="st6" d="M401.5,424.6v0.7c0,1,0.3,2,1.1,2c0.7,0,1-0.6,1.2-1.6h2c-0.1,2-1,3.1-3.1,3.1c-3.2,0-3.3-2.5-3.3-4.6
		c0-2.3,0.4-4.4,3.4-4.4c2.6,0,3.2,1.7,3.2,4.4v0.5H401.5z M403.8,423.3c0-1.3-0.2-2-1.1-2c-0.9,0-1.1,0.9-1.1,1.7v0.3H403.8z"/>
	<path class="st6" d="M407.7,420h2.1v1.2h0c0.4-0.8,1.1-1.4,2-1.4c0.1,0,0.3,0,0.4,0v2.1c-0.2,0-0.5,0-0.7,0c-0.8,0-1.6,0.4-1.6,1.6
		v5.2h-2.2V420z"/>
	<path class="st6" d="M414.2,417.5h2.2v2.5h1.3v1.5h-1.3v4.7c0,0.7,0.1,0.9,0.8,0.9c0.2,0,0.4,0,0.5,0v1.5c-0.5,0-0.9,0.1-1.4,0.1
		c-1.7,0-2-0.5-2-2.3v-4.9H413V420h1.1V417.5z"/>
	<path class="st6" d="M422.2,419.8c2.7,0,3.4,1.5,3.4,4.5c0,2.9-0.9,4.5-3.4,4.5c-2.7,0-3.4-1.5-3.4-4.5
		C418.8,421.3,419.6,419.8,422.2,419.8z M422.2,427.3c0.9,0,1.2-0.9,1.2-3c0-2.1-0.3-3-1.2-3c-1.1,0-1.2,1.3-1.2,3
		S421.1,427.3,422.2,427.3z"/>
	<path class="st6" d="M382.1,433.2h4c2.3,0,3.1,1.7,3.1,3.4c0,2.4-1.5,3.4-3.6,3.4h-1.2v4.6h-2.3V433.2z M384.4,438.3h1
		c0.9,0,1.5-0.5,1.5-1.7c0-1.1-0.4-1.8-1.6-1.8h-1V438.3z"/>
	<path class="st6" d="M391,436h2.1v1.2h0c0.4-0.8,1.1-1.4,2-1.4c0.1,0,0.3,0,0.4,0v2.1c-0.2,0-0.5,0-0.7,0c-0.8,0-1.6,0.4-1.6,1.6
		v5.2H391V436z"/>
	<path class="st6" d="M397.1,433h2.2v1.9h-2.2V433z M397.1,436h2.2v8.6h-2.2V436z"/>
	<path class="st6" d="M401.5,436h2.1v1h0c0.5-0.8,1.3-1.2,2.2-1.2c1.4,0,2.2,0.8,2.2,2.4v6.4h-2.2v-5.9c0-0.9-0.3-1.2-0.9-1.2
		c-0.8,0-1.2,0.5-1.2,1.4v5.7h-2.2V436z"/>
	<path class="st6" d="M414.3,439.1c0-0.8-0.2-1.7-1-1.7c-1.1,0-1.3,1-1.3,2.9c0,2.1,0.2,3,1.2,3c0.7,0,1.1-0.6,1.1-2h2.1
		c0,2.3-0.9,3.5-3.3,3.5c-2.2,0-3.3-1.1-3.3-4.5c0-3.5,1.5-4.5,3.5-4.5c2,0,3.1,1.3,3.1,3.3H414.3z"/>
	<path class="st6" d="M420,440.6v0.7c0,1,0.3,2,1.1,2c0.7,0,1-0.6,1.2-1.6h2c-0.1,2-1,3.1-3.1,3.1c-3.2,0-3.3-2.5-3.3-4.6
		c0-2.3,0.4-4.4,3.4-4.4c2.6,0,3.2,1.7,3.2,4.4v0.5H420z M422.3,439.3c0-1.3-0.2-2-1.1-2c-0.9,0-1.1,0.9-1.1,1.7v0.3H422.3z"/>
	<path class="st6" d="M427.8,441.8v0.3c0,0.8,0.4,1.2,1.2,1.2c0.7,0,1.1-0.3,1.1-1c0-0.6-0.4-0.8-0.8-1l-1.6-0.6
		c-1.2-0.4-1.8-1.2-1.8-2.4c0-1.4,0.9-2.6,3.2-2.6c2,0,2.9,0.9,2.9,2.4v0.4h-2c0-0.9-0.3-1.3-1-1.3c-0.6,0-1,0.3-1,0.9
		c0,0.4,0.2,0.8,1,1l1.3,0.4c1.4,0.5,1.9,1.2,1.9,2.5c0,1.8-1.3,2.7-3.2,2.7c-2.5,0-3.2-1.1-3.2-2.7v-0.3H427.8z"/>
	<path class="st6" d="M433.9,438.6v-0.2c0-2,1.4-2.7,3-2.7c2.6,0,3.1,1.1,3.1,2.6v4.5c0,0.8,0,1.2,0.3,1.7h-2.1
		c-0.1-0.3-0.2-0.6-0.3-0.9h0c-0.5,0.9-1.1,1.1-2.2,1.1c-1.5,0-2.1-1.3-2.1-2.5c0-1.6,0.7-2.3,2.2-2.7l1.2-0.3
		c0.7-0.2,0.9-0.4,0.9-1c0-0.7-0.3-1.1-1-1.1c-0.7,0-1,0.4-1,1.1v0.2H433.9z M438,440.3c-0.3,0.2-0.7,0.4-0.9,0.4
		c-0.9,0.2-1.2,0.6-1.2,1.4c0,0.7,0.2,1.2,0.8,1.2s1.4-0.4,1.4-1.3V440.3z"/>
</g>
<g>
	<path class="st6" d="M537.2,347.2h3.4l1.6,8.1h0l1.6-8.1h3.4v11.4h-2.1v-9.1h0l-2,9.1h-1.8l-2-9.1h0v9.1h-2.1V347.2z"/>
	<path class="st6" d="M549.5,352.7v-0.2c0-2,1.4-2.7,3-2.7c2.6,0,3.1,1.1,3.1,2.6v4.5c0,0.8,0,1.2,0.3,1.7h-2.1
		c-0.1-0.3-0.2-0.6-0.3-0.9h0c-0.5,0.9-1.1,1.1-2.2,1.1c-1.5,0-2.1-1.3-2.1-2.5c0-1.6,0.7-2.3,2.2-2.7l1.2-0.3
		c0.7-0.2,0.9-0.4,0.9-1c0-0.7-0.3-1.1-1-1.1c-0.7,0-1,0.4-1,1.1v0.2H549.5z M553.6,354.3c-0.3,0.2-0.7,0.4-0.9,0.4
		c-0.9,0.2-1.2,0.6-1.2,1.4c0,0.7,0.2,1.2,0.8,1.2c0.6,0,1.4-0.4,1.4-1.3V354.3z"/>
	<path class="st6" d="M558,347.2h2.2v11.4H558V347.2z"/>
	<path class="st6" d="M562.3,352.7v-0.2c0-2,1.4-2.7,3-2.7c2.6,0,3.1,1.1,3.1,2.6v4.5c0,0.8,0,1.2,0.3,1.7h-2.1
		c-0.1-0.3-0.2-0.6-0.3-0.9h0c-0.5,0.9-1.1,1.1-2.2,1.1c-1.5,0-2.1-1.3-2.1-2.5c0-1.6,0.7-2.3,2.2-2.7l1.2-0.3
		c0.7-0.2,0.9-0.4,0.9-1c0-0.7-0.3-1.1-1-1.1c-0.7,0-1,0.4-1,1.1v0.2H562.3z M566.4,354.3c-0.3,0.2-0.7,0.4-0.9,0.4
		c-0.9,0.2-1.2,0.6-1.2,1.4c0,0.7,0.2,1.2,0.8,1.2c0.6,0,1.4-0.4,1.4-1.3V354.3z"/>
	<path class="st6" d="M570.7,350h2.1v0.9h0c0.5-0.8,1.1-1.1,2-1.1c1.8,0,2.6,1.3,2.6,4.5s-0.8,4.5-2.6,4.5c-0.8,0-1.4-0.3-1.9-1h0
		v3.6h-2.2V350z M574.1,357.2c1,0,1.2-1,1.2-2.8s-0.2-2.8-1.2-2.8c-1,0-1.2,1-1.2,2.8S573.1,357.2,574.1,357.2z"/>
	<path class="st6" d="M579.3,352.7v-0.2c0-2,1.4-2.7,3-2.7c2.6,0,3.1,1.1,3.1,2.6v4.5c0,0.8,0,1.2,0.3,1.7h-2.1
		c-0.1-0.3-0.2-0.6-0.3-0.9h0c-0.5,0.9-1.1,1.1-2.2,1.1c-1.5,0-2.1-1.3-2.1-2.5c0-1.6,0.7-2.3,2.2-2.7l1.2-0.3
		c0.7-0.2,0.9-0.4,0.9-1c0-0.7-0.3-1.1-1-1.1c-0.7,0-1,0.4-1,1.1v0.2H579.3z M583.4,354.3c-0.3,0.2-0.7,0.4-0.9,0.4
		c-0.9,0.2-1.2,0.6-1.2,1.4c0,0.7,0.2,1.2,0.8,1.2c0.6,0,1.4-0.4,1.4-1.3V354.3z"/>
	<path class="st6" d="M589.3,355.8v0.3c0,0.8,0.4,1.2,1.2,1.2c0.7,0,1.1-0.3,1.1-1c0-0.6-0.4-0.8-0.8-1l-1.6-0.6
		c-1.2-0.4-1.8-1.2-1.8-2.4c0-1.4,0.9-2.6,3.2-2.6c2,0,2.9,0.9,2.9,2.4v0.4h-2c0-0.9-0.3-1.3-1-1.3c-0.6,0-1,0.3-1,0.9
		c0,0.4,0.2,0.8,1,1l1.3,0.4c1.4,0.5,1.9,1.2,1.9,2.5c0,1.8-1.3,2.7-3.2,2.7c-2.5,0-3.2-1.1-3.2-2.7v-0.3H589.3z"/>
	<path class="st6" d="M599.7,357.8L599.7,357.8c-0.5,0.7-1.1,1-1.9,1c-1.8,0-2.6-1.3-2.6-4.5s0.8-4.5,2.6-4.5c0.9,0,1.5,0.3,2,1.1h0
		V350h2.1v11.4h-2.2V357.8z M598.6,351.5c-1,0-1.2,1-1.2,2.8s0.2,2.8,1.2,2.8c1,0,1.2-1,1.2-2.8S599.5,351.5,598.6,351.5z"/>
	<path class="st6" d="M608.5,357.6L608.5,357.6c-0.5,0.8-1.3,1.2-2.2,1.2c-1.4,0-2.2-0.8-2.2-2.4V350h2.2v5.9c0,0.9,0.3,1.2,0.9,1.2
		c0.8,0,1.2-0.5,1.2-1.4V350h2.2v8.6h-2.1V357.6z"/>
	<path class="st6" d="M612.7,352.7v-0.2c0-2,1.4-2.7,3-2.7c2.6,0,3.1,1.1,3.1,2.6v4.5c0,0.8,0,1.2,0.3,1.7H617
		c-0.1-0.3-0.2-0.6-0.3-0.9h0c-0.5,0.9-1.1,1.1-2.2,1.1c-1.5,0-2.1-1.3-2.1-2.5c0-1.6,0.7-2.3,2.2-2.7l1.2-0.3
		c0.7-0.2,0.9-0.4,0.9-1c0-0.7-0.3-1.1-1-1.1c-0.7,0-1,0.4-1,1.1v0.2H612.7z M616.7,354.3c-0.3,0.2-0.7,0.4-0.9,0.4
		c-0.9,0.2-1.2,0.6-1.2,1.4c0,0.7,0.2,1.2,0.8,1.2c0.6,0,1.4-0.4,1.4-1.3V354.3z"/>
</g>
<g>
	<path class="st6" d="M546.8,381.1c0-1.7-0.3-2.4-1.4-2.4c-1.2,0-1.4,1.2-1.4,4.4c0,3.5,0.5,4.1,1.5,4.1c0.8,0,1.4-0.4,1.4-2.9h2.3
		c0,2.5-0.6,4.6-3.6,4.6c-3.5,0-3.9-2.5-3.9-5.9s0.4-5.9,3.9-5.9c3.3,0,3.5,2.4,3.5,4.1H546.8z"/>
	<path class="st6" d="M552.9,384.7v0.7c0,1,0.3,2,1.1,2c0.7,0,1-0.6,1.2-1.6h2c-0.1,2-1,3.1-3.1,3.1c-3.2,0-3.3-2.5-3.3-4.6
		c0-2.3,0.4-4.4,3.4-4.4c2.6,0,3.2,1.7,3.2,4.4v0.5H552.9z M555.2,383.4c0-1.3-0.2-2-1.1-2c-0.9,0-1.1,0.9-1.1,1.7v0.3H555.2z"/>
	<path class="st6" d="M559.1,377.3h2.2v3.6h0c0.5-0.7,1-1,1.9-1c1.8,0,2.6,1.3,2.6,4.5s-0.8,4.5-2.6,4.5c-0.9,0-1.5-0.3-2-1.1h0v0.9
		h-2.1V377.3z M562.5,387.2c1,0,1.2-1,1.2-2.8s-0.2-2.8-1.2-2.8c-1,0-1.2,1-1.2,2.8S561.5,387.2,562.5,387.2z"/>
	<path class="st6" d="M572.2,387.7L572.2,387.7c-0.5,0.8-1.3,1.2-2.2,1.2c-1.4,0-2.2-0.8-2.2-2.4v-6.4h2.2v5.9
		c0,0.9,0.3,1.2,0.9,1.2c0.8,0,1.2-0.5,1.2-1.4v-5.7h2.2v8.6h-2.1V387.7z"/>
</g>
<g>
	<circle class="st7" cx="242.3" cy="130" r="5.7"/>
	<path class="st8" d="M242.3,120.7c-5,0-9,4-9,9c0,2,1.3,5.3,3.9,10c1.9,3.3,3.7,6.1,3.8,6.2l1.3,2l1.3-2c0.1-0.1,1.9-2.9,3.8-6.2
		c2.6-4.7,3.9-8,3.9-10C251.3,124.7,247.2,120.7,242.3,120.7z M242.3,134.3c-2.6,0-4.7-2.1-4.7-4.7s2.1-4.7,4.7-4.7s4.7,2.1,4.7,4.7
		C246.9,132.2,244.9,134.3,242.3,134.3z"/>
</g>
</svg>
