<?xml version="1.0" encoding="utf-8"?>
<!-- Generator: Adobe Illustrator 25.0.1, SVG Export Plug-In . SVG Version: 6.00 Build 0)  -->
<svg version="1.1" id="Ebene_1" xmlns="http://www.w3.org/2000/svg" xmlns:xlink="http://www.w3.org/1999/xlink" x="0px" y="0px"
	 viewBox="0 0 938.6 727.6" style="enable-background:new 0 0 938.6 727.6;" xml:space="preserve">
<style type="text/css">
	.st0{fill:#EDEDEC;}
	.st1{fill:#E2E2E2;}
	.st2{fill:#557093;}
	.st3{fill:#1D1D1B;}
	.st4{fill-rule:evenodd;clip-rule:evenodd;fill:#1D1D1B;}
	.st5{fill:#20201E;}
	.st6{fill-rule:evenodd;clip-rule:evenodd;}
	.st7{fill:none;stroke:#557093;stroke-miterlimit:3.8637;}
	.st8{fill-rule:evenodd;clip-rule:evenodd;fill:#557093;}
	.st9{fill:none;stroke:#A8A291;stroke-width:2;stroke-miterlimit:10;}
	.st10{fill:none;stroke:#A8A291;stroke-width:2;stroke-miterlimit:10;stroke-dasharray:4,4;}
	.st11{fill:#FFFFFF;}
	.st12{fill:#A8A291;}
</style>
<g id="Landkarte">
	<path class="st0" d="M419.6,113.2c-2.1,0.6-1.8,2,1.4,2.3C421.1,115.6,424.3,111.9,419.6,113.2z M394.1,705.1c-1.2,0.3-5.7,5,0,3.5
		C394.3,708.5,397.6,704.2,394.1,705.1z M405.5,702.7c-5.8,0.7-8.5,5.7,1.4,4.7C411.9,706.9,414.3,701.7,405.5,702.7z M411.2,695.7
		l-1.4,3.5C412.6,698.2,425.7,696.7,411.2,695.7z M422.5,101.6c-2.1,0.6-1.8,2,1.4,2.3C423.7,103.9,427.6,100.1,422.5,101.6z
		 M465.9,572.8c8-2.2,6.9-0.8,13.2-4.5c1.1-0.7,3-4.1,4.3-4.7c4.8-2.4,11.2-2,15.7-4.7c1.9-1.2,4.3-8.2,4.3-8.2
		c3.6-2.3,12.7-0.4,15.7-1.2c1.1-0.3,1.7-3.1,2.8-3.5c4.2-1.6,12-6.1,10-9.3c1.6-0.7,2.6,0.5,4.3,0c0.2-0.1,3.6-3.4,4.3-3.5
		c1.6-0.2,3.6,1.9,7.1,1.2c0.6-0.1,3.2-3.3,4.3-3.5c5.3-1,9.2,0.4,15.7,0c-0.4-1.1-1.6-5.8-1.4-5.8c0.9,0.6,3.1-0.5,4.3,0v2.3
		c1.5,0.3,2.2,2.2,2.9,2.3c3.1,0.8,6.7-0.4,10,0c0.7-1.1,4.1-4.1,4.3-4.7c0.5-1.5-1.1-4.7,0-5.8l10-3.5c-0.5-2.6,1.6-3.4,1.4-4.7
		c0,0,9.7-10.2,10.3-11.2c1.8-3.1-0.4-6.3,1.4-9.3c1.6-2.8,8.6-5,10-8.2c0.5-1.2-0.8-3.5,0-4.7c0.4-0.7,3.6-0.3,4.3-1.2
		c0.8-1.2-0.6-2.2,0-3.5c1.4-3.1,9.7-6.1,11.4-9.3c2.7-5.2-0.8-13.3,1.4-19.9c1.2-3.7,8.2-6.9,11.4-9.3c-3.2-4.8-7.3-13.3-2.9-19.9
		c0.4-0.7,4-1.8,4.3-2.3c0.7-1.7,1.3-9.8,0-10.5c0.7-2.9-2.3-36.6-2.3-36.6l-0.5-6.7c0,0,2.5-3.9,2.8-4.6c1.8-4.2-1.8-5.1,1.4-9.3
		c1.2-1.7,4.6-2.2,5.7-4.7c0.5-1.4,3.1-1.9,3.1-1.9c5.3,2.7,2.9,4.8,6.1,9.9c1.1-2.3,8.2-8.6,8.7-9.7c0.3-0.7-0.4-2.9,0-3.5
		c0.5-0.8,3.9-1.6,4.3-2.3c1.7-3.4-0.1-5.5,1.4-9.3c1.3-3.5,5.2-5.3,7.1-8.2c1.6-2.5,0.8-5.7,2.9-8.2c0.5-0.7,12-9,12.8-9.3
		c2.5-1.1,5,0.1,7.1-1.2c1.9-1.2,1.3-3,2.9-4.7c1.5-1.7,5.7-3,7.1-4.7c0.6-0.8-0.3-2.7,0-3.5c0.3-1.2,3.7-2.7,4.3-3.5
		c3.5-6.2,4.1-10,7.1-16.4l2.9-2.3c0.8-3.9-1.5-6.7-1.4-9.3c0-1.6,2.8-8.1,1.4-11.7l-4.3-2.3c-0.7-3.1,2.9-8.1,1.4-12.9
		c-0.8-2.6-5.7-3.9-7.1-5.8c-0.9-1.2,0.6-2.2,0-3.5c-0.4-0.7-2.5-0.5-2.8-1.2c-3.1-6.6-2.1-13.2-11.1-14.2
		c-4.2-0.5-9.1,0.6-10.3,0.2c-0.1,0,0-3.2,0-3.5c-1.5-0.3-2.3-2.2-2.8-2.3c-6.3-1.8-8.4,2.3-11.4,3.5c-1.4-1,1.2-3.1,1.4-3.5
		c-1.4-1.1-4.6-1.1-5.7-2.3c-0.8-0.8,0.4-2.7,0-3.5l-8.6-8.2c-0.6-0.4-2.3,0.9-2.8,1.2c-6.2-4.8-13.2-20.5-20.8-24
		c-3.2-1.5-6.5-0.8-10-2.3c-1.2-0.5-6.4-2.8-7.5-3c-8.2-1.6-8.9,2.8-17.1,1.8c-14.2-1.9-13.9-9.3-25.2-5.7c-2.4-2.4-4-3.9-7.8-4.8
		c-3.1-0.8-6.5,1.1-7.1,1.2c-1.1,0-3.4-0.7-5.7-1.2c-2.5,4-12.2,7.9-16.2,7.9c0,0,1.9-7.6,2.6-10.1c-0.3-0.1-5.2-0.8-5.7-1.2
		c0.5-1.9,2.7-3,2.9-3.5c0.7-2.6-1.8-3.4-1.4-4.7c-2.6-0.6-2,1-2.8-1.2h-2.8c-0.8-1.2,0.9-3.4,1.4-4.7c-2-0.7-2-2-2.9-3.5
		c-2,0.6-5.2-0.7-7.1,0c-0.9,0.3-3.2,3.9-4.3,4.7c0.8-2.7,1.6-4.4,2.9-7c-4.6-0.9-5.7-2.2-11.4-3.5c0-0.2,0-3.5,0-3.5
		c-2.9-1.2-3.2,2-7.1,1.2c-2.5-0.5-6.5-5.7-8.6-7l-4.3-2.3c-14.2-3-31.8,14.5-31.3,14c1.7-2,4.3-7,4.3-7c0.8-4.1-0.8-6-1.4-9.3
		c4.1,0,0-6.1,0-5.8V96c-6.3,0.3-8,0.3-14.2,0c2.9,0,3.3-6.6,0-7c-9.3-1.2-10.3,6.2-14.3,8.2c-2.2,1.1-5.8,0.7-7.1,2.3
		c-1.3,1.6,0,4.1-1.4,5.8c-0.7,0.8-5.3,1.1-5.7,2.3c-1.7,4.6-1.4,10.5-1.4,10.5c-3-9.2-10.8-18.3-10-21c0.2-0.9-0.7-2.7,0-3.5
		c1.4-1.9,6.7-3,8.5-4.7c1.4-1.3,2-5.4,4.3-5.8c2.5-0.6,1.7,3.1,0,3.5c0.4,0.7,0.2,2.9,1.4,5.8c2.8-0.2,13.8,1.8,11.4-2.3
		c-0.8-1.3-1-1.9-2.8-2.3c0-1.7,0.6-4.3,0-5.8l4.3,1.2c1.1-3.5,1.6-6.7,2.9-10.5c-1.5,0.6-4.1-0.5-5.7,0c-0.5,0.1-3.2,3.1-4.3,3.5
		c0.5,1.2,2.4,1.4,1.4,3.5c-1.2,0-4.7-0.5-5.7,0c5-7.7,8.9-7.2,0-12.8c11.2-3.8,7.4-1.6,11.4-10.5c-3.3,0-9-0.3-12.8,0
		c0.3-3.6,2.4-8.9,0-12.8c-0.5-0.9-4-2.4-4.3-3.5c-1.3-4.4,1.7-6.8,0-11.7c-1.1-3-6.1-7.4-7.1-10.5c-0.4-1.2,0.7-3.6,0-4.7
		c-0.8-1.1-4.8-1.3-5.7-2.3l-7.5,12.7l-3.6,9.7c0,0-2.2,14-3,17c-0.7,3-11.9,12.8-11.9,12.8l-6.9-3.9l-10.2,0.9c0,0-5.9,5.5-10.4,3
		c-4.5-2.4-5.9-8.5-5.9-8.5h-8.9l-3-3.7l-5.2,3l-12.6-3.7l-3,8.5l6.7,3.6l-5.2,6.7l-11.9-3.6l-8.2,1.2c0,0-4.5,1.8-9.7-0.6
		s-3,3.6-7.4,3s-2.2,6.1-5.9,4.9c-3.7-1.2-5.2,5.5-8.2,5.5s-7.4-1.8-7.4-4.9c0-3-6.7-3.7-8.9-6.1c-2.2-2.4-7.4-4.9-5.2-9.7
		c2.2-4.9,0.7-23.7,0.7-23.7s6.7-3,10.4-6.1c3.7-3,3-3.6,0-6.7c-3-3,3-6.1,0-6.7c-3-0.6-9.7-3.7-9.7-3.7l5.9-4.9
		c0,0-0.7-5.5-4.5-4.3c-4,1-14.4-2.6-14.4-2.6l0.7,4.9l-2.2,4.9c0,0-5.2,1.2-8.9,1.2s-3.7,6.1-8.2,6.7s-3,4.3-8.2,4.3
		S208,20.8,208,20.8s-3.7-0.6-5.9,2.4s2.2,4.3,2.2,4.3s-8.9,0-11.9-2.4s-11.9-2.4-11.9-2.4s-5.9-3-13.4-3.6
		c-7.4-0.6-5.9,1.2-2.2,2.4c3.7,1.2,0,4.3,3.7,8.5c3.7,4.3,4.5,5.5,5.2,7.9s-3.7,9.1-2.2,12.8s4.5,4.3,7.4,6.1
		c3,1.8,8.2-0.6,13.4-1.8s6.7,4.9,6.7,4.9s-2.2,2.4-6.7,2.4S185.7,72,182,72s-5.2,3.7-9.7,3.7s-5.2,7.3-10.4,7.3S150,87.9,150,87.9
		l-23.7-21.3l-5.9-1.2l-1.5-7.3l-6.7-0.6l-2.2,7.3l-6.7,1.8L97.4,63l-0.6,4.8c0,0-13.4,0.6-18.6,0.6s-12.3-2.7-12.3-2.7l-0.7,7
		l9.7,0.9L73.4,76H63.1l-1.5,7.9l5.2,3c0,0,6.3,11.9,7.4,13.7c3,4.9,3.1,28.9,2.3,32.6c-0.7,3.6-6.6,46.2-6.6,46.2s-0.7,5.5-5.9,5.5
		s-12.4,0.3-16.9,1.5c-4.4,1.2-9.7,3.4-14.1,7.1c-4.4,3.7-13.4,6.1-15.6,9.7c-2.2,3.7-1.5,9.1-4.4,13.4c-3,4.3-5.2,6.1-5.9,10.3
		c-0.7,4.3,0,7.9,0,7.9s-9.4,13.3-6.5,14c3,0.6,5,4.9,5,4.9l-3,7.3c0,0,16,14.5,16,18.1c0,3.7,14.1,13.2,14.1,13.2l14.9,0.9
		c0,0,9.2-12.1,13.6-15.1c4.5-3,3,3.7,3,3.7l-1.1,26.3l20.8,5.5c0,0,5.2-1.2,8.9,1.2c3.7,2.4,13.4-1.2,11.1-3.7
		c-2.2-2.4,3-4.3,3-4.3l5.9-1.2c0,0,14.1-15.8,21.5-17s15.5-3.8,22.3-4.9l5.4-0.6l-2.9,15.9c0,0,0.5,0.5,2.7,4.7
		c2.2,4.3,2.1,21.6,5.8,22.8c3.7,1.2,5.2,1.8,9.6,2.4c4.5,0.6,5,4.8,11.6,4.8c7.1,0,9.1,1.9,15.1,4.3c5.9,2.4,5.2,4.3,9.7,6.7
		c4.5,2.4,6.7,6.7,13.4,6.7s9.7,3,14.8,3c5.2,0,8.9-3,11.9,0c3,3,3.7,9.1,5.9,13.4s4.5,9.7,4.5,9.7s-4.5,4.3-6.7,7.9
		c-2.2,3.6,0,7.3,3.7,12.2c3.7,4.9,3,8.5,3,8.5l28.2-1.2c0,0-3,4.9-1.5,9.7c1.5,4.9,1.5,7.9,6.7,10.9s6.7,5.5,8.9,9.1
		c2.2,3.6,0,4.3,0,9.1c0,4.9-5.9,20-5.9,20l4.9,4.7l-6.1,2.5l2.8,3.5c0,0,2,2.8,5,6.4s-4.8,5.9-6.3,12s1.9,12.5,1.1,16.8
		c-0.7,4.3,22.6,0.2,22.6,0.2l5.2-2.4l3,3.7c0,0-0.7,4.9,5.2,5.5c5.9,0.6,9.7,2.4,9.7,7.9s-0.7,13.2,0.1,18.1
		c0.7,4.9,7.7,4.3,11.4,3.1c3.7-1.2,8.8-2.4,8.8,0s2.9,11.6-0.1,15.3c-3,3.6-2.2,17.6-2.2,17.6s11.1,5.5,9.7,1.8
		c-1.5-3.7,6.7-0.6,6.7-0.6s0,7.9,0.7,13.4s-2.8,9-2,11.4c0.7,2.4-4.4,2.4-6.7,5.5c-2.2,3-14.1,1.8-15.6,6.1s-5.2,7.3-9.6,10.3
		c-4.5,3-6.7,3-8.2,6.7c-1.5,3.6-9.8-3.7-9.8,1.1c0,4.9-2.2,9.7-5.9,12.2c-3.7,2.4-9.7,4.3-9.7,7.3s-4.4,13.1-4.4,13.1l14.8-5.2
		l8,11.6c0,0,1.5,3.7,3.7,7.9c2.2,4.3,10.7-1.8,14.4,1.9c3.7,3.7,4.5,4.9,11.1,7.9c6.7,3,11.1,1.8,12.6,6.7s-3,6.1,2.2,7.9
		c5.2,1.8,6.9,6.8,6.9,6.8l-8.2,10.7l2.1,4.5c5-4,10.5-7.8,11.4-12c1.1-5.5-1.3-7.8-2.9-11.7c3.8-3,11.3-8.3,12.8-12.8
		c0.4-1.2-0.8-3.7,0-4.7c1.3-1.6,5-1.1,7.1-2.3v-2.3c7.6-3.5,6.4-6.9,7.1-15.2c1.7,1.1,4,0.1,5.7,1.2v2.3c0.8,0.2,3.3,0.6,4.3,1.2
		l1.4-3.5l2.9,1.2c-0.1,0.4-1.4,4.7-1.4,4.7s-1.3,8.2-4.3,12.8c-0.4,0.6-4.1,3.1-4.3,3.5c-3.2,8.6,8.6-4.7,8.6-4.7
		c3.5-5.7,6.2-14.2,8.5-19.9c2.6-6.4,3.7-0.3,7.9-5.2c1.6-2,9.9-21.8,12.1-22.8c1.6-0.8,3.3,0.1,4.3-1.2c1.7-2.3,0.1-4.1,1.4-7
		c0.2-0.4,2.7-0.9,2.8-1.2c-2.6-1.9,4.3-13.2,4.8-19c-1.6-0.5-3.9-0.2-4.3-1.2c-1.2-3,1.7-4.5,1.4-5.8h-2.8c-0.4-0.3,0-3,0-3.5
		c2.2,1.2,1.2-1.7,1.4-2.3c0,0,0.3-6.6,0-8.2c-0.2-1-3.5-0.7-2.8-3.5c0.2-1.2,3.8-2.7,4.3-3.5C468.1,577,465.5,576.2,465.9,572.8z"
		/>
</g>
<g id="Ebene_1_1_">
	<path class="st1" d="M295.7,382.8c-1,0-2.1,0.7-3,2.2c-2.2,3.5-8.2,3-8.2,3s-3.7-1.7-7.2-1.7s-7.1,1.9-10.6,4.5s-7.3,4-7.3,4
		s2.3,3.4,3.9,5.8c1.5,2.4,1.5,5.5,1.5,5.5l27.4-1.5c0,0-2,9,0,14c2,5.1,4.4,5.7,7.5,8.1s6.2,7.2,7,11.6c0.9,4.4-6.3,25.1-6.3,25.1
		l4.9,4.7l-6.1,2.5c0,0,5.3,7,7.8,9.9s-3,6.3-0.8,5s5.7-0.4,7-2.6s0-2.2,3.1-4.4c3.1-2.2,1.3-4,1.8-7.9c0.4-4,11.9-0.4,18,0
		c6.2,0.4,11.1-1.6,14.2-4.2s2.5-6.8,3.9-12.5c1.3-5.7,0-4.4,2.6-9.7c2.6-5.3,7.9-12.7,8.3-17.1s-3.5-11.9-3.5-11.9
		s-3.1-4.8-2.2-9.2c0.9-4.4,0.9-4.8-0.9-7.5c-1.8-2.6-2.2,0-5.7,1.3s-3.5-1.8-1.8-6.6c1.8-4.8,0-4.8-2.6-4.8s-3.1,4-3.5,1.3
		c-0.4-2.6,1.8-3.1-0.4-4.8c-2.2-1.8-4,2.6-7,4c-3.1,1.3-7.5-0.9-9.7-0.9s-18,0-20.2-3.5s-9.7,4.8-9.7,1.3
		C298,383.9,297,382.8,295.7,382.8L295.7,382.8z"/>
	<g>
		<path class="st2" d="M758.5,447.2h2.6l4.3,11.4h-2.6l-0.9-2.5h-4.3l-0.9,2.5h-2.5L758.5,447.2z M758.2,454.2h3l-1.4-4.2l0,0
			L758.2,454.2z"/>
		<path class="st2" d="M771.2,449.3h-3.4v-2.1h9.4v2.1h-3.4v9.3h-2.5L771.2,449.3L771.2,449.3z"/>
		<path class="st2" d="M781.6,447.2h2.5v9.3h5.6v2.1h-8.1V447.2z"/>
		<path class="st2" d="M797.4,447.2h2.6l4.3,11.4h-2.6l-0.9-2.5h-4.3l-0.9,2.5h-2.5L797.4,447.2z M797.2,454.2h3l-1.4-4.2l0,0
			L797.2,454.2z"/>
		<path class="st2" d="M808.5,447.2h2.5l4.8,7.7l0,0v-7.7h2.4v11.4h-2.5l-4.8-7.7l0,0v7.7h-2.4V447.2z"/>
		<path class="st2" d="M826,449.3h-3.4v-2.1h9.4v2.1h-3.4v9.3H826V449.3z"/>
		<path class="st2" d="M836.5,447.2h2.5v11.4h-2.5V447.2z"/>
		<path class="st2" d="M844.4,447.2h2.5v4.7l4.5-4.7h3.1l-4.5,4.5l4.9,6.9h-3.2l-3.4-5.1l-1.4,1.5v3.7h-2.5L844.4,447.2L844.4,447.2
			z"/>
	</g>
</g>
<g id="Schrift">
	<g>
		<path class="st3" d="M570.1,133.5v0.3c0,1.1,0.3,1.8,1.5,1.8c0.7,0,1.4-0.4,1.4-1.4s-0.5-1.4-2-2c-2-0.7-3-1.6-3-3.5
			c0-2.2,1.4-3.4,3.5-3.4c2,0,3.5,0.9,3.5,3.1v0.3h-2.2c0-1.1-0.4-1.7-1.2-1.7c-1,0-1.3,0.7-1.3,1.3c0,0.7,0.2,1.1,1.2,1.6l1.8,0.8
			c1.7,0.8,2.2,1.6,2.2,3c0,2.4-1.5,3.5-4,3.5c-2.6,0-3.6-1.2-3.6-3.3v-0.5L570.1,133.5L570.1,133.5z"/>
		<path class="st3" d="M577,131v-0.2c0-2,1.4-2.7,3-2.7c2.6,0,3.1,1.1,3.1,2.6v4.5c0,0.8,0,1.2,0.3,1.7h-2.1
			c-0.1-0.3-0.2-0.6-0.3-0.9l0,0c-0.5,0.9-1.1,1.1-2.2,1.1c-1.5,0-2.1-1.3-2.1-2.5c0-1.6,0.7-2.3,2.2-2.7l1.2-0.3
			c0.7-0.2,0.9-0.4,0.9-1c0-0.7-0.3-1.1-1-1.1s-1,0.4-1,1.1v0.2h-2V131z M577.6,127.3c0.2-1.2,0.7-2,1.5-2c0.3,0,0.5,0,0.7,0.1
			l0.8,0.3c0.2,0.1,0.3,0.1,0.5,0.1c0.3,0,0.4-0.4,0.4-0.6h1.2c-0.1,1.1-0.7,2-1.5,2c-0.7,0-1.4-0.5-1.9-0.5c-0.2,0-0.4,0.2-0.5,0.6
			H577.6z M581,132.7c-0.3,0.2-0.7,0.4-0.9,0.4c-0.9,0.2-1.2,0.6-1.2,1.4c0,0.7,0.2,1.2,0.8,1.2s1.4-0.4,1.4-1.3L581,132.7
			L581,132.7z"/>
		<path class="st3" d="M588.3,128.2c2.7,0,3.4,1.5,3.4,4.5c0,2.9-0.9,4.5-3.4,4.5c-2.7,0-3.4-1.5-3.4-4.5
			C584.9,129.8,585.8,128.2,588.3,128.2z M588.3,135.7c0.9,0,1.2-0.9,1.2-3s-0.3-3-1.2-3c-1.1,0-1.2,1.3-1.2,3
			S587.2,135.7,588.3,135.7z"/>
		<path class="st3" d="M597.7,137v-11.4h2.3v9.5h4.1v1.9H597.7z"/>
		<path class="st3" d="M610,136L610,136c-0.5,0.8-1.3,1.2-2.2,1.2c-1.4,0-2.2-0.8-2.2-2.4v-6.4h2.2v5.9c0,0.9,0.3,1.2,0.9,1.2
			c0.8,0,1.2-0.5,1.2-1.4v-5.7h2.2v8.6H610V136z"/>
		<path class="st3" d="M614.1,125.5h2.2v1.9h-2.2V125.5z M614.1,128.4h2.2v8.6h-2.2V128.4z"/>
		<path class="st3" d="M620,134.2v0.3c0,0.8,0.4,1.2,1.2,1.2c0.7,0,1.1-0.3,1.1-1c0-0.6-0.4-0.8-0.8-1l-1.6-0.6
			c-1.2-0.4-1.8-1.2-1.8-2.4c0-1.4,0.9-2.6,3.2-2.6c2,0,2.9,0.9,2.9,2.4v0.4h-2c0-0.9-0.3-1.3-1-1.3c-0.6,0-1,0.3-1,0.9
			c0,0.4,0.2,0.8,1,1l1.3,0.4c1.4,0.5,1.9,1.2,1.9,2.5c0,1.8-1.3,2.7-3.2,2.7c-2.5,0-3.2-1.1-3.2-2.7v-0.3h2V134.2z"/>
	</g>
	<g>
		<path class="st3" d="M673.9,164h6.4v1.9h-4.1v2.7h3.8v1.9h-3.8v5h-2.3L673.9,164L673.9,164z"/>
		<path class="st3" d="M684.9,166.6c2.7,0,3.4,1.5,3.4,4.5c0,2.9-0.9,4.5-3.4,4.5c-2.7,0-3.4-1.5-3.4-4.5
			C681.5,168.2,682.3,166.6,684.9,166.6z M684.9,174.1c0.9,0,1.2-0.9,1.2-3s-0.3-3-1.2-3c-1.1,0-1.2,1.3-1.2,3
			S683.8,174.1,684.9,174.1z"/>
		<path class="st3" d="M689.9,166.8h2.1v1.2l0,0c0.4-0.8,1.1-1.4,2-1.4c0.1,0,0.3,0,0.4,0v2.1c-0.2,0-0.5,0-0.7,0
			c-0.8,0-1.6,0.4-1.6,1.6v5.2h-2.2V166.8z"/>
		<path class="st3" d="M696.2,164.3h2.2v2.5h1.3v1.5h-1.3v4.7c0,0.7,0.1,0.9,0.8,0.9c0.2,0,0.4,0,0.5,0v1.5c-0.5,0-0.9,0.1-1.4,0.1
			c-1.7,0-2-0.5-2-2.3v-4.9h-1.1v-1.5h1.1L696.2,164.3L696.2,164.3z"/>
		<path class="st3" d="M700.9,169.4v-0.2c0-2,1.4-2.7,3-2.7c2.6,0,3.1,1.1,3.1,2.6v4.5c0,0.8,0,1.2,0.3,1.7h-2.1
			c-0.1-0.3-0.2-0.6-0.3-0.9l0,0c-0.5,0.9-1.1,1.1-2.2,1.1c-1.5,0-2.1-1.3-2.1-2.5c0-1.6,0.7-2.3,2.2-2.7l1.2-0.3
			c0.7-0.2,0.9-0.4,0.9-1c0-0.7-0.3-1.1-1-1.1s-1,0.4-1,1.1v0.2h-2V169.4z M704.9,171.1c-0.3,0.2-0.7,0.4-0.9,0.4
			c-0.9,0.2-1.2,0.6-1.2,1.4c0,0.7,0.2,1.2,0.8,1.2s1.4-0.4,1.4-1.3L704.9,171.1L704.9,171.1z"/>
		<path class="st3" d="M709.2,164h2.2v11.4h-2.2V164z"/>
		<path class="st3" d="M715.3,171.4v0.7c0,1,0.3,2,1.1,2c0.7,0,1-0.6,1.2-1.6h2c-0.1,2-1,3.1-3.1,3.1c-3.2,0-3.3-2.5-3.3-4.6
			c0-2.3,0.4-4.4,3.4-4.4c2.6,0,3.2,1.7,3.2,4.4v0.5L715.3,171.4L715.3,171.4z M717.6,170.1c0-1.3-0.2-2-1.1-2
			c-0.9,0-1.1,0.9-1.1,1.7v0.3H717.6z"/>
		<path class="st3" d="M721,173.7l3.4-5.1h-3.3v-1.8h5.9v1.7l-3.4,5.1h3.4v1.8h-6V173.7z"/>
		<path class="st3" d="M728.6,169.4v-0.2c0-2,1.4-2.7,3-2.7c2.6,0,3.1,1.1,3.1,2.6v4.5c0,0.8,0,1.2,0.3,1.7h-2.1
			c-0.1-0.3-0.2-0.6-0.3-0.9l0,0c-0.5,0.9-1.1,1.1-2.2,1.1c-1.5,0-2.1-1.3-2.1-2.5c0-1.6,0.7-2.3,2.2-2.7l1.2-0.3
			c0.7-0.2,0.9-0.4,0.9-1c0-0.7-0.3-1.1-1-1.1s-1,0.4-1,1.1v0.2h-2V169.4z M732.6,171.1c-0.3,0.2-0.7,0.4-0.9,0.4
			c-0.9,0.2-1.2,0.6-1.2,1.4c0,0.7,0.2,1.2,0.8,1.2s1.4-0.4,1.4-1.3L732.6,171.1L732.6,171.1z"/>
	</g>
	<g>
		<path class="st3" d="M640.6,135.2v8.2c0,2.4-1.1,3.4-3.4,3.4c-2.4,0-3-1.6-3-3.3V143h2.1v0.4c0,1.2,0.2,1.8,1,1.8s1-0.6,1-1.8
			v-8.2H640.6z"/>
		<path class="st3" d="M644.4,142.7v0.7c0,1,0.3,2,1.1,2c0.7,0,1-0.6,1.2-1.6h2c-0.1,2-1,3.1-3.1,3.1c-3.2,0-3.3-2.5-3.3-4.6
			c0-2.3,0.4-4.4,3.4-4.4c2.6,0,3.2,1.7,3.2,4.4v0.5L644.4,142.7L644.4,142.7z M646.7,141.3c0-1.3-0.2-2-1.1-2
			c-0.9,0-1.1,0.9-1.1,1.7v0.3H646.7z"/>
		<path class="st3" d="M650.4,138h2.1v1.2l0,0c0.4-0.8,1.1-1.4,2-1.4c0.1,0,0.3,0,0.4,0v2.1c-0.2,0-0.5,0-0.7,0
			c-0.8,0-1.6,0.4-1.6,1.6v5.2h-2.2V138z"/>
		<path class="st3" d="M656.3,135.1h2.2v1.9h-2.2V135.1z M656.3,138h2.2v8.6h-2.2V138z"/>
		<path class="st3" d="M664.7,141.1c0-0.8-0.2-1.7-1-1.7c-1.1,0-1.3,1-1.3,2.9c0,2.1,0.2,3,1.2,3c0.7,0,1.1-0.6,1.1-2h2.1
			c0,2.3-0.9,3.5-3.3,3.5c-2.2,0-3.3-1.1-3.3-4.5c0-3.5,1.5-4.5,3.5-4.5s3.1,1.3,3.1,3.3H664.7z"/>
		<path class="st3" d="M671.5,137.8c2.7,0,3.4,1.5,3.4,4.5c0,2.9-0.9,4.5-3.4,4.5c-2.7,0-3.4-1.5-3.4-4.5
			C668.2,139.4,669,137.8,671.5,137.8z M671.5,145.3c0.9,0,1.2-0.9,1.2-3s-0.3-3-1.2-3c-1.1,0-1.2,1.3-1.2,3
			S670.5,145.3,671.5,145.3z"/>
		<path class="st3" d="M676.6,140.7v-0.2c0-2,1.4-2.7,3-2.7c2.6,0,3.1,1.1,3.1,2.6v4.5c0,0.8,0,1.2,0.3,1.7h-2.1
			c-0.1-0.3-0.2-0.6-0.3-0.9l0,0c-0.5,0.9-1.1,1.1-2.2,1.1c-1.5,0-2.1-1.3-2.1-2.5c0-1.6,0.7-2.3,2.2-2.7l1.2-0.3
			c0.7-0.2,0.9-0.4,0.9-1c0-0.7-0.3-1.1-1-1.1s-1,0.4-1,1.1v0.2h-2V140.7z M680.6,142.3c-0.3,0.2-0.7,0.4-0.9,0.4
			c-0.9,0.2-1.2,0.6-1.2,1.4c0,0.7,0.2,1.2,0.8,1.2s1.4-0.4,1.4-1.3L680.6,142.3L680.6,142.3z"/>
		<path class="st3" d="M688.9,141.1c0-0.8-0.2-1.7-1-1.7c-1.1,0-1.3,1-1.3,2.9c0,2.1,0.2,3,1.2,3c0.7,0,1.1-0.6,1.1-2h2.1
			c0,2.3-0.9,3.5-3.3,3.5c-2.2,0-3.3-1.1-3.3-4.5c0-3.5,1.5-4.5,3.5-4.5s3.1,1.3,3.1,3.3H688.9z"/>
		<path class="st3" d="M695.8,137.8c2.7,0,3.4,1.5,3.4,4.5c0,2.9-0.9,4.5-3.4,4.5c-2.7,0-3.4-1.5-3.4-4.5
			C692.4,139.4,693.2,137.8,695.8,137.8z M695.8,145.3c0.9,0,1.2-0.9,1.2-3s-0.3-3-1.2-3c-1.1,0-1.2,1.3-1.2,3
			S694.7,145.3,695.8,145.3z"/>
		<path class="st3" d="M700.8,140.7v-0.2c0-2,1.4-2.7,3-2.7c2.6,0,3.1,1.1,3.1,2.6v4.5c0,0.8,0,1.2,0.3,1.7h-2.1
			c-0.1-0.3-0.2-0.6-0.3-0.9l0,0c-0.5,0.9-1.1,1.1-2.2,1.1c-1.5,0-2.1-1.3-2.1-2.5c0-1.6,0.7-2.3,2.2-2.7l1.2-0.3
			c0.7-0.2,0.9-0.4,0.9-1c0-0.7-0.3-1.1-1-1.1s-1,0.4-1,1.1v0.2h-2V140.7z M704.8,142.3c-0.3,0.2-0.7,0.4-0.9,0.4
			c-0.9,0.2-1.2,0.6-1.2,1.4c0,0.7,0.2,1.2,0.8,1.2s1.4-0.4,1.4-1.3L704.8,142.3L704.8,142.3z"/>
		<path class="st3" d="M709,138h2.1v1.2l0,0c0.4-0.8,1.1-1.4,2-1.4c0.1,0,0.3,0,0.4,0v2.1c-0.2,0-0.5,0-0.7,0
			c-0.8,0-1.6,0.4-1.6,1.6v5.2H709V138z"/>
		<path class="st3" d="M714.8,140.7v-0.2c0-2,1.4-2.7,3-2.7c2.6,0,3.1,1.1,3.1,2.6v4.5c0,0.8,0,1.2,0.3,1.7h-2.1
			c-0.1-0.3-0.2-0.6-0.3-0.9l0,0c-0.5,0.9-1.1,1.1-2.2,1.1c-1.5,0-2.1-1.3-2.1-2.5c0-1.6,0.7-2.3,2.2-2.7l1.2-0.3
			c0.7-0.2,0.9-0.4,0.9-1c0-0.7-0.3-1.1-1-1.1s-1,0.4-1,1.1v0.2h-2V140.7z M718.8,142.3c-0.3,0.2-0.7,0.4-0.9,0.4
			c-0.9,0.2-1.2,0.6-1.2,1.4c0,0.7,0.2,1.2,0.8,1.2s1.4-0.4,1.4-1.3L718.8,142.3L718.8,142.3z"/>
	</g>
	<g>
		<path class="st3" d="M740.3,268.3h4.3c1.9,0,3,1,3,2.9c0,1.5-0.6,2.5-1.9,2.8l0,0c1.6,0.2,1.8,1.1,1.8,3.5c0,1.2,0.1,1.8,0.5,2
			v0.1h-2.5c-0.2-0.3-0.3-0.8-0.3-1.2l-0.1-2.2c0-0.9-0.4-1.4-1.4-1.4h-1.2v4.8h-2.3v-11.3H740.3z M742.6,273.3h1
			c1.1,0,1.7-0.5,1.7-1.7c0-1.1-0.6-1.6-1.6-1.6h-1.1L742.6,273.3L742.6,273.3z"/>
		<path class="st3" d="M751.5,275.8v0.7c0,1,0.3,2,1.1,2c0.7,0,1-0.6,1.2-1.6h2c-0.1,2-1,3.1-3.1,3.1c-3.2,0-3.3-2.5-3.3-4.6
			c0-2.3,0.4-4.4,3.4-4.4c2.6,0,3.2,1.7,3.2,4.4v0.5h-4.5V275.8z M753.7,274.5c0-1.3-0.2-2-1.1-2c-0.9,0-1.1,0.9-1.1,1.7v0.3H753.7z
			"/>
		<path class="st3" d="M761.6,274.2c0-0.8-0.2-1.7-1-1.7c-1.1,0-1.3,1-1.3,2.9c0,2.1,0.2,3,1.2,3c0.7,0,1.1-0.6,1.1-2h2.1
			c0,2.3-0.9,3.5-3.3,3.5c-2.2,0-3.3-1.1-3.3-4.5c0-3.5,1.5-4.5,3.5-4.5s3.1,1.3,3.1,3.3L761.6,274.2L761.6,274.2z"/>
		<path class="st3" d="M765.4,268.2h2.2v1.9h-2.2V268.2z M765.4,271.1h2.2v8.6h-2.2V271.1z"/>
		<path class="st3" d="M770.2,272.6H769v-1.5h1.1v-1c0-1.6,0.9-2.1,2.3-2.1c0.4,0,0.8,0,1.2,0v1.6c-0.1,0-0.3,0-0.4,0
			c-0.6,0-0.8,0.2-0.8,0.7v0.8h1.3v1.5h-1.3v7.1h-2.2L770.2,272.6L770.2,272.6z"/>
		<path class="st3" d="M776.8,275.8v0.7c0,1,0.3,2,1.1,2c0.7,0,1-0.6,1.2-1.6h2c-0.1,2-1,3.1-3.1,3.1c-3.2,0-3.3-2.5-3.3-4.6
			c0-2.3,0.4-4.4,3.4-4.4c2.6,0,3.2,1.7,3.2,4.4v0.5h-4.5V275.8z M779,274.5c0-1.3-0.2-2-1.1-2c-0.9,0-1.1,0.9-1.1,1.7v0.3H779z"/>
	</g>
	<g>
		<path class="st3" d="M521.5,319.6c0-1.2-0.3-1.8-1-1.8c-0.9,0-1.1,0.9-1.1,3.3c0,2.6,0.4,3.1,1.1,3.1c0.6,0,1.1-0.3,1.1-2.2h1.7
			c0,1.8-0.5,3.4-2.7,3.4c-2.6,0-2.9-1.8-2.9-4.4s0.3-4.4,2.9-4.4c2.5,0,2.7,1.8,2.7,3.1h-1.8V319.6z"/>
		<path class="st3" d="M524.7,316.7h1.7v2.8l0,0c0.3-0.6,0.9-0.8,1.6-0.8c1,0,1.6,0.6,1.6,1.8v4.8h-1.7v-4.4c0-0.6-0.2-0.9-0.7-0.9
			c-0.6,0-0.9,0.3-0.9,1.1v4.3h-1.7v-8.7H524.7z"/>
		<path class="st3" d="M531.1,320.8v-0.2c0-1.5,1-2,2.3-2c2,0,2.3,0.8,2.3,2v3.4c0,0.6,0,0.9,0.2,1.2h-1.6c-0.1-0.2-0.2-0.5-0.2-0.7
			l0,0c-0.4,0.7-0.9,0.8-1.6,0.8c-1.2,0-1.6-1-1.6-1.8c0-1.2,0.5-1.7,1.6-2l0.9-0.3c0.5-0.1,0.7-0.3,0.7-0.8s-0.2-0.8-0.8-0.8
			c-0.5,0-0.8,0.3-0.8,0.8v0.2h-1.4V320.8z M534.2,322.1c-0.2,0.2-0.5,0.3-0.7,0.3c-0.7,0.1-0.9,0.5-0.9,1s0.2,0.9,0.6,0.9
			c0.4,0,1-0.3,1-1L534.2,322.1L534.2,322.1z"/>
		<path class="st3" d="M537.4,318.8h1.6v0.7l0,0c0.4-0.6,0.8-0.9,1.5-0.9c1.4,0,2,1,2,3.4s-0.6,3.4-2,3.4c-0.6,0-1-0.3-1.4-0.8l0,0
			v2.7h-1.7L537.4,318.8L537.4,318.8z M539.9,324.2c0.7,0,0.9-0.7,0.9-2.1s-0.1-2.1-0.9-2.1c-0.7,0-0.9,0.7-0.9,2.1
			S539.2,324.2,539.9,324.2z"/>
		<path class="st3" d="M543.9,320.8v-0.2c0-1.5,1-2,2.3-2c2,0,2.3,0.8,2.3,2v3.4c0,0.6,0,0.9,0.2,1.2h-1.6c-0.1-0.2-0.2-0.5-0.2-0.7
			l0,0c-0.4,0.7-0.9,0.8-1.6,0.8c-1.2,0-1.6-1-1.6-1.8c0-1.2,0.5-1.7,1.6-2l0.9-0.3c0.5-0.1,0.7-0.3,0.7-0.8s-0.2-0.8-0.8-0.8
			c-0.5,0-0.8,0.3-0.8,0.8v0.2h-1.4V320.8z M546.9,322.1c-0.2,0.2-0.5,0.3-0.7,0.3c-0.7,0.1-0.9,0.5-0.9,1s0.2,0.9,0.6,0.9
			c0.4,0,1-0.3,1-1L546.9,322.1L546.9,322.1z"/>
		<path class="st3" d="M553.4,324.6L553.4,324.6c-0.4,0.6-0.8,0.9-1.5,0.9c-1.4,0-2-1-2-3.4s0.6-3.4,2-3.4c0.6,0,1,0.3,1.4,0.8l0,0
			v-2.7h1.7v8.6h-1.6L553.4,324.6L553.4,324.6z M552.5,324.2c0.7,0,0.9-0.7,0.9-2.1s-0.1-2.1-0.9-2.1c-0.7,0-0.9,0.7-0.9,2.1
			S551.8,324.2,552.5,324.2z"/>
		<path class="st3" d="M556.6,320.8v-0.2c0-1.5,1-2,2.3-2c2,0,2.3,0.8,2.3,2v3.4c0,0.6,0,0.9,0.2,1.2h-1.6c-0.1-0.2-0.2-0.5-0.2-0.7
			l0,0c-0.4,0.7-0.9,0.8-1.6,0.8c-1.2,0-1.6-1-1.6-1.8c0-1.2,0.5-1.7,1.6-2l0.9-0.3c0.5-0.1,0.7-0.3,0.7-0.8s-0.2-0.8-0.8-0.8
			c-0.5,0-0.8,0.3-0.8,0.8v0.2h-1.4V320.8z M559.6,322.1c-0.2,0.2-0.5,0.3-0.7,0.3c-0.7,0.1-0.9,0.5-0.9,1s0.2,0.9,0.6,0.9
			c0.4,0,1-0.3,1-1L559.6,322.1L559.6,322.1z"/>
		<path class="st3" d="M510.7,328.7h2.8c2.4,0,2.8,1.6,2.8,4.2c0,3-0.6,4.4-2.9,4.4h-2.7L510.7,328.7L510.7,328.7z M512.5,336h0.8
			c1.2,0,1.4-0.8,1.4-3.1c0-1.9-0.2-2.9-1.5-2.9h-0.7V336z"/>
		<path class="st3" d="M518,328.6h1.7v1.4H518V328.6z M518,330.8h1.7v6.5H518V330.8z"/>
		<path class="st3" d="M521.3,332.8v-0.2c0-1.5,1-2,2.3-2c2,0,2.3,0.8,2.3,2v3.4c0,0.6,0,0.9,0.2,1.2h-1.6c-0.1-0.2-0.2-0.5-0.2-0.7
			l0,0c-0.4,0.7-0.9,0.8-1.6,0.8c-1.2,0-1.6-1-1.6-1.8c0-1.2,0.5-1.7,1.6-2l0.9-0.3c0.5-0.1,0.7-0.3,0.7-0.8s-0.2-0.8-0.8-0.8
			c-0.5,0-0.8,0.3-0.8,0.8v0.2h-1.4V332.8z M524.3,334.1c-0.2,0.2-0.5,0.3-0.7,0.3c-0.7,0.1-0.9,0.5-0.9,1s0.2,0.9,0.6,0.9
			c0.4,0,1-0.3,1-1L524.3,334.1L524.3,334.1z"/>
		<path class="st3" d="M527.6,330.8h1.6v0.7l0,0c0.4-0.6,0.9-0.8,1.6-0.8c0.8,0,1.3,0.4,1.5,1l0,0c0.3-0.7,0.9-1,1.6-1
			c1.1,0,1.6,0.7,1.6,1.9v4.7h-1.7v-4.5c0-0.5-0.2-0.8-0.6-0.8c-0.5,0-0.9,0.4-0.9,1.1v4.2h-1.7v-4.5c0-0.5-0.2-0.8-0.6-0.8
			c-0.5,0-0.9,0.4-0.9,1.1v4.2h-1.7v-6.5H527.6z"/>
		<path class="st3" d="M537.1,332.8v-0.2c0-1.5,1-2,2.3-2c2,0,2.3,0.8,2.3,2v3.4c0,0.6,0,0.9,0.2,1.2h-1.6c-0.1-0.2-0.2-0.5-0.2-0.7
			l0,0c-0.4,0.7-0.9,0.8-1.6,0.8c-1.2,0-1.6-1-1.6-1.8c0-1.2,0.5-1.7,1.6-2l0.9-0.3c0.5-0.1,0.7-0.3,0.7-0.8s-0.2-0.8-0.8-0.8
			c-0.5,0-0.8,0.3-0.8,0.8v0.2h-1.4V332.8z M540.2,334.1c-0.2,0.2-0.5,0.3-0.7,0.3c-0.7,0.1-0.9,0.5-0.9,1s0.2,0.9,0.6,0.9
			c0.4,0,1-0.3,1-1L540.2,334.1L540.2,334.1z"/>
		<path class="st3" d="M543.4,330.8h1.6v0.8l0,0c0.3-0.6,0.9-0.9,1.6-0.9c1,0,1.6,0.6,1.6,1.8v4.8h-1.7v-4.4c0-0.6-0.2-0.9-0.7-0.9
			c-0.6,0-0.9,0.3-0.9,1.1v4.3h-1.7v-6.6H543.4z"/>
		<path class="st3" d="M550.2,329h1.7v1.8h1v1.1h-1v3.5c0,0.5,0.1,0.7,0.6,0.7c0.1,0,0.3,0,0.4,0v1.2c-0.4,0-0.7,0.1-1.1,0.1
			c-1.3,0-1.5-0.4-1.5-1.7V332h-0.8v-1.1h0.8V329H550.2z"/>
		<path class="st3" d="M554,328.6h1.7v1.4H554V328.6z M554,330.8h1.7v6.5H554V330.8z"/>
		<path class="st3" d="M557.3,330.8h1.6v0.8l0,0c0.3-0.6,0.9-0.9,1.6-0.9c1,0,1.6,0.6,1.6,1.8v4.8h-1.7v-4.4c0-0.6-0.2-0.9-0.7-0.9
			c-0.6,0-0.9,0.3-0.9,1.1v4.3h-1.7v-6.6H557.3z"/>
		<path class="st3" d="M563.7,332.8v-0.2c0-1.5,1-2,2.3-2c2,0,2.3,0.8,2.3,2v3.4c0,0.6,0,0.9,0.2,1.2H567c-0.1-0.2-0.2-0.5-0.2-0.7
			l0,0c-0.4,0.7-0.9,0.8-1.6,0.8c-1.2,0-1.6-1-1.6-1.8c0-1.2,0.5-1.7,1.6-2l0.9-0.3c0.5-0.1,0.7-0.3,0.7-0.8s-0.2-0.8-0.8-0.8
			c-0.5,0-0.8,0.3-0.8,0.8v0.2h-1.5V332.8z M566.8,334.1c-0.2,0.2-0.5,0.3-0.7,0.3c-0.7,0.1-0.9,0.5-0.9,1s0.2,0.9,0.6,0.9
			c0.4,0,1-0.3,1-1L566.8,334.1L566.8,334.1z"/>
	</g>
	<path class="st4" d="M479.6,393.1c0-2.4,1.9-4.3,4.3-4.3s4.3,1.9,4.3,4.3s-1.9,4.3-4.3,4.3C481.5,397.3,479.6,395.4,479.6,393.1z"
		/>
	<g>
		<path class="st5" d="M340.3,501.3h3.9c1.9,0,3.2,0.7,3.2,2.9c0,1.2-0.6,2.2-1.7,2.5l0,0c1.3,0.2,2.1,1.1,2.1,2.7
			c0,1.8-0.9,3.3-3.6,3.3h-3.9V501.3z M342.6,505.9h0.7c1.3,0,1.8-0.4,1.8-1.5s-0.5-1.5-1.7-1.5h-0.8V505.9z M342.6,511h0.9
			c1.1,0,1.9-0.4,1.9-1.7c0-1.3-0.8-1.7-1.8-1.7h-1V511z"/>
		<path class="st5" d="M352.9,503.8c2.7,0,3.4,1.5,3.4,4.5c0,2.9-0.9,4.5-3.4,4.5c-2.7,0-3.4-1.5-3.4-4.5
			C349.5,505.4,350.4,503.8,352.9,503.8z M352.9,511.4c0.9,0,1.2-0.9,1.2-3s-0.3-3-1.2-3c-1.1,0-1.2,1.3-1.2,3
			S351.8,511.4,352.9,511.4z"/>
		<path class="st5" d="M358.1,504.1h2.1v1l0,0c0.5-0.8,1.3-1.2,2.2-1.2c1.4,0,2.2,0.8,2.2,2.4v6.4h-2.2v-5.9c0-0.9-0.3-1.2-0.9-1.2
			c-0.8,0-1.2,0.5-1.2,1.4v5.7h-2.2V504.1z"/>
		<path class="st5" d="M366.8,501.1h2.2v1.9h-2.2V501.1z M366.8,504.1h2.2v8.6h-2.2V504.1z"/>
		<path class="st5" d="M371.7,501.6h2.2v2.5h1.3v1.5h-1.3v4.7c0,0.7,0.1,0.9,0.8,0.9c0.2,0,0.4,0,0.5,0v1.5c-0.5,0-0.9,0.1-1.4,0.1
			c-1.7,0-2-0.5-2-2.3v-4.9h-1.1v-1.5h1.1v-2.5H371.7z"/>
		<path class="st5" d="M379.7,503.8c2.7,0,3.4,1.5,3.4,4.5c0,2.9-0.9,4.5-3.4,4.5c-2.7,0-3.4-1.5-3.4-4.5
			C376.3,505.4,377.2,503.8,379.7,503.8z M379.7,511.4c0.9,0,1.2-0.9,1.2-3s-0.3-3-1.2-3c-1.1,0-1.2,1.3-1.2,3
			S378.6,511.4,379.7,511.4z"/>
	</g>
	<path class="st4" d="M328.1,383.5c0-2.3,1.9-4.3,4.3-4.3s4.3,1.9,4.3,4.3s-1.9,4.3-4.3,4.3S328.1,385.9,328.1,383.5z"/>
	<g>
		<path class="st3" d="M566.5,541.2h4.3c1.9,0,3,1,3,2.9c0,1.5-0.6,2.5-1.9,2.8l0,0c1.6,0.2,1.8,1.1,1.8,3.5c0,1.2,0.1,1.8,0.5,2
			v0.1h-2.5c-0.2-0.3-0.3-0.8-0.3-1.2l-0.1-2.2c0-0.9-0.4-1.4-1.4-1.4h-1.2v4.8h-2.3v-11.3H566.5z M568.8,546.2h1
			c1.1,0,1.7-0.5,1.7-1.7c0-1.1-0.6-1.6-1.6-1.6h-1.1L568.8,546.2L568.8,546.2z"/>
		<path class="st3" d="M575.8,541h2.2v1.9h-2.2V541z M575.8,544h2.2v8.6h-2.2V544z"/>
		<path class="st3" d="M583.2,543.8c2.7,0,3.4,1.5,3.4,4.5c0,2.9-0.9,4.5-3.4,4.5c-2.7,0-3.4-1.5-3.4-4.5S580.7,543.8,583.2,543.8z
			 M583.2,551.3c0.9,0,1.2-0.9,1.2-3s-0.3-3-1.2-3c-1.1,0-1.2,1.3-1.2,3S582.1,551.3,583.2,551.3z"/>
		<path class="st3" d="M597,551.7L597,551.7c-0.5,0.8-1.1,1.1-2,1.1c-1.8,0-2.6-1.3-2.6-4.5s0.8-4.5,2.6-4.5c0.8,0,1.4,0.3,1.9,1
			l0,0v-3.6h2.2v11.4H597V551.7z M595.7,551.1c1,0,1.2-1,1.2-2.8s-0.2-2.8-1.2-2.8s-1.2,1-1.2,2.8S594.8,551.1,595.7,551.1z"/>
		<path class="st3" d="M602.9,548.6v0.7c0,1,0.3,2,1.1,2c0.7,0,1-0.6,1.2-1.6h2c-0.1,2-1,3.1-3.1,3.1c-3.2,0-3.3-2.5-3.3-4.6
			c0-2.3,0.4-4.5,3.4-4.5c2.6,0,3.2,1.7,3.2,4.4v0.5L602.9,548.6L602.9,548.6z M605.2,547.3c0-1.3-0.2-2-1.1-2
			c-0.9,0-1.1,0.9-1.1,1.7v0.3H605.2z"/>
		<path class="st3" d="M619.2,541.2v8.2c0,2.4-1.1,3.4-3.4,3.4c-2.4,0-3-1.6-3-3.3V549h2.1v0.4c0,1.2,0.2,1.8,1,1.8s1-0.6,1-1.8
			v-8.2H619.2z"/>
		<path class="st3" d="M621.1,546.6v-0.2c0-2,1.4-2.7,3-2.7c2.6,0,3.1,1.1,3.1,2.6v4.5c0,0.8,0,1.2,0.3,1.7h-2.1
			c-0.1-0.3-0.2-0.6-0.3-0.9l0,0c-0.5,0.9-1.1,1.1-2.2,1.1c-1.5,0-2.1-1.3-2.1-2.5c0-1.6,0.7-2.3,2.2-2.7l1.2-0.3
			c0.7-0.2,0.9-0.4,0.9-1c0-0.7-0.3-1.1-1-1.1s-1,0.4-1,1.1v0.2h-2V546.6z M625.2,548.3c-0.3,0.2-0.7,0.4-0.9,0.4
			c-0.9,0.2-1.2,0.6-1.2,1.4c0,0.7,0.2,1.2,0.8,1.2s1.4-0.4,1.4-1.3L625.2,548.3L625.2,548.3z"/>
		<path class="st3" d="M629.3,544h2.1v1l0,0c0.5-0.8,1.3-1.2,2.2-1.2c1.4,0,2.2,0.8,2.2,2.4v6.4h-2.2v-5.9c0-0.9-0.3-1.2-0.9-1.2
			c-0.8,0-1.2,0.5-1.2,1.4v5.7h-2.2L629.3,544L629.3,544z"/>
		<path class="st3" d="M639.7,548.6v0.7c0,1,0.3,2,1.1,2c0.7,0,1-0.6,1.2-1.6h2c-0.1,2-1,3.1-3.1,3.1c-3.2,0-3.3-2.5-3.3-4.6
			c0-2.3,0.4-4.5,3.4-4.5c2.6,0,3.2,1.7,3.2,4.4v0.5L639.7,548.6L639.7,548.6z M641.9,547.3c0-1.3-0.2-2-1.1-2
			c-0.9,0-1.1,0.9-1.1,1.7v0.3H641.9z"/>
		<path class="st3" d="M645.8,541h2.2v1.9h-2.2V541z M645.8,544h2.2v8.6h-2.2V544z"/>
		<path class="st3" d="M650,544h2.1v1.2l0,0c0.4-0.8,1.1-1.4,2-1.4c0.1,0,0.3,0,0.4,0v2.1c-0.2,0-0.5,0-0.7,0
			c-0.8,0-1.6,0.4-1.6,1.6v5.2H650V544z"/>
		<path class="st3" d="M658.9,543.8c2.7,0,3.4,1.5,3.4,4.5c0,2.9-0.9,4.5-3.4,4.5c-2.7,0-3.4-1.5-3.4-4.5S656.4,543.8,658.9,543.8z
			 M658.9,551.3c0.9,0,1.2-0.9,1.2-3s-0.3-3-1.2-3c-1.1,0-1.2,1.3-1.2,3S657.8,551.3,658.9,551.3z"/>
	</g>
	<path class="st6" d="M497,539.9c0-2.4,1.9-4.3,4.3-4.3s4.3,1.9,4.3,4.3s-1.9,4.3-4.3,4.3S497,542.2,497,539.9z"/>
	<path class="st7" d="M339.9,136.6c0,0-5.9-2.4-10.8,1.1c-5,3.5-19.1,7.1-20.5,4.2c-1.4-2.8,0-5-5,0.7s-8.5,8.5-14.9,12
		s-14.2-1.4-21.9-1.4c-7.8,0-10.6-2.8-17,1.4s-10.6,8.5-13.4,9.2c-2.8,0.7-2.8-1.4-7.8,2.8s-6.4,6.4-9.9,2.1
		c-3.5-4.2-6.4-4.2-12-0.7c-5.7,3.5,1.4,4.2-5.7,3.5c-7.1-0.7-27,0.3-33.4-5.4s-7-8.3-17.1-11.9c-7.4-2.6-11.8-5.4-18.2-4.7
		c-6.4,0.7-6.4-1.4-10.6-1.4s-5.7-2.8-8.5,2.1c-2.8,5-2.8,4.2-3.5,8.5c-0.7,4.2-0.7,5-7.8,5c-7.1,0-18.4-4.2-19.1,1.4
		c-0.7,5.7,2.1,8.5-2.1,12.7s-2.1,6.4-7.8,5.7c-5.7-0.7-5.7-0.7-5.7-0.7"/>
	<path class="st7" d="M368.7,551.4c0,0,4.6-8.2,10.5-20.8s15.8-5.6,22.4-12.9c6.6-7.3,8.7-14.6,10.7-20.5s7.9-4.6,11.2-6.6
		c3.3-2,8.9-14,11.2-18c4.2-7.3,10-7.9,15.8-11c9.2-4.8,10.3-1.3,18.9-4c8.6-2.6,4.7-4.5,12-3.2s4.2,1.7,14.4,0.1
		c7-1.1,5.1-1,10,3.8c4,4,4.9,2.6,10.9,2.6"/>
	<path class="st7" d="M701.4,298.8c0,0-3.8-1.6-9.5-5c-8.8-5.3-12.3-18.5-29-20.2c-16.7-1.8-14.1,7.9-26.4,8.8
		c-12.3,0.9-18.5,0.9-18.5,0.9l-22.9,12.3c0,0-18.5,17.6-19.3,26.4c-0.9,8.8-1.8,27.2-5.3,38.7c-3.5,11.4-9.7,22-14.1,30.8
		c-4.4,8.8-11.4,8.8-13.2,21.1c-1.8,12.3,1.8,21.1-1.8,29.9c-3.5,8.8-7.9,18.5-7.9,18.5"/>
	<path class="st7" d="M475.2,118c0,0-8.5,11.7-12.9,22.2s-6.8,15.6-3.2,27c3.5,11.4,9.6,26.3,9.6,26.3"/>
	<path class="st7" d="M339.9,136.6c0,0,7.2,3.1,8.1,11s0.4,6.9-4.9,16.6c-5.3,9.7-2.8,9.2-9.8,16.2s-15.8,30.8-23.7,35.2
		c-7.9,4.4-14.9,6.2-14.9,14.1c0,7.9,5.3,6.2,0.9,12.3c-4.4,6.2-7,14.9-7.9,22.9c-0.9,7.9,0,12.3,2.6,15.8s5.3,0,2.6,9.7
		c-2.6,9.7-5.3,11.4,1.8,22c7,10.5,25.5,41.3,25.5,41.3"/>
	<path class="st7" d="M250.5,154.1c0,0-20.9-15.9-30.6-23c-9.7-7-18.5-6.2-25.5-7c-7-0.9-7-6.2-13.2-9.7s-2.6-5.3-14.9-3.5
		c-12.3,1.8-19.3-0.9-32.5-2.6c-13.2-1.8-18.5-0.9-18.5-13.2s2.6-22.9,0-27.2c-2.6-4.4-5.1-3.4-5.1-3.4"/>
	<path class="st8" d="M435,471c0,0-2.6,6.3-7.3,8.9c-4.6,2.6-7.3,3.6-8.2,4.9c-1,1.3-1,2-2,4.9c-1,3-1.6,3-1,3
		c4.1-0.2,13.8-0.3,14.5-3c0.7-2.6,3.6-9.2,3.6-12.2C434.7,474.6,435,471,435,471z"/>
	<path class="st8" d="M471.6,450.6c-2,1.3-2.6,4-4,5.3c-1.3,1.3-3,2.3-3,2.3s3.6,3,10.5,3s15.5-2.3,18.5-3.6c3-1.3,4.3-3.6,4.3-3.6
		s-4.3,0.7-12.5-1.3S471.6,450.6,471.6,450.6z"/>
	<path class="st8" d="M382.5,525.3c0,0-0.1,1.6-1.1,4.5c-1,3-0.5,4.4-1.1,8.4c-0.7,4,1.3,4.3-0.7,9.2s-1.3,4.9-4.6,5.3
		c0,0-7.6-0.3-7-2.9c1.5-6.3,4-8,7.3-12.6C378.6,532.6,382.5,525.3,382.5,525.3z"/>
	<g>
		<path class="st8" d="M458.1,163.7c0,0,0.8,3.1,1.2,5.7c0.6,3.8-4.2,7.5-1.8,12.1c2.4,4.6,4.4,13.8,8.8,16.7s9,4.4,9.4,2.6
			c0.4-1.8,0.9-4-1.1-4.8c-2-0.9-4.4-0.2-3.3-2.6c1.1-2.4,0.7-4.6,0-7.2c-0.7-2.6-4.6-7.9-5.1-10.5c-0.4-2.6,1.1-3.1-1.3-5.1
			s-7.2-7.9-7.2-7.9"/>
		<path class="st8" d="M632.7,282.6c0,0-7.5-5.4-10.8-8.1c-3.3-2.6-8.2-5.3-9.9-2c-1.6,3.3,2,5.6,1,7.9s-4,3-5.9,2s-4-1.6-6.9-1.3
			c-3,0.3-4.6,1.3-5.9,4c-1.3,2.6-0.3,4.6-1.6,5.6s-3.6,2.3-5.3,1c-1.6-1.3-3-2-3.3-0.3s1,4.3,1.6,7.3c0.7,3-6.3,14.5-6.3,14.5
			l-3.5,8.8c0,0,4.5-6.8,8.8-9.1c4.3-2.3,8.9-7.3,9.9-5.6c1,1.6,2.3,3,3.6,1.3c1.3-1.6,3.6-8.2,3.6-11.2s0-4.9,2.6-5.3
			c2.6-0.3,5.9-3.3,9.2-2s5.3,3.6,6.3,2s-1-4.3,2.6-5.3C626.2,285.8,632.7,282.6,632.7,282.6z"/>
	</g>
	<g>
		<path d="M349.4,310.5h5.4c2.2,0,3.6,0.7,3.6,2.8c0,1.1-0.6,1.9-1.6,2.4c1.4,0.4,2.1,1.5,2.1,2.9c0,2.3-2,3.3-4,3.3h-5.5V310.5z
			 M351.9,315.1h2.5c0.9,0,1.5-0.4,1.5-1.4c0-1.1-0.8-1.3-1.7-1.3h-2.4v2.7H351.9z M351.9,320h2.7c1,0,1.9-0.3,1.9-1.5
			s-0.7-1.6-1.8-1.6H352v3.1H351.9z"/>
		<path d="M363.9,310.5h6.2c2,0,3.3,1.4,3.3,3.2c0,1.3-0.5,2.4-1.8,2.9l0,0c1.2,0.3,1.6,1.5,1.7,2.7c0,0.7,0,2.1,0.5,2.7h-2.5
			c-0.3-0.7-0.3-1.8-0.4-2.7c-0.2-1.2-0.6-1.7-1.9-1.7h-2.5v4.5H364v-11.6H363.9z M366.4,315.6h2.8c1.1,0,1.7-0.5,1.7-1.6
			s-0.6-1.6-1.7-1.6h-2.8V315.6z"/>
		<path d="M381.8,310.5h2.6l4.3,11.4H386l-0.9-2.5h-4.3l-0.9,2.5h-2.5L381.8,310.5z M381.5,317.5h3l-1.4-4.2l0,0L381.5,317.5z"/>
		<path d="M394.5,318.1c0,1.5,1.2,2.1,2.5,2.1c0.9,0,2.2-0.3,2.2-1.4c0-1.2-1.7-1.4-3.4-1.9c-1.7-0.4-3.4-1.1-3.4-3.2
			c0-2.3,2.2-3.5,4.3-3.5c2.4,0,4.6,1,4.6,3.7h-2.4c-0.1-1.4-1.1-1.7-2.3-1.7c-0.8,0-1.7,0.3-1.7,1.3c0,0.9,0.5,1,3.4,1.7
			c0.8,0.2,3.4,0.7,3.4,3.3c0,2.1-1.6,3.7-4.8,3.7c-2.5,0-4.9-1.2-4.9-4.1H394.5z"/>
		<path d="M406.4,310.5h2.5v11.4h-2.5V310.5z"/>
		<path d="M414.3,310.5h2.5v9.3h5.6v2.1h-8.1V310.5z"/>
		<path d="M427,310.5h2.5v11.4H427V310.5z"/>
		<path d="M434.9,310.5h8.5v2.1h-6v2.4h5.5v2h-5.5v2.8h6.2v2.1h-8.7V310.5z"/>
		<path d="M448.5,310.5h2.5l4.8,7.7l0,0v-7.7h2.4v11.4h-2.5l-4.8-7.7l0,0v7.7h-2.4V310.5z"/>
	</g>
	<g>
		<path class="st2" d="M650.6,248.2h3.2c1.4,0,2.3,0.7,2.3,2.2c0,1.1-0.5,1.9-1.4,2.1l0,0c1.2,0.2,1.4,0.8,1.4,2.6
			c0,0.9,0.1,1.4,0.4,1.5v0.1h-1.9c-0.2-0.2-0.2-0.6-0.2-0.9v-1.6c0-0.7-0.3-1.1-1-1.1h-0.9v3.6h-1.7v-8.5H650.6z M652.4,252h0.7
			c0.8,0,1.3-0.4,1.3-1.3c0-0.8-0.4-1.2-1.2-1.2h-0.8V252z"/>
		<path class="st2" d="M657.8,248.1h1.7v1.4h-1.7V248.1z M657.8,250.3h1.7v6.5h-1.7V250.3z"/>
		<path class="st2" d="M663.4,250.2c2,0,2.5,1.2,2.5,3.4s-0.6,3.4-2.5,3.4c-2,0-2.5-1.2-2.5-3.4
			C660.9,251.3,661.5,250.2,663.4,250.2z M663.4,255.8c0.7,0,0.9-0.7,0.9-2.3s-0.2-2.3-0.9-2.3c-0.8,0-0.9,0.9-0.9,2.3
			S662.6,255.8,663.4,255.8z"/>
		<path class="st2" d="M672.1,254.1v0.3c0,0.8,0.2,1.3,1.1,1.3c0.5,0,1-0.3,1-1.1s-0.4-1.1-1.5-1.5c-1.5-0.5-2.2-1.2-2.2-2.6
			c0-1.7,1-2.5,2.7-2.5c1.5,0,2.7,0.7,2.7,2.3v0.2h-1.7c0-0.8-0.3-1.3-0.9-1.3c-0.8,0-1,0.5-1,1s0.2,0.9,0.9,1.2l1.3,0.6
			c1.3,0.6,1.6,1.2,1.6,2.3c0,1.8-1.1,2.6-3,2.6c-2,0-2.7-0.9-2.7-2.5v-0.3L672.1,254.1L672.1,254.1z"/>
		<path class="st2" d="M677.4,252.3v-0.2c0-1.5,1-2,2.3-2c2,0,2.3,0.8,2.3,2v3.4c0,0.6,0,0.9,0.2,1.2h-1.6c-0.1-0.2-0.2-0.5-0.2-0.7
			l0,0c-0.4,0.7-0.9,0.8-1.6,0.8c-1.2,0-1.6-1-1.6-1.8c0-1.2,0.5-1.7,1.6-2l0.9-0.3c0.5-0.1,0.7-0.3,0.7-0.8s-0.2-0.8-0.8-0.8
			c-0.5,0-0.8,0.3-0.8,0.8v0.2h-1.4V252.3z M677.9,249.5c0.1-0.9,0.5-1.5,1.1-1.5c0.2,0,0.4,0,0.5,0.1l0.6,0.3
			c0.1,0,0.2,0.1,0.4,0.1s0.3-0.3,0.3-0.4h0.9c-0.1,0.9-0.5,1.5-1.1,1.5c-0.5,0-1-0.4-1.4-0.4c-0.2,0-0.3,0.1-0.4,0.4h-0.9V249.5z
			 M680.4,253.6c-0.2,0.2-0.5,0.3-0.7,0.3c-0.7,0.1-0.9,0.5-0.9,1s0.2,0.9,0.6,0.9c0.4,0,1-0.3,1-1L680.4,253.6L680.4,253.6z"/>
		<path class="st2" d="M686,250.2c2,0,2.5,1.2,2.5,3.4s-0.6,3.4-2.5,3.4c-2,0-2.5-1.2-2.5-3.4C683.5,251.3,684.1,250.2,686,250.2z
			 M686,255.8c0.7,0,0.9-0.7,0.9-2.3s-0.2-2.3-0.9-2.3c-0.8,0-0.9,0.9-0.9,2.3S685.2,255.8,686,255.8z"/>
		<path class="st2" d="M650.6,260.2h4.8v1.4h-3.1v2h2.9v1.4h-2.9v3.7h-1.7V260.2z"/>
		<path class="st2" d="M656.6,262.3h1.6v0.9l0,0c0.3-0.6,0.8-1,1.5-1c0.1,0,0.2,0,0.3,0v1.6c-0.2,0-0.3,0-0.5,0
			c-0.6,0-1.2,0.3-1.2,1.2v3.9h-1.7L656.6,262.3L656.6,262.3z"/>
		<path class="st2" d="M661.1,264.3v-0.2c0-1.5,1-2,2.3-2c2,0,2.3,0.8,2.3,2v3.4c0,0.6,0,0.9,0.2,1.2h-1.6c-0.1-0.2-0.2-0.5-0.2-0.7
			l0,0c-0.4,0.7-0.9,0.8-1.6,0.8c-1.2,0-1.6-1-1.6-1.8c0-1.2,0.5-1.7,1.6-2l0.9-0.3c0.5-0.1,0.7-0.3,0.7-0.8s-0.2-0.8-0.8-0.8
			c-0.5,0-0.8,0.3-0.8,0.8v0.2h-1.4V264.3z M664.1,265.6c-0.2,0.2-0.5,0.3-0.7,0.3c-0.7,0.1-0.9,0.5-0.9,1s0.2,0.9,0.6,0.9
			c0.4,0,1-0.3,1-1L664.1,265.6L664.1,265.6z"/>
		<path class="st2" d="M667.4,262.3h1.6v0.8l0,0c0.3-0.6,0.9-0.9,1.6-0.9c1,0,1.6,0.6,1.6,1.8v4.8h-1.7v-4.4c0-0.6-0.2-0.9-0.7-0.9
			c-0.6,0-0.9,0.3-0.9,1.1v4.3h-1.7v-6.6H667.4z"/>
		<path class="st2" d="M676.9,264.7c0-0.6-0.1-1.3-0.7-1.3c-0.8,0-0.9,0.7-0.9,2.2c0,1.6,0.1,2.3,0.9,2.3c0.6,0,0.8-0.5,0.8-1.5h1.6
			c0,1.7-0.7,2.6-2.5,2.6c-1.7,0-2.5-0.8-2.5-3.4c0-2.7,1.1-3.4,2.6-3.4s2.3,1,2.3,2.5L676.9,264.7L676.9,264.7z"/>
		<path class="st2" d="M679.9,260.1h1.7v1.4h-1.7V260.1z M679.9,262.3h1.7v6.5h-1.7V262.3z"/>
		<path class="st2" d="M684.4,266.7v0.2c0,0.6,0.3,0.9,0.9,0.9c0.5,0,0.8-0.3,0.8-0.8c0-0.4-0.3-0.6-0.6-0.7l-1.2-0.4
			c-0.9-0.3-1.4-0.9-1.4-1.8c0-1.1,0.7-1.9,2.4-1.9c1.5,0,2.2,0.7,2.2,1.8v0.3H686c0-0.6-0.2-1-0.7-1c-0.4,0-0.8,0.2-0.8,0.7
			c0,0.3,0.2,0.6,0.7,0.8l1,0.3c1,0.3,1.4,0.9,1.4,1.8c0,1.4-1,2-2.4,2c-1.9,0-2.4-0.8-2.4-2.1v-0.2h1.6V266.7z"/>
		<path class="st2" d="M692.1,264.7c0-0.6-0.1-1.3-0.7-1.3c-0.8,0-0.9,0.7-0.9,2.2c0,1.6,0.1,2.3,0.9,2.3c0.6,0,0.8-0.5,0.8-1.5h1.6
			c0,1.7-0.7,2.6-2.5,2.6c-1.7,0-2.5-0.8-2.5-3.4c0-2.7,1.1-3.4,2.6-3.4s2.3,1,2.3,2.5L692.1,264.7L692.1,264.7z"/>
		<path class="st2" d="M697.4,262.2c2,0,2.5,1.2,2.5,3.4c0,2.2-0.6,3.4-2.5,3.4c-2,0-2.5-1.2-2.5-3.4
			C694.9,263.3,695.5,262.2,697.4,262.2z M697.4,267.8c0.7,0,0.9-0.7,0.9-2.3c0-1.6-0.2-2.3-0.9-2.3c-0.8,0-0.9,0.9-0.9,2.3
			S696.6,267.8,697.4,267.8z"/>
	</g>
	<g>
		<path class="st2" d="M451.9,467.8h3.2c1.4,0,2.3,0.7,2.3,2.2c0,1.1-0.5,1.9-1.4,2.1l0,0c1.2,0.2,1.4,0.8,1.4,2.6
			c0,0.9,0.1,1.4,0.4,1.5v0.1h-1.9c-0.2-0.2-0.2-0.6-0.2-0.9v-1.6c0-0.7-0.3-1.1-1-1.1h-0.9v3.6h-1.7v-8.5H451.9z M453.6,471.5h0.7
			c0.8,0,1.3-0.4,1.3-1.3c0-0.8-0.4-1.2-1.2-1.2h-0.8V471.5z"/>
		<path class="st2" d="M459,467.7h1.7v1.4H459V467.7z M459,469.9h1.7v6.5H459V469.9z"/>
		<path class="st2" d="M464.6,469.7c2,0,2.5,1.2,2.5,3.4c0,2.2-0.6,3.4-2.5,3.4c-2,0-2.5-1.2-2.5-3.4
			C462.1,470.9,462.7,469.7,464.6,469.7z M464.6,475.4c0.7,0,0.9-0.7,0.9-2.3s-0.2-2.3-0.9-2.3c-0.8,0-0.9,0.9-0.9,2.3
			S463.8,475.4,464.6,475.4z"/>
		<path class="st2" d="M451.9,479.8h3c1.8,0,2.4,1.3,2.4,2.6c0,1.8-1.1,2.6-2.7,2.6h-0.9v3.4H452L451.9,479.8L451.9,479.8z
			 M453.6,483.6h0.8c0.7,0,1.2-0.4,1.2-1.3c0-0.8-0.3-1.3-1.2-1.3h-0.7L453.6,483.6L453.6,483.6z"/>
		<path class="st2" d="M458.5,483.8v-0.2c0-1.5,1-2,2.3-2c2,0,2.3,0.8,2.3,2v3.4c0,0.6,0,0.9,0.2,1.2h-1.6c-0.1-0.2-0.2-0.5-0.2-0.7
			l0,0c-0.4,0.7-0.9,0.8-1.6,0.8c-1.2,0-1.6-1-1.6-1.8c0-1.2,0.5-1.7,1.6-2l0.9-0.3c0.5-0.1,0.7-0.3,0.7-0.8s-0.2-0.8-0.8-0.8
			c-0.5,0-0.8,0.3-0.8,0.8v0.2h-1.4V483.8z M461.5,485.1c-0.2,0.2-0.5,0.3-0.7,0.3c-0.7,0.1-0.9,0.5-0.9,1s0.2,0.9,0.6,0.9
			s1-0.3,1-1V485.1z"/>
		<path class="st2" d="M464.8,481.9h1.6v0.9l0,0c0.3-0.6,0.8-1,1.5-1c0.1,0,0.2,0,0.3,0v1.6c-0.2,0-0.3,0-0.5,0
			c-0.6,0-1.2,0.3-1.2,1.2v3.9h-1.7L464.8,481.9L464.8,481.9z"/>
		<path class="st2" d="M469.2,483.8v-0.2c0-1.5,1-2,2.3-2c2,0,2.3,0.8,2.3,2v3.4c0,0.6,0,0.9,0.2,1.2h-1.6c-0.1-0.2-0.2-0.5-0.2-0.7
			l0,0c-0.4,0.7-0.9,0.8-1.6,0.8c-1.2,0-1.6-1-1.6-1.8c0-1.2,0.5-1.7,1.6-2l0.9-0.3c0.5-0.1,0.7-0.3,0.7-0.8s-0.2-0.8-0.8-0.8
			c-0.5,0-0.8,0.3-0.8,0.8v0.2h-1.4V483.8z M472.2,485.1c-0.2,0.2-0.5,0.3-0.7,0.3c-0.7,0.1-0.9,0.5-0.9,1s0.2,0.9,0.6,0.9
			s1-0.3,1-1V485.1z"/>
		<path class="st2" d="M475.5,481.9h1.6v0.8l0,0c0.3-0.6,0.9-0.9,1.6-0.9c1,0,1.6,0.6,1.6,1.8v4.8h-1.7v-4.5c0-0.6-0.2-0.9-0.7-0.9
			c-0.6,0-0.9,0.3-0.9,1.1v4.3h-1.7v-6.5H475.5z"/>
		<path class="st2" d="M482,483.8v-0.2c0-1.5,1-2,2.3-2c2,0,2.3,0.8,2.3,2v3.4c0,0.6,0,0.9,0.2,1.2h-1.6c-0.1-0.2-0.2-0.5-0.2-0.7
			l0,0c-0.4,0.7-0.9,0.8-1.6,0.8c-1.2,0-1.6-1-1.6-1.8c0-1.2,0.5-1.7,1.6-2l0.9-0.3c0.5-0.1,0.7-0.3,0.7-0.8s-0.2-0.8-0.8-0.8
			c-0.5,0-0.8,0.3-0.8,0.8v0.2H482V483.8z M485,485.1c-0.2,0.2-0.5,0.3-0.7,0.3c-0.7,0.1-0.9,0.5-0.9,1s0.2,0.9,0.6,0.9s1-0.3,1-1
			V485.1z M484.2,479.4h1.7l-1.2,1.7h-1.1L484.2,479.4z"/>
	</g>
	<g>
		<path class="st2" d="M342.6,112.2h2.1l2.3,8.6h-1.8l-0.4-1.8h-2.3l-0.4,1.8h-1.8L342.6,112.2z M342.9,117.5h1.7l-0.8-3.9l0,0
			L342.9,117.5z"/>
		<path class="st2" d="M348.1,114.3h1.6v0.7l0,0c0.4-0.6,0.9-0.8,1.6-0.8c0.8,0,1.3,0.4,1.5,1l0,0c0.3-0.7,0.9-1,1.6-1
			c1.1,0,1.6,0.7,1.6,1.9v4.7h-1.7v-4.5c0-0.5-0.2-0.8-0.6-0.8c-0.5,0-0.9,0.4-0.9,1.1v4.2h-1.7v-4.5c0-0.5-0.2-0.8-0.6-0.8
			c-0.5,0-0.9,0.4-0.9,1.1v4.2h-1.7v-6.5H348.1z"/>
		<path class="st2" d="M357.6,116.3v-0.2c0-1.5,1-2,2.3-2c2,0,2.3,0.8,2.3,2v3.4c0,0.6,0,0.9,0.2,1.2h-1.6c-0.1-0.2-0.2-0.5-0.2-0.7
			l0,0c-0.4,0.7-0.9,0.8-1.6,0.8c-1.2,0-1.6-1-1.6-1.8c0-1.2,0.5-1.7,1.6-2l0.9-0.3c0.5-0.1,0.7-0.3,0.7-0.8s-0.2-0.8-0.8-0.8
			c-0.5,0-0.8,0.3-0.8,0.8v0.2h-1.4V116.3z M360.7,117.5c-0.2,0.2-0.5,0.3-0.7,0.3c-0.7,0.1-0.9,0.5-0.9,1s0.2,0.9,0.6,0.9
			s1-0.3,1-1V117.5z"/>
		<path class="st2" d="M363.6,119.5l2.6-3.8h-2.5v-1.3h4.4v1.3l-2.6,3.8h2.6v1.3h-4.5V119.5z"/>
		<path class="st2" d="M371.8,114.1c2,0,2.5,1.2,2.5,3.4c0,2.2-0.6,3.4-2.5,3.4c-2,0-2.5-1.2-2.5-3.4
			C369.3,115.3,369.9,114.1,371.8,114.1z M371.8,119.8c0.7,0,0.9-0.7,0.9-2.3c0-1.6-0.2-2.3-0.9-2.3c-0.8,0-0.9,0.9-0.9,2.3
			S371,119.8,371.8,119.8z"/>
		<path class="st2" d="M375.7,114.3h1.6v0.8l0,0c0.3-0.6,0.9-0.9,1.6-0.9c1,0,1.6,0.6,1.6,1.8v4.8H379v-4.4c0-0.6-0.2-0.9-0.7-0.9
			c-0.6,0-0.9,0.3-0.9,1.1v4.3h-1.7L375.7,114.3L375.7,114.3z"/>
		<path class="st2" d="M382.2,116.3v-0.2c0-1.5,1-2,2.3-2c2,0,2.3,0.8,2.3,2v3.4c0,0.6,0,0.9,0.2,1.2h-1.6c-0.1-0.2-0.2-0.5-0.2-0.7
			l0,0c-0.4,0.7-0.9,0.8-1.6,0.8c-1.2,0-1.6-1-1.6-1.8c0-1.2,0.5-1.7,1.6-2l0.9-0.3c0.5-0.1,0.7-0.3,0.7-0.8s-0.2-0.8-0.8-0.8
			c-0.5,0-0.8,0.3-0.8,0.8v0.2h-1.4V116.3z M385.2,117.5c-0.2,0.2-0.5,0.3-0.7,0.3c-0.7,0.1-0.9,0.5-0.9,1s0.2,0.9,0.6,0.9
			s1-0.3,1-1V117.5z"/>
		<path class="st2" d="M389.7,118.6v0.2c0,0.6,0.3,0.9,0.9,0.9c0.5,0,0.8-0.3,0.8-0.8c0-0.4-0.3-0.6-0.6-0.7l-1.2-0.4
			c-0.9-0.3-1.4-0.9-1.4-1.8c0-1.1,0.7-1.9,2.4-1.9c1.5,0,2.2,0.7,2.2,1.8v0.3h-1.5c0-0.6-0.2-1-0.7-1c-0.4,0-0.8,0.2-0.8,0.7
			c0,0.3,0.2,0.6,0.7,0.8l1,0.3c1,0.3,1.4,0.9,1.4,1.8c0,1.4-1,2-2.4,2c-1.9,0-2.4-0.8-2.4-2.1v-0.2L389.7,118.6L389.7,118.6z"/>
	</g>
	<g>
		<path class="st2" d="M468.9,137.5h3.2c1.4,0,2.3,0.7,2.3,2.2c0,1.1-0.5,1.9-1.4,2.1l0,0c1.2,0.2,1.4,0.8,1.4,2.6
			c0,0.9,0.1,1.4,0.4,1.5v0.1h-1.9c-0.2-0.2-0.2-0.6-0.2-0.9v-1.6c0-0.7-0.3-1.1-1-1.1h-0.9v3.6h-1.7v-8.5H468.9z M470.6,141.3h0.7
			c0.8,0,1.3-0.4,1.3-1.3c0-0.8-0.4-1.2-1.2-1.2h-0.8V141.3z"/>
		<path class="st2" d="M476.1,137.4h1.7v1.4h-1.7V137.4z M476.1,139.6h1.7v6.5h-1.7V139.6z"/>
		<path class="st2" d="M481.7,139.5c2,0,2.5,1.2,2.5,3.4s-0.6,3.4-2.5,3.4c-2,0-2.5-1.2-2.5-3.4
			C479.1,140.7,479.8,139.5,481.7,139.5z M481.7,145.1c0.7,0,0.9-0.7,0.9-2.3s-0.2-2.3-0.9-2.3c-0.8,0-0.9,0.9-0.9,2.3
			S480.9,145.1,481.7,145.1z"/>
		<path class="st2" d="M473.9,149.5v1.4H472v7.1h-1.7v-7.1h-1.9v-1.4H473.9z"/>
		<path class="st2" d="M477.4,151.5c2,0,2.5,1.2,2.5,3.4s-0.6,3.4-2.5,3.4c-2,0-2.5-1.2-2.5-3.4S475.5,151.5,477.4,151.5z
			 M477.4,157.1c0.7,0,0.9-0.7,0.9-2.3s-0.2-2.3-0.9-2.3c-0.8,0-0.9,0.9-0.9,2.3S476.6,157.1,477.4,157.1z"/>
		<path class="st2" d="M484.4,154c0-0.6-0.1-1.3-0.7-1.3c-0.8,0-0.9,0.7-0.9,2.2c0,1.6,0.1,2.3,0.9,2.3c0.6,0,0.8-0.5,0.8-1.5h1.6
			c0,1.7-0.7,2.6-2.5,2.6c-1.7,0-2.5-0.8-2.5-3.4c0-2.7,1.1-3.4,2.6-3.4s2.3,1,2.3,2.5L484.4,154L484.4,154z"/>
		<path class="st2" d="M487.4,153.6v-0.2c0-1.5,1-2,2.3-2c2,0,2.3,0.8,2.3,2v3.4c0,0.6,0,0.9,0.2,1.2h-1.6c-0.1-0.2-0.2-0.5-0.2-0.7
			l0,0c-0.4,0.7-0.9,0.8-1.6,0.8c-1.2,0-1.6-1-1.6-1.8c0-1.2,0.5-1.7,1.6-2l0.9-0.3c0.5-0.1,0.7-0.3,0.7-0.8s-0.2-0.8-0.8-0.8
			c-0.5,0-0.8,0.3-0.8,0.8v0.2h-1.4V153.6z M490.4,154.9c-0.2,0.2-0.5,0.3-0.7,0.3c-0.7,0.1-0.9,0.5-0.9,1s0.2,0.9,0.6,0.9
			s1-0.3,1-1V154.9z"/>
		<path class="st2" d="M493.6,151.6h1.6v0.8l0,0c0.3-0.6,0.9-0.9,1.6-0.9c1,0,1.6,0.6,1.6,1.8v4.8h-1.7v-4.4c0-0.6-0.2-0.9-0.7-0.9
			c-0.6,0-0.9,0.3-0.9,1.1v4.3h-1.7v-6.6H493.6z"/>
		<path class="st2" d="M500.5,149.8h1.7v1.8h1v1.1h-1v3.5c0,0.5,0.1,0.7,0.6,0.7c0.1,0,0.3,0,0.4,0v1.2c-0.4,0-0.7,0.1-1.1,0.1
			c-1.3,0-1.5-0.4-1.5-1.7v-3.7h-0.8v-1.1h0.8v-1.9H500.5z"/>
		<path class="st2" d="M504.2,149.4h1.7v1.4h-1.7V149.4z M504.2,151.6h1.7v6.5h-1.7V151.6z"/>
		<path class="st2" d="M507.5,151.6h1.6v0.8l0,0c0.3-0.6,0.9-0.9,1.6-0.9c1,0,1.6,0.6,1.6,1.8v4.8h-1.7v-4.4c0-0.6-0.2-0.9-0.7-0.9
			c-0.6,0-0.9,0.3-0.9,1.1v4.3h-1.7v-6.6H507.5z"/>
		<path class="st2" d="M515.2,156v0.2c0,0.6,0.3,0.9,0.9,0.9c0.5,0,0.8-0.3,0.8-0.8c0-0.4-0.3-0.6-0.6-0.7l-1.2-0.4
			c-0.9-0.3-1.4-0.9-1.4-1.8c0-1.1,0.7-1.9,2.4-1.9c1.5,0,2.2,0.7,2.2,1.8v0.3h-1.5c0-0.6-0.2-1-0.7-1c-0.4,0-0.8,0.2-0.8,0.7
			c0,0.3,0.2,0.6,0.7,0.8l1,0.3c1,0.3,1.4,0.9,1.4,1.8c0,1.4-1,2-2.4,2c-1.9,0-2.4-0.8-2.4-2.1V156H515.2z"/>
	</g>
	<path class="st7" d="M337.7,136c0,0,17-3.4,34.1-5.8c17.2-2.4,25.1-3.7,41.2-9s18-5.5,18-5.5c-4.4,6.3-23.9,21.6-19.6,30.4
		c4.4,8.8,13.2,14.1,4.4,17.6c-8.8,3.5-17.6-5.3-17.6,10.5s7.9,35.2,7.9,44.8c0,9.7-2.6,8.8-3.5,19.3s-3.5,20.2,2.6,24.6
		c6.2,4.4,6.2,14.1,6.2,14.1"/>
	<line class="st9" x1="334.1" y1="495.8" x2="365.3" y2="480.6"/>
	<path class="st10" d="M938.5,322.2c-276.2,19.9-377.6,210.3-377.6,210.3l-195.7-51.9c0,0,143.9-24.7,297-138.5
		c0,0-20.4-114.6-96.7-196"/>
	<g>
		<path class="st5" d="M426,372.1h3.9c1.9,0,3.2,0.7,3.2,2.9c0,1.2-0.6,2.2-1.7,2.5l0,0c1.3,0.2,2.1,1.1,2.1,2.7
			c0,1.8-0.9,3.3-3.6,3.3H426V372.1z M428.4,376.8h0.7c1.3,0,1.8-0.4,1.8-1.5s-0.5-1.5-1.7-1.5h-0.8V376.8z M428.4,381.8h0.9
			c1.1,0,1.9-0.4,1.9-1.7s-0.8-1.7-1.8-1.7h-1V381.8z"/>
		<path class="st5" d="M435.5,374.9h2.1v1.2l0,0c0.4-0.8,1.1-1.4,2-1.4c0.1,0,0.3,0,0.4,0v2.1c-0.2,0-0.5,0-0.7,0
			c-0.8,0-1.6,0.4-1.6,1.6v5.2h-2.2L435.5,374.9L435.5,374.9z"/>
		<path class="st5" d="M441.5,377.6v-0.2c0-2,1.4-2.7,3-2.7c2.6,0,3.1,1.1,3.1,2.6v4.5c0,0.8,0,1.2,0.3,1.7h-2.1
			c-0.1-0.3-0.2-0.6-0.3-0.9l0,0c-0.5,0.9-1.1,1.1-2.2,1.1c-1.5,0-2.1-1.3-2.1-2.5c0-1.6,0.7-2.3,2.2-2.7l1.2-0.3
			c0.7-0.2,0.9-0.4,0.9-1c0-0.7-0.3-1.1-1-1.1s-1,0.4-1,1.1v0.2h-2V377.6z M445.5,379.2c-0.3,0.2-0.7,0.4-0.9,0.4
			c-0.9,0.2-1.2,0.6-1.2,1.4c0,0.7,0.2,1.2,0.8,1.2c0.6,0,1.4-0.4,1.4-1.3L445.5,379.2L445.5,379.2z"/>
		<path class="st5" d="M451.4,380.7v0.3c0,0.8,0.4,1.2,1.2,1.2c0.7,0,1.1-0.3,1.1-1c0-0.6-0.4-0.8-0.8-1l-1.6-0.6
			c-1.2-0.4-1.8-1.2-1.8-2.4c0-1.4,0.9-2.6,3.2-2.6c2,0,2.9,0.9,2.9,2.4v0.4h-2c0-0.9-0.3-1.3-1-1.3c-0.6,0-1,0.3-1,0.9
			c0,0.4,0.2,0.8,1,1l1.3,0.4c1.4,0.5,1.9,1.2,1.9,2.5c0,1.8-1.3,2.7-3.2,2.7c-2.5,0-3.2-1.1-3.2-2.7v-0.3h2V380.7z"/>
		<path class="st5" d="M457.6,372h2.2v1.9h-2.2V372z M457.6,374.9h2.2v8.6h-2.2V374.9z"/>
		<path class="st5" d="M462.1,372.1h2.2v11.4h-2.2V372.1z"/>
		<path class="st5" d="M466.6,372h2.2v1.9h-2.2V372z M466.6,374.9h2.2v8.6h-2.2V374.9z"/>
		<path class="st5" d="M471,377.6v-0.2c0-2,1.4-2.7,3-2.7c2.6,0,3.1,1.1,3.1,2.6v4.5c0,0.8,0,1.2,0.3,1.7h-2.1
			c-0.1-0.3-0.2-0.6-0.3-0.9l0,0c-0.5,0.9-1.1,1.1-2.2,1.1c-1.5,0-2.1-1.3-2.1-2.5c0-1.6,0.7-2.3,2.2-2.7l1.2-0.3
			c0.7-0.2,0.9-0.4,0.9-1c0-0.7-0.3-1.1-1-1.1s-1,0.4-1,1.1v0.2h-2V377.6z M475,379.2c-0.3,0.2-0.7,0.4-0.9,0.4
			c-0.9,0.2-1.2,0.6-1.2,1.4c0,0.7,0.2,1.2,0.8,1.2c0.6,0,1.4-0.4,1.4-1.3L475,379.2L475,379.2z"/>
	</g>
	<g>
		<path class="st5" d="M583.8,353.5v-11.4h2.3v9.5h4.1v1.9H583.8z"/>
		<path class="st5" d="M593.7,349.6v0.7c0,1,0.3,2,1.1,2c0.7,0,1-0.6,1.2-1.6h2c-0.1,2-1,3.1-3.1,3.1c-3.2,0-3.3-2.5-3.3-4.6
			c0-2.3,0.4-4.4,3.4-4.4c2.6,0,3.2,1.7,3.2,4.4v0.5h-4.5V349.6z M595.9,348.3c0-1.3-0.2-2-1.1-2c-0.9,0-1.1,0.9-1.1,1.7v0.3H595.9z
			"/>
		<path class="st5" d="M599.8,344.9h2.1v1l0,0c0.5-0.8,1.3-1.2,2.2-1.2c1.4,0,2.2,0.8,2.2,2.4v6.4h-2.2v-5.9c0-0.9-0.3-1.2-0.9-1.2
			c-0.8,0-1.2,0.5-1.2,1.4v5.7h-2.2L599.8,344.9L599.8,344.9z"/>
		<path class="st5" d="M611.2,353.8c-2.1-0.1-3.1-1.2-3.1-4.5c0-3.5,1.5-4.5,3.5-4.5s3.1,1.3,3.1,3.3h-2.1c0-0.8-0.2-1.7-1-1.7
			c-1.1,0-1.3,1-1.3,2.9c0,2.1,0.2,3,1.2,3c0.7,0,1.1-0.6,1.1-2h2.1c0,2-0.8,3.3-2.6,3.5l-0.5,0.8c0.2,0,0.3-0.1,0.5-0.1
			c0.6,0,1.3,0.4,1.3,1.2c0,0.9-0.7,1.5-2,1.5c-0.7,0-1.3-0.2-1.6-0.3l0.3-0.7c0.2,0.1,0.7,0.2,1.1,0.2c0.4,0,0.8-0.2,0.8-0.5
			s-0.3-0.5-0.7-0.5c-0.2,0-0.4,0-0.5,0.1l-0.4-0.3L611.2,353.8z"/>
		<path class="st5" d="M619.6,344.7c2.7,0,3.4,1.5,3.4,4.5c0,2.9-0.9,4.5-3.4,4.5c-2.7,0-3.4-1.5-3.4-4.5
			C616.2,346.3,617.1,344.7,619.6,344.7z M619.6,352.3c0.9,0,1.2-0.9,1.2-3s-0.3-3-1.2-3c-1.1,0-1.2,1.3-1.2,3
			S618.5,352.3,619.6,352.3z M619.4,341.6h2.2l-1.6,2.3h-1.5L619.4,341.6z"/>
		<path class="st5" d="M624.9,342h2.2v1.9h-2.2V342z M624.9,344.9h2.2v8.6h-2.2V344.9z"/>
		<path class="st5" d="M630.9,350.7v0.3c0,0.8,0.4,1.2,1.2,1.2c0.7,0,1.1-0.3,1.1-1c0-0.6-0.4-0.8-0.8-1l-1.6-0.6
			c-1.2-0.4-1.8-1.2-1.8-2.4c0-1.4,0.9-2.6,3.2-2.6c2,0,2.9,0.9,2.9,2.4v0.4h-2c0-0.9-0.3-1.3-1-1.3c-0.6,0-1,0.3-1,0.9
			c0,0.4,0.2,0.8,1,1l1.3,0.4c1.4,0.5,1.9,1.2,1.9,2.5c0,1.8-1.3,2.7-3.2,2.7c-2.5,0-3.2-1.1-3.2-2.7v-0.3h2V350.7z"/>
	</g>
	<g>
		<path class="st3" d="M670.1,359.8v0.3c0,1.1,0.3,1.8,1.5,1.8c0.7,0,1.4-0.4,1.4-1.4s-0.5-1.4-2-2c-2-0.7-3-1.6-3-3.5
			c0-2.2,1.4-3.4,3.5-3.4c2,0,3.5,0.9,3.5,3.1v0.3h-2.2c0-1.1-0.4-1.7-1.2-1.7c-1,0-1.3,0.7-1.3,1.3c0,0.7,0.2,1.1,1.2,1.6l1.8,0.8
			c1.7,0.8,2.2,1.6,2.2,3c0,2.4-1.5,3.5-4,3.5c-2.6,0-3.6-1.2-3.6-3.3v-0.5h2.2V359.8z"/>
		<path class="st3" d="M676.9,357.4v-0.2c0-2,1.4-2.7,3-2.7c2.6,0,3.1,1.1,3.1,2.6v4.5c0,0.8,0,1.2,0.3,1.7h-2.1
			c-0.1-0.3-0.2-0.6-0.3-0.9l0,0c-0.5,0.9-1.1,1.1-2.2,1.1c-1.5,0-2.1-1.3-2.1-2.5c0-1.6,0.7-2.3,2.2-2.7l1.2-0.3
			c0.7-0.2,0.9-0.4,0.9-1c0-0.7-0.3-1.1-1-1.1s-1,0.4-1,1.1v0.2h-2V357.4z M681,359.1c-0.3,0.2-0.7,0.4-0.9,0.4
			c-0.9,0.2-1.2,0.6-1.2,1.4c0,0.7,0.2,1.2,0.8,1.2s1.4-0.4,1.4-1.3L681,359.1L681,359.1z"/>
		<path class="st3" d="M685.2,351.9h2.2v11.4h-2.2V351.9z"/>
		<path class="st3" d="M693.5,354.8h2.2l-2.2,8.6H691l-2.2-8.6h2.3l1.2,6.2l0,0L693.5,354.8z"/>
		<path class="st3" d="M696.8,357.4v-0.2c0-2,1.4-2.7,3-2.7c2.6,0,3.1,1.1,3.1,2.6v4.5c0,0.8,0,1.2,0.3,1.7h-2.1
			c-0.1-0.3-0.2-0.6-0.3-0.9l0,0c-0.5,0.9-1.1,1.1-2.2,1.1c-1.5,0-2.1-1.3-2.1-2.5c0-1.6,0.7-2.3,2.2-2.7l1.2-0.3
			c0.7-0.2,0.9-0.4,0.9-1c0-0.7-0.3-1.1-1-1.1s-1,0.4-1,1.1v0.2h-2V357.4z M700.8,359.1c-0.3,0.2-0.7,0.4-0.9,0.4
			c-0.9,0.2-1.2,0.6-1.2,1.4c0,0.7,0.2,1.2,0.8,1.2s1.4-0.4,1.4-1.3L700.8,359.1L700.8,359.1z"/>
		<path class="st3" d="M709.4,362.5L709.4,362.5c-0.5,0.8-1.1,1.1-2,1.1c-1.8,0-2.6-1.3-2.6-4.5s0.8-4.5,2.6-4.5
			c0.8,0,1.4,0.3,1.9,1l0,0V352h2.2v11.4h-2.1L709.4,362.5L709.4,362.5z M708.1,361.9c1,0,1.2-1,1.2-2.8c0-1.9-0.2-2.8-1.2-2.8
			s-1.2,1-1.2,2.8C706.9,360.9,707.1,361.9,708.1,361.9z"/>
		<path class="st3" d="M716.5,354.5c2.7,0,3.4,1.5,3.4,4.5c0,2.9-0.9,4.5-3.4,4.5c-2.7,0-3.4-1.5-3.4-4.5
			C713.1,356.1,714,354.5,716.5,354.5z M716.5,362.1c0.9,0,1.2-0.9,1.2-3s-0.3-3-1.2-3c-1.1,0-1.2,1.3-1.2,3
			S715.4,362.1,716.5,362.1z"/>
		<path class="st3" d="M721.6,354.8h2.1v1.2l0,0c0.4-0.8,1.1-1.4,2-1.4c0.1,0,0.3,0,0.4,0v2.1c-0.2,0-0.5,0-0.7,0
			c-0.8,0-1.6,0.4-1.6,1.6v5.2h-2.2V354.8z"/>
	</g>
	<path class="st10" d="M662.4,175c0,0-5.4,57.2,71.1,85.9"/>
	<line class="st9" x1="608" y1="332.9" x2="662.3" y2="342.1"/>
	<polyline class="st9" points="565.6,146.1 626.8,153.3 662.4,175 	"/>
	<g>
		<path class="st3" d="M535.8,182.1v-8.6h1.7v7.1h3.1v1.4h-4.8V182.1z"/>
		<path class="st3" d="M543.2,179.1v0.5c0,0.8,0.2,1.5,0.8,1.5s0.8-0.4,0.9-1.2h1.5c-0.1,1.5-0.8,2.3-2.3,2.3
			c-2.4,0-2.5-1.8-2.5-3.5s0.3-3.3,2.6-3.3c1.9,0,2.4,1.3,2.4,3.3v0.4H543.2z M544.9,178.1c0-1-0.2-1.5-0.8-1.5
			c-0.7,0-0.9,0.7-0.9,1.3v0.3h1.7V178.1z"/>
		<path class="st3" d="M547.8,175.6h1.6v0.8l0,0c0.3-0.6,0.9-0.9,1.6-0.9c1,0,1.6,0.6,1.6,1.8v4.8h-1.7v-4.4c0-0.6-0.2-0.9-0.7-0.9
			c-0.6,0-0.9,0.3-0.9,1.1v4.3h-1.7v-6.6H547.8z"/>
		<path class="st3" d="M556.4,182.3c-1.5-0.1-2.3-0.9-2.3-3.4c0-2.7,1.1-3.4,2.6-3.4s2.3,1,2.3,2.5h-1.6c0-0.6-0.1-1.3-0.7-1.3
			c-0.8,0-0.9,0.7-0.9,2.2c0,1.6,0.1,2.3,0.9,2.3c0.6,0,0.8-0.5,0.8-1.5h1.6c0,1.5-0.6,2.4-2,2.6l-0.4,0.6c0.1,0,0.3-0.1,0.4-0.1
			c0.5,0,1,0.3,1,0.9c0,0.7-0.5,1.1-1.5,1.1c-0.5,0-1-0.1-1.2-0.2l0.2-0.6c0.2,0.1,0.5,0.2,0.8,0.2s0.6-0.2,0.6-0.4
			s-0.2-0.4-0.5-0.4c-0.2,0-0.3,0-0.4,0.1l-0.3-0.2L556.4,182.3z"/>
		<path class="st3" d="M562.7,175.5c2,0,2.5,1.2,2.5,3.4s-0.6,3.4-2.5,3.4c-2,0-2.5-1.2-2.5-3.4
			C560.1,176.7,560.8,175.5,562.7,175.5z M562.7,181.1c0.7,0,0.9-0.7,0.9-2.3s-0.2-2.3-0.9-2.3c-0.8,0-0.9,0.9-0.9,2.3
			S561.9,181.1,562.7,181.1z M562.6,173.2h1.7l-1.2,1.7H562L562.6,173.2z"/>
		<path class="st3" d="M566.7,173.4h1.7v1.4h-1.7V173.4z M566.7,175.6h1.7v6.5h-1.7V175.6z"/>
		<path class="st3" d="M571.2,180v0.2c0,0.6,0.3,0.9,0.9,0.9c0.5,0,0.8-0.3,0.8-0.8c0-0.4-0.3-0.6-0.6-0.7l-1.2-0.4
			c-0.9-0.3-1.4-0.9-1.4-1.8c0-1.1,0.7-1.9,2.4-1.9c1.5,0,2.2,0.7,2.2,1.8v0.3h-1.5c0-0.6-0.2-1-0.7-1c-0.4,0-0.8,0.2-0.8,0.7
			c0,0.3,0.2,0.6,0.7,0.8l1,0.3c1,0.3,1.4,0.9,1.4,1.8c0,1.4-1,2-2.4,2c-1.9,0-2.4-0.8-2.4-2.1V180H571.2z"/>
		<path class="st3" d="M522.8,185.5h2.6l1.2,6l0,0l1.2-6h2.6v8.6h-1.6v-6.8l0,0l-1.5,6.8H526l-1.5-6.8l0,0v6.8h-1.6v-8.6H522.8z"/>
		<path class="st3" d="M532.1,189.6v-0.2c0-1.5,1-2,2.3-2c2,0,2.3,0.8,2.3,2v3.4c0,0.6,0,0.9,0.2,1.2h-1.6c-0.1-0.2-0.2-0.5-0.2-0.7
			l0,0c-0.4,0.7-0.9,0.8-1.6,0.8c-1.2,0-1.6-1-1.6-1.8c0-1.2,0.5-1.7,1.6-2l0.9-0.3c0.5-0.1,0.7-0.3,0.7-0.8s-0.2-0.8-0.8-0.8
			c-0.5,0-0.8,0.3-0.8,0.8v0.2h-1.4V189.6z M535.1,190.9c-0.2,0.2-0.5,0.3-0.7,0.3c-0.7,0.1-0.9,0.5-0.9,1s0.2,0.9,0.6,0.9
			c0.4,0,1-0.3,1-1L535.1,190.9L535.1,190.9z"/>
		<path class="st3" d="M538.3,187.6h1.6v0.9l0,0c0.3-0.6,0.8-1,1.5-1c0.1,0,0.2,0,0.3,0v1.6c-0.2,0-0.3,0-0.5,0
			c-0.6,0-1.2,0.3-1.2,1.2v3.9h-1.7L538.3,187.6L538.3,187.6z"/>
		<path class="st3" d="M542.8,189.6v-0.2c0-1.5,1-2,2.3-2c2,0,2.3,0.8,2.3,2v3.4c0,0.6,0,0.9,0.2,1.2H546c-0.1-0.2-0.2-0.5-0.2-0.7
			l0,0c-0.4,0.7-0.9,0.8-1.6,0.8c-1.2,0-1.6-1-1.6-1.8c0-1.2,0.5-1.7,1.6-2l0.9-0.3c0.5-0.1,0.7-0.3,0.7-0.8s-0.2-0.8-0.8-0.8
			c-0.5,0-0.8,0.3-0.8,0.8v0.2h-1.4V189.6z M545.8,190.9c-0.2,0.2-0.5,0.3-0.7,0.3c-0.7,0.1-0.9,0.5-0.9,1s0.2,0.9,0.6,0.9
			c0.4,0,1-0.3,1-1L545.8,190.9L545.8,190.9z"/>
		<path class="st3" d="M549.1,187.6h1.6v0.8l0,0c0.3-0.6,0.9-0.9,1.6-0.9c1,0,1.6,0.6,1.6,1.8v4.8h-1.7v-4.4c0-0.6-0.2-0.9-0.7-0.9
			c-0.6,0-0.9,0.3-0.9,1.1v4.3h-1.7v-6.6H549.1z"/>
		<path class="st3" d="M555.5,185.5h1.7v2.8l0,0c0.3-0.6,0.9-0.8,1.6-0.8c1,0,1.6,0.6,1.6,1.8v4.8h-1.7v-4.4c0-0.6-0.2-0.9-0.7-0.9
			c-0.6,0-0.9,0.3-0.9,1.1v4.3h-1.7v-8.7H555.5z"/>
		<path class="st3" d="M563.4,191.1v0.5c0,0.8,0.2,1.5,0.8,1.5s0.8-0.4,0.9-1.2h1.5c-0.1,1.5-0.8,2.3-2.3,2.3
			c-2.4,0-2.5-1.8-2.5-3.5s0.3-3.3,2.6-3.3c1.9,0,2.4,1.3,2.4,3.3v0.4H563.4z M565.1,190.1c0-1-0.2-1.5-0.8-1.5
			c-0.7,0-0.9,0.7-0.9,1.3v0.3h1.7V190.1z"/>
		<path class="st3" d="M568.1,187.6h1.6v0.8l0,0c0.3-0.6,0.9-0.9,1.6-0.9c1,0,1.6,0.6,1.6,1.8v4.8h-1.7v-4.4c0-0.6-0.2-0.9-0.7-0.9
			c-0.6,0-0.9,0.3-0.9,1.1v4.3h-1.7v-6.6H568.1z"/>
		<path class="st3" d="M575.7,192v0.2c0,0.6,0.3,0.9,0.9,0.9c0.5,0,0.8-0.3,0.8-0.8c0-0.4-0.3-0.6-0.6-0.7l-1.2-0.4
			c-0.9-0.3-1.4-0.9-1.4-1.8c0-1.1,0.7-1.9,2.4-1.9c1.5,0,2.2,0.7,2.2,1.8v0.3h-1.5c0-0.6-0.2-1-0.7-1c-0.4,0-0.8,0.2-0.8,0.7
			c0,0.3,0.2,0.6,0.7,0.8l1,0.3c1,0.3,1.4,0.9,1.4,1.8c0,1.4-1,2-2.4,2c-1.9,0-2.4-0.8-2.4-2.1V192H575.7z"/>
		<path class="st3" d="M581.8,191.1v0.5c0,0.8,0.2,1.5,0.8,1.5s0.8-0.4,0.9-1.2h1.5c-0.1,1.5-0.8,2.3-2.3,2.3
			c-2.4,0-2.5-1.8-2.5-3.5s0.3-3.3,2.6-3.3c1.9,0,2.4,1.3,2.4,3.3v0.4H581.8z M583.5,190.1c0-1-0.2-1.5-0.8-1.5
			c-0.7,0-0.9,0.7-0.9,1.3v0.3h1.7V190.1z"/>
		<path class="st3" d="M587.6,192v0.2c0,0.6,0.3,0.9,0.9,0.9c0.5,0,0.8-0.3,0.8-0.8c0-0.4-0.3-0.6-0.6-0.7l-1.2-0.4
			c-0.9-0.3-1.4-0.9-1.4-1.8c0-1.1,0.7-1.9,2.4-1.9c1.5,0,2.2,0.7,2.2,1.8v0.3h-1.5c0-0.6-0.2-1-0.7-1c-0.4,0-0.8,0.2-0.8,0.7
			c0,0.3,0.2,0.6,0.7,0.8l1,0.3c1,0.3,1.4,0.9,1.4,1.8c0,1.4-1,2-2.4,2c-1.9,0-2.4-0.8-2.4-2.1V192H587.6z"/>
	</g>
	<g>
		<path class="st5" d="M323.6,408.3h4c2.3,0,3.1,1.7,3.1,3.4c0,2.4-1.5,3.4-3.6,3.4h-1.2v4.6h-2.3V408.3z M325.9,413.5h1
			c0.9,0,1.5-0.5,1.5-1.7c0-1.1-0.4-1.8-1.6-1.8h-1v3.5H325.9z"/>
		<path class="st5" d="M332.5,413.8v-0.2c0-2,1.4-2.7,3-2.7c2.6,0,3.1,1.1,3.1,2.6v4.5c0,0.8,0,1.2,0.3,1.7h-2.1
			c-0.1-0.3-0.2-0.6-0.3-0.9l0,0c-0.5,0.9-1.1,1.1-2.2,1.1c-1.5,0-2.1-1.3-2.1-2.5c0-1.6,0.7-2.3,2.2-2.7l1.2-0.3
			c0.7-0.2,0.9-0.4,0.9-1c0-0.7-0.3-1.1-1-1.1s-1,0.4-1,1.1v0.2h-2V413.8z M336.5,415.4c-0.3,0.2-0.7,0.4-0.9,0.4
			c-0.9,0.2-1.2,0.6-1.2,1.4c0,0.7,0.2,1.2,0.8,1.2s1.4-0.4,1.4-1.3L336.5,415.4L336.5,415.4z"/>
		<path class="st5" d="M340.8,411.1h2.1v1l0,0c0.5-0.8,1.3-1.2,2.2-1.2c1.4,0,2.2,0.8,2.2,2.4v6.4h-2.2v-5.9c0-0.9-0.3-1.2-0.9-1.2
			c-0.8,0-1.2,0.5-1.2,1.4v5.7h-2.2V411.1z"/>
		<path class="st5" d="M350,408.7h2.2v2.5h1.3v1.5h-1.3v4.7c0,0.7,0.1,0.9,0.8,0.9c0.2,0,0.4,0,0.5,0v1.5c-0.5,0-0.9,0.1-1.4,0.1
			c-1.7,0-2-0.5-2-2.3v-4.9H349v-1.5h1.1v-2.5H350z"/>
		<path class="st5" d="M354.8,413.8v-0.2c0-2,1.4-2.7,3-2.7c2.6,0,3.1,1.1,3.1,2.6v4.5c0,0.8,0,1.2,0.3,1.7h-2.1
			c-0.1-0.3-0.2-0.6-0.3-0.9l0,0c-0.5,0.9-1.1,1.1-2.2,1.1c-1.5,0-2.1-1.3-2.1-2.5c0-1.6,0.7-2.3,2.2-2.7l1.2-0.3
			c0.7-0.2,0.9-0.4,0.9-1c0-0.7-0.3-1.1-1-1.1s-1,0.4-1,1.1v0.2h-2V413.8z M358.9,415.4c-0.3,0.2-0.7,0.4-0.9,0.4
			c-0.9,0.2-1.2,0.6-1.2,1.4c0,0.7,0.2,1.2,0.8,1.2s1.4-0.4,1.4-1.3L358.9,415.4L358.9,415.4z"/>
		<path class="st5" d="M363.2,411.1h2.1v1l0,0c0.5-0.8,1.3-1.2,2.2-1.2c1.4,0,2.2,0.8,2.2,2.4v6.4h-2.2v-5.9c0-0.9-0.3-1.2-0.9-1.2
			c-0.8,0-1.2,0.5-1.2,1.4v5.7h-2.2V411.1z"/>
		<path class="st5" d="M371.8,413.8v-0.2c0-2,1.4-2.7,3-2.7c2.6,0,3.1,1.1,3.1,2.6v4.5c0,0.8,0,1.2,0.3,1.7h-2.1
			c-0.1-0.3-0.2-0.6-0.3-0.9l0,0c-0.5,0.9-1.1,1.1-2.2,1.1c-1.5,0-2.1-1.3-2.1-2.5c0-1.6,0.7-2.3,2.2-2.7l1.2-0.3
			c0.7-0.2,0.9-0.4,0.9-1c0-0.7-0.3-1.1-1-1.1s-1,0.4-1,1.1v0.2h-2V413.8z M375.9,415.4c-0.3,0.2-0.7,0.4-0.9,0.4
			c-0.9,0.2-1.2,0.6-1.2,1.4c0,0.7,0.2,1.2,0.8,1.2s1.4-0.4,1.4-1.3L375.9,415.4L375.9,415.4z"/>
		<path class="st5" d="M380.2,408.3h2.2v11.4h-2.2V408.3z"/>
	</g>
	<path class="st4" d="M247.4,154.1c0-2.3,1.9-4.3,4.3-4.3c2.3,0,4.3,1.9,4.3,4.3c0,2.4-1.9,4.3-4.3,4.3
		C249.3,158.4,247.4,156.5,247.4,154.1z"/>
	<path class="st4" d="M562,146.1c0-2.3,1.9-4.3,4.3-4.3c2.4,0,4.3,1.9,4.3,4.3c0,2.4-1.9,4.3-4.3,4.3
		C563.9,150.3,562,148.4,562,146.1z"/>
	<path class="st4" d="M658.2,175c0-2.3,1.9-4.3,4.3-4.3s4.3,1.9,4.3,4.3c0,2.4-1.9,4.3-4.3,4.3S658.2,177.4,658.2,175z"/>
	<path class="st4" d="M622.5,153.3c0-2.3,1.9-4.3,4.3-4.3c2.4,0,4.3,1.9,4.3,4.3c0,2.4-1.9,4.3-4.3,4.3S622.5,155.7,622.5,153.3z"/>
	<path class="st4" d="M729.3,260.9c0-2.3,1.9-4.3,4.3-4.3c2.3,0,4.3,1.9,4.3,4.3s-1.9,4.3-4.3,4.3
		C731.2,265.2,729.3,263.3,729.3,260.9z"/>
	<path class="st4" d="M658.9,342.1c0-2.3,1.9-4.3,4.3-4.3c2.4,0,4.3,1.9,4.3,4.3c0,2.3-1.9,4.3-4.3,4.3
		C660.8,346.4,658.9,344.4,658.9,342.1z"/>
	<path class="st4" d="M603.7,332.9c0-2.3,1.9-4.3,4.3-4.3s4.3,1.9,4.3,4.3c0,2.3-1.9,4.3-4.3,4.3S603.7,335.2,603.7,332.9z"/>
	<path class="st4" d="M329.8,495.3c0-2.4,1.9-4.3,4.3-4.3s4.3,1.9,4.3,4.3s-1.9,4.3-4.3,4.3S329.8,497.6,329.8,495.3z"/>
	<path class="st4" d="M556.7,532.4c0-2.4,1.9-4.3,4.3-4.3c2.4,0,4.3,1.9,4.3,4.3s-1.9,4.3-4.3,4.3
		C558.6,536.7,556.7,534.8,556.7,532.4z"/>
	<g>
		<ellipse class="st11" cx="561.2" cy="514.3" rx="6.9" ry="6.1"/>
		<path class="st12" d="M560.9,518.8c-2.6,0-4.7-2.1-4.7-4.7c0-2.6,2.1-4.7,4.7-4.7c2.6,0,4.7,2.1,4.7,4.7
			C565.5,516.7,563.5,518.8,560.9,518.8z M560.9,505.2c-5,0-9,4-9,9c0,2,1.3,5.3,3.9,10c1.9,3.3,3.7,6.1,3.8,6.2l1.3,2l1.3-2
			c0.1-0.1,1.9-2.9,3.8-6.2c2.6-4.7,3.9-8,3.9-10C569.9,509.2,565.8,505.2,560.9,505.2z"/>
	</g>
	<g>
		<path class="st5" d="M257.6,164.2h3.4l1.6,8.1l0,0l1.6-8.1h3.4v11.4h-2.1v-9.1l0,0l-2,9.1h-1.8l-2-9.1l0,0v9.1h-2.1V164.2z"/>
		<path class="st5" d="M270,169.7v-0.2c0-2,1.4-2.7,3-2.7c2.6,0,3.1,1.1,3.1,2.6v4.5c0,0.8,0,1.2,0.3,1.7h-2.1
			c-0.1-0.3-0.2-0.6-0.3-0.9l0,0c-0.5,0.9-1.1,1.1-2.2,1.1c-1.5,0-2.1-1.3-2.1-2.5c0-1.6,0.7-2.3,2.2-2.7l1.2-0.3
			c0.7-0.2,0.9-0.4,0.9-1c0-0.7-0.3-1.1-1-1.1s-1,0.4-1,1.1v0.2h-2V169.7z M274,171.3c-0.3,0.2-0.7,0.4-0.9,0.4
			c-0.9,0.2-1.2,0.6-1.2,1.4c0,0.7,0.2,1.2,0.8,1.2s1.4-0.4,1.4-1.3L274,171.3L274,171.3z"/>
		<path class="st5" d="M278.3,167h2.1v1l0,0c0.5-0.8,1.3-1.2,2.2-1.2c1.4,0,2.2,0.8,2.2,2.4v6.4h-2.2v-5.9c0-0.9-0.3-1.2-0.9-1.2
			c-0.8,0-1.2,0.5-1.2,1.4v5.7h-2.2V167z"/>
		<path class="st5" d="M287,169.7v-0.2c0-2,1.4-2.7,3-2.7c2.6,0,3.1,1.1,3.1,2.6v4.5c0,0.8,0,1.2,0.3,1.7h-2.1
			c-0.1-0.3-0.2-0.6-0.3-0.9l0,0c-0.5,0.9-1.1,1.1-2.2,1.1c-1.5,0-2.1-1.3-2.1-2.5c0-1.6,0.7-2.3,2.2-2.7l1.2-0.3
			c0.7-0.2,0.9-0.4,0.9-1c0-0.7-0.3-1.1-1-1.1s-1,0.4-1,1.1v0.2h-2V169.7z M291,171.3c-0.3,0.2-0.7,0.4-0.9,0.4
			c-0.9,0.2-1.2,0.6-1.2,1.4c0,0.7,0.2,1.2,0.8,1.2s1.4-0.4,1.4-1.3L291,171.3L291,171.3z"/>
		<path class="st5" d="M299.7,174.6L299.7,174.6c-0.5,0.8-1.3,1.2-2.2,1.2c-1.4,0-2.2-0.8-2.2-2.4V167h2.2v5.9
			c0,0.9,0.3,1.2,0.9,1.2c0.8,0,1.2-0.5,1.2-1.4V167h2.2v8.6h-2.1V174.6z"/>
		<path class="st5" d="M305.6,172.8v0.3c0,0.8,0.4,1.2,1.2,1.2c0.7,0,1.1-0.3,1.1-1c0-0.6-0.4-0.8-0.8-1l-1.6-0.6
			c-1.2-0.4-1.8-1.2-1.8-2.4c0-1.4,0.9-2.6,3.2-2.6c2,0,2.9,0.9,2.9,2.4v0.4h-2c0-0.9-0.3-1.3-1-1.3c-0.6,0-1,0.3-1,0.9
			c0,0.4,0.2,0.8,1,1l1.3,0.4c1.4,0.5,1.9,1.2,1.9,2.5c0,1.8-1.3,2.7-3.2,2.7c-2.5,0-3.2-1.1-3.2-2.7v-0.3h2V172.8z"/>
	</g>
	<g>
		<path class="st5" d="M286,368.7c0-1.7-0.3-2.4-1.4-2.4c-1.2,0-1.4,1.2-1.4,4.4c0,3.5,0.5,4.1,1.5,4.1c0.8,0,1.4-0.4,1.4-2.9h2.3
			c0,2.5-0.6,4.6-3.6,4.6c-3.5,0-3.9-2.5-3.9-5.9c0-3.5,0.4-5.9,3.9-5.9c3.3,0,3.5,2.4,3.5,4.1H286V368.7z"/>
		<path class="st5" d="M294.7,375.3L294.7,375.3c-0.5,0.8-1.3,1.2-2.2,1.2c-1.4,0-2.2-0.8-2.2-2.4v-6.4h2.2v5.9
			c0,0.9,0.3,1.2,0.9,1.2c0.8,0,1.2-0.5,1.2-1.4v-5.7h2.2v8.6h-2.1V375.3z"/>
		<path class="st5" d="M299,364.7h2.2v1.9H299V364.7z M299,367.7h2.2v8.6H299V367.7z"/>
		<path class="st5" d="M303.4,370.3v-0.2c0-2,1.4-2.7,3-2.7c2.6,0,3.1,1.1,3.1,2.6v4.5c0,0.8,0,1.2,0.3,1.7h-2.1
			c-0.1-0.3-0.2-0.6-0.3-0.9l0,0c-0.5,0.9-1.1,1.1-2.2,1.1c-1.5,0-2.1-1.3-2.1-2.5c0-1.6,0.7-2.3,2.2-2.7l1.2-0.3
			c0.7-0.2,0.9-0.4,0.9-1c0-0.7-0.3-1.1-1-1.1s-1,0.4-1,1.1v0.2h-2V370.3z M307.5,372c-0.3,0.2-0.7,0.4-0.9,0.4
			c-0.9,0.2-1.2,0.6-1.2,1.4c0,0.7,0.2,1.2,0.8,1.2s1.4-0.4,1.4-1.3L307.5,372L307.5,372z"/>
		<path class="st5" d="M311.8,364.8h2.2v3.6l0,0c0.5-0.7,1-1,1.9-1c1.8,0,2.6,1.3,2.6,4.5s-0.8,4.5-2.6,4.5c-0.9,0-1.5-0.3-2-1.1
			l0,0v0.9h-2.1V364.8z M315.2,374.8c1,0,1.2-1,1.2-2.8c0-1.9-0.2-2.8-1.2-2.8s-1.2,1-1.2,2.8S314.2,374.8,315.2,374.8z"/>
		<path class="st5" d="M320.4,370.3v-0.2c0-2,1.4-2.7,3-2.7c2.6,0,3.1,1.1,3.1,2.6v4.5c0,0.8,0,1.2,0.3,1.7h-2.1
			c-0.1-0.3-0.2-0.6-0.3-0.9l0,0c-0.5,0.9-1.1,1.1-2.2,1.1c-1.5,0-2.1-1.3-2.1-2.5c0-1.6,0.7-2.3,2.2-2.7l1.2-0.3
			c0.7-0.2,0.9-0.4,0.9-1c0-0.7-0.3-1.1-1-1.1s-1,0.4-1,1.1v0.2h-2V370.3z M324.4,372c-0.3,0.2-0.7,0.4-0.9,0.4
			c-0.9,0.2-1.2,0.6-1.2,1.4c0,0.7,0.2,1.2,0.8,1.2s1.4-0.4,1.4-1.3L324.4,372L324.4,372z M323.4,364.4h2.2l-1.6,2.3h-1.5
			L323.4,364.4z"/>
	</g>
	<g>
		<path class="st5" d="M362.2,443c0-1.7-0.3-2.4-1.4-2.4c-1.2,0-1.4,1.2-1.4,4.4c0,3.5,0.5,4.1,1.5,4.1c0.8,0,1.4-0.4,1.4-2.9h2.3
			c0,2.5-0.6,4.6-3.6,4.6c-3.5,0-3.9-2.5-3.9-5.9c0-3.5,0.4-5.9,3.9-5.9c3.3,0,3.5,2.4,3.5,4.1h-2.3V443z"/>
		<path class="st5" d="M366.5,444.6v-0.2c0-2,1.4-2.7,3-2.7c2.6,0,3.1,1.1,3.1,2.6v4.5c0,0.8,0,1.2,0.3,1.7h-2.1
			c-0.1-0.3-0.2-0.6-0.3-0.9l0,0c-0.5,0.9-1.1,1.1-2.2,1.1c-1.5,0-2.1-1.3-2.1-2.5c0-1.6,0.7-2.3,2.2-2.7l1.2-0.3
			c0.7-0.2,0.9-0.4,0.9-1c0-0.7-0.3-1.1-1-1.1s-1,0.4-1,1.1v0.2h-2V444.6z M370.5,446.3c-0.3,0.2-0.7,0.4-0.9,0.4
			c-0.9,0.2-1.2,0.6-1.2,1.4c0,0.7,0.2,1.2,0.8,1.2s1.4-0.4,1.4-1.3L370.5,446.3L370.5,446.3z"/>
		<path class="st5" d="M374.8,441.9h2.1v0.9l0,0c0.6-0.8,1.2-1.1,2.2-1.1s1.7,0.5,2,1.4l0,0c0.3-0.9,1.1-1.4,2.2-1.4
			c1.5,0,2.1,0.9,2.1,2.6v6.3h-2.2v-6c0-0.7-0.2-1.1-0.9-1.1c-0.7,0-1.2,0.5-1.2,1.5v5.7H379v-6c0-0.7-0.2-1.1-0.9-1.1
			c-0.7,0-1.2,0.5-1.2,1.5v5.7h-2.2v-8.9H374.8z"/>
		<path class="st5" d="M387.6,441.9h2.1v0.9l0,0c0.5-0.8,1.1-1.1,2-1.1c1.8,0,2.6,1.3,2.6,4.5s-0.8,4.5-2.6,4.5
			c-0.8,0-1.4-0.3-1.9-1l0,0v3.6h-2.2V441.9z M391,449.1c1,0,1.2-1,1.2-2.8c0-1.9-0.2-2.8-1.2-2.8s-1.2,1-1.2,2.8
			S390,449.1,391,449.1z"/>
		<path class="st5" d="M399.3,441.7c2.7,0,3.4,1.5,3.4,4.5c0,2.9-0.9,4.5-3.4,4.5c-2.7,0-3.4-1.5-3.4-4.5
			C395.9,443.3,396.8,441.7,399.3,441.7z M399.3,449.3c0.9,0,1.2-0.9,1.2-3s-0.3-3-1.2-3c-1.1,0-1.2,1.3-1.2,3
			S398.2,449.3,399.3,449.3z"/>
		<path class="st5" d="M362.4,458.5c0-0.8-0.4-1.9-1.3-1.9c-1.1,0-1.6,1.2-1.6,4s0.3,4.5,1.6,4.5c0.5,0,1.4-0.6,1.4-1.8v-1.2H361
			v-1.7h3.7v6.2H363v-1.1l0,0c-0.5,0.9-1.3,1.3-2.4,1.3c-2.8,0-3.4-2.1-3.4-6.1c0-3.8,0.9-5.8,3.8-5.8c2.5,0,3.6,1.3,3.6,3.6H362.4z
			"/>
		<path class="st5" d="M366.8,457.9h2.1v1.2l0,0c0.4-0.8,1.1-1.4,2-1.4c0.1,0,0.3,0,0.4,0v2.1c-0.2,0-0.5,0-0.7,0
			c-0.8,0-1.6,0.4-1.6,1.6v5.2h-2.2L366.8,457.9L366.8,457.9z"/>
		<path class="st5" d="M372.7,460.6v-0.2c0-2,1.4-2.7,3-2.7c2.6,0,3.1,1.1,3.1,2.6v4.5c0,0.8,0,1.2,0.3,1.7H377
			c-0.1-0.3-0.2-0.6-0.3-0.9l0,0c-0.5,0.9-1.1,1.1-2.2,1.1c-1.5,0-2.1-1.3-2.1-2.5c0-1.6,0.7-2.3,2.2-2.7l1.2-0.3
			c0.7-0.2,0.9-0.4,0.9-1c0-0.7-0.3-1.1-1-1.1s-1,0.4-1,1.1v0.2h-2V460.6z M376.8,462.3c-0.3,0.2-0.7,0.4-0.9,0.4
			c-0.9,0.2-1.2,0.6-1.2,1.4c0,0.7,0.2,1.2,0.8,1.2s1.4-0.4,1.4-1.3L376.8,462.3L376.8,462.3z"/>
		<path class="st5" d="M381.1,457.9h2.1v1l0,0c0.5-0.8,1.3-1.2,2.2-1.2c1.4,0,2.2,0.8,2.2,2.4v6.4h-2.2v-5.9c0-0.9-0.3-1.2-0.9-1.2
			c-0.8,0-1.2,0.5-1.2,1.4v5.7h-2.2V457.9z"/>
		<path class="st5" d="M394.2,465.6L394.2,465.6c-0.5,0.8-1.1,1.1-2,1.1c-1.8,0-2.6-1.3-2.6-4.5s0.8-4.5,2.6-4.5
			c0.8,0,1.4,0.3,1.9,1l0,0v-3.6h2.2v11.4h-2.1V465.6z M392.9,465.1c1,0,1.2-1,1.2-2.8c0-1.9-0.2-2.8-1.2-2.8s-1.2,1-1.2,2.8
			C391.7,464.1,391.9,465.1,392.9,465.1z"/>
		<path class="st5" d="M400.3,462.6v0.7c0,1,0.3,2,1.1,2c0.7,0,1-0.6,1.2-1.6h2c-0.1,2-1,3.1-3.1,3.1c-3.2,0-3.3-2.5-3.3-4.6
			c0-2.3,0.4-4.4,3.4-4.4c2.6,0,3.2,1.7,3.2,4.4v0.5h-4.5V462.6z M402.5,461.3c0-1.3-0.2-2-1.1-2s-1.1,0.9-1.1,1.7v0.3H402.5z"/>
	</g>
	<g>
		<path class="st3" d="M430.4,546.5v0.3c0,1.1,0.3,1.8,1.5,1.8c0.7,0,1.4-0.4,1.4-1.4s-0.5-1.4-2-2c-2-0.7-3-1.6-3-3.5
			c0-2.2,1.4-3.4,3.5-3.4c2,0,3.5,0.9,3.5,3.1v0.3h-2.2c0-1.1-0.4-1.7-1.2-1.7c-1,0-1.3,0.7-1.3,1.3c0,0.7,0.2,1.1,1.2,1.6l1.8,0.8
			c1.7,0.8,2.2,1.6,2.2,3c0,2.4-1.5,3.5-4,3.5c-2.6,0-3.6-1.2-3.6-3.3v-0.5h2.2V546.5z"/>
		<path class="st3" d="M437.2,544.1v-0.2c0-2,1.4-2.7,3-2.7c2.6,0,3.1,1.1,3.1,2.6v4.5c0,0.8,0,1.2,0.3,1.7h-2.1
			c-0.1-0.3-0.2-0.6-0.3-0.9l0,0c-0.5,0.9-1.1,1.1-2.2,1.1c-1.5,0-2.1-1.3-2.1-2.5c0-1.6,0.7-2.3,2.2-2.7l1.2-0.3
			c0.7-0.2,0.9-0.4,0.9-1c0-0.7-0.3-1.1-1-1.1s-1,0.4-1,1.1v0.2h-2V544.1z M437.8,540.3c0.2-1.2,0.7-2,1.5-2c0.3,0,0.5,0,0.7,0.1
			l0.8,0.3c0.2,0.1,0.3,0.1,0.5,0.1c0.3,0,0.4-0.4,0.4-0.6h1.2c-0.1,1.1-0.7,2-1.5,2c-0.7,0-1.4-0.5-1.9-0.5c-0.2,0-0.4,0.2-0.5,0.6
			L437.8,540.3L437.8,540.3z M441.2,545.7c-0.3,0.2-0.7,0.4-0.9,0.4c-0.9,0.2-1.2,0.6-1.2,1.4c0,0.7,0.2,1.2,0.8,1.2
			c0.6,0,1.4-0.4,1.4-1.3L441.2,545.7L441.2,545.7z"/>
		<path class="st3" d="M448.5,541.2c2.7,0,3.4,1.5,3.4,4.5c0,2.9-0.9,4.5-3.4,4.5c-2.7,0-3.4-1.5-3.4-4.5
			C445.1,542.8,446,541.2,448.5,541.2z M448.5,548.7c0.9,0,1.2-0.9,1.2-3s-0.3-3-1.2-3c-1.1,0-1.2,1.3-1.2,3
			S447.4,548.7,448.5,548.7z"/>
		<path class="st3" d="M457.9,538.6h4c2.3,0,3.1,1.7,3.1,3.4c0,2.4-1.5,3.4-3.6,3.4h-1.2v4.6h-2.3V538.6z M460.3,543.8h1
			c0.9,0,1.5-0.5,1.5-1.7c0-1.1-0.4-1.8-1.6-1.8h-1v3.5H460.3z"/>
		<path class="st3" d="M466.3,544.1v-0.2c0-2,1.4-2.7,3-2.7c2.6,0,3.1,1.1,3.1,2.6v4.5c0,0.8,0,1.2,0.3,1.7h-2.1
			c-0.1-0.3-0.2-0.6-0.3-0.9l0,0c-0.5,0.9-1.1,1.1-2.2,1.1c-1.5,0-2.1-1.3-2.1-2.5c0-1.6,0.7-2.3,2.2-2.7l1.2-0.3
			c0.7-0.2,0.9-0.4,0.9-1c0-0.7-0.3-1.1-1-1.1s-1,0.4-1,1.1v0.2h-2V544.1z M470.3,545.7c-0.3,0.2-0.7,0.4-0.9,0.4
			c-0.9,0.2-1.2,0.6-1.2,1.4c0,0.7,0.2,1.2,0.8,1.2c0.6,0,1.4-0.4,1.4-1.3L470.3,545.7L470.3,545.7z"/>
		<path class="st3" d="M478.9,549L478.9,549c-0.5,0.8-1.3,1.2-2.2,1.2c-1.4,0-2.2-0.8-2.2-2.4v-6.4h2.2v5.9c0,0.9,0.3,1.2,0.9,1.2
			c0.8,0,1.2-0.5,1.2-1.4v-5.7h2.2v8.6h-2.1V549z"/>
		<path class="st3" d="M483,538.6h2.2V550H483V538.6z"/>
		<path class="st3" d="M490.4,541.2c2.7,0,3.4,1.5,3.4,4.5c0,2.9-0.9,4.5-3.4,4.5c-2.7,0-3.4-1.5-3.4-4.5
			C487,542.8,487.8,541.2,490.4,541.2z M490.4,548.7c0.9,0,1.2-0.9,1.2-3s-0.3-3-1.2-3c-1.1,0-1.2,1.3-1.2,3
			S489.3,548.7,490.4,548.7z"/>
	</g>
	<line class="st9" x1="317.8" y1="431" x2="365.3" y2="480.6"/>
	<path class="st4" d="M361.2,480.6c0-2.4,1.9-4.3,4.3-4.3s4.3,1.9,4.3,4.3s-1.9,4.3-4.3,4.3C363.1,484.8,361.2,482.9,361.2,480.6z"
		/>
	<path class="st4" d="M313.5,431c0-2.4,1.9-4.3,4.3-4.3s4.3,1.9,4.3,4.3s-1.9,4.3-4.3,4.3C315.4,435.2,313.5,433.3,313.5,431z"/>
</g>
</svg>
