<?xml version="1.0" encoding="UTF-8"?><svg xmlns="http://www.w3.org/2000/svg" viewBox="0 0 930.45 600.88"><defs><style>.cls-1{fill:#f2f2f2;}.cls-2{fill:#fff;}.cls-3{fill:#e2e2e3;}.cls-4{fill:#cecfcf;}.cls-5{fill:#d9d9d9;}.cls-6{fill:#1d1d1b;}.cls-7{fill:#6e250a;}.cls-8{fill:none;stroke:#6e250a;stroke-miterlimit:10;stroke-width:2px;}.cls-9{opacity:.4;}</style></defs><g id="Länder"><path class="cls-1" d="m802.61,220.73s4.8-7.27,2.81-14.59c-2-7.32-15.3-37.24-7.32-46.56,7.98-9.31,104.42-41.24,107.74-51.88,3.33-10.64,11.97-29.26,9.31-37.24-2.66-7.98,15.3-41.9,15.3-58.53s-10.13-4.87-11.31-7.98c-13.3-35.25-3.99-52.54-7.32-77.81-.79-5.97-15.96-12.64-15.96-22.61s2-13.97,2-13.97l-68.5-.67s0,15.3-8.65,23.28c-8.65,7.98-13.97,23.28-17.96,39.24-3.99,15.96-15.96,35.25-30.59,42.57s-36.89,7.54-36.89,7.54l10.95,205.29,56.39,13.92Z"/><path class="cls-5" d="m311.92,243.38l-83.14-159.62,77.15-195.53,282.66.67s12.64,3.33,13.3,23.94-2.66,35.91,7.32,43.9,32.59,9.98,36.58,8.65,13.97,23.72,13.97,23.72l-90.45,179.79-257.39,74.49Z"/><path class="cls-1" d="m142.33,296.37s-9.31-5.32-10.64-8.42-13.3-37.24-23.94-40.35-8.87-28.82-9.31-35.03,4.88-11.53-3.1-19.95-10.64-12.41-9.31-17.74-12.41-19.51-9.75-35.47,2.66-29.26-3.99-42.12-.89-19.07-5.32-29.71-8.42-17.29-7.54-28.82,6.21-21.28-5.32-40.35-20.4-45.23-20.4-45.23c0,0-18.4-19.73-21.06-27.71S0-113.77,0-113.77l333.21,1.33-.67,95.11-60.52,2,11.97,355.82-141.66-44.12Z"/><path class="cls-3" d="m131.69,287.94s16.63,12.64,27.93,39.24,15.3,39.24,20.62,51.21,14.38,30.38,23.72,43.9c8.42,12.19,19.07,18.18,18.84,54.54-.15,24.62-6.21,13.08-10.64,13.3-3.1.15-8.2,4.88-4.66,9.75s4.43,10.64,10.2,16.41,11.08,15.08,12.41,17.74-1.33,9.31-1.77,11.08-.89,10.64-.44,13.3,7.98,16.85,7.54,13.75-3.55-14.19,1.77-15.52,9.31,1.77,9.75,4.88-2.22,8.87.44,9.31,8.42-2.22,10.2,0,5.76-2.22,8.42,1.33-.44,10.2,1.77,11.53,1.33-1.77,7.09,1.33,16.41,7.09,19.51,6.21,2.22-4.43,5.32-4.43,6.65-8.87,11.08-10.2,11.53,1.33,13.75-.44,1.77-4.88,4.88-5.32,8.42,4.43,11.53,3.55,7.98-5.32,10.2-4.88,5.32,2.66,8.87,1.33,3.55-6.21,7.09-6.65,7.09-1.33,5.76-4.88,14.63-6.65,18.62-6.65,3.99,3.99,7.09,4.43,19.51,3.1,21.28,2.22,1.75-6.4,5.32-6.65c15.96-1.11,29.71,9.09,47,10.42,5.75.44,3.55-5.76,6.21-8.42s8.2-4.43,11.75-3.1,11.31,6.21,15.3,3.99.42-9.86,5.32-13.97c9.53-7.98,26.16,4.88,34.14.89s31.04-21.73,35.47-22.61,13.3-3.1,17.29-7.54,31.48-30.59,38.13-39.9,19.51-28.38,31.04-37.24,19.95-15.52,29.26-30.59,19.73-33.03,25.49-45,15.74-25.05,39.24-45c16.63-14.12,19.07-17.74,23.06-31.04s8.87-31.92,11.08-40.35,10.09-29.04,10.09-29.04l-28.27-2s.89-32.37-2.66-38.57,3.55-30.59,2.66-41.68-14.19-57.2-18.18-81.14S750.66.18,750.66.18c0,0-39.02,2.22-46.56-3.55s-17.29-10.2-27.05-8.87-17.29,1.33-17.29,1.33c0,0-5.32,11.53-16.85,15.52s-17.74,0-22.61,7.98-10.2,17.29-18.62,21.28-13.3,12.86-21.28,17.74c-7.98,4.88-13.75,7.09-17.29,20.4s-15.08,27.05-21.73,30.59-19.95,3.99-23.06,13.3-10.2,43.9-14.19,45.67-46.56,4.88-53.21,1.33-24.83-22.61-34.58-23.06-18.18,5.76-27.93,22.61-19.95,37.69-37.24,43.45c-17.29,5.76-28.82,2.22-33.7,3.99s-21.28,3.1-16.85-7.98,8.42-27.49,6.21-39.46c-8.91-48.12-31.04-50.99-31.04-50.99,0,0,5.32,149.42,3.99,164.5s-19.07,20.84-22.61,24.83-3.99,6.21-18.18,5.32-23.5-4.43-28.82-.89-11.53,3.1-17.29-.89-17.29-8.87-20.4-18.62-5.32-14.19-11.97-16.41-6.65,2.22-10.2,9.31c-3.55,7.09-5.76,13.75-8.87,12.41s-9.75-3.1-9.75-3.1Z"/><path class="cls-4" d="m772.16,167.9l-10.97-1.33-20.95-10.97s-9.64,14.63-14.3,25.27-8.31,25.61-8.31,25.61c0,0,5.99-1.33,6.32,3.66s.33,11.97,3.33,15.3,12.97,6.98,12.97,6.98c0,0,10.31-1.66,15.3.67s6.65,3.66,6.65,3.66l4.99-24.61,8.65,2.66,1-2.66-.67-28.27-3.99-15.96Z"/></g><g id="Route"><path class="cls-8" d="m718.29,356.78s-130.8,51.32-214.6,195.2"/><polyline class="cls-8" points="231.78 545.33 259.38 566.78 381.78 549.32 418.34 554.92 443.97 550.62 503.69 551.98 514.16 519.53"/><polyline class="cls-8" points="649.56 296.26 667.58 300.35 718.29 356.78 779.61 282.83 788.65 252.36 796.77 225.03"/><polyline class="cls-8" points="779.61 282.83 735.27 185.06 609.57 175.09"/></g><g id="Ebene_2"><path class="cls-4" d="m614.54,298.25c-4.32,4.32-9.31,7.32-14.63,10.31s-19.29,11.97-21.95,17.62-3.99,9.64-8.98,12.3-9.98,5.99-9.98,5.99l16.29,20.95.67,3.33,5.32,1.33s-.33,5.65-1.33,7.98,7.32,9.98,13.97,13.3,7.32,5.65,9.98,2,2.99-9.64,2.99-9.64c0,0,5.32,0,5.65-2.66s-2.66-7.98-2.66-7.98l7.32-4.66s19.95-5.65,26.27-7.98,7.65-4.99,11.97-12.3,7.65-12.97,7.98-13.97,1.33-6.32,1.33-6.32l4.99-4.99-5.32-5.32h-2.33l-3.66-2.99-2.66-8.65-6.65-.67-3.33-6.98-3.33,4.32-9.64-6.32-18.29,2Z"/><circle class="cls-6" cx="232.45" cy="545.94" r="4.3"/><circle class="cls-6" cx="259.38" cy="566.89" r="4.3"/><circle class="cls-6" cx="381.78" cy="549.32" r="4.3"/><circle class="cls-6" cx="418.34" cy="554.92" r="4.3"/><circle class="cls-6" cx="443.97" cy="550.97" r="4.3"/><circle class="cls-6" cx="503.82" cy="551.76" r="4.3"/><circle class="cls-6" cx="514.16" cy="519.53" r="4.3"/><circle class="cls-6" cx="718.12" cy="356.88" r="4.3"/><circle class="cls-6" cx="667.58" cy="300.35" r="4.3"/><circle class="cls-6" cx="646.6" cy="297.08" r="4.3"/><circle class="cls-6" cx="779.61" cy="282.83" r="4.3"/><circle class="cls-6" cx="788.65" cy="252.58" r="4.3"/><circle class="cls-6" cx="796.77" cy="225.03" r="4.3"/><circle class="cls-6" cx="735.27" cy="185.06" r="4.3"/><circle class="cls-6" cx="609.57" cy="175.09" r="4.3"/><g><path d="m336.02,347.16c0,1.52,1.18,2.11,2.53,2.11.88,0,2.23-.26,2.23-1.42,0-1.23-1.71-1.44-3.39-1.89-1.7-.45-3.41-1.1-3.41-3.25,0-2.34,2.21-3.46,4.27-3.46,2.38,0,4.58,1.04,4.58,3.68h-2.43c-.08-1.38-1.06-1.73-2.26-1.73-.8,0-1.73.34-1.73,1.3,0,.88.54.99,3.41,1.73.83.21,3.39.74,3.39,3.33,0,2.1-1.65,3.67-4.75,3.67-2.53,0-4.9-1.25-4.87-4.07h2.43Z"/><path d="m357.59,346.64c0,3.09-1.82,4.59-4.88,4.59s-4.87-1.49-4.87-4.59v-7.11h2.51v7.11c0,1.25.32,2.48,2.35,2.48,1.79,0,2.37-.78,2.37-2.48v-7.11h2.51v7.11Zm-7.6-10.26h2.16v1.87h-2.16v-1.87Zm3.3,0h2.16v1.87h-2.16v-1.87Z"/><path d="m362.95,339.53h4.93c2.96,0,5.19,1.86,5.19,5.65,0,3.31-1.7,5.78-5.19,5.78h-4.93v-11.43Zm2.51,9.32h2.24c1.46,0,2.85-.9,2.85-3.42,0-2.31-.8-3.78-3.3-3.78h-1.79v7.2Z"/><path d="m381.13,339.53h2.58l4.27,11.43h-2.61l-.86-2.54h-4.27l-.9,2.54h-2.54l4.34-11.43Zm-.24,7.01h2.96l-1.44-4.19h-.03l-1.49,4.19Z"/><path d="m392.17,339.53h8.04v2.11h-5.52v2.64h4.79v1.95h-4.79v4.72h-2.51v-11.43Z"/><path d="m404.85,339.53h6.16c2.05,0,3.35,1.42,3.35,3.15,0,1.34-.54,2.35-1.81,2.87v.03c1.23.32,1.58,1.52,1.66,2.67.05.72.03,2.06.48,2.71h-2.51c-.3-.72-.27-1.83-.4-2.74-.18-1.2-.64-1.73-1.9-1.73h-2.51v4.47h-2.51v-11.43Zm2.51,5.17h2.75c1.12,0,1.73-.48,1.73-1.63s-.61-1.58-1.73-1.58h-2.75v3.22Z"/><path d="m419.61,339.53h2.51v11.43h-2.51v-11.43Z"/><path d="m427.53,339.53h2.51v4.74l4.47-4.74h3.14l-4.47,4.51,4.9,6.92h-3.15l-3.44-5.14-1.44,1.46v3.68h-2.51v-11.43Z"/><path d="m445.4,339.53h2.58l4.27,11.43h-2.61l-.86-2.54h-4.27l-.9,2.54h-2.54l4.34-11.43Zm-.24,7.01h2.96l-1.44-4.19h-.03l-1.49,4.19Z"/></g><g><path d="m143.87,173.64h2.5l4.77,7.67h.03v-7.67h2.35v11.43h-2.51l-4.75-7.65h-.03v7.65h-2.35v-11.43Z"/><path d="m162.05,173.64h2.58l4.27,11.43h-2.61l-.86-2.54h-4.27l-.9,2.54h-2.54l4.34-11.43Zm-.24,7.01h2.96l-1.44-4.19h-.03l-1.49,4.19Z"/><path d="m173.08,173.64h3.54l2.67,7.86h.03l2.53-7.86h3.54v11.43h-2.35v-8.1h-.03l-2.8,8.1h-1.94l-2.8-8.02h-.03v8.02h-2.35v-11.43Z"/><path d="m190.8,173.64h2.51v11.43h-2.51v-11.43Z"/><path d="m198.72,173.64h5.38c2.18,0,3.65.7,3.65,2.83,0,1.12-.56,1.9-1.55,2.39,1.39.4,2.1,1.47,2.1,2.9,0,2.32-1.97,3.31-4.03,3.31h-5.54v-11.43Zm2.51,4.63h2.54c.88,0,1.54-.4,1.54-1.36,0-1.09-.83-1.31-1.73-1.31h-2.35v2.67Zm0,4.85h2.69c.99,0,1.86-.32,1.86-1.5s-.74-1.63-1.81-1.63h-2.74v3.14Z"/><path d="m213.18,173.64h2.51v11.43h-2.51v-11.43Z"/><path d="m224.22,173.64h2.58l4.27,11.43h-2.61l-.86-2.54h-4.27l-.9,2.54h-2.54l4.34-11.43Zm-.24,7.01h2.96l-1.44-4.19h-.03l-1.49,4.19Z"/></g><g><path d="m359.69,74.57h5.38c2.18,0,3.65.7,3.65,2.83,0,1.12-.56,1.9-1.55,2.39,1.39.4,2.1,1.47,2.1,2.9,0,2.32-1.97,3.31-4.03,3.31h-5.54v-11.43Zm2.51,4.63h2.54c.88,0,1.54-.4,1.54-1.36,0-1.09-.83-1.31-1.73-1.31h-2.35v2.67Zm0,4.85h2.69c.99,0,1.86-.32,1.86-1.5s-.74-1.63-1.81-1.63h-2.74v3.14Z"/><path d="m379.27,74.3c3.54,0,5.62,2.64,5.62,6.03s-2.08,5.94-5.62,5.94-5.62-2.64-5.62-5.94,2.08-6.03,5.62-6.03Zm0,9.86c2.26,0,3.1-1.92,3.1-3.83,0-2-.85-3.92-3.1-3.92s-3.11,1.92-3.11,3.92.85,3.83,3.11,3.83Z"/><path d="m392.33,76.68h-3.43v-2.11h9.36v2.11h-3.43v9.32h-2.51v-9.32Z"/><path d="m404.49,82.2c0,1.52,1.18,2.11,2.53,2.11.88,0,2.23-.26,2.23-1.42,0-1.23-1.71-1.44-3.39-1.89-1.7-.45-3.41-1.1-3.41-3.25,0-2.34,2.21-3.46,4.27-3.46,2.38,0,4.58,1.04,4.58,3.68h-2.43c-.08-1.38-1.06-1.73-2.26-1.73-.8,0-1.73.34-1.73,1.3,0,.88.54.99,3.41,1.73.83.21,3.39.74,3.39,3.33,0,2.1-1.65,3.67-4.75,3.67-2.53,0-4.9-1.25-4.87-4.07h2.43Z"/><path d="m427.24,86h-2.5l-1.94-7.78h-.03l-1.91,7.78h-2.54l-3.03-11.43h2.51l1.81,7.78h.03l1.99-7.78h2.35l1.95,7.88h.03l1.87-7.88h2.47l-3.07,11.43Z"/><path d="m437.78,74.57h2.58l4.27,11.43h-2.61l-.86-2.54h-4.27l-.9,2.54h-2.54l4.34-11.43Zm-.24,7.01h2.96l-1.44-4.19h-.03l-1.49,4.19Z"/><path d="m448.82,74.57h2.5l4.77,7.67h.03v-7.67h2.35v11.43h-2.51l-4.75-7.65h-.03v7.65h-2.35v-11.43Z"/><path d="m467,74.57h2.58l4.27,11.43h-2.61l-.86-2.54h-4.27l-.9,2.54h-2.54l4.34-11.43Zm-.24,7.01h2.96l-1.44-4.19h-.03l-1.49,4.19Z"/></g><g class="cls-9"><path d="m38.91,462.31h2.58l4.27,11.43h-2.61l-.86-2.54h-4.27l-.9,2.54h-2.54l4.34-11.43Zm-.24,7.01h2.96l-1.44-4.19h-.03l-1.49,4.19Z"/><path d="m52.48,464.43h-3.43v-2.11h9.36v2.11h-3.43v9.32h-2.51v-9.32Z"/><path d="m62.93,462.31h2.51v9.32h5.57v2.11h-8.08v-11.43Z"/><path d="m78.74,462.31h2.58l4.27,11.43h-2.61l-.86-2.54h-4.27l-.9,2.54h-2.54l4.34-11.43Zm-.24,7.01h2.96l-1.44-4.19h-.03l-1.49,4.19Z"/><path d="m89.78,462.31h2.5l4.77,7.67h.03v-7.67h2.35v11.43h-2.51l-4.75-7.65h-.03v7.65h-2.35v-11.43Z"/><path d="m107.36,464.43h-3.43v-2.11h9.36v2.11h-3.43v9.32h-2.51v-9.32Z"/><path d="m117.81,462.31h2.51v11.43h-2.51v-11.43Z"/><path d="m125.73,462.31h2.51v4.74l4.47-4.74h3.14l-4.47,4.51,4.9,6.91h-3.15l-3.44-5.14-1.44,1.46v3.68h-2.51v-11.43Z"/></g><g class="cls-9"><path d="m706.67,462.31h2.51v11.43h-2.51v-11.43Z"/><path d="m714.59,462.31h2.5l4.77,7.67h.03v-7.67h2.35v11.43h-2.51l-4.75-7.65h-.03v7.65h-2.35v-11.43Z"/><path d="m729.65,462.31h4.93c2.96,0,5.19,1.86,5.19,5.65,0,3.31-1.7,5.78-5.19,5.78h-4.93v-11.43Zm2.51,9.32h2.24c1.46,0,2.85-.9,2.85-3.43,0-2.3-.8-3.78-3.3-3.78h-1.79v7.2Z"/><path d="m744.7,462.31h2.51v11.43h-2.51v-11.43Z"/><path d="m754.34,469.95c0,1.52,1.18,2.11,2.53,2.11.88,0,2.23-.26,2.23-1.42,0-1.23-1.71-1.44-3.39-1.89-1.7-.45-3.41-1.1-3.41-3.25,0-2.34,2.21-3.46,4.27-3.46,2.38,0,4.58,1.04,4.58,3.68h-2.43c-.08-1.38-1.06-1.73-2.26-1.73-.8,0-1.73.34-1.73,1.3,0,.88.54.99,3.41,1.73.83.21,3.39.74,3.39,3.33,0,2.1-1.65,3.67-4.75,3.67-2.53,0-4.9-1.25-4.87-4.07h2.43Z"/><path d="m773.83,466.15c-.16-1.14-1.25-2-2.5-2-2.26,0-3.11,1.92-3.11,3.92s.85,3.83,3.11,3.83c1.54,0,2.4-1.06,2.59-2.56h2.43c-.26,2.85-2.22,4.67-5.03,4.67-3.54,0-5.62-2.64-5.62-5.94s2.08-6.03,5.62-6.03c2.51,0,4.63,1.47,4.93,4.11h-2.43Z"/><path d="m781.26,462.31h2.51v4.39h4.62v-4.39h2.51v11.43h-2.51v-4.93h-4.62v4.93h-2.51v-11.43Z"/><path d="m796.32,462.31h8.55v2.11h-6.04v2.45h5.54v1.95h-5.54v2.8h6.16v2.11h-8.68v-11.43Z"/><path d="m809.89,462.31h6.16c2.05,0,3.35,1.42,3.35,3.15,0,1.34-.54,2.35-1.81,2.87v.03c1.23.32,1.58,1.52,1.66,2.67.05.72.03,2.07.48,2.71h-2.51c-.3-.72-.27-1.82-.4-2.74-.18-1.2-.64-1.73-1.9-1.73h-2.51v4.47h-2.51v-11.43Zm2.51,5.17h2.75c1.12,0,1.73-.48,1.73-1.63s-.61-1.58-1.73-1.58h-2.75v3.22Z"/><path d="m734.78,481.24c3.54,0,5.62,2.64,5.62,6.03s-2.08,5.94-5.62,5.94-5.62-2.64-5.62-5.94,2.08-6.03,5.62-6.03Zm0,9.86c2.26,0,3.11-1.92,3.11-3.83,0-2-.85-3.92-3.11-3.92s-3.11,1.92-3.11,3.92.85,3.83,3.11,3.83Z"/><path d="m744.57,490.96l6.13-7.33h-5.65v-2.11h9v1.99l-6.13,7.33h6.29v2.11h-9.64v-1.98Z"/><path d="m758.87,481.51h8.55v2.11h-6.03v2.45h5.54v1.95h-5.54v2.8h6.16v2.11h-8.68v-11.43Z"/><path d="m775.56,481.51h2.58l4.27,11.43h-2.61l-.86-2.54h-4.27l-.9,2.54h-2.54l4.34-11.43Zm-.24,7.01h2.96l-1.44-4.19h-.03l-1.49,4.19Z"/><path d="m786.6,481.51h2.5l4.77,7.67h.03v-7.67h2.35v11.43h-2.51l-4.75-7.65h-.03v7.65h-2.35v-11.43Z"/></g><g><path d="m785.68,74.57h3.54l2.67,7.86h.03l2.53-7.86h3.54v11.43h-2.35v-8.1h-.03l-2.8,8.1h-1.94l-2.8-8.02h-.03v8.02h-2.35v-11.43Z"/><path d="m808.51,74.3c3.54,0,5.62,2.64,5.62,6.03s-2.08,5.94-5.62,5.94-5.62-2.64-5.62-5.94,2.08-6.03,5.62-6.03Zm0,9.86c2.26,0,3.1-1.92,3.1-3.83,0-2-.85-3.92-3.1-3.92s-3.11,1.92-3.11,3.92.85,3.83,3.11,3.83Z"/><path d="m820.75,82.2c0,1.52,1.18,2.11,2.53,2.11.88,0,2.23-.26,2.23-1.42,0-1.23-1.71-1.44-3.39-1.89-1.7-.45-3.41-1.1-3.41-3.25,0-2.34,2.21-3.46,4.27-3.46,2.38,0,4.58,1.04,4.58,3.68h-2.43c-.08-1.38-1.06-1.73-2.26-1.73-.8,0-1.73.34-1.73,1.3,0,.88.54.99,3.41,1.73.83.21,3.39.74,3.39,3.33,0,2.1-1.65,3.67-4.75,3.67-2.53,0-4.9-1.25-4.87-4.07h2.43Z"/><path d="m835.74,74.57h2.58l4.27,11.43h-2.61l-.86-2.54h-4.27l-.9,2.54h-2.54l4.34-11.43Zm-.24,7.01h2.96l-1.44-4.19h-.03l-1.49,4.19Z"/><path d="m846.78,74.57h3.54l2.67,7.86h.03l2.53-7.86h3.54v11.43h-2.35v-8.1h-.03l-2.8,8.1h-1.94l-2.8-8.02h-.03v8.02h-2.35v-11.43Z"/><path d="m864.5,74.57h5.38c2.18,0,3.65.7,3.65,2.83,0,1.12-.56,1.9-1.55,2.39,1.39.4,2.1,1.47,2.1,2.9,0,2.32-1.97,3.31-4.03,3.31h-5.54v-11.43Zm2.51,4.63h2.54c.88,0,1.54-.4,1.54-1.36,0-1.09-.83-1.31-1.73-1.31h-2.35v2.67Zm0,4.85h2.69c.99,0,1.86-.32,1.86-1.5s-.74-1.63-1.81-1.63h-2.74v3.14Z"/><path d="m878.96,74.57h2.51v11.43h-2.51v-11.43Z"/><path d="m886.88,74.57h2.51v4.74l4.47-4.74h3.14l-4.47,4.51,4.9,6.91h-3.15l-3.44-5.14-1.44,1.46v3.68h-2.51v-11.43Z"/></g><g><path d="m555.96,338.23h2.51v9.32h5.57v2.11h-8.08v-11.43Z"/><path d="m568.64,338.23h8.55v2.11h-6.03v2.45h5.54v1.95h-5.54v2.8h6.16v2.11h-8.68v-11.43Z"/><path d="m583.92,345.87c0,1.52,1.18,2.11,2.53,2.11.88,0,2.22-.26,2.22-1.42,0-1.23-1.71-1.44-3.39-1.89-1.7-.45-3.41-1.1-3.41-3.25,0-2.34,2.21-3.46,4.27-3.46,2.38,0,4.58,1.04,4.58,3.68h-2.43c-.08-1.38-1.06-1.73-2.26-1.73-.8,0-1.73.34-1.73,1.3,0,.88.54.99,3.41,1.73.83.21,3.39.74,3.39,3.33,0,2.1-1.65,3.67-4.75,3.67-2.53,0-4.9-1.25-4.87-4.07h2.43Z"/><path d="m600.92,337.96c3.54,0,5.62,2.64,5.62,6.03s-2.08,5.94-5.62,5.94-5.62-2.64-5.62-5.94,2.08-6.03,5.62-6.03Zm0,9.86c2.26,0,3.11-1.92,3.11-3.83,0-2-.85-3.92-3.11-3.92s-3.11,1.92-3.11,3.92.85,3.83,3.11,3.83Z"/><path d="m613.97,340.35h-3.43v-2.11h9.36v2.11h-3.43v9.32h-2.51v-9.32Z"/><path d="m624.42,338.23h2.51v4.39h4.63v-4.39h2.51v11.43h-2.51v-4.93h-4.63v4.93h-2.51v-11.43Z"/><path d="m644.6,337.96c3.54,0,5.62,2.64,5.62,6.03s-2.08,5.94-5.62,5.94-5.62-2.64-5.62-5.94,2.08-6.03,5.62-6.03Zm0,9.86c2.26,0,3.11-1.92,3.11-3.83,0-2-.85-3.92-3.11-3.92s-3.11,1.92-3.11,3.92.85,3.83,3.11,3.83Z"/></g><g><path d="m755.46,203.58c0,1.52,1.18,2.11,2.53,2.11.88,0,2.22-.26,2.22-1.42,0-1.23-1.71-1.44-3.39-1.89-1.7-.45-3.41-1.1-3.41-3.25,0-2.34,2.21-3.46,4.27-3.46,2.38,0,4.58,1.04,4.58,3.68h-2.43c-.08-1.38-1.06-1.73-2.26-1.73-.8,0-1.73.34-1.73,1.3,0,.88.54.99,3.41,1.73.83.21,3.39.74,3.39,3.33,0,2.1-1.65,3.67-4.75,3.67-2.53,0-4.9-1.25-4.87-4.07h2.43Z"/><path d="m778.22,207.38h-2.5l-1.94-7.78h-.03l-1.91,7.78h-2.54l-3.03-11.43h2.51l1.81,7.78h.03l1.98-7.78h2.35l1.95,7.88h.03l1.87-7.88h2.46l-3.07,11.43Z"/><path d="m788.76,195.95h2.58l4.27,11.43h-2.61l-.86-2.54h-4.27l-.9,2.54h-2.54l4.34-11.43Zm-.24,7.01h2.96l-1.44-4.19h-.03l-1.49,4.19Z"/><path d="m799.06,205.39l6.13-7.33h-5.65v-2.11h9v1.98l-6.13,7.33h6.29v2.11h-9.64v-1.98Z"/><path d="m813.36,195.95h2.51v11.43h-2.51v-11.43Z"/><path d="m821.28,195.95h2.51v9.32h5.57v2.11h-8.08v-11.43Z"/><path d="m837.09,195.95h2.58l4.27,11.43h-2.61l-.86-2.54h-4.27l-.9,2.54h-2.54l4.34-11.43Zm-.24,7.01h2.96l-1.44-4.19h-.03l-1.49,4.19Z"/><path d="m848.13,195.95h2.5l4.77,7.67h.03v-7.67h2.35v11.43h-2.51l-4.75-7.65h-.03v7.65h-2.35v-11.43Z"/><path d="m863.19,195.95h4.93c2.96,0,5.19,1.86,5.19,5.65,0,3.31-1.7,5.78-5.19,5.78h-4.93v-11.43Zm2.51,9.32h2.24c1.46,0,2.85-.9,2.85-3.43,0-2.31-.8-3.78-3.3-3.78h-1.79v7.2Z"/></g><g><path d="m162.76,550.97v-12h2.24v5.33h.03c.35-.94.93-2,1.41-2.88l1.31-2.45h2.53l-2.96,5.15,3.1,6.85h-2.53l-2.11-4.74-.78,1.3v3.44h-2.24Z"/><path d="m176.28,550.97c-.14-.29-.16-.61-.13-.93h-.03c-.24.37-.51.67-.83.86-.3.19-.64.3-.99.3-1.68,0-2.42-.85-2.42-2.71,0-2.07,1.46-2.56,3.09-3.23.88-.37,1.2-.77,1.02-1.5-.1-.4-.42-.46-.98-.46-.94,0-1.1.5-1.09,1.31h-1.98c-.02-1.71.54-2.91,3.15-2.91,2.83,0,3.01,1.49,2.98,2.67v5.33c0,.43.06.85.18,1.26h-1.97Zm-.29-4.75c-.51.35-1.14.7-1.68,1.15-.3.26-.35.7-.35,1.09,0,.69.21,1.15.98,1.15,1.23,0,1.01-1.55,1.06-2.42v-.98Z"/><path d="m182.85,542.88h.03c.38-.88.94-1.2,1.81-1.18,1.34.03,2.11.75,2.16,3.23v3.26c-.05,1.44-.4,3.01-2.16,3.01-.82-.05-1.39-.26-1.9-1.17h-.03v3.95h-1.98v-12.05h2.08v.94Zm0,5.12c0,1.04.34,1.6,1.01,1.6s.86-.69.91-1.55v-3.01c-.06-.9.03-1.74-.94-1.74s-1.01,1.28-.98,2v2.71Z"/><path d="m191.03,547.99c-.16,1.67.48,1.62.96,1.62.59,0,1.01-.43.86-1.01-.03-.51-.62-.8-1.02-1.07l-1.14-.78c-1.04-.72-1.71-1.55-1.71-2.85,0-1.39,1.1-2.19,3.11-2.19s2.95,1.06,2.9,2.99h-2.08c.05-1.01-.24-1.39-.96-1.39-.5,0-.88.22-.88.74s.38.77.78,1.04l1.7,1.15c.53.3,1.36,1.17,1.42,1.78.18,1.57-.21,3.2-3.09,3.2-1.1,0-3.17-.46-2.93-3.22h2.08Z"/><path d="m200.26,551c-1.23.14-2.96.26-2.96-1.42v-6.11h-.85v-1.52h.83v-2.48h2.1v2.48h.88v1.52h-.88v5.6c.05.38.62.34.88.3v1.63Z"/><path d="m206.39,550.97c-.14-.29-.16-.61-.13-.93h-.03c-.24.37-.51.67-.83.86-.3.19-.64.3-.99.3-1.68,0-2.42-.85-2.42-2.71,0-2.07,1.46-2.56,3.09-3.23.88-.37,1.2-.77,1.02-1.5-.1-.4-.42-.46-.98-.46-.94,0-1.1.5-1.09,1.31h-1.98c-.02-1.71.54-2.91,3.15-2.91,2.83,0,3.01,1.49,2.98,2.67v5.33c0,.43.06.85.18,1.26h-1.97Zm-.29-4.75c-.51.35-1.14.7-1.68,1.15-.3.26-.35.7-.35,1.09,0,.69.21,1.15.98,1.15,1.23,0,1.01-1.55,1.06-2.42v-.98Z"/><path d="m214.81,550.01h-.03c-.4.91-.98,1.15-1.79,1.2-1.76,0-2.13-1.6-2.18-3.04v-3.27c.05-2.48.83-3.17,2.18-3.2.88-.02,1.44.29,1.86,1.15h.03c-.05-.27-.06-.53-.06-.8v-3.09h2.08v12h-2.08v-.96Zm0-4.71c.03-.72,0-2-.98-2s-.88.85-.94,1.74v3.01c.05.86.27,1.55.91,1.55s1.01-.56,1.01-1.6v-2.71Z"/><path d="m222.63,551c-1.23.14-2.96.26-2.96-1.42v-6.11h-.85v-1.52h.83v-2.48h2.1v2.48h.88v1.52h-.88v5.6c.05.38.62.34.88.3v1.63Z"/></g><g><path d="m192.02,585.55v-12h2.24v4.75h3.14v-4.75h2.24v12h-2.24v-5.49h-3.14v5.49h-2.24Z"/><path d="m202.2,579.63c-.1-2.13.99-3.34,3.04-3.34,2.9,0,3.2,1.5,3.2,3.97v1.22h-4.16v1.31c.02,1.18.46,1.41,1.09,1.41.77,0,.99-.56.96-1.7h2.08c.08,2.02-.75,3.3-2.88,3.3-2.4,0-3.38-1.14-3.33-3.79v-2.37Zm4.16.24v-.78c-.02-.91-.26-1.2-1.09-1.2-1.04,0-.99.8-.99,1.62v.37h2.08Z"/><path d="m212.95,578.12h.03c.26-.66.51-1.02.82-1.28.59-.5.99-.46,1.3-.48v2.46c-1.15-.11-2.03.18-2.06,1.5v5.22h-2.08v-9.03h2v1.6Z"/><path d="m219.09,577.45h.03c.46-.99,1.31-1.14,1.98-1.17.77-.02,1.79.32,1.92,1.17h.03c.4-.78,1.06-1.17,2.08-1.17,1.54,0,2.21.96,2.21,1.92v7.35h-2.08v-6.1c0-.82-.08-1.62-.99-1.57-.9.05-1.06.67-1.06,1.73v5.94h-2.08v-6.21c0-.8-.06-1.47-1.02-1.46-.98.02-1.02.74-1.02,1.73v5.94h-2.08v-9.03h2.08v.93Z"/><path d="m234.12,585.55c-.14-.29-.16-.61-.13-.93h-.03c-.24.37-.51.67-.83.86-.3.19-.64.3-.99.3-1.68,0-2.42-.85-2.42-2.71,0-2.07,1.46-2.56,3.09-3.23.88-.37,1.2-.77,1.02-1.5-.1-.4-.42-.46-.98-.46-.94,0-1.1.5-1.09,1.31h-1.98c-.02-1.71.54-2.91,3.15-2.91,2.83,0,3.01,1.49,2.98,2.67v5.33c0,.43.06.85.18,1.26h-1.97Zm-.29-4.75c-.51.35-1.14.7-1.68,1.15-.3.26-.35.7-.35,1.09,0,.69.21,1.15.98,1.15,1.23,0,1.01-1.55,1.06-2.42v-.98Z"/><path d="m240.74,577.45h.03c.46-1.04,1.39-1.17,1.87-1.17,1.18,0,2.15.69,2.08,2.3v6.96h-2.08v-6.02c0-.88-.1-1.46-.88-1.49-.78-.03-1.06.7-1.02,1.66v5.84h-2.08v-9.03h2.08v.93Z"/><path d="m251.24,584.21h-.03c-.32,1.07-.93,1.57-1.94,1.58-1.65,0-2.02-.85-2.02-2.35v-6.91h2.08v6.18c0,.4-.02.85.21,1.2.18.19.37.29.64.29.98,0,.96-1.1.96-1.81v-5.86h2.08v9.03h-1.98v-1.34Z"/><path d="m257.51,582.57c-.16,1.67.48,1.62.96,1.62.59,0,1.01-.43.86-1.01-.03-.51-.62-.8-1.02-1.07l-1.14-.78c-1.04-.72-1.71-1.55-1.71-2.85,0-1.39,1.1-2.19,3.11-2.19s2.95,1.06,2.9,2.99h-2.08c.05-1.01-.24-1.39-.96-1.39-.5,0-.88.22-.88.74s.38.77.78,1.04l1.7,1.15c.53.3,1.36,1.17,1.42,1.78.18,1.57-.21,3.2-3.09,3.2-1.1,0-3.17-.46-2.93-3.22h2.08Z"/></g><g><path d="m308.81,533.54c.22,1.2.34,2.74.5,4.27h.03c.03-.29.05-.58.08-.86.08-1.02.18-2.05.34-3.07l.9-6.55h2.32l-2.23,12h-2.69l-.9-4.74c-.24-1.26-.32-2.54-.48-3.83h-.03c-.16,1.28-.24,2.56-.48,3.83l-.8,4.74h-2.69l-2.29-12h2.32l1.01,6.55c.16,1.02.26,2.05.34,3.07.03.29.05.58.06.86h.03c.18-1.54.29-3.07.51-4.27l1.09-6.21h1.86l1.2,6.21Z"/><path d="m315.16,529.22v-1.89h2.08v1.89h-2.08Zm0,10.12v-9.03h2.08v9.03h-2.08Z"/><path d="m320.25,539.33v-12h2.08v12h-2.08Z"/><path d="m329,538.37h-.03c-.4.91-.98,1.15-1.79,1.2-1.76,0-2.13-1.6-2.18-3.04v-3.27c.05-2.48.83-3.17,2.18-3.2.88-.02,1.44.29,1.86,1.15h.03c-.05-.27-.06-.53-.06-.8v-3.09h2.08v12h-2.08v-.96Zm0-4.71c.03-.72,0-2-.98-2s-.88.85-.94,1.74v3.01c.05.86.27,1.55.91,1.55s1.01-.56,1.01-1.6v-2.71Z"/><path d="m333.64,533.41c-.1-2.13.99-3.34,3.04-3.34,2.9,0,3.2,1.5,3.2,3.97v1.22h-4.16v1.31c.02,1.18.46,1.41,1.09,1.41.77,0,.99-.56.96-1.7h2.08c.08,2.02-.75,3.3-2.88,3.3-2.4,0-3.38-1.14-3.33-3.79v-2.37Zm4.16.24v-.78c-.02-.91-.26-1.2-1.09-1.2-1.04,0-.99.8-.99,1.62v.37h2.08Z"/><path d="m344.39,531.91h.03c.26-.66.51-1.02.82-1.28.59-.5.99-.46,1.3-.48v2.46c-1.15-.11-2.03.18-2.06,1.5v5.22h-2.08v-9.03h2v1.6Z"/><path d="m350.46,531.23h.03c.46-1.04,1.39-1.17,1.87-1.17,1.18,0,2.15.69,2.08,2.3v6.96h-2.08v-6.02c0-.88-.1-1.46-.88-1.49-.78-.03-1.06.7-1.02,1.66v5.84h-2.08v-9.03h2.08v.93Z"/><path d="m356.89,533.41c-.1-2.13.99-3.34,3.04-3.34,2.9,0,3.2,1.5,3.2,3.97v1.22h-4.16v1.31c.02,1.18.46,1.41,1.09,1.41.77,0,.99-.56.96-1.7h2.08c.08,2.02-.75,3.3-2.88,3.3-2.4,0-3.38-1.14-3.33-3.79v-2.37Zm4.16.24v-.78c-.02-.91-.26-1.2-1.09-1.2-1.04,0-.99.8-.99,1.62v.37h2.08Z"/><path d="m367.22,536.36c-.16,1.67.48,1.62.96,1.62.59,0,1.01-.43.86-1.01-.03-.51-.62-.8-1.02-1.07l-1.14-.78c-1.04-.72-1.71-1.55-1.71-2.85,0-1.39,1.1-2.19,3.11-2.19s2.95,1.06,2.9,2.99h-2.08c.05-1.01-.24-1.39-.96-1.39-.5,0-.88.22-.88.74s.38.77.78,1.04l1.7,1.15c.53.3,1.36,1.17,1.42,1.78.18,1.57-.21,3.2-3.09,3.2-1.1,0-3.17-.46-2.93-3.22h2.08Z"/><path d="m374.97,536.36c-.16,1.67.48,1.62.96,1.62.59,0,1.01-.43.86-1.01-.03-.51-.62-.8-1.02-1.07l-1.14-.78c-1.04-.72-1.71-1.55-1.71-2.85,0-1.39,1.1-2.19,3.11-2.19s2.95,1.06,2.9,2.99h-2.08c.05-1.01-.24-1.39-.96-1.39-.5,0-.88.22-.88.74s.38.77.78,1.04l1.7,1.15c.53.3,1.36,1.17,1.42,1.78.18,1.57-.21,3.2-3.09,3.2-1.1,0-3.17-.46-2.93-3.22h2.08Z"/></g><g><path d="m445.33,564.9c.02-1.07-.08-2.13-1.31-2.13-.75,0-1.23.3-1.23,1.12,0,.91.58,1.26,1.28,1.71.74.46,2.1,1.36,2.72,1.97.77.75,1.01,1.47,1.01,2.51,0,2.27-1.5,3.46-3.7,3.46-2.69,0-3.65-1.5-3.65-3.65v-.88h2.24v.71c-.05,1.17.3,2.02,1.41,2.02.94,0,1.39-.5,1.39-1.41,0-.71-.32-1.18-.9-1.58-1.17-.91-2.63-1.57-3.54-2.77-.37-.54-.58-1.2-.58-1.84,0-2.05,1.15-3.17,3.52-3.17,3.57,0,3.47,2.75,3.49,3.94h-2.16Z"/><path d="m453.24,573.29c-1.23.14-2.96.26-2.96-1.42v-6.11h-.85v-1.52h.83v-2.48h2.1v2.48h.88v1.52h-.88v5.6c.05.38.62.34.88.3v1.63Z"/><path d="m455.14,569.06c.02-3.09.05-5.07,3.19-5.07s3.1,1.98,3.12,5.07c.02,3.14-.43,4.48-3.12,4.43-2.74.05-3.2-1.3-3.19-4.43Zm2.08,1.25c0,1.1.1,1.58,1.1,1.58s1.04-.48,1.04-1.58v-3.01c0-.85,0-1.71-1.04-1.71-1.1,0-1.1.86-1.1,1.71v3.01Z"/><path d="m465.89,565.83h.03c.26-.66.51-1.02.82-1.28.59-.5.99-.46,1.3-.48v2.46c-1.15-.11-2.03.18-2.06,1.5v5.22h-2.08v-9.03h2v1.6Z"/><path d="m472.03,565.15h.03c.46-.99,1.31-1.14,1.98-1.17.77-.02,1.79.32,1.92,1.17h.03c.4-.78,1.06-1.17,2.08-1.17,1.54,0,2.21.96,2.21,1.92v7.35h-2.08v-6.1c0-.82-.08-1.62-.99-1.57-.9.05-1.06.67-1.06,1.73v5.94h-2.08v-6.21c0-.8-.06-1.47-1.02-1.46-.98.02-1.02.74-1.02,1.73v5.94h-2.08v-9.03h2.08v.93Z"/><path d="m484.53,570.28c-.16,1.67.48,1.62.96,1.62.59,0,1.01-.43.86-1.01-.03-.51-.62-.8-1.02-1.07l-1.14-.78c-1.04-.72-1.71-1.55-1.71-2.85,0-1.39,1.1-2.19,3.11-2.19s2.94,1.06,2.9,2.99h-2.08c.05-1.01-.24-1.39-.96-1.39-.5,0-.88.22-.88.74s.38.77.78,1.04l1.7,1.15c.53.3,1.36,1.17,1.42,1.78.18,1.57-.21,3.2-3.09,3.2-1.1,0-3.17-.46-2.93-3.22h2.08Z"/><path d="m442.96,587.28v5.17h-2.24v-12h4.24c1.94,0,3.41.67,3.41,2.88,0,1.31-.34,2.69-1.84,2.9v.03c1.33.18,1.73,1.02,1.73,2.18,0,.5-.06,3.44.48,3.79v.22h-2.46c-.27-.77-.22-2.24-.24-3.04-.02-.74,0-1.75-.77-1.97-.61-.18-1.26-.16-1.9-.16h-.4Zm0-1.76h1.76c.74-.05,1.31-.53,1.31-1.73,0-1.34-.56-1.57-1.41-1.58h-1.66v3.31Z"/><path d="m451.27,582.34v-1.89h2.08v1.89h-2.08Zm0,10.12v-9.03h2.08v9.03h-2.08Z"/><path d="m455.33,583.43h2.24l.88,5.06c.18.82.26,2.24.29,2.67h.03c.03-.43.11-1.86.29-2.67l.9-5.06h2.16l-2.08,9.03h-2.59l-2.11-9.03Z"/><path d="m463.76,586.53c-.1-2.13.99-3.34,3.04-3.34,2.9,0,3.2,1.5,3.2,3.97v1.22h-4.16v1.31c.02,1.18.46,1.41,1.09,1.41.77,0,.99-.56.96-1.7h2.08c.08,2.02-.75,3.3-2.88,3.3-2.4,0-3.38-1.14-3.33-3.79v-2.37Zm4.16.24v-.78c-.02-.91-.26-1.2-1.09-1.2-1.04,0-.99.8-.99,1.62v.37h2.08Z"/><path d="m474.51,585.03h.03c.26-.66.51-1.02.82-1.28.59-.5.99-.46,1.3-.48v2.46c-1.15-.11-2.03.18-2.06,1.5v5.22h-2.08v-9.03h2v1.6Z"/></g><g><path d="m341.76,577.68v-12h4.58c2.14,0,2.8,1.73,2.8,3.41,0,1.02-.27,2.18-1.12,2.85-.7.56-1.65.74-2.51.72h-1.5v5.03h-2.24Zm2.24-6.79h1.2c.98,0,1.63-.42,1.63-1.87,0-1.38-.54-1.58-1.81-1.58h-1.02v3.46Z"/><path d="m351.39,577.68v-12h2.08v12h-2.08Z"/><path d="m356.14,571.76c-.1-2.13.99-3.34,3.04-3.34,2.9,0,3.2,1.5,3.2,3.97v1.22h-4.16v1.31c.02,1.18.46,1.41,1.09,1.41.77,0,.99-.56.96-1.7h2.08c.08,2.02-.75,3.3-2.88,3.3-2.4,0-3.38-1.14-3.33-3.79v-2.37Zm4.16.24v-.78c-.02-.91-.26-1.2-1.09-1.2-1.04,0-.99.8-.99,1.62v.37h2.08Z"/><path d="m367.97,577.71c-1.23.14-2.96.26-2.96-1.42v-6.11h-.85v-1.52h.83v-2.48h2.1v2.48h.88v1.52h-.88v5.6c.05.38.62.34.88.3v1.63Z"/><path d="m373.05,577.71c-1.23.14-2.96.26-2.96-1.42v-6.11h-.85v-1.52h.83v-2.48h2.1v2.48h.88v1.52h-.88v5.6c.05.38.62.34.88.3v1.63Z"/><path d="m374.96,571.76c-.1-2.13.99-3.34,3.04-3.34,2.9,0,3.2,1.5,3.2,3.97v1.22h-4.16v1.31c.02,1.18.46,1.41,1.09,1.41.77,0,.99-.56.96-1.7h2.08c.08,2.02-.75,3.3-2.88,3.3-2.4,0-3.38-1.14-3.33-3.79v-2.37Zm4.16.24v-.78c-.02-.91-.26-1.2-1.09-1.2-1.04,0-.99.8-.99,1.62v.37h2.08Z"/><path d="m385.81,569.58h.03c.46-1.04,1.39-1.17,1.87-1.17,1.18,0,2.15.69,2.08,2.3v6.96h-2.08v-6.02c0-.88-.1-1.46-.88-1.49-.78-.03-1.06.7-1.02,1.66v5.84h-2.08v-9.03h2.08v.93Z"/><path d="m392.41,565.68h2.08v2.88c0,.29-.03.58-.05,1.01h.03c.42-.86.98-1.17,1.86-1.15,1.34.03,2.11.72,2.16,3.2v3.27c-.05,1.44-.4,3.04-2.16,3.04-.86-.05-1.44-.3-1.9-1.2h-.03v.96h-1.98v-12Zm2.08,9.04c0,1.04.34,1.6,1.01,1.6s.86-.69.91-1.55v-3.01c-.06-.9.03-1.74-.94-1.74s-1.01,1.28-.98,2v2.71Z"/><path d="m400.88,571.76c-.1-2.13.99-3.34,3.04-3.34,2.9,0,3.2,1.5,3.2,3.97v1.22h-4.16v1.31c.02,1.18.46,1.41,1.09,1.41.77,0,.99-.56.96-1.7h2.08c.08,2.02-.75,3.3-2.88,3.3-2.4,0-3.38-1.14-3.33-3.79v-2.37Zm4.16.24v-.78c-.02-.91-.26-1.2-1.09-1.2-1.04,0-.99.8-.99,1.62v.37h2.08Z"/><path d="m411.63,570.25h.03c.26-.66.51-1.02.82-1.28.59-.5.99-.46,1.3-.48v2.46c-1.15-.11-2.03.18-2.06,1.5v5.22h-2.08v-9.03h2v1.6Z"/><path d="m417.66,578.69c0,.19.1.32.24.4.16.1.38.13.64.13.88,0,1.04-.7,1.04-1.41v-1.04l-.03-.03c-.42.86-1.01,1.14-1.9,1.18-1.76,0-2.11-1.58-2.16-3.03v-3.27c.05-2.48.82-3.18,2.16-3.22.94-.02,1.52.35,1.81,1.17h.03v-.93h2.08v8.75c0,1.84-.51,3.31-3.36,3.31-1.38,0-2.51-.51-2.62-2.03h2.08Zm.85-8.68c-.98,0-.88.85-.94,1.74v3.01c.05.86.27,1.55.91,1.55.67,0,1.01-.56,1.01-1.6v-2.71c.03-.72,0-2-.98-2Z"/><path d="m398.4,596.88v-12h3.62c.96,0,1.9.06,2.55.88.51.66.59,1.34.59,2.16,0,1.04-.22,2.07-1.44,2.51v.03c1.26.18,1.74,1.23,1.74,2.79,0,.5-.03.99-.16,1.47-.48,1.52-1.34,2.16-2.94,2.16h-3.95Zm2.66-7.16c.54,0,1.25.03,1.6-.42.21-.3.24-.72.24-1.3,0-.9-.19-1.34-1.22-1.38h-1.04v3.09h.42Zm.06,5.39c.46,0,.94.05,1.34-.13.61-.27.69-1.06.69-1.67,0-1.3-.26-1.84-1.65-1.84h-.86v3.63h.48Z"/><path d="m411.97,596.88c-.14-.29-.16-.61-.13-.93h-.03c-.24.37-.51.67-.83.86-.3.19-.64.3-.99.3-1.68,0-2.42-.85-2.42-2.71,0-2.07,1.46-2.56,3.09-3.23.88-.37,1.2-.77,1.02-1.5-.1-.4-.42-.46-.98-.46-.94,0-1.1.5-1.09,1.31h-1.98c-.02-1.71.54-2.91,3.15-2.91,2.83,0,3.01,1.49,2.98,2.67v5.33c0,.43.06.85.18,1.26h-1.97Zm-.29-4.75c-.51.35-1.14.7-1.68,1.15-.3.26-.35.7-.35,1.09,0,.69.21,1.15.98,1.15,1.23,0,1.01-1.55,1.06-2.42v-.98Z"/><path d="m417.81,587.85l.91,4.79c.14.8.22,1.6.3,2.4h.03c.06-.78.18-1.57.32-2.34l.91-4.85h2.11l-2.19,9.16c-.53,2.05-.58,3.33-3.46,2.91v-1.62c.34,0,1.23.18,1.23-.4,0-.32-.11-.83-.19-1.15l-2.18-8.9h2.19Z"/></g><g><path d="m512.59,564.82v-12h4.58c2.14,0,2.8,1.73,2.8,3.41,0,1.02-.27,2.18-1.12,2.85-.71.56-1.65.74-2.51.72h-1.5v5.03h-2.24Zm2.24-6.79h1.2c.98,0,1.63-.42,1.63-1.87,0-1.38-.54-1.58-1.81-1.58h-1.02v3.46Z"/><path d="m521.89,560.63c.02-3.09.05-5.07,3.19-5.07s3.1,1.98,3.12,5.07c.02,3.14-.43,4.48-3.12,4.43-2.74.05-3.2-1.3-3.19-4.43Zm2.08,1.25c0,1.1.1,1.58,1.1,1.58s1.04-.48,1.04-1.58v-3.01c0-.85,0-1.71-1.04-1.71-1.1,0-1.1.86-1.1,1.71v3.01Z"/><path d="m532.64,557.4h.03c.26-.66.51-1.02.82-1.28.59-.5.99-.46,1.3-.48v2.46c-1.15-.11-2.03.18-2.07,1.5v5.22h-2.08v-9.03h2v1.6Z"/><path d="m539.68,564.86c-1.23.14-2.96.26-2.96-1.42v-6.11h-.85v-1.52h.83v-2.48h2.1v2.48h.88v1.52h-.88v5.6c.05.38.62.34.88.3v1.63Z"/><path d="m546.4,564.82v-12h6.31v1.76h-4.07v3.03h3.75v1.76h-3.75v3.7h4.07v1.76h-6.31Z"/><path d="m555.2,564.82v-12h2.08v12h-2.08Z"/><path d="m560.29,554.71v-1.89h2.08v1.89h-2.08Zm0,10.12v-9.03h2.08v9.03h-2.08Z"/><path d="m566.77,563.22h3.3v1.6h-5.51v-1.63l3.17-5.79h-3.11v-1.6h5.44v1.49l-3.3,5.94Z"/><path d="m576.13,564.82c-.14-.29-.16-.61-.13-.93h-.03c-.24.37-.51.67-.83.86-.3.19-.64.3-.99.3-1.68,0-2.42-.85-2.42-2.71,0-2.07,1.46-2.56,3.09-3.23.88-.37,1.2-.77,1.02-1.5-.1-.4-.42-.46-.98-.46-.94,0-1.1.5-1.09,1.31h-1.99c-.02-1.71.54-2.91,3.15-2.91,2.83,0,3.01,1.49,2.98,2.67v5.33c0,.43.06.85.18,1.26h-1.97Zm-.29-4.75c-.51.35-1.14.7-1.68,1.15-.3.26-.35.7-.35,1.09,0,.69.21,1.15.98,1.15,1.23,0,1.01-1.55,1.06-2.42v-.98Z"/><path d="m580.72,552.82h2.08v2.88c0,.29-.03.58-.05,1.01h.03c.42-.86.98-1.17,1.86-1.15,1.34.03,2.11.72,2.16,3.2v3.27c-.05,1.44-.4,3.04-2.16,3.04-.86-.05-1.44-.3-1.9-1.2h-.03v.96h-1.98v-12Zm2.08,9.04c0,1.04.34,1.6,1.01,1.6s.86-.69.91-1.55v-3.01c-.06-.9.03-1.74-.94-1.74s-1.01,1.28-.98,2v2.71Z"/><path d="m589.18,558.9c-.1-2.13.99-3.34,3.04-3.34,2.9,0,3.2,1.5,3.2,3.97v1.22h-4.16v1.31c.02,1.18.46,1.41,1.09,1.41.77,0,.99-.56.96-1.7h2.08c.08,2.02-.75,3.3-2.88,3.3-2.4,0-3.38-1.14-3.33-3.79v-2.37Zm4.16.24v-.78c-.02-.91-.26-1.2-1.09-1.2-1.04,0-.99.8-.99,1.62v.37h2.08Z"/><path d="m601.01,564.86c-1.23.14-2.96.26-2.96-1.42v-6.11h-.85v-1.52h.83v-2.48h2.1v2.48h.88v1.52h-.88v5.6c.05.38.62.34.88.3v1.63Z"/><path d="m603.04,564.82v-12h2.08v3.91h.03c.59-1.06,1.42-1.17,1.87-1.17,1.18,0,2.14.69,2.08,2.3v6.96h-2.08v-6.18c0-.88-.1-1.46-.88-1.49s-1.06.7-1.02,1.67v6h-2.08Z"/></g><g><path d="m467.09,515.03l2.15-9h2.27l2.04,9h-1.8l-.44-2.28h-1.97l-.44,2.28h-1.8Zm2.51-3.6h1.44l-.46-2.55c-.08-.42-.12-.83-.17-1.25-.01-.2-.04-.41-.06-.6h-.02c-.02.19-.05.4-.06.6-.05.42-.08.83-.17,1.25l-.5,2.55Z"/><path d="m477.77,514.31h-.02c-.3.68-.73.86-1.34.9-1.32,0-1.6-1.2-1.63-2.28v-2.45c.04-1.86.62-2.37,1.63-2.4.66-.01,1.08.22,1.39.86h.02c-.04-.2-.05-.4-.05-.6v-2.31h1.56v9h-1.56v-.72Zm0-3.53c.02-.54,0-1.5-.73-1.5s-.66.64-.71,1.31v2.25c.04.65.2,1.16.68,1.16.5,0,.76-.42.76-1.2v-2.03Z"/><path d="m484.25,514.31h-.02c-.3.68-.73.86-1.34.9-1.32,0-1.59-1.2-1.63-2.28v-2.45c.04-1.86.62-2.37,1.63-2.4.66-.01,1.08.22,1.39.86h.02c-.04-.2-.05-.4-.05-.6v-2.31h1.56v9h-1.56v-.72Zm0-3.53c.02-.54,0-1.5-.73-1.5s-.66.64-.71,1.31v2.25c.04.65.2,1.16.68,1.16.5,0,.76-.42.76-1.2v-2.03Z"/><path d="m487.73,511.89c.01-2.31.04-3.8,2.39-3.8s2.33,1.49,2.34,3.8c.01,2.35-.32,3.36-2.34,3.32-2.05.04-2.4-.97-2.39-3.32Zm1.56.94c0,.83.07,1.19.83,1.19s.78-.36.78-1.19v-2.25c0-.64,0-1.28-.78-1.28-.83,0-.83.65-.83,1.28v2.25Z"/><path d="m501.89,506.04h1.68v9h-1.75l-1.31-3.2c-.44-1.07-.8-2.16-1.2-3.57h-.02c.06.74.13,1.66.18,2.57.05.9.08,1.8.08,2.52v1.69h-1.68v-9h1.74l1.31,3.27c.43,1.04.79,2.11,1.2,3.57h.02c-.06-.82-.12-1.69-.17-2.55-.05-.86-.08-1.73-.08-2.53v-1.76Z"/><path d="m505.68,515.03v-9h3.43c1.61,0,2.1,1.29,2.1,2.55,0,.77-.2,1.63-.84,2.13-.53.42-1.24.55-1.88.54h-1.13v3.77h-1.68Zm1.68-5.08h.9c.73,0,1.22-.31,1.22-1.4,0-1.03-.41-1.19-1.36-1.19h-.77v2.59Z"/></g><g><path d="m695.14,254.2v-1.42h1.56v1.42h-1.56Zm0,7.58v-6.76h1.56v6.76h-1.56Z"/><path d="m702.31,255.52c.01-.8-.06-1.59-.98-1.59-.56,0-.92.23-.92.84,0,.68.43.95.96,1.28.55.35,1.57,1.02,2.04,1.47.58.56.76,1.1.76,1.88,0,1.7-1.13,2.59-2.77,2.59-2.01,0-2.73-1.13-2.73-2.73v-.66h1.68v.53c-.04.88.23,1.51,1.06,1.51.71,0,1.04-.37,1.04-1.05,0-.53-.24-.89-.67-1.19-.88-.68-1.97-1.18-2.65-2.08-.28-.41-.43-.9-.43-1.38,0-1.54.86-2.38,2.64-2.38,2.67,0,2.6,2.06,2.62,2.95h-1.62Z"/><path d="m706.11,254.2v-1.42h1.56v1.42h-1.56Zm0,7.58v-6.76h1.56v6.76h-1.56Z"/><path d="m711.39,255.71h.02c.35-.74.98-.85,1.49-.88.58-.01,1.34.24,1.44.88h.02c.3-.59.79-.88,1.56-.88,1.15,0,1.66.72,1.66,1.44v5.5h-1.56v-4.57c0-.61-.06-1.21-.74-1.18-.67.04-.79.5-.79,1.3v4.45h-1.56v-4.65c0-.6-.05-1.1-.77-1.09-.73.01-.77.55-.77,1.3v4.45h-1.56v-6.76h1.56v.7Z"/><path d="m722.65,261.78c-.11-.22-.12-.46-.1-.7h-.02c-.18.28-.38.5-.62.65-.23.14-.48.23-.74.23-1.26,0-1.81-.64-1.81-2.03,0-1.55,1.09-1.92,2.31-2.42.66-.28.9-.58.77-1.13-.07-.3-.31-.35-.73-.35-.71,0-.83.37-.82.98h-1.49c-.01-1.28.41-2.18,2.36-2.18,2.12,0,2.25,1.12,2.23,2v3.99c0,.32.05.64.13.95h-1.48Zm-.22-3.56c-.38.26-.85.53-1.26.86-.23.19-.26.53-.26.82,0,.52.16.86.73.86.92,0,.76-1.16.79-1.81v-.73Z"/><path d="m727.62,255.71h.02c.35-.78,1.04-.88,1.4-.88.89,0,1.61.52,1.56,1.73v5.22h-1.56v-4.51c0-.66-.07-1.09-.66-1.12-.59-.02-.79.53-.77,1.25v4.38h-1.56v-6.76h1.56v.7Z"/><path d="m734.08,262.54c0,.14.07.24.18.3.12.07.29.1.48.1.66,0,.78-.53.78-1.06v-.78l-.02-.02c-.31.65-.76.85-1.43.89-1.32,0-1.58-1.19-1.62-2.27v-2.45c.04-1.86.61-2.39,1.62-2.41.71-.01,1.14.26,1.35.88h.02v-.7h1.56v6.56c0,1.38-.38,2.48-2.52,2.48-1.03,0-1.88-.38-1.97-1.52h1.56Zm.64-6.5c-.73,0-.66.64-.71,1.31v2.25c.04.65.2,1.16.68,1.16.5,0,.76-.42.76-1.2v-2.03c.02-.54,0-1.5-.73-1.5Z"/><path d="m742.09,261.78c-.11-.22-.12-.46-.1-.7h-.02c-.18.28-.38.5-.62.65-.23.14-.48.23-.74.23-1.26,0-1.81-.64-1.81-2.03,0-1.55,1.09-1.92,2.31-2.42.66-.28.9-.58.77-1.13-.07-.3-.31-.35-.73-.35-.71,0-.83.37-.82.98h-1.49c-.01-1.28.41-2.18,2.36-2.18,2.12,0,2.25,1.12,2.23,2v3.99c0,.32.05.64.13.95h-1.48Zm-.22-3.56c-.38.26-.85.53-1.26.86-.23.19-.26.53-.26.82,0,.52.16.86.73.86.92,0,.76-1.16.79-1.81v-.73Z"/><path d="m745.66,261.78v-9h1.56v9h-1.56Z"/><path d="m749.47,254.2v-1.42h1.56v1.42h-1.56Zm0,7.58v-6.76h1.56v6.76h-1.56Z"/><path d="m754.31,259.55c-.12,1.25.36,1.21.72,1.21.44,0,.76-.32.65-.76-.02-.38-.47-.6-.77-.8l-.85-.59c-.78-.54-1.28-1.16-1.28-2.13,0-1.04.83-1.64,2.33-1.64s2.21.79,2.17,2.24h-1.56c.04-.76-.18-1.04-.72-1.04-.37,0-.66.17-.66.55s.29.58.59.78l1.27.86c.4.23,1.02.88,1.07,1.33.13,1.18-.16,2.4-2.32,2.4-.83,0-2.37-.35-2.19-2.41h1.56Z"/><path d="m758.85,258.64c.01-2.31.04-3.8,2.39-3.8s2.33,1.49,2.34,3.8c.01,2.35-.32,3.36-2.34,3.32-2.05.04-2.4-.97-2.39-3.32Zm1.56.94c0,.83.07,1.19.83,1.19s.78-.36.78-1.19v-2.25c0-.64,0-1.28-.78-1.28-.83,0-.83.65-.83,1.28v2.25Z"/><path d="m702.1,271.84c.17.9.25,2.05.37,3.2h.02c.02-.22.04-.43.06-.65.06-.77.13-1.54.25-2.3l.67-4.91h1.74l-1.67,9h-2.01l-.67-3.55c-.18-.95-.24-1.91-.36-2.87h-.02c-.12.96-.18,1.92-.36,2.87l-.6,3.55h-2.01l-1.71-9h1.74l.76,4.91c.12.77.19,1.54.25,2.3.02.22.04.43.05.65h.02c.13-1.15.22-2.3.38-3.2l.82-4.65h1.39l.9,4.65Z"/><path d="m706.61,271.75c-.07-1.59.74-2.51,2.28-2.51,2.17,0,2.4,1.13,2.4,2.97v.91h-3.12v.98c.01.89.35,1.06.82,1.06.58,0,.74-.42.72-1.27h1.56c.06,1.51-.56,2.47-2.16,2.47-1.8,0-2.53-.85-2.5-2.84v-1.78Zm3.12.18v-.59c-.01-.68-.19-.9-.82-.9-.78,0-.74.6-.74,1.21v.28h1.56Z"/><path d="m715.48,276.21c-.92.11-2.22.19-2.22-1.07v-4.58h-.64v-1.14h.62v-1.86h1.57v1.86h.66v1.14h-.66v4.2c.04.29.47.25.66.23v1.22Z"/><path d="m717.16,276.18v-9h1.56v9h-1.56Z"/><path d="m723.89,276.18c-.11-.22-.12-.46-.1-.7h-.02c-.18.28-.38.5-.62.65-.23.14-.48.23-.74.23-1.26,0-1.81-.64-1.81-2.03,0-1.55,1.09-1.92,2.31-2.42.66-.28.9-.58.77-1.13-.07-.3-.31-.35-.73-.35-.71,0-.83.37-.82.98h-1.49c-.01-1.28.41-2.18,2.36-2.18,2.12,0,2.25,1.12,2.23,2v3.99c0,.32.05.64.13.95h-1.48Zm-.22-3.56c-.38.26-.85.53-1.26.86-.23.19-.26.53-.26.82,0,.52.16.86.73.86.92,0,.76-1.16.79-1.81v-.73Z"/><path d="m728.86,270.11h.02c.35-.78,1.04-.88,1.4-.88.89,0,1.61.52,1.56,1.73v5.22h-1.56v-4.51c0-.66-.07-1.09-.66-1.12-.59-.02-.79.53-.77,1.25v4.38h-1.56v-6.76h1.56v.7Z"/><path d="m736.68,275.46h-.02c-.3.68-.73.86-1.34.9-1.32,0-1.59-1.2-1.63-2.28v-2.45c.04-1.86.62-2.37,1.63-2.4.66-.01,1.08.22,1.39.86h.02c-.04-.2-.05-.4-.05-.6v-2.31h1.56v9h-1.56v-.72Zm0-3.53c.02-.54,0-1.5-.73-1.5s-.66.64-.71,1.31v2.25c.04.65.2,1.16.68,1.16.5,0,.76-.42.76-1.2v-2.03Z"/><path d="m743.82,276.18v-9h3.43c1.61,0,2.1,1.29,2.1,2.55,0,.77-.2,1.63-.84,2.13-.53.42-1.24.55-1.88.54h-1.13v3.77h-1.68Zm1.68-5.08h.9c.73,0,1.22-.31,1.22-1.4,0-1.03-.41-1.19-1.36-1.19h-.77v2.59Z"/><path d="m753.96,276.18c-.11-.22-.12-.46-.1-.7h-.02c-.18.28-.38.5-.62.65-.23.14-.48.23-.74.23-1.26,0-1.81-.64-1.81-2.03,0-1.55,1.09-1.92,2.31-2.42.66-.28.9-.58.77-1.13-.07-.3-.31-.35-.73-.35-.71,0-.83.37-.82.98h-1.49c-.01-1.28.41-2.18,2.36-2.18,2.12,0,2.25,1.12,2.23,2v3.99c0,.32.05.64.13.95h-1.48Zm-.22-3.56c-.38.26-.85.53-1.26.86-.23.19-.26.53-.26.82,0,.52.16.86.73.86.92,0,.76-1.16.79-1.81v-.73Z"/><path d="m758.86,270.62h.02c.19-.49.38-.77.61-.96.44-.37.74-.35.97-.36v1.85c-.86-.08-1.52.13-1.55,1.13v3.91h-1.56v-6.76h1.5v1.2Z"/><path d="m761.69,276.18v-9h1.56v4.07c0,.29-.01.56-.02.85h.02l1.48-2.69h1.7l-1.7,2.72,1.66,4.04h-1.74l-.97-2.76-.42.7v2.06h-1.56Z"/></g><g><path d="m653.05,202.05h-1.68v-9h2.67l.9,4.17c.14.68.24,1.38.31,2.08h.02c.08-.89.14-1.49.26-2.08l.9-4.17h2.66v9h-1.68v-2.83c0-1.79.04-3.57.14-5.36h-.02l-1.8,8.19h-1.02l-1.76-8.19h-.06c.11,1.79.14,3.57.14,5.36v2.83Z"/><path d="m664.18,202.05c-.11-.22-.12-.46-.1-.7h-.02c-.18.28-.38.5-.62.65-.23.14-.48.23-.74.23-1.26,0-1.81-.64-1.81-2.03,0-1.55,1.09-1.92,2.31-2.42.66-.28.9-.58.77-1.13-.07-.3-.31-.35-.73-.35-.71,0-.83.37-.82.98h-1.49c-.01-1.28.41-2.18,2.36-2.18,2.12,0,2.25,1.12,2.23,2v3.99c0,.32.05.64.13.95h-1.48Zm-.22-3.56c-.38.26-.85.53-1.26.86-.23.19-.26.53-.26.82,0,.52.16.86.73.86.92,0,.75-1.16.79-1.81v-.73Z"/><path d="m669.88,202.08c-.92.11-2.22.19-2.22-1.07v-4.58h-.64v-1.14h.62v-1.86h1.57v1.86h.66v1.14h-.66v4.2c.04.29.47.25.66.23v1.22Z"/><path d="m671.31,197.62c-.07-1.59.74-2.51,2.28-2.51,2.17,0,2.4,1.13,2.4,2.97v.91h-3.12v.98c.01.89.35,1.06.82,1.06.58,0,.74-.42.72-1.27h1.56c.06,1.51-.56,2.47-2.16,2.47-1.8,0-2.53-.85-2.5-2.84v-1.78Zm3.12.18v-.59c-.01-.68-.19-.9-.82-.9-.78,0-.74.6-.74,1.21v.28h1.56Z"/><path d="m679.45,195.99h.02c.35-.78,1.04-.88,1.4-.88.89,0,1.61.52,1.56,1.73v5.22h-1.56v-4.51c0-.66-.07-1.09-.66-1.12-.59-.02-.79.53-.77,1.25v4.38h-1.56v-6.76h1.56v.7Z"/><path d="m685.9,202.81c0,.14.07.24.18.3.12.07.29.1.48.1.66,0,.78-.53.78-1.06v-.78l-.02-.02c-.31.65-.76.85-1.43.89-1.32,0-1.58-1.19-1.62-2.27v-2.45c.04-1.86.61-2.39,1.62-2.41.71-.01,1.14.26,1.36.88h.02v-.7h1.56v6.56c0,1.38-.38,2.48-2.52,2.48-1.03,0-1.88-.38-1.97-1.52h1.56Zm.64-6.5c-.73,0-.66.64-.71,1.31v2.25c.04.65.2,1.16.68,1.16s.75-.42.75-1.2v-2.03c.02-.54,0-1.5-.73-1.5Z"/><path d="m693.92,202.05c-.11-.22-.12-.46-.1-.7h-.02c-.18.28-.38.5-.62.65-.23.14-.48.23-.74.23-1.26,0-1.81-.64-1.81-2.03,0-1.55,1.09-1.92,2.31-2.42.66-.28.9-.58.77-1.13-.07-.3-.31-.35-.73-.35-.71,0-.83.37-.82.98h-1.49c-.01-1.28.41-2.18,2.36-2.18,2.12,0,2.25,1.12,2.23,2v3.99c0,.32.05.64.13.95h-1.47Zm-.22-3.56c-.38.26-.85.53-1.26.86-.23.19-.26.53-.26.82,0,.52.16.86.73.86.92,0,.76-1.16.79-1.81v-.73Z"/><path d="m704.91,193.06h1.68v9h-1.75l-1.31-3.2c-.44-1.07-.8-2.16-1.2-3.57h-.02c.06.74.13,1.66.18,2.57.05.9.08,1.8.08,2.52v1.69h-1.68v-9h1.74l1.31,3.27c.43,1.04.79,2.11,1.2,3.57h.02c-.06-.82-.12-1.69-.17-2.55-.05-.86-.08-1.73-.08-2.53v-1.76Z"/><path d="m711.69,202.05c-.11-.22-.12-.46-.1-.7h-.02c-.18.28-.38.5-.62.65-.23.14-.48.23-.74.23-1.26,0-1.81-.64-1.81-2.03,0-1.55,1.09-1.92,2.31-2.42.66-.28.9-.58.77-1.13-.07-.3-.31-.35-.73-.35-.71,0-.83.37-.82.98h-1.49c-.01-1.28.41-2.18,2.36-2.18,2.12,0,2.25,1.12,2.23,2v3.99c0,.32.05.64.13.95h-1.48Zm-.22-3.56c-.38.26-.85.53-1.26.86-.23.19-.26.53-.26.82,0,.52.16.86.73.86.92,0,.75-1.16.79-1.81v-.73Z"/><path d="m717.39,202.08c-.92.11-2.22.19-2.22-1.07v-4.58h-.64v-1.14h.62v-1.86h1.57v1.86h.66v1.14h-.66v4.2c.04.29.47.25.66.23v1.22Z"/><path d="m721.86,201.05h-.02c-.24.8-.7,1.18-1.45,1.19-1.24,0-1.51-.64-1.51-1.76v-5.18h1.56v4.63c0,.3-.01.64.16.9.13.14.28.22.48.22.73,0,.72-.83.72-1.36v-4.39h1.56v6.76h-1.49v-1.01Z"/><path d="m726.88,196.49h.02c.19-.49.38-.77.61-.96.44-.37.74-.35.97-.36v1.85c-.86-.08-1.52.13-1.55,1.13v3.91h-1.56v-6.76h1.5v1.2Z"/><path d="m729.78,197.62c-.07-1.59.74-2.51,2.28-2.51,2.17,0,2.4,1.13,2.4,2.97v.91h-3.12v.98c.01.89.35,1.06.82,1.06.58,0,.74-.42.72-1.27h1.56c.06,1.51-.56,2.47-2.16,2.47-1.8,0-2.53-.85-2.49-2.84v-1.78Zm3.12.18v-.59c-.01-.68-.19-.9-.82-.9-.78,0-.74.6-.74,1.21v.28h1.56Z"/><path d="m675.63,212.58v3.87h-1.68v-9h3.18c1.45,0,2.55.5,2.55,2.16,0,.98-.25,2.01-1.38,2.17v.02c1,.13,1.29.77,1.29,1.63,0,.37-.05,2.58.36,2.84v.17h-1.85c-.2-.58-.17-1.68-.18-2.28-.01-.55,0-1.31-.58-1.48-.46-.13-.95-.12-1.43-.12h-.3Zm0-1.32h1.32c.55-.04.98-.4.98-1.29,0-1.01-.42-1.18-1.06-1.19h-1.25v2.48Z"/><path d="m681.61,212.02c-.07-1.59.74-2.51,2.28-2.51,2.17,0,2.4,1.13,2.4,2.97v.91h-3.12v.98c.01.89.35,1.06.82,1.06.58,0,.74-.42.72-1.27h1.56c.06,1.51-.56,2.47-2.16,2.47-1.8,0-2.53-.85-2.49-2.84v-1.78Zm3.12.18v-.59c-.01-.68-.19-.9-.82-.9-.78,0-.74.6-.74,1.21v.28h1.56Z"/><path d="m689.36,214.22c-.12,1.25.36,1.21.72,1.21.44,0,.76-.32.65-.76-.02-.38-.47-.6-.77-.8l-.85-.59c-.78-.54-1.28-1.16-1.28-2.13,0-1.04.83-1.64,2.33-1.64s2.21.79,2.17,2.24h-1.56c.04-.76-.18-1.04-.72-1.04-.37,0-.66.17-.66.55s.29.58.59.78l1.27.86c.4.23,1.02.88,1.07,1.33.13,1.18-.16,2.4-2.31,2.4-.83,0-2.38-.35-2.2-2.41h1.56Z"/><path d="m693.89,212.02c-.07-1.59.74-2.51,2.28-2.51,2.17,0,2.4,1.13,2.4,2.97v.91h-3.12v.98c.01.89.35,1.06.82,1.06.58,0,.74-.42.72-1.27h1.56c.06,1.51-.56,2.47-2.16,2.47-1.8,0-2.53-.85-2.5-2.84v-1.78Zm3.12.18v-.59c-.01-.68-.19-.9-.82-.9-.78,0-.74.6-.74,1.21v.28h1.56Z"/><path d="m701.96,210.89h.02c.19-.49.38-.77.61-.96.44-.37.74-.35.97-.36v1.85c-.86-.08-1.52.13-1.55,1.13v3.91h-1.56v-6.76h1.5v1.2Z"/><path d="m704.33,209.69h1.68l.66,3.79c.13.61.19,1.68.22,2h.02c.02-.32.08-1.39.22-2l.67-3.79h1.62l-1.56,6.76h-1.94l-1.58-6.76Z"/><path d="m710.66,212.02c-.07-1.59.74-2.51,2.28-2.51,2.17,0,2.4,1.13,2.4,2.97v.91h-3.12v.98c.01.89.35,1.06.82,1.06.58,0,.74-.42.72-1.27h1.56c.06,1.51-.56,2.47-2.16,2.47-1.8,0-2.53-.85-2.5-2.84v-1.78Zm3.12.18v-.59c-.01-.68-.19-.9-.82-.9-.78,0-.74.6-.74,1.21v.28h1.56Z"/></g><g><path d="m590.28,313.91v-9h3.5c.41,0,1.22.18,1.74,1.02.38.62.49,1.62.49,3.11,0,1.77,0,3.83-1.38,4.63-.37.22-.83.24-1.25.24h-3.11Zm2.41-1.32c1.5,0,1.59-.79,1.59-3.39,0-2.12-.22-2.96-1.22-2.96h-1.1v6.36h.73Z"/><path d="m599.45,308.35h.02c.19-.49.38-.77.61-.96.44-.37.74-.35.97-.36v1.85c-.86-.08-1.52.13-1.55,1.13v3.91h-1.56v-6.76h1.5v1.2Z"/><path d="m605.51,313.91c-.11-.22-.12-.46-.1-.7h-.02c-.18.28-.38.5-.62.65-.23.14-.48.23-.74.23-1.26,0-1.81-.64-1.81-2.03,0-1.55,1.09-1.92,2.31-2.42.66-.28.9-.58.77-1.13-.07-.3-.31-.35-.73-.35-.71,0-.83.37-.82.98h-1.49c-.01-1.28.41-2.18,2.36-2.18,2.12,0,2.25,1.12,2.23,2v3.99c0,.32.05.64.13.95h-1.48Zm-.22-3.56c-.38.26-.85.53-1.26.86-.23.19-.26.53-.26.82,0,.52.16.86.73.86.92,0,.75-1.16.79-1.81v-.73Z"/><path d="m608.76,313.91v-9h1.56v4.07c0,.29-.01.56-.02.85h.02l1.47-2.69h1.7l-1.7,2.72,1.66,4.04h-1.74l-.97-2.76-.42.7v2.06h-1.56Z"/><path d="m614.63,309.48c-.07-1.59.74-2.51,2.28-2.51,2.17,0,2.4,1.13,2.4,2.97v.91h-3.12v.98c.01.89.35,1.06.82,1.06.58,0,.74-.42.72-1.27h1.56c.06,1.51-.56,2.47-2.16,2.47-1.8,0-2.53-.85-2.49-2.84v-1.78Zm3.12.18v-.59c-.01-.68-.19-.9-.82-.9-.78,0-.74.6-.74,1.21v.28h1.56Z"/><path d="m622.76,307.85h.02c.35-.78,1.04-.88,1.4-.88.89,0,1.61.52,1.56,1.73v5.22h-1.56v-4.51c0-.66-.07-1.09-.66-1.12-.59-.02-.79.53-.77,1.25v4.38h-1.56v-6.76h1.56v.7Z"/><path d="m628.86,311.68c-.12,1.25.36,1.21.72,1.21.44,0,.76-.32.65-.76-.02-.38-.47-.6-.77-.8l-.85-.59c-.78-.54-1.28-1.16-1.28-2.13,0-1.04.83-1.64,2.33-1.64s2.21.79,2.17,2.24h-1.56c.04-.76-.18-1.04-.72-1.04-.37,0-.66.17-.66.55s.29.58.59.78l1.27.86c.4.23,1.02.88,1.07,1.33.13,1.18-.16,2.4-2.32,2.4-.83,0-2.37-.35-2.19-2.41h1.56Z"/><path d="m633.53,304.92h1.56v2.16c0,.22-.02.43-.04.75h.02c.31-.65.73-.88,1.39-.86,1.01.02,1.58.54,1.62,2.4v2.45c-.04,1.08-.3,2.28-1.62,2.28-.65-.04-1.08-.23-1.43-.9h-.02v.72h-1.49v-9Zm1.56,6.78c0,.78.25,1.2.76,1.2s.65-.52.68-1.16v-2.25c-.05-.67.02-1.31-.71-1.31s-.75.96-.73,1.5v2.03Z"/><path d="m639.88,309.48c-.07-1.59.74-2.51,2.28-2.51,2.17,0,2.4,1.13,2.4,2.97v.91h-3.12v.98c.01.89.35,1.06.82,1.06.58,0,.74-.42.72-1.27h1.56c.06,1.51-.56,2.47-2.16,2.47-1.8,0-2.53-.85-2.5-2.84v-1.78Zm3.12.18v-.59c-.01-.68-.19-.9-.82-.9-.78,0-.74.6-.74,1.21v.28h1.56Z"/><path d="m647.94,308.35h.02c.19-.49.38-.77.61-.96.44-.37.74-.35.97-.36v1.85c-.86-.08-1.52.13-1.55,1.13v3.91h-1.56v-6.76h1.5v1.2Z"/><path d="m652.46,314.67c0,.14.07.24.18.3.12.07.29.1.48.1.66,0,.78-.53.78-1.06v-.78l-.02-.02c-.31.65-.76.85-1.43.89-1.32,0-1.58-1.19-1.62-2.27v-2.45c.04-1.86.61-2.39,1.62-2.41.71-.01,1.14.26,1.36.88h.02v-.7h1.56v6.56c0,1.38-.38,2.48-2.52,2.48-1.03,0-1.88-.38-1.97-1.52h1.56Zm.64-6.5c-.73,0-.66.64-.71,1.31v2.25c.04.65.2,1.16.68,1.16s.75-.42.75-1.2v-2.03c.02-.54,0-1.5-.73-1.5Z"/><path d="m657.31,309.48c-.07-1.59.74-2.51,2.28-2.51,2.17,0,2.4,1.13,2.4,2.97v.91h-3.12v.98c.01.89.35,1.06.82,1.06.58,0,.74-.42.72-1.27h1.56c.06,1.51-.56,2.47-2.16,2.47-1.8,0-2.53-.85-2.49-2.84v-1.78Zm3.12.18v-.59c-.01-.68-.19-.9-.82-.9-.78,0-.74.6-.74,1.21v.28h1.56Z"/></g><g><path d="m725.08,374.21v-12h4.67c.54,0,1.63.24,2.32,1.36.51.83.66,2.16.66,4.15,0,2.37,0,5.11-1.84,6.18-.5.29-1.1.32-1.67.32h-4.15Zm3.22-1.76c2,0,2.13-1.06,2.13-4.53,0-2.83-.29-3.95-1.63-3.95h-1.47v8.48h.98Z"/><path d="m739.26,372.86h-.03c-.32,1.07-.93,1.57-1.94,1.58-1.65,0-2.02-.85-2.02-2.35v-6.91h2.08v6.18c0,.4-.02.85.21,1.2.18.19.37.29.64.29.98,0,.96-1.1.96-1.81v-5.86h2.08v9.03h-1.98v-1.34Z"/><path d="m745.94,366.78h.03c.26-.66.51-1.02.82-1.28.59-.5.99-.46,1.3-.48v2.46c-1.15-.11-2.03.18-2.06,1.5v5.22h-2.08v-9.03h2v1.6Z"/><path d="m749.97,362.2h2.08v2.88c0,.29-.03.58-.05,1.01h.03c.42-.86.98-1.17,1.86-1.15,1.34.03,2.11.72,2.16,3.2v3.27c-.05,1.44-.4,3.04-2.16,3.04-.86-.05-1.44-.3-1.9-1.2h-.03v.96h-1.98v-12Zm2.08,9.04c0,1.04.34,1.6,1.01,1.6s.86-.69.91-1.55v-3.01c-.06-.9.03-1.74-.94-1.74s-1.01,1.28-.98,2v2.71Z"/><path d="m762.66,374.21c-.14-.29-.16-.61-.13-.93h-.03c-.24.37-.51.67-.83.86-.3.19-.64.3-.99.3-1.68,0-2.42-.85-2.42-2.71,0-2.07,1.46-2.56,3.09-3.23.88-.37,1.2-.77,1.02-1.5-.1-.4-.42-.46-.98-.46-.94,0-1.1.5-1.09,1.31h-1.99c-.02-1.71.54-2.91,3.15-2.91,2.83,0,3.01,1.49,2.98,2.67v5.33c0,.43.06.85.18,1.26h-1.97Zm-.29-4.75c-.51.35-1.14.7-1.68,1.15-.3.26-.35.7-.35,1.09,0,.69.21,1.15.98,1.15,1.23,0,1.01-1.55,1.06-2.42v-.98Z"/><path d="m769.29,366.11h.03c.46-1.04,1.39-1.17,1.87-1.17,1.18,0,2.14.69,2.08,2.3v6.96h-2.08v-6.02c0-.88-.1-1.46-.88-1.49-.78-.03-1.06.7-1.02,1.66v5.84h-2.08v-9.03h2.08v.93Z"/></g><g><path d="m678.46,301.38v-12h2.24v10.24h4.16v1.76h-6.4Z"/><path d="m691.08,301.38c-.14-.29-.16-.61-.13-.93h-.03c-.24.37-.51.67-.83.86-.3.19-.64.3-.99.3-1.68,0-2.42-.85-2.42-2.71,0-2.07,1.46-2.56,3.09-3.23.88-.37,1.2-.77,1.02-1.5-.1-.4-.42-.46-.98-.46-.94,0-1.1.5-1.09,1.31h-1.98c-.02-1.71.54-2.91,3.15-2.91,2.83,0,3.01,1.49,2.98,2.67v5.33c0,.43.06.85.18,1.26h-1.97Zm-.29-4.75c-.51.35-1.14.7-1.68,1.15-.3.26-.35.7-.35,1.09,0,.69.21,1.15.98,1.15,1.23,0,1.01-1.55,1.06-2.42v-.98Z"/><path d="m699.5,300.42h-.03c-.4.91-.98,1.15-1.79,1.2-1.76,0-2.13-1.6-2.18-3.04v-3.27c.05-2.48.83-3.17,2.18-3.2.88-.02,1.44.29,1.86,1.15h.03c-.05-.27-.06-.53-.06-.8v-3.09h2.08v12h-2.08v-.96Zm0-4.71c.03-.72,0-2-.98-2s-.88.85-.94,1.74v3.01c.05.86.27,1.55.91,1.55.67,0,1.01-.56,1.01-1.6v-2.71Z"/><path d="m705.56,292.35l.91,4.79c.14.8.22,1.6.3,2.4h.03c.06-.78.18-1.57.32-2.34l.91-4.85h2.11l-2.19,9.16c-.53,2.05-.58,3.33-3.46,2.91v-1.62c.34,0,1.23.18,1.23-.4,0-.32-.11-.83-.19-1.15l-2.18-8.9h2.19Z"/><path d="m713.58,298.4c-.16,1.67.48,1.62.96,1.62.59,0,1.01-.43.86-1.01-.03-.51-.62-.8-1.02-1.07l-1.14-.78c-1.04-.72-1.71-1.55-1.71-2.85,0-1.39,1.1-2.19,3.11-2.19s2.95,1.06,2.9,2.99h-2.08c.05-1.01-.24-1.39-.96-1.39-.5,0-.88.22-.88.74s.38.77.78,1.04l1.7,1.15c.53.3,1.36,1.17,1.42,1.78.18,1.57-.21,3.2-3.09,3.2-1.1,0-3.17-.46-2.93-3.22h2.08Z"/><path d="m721.91,293.28h.03c.46-.99,1.31-1.14,1.98-1.17.77-.02,1.79.32,1.92,1.17h.03c.4-.78,1.06-1.17,2.08-1.17,1.54,0,2.21.96,2.21,1.92v7.35h-2.08v-6.1c0-.82-.08-1.62-.99-1.57-.9.05-1.06.67-1.06,1.73v5.94h-2.08v-6.21c0-.8-.06-1.47-1.02-1.46-.98.02-1.02.74-1.02,1.73v5.94h-2.08v-9.03h2.08v.93Z"/><path d="m733.05,291.26v-1.89h2.08v1.89h-2.08Zm0,10.12v-9.03h2.08v9.03h-2.08Z"/><path d="m740.99,301.41c-1.23.14-2.96.26-2.96-1.42v-6.11h-.85v-1.52h.83v-2.48h2.1v2.48h.88v1.52h-.88v5.6c.05.38.62.34.88.3v1.63Z"/><path d="m743.02,301.38v-12h2.08v3.91h.03c.59-1.06,1.42-1.17,1.87-1.17,1.18,0,2.15.69,2.08,2.3v6.96h-2.08v-6.18c0-.88-.1-1.46-.88-1.49s-1.06.7-1.02,1.67v6h-2.08Z"/></g><g><path d="m793.44,287.37c.02-1.07-.08-2.13-1.31-2.13-.75,0-1.23.3-1.23,1.12,0,.91.58,1.26,1.28,1.71.74.46,2.1,1.36,2.72,1.97.77.75,1.01,1.47,1.01,2.51,0,2.27-1.5,3.46-3.7,3.46-2.69,0-3.65-1.5-3.65-3.65v-.88h2.24v.71c-.05,1.17.3,2.02,1.41,2.02.94,0,1.39-.5,1.39-1.41,0-.71-.32-1.18-.9-1.58-1.17-.91-2.62-1.57-3.54-2.77-.37-.54-.58-1.2-.58-1.84,0-2.05,1.15-3.17,3.52-3.17,3.57,0,3.47,2.75,3.49,3.94h-2.16Z"/><path d="m801.34,295.76c-1.23.14-2.96.26-2.96-1.42v-6.11h-.85v-1.52h.83v-2.48h2.1v2.48h.88v1.52h-.88v5.6c.05.38.62.34.88.3v1.63Z"/><path d="m804.01,295.73v-2.11h2.11v2.11h-2.11Z"/><path d="m810.41,295.73v-12h2.24v10.24h4.16v1.76h-6.4Z"/><path d="m822.88,294.38h-.03c-.32,1.07-.93,1.57-1.94,1.58-1.65,0-2.02-.85-2.02-2.35v-6.91h2.08v6.18c0,.4-.02.85.21,1.2.18.19.37.29.64.29.98,0,.96-1.1.96-1.81v-5.86h2.08v9.03h-1.99v-1.34Z"/><path d="m830.98,289.84v-1.01c-.03-.5-.27-.77-.72-.77-.8,0-.8.91-.78,2.02v2.13c-.05,1.76.16,2.08.78,2.16.64-.02.66-.61.72-1.33v-.83h2.08v.83c0,1.89-.78,2.93-2.85,2.93-1.84,0-2.9-.98-2.82-3.38v-2.93c-.02-2.53,1.23-3.2,2.82-3.2,2.1,0,2.87,1.31,2.85,2.66v.72h-2.08Z"/><path d="m835.53,285.61v-1.89h2.08v1.89h-2.08Zm0,10.12v-9.03h2.08v9.03h-2.08Z"/><path d="m844.51,295.73c-.14-.29-.16-.61-.13-.93h-.03c-.24.37-.51.67-.83.86-.3.19-.64.3-.99.3-1.68,0-2.42-.85-2.42-2.71,0-2.07,1.46-2.56,3.09-3.23.88-.37,1.2-.77,1.02-1.5-.1-.4-.42-.46-.98-.46-.94,0-1.1.5-1.09,1.31h-1.99c-.02-1.71.54-2.91,3.15-2.91,2.83,0,3.01,1.49,2.98,2.67v5.33c0,.43.06.85.18,1.26h-1.97Zm-.29-4.75c-.51.35-1.14.7-1.68,1.15-.3.26-.35.7-.35,1.09,0,.69.21,1.15.98,1.15,1.23,0,1.01-1.55,1.06-2.42v-.98Z"/></g><g><path d="m806.17,233.21v-12h2.24v5.33h.03c.35-.94.93-2,1.41-2.88l1.31-2.45h2.53l-2.96,5.15,3.1,6.85h-2.53l-2.11-4.74-.78,1.3v3.44h-2.24Z"/><path d="m815.47,229.02c.02-3.09.05-5.07,3.19-5.07s3.11,1.98,3.12,5.07c.02,3.14-.43,4.48-3.12,4.43-2.74.05-3.2-1.3-3.19-4.43Zm2.08,1.25c0,1.1.1,1.58,1.1,1.58s1.04-.48,1.04-1.58v-3.01c0-.85,0-1.71-1.04-1.71-1.1,0-1.1.86-1.1,1.71v3.01Z"/><path d="m825.8,230.23c-.16,1.67.48,1.62.96,1.62.59,0,1.01-.43.86-1.01-.03-.51-.62-.8-1.02-1.07l-1.14-.78c-1.04-.72-1.71-1.55-1.71-2.85,0-1.39,1.1-2.19,3.11-2.19s2.95,1.06,2.9,2.99h-2.08c.05-1.01-.24-1.39-.96-1.39-.5,0-.88.22-.88.74s.38.77.78,1.04l1.7,1.15c.53.3,1.36,1.17,1.42,1.78.18,1.57-.21,3.2-3.09,3.2-1.1,0-3.17-.46-2.93-3.22h2.08Z"/><path d="m832.19,223.09v-1.89h2.08v1.89h-2.08Zm0,10.12v-9.03h2.08v9.03h-2.08Z"/><path d="m841.77,233.21v-12h3.62c.96,0,1.91.06,2.55.88.51.66.59,1.34.59,2.16,0,1.04-.22,2.07-1.44,2.51v.03c1.26.18,1.74,1.23,1.74,2.79,0,.5-.03.99-.16,1.47-.48,1.52-1.34,2.16-2.95,2.16h-3.95Zm2.66-7.16c.54,0,1.25.03,1.6-.42.21-.3.24-.72.24-1.3,0-.9-.19-1.34-1.22-1.38h-1.04v3.09h.42Zm.06,5.39c.46,0,.94.05,1.34-.13.61-.27.69-1.06.69-1.67,0-1.3-.26-1.84-1.65-1.84h-.86v3.63h.48Z"/><path d="m855.34,233.21c-.14-.29-.16-.61-.13-.93h-.03c-.24.37-.51.67-.83.86-.3.19-.64.3-.99.3-1.68,0-2.42-.85-2.42-2.71,0-2.07,1.46-2.56,3.09-3.23.88-.37,1.2-.77,1.02-1.5-.1-.4-.42-.46-.98-.46-.94,0-1.1.5-1.09,1.31h-1.99c-.02-1.71.54-2.91,3.15-2.91,2.83,0,3.01,1.49,2.98,2.67v5.33c0,.43.06.85.18,1.26h-1.97Zm-.29-4.75c-.51.35-1.14.7-1.68,1.15-.3.26-.35.7-.35,1.09,0,.69.21,1.15.98,1.15,1.23,0,1.01-1.55,1.06-2.42v-.98Z"/><path d="m861.18,224.18l.91,4.79c.14.8.22,1.6.3,2.4h.03c.06-.78.18-1.57.32-2.34l.91-4.85h2.11l-2.19,9.16c-.53,2.05-.58,3.33-3.46,2.91v-1.62c.34,0,1.23.18,1.23-.4,0-.32-.11-.83-.19-1.15l-2.18-8.9h2.19Z"/></g><g><path d="m801.55,253.43c.02-1.07-.08-2.13-1.31-2.13-.75,0-1.23.3-1.23,1.12,0,.91.58,1.26,1.28,1.71.74.46,2.1,1.36,2.72,1.97.77.75,1.01,1.47,1.01,2.51,0,2.27-1.5,3.46-3.7,3.46-2.69,0-3.65-1.5-3.65-3.65v-.88h2.24v.71c-.05,1.17.3,2.02,1.41,2.02.94,0,1.39-.5,1.39-1.41,0-.71-.32-1.18-.9-1.58-1.17-.91-2.62-1.57-3.54-2.77-.37-.54-.58-1.2-.58-1.84,0-2.05,1.15-3.17,3.52-3.17,3.57,0,3.47,2.75,3.49,3.94h-2.16Z"/><path d="m806.27,257.59c.02-3.09.05-5.07,3.19-5.07s3.11,1.98,3.12,5.07c.02,3.14-.43,4.48-3.12,4.43-2.74.05-3.2-1.3-3.19-4.43Zm2.08,1.25c0,1.1.1,1.58,1.1,1.58s1.04-.48,1.04-1.58v-3.01c0-.85,0-1.71-1.04-1.71-1.1,0-1.1.86-1.1,1.71v3.01Z"/><path d="m818.91,260.82h-.03c-.4.91-.98,1.15-1.79,1.2-1.76,0-2.13-1.6-2.18-3.04v-3.27c.05-2.48.83-3.17,2.18-3.2.88-.02,1.44.29,1.86,1.15h.03c-.05-.27-.06-.53-.06-.8v-3.09h2.08v12h-2.08v-.96Zm0-4.71c.03-.72,0-2-.98-2s-.88.85-.94,1.74v3.01c.05.86.27,1.55.91,1.55s1.01-.56,1.01-1.6v-2.71Z"/><path d="m829.8,258.29c.11.64.18,1.28.21,1.94h.05c0-.4.13-1.73.18-2l.69-5.47h2.1l-1.82,9.03h-2.27l-.69-3.65c-.14-.75-.21-1.5-.27-2.27h-.06c-.03.72-.1,1.44-.21,2.15l-.64,3.78h-2.32l-1.86-9.03h2.19l.74,5.51c.05.27.18,1.6.18,2h.03c.03-.66.1-1.3.21-1.94l.86-5.57h1.71l1.01,5.54Z"/><path d="m839.08,261.78c-.14-.29-.16-.61-.13-.93h-.03c-.24.37-.51.67-.83.86-.3.19-.64.3-.99.3-1.68,0-2.42-.85-2.42-2.71,0-2.07,1.46-2.56,3.09-3.23.88-.37,1.2-.77,1.02-1.5-.1-.4-.42-.46-.98-.46-.94,0-1.1.5-1.09,1.31h-1.98c-.02-1.71.54-2.91,3.15-2.91,2.83,0,3.01,1.49,2.98,2.67v5.33c0,.43.06.85.18,1.26h-1.97Zm-.29-4.75c-.51.35-1.14.7-1.68,1.15-.3.26-.35.7-.35,1.09,0,.69.21,1.15.98,1.15,1.23,0,1.01-1.55,1.06-2.42v-.98Z"/><path d="m845.71,253.68h.03c.46-1.04,1.39-1.17,1.87-1.17,1.18,0,2.15.69,2.08,2.3v6.96h-2.08v-6.02c0-.88-.1-1.46-.88-1.49s-1.06.7-1.02,1.66v5.84h-2.08v-9.03h2.08v.93Z"/><path d="m856.36,261.78c-.14-.29-.16-.61-.13-.93h-.03c-.24.37-.51.67-.83.86-.3.19-.64.3-.99.3-1.68,0-2.42-.85-2.42-2.71,0-2.07,1.46-2.56,3.09-3.23.88-.37,1.2-.77,1.02-1.5-.1-.4-.42-.46-.98-.46-.94,0-1.1.5-1.09,1.31h-1.99c-.02-1.71.54-2.91,3.15-2.91,2.83,0,3.01,1.49,2.98,2.67v5.33c0,.43.06.85.18,1.26h-1.97Zm-.29-4.75c-.51.35-1.14.7-1.68,1.15-.3.26-.35.7-.35,1.09,0,.69.21,1.15.98,1.15,1.23,0,1.01-1.55,1.06-2.42v-.98Z"/><path d="m865.61,261.78v-12h3.62c.96,0,1.9.06,2.54.88.51.66.59,1.34.59,2.16,0,1.04-.22,2.07-1.44,2.51v.03c1.26.18,1.75,1.23,1.75,2.79,0,.5-.03.99-.16,1.47-.48,1.52-1.34,2.16-2.95,2.16h-3.95Zm2.66-7.16c.54,0,1.25.03,1.6-.42.21-.3.24-.72.24-1.3,0-.9-.19-1.34-1.22-1.38h-1.04v3.09h.42Zm.06,5.39c.46,0,.94.05,1.34-.13.61-.27.69-1.06.69-1.67,0-1.3-.26-1.84-1.65-1.84h-.86v3.63h.48Z"/><path d="m879.18,261.78c-.14-.29-.16-.61-.13-.93h-.03c-.24.37-.51.67-.83.86-.3.19-.64.3-.99.3-1.68,0-2.42-.85-2.42-2.71,0-2.07,1.46-2.56,3.09-3.23.88-.37,1.2-.77,1.02-1.5-.1-.4-.42-.46-.98-.46-.94,0-1.1.5-1.09,1.31h-1.98c-.02-1.71.54-2.91,3.15-2.91,2.83,0,3.01,1.49,2.98,2.67v5.33c0,.43.06.85.18,1.26h-1.97Zm-.29-4.75c-.51.35-1.14.7-1.68,1.15-.3.26-.35.7-.35,1.09,0,.69.21,1.15.98,1.15,1.23,0,1.01-1.55,1.06-2.42v-.98Z"/><path d="m885.02,252.76l.91,4.79c.14.8.22,1.6.3,2.4h.03c.06-.78.18-1.57.32-2.34l.91-4.85h2.11l-2.19,9.16c-.53,2.05-.58,3.33-3.46,2.91v-1.62c.34,0,1.23.18,1.23-.4,0-.32-.11-.83-.19-1.15l-2.18-8.9h2.19Z"/></g><g><path d="m742.88,179.39h-2.24v-12h3.57l1.2,5.57c.19.91.32,1.84.42,2.77h.03c.11-1.18.19-1.99.35-2.77l1.2-5.57h3.55v12h-2.24v-3.78c0-2.38.05-4.77.19-7.16h-.03l-2.4,10.93h-1.36l-2.35-10.93h-.08c.14,2.38.19,4.77.19,7.16v3.78Z"/><path d="m753.68,167.38h2.08v2.88c0,.29-.03.58-.05,1.01h.03c.42-.86.98-1.17,1.86-1.15,1.34.03,2.11.72,2.16,3.2v3.27c-.05,1.44-.4,3.04-2.16,3.04-.86-.05-1.44-.3-1.91-1.2h-.03v.96h-1.99v-12Zm2.08,9.04c0,1.04.34,1.6,1.01,1.6s.86-.69.91-1.55v-3.01c-.06-.9.03-1.74-.94-1.74s-1.01,1.28-.98,2v2.71Z"/><path d="m766.37,179.39c-.14-.29-.16-.61-.13-.93h-.03c-.24.37-.51.67-.83.86-.3.19-.64.3-.99.3-1.68,0-2.42-.85-2.42-2.71,0-2.07,1.46-2.56,3.09-3.23.88-.37,1.2-.77,1.02-1.5-.1-.4-.42-.46-.98-.46-.94,0-1.1.5-1.09,1.31h-1.99c-.02-1.71.54-2.91,3.15-2.91,2.83,0,3.01,1.49,2.98,2.67v5.33c0,.43.06.85.18,1.26h-1.97Zm-.29-4.75c-.51.35-1.14.7-1.68,1.15-.3.26-.35.7-.35,1.09,0,.69.21,1.15.98,1.15,1.23,0,1.01-1.55,1.06-2.42v-.98Z"/><path d="m770.96,167.38h2.08v2.88c0,.29-.03.58-.05,1.01h.03c.42-.86.98-1.17,1.86-1.15,1.34.03,2.11.72,2.16,3.2v3.27c-.05,1.44-.4,3.04-2.16,3.04-.86-.05-1.44-.3-1.9-1.2h-.03v.96h-1.98v-12Zm2.08,9.04c0,1.04.34,1.6,1.01,1.6s.86-.69.91-1.55v-3.01c-.06-.9.03-1.74-.94-1.74s-1.01,1.28-.98,2v2.71Z"/><path d="m783.65,179.39c-.14-.29-.16-.61-.13-.93h-.03c-.24.37-.51.67-.83.86-.3.19-.64.3-.99.3-1.68,0-2.42-.85-2.42-2.71,0-2.07,1.46-2.56,3.09-3.23.88-.37,1.2-.77,1.02-1.5-.1-.4-.42-.46-.98-.46-.94,0-1.1.5-1.09,1.31h-1.99c-.02-1.71.54-2.91,3.15-2.91,2.83,0,3.01,1.49,2.98,2.67v5.33c0,.43.06.85.18,1.26h-1.97Zm-.29-4.75c-.51.35-1.14.7-1.68,1.15-.3.26-.35.7-.35,1.09,0,.69.21,1.15.98,1.15,1.23,0,1.01-1.55,1.06-2.42v-.98Z"/><path d="m790.28,171.29h.03c.46-1.04,1.39-1.17,1.87-1.17,1.18,0,2.14.69,2.08,2.3v6.96h-2.08v-6.02c0-.88-.1-1.46-.88-1.49-.78-.03-1.06.7-1.02,1.66v5.84h-2.08v-9.03h2.08v.93Z"/><path d="m796.71,173.47c-.1-2.13.99-3.34,3.04-3.34,2.9,0,3.2,1.5,3.2,3.97v1.22h-4.16v1.31c.02,1.18.46,1.41,1.09,1.41.77,0,.99-.56.96-1.7h2.08c.08,2.02-.75,3.3-2.88,3.3-2.4,0-3.38-1.14-3.33-3.79v-2.37Zm4.16.24v-.78c-.02-.91-.26-1.2-1.09-1.2-1.04,0-.99.8-.99,1.62v.37h2.08Z"/></g><g><path d="m510.7,189.61v1.49c.02.43.18.8.72.8.8,0,.82-.61.82-1.26v-9.22h2.24v8.76c0,.82.06,1.98-.66,2.75-.66.7-1.65.78-2.74.78-.8,0-1.7-.3-2.3-1.23-.27-.43-.38-1.76-.32-2.87h2.24Z"/><path d="m516.92,189.22c.02-3.09.05-5.07,3.19-5.07s3.1,1.98,3.12,5.07c.02,3.14-.43,4.48-3.12,4.43-2.74.05-3.2-1.3-3.19-4.43Zm2.08,1.25c0,1.1.1,1.58,1.1,1.58s1.04-.48,1.04-1.58v-3.01c0-.85,0-1.71-1.04-1.71-1.1,0-1.1.86-1.1,1.71v3.01Z"/><path d="m525.69,193.41v-12h2.08v3.91h.03c.59-1.06,1.42-1.17,1.87-1.17,1.18,0,2.15.69,2.08,2.3v6.96h-2.08v-6.18c0-.88-.1-1.46-.88-1.49s-1.06.7-1.02,1.67v6h-2.08Z"/><path d="m538.43,193.41c-.14-.29-.16-.61-.13-.93h-.03c-.24.37-.51.67-.83.86-.3.19-.64.3-.99.3-1.68,0-2.42-.85-2.42-2.71,0-2.07,1.46-2.56,3.09-3.23.88-.37,1.2-.77,1.02-1.5-.1-.4-.42-.46-.98-.46-.94,0-1.1.5-1.09,1.31h-1.98c-.02-1.71.54-2.91,3.15-2.91,2.83,0,3.01,1.49,2.98,2.67v5.33c0,.43.06.85.18,1.26h-1.97Zm-.29-4.75c-.51.35-1.14.7-1.68,1.15-.3.26-.35.7-.35,1.09,0,.69.21,1.15.98,1.15,1.23,0,1.01-1.55,1.06-2.42v-.98Z"/><path d="m545.05,185.32h.03c.46-1.04,1.39-1.17,1.87-1.17,1.18,0,2.15.69,2.08,2.3v6.96h-2.08v-6.02c0-.88-.1-1.46-.88-1.49s-1.06.7-1.02,1.66v5.84h-2.08v-9.03h2.08v.93Z"/><path d="m553.69,185.32h.03c.46-1.04,1.39-1.17,1.87-1.17,1.18,0,2.14.69,2.08,2.3v6.96h-2.08v-6.02c0-.88-.1-1.46-.88-1.49-.78-.03-1.06.7-1.02,1.66v5.84h-2.08v-9.03h2.08v.93Z"/><path d="m560.12,187.49c-.1-2.13.99-3.34,3.04-3.34,2.9,0,3.2,1.5,3.2,3.97v1.22h-4.16v1.31c.02,1.18.46,1.41,1.09,1.41.77,0,.99-.56.96-1.7h2.08c.08,2.02-.75,3.3-2.88,3.3-2.4,0-3.38-1.14-3.33-3.79v-2.37Zm4.16.24v-.78c-.02-.91-.26-1.2-1.09-1.2-1.04,0-.99.8-.99,1.62v.37h2.08Z"/><path d="m570.46,190.44c-.16,1.67.48,1.62.96,1.62.59,0,1.01-.43.86-1.01-.03-.51-.62-.8-1.02-1.07l-1.14-.78c-1.04-.72-1.71-1.55-1.71-2.85,0-1.39,1.1-2.19,3.11-2.19s2.95,1.06,2.9,2.99h-2.08c.05-1.01-.24-1.39-.96-1.39-.5,0-.88.22-.88.74s.38.77.78,1.04l1.7,1.15c.53.3,1.36,1.17,1.42,1.78.18,1.57-.21,3.2-3.09,3.2-1.1,0-3.17-.46-2.93-3.22h2.08Z"/><path d="m576.68,181.41h2.08v2.88c0,.29-.03.58-.05,1.01h.03c.42-.86.98-1.17,1.86-1.15,1.34.03,2.11.72,2.16,3.2v3.27c-.05,1.44-.4,3.04-2.16,3.04-.86-.05-1.44-.3-1.9-1.2h-.03v.96h-1.98v-12Zm2.08,9.04c0,1.04.34,1.6,1.01,1.6s.86-.69.91-1.55v-3.01c-.06-.9.03-1.74-.94-1.74s-1.01,1.28-.98,2v2.71Z"/><path d="m589.21,192.07h-.03c-.32,1.07-.93,1.57-1.94,1.58-1.65,0-2.02-.85-2.02-2.35v-6.91h2.08v6.18c0,.4-.02.85.21,1.2.18.19.37.29.64.29.98,0,.96-1.1.96-1.81v-5.86h2.08v9.03h-1.98v-1.34Z"/><path d="m595.9,185.99h.03c.26-.66.51-1.02.82-1.28.59-.5.99-.46,1.3-.48v2.46c-1.15-.11-2.03.18-2.07,1.5v5.22h-2.08v-9.03h2v1.6Z"/><path d="m601.93,194.42c0,.19.1.32.24.4.16.1.38.13.64.13.88,0,1.04-.7,1.04-1.41v-1.04l-.03-.03c-.42.86-1.01,1.14-1.91,1.18-1.76,0-2.11-1.58-2.16-3.03v-3.27c.05-2.48.82-3.18,2.16-3.22.94-.02,1.52.35,1.81,1.17h.03v-.93h2.08v8.75c0,1.84-.51,3.31-3.36,3.31-1.38,0-2.51-.51-2.62-2.03h2.08Zm.85-8.68c-.98,0-.88.85-.94,1.74v3.01c.05.86.27,1.55.91,1.55s1.01-.56,1.01-1.6v-2.71c.03-.72,0-2-.98-2Z"/></g><g><circle class="cls-2" cx="232.45" cy="528.32" r="6.43"/><path class="cls-7" d="m232.45,518.74c-4.96,0-9,4.04-9,9,0,2,1.28,5.26,3.9,9.96,1.86,3.33,3.68,6.1,3.76,6.22l1.34,2.03,1.34-2.03c.08-.12,1.9-2.89,3.76-6.22,2.62-4.7,3.9-7.96,3.9-9.96,0-4.96-4.04-9-9-9Zm0,13.6c-2.58,0-4.66-2.09-4.66-4.66s2.09-4.66,4.66-4.66,4.66,2.09,4.66,4.66-2.09,4.66-4.66,4.66Z"/></g></g></svg>