<?xml version="1.0" encoding="utf-8"?>
<!-- Generator: Adobe Illustrator 21.0.2, SVG Export Plug-In . SVG Version: 6.00 Build 0)  -->
<svg version="1.1" id="Ebene_1" xmlns="http://www.w3.org/2000/svg" xmlns:xlink="http://www.w3.org/1999/xlink" x="0px" y="0px"
	 viewBox="0 0 36 76" style="enable-background:new 0 0 36 76;" xml:space="preserve">
<style type="text/css">
	.st0{fill:#FFFFFF;}
</style>
<g>
	<path class="st0" d="M24.5,6.6H11.6C5.4,6.6,0.3,11.7,0.3,18v0.4h35.6V18C35.9,11.7,30.8,6.6,24.5,6.6z"/>
	<rect x="0.3" y="34.1" class="st0" width="35.6" height="10.7"/>
	<path class="st0" d="M0.3,48.3c0,6.3,5.1,11.4,11.4,11.4h12.9c6.3,0,11.4-5.1,11.4-11.4v-1H0.3V48.3z"/>
	<rect x="0.3" y="20.9" class="st0" width="35.6" height="10.7"/>
	<path class="st0" d="M11.3,4.7h13.3c0.9,0,1.6-0.7,1.6-1.6V1.9c0-0.9-0.7-1.6-1.6-1.6H11.3c-0.9,0-1.6,0.7-1.6,1.6v1.2
		C9.7,4,10.4,4.7,11.3,4.7z"/>
	<path class="st0" d="M24.6,61.6H11.2c-0.9,0-1.6,0.7-1.6,1.6v1.1c0,1.7,1.3,3.2,3,3.3v4.6c0,0.6,0.4,1,1,1s1-0.4,1-1v-4.5h2.2v6.6
		c0,0.6,0.4,1,1,1s1-0.4,1-1v-6.6h2.2v4.5c0,0.6,0.4,1,1,1s1-0.4,1-1v-4.6c1.7-0.2,3-1.6,3-3.3v-1.1C26.2,62.3,25.5,61.6,24.6,61.6z
		"/>
</g>
</svg>
