<svg version="1.1" xmlns="http://www.w3.org/2000/svg" viewBox="0 0 685 753" xmlns:xlink="http://www.w3.org/1999/xlink">
<style type="text/css">
	.st0{fill:#EDEDEC;}
	.st1{fill:#D9D9D9;}
	.st2{clip-path:url(#SVGID_2_);fill:#E2E2E3;}
	.st3{clip-path:url(#SVGID_4_);fill:#EDEDEC;}
	.st4{clip-path:url(#SVGID_6_);fill:#D9D9D9;}
	.st5{fill:none;stroke:#568333;stroke-miterlimit:10;stroke-dasharray:3,3;}
	.st6{fill:none;stroke:#568333;stroke-width:2;stroke-miterlimit:10;stroke-dasharray:3,3;}
	.st7{fill:none;stroke:#568333;stroke-width:2;stroke-miterlimit:10;}
	.st8{fill:#FFFFFF;}
	.st9{fill:#568333;}
</style>
<g id="Städte">
	<path class="st0" d="M97.3,0c0,0,15.3,41.2,14.3,50.1s-0.9,13.5,0.1,16.7c1,3.2-3.7,15.5-1.4,21.6s5.5,10.8,4.2,13.7
		s-5.8,6.8-5.5,9.5s4.2,6.8,3.4,11.3c-0.8,4.5-1.3,24.5-4.2,31.6s-2.1,14.9-3.4,19.7s-4.5,7.8-4.2,11.1s7.5,3.3,6.3,9.5
		c-1.3,6.2-0.7,13-3.1,14.3c-2.4,1.3-2.9,2.7-2.6,11.5c0.3,8.8,8.7,30.9,8.4,39c-0.3,8.2-15.5,77-16.8,82s-6.8,9.7-6.3,12.1
		c0.5,2.4,1.1,7.4,1.1,7.4h-6.8c0,0,3.4,6.8,3.9,14.7c0.5,7.9-0.8,9.7,1.1,14.2c1.8,4.5,6.3,10,6.6,14.2c0.3,4.2-3.2,12.6-4.2,20
		c-1.1,7.4-3.4,14.2-1.3,20c2.1,5.8,3.9,12.4,7.6,12.6c3.7,0.3,4.5-6.6,6-8.2s2.1-4.2,1.8-6c-0.3-1.8,1.6-3.7,3.2-2.4
		c1.6,1.3,1.6,3.9,0.8,6.8c-0.8,2.9-2.4,5.8-0.5,6.8c1.8,1.1,3.9,2.9,3.9,2.9c0,4.7,2.9,9.7,1.8,10c-1.1,0.3-2.7-2.4-3.9-1.5
		s2.1,12.4,0.9,16.5s-4.4,8.2-3.5,11s3.9,4.9,3.5,6.8c-0.4,1.9-4,1.6-4.4,4.9c-0.4,3.3,8.6,8.4,8.9,10.9c0.6,4.2-2,5.9-6.7,9.5
		c-2.9,2.2-3.6,5.4-1.3,5.8s7,1.4,6.5,2.8c-0.5,1.4-5.1-2.5-6.1,0s-2.8,6.5-1.1,6.5c1.8,0,5.4,0.2,5.3,0c-0.2-0.2-6.3,2.5-6.3,6.8
		s1.2,7.4-0.5,10c-1.8,2.6-3.5,2.8-3.3,0.7c0.2-2.1-1.9-4.2-3.2-4.4c-1.2-0.2,3.2-8.4-0.7-8.2c-3.9,0.2-8.9,0.4-11.9,1.9
		c-3,1.6-4.7,4.4-2.8,4.4s4-0.2,4-0.2l-0.5,2.6c0,0-8.1,6.3-9.5,8.1c-1.4,1.8-1.9,4.7,0,7c1.9,2.3,3.2,2.8,3.9,1.9
		c0.7-0.9-1.1-5.4,0.2-6s5.3-3.7,5.3-3.7s0.2,6.5,3.2,6.8s3-1.2,4-2.5c1.1-1.2,6.3,1.6,7.7,3.2c1.4,1.6-0.4,4.6-2.6,6.8
		s-3.7,4.9-2.1,5.8c1.6,0.9,3.5,0,3.5,0s-1.9,5.1,1.4,6.5c3.3,1.4,5.6,0.4,5.4-1.6c-0.2-1.9,1.8-1.9,2.6-0.7c0.9,1.2,0.2,4,0.7,5.1
		c0.5,1.1,1.6,4.4-0.2,4c-1.8-0.4-7.4-3.7-8.4-2.8c-1.1,0.9,2.8,5.4,1.9,6.5c-0.9,1.1-1.4,0.4-2.6,1.4c-1.2,1.1,0.7,9.6,0.9,13.3
		c0.2,3.7,0,6.8,0.2,8.8c0.2,1.9,3.3,3.7,3.3,0c0-3.7,0.5-7.9,1.6-8.1s0.2,8.2,1.1,10.2s-2.8,2.2-2.5,3.3c0.4,1.1,1.1,4.4,1.1,6.8
		s1.2,4.7-0.7,4.7s-5.6-0.9-4,0.7s5.1,2.5,6.1,4.7s0.9,7.2,2.8,7.4s3.7-5.3,5.1-4.4c1.4,0.9,1.4,3.7-0.5,5.3s-6.1,1.1-6.1,2.5
		s1.2,4.9,3.3,5.6c2.1,0.7,4.7-1.8,4.8,0c0.1,1.8-3.7,7.4-2.5,9.3c1.2,1.9,7.5,1.2,8.2,3.9s-0.5,5.1-3,4.9c-2.5-0.2-9.3-6.3-10.7-6
		c-1.4,0.4-2.6,3-0.4,4.4c2.3,1.4,6.8,2.8,8.6,4c1.8,1.2,0,3.2-1.6,2.3s-5.3-2.6-5.8-1.9c-0.5,0.7-0.5,2.1,0.9,3.5
		c1.4,1.4,4.4,0,5.4,1.2c1.1,1.2-1.9,5.1-0.5,6c1.4,0.9,4.2,2.6,5.6,1.8c1.4-0.9,2.5-1.9,3.3-0.9c0.9,1.1,0,4.7,1.2,5.6s4-2.1,6,0
		s1.6,3,0,3.5c-1.6,0.5-2.6,2.6-1.8,3.9c0.9,1.2,4.4,4,6.1,3.9s1.9-1.8,3.2-1.4s4.7,3.9,7,5.4c2.3,1.6,5.6,1.6,7.9,0
		c2.3-1.6,3-1.8,3-5.8c0-4,1.2-19.6,2.1-20.7c0.9-1.1,6.5-1.6,10.5-3.5s5.8-6.7,7.2-6.8c1.4-0.2,4.2,2.5,8.4,3
		c4.2,0.5,6.7,0.7,6.5-0.4c-0.2-1.1-11-13.1-11.2-17c-0.2-3.9-3.7-20.2-0.7-24.2c3-4,12.8-9.3,14.9-13c2.1-3.7-0.9-16.1,1.6-19.3
		c2.5-3.2,21.9-22.4,24-24.5c2.1-2.1-1.2-4.7,0-8.1c1.2-3.3,3.7-8.8,0-10.2c-3.7-1.4-11,0.2-13.7-1.1c-2.6-1.2-10-8.6-11.2-12.1
		c-1.2-3.5-3.2-12.1,3.7-20.3c6.8-8.2,11.2-12.3,16.1-12.3s6,1.2,7,0c1-1.2-0.7-9.1,1.7-10.9c2.5-1.8,4.7-0.5,4.9-1.8
		s-2.6-16.3,0-20s12.3-8.1,12.8-9.3s-9.3-4.4-8.8-6.7c0.5-2.3,2.1-4.6,4.7-3.7s4.2,4.4,5.6,5.3c1.4,0.9,7.7,0.2,8.9-2.5
		c1.2-2.6,1.4-11.6,0-12.4c-1.4-0.9-6.7-0.9-7.2,1.2c-0.5,2.1-0.4,4.6-2.5,4.9c-2.1,0.4-3.2-3.3-5.8-4.4c-2.6-1.1-7.7-1.1-7.4-6.1
		s-0.5-15.3-1.1-18.6c-0.5-3.3-1.1-5.8,3-5.3c4,0.5,18.2,8.8,24,7c5.8-1.8,16.5-3.5,18.1-6.5s-3-5.4-1.8-10
		c1.2-4.6,1.2-10.3,3.2-12.6c1.9-2.3,4-4.2,4-6.7s-4.4-7.7-5.3-10.7c-0.9-3-0.5-5.3,2.3-4.2c2.8,1.1,9.6,6.3,21.7,5.3
		c12.1-1.1,43.1-8.4,47.2-10.7c4-2.3,6.8-4,8.8-7.7c1.9-3.7,8.4-13.1,11.7-16.5c3.3-3.3,5.4-6,5.3-10.2c-0.2-4.2,0.7-10.2-0.7-10.2
		s-2.6,2.1-4.6,1.2c-1.9-0.9-8.2-4.9-6.8-9.3c1.4-4.4,6.7-8.8,5.4-10.7c-1.2-1.9-7.4-10.2-12.3-12.4c-4.9-2.3-9.1-9.3-8.6-11.9
		c0.5-2.6,1.1-5.3,2.5-3.7c1.4,1.6,6.5,7.9,9.3,7.5c2.8-0.4,10.5,0.7,12.1,3.2s4.4,4.6,7.9,6s16.5,1.4,22.1,3
		c5.6,1.6,16.3,0.4,21.9-5.3c5.6-5.6,7.9-13.8,12.6-16.3s10.9-2.3,14.2-8.6c3.3-6.3,8.1-21.4,14.9-24.5c6.8-3.2,24.4-12.6,29.4-21.4
		c5.1-8.8,11-22.3,17.7-28.9c6.7-6.7,17-13,18.8-13.8c1.8-0.9,6-11.2,8.8-15.6c2.8-4.4,6.1-8.4,4.9-8.9c-1.2-0.5-4.6,4-4.4,2.5
		c0.2-1.6,1.1-17.5,2.3-22.6c1.2-5.1,1.8-11.9,3.9-14c2.1-2.1,4.6-4,3.2-4.9c-1.4-0.9-5.8-4.6-4.2-5.3c1.6-0.7,3.6,2.8,4.6,1.2
		c1-1.6,1.5-3.9,3.6-3s0,4.6,1.8,3.9c1.8-0.7,4.4-4.4,7.7-7.4c3.3-3,20.5-10.7,20.5-10.7V0H97.3z"/>
	<path class="st0" d="M86.2,459.5c-1.8,0.5-0.8,2.4-1.5,5.5c-0.6,3.1-2.3,4.2-1.8,5.8c0.5,1.6,2.7,3.2,3.2,6
		c0.5,2.7-1.7,9.7-1.7,11.5c0,1.8,3.9,3.7,7.2,3.6c3.2-0.2,3.9,0.2,4.7-2.4c0.8-2.6,3.1-4.9,2.9-6.3s-6.6-4.7-6.3-7.4
		c0.3-2.8,1-5.5,2.7-6s-1.1-3.2-1.3-5.7c-0.2-2.4-1-3.2-2.3-2.7c-1.3,0.5-2.7,0.8-4.4-0.5S86.2,459.5,86.2,459.5z"/>
	<path class="st0" d="M95.1,527.7c-4,1.1-4.4,4-2.6,4.4c1.8,0.3,5.8-0.8,6.8-2.2C100.3,528.5,99.1,526.6,95.1,527.7z"/>
	<path class="st0" d="M104.6,515.2c-2.9,1.1-3.8,4.5-2.4,5.5c1.4,1.1,5.1,0,6.7-1.3c1.6-1.3,3.4-3.5,1.6-4.2
		C108.7,514.6,107.5,514.2,104.6,515.2z"/>
	<path class="st0" d="M86.2,588.9c-1.4,0.5-1.4,2.2-1.6,3.7c-0.1,1.4,0.1,2.4,1.6,1.7c1.4-0.7,2-2,1.8-3.3
		C87.9,589.7,86.2,588.9,86.2,588.9z"/>
	<path class="st0" d="M82.8,596.7c-1.3,0-1.6,1.2-1.2,3.2c0.4,1.9,0.9,3.9,2.1,3.5c1.2-0.4,1.3-0.9,0.9-2.8
		C84.2,598.6,84.2,596.7,82.8,596.7z"/>
	<path class="st0" d="M92,591.7c-1.3,0.4-0.9,4,0,5c0.9,1.1,2.2,1.5,3,0.8c0.8-0.7,0.5-2.5-0.5-3.9C93.4,592.3,93.4,591.3,92,591.7z
		"/>
	<path class="st0" d="M91.2,609.3c-1,0.3-1.8,2.8-0.5,4.3s3.7,3.7,2.6,6.5c-1,2.8-3.6,3.9-3.7,5.3c-0.1,1.4-0.3,1.1,1.5,3.3
		c1.9,2.2,2.7,4.6,3.4,4.6c0.7,0,0.4-6.5,1.3-6.1c0.9,0.4,1.5,0.9,1.4,4.3c-0.1,3.4-0.1,4.9,0.6,4.8c0.7-0.1,2.5,0.4,2.4-4.9
		s-2.9-7.4-3.1-9.9c-0.2-2.5,0.7-3.3-0.1-4.4c-0.8-1.1-0.7-4.9-1.6-6.7C94.5,608.7,91.2,609.3,91.2,609.3z"/>
	<path class="st0" d="M87.7,632.5c-0.6,0.6-0.4,1.1,0.4,2.5c0.8,1.3,1.2,2.7,3.1,2.9c1.8,0.2,3.2-0.7,2.9-1.5
		c-0.4-0.8-2-2.4-3.3-3.3C89.4,632,87.7,632.5,87.7,632.5z"/>
	<path class="st0" d="M163.8,690.5c0.1-2.1,4-0.6,5.7-1.5c1.7-1,2.6-5.2,4.5-5.4c1.8-0.3,3.9,3.8,5.3,3.5c1.4-0.3,2.6-3.3,4.9-2.6
		c2.2,0.7,4.9,5.6,5.4,7.4c0.6,1.8-1,5.7,0,7c1,1.3,2.6,0.4,3.2,1.8c0.6,1.4,3.2,6.7,6.7,9.8c3.5,3.1,11.4,8.9,14.4,11.8
		c2.9,2.9,7.5,6.1,10.7,6.5c3.2,0.4,7.5-1,8.2,0c0.7,1-1.3,5.4-3.5,6c-2.2,0.6-5.3-0.8-7.8,0.7c-2.5,1.5-3.6,3.6-4.6,3.8
		c-1,0.1-4.6-4.7-6.7-4.3c-2.1,0.4-4.6,1.1-2.9,3.1c1.7,2,4.5,4.5,3.5,5.2s-2.5-1.3-4.2-0.8c-1.7,0.4-6.5,1.4-8.2,0.4
		c-1.7-1-4.9-5.9-6.3-4.9c-1.4,1-1,2.9,0.1,4.2c1.1,1.3-1.1,1.8-1.5,2.6c-0.4,0.8,4.6,2,5.2,3.3c0.6,1.4,2.1,4.9,1,5.4
		c-1.1,0.6-4.5-4.7-7.1-4.7c-2.6,0-4.2,0.1-4.5-1.8c-0.3-2-3.2-5.2-4.3-4.3c-1.1,0.8-0.7,3.1,0.4,4.7c1.1,1.7,0.6,3.6-1.7,2.5
		c-2.2-1.1-8.2-7.7-7.9-9.9c0.3-2.2,0.4-3.8,2.2-3.8c1.8,0,3.3-2.2,1.7-2.8c-1.7-0.6-5.3,2.5-8.1,2.2c-2.8-0.3-12.4-2.6-14.4-2.8
		c-2-0.1-6.5-0.8-5.3-1.5c1.3-0.7,3.9-1.4,3.6-3.2c-0.3-1.8,0.1-7.8,2.2-7.7c2.1,0.1,5.2,6.7,6.7,6.7s1.5-3.1,0.4-4.3
		c-1.1-1.3,2.9-1,4.9-0.4c2,0.6,6,1.1,7.9,2.2c2,1.1,3.9,4.7,5.2,4.6c1.3-0.1,5-2.6,3.2-3.6c-1.8-1-8.9-3.6-11.3-5.4
		c-2.4-1.8-6-6.8-1.7-9.3s6.3-3.5,6.8-4.9c0.6-1.4,0.3-3.6-2.8-3.1c-3.1,0.6-8.9,3.9-10.2,0.4s-1.7-7.7,0-8.5
		c1.7-0.8,2.9-0.4,3.1-1.4C166.2,692.3,163.7,692.6,163.8,690.5z"/>
	<path class="st0" d="M141.8,716.4c-2.5,0.8-3.1,3.3-3.8,5.7c-0.7,2.4-0.7,4.5,1.1,3.5c1.8-1,0.8-4.2,2.6-3.8c1.8,0.4,2.4,4.7,3.5,4
		s1.9-3,2.4-3.3c0.5-0.3,0.8-1.3,2.4-2.8c1.7-1.5,2.6-3.6-1-3.3C145.6,716.7,141.8,716.4,141.8,716.4z"/>
	<path class="st0" d="M248.7,721.1c-3.1,0.4-4,1.7-6.3,2.4c-2.2,0.7-5.2,2.5-2.4,3.1c2.8,0.6,5.6-3.1,8.1-2.7c2.5,0.3,5.4,0.4,7,0
		c1.5-0.4,2.5-2.6,0-2.7C252.6,721,248.7,721.1,248.7,721.1z"/>
	<path class="st0" d="M109.9,697.8c-1.7-1.6-5-3.9-4.1-1.6s3.4,5.8,7.4,8.2s7.5,3.9,8.3,3.3c0.8-0.7-0.8-3-1.2-4.5
		c-0.4-1.4-3.2-1.4-5.7-2.6C112.1,699.4,109.9,697.8,109.9,697.8z"/>
	<path class="st0" d="M121.7,710.5c0.8-0.9,4,0.9,5,0.8s0.9-2,3.2-0.5c2.2,1.4,4.6,2.2,5.8,4.1c1.2,1.8,2.1,4.3,0,5
		c-2.1,0.7-2.8,2.4-3.5,2.5s-2.2-2.2-2.8-2c-0.6,0.3-4.8,1.4-4.3-0.4c0.5-1.8,1.1-4.3-0.3-5.7C123.4,713,121.7,710.5,121.7,710.5z"
		/>
	<path class="st0" d="M90.8,640.4c-1.3,0.5-1.2,1.6-1.2,3c0,1.4-1.4,4.1,0,4.9c1.3,0.8,3.6,0.3,3.8-1.7s1-3.5,0.8-4.9
		C94,640.4,90.8,640.4,90.8,640.4z"/>
	<path class="st0" d="M91.6,650.7c-0.9,0.8-1.3,2.4,0,3.5c1.3,1.2,2.4,1.1,2.6,0c0.3-1.1,0.9-3.4,0-3.5S91.6,650.7,91.6,650.7z"/>
	<path class="st0" d="M100.2,653.8c-0.9-0.6-2.1,0-2.2,1.1c-0.2,2.5-0.1,6.6,0.5,7.2c0.9,0.9,3.6,1.1,4.3,0.7s-1-2.9,0.1-3.7
		c1.1-0.8,0-3.2-0.9-4C101.6,654.7,100.9,654.2,100.2,653.8z"/>
	<path class="st0" d="M98.6,666.8c-1.4-0.3-2.1,2.1-2.4,3.5c-0.3,1.4-1.6,2.9,0,2.5s1.4-0.5,2.4-2.2
		C99.5,668.9,99.9,667.1,98.6,666.8z"/>
	<path class="st0" d="M99,675c-1.1,1-3,1.6-2.4,2.6c0.7,1.1,3.2,0.4,4.2,0s1.6-2.8,1.4-3.7c-0.1-0.9-0.6-1.8-1.4-1.8
		C99.9,672,100,674,99,675z"/>
	<path class="st0" d="M101.6,680.1c-1.5,0.6-2.2,1.6-1,3.4c1.2,1.8,3.1,2.3,3.5,1.6c0.4-0.8,0.5-1.9,0-2.7c-0.5-0.8,0.7-1.7-0.2-2.3
		C103.1,679.4,101.6,680.1,101.6,680.1z"/>
	<path class="st0" d="M83.8,607.6c-1.2,0.6-0.7,2.5-0.4,3.7c0.4,1.2,1.7,2.5,2.5,1.7c0.8-0.7,0.7-2.5,0.3-3.8
		C86,607.9,85,607,83.8,607.6z"/>
	<path class="st0" d="M270,644.9c-1.1,0.8,1.5,0.5,1.9,2.1s1.5,2.7,2.8,3s3.1,2,1.4,2.8c-1.5,0.6-0.2,1.8-2,1.6s-3,0.1-2.8,1.2
		s1.2,3.2-0.5,3.3s-4.3-0.9-5,0s-1.8,2.5-0.8,3.6s2.7-0.1,3.6,0.7s0.8,3,1.9,3s1.5-2.9,2.6-3s1.1-2,2.5-2.5c4.8-1.8,7.5-3.9,9.9-7.1
		s4.7-6.4,4.7-7.5s-1.3-0.7-2.5-0.1s-4.4-0.2-3.3-1.2s4.3-2.3,2.9-2.5s-3.5-0.7-3.8,1.1s-1.5,2.3-2.9,2.2s-2-1.8-1.5-2.5
		s-1.8-1.5-3.4-1.4c-1.6,0.1-2.5,1.3-1.5,1.6s4.2,1.4,3.2,1.9c-1,0.5-1.8,0.4-4.6,0S270,644.9,270,644.9z"/>
	<path class="st0" d="M262.5,655.8c-1.1,0.1-2.3,0.7-1.8,1.8s1.7,1.9,2.7,1.8c1-0.1,2.1-1.8,1.1-2.6S262.5,655.8,262.5,655.8z"/>
	<path class="st0" d="M257.5,655.8c-0.7,0.7-0.6,1.5,0,2.2c0.6,0.7,1.5,0.5,1.7,0c0.2-0.5,0.8-1.5,0-1.8
		C258.4,655.8,257.5,655.8,257.5,655.8z"/>
	<path class="st0" d="M295,642.4c-0.4,0.9,1.2,2.7,0,3.5s-2.6,1.5-2.2,3.2c0.4,1.7,2.1,3.6,2.1,4.9c0,1.3-1,2-1.5,1.2
		c-0.6-0.8-2.1-1.7-3.1-1.2c-1,0.5-3.2,2.9-4.6,4.5c-1.3,1.6-1.5,3-2,4.1s-1.7,2.4-0.7,2.7s2.5,0.1,2.9,1s1,2.3,1.7,1.7
		s-0.6-3.6,0.4-3.9c1-0.3,2.6,2.3,3.7,1.7c1.2-0.7,0.4-2.8-0.5-3.9s-0.6-2.4,0.3-2.5c0.9-0.1,2.9,1.3,3.7,2c0.8,0.7,2.6,0.4,2.3-0.8
		c-0.4-1.2-2-3.1-1.5-3.5c1.3-1.3,5,3.6,7.2,2.3c2.2-1.3,2.6-3.7,4.5-4.1c1.8-0.4,3.5-1.2,3.2-2s-4-0.4-4.1-1.1s1.1-1.5,2.4-1.6
		s4-1.9,3.6-3.2c-0.4-1.2-1.9-1.8-4.3-1.8s-3.8,0.5-3.6,1.6c0.2,1.1,1.1,3.2,0.2,3.5c-0.9,0.3-3.6-3.2-3.9-3.7
		c-0.3-0.6,1.5-0.2,1.9-0.8c0.4-0.6,1-2.2-0.3-2.5s-3.7,0.2-4.3-0.2c-0.6-0.4-0.3-2.1-1.5-2.5C295.7,640.8,295.3,641.4,295,642.4z"
		/>
	<path class="st0" d="M283.6,667.4c-0.9-0.5-2.3-0.9-2.2,0c0.1,0.9,1,2.2,1.7,2.1c0.7-0.1,1.2-0.5,0.9-1.3
		C283.6,667.4,284.5,668,283.6,667.4z"/>
	<polygon class="st1" points="261.8,0 254,38.1 323.2,117.8 329.9,158.4 392.5,168 441.2,117.4 429.4,40.8 383.1,0.3 	"/>
	<path class="st1" d="M153.8,0c0,0-2.2,6,1,18.8c3.2,12.7,8,23.1,8,26.3c0,3.2,9.2,0,13.4,0c4.1,0,37.6,1.4,37.6,1.4l28.7,15.3
		c0,0,22.4-19.9,25-30.3c2.5-10.4,4.5-20,4.9-25.5c0.4-5.5,0.2-6,0.2-6L153.8,0z"/>
	<g>
		<defs>
			<path id="SVGID_1_" d="M98.8,1.3c0,0,13.8,40,12.7,48.8s-0.9,13.5,0.1,16.7c1,3.2-3.7,15.5-1.4,21.6s5.5,10.8,4.2,13.7
				s-5.8,6.8-5.5,9.5s4.2,6.8,3.4,11.3c-0.8,4.5-1.3,24.5-4.2,31.6s-2.1,14.9-3.4,19.7s-4.5,7.8-4.2,11.1s7.5,3.3,6.3,9.5
				c-1.3,6.2-0.7,13-3.1,14.3c-2.4,1.3-2.9,2.7-2.6,11.5c0.3,8.8,8.7,30.9,8.4,39c-0.3,8.2-15.5,77-16.8,82s-6.8,9.7-6.3,12.1
				c0.5,2.4,1.1,7.4,1.1,7.4h-6.8c0,0,3.4,6.8,3.9,14.7c0.5,7.9-0.8,9.7,1.1,14.2c1.8,4.5,6.3,10,6.6,14.2c0.3,4.2-3.2,12.6-4.2,20
				c-1.1,7.4-3.4,14.2-1.3,20c2.1,5.8,3.9,12.4,7.6,12.6c3.7,0.3,4.5-6.6,6-8.2s2.1-4.2,1.8-6c-0.3-1.8,1.6-3.7,3.2-2.4
				c1.6,1.3,1.6,3.9,0.8,6.8c-0.8,2.9-2.4,5.8-0.5,6.8c1.8,1.1,3.9,2.9,3.9,2.9c0,4.7,2.9,9.7,1.8,10c-1.1,0.3-2.7-2.4-3.9-1.5
				s2.1,12.4,0.9,16.5s-4.4,8.2-3.5,11s3.9,4.9,3.5,6.8c-0.4,1.9-4,1.6-4.4,4.9c-0.4,3.3,8.6,8.4,8.9,10.9c0.6,4.2-2,5.9-6.7,9.5
				c-2.9,2.2-3.6,5.4-1.3,5.8s7,1.4,6.5,2.8c-0.5,1.4-5.1-2.5-6.1,0s-2.8,6.5-1.1,6.5c1.8,0,5.4,0.2,5.3,0c-0.2-0.2-6.3,2.5-6.3,6.8
				s1.2,7.4-0.5,10c-1.8,2.6-3.5,2.8-3.3,0.7c0.2-2.1-1.9-4.2-3.2-4.4c-1.2-0.2,3.2-8.4-0.7-8.2c-3.9,0.2-8.9,0.4-11.9,1.9
				c-3,1.6-4.7,4.4-2.8,4.4s4-0.2,4-0.2l-0.5,2.6c0,0-8.1,6.3-9.5,8.1c-1.4,1.8-1.9,4.7,0,7c1.9,2.3,3.2,2.8,3.9,1.9
				c0.7-0.9-1.1-5.4,0.2-6s5.3-3.7,5.3-3.7s0.2,6.5,3.2,6.8s3-1.2,4-2.5c1.1-1.2,6.3,1.6,7.7,3.2c1.4,1.6-0.4,4.6-2.6,6.8
				s-3.7,4.9-2.1,5.8c1.6,0.9,3.5,0,3.5,0s-1.9,5.1,1.4,6.5c3.3,1.4,5.6,0.4,5.4-1.6c-0.2-1.9,1.8-1.9,2.6-0.7
				c0.9,1.2,0.2,4,0.7,5.1c0.5,1.1,1.6,4.4-0.2,4c-1.8-0.4-7.4-3.7-8.4-2.8c-1.1,0.9,2.8,5.4,1.9,6.5c-0.9,1.1-1.4,0.4-2.6,1.4
				c-1.2,1.1,0.7,9.6,0.9,13.3c0.2,3.7,0,6.8,0.2,8.8c0.2,1.9,3.3,3.7,3.3,0c0-3.7,0.5-7.9,1.6-8.1s0.2,8.2,1.1,10.2
				s-2.8,2.2-2.5,3.3c0.4,1.1,1.1,4.4,1.1,6.8s1.2,4.7-0.7,4.7s-5.6-0.9-4,0.7s5.1,2.5,6.1,4.7s0.9,7.2,2.8,7.4s3.7-5.3,5.1-4.4
				c1.4,0.9,1.4,3.7-0.5,5.3s-6.1,1.1-6.1,2.5s1.2,4.9,3.3,5.6c2.1,0.7,4.7-1.8,4.8,0c0.1,1.8-3.7,7.4-2.5,9.3
				c1.2,1.9,7.5,1.2,8.2,3.9s-0.5,5.1-3,4.9c-2.5-0.2-9.3-6.3-10.7-6c-1.4,0.4-2.6,3-0.4,4.4c2.3,1.4,6.8,2.8,8.6,4
				c1.8,1.2,0,3.2-1.6,2.3s-5.3-2.6-5.8-1.9c-0.5,0.7-0.5,2.1,0.9,3.5c1.4,1.4,4.4,0,5.4,1.2c1.1,1.2-1.9,5.1-0.5,6
				c1.4,0.9,4.2,2.6,5.6,1.8c1.4-0.9,2.5-1.9,3.3-0.9c0.9,1.1,0,4.7,1.2,5.6s4-2.1,6,0s1.6,3,0,3.5c-1.6,0.5-2.6,2.6-1.8,3.9
				c0.9,1.2,4.4,4,6.1,3.9s1.9-1.8,3.2-1.4s4.7,3.9,7,5.4c2.3,1.6,5.6,1.6,7.9,0c2.3-1.6,3-1.8,3-5.8c0-4,1.2-19.6,2.1-20.7
				c0.9-1.1,6.5-1.6,10.5-3.5s5.8-6.7,7.2-6.8c1.4-0.2,4.2,2.5,8.4,3c4.2,0.5,6.7,0.7,6.5-0.4c-0.2-1.1-11-13.1-11.2-17
				c-0.2-3.9-3.7-20.2-0.7-24.2c3-4,12.8-9.3,14.9-13c2.1-3.7-0.9-16.1,1.6-19.3c2.5-3.2,21.9-22.4,24-24.5c2.1-2.1-1.2-4.7,0-8.1
				c1.2-3.3,3.7-8.8,0-10.2c-3.7-1.4-11,0.2-13.7-1.1c-2.6-1.2-10-8.6-11.2-12.1c-1.2-3.5-3.2-12.1,3.7-20.3
				c6.8-8.2,11.2-12.3,16.1-12.3s6,1.2,7,0c1-1.2-0.7-9.1,1.7-10.9c2.5-1.8,4.7-0.5,4.9-1.8s-2.6-16.3,0-20s12.3-8.1,12.8-9.3
				s-9.3-4.4-8.8-6.7c0.5-2.3,2.1-4.6,4.7-3.7s4.2,4.4,5.6,5.3c1.4,0.9,7.7,0.2,8.9-2.5c1.2-2.6,1.4-11.6,0-12.4
				c-1.4-0.9-6.7-0.9-7.2,1.2c-0.5,2.1-0.4,4.6-2.5,4.9c-2.1,0.4-3.2-3.3-5.8-4.4c-2.6-1.1-7.7-1.1-7.4-6.1s-0.5-15.3-1.1-18.6
				c-0.5-3.3-1.1-5.8,3-5.3c4,0.5,18.2,8.8,24,7c5.8-1.8,16.5-3.5,18.1-6.5s-3-5.4-1.8-10c1.2-4.6,1.2-10.3,3.2-12.6
				c1.9-2.3,4-4.2,4-6.7s-4.4-7.7-5.3-10.7c-0.9-3-0.5-5.3,2.3-4.2c2.8,1.1,9.6,6.3,21.7,5.3c12.1-1.1,43.1-8.4,47.2-10.7
				c4-2.3,6.8-4,8.8-7.7c1.9-3.7,8.4-13.1,11.7-16.5c3.3-3.3,5.4-6,5.3-10.2c-0.2-4.2,0.7-10.2-0.7-10.2s-2.6,2.1-4.6,1.2
				c-1.9-0.9-8.2-4.9-6.8-9.3c1.4-4.4,6.7-8.8,5.4-10.7c-1.2-1.9-7.4-10.2-12.3-12.4c-4.9-2.3-9.1-9.3-8.6-11.9
				c0.5-2.6,1.1-5.3,2.5-3.7c1.4,1.6,6.5,7.9,9.3,7.5c2.8-0.4,10.5,0.7,12.1,3.2s4.4,4.6,7.9,6s16.5,1.4,22.1,3
				c5.6,1.6,16.3,0.4,21.9-5.3c5.6-5.6,7.9-13.8,12.6-16.3s10.9-2.3,14.2-8.6c3.3-6.3,8.1-21.4,14.9-24.5
				c6.8-3.2,24.4-12.6,29.4-21.4c5.1-8.8,11-22.3,17.7-28.9c6.7-6.7,17-13,18.8-13.8c1.8-0.9,6-11.2,8.8-15.6
				c2.8-4.4,6.1-8.4,4.9-8.9c-1.2-0.5-4.6,4-4.4,2.5c0.2-1.6,1.1-17.5,2.3-22.6c1.2-5.1,1.8-11.9,3.9-14c2.1-2.1,4.6-4,3.2-4.9
				c-1.4-0.9-5.8-4.6-4.2-5.3c1.6-0.7,3.6,2.8,4.6,1.2c1-1.6,1.5-3.9,3.6-3s0,4.6,1.8,3.9c1.8-0.7,4.4-4.4,7.7-7.4
				c3.3-3,20.5-10.7,20.5-10.7V0.5L98.8,1.3z"/>
		</defs>
		<clipPath id="SVGID_2_">
			<use xlink:href="#SVGID_1_"  style="overflow:visible;"/>
		</clipPath>
		<path class="st2" d="M175.6,43.6c5.3-6.4,5.8-15.1,10.6-15.1s7.5-7,10.5-7.4c3-0.3,3.5,5.7,7.8,6.4c4.3,0.7,17.9-1.2,20.6,0.3
			c6.1,3.3,5.2,10.8,5.3,9.1c0.8-8.1,7.3-9.7,10.3-11.4c3-1.7,10.8-0.2,18.1-0.6c7.3-0.3,11.5,8.5,14.5,11.2
			c3,2.7,17.7,17.6,22.6,22.9c7.5,8.2,19.3,8.6,24.9,12s14.3,13,22.9,16.6c8.6,3.7,14,3.3,16,5.3c2,2,6.7,8.3,4.7,12
			c-2,3.7-9.3,12.6-11,16.3s-0.7,9-3.7,12.6c-3,3.7-7.6,6-6.3,7s14,0.3,17.3,1.7c3.3,1.3,7,2.7,13.6,3.7c6.7,1,11.3,2.7,11.3,2.7
			s3.7-5.7,6.3-4.7c2.7,1,7.3,3.7,8.6,0.7s3.3-6.7,8.6-10.3c5.3-3.7,10.6-6.7,11.6-13.3c1-6.7-1.2-9.3,1.3-13.6s12.3-14.3,12.3-14.3
			l35.6,26.3L411,253.4l-46.2,49.4l25.3,95.4L192,682.6l-2.2-3.2c0,0-14.5-7.9-23.1-7.4s-24,2.4-29-2.2c-4.9-4.6-1.9-21.9-4.9-23.9
			c-3-2-9.1,3.2-11,2.6c-1.9-0.6-12.5-18.3-10.4-22.9s12.4-16.6,12.6-20.8c0.2-4.2,3.8-6,3.5-8.2c-0.2-2.2-4.9-13.1-2.9-17.3
			c2-4.2,4-7.8,4.7-12.4s4-11.7,2.4-20.8c-1.6-9.1-0.9-12.1,1.3-14c2.2-2,2.7-5.7-0.2-7.1c-2.9-1.3-6-2.7-8.2-3.9
			c-2.2-1.2,0.7-3.2,4.7-3.3c4-0.1,7.7-1.9,7.6-4.6s-3.4-3.5-7.6-3.5s-4.7-4.4-3.3-5.8s2-4.9,1.1-5.5c-0.9-0.7-0.2-5.1-2-6.6
			s-2.4-4.7-0.2-5.5c2.2-0.9,1.3-2.9-0.4-2.9s-6.9,1.1-6.4-7.7c0.4-8.9,2-13.1,4.4-13.8c2.4-0.7,0.2-6.2-1.3-10.2
			c-1.6-4-3.3-26.2-2-30.2c1.3-4-1.8-9.5-1.3-11.3c0.4-1.8,4.2-1.3,4.9-6.7s0.4-10.4,3.1-12.2c2.7-1.8,5.8-4.2,2.7-10.9
			s-7.3-26.2-5.8-32.1c1.6-6,8-11.5,9.8-15.5c1.8-4,2.7-11.3,0.9-14c-1.8-2.7-4.7-3.8-3.5-4.7c1.1-0.9,3.5-4.9,4-6.9
			c0.4-2,5.8-17.7,5.5-23.7s0.9-10.6-0.9-11.1c-1.8-0.4-5.3-2-4.7-4.4c0.7-2.4,1.1-6.4-1.1-9.5c-2.2-3.1-4.9-9.3-4-12.2
			c0.9-2.9-0.2-2.4-2.4-5.5s-1.8-9.8-0.2-14.2c1.6-4.4,0-11.7,2-13.5c2-1.8,6.7-3.8,6.7-5.8c0-2-5.1-17.3-5.5-19.7
			c-0.4-2.4,4.4-4.7,4.7-9.1c0.2-4.4-1.1-4.2,4.4-16.2c5.5-12,8.9-21.3,11.1-22.8c2.2-1.6,7.1-0.9,7.5-3.1c0.4-2.2-4-10-2.9-14.6
			c1.1-4.7,1.6-9.5-0.2-14c-1.8-4.4-3.3-8.2-1.3-10.2c2-2,2.2-5.3,0.2-7.8c-2-2.4-4-5.1-0.4-7.3s16.2-9.5,19.7-12
			c3.5-2.4,5.1-12.2,5.3-17.7S175.6,43.6,175.6,43.6z"/>
	</g>
	<g>
		<defs>
			<path id="SVGID_3_" d="M98.8,1.3c0,0,13.8,40,12.7,48.8s-0.9,13.5,0.1,16.7c1,3.2-3.7,15.5-1.4,21.6s5.5,10.8,4.2,13.7
				s-5.8,6.8-5.5,9.5s4.2,6.8,3.4,11.3c-0.8,4.5-1.3,24.5-4.2,31.6s-2.1,14.9-3.4,19.7s-4.5,7.8-4.2,11.1s7.5,3.3,6.3,9.5
				c-1.3,6.2-0.7,13-3.1,14.3c-2.4,1.3-2.9,2.7-2.6,11.5c0.3,8.8,8.7,30.9,8.4,39c-0.3,8.2-15.5,77-16.8,82s-6.8,9.7-6.3,12.1
				c0.5,2.4,1.1,7.4,1.1,7.4h-6.8c0,0,3.4,6.8,3.9,14.7c0.5,7.9-0.8,9.7,1.1,14.2c1.8,4.5,6.3,10,6.6,14.2c0.3,4.2-3.2,12.6-4.2,20
				c-1.1,7.4-3.4,14.2-1.3,20c2.1,5.8,3.9,12.4,7.6,12.6c3.7,0.3,4.5-6.6,6-8.2s2.1-4.2,1.8-6c-0.3-1.8,1.6-3.7,3.2-2.4
				c1.6,1.3,1.6,3.9,0.8,6.8c-0.8,2.9-2.4,5.8-0.5,6.8c1.8,1.1,3.9,2.9,3.9,2.9c0,4.7,2.9,9.7,1.8,10c-1.1,0.3-2.7-2.4-3.9-1.5
				s2.1,12.4,0.9,16.5s-4.4,8.2-3.5,11s3.9,4.9,3.5,6.8c-0.4,1.9-4,1.6-4.4,4.9c-0.4,3.3,8.6,8.4,8.9,10.9c0.6,4.2-2,5.9-6.7,9.5
				c-2.9,2.2-3.6,5.4-1.3,5.8s7,1.4,6.5,2.8c-0.5,1.4-5.1-2.5-6.1,0s-2.8,6.5-1.1,6.5c1.8,0,5.4,0.2,5.3,0c-0.2-0.2-6.3,2.5-6.3,6.8
				s1.2,7.4-0.5,10c-1.8,2.6-3.5,2.8-3.3,0.7c0.2-2.1-1.9-4.2-3.2-4.4c-1.2-0.2,3.2-8.4-0.7-8.2c-3.9,0.2-8.9,0.4-11.9,1.9
				c-3,1.6-4.7,4.4-2.8,4.4s4-0.2,4-0.2l-0.5,2.6c0,0-8.1,6.3-9.5,8.1c-1.4,1.8-1.9,4.7,0,7c1.9,2.3,3.2,2.8,3.9,1.9
				c0.7-0.9-1.1-5.4,0.2-6s5.3-3.7,5.3-3.7s0.2,6.5,3.2,6.8s3-1.2,4-2.5c1.1-1.2,6.3,1.6,7.7,3.2c1.4,1.6-0.4,4.6-2.6,6.8
				s-3.7,4.9-2.1,5.8c1.6,0.9,3.5,0,3.5,0s-1.9,5.1,1.4,6.5c3.3,1.4,5.6,0.4,5.4-1.6c-0.2-1.9,1.8-1.9,2.6-0.7
				c0.9,1.2,0.2,4,0.7,5.1c0.5,1.1,1.6,4.4-0.2,4c-1.8-0.4-7.4-3.7-8.4-2.8c-1.1,0.9,2.8,5.4,1.9,6.5c-0.9,1.1-1.4,0.4-2.6,1.4
				c-1.2,1.1,0.7,9.6,0.9,13.3c0.2,3.7,0,6.8,0.2,8.8c0.2,1.9,3.3,3.7,3.3,0c0-3.7,0.5-7.9,1.6-8.1s0.2,8.2,1.1,10.2
				s-2.8,2.2-2.5,3.3c0.4,1.1,1.1,4.4,1.1,6.8s1.2,4.7-0.7,4.7s-5.6-0.9-4,0.7s5.1,2.5,6.1,4.7s0.9,7.2,2.8,7.4s3.7-5.3,5.1-4.4
				c1.4,0.9,1.4,3.7-0.5,5.3s-6.1,1.1-6.1,2.5s1.2,4.9,3.3,5.6c2.1,0.7,4.7-1.8,4.8,0c0.1,1.8-3.7,7.4-2.5,9.3
				c1.2,1.9,7.5,1.2,8.2,3.9s-0.5,5.1-3,4.9c-2.5-0.2-9.3-6.3-10.7-6c-1.4,0.4-2.6,3-0.4,4.4c2.3,1.4,6.8,2.8,8.6,4
				c1.8,1.2,0,3.2-1.6,2.3s-5.3-2.6-5.8-1.9c-0.5,0.7-0.5,2.1,0.9,3.5c1.4,1.4,4.4,0,5.4,1.2c1.1,1.2-1.9,5.1-0.5,6
				c1.4,0.9,4.2,2.6,5.6,1.8c1.4-0.9,2.5-1.9,3.3-0.9c0.9,1.1,0,4.7,1.2,5.6s4-2.1,6,0s1.6,3,0,3.5c-1.6,0.5-2.6,2.6-1.8,3.9
				c0.9,1.2,4.4,4,6.1,3.9s1.9-1.8,3.2-1.4s4.7,3.9,7,5.4c2.3,1.6,5.6,1.6,7.9,0c2.3-1.6,3-1.8,3-5.8c0-4,1.2-19.6,2.1-20.7
				c0.9-1.1,6.5-1.6,10.5-3.5s5.8-6.7,7.2-6.8c1.4-0.2,4.2,2.5,8.4,3c4.2,0.5,6.7,0.7,6.5-0.4c-0.2-1.1-11-13.1-11.2-17
				c-0.2-3.9-3.7-20.2-0.7-24.2c3-4,12.8-9.3,14.9-13c2.1-3.7-0.9-16.1,1.6-19.3c2.5-3.2,21.9-22.4,24-24.5c2.1-2.1-1.2-4.7,0-8.1
				c1.2-3.3,3.7-8.8,0-10.2c-3.7-1.4-11,0.2-13.7-1.1c-2.6-1.2-10-8.6-11.2-12.1c-1.2-3.5-3.2-12.1,3.7-20.3
				c6.8-8.2,11.2-12.3,16.1-12.3s6,1.2,7,0c1-1.2-0.7-9.1,1.7-10.9c2.5-1.8,4.7-0.5,4.9-1.8s-2.6-16.3,0-20s12.3-8.1,12.8-9.3
				s-9.3-4.4-8.8-6.7c0.5-2.3,2.1-4.6,4.7-3.7s4.2,4.4,5.6,5.3c1.4,0.9,7.7,0.2,8.9-2.5c1.2-2.6,1.4-11.6,0-12.4
				c-1.4-0.9-6.7-0.9-7.2,1.2c-0.5,2.1-0.4,4.6-2.5,4.9c-2.1,0.4-3.2-3.3-5.8-4.4c-2.6-1.1-7.7-1.1-7.4-6.1s-0.5-15.3-1.1-18.6
				c-0.5-3.3-1.1-5.8,3-5.3c4,0.5,18.2,8.8,24,7c5.8-1.8,16.5-3.5,18.1-6.5s-3-5.4-1.8-10c1.2-4.6,1.2-10.3,3.2-12.6
				c1.9-2.3,4-4.2,4-6.7s-4.4-7.7-5.3-10.7c-0.9-3-0.5-5.3,2.3-4.2c2.8,1.1,9.6,6.3,21.7,5.3c12.1-1.1,43.1-8.4,47.2-10.7
				c4-2.3,6.8-4,8.8-7.7c1.9-3.7,8.4-13.1,11.7-16.5c3.3-3.3,5.4-6,5.3-10.2c-0.2-4.2,0.7-10.2-0.7-10.2s-2.6,2.1-4.6,1.2
				c-1.9-0.9-8.2-4.9-6.8-9.3c1.4-4.4,6.7-8.8,5.4-10.7c-1.2-1.9-7.4-10.2-12.3-12.4c-4.9-2.3-9.1-9.3-8.6-11.9
				c0.5-2.6,1.1-5.3,2.5-3.7c1.4,1.6,6.5,7.9,9.3,7.5c2.8-0.4,10.5,0.7,12.1,3.2s4.4,4.6,7.9,6s16.5,1.4,22.1,3
				c5.6,1.6,16.3,0.4,21.9-5.3c5.6-5.6,7.9-13.8,12.6-16.3s10.9-2.3,14.2-8.6c3.3-6.3,8.1-21.4,14.9-24.5
				c6.8-3.2,24.4-12.6,29.4-21.4c5.1-8.8,11-22.3,17.7-28.9c6.7-6.7,17-13,18.8-13.8c1.8-0.9,6-11.2,8.8-15.6
				c2.8-4.4,6.1-8.4,4.9-8.9c-1.2-0.5-4.6,4-4.4,2.5c0.2-1.6,1.1-17.5,2.3-22.6c1.2-5.1,1.8-11.9,3.9-14c2.1-2.1,4.6-4,3.2-4.9
				c-1.4-0.9-5.8-4.6-4.2-5.3c1.6-0.7,3.6,2.8,4.6,1.2c1-1.6,1.5-3.9,3.6-3s0,4.6,1.8,3.9c1.8-0.7,4.4-4.4,7.7-7.4
				c1.2-1.1,6.5-9.7,18.6-11.6c3-0.5,5,4,11.7,1.1c4-1.8,6.1-10.5,12-13.4c11.3-5.6,27.1-4.2,27.1-4.2v-85L98.8,1.3z"/>
		</defs>
		<clipPath id="SVGID_4_">
			<use xlink:href="#SVGID_3_"  style="overflow:visible;"/>
		</clipPath>
		<path class="st3" d="M368.5,0.5c0,0-12.3,26.3,2.5,30.2c14.7,3.9,25.9,0,31.2,4.6s2.1,35.8,10.5,37.9c8.4,2.1,15.1-4.6,18.2,0
			c3.2,4.6,3.9,9.1,0,17.2s-8.1,15.4-5.6,17.5c2.5,2.1,8.8-1.8,11.2,1.8s4.9,10.2,2.8,18.6c-2.1,8.4-2.1,13-11.6,17.5
			c-9.5,4.6-32.6,21.7-45.6,36.1c-13,14.4-24.5,26.6-25.6,29.1s-1.8,14-3.5,19.3c-1.8,5.3-6.7,9.5-5.6,12.6s0.4,11.6-0.1,16.5
			c-0.6,4.9-5.5,6.7-5.1,10.5s0,21,0,21l106.2,102l177.5-77.9V0.5L368.5,0.5z"/>
	</g>
	<g>
		<defs>
			<path id="SVGID_5_" d="M97.3,0c0,0,15.3,41.2,14.3,50.1s-0.9,13.5,0.1,16.7c1,3.2-3.7,15.5-1.4,21.6s5.5,10.8,4.2,13.7
				s-5.8,6.8-5.5,9.5s4.2,6.8,3.4,11.3c-0.8,4.5-1.3,24.5-4.2,31.6s-2.1,14.9-3.4,19.7s-4.5,7.8-4.2,11.1s7.5,3.3,6.3,9.5
				c-1.3,6.2-0.7,13-3.1,14.3c-2.4,1.3-2.9,2.7-2.6,11.5c0.3,8.8,8.7,30.9,8.4,39c-0.3,8.2-15.5,77-16.8,82s-6.8,9.7-6.3,12.1
				c0.5,2.4,1.1,7.4,1.1,7.4h-6.8c0,0,3.4,6.8,3.9,14.7c0.5,7.9-0.8,9.7,1.1,14.2c1.8,4.5,6.3,10,6.6,14.2c0.3,4.2-3.2,12.6-4.2,20
				c-1.1,7.4-3.4,14.2-1.3,20c2.1,5.8,3.9,12.4,7.6,12.6c3.7,0.3,4.5-6.6,6-8.2s2.1-4.2,1.8-6c-0.3-1.8,1.6-3.7,3.2-2.4
				c1.6,1.3,1.6,3.9,0.8,6.8c-0.8,2.9-2.4,5.8-0.5,6.8c1.8,1.1,3.9,2.9,3.9,2.9c0,4.7,2.9,9.7,1.8,10c-1.1,0.3-2.7-2.4-3.9-1.5
				s2.1,12.4,0.9,16.5s-4.4,8.2-3.5,11s3.9,4.9,3.5,6.8c-0.4,1.9-4,1.6-4.4,4.9c-0.4,3.3,8.6,8.4,8.9,10.9c0.6,4.2-2,5.9-6.7,9.5
				c-2.9,2.2-3.6,5.4-1.3,5.8s7,1.4,6.5,2.8c-0.5,1.4-5.1-2.5-6.1,0s-2.8,6.5-1.1,6.5c1.8,0,5.4,0.2,5.3,0c-0.2-0.2-6.3,2.5-6.3,6.8
				s1.2,7.4-0.5,10c-1.8,2.6-3.5,2.8-3.3,0.7c0.2-2.1-1.9-4.2-3.2-4.4c-1.2-0.2,3.2-8.4-0.7-8.2c-3.9,0.2-8.9,0.4-11.9,1.9
				c-3,1.6-4.7,4.4-2.8,4.4s4-0.2,4-0.2l-0.5,2.6c0,0-8.1,6.3-9.5,8.1c-1.4,1.8-1.9,4.7,0,7c1.9,2.3,3.2,2.8,3.9,1.9
				c0.7-0.9-1.1-5.4,0.2-6s5.3-3.7,5.3-3.7s0.2,6.5,3.2,6.8s3-1.2,4-2.5c1.1-1.2,6.3,1.6,7.7,3.2c1.4,1.6-0.4,4.6-2.6,6.8
				s-3.7,4.9-2.1,5.8c1.6,0.9,3.5,0,3.5,0s-1.9,5.1,1.4,6.5c3.3,1.4,5.6,0.4,5.4-1.6c-0.2-1.9,1.8-1.9,2.6-0.7
				c0.9,1.2,0.2,4,0.7,5.1c0.5,1.1,1.6,4.4-0.2,4c-1.8-0.4-7.4-3.7-8.4-2.8c-1.1,0.9,2.8,5.4,1.9,6.5c-0.9,1.1-1.4,0.4-2.6,1.4
				c-1.2,1.1,0.7,9.6,0.9,13.3c0.2,3.7,0,6.8,0.2,8.8c0.2,1.9,3.3,3.7,3.3,0c0-3.7,0.5-7.9,1.6-8.1s0.2,8.2,1.1,10.2
				s-2.8,2.2-2.5,3.3c0.4,1.1,1.1,4.4,1.1,6.8s1.2,4.7-0.7,4.7s-5.6-0.9-4,0.7s5.1,2.5,6.1,4.7s0.9,7.2,2.8,7.4s3.7-5.3,5.1-4.4
				c1.4,0.9,1.4,3.7-0.5,5.3s-6.1,1.1-6.1,2.5s1.2,4.9,3.3,5.6c2.1,0.7,4.7-1.8,4.8,0c0.1,1.8-3.7,7.4-2.5,9.3
				c1.2,1.9,7.5,1.2,8.2,3.9s-0.5,5.1-3,4.9c-2.5-0.2-9.3-6.3-10.7-6c-1.4,0.4-2.6,3-0.4,4.4c2.3,1.4,6.8,2.8,8.6,4
				c1.8,1.2,0,3.2-1.6,2.3s-5.3-2.6-5.8-1.9c-0.5,0.7-0.5,2.1,0.9,3.5c1.4,1.4,4.4,0,5.4,1.2c1.1,1.2-1.9,5.1-0.5,6
				c1.4,0.9,4.2,2.6,5.6,1.8c1.4-0.9,2.5-1.9,3.3-0.9c0.9,1.1,0,4.7,1.2,5.6s4-2.1,6,0s1.6,3,0,3.5c-1.6,0.5-2.6,2.6-1.8,3.9
				c0.9,1.2,4.4,4,6.1,3.9s1.9-1.8,3.2-1.4s4.7,3.9,7,5.4c2.3,1.6,5.6,1.6,7.9,0c2.3-1.6,3-1.8,3-5.8c0-4,1.2-19.6,2.1-20.7
				c0.9-1.1,6.5-1.6,10.5-3.5s5.8-6.7,7.2-6.8c1.4-0.2,4.2,2.5,8.4,3c4.2,0.5,6.7,0.7,6.5-0.4c-0.2-1.1-11-13.1-11.2-17
				c-0.2-3.9-3.7-20.2-0.7-24.2c3-4,12.8-9.3,14.9-13c2.1-3.7-0.9-16.1,1.6-19.3c2.5-3.2,21.9-22.4,24-24.5c2.1-2.1-1.2-4.7,0-8.1
				c1.2-3.3,3.7-8.8,0-10.2c-3.7-1.4-11,0.2-13.7-1.1c-2.6-1.2-10-8.6-11.2-12.1c-1.2-3.5-3.2-12.1,3.7-20.3
				c6.8-8.2,11.2-12.3,16.1-12.3s6,1.2,7,0c1-1.2-0.7-9.1,1.7-10.9c2.5-1.8,4.7-0.5,4.9-1.8s-2.6-16.3,0-20s12.3-8.1,12.8-9.3
				s-9.3-4.4-8.8-6.7c0.5-2.3,2.1-4.6,4.7-3.7s4.2,4.4,5.6,5.3c1.4,0.9,7.7,0.2,8.9-2.5c1.2-2.6,1.4-11.6,0-12.4
				c-1.4-0.9-6.7-0.9-7.2,1.2c-0.5,2.1-0.4,4.6-2.5,4.9c-2.1,0.4-3.2-3.3-5.8-4.4c-2.6-1.1-7.7-1.1-7.4-6.1s-0.5-15.3-1.1-18.6
				c-0.5-3.3-1.1-5.8,3-5.3c4,0.5,18.2,8.8,24,7c5.8-1.8,16.5-3.5,18.1-6.5s-3-5.4-1.8-10c1.2-4.6,1.2-10.3,3.2-12.6
				c1.9-2.3,4-4.2,4-6.7s-4.4-7.7-5.3-10.7c-0.9-3-0.5-5.3,2.3-4.2c2.8,1.1,9.6,6.3,21.7,5.3c12.1-1.1,43.1-8.4,47.2-10.7
				c4-2.3,6.8-4,8.8-7.7c1.9-3.7,8.4-13.1,11.7-16.5c3.3-3.3,5.4-6,5.3-10.2c-0.2-4.2,0.7-10.2-0.7-10.2s-2.6,2.1-4.6,1.2
				c-1.9-0.9-8.2-4.9-6.8-9.3c1.4-4.4,6.7-8.8,5.4-10.7c-1.2-1.9-7.4-10.2-12.3-12.4c-4.9-2.3-9.1-9.3-8.6-11.9
				c0.5-2.6,1.1-5.3,2.5-3.7c1.4,1.6,6.5,7.9,9.3,7.5c2.8-0.4,10.5,0.7,12.1,3.2s4.4,4.6,7.9,6s16.5,1.4,22.1,3
				c5.6,1.6,16.3,0.4,21.9-5.3c5.6-5.6,7.9-13.8,12.6-16.3s10.9-2.3,14.2-8.6c3.3-6.3,8.1-21.4,14.9-24.5
				c6.8-3.2,24.4-12.6,29.4-21.4c5.1-8.8,11-22.3,17.7-28.9c6.7-6.7,17-13,18.8-13.8c1.8-0.9,6-11.2,8.8-15.6
				c2.8-4.4,6.1-8.4,4.9-8.9c-1.2-0.5-4.6,4-4.4,2.5c0.2-1.6,1.1-17.5,2.3-22.6c1.2-5.1,1.8-11.9,3.9-14c2.1-2.1,4.6-4,3.2-4.9
				c-1.4-0.9-5.8-4.6-4.2-5.3c1.6-0.7,3.6,2.8,4.6,1.2c1-1.6,1.5-3.9,3.6-3s0,4.6,1.8,3.9c1.8-0.7,4.4-4.4,7.7-7.4
				c3.3-3,20.5-10.7,20.5-10.7V0H97.3z"/>
		</defs>
		<clipPath id="SVGID_6_">
			<use xlink:href="#SVGID_5_"  style="overflow:visible;"/>
		</clipPath>
		<path class="st4" d="M359.6,206.7c7.9,0.4,10.3-3,13.9-2.2c3.6,0.7,7.2,4,10.5,11.2c3.2,7.2,2.9,9.4,5.8,7.9s6.1-2.4,7.9,0.4
			c1.8,2.8,13,5,18.8,13.6s18,20.9,21.3,29.2s22.4,36.1,22.4,36.1l-53,37.1l-63.8-50c0,0-4.5-16.3-0.8-23.3
			c3.2-5.9,5.3-9.6,5.1-12.6c-0.2-5-2.7-12.2-1.2-13.6c1.6-1.5,4.3-4.6,6.8-12c2.1-6.2,1.2-9.4,2.4-14.7
			C357.1,208.6,359.6,206.7,359.6,206.7z"/>
	</g>
	<g>
		<path d="M141.4,682.6h4c2.3,0,3.1,1.7,3.1,3.4c0,2.4-1.5,3.4-3.6,3.4h-1.2v4.6h-2.3V682.6z M143.7,687.8h1c0.9,0,1.5-0.5,1.5-1.7
			c0-1.1-0.4-1.8-1.6-1.8h-1V687.8z"/>
		<path d="M154.7,693L154.7,693c-0.5,0.8-1.3,1.2-2.2,1.2c-1.4,0-2.2-0.8-2.2-2.4v-6.4h2.2v5.9c0,0.9,0.3,1.2,0.9,1.2
			c0.8,0,1.2-0.5,1.2-1.4v-5.7h2.2v8.6h-2.1V693z"/>
		<path d="M160.8,690.1v0.7c0,1,0.3,2,1.1,2c0.7,0,1-0.6,1.2-1.6h2c-0.1,2-1,3.1-3.1,3.1c-3.2,0-3.3-2.5-3.3-4.6
			c0-2.3,0.4-4.5,3.4-4.5c2.6,0,3.2,1.7,3.2,4.4v0.5H160.8z M163.1,688.7c0-1.3-0.2-2-1.1-2c-0.9,0-1.1,0.9-1.1,1.7v0.3H163.1z"/>
		<path d="M167,685.4h2.1v1.2h0c0.4-0.8,1.1-1.4,2-1.4c0.1,0,0.3,0,0.4,0v2.1c-0.2,0-0.5,0-0.7,0c-0.8,0-1.6,0.4-1.6,1.6v5.2H167
			V685.4z"/>
		<path d="M173.4,682.9h2.2v2.5h1.3v1.5h-1.3v4.7c0,0.7,0.1,0.9,0.8,0.9c0.2,0,0.4,0,0.5,0v1.5c-0.5,0-0.9,0.1-1.4,0.1
			c-1.7,0-2-0.5-2-2.3v-4.9h-1.1v-1.5h1.1V682.9z"/>
		<path d="M181.4,685.2c2.7,0,3.4,1.5,3.4,4.5c0,2.9-0.9,4.5-3.4,4.5c-2.7,0-3.4-1.5-3.4-4.5C178,686.8,178.9,685.2,181.4,685.2z
			 M181.4,692.7c0.9,0,1.2-0.9,1.2-3s-0.3-3-1.2-3c-1.1,0-1.2,1.3-1.2,3S180.3,692.7,181.4,692.7z"/>
		<path d="M193.8,682.6l2.8,7.8h0v-7.8h2.1V694h-2.6l-2.8-8h0v8h-2.1v-11.4H193.8z"/>
		<path d="M200.9,688v-0.2c0-2,1.4-2.7,3-2.7c2.6,0,3.1,1.1,3.1,2.6v4.5c0,0.8,0,1.2,0.3,1.7h-2.1c-0.1-0.3-0.2-0.6-0.3-0.9h0
			c-0.5,0.9-1.1,1.1-2.2,1.1c-1.5,0-2.1-1.3-2.1-2.5c0-1.6,0.7-2.3,2.2-2.7l1.2-0.3c0.7-0.2,0.9-0.4,0.9-1c0-0.7-0.3-1.1-1-1.1
			c-0.7,0-1,0.4-1,1.1v0.2H200.9z M205,689.7c-0.3,0.2-0.7,0.4-0.9,0.4c-0.9,0.2-1.2,0.6-1.2,1.4c0,0.7,0.2,1.2,0.8,1.2
			c0.6,0,1.4-0.4,1.4-1.3V689.7z"/>
		<path d="M209.8,682.9h2.2v2.5h1.3v1.5H212v4.7c0,0.7,0.1,0.9,0.8,0.9c0.2,0,0.4,0,0.5,0v1.5c-0.5,0-0.9,0.1-1.4,0.1
			c-1.7,0-2-0.5-2-2.3v-4.9h-1.1v-1.5h1.1V682.9z"/>
		<path d="M214.6,688v-0.2c0-2,1.4-2.7,3-2.7c2.6,0,3.1,1.1,3.1,2.6v4.5c0,0.8,0,1.2,0.3,1.7h-2.1c-0.1-0.3-0.2-0.6-0.3-0.9h0
			c-0.5,0.9-1.1,1.1-2.2,1.1c-1.5,0-2.1-1.3-2.1-2.5c0-1.6,0.7-2.3,2.2-2.7l1.2-0.3c0.7-0.2,0.9-0.4,0.9-1c0-0.7-0.3-1.1-1-1.1
			c-0.7,0-1,0.4-1,1.1v0.2H214.6z M218.7,689.7c-0.3,0.2-0.7,0.4-0.9,0.4c-0.9,0.2-1.2,0.6-1.2,1.4c0,0.7,0.2,1.2,0.8,1.2
			c0.6,0,1.4-0.4,1.4-1.3V689.7z"/>
		<path d="M223.1,682.6h2.2V694h-2.2V682.6z"/>
		<path d="M229.4,690.1v0.7c0,1,0.3,2,1.1,2c0.7,0,1-0.6,1.2-1.6h2c-0.1,2-1,3.1-3.1,3.1c-3.2,0-3.3-2.5-3.3-4.6
			c0-2.3,0.4-4.5,3.4-4.5c2.6,0,3.2,1.7,3.2,4.4v0.5H229.4z M231.6,688.7c0-1.3-0.2-2-1.1-2c-0.9,0-1.1,0.9-1.1,1.7v0.3H231.6z"/>
		<path d="M237.1,691.2v0.3c0,0.8,0.4,1.2,1.2,1.2c0.7,0,1.1-0.3,1.1-1c0-0.6-0.4-0.8-0.8-1l-1.6-0.6c-1.2-0.4-1.8-1.2-1.8-2.4
			c0-1.4,0.9-2.6,3.2-2.6c2,0,2.9,0.9,2.9,2.4v0.4h-2c0-0.9-0.3-1.3-1-1.3c-0.6,0-1,0.3-1,0.9c0,0.4,0.2,0.8,1,1l1.3,0.4
			c1.4,0.5,1.9,1.2,1.9,2.5c0,1.8-1.3,2.7-3.2,2.7c-2.5,0-3.2-1.1-3.2-2.7v-0.3H237.1z"/>
	</g>
	<g>
		<path d="M348.4,302.7h3.9c1.9,0,3.2,0.7,3.2,2.9c0,1.2-0.6,2.2-1.7,2.5v0c1.3,0.2,2.1,1.1,2.1,2.7c0,1.8-0.9,3.3-3.6,3.3h-3.9
			V302.7z M350.7,307.4h0.7c1.3,0,1.8-0.4,1.8-1.5c0-1.1-0.5-1.5-1.7-1.5h-0.8V307.4z M350.7,312.4h0.9c1.1,0,1.9-0.4,1.9-1.7
			c0-1.3-0.8-1.7-1.8-1.7h-1V312.4z"/>
		<path d="M362.3,313.1L362.3,313.1c-0.5,0.8-1.3,1.2-2.2,1.2c-1.4,0-2.2-0.8-2.2-2.4v-6.4h2.2v5.9c0,0.9,0.3,1.2,0.9,1.2
			c0.8,0,1.2-0.5,1.2-1.4v-5.7h2.2v8.6h-2.1V313.1z"/>
		<path d="M368.4,310.2v0.7c0,1,0.3,2,1.1,2c0.7,0,1-0.6,1.2-1.6h2c-0.1,2-1,3.1-3.1,3.1c-3.2,0-3.3-2.5-3.3-4.6
			c0-2.3,0.4-4.5,3.4-4.5c2.6,0,3.2,1.7,3.2,4.4v0.5H368.4z M370.7,308.8c0-1.3-0.2-2-1.1-2c-0.9,0-1.1,0.9-1.1,1.7v0.3H370.7z"/>
		<path d="M374.6,305.5h2.1v1h0c0.5-0.8,1.3-1.2,2.2-1.2c1.4,0,2.2,0.8,2.2,2.4v6.4h-2.2v-5.9c0-0.9-0.3-1.2-0.9-1.2
			c-0.8,0-1.2,0.5-1.2,1.4v5.7h-2.2V305.5z"/>
		<path d="M386.3,305.3c2.7,0,3.4,1.5,3.4,4.5c0,2.9-0.9,4.5-3.4,4.5c-2.7,0-3.4-1.5-3.4-4.5C382.9,306.9,383.8,305.3,386.3,305.3z
			 M386.3,312.8c0.9,0,1.2-0.9,1.2-3s-0.3-3-1.2-3c-1.1,0-1.2,1.3-1.2,3S385.2,312.8,386.3,312.8z"/>
		<path d="M393.1,311.3v0.3c0,0.8,0.4,1.2,1.2,1.2c0.7,0,1.1-0.3,1.1-1c0-0.6-0.4-0.8-0.8-1l-1.6-0.6c-1.2-0.4-1.8-1.2-1.8-2.4
			c0-1.4,0.9-2.6,3.2-2.6c2,0,2.9,0.9,2.9,2.4v0.4h-2c0-0.9-0.3-1.3-1-1.3c-0.6,0-1,0.3-1,0.9c0,0.4,0.2,0.8,1,1l1.3,0.4
			c1.4,0.5,1.9,1.2,1.9,2.5c0,1.8-1.3,2.7-3.2,2.7c-2.5,0-3.2-1.1-3.2-2.7v-0.3H393.1z"/>
		<path d="M406,302.7h2.8l3,11.4h-2.4l-0.5-2.4h-3l-0.5,2.4H403L406,302.7z M406.3,309.8h2.2l-1.1-5.1h0L406.3,309.8z"/>
		<path d="M413.4,302.6h2.2v1.9h-2.2V302.6z M413.4,305.5h2.2v8.6h-2.2V305.5z"/>
		<path d="M417.8,305.5h2.1v1.2h0c0.4-0.8,1.1-1.4,2-1.4c0.1,0,0.3,0,0.4,0v2.1c-0.2,0-0.5,0-0.7,0c-0.8,0-1.6,0.4-1.6,1.6v5.2h-2.2
			V305.5z"/>
		<path d="M425.6,310.2v0.7c0,1,0.3,2,1.1,2c0.7,0,1-0.6,1.2-1.6h2c-0.1,2-1,3.1-3.1,3.1c-3.2,0-3.3-2.5-3.3-4.6
			c0-2.3,0.4-4.5,3.4-4.5c2.6,0,3.2,1.7,3.2,4.4v0.5H425.6z M427.9,308.8c0-1.3-0.2-2-1.1-2c-0.9,0-1.1,0.9-1.1,1.7v0.3H427.9z"/>
		<path d="M433.4,311.3v0.3c0,0.8,0.4,1.2,1.2,1.2c0.7,0,1.1-0.3,1.1-1c0-0.6-0.4-0.8-0.8-1l-1.6-0.6c-1.2-0.4-1.8-1.2-1.8-2.4
			c0-1.4,0.9-2.6,3.2-2.6c2,0,2.9,0.9,2.9,2.4v0.4h-2c0-0.9-0.3-1.3-1-1.3c-0.6,0-1,0.3-1,0.9c0,0.4,0.2,0.8,1,1l1.3,0.4
			c1.4,0.5,1.9,1.2,1.9,2.5c0,1.8-1.3,2.7-3.2,2.7c-2.5,0-3.2-1.1-3.2-2.7v-0.3H433.4z"/>
	</g>
	<g>
		<path d="M535.5,176.3h6.4v1.9h-4.1v2.7h3.8v1.9h-3.8v5h-2.3V176.3z"/>
		<path d="M543.5,176.3h2.2v11.4h-2.2V176.3z"/>
		<path d="M551.1,178.9c2.7,0,3.4,1.5,3.4,4.5c0,2.9-0.9,4.5-3.4,4.5c-2.7,0-3.4-1.5-3.4-4.5C547.7,180.5,548.5,178.9,551.1,178.9z
			 M551.1,186.4c0.9,0,1.2-0.9,1.2-3s-0.3-3-1.2-3c-1.1,0-1.2,1.3-1.2,3S550,186.4,551.1,186.4z"/>
		<path d="M556.3,179.1h2.1v1.2h0c0.4-0.8,1.1-1.4,2-1.4c0.1,0,0.3,0,0.4,0v2.1c-0.2,0-0.5,0-0.7,0c-0.8,0-1.6,0.4-1.6,1.6v5.2h-2.2
			V179.1z"/>
		<path d="M562.3,176.2h2.2v1.9h-2.2V176.2z M562.3,179.1h2.2v8.6h-2.2V179.1z"/>
		<path d="M566.7,181.8v-0.2c0-2,1.4-2.7,3-2.7c2.6,0,3.1,1.1,3.1,2.6v4.5c0,0.8,0,1.2,0.3,1.7H571c-0.1-0.3-0.2-0.6-0.3-0.9h0
			c-0.5,0.9-1.1,1.1-2.2,1.1c-1.5,0-2.1-1.3-2.1-2.5c0-1.6,0.7-2.3,2.2-2.7l1.2-0.3c0.7-0.2,0.9-0.4,0.9-1c0-0.7-0.3-1.1-1-1.1
			c-0.7,0-1,0.4-1,1.1v0.2H566.7z M570.7,183.4c-0.3,0.2-0.7,0.4-0.9,0.4c-0.9,0.2-1.2,0.6-1.2,1.4c0,0.7,0.2,1.2,0.8,1.2
			c0.6,0,1.4-0.4,1.4-1.3V183.4z"/>
		<path d="M575,179.1h2.1v1h0c0.5-0.8,1.3-1.2,2.2-1.2c1.4,0,2.2,0.8,2.2,2.4v6.4h-2.2v-5.9c0-0.9-0.3-1.2-0.9-1.2
			c-0.8,0-1.2,0.5-1.2,1.4v5.7H575V179.1z"/>
		<path d="M586.8,178.9c2.7,0,3.4,1.5,3.4,4.5c0,2.9-0.9,4.5-3.4,4.5c-2.7,0-3.4-1.5-3.4-4.5C583.4,180.5,584.3,178.9,586.8,178.9z
			 M586.8,186.4c0.9,0,1.2-0.9,1.2-3s-0.3-3-1.2-3c-1.1,0-1.2,1.3-1.2,3S585.7,186.4,586.8,186.4z"/>
		<path d="M592,179.1h2.1v0.9h0c0.5-0.8,1.1-1.1,2-1.1c1.8,0,2.6,1.3,2.6,4.5s-0.8,4.5-2.6,4.5c-0.8,0-1.4-0.3-1.9-1h0v3.6H592
			V179.1z M595.4,186.2c1,0,1.2-1,1.2-2.8s-0.2-2.8-1.2-2.8c-1,0-1.2,1-1.2,2.8S594.4,186.2,595.4,186.2z"/>
		<path d="M603.8,178.9c2.7,0,3.4,1.5,3.4,4.5c0,2.9-0.9,4.5-3.4,4.5c-2.7,0-3.4-1.5-3.4-4.5C600.4,180.5,601.2,178.9,603.8,178.9z
			 M603.8,186.4c0.9,0,1.2-0.9,1.2-3s-0.3-3-1.2-3c-1.1,0-1.2,1.3-1.2,3S602.7,186.4,603.8,186.4z"/>
		<path d="M609,176.3h2.2v11.4H609V176.3z"/>
		<path d="M613.5,176.2h2.2v1.9h-2.2V176.2z M613.5,179.1h2.2v8.6h-2.2V179.1z"/>
		<path d="M619.5,184.9v0.3c0,0.8,0.4,1.2,1.2,1.2c0.7,0,1.1-0.3,1.1-1c0-0.6-0.4-0.8-0.8-1l-1.6-0.6c-1.2-0.4-1.8-1.2-1.8-2.4
			c0-1.4,0.9-2.6,3.2-2.6c2,0,2.9,0.9,2.9,2.4v0.4h-2c0-0.9-0.3-1.3-1-1.3c-0.6,0-1,0.3-1,0.9c0,0.4,0.2,0.8,1,1l1.3,0.4
			c1.4,0.5,1.9,1.2,1.9,2.5c0,1.8-1.3,2.7-3.2,2.7c-2.5,0-3.2-1.1-3.2-2.7v-0.3H619.5z"/>
	</g>
	<g>
		<path d="M376.9,104.8V93.4h2.3v11.4H376.9z"/>
		<path d="M387.9,96.2v8.2c0,2.3-1,3.4-3.6,3.4c-1.9,0-2.9-0.8-2.9-2.3h2.1c0,0.3,0.1,0.5,0.3,0.7c0.2,0.1,0.5,0.2,0.7,0.2
			c0.9,0,1.2-0.7,1.2-1.6v-1.1h0c-0.4,0.6-1.1,1.1-1.8,1.1c-1.8,0-2.6-1.2-2.6-4.4c0-2,0.3-4.4,2.7-4.4c0.6,0,1.4,0.3,1.8,1.2h0v-1
			H387.9z M384.6,103c0.9,0,1.2-1,1.2-2.5c0-2.1-0.3-2.9-1.2-2.9c-1,0-1.2,0.8-1.2,3.1C383.5,101.9,383.7,103,384.6,103z"/>
		<path d="M394.5,103.8L394.5,103.8c-0.5,0.8-1.3,1.2-2.2,1.2c-1.4,0-2.2-0.8-2.2-2.4v-6.4h2.2v5.9c0,0.9,0.3,1.2,0.9,1.2
			c0.8,0,1.2-0.5,1.2-1.4v-5.7h2.2v8.6h-2.1V103.8z"/>
		<path d="M398.7,98.8v-0.2c0-2,1.4-2.7,3-2.7c2.6,0,3.1,1.1,3.1,2.6v4.5c0,0.8,0,1.2,0.3,1.7H403c-0.1-0.3-0.2-0.6-0.3-0.9h0
			c-0.5,0.9-1.1,1.1-2.2,1.1c-1.5,0-2.1-1.3-2.1-2.5c0-1.6,0.7-2.3,2.2-2.7l1.2-0.3c0.7-0.2,0.9-0.4,0.9-1c0-0.7-0.3-1.1-1-1.1
			c-0.7,0-1,0.4-1,1.1v0.2H398.7z M402.8,100.5c-0.3,0.2-0.7,0.4-0.9,0.4c-0.9,0.2-1.2,0.6-1.2,1.4c0,0.7,0.2,1.2,0.8,1.2
			c0.6,0,1.4-0.4,1.4-1.3V100.5z"/>
		<path d="M406.7,103.1l3.4-5.1h-3.3v-1.8h5.9v1.7l-3.4,5.1h3.4v1.8h-6.1V103.1z"/>
		<path d="M418.9,103.8L418.9,103.8c-0.5,0.8-1.3,1.2-2.2,1.2c-1.4,0-2.2-0.8-2.2-2.4v-6.4h2.2v5.9c0,0.9,0.3,1.2,0.9,1.2
			c0.8,0,1.2-0.5,1.2-1.4v-5.7h2.2v8.6h-2.1V103.8z"/>
	</g>
	<g>
		<path d="M47.9,287.5v0.3c0,1.1,0.3,1.8,1.5,1.8c0.7,0,1.4-0.4,1.4-1.4c0-1-0.5-1.4-2-2c-2-0.7-3-1.6-3-3.5c0-2.2,1.4-3.4,3.5-3.4
			c2,0,3.5,0.9,3.5,3.1v0.3h-2.2c0-1.1-0.4-1.7-1.2-1.7c-1,0-1.3,0.7-1.3,1.3c0,0.7,0.2,1.1,1.2,1.6l1.8,0.8c1.7,0.8,2.2,1.6,2.2,3
			c0,2.4-1.5,3.5-4,3.5c-2.6,0-3.6-1.2-3.6-3.3v-0.5H47.9z"/>
		<path d="M54.9,285.1v-0.2c0-2,1.4-2.7,3-2.7c2.6,0,3.1,1.1,3.1,2.6v4.5c0,0.8,0,1.2,0.3,1.7h-2.1c-0.1-0.3-0.2-0.6-0.3-0.9h0
			c-0.5,0.9-1.1,1.1-2.2,1.1c-1.5,0-2.1-1.3-2.1-2.5c0-1.6,0.7-2.3,2.2-2.7l1.2-0.3c0.7-0.2,0.9-0.4,0.9-1c0-0.7-0.3-1.1-1-1.1
			c-0.7,0-1,0.4-1,1.1v0.2H54.9z M58.9,286.8c-0.3,0.2-0.7,0.4-0.9,0.4c-0.9,0.2-1.2,0.6-1.2,1.4c0,0.7,0.2,1.2,0.8,1.2
			c0.6,0,1.4-0.4,1.4-1.3V286.8z"/>
		<path d="M63.2,282.4h2.1v1h0c0.5-0.8,1.3-1.2,2.2-1.2c1.4,0,2.2,0.8,2.2,2.4v6.4h-2.2v-5.9c0-0.9-0.3-1.2-0.9-1.2
			c-0.8,0-1.2,0.5-1.2,1.4v5.7h-2.2V282.4z"/>
		<path d="M72.3,280h2.2v2.5h1.3v1.5h-1.3v4.7c0,0.7,0.1,0.9,0.8,0.9c0.2,0,0.4,0,0.5,0v1.5c-0.5,0-0.9,0.1-1.4,0.1
			c-1.7,0-2-0.5-2-2.3V284h-1.1v-1.5h1.1V280z"/>
		<path d="M77.3,279.5h2.2v1.9h-2.2V279.5z M77.3,282.4h2.2v8.6h-2.2V282.4z"/>
		<path d="M81.7,285.1v-0.2c0-2,1.4-2.7,3-2.7c2.6,0,3.1,1.1,3.1,2.6v4.5c0,0.8,0,1.2,0.3,1.7H86c-0.1-0.3-0.2-0.6-0.3-0.9h0
			c-0.5,0.9-1.1,1.1-2.2,1.1c-1.5,0-2.1-1.3-2.1-2.5c0-1.6,0.7-2.3,2.2-2.7l1.2-0.3c0.7-0.2,0.9-0.4,0.9-1c0-0.7-0.3-1.1-1-1.1
			c-0.7,0-1,0.4-1,1.1v0.2H81.7z M85.7,286.8c-0.3,0.2-0.7,0.4-0.9,0.4c-0.9,0.2-1.2,0.6-1.2,1.4c0,0.7,0.2,1.2,0.8,1.2
			c0.6,0,1.4-0.4,1.4-1.3V286.8z"/>
		<path d="M96.5,282.4v8.2c0,2.3-1,3.4-3.6,3.4c-1.9,0-2.9-0.8-2.9-2.3h2.1c0,0.3,0.1,0.5,0.3,0.7c0.2,0.1,0.5,0.2,0.7,0.2
			c0.9,0,1.2-0.7,1.2-1.6v-1.1h0c-0.4,0.6-1.1,1.1-1.8,1.1c-1.8,0-2.6-1.2-2.6-4.4c0-2,0.3-4.4,2.7-4.4c0.6,0,1.4,0.3,1.8,1.2h0v-1
			H96.5z M93.2,289.3c0.9,0,1.2-1,1.2-2.5c0-2.1-0.3-2.9-1.2-2.9c-1,0-1.2,0.8-1.2,3.1C92.1,288.2,92.3,289.3,93.2,289.3z"/>
		<path d="M101.8,282.2c2.7,0,3.4,1.5,3.4,4.5c0,2.9-0.9,4.5-3.4,4.5c-2.7,0-3.4-1.5-3.4-4.5C98.4,283.8,99.3,282.2,101.8,282.2z
			 M101.8,289.8c0.9,0,1.2-0.9,1.2-3s-0.3-3-1.2-3c-1.1,0-1.2,1.3-1.2,3S100.7,289.8,101.8,289.8z"/>
	</g>
	<g>
		<path d="M7.3,664.8v1.9H4.8v9.5H2.5v-9.5H0v-1.9H7.3z"/>
		<path d="M12,667.4c2.7,0,3.4,1.5,3.4,4.5c0,2.9-0.9,4.5-3.4,4.5c-2.7,0-3.4-1.5-3.4-4.5C8.6,669,9.4,667.4,12,667.4z M12,674.9
			c0.9,0,1.2-0.9,1.2-3s-0.3-3-1.2-3c-1.1,0-1.2,1.3-1.2,3S10.9,674.9,12,674.9z"/>
		<path d="M17.2,667.6h2.1v1.2h0c0.4-0.8,1.1-1.4,2-1.4c0.1,0,0.3,0,0.4,0v2.1c-0.2,0-0.5,0-0.7,0c-0.8,0-1.6,0.4-1.6,1.6v5.2h-2.2
			V667.6z"/>
		<path d="M23.2,667.6h2.1v1.2h0c0.4-0.8,1.1-1.4,2-1.4c0.1,0,0.3,0,0.4,0v2.1c-0.2,0-0.5,0-0.7,0c-0.8,0-1.6,0.4-1.6,1.6v5.2h-2.2
			V667.6z"/>
		<path d="M31,672.2v0.7c0,1,0.3,2,1.1,2c0.7,0,1-0.6,1.2-1.6h2c-0.1,2-1,3.1-3.1,3.1c-3.2,0-3.3-2.5-3.3-4.6c0-2.3,0.4-4.5,3.4-4.5
			c2.6,0,3.2,1.7,3.2,4.4v0.5H31z M33.3,670.9c0-1.3-0.2-2-1.1-2c-0.9,0-1.1,0.9-1.1,1.7v0.3H33.3z"/>
		<path d="M38.8,673.4v0.3c0,0.8,0.4,1.2,1.2,1.2c0.7,0,1.1-0.3,1.1-1c0-0.6-0.4-0.8-0.8-1l-1.6-0.6c-1.2-0.4-1.8-1.2-1.8-2.4
			c0-1.4,0.9-2.6,3.2-2.6c2,0,2.9,0.9,2.9,2.4v0.4h-2c0-0.9-0.3-1.3-1-1.3c-0.6,0-1,0.3-1,0.9c0,0.4,0.2,0.8,1,1l1.3,0.4
			c1.4,0.5,1.9,1.2,1.9,2.5c0,1.8-1.3,2.7-3.2,2.7c-2.5,0-3.2-1.1-3.2-2.7v-0.3H38.8z"/>
		<path d="M53.8,675.3L53.8,675.3c-0.5,0.8-1.1,1.1-2,1.1c-1.8,0-2.6-1.3-2.6-4.5s0.8-4.5,2.6-4.5c0.8,0,1.4,0.3,1.9,1h0v-3.6h2.2
			v11.4h-2.1V675.3z M52.5,674.7c1,0,1.2-1,1.2-2.8s-0.2-2.8-1.2-2.8c-1,0-1.2,1-1.2,2.8S51.6,674.7,52.5,674.7z"/>
		<path d="M59.9,672.2v0.7c0,1,0.3,2,1.1,2c0.7,0,1-0.6,1.2-1.6h2c-0.1,2-1,3.1-3.1,3.1c-3.2,0-3.3-2.5-3.3-4.6
			c0-2.3,0.4-4.5,3.4-4.5c2.6,0,3.2,1.7,3.2,4.4v0.5H59.9z M62.2,670.9c0-1.3-0.2-2-1.1-2c-0.9,0-1.1,0.9-1.1,1.7v0.3H62.2z"/>
		<path d="M66.2,664.8h2.2v11.4h-2.2V664.8z"/>
		<path d="M75.1,664.8h4c2.3,0,3.1,1.7,3.1,3.4c0,2.4-1.5,3.4-3.6,3.4h-1.2v4.6h-2.3V664.8z M77.4,670h1c0.9,0,1.5-0.5,1.5-1.7
			c0-1.1-0.4-1.8-1.6-1.8h-1V670z"/>
		<path d="M84,670.2V670c0-2,1.4-2.7,3-2.7c2.6,0,3.1,1.1,3.1,2.6v4.5c0,0.8,0,1.2,0.3,1.7h-2.1c-0.1-0.3-0.2-0.6-0.3-0.9h0
			c-0.5,0.9-1.1,1.1-2.2,1.1c-1.5,0-2.1-1.3-2.1-2.5c0-1.6,0.7-2.3,2.2-2.7l1.2-0.3c0.7-0.2,0.9-0.4,0.9-1c0-0.7-0.3-1.1-1-1.1
			c-0.7,0-1,0.4-1,1.1v0.2H84z M88,671.9c-0.3,0.2-0.7,0.4-0.9,0.4c-0.9,0.2-1.2,0.6-1.2,1.4c0,0.7,0.2,1.2,0.8,1.2
			c0.6,0,1.4-0.4,1.4-1.3V671.9z"/>
		<path d="M92.4,664.7h2.2v1.9h-2.2V664.7z M92.4,667.6h2.2v8.6h-2.2V667.6z"/>
		<path d="M96.8,667.6h2.1v1h0c0.5-0.8,1.3-1.2,2.2-1.2c1.4,0,2.2,0.8,2.2,2.4v6.4h-2.2v-5.9c0-0.9-0.3-1.2-0.9-1.2
			c-0.8,0-1.2,0.5-1.2,1.4v5.7h-2.2V667.6z"/>
		<path d="M107.3,672.2v0.7c0,1,0.3,2,1.1,2c0.7,0,1-0.6,1.2-1.6h2c-0.1,2-1,3.1-3.1,3.1c-3.2,0-3.3-2.5-3.3-4.6
			c0-2.3,0.4-4.5,3.4-4.5c2.6,0,3.2,1.7,3.2,4.4v0.5H107.3z M109.6,670.9c0-1.3-0.2-2-1.1-2c-0.9,0-1.1,0.9-1.1,1.7v0.3H109.6z"/>
	</g>
	<g>
		<path d="M147.8,652.3c0-1.7-0.3-2.4-1.4-2.4c-1.2,0-1.4,1.2-1.4,4.4c0,3.5,0.5,4.1,1.5,4.1c0.8,0,1.4-0.4,1.4-2.9h2.3
			c0,2.5-0.6,4.6-3.6,4.6c-3.5,0-3.9-2.5-3.9-5.9c0-3.5,0.4-5.9,3.9-5.9c3.3,0,3.5,2.4,3.5,4.1H147.8z"/>
		<path d="M152.1,653.9v-0.2c0-2,1.4-2.7,3-2.7c2.6,0,3.1,1.1,3.1,2.6v4.5c0,0.8,0,1.2,0.3,1.7h-2.1c-0.1-0.3-0.2-0.6-0.3-0.9h0
			c-0.5,0.9-1.1,1.1-2.2,1.1c-1.5,0-2.1-1.3-2.1-2.5c0-1.6,0.7-2.3,2.2-2.7l1.2-0.3c0.7-0.2,0.9-0.4,0.9-1c0-0.7-0.3-1.1-1-1.1
			c-0.7,0-1,0.4-1,1.1v0.2H152.1z M156.1,655.6c-0.3,0.2-0.7,0.4-0.9,0.4c-0.9,0.2-1.2,0.6-1.2,1.4c0,0.7,0.2,1.2,0.8,1.2
			c0.6,0,1.4-0.4,1.4-1.3V655.6z"/>
		<path d="M160.5,648.5h2.2v11.4h-2.2V648.5z"/>
		<path d="M164.9,653.9v-0.2c0-2,1.4-2.7,3-2.7c2.6,0,3.1,1.1,3.1,2.6v4.5c0,0.8,0,1.2,0.3,1.7h-2.1c-0.1-0.3-0.2-0.6-0.3-0.9h0
			c-0.5,0.9-1.1,1.1-2.2,1.1c-1.5,0-2.1-1.3-2.1-2.5c0-1.6,0.7-2.3,2.2-2.7l1.2-0.3c0.7-0.2,0.9-0.4,0.9-1c0-0.7-0.3-1.1-1-1.1
			c-0.7,0-1,0.4-1,1.1v0.2H164.9z M168.9,655.6c-0.3,0.2-0.7,0.4-0.9,0.4c-0.9,0.2-1.2,0.6-1.2,1.4c0,0.7,0.2,1.2,0.8,1.2
			c0.6,0,1.4-0.4,1.4-1.3V655.6z"/>
		<path d="M173.7,652.8h-1.1v-1.5h1.1v-1c0-1.6,0.9-2.1,2.3-2.1c0.4,0,0.8,0,1.2,0v1.6c-0.1,0-0.3,0-0.4,0c-0.6,0-0.8,0.2-0.8,0.7
			v0.8h1.3v1.5h-1.3v7.1h-2.2V652.8z"/>
		<path d="M178.6,653.9v-0.2c0-2,1.4-2.7,3-2.7c2.6,0,3.1,1.1,3.1,2.6v4.5c0,0.8,0,1.2,0.3,1.7h-2.1c-0.1-0.3-0.2-0.6-0.3-0.9h0
			c-0.5,0.9-1.1,1.1-2.2,1.1c-1.5,0-2.1-1.3-2.1-2.5c0-1.6,0.7-2.3,2.2-2.7l1.2-0.3c0.7-0.2,0.9-0.4,0.9-1c0-0.7-0.3-1.1-1-1.1
			c-0.7,0-1,0.4-1,1.1v0.2H178.6z M182.6,655.6c-0.3,0.2-0.7,0.4-0.9,0.4c-0.9,0.2-1.2,0.6-1.2,1.4c0,0.7,0.2,1.2,0.8,1.2
			c0.6,0,1.4-0.4,1.4-1.3V655.6z"/>
		<path d="M187.4,648.8h2.2v2.5h1.3v1.5h-1.3v4.7c0,0.7,0.1,0.9,0.8,0.9c0.2,0,0.4,0,0.5,0v1.5c-0.5,0-0.9,0.1-1.4,0.1
			c-1.7,0-2-0.5-2-2.3v-4.9h-1.1v-1.5h1.1V648.8z"/>
		<path d="M194.2,655.9v0.7c0,1,0.3,2,1.1,2c0.7,0,1-0.6,1.2-1.6h2c-0.1,2-1,3.1-3.1,3.1c-3.2,0-3.3-2.5-3.3-4.6
			c0-2.3,0.4-4.5,3.4-4.5c2.6,0,3.2,1.7,3.2,4.4v0.5H194.2z M196.5,654.6c0-1.3-0.2-2-1.1-2c-0.9,0-1.1,0.9-1.1,1.7v0.3H196.5z"/>
	</g>
	<g>
		<path d="M46.3,625v1.9h-4.1v2.7h3.8v1.9h-3.8v3.1h4.2v1.9h-6.5V625H46.3z"/>
		<path d="M48.3,625h2.2v11.4h-2.2V625z"/>
		<path d="M62.1,628.9c0-1.7-0.3-2.4-1.4-2.4c-1.2,0-1.4,1.2-1.4,4.4c0,3.5,0.5,4.1,1.5,4.1c0.8,0,1.4-0.4,1.4-2.9h2.3
			c0,2.5-0.6,4.6-3.6,4.6c-3.5,0-3.9-2.5-3.9-5.9c0-3.5,0.4-5.9,3.9-5.9c3.3,0,3.5,2.4,3.5,4.1H62.1z"/>
		<path d="M66.4,625h2.2v3.7h0c0.4-0.7,1.2-1.1,2.1-1.1c1.4,0,2.2,0.8,2.2,2.4v6.4h-2.2v-5.9c0-0.9-0.3-1.2-0.9-1.2
			c-0.8,0-1.2,0.5-1.2,1.4v5.7h-2.2V625z"/>
		<path d="M75,630.5v-0.2c0-2,1.4-2.7,3-2.7c2.6,0,3.1,1.1,3.1,2.6v4.5c0,0.8,0,1.2,0.3,1.7h-2.1c-0.1-0.3-0.2-0.6-0.3-0.9h0
			c-0.5,0.9-1.1,1.1-2.2,1.1c-1.5,0-2.1-1.3-2.1-2.5c0-1.6,0.7-2.3,2.2-2.7l1.2-0.3c0.7-0.2,0.9-0.4,0.9-1c0-0.7-0.3-1.1-1-1.1
			c-0.7,0-1,0.4-1,1.1v0.2H75z M79,632.2c-0.3,0.2-0.7,0.4-0.9,0.4c-0.9,0.2-1.2,0.6-1.2,1.4c0,0.7,0.2,1.2,0.8,1.2
			c0.6,0,1.4-0.4,1.4-1.3V632.2z"/>
		<path d="M83.4,625h2.2v11.4h-2.2V625z"/>
		<path d="M88.3,625.4h2.2v2.5h1.3v1.5h-1.3v4.7c0,0.7,0.1,0.9,0.8,0.9c0.2,0,0.4,0,0.5,0v1.5c-0.5,0-0.9,0.1-1.4,0.1
			c-1.7,0-2-0.5-2-2.3v-4.9h-1.1v-1.5h1.1V625.4z"/>
		<path d="M95.1,632.5v0.7c0,1,0.3,2,1.1,2c0.7,0,1-0.6,1.2-1.6h2c-0.1,2-1,3.1-3.1,3.1c-3.2,0-3.3-2.5-3.3-4.6
			c0-2.3,0.4-4.5,3.4-4.5c2.6,0,3.2,1.7,3.2,4.4v0.5H95.1z M97.4,631.2c0-1.3-0.2-2-1.1-2c-0.9,0-1.1,0.9-1.1,1.7v0.3H97.4z
			 M96,624.6h2.2l-1.6,2.3h-1.5L96,624.6z"/>
		<path d="M101.3,627.9h2.1v1h0c0.5-0.8,1.3-1.2,2.2-1.2c1.4,0,2.2,0.8,2.2,2.4v6.4h-2.2v-5.9c0-0.9-0.3-1.2-0.9-1.2
			c-0.8,0-1.2,0.5-1.2,1.4v5.7h-2.2V627.9z"/>
	</g>
	<g>
		<g>
			<path d="M84.4,116.1c-0.2-1.1-1.2-2-2.5-2c-2.3,0-3.1,1.9-3.1,3.9c0,1.9,0.8,3.8,3.1,3.8c1.5,0,2.4-1.1,2.6-2.6h2.4
				c-0.3,2.8-2.2,4.7-5,4.7c-3.5,0-5.6-2.6-5.6-5.9c0-3.4,2.1-6,5.6-6c2.5,0,4.6,1.5,4.9,4.1H84.4z"/>
			<path d="M91.8,112.3h2.5v4.4h4.6v-4.4h2.5v11.4h-2.5v-4.9h-4.6v4.9h-2.5V112.3z"/>
			<path d="M106.9,112.3h2.5v11.4h-2.5V112.3z"/>
			<path d="M114.8,112.3h2.5v9.3h5.6v2.1h-8.1V112.3z"/>
			<path d="M127.5,112.3h8.5v2.1h-6v2.4h5.5v2H130v2.8h6.2v2.1h-8.7V112.3z"/>
		</g>
	</g>
	<g>
		<g>
			<path d="M175.8,213.2h2.6l4.3,11.4H180l-0.9-2.5h-4.3l-0.9,2.5h-2.5L175.8,213.2z M175.5,220.2h3L177,216h0L175.5,220.2z"/>
			<path d="M186.8,213.2h6.2c2,0,3.3,1.4,3.3,3.2c0,1.3-0.5,2.4-1.8,2.9v0c1.2,0.3,1.6,1.5,1.7,2.7c0,0.7,0,2.1,0.5,2.7h-2.5
				c-0.3-0.7-0.3-1.8-0.4-2.7c-0.2-1.2-0.6-1.7-1.9-1.7h-2.5v4.5h-2.5V213.2z M189.3,218.4h2.8c1.1,0,1.7-0.5,1.7-1.6
				c0-1.1-0.6-1.6-1.7-1.6h-2.8V218.4z"/>
			<path d="M209.8,223.3c-0.9,1.1-2,1.6-3.1,1.6c-3.5,0-5.6-2.6-5.6-5.9c0-3.4,2.1-6,5.6-6c2.3,0,4.5,1.4,4.8,4h-2.4
				c-0.3-1.3-1.2-1.9-2.4-1.9c-2.3,0-3.1,1.9-3.1,3.9c0,1.9,0.8,3.8,3.1,3.8c1.6,0,2.6-0.9,2.7-2.5h-2.5v-1.9h4.8v6.2h-1.6
				L209.8,223.3z"/>
			<path d="M216.9,213.2h8.5v2.1h-6v2.4h5.5v2h-5.5v2.8h6.2v2.1h-8.7V213.2z"/>
			<path d="M230.5,213.2h2.5l4.8,7.7h0v-7.7h2.4v11.4h-2.5l-4.8-7.7h0v7.7h-2.4V213.2z"/>
			<path d="M248.1,215.3h-3.4v-2.1h9.4v2.1h-3.4v9.3h-2.5V215.3z"/>
			<path d="M258.5,213.2h2.5v11.4h-2.5V213.2z"/>
			<path d="M266.4,213.2h2.5l4.8,7.7h0v-7.7h2.4v11.4h-2.5l-4.8-7.7h0v7.7h-2.4V213.2z"/>
			<path d="M281.5,213.2h2.5v11.4h-2.5V213.2z"/>
			<path d="M289.4,213.2h8.5v2.1h-6v2.4h5.5v2h-5.5v2.8h6.2v2.1h-8.7V213.2z"/>
			<path d="M303,213.2h2.5l4.8,7.7h0v-7.7h2.4v11.4h-2.5l-4.8-7.7h0v7.7H303V213.2z"/>
		</g>
	</g>
	<g>
		<g>
			<path d="M459,72.2h5.4c2.2,0,3.6,0.7,3.6,2.8c0,1.1-0.6,1.9-1.6,2.4c1.4,0.4,2.1,1.5,2.1,2.9c0,2.3-2,3.3-4,3.3H459V72.2z
				 M461.5,76.8h2.5c0.9,0,1.5-0.4,1.5-1.4c0-1.1-0.8-1.3-1.7-1.3h-2.4V76.8z M461.5,81.7h2.7c1,0,1.9-0.3,1.9-1.5
				c0-1.2-0.7-1.6-1.8-1.6h-2.7V81.7z"/>
			<path d="M473.5,72.2h6.2c2,0,3.3,1.4,3.3,3.2c0,1.3-0.5,2.4-1.8,2.9v0c1.2,0.3,1.6,1.5,1.7,2.7c0,0.7,0,2.1,0.5,2.7h-2.5
				c-0.3-0.7-0.3-1.8-0.4-2.7c-0.2-1.2-0.6-1.7-1.9-1.7H476v4.5h-2.5V72.2z M476,77.4h2.8c1.1,0,1.7-0.5,1.7-1.6
				c0-1.1-0.6-1.6-1.7-1.6H476V77.4z"/>
			<path d="M491.3,72.2h2.6l4.3,11.4h-2.6l-0.9-2.5h-4.3l-0.9,2.5H487L491.3,72.2z M491.1,79.2h3l-1.4-4.2h0L491.1,79.2z"/>
			<path d="M504.1,79.8c0,1.5,1.2,2.1,2.5,2.1c0.9,0,2.2-0.3,2.2-1.4c0-1.2-1.7-1.4-3.4-1.9c-1.7-0.4-3.4-1.1-3.4-3.2
				c0-2.3,2.2-3.5,4.3-3.5c2.4,0,4.6,1,4.6,3.7h-2.4c-0.1-1.4-1.1-1.7-2.3-1.7c-0.8,0-1.7,0.3-1.7,1.3c0,0.9,0.5,1,3.4,1.7
				c0.8,0.2,3.4,0.7,3.4,3.3c0,2.1-1.6,3.7-4.8,3.7c-2.5,0-4.9-1.2-4.9-4.1H504.1z"/>
			<path d="M516,72.2h2.5v11.4H516V72.2z"/>
			<path d="M523.9,72.2h2.5v9.3h5.6v2.1h-8.1V72.2z"/>
			<path d="M536.6,72.2h2.5v11.4h-2.5V72.2z"/>
			<path d="M544.5,72.2h8.5v2.1h-6v2.4h5.5v2H547v2.8h6.2v2.1h-8.7V72.2z"/>
			<path d="M558.1,72.2h2.5l4.8,7.7h0v-7.7h2.4v11.4h-2.5l-4.8-7.7h0v7.7h-2.4V72.2z"/>
		</g>
	</g>
	<g>
		<g>
			<path d="M376.2,271c0,3.1-1.8,4.6-4.9,4.6c-3.1,0-4.9-1.5-4.9-4.6v-7.1h2.5v7.1c0,1.2,0.3,2.5,2.4,2.5c1.8,0,2.4-0.8,2.4-2.5
				v-7.1h2.5V271z"/>
			<path d="M381.6,263.9h6.2c2,0,3.3,1.4,3.3,3.2c0,1.3-0.5,2.4-1.8,2.9v0c1.2,0.3,1.6,1.5,1.7,2.7c0,0.7,0,2.1,0.5,2.7h-2.5
				c-0.3-0.7-0.3-1.8-0.4-2.7c-0.2-1.2-0.6-1.7-1.9-1.7h-2.5v4.5h-2.5V263.9z M384.1,269.1h2.8c1.1,0,1.7-0.5,1.7-1.6
				c0-1.1-0.6-1.6-1.7-1.6h-2.8V269.1z"/>
			<path d="M406,271c0,3.1-1.8,4.6-4.9,4.6c-3.1,0-4.9-1.5-4.9-4.6v-7.1h2.5v7.1c0,1.2,0.3,2.5,2.4,2.5c1.8,0,2.4-0.8,2.4-2.5v-7.1
				h2.5V271z"/>
			<path d="M419.7,274.1c-0.9,1.1-2,1.6-3.1,1.6c-3.5,0-5.6-2.6-5.6-5.9c0-3.4,2.1-6,5.6-6c2.3,0,4.5,1.4,4.8,4h-2.4
				c-0.3-1.3-1.2-1.9-2.4-1.9c-2.3,0-3.1,1.9-3.1,3.9c0,1.9,0.8,3.8,3.1,3.8c1.6,0,2.6-0.9,2.7-2.5h-2.5v-1.9h4.8v6.2h-1.6
				L419.7,274.1z"/>
			<path d="M436.4,271c0,3.1-1.8,4.6-4.9,4.6c-3.1,0-4.9-1.5-4.9-4.6v-7.1h2.5v7.1c0,1.2,0.3,2.5,2.4,2.5c1.8,0,2.4-0.8,2.4-2.5
				v-7.1h2.5V271z"/>
			<path d="M444.9,263.9h2.6l4.3,11.4h-2.6l-0.9-2.5H444l-0.9,2.5h-2.5L444.9,263.9z M444.7,271h3l-1.4-4.2h0L444.7,271z"/>
			<path d="M458.9,270.9l-4.2-7h2.8l2.7,4.5l2.7-4.5h2.8l-4.2,7v4.4h-2.5V270.9z"/>
		</g>
	</g>
	<path class="st6" d="M111.9,277.2c0,0,62.4,179.3,22.8,398.4"/>
	<polyline class="st7" points="117.9,624.1 132.7,646 120.5,660.5 134.7,676.2 	"/>
	<path class="st6" d="M132.7,646C341,521.2,341,295,341,295s-47.3-140.3,86.8-182.7c41.6,60.6,100.3,56.3,100.3,56.3"/>
	<circle cx="111.9" cy="277.2" r="4.3"/>
	<circle cx="120.5" cy="660.5" r="4.3"/>
	<circle cx="132.9" cy="645.9" r="4.3"/>
	<circle cx="117.9" cy="624.1" r="4.3"/>
	<circle cx="134.7" cy="675.6" r="4.3"/>
	<circle cx="341" cy="295" r="4.3"/>
	<circle cx="427.4" cy="112.3" r="4.3"/>
	<circle cx="528.1" cy="168.5" r="4.3"/>
	<g>
		<circle class="st8" cx="111.9" cy="258.9" r="6.4"/>
		<path class="st9" d="M111.9,249.4c-5,0-9,4-9,9c0,2,1.3,5.3,3.9,10c1.9,3.3,3.7,6.1,3.8,6.2l1.3,2l1.3-2c0.1-0.1,1.9-2.9,3.8-6.2
			c2.6-4.7,3.9-8,3.9-10C120.9,253.4,116.8,249.4,111.9,249.4z M111.9,263c-2.6,0-4.7-2.1-4.7-4.7c0-2.6,2.1-4.7,4.7-4.7
			s4.7,2.1,4.7,4.7C116.5,260.9,114.5,263,111.9,263z"/>
	</g>
	<path class="st0" d="M608.5,0l71.9,2.2l-2,22.1c-2,4.3-4.6,13.2-9.9,16.8c-5.3,3.6-11.6,13.5-10.2,17.8c1.3,4.3,4.6,6.9-0.2,9.2
		s-15,4.9-16,8.1c-1,3.2,0.9,6.3-3,7.2c-4.1,1-2.3,2.3-13.4,2"/>
</g>
</svg>