<svg xmlns="http://www.w3.org/2000/svg" viewBox="0 0 540.69 687.87">
  <defs>
    <style>
      .a {
        fill: #ededec;
      }

      .b, .c {
        fill: #dadada;
        stroke: #dadada;
      }

      .b, .f, .g {
        stroke-miterlimit: 10;
      }

      .c, .d {
        stroke-miterlimit: 3.86;
      }

      .d, .f, .g {
        fill: none;
      }

      .d {
        stroke: #2ea7e0;
      }

      .e {
        fill: #1a181c;
      }

      .f, .g {
        stroke: #f9b000;
      }

      .g {
        stroke-dasharray: 3 3;
      }
    </style>
  </defs>
  <path class="a" d="M224.61,90c.9-1.79,2.24-19.59,5.76-20s14.2.82,15.1-1.79.9-1.72-1.35-3.51,1.8-6.21,3.14-9.35-.52-4,4-6.2,7.56-1.43,10.7-4.49,5.3-5.31,5.3-5.31a5.48,5.48,0,0,0,0,4.86c1.35,2.24,3.15,1.87,2.25,4.94s-4.41,5.75,0,4.85,6.2-2.24,8.9-2.24,6.73,6.73,9.79,4,5.23-2.77,3.06-4.49-3.88-3-2.16-8.37,2.24-13.76-.45-16.9-9.27-8.52-7.1-12,2.61-1.71,3.06-4.85S284-1.18,289.88.17s2.69,7.55,4.94,5.75S296.16,1,301,3.23s4,4.12,5.76,6.28,2.24,3,8.89,9.27,7.11,7.55,6.66,10.25,1.79,9.26,3.59,6.65,2.16-8,4-8,.61,1.36,2.24,3.14c4,4.41,6.29,6.28,3.59,10.25s-4.12,4-5.38,7.1,1.79,3.14,3.59,7.55S339.3,68.58,343.26,69s5.84,2.24,8.45,1.34,4,.08,6.21,2.25,4,5.22,5.3,3.06-.89-7.63,8.45-8.45,4.49-6.2,9.35-4.41,8.82,7.63,12.86,10.69,7.18,1.72,4.94,4-3.52,1-6.66,3.6-7.63,4.4-4,4.4,5.76-1.34,8.45.45,3.59,1,3.14,4,3.14,4.86,6.66,4,9.79,4,6.65,6.21-4,2.24-7.1,4.49-.9,1.71,0,4-3.07,4-5.31,6.2-3.22,6.29-6.73,3.59-3.14-3.59-7.55-3.14-10.17-1.79-9.72.9,5.68,4,2.17,6.65-13.23,5.92-10.17,7.63,16,6.66,23.55,12.41,11.14,10.69,17.35,10.69,10.16.82,10.16,4-2.69,2.62-1.79,7.11,6.36,7.55,7.18,9.79,4.41,4.94,6.2,2.25,4,3.06,5.31,5.75-1.1,6.2-.1,7.45,11,12.75,13.25,14.75,5.5,1.75,7.75,5,10,10.75,11.25,12.25,5.5.75,5.75,2.75-2.25,15.5-.5,16,4.25-1.75,4.5-.5-.25,5.25,1,6.25,2.5,2.25,3.75.5,2.75-5.5,4.5-4,.5,4.5,2.25,6.75,2.5,3.25,4,3.25,3.25-1.25,4,.75-1.75,1.75,1.75,4.25,3.25,1.25,5,3,3.75-.5,5.25,1,2.5,3.25-1.5,5.25-8.75,1.75-8.5,4.5-.75,5.5,6.5,10.75,8.25,2.75,10.75,6.75,4.5,5.25,2.25,7.75-3,4.25-5.25,5.25-6.25,1.5-3.75,3.25,5,5.25,4,7.5-.5,5.5-3,8-2.5-.5-5.5,1-5,7.5-7.75,7.75-1.75-2.75-3.5-1.5-2.75,6.75-5.75,5.75-10.5-9.5-12.5-10.25-4,1.75-6.5,3.25-3.75-1.25-5.75-.5,3,3.5-2.5,5.25-7.75-2.5-8,.5,10.25,10,7.75,12.25-1,4.25-3.75,5.25-10.25-3.5-14-5-3.75-4.25-7.75-3.5-3.5,3-6,2-3.25-.75-7.5-6-16.5-19-16.5-19l-168.5-75.92-19.33-92.44L224.61,90Z"/>
  <path class="b" d="M221.47,85.77c-8-1-5.27,3.68-10.63,3.68s-6.62-2.63-7.87-.88-2.31,2.81-5.5,4.78c-5.43,3.34-4.5,1.47-8,2.47s-3.25,12.25-7.5,13.5-5.75-.5-7.25,0-8,5.25-11,5-10,.75-11.25-1.25-2-5-4.25-4.75-1.75,3-3.75,4.75-4.25,1.75-5.25,3.75,1,16.5-2.25,20.25-5.5,5.5-4.5,8.25,3,11.75,1.25,12.25-.75-1.5-4,.75-4,4-5.5,3-4.75-8-4.75-5,3.25,13.25,4.25,13.5,3.5-2.25,4.75-1.75-.5,1.5.5,3.5,3,4.75,3,7.25-2.75,6-1.5,8.25,11.5,13.25,15,18,8.5,9.5,8.75,11.75,0,5.25,1.75,5.25,3.5-.25,4.25,1.75,3.75,5.5,2.75,7.5-1.5,1.25-1,3.25,4.75,15,6,15.5,4-1.5,5-3,2.75-2.5,3.75-1.5,1.5,6-.25,7.75-4.5,4.5-7,5.5-5.25,2.25-4.75,9-.75,21.25-.75,21.25-12,3-13,5.5-.25,16.25,1.75,19,7.5,9,8.75,11.25,3,5.25,9,10,15.5,19.5,15.75,24.75-2.25,28.25.75,32.75,9.5,10,9.5,11.5-1.25,3.25-.75,5.25,1.75,10.5,3.5,12,3,5.25,3,7.75.75,5.5-1,7.5-3,1.5-4.25,3.25-.5,5-2.5,7.75-7.75,13-10.75,15.75-4.5,1-5,2.75-.25,4.5-1.75,5.5-7.75,2.25-8.5,4.75,1.75,5,1,7.25-3,8-3.5,9.25.25,2.75-.25,4.75-5.5,10.5-6,12.25-2.25,12-5.25,16-4.75,12.75-4.75,12.75,1.75,5.25.25,6-2.5,0-3,2.25-.25,6.75-1,10-2,3.75-2,7,3.25,14.75,3.25,15.75,3,3,4.5,2.75,1.5-5.25,1.75-6.75,4.5-2,5.75-2.75a15.54,15.54,0,0,0,2.5-2s-.25,4,.75,4.25,3.25,0,3.25,1.75-1.25,7.75.25,8.5,6-.75,7.5.75,5.75,3.5,5,5.75-3,5-.75,5.5,8,1.25,9.25,4.75.5,10.5,1.5,11.75,4,2.75,5.5,1.25,3-1.75,4.25-1-2.25,5-.5,6.5,5.75-.25,6.5,1.5.75,5.75-.25,7-2.5,2.5-1,4.25,8.5,3.25,9.25,6.25,4,7.5,5.25,9.25a40.77,40.77,0,0,0,4.25,4.5s1.25-10,2.5-9.75,7,8.5,11.75,10,10-2,11.25,0,2,5.5,4.25,7.25,9.5-.5,10,1.25,2.25,9.25,0,12.75-3.75,5.5-3.25,7.75,2.5,5.5,5,5,5.75-7,9-7.25,7.75-3.75,10-1.5,4.75,5.75,7.25,5.25,6-3.25,6.25-5.25-.25-4.5,3.5-7.5,4.5-8.5,4.5-8.5-15-8.25-17.75-13.75-3.75-12-9.25-14.25-6.5-4-7.25-2.5-2.25,2.5-8,2.25-3.25.25-8-2.25a67.45,67.45,0,0,1-10.25-7.25s-.75-1.75-3.25-.75-3.25,1.25-4.25,0-3.5-5.5-5.25-6.5-9.5-10.25-8.5-14,3.5-7.75,5-6.5,2.5,5.5,1.75,7.25-2.25,2.25-.5,2.75,2.25,1.5,3.75,2.25-.25-9-.5-11.25-5.5-25.5-6-27.25-2-4-2.25-2.5,0,3.25-1.25,2.25a38.43,38.43,0,0,1-6-6.5c-1.25-2-2.5-24-3.25-26.75s-5.5-4.25-8-3.25-8.5,4.25-10.5,4.75-4.25-1.75-5.5-1.25-3-.75-1.5-2.75,4-2.75,2.5-4.75-6.5-13.75-5.75-21.5a69.8,69.8,0,0,1,1.75-10.75c.25-1.75-4.25-6.5-2.5-6.75s4,1.5,4.75-.25-2-2.25.5-6.25a67.34,67.34,0,0,0,4.75-8.5c1-2.25,2-4.5,4-5.25s-.25-9.75,1.5-11.5,2.25-.25,2.75-4,3.75-15.25,5.75-17.25,3.5-.75,3.75-2.5-1.25-6.25,1-8.5,7.5-6.5,7-9.25-2.75-12.75-2-16,.25-11.75,2.75-15,3.75-5.25,1.75-7-5.75-5.25-4.25-8.25,4-3.75,7.5-4.5,11.25-1.5,13.5-1.75,2.75-3.25,4.5-2,3,2.25,6.25,2.25,8.25-.5,8.25,1.75,0,6-1.25,7.5-4.25,5.5-3.5,6.5,3,8.25,1.75,9.5-5,6.5-3.75,7,3.25,3.25,5.75,2.25,6.75-2,10-1.25,3.25,3.5,10.75,2.25,8.25-5.25,11.75-3.5,1.25,4.25,4.25,5.5,7.75,3.5,9.75,5.75,5.75,4.5,5.5,6.5,1.5,4.75,3.25,3.75,4.5.5,5.5,2,2.75,4,3.25,2-.75-3.75.75-4,.75,2.25,2.75,3.25a13.9,13.9,0,0,0,4,1.25s-3-7-2-9.25,4.5-2.75,3.25-4.5-9.5-8.5-10-11-.75-13.5-2.25-15.75-7-6.75-6-10.75a54.93,54.93,0,0,0,1.25-8.25c.25-1.75,2.25,0,4.5,0s5.75-.25,5.25-1.75a4.49,4.49,0,0,0-1.75-2.25s4.75-1.5,7.75-8.25,11-16.75,19.75-20,14.75-5.5,15.75-4,6.75,3.5,11.25,3.25,11.5-2.25,15-1.5,8.25,2.5,10,1.25,9.75-3.75,12.5-2,2.5,6.75,3.25,8.25,3.25,2.25,4.25.75,1.25-3.5,3.25-4.25,10.62-4.5,11.37-6.37-.5-12.75.75-14.38,4.25-5.37,2.63-6.5-6-2.75-5-5,4.87-5.62,4.37-6.62-4.62-.63-4-2,4.38-2.63,4.5-4,2-7.75.75-9-2.62-4-5.37-4.25-6.75-4.75-6-6,5.5-3.25,2.87-3.88-12.25-1.5-13.37-2.87-1.13-8-5.13-10.38-8.12-7.25-7.87-10a123.85,123.85,0,0,0,.25-13.5c-.25-2.25-.5-5.25,1-7.5s2.25-5.25.75-9.5,1.5-5.25-5-8.5-8.5-2.75-11.25-7.5-6-10-7.75-12.5-6.5-14-8.5-13.25-.75,2.5-2.75,2.5-3,.5-7.25-2-10.75-5.5-13.5-3.75-3.5,3.5-3.5,5.25-2.75.5-4,3-2,2.75-2.75,4.5.75,5.75-2.5,5.5-3.5-2.5-6-.5-3.25,10.75-9,7.5-17-18.25-20.75-16.5-2.5,3.25-5.75,5-4.5.75-6.5,1,.5,1.75-2.5,4.75-21,18-23,18-3.75-3.75-6-3.75-4.75.5-3.25-1.25,2-6.25,4.25-9,7-7.5,7-10.75.5-8.25-.75-9.5-7.75-2.25-4.5-5.25,8.25-7,8.25-9-.75-8,.5-9.25,3-1.75,3.25-4-3.25-3.5-3.75-5.75-3.75-11.75-2.5-12.5,4.75-.75,3.75-3.25-6-1.25-9-2.25-3.5-2.5-5.5-.75-2.5,5-4.5,4.5-3.25-3.5-5-2.75-1.5,2.25-3.75,1.5-7-7.5-5.25-10.5,5-8.75,5.5-11.5,1.75-3.5-.5-4.25-3.25-1.5-5.75-5-2.5-5.25-4.75-3.75-1.75,4.25-4,5-2.25-1.5-2-3.5-3.25-2-3.25-2Z"/>
  <path class="c" d="M215.37,524.34c-1.71.19-1.9-.76-1.9,1.15s-.76,4.19,1.33,4.19S218,528,219,526.82s1.91-2.1.95-2.67a2.73,2.73,0,0,0-2.66-.38,12.24,12.24,0,0,1-1.91.57Z"/>
  <path class="c" d="M216.9,514.25c-1.33.76-2.29,2.28-1.33,3.24s1.71,3.81,2.47,2.67,1.52-1.53,1.71-3,1-2.67-.38-2.86a9,9,0,0,0-2.47,0Z"/>
  <path class="c" d="M148.9,586.25c-1.72.19-2.1-.19-2.1,2.28s-.38,8.77.57,8.77,1.72-1.9,2.86-3,1.91-1.33,2.48-3,2.47-4.19,1.14-4.57a28.46,28.46,0,0,0-4.95-.38Z"/>
  <path class="c" d="M158,583.58a3.55,3.55,0,0,0,.19,3.62c.57,1.14,1.72,3,2.1,2.1a3.86,3.86,0,0,0,0-3.24,10,10,0,0,0-2.29-2.48Z"/>
  <path class="c" d="M178.23,601.11c-.95.76-1.33,1.14-.57,2.28s2.09,1.33,2.47.19,1-2.09.2-2.47a3.66,3.66,0,0,0-2.1,0Z"/>
  <path class="c" d="M175.37,606.06c-.76,1.14-1.14,1.52-.19,2.67s1.34,2.66,2.29,2.09.57-1,.38-2.09-2.48-2.67-2.48-2.67Z"/>
  <path class="c" d="M202.23,644c-.59.09-1.14.89-1.61,1.48s-1.68,1.26-.8,2.31,2.16,2.95,2.83,2.95a2,2,0,0,0,1.77-1.27,4.58,4.58,0,0,0-.13-2.6,20,20,0,0,0-1.35-2.19c-.37-.38-.71-.68-.71-.68Z"/>
  <path class="c" d="M207.32,654.23c-1.43.3-1.43.59-2.48,1.69s-2,1.93-1.35,2.77,3,2.35,3.09,3.17-.07,1.93.89,1.11,1.62-2.23,2.66-2.15,2.89-.39,2.89-1.41,0-3-.74-3.7-1.06-1.26-2.15-1.33-2.81-.15-2.81-.15Z"/>
  <path class="d" d="M265,33.32s2,4.13,1.25,5.75-.5,1.75-2.38,3.5-1.75,2.63-4.37,3.63-8,2-9.13,2.87a6.05,6.05,0,0,0-2.5,3.63c-.75,2.25-4.5,8.75-4.37,9.75s.62,1.5,1.62,2.5,2.25,1.87.13,3a14.59,14.59,0,0,1-7.5,1.62c-3.38,0-6.13-.62-7.5.25s-1,.5-2,3.38a131.71,131.71,0,0,0-3.13,15.5c-.12,1.75-.87,2.62.75,2.37s2.13-1.5,3.38-3,1-3,2.62-2.25,2.5,3.25,3.88,4.88,5.87,3.75,6.25,4.62,1.37-1.25,1,1.75-2.5,11.88-.38,13.13,4.63-2.25,7.38-3,2.75-1,4.62,0,1.63,1.62,3.63,1.37,1.62-.75,3.75-1,2.75.13,4.75,1.38,4.25.75,7.12.87,6.88.75,8.88-.62.37-3.5,3.25-3.75,5.37-.25,6.75-1.5,5.62-5.63,9.5-4.88,4.75,1.5,4.62,2.75,1,2.5-2.25,4.13-10.12,6.37-11.87,8.62-3.75,5.63-3.13,8,2.5,2.38,2.5,4-2.12,8.13-2.5,11-2.37,3.88-1.5,4.63,2.38,1.12,1.75,2.37-3.25,1.13-1.12,3.38,2.87,1,2.12,3.5-1.25,10.87-7,15.12-10.25,7.25-10.5,9.75-.25,3,.5,4.38a5.69,5.69,0,0,1,.38,4.5c-.5,1.37-1.38,3.12.5,3.5s5,.12,4.87,1,3.38-.63,5-2.38,2.75-3.12,3-4.25.13-1.5,1.88-1.5a10,10,0,0,0,5.75-1.37c1.87-1.25,5.37-5.5,6.75-4.88s7.62,5.88,10.12,8.25,9,9.63,11.13,9.13,3.87-2.88,5.37-5.25,1.88-4.63,3.25-4,4.63,2,5.63,1.25.5-4.5,1.5-5.5,3.12-5.75,4.87-6.5,1.63-.63,2.13-2.13,1-4,4.12-4.25,4.63-.25,8.88,2.13,8,4.12,9.62,4.12a3.67,3.67,0,0,0,3.25-1.75c.5-.87-.25-1.5,1-.75s8.38,13.63,10.5,16.5,4.88,10.38,7.5,12,12.25,5.63,13,7.13,0,1.62.63,4.12S406.72,215,406,217s-1.88,2.62-2.38,6.12.5,10-.12,13.25-1.13,7.25,1,9.63,7.5,6.62,8.62,8.25,1.13,7.37,3.13,8.37,13.87,2.13,13.87,3.13-3.5,2.87-3,4.25.63,3.25,3.13,4.37,5.25,1.5,6.75,3.88,1.62,3.75,1,7-.13,3.87-1.75,4.75-4.38,2.25-3.25,3,3-.75,4.75.87,1.5,3.75,4.62,6.13,6.5,4.87,6.75,7.87-.5,3.88.5,5.75,2.5,2,1.5,3.38-4.37,5.5-3.87,9.12.25,6.25.5,8.13-1.88,2.5-2.63,4-1.5,2.12-1.12,3.62a16.12,16.12,0,0,0,1.87,3.75m1.75-10s-1.75,1.63-.12,4.75.87,3.13,2.5,4.63a25.63,25.63,0,0,1,3.25,4"/>
  <path class="b" d="M309,421.19c-.89.44,0-.45.15,1.93s-1.46,3.39,1.49,4,4,1.46,4,0-.12-2.05-1.6-3.68-1.94-2.23-2.83-2.53-1.19.3-1.19.3Z"/>
  <path class="e" d="M190,540.48a2.84,2.84,0,1,1,2.83,2.83,2.84,2.84,0,0,1-2.83-2.83Z"/>
  <path class="e" d="M145.07,592.69a2.84,2.84,0,1,1,2.83,2.83,2.84,2.84,0,0,1-2.83-2.83Z"/>
  <path class="e" d="M163,501.38a2.84,2.84,0,1,1,2.83,2.83,2.83,2.83,0,0,1-2.83-2.83Z"/>
  <g>
    <path class="e" d="M3.25,527.56H5.18l3.2,8.57h-2l-.65-1.91H2.58l-.67,1.91H0Zm-.18,5.26H5.29l-1.08-3.14h0Z"/>
    <path class="e" d="M11.53,527.56H13.4L17,533.31h0v-5.75h1.76v8.57H16.88l-3.56-5.73h0v5.73H11.53Z"/>
    <path class="e" d="M22.82,527.56h3.7c2.22,0,3.88,1.4,3.88,4.24,0,2.48-1.27,4.33-3.88,4.33h-3.7Zm1.89,7h1.68c1.09,0,2.13-.67,2.13-2.56,0-1.73-.6-2.83-2.47-2.83H24.71Z"/>
    <path class="e" d="M36.45,527.56h1.94l3.2,8.57h-2L39,534.22H35.78l-.67,1.91H33.2Zm-.18,5.26h2.22l-1.08-3.14h0Z"/>
    <path class="e" d="M44.74,527.56h2.65l2,5.89h0l1.9-5.89H54v8.57H52.2v-6.07h0l-2.1,6.07H48.62l-2.1-6h0v6H44.74Z"/>
    <path class="e" d="M60.36,527.56h1.93l3.2,8.57H63.54l-.65-1.91h-3.2L59,536.13H57.11Zm-.18,5.26H62.4l-1.08-3.14h0Z"/>
    <path class="e" d="M68.64,527.56h1.87l3.57,5.75h0v-5.75h1.76v8.57H74l-3.56-5.73h0v5.73H68.64Z"/>
    <path class="e" d="M79.93,527.56h6.41v1.59H81.81V531H86v1.47H81.81v2.09h4.62v1.59h-6.5Z"/>
    <path class="e" d="M90.11,527.56H92l3.57,5.75h0v-5.75h1.76v8.57H95.46l-3.57-5.73h0v5.73H90.11Z"/>
    <path class="e" d="M101.21,532.12h3.61v1.47h-3.61Z"/>
    <path class="e" d="M2.19,547.69c0,1.14.89,1.58,1.9,1.58.66,0,1.67-.19,1.67-1.07s-1.29-1.08-2.55-1.41S.66,546,.66,544.35s1.65-2.59,3.2-2.59c1.79,0,3.43.78,3.43,2.76H5.47c-.06-1-.79-1.3-1.69-1.3-.6,0-1.3.26-1.3,1s.41.74,2.56,1.29c.62.16,2.54.55,2.54,2.5,0,1.57-1.24,2.74-3.56,2.74-1.9,0-3.67-.93-3.65-3Z"/>
    <path class="e" d="M11.1,542h6.4v1.59H13v1.83h4.15v1.47H13V549H17.6v1.58H11.1Z"/>
    <path class="e" d="M21.27,542h6.41v1.59H23.16v1.83h4.15v1.47H23.16V549h4.62v1.58H21.27Z"/>
  </g>
  <g>
    <path class="e" d="M302,493.05a2.89,2.89,0,0,1-2.35,1.17,4.13,4.13,0,0,1-4.21-4.45c0-2.54,1.56-4.52,4.21-4.52a3.45,3.45,0,0,1,3.61,3h-1.8a1.76,1.76,0,0,0-1.81-1.44c-1.69,0-2.33,1.44-2.33,2.94s.64,2.87,2.33,2.87a1.86,1.86,0,0,0,2-1.85h-1.9v-1.4h3.6V494h-1.2Z"/>
    <path class="e" d="M311.15,485.25c2.65,0,4.21,2,4.21,4.52a4.22,4.22,0,1,1-8.42,0C306.94,487.23,308.5,485.25,311.15,485.25Zm0,7.39c1.69,0,2.32-1.44,2.32-2.87s-.63-2.94-2.32-2.94-2.33,1.44-2.33,2.94S309.46,492.64,311.15,492.64Z"/>
    <path class="e" d="M319,485.45h1.89v7h4.17V494H319Z"/>
    <path class="e" d="M328.56,485.45h6V487h-4.14v2H334v1.46h-3.59V494h-1.88Z"/>
    <path class="e" d="M347.79,494h-2.12l-2.78-8.57h1.94l1.91,6h0l1.93-6h1.95Z"/>
    <path class="e" d="M357.61,485.25c2.65,0,4.21,2,4.21,4.52a4.22,4.22,0,1,1-8.42,0C353.4,487.23,355,485.25,357.61,485.25Zm0,7.39c1.69,0,2.33-1.44,2.33-2.87s-.64-2.94-2.33-2.94-2.33,1.44-2.33,2.94S355.92,492.64,357.61,492.64Z"/>
    <path class="e" d="M365.51,485.45h1.87L371,491.2h0v-5.75h1.76V494h-1.88l-3.57-5.73h0V494h-1.76Z"/>
    <path class="e" d="M297.7,501.44h-2.57v-1.59h7v1.59h-2.56v7H297.7Z"/>
    <path class="e" d="M305.53,499.85h1.89v3.29h3.46v-3.29h1.88v8.57h-1.88v-3.7h-3.46v3.7h-1.89Z"/>
    <path class="e" d="M319.16,499.85h1.93l3.21,8.57h-2l-.65-1.91h-3.2l-.67,1.91h-1.91Zm-.18,5.26h2.22L320.12,502h0Z"/>
    <path class="e" d="M327.44,499.85h1.89v8.57h-1.89Z"/>
    <path class="e" d="M333.38,499.85h1.89v7h4.17v1.59h-6.06Z"/>
    <path class="e" d="M345.24,499.85h1.93l3.2,8.57h-1.95l-.65-1.91h-3.2l-.67,1.91H342Zm-.18,5.26h2.22L346.2,502h0Z"/>
    <path class="e" d="M353.52,499.85h1.87L359,505.6h0v-5.75h1.76v8.57h-1.88l-3.56-5.74h0v5.74h-1.76Z"/>
    <path class="e" d="M364.81,499.85h3.7c2.21,0,3.88,1.4,3.88,4.24,0,2.48-1.27,4.33-3.88,4.33h-3.7Zm1.89,7h1.67c1.1,0,2.14-.67,2.14-2.56,0-1.73-.6-2.83-2.47-2.83H366.7Z"/>
  </g>
  <g>
    <path class="e" d="M299.7,271h-2.57v-1.59h7V271h-2.56v7H299.7Z"/>
    <path class="e" d="M307.53,269.45h1.89v3.29h3.46v-3.29h1.88V278h-1.88v-3.7h-3.46V278h-1.89Z"/>
    <path class="e" d="M321.16,269.45h1.93L326.3,278h-2l-.65-1.91h-3.2l-.67,1.91h-1.91Zm-.18,5.26h2.22l-1.08-3.15h0Z"/>
    <path class="e" d="M329.44,269.45h1.89V278h-1.89Z"/>
    <path class="e" d="M335.38,269.45h1.89v7h4.17V278h-6.06Z"/>
    <path class="e" d="M347.24,269.45h1.93l3.2,8.57h-1.95l-.65-1.91h-3.2L345.9,278H344Zm-.18,5.26h2.22l-1.08-3.15h0Z"/>
    <path class="e" d="M355.52,269.45h1.87L361,275.2h0v-5.75h1.76V278h-1.88l-3.56-5.74h0V278h-1.76Z"/>
    <path class="e" d="M366.81,269.45h3.7c2.21,0,3.88,1.4,3.88,4.24,0,2.48-1.27,4.33-3.88,4.33h-3.7Zm1.89,7h1.67c1.1,0,2.14-.67,2.14-2.56,0-1.73-.6-2.83-2.47-2.83H368.7Z"/>
  </g>
  <g>
    <path class="e" d="M291.13,67.29H293v7h4.17v1.58h-6.06Z"/>
    <path class="e" d="M303,67.29h1.93l3.2,8.56h-1.95l-.65-1.91h-3.2l-.68,1.91h-1.9Zm-.18,5.25H305L304,69.4h0Z"/>
    <path class="e" d="M315.11,67.08c2.65,0,4.21,2,4.21,4.53a4.22,4.22,0,1,1-8.42,0C310.9,69.06,312.46,67.08,315.11,67.08Zm0,7.39c1.69,0,2.32-1.44,2.32-2.86s-.63-2.94-2.32-2.94-2.33,1.44-2.33,2.94S313.42,74.47,315.11,74.47Z"/>
    <path class="e" d="M324.29,73c0,1.14.89,1.58,1.89,1.58.66,0,1.67-.19,1.67-1.07s-1.28-1.08-2.54-1.41-2.56-.83-2.56-2.44,1.66-2.59,3.21-2.59c1.78,0,3.43.78,3.43,2.76h-1.83c-.06-1-.79-1.29-1.69-1.29-.6,0-1.29.25-1.29,1s.4.74,2.55,1.29c.62.16,2.54.56,2.54,2.5,0,1.57-1.23,2.75-3.56,2.75-1.89,0-3.67-.94-3.64-3Z"/>
  </g>
  <polygon class="f" points="240.92 358.24 210.99 226.5 178.01 152.06 233.99 93 258.37 104.5 302.35 108.38 311.74 146.69 319.49 184.71 240.92 358.24"/>
  <path class="g" d="M218.86,528s51.65-69.68,22.06-170.35"/>
  <g>
    <path class="e" d="M146.76,157.77a1.48,1.48,0,0,0-.35-.4,1.8,1.8,0,0,0-.47-.27,1.73,1.73,0,0,0-.56-.09,1.93,1.93,0,0,0-.9.2,1.89,1.89,0,0,0-.6.56,2.48,2.48,0,0,0-.33.78,3.91,3.91,0,0,0-.11.91,3.58,3.58,0,0,0,.11.87,2.42,2.42,0,0,0,.33.77,1.86,1.86,0,0,0,.6.55,1.93,1.93,0,0,0,.9.2,1.48,1.48,0,0,0,1.13-.44,2,2,0,0,0,.49-1.16h1.52a3.53,3.53,0,0,1-.31,1.21,2.67,2.67,0,0,1-.66.92,2.74,2.74,0,0,1-1,.58,3.57,3.57,0,0,1-1.21.2,3.85,3.85,0,0,1-1.47-.28,3.2,3.2,0,0,1-1.11-.79,3.42,3.42,0,0,1-.69-1.17,4.62,4.62,0,0,1,0-2.94,3.56,3.56,0,0,1,.69-1.2,3.1,3.1,0,0,1,1.11-.8,3.83,3.83,0,0,1,2.59-.12,3.12,3.12,0,0,1,.94.49,2.67,2.67,0,0,1,.68.81,2.78,2.78,0,0,1,.34,1.1h-1.52A1.08,1.08,0,0,0,146.76,157.77Z"/>
    <path class="e" d="M151.16,155.86v2.69h0a1.59,1.59,0,0,1,.69-.65,1.85,1.85,0,0,1,.82-.21,2.3,2.3,0,0,1,.94.16,1.37,1.37,0,0,1,.57.42,1.78,1.78,0,0,1,.3.67,4.06,4.06,0,0,1,.08.88V163h-1.42v-2.92a1.76,1.76,0,0,0-.2-1,.79.79,0,0,0-.71-.31,1,1,0,0,0-.84.34,2,2,0,0,0-.26,1.14V163h-1.42v-7.14Z"/>
    <path class="e" d="M156,157v-1.17h1.42V157Zm1.42.8V163H156v-5.17Z"/>
    <path class="e" d="M158.79,159.42a1.73,1.73,0,0,1,.25-.83,1.77,1.77,0,0,1,.56-.53,2.73,2.73,0,0,1,.77-.29,4.89,4.89,0,0,1,.85-.08,5.25,5.25,0,0,1,.79.06,2.14,2.14,0,0,1,.73.21,1.46,1.46,0,0,1,.54.44,1.29,1.29,0,0,1,.21.76v2.69c0,.23,0,.46,0,.67a1.45,1.45,0,0,0,.14.48h-1.44l-.06-.25a1.87,1.87,0,0,1,0-.25,1.79,1.79,0,0,1-.8.49,3.29,3.29,0,0,1-.94.14,2.61,2.61,0,0,1-.69-.09,1.55,1.55,0,0,1-.56-.28,1.35,1.35,0,0,1-.37-.48,1.6,1.6,0,0,1-.14-.69,1.53,1.53,0,0,1,.16-.72,1.21,1.21,0,0,1,.4-.46,1.92,1.92,0,0,1,.56-.26c.21-.05.42-.1.63-.13l.63-.08a3.71,3.71,0,0,0,.55-.09.9.9,0,0,0,.38-.18.34.34,0,0,0,.13-.33A.72.72,0,0,0,162,159a.45.45,0,0,0-.2-.21.56.56,0,0,0-.29-.1,2,2,0,0,0-.36,0,1.08,1.08,0,0,0-.66.18.82.82,0,0,0-.28.6Zm3.28,1.05a.91.91,0,0,1-.22.13l-.29.07-.33.05-.34.05-.31.08a1.13,1.13,0,0,0-.27.13.67.67,0,0,0-.19.22.81.81,0,0,0-.07.33.76.76,0,0,0,.07.32.64.64,0,0,0,.19.21,1.16,1.16,0,0,0,.28.1,1.84,1.84,0,0,0,.33,0,1.28,1.28,0,0,0,.65-.14.8.8,0,0,0,.34-.34,1,1,0,0,0,.14-.39,2,2,0,0,0,0-.32Z"/>
    <path class="e" d="M166.24,157.83v.72h0a1.61,1.61,0,0,1,.7-.65,2,2,0,0,1,.88-.21,2.3,2.3,0,0,1,.94.16,1.37,1.37,0,0,1,.57.42,1.78,1.78,0,0,1,.3.67,4.06,4.06,0,0,1,.08.88V163h-1.42v-2.92a1.76,1.76,0,0,0-.2-1,.79.79,0,0,0-.71-.31,1,1,0,0,0-.84.34,2,2,0,0,0-.26,1.14V163h-1.42v-5.17Z"/>
    <path class="e" d="M176,163.38a1.67,1.67,0,0,1-.37.74,2.08,2.08,0,0,1-.81.59,3.46,3.46,0,0,1-1.42.24,3,3,0,0,1-.77-.1,2.53,2.53,0,0,1-.72-.29,1.68,1.68,0,0,1-.54-.52,1.43,1.43,0,0,1-.25-.75h1.41a.85.85,0,0,0,.39.56,1.47,1.47,0,0,0,.67.15,1,1,0,0,0,.88-.36,1.4,1.4,0,0,0,.26-.91v-.68h0a1.4,1.4,0,0,1-.65.6,2,2,0,0,1-.9.2,2.38,2.38,0,0,1-1-.2,1.92,1.92,0,0,1-.69-.57,2.2,2.2,0,0,1-.39-.83,3.61,3.61,0,0,1-.13-1,3.11,3.11,0,0,1,.15-1,2.82,2.82,0,0,1,.42-.83,2.14,2.14,0,0,1,.7-.56,2,2,0,0,1,1-.21,2,2,0,0,1,.9.19,1.57,1.57,0,0,1,.64.64h0v-.69h1.35v4.84A4,4,0,0,1,176,163.38Zm-1.95-1.72a1.08,1.08,0,0,0,.38-.32,1.33,1.33,0,0,0,.23-.46,1.83,1.83,0,0,0,.07-.53,2.91,2.91,0,0,0-.06-.6,1.43,1.43,0,0,0-.2-.51,1,1,0,0,0-.37-.35,1.11,1.11,0,0,0-.58-.13,1,1,0,0,0-.51.12,1,1,0,0,0-.36.33,1.21,1.21,0,0,0-.21.46,2.6,2.6,0,0,0-.07.56,2.67,2.67,0,0,0,.06.56,1.61,1.61,0,0,0,.19.49,1.1,1.1,0,0,0,.35.36,1,1,0,0,0,.55.14A1.12,1.12,0,0,0,174.06,161.66Z"/>
    <path class="e" d="M144.39,167.36l1.67,4.91h0l1.58-4.91h2.21v7.14H148.4v-5.06h0l-1.75,5.06h-1.21l-1.75-5h0v5h-1.47v-7.14Z"/>
    <path class="e" d="M151.34,170.92a1.73,1.73,0,0,1,.25-.83,1.77,1.77,0,0,1,.56-.53,2.73,2.73,0,0,1,.77-.29,4.89,4.89,0,0,1,.85-.08,5.25,5.25,0,0,1,.79.06,2.14,2.14,0,0,1,.73.21,1.46,1.46,0,0,1,.54.44,1.29,1.29,0,0,1,.21.76v2.69c0,.23,0,.46,0,.67a1.45,1.45,0,0,0,.14.48h-1.44l-.06-.25a1.87,1.87,0,0,1,0-.25,1.79,1.79,0,0,1-.8.49,3.29,3.29,0,0,1-.94.14,2.61,2.61,0,0,1-.69-.09,1.55,1.55,0,0,1-.56-.28,1.35,1.35,0,0,1-.37-.48,1.6,1.6,0,0,1-.14-.69,1.53,1.53,0,0,1,.16-.72,1.21,1.21,0,0,1,.4-.46,1.92,1.92,0,0,1,.56-.26c.21-.05.42-.1.63-.13l.63-.08a3.71,3.71,0,0,0,.55-.09.9.9,0,0,0,.38-.18.34.34,0,0,0,.13-.33.72.72,0,0,0-.07-.36.45.45,0,0,0-.2-.21.56.56,0,0,0-.29-.1,2,2,0,0,0-.36,0,1.08,1.08,0,0,0-.66.18.82.82,0,0,0-.28.6Zm3.28,1.05a.91.91,0,0,1-.22.13l-.29.07-.33.05-.34.05-.31.08a1.13,1.13,0,0,0-.27.13.67.67,0,0,0-.19.22.81.81,0,0,0-.07.33.76.76,0,0,0,.07.32.64.64,0,0,0,.19.21,1.16,1.16,0,0,0,.28.1,1.84,1.84,0,0,0,.33,0,1.28,1.28,0,0,0,.65-.14.8.8,0,0,0,.34-.34,1,1,0,0,0,.14-.39,2,2,0,0,0,0-.32Z"/>
    <path class="e" d="M157.48,168.53v-1.17h1.42v1.17Zm1.42.8v5.17h-1.42v-5.17Z"/>
  </g>
  <g>
    <path class="e" d="M220.05,230.57a1.08,1.08,0,0,0,.35.41,1.53,1.53,0,0,0,.5.23,2.35,2.35,0,0,0,.6.07l.45,0a1.39,1.39,0,0,0,.45-.14.85.85,0,0,0,.35-.27.73.73,0,0,0,.14-.45.64.64,0,0,0-.18-.47,1.57,1.57,0,0,0-.49-.3,5,5,0,0,0-.68-.21c-.25-.06-.51-.12-.77-.2A5,5,0,0,1,220,229a2.65,2.65,0,0,1-.68-.38,1.66,1.66,0,0,1-.48-.57,1.68,1.68,0,0,1-.19-.84,1.84,1.84,0,0,1,.24-1,2.09,2.09,0,0,1,.61-.68,2.72,2.72,0,0,1,.86-.4,4,4,0,0,1,1-.13,4.84,4.84,0,0,1,1.08.13,2.77,2.77,0,0,1,.91.4,2.11,2.11,0,0,1,.64.72,2.26,2.26,0,0,1,.23,1h-1.52a1.33,1.33,0,0,0-.13-.53.9.9,0,0,0-.31-.33,1.49,1.49,0,0,0-.43-.17,3.1,3.1,0,0,0-.54,0,2.45,2.45,0,0,0-.38,0,1.16,1.16,0,0,0-.34.14.89.89,0,0,0-.26.25.62.62,0,0,0,.3,1,3,3,0,0,0,.65.22c.27.08.63.17,1.08.28l.56.15a2.77,2.77,0,0,1,.7.33,2.25,2.25,0,0,1,.61.62,1.74,1.74,0,0,1,.25,1,2.12,2.12,0,0,1-.19.91,2,2,0,0,1-.56.73,2.71,2.71,0,0,1-.93.47,4.2,4.2,0,0,1-1.29.17,4.81,4.81,0,0,1-1.14-.14,2.86,2.86,0,0,1-1-.46,2.17,2.17,0,0,1-.68-.79,2.28,2.28,0,0,1-.24-1.14h1.52A1.25,1.25,0,0,0,220.05,230.57Z"/>
    <path class="e" d="M229,232.33v-.72h0a1.56,1.56,0,0,1-.7.65,2,2,0,0,1-.88.2,2.44,2.44,0,0,1-.93-.15,1.34,1.34,0,0,1-.58-.42,1.57,1.57,0,0,1-.29-.67,4,4,0,0,1-.09-.88v-3.18h1.42v2.92a1.86,1.86,0,0,0,.2,1,.77.77,0,0,0,.71.31,1,1,0,0,0,.84-.34,2,2,0,0,0,.26-1.14v-2.71h1.42v5.17Z"/>
    <path class="e" d="M233.27,225.19V229l1.79-1.86h1.68l-2,1.9,2.17,3.27h-1.72L233.82,230l-.55.53v1.78h-1.42v-7.14Z"/>
    <path class="e" d="M237.79,228.63a2.52,2.52,0,0,1,.54-.86,2.32,2.32,0,0,1,.84-.55,3,3,0,0,1,1.1-.2,3,3,0,0,1,1.11.2,2.32,2.32,0,0,1,.84.55,2.52,2.52,0,0,1,.54.86,3.1,3.1,0,0,1,.19,1.12,3,3,0,0,1-.19,1.12,2.52,2.52,0,0,1-.54.86,2.17,2.17,0,0,1-.84.54,3,3,0,0,1-1.11.19,3,3,0,0,1-1.1-.19,2.17,2.17,0,0,1-.84-.54,2.52,2.52,0,0,1-.54-.86,3,3,0,0,1-.19-1.12A3.1,3.1,0,0,1,237.79,228.63Zm1.29,1.73a1.55,1.55,0,0,0,.21.53,1,1,0,0,0,.38.37,1.11,1.11,0,0,0,.6.14,1.17,1.17,0,0,0,.61-.14,1.06,1.06,0,0,0,.39-.37,1.77,1.77,0,0,0,.2-.53,3.08,3.08,0,0,0,.06-.61,3.15,3.15,0,0,0-.06-.61,1.77,1.77,0,0,0-.2-.53,1.26,1.26,0,0,0-.39-.37,1.17,1.17,0,0,0-.61-.15,1.1,1.1,0,0,0-1,.52,1.55,1.55,0,0,0-.21.53,3.15,3.15,0,0,0-.06.61A3.08,3.08,0,0,0,239.08,230.36Z"/>
    <path class="e" d="M247,227.16v1h-1v2.56a.48.48,0,0,0,.6.6h.23a.76.76,0,0,0,.21,0v1.1a2.35,2.35,0,0,1-.4,0h-.43a4,4,0,0,1-.62,0,1.39,1.39,0,0,1-.52-.18.92.92,0,0,1-.36-.37,1.28,1.28,0,0,1-.13-.63v-3h-.86v-1h.86v-1.55H246v1.55Z"/>
    <path class="e" d="M249.41,225.19v2.69h0a1.65,1.65,0,0,1,.69-.65A1.82,1.82,0,0,1,251,227a2.52,2.52,0,0,1,.94.16,1.39,1.39,0,0,1,.57.43,1.72,1.72,0,0,1,.3.67,4.6,4.6,0,0,1,.08.87v3.18h-1.42v-2.92a1.84,1.84,0,0,0-.2-.95.77.77,0,0,0-.71-.32,1,1,0,0,0-.84.35,1.94,1.94,0,0,0-.26,1.13v2.71H248v-7.14Z"/>
    <path class="e" d="M254.16,228.75a1.63,1.63,0,0,1,.25-.83,1.77,1.77,0,0,1,.56-.53,2.61,2.61,0,0,1,.77-.28,4,4,0,0,1,.85-.09,5.35,5.35,0,0,1,.79.06,2.7,2.7,0,0,1,.73.21,1.48,1.48,0,0,1,.54.45,1.23,1.23,0,0,1,.21.75v2.69a4.73,4.73,0,0,0,0,.67,1.14,1.14,0,0,0,.14.48H257.6a1.05,1.05,0,0,1-.06-.24,2,2,0,0,1,0-.26,1.76,1.76,0,0,1-.8.49,3,3,0,0,1-.94.14,2.5,2.5,0,0,1-.69-.09,1.55,1.55,0,0,1-.56-.28,1.19,1.19,0,0,1-.37-.48,1.6,1.6,0,0,1-.14-.69,1.42,1.42,0,0,1,.16-.72,1.27,1.27,0,0,1,.4-.46,1.91,1.91,0,0,1,.56-.25c.21-.06.42-.1.63-.14l.63-.08a3.71,3.71,0,0,0,.55-.09.89.89,0,0,0,.38-.17.39.39,0,0,0,.13-.34.74.74,0,0,0-.07-.36.67.67,0,0,0-.2-.21.91.91,0,0,0-.29-.1,2,2,0,0,0-.36,0,1.08,1.08,0,0,0-.66.18.82.82,0,0,0-.28.6Zm3.28,1.05a.54.54,0,0,1-.22.13l-.29.07-.33.05-.34,0-.31.08a.86.86,0,0,0-.27.14.76.76,0,0,0-.19.21.67.67,0,0,0-.07.33.61.61,0,0,0,.07.32.55.55,0,0,0,.19.21.77.77,0,0,0,.28.1l.33,0a1.18,1.18,0,0,0,.65-.14.9.9,0,0,0,.34-.33,1.19,1.19,0,0,0,.14-.4c0-.13,0-.24,0-.32Z"/>
    <path class="e" d="M260.3,226.36v-1.17h1.42v1.17Zm1.42.8v5.17H260.3v-5.17Z"/>
  </g>
  <g>
    <path class="e" d="M251.21,355.86a4.45,4.45,0,0,1,.93.09,2,2,0,0,1,.72.3,1.3,1.3,0,0,1,.47.54,1.94,1.94,0,0,1,.16.84,1.59,1.59,0,0,1-.24.9,1.81,1.81,0,0,1-.73.59,1.75,1.75,0,0,1,1,.67,2.2,2.2,0,0,1,.11,2.08,1.92,1.92,0,0,1-.56.64,2.49,2.49,0,0,1-.81.37,3.73,3.73,0,0,1-.94.12h-3.46v-7.14Zm-.2,2.89a1.15,1.15,0,0,0,.69-.2.75.75,0,0,0,.27-.65.83.83,0,0,0-.09-.41.64.64,0,0,0-.24-.25.92.92,0,0,0-.34-.12,1.84,1.84,0,0,0-.41,0h-1.47v1.67Zm.09,3a1.61,1.61,0,0,0,.44,0,.93.93,0,0,0,.37-.15.71.71,0,0,0,.26-.28,1,1,0,0,0,.09-.46.92.92,0,0,0-.31-.79,1.37,1.37,0,0,0-.82-.23h-1.71v2Z"/>
    <path class="e" d="M255,359.42a1.63,1.63,0,0,1,.25-.83,1.67,1.67,0,0,1,.56-.53,2.35,2.35,0,0,1,.77-.28,4,4,0,0,1,.85-.09,5.35,5.35,0,0,1,.79.06,2.14,2.14,0,0,1,.73.21,1.46,1.46,0,0,1,.54.44,1.29,1.29,0,0,1,.21.76v2.69a4.83,4.83,0,0,0,0,.67,1.25,1.25,0,0,0,.14.48h-1.44a1,1,0,0,1-.06-.25,1.87,1.87,0,0,1,0-.25,1.85,1.85,0,0,1-.8.49,3.34,3.34,0,0,1-.94.14,2.5,2.5,0,0,1-.69-.09,1.55,1.55,0,0,1-.56-.28,1.35,1.35,0,0,1-.37-.48,1.6,1.6,0,0,1-.14-.69,1.4,1.4,0,0,1,.16-.72,1.13,1.13,0,0,1,.4-.46,1.92,1.92,0,0,1,.56-.26c.21,0,.42-.1.63-.13l.63-.08a3.71,3.71,0,0,0,.55-.09.9.9,0,0,0,.38-.18.36.36,0,0,0,.13-.33.79.79,0,0,0-.07-.37.48.48,0,0,0-.2-.2.59.59,0,0,0-.29-.1,2,2,0,0,0-.36,0,1.08,1.08,0,0,0-.66.18.82.82,0,0,0-.28.6Zm3.28,1.05a.91.91,0,0,1-.22.13l-.29.07-.33.05-.34,0-.31.08a.85.85,0,0,0-.27.13.63.63,0,0,0-.26.55.63.63,0,0,0,.07.32.52.52,0,0,0,.19.2.63.63,0,0,0,.28.11l.33,0a1.28,1.28,0,0,0,.65-.14.85.85,0,0,0,.34-.34,1.22,1.22,0,0,0,.14-.39c0-.13,0-.24,0-.32Z"/>
    <path class="e" d="M262.43,357.83v.72h0a1.64,1.64,0,0,1,.7-.66,2.13,2.13,0,0,1,.88-.2,2.33,2.33,0,0,1,.94.16,1.31,1.31,0,0,1,.57.43,1.65,1.65,0,0,1,.3.67,4.6,4.6,0,0,1,.08.87V363h-1.42v-2.92a1.86,1.86,0,0,0-.2-1,.79.79,0,0,0-.71-.31,1,1,0,0,0-.84.34,2,2,0,0,0-.26,1.14V363h-1.42v-5.17Z"/>
    <path class="e" d="M272.2,363.38a1.73,1.73,0,0,1-.37.74,2.13,2.13,0,0,1-.81.59,3.49,3.49,0,0,1-1.42.24,3.44,3.44,0,0,1-.77-.09,2.6,2.6,0,0,1-.72-.3,1.68,1.68,0,0,1-.54-.52,1.43,1.43,0,0,1-.25-.75h1.41a.85.85,0,0,0,.39.56,1.44,1.44,0,0,0,.67.15,1,1,0,0,0,.88-.36,1.4,1.4,0,0,0,.26-.91v-.68h0a1.35,1.35,0,0,1-.65.6,2,2,0,0,1-.9.2,2.2,2.2,0,0,1-1-.21,1.8,1.8,0,0,1-.69-.56,2.2,2.2,0,0,1-.39-.83,3.61,3.61,0,0,1-.13-1,3.11,3.11,0,0,1,.15-1,2.32,2.32,0,0,1,.42-.83,2.14,2.14,0,0,1,.7-.56,2,2,0,0,1,.95-.21,2,2,0,0,1,.9.19,1.57,1.57,0,0,1,.64.64h0v-.69h1.35v4.84A4,4,0,0,1,272.2,363.38Zm-1.95-1.72a1.18,1.18,0,0,0,.38-.32,1.42,1.42,0,0,0,.23-.46,1.83,1.83,0,0,0,.07-.53,2.91,2.91,0,0,0-.06-.6,1.55,1.55,0,0,0-.2-.51,1,1,0,0,0-.37-.35,1.13,1.13,0,0,0-.58-.13,1,1,0,0,0-.51.12,1,1,0,0,0-.36.33,1.21,1.21,0,0,0-.21.46,2.1,2.1,0,0,0-.07.56,2.67,2.67,0,0,0,.06.56,1.39,1.39,0,0,0,.19.49,1,1,0,0,0,.35.36,1,1,0,0,0,.55.14A1.12,1.12,0,0,0,270.25,361.66Z"/>
    <path class="e" d="M275.27,355.86v3.83l1.79-1.86h1.68l-1.95,1.9L279,363h-1.72l-1.42-2.31-.55.53V363h-1.42v-7.14Z"/>
    <path class="e" d="M279.79,359.29a2.44,2.44,0,0,1,1.38-1.41,3,3,0,0,1,1.1-.19,3,3,0,0,1,1.11.19,2.44,2.44,0,0,1,1.38,1.41,3.15,3.15,0,0,1,.19,1.13,3.06,3.06,0,0,1-.19,1.12,2.47,2.47,0,0,1-.54.85,2.32,2.32,0,0,1-.84.55,3,3,0,0,1-1.11.19,3,3,0,0,1-1.1-.19,2.32,2.32,0,0,1-.84-.55,2.47,2.47,0,0,1-.54-.85,3.06,3.06,0,0,1-.19-1.12A3.15,3.15,0,0,1,279.79,359.29Zm1.29,1.74a1.5,1.5,0,0,0,.21.52,1,1,0,0,0,.38.38,1.21,1.21,0,0,0,.6.14,1.28,1.28,0,0,0,.61-.14,1.09,1.09,0,0,0,.39-.38,1.71,1.71,0,0,0,.2-.52,3.13,3.13,0,0,0,0-1.22,1.67,1.67,0,0,0-.2-.53,1.08,1.08,0,0,0-1-.52,1.21,1.21,0,0,0-.6.14,1.15,1.15,0,0,0-.38.38,1.47,1.47,0,0,0-.21.53,3.13,3.13,0,0,0,0,1.22Z"/>
    <path class="e" d="M287.72,355.86v3.83l1.79-1.86h1.68l-1.95,1.9,2.17,3.27h-1.72l-1.42-2.31-.55.53V363H286.3v-7.14Z"/>
  </g>
  <g>
    <path class="e" d="M324.73,179.33l-2.31-7.14H324l1.59,5h0l1.61-5h1.62l-2.37,7.14Z"/>
    <path class="e" d="M329.49,173.36v-1.17h1.42v1.17Zm1.42.8v5.17h-1.42v-5.17Z"/>
    <path class="e" d="M333.85,178.09a1.47,1.47,0,0,0,1.66.1.84.84,0,0,0,.38-.46h1.25a2.32,2.32,0,0,1-.92,1.33,2.67,2.67,0,0,1-1.5.4,3,3,0,0,1-1.1-.19,2.39,2.39,0,0,1-.83-.56,2.48,2.48,0,0,1-.52-.86,3.22,3.22,0,0,1,0-2.18,2.62,2.62,0,0,1,.54-.86,2.74,2.74,0,0,1,.84-.58,2.65,2.65,0,0,1,1.07-.21,2.44,2.44,0,0,1,1.15.26,2.34,2.34,0,0,1,.81.68,2.83,2.83,0,0,1,.45,1,3.39,3.39,0,0,1,.1,1.15H333.5A1.44,1.44,0,0,0,333.85,178.09Zm1.61-2.72a1,1,0,0,0-.78-.28,1.19,1.19,0,0,0-.56.12,1.15,1.15,0,0,0-.36.28,1.26,1.26,0,0,0-.19.36,1.72,1.72,0,0,0-.07.34h2.31A1.6,1.6,0,0,0,335.46,175.37Z"/>
    <path class="e" d="M339.72,174.16v.72h0a1.68,1.68,0,0,1,.7-.65,2,2,0,0,1,.88-.21,2.48,2.48,0,0,1,.94.16,1.39,1.39,0,0,1,.57.43,1.72,1.72,0,0,1,.3.67,3.9,3.9,0,0,1,.08.87v3.18H341.8v-2.92a1.75,1.75,0,0,0-.2-.95.77.77,0,0,0-.71-.32,1,1,0,0,0-.84.35,1.94,1.94,0,0,0-.26,1.13v2.71h-1.42v-5.17Z"/>
    <path class="e" d="M347.44,174.16v1h-1v2.56a.48.48,0,0,0,.6.6h.23a.66.66,0,0,0,.21,0v1.1a2.35,2.35,0,0,1-.4,0h-.43a4.12,4.12,0,0,1-.62,0,1.39,1.39,0,0,1-.52-.18.92.92,0,0,1-.36-.37,1.41,1.41,0,0,1-.13-.63v-3h-.86v-1H345v-1.55h1.42v1.55Z"/>
    <path class="e" d="M348.46,173.36v-1.17h1.42v1.17Zm1.42.8v5.17h-1.42v-5.17Z"/>
    <path class="e" d="M351.24,175.75a1.73,1.73,0,0,1,.25-.83,1.89,1.89,0,0,1,.56-.53,2.71,2.71,0,0,1,.77-.28,4.09,4.09,0,0,1,.85-.09,5.25,5.25,0,0,1,.79.06,2.7,2.7,0,0,1,.73.21,1.48,1.48,0,0,1,.54.45,1.23,1.23,0,0,1,.21.75v2.69c0,.24,0,.46,0,.67a1.31,1.31,0,0,0,.14.48h-1.44a2.1,2.1,0,0,1-.06-.24,2,2,0,0,1,0-.26,1.71,1.71,0,0,1-.8.49,3,3,0,0,1-.94.14,2.61,2.61,0,0,1-.69-.09,1.55,1.55,0,0,1-.56-.28,1.19,1.19,0,0,1-.37-.48,1.6,1.6,0,0,1-.14-.69,1.42,1.42,0,0,1,.16-.72,1.27,1.27,0,0,1,.4-.46,1.91,1.91,0,0,1,.56-.25c.21-.06.42-.1.63-.14l.63-.08a3.71,3.71,0,0,0,.55-.09.89.89,0,0,0,.38-.17.37.37,0,0,0,.13-.34.74.74,0,0,0-.07-.36.58.58,0,0,0-.2-.21.83.83,0,0,0-.29-.1,2,2,0,0,0-.36,0,1.08,1.08,0,0,0-.66.18.82.82,0,0,0-.28.6Zm3.28,1.05a.54.54,0,0,1-.22.13L354,177l-.33.05-.34,0-.31.08a1.15,1.15,0,0,0-.27.14.76.76,0,0,0-.19.21.81.81,0,0,0-.07.33.72.72,0,0,0,.07.32.55.55,0,0,0,.19.21.85.85,0,0,0,.28.1l.33,0a1.18,1.18,0,0,0,.65-.14.83.83,0,0,0,.34-.33,1,1,0,0,0,.14-.4,2,2,0,0,0,0-.32Z"/>
    <path class="e" d="M358.69,174.16v.72h0a1.68,1.68,0,0,1,.7-.65,2,2,0,0,1,.88-.21,2.48,2.48,0,0,1,.94.16,1.39,1.39,0,0,1,.57.43,1.72,1.72,0,0,1,.3.67,3.9,3.9,0,0,1,.08.87v3.18h-1.42v-2.92a1.75,1.75,0,0,0-.2-.95.77.77,0,0,0-.71-.32,1,1,0,0,0-.84.35,1.94,1.94,0,0,0-.26,1.13v2.71h-1.42v-5.17Z"/>
    <path class="e" d="M365.09,178.09a1.47,1.47,0,0,0,1.66.1.84.84,0,0,0,.38-.46h1.25a2.32,2.32,0,0,1-.92,1.33,2.67,2.67,0,0,1-1.5.4,3,3,0,0,1-1.1-.19,2.39,2.39,0,0,1-.83-.56,2.48,2.48,0,0,1-.52-.86,3,3,0,0,1-.19-1.1,3.23,3.23,0,0,1,.19-1.08,2.62,2.62,0,0,1,.54-.86,2.74,2.74,0,0,1,.84-.58A2.65,2.65,0,0,1,366,174a2.44,2.44,0,0,1,1.15.26,2.34,2.34,0,0,1,.81.68,2.83,2.83,0,0,1,.45,1,3.39,3.39,0,0,1,.1,1.15h-3.73A1.44,1.44,0,0,0,365.09,178.09Zm1.61-2.72a1,1,0,0,0-.78-.28,1.19,1.19,0,0,0-.56.12,1.15,1.15,0,0,0-.36.28,1.26,1.26,0,0,0-.19.36,1.72,1.72,0,0,0-.07.34h2.31A1.6,1.6,0,0,0,366.7,175.37Z"/>
  </g>
  <g>
    <path class="e" d="M225.26,531.46v3l2.79-3h2l-2.79,2.82,3.06,4.32h-2l-2.15-3.21-.9.91v2.3h-1.57v-7.14Z"/>
    <path class="e" d="M231.09,534.89a2.52,2.52,0,0,1,.54-.86,2.32,2.32,0,0,1,.84-.55,3,3,0,0,1,1.1-.19,3,3,0,0,1,1.11.19,2.32,2.32,0,0,1,.84.55,2.52,2.52,0,0,1,.54.86,3.43,3.43,0,0,1,0,2.25,2.57,2.57,0,0,1-.54.85,2.32,2.32,0,0,1-.84.55,3.23,3.23,0,0,1-1.11.19,3.17,3.17,0,0,1-1.1-.19,2.32,2.32,0,0,1-.84-.55,2.57,2.57,0,0,1-.54-.85,3.43,3.43,0,0,1,0-2.25Zm1.29,1.73a1.55,1.55,0,0,0,.21.53,1.06,1.06,0,0,0,.38.38,1.21,1.21,0,0,0,.6.14,1.28,1.28,0,0,0,.61-.14,1.18,1.18,0,0,0,.39-.38,1.77,1.77,0,0,0,.2-.53,3.08,3.08,0,0,0,0-1.21,1.67,1.67,0,0,0-.2-.53,1.08,1.08,0,0,0-1-.52,1.11,1.11,0,0,0-.6.14,1.06,1.06,0,0,0-.38.38,1.47,1.47,0,0,0-.21.53,3.08,3.08,0,0,0,0,1.21Z"/>
    <path class="e" d="M241.9,536.84a1.13,1.13,0,0,0,.35.4,1.53,1.53,0,0,0,.5.23,2.35,2.35,0,0,0,.6.08,3.75,3.75,0,0,0,.45,0,1.67,1.67,0,0,0,.45-.13,1,1,0,0,0,.35-.28.7.7,0,0,0,.14-.44.63.63,0,0,0-.18-.47,1.57,1.57,0,0,0-.49-.3,5,5,0,0,0-.68-.21l-.77-.2a6.46,6.46,0,0,1-.78-.25,3,3,0,0,1-.68-.37,1.8,1.8,0,0,1-.48-.58,1.67,1.67,0,0,1-.19-.83,1.85,1.85,0,0,1,.24-1,2.06,2.06,0,0,1,.61-.67,2.52,2.52,0,0,1,.86-.4,3.52,3.52,0,0,1,1-.13,4.83,4.83,0,0,1,1.08.12,2.6,2.6,0,0,1,.91.41,2,2,0,0,1,.64.71,2.27,2.27,0,0,1,.23,1.06H244.5a1.29,1.29,0,0,0-.13-.53.9.9,0,0,0-.31-.33,1.25,1.25,0,0,0-.43-.17,2.36,2.36,0,0,0-.54,0,1.64,1.64,0,0,0-.38,0,.79.79,0,0,0-.34.14.78.78,0,0,0-.26.25.63.63,0,0,0-.1.38.68.68,0,0,0,.08.34.8.8,0,0,0,.32.24,4.79,4.79,0,0,0,.65.22l1.08.28a5,5,0,0,1,.56.14,2.51,2.51,0,0,1,.7.34,2.08,2.08,0,0,1,.61.61,1.77,1.77,0,0,1,.25,1,2.15,2.15,0,0,1-.19.91,2,2,0,0,1-.56.72,2.91,2.91,0,0,1-.93.48,4.53,4.53,0,0,1-1.29.17,4.35,4.35,0,0,1-1.14-.15,3,3,0,0,1-1-.45,2.26,2.26,0,0,1-.68-.79,2.28,2.28,0,0,1-.24-1.14h1.52A1.28,1.28,0,0,0,241.9,536.84Z"/>
    <path class="e" d="M247.28,535a1.6,1.6,0,0,1,.25-.83,1.67,1.67,0,0,1,.56-.53,2.37,2.37,0,0,1,.77-.29,4,4,0,0,1,.85-.08,5.32,5.32,0,0,1,.79.05,2.39,2.39,0,0,1,.73.22,1.37,1.37,0,0,1,.54.44,1.25,1.25,0,0,1,.21.76v2.69a4.92,4.92,0,0,0,0,.67,1.25,1.25,0,0,0,.14.48h-1.44a1.14,1.14,0,0,1-.06-.25,2.17,2.17,0,0,1,0-.25,2,2,0,0,1-.8.49,3.34,3.34,0,0,1-.94.14,2.5,2.5,0,0,1-.69-.09,1.73,1.73,0,0,1-.56-.28,1.35,1.35,0,0,1-.37-.48,1.67,1.67,0,0,1-.14-.69,1.44,1.44,0,0,1,.16-.73,1.17,1.17,0,0,1,.4-.45,1.7,1.7,0,0,1,.56-.26,4.7,4.7,0,0,1,.63-.13c.21,0,.42-.06.63-.08a3.71,3.71,0,0,0,.55-.09.9.9,0,0,0,.38-.18.39.39,0,0,0,.13-.33.76.76,0,0,0-.07-.37.58.58,0,0,0-.2-.21.91.91,0,0,0-.29-.1,2.06,2.06,0,0,0-.36,0,1.08,1.08,0,0,0-.66.18.82.82,0,0,0-.28.6Zm3.28,1.05a.66.66,0,0,1-.22.12l-.29.08-.33.05-.34,0a1.57,1.57,0,0,0-.31.08.68.68,0,0,0-.27.13.67.67,0,0,0-.19.22.61.61,0,0,0-.07.32.67.67,0,0,0,.07.33.61.61,0,0,0,.19.2.78.78,0,0,0,.28.11l.33,0a1.28,1.28,0,0,0,.65-.14,1,1,0,0,0,.34-.34,1.22,1.22,0,0,0,.14-.39c0-.14,0-.24,0-.32Z"/>
    <path class="e" d="M254.76,533.43v.69h0a2,2,0,0,1,.68-.61,1.77,1.77,0,0,1,.9-.22,2,2,0,0,1,.9.19,1.23,1.23,0,0,1,.61.67,2,2,0,0,1,.63-.6,1.59,1.59,0,0,1,.93-.26,2.64,2.64,0,0,1,.76.1,1.45,1.45,0,0,1,.6.32,1.32,1.32,0,0,1,.39.57,2.42,2.42,0,0,1,.14.86v3.46H259.9v-2.93c0-.18,0-.34,0-.49a.94.94,0,0,0-.11-.4.62.62,0,0,0-.26-.27,1,1,0,0,0-.48-.1.85.85,0,0,0-.48.11.83.83,0,0,0-.29.3,1.1,1.1,0,0,0-.14.42,2.59,2.59,0,0,0,0,.48v2.88h-1.42v-2.9c0-.16,0-.31,0-.46a1.3,1.3,0,0,0-.08-.41.69.69,0,0,0-.25-.31.94.94,0,0,0-.52-.11,1,1,0,0,0-.26,0,.9.9,0,0,0-.32.17.86.86,0,0,0-.27.36,1.53,1.53,0,0,0-.11.62v3h-1.42v-5.17Z"/>
    <path class="e" d="M266.24,538.6v-.72h0a1.62,1.62,0,0,1-.7.65,2.13,2.13,0,0,1-.88.2,2.44,2.44,0,0,1-.93-.15,1.36,1.36,0,0,1-.58-.43,1.57,1.57,0,0,1-.29-.67,3.88,3.88,0,0,1-.09-.87v-3.18h1.42v2.92a1.84,1.84,0,0,0,.2.95.77.77,0,0,0,.71.32,1,1,0,0,0,.84-.35,1.94,1.94,0,0,0,.26-1.13v-2.71h1.42v5.17Z"/>
    <path class="e" d="M269,532.62v-1.16h1.42v1.16Zm1.42.81v5.17H269v-5.17Z"/>
  </g>
  <g>
    <path class="e" d="M128.29,492.42a2.16,2.16,0,0,1,.86.16,1.87,1.87,0,0,1,.66.42,1.92,1.92,0,0,1,.57,1.39,2.12,2.12,0,0,1-.27,1.09,1.65,1.65,0,0,1-.86.7v0a1.21,1.21,0,0,1,.48.24,1.48,1.48,0,0,1,.31.39,2,2,0,0,1,.17.5,5,5,0,0,1,.08.54c0,.11,0,.25,0,.4a3.83,3.83,0,0,0,0,.47,3,3,0,0,0,.08.45,1,1,0,0,0,.17.37H129a2.71,2.71,0,0,1-.16-.81q0-.47-.09-.9a1.49,1.49,0,0,0-.34-.82,1.2,1.2,0,0,0-.85-.26H126v2.79h-1.57v-7.14Zm-.56,3.23a1.19,1.19,0,0,0,.81-.24,1,1,0,0,0,.27-.78.93.93,0,0,0-.27-.75,1.19,1.19,0,0,0-.81-.24H126v2Z"/>
    <path class="e" d="M131.75,496a1.63,1.63,0,0,1,.25-.83,1.58,1.58,0,0,1,.56-.53,2.56,2.56,0,0,1,.76-.29,4.91,4.91,0,0,1,.86-.08,7.13,7.13,0,0,1,.79.05,2.48,2.48,0,0,1,.73.22,1.46,1.46,0,0,1,.54.44,1.29,1.29,0,0,1,.21.76v2.69a4.83,4.83,0,0,0,0,.67,1.09,1.09,0,0,0,.14.48h-1.44a1.82,1.82,0,0,1-.07-.25,1,1,0,0,1,0-.25,1.91,1.91,0,0,1-.8.49,3.34,3.34,0,0,1-.94.14,2.5,2.5,0,0,1-.69-.09,1.48,1.48,0,0,1-.56-.28,1.37,1.37,0,0,1-.38-.48,1.87,1.87,0,0,1,0-1.42,1.25,1.25,0,0,1,.4-.45,1.92,1.92,0,0,1,.56-.26c.21,0,.42-.1.64-.13l.63-.08a4,4,0,0,0,.55-.09,1,1,0,0,0,.38-.18.39.39,0,0,0,.13-.33.71.71,0,0,0-.08-.36.51.51,0,0,0-.2-.21.68.68,0,0,0-.29-.11l-.35,0a1.08,1.08,0,0,0-.66.18.78.78,0,0,0-.28.6Zm3.28,1a1,1,0,0,1-.23.13l-.29.07-.32,0-.34.05-.32.08a1.13,1.13,0,0,0-.27.13.55.55,0,0,0-.18.22.67.67,0,0,0-.07.33.63.63,0,0,0,.07.32.55.55,0,0,0,.19.21.77.77,0,0,0,.28.1,1.69,1.69,0,0,0,.33,0,1.31,1.31,0,0,0,.65-.14.92.92,0,0,0,.34-.34,1.2,1.2,0,0,0,.13-.39,2.23,2.23,0,0,0,0-.32Z"/>
    <path class="e" d="M139.2,494.39v.72h0a1.56,1.56,0,0,1,.7-.65,2,2,0,0,1,.88-.21,2.25,2.25,0,0,1,.93.16,1.41,1.41,0,0,1,.58.42,1.77,1.77,0,0,1,.29.67,4,4,0,0,1,.09.88v3.18h-1.42v-2.92a1.86,1.86,0,0,0-.2-1,.78.78,0,0,0-.71-.31,1,1,0,0,0-.84.34,1.88,1.88,0,0,0-.26,1.14v2.71h-1.42v-5.17Z"/>
    <path class="e" d="M144.11,495.85a2.21,2.21,0,0,1,.54-.85,2.47,2.47,0,0,1,.84-.56,2.92,2.92,0,0,1,1.1-.19,3,3,0,0,1,1.1.19,2.62,2.62,0,0,1,.85.56,2.47,2.47,0,0,1,.54.85,3.39,3.39,0,0,1,.19,1.13,3.29,3.29,0,0,1-.19,1.12,2.62,2.62,0,0,1-.54.86,2.57,2.57,0,0,1-.85.54,3,3,0,0,1-1.1.19,2.92,2.92,0,0,1-1.1-.19,2.43,2.43,0,0,1-.84-.54,2.33,2.33,0,0,1-.54-.86,3.06,3.06,0,0,1-.19-1.12A3.15,3.15,0,0,1,144.11,495.85Zm1.29,1.73a1.59,1.59,0,0,0,.2.54,1.15,1.15,0,0,0,.39.37,1.36,1.36,0,0,0,1.2,0,1.15,1.15,0,0,0,.39-.37,1.6,1.6,0,0,0,.21-.54,2.91,2.91,0,0,0,.06-.6,3.08,3.08,0,0,0-.06-.61,1.47,1.47,0,0,0-.21-.53,1.29,1.29,0,0,0-.39-.38,1.36,1.36,0,0,0-1.2,0,1.29,1.29,0,0,0-.39.38,1.46,1.46,0,0,0-.2.53,3.08,3.08,0,0,0-.06.61A2.91,2.91,0,0,0,145.4,497.58Z"/>
    <path class="e" d="M151.84,494.39v.72h0a1.56,1.56,0,0,1,.7-.65,2,2,0,0,1,.88-.21,2.25,2.25,0,0,1,.93.16,1.41,1.41,0,0,1,.58.42,1.77,1.77,0,0,1,.29.67,4,4,0,0,1,.09.88v3.18h-1.42v-2.92a1.86,1.86,0,0,0-.2-1,.78.78,0,0,0-.71-.31,1,1,0,0,0-.84.34,1.88,1.88,0,0,0-.26,1.14v2.71h-1.42v-5.17Z"/>
    <path class="e" d="M161.6,499.94a1.76,1.76,0,0,1-.36.74,2.13,2.13,0,0,1-.81.59,3.52,3.52,0,0,1-1.42.24,3.46,3.46,0,0,1-.78-.09,2.88,2.88,0,0,1-.72-.3,1.68,1.68,0,0,1-.54-.52,1.51,1.51,0,0,1-.24-.75h1.41a.79.79,0,0,0,.39.56,1.41,1.41,0,0,0,.67.15,1,1,0,0,0,.87-.36,1.47,1.47,0,0,0,.27-.91v-.68h0a1.47,1.47,0,0,1-.66.6,2.1,2.1,0,0,1-.89.2,2.35,2.35,0,0,1-1-.2,1.92,1.92,0,0,1-.69-.57,2.21,2.21,0,0,1-.4-.83,4,4,0,0,1-.12-1,3.21,3.21,0,0,1,.14-1,2.68,2.68,0,0,1,.43-.82,2,2,0,0,1,.69-.56,2.12,2.12,0,0,1,1-.21,1.94,1.94,0,0,1,.89.19,1.59,1.59,0,0,1,.65.64h0v-.69h1.35v4.84A3.28,3.28,0,0,1,161.6,499.94Zm-1.94-1.72a1.18,1.18,0,0,0,.38-.32,1.31,1.31,0,0,0,.22-.46,1.84,1.84,0,0,0,.08-.53,3.08,3.08,0,0,0-.06-.61,1.69,1.69,0,0,0-.2-.5,1.12,1.12,0,0,0-.37-.35,1.16,1.16,0,0,0-.58-.13,1.05,1.05,0,0,0-.52.12,1.22,1.22,0,0,0-.36.32,1.33,1.33,0,0,0-.21.47,2.6,2.6,0,0,0-.06.56,2.5,2.5,0,0,0,.05.55,1.57,1.57,0,0,0,.19.5,1,1,0,0,0,.36.36,1,1,0,0,0,.55.14A1.15,1.15,0,0,0,159.66,498.22Z"/>
  </g>
  <g>
    <path class="e" d="M113.14,594.53a3,3,0,0,1,1.14.2,2.12,2.12,0,0,1,.76.51,1.93,1.93,0,0,1,.43.73,2.7,2.7,0,0,1,.14.85,2.75,2.75,0,0,1-.14.85,1.93,1.93,0,0,1-.43.73,2.13,2.13,0,0,1-.76.52,3,3,0,0,1-1.14.19h-1.65v2.56h-1.57v-7.14Zm-.43,3.36a3,3,0,0,0,.52,0,1.52,1.52,0,0,0,.44-.15.87.87,0,0,0,.3-.33,1.32,1.32,0,0,0,0-1.1.78.78,0,0,0-.3-.32,1.29,1.29,0,0,0-.44-.16,3,3,0,0,0-.52,0h-1.22v2.14Z"/>
    <path class="e" d="M118.16,594.53v2.69h0a1.59,1.59,0,0,1,.69-.65,1.82,1.82,0,0,1,.82-.21,2.25,2.25,0,0,1,.93.16,1.29,1.29,0,0,1,.58.43,1.64,1.64,0,0,1,.29.67,3.88,3.88,0,0,1,.09.87v3.18h-1.42v-2.92a1.82,1.82,0,0,0-.2-1,.78.78,0,0,0-.71-.32,1,1,0,0,0-.84.35,1.85,1.85,0,0,0-.26,1.13v2.71h-1.42v-7.14Z"/>
    <path class="e" d="M126.47,601.67V601h0a1.61,1.61,0,0,1-.7.65,2.13,2.13,0,0,1-.88.2,2.54,2.54,0,0,1-.94-.15,1.37,1.37,0,0,1-.57-.42,1.78,1.78,0,0,1-.3-.67,4.79,4.79,0,0,1-.08-.88V596.5h1.42v2.92a1.76,1.76,0,0,0,.2,1,.77.77,0,0,0,.71.31,1,1,0,0,0,.84-.34,2,2,0,0,0,.26-1.14V596.5h1.42v5.17Z"/>
    <path class="e" d="M130.75,594.53v3.83l1.79-1.86h1.68l-1.95,1.9,2.17,3.27h-1.72l-1.42-2.31-.55.53v1.78h-1.42v-7.14Z"/>
    <path class="e" d="M136.76,600.43a1.25,1.25,0,0,0,.92.31,1.31,1.31,0,0,0,.74-.21,1,1,0,0,0,.38-.46h1.25a2.4,2.4,0,0,1-.92,1.33,2.71,2.71,0,0,1-1.5.4,2.92,2.92,0,0,1-1.1-.19,2.22,2.22,0,0,1-.83-.56,2.44,2.44,0,0,1-.53-.86,3.21,3.21,0,0,1-.18-1.1,2.92,2.92,0,0,1,.19-1.08,2.33,2.33,0,0,1,.54-.86,2.44,2.44,0,0,1,.83-.58,2.7,2.7,0,0,1,1.08-.21,2.47,2.47,0,0,1,1.15.26,2.29,2.29,0,0,1,.8.68,3,3,0,0,1,.46,1,4,4,0,0,1,.1,1.15h-3.73A1.41,1.41,0,0,0,136.76,600.43Zm1.6-2.72a1,1,0,0,0-.77-.28,1.2,1.2,0,0,0-.57.12,1,1,0,0,0-.36.28,1,1,0,0,0-.19.36,1.63,1.63,0,0,0-.06.34h2.31A1.69,1.69,0,0,0,138.36,597.71Z"/>
    <path class="e" d="M144.12,596.5v1h-1V600a.48.48,0,0,0,.6.6h.23l.21,0v1.1l-.4,0h-.43a4.26,4.26,0,0,1-.63,0,1.39,1.39,0,0,1-.52-.18.84.84,0,0,1-.35-.37,1.28,1.28,0,0,1-.13-.63v-3h-.86v-1h.86V595h1.42v1.55Z"/>
  </g>
  <g>
    <path class="e" d="M166.81,550.4a1.27,1.27,0,0,0,.35.41,1.53,1.53,0,0,0,.5.23,2.46,2.46,0,0,0,.6.07l.45,0a1.69,1.69,0,0,0,.45-.14.94.94,0,0,0,.35-.27.67.67,0,0,0,.14-.45.64.64,0,0,0-.18-.47,1.46,1.46,0,0,0-.49-.3,4.58,4.58,0,0,0-.68-.21c-.25-.06-.51-.12-.77-.2a7.75,7.75,0,0,1-.78-.24,2.65,2.65,0,0,1-.68-.38,1.66,1.66,0,0,1-.48-.57,1.8,1.8,0,0,1-.19-.84,1.84,1.84,0,0,1,.24-1,2.21,2.21,0,0,1,.61-.68,2.82,2.82,0,0,1,.86-.4,4,4,0,0,1,1-.13,4.21,4.21,0,0,1,1.08.13,2.68,2.68,0,0,1,.91.4,2.11,2.11,0,0,1,.64.72,2.14,2.14,0,0,1,.23,1h-1.52a1.18,1.18,0,0,0-.13-.53.9.9,0,0,0-.31-.33,1.38,1.38,0,0,0-.43-.17,2.92,2.92,0,0,0-.54,0,2.58,2.58,0,0,0-.38,0,1.28,1.28,0,0,0-.34.14,1,1,0,0,0-.26.25.74.74,0,0,0-.1.38.66.66,0,0,0,.08.34.71.71,0,0,0,.32.24,3.24,3.24,0,0,0,.65.22l1.08.28.56.15a2.62,2.62,0,0,1,.7.33,2.12,2.12,0,0,1,.61.62,1.72,1.72,0,0,1,.25,1,2.12,2.12,0,0,1-.19.91,2,2,0,0,1-.56.73,2.71,2.71,0,0,1-.93.47,4.2,4.2,0,0,1-1.29.17,4.81,4.81,0,0,1-1.14-.14,2.86,2.86,0,0,1-1-.46,2.27,2.27,0,0,1-.68-.79,2.52,2.52,0,0,1-.24-1.14h1.52A1.38,1.38,0,0,0,166.81,550.4Z"/>
    <path class="e" d="M175.75,552.16v-.72h0a1.56,1.56,0,0,1-.7.65,2,2,0,0,1-.88.2,2.44,2.44,0,0,1-.93-.15,1.41,1.41,0,0,1-.58-.42,1.77,1.77,0,0,1-.29-.67,4,4,0,0,1-.09-.88V547h1.42v2.92a1.86,1.86,0,0,0,.2,1,.78.78,0,0,0,.71.31,1,1,0,0,0,.84-.34,1.88,1.88,0,0,0,.26-1.14V547h1.42v5.17Z"/>
    <path class="e" d="M179.83,547v1h0a1.79,1.79,0,0,1,.27-.44,1.82,1.82,0,0,1,.39-.35,2.27,2.27,0,0,1,.47-.23,1.82,1.82,0,0,1,.52-.08,1.18,1.18,0,0,1,.31,0v1.32l-.24,0-.27,0a1.62,1.62,0,0,0-.66.13,1.17,1.17,0,0,0-.43.36,1.46,1.46,0,0,0-.24.52,3.32,3.32,0,0,0-.07.65v2.33h-1.42V547Z"/>
    <path class="e" d="M182.61,548.58a1.73,1.73,0,0,1,.25-.83,1.89,1.89,0,0,1,.56-.53,2.35,2.35,0,0,1,.77-.28,4.09,4.09,0,0,1,.85-.09,5.25,5.25,0,0,1,.79.06,2.39,2.39,0,0,1,.73.21,1.48,1.48,0,0,1,.54.45,1.23,1.23,0,0,1,.21.75V551c0,.24,0,.46,0,.67a1.31,1.31,0,0,0,.14.48h-1.44a2.1,2.1,0,0,1-.06-.24,2.34,2.34,0,0,1,0-.26,1.71,1.71,0,0,1-.8.49,3,3,0,0,1-.94.14,2.61,2.61,0,0,1-.69-.09,1.55,1.55,0,0,1-.56-.28,1.19,1.19,0,0,1-.37-.48,1.6,1.6,0,0,1-.14-.69,1.42,1.42,0,0,1,.16-.72,1.27,1.27,0,0,1,.4-.46,1.91,1.91,0,0,1,.56-.25c.21-.06.42-.1.63-.14l.63-.08a3.71,3.71,0,0,0,.55-.09.89.89,0,0,0,.38-.17.37.37,0,0,0,.13-.34.74.74,0,0,0-.07-.36.58.58,0,0,0-.2-.21.72.72,0,0,0-.29-.1,2,2,0,0,0-.36,0,1.08,1.08,0,0,0-.66.18.82.82,0,0,0-.28.6Zm3.28,1a.54.54,0,0,1-.22.13l-.29.07-.33,0-.34,0-.31.08a1,1,0,0,0-.27.14.64.64,0,0,0-.19.21.81.81,0,0,0-.07.33.72.72,0,0,0,.07.32.55.55,0,0,0,.19.21.85.85,0,0,0,.28.1l.33,0a1.18,1.18,0,0,0,.65-.14.83.83,0,0,0,.34-.33,1,1,0,0,0,.14-.4c0-.13,0-.24,0-.32Z"/>
    <path class="e" d="M191.55,547v1h-1v2.56a.48.48,0,0,0,.6.6h.23a.66.66,0,0,0,.21,0v1.1a2.35,2.35,0,0,1-.4,0h-.43a4,4,0,0,1-.62,0,1.39,1.39,0,0,1-.52-.18.92.92,0,0,1-.36-.37,1.41,1.41,0,0,1-.13-.63v-3h-.86v-1h.86v-1.55h1.42V547Z"/>
    <path class="e" d="M165.05,557.84v-1.32h5.85v1.32h-2.14v5.82h-1.57v-5.82Z"/>
    <path class="e" d="M173.29,556.52v2.69h0a1.59,1.59,0,0,1,.69-.65,1.85,1.85,0,0,1,.82-.21,2.3,2.3,0,0,1,.94.16,1.31,1.31,0,0,1,.57.43,1.65,1.65,0,0,1,.3.67,3.9,3.9,0,0,1,.08.87v3.18H175.3v-2.92a1.75,1.75,0,0,0-.2-1,.77.77,0,0,0-.71-.32,1,1,0,0,0-.84.35,1.94,1.94,0,0,0-.26,1.13v2.71h-1.42v-7.14Z"/>
    <path class="e" d="M178,560.08a1.73,1.73,0,0,1,.25-.83,1.89,1.89,0,0,1,.56-.53,2.35,2.35,0,0,1,.77-.28,4.09,4.09,0,0,1,.85-.09,5.25,5.25,0,0,1,.79.06,2.39,2.39,0,0,1,.73.21,1.48,1.48,0,0,1,.54.45,1.23,1.23,0,0,1,.21.75v2.69c0,.24,0,.46,0,.67a1.31,1.31,0,0,0,.14.48h-1.44l-.06-.24a2.34,2.34,0,0,1,0-.26,1.71,1.71,0,0,1-.8.49,3,3,0,0,1-.94.14,2.61,2.61,0,0,1-.69-.09,1.55,1.55,0,0,1-.56-.28,1.19,1.19,0,0,1-.37-.48,1.6,1.6,0,0,1-.14-.69,1.53,1.53,0,0,1,.16-.72,1.27,1.27,0,0,1,.4-.46,1.91,1.91,0,0,1,.56-.25c.21-.06.42-.1.63-.14l.63-.08a3.71,3.71,0,0,0,.55-.09.89.89,0,0,0,.38-.17.37.37,0,0,0,.13-.34.74.74,0,0,0-.07-.36.58.58,0,0,0-.2-.21.72.72,0,0,0-.29-.1,2,2,0,0,0-.36,0,1.08,1.08,0,0,0-.66.18.82.82,0,0,0-.28.6Zm3.28,1a.54.54,0,0,1-.22.13l-.29.07-.33,0-.34,0-.31.08a1.15,1.15,0,0,0-.27.14.64.64,0,0,0-.19.21.81.81,0,0,0-.07.33.72.72,0,0,0,.07.32.55.55,0,0,0,.19.21.85.85,0,0,0,.28.1l.33,0a1.18,1.18,0,0,0,.65-.14.83.83,0,0,0,.34-.33,1,1,0,0,0,.14-.4c0-.13,0-.24,0-.32Z"/>
    <path class="e" d="M185.49,558.49v.72h0a1.61,1.61,0,0,1,.7-.65,2,2,0,0,1,.88-.21,2.33,2.33,0,0,1,.94.16,1.31,1.31,0,0,1,.57.43,1.65,1.65,0,0,1,.3.67,4.6,4.6,0,0,1,.08.87v3.18h-1.42v-2.92a1.75,1.75,0,0,0-.2-1,.77.77,0,0,0-.71-.32,1,1,0,0,0-.84.35,1.94,1.94,0,0,0-.26,1.13v2.71h-1.42v-5.17Z"/>
    <path class="e" d="M190.41,557.69v-1.17h1.42v1.17Zm1.42.8v5.17h-1.42v-5.17Z"/>
  </g>
  <g>
    <path class="e" d="M321.4,149.33l-2.31-7.14h1.61l1.59,5h0l1.61-5h1.62l-2.37,7.14Z"/>
    <path class="e" d="M325.69,145.75a1.63,1.63,0,0,1,.25-.83,1.77,1.77,0,0,1,.56-.53,2.61,2.61,0,0,1,.77-.28,4,4,0,0,1,.85-.09,5.35,5.35,0,0,1,.79.06,2.7,2.7,0,0,1,.73.21,1.48,1.48,0,0,1,.54.45,1.23,1.23,0,0,1,.21.75v2.69a4.73,4.73,0,0,0,0,.67,1.14,1.14,0,0,0,.14.48h-1.44a1.05,1.05,0,0,1-.06-.24,2,2,0,0,1,0-.26,1.76,1.76,0,0,1-.8.49,3,3,0,0,1-.94.14,2.5,2.5,0,0,1-.69-.09,1.55,1.55,0,0,1-.56-.28,1.19,1.19,0,0,1-.37-.48,1.6,1.6,0,0,1-.14-.69,1.42,1.42,0,0,1,.16-.72,1.27,1.27,0,0,1,.4-.46,1.91,1.91,0,0,1,.56-.25c.21-.06.42-.1.63-.14l.63-.08a3.71,3.71,0,0,0,.55-.09.89.89,0,0,0,.38-.17.39.39,0,0,0,.13-.34.74.74,0,0,0-.07-.36.58.58,0,0,0-.2-.21.91.91,0,0,0-.29-.1,2,2,0,0,0-.36,0,1.08,1.08,0,0,0-.66.18.82.82,0,0,0-.28.6ZM329,146.8a.54.54,0,0,1-.22.13l-.29.07-.33.05-.34,0-.31.08a.86.86,0,0,0-.27.14.76.76,0,0,0-.19.21.67.67,0,0,0-.07.33.61.61,0,0,0,.07.32.55.55,0,0,0,.19.21.77.77,0,0,0,.28.1l.33,0a1.18,1.18,0,0,0,.65-.14.9.9,0,0,0,.34-.33,1.19,1.19,0,0,0,.14-.4c0-.13,0-.24,0-.32Z"/>
    <path class="e" d="M333.14,144.16v.72h0a1.62,1.62,0,0,1,.7-.65,2,2,0,0,1,.88-.21,2.52,2.52,0,0,1,.94.16,1.39,1.39,0,0,1,.57.43,1.72,1.72,0,0,1,.3.67,4.6,4.6,0,0,1,.08.87v3.18h-1.42v-2.92a1.84,1.84,0,0,0-.2-.95.77.77,0,0,0-.71-.32,1,1,0,0,0-.84.35,1.94,1.94,0,0,0-.26,1.13v2.71h-1.42v-5.17Z"/>
    <path class="e" d="M342.91,149.71a1.76,1.76,0,0,1-.37.75,2.22,2.22,0,0,1-.81.58,3.49,3.49,0,0,1-1.42.24,3.44,3.44,0,0,1-.77-.09,2.33,2.33,0,0,1-.72-.3,1.65,1.65,0,0,1-.54-.51,1.43,1.43,0,0,1-.25-.76h1.41a.83.83,0,0,0,.39.56,1.44,1.44,0,0,0,.67.15,1,1,0,0,0,.88-.36,1.4,1.4,0,0,0,.26-.91v-.68h0a1.37,1.37,0,0,1-.65.61,2.17,2.17,0,0,1-.9.19,2.2,2.2,0,0,1-1-.2,1.9,1.9,0,0,1-.69-.56,2.27,2.27,0,0,1-.39-.83,3.68,3.68,0,0,1-.13-1,3.11,3.11,0,0,1,.15-1,2.36,2.36,0,0,1,.42-.82,2,2,0,0,1,1.65-.78,2.13,2.13,0,0,1,.9.19,1.57,1.57,0,0,1,.64.64h0v-.69H343V149A3.86,3.86,0,0,1,342.91,149.71ZM341,148a1.07,1.07,0,0,0,.38-.32,1.37,1.37,0,0,0,.23-.45,1.9,1.9,0,0,0,.07-.54,2.91,2.91,0,0,0-.06-.6,1.65,1.65,0,0,0-.2-.51,1.13,1.13,0,0,0-.37-.35,1.24,1.24,0,0,0-.58-.13,1,1,0,0,0-.51.12,1,1,0,0,0-.36.33,1.26,1.26,0,0,0-.21.47,2,2,0,0,0-.07.55,2.6,2.6,0,0,0,.06.56,1.32,1.32,0,0,0,.19.49,1,1,0,0,0,.35.36,1,1,0,0,0,.55.14A1.12,1.12,0,0,0,341,148Z"/>
    <path class="e" d="M349.21,149.33l-2.31-7.14h1.61l1.59,5h0l1.61-5h1.62L351,149.33Z"/>
    <path class="e" d="M354,143.36v-1.17h1.42v1.17Zm1.42.8v5.17H354v-5.17Z"/>
    <path class="e" d="M358.33,148.09a1.25,1.25,0,0,0,.92.31,1.29,1.29,0,0,0,.74-.21.89.89,0,0,0,.38-.46h1.25a2.37,2.37,0,0,1-.92,1.33,2.67,2.67,0,0,1-1.5.4,3,3,0,0,1-1.1-.19,2.3,2.3,0,0,1-.83-.56,2.33,2.33,0,0,1-.52-.86,3.22,3.22,0,0,1,0-2.18,2.62,2.62,0,0,1,.54-.86,2.58,2.58,0,0,1,.83-.58,2.74,2.74,0,0,1,1.08-.21,2.47,2.47,0,0,1,1.15.26,2.34,2.34,0,0,1,.81.68,2.83,2.83,0,0,1,.45,1,3.66,3.66,0,0,1,.1,1.15H358A1.44,1.44,0,0,0,358.33,148.09Zm1.61-2.72a1,1,0,0,0-.78-.28,1.15,1.15,0,0,0-.92.4,1.3,1.3,0,0,0-.2.36,2.73,2.73,0,0,0-.06.34h2.31A1.68,1.68,0,0,0,359.94,145.37Z"/>
    <path class="e" d="M364.2,144.16v.72h0a1.62,1.62,0,0,1,.7-.65,2,2,0,0,1,.88-.21,2.52,2.52,0,0,1,.94.16,1.39,1.39,0,0,1,.57.43,1.72,1.72,0,0,1,.3.67,4.6,4.6,0,0,1,.08.87v3.18h-1.42v-2.92a1.84,1.84,0,0,0-.2-.95.77.77,0,0,0-.71-.32,1,1,0,0,0-.84.35,1.94,1.94,0,0,0-.26,1.13v2.71h-1.42v-5.17Z"/>
    <path class="e" d="M374,149.71a1.63,1.63,0,0,1-.36.75,2.22,2.22,0,0,1-.81.58,3.49,3.49,0,0,1-1.42.24,3.44,3.44,0,0,1-.77-.09,2.33,2.33,0,0,1-.72-.3,1.78,1.78,0,0,1-.55-.51,1.52,1.52,0,0,1-.24-.76h1.41a.83.83,0,0,0,.39.56,1.44,1.44,0,0,0,.67.15,1,1,0,0,0,.88-.36,1.4,1.4,0,0,0,.26-.91v-.68h0a1.37,1.37,0,0,1-.65.61,2.17,2.17,0,0,1-.9.19,2.2,2.2,0,0,1-1-.2,1.9,1.9,0,0,1-.69-.56,2.46,2.46,0,0,1-.4-.83,4.11,4.11,0,0,1-.12-1,3.11,3.11,0,0,1,.15-1,2.36,2.36,0,0,1,.42-.82,2,2,0,0,1,1.65-.78,2.13,2.13,0,0,1,.9.19,1.57,1.57,0,0,1,.64.64h0v-.69h1.35V149A3.21,3.21,0,0,1,374,149.71ZM372,148a1.07,1.07,0,0,0,.38-.32,1.18,1.18,0,0,0,.22-.45,1.91,1.91,0,0,0,.08-.54,2.91,2.91,0,0,0-.06-.6,1.65,1.65,0,0,0-.2-.51,1.13,1.13,0,0,0-.37-.35,1.24,1.24,0,0,0-.58-.13,1,1,0,0,0-.51.12,1,1,0,0,0-.36.33,1.26,1.26,0,0,0-.21.47,2,2,0,0,0-.07.55,2.6,2.6,0,0,0,.06.56,1.51,1.51,0,0,0,.18.49,1,1,0,0,0,.36.36,1,1,0,0,0,.55.14A1.12,1.12,0,0,0,372,148Z"/>
  </g>
  <g>
    <path class="e" d="M391.76,185.09h1.55L394,190h0l2.79-4.89h1.59l-1.32,6.42H396l1.12-5.15h0l-2.91,5.15h-.88l-.81-5.15h0l-1,5.15h-1.08Z"/>
    <path class="e" d="M403,190.07a2,2,0,0,1-.82,1.19,2.55,2.55,0,0,1-1.42.38,2.33,2.33,0,0,1-.81-.14,1.76,1.76,0,0,1-.65-.41,1.78,1.78,0,0,1-.42-.64,2.22,2.22,0,0,1-.15-.85,3.12,3.12,0,0,1,.17-1,2.83,2.83,0,0,1,.5-.92,2.58,2.58,0,0,1,.81-.65,2.41,2.41,0,0,1,1.1-.25,2.13,2.13,0,0,1,1,.21,1.62,1.62,0,0,1,.6.52,1.91,1.91,0,0,1,.29.69,3.86,3.86,0,0,1,.08.72,3,3,0,0,1,0,.32c0,.1,0,.18,0,.26H399.8a.25.25,0,0,0,0,.08.2.2,0,0,0,0,.07v.15a1.17,1.17,0,0,0,.26.78,1.06,1.06,0,0,0,.85.3,1.34,1.34,0,0,0,.71-.19,1,1,0,0,0,.4-.57Zm-.75-1.29a.25.25,0,0,0,0-.08v-.21a.9.9,0,0,0-.26-.68.94.94,0,0,0-.72-.27,1.25,1.25,0,0,0-.92.35,2.08,2.08,0,0,0-.49.89Z"/>
    <path class="e" d="M405.16,185.09h1l-.76,3.63,0,0,2.11-1.88h1.29l-2.05,1.71,1.14,2.94H406.8l-.82-2.26-.79.68-.33,1.58h-1Z"/>
    <path class="e" d="M411,191.64a1.85,1.85,0,0,1-2-2,3.09,3.09,0,0,1,.19-1.09,2.76,2.76,0,0,1,.53-.91,2.38,2.38,0,0,1,.84-.63,2.45,2.45,0,0,1,1.09-.24,2.11,2.11,0,0,1,1.51.51,2,2,0,0,1,.53,1.49,3.49,3.49,0,0,1-.18,1.14,2.66,2.66,0,0,1-.53.93,2.46,2.46,0,0,1-.84.61A2.59,2.59,0,0,1,411,191.64Zm.56-4.1a1.24,1.24,0,0,0-.69.2,1.8,1.8,0,0,0-.49.5,2.13,2.13,0,0,0-.29.67,3.12,3.12,0,0,0-.1.72,1.42,1.42,0,0,0,.26.86,1,1,0,0,0,.82.34,1.19,1.19,0,0,0,.68-.2,1.53,1.53,0,0,0,.49-.49,2.2,2.2,0,0,0,.3-.68,3,3,0,0,0,.09-.72,1.41,1.41,0,0,0-.25-.86A1,1,0,0,0,411.58,187.54Z"/>
    <path class="e" d="M415.34,186.86h1l-.15.67,0,0a1.92,1.92,0,0,1,.7-.6,1.87,1.87,0,0,1,.9-.22,1.36,1.36,0,0,1,1,.34,1.22,1.22,0,0,1,.33.9c0,.08,0,.18,0,.28a2.16,2.16,0,0,1,0,.29l-.63,3h-1l.59-2.87a2.25,2.25,0,0,0,0-.22.88.88,0,0,0,0-.21s0-.09,0-.17a.47.47,0,0,0-.07-.22.51.51,0,0,0-.21-.2,1,1,0,0,0-.43-.08,1.2,1.2,0,0,0-.54.13,2.29,2.29,0,0,0-.43.32,1.7,1.7,0,0,0-.31.45,2.24,2.24,0,0,0-.19.55l-.52,2.52h-1Z"/>
    <path class="e" d="M424.08,191.39a4.33,4.33,0,0,1-.29.9,1.84,1.84,0,0,1-.45.62,1.77,1.77,0,0,1-.67.34,3.62,3.62,0,0,1-.94.11,3.67,3.67,0,0,1-.75-.08,2,2,0,0,1-.63-.26,1.38,1.38,0,0,1-.44-.46,1.36,1.36,0,0,1-.17-.69h1a.61.61,0,0,0,.32.56,1.53,1.53,0,0,0,.74.16,1.35,1.35,0,0,0,.57-.1.85.85,0,0,0,.37-.27,1.09,1.09,0,0,0,.23-.41c.06-.16.1-.33.15-.52l.1-.46,0,0a1.52,1.52,0,0,1-1.32.7,1.74,1.74,0,0,1-1.34-.51,2,2,0,0,1-.47-1.4,3.81,3.81,0,0,1,.16-1,3.17,3.17,0,0,1,.46-.92,2.38,2.38,0,0,1,.75-.66,2.19,2.19,0,0,1,1-.25,1.76,1.76,0,0,1,.88.21,1.31,1.31,0,0,1,.56.69h0l.13-.77h1Zm-3-1.84a2.22,2.22,0,0,0,.05.45,1,1,0,0,0,.18.36.68.68,0,0,0,.3.25,1,1,0,0,0,.44.09,1.26,1.26,0,0,0,.71-.19,1.57,1.57,0,0,0,.48-.48,2.11,2.11,0,0,0,.28-.67,3.69,3.69,0,0,0,.08-.72,1.17,1.17,0,0,0-.26-.8,1,1,0,0,0-.77-.3,1.1,1.1,0,0,0-.66.2,1.54,1.54,0,0,0-.46.49,2,2,0,0,0-.28.65A2.75,2.75,0,0,0,421.12,189.55Z"/>
  </g>
  <g>
    <path class="e" d="M314.42,101v5.82h3.48v1.32h-5V101Z"/>
    <path class="e" d="M322.43,108.17v-.72h0a1.62,1.62,0,0,1-.7.65,2.13,2.13,0,0,1-.88.2,2.44,2.44,0,0,1-.93-.15,1.36,1.36,0,0,1-.58-.43,1.57,1.57,0,0,1-.29-.67,3.88,3.88,0,0,1-.09-.87V103h1.42v2.92a1.84,1.84,0,0,0,.2,1,.77.77,0,0,0,.71.32,1,1,0,0,0,.84-.35,1.94,1.94,0,0,0,.26-1.13V103h1.42v5.17Z"/>
    <path class="e" d="M325.1,104.59a1.6,1.6,0,0,1,.25-.83,1.67,1.67,0,0,1,.56-.53,2.37,2.37,0,0,1,.77-.29,4,4,0,0,1,.85-.08,7.13,7.13,0,0,1,.79,0,2.39,2.39,0,0,1,.73.22,1.37,1.37,0,0,1,.54.44,1.25,1.25,0,0,1,.21.76V107a4.92,4.92,0,0,0,0,.67,1.25,1.25,0,0,0,.14.48h-1.44a1.14,1.14,0,0,1-.06-.25,2.17,2.17,0,0,1,0-.25,2,2,0,0,1-.8.49,3.34,3.34,0,0,1-.94.14,2.5,2.5,0,0,1-.69-.09,1.73,1.73,0,0,1-.56-.28,1.35,1.35,0,0,1-.37-.48,1.67,1.67,0,0,1-.14-.69,1.44,1.44,0,0,1,.16-.73,1.17,1.17,0,0,1,.4-.45,1.7,1.7,0,0,1,.56-.26c.21,0,.42-.1.63-.13s.42-.06.63-.08a3.71,3.71,0,0,0,.55-.09.9.9,0,0,0,.38-.18.37.37,0,0,0,.13-.33.76.76,0,0,0-.07-.37.58.58,0,0,0-.2-.21.91.91,0,0,0-.29-.1,2.06,2.06,0,0,0-.36,0,1.08,1.08,0,0,0-.66.18.82.82,0,0,0-.28.6Zm3.28,1a.66.66,0,0,1-.22.12l-.29.08-.33,0-.34,0a1.57,1.57,0,0,0-.31.08.68.68,0,0,0-.27.13.67.67,0,0,0-.19.22.62.62,0,0,0-.07.33.66.66,0,0,0,.07.32.61.61,0,0,0,.19.2.78.78,0,0,0,.28.11,1.84,1.84,0,0,0,.33,0,1.28,1.28,0,0,0,.65-.14,1,1,0,0,0,.34-.34,1.22,1.22,0,0,0,.14-.39c0-.14,0-.24,0-.32Z"/>
    <path class="e" d="M332.55,103v.72h0a1.64,1.64,0,0,1,.7-.66,2,2,0,0,1,.88-.2,2.54,2.54,0,0,1,.94.15,1.39,1.39,0,0,1,.57.43,1.72,1.72,0,0,1,.3.67,4.79,4.79,0,0,1,.08.88v3.18h-1.42v-2.92a1.86,1.86,0,0,0-.2-1,.77.77,0,0,0-.71-.31,1,1,0,0,0-.84.34,2,2,0,0,0-.26,1.14v2.71H331.2V103Z"/>
    <path class="e" d="M342.32,108.55a1.78,1.78,0,0,1-.37.74,2.24,2.24,0,0,1-.81.59A3.75,3.75,0,0,1,339,110a2.31,2.31,0,0,1-.72-.29,1.79,1.79,0,0,1-.54-.52,1.43,1.43,0,0,1-.25-.75h1.41a.83.83,0,0,0,.39.55,1.44,1.44,0,0,0,.67.16,1,1,0,0,0,.88-.36,1.42,1.42,0,0,0,.26-.91v-.68h0a1.4,1.4,0,0,1-.65.6,2.3,2.3,0,0,1-1.9,0,1.9,1.9,0,0,1-.69-.56,2.2,2.2,0,0,1-.39-.83,3.66,3.66,0,0,1-.13-1,3.12,3.12,0,0,1,.15-1,2.36,2.36,0,0,1,.42-.82,2.14,2.14,0,0,1,.7-.56,2,2,0,0,1,.95-.21,2,2,0,0,1,.9.19,1.51,1.51,0,0,1,.64.64h0V103h1.35v4.84A4,4,0,0,1,342.32,108.55Zm-1.95-1.72a1.18,1.18,0,0,0,.38-.32,1.53,1.53,0,0,0,.23-.46,1.88,1.88,0,0,0,.07-.53,2.93,2.93,0,0,0-.06-.61,1.5,1.5,0,0,0-.2-.5,1,1,0,0,0-.37-.35,1.13,1.13,0,0,0-.58-.13,1,1,0,0,0-.51.12.93.93,0,0,0-.36.32,1.33,1.33,0,0,0-.21.47,2,2,0,0,0-.07.56,2.57,2.57,0,0,0,.06.55,1.44,1.44,0,0,0,.19.5,1.2,1.2,0,0,0,.35.36,1,1,0,0,0,.55.14A1.12,1.12,0,0,0,340.37,106.83Z"/>
    <path class="e" d="M316.07,112.53a3,3,0,0,1,1.14.19,2.14,2.14,0,0,1,.77.52,2,2,0,0,1,.43.73,2.65,2.65,0,0,1,.13.85,2.72,2.72,0,0,1-.13.84,2.12,2.12,0,0,1-.43.74,2.25,2.25,0,0,1-.77.51,3,3,0,0,1-1.14.2h-1.65v2.56h-1.57v-7.14Zm-.43,3.36a4.38,4.38,0,0,0,.52,0,1.21,1.21,0,0,0,.44-.16.87.87,0,0,0,.31-.32,1.25,1.25,0,0,0,.11-.55,1.22,1.22,0,0,0-.11-.55.9.9,0,0,0-.31-.33,1,1,0,0,0-.44-.15,3,3,0,0,0-.52,0h-1.22v2.14Z"/>
    <path class="e" d="M321,114.5v1h0a2.07,2.07,0,0,1,.27-.45,1.88,1.88,0,0,1,.39-.35,1.68,1.68,0,0,1,.47-.22,1.53,1.53,0,0,1,.52-.08.91.91,0,0,1,.31,0v1.32l-.24,0h-.27a1.47,1.47,0,0,0-.66.13,1.06,1.06,0,0,0-.43.35,1.51,1.51,0,0,0-.24.53,2.64,2.64,0,0,0-.07.65v2.33h-1.42V114.5Z"/>
    <path class="e" d="M323.8,116.09a1.6,1.6,0,0,1,.25-.83,1.67,1.67,0,0,1,.56-.53,2.37,2.37,0,0,1,.77-.29,4,4,0,0,1,.85-.08,7.13,7.13,0,0,1,.79,0,2.39,2.39,0,0,1,.73.22,1.37,1.37,0,0,1,.54.44,1.25,1.25,0,0,1,.21.76v2.69a4.92,4.92,0,0,0,0,.67,1.25,1.25,0,0,0,.14.48h-1.44a1.14,1.14,0,0,1-.06-.25,2.17,2.17,0,0,1,0-.25,2,2,0,0,1-.8.49,3.34,3.34,0,0,1-.94.14,2.5,2.5,0,0,1-.69-.09,1.73,1.73,0,0,1-.56-.28,1.35,1.35,0,0,1-.37-.48,1.67,1.67,0,0,1-.14-.69,1.44,1.44,0,0,1,.16-.73,1.17,1.17,0,0,1,.4-.45,1.7,1.7,0,0,1,.56-.26c.21,0,.42-.1.63-.13s.42-.06.63-.08a3.71,3.71,0,0,0,.55-.09.9.9,0,0,0,.38-.18.37.37,0,0,0,.13-.33.76.76,0,0,0-.07-.37.58.58,0,0,0-.2-.21.91.91,0,0,0-.29-.1,2.06,2.06,0,0,0-.36,0,1.08,1.08,0,0,0-.66.18.82.82,0,0,0-.28.6Zm3.28,1a.66.66,0,0,1-.22.12l-.29.08-.33,0-.34,0a1.57,1.57,0,0,0-.31.08.68.68,0,0,0-.27.13.67.67,0,0,0-.19.22.62.62,0,0,0-.07.33.66.66,0,0,0,.07.32.61.61,0,0,0,.19.2.78.78,0,0,0,.28.11,1.84,1.84,0,0,0,.33,0,1.28,1.28,0,0,0,.65-.14,1,1,0,0,0,.34-.34,1.22,1.22,0,0,0,.14-.39c0-.14,0-.24,0-.32Z"/>
    <path class="e" d="M331.32,112.53v2.6h0a1.52,1.52,0,0,1,.71-.59,2.39,2.39,0,0,1,.92-.18,1.9,1.9,0,0,1,.77.16,2,2,0,0,1,.69.49,2.62,2.62,0,0,1,.49.84,4,4,0,0,1,0,2.45,2.57,2.57,0,0,1-.49.85,2.14,2.14,0,0,1-.69.49,2.08,2.08,0,0,1-.77.16,2.73,2.73,0,0,1-1-.18,1.31,1.31,0,0,1-.68-.61h0v.66H329.9v-7.14Zm2.3,3.93a1.69,1.69,0,0,0-.22-.53,1.09,1.09,0,0,0-.37-.37,1.07,1.07,0,0,0-.55-.13,1,1,0,0,0-.54.13,1.12,1.12,0,0,0-.38.37,1.69,1.69,0,0,0-.22.53,2.59,2.59,0,0,0-.07.63,2.56,2.56,0,0,0,.07.62,1.79,1.79,0,0,0,.22.53,1.19,1.19,0,0,0,.38.36,1,1,0,0,0,.54.14,1.07,1.07,0,0,0,.55-.14,1.16,1.16,0,0,0,.37-.36,1.79,1.79,0,0,0,.22-.53,2.56,2.56,0,0,0,.07-.62A2.59,2.59,0,0,0,333.62,116.46Z"/>
    <path class="e" d="M336.25,116.09a1.6,1.6,0,0,1,.25-.83,1.67,1.67,0,0,1,.56-.53,2.37,2.37,0,0,1,.77-.29,4,4,0,0,1,.85-.08,7.13,7.13,0,0,1,.79,0,2.39,2.39,0,0,1,.73.22,1.37,1.37,0,0,1,.54.44,1.25,1.25,0,0,1,.21.76v2.69a4.92,4.92,0,0,0,0,.67,1.25,1.25,0,0,0,.14.48h-1.44a1.14,1.14,0,0,1-.06-.25,2.17,2.17,0,0,1,0-.25,2,2,0,0,1-.8.49,3.34,3.34,0,0,1-.94.14,2.5,2.5,0,0,1-.69-.09,1.73,1.73,0,0,1-.56-.28,1.35,1.35,0,0,1-.37-.48,1.67,1.67,0,0,1-.14-.69,1.44,1.44,0,0,1,.16-.73,1.17,1.17,0,0,1,.4-.45,1.7,1.7,0,0,1,.56-.26c.21,0,.42-.1.63-.13s.42-.06.63-.08a3.71,3.71,0,0,0,.55-.09.9.9,0,0,0,.38-.18.37.37,0,0,0,.13-.33.76.76,0,0,0-.07-.37.58.58,0,0,0-.2-.21.91.91,0,0,0-.29-.1,2.06,2.06,0,0,0-.36,0,1.08,1.08,0,0,0-.66.18.82.82,0,0,0-.28.6Zm3.28,1a.66.66,0,0,1-.22.12l-.29.08-.33,0-.34,0a1.57,1.57,0,0,0-.31.08.68.68,0,0,0-.27.13.67.67,0,0,0-.19.22.62.62,0,0,0-.07.33.66.66,0,0,0,.07.32.61.61,0,0,0,.19.2.78.78,0,0,0,.28.11,1.84,1.84,0,0,0,.33,0,1.28,1.28,0,0,0,.65-.14,1,1,0,0,0,.34-.34,1.22,1.22,0,0,0,.14-.39c0-.14,0-.24,0-.32Z"/>
    <path class="e" d="M343.7,114.5v.72h0a1.64,1.64,0,0,1,.7-.66,2,2,0,0,1,.88-.2,2.54,2.54,0,0,1,.94.15,1.39,1.39,0,0,1,.57.43,1.72,1.72,0,0,1,.3.67,4.79,4.79,0,0,1,.08.88v3.18h-1.42v-2.92a1.86,1.86,0,0,0-.2-1,.77.77,0,0,0-.71-.31,1,1,0,0,0-.84.34,2,2,0,0,0-.26,1.14v2.71h-1.42V114.5Z"/>
    <path class="e" d="M353.46,120.05a1.65,1.65,0,0,1-.36.74,2.24,2.24,0,0,1-.81.59,3.75,3.75,0,0,1-2.19.14,2.31,2.31,0,0,1-.72-.29,2,2,0,0,1-.55-.52,1.51,1.51,0,0,1-.24-.75H350a.83.83,0,0,0,.39.55,1.44,1.44,0,0,0,.67.16,1,1,0,0,0,.88-.36,1.42,1.42,0,0,0,.26-.91v-.68h0a1.4,1.4,0,0,1-.65.6,2.3,2.3,0,0,1-1.9,0,1.9,1.9,0,0,1-.69-.56,2.37,2.37,0,0,1-.4-.83,4.09,4.09,0,0,1-.12-1,3.12,3.12,0,0,1,.15-1,2.36,2.36,0,0,1,.42-.82,2.14,2.14,0,0,1,.7-.56,2,2,0,0,1,.95-.21,2,2,0,0,1,.9.19,1.51,1.51,0,0,1,.64.64h0v-.69h1.35v4.84A3.35,3.35,0,0,1,353.46,120.05Zm-1.94-1.72a1.18,1.18,0,0,0,.38-.32,1.3,1.3,0,0,0,.22-.46,1.89,1.89,0,0,0,.08-.53,2.93,2.93,0,0,0-.06-.61,1.5,1.5,0,0,0-.2-.5,1,1,0,0,0-.37-.35,1.13,1.13,0,0,0-.58-.13,1,1,0,0,0-.51.12.93.93,0,0,0-.36.32,1.33,1.33,0,0,0-.21.47,2,2,0,0,0-.07.56,2.57,2.57,0,0,0,.06.55,1.66,1.66,0,0,0,.18.5,1.23,1.23,0,0,0,.36.36,1,1,0,0,0,.55.14A1.12,1.12,0,0,0,351.52,118.33Z"/>
  </g>
  <g>
    <path class="e" d="M259.32,78.44a3,3,0,0,1,1.14.2,2.25,2.25,0,0,1,.77.51,2.17,2.17,0,0,1,.43.73,2.84,2.84,0,0,1,0,1.7,2.07,2.07,0,0,1-.43.73,2.14,2.14,0,0,1-.77.52,3,3,0,0,1-1.14.19h-1.65v2.56H256.1V78.44Zm-.43,3.36a3,3,0,0,0,.52,0,1,1,0,0,0,.44-.15.9.9,0,0,0,.31-.33,1.22,1.22,0,0,0,.11-.55,1.25,1.25,0,0,0-.11-.55.87.87,0,0,0-.31-.32,1.21,1.21,0,0,0-.44-.16,4.38,4.38,0,0,0-.52,0h-1.22V81.8Z"/>
    <path class="e" d="M262.86,82a1.63,1.63,0,0,1,.25-.83,1.77,1.77,0,0,1,.56-.53,2.61,2.61,0,0,1,.77-.28,4,4,0,0,1,.85-.09,5.35,5.35,0,0,1,.79.06,2.7,2.7,0,0,1,.73.21,1.48,1.48,0,0,1,.54.45,1.23,1.23,0,0,1,.21.75v2.69a4.73,4.73,0,0,0,0,.67,1.14,1.14,0,0,0,.14.48H266.3a1.05,1.05,0,0,1-.06-.24,2,2,0,0,1,0-.26,1.76,1.76,0,0,1-.8.49,3,3,0,0,1-.94.14,2.5,2.5,0,0,1-.69-.09,1.55,1.55,0,0,1-.56-.28,1.19,1.19,0,0,1-.37-.48,1.6,1.6,0,0,1-.14-.69,1.42,1.42,0,0,1,.16-.72,1.27,1.27,0,0,1,.4-.46,1.91,1.91,0,0,1,.56-.25c.21-.06.42-.1.63-.14l.63-.08a3.71,3.71,0,0,0,.55-.09.89.89,0,0,0,.38-.17.39.39,0,0,0,.13-.34.74.74,0,0,0-.07-.36.58.58,0,0,0-.2-.21.91.91,0,0,0-.29-.1,2,2,0,0,0-.36,0,1.08,1.08,0,0,0-.66.18.82.82,0,0,0-.28.6Zm3.28,1a.54.54,0,0,1-.22.13l-.29.07-.33,0-.34,0-.31.08a.86.86,0,0,0-.27.14.64.64,0,0,0-.19.21.67.67,0,0,0-.07.33.61.61,0,0,0,.07.32.55.55,0,0,0,.19.21.77.77,0,0,0,.28.1,1.84,1.84,0,0,0,.33,0,1.18,1.18,0,0,0,.65-.14.9.9,0,0,0,.34-.33,1.19,1.19,0,0,0,.14-.4c0-.13,0-.24,0-.32Z"/>
    <path class="e" d="M270.51,78.44v3.83l1.79-1.86H274l-2,1.9,2.17,3.27h-1.72l-1.42-2.31-.55.53v1.78h-1.42V78.44Z"/>
    <path class="e" d="M259.46,89.94a4.45,4.45,0,0,1,.93.09,2,2,0,0,1,.72.3,1.44,1.44,0,0,1,.47.54,1.94,1.94,0,0,1,.16.84,1.59,1.59,0,0,1-.24.9,1.81,1.81,0,0,1-.73.59,1.75,1.75,0,0,1,1,.67,2,2,0,0,1,.32,1.14,2,2,0,0,1-.21.94,1.83,1.83,0,0,1-.56.64,2.49,2.49,0,0,1-.81.37,3.73,3.73,0,0,1-.94.12H256.1V89.94Zm-.2,2.89a1.09,1.09,0,0,0,.69-.2.75.75,0,0,0,.27-.65.86.86,0,0,0-.09-.41.72.72,0,0,0-.24-.25.92.92,0,0,0-.34-.12,2.71,2.71,0,0,0-.41,0h-1.47v1.67Zm.09,3a2.12,2.12,0,0,0,.44,0,1.11,1.11,0,0,0,.37-.15.81.81,0,0,0,.26-.29,1,1,0,0,0,.09-.46.92.92,0,0,0-.31-.78,1.31,1.31,0,0,0-.82-.24h-1.71v2Z"/>
    <path class="e" d="M264.81,95.84a1.25,1.25,0,0,0,.92.31,1.29,1.29,0,0,0,.74-.21.89.89,0,0,0,.38-.46h1.25a2.37,2.37,0,0,1-.92,1.33,2.67,2.67,0,0,1-1.5.4,3,3,0,0,1-1.1-.19,2.3,2.3,0,0,1-.83-.56,2.33,2.33,0,0,1-.52-.86,3.22,3.22,0,0,1,0-2.18,2.62,2.62,0,0,1,.54-.86,2.52,2.52,0,0,1,.84-.58,2.65,2.65,0,0,1,1.07-.21,2.47,2.47,0,0,1,1.15.26,2.34,2.34,0,0,1,.81.68,2.83,2.83,0,0,1,.45,1,3.66,3.66,0,0,1,.1,1.15h-3.73A1.44,1.44,0,0,0,264.81,95.84Zm1.61-2.72a1,1,0,0,0-.78-.28,1.15,1.15,0,0,0-.92.4,1,1,0,0,0-.19.36,1.72,1.72,0,0,0-.07.34h2.31A1.68,1.68,0,0,0,266.42,93.12Z"/>
    <path class="e" d="M270.68,91.91v.72h0a1.62,1.62,0,0,1,.7-.65,2,2,0,0,1,.88-.21,2.52,2.52,0,0,1,.94.16,1.39,1.39,0,0,1,.57.43,1.72,1.72,0,0,1,.3.67,4.6,4.6,0,0,1,.08.87v3.18h-1.42V94.16a1.84,1.84,0,0,0-.2-1,.77.77,0,0,0-.71-.32,1,1,0,0,0-.84.35,1.94,1.94,0,0,0-.26,1.13v2.71h-1.42V91.91Z"/>
    <path class="e" d="M280.45,97.46a1.76,1.76,0,0,1-.37.75,2.22,2.22,0,0,1-.81.58,3.49,3.49,0,0,1-1.42.24,3.44,3.44,0,0,1-.77-.09,2.11,2.11,0,0,1-.72-.3,1.65,1.65,0,0,1-.54-.51,1.43,1.43,0,0,1-.25-.76H277a.83.83,0,0,0,.39.56,1.44,1.44,0,0,0,.67.15,1,1,0,0,0,.88-.36,1.4,1.4,0,0,0,.26-.91v-.68h0a1.37,1.37,0,0,1-.65.61,2.17,2.17,0,0,1-.9.19,2.2,2.2,0,0,1-1-.2,1.9,1.9,0,0,1-.69-.56,2.27,2.27,0,0,1-.39-.83,3.68,3.68,0,0,1-.13-1,3.11,3.11,0,0,1,.15-1,2.36,2.36,0,0,1,.42-.82,2,2,0,0,1,1.65-.78,2.13,2.13,0,0,1,.9.19,1.57,1.57,0,0,1,.64.64h0v-.69h1.35v4.84A3.86,3.86,0,0,1,280.45,97.46Zm-1.95-1.72a1.07,1.07,0,0,0,.38-.32,1.37,1.37,0,0,0,.23-.45,1.9,1.9,0,0,0,.07-.54,2.91,2.91,0,0,0-.06-.6,1.65,1.65,0,0,0-.2-.51,1.13,1.13,0,0,0-.37-.35,1.24,1.24,0,0,0-.58-.13,1,1,0,0,0-.51.12,1,1,0,0,0-.36.33,1.26,1.26,0,0,0-.21.47,2,2,0,0,0-.07.55,2.6,2.6,0,0,0,.06.56,1.32,1.32,0,0,0,.19.49,1,1,0,0,0,.35.36,1,1,0,0,0,.55.14A1.12,1.12,0,0,0,278.5,95.74Z"/>
  </g>
  <g>
    <path class="e" d="M199.93,80.6a1.55,1.55,0,0,0-.82-.66,1.78,1.78,0,0,0-.56-.1,1.81,1.81,0,0,0-.9.21,1.67,1.67,0,0,0-.6.55,2.48,2.48,0,0,0-.33.78,4,4,0,0,0-.11.91,3.66,3.66,0,0,0,.11.88,2.37,2.37,0,0,0,.33.76,1.67,1.67,0,0,0,.6.55,1.81,1.81,0,0,0,.9.2,1.44,1.44,0,0,0,1.13-.44,2,2,0,0,0,.49-1.16h1.52a3.53,3.53,0,0,1-.31,1.21,3,3,0,0,1-.66.92,2.6,2.6,0,0,1-1,.58,3.38,3.38,0,0,1-1.21.2,3.6,3.6,0,0,1-1.47-.28,3.08,3.08,0,0,1-1.11-.79,3.42,3.42,0,0,1-.69-1.17,4.34,4.34,0,0,1-.24-1.46,4.46,4.46,0,0,1,.24-1.48,3.56,3.56,0,0,1,.69-1.2,3.23,3.23,0,0,1,1.11-.8,3.6,3.6,0,0,1,1.47-.29,3.75,3.75,0,0,1,1.12.17,3.14,3.14,0,0,1,.94.5,2.78,2.78,0,0,1,.68.8,3,3,0,0,1,.34,1.1h-1.52A1.37,1.37,0,0,0,199.93,80.6Z"/>
    <path class="e" d="M204.33,78.69v2.69h0a1.65,1.65,0,0,1,.69-.65,1.82,1.82,0,0,1,.82-.21,2.52,2.52,0,0,1,.94.16,1.39,1.39,0,0,1,.57.43,1.72,1.72,0,0,1,.3.67,4.6,4.6,0,0,1,.08.87v3.18h-1.42V82.91a1.84,1.84,0,0,0-.2-1,.77.77,0,0,0-.71-.32,1,1,0,0,0-.84.35,1.94,1.94,0,0,0-.26,1.13v2.71h-1.42V78.69Z"/>
    <path class="e" d="M209.18,79.86V78.69h1.42v1.17Zm1.42.8v5.17h-1.42V80.66Z"/>
    <path class="e" d="M212,82.25a1.63,1.63,0,0,1,.25-.83,1.77,1.77,0,0,1,.56-.53,2.61,2.61,0,0,1,.77-.28,4,4,0,0,1,.85-.09,5.35,5.35,0,0,1,.79.06,2.7,2.7,0,0,1,.73.21,1.48,1.48,0,0,1,.54.45,1.23,1.23,0,0,1,.21.75v2.69a4.73,4.73,0,0,0,0,.67,1.14,1.14,0,0,0,.14.48H215.4a1.05,1.05,0,0,1-.06-.24,2,2,0,0,1,0-.26,1.76,1.76,0,0,1-.8.49,3,3,0,0,1-.94.14,2.5,2.5,0,0,1-.69-.09,1.55,1.55,0,0,1-.56-.28,1.19,1.19,0,0,1-.37-.48,1.6,1.6,0,0,1-.14-.69,1.42,1.42,0,0,1,.16-.72,1.27,1.27,0,0,1,.4-.46,1.91,1.91,0,0,1,.56-.25c.21-.06.42-.1.63-.14l.63-.08a3.71,3.71,0,0,0,.55-.09.89.89,0,0,0,.38-.17.39.39,0,0,0,.13-.34.74.74,0,0,0-.07-.36.58.58,0,0,0-.2-.21.91.91,0,0,0-.29-.1,2,2,0,0,0-.36,0,1.08,1.08,0,0,0-.66.18.82.82,0,0,0-.28.6Zm3.28,1a.54.54,0,0,1-.22.13l-.29.07-.33,0-.34,0-.31.08a.86.86,0,0,0-.27.14.76.76,0,0,0-.19.21.67.67,0,0,0-.07.33.61.61,0,0,0,.07.32.55.55,0,0,0,.19.21.77.77,0,0,0,.28.1,1.84,1.84,0,0,0,.33,0,1.18,1.18,0,0,0,.65-.14.9.9,0,0,0,.34-.33,1.19,1.19,0,0,0,.14-.4c0-.13,0-.24,0-.32Z"/>
    <path class="e" d="M219.41,80.66v.72h0a1.62,1.62,0,0,1,.7-.65,2,2,0,0,1,.88-.21,2.52,2.52,0,0,1,.94.16,1.39,1.39,0,0,1,.57.43,1.72,1.72,0,0,1,.3.67,4.6,4.6,0,0,1,.08.87v3.18h-1.42V82.91a1.84,1.84,0,0,0-.2-1,.77.77,0,0,0-.71-.32,1,1,0,0,0-.84.35,1.94,1.94,0,0,0-.26,1.13v2.71h-1.42V80.66Z"/>
    <path class="e" d="M229.17,86.21a1.63,1.63,0,0,1-.36.75,2.22,2.22,0,0,1-.81.58,3.49,3.49,0,0,1-1.42.24,3.44,3.44,0,0,1-.77-.09,2.49,2.49,0,0,1-.73-.3,1.87,1.87,0,0,1-.54-.51,1.52,1.52,0,0,1-.24-.76h1.41a.83.83,0,0,0,.39.56,1.44,1.44,0,0,0,.67.15,1,1,0,0,0,.88-.36,1.4,1.4,0,0,0,.26-.91v-.68h0a1.35,1.35,0,0,1-.66.61,2.09,2.09,0,0,1-.89.19,2.2,2.2,0,0,1-1-.2,1.9,1.9,0,0,1-.69-.56,2.46,2.46,0,0,1-.4-.83,4.11,4.11,0,0,1-.12-1,3.43,3.43,0,0,1,.14-1,2.57,2.57,0,0,1,.43-.82,2,2,0,0,1,1.65-.78,2.13,2.13,0,0,1,.9.19,1.57,1.57,0,0,1,.64.64h0v-.69h1.35V85.5A3.21,3.21,0,0,1,229.17,86.21Zm-1.94-1.72a1.07,1.07,0,0,0,.38-.32,1.18,1.18,0,0,0,.22-.45,1.91,1.91,0,0,0,.08-.54,2.91,2.91,0,0,0-.06-.6,1.65,1.65,0,0,0-.2-.51,1.13,1.13,0,0,0-.37-.35,1.24,1.24,0,0,0-.58-.13,1,1,0,0,0-.51.12,1,1,0,0,0-.36.33,1.26,1.26,0,0,0-.21.47,2,2,0,0,0-.07.55,3.43,3.43,0,0,0,0,.56,1.79,1.79,0,0,0,.19.49,1,1,0,0,0,.36.36,1,1,0,0,0,.55.14A1.12,1.12,0,0,0,227.23,84.49Z"/>
    <path class="e" d="M196.92,90.19v3l2.79-3h2L198.88,93l3.06,4.32h-2l-2.15-3.21-.9.91v2.3h-1.57V90.19Z"/>
    <path class="e" d="M204.14,90.19v2.69h0a1.65,1.65,0,0,1,.69-.65,1.82,1.82,0,0,1,.82-.21,2.52,2.52,0,0,1,.94.16,1.39,1.39,0,0,1,.57.43,1.72,1.72,0,0,1,.3.67,4.6,4.6,0,0,1,.08.87v3.18h-1.42V94.41a1.84,1.84,0,0,0-.2-1,.77.77,0,0,0-.71-.32,1,1,0,0,0-.84.35,1.94,1.94,0,0,0-.26,1.13v2.71h-1.42V90.19Z"/>
    <path class="e" d="M209,93.63a2.52,2.52,0,0,1,.54-.86,2.32,2.32,0,0,1,.84-.55,3,3,0,0,1,1.1-.2,2.92,2.92,0,0,1,1.1.2,2.27,2.27,0,0,1,.85.55,2.52,2.52,0,0,1,.54.86,3.1,3.1,0,0,1,.19,1.12,3,3,0,0,1-.19,1.12,2.52,2.52,0,0,1-.54.86,2.14,2.14,0,0,1-.85.54,2.92,2.92,0,0,1-1.1.19,3,3,0,0,1-1.1-.19,2.17,2.17,0,0,1-.84-.54,2.52,2.52,0,0,1-.54-.86,3,3,0,0,1-.19-1.12A3.1,3.1,0,0,1,209,93.63Zm1.29,1.73a1.55,1.55,0,0,0,.21.53,1,1,0,0,0,.38.37,1.36,1.36,0,0,0,1.2,0,1,1,0,0,0,.4-.37,1.77,1.77,0,0,0,.2-.53,3.08,3.08,0,0,0,.06-.61,3.15,3.15,0,0,0-.06-.61,1.77,1.77,0,0,0-.2-.53,1.19,1.19,0,0,0-.4-.37,1.16,1.16,0,0,0-1.58.37,1.55,1.55,0,0,0-.21.53,3.15,3.15,0,0,0-.06.61A3.08,3.08,0,0,0,210.27,95.36Z"/>
    <path class="e" d="M216.71,92.16v.72h0a1.62,1.62,0,0,1,.7-.65,2,2,0,0,1,.88-.21,2.52,2.52,0,0,1,.94.16,1.39,1.39,0,0,1,.57.43,1.72,1.72,0,0,1,.3.67,4.6,4.6,0,0,1,.08.87v3.18h-1.42V94.41a1.84,1.84,0,0,0-.2-1,.77.77,0,0,0-.71-.32,1,1,0,0,0-.84.35,1.94,1.94,0,0,0-.26,1.13v2.71h-1.42V92.16Z"/>
    <path class="e" d="M226.48,97.71a1.76,1.76,0,0,1-.37.75,2.22,2.22,0,0,1-.81.58,3.49,3.49,0,0,1-1.42.24,3.44,3.44,0,0,1-.77-.09,2.33,2.33,0,0,1-.72-.3,1.65,1.65,0,0,1-.54-.51,1.43,1.43,0,0,1-.25-.76H223a.83.83,0,0,0,.39.56,1.44,1.44,0,0,0,.67.15A1,1,0,0,0,225,98a1.4,1.4,0,0,0,.26-.91v-.68h0a1.37,1.37,0,0,1-.65.61,2.17,2.17,0,0,1-.9.19,2.2,2.2,0,0,1-1-.2,1.9,1.9,0,0,1-.69-.56,2.27,2.27,0,0,1-.39-.83,3.68,3.68,0,0,1-.13-1,3.11,3.11,0,0,1,.15-1,2.36,2.36,0,0,1,.42-.82,2,2,0,0,1,1.65-.78,2.13,2.13,0,0,1,.9.19,1.57,1.57,0,0,1,.64.64h0v-.69h1.35V97A3.86,3.86,0,0,1,226.48,97.71ZM224.53,96a1.07,1.07,0,0,0,.38-.32,1.37,1.37,0,0,0,.23-.45,1.9,1.9,0,0,0,.07-.54,2.91,2.91,0,0,0-.06-.6,1.65,1.65,0,0,0-.2-.51,1.13,1.13,0,0,0-.37-.35,1.24,1.24,0,0,0-.58-.13,1,1,0,0,0-.51.12,1,1,0,0,0-.36.33,1.26,1.26,0,0,0-.21.47,2,2,0,0,0-.07.55,2.6,2.6,0,0,0,.06.56,1.32,1.32,0,0,0,.19.49,1,1,0,0,0,.35.36,1,1,0,0,0,.55.14A1.12,1.12,0,0,0,224.53,96Z"/>
  </g>
  <path class="e" d="M175.16,152.19A2.84,2.84,0,1,1,178,155a2.84,2.84,0,0,1-2.84-2.83Z"/>
  <path class="e" d="M231.16,93.19A2.84,2.84,0,1,1,234,96a2.84,2.84,0,0,1-2.84-2.83Z"/>
  <path class="e" d="M316.47,184.57a2.84,2.84,0,1,1,2.83,2.84,2.83,2.83,0,0,1-2.83-2.84Z"/>
  <path class="e" d="M299.47,108.57a2.84,2.84,0,1,1,2.83,2.84,2.83,2.83,0,0,1-2.83-2.84Z"/>
  <path class="e" d="M208.16,226.69a2.84,2.84,0,1,1,2.84,2.83,2.84,2.84,0,0,1-2.84-2.83Z"/>
  <path class="e" d="M309,146.57a2.84,2.84,0,1,1,2.83,2.84,2.83,2.83,0,0,1-2.83-2.84Z"/>
  <path class="e" d="M255.47,104.57a2.84,2.84,0,1,1,2.83,2.84,2.83,2.83,0,0,1-2.83-2.84Z"/>
  <path class="e" d="M238,357.88a2.84,2.84,0,1,1,2.83,2.83,2.83,2.83,0,0,1-2.83-2.83Z"/>
  <path class="e" d="M216,528a2.84,2.84,0,1,1,2.83,2.83A2.84,2.84,0,0,1,216,528Z"/>
</svg>
