<?xml version="1.0" encoding="utf-8"?>
<!-- Generator: Adobe Illustrator 25.0.1, SVG Export Plug-In . SVG Version: 6.00 Build 0)  -->
<svg version="1.1" id="Ebene_1" xmlns="http://www.w3.org/2000/svg" xmlns:xlink="http://www.w3.org/1999/xlink" x="0px" y="0px"
	 viewBox="0 0 740.9 1031.8" style="enable-background:new 0 0 740.9 1031.8;" xml:space="preserve">
<style type="text/css">
	.st0{fill:#EDEDEC;}
	.st1{fill:#DADADA;stroke:#DADADA;stroke-width:1.5;stroke-miterlimit:10;}
	.st2{fill:#DADADA;stroke:#DADADA;stroke-width:1.5;stroke-miterlimit:3.8637;}
	.st3{fill:none;stroke:#4EA1E1;stroke-miterlimit:10;}
	.st4{fill:none;stroke:#F9B000;stroke-width:2;stroke-miterlimit:10;}
	.st5{fill:none;stroke:#F9B000;stroke-width:2;stroke-miterlimit:10;stroke-dasharray:4.5,4.5;}
	.st6{fill:#4EA1E1;}
	.st7{fill:#1A181C;}
	.st8{fill:#FFFFFF;}
	.st9{fill:#F9B000;}
</style>
<path class="st0" d="M297.1,134.9c1.3-2.7,3.4-29.4,8.6-30.1c5.3-0.7,21.3,1.2,22.7-2.7c1.3-3.9,1.3-2.6-2-5.3
	c-3.4-2.7,2.7-9.3,4.7-14c2-4.7-0.8-5.9,5.9-9.3c6.7-3.4,11.3-2.1,16-6.7c4.7-4.6,8-8,8-8s-2,3.9,0,7.3c2,3.4,4.7,2.8,3.4,7.4
	c-1.3,4.6-6.6,8.6,0,7.3c6.6-1.3,9.3-3.4,13.3-3.4c4,0,10.1,10.1,14.7,6.1c4.6-4,7.8-4.2,4.6-6.7c-3.2-2.6-5.8-4.5-3.2-12.6
	c2.6-8.1,3.4-20.6-0.7-25.3c-4-4.7-13.9-12.8-10.7-18.1c3.2-5.3,3.9-2.6,4.6-7.3c0.7-4.7-0.8-15.4,8-13.3c8.8,2,4,11.3,7.4,8.6
	c3.4-2.7,2-7.4,9.3-4c7.3,3.4,5.9,6.2,8.6,9.4c2.7,3.2,3.4,4.5,13.3,13.9c10,9.4,10.7,11.3,10,15.4c-0.7,4,2.7,13.9,5.4,10
	c2.7-3.9,3.2-12,5.9-12c2.7,0,0.9,2,3.4,4.7c6.1,6.6,9.4,9.4,5.4,15.4c-4,5.9-6.2,6.1-8.1,10.7c-1.9,4.6,2.7,4.7,5.4,11.3
	c2.7,6.6,8.1,19.3,14,20c5.9,0.7,8.8,3.4,12.7,2c3.9-1.3,5.9,0.1,9.3,3.4c3.4,3.2,5.9,7.8,8,4.6c2-3.2-1.3-11.4,12.7-12.7
	c14-1.2,6.7-9.3,14-6.6c7.3,2.7,13.2,11.4,19.3,16c6.1,4.6,10.8,2.6,7.4,5.9c-3.4,3.4-5.3,1.5-10,5.4c-4.7,3.9-11.4,6.6-6.1,6.6
	c5.4,0,8.6-2,12.7,0.7c4,2.7,5.4,1.5,4.7,6.1c-0.7,4.6,4.7,7.3,10,5.9c5.3-1.3,14.7,5.9,10,9.3c-4.7,3.4-5.9,3.4-10.7,6.7
	c-4.7,3.4-1.3,2.6,0,5.9c1.3,3.4-4.6,5.9-8,9.3c-3.4,3.4-4.8,9.4-10.1,5.4c-5.3-4-4.7-5.4-11.3-4.7c-6.6,0.7-15.2-2.7-14.6,1.3
	c0.7,4,8.5,5.9,3.2,10c-5.3,4-19.8,8.9-15.2,11.4c4.6,2.6,24,10,35.3,18.6c11.3,8.6,16.7,16,26,16c9.3,0,15.2,1.2,15.2,5.9
	c0,4.7-4,3.9-2.7,10.7c1.3,6.7,9.5,11.3,10.8,14.7c1.2,3.4,6.6,7.4,9.3,3.4c2.7-4,5.9,4.6,8,8.6c2,4-1.7,9.3-0.2,11.2
	c1.5,1.9,16.5,19.1,19.9,22.1c3.4,3,8.2,2.6,11.6,7.5c3.4,4.9,15,16.1,16.9,18.4c1.9,2.2,8.3,1.1,8.6,4.1c0.4,3-3.4,23.3-0.8,24
	c2.6,0.8,6.4-2.6,6.8-0.7c0.4,1.9-0.4,7.9,1.5,9.4c1.9,1.5,3.8,3.4,5.6,0.8c1.9-2.6,4.1-8.3,6.8-6c2.6,2.2,0.7,6.8,3.4,10.1
	c2.6,3.4,3.8,4.9,6,4.9s4.9-1.9,6,1.1c1.1,3-2.6,2.6,2.6,6.4c5.2,3.8,4.9,1.9,7.5,4.5c2.6,2.6,5.6-0.7,7.9,1.5s3.8,4.9-2.2,7.9
	c-6,3-13.1,2.6-12.7,6.8c0.4,4.1-1.1,8.2,9.7,16.1c10.9,7.9,12.4,4.1,16.1,10.1c3.7,6,6.8,7.9,3.4,11.6c-3.4,3.8-4.5,6.4-7.9,7.9
	c-3.4,1.5-9.4,2.2-5.6,4.9c3.7,2.6,7.5,7.9,6,11.2c-1.5,3.4-0.7,8.2-4.5,12c-3.7,3.8-3.7-0.7-8.2,1.5s-7.5,11.2-11.6,11.6
	c-4.1,0.4-2.6-4.1-5.2-2.2c-2.6,1.9-4.1,10.1-8.6,8.6c-4.5-1.5-15.8-14.3-18.7-15.4c-3-1.1-6,2.6-9.7,4.9c-3.8,2.2-5.6-1.9-8.6-0.7
	c-3,1.1,4.5,5.2-3.7,7.9c-8.3,2.6-11.6-3.8-12,0.7c-0.4,4.5,15.4,15,11.6,18.4c-3.8,3.4-1.5,6.4-5.6,7.9c-4.1,1.5-15.4-5.3-21-7.5
	s-5.6-6.4-11.6-5.3c-6,1.1-5.2,4.5-9,3c-3.8-1.5-4.9-1.1-11.2-9c-6.4-7.9-24.8-28.5-24.8-28.5L316.4,363.2l-29-138.7L297.1,134.9
	L297.1,134.9z"/>
<path class="st1" d="M292.4,128.7c-12-1.6-7.9,5.5-15.9,5.5s-9.9-3.9-11.8-1.3c-1.9,2.6-3.5,4.2-8.3,7.2c-8.1,5-6.8,2.2-12,3.7
	c-5.2,1.5-4.9,18.4-11.2,20.2c-6.4,1.9-8.6-0.8-10.9,0c-2.2,0.7-12,7.9-16.5,7.5s-15,1.1-16.9-1.9c-1.9-3-3-7.5-6.4-7.1
	s-2.6,4.5-5.6,7.1c-3,2.6-6.4,2.6-7.9,5.6c-1.5,3,1.5,24.7-3.4,30.4c-4.9,5.6-8.3,8.3-6.8,12.4c1.5,4.1,4.5,17.6,1.9,18.4
	c-2.6,0.7-1.1-2.2-6,1.1c-4.9,3.4-6,6-8.3,4.5c-2.2-1.5-7.1-12-7.1-7.5s4.9,19.9,6.4,20.2c1.5,0.4,5.2-3.4,7.1-2.6
	c1.9,0.7-0.7,2.2,0.8,5.2c1.5,3,4.5,7.1,4.5,10.9c0,3.7-4.1,9-2.2,12.4c1.9,3.4,17.2,19.9,22.5,27c5.2,7.1,12.7,14.3,13.1,17.6
	c0.4,3.4,0,7.9,2.6,7.9c2.6,0,5.2-0.4,6.4,2.6c1.1,3,5.6,8.2,4.1,11.2c-1.5,3-2.2,1.9-1.5,4.9c0.7,3,7.1,22.5,9,23.3
	c1.9,0.8,6-2.2,7.5-4.5c1.5-2.2,4.1-3.7,5.6-2.2c1.5,1.5,2.2,9-0.4,11.6c-2.6,2.6-6.8,6.8-10.5,8.3c-3.8,1.5-7.9,3.4-7.1,13.5
	c0.7,10.1-1.1,31.9-1.1,31.9s-18,4.5-19.5,8.2c-1.5,3.8-0.4,24.4,2.6,28.5c3,4.1,11.2,13.5,13.1,16.9c1.9,3.4,4.5,7.9,13.5,15
	c9,7.1,23.3,29.2,23.6,37.1c0.4,7.9-3.4,42.4,1.1,49.1s14.3,15,14.3,17.2s-1.9,4.9-1.1,7.9c0.7,3,2.6,15.8,5.2,18s4.5,7.9,4.5,11.6
	c0,3.8,1.1,8.3-1.5,11.3c-2.6,3-4.5,2.2-6.4,4.9c-1.9,2.6-0.7,7.5-3.8,11.6c-3,4.1-11.6,19.5-16.1,23.6s-6.8,1.5-7.5,4.1
	c-0.7,2.6-0.4,6.8-2.6,8.2s-11.6,3.4-12.8,7.1c-1.1,3.8,2.6,7.5,1.5,10.9s-4.5,12-5.3,13.9c-0.7,1.9,0.4,4.1-0.4,7.1
	c-0.8,3-8.3,15.8-9,18.4c-0.8,2.6-3.4,18-7.9,24c-4.5,6-7.1,19.1-7.1,19.1s2.6,7.9,0.4,9s-3.8,0-4.5,3.4c-0.8,3.4-0.4,10.1-1.5,15
	c-1.1,4.9-3,5.6-3,10.5c0,4.9,4.9,22.1,4.9,23.6c0,1.5,4.5,4.5,6.8,4.1c2.2-0.4,2.2-7.9,2.6-10.1c0.4-2.2,6.8-3,8.6-4.1
	c1.9-1.1,3.8-3,3.8-3s-0.4,6,1.1,6.4c1.5,0.4,4.9,0,4.9,2.6s-1.9,11.6,0.4,12.7s9-1.1,11.2,1.1s8.6,5.3,7.5,8.6s-4.5,7.5-1.1,8.2
	c3.4,0.8,12,1.9,13.9,7.1c1.9,5.2,0.8,15.8,2.2,17.6c1.5,1.9,6,4.1,8.3,1.9s4.5-2.6,6.4-1.5c1.9,1.1-3.4,7.5-0.7,9.7
	s8.6-0.4,9.7,2.2c1.1,2.6,1.1,8.6-0.4,10.5c-1.5,1.9-3.8,3.7-1.5,6.4c2.2,2.6,12.8,4.9,13.9,9.4s6,11.2,7.9,13.9
	c1.9,2.6,6.4,6.8,6.4,6.8s1.9-15,3.8-14.6c1.9,0.4,10.5,12.7,17.6,15s15-3,16.9,0c1.9,3,3,8.3,6.4,10.9s14.3-0.8,15,1.9
	c0.7,2.6,3.4,13.9,0,19.1c-3.4,5.2-5.6,8.2-4.9,11.6c0.8,3.4,3.8,8.2,7.5,7.5c3.7-0.8,8.6-10.5,13.5-10.9c4.9-0.4,11.6-5.6,15-2.2
	s7.1,8.6,10.9,7.9c3.7-0.8,9-4.9,9.4-7.9c0.4-3-0.4-6.8,5.3-11.2c5.6-4.5,6.7-12.7,6.7-12.7s-22.5-12.4-26.6-20.6
	c-4.1-8.2-5.6-18-13.9-21.4c-8.3-3.4-9.8-6-10.9-3.7s-3.4,3.7-12,3.4s-4.9,0.4-12-3.4c-7.1-3.7-15.4-10.9-15.4-10.9
	s-1.1-2.6-4.9-1.1c-3.8,1.5-4.9,1.9-6.4,0c-1.5-1.9-5.2-8.2-7.9-9.7c-2.6-1.5-14.2-15.4-12.7-21c1.5-5.6,5.2-11.6,7.5-9.8
	c2.2,1.9,3.8,8.3,2.6,10.9s-3.4,3.4-0.8,4.1c2.6,0.7,3.4,2.2,5.6,3.4s-0.4-13.5-0.7-16.9s-8.3-38.2-9-40.9c-0.7-2.6-3-6-3.4-3.7
	s0,4.9-1.9,3.4c-1.9-1.5-7.1-6.8-9-9.8c-1.9-3-3.8-36-4.9-40.1s-8.3-6.4-12-4.9c-3.8,1.5-12.8,6.4-15.8,7.1c-3,0.8-6.4-2.6-8.3-1.9
	c-1.9,0.8-4.5-1.1-2.2-4.1c2.2-3,6-4.1,3.8-7.1c-2.2-3-9.8-20.6-8.6-32.2c1.1-11.6,2.2-13.5,2.6-16.1c0.4-2.6-6.4-9.7-3.8-10.1
	c2.6-0.4,6,2.2,7.1-0.4s-3-3.4,0.7-9.4c3.8-6,5.6-9.4,7.1-12.8c1.5-3.4,3-6.8,6-7.9c3-1.1-0.4-14.6,2.2-17.2c2.6-2.6,3.4-0.4,4.1-6
	s5.6-22.9,8.6-25.9c3-3,5.3-1.1,5.6-3.8c0.4-2.6-1.9-9.4,1.5-12.7s11.2-9.8,10.5-13.9c-0.8-4.1-4.1-19.1-3-24
	c1.1-4.9,0.4-17.6,4.1-22.5c3.7-4.9,5.6-7.9,2.6-10.5c-3-2.6-8.6-7.9-6.4-12.4s6-5.6,11.2-6.8s16.9-2.2,20.2-2.6
	c3.4-0.4,4.1-4.9,6.8-3c2.6,1.9,4.5,3.4,9.4,3.4c4.9,0,12.4-0.8,12.4,2.6s0,9-1.9,11.2c-1.9,2.2-6.4,8.3-5.2,9.8
	c1.1,1.5,4.5,12.4,2.6,14.3c-1.9,1.9-7.5,9.7-5.6,10.5c1.9,0.8,4.9,4.9,8.6,3.4c3.8-1.5,10.1-3,15-1.9c4.9,1.1,4.9,5.3,16.1,3.4
	c11.2-1.9,12.4-7.9,17.6-5.2c5.2,2.6,1.9,6.4,6.4,8.2c4.5,1.9,11.6,5.3,14.6,8.6c3,3.4,8.6,6.8,8.2,9.7c-0.4,3,2.2,7.1,4.9,5.6
	c2.6-1.5,6.8,0.8,8.3,3c1.5,2.2,4.1,6,4.9,3c0.8-3-1.1-5.6,1.1-6c2.2-0.4,1.1,3.4,4.1,4.9c3,1.5,6,1.9,6,1.9s-4.5-10.5-3-13.9
	c1.5-3.4,6.8-4.1,4.9-6.8c-1.9-2.6-14.3-12.7-15-16.5c-0.7-3.7-1.1-20.2-3.4-23.6s-10.5-10.1-9-16.1c1.5-6,1.5-9.8,1.9-12.4
	c0.4-2.6,3.4,0,6.8,0s8.6-0.4,7.9-2.6c-0.7-2.2-2.6-3.4-2.6-3.4s7.1-2.2,11.6-12.4s16.5-25.1,29.6-30c13.1-4.9,22.1-8.2,23.6-6
	c1.5,2.2,10.1,5.2,16.9,4.9c6.8-0.4,17.3-3.4,22.5-2.2c5.2,1.1,12.4,3.7,15,1.9c2.6-1.9,14.6-5.6,18.7-3c4.1,2.6,3.8,10.1,4.9,12.4
	s4.9,3.4,6.4,1.1c1.5-2.2,1.9-5.3,4.9-6.4c3-1.1,15.9-6.8,17.1-9.6s-0.7-19.1,1.1-21.6c1.9-2.4,6.4-8.1,3.9-9.8
	c-2.4-1.7-9-4.1-7.5-7.5c1.5-3.4,7.3-8.4,6.6-9.9c-0.7-1.5-6.9-0.9-6-3c0.9-2.1,6.6-3.9,6.8-6c0.2-2.1,3-11.6,1.1-13.5
	c-1.9-1.9-3.9-6-8.1-6.4c-4.1-0.4-10.1-7.1-9-9c1.1-1.9,8.3-4.9,4.3-5.8c-3.9-0.9-18.4-2.2-20.1-4.3c-1.7-2.1-1.7-12-7.7-15.6
	c-6-3.6-12.2-10.9-11.8-15c0.4-4.1,0.7-16.9,0.4-20.2c-0.4-3.4-0.7-7.9,1.5-11.2s3.4-7.9,1.1-14.3c-2.2-6.4,2.2-7.9-7.5-12.7
	c-9.8-4.9-12.8-4.1-16.9-11.2c-4.1-7.1-9-15-11.6-18.8c-2.6-3.7-9.7-21-12.8-19.9c-3,1.1-1.1,3.8-4.1,3.8c-3,0-4.5,0.7-10.9-3
	c-6.4-3.8-16.1-8.2-20.2-5.6c-4.1,2.6-5.3,5.2-5.3,7.9c0,2.6-4.1,0.8-6,4.5c-1.9,3.7-3,4.1-4.1,6.8c-1.1,2.6,1.1,8.6-3.7,8.2
	c-4.9-0.4-5.3-3.7-9-0.7c-3.8,3-4.9,16.1-13.5,11.2c-8.6-4.9-25.5-27.4-31.1-24.8c-5.6,2.6-3.8,4.9-8.6,7.5
	c-4.9,2.6-6.8,1.1-9.7,1.5c-3,0.4,0.7,2.6-3.8,7.1s-31.5,27-34.5,27s-5.6-5.6-9-5.6s-7.1,0.8-4.9-1.9c2.2-2.6,3-9.4,6.4-13.5
	c3.4-4.1,10.5-11.2,10.5-16.1c0-4.9,0.8-12.4-1.1-14.3c-1.9-1.9-11.6-3.4-6.8-7.9c4.9-4.5,12.4-10.5,12.4-13.5c0-3-1.1-12,0.8-13.9
	c1.9-1.9,4.5-2.6,4.9-6c0.4-3.4-4.9-5.2-5.6-8.6c-0.7-3.4-5.6-17.6-3.7-18.7c1.9-1.1,7.1-1.1,5.6-4.9c-1.5-3.8-9-1.9-13.5-3.4
	s-5.3-3.8-8.3-1.1s-3.8,7.5-6.8,6.8s-4.9-5.2-7.5-4.1c-2.6,1.1-2.2,3.4-5.6,2.2s-10.5-11.2-7.9-15.8c2.6-4.5,7.5-13.1,8.2-17.3
	c0.8-4.1,2.6-5.2-0.7-6.4s-4.9-2.2-8.6-7.5c-3.8-5.2-3.8-7.9-7.1-5.6c-3.4,2.2-2.6,6.4-6,7.5s-3.4-2.2-3-5.3
	C297.7,128.7,292.4,128.7,292.4,128.7L292.4,128.7z"/>
<path class="st2" d="M283.3,786.5c-2.6,0.3-2.9-1.1-2.9,1.7c0,2.9-1.1,6.3,2,6.3s4.9-2.6,6.3-4.3c1.4-1.7,2.9-3.1,1.4-4
	c-1.4-0.9-2.6-1.1-4-0.6C284.7,786.2,283.3,786.5,283.3,786.5L283.3,786.5z"/>
<path class="st2" d="M285.5,771.4c-2,1.1-3.4,3.4-2,4.9c1.4,1.4,2.6,5.7,3.7,4c1.1-1.7,2.3-2.3,2.6-4.6c0.3-2.3,1.4-4-0.6-4.3
	S285.5,771.4,285.5,771.4L285.5,771.4z"/>
<path class="st2" d="M183.5,879.4c-2.6,0.3-3.1-0.3-3.1,3.4c0,3.7-0.6,13.1,0.9,13.1c1.4,0,2.6-2.9,4.3-4.6c1.7-1.7,2.9-2,3.7-4.6
	c0.9-2.6,3.7-6.3,1.7-6.9C189,879.4,183.5,879.4,183.5,879.4L183.5,879.4z"/>
<path class="st2" d="M197.3,875.4c-1.1,1.7-0.6,3.7,0.3,5.4c0.9,1.7,2.6,4.6,3.1,3.1c0.6-1.4,0.9-3.1,0-4.9
	C199.8,877.4,197.3,875.4,197.3,875.4L197.3,875.4z"/>
<path class="st2" d="M227.5,901.7c-1.4,1.1-2,1.7-0.9,3.4c1.1,1.7,3.1,2,3.7,0.3c0.6-1.7,1.4-3.1,0.3-3.7
	C229.5,901.1,227.5,901.7,227.5,901.7L227.5,901.7z"/>
<path class="st2" d="M223.3,909.1c-1.1,1.7-1.7,2.3-0.3,4c1.4,1.7,2,4,3.4,3.1c1.4-0.9,0.9-1.4,0.6-3.1
	C226.7,911.4,223.3,909.1,223.3,909.1L223.3,909.1z"/>
<path class="st2" d="M263.5,966.1c-0.9,0.1-1.7,1.3-2.4,2.2c-0.7,0.9-2.5,1.9-1.2,3.5c1.3,1.6,3.2,4.4,4.2,4.4c1,0,2.5-0.9,2.7-1.9
	c0.2-1,0.4-3-0.2-3.9c-0.6-0.9-1.5-2.7-2-3.3C264,966.5,263.5,966.1,263.5,966.1L263.5,966.1z"/>
<path class="st2" d="M271.2,981.3c-2.1,0.4-2.1,0.9-3.7,2.5c-1.6,1.6-3,2.9-2,4.2c1,1.3,4.5,3.5,4.6,4.7c0.1,1.2-0.1,2.9,1.3,1.7
	c1.4-1.2,2.4-3.3,4-3.2c1.6,0.1,4.3-0.6,4.3-2.1c0-1.5,0-4.4-1.1-5.5c-1.1-1.1-1.6-1.9-3.2-2C273.8,981.5,271.2,981.3,271.2,981.3
	L271.2,981.3z"/>
<path class="st3" d="M357.7,50c0,0,3,6.2,1.9,8.6c-1.1,2.4-0.8,2.6-3.6,5.3c-2.8,2.6-2.6,3.9-6.6,5.4c-3.9,1.5-12,3-13.7,4.3
	c-1.7,1.3-2.6,2.1-3.7,5.4s-6.8,13.1-6.6,14.6c0.2,1.5,0.9,2.2,2.4,3.7c1.5,1.5,3.4,2.8,0.2,4.5c-3.2,1.7-6.2,2.4-11.2,2.4
	s-9.2-0.9-11.2,0.4c-2.1,1.3-1.5,0.8-3,5.1c-1.5,4.3-4.5,20.6-4.7,23.3c-0.2,2.6-1.3,3.9,1.1,3.6c2.4-0.4,3.2-2.2,5.1-4.5
	s1.5-4.5,3.9-3.4c2.4,1.1,4.4,4.5,5.8,7.3c2.1,4.1,13.7,4.9,10.4,12.6c-1.8,4.2-3.3,14.7-0.1,16.6c3.2,1.9,6.9-3.4,11.1-4.5
	c4.1-1.1,4.1-1.5,6.9,0s2.4,2.4,5.4,2.1c3-0.4,2.4-1.1,5.6-1.5c3.2-0.4,4.1,0.2,7.1,2.1c3,1.9,6.4,1.1,10.7,1.3s10.3,1.1,13.3-0.9
	c3-2.1,0.6-5.2,4.9-5.6c4.3-0.4,8.1-0.4,10.1-2.2c2.1-1.9,8.4-8.4,14.2-7.3c5.8,1.1,7.1,2.3,6.9,4.1c-0.2,1.9,1.5,3.7-3.4,6.2
	c-4.9,2.4-15.2,9.6-17.8,12.9c-2.6,3.4-5.6,8.4-4.7,12c0.9,3.6,3.8,3.6,3.8,6c0,2.4-3.2,12.2-3.8,16.5c-0.6,4.3-3.6,5.8-2.2,6.9
	c1.3,1.1,3.6,1.7,2.6,3.6c-0.9,1.9-4.9,1.7-1.7,5.1c3.2,3.4,4.3,1.5,3.2,5.3c-1.1,3.7-1.9,16.3-10.5,22.7
	c-8.6,6.4-15.4,10.9-15.8,14.6c-0.4,3.7-0.4,4.5,0.7,6.6c1.1,2.1,1.3,4.7,0.6,6.8c-0.7,2.1-2.1,4.7,0.7,5.3s7.5,0.2,7.3,1.5
	c-0.2,1.3,5.1-0.9,7.5-3.6c2.4-2.6,4.1-4.7,4.5-6.4c0.4-1.7,0.2-2.2,2.8-2.2c2.6,0,5.8-0.2,8.6-2.1c2.8-1.9,8.1-8.2,10.1-7.3
	c2.1,0.9,11.4,8.8,15.2,12.4c3.7,3.6,13.5,14.4,16.7,13.7c3.2-0.8,5.8-4.3,8.1-7.9c2.2-3.6,2.8-6.9,4.9-6c2.1,0.9,6.9,3,8.4,1.9
	c1.5-1.1,0.8-6.8,2.2-8.2c1.5-1.5,4.7-8.6,7.3-9.8c2.6-1.1,2.4-0.9,3.2-3.2c0.7-2.2,1.5-6,6.2-6.4c4.7-0.4,6.9-0.4,13.3,3.2
	c6.4,3.6,12,6.2,14.4,6.2c2.4,0,4.1-1.3,4.9-2.6c0.7-1.3-0.4-2.2,1.5-1.1c1.9,1.1,12.6,20.4,15.8,24.8c3.2,4.3,7.3,15.6,11.2,18
	c3.9,2.4,18.4,8.4,19.5,10.7s0,2.4,0.9,6.2c0.9,3.8,3.4,7.7,2.2,10.7c-1.1,3-2.8,3.9-3.6,9.2c-0.8,5.3,0.7,15-0.2,19.9
	c-0.9,4.9-1.7,10.9,1.5,14.4c3.2,3.6,11.2,9.9,12.9,12.4c1.7,2.4,1.7,11.1,4.7,12.6c3,1.5,20.8,3.2,20.8,4.7c0,1.5-5.2,4.3-4.5,6.4
	c0.8,2.1,0.9,4.9,4.7,6.6c3.7,1.7,7.9,2.2,10.1,5.8c2.2,3.6,2.4,5.6,1.5,10.5c-0.9,4.9-0.2,5.8-2.6,7.1c-2.4,1.3-6.6,3.4-4.9,4.5
	s4.5-1.1,7.1,1.3c2.6,2.4,2.2,5.6,6.9,9.2c4.7,3.6,9.7,7.3,10.1,11.8c0.4,4.5-0.7,5.8,0.7,8.6c1.5,2.8,3.8,3,2.2,5.1
	c-1.5,2.1-6.6,8.2-5.8,13.7c0.7,5.4,0.4,9.4,0.7,12.2c0.4,2.8-2.8,3.7-3.9,6s-2.2,3.2-1.7,5.4c0.6,2.2,2.8,5.6,2.8,5.6 M631.6,503.4
	c0,0-2.6,2.4-0.2,7.1c2.4,4.7,1.3,4.7,3.7,6.9c2.4,2.2,4.9,6,4.9,6"/>
<path class="st1" d="M423.7,631.8c-1.3,0.7,0-0.7,0.2,2.9c0.2,3.6-2.2,5.1,2.2,6c4.4,0.9,6,2.2,6,0c0-2.2-0.2-3.1-2.4-5.5
	c-2.2-2.5-2.9-3.3-4.2-3.8C424.2,630.9,423.7,631.8,423.7,631.8L423.7,631.8z"/>
<polygon class="st4" points="321.5,536.8 276.7,339.8 227.2,228.1 312.3,139.5 347.7,156.8 413.7,162.6 427.8,220 439.4,277.1 "/>
<path class="st5" d="M287.9,792.5c0,0,77.4-106,33-257"/>
<g>
	<g>
		<path d="M245.6,227.4c0-1.7-0.3-2.4-1.4-2.4c-1.2,0-1.4,1.2-1.4,4.4c0,3.5,0.5,4.1,1.5,4.1c0.8,0,1.4-0.4,1.4-2.9h2.3
			c0,2.5-0.6,4.6-3.6,4.6c-3.5,0-3.9-2.5-3.9-5.9c0-3.5,0.4-5.9,3.9-5.9c3.3,0,3.5,2.4,3.5,4.1H245.6z"/>
		<path d="M249.9,223.5h2.2v3.7h0c0.4-0.7,1.2-1.1,2.1-1.1c1.4,0,2.2,0.8,2.2,2.4v6.4h-2.2V229c0-0.9-0.3-1.2-0.9-1.2
			c-0.8,0-1.2,0.5-1.2,1.4v5.7h-2.2V223.5z"/>
		<path d="M258.6,223.4h2.2v1.9h-2.2V223.4z M258.6,226.3h2.2v8.6h-2.2V226.3z"/>
		<path d="M263,229v-0.2c0-2,1.4-2.7,3-2.7c2.6,0,3.1,1.1,3.1,2.6v4.5c0,0.8,0,1.2,0.3,1.7h-2.1c-0.1-0.3-0.2-0.6-0.3-0.9h0
			c-0.5,0.9-1.1,1.1-2.2,1.1c-1.5,0-2.1-1.3-2.1-2.5c0-1.6,0.7-2.3,2.2-2.7l1.2-0.3c0.7-0.2,0.9-0.4,0.9-1c0-0.7-0.3-1.1-1-1.1
			c-0.7,0-1,0.4-1,1.1v0.2H263z M267,230.6c-0.3,0.2-0.7,0.4-0.9,0.4c-0.9,0.2-1.2,0.6-1.2,1.4c0,0.7,0.2,1.2,0.8,1.2
			s1.4-0.4,1.4-1.3V230.6z"/>
		<path d="M271.3,226.3h2.1v1h0c0.5-0.8,1.3-1.2,2.2-1.2c1.4,0,2.2,0.8,2.2,2.4v6.4h-2.2V229c0-0.9-0.3-1.2-0.9-1.2
			c-0.8,0-1.2,0.5-1.2,1.4v5.7h-2.2V226.3z"/>
		<path d="M286.4,226.3v8.2c0,2.3-1,3.4-3.6,3.4c-1.9,0-2.9-0.8-2.9-2.3h2.1c0,0.3,0.1,0.5,0.3,0.7c0.2,0.1,0.5,0.2,0.7,0.2
			c0.9,0,1.2-0.7,1.2-1.6v-1.1h0c-0.4,0.6-1.1,1.1-1.8,1.1c-1.8,0-2.6-1.2-2.6-4.4c0-2,0.3-4.4,2.7-4.4c0.6,0,1.4,0.3,1.8,1.2h0v-1
			H286.4z M283.1,233.1c0.9,0,1.2-1,1.2-2.5c0-2.1-0.3-2.9-1.2-2.9c-1,0-1.2,0.8-1.2,3.1C282,232.1,282.2,233.1,283.1,233.1z"/>
		<path d="M293.2,223.5h3.4l1.6,8.1h0l1.6-8.1h3.4v11.4h-2.1v-9.1h0l-2,9.1h-1.8l-2-9.1h0v9.1h-2.1V223.5z"/>
		<path d="M305.6,229v-0.2c0-2,1.4-2.7,3-2.7c2.6,0,3.1,1.1,3.1,2.6v4.5c0,0.8,0,1.2,0.3,1.7h-2.1c-0.1-0.3-0.2-0.6-0.3-0.9h0
			c-0.5,0.9-1.1,1.1-2.2,1.1c-1.5,0-2.1-1.3-2.1-2.5c0-1.6,0.7-2.3,2.2-2.7l1.2-0.3c0.7-0.2,0.9-0.4,0.9-1c0-0.7-0.3-1.1-1-1.1
			c-0.7,0-1,0.4-1,1.1v0.2H305.6z M309.6,230.6c-0.3,0.2-0.7,0.4-0.9,0.4c-0.9,0.2-1.2,0.6-1.2,1.4c0,0.7,0.2,1.2,0.8,1.2
			s1.4-0.4,1.4-1.3V230.6z"/>
		<path d="M314,223.4h2.2v1.9H314V223.4z M314,226.3h2.2v8.6H314V226.3z"/>
	</g>
</g>
<g>
	<g>
		<path d="M290.1,341.9v0.3c0,1.1,0.3,1.8,1.5,1.8c0.7,0,1.4-0.4,1.4-1.4c0-1-0.5-1.4-2-2c-2-0.7-3-1.6-3-3.5c0-2.2,1.4-3.4,3.5-3.4
			c2,0,3.5,0.9,3.5,3.1v0.3h-2.2c0-1.1-0.4-1.7-1.2-1.7c-1,0-1.3,0.7-1.3,1.3c0,0.7,0.2,1.1,1.2,1.6l1.8,0.8c1.7,0.8,2.2,1.6,2.2,3
			c0,2.4-1.5,3.5-4,3.5c-2.6,0-3.6-1.2-3.6-3.3v-0.5H290.1z"/>
		<path d="M301.5,344.4L301.5,344.4c-0.5,0.8-1.3,1.2-2.2,1.2c-1.4,0-2.2-0.8-2.2-2.4v-6.4h2.2v5.9c0,0.9,0.3,1.2,0.9,1.2
			c0.8,0,1.2-0.5,1.2-1.4v-5.7h2.2v8.6h-2.1V344.4z"/>
		<path d="M308,334v6h0l2.2-3.2h2.4l-2.5,3.4l2.8,5.2h-2.4l-1.8-3.5l-0.8,1v2.5h-2.2V334H308z"/>
		<path d="M317.5,336.6c2.7,0,3.4,1.5,3.4,4.5c0,2.9-0.9,4.5-3.4,4.5c-2.7,0-3.4-1.5-3.4-4.5C314.1,338.2,314.9,336.6,317.5,336.6z
			 M317.5,344.2c0.9,0,1.2-0.9,1.2-3s-0.3-3-1.2-3c-1.1,0-1.2,1.3-1.2,3S316.4,344.2,317.5,344.2z"/>
		<path d="M323.2,334.4h2.2v2.5h1.3v1.5h-1.3v4.7c0,0.7,0.1,0.9,0.8,0.9c0.2,0,0.4,0,0.5,0v1.5c-0.5,0-0.9,0.1-1.4,0.1
			c-1.7,0-2-0.5-2-2.3v-4.9H322v-1.5h1.1V334.4z"/>
		<path d="M328.1,334h2.2v3.7h0c0.4-0.7,1.2-1.1,2.1-1.1c1.4,0,2.2,0.8,2.2,2.4v6.4h-2.2v-5.9c0-0.9-0.3-1.2-0.9-1.2
			c-0.8,0-1.2,0.5-1.2,1.4v5.7h-2.2V334z"/>
		<path d="M336.7,339.5v-0.2c0-2,1.4-2.7,3-2.7c2.6,0,3.1,1.1,3.1,2.6v4.5c0,0.8,0,1.2,0.3,1.7H341c-0.1-0.3-0.2-0.6-0.3-0.9h0
			c-0.5,0.9-1.1,1.1-2.2,1.1c-1.5,0-2.1-1.3-2.1-2.5c0-1.6,0.7-2.3,2.2-2.7l1.2-0.3c0.7-0.2,0.9-0.4,0.9-1c0-0.7-0.3-1.1-1-1.1
			c-0.7,0-1,0.4-1,1.1v0.2H336.7z M340.7,341.1c-0.3,0.2-0.7,0.4-0.9,0.4c-0.9,0.2-1.2,0.6-1.2,1.4c0,0.7,0.2,1.2,0.8,1.2
			s1.4-0.4,1.4-1.3V341.1z"/>
		<path d="M345.1,333.9h2.2v1.9h-2.2V333.9z M345.1,336.8h2.2v8.6h-2.2V336.8z"/>
	</g>
</g>
<g>
	<g>
		<path d="M331.7,533.1h3.9c1.9,0,3.2,0.7,3.2,2.9c0,1.2-0.6,2.2-1.7,2.5v0c1.3,0.2,2.1,1.1,2.1,2.7c0,1.8-0.9,3.3-3.6,3.3h-3.9
			V533.1z M334,537.8h0.7c1.3,0,1.8-0.4,1.8-1.5c0-1.1-0.5-1.5-1.7-1.5H334V537.8z M334,542.8h0.9c1.1,0,1.9-0.4,1.9-1.7
			c0-1.3-0.8-1.7-1.8-1.7h-1V542.8z"/>
		<path d="M341.2,538.5v-0.2c0-2,1.4-2.7,3-2.7c2.6,0,3.1,1.1,3.1,2.6v4.5c0,0.8,0,1.2,0.3,1.7h-2.1c-0.1-0.3-0.2-0.6-0.3-0.9h0
			c-0.5,0.9-1.1,1.1-2.2,1.1c-1.5,0-2.1-1.3-2.1-2.5c0-1.6,0.7-2.3,2.2-2.7l1.2-0.3c0.7-0.2,0.9-0.4,0.9-1c0-0.7-0.3-1.1-1-1.1
			c-0.7,0-1,0.4-1,1.1v0.2H341.2z M345.2,540.2c-0.3,0.2-0.7,0.4-0.9,0.4c-0.9,0.2-1.2,0.6-1.2,1.4c0,0.7,0.2,1.2,0.8,1.2
			s1.4-0.4,1.4-1.3V540.2z"/>
		<path d="M349.5,535.9h2.1v1h0c0.5-0.8,1.3-1.2,2.2-1.2c1.4,0,2.2,0.8,2.2,2.4v6.4h-2.2v-5.9c0-0.9-0.3-1.2-0.9-1.2
			c-0.8,0-1.2,0.5-1.2,1.4v5.7h-2.2V535.9z"/>
		<path d="M364.6,535.9v8.2c0,2.3-1,3.4-3.6,3.4c-1.9,0-2.9-0.8-2.9-2.3h2.1c0,0.3,0.1,0.5,0.3,0.7c0.2,0.1,0.5,0.2,0.7,0.2
			c0.9,0,1.2-0.7,1.2-1.6v-1.1h0c-0.4,0.6-1.1,1.1-1.8,1.1c-1.8,0-2.6-1.2-2.6-4.4c0-2,0.3-4.4,2.7-4.4c0.6,0,1.4,0.3,1.8,1.2h0v-1
			H364.6z M361.3,542.7c0.9,0,1.2-1,1.2-2.5c0-2.1-0.3-2.9-1.2-2.9c-1,0-1.2,0.8-1.2,3.1C360.2,541.6,360.4,542.7,361.3,542.7z"/>
		<path d="M369.1,533.1v6h0l2.2-3.2h2.4l-2.5,3.4l2.8,5.2h-2.4l-1.8-3.5l-0.8,1v2.5h-2.2v-11.4H369.1z"/>
		<path d="M378.6,535.7c2.7,0,3.4,1.5,3.4,4.5c0,2.9-0.9,4.5-3.4,4.5c-2.7,0-3.4-1.5-3.4-4.5C375.2,537.2,376,535.7,378.6,535.7z
			 M378.6,543.2c0.9,0,1.2-0.9,1.2-3s-0.3-3-1.2-3c-1.1,0-1.2,1.3-1.2,3S377.5,543.2,378.6,543.2z"/>
		<path d="M386.1,533.1v6h0l2.2-3.2h2.4l-2.5,3.4l2.8,5.2h-2.4l-1.8-3.5l-0.8,1v2.5h-2.2v-11.4H386.1z"/>
	</g>
</g>
<g>
	<g>
		<path d="M445.9,257.8l1.6,8.5h0l1.7-8.5h2.4l-2.6,11.4h-3l-2.6-11.4H445.9z"/>
		<path d="M453.2,257.7h2.2v1.9h-2.2V257.7z M453.2,260.6h2.2v8.6h-2.2V260.6z"/>
		<path d="M459.5,265.3v0.7c0,1,0.3,2,1.1,2c0.7,0,1-0.6,1.2-1.6h2c-0.1,2-1,3.1-3.1,3.1c-3.2,0-3.3-2.5-3.3-4.6
			c0-2.3,0.4-4.4,3.4-4.4c2.6,0,3.2,1.7,3.2,4.4v0.5H459.5z M461.7,263.9c0-1.3-0.2-2-1.1-2c-0.9,0-1.1,0.9-1.1,1.7v0.3H461.7z"/>
		<path d="M465.6,260.6h2.1v1h0c0.5-0.8,1.3-1.2,2.2-1.2c1.4,0,2.2,0.8,2.2,2.4v6.4h-2.2v-5.9c0-0.9-0.3-1.2-0.9-1.2
			c-0.8,0-1.2,0.5-1.2,1.4v5.7h-2.2V260.6z"/>
		<path d="M474.7,258.1h2.2v2.5h1.3v1.5h-1.3v4.7c0,0.7,0.1,0.9,0.8,0.9c0.2,0,0.4,0,0.5,0v1.5c-0.5,0-0.9,0.1-1.4,0.1
			c-1.7,0-2-0.5-2-2.3v-4.9h-1.1v-1.5h1.1V258.1z"/>
		<path d="M479.7,257.7h2.2v1.9h-2.2V257.7z M479.7,260.6h2.2v8.6h-2.2V260.6z"/>
		<path d="M484.1,263.3V263c0-2,1.4-2.7,3-2.7c2.6,0,3.1,1.1,3.1,2.6v4.5c0,0.8,0,1.2,0.3,1.7h-2.1c-0.1-0.3-0.2-0.6-0.3-0.9h0
			c-0.5,0.9-1.1,1.1-2.2,1.1c-1.5,0-2.1-1.3-2.1-2.5c0-1.6,0.7-2.3,2.2-2.7l1.2-0.3c0.7-0.2,0.9-0.4,0.9-1c0-0.7-0.3-1.1-1-1.1
			c-0.7,0-1,0.4-1,1.1v0.2H484.1z M488.1,264.9c-0.3,0.2-0.7,0.4-0.9,0.4c-0.9,0.2-1.2,0.6-1.2,1.4c0,0.7,0.2,1.2,0.8,1.2
			c0.6,0,1.4-0.4,1.4-1.3V264.9z"/>
		<path d="M492.4,260.6h2.1v1h0c0.5-0.8,1.3-1.2,2.2-1.2c1.4,0,2.2,0.8,2.2,2.4v6.4h-2.2v-5.9c0-0.9-0.3-1.2-0.9-1.2
			c-0.8,0-1.2,0.5-1.2,1.4v5.7h-2.2V260.6z"/>
		<path d="M503,265.3v0.7c0,1,0.3,2,1.1,2c0.7,0,1-0.6,1.2-1.6h2c-0.1,2-1,3.1-3.1,3.1c-3.2,0-3.3-2.5-3.3-4.6
			c0-2.3,0.4-4.4,3.4-4.4c2.6,0,3.2,1.7,3.2,4.4v0.5H503z M505.2,263.9c0-1.3-0.2-2-1.1-2c-0.9,0-1.1,0.9-1.1,1.7v0.3H505.2z"/>
	</g>
</g>
<g>
	<g>
		<path d="M297.8,796.5v4.6h0l2.9-4.6h2.5l-3.1,4.9l3.5,6.5H301l-2.4-4.7l-0.8,1.3v3.4h-2.3v-11.4H297.8z"/>
		<path d="M307.8,799.1c2.7,0,3.4,1.5,3.4,4.5c0,2.9-0.9,4.5-3.4,4.5c-2.7,0-3.4-1.5-3.4-4.5C304.4,800.6,305.2,799.1,307.8,799.1z
			 M307.8,806.6c0.9,0,1.2-0.9,1.2-3s-0.3-3-1.2-3c-1.1,0-1.2,1.3-1.2,3S306.7,806.6,307.8,806.6z"/>
		<path d="M319.4,804.3v0.3c0,1.1,0.3,1.8,1.5,1.8c0.7,0,1.4-0.4,1.4-1.4c0-1-0.5-1.4-2-2c-2-0.7-3-1.6-3-3.5c0-2.2,1.4-3.4,3.5-3.4
			c2,0,3.5,0.9,3.5,3.1v0.3h-2.2c0-1.1-0.4-1.7-1.2-1.7c-1,0-1.3,0.7-1.3,1.3c0,0.7,0.2,1.1,1.2,1.6l1.8,0.8c1.7,0.8,2.2,1.6,2.2,3
			c0,2.4-1.5,3.5-4,3.5c-2.6,0-3.6-1.2-3.6-3.3v-0.5H319.4z"/>
		<path d="M326.4,801.9v-0.2c0-2,1.4-2.7,3-2.7c2.6,0,3.1,1.1,3.1,2.6v4.5c0,0.8,0,1.2,0.3,1.7h-2.1c-0.1-0.3-0.2-0.6-0.3-0.9h0
			c-0.5,0.9-1.1,1.1-2.2,1.1c-1.5,0-2.1-1.3-2.1-2.5c0-1.6,0.7-2.3,2.2-2.7l1.2-0.3c0.7-0.2,0.9-0.4,0.9-1c0-0.7-0.3-1.1-1-1.1
			c-0.7,0-1,0.4-1,1.1v0.2H326.4z M330.4,803.6c-0.3,0.2-0.7,0.4-0.9,0.4c-0.9,0.2-1.2,0.6-1.2,1.4c0,0.7,0.2,1.2,0.8,1.2
			s1.4-0.4,1.4-1.3V803.6z"/>
		<path d="M334.7,799.3h2.1v0.9h0c0.6-0.8,1.2-1.1,2.2-1.1c1,0,1.7,0.5,2,1.4h0c0.3-0.9,1.1-1.4,2.2-1.4c1.5,0,2.1,0.9,2.1,2.6v6.3
			h-2.2v-6c0-0.7-0.2-1.1-0.9-1.1c-0.7,0-1.2,0.5-1.2,1.5v5.7H339v-6c0-0.7-0.2-1.1-0.9-1.1c-0.7,0-1.2,0.5-1.2,1.5v5.7h-2.2V799.3z
			"/>
		<path d="M351.9,806.9L351.9,806.9c-0.5,0.8-1.3,1.2-2.2,1.2c-1.4,0-2.2-0.8-2.2-2.4v-6.4h2.2v5.9c0,0.9,0.3,1.2,0.9,1.2
			c0.8,0,1.2-0.5,1.2-1.4v-5.7h2.2v8.6h-2.1V806.9z"/>
		<path d="M356.2,796.3h2.2v1.9h-2.2V796.3z M356.2,799.3h2.2v8.6h-2.2V799.3z"/>
	</g>
</g>
<g>
	<g>
		<path d="M441.5,212.6l1.6,8.5h0l1.7-8.5h2.4l-2.6,11.4h-3l-2.6-11.4H441.5z"/>
		<path d="M448.6,218v-0.2c0-2,1.4-2.7,3-2.7c2.6,0,3.1,1.1,3.1,2.6v4.5c0,0.8,0,1.2,0.3,1.7h-2.1c-0.1-0.3-0.2-0.6-0.3-0.9h0
			c-0.5,0.9-1.1,1.1-2.2,1.1c-1.5,0-2.1-1.3-2.1-2.5c0-1.6,0.7-2.3,2.2-2.7l1.2-0.3c0.7-0.2,0.9-0.4,0.9-1c0-0.7-0.3-1.1-1-1.1
			c-0.7,0-1,0.4-1,1.1v0.2H448.6z M452.6,219.7c-0.3,0.2-0.7,0.4-0.9,0.4c-0.9,0.2-1.2,0.6-1.2,1.4c0,0.7,0.2,1.2,0.8,1.2
			c0.6,0,1.4-0.4,1.4-1.3V219.7z"/>
		<path d="M457,215.4h2.1v1h0c0.5-0.8,1.3-1.2,2.2-1.2c1.4,0,2.2,0.8,2.2,2.4v6.4h-2.2v-5.9c0-0.9-0.3-1.2-0.9-1.2
			c-0.8,0-1.2,0.5-1.2,1.4v5.7H457V215.4z"/>
		<path d="M472,215.4v8.2c0,2.3-1,3.4-3.6,3.4c-1.9,0-2.9-0.8-2.9-2.3h2.1c0,0.3,0.1,0.5,0.3,0.7s0.5,0.2,0.7,0.2
			c0.9,0,1.2-0.7,1.2-1.6v-1.1h0c-0.4,0.6-1.1,1.1-1.8,1.1c-1.8,0-2.6-1.2-2.6-4.4c0-2,0.3-4.4,2.7-4.4c0.6,0,1.4,0.3,1.8,1.2h0v-1
			H472z M468.7,222.2c0.9,0,1.2-1,1.2-2.5c0-2.1-0.3-2.9-1.2-2.9c-1,0-1.2,0.8-1.2,3.1C467.6,221.2,467.8,222.2,468.7,222.2z"/>
		<path d="M480.5,212.6l1.6,8.5h0l1.7-8.5h2.4l-2.6,11.4h-3l-2.6-11.4H480.5z"/>
		<path d="M487.7,212.4h2.2v1.9h-2.2V212.4z M487.7,215.4h2.2v8.6h-2.2V215.4z"/>
		<path d="M494,220v0.7c0,1,0.3,2,1.1,2c0.7,0,1-0.6,1.2-1.6h2c-0.1,2-1,3.1-3.1,3.1c-3.2,0-3.3-2.5-3.3-4.6c0-2.3,0.4-4.4,3.4-4.4
			c2.6,0,3.2,1.7,3.2,4.4v0.5H494z M496.3,218.7c0-1.3-0.2-2-1.1-2c-0.9,0-1.1,0.9-1.1,1.7v0.3H496.3z"/>
		<path d="M500.2,215.4h2.1v1h0c0.5-0.8,1.3-1.2,2.2-1.2c1.4,0,2.2,0.8,2.2,2.4v6.4h-2.2v-5.9c0-0.9-0.3-1.2-0.9-1.2
			c-0.8,0-1.2,0.5-1.2,1.4v5.7h-2.2V215.4z"/>
		<path d="M515.3,215.4v8.2c0,2.3-1,3.4-3.6,3.4c-1.9,0-2.9-0.8-2.9-2.3h2.1c0,0.3,0.1,0.5,0.3,0.7s0.5,0.2,0.7,0.2
			c0.9,0,1.2-0.7,1.2-1.6v-1.1h0c-0.4,0.6-1.1,1.1-1.8,1.1c-1.8,0-2.6-1.2-2.6-4.4c0-2,0.3-4.4,2.7-4.4c0.6,0,1.4,0.3,1.8,1.2h0v-1
			H515.3z M512,222.2c0.9,0,1.2-1,1.2-2.5c0-2.1-0.3-2.9-1.2-2.9c-1,0-1.2,0.8-1.2,3.1C510.9,221.2,511,222.2,512,222.2z"/>
	</g>
</g>
<g>
	<g>
		<path class="st6" d="M546.4,278.7h2.6l1.2,6h0l1.2-6h2.6v8.6h-1.6v-6.8h0l-1.5,6.8h-1.3l-1.5-6.8h0v6.8h-1.6V278.7z"/>
		<path class="st6" d="M557.1,284.3v0.5c0,0.8,0.2,1.5,0.8,1.5c0.6,0,0.8-0.4,0.9-1.2h1.5c-0.1,1.5-0.8,2.3-2.3,2.3
			c-2.4,0-2.5-1.8-2.5-3.5c0-1.7,0.3-3.3,2.6-3.3c1.9,0,2.4,1.3,2.4,3.3v0.4H557.1z M558.8,283.3c0-1-0.2-1.5-0.8-1.5
			c-0.7,0-0.9,0.7-0.9,1.3v0.3H558.8z"/>
		<path class="st6" d="M563.5,278.7v4.5h0l1.7-2.4h1.8l-1.9,2.5l2.1,3.9h-1.8l-1.4-2.7l-0.6,0.8v1.9h-1.7v-8.6H563.5z"/>
		<path class="st6" d="M570.5,280.6c2,0,2.5,1.2,2.5,3.4c0,2.2-0.6,3.4-2.5,3.4c-2,0-2.5-1.2-2.5-3.4
			C568,281.8,568.7,280.6,570.5,280.6z M570.5,286.3c0.7,0,0.9-0.7,0.9-2.3c0-1.6-0.2-2.3-0.9-2.3c-0.8,0-0.9,0.9-0.9,2.3
			S569.7,286.3,570.5,286.3z"/>
		<path class="st6" d="M574.5,280.8h1.6v0.8h0c0.3-0.6,0.9-0.9,1.6-0.9c1,0,1.6,0.6,1.6,1.8v4.8h-1.7v-4.4c0-0.6-0.2-0.9-0.7-0.9
			c-0.6,0-0.9,0.3-0.9,1.1v4.3h-1.7V280.8z"/>
		<path class="st6" d="M585.8,280.8v6.1c0,1.7-0.8,2.5-2.7,2.5c-1.4,0-2.2-0.6-2.2-1.7h1.6c0,0.2,0.1,0.4,0.3,0.5s0.3,0.2,0.6,0.2
			c0.7,0,0.9-0.5,0.9-1.2v-0.9h0c-0.3,0.5-0.9,0.8-1.4,0.8c-1.3,0-2-0.9-2-3.3c0-1.5,0.2-3.3,2-3.3c0.5,0,1,0.2,1.3,0.9h0v-0.7
			H585.8z M583.3,285.9c0.7,0,0.9-0.8,0.9-1.8c0-1.6-0.2-2.2-0.9-2.2c-0.7,0-0.9,0.6-0.9,2.3C582.5,285.1,582.6,285.9,583.3,285.9z"
			/>
	</g>
</g>
<g>
	<g>
		<path d="M426.6,167.1v-11.4h2.3v9.5h4.1v1.9H426.6z"/>
		<path d="M439,166.1L439,166.1c-0.5,0.8-1.3,1.2-2.2,1.2c-1.4,0-2.2-0.8-2.2-2.4v-6.4h2.2v5.9c0,0.9,0.3,1.2,0.9,1.2
			c0.8,0,1.2-0.5,1.2-1.4v-5.7h2.2v8.6H439V166.1z"/>
		<path d="M443.2,161.1v-0.2c0-2,1.4-2.7,3-2.7c2.6,0,3.1,1.1,3.1,2.6v4.5c0,0.8,0,1.2,0.3,1.7h-2.1c-0.1-0.3-0.2-0.6-0.3-0.9h0
			c-0.5,0.9-1.1,1.1-2.2,1.1c-1.5,0-2.1-1.3-2.1-2.5c0-1.6,0.7-2.3,2.2-2.7l1.2-0.3c0.7-0.2,0.9-0.4,0.9-1c0-0.7-0.3-1.1-1-1.1
			c-0.7,0-1,0.4-1,1.1v0.2H443.2z M447.2,162.8c-0.3,0.2-0.7,0.4-0.9,0.4c-0.9,0.2-1.2,0.6-1.2,1.4c0,0.7,0.2,1.2,0.8,1.2
			c0.6,0,1.4-0.4,1.4-1.3V162.8z"/>
		<path d="M451.6,158.5h2.1v1h0c0.5-0.8,1.3-1.2,2.2-1.2c1.4,0,2.2,0.8,2.2,2.4v6.4h-2.2v-5.9c0-0.9-0.3-1.2-0.9-1.2
			c-0.8,0-1.2,0.5-1.2,1.4v5.7h-2.2V158.5z"/>
		<path d="M466.6,158.5v8.2c0,2.3-1,3.4-3.6,3.4c-1.9,0-2.9-0.8-2.9-2.3h2.1c0,0.3,0.1,0.5,0.3,0.7s0.5,0.2,0.7,0.2
			c0.9,0,1.2-0.7,1.2-1.6V166h0c-0.4,0.6-1.1,1.1-1.8,1.1c-1.8,0-2.6-1.2-2.6-4.4c0-2,0.3-4.4,2.7-4.4c0.6,0,1.4,0.3,1.8,1.2h0v-1
			H466.6z M463.3,165.3c0.9,0,1.2-1,1.2-2.5c0-2.1-0.3-2.9-1.2-2.9c-1,0-1.2,0.8-1.2,3.1C462.2,164.3,462.4,165.3,463.3,165.3z"/>
		<path d="M426.6,171.7h4c2.3,0,3.1,1.7,3.1,3.4c0,2.4-1.5,3.4-3.6,3.4h-1.2v4.6h-2.3V171.7z M428.9,176.9h1c0.9,0,1.5-0.5,1.5-1.7
			c0-1.1-0.4-1.8-1.6-1.8h-1V176.9z"/>
		<path d="M435.5,174.5h2.1v1.2h0c0.4-0.8,1.1-1.4,2-1.4c0.1,0,0.3,0,0.4,0v2.1c-0.2,0-0.5,0-0.7,0c-0.8,0-1.6,0.4-1.6,1.6v5.2h-2.2
			V174.5z"/>
		<path d="M441.4,177.1v-0.2c0-2,1.4-2.7,3-2.7c2.6,0,3.1,1.1,3.1,2.6v4.5c0,0.8,0,1.2,0.3,1.7h-2.1c-0.1-0.3-0.2-0.6-0.3-0.9h0
			c-0.5,0.9-1.1,1.1-2.2,1.1c-1.5,0-2.1-1.3-2.1-2.5c0-1.6,0.7-2.3,2.2-2.7l1.2-0.3c0.7-0.2,0.9-0.4,0.9-1c0-0.7-0.3-1.1-1-1.1
			c-0.7,0-1,0.4-1,1.1v0.2H441.4z M445.5,178.8c-0.3,0.2-0.7,0.4-0.9,0.4c-0.9,0.2-1.2,0.6-1.2,1.4c0,0.7,0.2,1.2,0.8,1.2
			c0.6,0,1.4-0.4,1.4-1.3V178.8z"/>
		<path d="M449.8,171.7h2.2v3.6h0c0.5-0.7,1-1,1.9-1c1.8,0,2.6,1.3,2.6,4.5s-0.8,4.5-2.6,4.5c-0.9,0-1.5-0.3-2-1.1h0v0.9h-2.1V171.7
			z M453.2,181.6c1,0,1.2-1,1.2-2.8c0-1.9-0.2-2.8-1.2-2.8c-1,0-1.2,1-1.2,2.8C452,180.7,452.2,181.6,453.2,181.6z"/>
		<path d="M458.4,177.1v-0.2c0-2,1.4-2.7,3-2.7c2.6,0,3.1,1.1,3.1,2.6v4.5c0,0.8,0,1.2,0.3,1.7h-2.1c-0.1-0.3-0.2-0.6-0.3-0.9h0
			c-0.5,0.9-1.1,1.1-2.2,1.1c-1.5,0-2.1-1.3-2.1-2.5c0-1.6,0.7-2.3,2.2-2.7l1.2-0.3c0.7-0.2,0.9-0.4,0.9-1c0-0.7-0.3-1.1-1-1.1
			c-0.7,0-1,0.4-1,1.1v0.2H458.4z M462.4,178.8c-0.3,0.2-0.7,0.4-0.9,0.4c-0.9,0.2-1.2,0.6-1.2,1.4c0,0.7,0.2,1.2,0.8,1.2
			c0.6,0,1.4-0.4,1.4-1.3V178.8z"/>
		<path d="M466.8,174.5h2.1v1h0c0.5-0.8,1.3-1.2,2.2-1.2c1.4,0,2.2,0.8,2.2,2.4v6.4h-2.2v-5.9c0-0.9-0.3-1.2-0.9-1.2
			c-0.8,0-1.2,0.5-1.2,1.4v5.7h-2.2V174.5z"/>
		<path d="M481.8,174.5v8.2c0,2.3-1,3.4-3.6,3.4c-1.9,0-2.9-0.8-2.9-2.3h2.1c0,0.3,0.1,0.5,0.3,0.7s0.5,0.2,0.7,0.2
			c0.9,0,1.2-0.7,1.2-1.6V182h0c-0.4,0.6-1.1,1.1-1.8,1.1c-1.8,0-2.6-1.2-2.6-4.4c0-2,0.3-4.4,2.7-4.4c0.6,0,1.4,0.3,1.8,1.2h0v-1
			H481.8z M478.5,181.3c0.9,0,1.2-1,1.2-2.5c0-2.1-0.3-2.9-1.2-2.9c-1,0-1.2,0.8-1.2,3.1C477.4,180.3,477.6,181.3,478.5,181.3z"/>
	</g>
</g>
<g>
	<g>
		<path d="M337.4,136.4h4c2.3,0,3.1,1.7,3.1,3.4c0,2.4-1.5,3.4-3.6,3.4h-1.2v4.6h-2.3V136.4z M339.7,141.6h1c0.9,0,1.5-0.5,1.5-1.7
			c0-1.1-0.4-1.8-1.6-1.8h-1V141.6z"/>
		<path d="M346.2,141.9v-0.2c0-2,1.4-2.7,3-2.7c2.6,0,3.1,1.1,3.1,2.6v4.5c0,0.8,0,1.2,0.3,1.7h-2.1c-0.1-0.3-0.2-0.6-0.3-0.9h0
			c-0.5,0.9-1.1,1.1-2.2,1.1c-1.5,0-2.1-1.3-2.1-2.5c0-1.6,0.7-2.3,2.2-2.7l1.2-0.3c0.7-0.2,0.9-0.4,0.9-1c0-0.7-0.3-1.1-1-1.1
			c-0.7,0-1,0.4-1,1.1v0.2H346.2z M350.3,143.6c-0.3,0.2-0.7,0.4-0.9,0.4c-0.9,0.2-1.2,0.6-1.2,1.4c0,0.7,0.2,1.2,0.8,1.2
			s1.4-0.4,1.4-1.3V143.6z"/>
		<path d="M356.9,136.4v6h0l2.2-3.2h2.4l-2.5,3.4l2.8,5.2h-2.4l-1.8-3.5l-0.8,1v2.5h-2.2v-11.4H356.9z"/>
		<path d="M367.8,136.4h3.9c1.9,0,3.2,0.7,3.2,2.9c0,1.2-0.6,2.2-1.7,2.5v0c1.3,0.2,2.1,1.1,2.1,2.7c0,1.8-0.9,3.3-3.6,3.3h-3.9
			V136.4z M370.1,141.1h0.7c1.3,0,1.8-0.4,1.8-1.5c0-1.1-0.5-1.5-1.7-1.5h-0.8V141.1z M370.1,146.2h0.9c1.1,0,1.9-0.4,1.9-1.7
			s-0.8-1.7-1.8-1.7h-1V146.2z"/>
		<path d="M379.1,143.9v0.7c0,1,0.3,2,1.1,2c0.7,0,1-0.6,1.2-1.6h2c-0.1,2-1,3.1-3.1,3.1c-3.2,0-3.3-2.5-3.3-4.6
			c0-2.3,0.4-4.4,3.4-4.4c2.6,0,3.2,1.7,3.2,4.4v0.5H379.1z M381.4,142.6c0-1.3-0.2-2-1.1-2c-0.9,0-1.1,0.9-1.1,1.7v0.3H381.4z"/>
		<path d="M385.3,139.3h2.1v1h0c0.5-0.8,1.3-1.2,2.2-1.2c1.4,0,2.2,0.8,2.2,2.4v6.4h-2.2v-5.9c0-0.9-0.3-1.2-0.9-1.2
			c-0.8,0-1.2,0.5-1.2,1.4v5.7h-2.2V139.3z"/>
		<path d="M400.4,139.3v8.2c0,2.3-1,3.4-3.6,3.4c-1.9,0-2.9-0.8-2.9-2.3h2.1c0,0.3,0.1,0.5,0.3,0.7s0.5,0.2,0.7,0.2
			c0.9,0,1.2-0.7,1.2-1.6v-1.1h0c-0.4,0.6-1.1,1.1-1.8,1.1c-1.8,0-2.6-1.2-2.6-4.4c0-2,0.3-4.4,2.7-4.4c0.6,0,1.4,0.3,1.8,1.2h0v-1
			H400.4z M397.1,146.1c0.9,0,1.2-1,1.2-2.5c0-2.1-0.3-2.9-1.2-2.9c-1,0-1.2,0.8-1.2,3.1C396,145,396.1,146.1,397.1,146.1z"/>
	</g>
</g>
<g>
	<g>
		<path d="M208.5,140.3c0-1.7-0.3-2.4-1.4-2.4c-1.2,0-1.4,1.2-1.4,4.4c0,3.5,0.5,4.1,1.5,4.1c0.8,0,1.4-0.4,1.4-2.9h2.3
			c0,2.5-0.6,4.6-3.6,4.6c-3.5,0-3.9-2.5-3.9-5.9c0-3.5,0.4-5.9,3.9-5.9c3.3,0,3.5,2.4,3.5,4.1H208.5z"/>
		<path d="M212.8,136.4h2.2v3.7h0c0.4-0.7,1.2-1.1,2.1-1.1c1.4,0,2.2,0.8,2.2,2.4v6.4h-2.2v-5.9c0-0.9-0.3-1.2-0.9-1.2
			c-0.8,0-1.2,0.5-1.2,1.4v5.7h-2.2V136.4z"/>
		<path d="M221.5,136.3h2.2v1.9h-2.2V136.3z M221.5,139.3h2.2v8.6h-2.2V139.3z"/>
		<path d="M225.9,141.9v-0.2c0-2,1.4-2.7,3-2.7c2.6,0,3.1,1.1,3.1,2.6v4.5c0,0.8,0,1.2,0.3,1.7h-2.1c-0.1-0.3-0.2-0.6-0.3-0.9h0
			c-0.5,0.9-1.1,1.1-2.2,1.1c-1.5,0-2.1-1.3-2.1-2.5c0-1.6,0.7-2.3,2.2-2.7l1.2-0.3c0.7-0.2,0.9-0.4,0.9-1c0-0.7-0.3-1.1-1-1.1
			c-0.7,0-1,0.4-1,1.1v0.2H225.9z M229.9,143.6c-0.3,0.2-0.7,0.4-0.9,0.4c-0.9,0.2-1.2,0.6-1.2,1.4c0,0.7,0.2,1.2,0.8,1.2
			s1.4-0.4,1.4-1.3V143.6z"/>
		<path d="M234.2,139.3h2.1v1h0c0.5-0.8,1.3-1.2,2.2-1.2c1.4,0,2.2,0.8,2.2,2.4v6.4h-2.2v-5.9c0-0.9-0.3-1.2-0.9-1.2
			c-0.8,0-1.2,0.5-1.2,1.4v5.7h-2.2V139.3z"/>
		<path d="M249.3,139.3v8.2c0,2.3-1,3.4-3.6,3.4c-1.9,0-2.9-0.8-2.9-2.3h2.1c0,0.3,0.1,0.5,0.3,0.7c0.2,0.1,0.5,0.2,0.7,0.2
			c0.9,0,1.2-0.7,1.2-1.6v-1.1h0c-0.4,0.6-1.1,1.1-1.8,1.1c-1.8,0-2.6-1.2-2.6-4.4c0-2,0.3-4.4,2.7-4.4c0.6,0,1.4,0.3,1.8,1.2h0v-1
			H249.3z M246,146.1c0.9,0,1.2-1,1.2-2.5c0-2.1-0.3-2.9-1.2-2.9c-1,0-1.2,0.8-1.2,3.1C244.9,145,245.1,146.1,246,146.1z"/>
		<path d="M258.3,136.4v4.6h0l2.9-4.6h2.5l-3.1,4.9l3.5,6.5h-2.6l-2.4-4.7l-0.8,1.3v3.4H256v-11.4H258.3z"/>
		<path d="M265.2,136.4h2.2v3.7h0c0.4-0.7,1.2-1.1,2.1-1.1c1.4,0,2.2,0.8,2.2,2.4v6.4h-2.2v-5.9c0-0.9-0.3-1.2-0.9-1.2
			c-0.8,0-1.2,0.5-1.2,1.4v5.7h-2.2V136.4z"/>
		<path d="M277,139c2.7,0,3.4,1.5,3.4,4.5c0,2.9-0.9,4.5-3.4,4.5c-2.7,0-3.4-1.5-3.4-4.5C273.6,140.6,274.4,139,277,139z M277,146.6
			c0.9,0,1.2-0.9,1.2-3s-0.3-3-1.2-3c-1.1,0-1.2,1.3-1.2,3S275.9,146.6,277,146.6z"/>
		<path d="M282.2,139.3h2.1v1h0c0.5-0.8,1.3-1.2,2.2-1.2c1.4,0,2.2,0.8,2.2,2.4v6.4h-2.2v-5.9c0-0.9-0.3-1.2-0.9-1.2
			c-0.8,0-1.2,0.5-1.2,1.4v5.7h-2.2V139.3z"/>
		<path d="M297.3,139.3v8.2c0,2.3-1,3.4-3.6,3.4c-1.9,0-2.9-0.8-2.9-2.3h2.1c0,0.3,0.1,0.5,0.3,0.7s0.5,0.2,0.7,0.2
			c0.9,0,1.2-0.7,1.2-1.6v-1.1h0c-0.4,0.6-1.1,1.1-1.8,1.1c-1.8,0-2.6-1.2-2.6-4.4c0-2,0.3-4.4,2.7-4.4c0.6,0,1.4,0.3,1.8,1.2h0v-1
			H297.3z M293.9,146.1c0.9,0,1.2-1,1.2-2.5c0-2.1-0.3-2.9-1.2-2.9c-1,0-1.2,0.8-1.2,3.1C292.8,145,293,146.1,293.9,146.1z"/>
	</g>
</g>
<path class="st7" d="M222.9,228.3c0-2.3,1.9-4.3,4.3-4.3c2.3,0,4.3,1.9,4.3,4.3s-1.9,4.3-4.3,4.3
	C224.8,232.5,222.9,230.6,222.9,228.3L222.9,228.3z"/>
<path class="st7" d="M308,139.5c0-2.3,1.9-4.3,4.3-4.3c2.3,0,4.3,1.9,4.3,4.3s-1.9,4.3-4.3,4.3C309.9,143.8,308,141.8,308,139.5
	L308,139.5z"/>
<path class="st7" d="M434.9,276.9c0-2.3,1.9-4.3,4.3-4.3c2.3,0,4.3,1.9,4.3,4.3c0,2.3-1.9,4.3-4.3,4.3
	C436.8,281.1,434.9,279.2,434.9,276.9L434.9,276.9z"/>
<path class="st7" d="M409.4,162.9c0-2.3,1.9-4.3,4.3-4.3c2.3,0,4.3,1.9,4.3,4.3c0,2.3-1.9,4.3-4.3,4.3
	C411.3,167.1,409.4,165.2,409.4,162.9L409.4,162.9z"/>
<path class="st7" d="M272.4,340c0-2.3,1.9-4.3,4.3-4.3c2.3,0,4.3,1.9,4.3,4.3c0,2.3-1.9,4.3-4.3,4.3
	C274.3,344.3,272.4,342.4,272.4,340L272.4,340z"/>
<path class="st7" d="M423.7,219.9c0-2.3,1.9-4.3,4.3-4.3c2.3,0,4.3,1.9,4.3,4.3c0,2.3-1.9,4.3-4.3,4.3
	C425.6,224.1,423.7,222.2,423.7,219.9L423.7,219.9z"/>
<path class="st7" d="M343.4,156.9c0-2.3,1.9-4.3,4.3-4.3c2.3,0,4.3,1.9,4.3,4.3c0,2.3-1.9,4.3-4.3,4.3
	C345.3,161.1,343.4,159.2,343.4,156.9L343.4,156.9z"/>
<path class="st7" d="M317.2,536.8c0-2.3,1.9-4.3,4.3-4.3c2.3,0,4.3,1.9,4.3,4.3c0,2.3-1.9,4.3-4.3,4.3
	C319.1,541.1,317.2,539.2,317.2,536.8L317.2,536.8z"/>
<path class="st7" d="M284.2,792c0-2.3,1.9-4.3,4.3-4.3c2.3,0,4.3,1.9,4.3,4.3c0,2.3-1.9,4.3-4.3,4.3
	C286.1,796.2,284.2,794.3,284.2,792L284.2,792z"/>
<g>
	<path class="st6" d="M463.6,802.2c-0.9,1.1-2,1.6-3.1,1.6c-3.5,0-5.6-2.6-5.6-5.9c0-3.4,2.1-6,5.6-6c2.3,0,4.5,1.4,4.8,4h-2.4
		c-0.3-1.3-1.2-1.9-2.4-1.9c-2.3,0-3.1,1.9-3.1,3.9c0,1.9,0.8,3.8,3.1,3.8c1.6,0,2.6-0.9,2.7-2.5h-2.5v-1.9h4.8v6.2h-1.6
		L463.6,802.2z"/>
	<path class="st6" d="M475.8,791.8c3.5,0,5.6,2.6,5.6,6c0,3.3-2.1,5.9-5.6,5.9c-3.5,0-5.6-2.6-5.6-5.9
		C470.2,794.4,472.3,791.8,475.8,791.8z M475.8,801.6c2.3,0,3.1-1.9,3.1-3.8c0-2-0.8-3.9-3.1-3.9s-3.1,1.9-3.1,3.9
		C472.7,799.7,473.6,801.6,475.8,801.6z"/>
	<path class="st6" d="M486.3,792h2.5v9.3h5.6v2.1h-8.1V792z"/>
	<path class="st6" d="M499,792h8v2.1h-5.5v2.6h4.8v2h-4.8v4.7H499V792z"/>
	<path class="st6" d="M524.7,803.5h-2.8l-3.7-11.4h2.6l2.5,8h0l2.6-8h2.6L524.7,803.5z"/>
	<path class="st6" d="M537.8,791.8c3.5,0,5.6,2.6,5.6,6c0,3.3-2.1,5.9-5.6,5.9s-5.6-2.6-5.6-5.9
		C532.2,794.4,534.2,791.8,537.8,791.8z M537.8,801.6c2.3,0,3.1-1.9,3.1-3.8c0-2-0.8-3.9-3.1-3.9s-3.1,1.9-3.1,3.9
		C534.7,799.7,535.5,801.6,537.8,801.6z"/>
	<path class="st6" d="M548.3,792h2.5l4.8,7.7h0V792h2.4v11.4h-2.5l-4.8-7.7h0v7.7h-2.4V792z"/>
	<path class="st6" d="M462.2,813.4h-3.4v-2.1h9.4v2.1h-3.4v9.3h-2.5V813.4z"/>
	<path class="st6" d="M472.6,811.2h2.5v4.4h4.6v-4.4h2.5v11.4h-2.5v-4.9h-4.6v4.9h-2.5V811.2z"/>
	<path class="st6" d="M490.8,811.2h2.6l4.3,11.4H495l-0.9-2.5h-4.3l-0.9,2.5h-2.5L490.8,811.2z M490.6,818.2h3l-1.4-4.2h0
		L490.6,818.2z"/>
	<path class="st6" d="M501.8,811.2h2.5v11.4h-2.5V811.2z"/>
	<path class="st6" d="M509.8,811.2h2.5v9.3h5.6v2.1h-8.1V811.2z"/>
	<path class="st6" d="M525.6,811.2h2.6l4.3,11.4h-2.6l-0.9-2.5h-4.3l-0.9,2.5h-2.5L525.6,811.2z M525.3,818.2h3l-1.4-4.2h0
		L525.3,818.2z"/>
	<path class="st6" d="M536.6,811.2h2.5l4.8,7.7h0v-7.7h2.4v11.4h-2.5L539,815h0v7.7h-2.4V811.2z"/>
	<path class="st6" d="M551.7,811.2h4.9c3,0,5.2,1.9,5.2,5.7c0,3.3-1.7,5.8-5.2,5.8h-4.9V811.2z M554.2,820.6h2.2
		c1.5,0,2.8-0.9,2.8-3.4c0-2.3-0.8-3.8-3.3-3.8h-1.8V820.6z"/>
</g>
<g>
	<path class="st6" d="M4.3,792h2.6l4.3,11.4H8.6l-0.9-2.5H3.4l-0.9,2.5H0L4.3,792z M4.1,799h3l-1.4-4.2h0L4.1,799z"/>
	<path class="st6" d="M15.4,792h2.5l4.8,7.7h0V792H25v11.4h-2.5l-4.8-7.7h0v7.7h-2.4V792z"/>
	<path class="st6" d="M30.4,792h4.9c3,0,5.2,1.9,5.2,5.7c0,3.3-1.7,5.8-5.2,5.8h-4.9V792z M32.9,801.4h2.2c1.5,0,2.8-0.9,2.8-3.4
		c0-2.3-0.8-3.8-3.3-3.8h-1.8V801.4z"/>
	<path class="st6" d="M48.6,792h2.6l4.3,11.4h-2.6l-0.9-2.5h-4.3l-0.9,2.5h-2.5L48.6,792z M48.4,799h3l-1.4-4.2h0L48.4,799z"/>
	<path class="st6" d="M59.6,792h3.5l2.7,7.9h0l2.5-7.9H72v11.4h-2.4v-8.1h0l-2.8,8.1h-1.9l-2.8-8h0v8h-2.4V792z"/>
	<path class="st6" d="M80.5,792h2.6l4.3,11.4h-2.6l-0.9-2.5h-4.3l-0.9,2.5h-2.5L80.5,792z M80.2,799h3l-1.4-4.2h0L80.2,799z"/>
	<path class="st6" d="M91.5,792H94l4.8,7.7h0V792h2.4v11.4h-2.5l-4.8-7.7h0v7.7h-2.4V792z"/>
	<path class="st6" d="M106.6,792h8.5v2.1h-6v2.4h5.5v2h-5.5v2.8h6.2v2.1h-8.7V792z"/>
	<path class="st6" d="M120.1,792h2.5l4.8,7.7h0V792h2.4v11.4h-2.5l-4.8-7.7h0v7.7h-2.4V792z"/>
	<path class="st6" d="M134.9,798.1h4.8v2h-4.8V798.1z"/>
	<path class="st6" d="M54.4,818.9c0,1.5,1.2,2.1,2.5,2.1c0.9,0,2.2-0.3,2.2-1.4c0-1.2-1.7-1.4-3.4-1.9c-1.7-0.4-3.4-1.1-3.4-3.2
		c0-2.3,2.2-3.5,4.3-3.5c2.4,0,4.6,1,4.6,3.7h-2.4c-0.1-1.4-1.1-1.7-2.3-1.7c-0.8,0-1.7,0.3-1.7,1.3c0,0.9,0.5,1,3.4,1.7
		c0.8,0.2,3.4,0.7,3.4,3.3c0,2.1-1.6,3.7-4.8,3.7c-2.5,0-4.9-1.2-4.9-4.1H54.4z"/>
	<path class="st6" d="M66.3,811.2h8.5v2.1h-6v2.4h5.5v2h-5.5v2.8H75v2.1h-8.7V811.2z"/>
	<path class="st6" d="M79.9,811.2h8.5v2.1h-6v2.4h5.5v2h-5.5v2.8h6.2v2.1h-8.7V811.2z"/>
</g>
<g>
	<path class="st8" d="M328.6,518.7c0,3.4-3.1,6.1-6.9,6.1c-3.8,0-6.9-2.7-6.9-6.1s3.1-6.1,6.9-6.1
		C325.5,512.6,328.6,515.3,328.6,518.7z"/>
	<path class="st9" d="M321.4,523.2c-2.6,0-4.7-2.1-4.7-4.7c0-2.6,2.1-4.7,4.7-4.7s4.7,2.1,4.7,4.7C326,521.1,324,523.2,321.4,523.2z
		 M321.4,509.6c-5,0-9,4-9,9c0,2,1.3,5.3,3.9,10c1.9,3.3,3.7,6.1,3.8,6.2l1.3,2l1.3-2c0.1-0.1,1.9-2.9,3.8-6.2c2.6-4.7,3.9-8,3.9-10
		C330.4,513.6,326.3,509.6,321.4,509.6z"/>
</g>
<g>
	<path d="M438.5,425.4h-3.4v-2.1h9.4v2.1h-3.4v9.3h-2.5V425.4z"/>
	<path d="M449,423.2h2.5v4.4h4.6v-4.4h2.5v11.4h-2.5v-4.9h-4.6v4.9H449V423.2z"/>
	<path d="M467.2,423.2h2.6l4.3,11.4h-2.6l-0.9-2.5h-4.3l-0.9,2.5h-2.5L467.2,423.2z M466.9,430.2h3l-1.4-4.2h0L466.9,430.2z"/>
	<path d="M478.2,423.2h2.5v11.4h-2.5V423.2z"/>
	<path d="M486.1,423.2h2.5v9.3h5.6v2.1h-8.1V423.2z"/>
	<path d="M501.9,423.2h2.6l4.3,11.4h-2.6l-0.9-2.5H501l-0.9,2.5h-2.5L501.9,423.2z M501.7,430.2h3l-1.4-4.2h0L501.7,430.2z"/>
	<path d="M513,423.2h2.5l4.8,7.7h0v-7.7h2.4v11.4h-2.5l-4.8-7.7h0v7.7H513V423.2z"/>
	<path d="M528,423.2h4.9c3,0,5.2,1.9,5.2,5.7c0,3.3-1.7,5.8-5.2,5.8H528V423.2z M530.5,432.6h2.2c1.5,0,2.8-0.9,2.8-3.4
		c0-2.3-0.8-3.8-3.3-3.8h-1.8V432.6z"/>
</g>
<g>
	<path d="M397.2,111.2h2.5v9.3h5.6v2.1h-8.1V111.2z"/>
	<path d="M413,111.2h2.6l4.3,11.4h-2.6l-0.9-2.5h-4.3l-0.9,2.5h-2.5L413,111.2z M412.8,118.3h3l-1.4-4.2h0L412.8,118.3z"/>
	<path d="M429.2,111c3.5,0,5.6,2.6,5.6,6c0,3.3-2.1,5.9-5.6,5.9s-5.6-2.6-5.6-5.9C423.6,113.6,425.6,111,429.2,111z M429.2,120.8
		c2.3,0,3.1-1.9,3.1-3.8c0-2-0.8-3.9-3.1-3.9s-3.1,1.9-3.1,3.9C426.1,118.9,426.9,120.8,429.2,120.8z"/>
	<path d="M441.4,118.9c0,1.5,1.2,2.1,2.5,2.1c0.9,0,2.2-0.3,2.2-1.4c0-1.2-1.7-1.4-3.4-1.9c-1.7-0.4-3.4-1.1-3.4-3.2
		c0-2.3,2.2-3.5,4.3-3.5c2.4,0,4.6,1,4.6,3.7h-2.4c-0.1-1.4-1.1-1.7-2.3-1.7c-0.8,0-1.7,0.3-1.7,1.3c0,0.9,0.5,1,3.4,1.7
		c0.8,0.2,3.4,0.7,3.4,3.3c0,2.1-1.6,3.7-4.8,3.7c-2.5,0-4.9-1.2-4.9-4.1H441.4z"/>
</g>
</svg>
