<?xml version="1.0" encoding="utf-8"?>
<!-- Generator: Adobe Illustrator 25.0.1, SVG Export Plug-In . SVG Version: 6.00 Build 0)  -->
<svg version="1.1" id="Ebene_1" xmlns="http://www.w3.org/2000/svg" xmlns:xlink="http://www.w3.org/1999/xlink" x="0px" y="0px"
	 viewBox="0 0 520.9 939.6" style="enable-background:new 0 0 520.9 939.6;" xml:space="preserve">
<style type="text/css">
	.st0{fill:#D9D9D9;}
	.st1{fill:#1F1F1E;}
	.st2{fill:#52A0D8;}
	.st3{fill:none;stroke:#52A0D8;stroke-miterlimit:3.8637;}
	.st4{fill:#010101;}
	.st5{fill:none;stroke:#F9A55C;stroke-width:2;stroke-miterlimit:10;stroke-dasharray:4,4;}
	.st6{fill:none;stroke:#F9A55C;stroke-width:2;stroke-miterlimit:3.8637;}
	.st7{fill:#EDEDEC;}
	.st8{fill:#4A96D2;}
	.st9{fill:none;stroke:#DB872C;stroke-width:2;stroke-linecap:round;stroke-miterlimit:3.8637;}
	.st10{fill:none;stroke:#F9A55C;stroke-width:2;}
	.st11{fill:#1D1E1B;}
	.st12{fill:#FFFFFF;}
	.st13{fill:#F9A55C;}
</style>
<g id="Myanmar">
	<path class="st0" d="M1.8,299.9c5-1.7,14,6.3,14,6.3s-2-20-0.7-24.7s0.7-9.3,3.3-10.7s6.6,6.6,8.6,5.8s5-7.5,7.2-8.8
		s5.2-6.5,4.8-8.5s-7.2-14-5-18.5s-0.2-6.2,2.2-7.2s4,2.8,5.2,1.8s3.8-20,3.8-24.5s1-10-0.8-12.2s-5.5-8.2-3.8-9.5s6.5,6,8.5,5.8
		s12-1,15,0.2c3,1.2,9.8,5.2,11.5,4s1.2-15.8,4.2-20s17-26.2,17.2-28.5s-8-9.8-7.2-12s11.8-12.5,14.2-15.3s4.2-5.5,2.8-6.5
		s-0.2-3.2,1.8-4.8s4.2-5.2,3-8.2s-4.2-11.5-1.5-16s15.2-10,17.7-12.5s13.2-9.5,14.8-11.5s6-9.2,9-9.5s15-2,18-2.2s6.5,0,7.5,3
		s1.8,4.8,4,5s5.5,3,7,2s-4-10-7-13s-3.8-6.2-2.5-8s8.5-10.2,10.5-11.8s6.2-0.5,7.5-2s-2.2-10-0.5-12.2s6.2-3.8,6.2-5.5
		s1.5-10,3.2-9.8s3,2.2,4.8,2.5s1.2,5.5,2.5,6.2s3.8-2,5.2-1.5s3,4.5,4.5,5.2s4.2,1.8,4.2,5.5s3.8,16.8,5.8,20s0.8,4.8,2.8,4.8
		s6.8-7.2,9.8-4s2.5,10,3.8,12.2s1.2,2-0.2,4.8s-2.8,3.5-1,5.5s6.5,11,5.2,18.8s-4.8,12.8-4.8,15s3.8,4,3,6.2s-2.8,1.8-4.2,1.8
		s-3.5,2-2.2,3.5s4.5,4.5,3.2,7s-5,1.2-6.8,2.5s-3,9.5-5.2,10.5s-5-2.5-6.5-0.8s-1.2,8.5-4.5,11.3s-3.8,4-7,4s-5.2,3-6,6
		s2.8,8.5,1.5,10.5s-5.8,2.5-7.2,5.8s-1.5,10,0.8,11.2s4.5-0.5,5.2,4s1.2,7.2-0.5,9s-6.2,7.8-3.8,10.2s19-11.8,23.5-11
		s14.2,2.2,16.8,1.5s9.3-4.5,10-2.2s-0.2,3.5-3,4.5c-2.8,1-6.2,3-6,5.8s8.5,7,8.5,9.5s-3.3,4.8-3.3,7s3.8,1.2,4,3.8s-0.5,9.8,2,11.2
		s5.2,0.8,6.5,5.2s7.2,13,9,14.8s2.5,10.2-1,13s-6.2,5.8-5.5,7.2s9.5,3.8,14.2,3.5s5.5,0,6.8,1.5s4.2,1.5,7,1.2s3.8-2,3.5,1.8
		s-0.5,11.5,1.2,12s6.8-1.8,7.2,0.8s-2.5,5-1.5,6.8s5,2.5,7.5,1.2s2.2-3,5-1s4,2.2,6.5,1.2s8.2-9,11.2-9.5s4.8-4.5,6-2s4.5,7.2,2,10
		s-7.5,7.2-10.2,8.2s-5.5-0.5-6.8,1.8s1,6-2,8.5s-5.8,3.2-5.5,4.8s2.2,2.5,4.8,2.5s1.8,0.5,1,2s-4.8,1.8-7.5,1.8s-8.2,1.2-8.2,1.2
		s-0.2,0.2-1.5,2.5s-1.8,6-2.5,8.2s-0.8,6.8-0.8,6.8L248.6,375l-26,17.2l3,45.8l25.2,39.2l16.5,27.8l-23.5,47l15.5,31.8l14.5,27.2
		l12.2,63.8v12.8l-25.5,44.2l-15.3,24c0,0-0.5-17.8-1-21s-2.8-9.2,0.8-12s6.8-6,7.5-10s1-25.2,1-25.2s-7.2-2.8-5.5-6s2-7.5,2-10.5
		s-5-9-4-12.5s3.8-17.8,0.8-26.2s-10.5-26-12.2-26s-1.8,5.5-4,5.2s-3-10.8-2.8-14s-0.8-8.8-2.2-11.2s-7.8-18-8.2-21s1.8-5.5,1-8.5
		s-5.2-13.2-4.5-18s-0.2-13.2-2.8-16.2s-3.2-4.2-3.2-8c0-3.7-3.2-9.5-3.2-11.7s-10.2-11.5-10.8-14.8s-1-7.8-2.5-10.5s-8-12.8-8-12.8
		s-2.5,3.5-2,6.2s2.2,5,0.8,8s-2.2,10.8-6.5,14.2s-15,3.2-15,3.2s1,5.5-2.2,6.5s-10.5,4.8-13.5,6s-4.8,0-6.5,2.8
		c-1.8,2.7-5.2,15-10.2,15.5s-15.5-3.2-15.5-3.2s-2,3.8-9.2,2.5s-18-6.6-21-7.6s-6.8-10-4.2-14.2s5.8-8.5,6.2-12s-1.5-10.2,1.2-13
		s6.8-12.5,6.2-14.8s-6-21.8-5.5-27.2s-0.5-9.8-2.5-13S71,404,71,399.6s0.2-9.8-1.5-11.5s-16-4-14.3-8.8s1.5-5.8,0.8-8.2
		s-8.5-14.8-12.5-15.2s-7.2,0.8-12-3s-5.5-6-6-9s-2.2-6.8-3.2-4.5s0.2,4.5-2,4.5S6.1,331.5,4.1,326.5s-3.5-15.8-4-18.8
		S1.8,299.9,1.8,299.9z"/>
	<g>
		<g>
			<path class="st1" d="M158.6,259.2h3.4l1.6,8.1l0,0l1.6-8.1h3.4v11.4h-2.1v-9.1l0,0l-2,9.1h-1.8l-2-9.1l0,0v9.1h-2.1L158.6,259.2
				L158.6,259.2z"/>
			<path class="st1" d="M170.9,264.6v-0.2c0-2,1.4-2.7,3-2.7c2.6,0,3.1,1.1,3.1,2.6v4.5c0,0.8,0,1.2,0.3,1.7h-2.1
				c-0.1-0.3-0.2-0.6-0.3-0.9l0,0c-0.5,0.9-1.1,1.1-2.2,1.1c-1.5,0-2.1-1.3-2.1-2.5c0-1.6,0.7-2.3,2.2-2.7l1.2-0.3
				c0.7-0.2,0.9-0.4,0.9-1c0-0.7-0.3-1.1-1-1.1s-1,0.4-1,1.1v0.2h-2L170.9,264.6L170.9,264.6z M175,266.3c-0.3,0.2-0.7,0.4-0.9,0.4
				c-0.9,0.2-1.2,0.6-1.2,1.4c0,0.7,0.2,1.2,0.8,1.2s1.4-0.4,1.4-1.3v-1.7H175z"/>
			<path class="st1" d="M179.3,262h2.1v1l0,0c0.5-0.8,1.3-1.2,2.2-1.2c1.4,0,2.2,0.8,2.2,2.4v6.4h-2.2v-5.9c0-0.9-0.3-1.2-0.9-1.2
				c-0.8,0-1.2,0.5-1.2,1.4v5.7h-2.2L179.3,262L179.3,262z"/>
			<path class="st1" d="M192.3,269.7L192.3,269.7c-0.5,0.8-1.1,1.1-2,1.1c-1.8,0-2.6-1.3-2.6-4.5s0.8-4.5,2.6-4.5
				c0.8,0,1.4,0.3,1.9,1l0,0v-3.6h2.2v11.4h-2.1L192.3,269.7L192.3,269.7z M191.1,269.1c1,0,1.2-1,1.2-2.8s-0.2-2.8-1.2-2.8
				s-1.2,1-1.2,2.8S190.1,269.1,191.1,269.1z"/>
			<path class="st1" d="M196.5,264.6v-0.2c0-2,1.4-2.7,3-2.7c2.6,0,3.1,1.1,3.1,2.6v4.5c0,0.8,0,1.2,0.3,1.7h-2.1
				c-0.1-0.3-0.2-0.6-0.3-0.9l0,0c-0.5,0.9-1.1,1.1-2.2,1.1c-1.5,0-2.1-1.3-2.1-2.5c0-1.6,0.7-2.3,2.2-2.7l1.2-0.3
				c0.7-0.2,0.9-0.4,0.9-1c0-0.7-0.3-1.1-1-1.1s-1,0.4-1,1.1v0.2h-2L196.5,264.6L196.5,264.6z M200.6,266.3
				c-0.3,0.2-0.7,0.4-0.9,0.4c-0.9,0.2-1.2,0.6-1.2,1.4c0,0.7,0.2,1.2,0.8,1.2s1.4-0.4,1.4-1.3v-1.7H200.6z"/>
			<path class="st1" d="M205,259.2h2.2v11.4H205V259.2z"/>
			<path class="st1" d="M209.4,264.6v-0.2c0-2,1.4-2.7,3-2.7c2.6,0,3.1,1.1,3.1,2.6v4.5c0,0.8,0,1.2,0.3,1.7h-2.1
				c-0.1-0.3-0.2-0.6-0.3-0.9l0,0c-0.5,0.9-1.1,1.1-2.2,1.1c-1.5,0-2.1-1.3-2.1-2.5c0-1.6,0.7-2.3,2.2-2.7l1.2-0.3
				c0.7-0.2,0.9-0.4,0.9-1c0-0.7-0.3-1.1-1-1.1s-1,0.4-1,1.1v0.2h-2L209.4,264.6L209.4,264.6z M213.4,266.3
				c-0.3,0.2-0.7,0.4-0.9,0.4c-0.9,0.2-1.2,0.6-1.2,1.4c0,0.7,0.2,1.2,0.8,1.2s1.4-0.4,1.4-1.3v-1.7H213.4z"/>
			<path class="st1" d="M217.7,271.8c0.2,0,0.4,0,0.6,0c0.8,0,1.1-0.4,1.2-1.2l-2.4-8.6h2.3l1.3,6l0,0l1.1-6h2.2l-2.1,8
				c-0.8,3-1.3,3.4-3.3,3.4h-0.9L217.7,271.8L217.7,271.8z"/>
		</g>
	</g>
	<g>
		<g>
			<path class="st1" d="M58.1,275.6h3.4l1.6,8.1l0,0l1.6-8.1h3.4V287H66v-9.1l0,0l-2,9.1h-1.8l-2-9.1l0,0v9.1h-2.1
				C58.1,287,58.1,275.6,58.1,275.6z"/>
			<path class="st1" d="M73.6,278.2c2.7,0,3.4,1.5,3.4,4.5c0,2.9-0.9,4.5-3.4,4.5c-2.7,0-3.4-1.5-3.4-4.5
				C70.2,279.8,71,278.2,73.6,278.2z M73.6,285.8c0.9,0,1.2-0.9,1.2-3s-0.3-3-1.2-3c-1.1,0-1.2,1.3-1.2,3S72.5,285.8,73.6,285.8z"/>
			<path class="st1" d="M78.8,278.5h2.1v1l0,0c0.5-0.8,1.3-1.2,2.2-1.2c1.4,0,2.2,0.8,2.2,2.4v6.4h-2.2v-5.9c0-0.9-0.3-1.2-0.9-1.2
				c-0.8,0-1.2,0.5-1.2,1.4v5.7h-2.2V278.5z"/>
			<path class="st1" d="M87.5,275.5h2.2v1.9h-2.2V275.5z M87.5,278.5h2.2v8.6h-2.2V278.5z"/>
			<path class="st1" d="M91.3,278.5h2.2l1,6.1l0,0l1.1-6.1H98l1.1,6.1l0,0l1-6.1h2.1l-1.9,8.6h-2.5l-1.1-6.1l0,0l-1.1,6.1H93
				L91.3,278.5z"/>
			<path class="st1" d="M103.8,281.1v-0.2c0-2,1.4-2.7,3-2.7c2.6,0,3.1,1.1,3.1,2.6v4.5c0,0.8,0,1.2,0.3,1.7h-2.1
				c-0.1-0.3-0.2-0.6-0.3-0.9l0,0c-0.5,0.9-1.1,1.1-2.2,1.1c-1.5,0-2.1-1.3-2.1-2.5c0-1.6,0.7-2.3,2.2-2.7l1.2-0.3
				c0.7-0.2,0.9-0.4,0.9-1c0-0.7-0.3-1.1-1-1.1s-1,0.4-1,1.1v0.2h-2V281.1z M107.8,282.8c-0.3,0.2-0.7,0.4-0.9,0.4
				c-0.9,0.2-1.2,0.6-1.2,1.4c0,0.7,0.2,1.2,0.8,1.2s1.4-0.4,1.4-1.3v-1.7H107.8z"/>
		</g>
	</g>
	<g>
		<g>
			<path class="st1" d="M133.2,328.8h2.3v4.4h2.7v-4.4h2.3v11.4h-2.3v-5.1h-2.7v5.1h-2.3V328.8z"/>
			<path class="st1" d="M144.5,336.3v0.7c0,1,0.3,2,1.1,2c0.7,0,1-0.6,1.2-1.6h2c-0.1,2-1,3.1-3.1,3.1c-3.2,0-3.3-2.5-3.3-4.6
				c0-2.3,0.4-4.5,3.4-4.5c2.6,0,3.2,1.7,3.2,4.4v0.5H144.5z M146.8,335c0-1.3-0.2-2-1.1-2c-0.9,0-1.1,0.9-1.1,1.7v0.3H146.8z"/>
			<path class="st1" d="M150.7,328.8h2.2v3.7l0,0c0.4-0.7,1.2-1.1,2.1-1.1c1.4,0,2.2,0.8,2.2,2.4v6.4H155v-5.9
				c0-0.9-0.3-1.2-0.9-1.2c-0.8,0-1.2,0.5-1.2,1.4v5.7h-2.2L150.7,328.8L150.7,328.8z"/>
			<path class="st1" d="M162.4,331.4c2.7,0,3.4,1.5,3.4,4.5c0,2.9-0.9,4.5-3.4,4.5c-2.7,0-3.4-1.5-3.4-4.5
				C159,333,159.9,331.4,162.4,331.4z M162.4,339c0.9,0,1.2-0.9,1.2-3s-0.3-3-1.2-3c-1.1,0-1.2,1.3-1.2,3S161.3,339,162.4,339z"/>
		</g>
	</g>
	<g>
		<path class="st2" d="M174.7,370v-8.6h1.7v7.1h3.1v1.4h-4.8V370z"/>
		<path class="st2" d="M180.7,365.5v-0.2c0-1.5,1-2,2.3-2c2,0,2.3,0.8,2.3,2v3.4c0,0.6,0,0.9,0.2,1.2h-1.6c-0.1-0.2-0.2-0.5-0.2-0.7
			l0,0c-0.4,0.7-0.9,0.8-1.6,0.8c-1.2,0-1.6-1-1.6-1.8c0-1.2,0.5-1.7,1.6-2l0.9-0.3c0.5-0.1,0.7-0.3,0.7-0.8s-0.2-0.8-0.8-0.8
			c-0.5,0-0.8,0.3-0.8,0.8v0.2h-1.4L180.7,365.5L180.7,365.5z M183.7,366.8c-0.2,0.2-0.5,0.3-0.7,0.3c-0.7,0.1-0.9,0.5-0.9,1
			s0.2,0.9,0.6,0.9s1-0.3,1-1L183.7,366.8L183.7,366.8z"/>
		<path class="st2" d="M188.7,361.4v4.5l0,0l1.7-2.4h1.8l-1.9,2.5l2.1,3.9h-1.8l-1.4-2.7l-0.6,0.8v1.9H187v-8.6h1.7V361.4z"/>
		<path class="st2" d="M194.9,367v0.5c0,0.8,0.2,1.5,0.8,1.5s0.8-0.4,0.9-1.2h1.5c-0.1,1.5-0.8,2.3-2.3,2.3c-2.4,0-2.5-1.8-2.5-3.5
			s0.3-3.3,2.6-3.3c1.9,0,2.4,1.3,2.4,3.3v0.4L194.9,367L194.9,367z M196.6,366c0-1-0.2-1.5-0.8-1.5c-0.7,0-0.9,0.7-0.9,1.3v0.3
			L196.6,366L196.6,366z"/>
		<path class="st2" d="M179.2,382v-8.6h1.7v8.6H179.2z"/>
		<path class="st2" d="M182.6,375.6h1.6v0.8l0,0c0.3-0.6,0.9-0.9,1.6-0.9c1,0,1.6,0.6,1.6,1.8v4.8h-1.7v-4.4c0-0.6-0.2-0.9-0.7-0.9
			c-0.6,0-0.9,0.3-0.9,1.1v4.3h-1.7v-6.6L182.6,375.6L182.6,375.6z"/>
		<path class="st2" d="M189.2,373.4h1.7v8.6h-1.7V373.4z"/>
		<path class="st2" d="M193.9,379v0.5c0,0.8,0.2,1.5,0.8,1.5s0.8-0.4,0.9-1.2h1.5c-0.1,1.5-0.8,2.3-2.3,2.3c-2.4,0-2.5-1.8-2.5-3.5
			s0.3-3.3,2.6-3.3c1.9,0,2.4,1.3,2.4,3.3v0.4L193.9,379L193.9,379z M195.6,378c0-1-0.2-1.5-0.8-1.5c-0.7,0-0.9,0.7-0.9,1.3v0.3
			L195.6,378L195.6,378z"/>
	</g>
	<g>
		<g>
			<path class="st1" d="M171.7,438.2h3.9c1.9,0,3.2,0.7,3.2,2.9c0,1.2-0.6,2.2-1.7,2.5l0,0c1.3,0.2,2.1,1.1,2.1,2.7
				c0,1.8-0.9,3.3-3.6,3.3h-3.9V438.2z M174,442.9h0.7c1.3,0,1.8-0.4,1.8-1.5s-0.5-1.5-1.7-1.5H174V442.9z M174,448h0.9
				c1.1,0,1.9-0.4,1.9-1.7c0-1.3-0.8-1.7-1.8-1.7h-1L174,448L174,448z"/>
			<path class="st1" d="M181.2,443.7v-0.2c0-2,1.4-2.7,3-2.7c2.6,0,3.1,1.1,3.1,2.6v4.5c0,0.8,0,1.2,0.3,1.7h-2.1
				c-0.1-0.3-0.2-0.6-0.3-0.9l0,0c-0.5,0.9-1.1,1.1-2.2,1.1c-1.5,0-2.1-1.3-2.1-2.5c0-1.6,0.7-2.3,2.2-2.7l1.2-0.3
				c0.7-0.2,0.9-0.4,0.9-1c0-0.7-0.3-1.1-1-1.1s-1,0.4-1,1.1v0.2h-2L181.2,443.7L181.2,443.7z M185.2,445.4
				c-0.3,0.2-0.7,0.4-0.9,0.4c-0.9,0.2-1.2,0.6-1.2,1.4c0,0.7,0.2,1.2,0.8,1.2s1.4-0.4,1.4-1.3v-1.7H185.2z"/>
			<path class="st1" d="M196,441.1v8.2c0,2.3-1,3.4-3.6,3.4c-1.9,0-2.9-0.8-2.9-2.3h2.1c0,0.3,0.1,0.5,0.3,0.7
				c0.2,0.1,0.5,0.2,0.7,0.2c0.9,0,1.2-0.7,1.2-1.6v-1.1l0,0c-0.4,0.6-1.1,1.1-1.8,1.1c-1.8,0-2.6-1.2-2.6-4.4c0-2,0.3-4.4,2.7-4.4
				c0.6,0,1.4,0.3,1.8,1.2l0,0v-1L196,441.1L196,441.1z M192.6,447.9c0.9,0,1.2-1,1.2-2.5c0-2.1-0.3-2.9-1.2-2.9
				c-1,0-1.2,0.8-1.2,3.1C191.5,446.8,191.7,447.9,192.6,447.9z"/>
			<path class="st1" d="M201.3,440.8c2.7,0,3.4,1.5,3.4,4.5c0,2.9-0.9,4.5-3.4,4.5c-2.7,0-3.4-1.5-3.4-4.5
				C197.9,442.4,198.7,440.8,201.3,440.8z M201.3,448.4c0.9,0,1.2-0.9,1.2-3s-0.3-3-1.2-3c-1.1,0-1.2,1.3-1.2,3
				S200.2,448.4,201.3,448.4z"/>
		</g>
	</g>
	<path class="st2" d="M185.6,331.6c-1.4,0.6-3.7,6.7-3.7,9.9c0,3.2,0.7,4.2-0.7,5.6s-0.9,6,1.2,8.1c2.1,2.1,4.1,2,5.5,0.7
		c1.3-1.3,0.4-7.6,0.4-10.4s-0.1-7.5,0.8-8.4c0.9-0.9,2.2-3.4,1.3-4.3C189.5,331.9,187,330.9,185.6,331.6z"/>
	<path class="st3" d="M207,0.4c0,0,1.5,10.8,4.2,13.5s10.2,7.5,12.7,10s3.3,9,3.3,14s-0.7,7.7-3.3,7.7s-2-2.5-5.2-2.5
		s-1.5,7.2,1.2,13.2s11.7,13.3,9.7,22s-2,25.3-6.3,33.3s-10.7,19-13.3,19s-4-5-7-5s-10.3,14.7-12.2,19.2c-1.8,4.5-2.5,9.5-5.2,12.2
		s-2.7,3.3-2.7,8.3s7.3,24.3,3.3,24.3s-7.8,3.5-11.3,0s-9.2-9.8-12.7-6.3s-9,11.7-11.3,17s-8.7,11.7-8.7,16.7s-1.7,21.3-1.7,26.7
		c0,5.3,2.3,13.7,2.3,19c0,5.3,4,15,1.3,17.7s-2,2.3-7,0.3s-11.8-1.5-15.3,2s-2.3,11.7-4.7,14c-2.3,2.3-2.5,2.2-4.7,4.3
		c-2.2,2.2,1.7,3.3-3.3,3.3s-7.5-0.5-9.7,1.7s-2,6.3-2,9.3s1,4.3-1.7,7s-5,4-2.7,6.3s6.7,7.3,6.7,11.3s-2,11.3,0.3,13.7
		c2.3,2.3,9.7,7,9.7,11.7s2.7,23,0.3,25.3c-2.3,2.3-6,5.3-4,7.3s7.5,6.5,5.3,8.7s-9.2,0.7-5.7,5.7s3.5,7.2,6.7,10.3
		c3.2,3.2,7.7,8.7,7.7,13s0.8,3.5-3.2,7.5s-10.7,19.3-13.2,21.8s-4.5,0.7-4.5,4.5s-6.8,8.5-6.8,12.8s3.2,11.2-1,15.3
		c-4.2,4.2-1.2,6.5-4,9.3s-3.1,3.1-5.7,5.7c-2.6,2.6-2.6,2.6-2.6,2.6"/>
	<path class="st3" d="M88.5,521.4c3.1-3.1,2.4-8.2,6.7-8.2s6.3-4,9-6.7s10.2-16.5,12.7-19s6.7-1.3,6.7-4s4.3-9.3,4.3-12.7
		s-3.7-4-0.7-7s2.8-2.5,0.3-5s0.2-2.6-2.5-5.3s-4.5-3.3-4.5-7.3s-0.3-8-0.3-8"/>
	<path class="st3" d="M149,507.1c-3.5-3.5-7.3-1.7-10.2-4.5c-2.8-2.8-1.2-6.5-4.3-9.7s-5.7-2.7-5.7-5.7s-4.3-7.3-4.3-7.3"/>
	<path class="st3" d="M96.6,524.6c1.6-4.4,1.6-2.7,1.6-6.1c0-3.3,0-6.1,0-6.1"/>
	<path class="st3" d="M91.5,497.6c0,4.7,1,7.7-1.3,10s0.2,4.8-1.7,6.7c-1.8,1.8-4.6,5.2-4.6,5.2"/>
	<g>
		<g>
			<path class="st1" d="M53.6,311.4h3.9c1.9,0,3.2,0.7,3.2,2.9c0,1.2-0.6,2.2-1.7,2.5l0,0c1.3,0.2,2.1,1.1,2.1,2.7
				c0,1.8-0.9,3.3-3.6,3.3h-3.9V311.4z M55.9,316.1h0.7c1.3,0,1.8-0.4,1.8-1.5s-0.5-1.5-1.7-1.5h-0.8V316.1z M55.9,321.1h0.9
				c1.1,0,1.9-0.4,1.9-1.7c0-1.3-0.8-1.7-1.8-1.7h-1C55.9,317.7,55.9,321.1,55.9,321.1z"/>
			<path class="st1" d="M63,316.9v-0.2c0-2,1.4-2.7,3-2.7c2.6,0,3.1,1.1,3.1,2.6v4.5c0,0.8,0,1.2,0.3,1.7h-2.1
				c-0.1-0.3-0.2-0.6-0.3-0.9l0,0c-0.5,0.9-1.1,1.1-2.2,1.1c-1.5,0-2.1-1.3-2.1-2.5c0-1.6,0.7-2.3,2.2-2.7l1.2-0.3
				c0.7-0.2,0.9-0.4,0.9-1c0-0.7-0.3-1.1-1-1.1s-1,0.4-1,1.1v0.2h-2V316.9z M67.1,318.5c-0.3,0.2-0.7,0.4-0.9,0.4
				c-0.9,0.2-1.2,0.6-1.2,1.4c0,0.7,0.2,1.2,0.8,1.2s1.4-0.4,1.4-1.3v-1.7H67.1z"/>
			<path class="st1" d="M77.8,314.2v8.2c0,2.3-1,3.4-3.6,3.4c-1.9,0-2.9-0.8-2.9-2.3h2.1c0,0.3,0.1,0.5,0.3,0.7
				c0.2,0.1,0.5,0.2,0.7,0.2c0.9,0,1.2-0.7,1.2-1.6v-1.1l0,0c-0.4,0.6-1.1,1.1-1.8,1.1c-1.8,0-2.6-1.2-2.6-4.4c0-2,0.3-4.4,2.7-4.4
				c0.6,0,1.4,0.3,1.8,1.2l0,0v-1L77.8,314.2L77.8,314.2z M74.5,321c0.9,0,1.2-1,1.2-2.5c0-2.1-0.3-2.9-1.2-2.9
				c-1,0-1.2,0.8-1.2,3.1C73.4,320,73.6,321,74.5,321z"/>
			<path class="st1" d="M80,316.9v-0.2c0-2,1.4-2.7,3-2.7c2.6,0,3.1,1.1,3.1,2.6v4.5c0,0.8,0,1.2,0.3,1.7h-2.1
				c-0.1-0.3-0.2-0.6-0.3-0.9l0,0c-0.5,0.9-1.1,1.1-2.2,1.1c-1.5,0-2.1-1.3-2.1-2.5c0-1.6,0.7-2.3,2.2-2.7l1.2-0.3
				c0.7-0.2,0.9-0.4,0.9-1c0-0.7-0.3-1.1-1-1.1s-1,0.4-1,1.1v0.2h-2V316.9z M84.1,318.5c-0.3,0.2-0.7,0.4-0.9,0.4
				c-0.9,0.2-1.2,0.6-1.2,1.4c0,0.7,0.2,1.2,0.8,1.2s1.4-0.4,1.4-1.3v-1.7H84.1z"/>
			<path class="st1" d="M88.4,314.2h2.1v1l0,0c0.5-0.8,1.3-1.2,2.2-1.2c1.4,0,2.2,0.8,2.2,2.4v6.4h-2.2v-5.9c0-0.9-0.3-1.2-0.9-1.2
				c-0.8,0-1.2,0.5-1.2,1.4v5.7h-2.2V314.2z"/>
		</g>
	</g>
	<g>
		<g>
			<path class="st1" d="M165.3,484.1l1.5,4.4l0,0l1.6-4.4h2.5l-3,6.9v4.5h-2.3V491l-3-6.9H165.3z"/>
			<path class="st1" d="M172.4,489.5v-0.2c0-2,1.4-2.7,3-2.7c2.6,0,3.1,1.1,3.1,2.6v4.5c0,0.8,0,1.2,0.3,1.7h-2.1
				c-0.1-0.3-0.2-0.6-0.3-0.9l0,0c-0.5,0.9-1.1,1.1-2.2,1.1c-1.5,0-2.1-1.3-2.1-2.5c0-1.6,0.7-2.3,2.2-2.7l1.2-0.3
				c0.7-0.2,0.9-0.4,0.9-1c0-0.7-0.3-1.1-1-1.1s-1,0.4-1,1.1v0.2h-2L172.4,489.5L172.4,489.5z M176.4,491.2
				c-0.3,0.2-0.7,0.4-0.9,0.4c-0.9,0.2-1.2,0.6-1.2,1.4c0,0.7,0.2,1.2,0.8,1.2s1.4-0.4,1.4-1.3v-1.7H176.4z"/>
			<path class="st1" d="M180.7,486.9h2.1v1l0,0c0.5-0.8,1.3-1.2,2.2-1.2c1.4,0,2.2,0.8,2.2,2.4v6.4H185v-5.9c0-0.9-0.3-1.2-0.9-1.2
				c-0.8,0-1.2,0.5-1.2,1.4v5.7h-2.2L180.7,486.9L180.7,486.9z"/>
			<path class="st1" d="M195.8,486.9v8.2c0,2.3-1,3.4-3.6,3.4c-1.9,0-2.9-0.8-2.9-2.3h2.1c0,0.3,0.1,0.5,0.3,0.7
				c0.2,0.1,0.5,0.2,0.7,0.2c0.9,0,1.2-0.7,1.2-1.6v-1.1l0,0c-0.4,0.6-1.1,1.1-1.8,1.1c-1.8,0-2.6-1.2-2.6-4.4c0-2,0.3-4.4,2.7-4.4
				c0.6,0,1.4,0.3,1.8,1.2l0,0v-1L195.8,486.9L195.8,486.9z M192.5,493.7c0.9,0,1.2-1,1.2-2.5c0-2.1-0.3-2.9-1.2-2.9
				c-1,0-1.2,0.8-1.2,3.1C191.4,492.7,191.6,493.7,192.5,493.7z"/>
			<path class="st1" d="M201.1,486.7c2.7,0,3.4,1.5,3.4,4.5c0,2.9-0.9,4.5-3.4,4.5c-2.7,0-3.4-1.5-3.4-4.5
				C197.7,488.3,198.6,486.7,201.1,486.7z M201.1,494.2c0.9,0,1.2-0.9,1.2-3s-0.3-3-1.2-3c-1.1,0-1.2,1.3-1.2,3
				S200,494.2,201.1,494.2z"/>
			<path class="st1" d="M206.3,486.9h2.1v1l0,0c0.5-0.8,1.3-1.2,2.2-1.2c1.4,0,2.2,0.8,2.2,2.4v6.4h-2.2v-5.9c0-0.9-0.3-1.2-0.9-1.2
				c-0.8,0-1.2,0.5-1.2,1.4v5.7h-2.2L206.3,486.9L206.3,486.9z"/>
		</g>
	</g>
	<g>
		<path class="st4" d="M85,209.6h3.5l2.7,7.9l0,0l2.5-7.9h3.5V221h-2.4v-8.1l0,0L92,221h-1.9l-2.8-8l0,0v8H85V209.6z"/>
		<path class="st4" d="M105.6,216.6l-4.2-7h2.8l2.7,4.5l2.7-4.5h2.8l-4.2,7v4.4h-2.5v-4.4H105.6z"/>
		<path class="st4" d="M119.7,209.6h2.6l4.3,11.4H124l-0.9-2.5h-4.3l-0.9,2.5h-2.5L119.7,209.6z M119.4,216.6h3l-1.4-4.2l0,0
			L119.4,216.6z"/>
		<path class="st4" d="M130.7,209.6h2.5l4.8,7.7l0,0v-7.7h2.4V221h-2.5l-4.8-7.7l0,0v7.7h-2.4V209.6z"/>
		<path class="st4" d="M145.8,209.6h3.5l2.7,7.9l0,0l2.5-7.9h3.5V221h-2.4v-8.1l0,0l-2.8,8.1h-1.9l-2.8-8l0,0v8h-2.4L145.8,209.6
			L145.8,209.6z"/>
		<path class="st4" d="M166.6,209.6h2.6l4.3,11.4h-2.6l-0.9-2.5h-4.3l-0.9,2.5h-2.5L166.6,209.6z M166.3,216.6h3l-1.4-4.2l0,0
			L166.3,216.6z"/>
		<path class="st4" d="M177.6,209.6h6.2c2,0,3.3,1.4,3.3,3.2c0,1.3-0.5,2.4-1.8,2.9l0,0c1.2,0.3,1.6,1.5,1.7,2.7
			c0,0.7,0,2.1,0.5,2.7H185c-0.3-0.7-0.3-1.8-0.4-2.7c-0.2-1.2-0.6-1.7-1.9-1.7h-2.5v4.5h-2.5v-11.6L177.6,209.6L177.6,209.6z
			 M180.1,214.8h2.8c1.1,0,1.7-0.5,1.7-1.6s-0.6-1.6-1.7-1.6h-2.8V214.8z"/>
	</g>
	<path class="st5" d="M103.2,318.2c0,0,20.3-5.6,36.9-2.9s35,12.7,35,12.7"/>
	<polyline class="st6" points="175,328.3 192.2,333 201.8,344.1 	"/>
</g>
<g id="Thailand">
	<g>
		<g>
			<path class="st7" d="M262.7,853.4c-0.8-0.4-2.1,0-2.1,0c-0.9,0.8-1.3,1.1-0.6,2.3s2.1,1.3,2.5,0.2
				C262.8,854.7,263.4,853.7,262.7,853.4z M257.7,858.3c-0.8,1.1-1.1,1.5-0.2,2.7c1,1.1,1.3,2.7,2.3,2.1c0.9-0.6,0.6-0.9,0.4-2.1
				C260,859.8,257.7,858.3,257.7,858.3z M240.4,835.8c-0.8,1.1-0.4,2.5,0.2,3.6c0.6,1.1,1.7,3,2.1,2.1c0.4-1,0.6-2.1,0-3.2
				C242.1,837.2,240.4,835.8,240.4,835.8z M286.7,901.8c0.1-0.7,0.3-2-0.1-2.6s-1-1.8-1.3-2.2c-0.4-0.4-0.7-0.7-0.7-0.7
				c-0.6,0.1-1.1,0.9-1.6,1.5s-1.7,1.3-0.8,2.3c0.9,1.1,2.2,2.9,2.8,2.9C285.7,903,286.6,902.4,286.7,901.8z M295.8,777.7
				c0,1.9-0.8,4.2,1.3,4.2c2.1,0,3.2-1.7,4.2-2.9c1-1.1,1.9-2.1,1-2.7c-1-0.6-1.7-0.8-2.7-0.4c-1,0.4-1.9,0.6-1.9,0.6
				C296,776.8,295.8,775.8,295.8,777.7z M292.5,906.6c-1.1-0.1-2.8-0.1-2.8-0.1c-1.4,0.3-1.4,0.6-2.5,1.7c-1.1,1.1-2,1.9-1.3,2.8
				c0.7,0.8,3,2.3,3.1,3.2c0.1,0.8-0.1,1.9,0.9,1.1c1-0.8,1.6-2.2,2.7-2.2c1,0.1,2.9-0.4,2.9-1.4s0-3-0.7-3.7
				C293.9,907.2,293.6,906.7,292.5,906.6z M300.4,772.4c0.8-1.1,1.5-1.5,1.7-3s1-2.7-0.4-2.9c-1.3-0.2-2.5,0-2.5,0
				c-1.3,0.8-2.3,2.3-1.3,3.2C298.8,770.7,299.6,773.6,300.4,772.4z M519.8,558.6c-1.6-1.1-6-2.8-5-5s4.9-5.6,4.4-6.6s-4.6-0.6-4-2
				s4.4-2.6,4.5-4s2-7.8,0.8-9s-2.6-4-5.4-4.2s-6.7-4.8-6-6s5.5-3.2,2.9-3.9c-2.6-0.6-12.2-1.5-13.4-2.9s-1.1-8-5.1-10.4
				s-8.1-7.2-7.9-10s0.5-11.2,0.2-13.5s-0.5-5.2,1-7.5s2.2-5.2,0.8-9.5s1.5-5.2-5-8.5s-8.5-2.8-11.2-7.5s-6-10-7.8-12.5
				s-6.5-14-8.5-13.2s-0.8,2.5-2.8,2.5s-3,0.5-7.2-2s-10.8-5.5-13.5-3.8s-3.5,3.5-3.5,5.2s-2.8,0.5-4,3s-2,2.8-2.8,4.5
				s0.8,5.8-2.5,5.5s-3.5-2.5-6-0.5s-3.2,10.8-9,7.5s-17-18.2-20.8-16.5s-2.5,3.2-5.8,5s-4.5,0.8-6.5,1s0.5,1.8-2.5,4.8
				s-21,18-23,18s-3.8-3.8-6-3.8s-4.8,0.5-3.2-1.2s2-6.2,4.2-9s7-7.5,7-10.8s0.5-8.2-0.8-9.5s-7.8-2.2-4.5-5.2s8.2-7,8.2-9
				s-0.8-8,0.5-9.2s3-1.8,3.2-4s-3.2-3.5-3.8-5.8s-3.8-11.8-2.5-12.5s4.8-0.8,3.8-3.2s-6-1.2-9-2.2s-3.5-2.5-5.5-0.8s-2.5,5-4.5,4.5
				s-3.2-3.5-5-2.8s-1.5,2.2-3.8,1.5s-7-7.5-5.2-10.5s5-8.8,5.5-11.5s1.8-3.5-0.5-4.2s-3.2-1.5-5.8-5s-2.5-5.2-4.8-3.8s-1.8,4.2-4,5
				s-2.2-1.5-2-3.5s-3.2-2.1-3.2-2.1c-8-1.1-5.3,3.7-10.6,3.7c-5.4,0-6.6-2.6-7.9-0.9s-2.3,2.8-5.5,4.8c-5.4,3.3-4.5,1.5-8,2.5
				s-3.2,12.2-7.5,13.5s-5.8-0.5-7.2,0s-8,5.2-11,5s-10,0.8-11.3-1.2s-2-5-4.2-4.8s-1.8,3-3.8,4.8s-4.2,1.8-5.2,3.8s1,16.5-2.2,20.2
				s-5.5,5.5-4.5,8.2s3,11.8,1.2,12.2s-0.8-1.5-4,0.8s-4,4-5.5,3s-4.8-8-4.8-5s3.2,13.2,4.2,13.5s3.5-2.2,4.8-1.8s-0.5,1.5,0.5,3.5
				s3,4.8,3,7.2s-2.8,6-1.5,8.2s11.5,13.2,15,18s8.5,9.5,8.8,11.8s0,5.2,1.8,5.2s3.5-0.2,4.2,1.8s3.8,5.5,2.8,7.5s-1.5,1.2-1,3.2
				s4.8,15,6,15.5s4-1.5,5-3c1-1.5,2.8-2.5,3.8-1.5s1.5,6-0.2,7.8s-4.5,4.5-7,5.5s-5.2,2.2-4.8,9s-0.8,21.2-0.8,21.2s-12,3-13,5.5
				s-0.2,16.2,1.8,19s7.5,9,8.8,11.2s3,5.2,9,10s15.5,19.5,15.8,24.8s-2.2,28.2,0.8,32.8s9.5,10,9.5,11.5s-1.2,3.2-0.8,5.2
				s1.8,10.5,3.5,12s3,5.2,3,7.8s0.8,5.5-1,7.5s-3,1.5-4.2,3.2s-0.5,5-2.5,7.8s-7.8,13-10.8,15.8s-4.5,1-5,2.8s-0.2,4.5-1.8,5.5
				s-7.8,2.2-8.5,4.8s1.8,5,1,7.2s-3,8-3.5,9.2s0.2,2.8-0.2,4.8s-5.5,10.5-6,12.2s-2.2,12-5.3,16c-3,4-4.8,12.8-4.8,12.8
				s1.8,5.2,0.2,6s-2.5,0-3,2.2s-0.2,6.8-1,10s-2,3.8-2,7s3.2,14.8,3.2,15.8s3,3,4.5,2.8s1.5-5.2,1.8-6.8s4.5-2,5.8-2.8s2.5-2,2.5-2
				s-0.2,4,0.8,4.2s3.2,0,3.2,1.8s-1.2,7.8,0.2,8.5s6-0.8,7.5,0.8s5.8,3.5,5,5.8s-3,5-0.8,5.5s8,1.2,9.2,4.8s0.5,10.5,1.5,11.8
				s4,2.8,5.5,1.2s3-1.8,4.2-1s-2.2,5-0.5,6.5s5.8-0.2,6.5,1.5s0.8,5.8-0.2,7s-2.5,2.5-1,4.2s8.5,3.2,9.2,6.2s4,7.5,5.2,9.2
				s4.2,4.5,4.2,4.5s1.2-10,2.5-9.8s7,8.5,11.8,10s10-2,11.2,0s2,5.5,4.2,7.2s9.5-0.5,10,1.2s2.2,9.2,0,12.8s-3.8,5.5-3.2,7.8
				s2.5,5.5,5,5s5.8-7,9-7.2s7.8-3.8,10-1.5s4.8,5.8,7.2,5.2s6-3.2,6.2-5.2s-0.2-4.5,3.5-7.5s4.5-8.5,4.5-8.5s-15-8.2-17.8-13.8
				s-3.8-12-9.2-14.2s-6.5-4-7.2-2.5s-2.2,2.5-8,2.2s-3.2,0.2-8-2.2s-10.2-7.2-10.2-7.2s-0.8-1.8-3.2-0.8s-3.2,1.2-4.2,0
				s-3.5-5.5-5.2-6.5s-9.5-10.2-8.5-14s3.5-7.8,5-6.5s2.5,5.5,1.8,7.2s-2.2,2.2-0.5,2.8s2.2,1.5,3.8,2.2s-0.2-9-0.5-11.2
				s-5.5-25.5-6-27.2s-2-4-2.2-2.5s0,3.2-1.2,2.2s-4.8-4.5-6-6.5s-2.5-24-3.2-26.8s-5.5-4.2-8-3.2s-8.5,4.2-10.5,4.8
				s-4.2-1.8-5.5-1.2s-3-0.8-1.5-2.8s4-2.8,2.5-4.8s-6.5-13.8-5.8-21.5s1.5-9,1.8-10.8s-4.2-6.5-2.5-6.8s4,1.5,4.8-0.2
				s-2-2.2,0.5-6.2s3.8-6.2,4.8-8.5s2-4.5,4-5.2s-0.2-9.8,1.5-11.5s2.2-0.2,2.8-4s3.8-15.2,5.8-17.2s3.5-0.8,3.8-2.5s-1.2-6.2,1-8.5
				s7.5-6.5,7-9.2s-2.8-12.8-2-16s0.2-11.8,2.8-15s3.8-5.2,1.8-7s-5.8-5.2-4.2-8.2s4-3.8,7.5-4.5s11.2-1.5,13.5-1.8s2.8-3.2,4.5-2
				s3,2.2,6.2,2.2s8.2-0.5,8.2,1.8s0,6-1.2,7.5s-4.2,5.5-3.5,6.5s3,8.2,1.8,9.5s-5,6.5-3.8,7s3.2,3.2,5.8,2.2s6.8-2,10-1.2
				s3.2,3.5,10.8,2.2s8.2-5.2,11.8-3.5s1.2,4.2,4.2,5.5s7.8,3.5,9.8,5.8s5.8,4.5,5.5,6.5s1.5,4.8,3.2,3.8s4.5,0.5,5.5,2s2.8,4,3.2,2
				s-0.8-3.8,0.8-4s0.8,2.2,2.8,3.2s4,1.2,4,1.2s-3-7-2-9.2s4.5-2.8,3.2-4.5s-9.5-8.5-10-11s-0.8-13.5-2.2-15.8s-7-6.8-6-10.8
				s1-6.5,1.2-8.2s2.2,0,4.5,0s5.8-0.2,5.2-1.8s-1.8-2.2-1.8-2.2s4.8-1.5,7.8-8.2s11-16.8,19.8-20s14.8-5.5,15.8-4s6.8,3.5,11.2,3.2
				s11.5-2.2,15-1.5s8.2,2.5,10,1.2s9.8-3.8,12.5-2s2.5,6.8,3.2,8.2s3.2,2.2,4.2,0.8s1.2-3.5,3.2-4.2s10.6-4.5,11.4-6.4
				s-0.5-12.8,0.8-14.4S521.4,559.7,519.8,558.6z M236.2,838.9c-1.3-0.4-5-0.4-5-0.4c-1.7,0.2-2.1-0.2-2.1,2.3s-0.4,8.8,0.6,8.8
				s1.7-1.9,2.9-3c1.1-1.1,1.9-1.3,2.5-3C235.6,841.7,237.5,839.3,236.2,838.9z M392.5,673.1c-0.9-0.3-1.2,0.3-1.2,0.3
				c-0.9,0.4,0-0.4,0.2,1.9c0.1,2.4-1.5,3.4,1.5,4c2.9,0.6,4,1.5,4,0s-0.1-2.1-1.6-3.7C393.9,674,393.4,673.4,392.5,673.1z"/>
		</g>
	</g>
	<g>
		<g>
			<path class="st4" d="M363.5,520.8h-3.4v-2.1h9.4v2.1H366v9.3h-2.5V520.8z"/>
			<path class="st4" d="M374,518.7h2.5v4.4h4.6v-4.4h2.5v11.4h-2.5v-4.9h-4.6v4.9H374V518.7z"/>
			<path class="st4" d="M392.1,518.7h2.6l4.3,11.4h-2.6l-0.9-2.5h-4.3l-0.9,2.5h-2.5L392.1,518.7z M391.9,525.7h3l-1.4-4.2l0,0
				L391.9,525.7z"/>
			<path class="st4" d="M403.2,518.7h2.5v11.4h-2.5V518.7z"/>
			<path class="st4" d="M411.1,518.7h2.5v9.3h5.6v2.1h-8.1V518.7z"/>
			<path class="st4" d="M426.9,518.7h2.6l4.3,11.4h-2.6l-0.9-2.5H426l-0.9,2.5h-2.5L426.9,518.7z M426.7,525.7h3l-1.4-4.2l0,0
				L426.7,525.7z"/>
			<path class="st4" d="M438,518.7h2.5l4.8,7.7l0,0v-7.7h2.4v11.4h-2.5l-4.8-7.7l0,0v7.7H438V518.7z"/>
			<path class="st4" d="M453,518.7h4.9c3,0,5.2,1.9,5.2,5.7c0,3.3-1.7,5.8-5.2,5.8H453V518.7z M455.5,528h2.2c1.5,0,2.8-0.9,2.8-3.4
				c0-2.3-0.8-3.8-3.3-3.8h-1.8L455.5,528L455.5,528z"/>
		</g>
	</g>
	<g>
		<g>
			<path class="st8" d="M362,765.1c-0.9,1.1-2,1.6-3.1,1.6c-3.5,0-5.6-2.6-5.6-5.9c0-3.4,2.1-6,5.6-6c2.3,0,4.5,1.4,4.8,4h-2.4
				c-0.3-1.3-1.2-1.9-2.4-1.9c-2.3,0-3.1,1.9-3.1,3.9c0,1.9,0.8,3.8,3.1,3.8c1.6,0,2.6-0.9,2.7-2.5h-2.5v-1.9h4.8v6.2h-1.6
				L362,765.1z"/>
			<path class="st8" d="M374.2,754.7c3.5,0,5.6,2.6,5.6,6c0,3.3-2.1,5.9-5.6,5.9s-5.6-2.6-5.6-5.9
				C368.6,757.4,370.7,754.7,374.2,754.7z M374.2,764.6c2.3,0,3.1-1.9,3.1-3.8c0-2-0.8-3.9-3.1-3.9s-3.1,1.9-3.1,3.9
				C371.1,762.7,372,764.6,374.2,764.6z"/>
			<path class="st8" d="M384.8,755h2.5v9.3h5.6v2.1h-8.1V755z"/>
			<path class="st8" d="M397.4,755h8v2.1H400v2.6h4.8v2H400v4.7h-2.5V755H397.4z"/>
			<path class="st8" d="M423.1,766.4h-2.8l-3.7-11.4h2.6l2.5,8l0,0l2.6-8h2.6L423.1,766.4z"/>
			<path class="st8" d="M436.2,754.7c3.5,0,5.6,2.6,5.6,6c0,3.3-2.1,5.9-5.6,5.9s-5.6-2.6-5.6-5.9
				C430.6,757.4,432.6,754.7,436.2,754.7z M436.2,764.6c2.3,0,3.1-1.9,3.1-3.8c0-2-0.8-3.9-3.1-3.9s-3.1,1.9-3.1,3.9
				C433.1,762.7,433.9,764.6,436.2,764.6z"/>
			<path class="st8" d="M446.7,755h2.5l4.8,7.7l0,0V755h2.4v11.4h-2.5l-4.8-7.7l0,0v7.7h-2.4V755z"/>
			<path class="st8" d="M356.3,776.3h-3.4v-2.1h9.4v2.1h-3.4v9.3h-2.5v-9.3H356.3z"/>
			<path class="st8" d="M366.7,774.2h2.5v4.4h4.6v-4.4h2.5v11.4h-2.5v-4.9h-4.6v4.9h-2.5V774.2z"/>
			<path class="st8" d="M384.9,774.2h2.6l4.3,11.4h-2.6l-0.9-2.5H384l-0.9,2.5h-2.5L384.9,774.2z M384.7,781.2h3l-1.4-4.2l0,0
				L384.7,781.2z"/>
			<path class="st8" d="M396,774.2h2.5v11.4H396V774.2z"/>
			<path class="st8" d="M403.9,774.2h2.5v9.3h5.6v2.1h-8.1V774.2z"/>
			<path class="st8" d="M419.7,774.2h2.6l4.3,11.4H424l-0.9-2.5h-4.3l-0.9,2.5h-2.5L419.7,774.2z M419.4,781.2h3L421,777l0,0
				L419.4,781.2z"/>
			<path class="st8" d="M430.7,774.2h2.5l4.8,7.7l0,0v-7.7h2.4v11.4h-2.5l-4.8-7.7l0,0v7.7h-2.4V774.2z"/>
			<path class="st8" d="M445.8,774.2h4.9c3,0,5.2,1.9,5.2,5.7c0,3.3-1.7,5.8-5.2,5.8h-4.9V774.2z M448.3,783.5h2.2
				c1.5,0,2.8-0.9,2.8-3.4c0-2.3-0.8-3.8-3.3-3.8h-1.8L448.3,783.5L448.3,783.5z"/>
		</g>
	</g>
	<g>
		<g>
			<path class="st8" d="M57,650.2h2.6l4.3,11.4h-2.6l-0.9-2.5h-4.3l-0.9,2.5h-2.5L57,650.2z M56.8,657.2h3l-1.4-4.2l0,0L56.8,657.2z
				"/>
			<path class="st8" d="M68.1,650.2h2.5l4.8,7.7l0,0v-7.7h2.4v11.4h-2.5l-4.8-7.7l0,0v7.7h-2.4V650.2z"/>
			<path class="st8" d="M83.1,650.2H88c3,0,5.2,1.9,5.2,5.7c0,3.3-1.7,5.8-5.2,5.8h-4.9V650.2z M85.6,659.5h2.2
				c1.5,0,2.8-0.9,2.8-3.4c0-2.3-0.8-3.8-3.3-3.8h-1.8v7.2H85.6z"/>
			<path class="st8" d="M101.3,650.2h2.6l4.3,11.4h-2.6l-0.9-2.5h-4.3l-0.9,2.5H97L101.3,650.2z M101,657.2h3l-1.4-4.2l0,0
				L101,657.2z"/>
			<path class="st8" d="M112.3,650.2h3.5l2.7,7.9l0,0l2.5-7.9h3.5v11.4h-2.4v-8.1l0,0l-2.8,8.1h-1.9l-2.8-8l0,0v8h-2.4v-11.4H112.3z
				"/>
			<path class="st8" d="M133.2,650.2h2.6l4.3,11.4h-2.6l-0.9-2.5h-4.3l-0.9,2.5h-2.5L133.2,650.2z M132.9,657.2h3l-1.4-4.2l0,0
				L132.9,657.2z"/>
			<path class="st8" d="M144.2,650.2h2.5l4.8,7.7l0,0v-7.7h2.4v11.4h-2.5l-4.8-7.7l0,0v7.7h-2.4V650.2z"/>
			<path class="st8" d="M159.3,650.2h8.5v2.1h-6v2.4h5.5v2h-5.5v2.8h6.2v2.1h-8.7V650.2z"/>
			<path class="st8" d="M172.8,650.2h2.5l4.8,7.7l0,0v-7.7h2.4v11.4H180l-4.8-7.7l0,0v7.7h-2.4V650.2z"/>
			<path class="st8" d="M187.6,656.3h4.8v2h-4.8V656.3z"/>
			<path class="st8" d="M55.6,677c0,1.5,1.2,2.1,2.5,2.1c0.9,0,2.2-0.3,2.2-1.4c0-1.2-1.7-1.4-3.4-1.9c-1.7-0.4-3.4-1.1-3.4-3.2
				c0-2.3,2.2-3.5,4.3-3.5c2.4,0,4.6,1,4.6,3.7H60c-0.1-1.4-1.1-1.7-2.3-1.7c-0.8,0-1.7,0.3-1.7,1.3c0,0.9,0.5,1,3.4,1.7
				c0.8,0.2,3.4,0.7,3.4,3.3c0,2.1-1.6,3.7-4.8,3.7c-2.5,0-4.9-1.2-4.9-4.1L55.6,677L55.6,677z"/>
			<path class="st8" d="M67.5,669.4H76v2.1h-6v2.4h5.5v2H70v2.8h6.2v2.1h-8.7V669.4z"/>
			<path class="st8" d="M81,669.4h8.5v2.1h-6v2.4H89v2h-5.5v2.8h6.2v2.1H81V669.4z"/>
		</g>
	</g>
	<g>
		<g>
			<path class="st1" d="M170.9,829.4h4c2.3,0,3.1,1.7,3.1,3.4c0,2.4-1.5,3.4-3.6,3.4h-1.2v4.6h-2.3V829.4z M173.2,834.5h1
				c0.9,0,1.5-0.5,1.5-1.7c0-1.1-0.4-1.8-1.6-1.8h-1v3.5H173.2z"/>
			<path class="st1" d="M179.8,829.4h2.2v3.7l0,0c0.4-0.7,1.2-1.1,2.1-1.1c1.4,0,2.2,0.8,2.2,2.4v6.4h-2.2v-5.9
				c0-0.9-0.3-1.2-0.9-1.2c-0.8,0-1.2,0.5-1.2,1.4v5.7h-2.2L179.8,829.4L179.8,829.4z"/>
			<path class="st1" d="M192.8,839.8L192.8,839.8c-0.5,0.8-1.3,1.2-2.2,1.2c-1.4,0-2.2-0.8-2.2-2.4v-6.4h2.2v5.9
				c0,0.9,0.3,1.2,0.9,1.2c0.8,0,1.2-0.5,1.2-1.4v-5.7h2.2v8.6h-2.1L192.8,839.8L192.8,839.8z"/>
			<path class="st1" d="M199.3,829.4v6l0,0l2.2-3.2h2.4l-2.5,3.4l2.8,5.2H202l-1.8-3.5l-0.8,1v2.5h-2.2v-11.4H199.3z"/>
			<path class="st1" d="M207.6,836.8v0.7c0,1,0.3,2,1.1,2c0.7,0,1-0.6,1.2-1.6h2c-0.1,2-1,3.1-3.1,3.1c-3.2,0-3.3-2.5-3.3-4.6
				c0-2.3,0.4-4.5,3.4-4.5c2.6,0,3.2,1.7,3.2,4.4v0.5L207.6,836.8L207.6,836.8z M209.8,835.5c0-1.3-0.2-2-1.1-2
				c-0.9,0-1.1,0.9-1.1,1.7v0.3H209.8z"/>
			<path class="st1" d="M214.2,829.7h2.2v2.5h1.3v1.5h-1.3v4.7c0,0.7,0.1,0.9,0.8,0.9c0.2,0,0.4,0,0.5,0v1.5c-0.5,0-0.9,0.1-1.4,0.1
				c-1.7,0-2-0.5-2-2.3v-4.9h-1.1v-1.5h1.1v-2.5H214.2z"/>
		</g>
	</g>
	<g>
		<g>
			<path class="st1" d="M335.9,598.5h3.9c1.9,0,3.2,0.7,3.2,2.9c0,1.2-0.6,2.2-1.7,2.5l0,0c1.3,0.2,2.1,1.1,2.1,2.7
				c0,1.8-0.9,3.3-3.6,3.3h-3.9V598.5z M338.2,603.2h0.7c1.3,0,1.8-0.4,1.8-1.5s-0.5-1.5-1.7-1.5h-0.8V603.2z M338.2,608.3h0.9
				c1.1,0,1.9-0.4,1.9-1.7s-0.8-1.7-1.8-1.7h-1V608.3z"/>
			<path class="st1" d="M345.3,604v-0.2c0-2,1.4-2.7,3-2.7c2.6,0,3.1,1.1,3.1,2.6v4.5c0,0.8,0,1.2,0.3,1.7h-2.1
				c-0.1-0.3-0.2-0.6-0.3-0.9l0,0c-0.5,0.9-1.1,1.1-2.2,1.1c-1.5,0-2.1-1.3-2.1-2.5c0-1.6,0.7-2.3,2.2-2.7l1.2-0.3
				c0.7-0.2,0.9-0.4,0.9-1c0-0.7-0.3-1.1-1-1.1s-1,0.4-1,1.1v0.2h-2V604z M349.3,605.7c-0.3,0.2-0.7,0.4-0.9,0.4
				c-0.9,0.2-1.2,0.6-1.2,1.4c0,0.7,0.2,1.2,0.8,1.2c0.6,0,1.4-0.4,1.4-1.3L349.3,605.7L349.3,605.7z"/>
			<path class="st1" d="M353.7,601.3h2.1v1l0,0c0.5-0.8,1.3-1.2,2.2-1.2c1.4,0,2.2,0.8,2.2,2.4v6.4H358V604c0-0.9-0.3-1.2-0.9-1.2
				c-0.8,0-1.2,0.5-1.2,1.4v5.7h-2.2L353.7,601.3L353.7,601.3z"/>
			<path class="st1" d="M368.7,601.3v8.2c0,2.3-1,3.4-3.6,3.4c-1.9,0-2.9-0.8-2.9-2.3h2.1c0,0.3,0.1,0.5,0.3,0.7
				c0.2,0.1,0.5,0.2,0.7,0.2c0.9,0,1.2-0.7,1.2-1.6v-1.1l0,0c-0.4,0.6-1.1,1.1-1.8,1.1c-1.8,0-2.6-1.2-2.6-4.4c0-2,0.3-4.4,2.7-4.4
				c0.6,0,1.4,0.3,1.8,1.2l0,0v-1L368.7,601.3L368.7,601.3z M365.4,608.2c0.9,0,1.2-1,1.2-2.5c0-2.1-0.3-2.9-1.2-2.9
				c-1,0-1.2,0.8-1.2,3.1C364.3,607.1,364.5,608.2,365.4,608.2z"/>
			<path class="st1" d="M373.2,598.5v6l0,0l2.2-3.2h2.4l-2.5,3.4l2.8,5.2h-2.4l-1.8-3.5l-0.8,1v2.5H371v-11.4H373.2z"/>
			<path class="st1" d="M382.7,601.1c2.7,0,3.4,1.5,3.4,4.5c0,2.9-0.9,4.5-3.4,4.5c-2.7,0-3.4-1.5-3.4-4.5
				C379.3,602.7,380.2,601.1,382.7,601.1z M382.7,608.7c0.9,0,1.2-0.9,1.2-3s-0.3-3-1.2-3c-1.1,0-1.2,1.3-1.2,3
				S381.6,608.7,382.7,608.7z"/>
			<path class="st1" d="M390.2,598.5v6l0,0l2.2-3.2h2.4l-2.5,3.4l2.8,5.2h-2.4l-1.8-3.5l-0.8,1v2.5H388v-11.4H390.2z"/>
		</g>
	</g>
	<g>
		<g>
			<path class="st1" d="M200.5,860.8v4.6l0,0l2.9-4.6h2.5l-3.1,4.9l3.5,6.5h-2.6l-2.4-4.7l-0.8,1.3v3.4h-2.3v-11.4H200.5z"/>
			<path class="st1" d="M210.4,863.4c2.7,0,3.4,1.5,3.4,4.5c0,2.9-0.9,4.5-3.4,4.5c-2.7,0-3.4-1.5-3.4-4.5
				C207,865,207.9,863.4,210.4,863.4z M210.4,870.9c0.9,0,1.2-0.9,1.2-3s-0.3-3-1.2-3c-1.1,0-1.2,1.3-1.2,3S209.3,870.9,210.4,870.9
				z"/>
			<path class="st1" d="M215.6,860.8h2.2v3.7l0,0c0.4-0.7,1.2-1.1,2.1-1.1c1.4,0,2.2,0.8,2.2,2.4v6.4H220v-5.9
				c0-0.9-0.3-1.2-0.9-1.2c-0.8,0-1.2,0.5-1.2,1.4v5.7h-2.2v-11.4L215.6,860.8L215.6,860.8z"/>
			<path class="st1" d="M234.7,860.8v8.2c0,2.4-1.1,3.4-3.4,3.4c-2.4,0-3-1.6-3-3.3v-0.5h2.1v0.4c0,1.2,0.2,1.8,1,1.8s1-0.6,1-1.8
				v-8.2L234.7,860.8L234.7,860.8z"/>
			<path class="st1" d="M241.2,871.2L241.2,871.2c-0.5,0.8-1.3,1.2-2.2,1.2c-1.4,0-2.2-0.8-2.2-2.4v-6.4h2.2v5.9
				c0,0.9,0.3,1.2,0.9,1.2c0.8,0,1.2-0.5,1.2-1.4v-5.7h2.2v8.6h-2.1L241.2,871.2L241.2,871.2z"/>
			<path class="st1" d="M245.4,863.6h2.1v0.9l0,0c0.6-0.8,1.2-1.1,2.2-1.1s1.7,0.5,2,1.4l0,0c0.3-0.9,1.1-1.4,2.2-1.4
				c1.5,0,2.1,0.9,2.1,2.6v6.3h-2.2v-6c0-0.7-0.2-1.1-0.9-1.1s-1.2,0.5-1.2,1.5v5.7h-2.2v-6c0-0.7-0.2-1.1-0.9-1.1s-1.2,0.5-1.2,1.5
				v5.7h-2.2v-8.9L245.4,863.6L245.4,863.6z"/>
		</g>
	</g>
	<g>
		<g>
			<path class="st1" d="M260.4,819.4h2.8l3,11.4h-2.4l-0.5-2.4h-3l-0.5,2.4h-2.4L260.4,819.4z M260.7,826.5h2.2l-1.1-5.1l0,0
				L260.7,826.5z"/>
			<path class="st1" d="M270.8,822c2.7,0,3.4,1.5,3.4,4.5c0,2.9-0.9,4.5-3.4,4.5c-2.7,0-3.4-1.5-3.4-4.5S268.2,822,270.8,822z
				 M270.8,829.5c0.9,0,1.2-0.9,1.2-3s-0.3-3-1.2-3c-1.1,0-1.2,1.3-1.2,3S269.7,829.5,270.8,829.5z"/>
			<path class="st1" d="M283.2,819.4l2.8,7.8l0,0v-7.8h2.1v11.4h-2.6l-2.8-8l0,0v8h-2.1v-11.4H283.2z"/>
			<path class="st1" d="M290.3,824.8v-0.2c0-2,1.4-2.7,3-2.7c2.6,0,3.1,1.1,3.1,2.6v4.5c0,0.8,0,1.2,0.3,1.7h-2.1
				c-0.1-0.3-0.2-0.6-0.3-0.9l0,0c-0.5,0.9-1.1,1.1-2.2,1.1c-1.5,0-2.1-1.3-2.1-2.5c0-1.6,0.7-2.3,2.2-2.7l1.2-0.3
				c0.7-0.2,0.9-0.4,0.9-1c0-0.7-0.3-1.1-1-1.1s-1,0.4-1,1.1v0.2h-2V824.8z M294.3,826.5c-0.3,0.2-0.7,0.4-0.9,0.4
				c-0.9,0.2-1.2,0.6-1.2,1.4c0,0.7,0.2,1.2,0.8,1.2c0.6,0,1.4-0.4,1.4-1.3L294.3,826.5L294.3,826.5z"/>
			<path class="st1" d="M298.6,822.2h2.1v1l0,0c0.5-0.8,1.3-1.2,2.2-1.2c1.4,0,2.2,0.8,2.2,2.4v6.4h-2.2v-5.9c0-0.9-0.3-1.2-0.9-1.2
				c-0.8,0-1.2,0.5-1.2,1.4v5.7h-2.2V822.2z"/>
			<path class="st1" d="M313.7,822.2v8.2c0,2.3-1,3.4-3.6,3.4c-1.9,0-2.9-0.8-2.9-2.3h2.1c0,0.3,0.1,0.5,0.3,0.7
				c0.2,0.1,0.5,0.2,0.7,0.2c0.9,0,1.2-0.7,1.2-1.6v-1.1l0,0c-0.4,0.6-1.1,1.1-1.8,1.1c-1.8,0-2.6-1.2-2.6-4.4c0-2,0.3-4.4,2.7-4.4
				c0.6,0,1.4,0.3,1.8,1.2l0,0v-1L313.7,822.2L313.7,822.2z M310.4,829c0.9,0,1.2-1,1.2-2.5c0-2.1-0.3-2.9-1.2-2.9
				c-1,0-1.2,0.8-1.2,3.1C309.3,827.9,309.5,829,310.4,829z"/>
		</g>
	</g>
	<g>
		<g>
			<path class="st5" d="M461.3,294.2C353.7,408.8,327.1,581,323.6,607.5"/>
			<path class="st9" d="M323.3,609.4c-0.1,1-0.2,1.5-0.2,1.5C323.2,610.4,323.2,609.9,323.3,609.4"/>
			<path class="st5" d="M323.5,605.4C337.9,363.8,181.6,289.9,157,279.8"/>
			<path class="st9" d="M155.1,279.1c-0.9-0.4-1.4-0.5-1.4-0.5"/>
		</g>
	</g>
	<polyline class="st6" points="113.8,270.6 151.2,278.6 103.2,318.2 	"/>
	<path class="st5" d="M175.5,326.9c0,0-12.7,35.3-17.3,62.7c-10.2,59.5-4.3,101.7-4.3,101.7L323.2,611c0,0-48.9,33-70,82
		c-33,76.5-24,147.8-24,147.8"/>
	<polyline class="st6" points="261.6,858.3 249.5,835 229.5,842.2 	"/>
	<polyline class="st10" points="153.8,491.3 168.8,459.1 190.5,466.6 	"/>
	<circle class="st11" cx="323.2" cy="610" r="4.3"/>
	<circle class="st11" cx="229.5" cy="842.3" r="4.3"/>
	<path class="st11" d="M249.8,830.8c2.3,0,4.3,1.9,4.3,4.3c0,2.3-1.9,4.3-4.3,4.3s-4.3-1.9-4.3-4.3
		C245.6,832.7,247.5,830.8,249.8,830.8z"/>
	<path class="st11" d="M261.6,853.5c2.3,0,4.3,1.9,4.3,4.3c0,2.3-1.9,4.3-4.3,4.3s-4.3-1.9-4.3-4.3
		C257.4,855.4,259.3,853.5,261.6,853.5z"/>
</g>
<g id="Punkte">
	<circle class="st11" cx="175.2" cy="327.9" r="4.3"/>
	<circle class="st11" cx="192.2" cy="333" r="4.3"/>
	<circle class="st11" cx="201.8" cy="343.3" r="4.3"/>
	<circle class="st11" cx="153.8" cy="491.3" r="4.3"/>
	<path class="st11" d="M169.4,456.1c2.3,0,4.3,1.9,4.3,4.3s-1.9,4.3-4.3,4.3c-2.3,0-4.3-1.9-4.3-4.3S167,456.1,169.4,456.1z"/>
	<circle class="st11" cx="189.5" cy="465.7" r="4.3"/>
	<circle class="st11" cx="113.2" cy="270.6" r="4.3"/>
	<path class="st11" d="M151.5,274.8c2.3,0,4.3,1.9,4.3,4.3c0,2.3-1.9,4.3-4.3,4.3c-2.3,0-4.3-1.9-4.3-4.3
		C147.2,276.7,149.1,274.8,151.5,274.8z"/>
	<path class="st11" d="M103.2,313.6c2.3,0,4.3,1.9,4.3,4.3s-1.9,4.3-4.3,4.3c-2.3,0-4.3-1.9-4.3-4.3S100.9,313.6,103.2,313.6z"/>
	<g>
		<g>
			<path class="st1" d="M202.6,468.4v4.6l0,0l2.9-4.6h2.5l-3.1,4.9l3.5,6.5h-2.6l-2.4-4.7l-0.8,1.3v3.4h-2.3v-11.4L202.6,468.4
				L202.6,468.4z"/>
			<path class="st1" d="M209.4,481c0.2,0,0.4,0,0.6,0c0.8,0,1.1-0.4,1.2-1.2l-2.4-8.6h2.3l1.3,6l0,0l1.1-6h2.2l-2.1,8
				c-0.8,3-1.3,3.4-3.3,3.4h-0.9L209.4,481L209.4,481z"/>
			<path class="st1" d="M217.2,473.9v-0.2c0-2,1.4-2.7,3-2.7c2.6,0,3.1,1.1,3.1,2.6v4.5c0,0.8,0,1.2,0.3,1.7h-2.1
				c-0.1-0.3-0.2-0.6-0.3-0.9l0,0c-0.5,0.9-1.1,1.1-2.2,1.1c-1.5,0-2.1-1.3-2.1-2.5c0-1.6,0.7-2.3,2.2-2.7l1.2-0.3
				c0.7-0.2,0.9-0.4,0.9-1c0-0.7-0.3-1.1-1-1.1s-1,0.4-1,1.1v0.2h-2L217.2,473.9L217.2,473.9z M221.2,475.5
				c-0.3,0.2-0.7,0.4-0.9,0.4c-0.9,0.2-1.2,0.6-1.2,1.4c0,0.7,0.2,1.2,0.8,1.2s1.4-0.4,1.4-1.3v-1.7H221.2z"/>
			<path class="st1" d="M225.6,468.3h2.2v1.9h-2.2V468.3z M225.6,471.2h2.2v8.6h-2.2V471.2z"/>
			<path class="st1" d="M232.3,468.4v6l0,0l2.2-3.2h2.4l-2.5,3.4l2.8,5.2h-2.4l-1.8-3.5l-0.8,1v2.5H230v-11.4H232.3z"/>
			<path class="st1" d="M239.1,468.8h2.2v2.5h1.3v1.5h-1.3v4.7c0,0.7,0.1,0.9,0.8,0.9c0.2,0,0.4,0,0.5,0v1.5c-0.5,0-0.9,0.1-1.4,0.1
				c-1.7,0-2-0.5-2-2.3v-4.9H238v-1.5h1.1V468.8z"/>
			<path class="st1" d="M244.1,468.3h2.2v1.9h-2.2V468.3z M244.1,471.2h2.2v8.6h-2.2V471.2z"/>
			<path class="st1" d="M248.5,481c0.2,0,0.4,0,0.6,0c0.8,0,1.1-0.4,1.2-1.2l-2.4-8.6h2.3l1.3,6l0,0l1.1-6h2.2l-2.1,8
				c-0.8,3-1.3,3.4-3.3,3.4h-0.9L248.5,481L248.5,481z"/>
			<path class="st1" d="M259.3,471c2.7,0,3.4,1.5,3.4,4.5c0,2.9-0.9,4.5-3.4,4.5c-2.7,0-3.4-1.5-3.4-4.5
				C256,472.6,256.8,471,259.3,471z M259.3,478.6c0.9,0,1.2-0.9,1.2-3s-0.3-3-1.2-3c-1.1,0-1.2,1.3-1.2,3S258.3,478.6,259.3,478.6z"
				/>
		</g>
	</g>
	<g>
		<g>
			<path class="st1" d="M199.9,298.3l2.8,7.8l0,0v-7.8h2.1v11.4h-2.6l-2.8-8l0,0v8h-2.1v-11.4H199.9z"/>
			<path class="st1" d="M207.1,310.9c0.2,0,0.4,0,0.6,0c0.8,0,1.1-0.4,1.2-1.2l-2.4-8.6h2.3l1.3,6l0,0l1.1-6h2.2l-2.1,8
				c-0.8,3-1.3,3.4-3.3,3.4h-0.9L207.1,310.9L207.1,310.9z"/>
			<path class="st1" d="M214.8,303.8v-0.2c0-2,1.4-2.7,3-2.7c2.6,0,3.1,1.1,3.1,2.6v4.5c0,0.8,0,1.2,0.3,1.7h-2.1
				c-0.1-0.3-0.2-0.6-0.3-0.9l0,0c-0.5,0.9-1.1,1.1-2.2,1.1c-1.5,0-2.1-1.3-2.1-2.5c0-1.6,0.7-2.3,2.2-2.7l1.2-0.3
				c0.7-0.2,0.9-0.4,0.9-1c0-0.7-0.3-1.1-1-1.1s-1,0.4-1,1.1v0.2h-2L214.8,303.8L214.8,303.8z M218.8,305.5
				c-0.3,0.2-0.7,0.4-0.9,0.4c-0.9,0.2-1.2,0.6-1.2,1.4c0,0.7,0.2,1.2,0.8,1.2s1.4-0.4,1.4-1.3v-1.7H218.8z"/>
			<path class="st1" d="M227.5,308.8L227.5,308.8c-0.5,0.8-1.3,1.2-2.2,1.2c-1.4,0-2.2-0.8-2.2-2.4v-6.4h2.2v5.9
				c0,0.9,0.3,1.2,0.9,1.2c0.8,0,1.2-0.5,1.2-1.4v-5.7h2.2v8.6h-2.1L227.5,308.8L227.5,308.8z"/>
			<path class="st1" d="M231.8,301.2h2.1v1l0,0c0.5-0.8,1.3-1.2,2.2-1.2c1.4,0,2.2,0.8,2.2,2.4v6.4h-2.2v-5.9c0-0.9-0.3-1.2-0.9-1.2
				c-0.8,0-1.2,0.5-1.2,1.4v5.7h-2.2L231.8,301.2L231.8,301.2z"/>
			<path class="st1" d="M246.9,301.2v8.2c0,2.3-1,3.4-3.6,3.4c-1.9,0-2.9-0.8-2.9-2.3h2.1c0,0.3,0.1,0.5,0.3,0.7
				c0.2,0.1,0.5,0.2,0.7,0.2c0.9,0,1.2-0.7,1.2-1.6v-1.1l0,0c-0.4,0.6-1.1,1.1-1.8,1.1c-1.8,0-2.6-1.2-2.6-4.4c0-2,0.3-4.4,2.7-4.4
				c0.6,0,1.4,0.3,1.8,1.2l0,0v-1L246.9,301.2L246.9,301.2z M243.5,308c0.9,0,1.2-1,1.2-2.5c0-2.1-0.3-2.9-1.2-2.9
				c-1,0-1.2,0.8-1.2,3.1C242.4,306.9,242.6,308,243.5,308z"/>
			<path class="st1" d="M198.8,323v0.3c0,0.8,0.4,1.2,1.2,1.2c0.7,0,1.1-0.3,1.1-1c0-0.6-0.4-0.8-0.8-1l-1.6-0.6
				c-1.2-0.4-1.8-1.2-1.8-2.4c0-1.4,0.9-2.6,3.2-2.6c2,0,2.9,0.9,2.9,2.4v0.4h-2c0-0.9-0.3-1.3-1-1.3c-0.6,0-1,0.3-1,0.9
				c0,0.4,0.2,0.8,1,1l1.3,0.4c1.4,0.5,1.9,1.2,1.9,2.5c0,1.8-1.3,2.7-3.2,2.7c-2.5,0-3.2-1.1-3.2-2.7V323H198.8z"/>
			<path class="st1" d="M205,314.3h2.2v3.7l0,0c0.4-0.7,1.2-1.1,2.1-1.1c1.4,0,2.2,0.8,2.2,2.4v6.4h-2.2v-5.9c0-0.9-0.3-1.2-0.9-1.2
				c-0.8,0-1.2,0.5-1.2,1.4v5.7H205V314.3z"/>
			<path class="st1" d="M213,317.2h2.2l1,6.1l0,0l1.1-6.1h2.4l1.1,6.1l0,0l1-6.1h2.1l-1.9,8.6h-2.5l-1.1-6.1l0,0l-1.1,6.1h-2.6
				L213,317.2z"/>
			<path class="st1" d="M227.4,321.8v0.7c0,1,0.3,2,1.1,2c0.7,0,1-0.6,1.2-1.6h2c-0.1,2-1,3.1-3.1,3.1c-3.2,0-3.3-2.5-3.3-4.6
				c0-2.3,0.4-4.5,3.4-4.5c2.6,0,3.2,1.7,3.2,4.4v0.5H227.4z M229.7,320.5c0-1.3-0.2-2-1.1-2c-0.9,0-1.1,0.9-1.1,1.7v0.3H229.7z"/>
		</g>
	</g>
	<g>
		<g>
			<path class="st1" d="M209.2,350v4.6l0,0l2.9-4.6h2.5l-3.1,4.9l3.5,6.5h-2.6l-2.4-4.7l-0.8,1.3v3.4h-2.3V350H209.2z"/>
			<path class="st1" d="M216,355.5v-0.2c0-2,1.4-2.7,3-2.7c2.6,0,3.1,1.1,3.1,2.6v4.5c0,0.8,0,1.2,0.3,1.7h-2.1
				c-0.1-0.3-0.2-0.6-0.3-0.9l0,0c-0.5,0.9-1.1,1.1-2.2,1.1c-1.5,0-2.1-1.3-2.1-2.5c0-1.6,0.7-2.3,2.2-2.7l1.2-0.3
				c0.7-0.2,0.9-0.4,0.9-1c0-0.7-0.3-1.1-1-1.1s-1,0.4-1,1.1v0.2h-2L216,355.5L216,355.5z M220,357.1c-0.3,0.2-0.7,0.4-0.9,0.4
				c-0.9,0.2-1.2,0.6-1.2,1.4c0,0.7,0.2,1.2,0.8,1.2s1.4-0.4,1.4-1.3v-1.7H220z"/>
			<path class="st1" d="M226.6,350v6l0,0l2.2-3.2h2.4l-2.5,3.4l2.8,5.2h-2.4l-1.8-3.5l-0.8,1v2.5h-2.2V350H226.6z"/>
			<path class="st1" d="M235.3,350v6l0,0l2.2-3.2h2.4l-2.5,3.4l2.8,5.2h-2.4l-1.8-3.5l-0.8,1v2.5H233V350H235.3z"/>
			<path class="st1" d="M246.1,360.4L246.1,360.4c-0.5,0.8-1.3,1.2-2.2,1.2c-1.4,0-2.2-0.8-2.2-2.4v-6.4h2.2v5.9
				c0,0.9,0.3,1.2,0.9,1.2c0.8,0,1.2-0.5,1.2-1.4v-5.7h2.2v8.6h-2.1L246.1,360.4L246.1,360.4z"/>
		</g>
	</g>
</g>
<g>
	<circle class="st12" cx="323.1" cy="593.3" r="6.4"/>
	<path class="st13" d="M323.1,583.8c-5,0-9,4-9,9c0,2,1.3,5.3,3.9,10c1.9,3.3,3.7,6.1,3.8,6.2l1.3,2l1.3-2c0.1-0.1,1.9-2.9,3.8-6.2
		c2.6-4.7,3.9-8,3.9-10C332.1,587.8,328,583.8,323.1,583.8z M323.1,597.5c-2.6,0-4.7-2.1-4.7-4.7c0-2.6,2.1-4.7,4.7-4.7
		c2.6,0,4.7,2.1,4.7,4.7C327.7,595.3,325.7,597.5,323.1,597.5z"/>
</g>
</svg>
